<svg width="650" height="328" viewBox="0 0 650 328" fill="none" xmlns="http://www.w3.org/2000/svg">
<rect x="0.943647" y="0.645796" width="642.812" height="326.522" rx="4.18619" fill="white" stroke="#E5E5E5" stroke-width="0.930263"/>
<path d="M38.4423 299.528V303.575C38.4423 304.025 38.3035 304.387 38.0258 304.659C37.7482 304.926 37.3815 305.06 36.9258 305.06C36.4648 305.06 36.0955 304.924 35.8179 304.651C35.5403 304.374 35.4014 303.997 35.4014 303.52H36.1165C36.1217 303.787 36.1898 304.004 36.3208 304.172C36.457 304.34 36.6586 304.423 36.9258 304.423C37.1929 304.423 37.392 304.345 37.523 304.188C37.6539 304.025 37.7194 303.821 37.7194 303.575V299.528H38.4423ZM39.5838 302.836C39.5838 302.396 39.6728 302.011 39.8509 301.681C40.029 301.346 40.2726 301.087 40.5817 300.903C40.896 300.72 41.2443 300.628 41.6267 300.628C42.0039 300.628 42.3313 300.709 42.6089 300.872C42.8866 301.034 43.0935 301.239 43.2297 301.485V300.699H43.9526V305.005H43.2297V304.203C43.0882 304.455 42.8761 304.664 42.5932 304.832C42.3156 304.994 41.9908 305.076 41.6189 305.076C41.2365 305.076 40.8907 304.981 40.5817 304.793C40.2726 304.604 40.029 304.34 39.8509 303.999C39.6728 303.659 39.5838 303.271 39.5838 302.836ZM43.2297 302.844C43.2297 302.519 43.1642 302.236 43.0332 301.995C42.9023 301.754 42.7242 301.571 42.4989 301.445C42.2789 301.314 42.0353 301.249 41.7682 301.249C41.501 301.249 41.2574 301.312 41.0374 301.438C40.8174 301.563 40.6419 301.747 40.511 301.988C40.38 302.229 40.3145 302.511 40.3145 302.836C40.3145 303.166 40.38 303.454 40.511 303.701C40.6419 303.942 40.8174 304.127 41.0374 304.258C41.2574 304.384 41.501 304.447 41.7682 304.447C42.0353 304.447 42.2789 304.384 42.4989 304.258C42.7242 304.127 42.9023 303.942 43.0332 303.701C43.1642 303.454 43.2297 303.169 43.2297 302.844ZM47.2588 300.62C47.7827 300.62 48.207 300.78 48.5318 301.1C48.8565 301.414 49.0189 301.87 49.0189 302.467V305.005H48.3118V302.569C48.3118 302.14 48.2044 301.812 47.9896 301.587C47.7748 301.356 47.4815 301.241 47.1096 301.241C46.7324 301.241 46.4312 301.359 46.2059 301.595C45.9859 301.83 45.8759 302.174 45.8759 302.624V305.005H45.1609V300.699H45.8759V301.312C46.0174 301.092 46.2086 300.922 46.4495 300.801C46.6957 300.681 46.9655 300.62 47.2588 300.62ZM54.0057 300.699V305.005H53.2906V304.368C53.1545 304.588 52.9633 304.761 52.7171 304.887C52.4761 305.008 52.2089 305.068 51.9156 305.068C51.5803 305.068 51.2791 305 51.012 304.863C50.7448 304.722 50.5327 304.512 50.3755 304.235C50.2236 303.957 50.1476 303.619 50.1476 303.221V300.699H50.8548V303.127C50.8548 303.551 50.9622 303.879 51.177 304.109C51.3918 304.334 51.6851 304.447 52.057 304.447C52.4394 304.447 52.7406 304.329 52.9606 304.093C53.1806 303.858 53.2906 303.515 53.2906 303.064V300.699H54.0057ZM54.9458 302.836C54.9458 302.396 55.0349 302.011 55.213 301.681C55.3911 301.346 55.6347 301.087 55.9437 300.903C56.258 300.72 56.6064 300.628 56.9888 300.628C57.3659 300.628 57.6933 300.709 57.971 300.872C58.2486 301.034 58.4555 301.239 58.5917 301.485V300.699H59.3146V305.005H58.5917V304.203C58.4503 304.455 58.2381 304.664 57.9552 304.832C57.6776 304.994 57.3528 305.076 56.9809 305.076C56.5985 305.076 56.2528 304.981 55.9437 304.793C55.6347 304.604 55.3911 304.34 55.213 303.999C55.0349 303.659 54.9458 303.271 54.9458 302.836ZM58.5917 302.844C58.5917 302.519 58.5262 302.236 58.3953 301.995C58.2643 301.754 58.0862 301.571 57.861 301.445C57.6409 301.314 57.3974 301.249 57.1302 301.249C56.8631 301.249 56.6195 301.312 56.3995 301.438C56.1794 301.563 56.004 301.747 55.873 301.988C55.742 302.229 55.6766 302.511 55.6766 302.836C55.6766 303.166 55.742 303.454 55.873 303.701C56.004 303.942 56.1794 304.127 56.3995 304.258C56.6195 304.384 56.8631 304.447 57.1302 304.447C57.3974 304.447 57.6409 304.384 57.861 304.258C58.0862 304.127 58.2643 303.942 58.3953 303.701C58.5262 303.454 58.5917 303.169 58.5917 302.844ZM61.238 301.398C61.3637 301.152 61.5418 300.961 61.7723 300.825C62.008 300.688 62.2935 300.62 62.6287 300.62V301.359H62.4402C61.6387 301.359 61.238 301.794 61.238 302.663V305.005H60.5229V300.699H61.238V301.398ZM67.1629 300.699L64.5699 307.032H63.8313L64.6799 304.958L62.9434 300.699H63.737L65.0885 304.188L66.4243 300.699H67.1629Z" fill="#92959E"/>
<path d="M148.196 299.528V300.11H145.815V301.956H147.748V302.538H145.815V305.005H145.1V299.528H148.196ZM152.989 302.687C152.989 302.823 152.981 302.967 152.965 303.119H149.523C149.55 303.543 149.694 303.876 149.956 304.117C150.223 304.353 150.545 304.471 150.922 304.471C151.231 304.471 151.488 304.4 151.692 304.258C151.902 304.112 152.048 303.918 152.132 303.677H152.902C152.787 304.091 152.556 304.429 152.211 304.691C151.865 304.947 151.435 305.076 150.922 305.076C150.513 305.076 150.147 304.984 149.822 304.801C149.502 304.617 149.251 304.358 149.068 304.023C148.884 303.682 148.793 303.289 148.793 302.844C148.793 302.399 148.882 302.009 149.06 301.673C149.238 301.338 149.487 301.081 149.806 300.903C150.131 300.72 150.503 300.628 150.922 300.628C151.331 300.628 151.692 300.717 152.006 300.895C152.321 301.074 152.562 301.32 152.729 301.634C152.902 301.943 152.989 302.294 152.989 302.687ZM152.25 302.538C152.25 302.265 152.19 302.032 152.069 301.838C151.949 301.639 151.784 301.49 151.574 301.39C151.37 301.286 151.142 301.233 150.891 301.233C150.529 301.233 150.22 301.349 149.963 301.579C149.712 301.809 149.568 302.129 149.531 302.538H152.25ZM154.647 301.5C154.794 301.244 155.009 301.034 155.292 300.872C155.575 300.709 155.897 300.628 156.258 300.628C156.646 300.628 156.994 300.72 157.303 300.903C157.612 301.087 157.856 301.346 158.034 301.681C158.212 302.011 158.301 302.396 158.301 302.836C158.301 303.271 158.212 303.659 158.034 303.999C157.856 304.34 157.61 304.604 157.295 304.793C156.986 304.981 156.641 305.076 156.258 305.076C155.886 305.076 155.559 304.994 155.276 304.832C154.998 304.67 154.789 304.463 154.647 304.211V305.005H153.932V299.19H154.647V301.5ZM157.57 302.836C157.57 302.511 157.505 302.229 157.374 301.988C157.243 301.747 157.065 301.563 156.84 301.438C156.62 301.312 156.376 301.249 156.109 301.249C155.847 301.249 155.603 301.314 155.378 301.445C155.158 301.571 154.98 301.757 154.844 302.003C154.713 302.244 154.647 302.525 154.647 302.844C154.647 303.169 154.713 303.454 154.844 303.701C154.98 303.942 155.158 304.127 155.378 304.258C155.603 304.384 155.847 304.447 156.109 304.447C156.376 304.447 156.62 304.384 156.84 304.258C157.065 304.127 157.243 303.942 157.374 303.701C157.505 303.454 157.57 303.166 157.57 302.836ZM159.957 301.398C160.083 301.152 160.261 300.961 160.492 300.825C160.727 300.688 161.013 300.62 161.348 300.62V301.359H161.16C160.358 301.359 159.957 301.794 159.957 302.663V305.005H159.242V300.699H159.957V301.398ZM165.992 300.699V305.005H165.277V304.368C165.141 304.588 164.95 304.761 164.704 304.887C164.463 305.008 164.196 305.068 163.902 305.068C163.567 305.068 163.266 305 162.999 304.863C162.731 304.722 162.519 304.512 162.362 304.235C162.21 303.957 162.134 303.619 162.134 303.221V300.699H162.841V303.127C162.841 303.551 162.949 303.879 163.164 304.109C163.378 304.334 163.672 304.447 164.044 304.447C164.426 304.447 164.727 304.329 164.947 304.093C165.167 303.858 165.277 303.515 165.277 303.064V300.699H165.992ZM166.932 302.836C166.932 302.396 167.022 302.011 167.2 301.681C167.378 301.346 167.621 301.087 167.93 300.903C168.245 300.72 168.593 300.628 168.975 300.628C169.353 300.628 169.68 300.709 169.958 300.872C170.235 301.034 170.442 301.239 170.578 301.485V300.699H171.301V305.005H170.578V304.203C170.437 304.455 170.225 304.664 169.942 304.832C169.664 304.994 169.339 305.076 168.968 305.076C168.585 305.076 168.239 304.981 167.93 304.793C167.621 304.604 167.378 304.34 167.2 303.999C167.022 303.659 166.932 303.271 166.932 302.836ZM170.578 302.844C170.578 302.519 170.513 302.236 170.382 301.995C170.251 301.754 170.073 301.571 169.848 301.445C169.628 301.314 169.384 301.249 169.117 301.249C168.85 301.249 168.606 301.312 168.386 301.438C168.166 301.563 167.991 301.747 167.86 301.988C167.729 302.229 167.663 302.511 167.663 302.836C167.663 303.166 167.729 303.454 167.86 303.701C167.991 303.942 168.166 304.127 168.386 304.258C168.606 304.384 168.85 304.447 169.117 304.447C169.384 304.447 169.628 304.384 169.848 304.258C170.073 304.127 170.251 303.942 170.382 303.701C170.513 303.454 170.578 303.169 170.578 302.844ZM173.225 301.398C173.35 301.152 173.528 300.961 173.759 300.825C173.995 300.688 174.28 300.62 174.615 300.62V301.359H174.427C173.625 301.359 173.225 301.794 173.225 302.663V305.005H172.51V300.699H173.225V301.398ZM179.15 300.699L176.557 307.032H175.818L176.667 304.958L174.93 300.699H175.724L177.075 304.188L178.411 300.699H179.15Z" fill="#92959E"/>
<path d="M264.942 299.567V305.005H264.227V300.95L262.419 305.005H261.916L260.101 300.943V305.005H259.386V299.567H260.156L262.168 304.062L264.179 299.567H264.942ZM265.887 302.836C265.887 302.396 265.976 302.011 266.154 301.681C266.332 301.346 266.576 301.087 266.885 300.903C267.199 300.72 267.548 300.628 267.93 300.628C268.307 300.628 268.635 300.709 268.912 300.872C269.19 301.034 269.397 301.239 269.533 301.485V300.699H270.256V305.005H269.533V304.203C269.392 304.455 269.179 304.664 268.897 304.832C268.619 304.994 268.294 305.076 267.922 305.076C267.54 305.076 267.194 304.981 266.885 304.793C266.576 304.604 266.332 304.34 266.154 303.999C265.976 303.659 265.887 303.271 265.887 302.836ZM269.533 302.844C269.533 302.519 269.467 302.236 269.337 301.995C269.206 301.754 269.027 301.571 268.802 301.445C268.582 301.314 268.339 301.249 268.071 301.249C267.804 301.249 267.561 301.312 267.341 301.438C267.121 301.563 266.945 301.747 266.814 301.988C266.683 302.229 266.618 302.511 266.618 302.836C266.618 303.166 266.683 303.454 266.814 303.701C266.945 303.942 267.121 304.127 267.341 304.258C267.561 304.384 267.804 304.447 268.071 304.447C268.339 304.447 268.582 304.384 268.802 304.258C269.027 304.127 269.206 303.942 269.337 303.701C269.467 303.454 269.533 303.169 269.533 302.844ZM272.179 301.398C272.305 301.152 272.483 300.961 272.714 300.825C272.949 300.688 273.235 300.62 273.57 300.62V301.359H273.381C272.58 301.359 272.179 301.794 272.179 302.663V305.005H271.464V300.699H272.179V301.398ZM274.128 302.844C274.128 302.399 274.217 302.011 274.395 301.681C274.574 301.346 274.82 301.087 275.134 300.903C275.454 300.72 275.818 300.628 276.226 300.628C276.755 300.628 277.19 300.757 277.531 301.013C277.876 301.27 278.104 301.626 278.214 302.082H277.444C277.371 301.82 277.227 301.613 277.012 301.461C276.802 301.309 276.541 301.233 276.226 301.233C275.818 301.233 275.488 301.375 275.236 301.658C274.985 301.935 274.859 302.331 274.859 302.844C274.859 303.363 274.985 303.763 275.236 304.046C275.488 304.329 275.818 304.471 276.226 304.471C276.541 304.471 276.802 304.397 277.012 304.251C277.221 304.104 277.366 303.894 277.444 303.622H278.214C278.099 304.062 277.868 304.416 277.523 304.683C277.177 304.945 276.745 305.076 276.226 305.076C275.818 305.076 275.454 304.984 275.134 304.801C274.82 304.617 274.574 304.358 274.395 304.023C274.217 303.687 274.128 303.295 274.128 302.844ZM281.305 300.62C281.63 300.62 281.924 300.691 282.186 300.833C282.447 300.969 282.652 301.176 282.798 301.453C282.95 301.731 283.026 302.069 283.026 302.467V305.005H282.319V302.569C282.319 302.14 282.212 301.812 281.997 301.587C281.782 301.356 281.489 301.241 281.117 301.241C280.74 301.241 280.439 301.359 280.213 301.595C279.993 301.83 279.883 302.174 279.883 302.624V305.005H279.168V299.19H279.883V301.312C280.025 301.092 280.219 300.922 280.465 300.801C280.716 300.681 280.996 300.62 281.305 300.62Z" fill="#92959E"/>
<path d="M377.027 303.787H374.639L374.199 305.005H373.444L375.424 299.56H376.249L378.222 305.005H377.467L377.027 303.787ZM376.823 303.206L375.833 300.44L374.843 303.206H376.823ZM379.8 301.493C379.941 301.246 380.151 301.042 380.428 300.88C380.711 300.712 381.039 300.628 381.41 300.628C381.793 300.628 382.139 300.72 382.448 300.903C382.762 301.087 383.008 301.346 383.186 301.681C383.364 302.011 383.453 302.396 383.453 302.836C383.453 303.271 383.364 303.659 383.186 303.999C383.008 304.34 382.762 304.604 382.448 304.793C382.139 304.981 381.793 305.076 381.41 305.076C381.044 305.076 380.719 304.994 380.436 304.832C380.159 304.664 379.946 304.457 379.8 304.211V307.048H379.085V300.699H379.8V301.493ZM382.723 302.836C382.723 302.511 382.657 302.229 382.526 301.988C382.395 301.747 382.217 301.563 381.992 301.438C381.772 301.312 381.528 301.249 381.261 301.249C380.999 301.249 380.756 301.314 380.53 301.445C380.31 301.571 380.132 301.757 379.996 302.003C379.865 302.244 379.8 302.525 379.8 302.844C379.8 303.169 379.865 303.454 379.996 303.701C380.132 303.942 380.31 304.127 380.53 304.258C380.756 304.384 380.999 304.447 381.261 304.447C381.528 304.447 381.772 304.384 381.992 304.258C382.217 304.127 382.395 303.942 382.526 303.701C382.657 303.454 382.723 303.166 382.723 302.836ZM385.11 301.398C385.235 301.152 385.413 300.961 385.644 300.825C385.88 300.688 386.165 300.62 386.5 300.62V301.359H386.312C385.51 301.359 385.11 301.794 385.11 302.663V305.005H384.395V300.699H385.11V301.398ZM387.695 300C387.559 300 387.444 299.953 387.349 299.858C387.255 299.764 387.208 299.649 387.208 299.512C387.208 299.376 387.255 299.261 387.349 299.167C387.444 299.072 387.559 299.025 387.695 299.025C387.826 299.025 387.936 299.072 388.025 299.167C388.119 299.261 388.167 299.376 388.167 299.512C388.167 299.649 388.119 299.764 388.025 299.858C387.936 299.953 387.826 300 387.695 300ZM388.041 300.699V305.005H387.326V300.699H388.041ZM389.975 299.19V305.005H389.26V299.19H389.975Z" fill="#92959E"/>
<path d="M491.426 299.567V305.005H490.711V300.95L488.904 305.005H488.401L486.586 300.943V305.005H485.871V299.567H486.641L488.652 304.062L490.664 299.567H491.426ZM492.371 302.836C492.371 302.396 492.46 302.011 492.638 301.681C492.817 301.346 493.06 301.087 493.369 300.903C493.683 300.72 494.032 300.628 494.414 300.628C494.791 300.628 495.119 300.709 495.396 300.872C495.674 301.034 495.881 301.239 496.017 301.485V300.699H496.74V305.005H496.017V304.203C495.876 304.455 495.664 304.664 495.381 304.832C495.103 304.994 494.778 305.076 494.406 305.076C494.024 305.076 493.678 304.981 493.369 304.793C493.06 304.604 492.817 304.34 492.638 303.999C492.46 303.659 492.371 303.271 492.371 302.836ZM496.017 302.844C496.017 302.519 495.952 302.236 495.821 301.995C495.69 301.754 495.512 301.571 495.286 301.445C495.066 301.314 494.823 301.249 494.556 301.249C494.289 301.249 494.045 301.312 493.825 301.438C493.605 301.563 493.429 301.747 493.298 301.988C493.167 302.229 493.102 302.511 493.102 302.836C493.102 303.166 493.167 303.454 493.298 303.701C493.429 303.942 493.605 304.127 493.825 304.258C494.045 304.384 494.289 304.447 494.556 304.447C494.823 304.447 495.066 304.384 495.286 304.258C495.512 304.127 495.69 303.942 495.821 303.701C495.952 303.454 496.017 303.169 496.017 302.844ZM501.657 300.699L499.064 307.032H498.326L499.174 304.958L497.438 300.699H498.231L499.583 304.188L500.919 300.699H501.657Z" fill="#92959E"/>
<path d="M587.117 299.528V303.575C587.117 304.025 586.978 304.387 586.7 304.659C586.423 304.926 586.056 305.06 585.6 305.06C585.139 305.06 584.77 304.924 584.492 304.651C584.215 304.374 584.076 303.997 584.076 303.52H584.791C584.796 303.787 584.864 304.004 584.995 304.172C585.131 304.34 585.333 304.423 585.6 304.423C585.867 304.423 586.066 304.345 586.197 304.188C586.328 304.025 586.394 303.821 586.394 303.575V299.528H587.117ZM592.344 300.699V305.005H591.629V304.368C591.493 304.588 591.302 304.761 591.055 304.887C590.815 305.008 590.547 305.068 590.254 305.068C589.919 305.068 589.618 305 589.35 304.863C589.083 304.722 588.871 304.512 588.714 304.235C588.562 303.957 588.486 303.619 588.486 303.221V300.699H589.193V303.127C589.193 303.551 589.301 303.879 589.515 304.109C589.73 304.334 590.024 304.447 590.395 304.447C590.778 304.447 591.079 304.329 591.299 304.093C591.519 303.858 591.629 303.515 591.629 303.064V300.699H592.344ZM595.649 300.62C596.173 300.62 596.598 300.78 596.922 301.1C597.247 301.414 597.409 301.87 597.409 302.467V305.005H596.702V302.569C596.702 302.14 596.595 301.812 596.38 301.587C596.165 301.356 595.872 301.241 595.5 301.241C595.123 301.241 594.822 301.359 594.596 301.595C594.376 301.83 594.266 302.174 594.266 302.624V305.005H593.551V300.699H594.266V301.312C594.408 301.092 594.599 300.922 594.84 300.801C595.086 300.681 595.356 300.62 595.649 300.62ZM602.506 302.687C602.506 302.823 602.498 302.967 602.483 303.119H599.041C599.067 303.543 599.211 303.876 599.473 304.117C599.74 304.353 600.063 304.471 600.44 304.471C600.749 304.471 601.005 304.4 601.21 304.258C601.419 304.112 601.566 303.918 601.65 303.677H602.42C602.305 304.091 602.074 304.429 601.728 304.691C601.383 304.947 600.953 305.076 600.44 305.076C600.031 305.076 599.664 304.984 599.34 304.801C599.02 304.617 598.769 304.358 598.585 304.023C598.402 303.682 598.31 303.289 598.31 302.844C598.31 302.399 598.399 302.009 598.577 301.673C598.756 301.338 599.004 301.081 599.324 300.903C599.649 300.72 600.021 300.628 600.44 300.628C600.848 300.628 601.21 300.717 601.524 300.895C601.838 301.074 602.079 301.32 602.247 301.634C602.42 301.943 602.506 302.294 602.506 302.687ZM601.768 302.538C601.768 302.265 601.707 302.032 601.587 301.838C601.466 301.639 601.301 301.49 601.092 301.39C600.888 301.286 600.66 301.233 600.408 301.233C600.047 301.233 599.738 301.349 599.481 301.579C599.23 301.809 599.086 302.129 599.049 302.538H601.768Z" fill="#92959E"/>
<g opacity="0.24">
<rect x="31.1772" y="131.349" width="13.954" height="145.121" fill="#3AA959"/>
</g>
<g opacity="0.64">
<rect x="31.1775" y="127.627" width="13.954" height="1.86053" fill="#3AA959"/>
</g>
<g opacity="0.24">
<rect x="47.2997" y="133.208" width="13.954" height="143.261" fill="#3AA959"/>
</g>
<g opacity="0.64">
<rect x="47.2997" y="129.488" width="13.954" height="1.86053" fill="#3AA959"/>
</g>
<g opacity="0.24">
<rect x="63.4225" y="129.488" width="13.954" height="146.982" fill="#3AA959"/>
</g>
<g opacity="0.64">
<rect x="63.4225" y="125.768" width="13.954" height="1.86053" fill="#3AA959"/>
</g>
<g opacity="0.24">
<rect x="79.5449" y="123.906" width="13.954" height="152.563" fill="#3AA959"/>
</g>
<g opacity="0.64">
<rect x="79.5449" y="120.186" width="13.954" height="1.86053" fill="#3AA959"/>
</g>
<g opacity="0.24">
<rect x="95.6678" y="122.977" width="13.954" height="153.493" fill="#3AA959"/>
</g>
<g opacity="0.64">
<rect x="95.6678" y="119.256" width="13.954" height="1.86053" fill="#3AA959"/>
</g>
<g opacity="0.24">
<rect x="111.79" y="131.349" width="13.954" height="145.121" fill="#3AA959"/>
</g>
<g opacity="0.64">
<rect x="111.79" y="127.627" width="13.954" height="1.86053" fill="#3AA959"/>
</g>
<g opacity="0.24">
<rect x="127.913" y="118.325" width="13.954" height="158.145" fill="#3AA959"/>
</g>
<g opacity="0.64">
<rect x="127.913" y="114.604" width="13.954" height="1.86053" fill="#3AA959"/>
</g>
<g opacity="0.24">
<rect x="144.036" y="105.302" width="13.954" height="171.168" fill="#3AA959"/>
</g>
<g opacity="0.64">
<rect x="144.036" y="101.58" width="13.954" height="1.86053" fill="#3AA959"/>
</g>
<g opacity="0.24">
<rect x="160.158" y="112.743" width="13.954" height="163.726" fill="#3AA959"/>
</g>
<g opacity="0.64">
<rect x="160.158" y="109.021" width="13.954" height="1.86053" fill="#3AA959"/>
</g>
<g opacity="0.24">
<rect x="176.281" y="99.7197" width="13.954" height="176.75" fill="#3AA959"/>
</g>
<g opacity="0.64">
<rect x="176.281" y="95.999" width="13.954" height="1.86053" fill="#3AA959"/>
</g>
<g opacity="0.24">
<rect x="192.404" y="120.186" width="13.954" height="156.284" fill="#3AA959"/>
</g>
<g opacity="0.64">
<rect x="192.404" y="116.465" width="13.954" height="1.86053" fill="#3AA959"/>
</g>
<g opacity="0.24">
<rect x="208.526" y="118.325" width="13.954" height="158.145" fill="#3AA959"/>
</g>
<g opacity="0.64">
<rect x="208.526" y="114.604" width="13.954" height="1.86053" fill="#3AA959"/>
</g>
<g opacity="0.24">
<rect x="224.649" y="114.604" width="13.954" height="161.866" fill="#3AA959"/>
</g>
<g opacity="0.64">
<rect x="224.649" y="110.883" width="13.954" height="1.86053" fill="#3AA959"/>
</g>
<g opacity="0.24">
<rect x="240.772" y="105.302" width="13.954" height="171.168" fill="#3AA959"/>
</g>
<g opacity="0.64">
<rect x="240.772" y="101.58" width="13.954" height="1.86053" fill="#3AA959"/>
</g>
<g opacity="0.24">
<rect x="256.894" y="116.465" width="13.954" height="160.005" fill="#3AA959"/>
</g>
<g opacity="0.64">
<rect x="256.894" y="112.743" width="13.954" height="1.86053" fill="#3AA959"/>
</g>
<g opacity="0.24">
<rect x="273.017" y="103.44" width="13.954" height="173.029" fill="#3AA959"/>
</g>
<g opacity="0.64">
<rect x="273.017" y="99.7197" width="13.954" height="1.86053" fill="#3AA959"/>
</g>
<g opacity="0.24">
<rect x="289.14" y="109.021" width="13.954" height="167.447" fill="#3AA959"/>
</g>
<g opacity="0.64">
<rect x="289.14" y="105.302" width="13.954" height="1.86053" fill="#3AA959"/>
</g>
<g opacity="0.24">
<rect x="305.263" y="101.58" width="13.954" height="174.89" fill="#3AA959"/>
</g>
<g opacity="0.64">
<rect x="305.263" y="97.8594" width="13.954" height="1.86053" fill="#3AA959"/>
</g>
<g opacity="0.24">
<rect x="321.385" y="97.8594" width="13.954" height="178.611" fill="#3AA959"/>
</g>
<g opacity="0.64">
<rect x="321.385" y="94.1387" width="13.954" height="1.86053" fill="#3AA959"/>
</g>
<g opacity="0.24">
<rect x="337.508" y="89.4863" width="13.954" height="186.983" fill="#3AA959"/>
</g>
<g opacity="0.64">
<rect x="337.508" y="85.7646" width="13.954" height="1.86053" fill="#3AA959"/>
</g>
<g opacity="0.24">
<rect x="353.63" y="92.2773" width="13.954" height="184.192" fill="#3AA959"/>
</g>
<g opacity="0.64">
<rect x="353.63" y="88.5566" width="13.954" height="1.86053" fill="#3AA959"/>
</g>
<g opacity="0.24">
<rect x="369.753" y="94.1387" width="13.954" height="182.332" fill="#3AA959"/>
</g>
<g opacity="0.64">
<rect x="369.753" y="90.416" width="13.954" height="1.86053" fill="#3AA959"/>
</g>
<g opacity="0.24">
<rect x="385.875" y="90.416" width="13.954" height="186.053" fill="#3AA959"/>
</g>
<g opacity="0.64">
<rect x="385.875" y="86.6963" width="13.954" height="1.86053" fill="#3AA959"/>
</g>
<g opacity="0.24">
<rect x="401.998" y="99.7197" width="13.954" height="176.75" fill="#3AA959"/>
</g>
<g opacity="0.64">
<rect x="401.998" y="95.999" width="13.954" height="1.86053" fill="#3AA959"/>
</g>
<g opacity="0.24">
<rect x="418.121" y="79.2539" width="13.954" height="197.216" fill="#3AA959"/>
</g>
<g opacity="0.64">
<rect x="418.121" y="75.5332" width="13.954" height="1.86053" fill="#3AA959"/>
</g>
<g opacity="0.24">
<rect x="434.243" y="94.1387" width="13.954" height="182.332" fill="#3AA959"/>
</g>
<g opacity="0.64">
<rect x="434.243" y="90.416" width="13.954" height="1.86053" fill="#3AA959"/>
</g>
<g opacity="0.24">
<rect x="450.366" y="85.7646" width="13.954" height="190.704" fill="#3AA959"/>
</g>
<g opacity="0.64">
<rect x="450.366" y="82.0449" width="13.954" height="1.86053" fill="#3AA959"/>
</g>
<g opacity="0.24">
<rect x="466.489" y="77.3936" width="13.954" height="199.076" fill="#3AA959"/>
</g>
<g opacity="0.64">
<rect x="466.489" y="73.6729" width="13.954" height="1.86053" fill="#3AA959"/>
</g>
<g opacity="0.24">
<rect x="482.611" y="82.9746" width="13.954" height="193.495" fill="#3AA959"/>
</g>
<g opacity="0.64">
<rect x="482.611" y="79.2539" width="13.954" height="1.86053" fill="#3AA959"/>
</g>
<g opacity="0.24">
<rect x="498.734" y="87.626" width="13.954" height="188.843" fill="#3AA959"/>
</g>
<g opacity="0.64">
<rect x="498.734" y="83.9053" width="13.954" height="1.86053" fill="#3AA959"/>
</g>
<g opacity="0.24">
<rect x="514.857" y="70.8809" width="13.954" height="205.588" fill="#3AA959"/>
</g>
<g opacity="0.64">
<rect x="514.857" y="67.1592" width="13.954" height="1.86053" fill="#3AA959"/>
</g>
<g opacity="0.24">
<rect x="530.979" y="75.5332" width="13.954" height="200.937" fill="#3AA959"/>
</g>
<g opacity="0.64">
<rect x="530.979" y="71.8115" width="13.954" height="1.86053" fill="#3AA959"/>
</g>
<g opacity="0.24">
<rect x="547.102" y="82.9746" width="13.954" height="193.495" fill="#3AA959"/>
</g>
<g opacity="0.64">
<rect x="547.102" y="79.2539" width="13.954" height="1.86053" fill="#3AA959"/>
</g>
<g opacity="0.24">
<rect x="563.225" y="79.2539" width="13.954" height="197.216" fill="#3AA959"/>
</g>
<g opacity="0.64">
<rect x="563.225" y="75.5332" width="13.954" height="1.86053" fill="#3AA959"/>
</g>
<g opacity="0.24">
<rect x="579.347" y="70.8809" width="13.954" height="205.588" fill="#3AA959"/>
</g>
<g opacity="0.64">
<rect x="579.347" y="67.1592" width="13.954" height="1.86053" fill="#3AA959"/>
</g>
<g opacity="0.24">
<rect x="595.47" y="61.5781" width="13.954" height="214.891" fill="#3AA959"/>
</g>
<g opacity="0.64">
<rect x="595.47" y="57.8584" width="13.954" height="1.86053" fill="#3AA959"/>
</g>
<path d="M34.4221 32.9961H35.6426V24.2442H35.717L36.5952 25.9856L39.0808 30.5104L41.5665 25.9856L42.4447 24.2442H42.5191V32.9961H43.7396V22.6069H42.1321L39.1404 28.2034H39.0659L36.0891 22.6069H34.4221V32.9961ZM49.6787 33.1747C51.1225 33.1747 52.2239 32.4603 52.7151 31.4184L51.8667 30.8081C51.4648 31.6565 50.7206 32.1328 49.7532 32.1328C48.3243 32.1328 47.4759 31.1356 47.4759 29.8109V29.4537H52.9979V28.8881C52.9979 26.715 51.7328 25.1372 49.6787 25.1372C47.595 25.1372 46.2256 26.715 46.2256 29.156C46.2256 31.597 47.595 33.1747 49.6787 33.1747ZM49.6787 26.1345C50.8992 26.1345 51.7179 27.0424 51.7179 28.3969V28.5606H47.4759V28.4564C47.4759 27.1168 48.3838 26.1345 49.6787 26.1345ZM56.5601 32.9961V27.6675C56.5601 26.6852 57.483 26.2089 58.4355 26.2089C59.5816 26.2089 60.177 26.9084 60.177 28.2778V32.9961H61.3677V28.0694C61.3677 26.2089 60.3705 25.1372 58.7928 25.1372C57.6467 25.1372 56.9918 25.7028 56.6197 26.5661H56.5601V25.3158H55.3694V32.9961H56.5601ZM67.4235 32.9961V31.9542H65.8607V26.3577H67.5426V25.3158H65.8607V23.1874H64.789V24.6163C64.789 25.1372 64.6253 25.3158 64.1192 25.3158H63.4048V26.3577H64.6699V31.7309C64.6699 32.4751 65.1165 32.9961 65.9351 32.9961H67.4235ZM72.7101 33.1747C74.7641 33.1747 76.1781 31.597 76.1781 29.156C76.1781 26.715 74.7641 25.1372 72.7101 25.1372C70.6561 25.1372 69.2421 26.715 69.2421 29.156C69.2421 31.597 70.6561 33.1747 72.7101 33.1747ZM72.7101 32.1179C71.43 32.1179 70.5221 31.3291 70.5221 29.7067V28.6053C70.5221 26.9829 71.43 26.194 72.7101 26.194C73.9901 26.194 74.8981 26.9829 74.8981 28.6053V29.7067C74.8981 31.3291 73.9901 32.1179 72.7101 32.1179ZM79.7365 32.9961V27.7866C79.7365 27.0573 80.5105 26.5066 81.7905 26.5066H82.4901V25.3158H82.0287C80.7784 25.3158 80.0788 26.0005 79.8109 26.7298H79.7365V25.3158H78.5457V32.9961H79.7365ZM96.2805 32.9961L92.6488 22.6069H91.0562L87.4244 32.9961H88.6896L89.7315 29.9299H93.9288L94.9707 32.9961H96.2805ZM93.6162 28.8285H90.0292L91.7855 23.7679H91.8599L93.6162 28.8285ZM101.15 33.1747C102.608 33.1747 103.605 32.4603 104.097 31.3588L103.233 30.7783C102.817 31.6565 102.117 32.1179 101.15 32.1179C99.7355 32.1179 99.0062 31.1505 99.0062 29.8109V28.5011C99.0062 27.1615 99.7355 26.194 101.15 26.194C102.087 26.194 102.742 26.6554 103.025 27.4443L104.022 26.9382C103.576 25.8814 102.668 25.1372 101.15 25.1372C98.9913 25.1372 97.7262 26.7001 97.7262 29.156C97.7262 31.6119 98.9913 33.1747 101.15 33.1747ZM109.372 32.9961V31.9542H107.809V26.3577H109.491V25.3158H107.809V23.1874H106.737V24.6163C106.737 25.1372 106.574 25.3158 106.068 25.3158H105.353V26.3577H106.618V31.7309C106.618 32.4751 107.065 32.9961 107.884 32.9961H109.372ZM112.41 23.5148C112.916 23.5148 113.139 23.2469 113.139 22.8451V22.6516C113.139 22.2497 112.916 21.9818 112.41 21.9818C111.904 21.9818 111.68 22.2497 111.68 22.6516V22.8451C111.68 23.2469 111.904 23.5148 112.41 23.5148ZM111.814 32.9961H113.005V25.3158H111.814V32.9961ZM119.026 32.9961L121.735 25.3158H120.589L119.219 29.1262L118.386 31.7458H118.311L117.478 29.1262L116.138 25.3158H114.947L117.641 32.9961H119.026ZM124.275 23.5148C124.781 23.5148 125.004 23.2469 125.004 22.8451V22.6516C125.004 22.2497 124.781 21.9818 124.275 21.9818C123.769 21.9818 123.546 22.2497 123.546 22.6516V22.8451C123.546 23.2469 123.769 23.5148 124.275 23.5148ZM123.68 32.9961H124.871V25.3158H123.68V32.9961ZM130.995 32.9961V31.9542H129.433V26.3577H131.114V25.3158H129.433V23.1874H128.361V24.6163C128.361 25.1372 128.197 25.3158 127.691 25.3158H126.977V26.3577H128.242V31.7309C128.242 32.4751 128.688 32.9961 129.507 32.9961H130.995ZM136.31 30.5402L135.894 31.7905H135.819L135.462 30.5402L133.616 25.3158H132.426L135.298 33.2938L134.718 34.931H133.512V35.9729H134.122C135.254 35.9729 135.566 35.705 135.908 34.7822L139.347 25.3158H138.171L136.31 30.5402Z" fill="#263238"/>
</svg>
