<svg width="502" height="502" viewBox="0 0 502 502" fill="none" xmlns="http://www.w3.org/2000/svg">
<path d="M247.346 411.488C328.851 411.488 394.923 407.074 394.923 401.629C394.923 396.184 328.851 391.77 247.346 391.77C165.84 391.77 99.7676 396.184 99.7676 401.629C99.7676 407.074 165.84 411.488 247.346 411.488Z" fill="#3AA959"/>
<path opacity="0.5" d="M247.346 411.488C328.851 411.488 394.923 407.074 394.923 401.629C394.923 396.184 328.851 391.77 247.346 391.77C165.84 391.77 99.7676 396.184 99.7676 401.629C99.7676 407.074 165.84 411.488 247.346 411.488Z" fill="white"/>
<path d="M213.29 138.844H199.164V141.926V160.028V163.11H229.123V141.926H214.294L213.29 138.844Z" fill="#3AA959"/>
<path d="M213.29 185.027H199.164V188.11V206.212V209.294H229.123V188.11H214.294L213.29 185.027Z" fill="#3AA959"/>
<path d="M213.29 231.211H199.164V234.293V252.395V255.478H229.123V234.293H214.294L213.29 231.211Z" fill="#3AA959"/>
<path d="M213.29 277.395H199.164V280.477V298.579V301.661H229.123V280.477H214.294L213.29 277.395Z" fill="#3AA959"/>
<path d="M213.29 323.578H199.164V326.66V344.763V347.845H229.123V326.66H214.294L213.29 323.578Z" fill="#3AA959"/>
<path d="M303.811 138.844H289.694V141.926V160.028V163.11H319.644V141.926H304.815L303.811 138.844Z" fill="#3AA959"/>
<path d="M362.545 141.926L361.541 138.844H347.424V141.926V160.028V163.11H377.374V141.926H362.545Z" fill="#3AA959"/>
<path d="M303.811 185.027H289.694V188.11V206.212V209.294H319.644V188.11H304.815L303.811 185.027Z" fill="#3AA959"/>
<path d="M361.541 231.211H347.424V234.293V252.395V255.478H377.374V234.293H362.545L361.541 231.211Z" fill="#3AA959"/>
<path d="M361.541 185.027H347.424V188.11V206.212V209.294H377.374V188.11H362.545L361.541 185.027Z" fill="#3AA959"/>
<path d="M303.811 231.211H289.694V234.293V252.395V255.478H319.644V234.293H304.815L303.811 231.211Z" fill="#3AA959"/>
<path d="M303.811 277.395H289.694V280.477V298.579V301.661H319.644V280.477H304.815L303.811 277.395Z" fill="#3AA959"/>
<path d="M361.541 277.395H347.424V280.477V298.579V301.661H377.374V280.477H362.545L361.541 277.395Z" fill="#3AA959"/>
<path d="M303.811 323.578H289.694V326.66V344.763V347.845H319.644V326.66H304.815L303.811 323.578Z" fill="#3AA959"/>
<path d="M361.541 323.578H347.424V326.66V344.763V347.845H377.374V326.66H362.545L361.541 323.578Z" fill="#3AA959"/>
<g opacity="0.5">
<path opacity="0.5" d="M213.29 138.844H199.164V141.926V160.028V163.11H229.123V141.926H214.294L213.29 138.844Z" fill="white"/>
<path opacity="0.5" d="M213.29 185.027H199.164V188.11V206.212V209.294H229.123V188.11H214.294L213.29 185.027Z" fill="white"/>
<path opacity="0.5" d="M213.29 231.211H199.164V234.293V252.395V255.478H229.123V234.293H214.294L213.29 231.211Z" fill="white"/>
<path opacity="0.5" d="M213.29 277.395H199.164V280.477V298.579V301.661H229.123V280.477H214.294L213.29 277.395Z" fill="white"/>
<path opacity="0.5" d="M213.29 323.578H199.164V326.66V344.763V347.845H229.123V326.66H214.294L213.29 323.578Z" fill="white"/>
<path opacity="0.5" d="M303.811 138.844H289.694V141.926V160.028V163.11H319.644V141.926H304.815L303.811 138.844Z" fill="white"/>
<path opacity="0.5" d="M362.545 141.926L361.541 138.844H347.424V141.926V160.028V163.11H377.374V141.926H362.545Z" fill="white"/>
<path opacity="0.5" d="M303.811 185.027H289.694V188.11V206.212V209.294H319.644V188.11H304.815L303.811 185.027Z" fill="white"/>
<path opacity="0.5" d="M361.541 231.211H347.424V234.293V252.395V255.478H377.374V234.293H362.545L361.541 231.211Z" fill="white"/>
<path opacity="0.5" d="M361.541 185.027H347.424V188.11V206.212V209.294H377.374V188.11H362.545L361.541 185.027Z" fill="white"/>
<path opacity="0.5" d="M303.811 231.211H289.694V234.293V252.395V255.478H319.644V234.293H304.815L303.811 231.211Z" fill="white"/>
<path opacity="0.5" d="M303.811 277.395H289.694V280.477V298.579V301.661H319.644V280.477H304.815L303.811 277.395Z" fill="white"/>
<path opacity="0.5" d="M361.541 277.395H347.424V280.477V298.579V301.661H377.374V280.477H362.545L361.541 277.395Z" fill="white"/>
<path opacity="0.5" d="M303.811 323.578H289.694V326.66V344.763V347.845H319.644V326.66H304.815L303.811 323.578Z" fill="white"/>
<path opacity="0.5" d="M361.541 323.578H347.424V326.66V344.763V347.845H377.374V326.66H362.545L361.541 323.578Z" fill="white"/>
</g>
<path d="M134.004 207.875C134.004 207.875 133.101 214.07 136.092 218.307C139.084 222.544 160.911 240.295 162.859 241.319C164.807 242.343 173.18 240.154 170.65 233.387C168.12 226.62 149.737 212.303 146.052 208.428C142.367 204.552 138.934 205.114 138.934 205.114" fill="#3AA959"/>
<path d="M134.004 207.875C134.004 207.875 133.101 214.07 136.092 218.307C139.084 222.544 160.911 240.295 162.859 241.319C164.807 242.343 173.18 240.154 170.65 233.387C168.12 226.62 149.737 212.303 146.052 208.428C142.367 204.552 138.934 205.114 138.934 205.114" stroke="#263238" stroke-miterlimit="10"/>
<path d="M167.387 230.468C167.387 230.468 171.574 230.759 179.344 230.468C187.115 230.177 206.553 231.361 209.545 231.361H212.557L212.266 238.239C212.266 238.239 197.607 239.434 187.447 240.93C177.286 242.426 168.913 244.223 160.54 240.036" fill="#3AA959"/>
<path d="M167.387 230.468C167.387 230.468 171.574 230.759 179.344 230.468C187.115 230.177 206.553 231.361 209.545 231.361H212.557L212.266 238.239C212.266 238.239 197.607 239.434 187.447 240.93C177.286 242.426 168.913 244.223 160.54 240.036" stroke="#263238" stroke-linecap="round" stroke-linejoin="round"/>
<path d="M212.527 231.36L213.049 230.145C213.875 228.216 215.278 226.588 217.065 225.487C218.639 225.026 220.143 224.35 221.533 223.479L221.784 223.328C221.784 223.328 223.651 223.87 222.557 225.336C222.282 225.762 221.9 226.109 221.449 226.342C220.998 226.574 220.493 226.685 219.987 226.661L218.491 229.051L228.782 229.884C228.782 229.884 230.268 230.477 229.073 231.37C227.878 232.264 222.045 232.043 222.045 232.043L229.464 233.348C229.464 233.348 230.308 234.191 229.946 234.904C229.585 235.617 221.804 234.663 221.804 234.663L228.39 236.46C228.658 236.664 228.851 236.952 228.936 237.278C229.022 237.603 228.996 237.948 228.862 238.258C228.631 238.86 227.195 238.619 226.593 238.378C225.99 238.137 221.683 237.424 221.683 237.424L226.472 240.055C226.425 240.339 226.309 240.608 226.134 240.837C225.959 241.066 225.73 241.249 225.468 241.37C224.762 241.567 224.016 241.567 223.31 241.37L217.085 238.86C217.085 238.86 216.754 239.693 212.135 238.318L212.527 231.36Z" fill="white" stroke="#263238" stroke-linecap="round" stroke-linejoin="round"/>
<path d="M218.51 228.973C218.51 228.973 219.103 233.39 216.824 234.234L218.51 228.973Z" fill="white"/>
<path d="M218.51 228.973C218.51 228.973 219.103 233.39 216.824 234.234" stroke="#263238" stroke-linecap="round" stroke-linejoin="round"/>
<path d="M356.42 210.587C356.42 210.587 356.039 216.832 352.244 220.376C348.448 223.92 323.469 236.832 321.35 237.444C319.232 238.056 311.481 234.201 315.326 228.097C319.172 221.992 340.105 211.732 344.503 208.669C348.9 205.607 352.143 206.872 352.143 206.872" fill="#3AA959"/>
<path d="M356.42 210.587C356.42 210.587 356.039 216.832 352.244 220.376C348.448 223.92 323.469 236.832 321.35 237.444C319.232 238.056 311.481 234.201 315.326 228.097C319.172 221.992 340.105 211.732 344.503 208.669C348.9 205.607 352.143 206.872 352.143 206.872" stroke="#263238" stroke-miterlimit="10"/>
<path d="M319.091 225.9C319.091 225.9 314.935 225.337 307.385 223.46C299.835 221.582 280.568 218.791 277.636 218.179L274.715 217.566L273.6 224.364C273.6 224.364 287.656 228.52 297.345 232.064C307.033 235.608 314.824 239.092 323.87 236.673" fill="#3AA959"/>
<path d="M319.091 225.9C319.091 225.9 314.935 225.337 307.385 223.46C299.835 221.582 280.568 218.791 277.636 218.179L274.715 217.566L273.6 224.364C273.6 224.364 287.656 228.52 297.345 232.064C307.033 235.608 314.824 239.092 323.87 236.673" stroke="#263238" stroke-linecap="round" stroke-linejoin="round"/>
<path d="M274.715 217.555L274.453 216.259C274.029 214.198 272.977 212.318 271.441 210.878C269.994 210.092 268.66 209.112 267.476 207.966L267.275 207.766C267.275 207.766 265.327 207.916 266.12 209.533C266.3 210.006 266.602 210.424 266.995 210.743C267.388 211.062 267.859 211.271 268.359 211.35L269.363 214L259.122 212.715C259.122 212.715 257.536 212.996 258.53 214.111C259.524 215.225 265.247 216.189 265.247 216.189L257.717 215.968C257.717 215.968 256.713 216.611 256.924 217.394C257.134 218.177 264.956 218.82 264.956 218.82L258.149 219.231C257.844 219.375 257.596 219.615 257.443 219.915C257.29 220.215 257.242 220.557 257.305 220.888C257.426 221.53 258.881 221.581 259.514 221.47C260.146 221.36 264.534 221.541 264.534 221.541L259.303 223.137C259.289 223.42 259.343 223.703 259.46 223.961C259.577 224.219 259.754 224.446 259.976 224.623C260.625 224.959 261.354 225.112 262.084 225.065L268.691 223.87C268.691 223.87 268.851 224.753 273.65 224.352L274.715 217.555Z" fill="white" stroke="#263238" stroke-linecap="round" stroke-linejoin="round"/>
<path d="M269.343 214C269.343 214 267.867 218.207 269.915 219.492L269.343 214Z" fill="white"/>
<path d="M269.343 214C269.343 214 267.867 218.207 269.915 219.492" stroke="#263238" stroke-linecap="round" stroke-linejoin="round"/>
<path d="M276.411 257.394H219.384V181.02H259.434L276.411 196.571V257.394Z" fill="white" stroke="#263238" stroke-linecap="round" stroke-linejoin="round"/>
<path d="M259.434 181.02V196.571H276.411L259.434 181.02Z" fill="#263238" stroke="#263238" stroke-linecap="round" stroke-linejoin="round"/>
<path d="M282.276 258.117C288.122 251.931 287.846 242.177 281.659 236.331C275.473 230.485 265.719 230.761 259.873 236.947C254.027 243.133 254.303 252.888 260.489 258.734C266.676 264.579 276.43 264.304 282.276 258.117Z" fill="#263238"/>
<path d="M279.373 245.746H272.847V239.23H269.293V245.746H262.777V249.311H269.293V255.827H272.847V249.311H279.373V245.746Z" fill="white"/>
<path d="M304.342 343.95H194.615L181.965 259.383H304.342V343.95Z" fill="#263238" stroke="#263238" stroke-linecap="round" stroke-linejoin="round"/>
<path d="M247.165 259.383L245.518 254.644C245.076 253.375 244.25 252.274 243.155 251.495C242.059 250.716 240.748 250.297 239.404 250.297H195.007V343.95H304.744L317.384 259.383H247.165Z" fill="#3AA959" stroke="#263238" stroke-linecap="round" stroke-linejoin="round"/>
<path d="M127.247 384.712C127.247 384.712 129.687 390.184 132.116 392.011C134.546 393.838 139.144 393.537 139.727 396.579C140.309 399.621 137.899 399.923 135.771 399.923C133.642 399.923 126.946 399.923 125.731 399.621C121.894 398.275 118.298 396.323 115.079 393.838C111.434 390.826 110.52 391.097 113.261 385.314C116.002 379.531 127.247 384.712 127.247 384.712Z" fill="#3AA959" stroke="#263238" stroke-miterlimit="10"/>
<path d="M139.807 397.163C136.855 397.685 131.072 398.398 125.982 397.163C120.892 395.928 114.878 391.35 111.835 388.84C111.203 391.209 112.398 391.641 115.078 393.86C118.301 396.326 121.897 398.262 125.731 399.593C126.946 399.894 133.642 399.894 135.771 399.894C137.899 399.894 139.998 399.653 139.807 397.163Z" fill="white" stroke="#263238" stroke-miterlimit="10"/>
<path d="M136.373 285.336C136.373 285.336 132.197 320.376 128.853 329.201C125.51 338.026 120.47 343.608 119.255 350.285C118.04 356.961 113.231 385.304 113.231 385.304C113.231 385.304 116.243 388.316 118.402 388.045C120.56 387.774 126.915 388.658 128.743 385.304C130.57 381.951 131.022 376.529 131.323 375.616C131.624 374.702 144.375 350.034 147.457 340.295C150.54 330.556 160.298 290.336 159.997 285.466" fill="#263238"/>
<path d="M136.373 285.336C136.373 285.336 132.197 320.376 128.853 329.201C125.51 338.026 120.47 343.608 119.255 350.285C118.04 356.961 113.231 385.304 113.231 385.304C113.231 385.304 116.243 388.316 118.402 388.045C120.56 387.774 126.915 388.658 128.743 385.304C130.57 381.951 131.022 376.529 131.323 375.616C131.624 374.702 144.375 350.034 147.457 340.295C150.54 330.556 160.298 290.336 159.997 285.466" stroke="#263238" stroke-miterlimit="10"/>
<path d="M134.145 261.301C134.145 261.301 130.42 272.254 131.815 282.043C133.211 291.832 144.175 296.732 151.895 295.326C159.616 293.921 161.684 288.569 161.684 279.262C161.659 273.503 161.26 267.751 160.49 262.044C151.879 264.796 142.587 264.534 134.145 261.301Z" fill="#263238" stroke="#263238" stroke-miterlimit="10"/>
<path d="M136.715 189.977C136.715 189.977 129.687 203.029 129.255 213.51C128.823 223.992 134.144 261.301 134.144 261.301C134.144 261.301 136.243 265.497 146.273 265.959C156.303 266.421 160.489 262.947 160.489 262.947C160.489 262.947 163.983 239.173 163.983 226.582C163.983 213.992 154.194 195.348 154.194 195.348L136.715 189.977Z" fill="#3AA959" stroke="#263238" stroke-miterlimit="10"/>
<path d="M131.313 219C131.313 219 131.925 226.379 140.851 227.303" stroke="#263238" stroke-linecap="round" stroke-linejoin="round"/>
<path d="M133.773 228.84C137.026 230.759 140.87 231.416 144.576 230.687" stroke="#263238" stroke-linecap="round" stroke-linejoin="round"/>
<path d="M137.157 261.743C137.157 261.743 146.072 254.063 150.691 246.984" stroke="#263238" stroke-linecap="round" stroke-linejoin="round"/>
<path d="M149.767 254.363C149.767 254.363 142.076 262.395 139.305 263.289" stroke="#263238" stroke-linecap="round" stroke-linejoin="round"/>
<path d="M141.835 172.688C141.835 172.688 141.604 179.214 140.911 183.641C140.219 188.069 139.978 189.936 139.978 189.936L152.799 194.826C152.799 194.826 151.624 185.971 153.26 182.236C154.183 180.242 154.812 178.125 155.128 175.951C155.128 175.951 150.931 165.69 146.504 164.987C142.076 164.284 141.835 172.688 141.835 172.688Z" fill="white" stroke="#263238" stroke-miterlimit="10"/>
<path d="M159.325 153.842C159.325 153.842 161.654 151.743 158.622 144.806C155.59 137.868 140.911 138.28 133.913 144.565C126.916 150.85 124.586 162.054 130.65 169.273C136.715 176.492 143.933 177.436 148.602 174.635C153.271 171.833 153.722 166.482 153.722 164.384C153.722 162.285 152.096 157.155 154.425 155.759C155.944 154.859 157.598 154.211 159.325 153.842Z" fill="#263238" stroke="#263238" stroke-miterlimit="10"/>
<path d="M135.309 190.439L156.062 198.833L154.897 192.076L136.474 184.375L135.309 190.439Z" fill="white" stroke="#263238" stroke-miterlimit="10"/>
<path d="M161.935 392.924C161.935 392.924 168.02 396.578 171.363 398.094C174.706 399.61 175.017 399.309 175.017 401.438C175.017 403.566 175.319 403.877 169.837 403.877C164.355 403.877 148.542 404.179 147.026 402.964C145.51 401.749 159.807 392.01 161.935 392.924Z" fill="#3AA959" stroke="#263238" stroke-miterlimit="10"/>
<path d="M169.837 403.878C174.967 403.878 175.027 403.607 175.017 401.87C159.425 402.341 151.825 401.749 148.13 401.066C147.126 402 146.674 402.723 147.026 403.004C148.592 404.179 164.365 403.878 169.837 403.878Z" fill="white" stroke="#263238" stroke-miterlimit="10"/>
<path d="M158.632 152.207C158.632 152.207 147.679 157.337 147.679 159.235C147.679 161.133 152.337 161.795 150.942 164.135C150.278 165.294 149.49 166.378 148.592 167.367C148.592 167.367 150.45 170.63 148.823 171.092C147.197 171.554 146.494 171.554 144.807 169.225C143.12 166.896 141.544 165.731 141.082 169.697C140.62 173.663 142.478 174.355 143.873 174.586C144.957 174.715 146.053 174.715 147.136 174.586C147.136 174.586 149.476 180.178 151.102 180.881C152.729 181.584 160.66 182.518 162.287 180.65C163.913 178.783 162.759 170.389 162.759 170.389C162.759 170.389 165.088 169.928 165.088 167.829C165.088 165.731 161.363 162.699 161.363 162.699C161.363 162.699 162.287 161.303 161.594 158.04C161.069 155.894 160.055 153.898 158.632 152.207Z" fill="white" stroke="#263238" stroke-miterlimit="10"/>
<path d="M158.943 163.732C158.943 164.464 158.652 165.067 158.281 165.067C157.909 165.067 157.618 164.464 157.618 163.732C157.618 162.999 157.909 162.406 158.281 162.406C158.652 162.406 158.943 162.999 158.943 163.732Z" fill="#263238"/>
<path d="M155.992 161.351C155.992 161.351 156.333 159.343 159.355 159.734" stroke="#263238" stroke-linecap="round" stroke-linejoin="round"/>
<path d="M159.937 173.42C158.809 173.322 157.765 172.78 157.036 171.914" stroke="#263238" stroke-linecap="round" stroke-linejoin="round"/>
<path d="M134.536 285.937C134.536 285.937 136.665 306.93 139.395 316.057C142.126 325.183 142.136 329.109 141.223 337.05C140.309 344.992 137.267 352.261 139.395 359.56C141.524 366.859 145.791 398.093 145.791 399.308C145.791 400.523 145.48 402.32 147.006 402.963C148.532 403.605 161.604 394.75 161.915 392.923C162.226 391.096 159.787 385.624 159.787 380.754C159.787 375.885 161.303 347.392 161.303 333.707C161.303 320.022 162.829 293.848 157.959 281.68" fill="#263238"/>
<path d="M134.536 285.937C134.536 285.937 136.665 306.93 139.395 316.057C142.126 325.183 142.136 329.109 141.223 337.05C140.309 344.992 137.267 352.261 139.395 359.56C141.524 366.859 145.791 398.093 145.791 399.308C145.791 400.523 145.48 402.32 147.006 402.963C148.532 403.605 161.604 394.75 161.915 392.923C162.226 391.096 159.787 385.624 159.787 380.754C159.787 375.885 161.303 347.391 161.303 333.707C161.303 320.022 162.829 293.848 157.959 281.68" stroke="#263238" stroke-miterlimit="10"/>
<path d="M136.283 299.191C136.283 299.191 137.719 309.402 139.416 316.059C141.112 322.715 142.849 325.838 140.781 334.131C138.713 342.424 138.01 345.175 139.044 349.351" stroke="white" stroke-linecap="round" stroke-linejoin="round"/>
<path d="M322.344 386.98C322.344 386.98 309.895 391.137 306.933 392C303.971 392.864 301.3 393.486 303.971 396.448C306.642 399.41 319.684 399.711 323.529 399.711C327.374 399.711 330.055 401.779 330.939 399.41C331.822 397.041 331.832 390.515 331.832 390.515L322.344 386.98Z" fill="#3AA959" stroke="#263238" stroke-miterlimit="10"/>
<path d="M331.32 397.994C328.007 397.893 321.752 397.582 314.352 396.628C310.465 396.255 306.648 395.35 303.007 393.938C302.736 394.53 303.007 395.323 304.011 396.468C306.682 399.429 319.724 399.731 323.569 399.731C327.414 399.731 330.095 401.799 330.978 399.429C331.136 398.962 331.25 398.482 331.32 397.994Z" fill="white" stroke="#263238" stroke-miterlimit="10"/>
<path d="M359.984 389.941C359.984 389.941 350.496 397.06 347.836 398.536C345.175 400.012 344.573 402.391 346.942 402.391C349.312 402.391 368.578 402.983 371.249 401.206C373.92 399.429 370.064 390.835 370.064 390.835C370.064 390.835 362.946 389.941 359.984 389.941Z" fill="#3AA959" stroke="#263238" stroke-miterlimit="10"/>
<path d="M371.249 401.207C372.002 400.705 372.253 399.651 372.173 398.406C363.56 399.922 354.803 400.461 346.069 400.013C345.125 401.227 345.316 402.392 346.982 402.392C349.312 402.392 368.578 402.984 371.249 401.207Z" fill="white" stroke="#263238" stroke-miterlimit="10"/>
<path d="M337.163 252.373C337.163 252.373 324.111 297.714 323.529 308.386C322.947 319.059 322.344 375.724 322.344 378.385V386.979L331.832 390.533C331.832 390.533 336.28 356.99 337.163 348.988C338.047 340.986 338.649 332.091 339.834 327.904C341.019 323.717 343.388 306.82 344.282 303.306C345.175 299.792 347.243 284.933 346.651 268.035C346.059 251.138 339.242 248.216 337.163 252.373Z" fill="#263238" stroke="#263238" stroke-miterlimit="10"/>
<path d="M335.688 249.113C335.688 249.113 335.979 262.446 336.28 275.488C336.581 288.53 335.687 308.389 338.649 322.616C341.611 336.843 353.167 367.726 354.352 372.756C355.537 377.786 359.693 391.139 359.693 391.139C359.693 391.139 366.209 391.731 370.064 390.838C370.064 390.838 366.209 362.033 365.617 350.768C365.024 339.503 357.906 323.5 356.43 319.644C354.954 315.789 359.432 284.976 359.432 284.976C359.432 284.976 366.54 271.924 364.763 263.631C363.751 258.73 361.39 254.21 357.946 250.579C357.946 250.579 340.125 253.009 335.688 249.113Z" fill="#263238" stroke="#263238" stroke-miterlimit="10"/>
<path d="M336.641 267.695C336.641 267.695 336.3 301.952 337.645 311.64C338.991 321.329 340.406 325.144 340.406 325.144" stroke="white" stroke-linecap="round" stroke-linejoin="round"/>
<path d="M357.314 192.768C357.314 192.768 353.759 190.107 346.059 195.78C338.358 201.452 329.463 216.814 330.055 222.747C330.647 228.681 335.687 246.161 335.687 249.122C335.687 252.084 336.571 250.899 340.125 252.084C343.679 253.269 353.759 252.978 356.129 251.793C358.498 250.608 357.314 242.898 357.906 236.382C358.498 229.866 362.354 217.115 362.062 207.928C361.771 198.742 358.498 193.983 357.314 192.768Z" fill="#3AA959" stroke="#263238" stroke-miterlimit="10"/>
<path d="M342.796 159.013C342.796 159.013 339.242 163.461 339.242 166.422C339.242 169.384 338.579 172.446 336.802 173.902C335.025 175.358 335.085 176.794 336.571 177.095L338.057 177.386C338.057 177.386 338.89 183.852 340.065 186.231C341.24 188.611 345.456 186.573 346.34 186.231C347.223 185.89 346.049 194.826 346.049 195.719C346.049 196.613 354.934 195.418 356.089 195.418C357.243 195.418 356.681 184.745 357.866 181.493C359.05 178.24 362.886 174.083 358.167 166.965C353.448 159.846 345.466 153.973 342.796 159.013Z" fill="white" stroke="#263238" stroke-miterlimit="10"/>
<path d="M341.5 172.226C341.5 172.959 341.792 173.551 342.163 173.551C342.535 173.551 342.826 172.959 342.826 172.226C342.826 171.493 342.535 170.891 342.163 170.891C341.792 170.891 341.5 171.493 341.5 172.226Z" fill="#263238"/>
<path d="M339.693 179.716C339.693 179.716 340.697 180.87 342.966 179.324" stroke="#263238" stroke-linecap="round" stroke-linejoin="round"/>
<path d="M340.466 168.509C340.466 168.509 342.193 166.39 344.312 169.091" stroke="#263238" stroke-linecap="round" stroke-linejoin="round"/>
<path d="M351.209 192.245C351.209 192.245 343.519 195.006 342.284 196.853C341.049 198.701 340.135 201.773 341.983 201.773C343.83 201.773 351.812 196.402 353.97 195.93C356.129 195.458 353.97 189.474 351.209 192.245Z" fill="white" stroke="#263238" stroke-miterlimit="10"/>
<path d="M342.796 159.014C343.53 162.979 345.15 166.726 347.535 169.977C351.39 174.997 355.245 173.833 354.352 178.009C353.458 182.186 346.942 188.049 349.613 194.616C352.284 201.182 358.207 202.316 359.392 204.987C360.577 207.658 363.247 208.541 360.285 219.214C357.324 229.886 352.876 238.47 356.721 248.551C360.567 258.631 370.657 261.291 378.357 257.737C386.058 254.183 381.319 242.918 383.106 236.101C384.893 229.284 400.295 223.953 394.954 204.977C389.612 186.001 377.173 180.971 373.87 174.445C370.566 167.919 371.209 156.966 364.392 152.518C357.575 148.07 349.864 151.926 347.203 152.518C344.543 153.11 343.047 148.663 337.716 150.741C332.384 152.819 329.202 162.789 338.72 164.877C339.718 162.696 341.099 160.71 342.796 159.014Z" fill="#263238" stroke="#263238" stroke-miterlimit="10"/>
<path d="M352.595 173.207C354.454 175.134 356.679 176.671 359.141 177.725C370.185 182.564 377.825 189.492 377.825 201.249C377.825 213.006 366.781 220.977 366.4 231.017C366.018 241.057 371.59 248.658 377.444 245.545C383.297 242.433 380.566 236.208 378.448 236.208" stroke="white" stroke-linecap="round" stroke-linejoin="round"/>
<path d="M347.384 162.156C347.611 164.229 348.195 166.247 349.111 168.12" stroke="white" stroke-linecap="round" stroke-linejoin="round"/>
<path d="M383.428 194.945C385.658 199.862 386.815 205.198 386.821 210.598C386.47 222.706 371.942 228.248 370.205 235.517C368.649 242.053 373.327 247.967 377.474 245.557" stroke="white" stroke-linecap="round" stroke-linejoin="round"/>
<path d="M379.211 187.062C380.188 188.526 381.073 190.048 381.861 191.621" stroke="white" stroke-linecap="round" stroke-linejoin="round"/>
<path d="M362.946 210.599C364.35 205.955 364.227 200.982 362.595 196.413C359.824 189.144 356.711 185.68 356.711 181.875" stroke="white" stroke-linecap="round" stroke-linejoin="round"/>
<path d="M342.796 159.014C342.275 158.109 341.533 157.35 340.64 156.809C339.746 156.268 338.729 155.963 337.686 155.922C334.222 155.922 334.563 160.42 338.368 161.113" stroke="white" stroke-linecap="round" stroke-linejoin="round"/>
<path d="M139.416 202.586C139.416 202.586 135.159 208.671 136.072 214.755C136.986 220.839 150.681 251.26 152.197 253.389C153.713 255.517 163.753 257.656 164.666 249.132C165.58 240.608 153.723 215.668 151.895 209.584C150.068 203.5 146.112 202.285 146.112 202.285" fill="#3AA959"/>
<path d="M139.416 202.586C139.416 202.586 135.159 208.671 136.072 214.755C136.986 220.839 150.681 251.26 152.197 253.389C153.713 255.517 163.753 257.656 164.666 249.132C165.58 240.608 153.723 215.668 151.895 209.584C150.068 203.5 146.112 202.285 146.112 202.285" stroke="#263238" stroke-miterlimit="10"/>
<path d="M162.407 242.766C162.407 242.766 171.323 243.9 177.568 247.675C183.813 251.45 203.672 258.518 203.672 258.518L202.246 264.412C202.246 264.412 180.389 261.892 171.122 260.185C161.855 258.478 155.841 257.665 152.417 252.745" fill="#3AA959"/>
<path d="M162.407 242.766C162.407 242.766 171.323 243.9 177.568 247.675C183.813 251.45 203.672 258.518 203.672 258.518L202.246 264.412C202.246 264.412 180.389 261.892 171.122 260.185C161.855 258.478 155.841 257.665 152.417 252.745" stroke="#263238" stroke-miterlimit="10"/>
<path d="M221.734 265.987L213.621 263.447L213.712 262.594C213.712 262.594 220.629 263.929 221.382 264.02C222.135 264.11 222.386 263.738 222.386 263.267C222.337 262.909 222.171 262.577 221.914 262.323L210.569 258.247L217.085 257.022C218.029 256.269 216.985 255.516 216.985 255.516L209.334 255.696L203.692 258.518L202.266 264.411C202.266 264.411 212.738 273.447 213.21 273.738C213.682 274.029 213.963 274.491 214.716 274.019C215.469 273.547 215.188 273.015 215.188 273.015L211.844 269.582L217.607 271.278C218.26 271.469 218.36 271.66 218.832 271.469C219.304 271.278 219.394 270.054 219.394 270.054L212.688 266.941L212.979 266.279C212.979 266.279 220.418 268.066 220.88 268.066C221.342 268.066 221.633 268.066 222.015 267.222C222.134 267.019 222.171 266.779 222.119 266.549C222.067 266.32 221.929 266.119 221.734 265.987Z" fill="white" stroke="#263238" stroke-linecap="round" stroke-linejoin="round"/>
<path d="M359.241 205.215C359.241 205.215 355.125 199.502 349.322 203.207C343.519 206.911 322.475 226.409 322.475 226.409C322.475 226.409 318.218 231.429 324.483 235.104C330.748 238.778 356.45 215.927 359.231 214.02" fill="#3AA959"/>
<path d="M359.241 205.215C359.241 205.215 355.125 199.502 349.322 203.207C343.519 206.911 322.475 226.409 322.475 226.409C322.475 226.409 318.218 231.429 324.483 235.104C330.748 238.778 356.45 215.927 359.231 214.02" stroke="#263238" stroke-miterlimit="10"/>
<path d="M326.722 226.501C326.722 226.501 323.599 224.543 316.501 223.298C309.403 222.053 285.016 208.469 285.016 208.469L281 213.489C281 213.489 298.158 226.109 307.104 231.511C316.049 236.912 320.045 238.338 322.917 238.047C325.788 237.755 332.485 231.48 332.485 231.48" fill="#3AA959"/>
<path d="M326.722 226.501C326.722 226.501 323.599 224.543 316.501 223.298C309.403 222.053 285.016 208.469 285.016 208.469L281 213.489C281 213.489 298.158 226.109 307.104 231.511C316.049 236.912 320.045 238.338 322.917 238.047C325.788 237.755 332.485 231.48 332.485 231.48" stroke="#263238" stroke-miterlimit="10"/>
<path d="M268.179 197.594L274.664 202.765L275.297 202.233C275.297 202.233 270.458 197.373 269.976 196.811C269.494 196.249 269.634 195.807 269.976 195.556C270.289 195.409 270.64 195.363 270.98 195.426L280.437 202.383L277.887 196.45C277.988 195.275 279.162 195.707 279.162 195.707L283.178 201.992L284.423 208.176L281.311 213.769C281.311 213.769 266.984 208.899 266.502 208.678C266.02 208.458 265.498 208.478 265.448 207.604C265.397 206.731 266.03 206.66 266.03 206.66L270.628 207.554L266.171 203.809C265.658 203.377 265.458 203.407 265.347 202.915C265.237 202.423 266.191 201.691 266.191 201.691L272.355 205.415L272.737 204.823C272.737 204.823 267.225 199.803 266.964 199.391C266.703 198.98 266.552 198.779 267.034 198.016C267.134 197.812 267.309 197.654 267.522 197.576C267.735 197.497 267.97 197.504 268.179 197.594Z" fill="white" stroke="#263238" stroke-linecap="round" stroke-linejoin="round"/>
</svg>
