<svg width="358" height="358" viewBox="0 0 358 358" fill="none" xmlns="http://www.w3.org/2000/svg">
<path d="M82.018 45.1082C82.018 45.1082 82.018 38.9362 73.383 30.3013C64.748 21.6663 59.1919 16.7188 59.1919 16.7188C59.1919 16.7188 54.8959 30.9027 62.8936 39.5377C70.8913 48.1726 82.018 56.1918 82.018 56.1918V45.1082Z" fill="#3AA959"/>
<path d="M69.4519 83.6134C69.4519 83.6134 69.4519 77.4414 60.8599 68.8065C52.2679 60.1715 46.6616 55.2383 46.6616 55.2383C46.6616 55.2383 42.3442 69.4509 50.3634 78.0429C58.3826 86.6349 69.4519 94.7185 69.4519 94.7185V83.6134Z" fill="#3AA959"/>
<path d="M81.4739 55.5976C81.4739 55.5976 82.1254 49.4615 91.6268 41.7931C101.128 34.1248 107.164 29.793 107.164 29.793C107.164 29.793 109.964 44.3564 101.078 52.0964C92.1924 59.8363 80.314 66.6383 80.314 66.6383L81.4739 55.5976Z" fill="#3AA959"/>
<path d="M66.3374 101.091C66.3374 101.091 67.6262 95.0623 77.8793 88.425C88.1325 81.7877 94.5979 78.1289 94.5979 78.1289C94.5979 78.1289 95.8438 92.9071 86.1921 99.6662C76.5404 106.425 63.9961 111.946 63.9961 111.946L66.3374 101.091Z" fill="#3AA959"/>
<path d="M69.1802 150.695C69.1802 150.695 69.1802 144.523 77.8151 135.889C86.4501 127.254 91.9991 122.32 91.9991 122.32C91.9991 122.32 96.2951 136.504 88.3045 145.139C80.314 153.774 69.1802 161.815 69.1802 161.815V150.695Z" fill="#3AA959"/>
<path d="M69.037 162.798C69.037 162.798 69.9106 156.697 62.593 146.917C55.2755 137.136 50.4783 131.473 50.4783 131.473C50.4783 131.473 44.1847 144.898 50.9008 154.585C57.6168 164.273 67.4619 173.788 67.4619 173.788L69.037 162.798Z" fill="#3AA959"/>
<path d="M60.5234 198.684C60.5234 198.684 60.5234 192.512 69.1584 183.877C77.7934 175.242 83.3424 170.309 83.3424 170.309C83.3424 170.309 87.6384 184.493 79.6406 193.128C71.6429 201.762 60.5234 209.789 60.5234 209.789V198.684Z" fill="#3AA959"/>
<path d="M66.2875 231.21C66.2875 231.21 64.7266 225.246 70.8842 214.706C77.0418 204.167 81.1731 197.98 81.1731 197.98C81.1731 197.98 88.9417 210.611 83.3713 221C77.8008 231.389 69.0942 241.95 69.0942 241.95L66.2875 231.21Z" fill="#3AA959"/>
<path d="M82.7985 43.5117C82.3634 49.9346 81.5746 56.3286 80.4357 62.6647C77.0204 80.2998 68.4857 91.677 65.0704 107.608C61.6551 123.539 71.4571 144.06 68.8365 164.523C66.216 184.986 58.2469 196.363 60.5238 210.018C62.8007 223.672 74.7435 260.624 74.7435 260.624" stroke="#263238" stroke-linecap="round" stroke-linejoin="round"/>
<path d="M81.3877 59.7004L90.6957 52.5547" stroke="#263238" stroke-linecap="round" stroke-linejoin="round"/>
<path d="M81.8247 51.4745L77.9297 44.5508" stroke="#263238" stroke-linecap="round" stroke-linejoin="round"/>
<path d="M65.5928 106.877C65.5928 106.877 73.3828 101.034 81.3877 95.1914" stroke="#263238" stroke-linecap="round" stroke-linejoin="round"/>
<path d="M69.4521 94.719C69.4521 94.719 63.0081 81.9885 55.6333 73.5469" stroke="#263238" stroke-linecap="round" stroke-linejoin="round"/>
<path d="M69.4878 159.469C73.9343 151.272 79.5465 143.764 86.1491 137.18" stroke="#263238" stroke-linecap="round" stroke-linejoin="round"/>
<path d="M67.97 168.123C67.97 168.123 64.075 158.815 59.5284 152.107C54.9818 145.398 54.3374 144.531 54.3374 144.531" stroke="#263238" stroke-linecap="round" stroke-linejoin="round"/>
<path d="M60.5234 210.017C62.4978 205.115 64.8435 200.371 67.5402 195.826C70.2326 191.617 73.2668 187.637 76.612 183.926" stroke="#263238" stroke-linecap="round" stroke-linejoin="round"/>
<path d="M69.1016 241.95C69.1016 241.95 68.1851 234.568 71.4357 228.289C74.6864 222.009 78.3595 213.79 79.8774 210.539" stroke="#263238" stroke-linecap="round" stroke-linejoin="round"/>
<path d="M25.4681 127.498C25.4681 127.498 24.8023 123.625 29.2773 117.274C33.7522 110.923 36.7022 107.25 36.7022 107.25C36.7022 107.25 40.948 115.677 36.8597 121.957C33.8178 126.407 30.4097 130.596 26.671 134.479L25.4681 127.498Z" fill="#3AA959"/>
<path d="M37.5115 150.288C37.5115 150.288 36.8384 146.422 41.3206 140.071C45.8028 133.72 48.7384 130.047 48.7384 130.047C48.7384 130.047 52.9914 138.474 48.8959 144.761C45.8578 149.212 42.4521 153.401 38.7144 157.283L37.5115 150.288Z" fill="#3AA959"/>
<path d="M26.9504 134.022C26.9504 134.022 25.8764 130.249 19.0744 126.468C12.2724 122.688 8.03365 120.633 8.03365 120.633C8.03365 120.633 7.86181 130.07 14.27 133.958C18.9396 136.648 23.8253 138.945 28.8764 140.824L26.9504 134.022Z" fill="#3AA959"/>
<path d="M41.385 160.909C41.385 160.909 39.953 157.272 32.793 154.222C25.633 151.172 21.1938 149.582 21.1938 149.582C21.1938 149.582 21.9886 158.954 28.7763 162.176C33.7008 164.363 38.7999 166.133 44.0199 167.468L41.385 160.909Z" fill="#3AA959"/>
<path d="M44.9791 192.326C44.9791 192.326 44.3132 188.453 37.948 184.014C31.5827 179.574 27.5731 177.047 27.5731 177.047C27.5731 177.047 26.4061 186.412 32.3775 190.952C36.7346 194.122 41.3499 196.922 46.1748 199.322L44.9791 192.326Z" fill="#3AA959"/>
<path d="M46.3898 199.901C46.3898 199.901 45.1726 196.185 48.6882 189.24C52.2037 182.295 54.6095 178.242 54.6095 178.242C54.6095 178.242 60.0081 185.975 56.8577 192.784C54.481 197.619 51.7027 202.247 48.5521 206.617L46.3898 199.901Z" fill="#3AA959"/>
<path d="M57.2228 231.097C57.2228 231.097 57.6739 227.202 63.7599 222.369C69.8459 217.536 73.7481 214.801 73.7481 214.801C73.7481 214.801 75.4522 224.109 69.7528 228.963C65.5727 232.383 61.1131 235.446 56.4209 238.121L57.2228 231.097Z" fill="#3AA959"/>
<path d="M55.6191 221.475C55.6191 221.475 54.9532 217.609 48.6023 213.134C42.2513 208.659 38.2274 206.16 38.2274 206.16C38.2274 206.16 37.0603 215.518 43.0318 220.072C47.3889 223.243 52.0042 226.043 56.8291 228.442L55.6191 221.475Z" fill="#3AA959"/>
<path d="M55.5405 242.502C55.5405 242.502 55.8484 238.585 50.8364 232.65C45.8244 226.714 42.5738 223.277 42.5738 223.277C42.5738 223.277 39.0654 232.041 43.6907 237.948C47.1032 242.119 50.8586 245.996 54.9176 249.54L55.5405 242.502Z" fill="#3AA959"/>
<path d="M24.8096 126.59C25.7871 130.571 26.9823 134.496 28.3896 138.347C32.4421 149.029 39.0293 155.244 42.9029 164.839C46.7765 174.433 42.8528 188.388 46.7192 200.939C50.5856 213.491 56.7933 219.813 56.8506 228.584C56.9079 237.355 53.4281 261.878 53.4281 261.878" stroke="#263238" stroke-linecap="round" stroke-linejoin="round"/>
<path d="M27.4513 136.583L20.8354 133.117" stroke="#263238" stroke-linecap="round" stroke-linejoin="round"/>
<path d="M26.2847 131.48L27.9744 126.711" stroke="#263238" stroke-linecap="round" stroke-linejoin="round"/>
<path d="M42.4805 164.457C42.4805 164.457 36.9601 161.636 31.3037 158.844" stroke="#263238" stroke-linecap="round" stroke-linejoin="round"/>
<path d="M38.7144 157.255C38.7144 157.255 41.4065 148.57 45.1082 142.484" stroke="#263238" stroke-linecap="round" stroke-linejoin="round"/>
<path d="M45.7454 197.859C42.0625 193.199 37.721 189.098 32.8574 185.688" stroke="#263238" stroke-linecap="round" stroke-linejoin="round"/>
<path d="M47.6357 203.122C48.5236 199.376 49.7211 195.709 51.2157 192.16C53.3637 187.463 53.6501 186.848 53.6501 186.848" stroke="#263238" stroke-linecap="round" stroke-linejoin="round"/>
<path d="M56.564 235.263C56.564 235.263 60.9459 229.893 63.6738 227.881C65.3193 226.671 66.8638 225.33 68.292 223.871" stroke="#263238" stroke-linecap="round" stroke-linejoin="round"/>
<path d="M56.8504 228.582C55.0832 225.723 53.0988 223.004 50.9148 220.449C48.7648 218.1 46.4251 215.933 43.9194 213.969" stroke="#263238" stroke-linecap="round" stroke-linejoin="round"/>
<path d="M54.9387 249.539C54.9387 249.539 54.7096 244.806 51.9959 241.226C49.2823 237.646 46.0746 232.884 44.7715 231.016" stroke="#263238" stroke-linecap="round" stroke-linejoin="round"/>
<path d="M80.3426 320.599H44.2992C43.5396 320.599 42.8111 320.297 42.274 319.76C41.7369 319.223 41.4352 318.494 41.4352 317.735L32.521 258.07H92.1208L83.178 317.756C83.1724 318.507 82.8721 319.226 82.3418 319.757C81.8115 320.289 81.0935 320.591 80.3426 320.599Z" fill="#263238" stroke="#263238" stroke-linecap="round" stroke-linejoin="round"/>
<path d="M13.604 314.574H341.532" stroke="#263238" stroke-linecap="round" stroke-linejoin="round"/>
<path d="M245.591 25.3846L238.503 32.4727L245.591 39.5607L252.679 32.4727L245.591 25.3846Z" stroke="#263238" stroke-linecap="round" stroke-linejoin="round"/>
<path d="M331.582 115.599L324.494 122.688L331.582 129.776L338.67 122.688L331.582 115.599Z" stroke="#263238" stroke-linecap="round" stroke-linejoin="round"/>
<path d="M114.629 287.439L107.541 294.527L114.629 301.615L121.717 294.527L114.629 287.439Z" stroke="#263238" stroke-linecap="round" stroke-linejoin="round"/>
<path d="M205.495 60.5382L201.626 64.4062L205.495 68.2743L209.363 64.4062L205.495 60.5382Z" stroke="#263238" stroke-linecap="round" stroke-linejoin="round"/>
<path d="M128.164 56.0991C129.746 56.0991 131.028 54.8168 131.028 53.2351C131.028 51.6533 129.746 50.3711 128.164 50.3711C126.582 50.3711 125.3 51.6533 125.3 53.2351C125.3 54.8168 126.582 56.0991 128.164 56.0991Z" stroke="#263238" stroke-linecap="round" stroke-linejoin="round"/>
<path d="M341.532 211.47C343.114 211.47 344.396 210.188 344.396 208.606C344.396 207.024 343.114 205.742 341.532 205.742C339.95 205.742 338.668 207.024 338.668 208.606C338.668 210.188 339.95 211.47 341.532 211.47Z" stroke="#263238" stroke-linecap="round" stroke-linejoin="round"/>
<path d="M281.388 66.8374C282.97 66.8374 284.252 65.5551 284.252 63.9734C284.252 62.3916 282.97 61.1094 281.388 61.1094C279.806 61.1094 278.524 62.3916 278.524 63.9734C278.524 65.5551 279.806 66.8374 281.388 66.8374Z" stroke="#263238" stroke-linecap="round" stroke-linejoin="round"/>
<path d="M28.6399 81.1577C30.2216 81.1577 31.5039 79.8754 31.5039 78.2937C31.5039 76.7119 30.2216 75.4297 28.6399 75.4297C27.0581 75.4297 25.7759 76.7119 25.7759 78.2937C25.7759 79.8754 27.0581 81.1577 28.6399 81.1577Z" stroke="#263238" stroke-linecap="round" stroke-linejoin="round"/>
<path d="M325.2 75.8594H54.2372C50.8839 75.8594 48.1655 78.5778 48.1655 81.9311V277.664C48.1655 281.017 50.8839 283.736 54.2372 283.736H325.2C328.554 283.736 331.272 281.017 331.272 277.664V81.9311C331.272 78.5778 328.554 75.8594 325.2 75.8594Z" fill="#263238" stroke="#263238" stroke-linecap="round" stroke-linejoin="round"/>
<path d="M224.939 299.767V276.375H154.498V299.788C154.491 307.455 151.85 314.887 147.016 320.839L143.916 324.633H235.492L232.406 320.817C227.581 314.862 224.945 307.431 224.939 299.767Z" fill="white"/>
<path d="M150.174 291.481H229.263C226.445 286.476 224.965 280.829 224.967 275.085V251.672H154.498V275.085C154.495 280.832 153.005 286.48 150.174 291.481Z" fill="#263238"/>
<path d="M224.939 299.767V276.375H154.498V299.788C154.491 307.455 151.85 314.887 147.016 320.839L143.916 324.633H235.492L232.406 320.817C227.581 314.862 224.945 307.431 224.939 299.767V299.767Z" stroke="#263238" stroke-linecap="round" stroke-linejoin="round"/>
<path d="M235.521 324.633H143.931V328.814H235.521V324.633Z" fill="#263238" stroke="#263238" stroke-linecap="round" stroke-linejoin="round"/>
<path d="M48.1655 251.422H331.272V277.663C331.272 279.274 330.632 280.818 329.494 281.957C328.355 283.095 326.811 283.735 325.2 283.735H54.2372C52.6269 283.735 51.0825 283.095 49.9439 281.957C48.8052 280.818 48.1655 279.274 48.1655 277.663V251.422Z" fill="white" stroke="#263238" stroke-linecap="round" stroke-linejoin="round"/>
<path d="M317.038 88.7891H62.4067V246.789H317.038V88.7891Z" fill="white" stroke="#263238" stroke-miterlimit="10"/>
<path d="M264.669 103.582H313.766" stroke="#263238" stroke-miterlimit="10" stroke-linecap="round"/>
<path d="M264.669 214.477H313.766" stroke="#263238" stroke-miterlimit="10" stroke-linecap="round"/>
<path d="M264.669 111.137H301.4" stroke="#263238" stroke-miterlimit="10" stroke-linecap="round"/>
<path d="M264.669 114.566H291.448" stroke="#263238" stroke-miterlimit="10" stroke-linecap="round"/>
<path d="M264.669 160.918H301.4" stroke="#263238" stroke-miterlimit="10" stroke-linecap="round"/>
<path d="M264.669 164.348H291.448" stroke="#263238" stroke-miterlimit="10" stroke-linecap="round"/>
<path d="M264.669 125.898H308.61" stroke="#263238" stroke-miterlimit="10" stroke-linecap="round"/>
<path d="M264.669 129.328H308.61" stroke="#263238" stroke-miterlimit="10" stroke-linecap="round"/>
<path d="M264.669 132.766H308.61" stroke="#263238" stroke-miterlimit="10" stroke-linecap="round"/>
<path d="M264.669 143.062H308.61" stroke="#263238" stroke-miterlimit="10" stroke-linecap="round"/>
<path d="M264.669 146.5H308.61" stroke="#263238" stroke-miterlimit="10" stroke-linecap="round"/>
<path d="M264.669 149.93H308.61" stroke="#263238" stroke-miterlimit="10" stroke-linecap="round"/>
<path d="M264.669 176.02H308.61" stroke="#263238" stroke-miterlimit="10" stroke-linecap="round"/>
<path d="M264.669 179.457H308.61" stroke="#263238" stroke-miterlimit="10" stroke-linecap="round"/>
<path d="M264.669 182.887H308.61" stroke="#263238" stroke-miterlimit="10" stroke-linecap="round"/>
<path d="M316.844 88.7891H62.4067V96.5147H316.844V88.7891Z" fill="#3AA959" stroke="#263238" stroke-miterlimit="10" stroke-linecap="round"/>
<path d="M300.255 92.7334C300.256 93.0424 300.166 93.3449 299.995 93.6025C299.824 93.8602 299.581 94.0613 299.296 94.1806C299.011 94.2998 298.697 94.3318 298.394 94.2723C298.09 94.2129 297.812 94.0648 297.593 93.8468C297.374 93.6288 297.224 93.3507 297.163 93.0477C297.103 92.7448 297.133 92.4306 297.251 92.1449C297.369 91.8593 297.569 91.6151 297.826 91.4433C298.083 91.2714 298.385 91.1797 298.694 91.1797C298.898 91.1788 299.101 91.2183 299.29 91.2959C299.48 91.3736 299.652 91.4879 299.797 91.6322C299.942 91.7766 300.057 91.9482 300.136 92.1372C300.214 92.3262 300.255 92.5288 300.255 92.7334Z" fill="#263238" stroke="#263238" stroke-linecap="round" stroke-linejoin="round"/>
<path d="M306.978 92.7334C306.98 93.0424 306.889 93.3449 306.719 93.6025C306.548 93.8602 306.305 94.0613 306.02 94.1806C305.735 94.2998 305.42 94.3318 305.117 94.2723C304.814 94.2129 304.535 94.0648 304.316 93.8468C304.097 93.6288 303.948 93.3507 303.887 93.0477C303.826 92.7448 303.857 92.4306 303.975 92.1449C304.093 91.8593 304.293 91.6151 304.549 91.4433C304.806 91.2714 305.108 91.1797 305.417 91.1797C305.622 91.1788 305.825 91.2183 306.014 91.2959C306.203 91.3736 306.376 91.4879 306.521 91.6322C306.666 91.7766 306.781 91.9482 306.859 92.1372C306.938 92.3262 306.978 92.5288 306.978 92.7334Z" fill="#263238" stroke="#263238" stroke-linecap="round" stroke-linejoin="round"/>
<path d="M313.701 92.7334C313.703 93.0424 313.612 93.3449 313.442 93.6025C313.271 93.8602 313.028 94.0613 312.743 94.1806C312.458 94.2998 312.144 94.3318 311.84 94.2723C311.537 94.2129 311.258 94.0648 311.039 93.8468C310.82 93.6288 310.671 93.3507 310.61 93.0477C310.549 92.7448 310.58 92.4306 310.698 92.1449C310.816 91.8593 311.016 91.6151 311.273 91.4433C311.529 91.2714 311.831 91.1797 312.14 91.1797C312.345 91.1788 312.548 91.2183 312.737 91.2959C312.927 91.3736 313.099 91.4879 313.244 91.6322C313.389 91.7766 313.504 91.9482 313.582 92.1372C313.661 92.3262 313.701 92.5288 313.701 92.7334Z" fill="#263238" stroke="#263238" stroke-linecap="round" stroke-linejoin="round"/>
<path d="M261.34 96.4297H62.4067V246.79H261.34V96.4297Z" fill="#263238" stroke="#263238" stroke-linecap="round" stroke-linejoin="round"/>
<path d="M71.8365 239.156H65.1562V243.452H71.8365V239.156Z" fill="white" stroke="#263238" stroke-miterlimit="10"/>
<path d="M95.2281 239.156H88.5479V243.452H95.2281V239.156Z" fill="white" stroke="#263238" stroke-miterlimit="10"/>
<path d="M118.613 239.156H111.933V243.452H118.613V239.156Z" fill="white" stroke="#263238" stroke-miterlimit="10"/>
<path d="M142.005 239.156H135.324V243.452H142.005V239.156Z" fill="white" stroke="#263238" stroke-miterlimit="10"/>
<path d="M165.396 239.156H158.716V243.452H165.396V239.156Z" fill="white" stroke="#263238" stroke-miterlimit="10"/>
<path d="M243.676 239.156H236.996V243.452H243.676V239.156Z" fill="white" stroke="#263238" stroke-miterlimit="10"/>
<path d="M217.421 239.156H210.74V243.452H217.421V239.156Z" fill="white" stroke="#263238" stroke-miterlimit="10"/>
<path d="M260.739 169.77H197.401V233.687H260.739V169.77Z" fill="#263238" stroke="#263238" stroke-linecap="round" stroke-linejoin="round"/>
<path d="M244.328 186.324H213.798V217.141H244.328V186.324Z" fill="#3AA959" stroke="#263238" stroke-miterlimit="10" stroke-linecap="round"/>
<path d="M228.404 202.456L227.688 203.688V207.862H226.256V195.418H227.688V201.425L230.996 195.418H232.428L229.285 201.089L232.536 207.862H231.104L228.404 202.456Z" fill="#263238"/>
<path d="M194.945 169.77H131.615V233.687H194.945V169.77Z" fill="#D4D4D4" stroke="#263238" stroke-miterlimit="10" stroke-linecap="round"/>
<path d="M195.039 233.565V222.975C191.745 221.543 182.544 217.491 178.091 215.815C172.614 213.782 165.876 209.708 153.668 212.235C153.668 212.235 137.537 221.006 134.25 222.259C132.961 222.746 132.102 223.119 131.494 223.384V233.565H195.039Z" fill="#ADADAD" stroke="#263238" stroke-miterlimit="10" stroke-linecap="round"/>
<path d="M144.396 220.879L142.233 226.8L149.594 228.361L144.653 233.18" fill="#ADADAD"/>
<path d="M144.396 220.879L142.233 226.8L149.594 228.361L144.653 233.18" stroke="#263238" stroke-miterlimit="10" stroke-linecap="round"/>
<path d="M182.58 231.82L183.547 230.087L177.912 227.266L184.177 223.98L181.427 217.164C180.167 216.648 179.007 216.19 178.069 215.839C172.592 213.805 165.854 209.731 153.647 212.259C153.647 212.259 150.124 214.171 146.036 216.34L144.947 219.34" fill="#ADADAD"/>
<path d="M182.58 231.82L183.547 230.087L177.912 227.266L184.177 223.98L181.427 217.164C180.167 216.648 179.007 216.19 178.069 215.839C172.592 213.805 165.854 209.731 153.647 212.259C153.647 212.259 150.124 214.171 146.036 216.34L144.947 219.34" stroke="#263238" stroke-miterlimit="10" stroke-linecap="round"/>
<path d="M157.685 233.566H169.692C170.458 231.568 171.26 229.219 171.969 226.642C174.16 218.658 172.599 213.804 172.599 213.804L152.415 213.367C152.625 218.764 153.736 224.088 155.701 229.119C156.282 230.636 156.944 232.12 157.685 233.566Z" fill="white" stroke="#263238" stroke-miterlimit="10" stroke-linecap="round"/>
<path d="M162.003 233.563H168.518L166.506 229.926L169.635 224.133L165.096 217.711L158.365 223.661L163.062 230.549L162.003 233.563Z" fill="#3AA959" stroke="#263238" stroke-miterlimit="10" stroke-linecap="round"/>
<path d="M152.415 213.367C152.625 218.764 153.736 224.088 155.701 229.119C155.83 229.449 155.959 229.771 156.088 230.086L164.157 221.759L170.988 229.921C171.332 228.869 171.668 227.773 171.983 226.613C174.174 218.63 172.613 213.775 172.613 213.775L152.415 213.367Z" fill="white" stroke="#263238" stroke-miterlimit="10" stroke-linecap="round"/>
<path d="M153.224 214.27C153.224 214.27 154.95 219.754 157.764 222.103C160.577 224.451 165.496 223.635 167.473 222.568C170.036 221.186 173.48 215.408 172.485 215.365C171.124 215.351 153.224 214.27 153.224 214.27Z" fill="white" stroke="#263238" stroke-miterlimit="10" stroke-linecap="round"/>
<path d="M148.341 195.956C148.341 195.956 146.623 193.292 145.212 194.073C143.802 194.853 143.487 197.524 144.117 200.517C144.747 203.51 149.594 204.741 149.594 204.741L148.341 195.956Z" fill="white" stroke="#263238" stroke-miterlimit="10" stroke-linecap="round"/>
<path d="M176.688 195.956C176.688 195.956 178.413 193.292 179.816 194.073C181.22 194.853 181.542 197.524 180.912 200.517C180.282 203.51 175.435 204.741 175.435 204.741L176.688 195.956Z" fill="white" stroke="#263238" stroke-miterlimit="10" stroke-linecap="round"/>
<path d="M152.88 180.138C152.88 180.138 149.594 181.391 148.656 183.718C147.718 186.045 148.341 197.809 148.971 201.725C149.601 205.642 150.689 211.592 151.785 213.94C152.88 216.289 160.556 220.986 166.033 219.418C171.511 217.85 175.119 214.406 175.27 210.339C175.42 206.272 177.618 187.792 177.618 185.443C177.618 183.095 167.916 177.61 163.062 176.987C158.207 176.364 152.88 180.138 152.88 180.138Z" fill="white" stroke="#263238" stroke-miterlimit="10" stroke-linecap="round"/>
<path d="M153.289 191.75C154.899 190.934 156.737 190.682 158.508 191.034L153.289 191.75Z" fill="white"/>
<path d="M153.289 191.75C154.899 190.934 156.737 190.682 158.508 191.034" stroke="#263238" stroke-width="3" stroke-miterlimit="10" stroke-linecap="round"/>
<path d="M165.969 191.623C165.969 191.623 169.9 190.699 172.556 192.124L165.969 191.623Z" fill="white"/>
<path d="M165.969 191.623C165.969 191.623 169.9 190.699 172.556 192.124" stroke="#263238" stroke-width="3" stroke-miterlimit="10" stroke-linecap="round"/>
<path d="M158.802 193.133H152.752C151.526 193.133 150.532 194.127 150.532 195.352V197.644C150.532 198.869 151.526 199.863 152.752 199.863H158.802C160.028 199.863 161.022 198.869 161.022 197.644V195.352C161.022 194.127 160.028 193.133 158.802 193.133Z" stroke="#263238" stroke-miterlimit="10" stroke-linecap="round"/>
<path d="M172.893 193.133H166.843C165.617 193.133 164.623 194.127 164.623 195.352V197.644C164.623 198.869 165.617 199.863 166.843 199.863H172.893C174.119 199.863 175.112 198.869 175.112 197.644V195.352C175.112 194.127 174.119 193.133 172.893 193.133Z" stroke="#263238" stroke-miterlimit="10" stroke-linecap="round"/>
<path d="M159.618 193.133H166.034" stroke="#263238" stroke-miterlimit="10" stroke-linecap="round"/>
<path d="M161.021 194.543H164.623" stroke="#263238" stroke-miterlimit="10" stroke-linecap="round"/>
<path d="M150.532 194.543H148.341" stroke="#263238" stroke-miterlimit="10" stroke-linecap="round"/>
<path d="M175.12 194.543H176.523" stroke="#263238" stroke-miterlimit="10" stroke-linecap="round"/>
<path d="M157.27 196.577C157.27 197.293 156.955 197.83 156.554 197.83C156.153 197.83 155.838 197.272 155.838 196.577C155.838 195.883 156.153 195.324 156.554 195.324C156.955 195.324 157.27 195.89 157.27 196.577Z" fill="#263238"/>
<path d="M170.107 197.83C170.495 197.83 170.809 197.269 170.809 196.577C170.809 195.885 170.495 195.324 170.107 195.324C169.72 195.324 169.406 195.885 169.406 196.577C169.406 197.269 169.72 197.83 170.107 197.83Z" fill="#263238"/>
<path d="M158.988 198.617C158.988 198.617 156.324 202.061 154.291 202.369" stroke="#263238" stroke-miterlimit="10" stroke-linecap="round"/>
<path d="M167.917 198.461C167.917 198.461 169.95 201.124 172.613 201.905" stroke="#263238" stroke-miterlimit="10" stroke-linecap="round"/>
<path d="M160.871 205.031C160.871 205.031 156.325 205.661 155.229 208.009C154.263 210.079 155.007 215.091 155.623 217.318C158.601 219.05 162.718 220.396 166.034 219.466C167.976 218.938 169.807 218.064 171.439 216.888C172.313 214.353 172.563 210.157 170.888 207.881C169.213 205.604 163.843 204.566 160.871 205.031Z" fill="#263238" stroke="#263238" stroke-miterlimit="10" stroke-linecap="round"/>
<path d="M163.062 206.444C163.062 206.444 158.05 207.382 157.577 208.477C157.105 209.573 157.577 211.613 158.523 212.709C159.468 213.804 160.399 214.27 161.179 213.647C161.959 213.024 161.336 211.921 162.747 211.921C164.158 211.921 164.623 211.764 165.095 212.236C165.568 212.709 165.253 213.804 166.971 213.489C168.69 213.174 169.477 211.456 169.635 209.73C169.792 208.005 165.396 206.286 163.062 206.444Z" fill="white" stroke="#263238" stroke-miterlimit="10" stroke-linecap="round"/>
<path d="M158.831 209.107C161.717 209.829 164.743 209.775 167.602 208.949" stroke="#263238" stroke-miterlimit="10" stroke-linecap="round"/>
<path d="M159.303 202.219C159.303 202.219 159.926 205.799 163.062 205.663C163.926 205.639 164.76 205.336 165.437 204.799C166.115 204.262 166.6 203.52 166.821 202.684" fill="white"/>
<path d="M159.303 202.219C159.303 202.219 159.926 205.799 163.062 205.663C163.926 205.639 164.76 205.336 165.437 204.799C166.115 204.262 166.6 203.52 166.821 202.684" stroke="#263238" stroke-miterlimit="10" stroke-linecap="round"/>
<path d="M174.174 190.321L174.647 192.669L175.213 193.55C175.213 193.55 175.27 197.208 176.215 197.051C177.16 196.893 178.714 189.848 178.714 188.595C178.714 187.342 173.988 188.753 174.174 190.321Z" fill="#263238" stroke="#263238" stroke-miterlimit="10" stroke-linecap="round"/>
<path d="M152.258 183.117C155.999 186.32 160.297 188.808 164.938 190.456C172.298 192.955 180.282 190.299 180.912 187.163C181.542 184.027 172.921 174.325 164.444 171.661C155.966 168.998 149.723 179.337 149.723 179.337C148.834 179.322 147.963 179.587 147.233 180.093C146.502 180.599 145.948 181.321 145.649 182.158C144.553 185.129 145.649 188.731 146.436 190.607C146.993 192.23 147.361 193.911 147.532 195.619C147.532 195.619 147.847 197.051 148.312 195.934C148.716 194.766 149.03 193.569 149.25 192.354C149.25 192.354 153.639 190.005 153.639 187.814C153.52 186.168 153.048 184.566 152.258 183.117Z" fill="#263238" stroke="#263238" stroke-miterlimit="10" stroke-linecap="round"/>
<path d="M148.95 229.648H132.081V233.644H148.95V229.648Z" fill="#7A7A7A" stroke="#263238" stroke-miterlimit="10" stroke-linecap="round"/>
<path d="M194.945 169.77H131.615V233.687H194.945V169.77Z" stroke="#263238" stroke-miterlimit="10" stroke-linecap="round"/>
<path d="M129.159 169.77H65.8291V233.687H129.159V169.77Z" fill="#7A7A7A" stroke="#263238" stroke-miterlimit="10" stroke-linecap="round"/>
<path d="M108.832 223.017C104.164 221.055 98.2852 220.303 95.7291 220.003C93.173 219.702 88.6479 220.604 88.6479 220.604C88.6479 220.604 72.6811 229.196 67.4113 230.7C66.8457 230.857 66.3373 231.008 65.8647 231.151V233.578H129.231V231.43C123.782 229.196 112.347 224.485 108.832 223.017Z" fill="#ADADAD" stroke="#263238" stroke-miterlimit="10" stroke-linecap="round"/>
<path d="M87.0369 233.578H105.474C106.753 232.471 107.781 231.104 108.489 229.568C109.198 228.032 109.571 226.363 109.584 224.671C109.584 224.212 109.555 223.752 109.498 223.296L108.832 223.017C104.164 221.055 98.2853 220.303 95.7292 220.003C93.173 219.702 88.6479 220.604 88.6479 220.604C88.6479 220.604 86.235 221.9 82.9772 223.576C82.9772 223.934 82.9199 224.292 82.9199 224.671C82.9325 226.363 83.3063 228.033 84.0163 229.569C84.7263 231.105 85.7562 232.472 87.0369 233.578V233.578Z" stroke="#263238" stroke-miterlimit="10" stroke-linecap="round"/>
<path d="M84.4307 229.943L87.5954 227.688" stroke="#263238" stroke-miterlimit="10" stroke-linecap="round"/>
<path d="M87.2949 217.289C87.2949 217.289 87.5956 223.017 87.746 224.22C87.8964 225.423 92.715 230.091 95.4287 231.151C98.1423 232.21 102.202 228.437 103.713 226.783C105.224 225.129 105.667 217.289 105.667 217.289C105.667 217.289 99.4956 221.356 96.1805 220.604C92.8654 219.852 87.2949 217.289 87.2949 217.289Z" fill="white" stroke="#263238" stroke-miterlimit="10" stroke-linecap="round"/>
<path d="M95.7294 220.528C92.8479 219.653 90.0298 218.581 87.2949 217.32C87.2949 217.32 87.5956 223.048 87.746 224.251C87.8104 224.788 88.8057 226.013 90.1231 227.294C90.4829 227.245 90.8393 227.174 91.19 227.079C94.1635 226.246 97.0811 225.225 99.9252 224.022L95.7294 220.528Z" fill="#263238" stroke="#263238" stroke-miterlimit="10" stroke-linecap="round"/>
<path d="M82.7698 203.434C82.7698 203.434 81.4166 201.622 80.2137 203.283C79.0108 204.944 80.5144 207.952 81.1159 209.606C81.7173 211.259 84.1302 211.267 84.1302 211.267L82.7698 203.434Z" fill="white" stroke="#263238" stroke-miterlimit="10" stroke-linecap="round"/>
<path d="M108.295 203.502C108.295 203.502 109.526 201.605 110.844 203.18C112.161 204.755 110.844 207.856 110.364 209.552C109.884 211.249 107.5 211.407 107.5 211.407L108.295 203.502Z" fill="white" stroke="#263238" stroke-miterlimit="10" stroke-linecap="round"/>
<path d="M82.7694 203.436C82.7694 203.436 84.1298 213.374 85.0319 215.608C85.9341 217.842 92.4139 223.592 93.0153 224.2C93.6168 224.809 97.2326 226.305 99.0441 225.554C100.856 224.802 102.352 222.546 102.352 222.546C102.352 222.546 107.178 216.969 107.779 214.713C108.381 212.458 108.381 199.949 108.381 199.949C108.381 199.949 107.629 191.966 106.569 190.606C105.51 189.245 96.6311 188.501 91.5332 188.35C86.4353 188.2 83.0558 188.221 82.7694 190.455C82.483 192.689 82.7694 203.436 82.7694 203.436Z" fill="white" stroke="#263238" stroke-miterlimit="10" stroke-linecap="round"/>
<path d="M105.252 191.688C105.252 191.688 104.801 194.094 105.252 195.003C105.743 195.847 106.298 196.651 106.913 197.409C106.913 197.409 106.763 202.987 106.913 203.438C107.064 203.889 107.966 204.49 108.116 203.438C108.267 202.385 108.868 198.461 109.169 197.559C109.469 196.657 110.522 194.695 110.522 192.139C110.514 191.381 110.333 190.635 109.995 189.956C109.656 189.278 109.168 188.685 108.567 188.223L105.252 191.688Z" fill="#3AA959" stroke="#263238" stroke-miterlimit="10" stroke-linecap="round"/>
<path d="M82.3402 201.773C82.3402 201.773 80.0848 194.241 79.1826 190.023C78.2805 185.806 79.4833 181.138 81.7387 179.634C83.3492 178.663 85.148 178.045 87.0157 177.823C87.0157 177.823 90.0229 174.357 94.3905 173.756C98.7581 173.154 101.923 174.057 104.636 175.868C107.35 177.679 110.508 177.221 112.62 177.221C114.732 177.221 115.033 182.949 112.62 185.956C110.207 188.964 105.388 192.737 101.321 193.639C97.2545 194.541 91.684 192.887 89.4214 191.835C88.2701 191.32 87.1616 190.714 86.1063 190.023C86.1063 190.023 88.0682 193.489 87.166 194.692C86.2177 195.847 85.2116 196.953 84.1517 198.007C84.1517 198.007 84.8677 203.885 84.1517 204.487C83.4357 205.088 82.3402 201.773 82.3402 201.773Z" fill="#3AA959" stroke="#263238" stroke-miterlimit="10" stroke-linecap="round"/>
<path d="M88.3188 186.353C91.8333 189.107 96.1841 190.575 100.648 190.513C109.856 190.205 112.462 181.613 112.462 181.613" stroke="#263238" stroke-miterlimit="10" stroke-linecap="round"/>
<path d="M85.4619 183.762C85.8014 184.149 86.1624 184.517 86.5431 184.864" stroke="#263238" stroke-miterlimit="10" stroke-linecap="round"/>
<path d="M107.78 185.916C108.807 185.448 109.722 184.767 110.465 183.918" stroke="#263238" stroke-miterlimit="10" stroke-linecap="round"/>
<path d="M88.9917 181.148C92.7721 183.182 96.7256 184.876 100.806 186.211C102.339 186.729 103.976 186.867 105.574 186.612" stroke="#263238" stroke-miterlimit="10" stroke-linecap="round"/>
<path d="M98.4358 200.57C98.4358 200.57 97.7198 205.99 97.9847 207.952C98.2496 209.914 99.1948 212.17 97.5336 212.47C95.8725 212.771 93.6171 211.267 93.9178 210.208" stroke="#263238" stroke-miterlimit="10" stroke-linecap="round"/>
<path d="M91.061 213.074C91.061 213.074 93.7675 215.637 97.233 215.337C98.2415 215.253 99.2204 214.954 100.104 214.46C100.987 213.966 101.754 213.288 102.352 212.473" stroke="#263238" stroke-miterlimit="10" stroke-linecap="round"/>
<path d="M91.3617 205.089C91.7769 205.089 92.1135 204.483 92.1135 203.736C92.1135 202.989 91.7769 202.383 91.3617 202.383C90.9465 202.383 90.6099 202.989 90.6099 203.736C90.6099 204.483 90.9465 205.089 91.3617 205.089Z" fill="#263238"/>
<path d="M102.051 203.735C102.051 204.451 101.715 205.089 101.299 205.089C100.884 205.089 100.583 204.48 100.583 203.735C100.583 202.991 100.92 202.375 101.299 202.375C101.679 202.375 102.051 202.984 102.051 203.735Z" fill="#263238"/>
<path d="M87.9679 201.551C88.7825 200.875 89.7789 200.454 90.8319 200.341C92.7865 200.041 94.7484 201.1 94.7484 200.492C94.7484 199.883 92.7865 198.387 90.5311 198.387C88.2757 198.387 87.2161 200.95 87.9679 201.551Z" fill="#3AA959" stroke="#263238" stroke-miterlimit="10" stroke-linecap="round"/>
<path d="M104.45 200.341C103.635 199.666 102.638 199.248 101.586 199.138C99.6313 198.838 97.6694 199.89 97.6694 199.289C97.6694 198.687 99.6313 197.184 101.887 197.184C104.142 197.184 105.202 199.761 104.45 200.341Z" fill="#3AA959" stroke="#263238" stroke-miterlimit="10" stroke-linecap="round"/>
<path d="M89.1421 206.008L91.7483 206.624" stroke="#263238" stroke-miterlimit="10" stroke-linecap="round"/>
<path d="M100.498 206.464L103.563 205.855" stroke="#263238" stroke-miterlimit="10" stroke-linecap="round"/>
<path d="M83.2352 229.648H66.3662V233.644H83.2352V229.648Z" fill="#7A7A7A" stroke="#263238" stroke-miterlimit="10" stroke-linecap="round"/>
<path d="M129.159 169.77H65.8291V233.687H129.159V169.77Z" stroke="#263238" stroke-miterlimit="10" stroke-linecap="round"/>
<path d="M260.739 103.52H197.401V167.437H260.739V103.52Z" fill="#7A7A7A" stroke="#263238" stroke-miterlimit="10" stroke-linecap="round"/>
<path d="M213.798 137.593C211.597 139.809 209.721 142.325 208.227 145.068C205.886 149.464 209.545 156.524 215.996 158.55C222.447 160.576 237.397 161.629 241.507 157.383C245.617 153.137 246.34 146.536 244.579 143.307C242.817 140.077 239.302 139.354 235.643 135.832C231.984 132.309 220.979 129.38 213.798 137.593Z" fill="#263238" stroke="#263238" stroke-miterlimit="10" stroke-linecap="round"/>
<path d="M211.6 132.613C211.6 132.613 209.989 132.169 209.989 134.66C209.989 137.152 211.6 140.088 212.917 140.675C213.334 140.83 213.785 140.871 214.224 140.793C214.662 140.715 215.071 140.521 215.409 140.231L213.655 132.613H211.6Z" fill="white" stroke="#263238" stroke-miterlimit="10" stroke-linecap="round"/>
<path d="M240.92 132.613C240.92 132.613 242.531 132.169 242.531 134.66C242.531 137.152 240.92 140.088 239.595 140.675C239.178 140.829 238.727 140.87 238.289 140.792C237.851 140.714 237.442 140.52 237.104 140.231L238.865 132.613H240.92Z" fill="white" stroke="#263238" stroke-miterlimit="10" stroke-linecap="round"/>
<path d="M259.242 167.315V165.446C259.242 165.446 235.614 155.773 234.898 154.742C234.182 153.711 233.875 146.68 233.875 146.68L219.361 146.973V153.274C219.361 155.329 219.361 155.479 217.306 157.234C215.251 158.988 198.11 166.47 197.523 167.057C197.472 167.134 197.44 167.223 197.43 167.315H259.242Z" fill="white" stroke="#263238" stroke-miterlimit="10" stroke-linecap="round"/>
<path d="M220.084 153.277C220.084 153.778 220.084 154.165 220.084 154.487L229.528 152.339L228.039 148.093C228.039 148.093 227.001 147.477 225.891 146.883L220.127 146.997L220.084 153.277Z" fill="#263238" stroke="#263238" stroke-miterlimit="10" stroke-linecap="round"/>
<path d="M259.243 167.317V165.448C259.243 165.448 247.035 160.436 239.911 157.25C238.937 159.262 235.393 165.77 229.643 167.317H259.243Z" fill="#ADADAD" stroke="#263238" stroke-miterlimit="10" stroke-linecap="round"/>
<path d="M224.487 167.315C218.96 165.926 215.895 160.534 214.979 158.637C209.709 161.422 198.01 166.577 197.53 167.057C197.479 167.134 197.447 167.223 197.437 167.315H224.487Z" fill="#ADADAD" stroke="#263238" stroke-miterlimit="10" stroke-linecap="round"/>
<path d="M218.094 167.314L216.805 157.598C213.318 159.846 198.081 166.505 197.53 167.056C197.479 167.133 197.447 167.222 197.437 167.314H218.094Z" fill="#3AA959" stroke="#263238" stroke-miterlimit="10" stroke-linecap="round"/>
<path d="M260.732 167.315V165.447C260.732 165.447 241.457 158.158 236.28 155.559L235.564 167.315H260.732Z" fill="#3AA959" stroke="#263238" stroke-miterlimit="10" stroke-linecap="round"/>
<path d="M213.798 136.568C213.798 136.568 215.702 143.306 216.583 145.361C217.464 147.416 224.352 152.693 225.82 153.237C227.287 153.781 230.216 153.387 231.548 152.07C232.879 150.752 236.388 146.342 237.118 144.738C237.848 143.134 239.316 132.423 239.316 132.423C239.908 130.765 239.908 128.954 239.316 127.296C238.278 124.84 230.366 118.855 225.54 116.921C220.714 114.988 219.383 116.921 215.867 122.649C212.352 128.377 211.908 130.124 212.201 131.442C212.495 132.759 213.519 135.988 213.519 135.988L213.798 136.568Z" fill="white" stroke="#263238" stroke-miterlimit="10" stroke-linecap="round"/>
<path d="M227.875 131.285L228.168 136.712C228.168 136.712 229.335 138.474 228.455 138.911C227.574 139.347 225.383 139.061 224.939 138.323" stroke="#263238" stroke-miterlimit="10" stroke-linecap="round"/>
<path d="M222.741 142.282C222.741 142.282 225.526 143.893 227.753 143.306C229.052 142.965 230.289 142.422 231.419 141.695" stroke="#263238" stroke-miterlimit="10" stroke-linecap="round"/>
<path d="M222.884 133.176C222.884 133.892 222.561 134.494 222.168 134.494C221.774 134.494 221.452 133.899 221.452 133.176C221.452 132.453 221.781 131.852 222.168 131.852C222.554 131.852 222.884 132.46 222.884 133.176Z" fill="#263238"/>
<path d="M231.984 133.176C231.984 133.892 231.655 134.494 231.268 134.494C230.882 134.494 230.552 133.899 230.552 133.176C230.552 132.453 230.882 131.852 231.268 131.852C231.655 131.852 231.984 132.46 231.984 133.176Z" fill="#263238"/>
<path d="M218.932 130.118C218.932 130.118 220.686 128.686 223.944 129.086" stroke="#263238" stroke-miterlimit="10" stroke-linecap="round"/>
<path d="M229.335 128.65C230.238 128.498 231.165 128.565 232.037 128.845C232.909 129.125 233.701 129.611 234.347 130.26" stroke="#263238" stroke-miterlimit="10" stroke-linecap="round"/>
<path d="M223.915 119.573C223.915 119.573 222.01 125.144 218.781 127.635C217.243 128.903 215.561 129.984 213.769 130.857V136.585C213.769 137.301 213.332 136.435 212.452 135.261C211.571 134.087 211.571 132.476 208.786 130.428C206 128.38 204.096 125.416 205.564 122.215C207.032 119.015 210.397 111.074 217.02 107.702C223.643 104.33 228.597 105.21 232.113 106.535C235.629 107.86 244.872 117.074 246.197 120.289C247.521 123.504 244.579 128.502 242.824 129.962C241.07 131.423 239.452 131.394 236.667 130.113C232.869 128.014 229.242 125.62 225.819 122.953C224.939 122.058 223.915 119.573 223.915 119.573Z" fill="#263238" stroke="#263238" stroke-miterlimit="10" stroke-linecap="round"/>
<path d="M209.337 127.332C207.869 127.797 207.525 127.661 207.525 127.661" stroke="#878787" stroke-miterlimit="10" stroke-linecap="round"/>
<path d="M222.619 115.125C222.112 117.205 221.167 119.153 219.848 120.838C218.528 122.524 216.863 123.908 214.965 124.898C213.533 125.614 212.387 126.144 211.449 126.538" stroke="#878787" stroke-miterlimit="10" stroke-linecap="round"/>
<path d="M243.089 127.125C243.641 127.705 243.87 128.249 243.655 128.729" stroke="#878787" stroke-miterlimit="10" stroke-linecap="round"/>
<path d="M224.108 113.637C224.108 113.637 226.443 119.572 232.393 121.72C235.506 122.77 238.506 124.127 241.35 125.773" stroke="#878787" stroke-miterlimit="10" stroke-linecap="round"/>
<path d="M239.538 117.531C241.538 119.862 243.276 122.404 244.722 125.114" stroke="#878787" stroke-miterlimit="10" stroke-linecap="round"/>
<path d="M223.894 110.027C223.894 110.027 233.882 111.509 238.135 115.977" stroke="#878787" stroke-miterlimit="10" stroke-linecap="round"/>
<path d="M221.129 112.578C221.129 112.578 217.549 114.726 216.454 117.254C215.358 119.781 213.69 123.626 211.356 124.693" stroke="#878787" stroke-miterlimit="10" stroke-linecap="round"/>
<path d="M237.691 130.263L238.428 135.833L241.063 130.12L237.397 129.676L237.691 130.263Z" fill="#263238" stroke="#263238" stroke-miterlimit="10" stroke-linecap="round"/>
<path d="M214.657 162.773H197.788V166.769H214.657V162.773Z" fill="#7A7A7A" stroke="#263238" stroke-miterlimit="10" stroke-linecap="round"/>
<path d="M260.739 103.52H197.401V167.437H260.739V103.52Z" stroke="#263238" stroke-miterlimit="10" stroke-linecap="round"/>
<path d="M194.945 103.52H131.615V167.437H194.945V103.52Z" fill="#263238" stroke="#263238" stroke-linecap="round" stroke-linejoin="round"/>
<path d="M155.15 138.482H154.226L153.403 132.461H154.062L154.778 137.58L155.443 132.468H156.088L156.747 137.587L157.427 132.461H158.007L157.19 138.468H156.31L155.737 134.394L155.15 138.482Z" fill="white"/>
<path d="M159.231 132.461V138.468H158.558V132.461H159.231Z" fill="white"/>
<path d="M159.919 138.482V132.461H160.585V137.86H162.303V138.468L159.919 138.482Z" fill="white"/>
<path d="M165.396 133.894V134.058H164.759V133.894C164.759 133.357 164.551 133.034 164.043 133.034C163.535 133.034 163.327 133.357 163.327 133.886C163.327 135.24 165.346 135.369 165.346 137.058C165.346 137.968 164.909 138.562 163.986 138.562C163.062 138.562 162.64 137.968 162.64 137.058V136.715H163.27V137.094C163.27 137.631 163.492 137.953 163.986 137.953C164.48 137.953 164.702 137.631 164.702 137.094C164.702 135.748 162.697 135.662 162.697 133.929C162.697 133.006 163.127 132.426 164.029 132.426C164.931 132.426 165.396 133.006 165.396 133.894Z" fill="white"/>
<path d="M165.955 133.894C165.955 132.977 166.413 132.383 167.329 132.383C168.246 132.383 168.711 132.977 168.711 133.894V137.008C168.711 137.917 168.26 138.519 167.329 138.519C166.399 138.519 165.955 137.917 165.955 137.008V133.894ZM166.62 137.037C166.62 137.588 166.85 137.91 167.336 137.91C167.823 137.91 168.052 137.588 168.052 137.037V133.894C168.052 133.349 167.831 133.02 167.336 133.02C166.842 133.02 166.62 133.349 166.62 133.894V137.037Z" fill="white"/>
<path d="M171.568 138.475H170.924L169.928 133.692V138.482H169.341V132.461H170.279L171.267 137.258L172.22 132.461H173.158V138.468H172.556V133.635L171.568 138.475Z" fill="white"/>
<path d="M129.159 103.52H65.8286V167.437H129.159V103.52Z" fill="#C9C9C9" stroke="#263238" stroke-miterlimit="10" stroke-linecap="round"/>
<path d="M114.474 113.164C112.818 111.914 111.017 110.868 109.111 110.049C109.111 110.049 111.703 109.011 111.015 107.801C110.328 106.591 102.015 104.508 98.3851 104.508C94.755 104.508 92.3277 104.687 92.3277 104.687C92.3277 104.687 93.4375 103.863 93.5736 103.348H91.0246C88.7263 104.193 85.6546 106.398 83.3276 110.221C83.3276 110.221 75.5447 112.992 74.1557 115.233C72.7666 117.474 76.5829 116.959 76.5829 116.959C76.5829 116.959 71.9074 125.264 71.9074 128.379C71.8741 128.766 71.9289 129.156 72.0676 129.519C72.2064 129.883 72.4255 130.21 72.7085 130.476C72.9916 130.743 73.3313 130.942 73.7022 131.059C74.073 131.175 74.4655 131.206 74.8502 131.15C74.8502 131.15 75.1939 142.226 77.4493 143.952C79.7047 145.678 80.5639 143.78 80.5639 143.78C83.8057 146.066 87.3603 147.872 91.1177 149.143C96.9961 151.048 107.034 148.105 110.321 146.372C112.327 145.321 114.242 144.107 116.049 142.742C116.049 142.742 116.4 144.818 117.61 143.086C118.82 141.353 119.342 131.15 119.342 131.15C119.532 131.25 119.743 131.302 119.957 131.3C120.172 131.299 120.382 131.244 120.57 131.141C120.758 131.038 120.918 130.89 121.035 130.711C121.152 130.531 121.222 130.325 121.24 130.112C121.591 128.379 120.202 125.959 120.202 125.959C120.202 125.959 122.457 127.692 122.106 124.226C121.755 120.761 116.894 115.069 114.474 113.164Z" fill="#263238" stroke="#263238" stroke-miterlimit="10" stroke-linecap="round"/>
<path d="M129.202 167.316V155.981C124.276 154.034 107.235 147.289 104.786 146.337C101.922 145.227 91.1179 145.062 91.1179 145.062C91.1179 145.062 67.5901 155.559 65.6855 156.518V167.309L129.202 167.316Z" fill="#3AA959" stroke="#263238" stroke-miterlimit="10" stroke-linecap="round"/>
<path d="M78.4017 164.616L79.2895 167.316H114.209L114.961 165.096L110.98 160.328L114.953 154.922L109.841 148.327L104.779 146.337C101.915 145.227 91.1107 145.062 91.1107 145.062L82.3397 149L78.2656 157.149L82.712 160.328L78.4017 164.616Z" fill="#3AA959" stroke="#263238" stroke-miterlimit="10" stroke-linecap="round"/>
<path d="M105.108 167.316V146.459L104.786 146.337C101.922 145.227 91.1178 145.062 91.1178 145.062L87.7812 146.559V167.323L105.108 167.316Z" fill="white" stroke="#263238" stroke-miterlimit="10" stroke-linecap="round"/>
<path d="M96.8461 167.314H97.8414C98.9726 165.717 101.693 161.786 102.402 159.961C103.469 157.19 105.581 151.412 104.421 145.884C104.006 143.886 103.433 141.101 103.433 141.101C103.433 141.101 92.8723 142.913 89.0775 139.125C89.3504 141.007 89.1813 142.926 88.5835 144.731C87.2517 148.075 88.3902 151.82 89.5 155.056C90.4666 157.884 95.2996 165.051 96.8461 167.314Z" fill="#ADADAD" stroke="#263238" stroke-miterlimit="10" stroke-linecap="round"/>
<path d="M89.199 143.059C89.199 143.059 84.2371 153.476 94.1608 154.966C97.1394 155.41 103.748 145.207 103.748 145.207L89.199 143.059Z" fill="#263238" stroke="#263238" stroke-miterlimit="10" stroke-linecap="round"/>
<path d="M89.9005 116.621C89.9005 116.621 83.4995 126.137 83.4995 126.831C83.4995 127.526 84.3659 136.519 85.2322 138.939C86.0986 141.359 90.4232 145.863 93.1942 147.416C95.9651 148.97 99.2443 148.132 101.5 147.244C103.755 146.357 107.228 143.271 108.073 140.5C108.918 137.729 109.283 127.347 109.283 127.347L97.8625 120.43C97.8625 120.43 97.6906 122.156 96.4806 121.297L89.9005 116.621Z" fill="#ADADAD" stroke="#263238" stroke-miterlimit="10" stroke-linecap="round"/>
<path d="M84.0222 131.156C84.0222 131.156 80.9505 133.376 81.466 134.242C81.9816 135.109 82.8121 138.767 84.7095 137.901L84.0222 131.156Z" fill="#ADADAD" stroke="#263238" stroke-miterlimit="10" stroke-linecap="round"/>
<path d="M109.283 131.328L108.567 138.166C108.567 138.166 111.789 135.889 112.032 134.099C112.183 133.097 109.283 131.328 109.283 131.328Z" fill="#ADADAD" stroke="#263238" stroke-miterlimit="10" stroke-linecap="round"/>
<path d="M92.6717 129.776C92.6717 130.585 92.3639 131.244 91.9557 131.244C91.5476 131.244 91.2397 130.585 91.2397 129.776C91.2397 128.967 91.5476 128.301 91.9557 128.301C92.3639 128.301 92.6717 128.959 92.6717 129.776Z" fill="#263238"/>
<path d="M102.015 129.776C102.015 130.585 101.708 131.244 101.299 131.244C100.891 131.244 100.583 130.585 100.583 129.776C100.583 128.967 100.891 128.301 101.299 128.301C101.708 128.301 102.015 128.959 102.015 129.776Z" fill="#263238"/>
<path d="M88.3472 126.66C89.0292 126.019 89.8681 125.569 90.7794 125.356C91.6907 125.142 92.6423 125.172 93.5382 125.443" stroke="#263238" stroke-width="3" stroke-miterlimit="10" stroke-linecap="round"/>
<path d="M99.4233 125.442C100.289 125.06 101.252 124.954 102.18 125.14C103.108 125.326 103.956 125.794 104.607 126.481" stroke="#263238" stroke-width="3" stroke-miterlimit="10" stroke-linecap="round"/>
<path d="M93.2588 137.687C94.462 138.567 95.9217 139.025 97.4116 138.991C98.091 138.954 98.7547 138.773 99.3585 138.459C99.9622 138.145 100.492 137.707 100.913 137.172" stroke="#263238" stroke-miterlimit="10" stroke-linecap="round"/>
<path d="M99.4379 134.078C99.4379 134.078 96.9891 135.711 95.5213 134.894L94.0464 134.078" stroke="#263238" stroke-miterlimit="10" stroke-linecap="round"/>
<path d="M88.4976 132.117H91.9272" stroke="#263238" stroke-miterlimit="10" stroke-linecap="round"/>
<path d="M101.235 132.609H104.507" stroke="#263238" stroke-miterlimit="10" stroke-linecap="round"/>
<path d="M83.2347 162.777H66.3657V166.773H83.2347V162.777Z" fill="#7A7A7A" stroke="#263238" stroke-miterlimit="10" stroke-linecap="round"/>
<path d="M129.159 103.52H65.8286V167.437H129.159V103.52Z" stroke="#263238" stroke-miterlimit="10" stroke-linecap="round"/>
</svg>
