<svg width="30" height="30" viewBox="0 0 37 36" fill="none" xmlns="http://www.w3.org/2000/svg">
<rect width="35.8718" height="35.8718" transform="translate(0.218262 0.0546875)" fill="white" fill-opacity="0.01"/>
<path fill-rule="evenodd" clip-rule="evenodd" d="M9.91101 26.4642C10.1886 26.7419 10.5182 26.9622 10.881 27.1125C11.2437 27.2628 11.6325 27.3402 12.0252 27.3402C12.4179 27.3402 12.8067 27.2628 13.1694 27.1125C13.5322 26.9622 13.8618 26.7419 14.1394 26.4642L9.91101 22.2343C9.63308 22.5119 9.41259 22.8416 9.26215 23.2045C9.11172 23.5674 9.03429 23.9564 9.03429 24.3492C9.03429 24.7421 9.11172 25.1311 9.26215 25.494C9.41259 25.8569 9.63308 26.1866 9.91101 26.4642ZM17.2303 8.24283L16.1467 9.32645C14.9779 10.4953 12.8435 12.0363 11.3549 12.7806L6.84547 15.036C6.10562 15.4067 5.97259 16.1929 6.56597 16.7863L19.3543 29.5746C19.9491 30.1664 20.7323 30.0424 21.1045 29.2936L23.3614 24.7857C24.0998 23.309 25.6423 21.1686 26.8156 19.9938L27.8992 18.9087C29.1297 17.6784 29.897 16.0605 30.0714 14.3292C30.2457 12.5979 29.8162 10.8596 28.8558 9.40866C29.0165 9.27987 29.1492 9.11955 29.2457 8.93757C29.3421 8.75559 29.4003 8.55579 29.4167 8.35048C29.433 8.14516 29.4072 7.93867 29.3408 7.74371C29.2743 7.54875 29.1687 7.36945 29.0304 7.21684C28.8921 7.06422 28.724 6.94152 28.5365 6.8563C28.349 6.77107 28.146 6.72511 27.9401 6.72125C27.7342 6.71739 27.5296 6.75571 27.3391 6.83386C27.1485 6.912 26.976 7.02832 26.832 7.17564C26.7976 7.21301 26.7633 7.24888 26.7334 7.28774C25.498 6.46861 24.0485 6.0319 22.5663 6.03223C21.5752 6.03105 20.5937 6.22559 19.678 6.60468C18.7623 6.98378 17.9305 7.53997 17.2303 8.24133V8.24283Z" fill="#676767"/>
</svg>
