<svg width="457" height="528" viewBox="0 0 457 528" fill="none" xmlns="http://www.w3.org/2000/svg">
<path d="M454.546 488.278C457.891 497.71 456.436 512.894 447.941 519.465C445.251 521.379 442.155 522.644 438.894 523.161C422.439 526.505 409.045 520.402 395.567 511.79C379.146 501.288 362.624 490.971 346.27 480.369C313.55 459.187 281.131 437.532 249.013 415.403C233.261 404.567 222.642 405.57 207.208 416.206C157.743 450.486 106.874 482.794 56.7913 516.088C42.1259 525.837 27.1428 534.014 11.056 520.72C-5.34849 507.175 1.3404 490.62 7.94568 474.934C71.3229 325.137 134.349 175.222 198.847 25.9257C203.863 14.2202 218.127 -2.06727 232.475 1.05978C248.829 4.63834 257.826 23.3338 264.247 37.1965C277.792 66.1092 288.996 96.1423 301.521 125.523C320.06 169.001 338.538 212.512 356.955 256.057C388.092 329.635 419.167 403.213 450.182 476.79C451.77 480.436 453.091 484.115 454.546 488.278ZM203.713 349.15C221.422 336.909 236.421 337.076 253.879 349.15C289.933 373.982 327.073 397.226 363.644 421.306C319.531 316.976 275.518 212.83 228.411 101.41C184.098 208.449 142.693 308.13 101.239 407.811V407.945L97.8945 417.978C133.145 395.035 169.131 373.079 203.746 349.15H203.713Z" fill="#f2f2f2" fill-opacity="0.5" />
</svg>
