<svg width="705" height="269" viewBox="0 0 705 269" fill="none" xmlns="http://www.w3.org/2000/svg">
<rect x="0.943647" y="0.981733" width="703.279" height="266.986" rx="4.18619" fill="white" stroke="#E5E5E5" stroke-width="0.930263"/>
<line x1="38.9468" y1="49.8213" x2="38.9468" y2="234.944" stroke="#ECECEE" stroke-width="0.654792"/>
<path d="M103.67 191.293C80.2244 197.079 39.5496 183.679 39.5496 183.679V251.688H667.769V85.3541C641.399 79.1566 605.802 32.0446 589.851 50.2618C541.151 105.88 483.143 45.1962 429.143 62.8421C374.049 80.8458 361.018 112.903 301.714 114.818C274.254 115.706 278.426 174.519 250.985 175.733C222.966 176.974 197.161 126.894 170.632 134.351C142.271 142.323 132.382 184.208 103.67 191.293Z" fill="url(#paint0_linear)"/>
<line x1="557.431" y1="230.947" x2="557.431" y2="238.94" stroke="#ECECEE" stroke-width="1.30958" stroke-linecap="round" stroke-linejoin="round"/>
<line x1="434.636" y1="230.947" x2="434.636" y2="238.94" stroke="#ECECEE" stroke-width="1.30958" stroke-linecap="round" stroke-linejoin="round"/>
<line x1="312.772" y1="230.947" x2="312.772" y2="238.94" stroke="#ECECEE" stroke-width="1.30958" stroke-linecap="round" stroke-linejoin="round"/>
<line x1="189.047" y1="230.947" x2="189.047" y2="238.94" stroke="#ECECEE" stroke-width="1.30958" stroke-linecap="round" stroke-linejoin="round"/>
<line x1="68.1124" y1="230.947" x2="68.1124" y2="238.94" stroke="#ECECEE" stroke-width="1.30958" stroke-linecap="round" stroke-linejoin="round"/>
<path d="M55.1871 248.699V252.746C55.1871 253.196 55.0483 253.558 54.7707 253.83C54.493 254.097 54.1263 254.231 53.6706 254.231C53.2096 254.231 52.8403 254.095 52.5627 253.822C52.2851 253.545 52.1462 253.167 52.1462 252.691H52.8613C52.8665 252.958 52.9346 253.175 53.0656 253.343C53.2018 253.511 53.4035 253.594 53.6706 253.594C53.9378 253.594 54.1368 253.516 54.2678 253.359C54.3987 253.196 54.4642 252.992 54.4642 252.746V248.699H55.1871ZM56.3286 252.007C56.3286 251.567 56.4176 251.182 56.5957 250.852C56.7739 250.517 57.0174 250.258 57.3265 250.074C57.6408 249.891 57.9891 249.799 58.3715 249.799C58.7487 249.799 59.0761 249.88 59.3537 250.043C59.6314 250.205 59.8383 250.409 59.9745 250.656V249.87H60.6974V254.176H59.9745V253.374C59.833 253.626 59.6209 253.835 59.338 254.003C59.0604 254.165 58.7356 254.246 58.3637 254.246C57.9813 254.246 57.6356 254.152 57.3265 253.964C57.0174 253.775 56.7739 253.511 56.5957 253.17C56.4176 252.83 56.3286 252.442 56.3286 252.007ZM59.9745 252.015C59.9745 251.69 59.909 251.407 59.778 251.166C59.6471 250.925 59.469 250.742 59.2437 250.616C59.0237 250.485 58.7801 250.42 58.513 250.42C58.2458 250.42 58.0022 250.483 57.7822 250.608C57.5622 250.734 57.3867 250.918 57.2558 251.158C57.1248 251.399 57.0593 251.682 57.0593 252.007C57.0593 252.337 57.1248 252.625 57.2558 252.871C57.3867 253.112 57.5622 253.298 57.7822 253.429C58.0022 253.555 58.2458 253.618 58.513 253.618C58.7801 253.618 59.0237 253.555 59.2437 253.429C59.469 253.298 59.6471 253.112 59.778 252.871C59.909 252.625 59.9745 252.34 59.9745 252.015ZM64.0037 249.791C64.5275 249.791 64.9518 249.951 65.2766 250.271C65.6014 250.585 65.7637 251.041 65.7637 251.638V254.176H65.0566V251.74C65.0566 251.31 64.9492 250.983 64.7344 250.758C64.5196 250.527 64.2263 250.412 63.8544 250.412C63.4772 250.412 63.176 250.53 62.9508 250.766C62.7307 251.001 62.6207 251.344 62.6207 251.795V254.176H61.9057V249.87H62.6207V250.483C62.7622 250.263 62.9534 250.092 63.1943 249.972C63.4405 249.852 63.7103 249.791 64.0037 249.791ZM70.7505 249.87V254.176H70.0355V253.539C69.8993 253.759 69.7081 253.932 69.4619 254.058C69.2209 254.178 68.9537 254.239 68.6604 254.239C68.3251 254.239 68.0239 254.171 67.7568 254.034C67.4896 253.893 67.2775 253.683 67.1203 253.406C66.9684 253.128 66.8925 252.79 66.8925 252.392V249.87H67.5996V252.298C67.5996 252.722 67.707 253.05 67.9218 253.28C68.1366 253.505 68.4299 253.618 68.8018 253.618C69.1842 253.618 69.4854 253.5 69.7054 253.264C69.9255 253.029 70.0355 252.685 70.0355 252.235V249.87H70.7505ZM71.6906 252.007C71.6906 251.567 71.7797 251.182 71.9578 250.852C72.1359 250.517 72.3795 250.258 72.6885 250.074C73.0028 249.891 73.3512 249.799 73.7336 249.799C74.1107 249.799 74.4381 249.88 74.7158 250.043C74.9934 250.205 75.2003 250.409 75.3365 250.656V249.87H76.0594V254.176H75.3365V253.374C75.1951 253.626 74.9829 253.835 74.7001 254.003C74.4224 254.165 74.0976 254.246 73.7257 254.246C73.3433 254.246 72.9976 254.152 72.6885 253.964C72.3795 253.775 72.1359 253.511 71.9578 253.17C71.7797 252.83 71.6906 252.442 71.6906 252.007ZM75.3365 252.015C75.3365 251.69 75.271 251.407 75.1401 251.166C75.0091 250.925 74.831 250.742 74.6058 250.616C74.3858 250.485 74.1422 250.42 73.875 250.42C73.6079 250.42 73.3643 250.483 73.1443 250.608C72.9243 250.734 72.7488 250.918 72.6178 251.158C72.4869 251.399 72.4214 251.682 72.4214 252.007C72.4214 252.337 72.4869 252.625 72.6178 252.871C72.7488 253.112 72.9243 253.298 73.1443 253.429C73.3643 253.555 73.6079 253.618 73.875 253.618C74.1422 253.618 74.3858 253.555 74.6058 253.429C74.831 253.298 75.0091 253.112 75.1401 252.871C75.271 252.625 75.3365 252.34 75.3365 252.015ZM77.9828 250.569C78.1085 250.323 78.2866 250.132 78.5171 249.996C78.7528 249.859 79.0383 249.791 79.3736 249.791V250.53H79.185C78.3835 250.53 77.9828 250.965 77.9828 251.834V254.176H77.2677V249.87H77.9828V250.569ZM83.9077 249.87L81.3147 256.203H80.5761L81.4247 254.129L79.6882 249.87H80.4818L81.8333 253.359L83.1691 249.87H83.9077Z" fill="#92959E"/>
<path d="M22.1732 212.868V212.216H23.6504V217.896H22.9275V212.868H22.1732ZM27.4009 217.896L25.7116 215.995V217.896H24.9965V212.082H25.7116V215.5L27.3695 213.591H28.3674L26.3402 215.736L28.3752 217.896H27.4009Z" fill="#92959E"/>
<path d="M23.1933 140.275H20.4354V142.066C20.5558 141.899 20.7339 141.762 20.9697 141.658C21.2054 141.548 21.4594 141.493 21.7318 141.493C22.1666 141.493 22.5202 141.584 22.7926 141.768C23.065 141.946 23.2588 142.179 23.3741 142.467C23.4945 142.75 23.5548 143.051 23.5548 143.371C23.5548 143.748 23.4841 144.086 23.3426 144.384C23.2012 144.683 22.9838 144.919 22.6905 145.091C22.4023 145.264 22.0435 145.351 21.614 145.351C21.064 145.351 20.6187 145.209 20.2782 144.926C19.9377 144.644 19.7308 144.266 19.6575 143.795H20.3568C20.4249 144.093 20.5689 144.327 20.7889 144.494C21.009 144.662 21.2866 144.746 21.6218 144.746C22.0357 144.746 22.3473 144.623 22.5569 144.376C22.7664 144.125 22.8712 143.795 22.8712 143.386C22.8712 142.978 22.7664 142.663 22.5569 142.443C22.3473 142.218 22.0383 142.106 21.6297 142.106C21.3521 142.106 21.1085 142.174 20.8989 142.31C20.6947 142.441 20.5454 142.622 20.4511 142.852H19.7753V139.646H23.1933V140.275ZM27.0272 145.335L25.3379 143.433V145.335H24.6229V139.52H25.3379V142.938L26.9958 141.029H27.9937L25.9665 143.174L28.0016 145.335H27.0272Z" fill="#92959E"/>
<path d="M20.4904 72.1807C20.5427 72.4793 20.6632 72.7098 20.8518 72.8722C21.0456 73.0346 21.3049 73.1158 21.6297 73.1158C22.0645 73.1158 22.384 72.9455 22.5883 72.605C22.7978 72.2645 22.8974 71.6909 22.8869 70.8842C22.7769 71.12 22.5935 71.3059 22.3369 71.4421C22.0802 71.5731 21.7947 71.6386 21.4804 71.6386C21.1294 71.6386 20.8151 71.5678 20.5375 71.4264C20.2651 71.2797 20.0503 71.0676 19.8932 70.7899C19.736 70.5123 19.6575 70.1771 19.6575 69.7842C19.6575 69.2237 19.8198 68.7732 20.1446 68.4327C20.4694 68.087 20.9304 67.9141 21.5275 67.9141C22.2609 67.9141 22.7743 68.1524 23.0676 68.6291C23.3662 69.1058 23.5155 69.8156 23.5155 70.7585C23.5155 71.4185 23.4553 71.9633 23.3348 72.3929C23.2195 72.8224 23.0205 73.1498 22.7376 73.3751C22.46 73.6003 22.0776 73.7129 21.5904 73.7129C21.0561 73.7129 20.6396 73.5689 20.3411 73.2808C20.0425 72.9927 19.8722 72.626 19.8303 72.1807H20.4904ZM21.5983 71.0335C21.9492 71.0335 22.2373 70.9261 22.4626 70.7114C22.6878 70.4914 22.8005 70.1954 22.8005 69.8235C22.8005 69.4306 22.6905 69.1137 22.4704 68.8727C22.2504 68.6317 21.9414 68.5113 21.5433 68.5113C21.1766 68.5113 20.8832 68.6265 20.6632 68.857C20.4484 69.0875 20.3411 69.3913 20.3411 69.7685C20.3411 70.1509 20.4484 70.4573 20.6632 70.6878C20.878 70.9183 21.1897 71.0335 21.5983 71.0335ZM27.0426 73.7051L25.3532 71.8036V73.7051H24.6382V67.8905H25.3532V71.3085L27.0112 69.3992H28.0091L25.9818 71.5443L28.0169 73.7051H27.0426Z" fill="#92959E"/>
<path d="M19.5553 177.364C19.592 176.882 19.7779 176.505 20.1132 176.233C20.4484 175.96 20.8832 175.824 21.4175 175.824C21.7737 175.824 22.0802 175.89 22.3369 176.021C22.5988 176.146 22.7952 176.319 22.9262 176.539C23.0624 176.759 23.1305 177.008 23.1305 177.286C23.1305 177.611 23.0362 177.891 22.8476 178.127C22.6643 178.362 22.4233 178.514 22.1247 178.582V178.622C22.4652 178.705 22.735 178.87 22.934 179.117C23.1331 179.363 23.2326 179.685 23.2326 180.083C23.2326 180.382 23.1645 180.651 23.0283 180.892C22.8921 181.128 22.6878 181.314 22.4154 181.45C22.1431 181.586 21.8157 181.655 21.4333 181.655C20.878 181.655 20.4223 181.51 20.0661 181.222C19.7098 180.929 19.5108 180.515 19.4689 179.981H20.1603C20.197 180.295 20.3253 180.552 20.5454 180.751C20.7654 180.95 21.0587 181.049 21.4254 181.049C21.7921 181.049 22.0697 180.955 22.2583 180.767C22.4521 180.573 22.549 180.324 22.549 180.02C22.549 179.627 22.4181 179.344 22.1561 179.172C21.8942 178.999 21.4987 178.912 20.9697 178.912H20.7889V178.315H20.9775C21.4594 178.31 21.8235 178.231 22.0697 178.079C22.3159 177.922 22.439 177.681 22.439 177.356C22.439 177.079 22.3473 176.856 22.164 176.689C21.9859 176.521 21.7292 176.437 21.394 176.437C21.0692 176.437 20.8073 176.521 20.6082 176.689C20.4092 176.856 20.2913 177.081 20.2546 177.364H19.5553ZM26.7203 181.615L25.031 179.714V181.615H24.3159V175.801H25.031V179.219L26.6889 177.309H27.6868L25.6596 179.454L27.6946 181.615H26.7203Z" fill="#92959E"/>
<path d="M23.0676 104.862L20.8832 109.985H20.1603L22.3762 104.933H19.3432V104.32H23.0676V104.862ZM26.3827 109.985L24.6933 108.084V109.985H23.9783V104.171H24.6933V107.589L26.3513 105.679H27.3492L25.3219 107.825L27.357 109.985H26.3827Z" fill="#92959E"/>
<path d="M305.873 248.738V254.176H305.158V250.121L303.351 254.176H302.848L301.033 250.113V254.176H300.318V248.738H301.088L303.099 253.233L305.111 248.738H305.873ZM306.819 252.007C306.819 251.567 306.908 251.182 307.086 250.852C307.264 250.517 307.507 250.258 307.817 250.074C308.131 249.891 308.479 249.799 308.862 249.799C309.239 249.799 309.566 249.88 309.844 250.043C310.121 250.205 310.328 250.409 310.465 250.656V249.87H311.187V254.176H310.465V253.374C310.323 253.626 310.111 253.835 309.828 254.003C309.55 254.165 309.226 254.246 308.854 254.246C308.471 254.246 308.126 254.152 307.817 253.964C307.507 253.775 307.264 253.511 307.086 253.17C306.908 252.83 306.819 252.442 306.819 252.007ZM310.465 252.015C310.465 251.69 310.399 251.407 310.268 251.166C310.137 250.925 309.959 250.742 309.734 250.616C309.514 250.485 309.27 250.42 309.003 250.42C308.736 250.42 308.492 250.483 308.272 250.608C308.052 250.734 307.877 250.918 307.746 251.158C307.615 251.399 307.549 251.682 307.549 252.007C307.549 252.337 307.615 252.625 307.746 252.871C307.877 253.112 308.052 253.298 308.272 253.429C308.492 253.555 308.736 253.618 309.003 253.618C309.27 253.618 309.514 253.555 309.734 253.429C309.959 253.298 310.137 253.112 310.268 252.871C310.399 252.625 310.465 252.34 310.465 252.015ZM313.111 250.569C313.237 250.323 313.415 250.132 313.645 249.996C313.881 249.859 314.166 249.791 314.502 249.791V250.53H314.313C313.512 250.53 313.111 250.965 313.111 251.834V254.176H312.396V249.87H313.111V250.569ZM315.06 252.015C315.06 251.57 315.149 251.182 315.327 250.852C315.505 250.517 315.751 250.258 316.066 250.074C316.385 249.891 316.749 249.799 317.158 249.799C317.687 249.799 318.122 249.927 318.462 250.184C318.808 250.441 319.036 250.797 319.146 251.253H318.376C318.302 250.991 318.158 250.784 317.944 250.632C317.734 250.48 317.472 250.404 317.158 250.404C316.749 250.404 316.419 250.546 316.168 250.828C315.916 251.106 315.791 251.502 315.791 252.015C315.791 252.534 315.916 252.934 316.168 253.217C316.419 253.5 316.749 253.641 317.158 253.641C317.472 253.641 317.734 253.568 317.944 253.421C318.153 253.275 318.297 253.065 318.376 252.793H319.146C319.03 253.233 318.8 253.586 318.454 253.854C318.109 254.116 317.676 254.246 317.158 254.246C316.749 254.246 316.385 254.155 316.066 253.971C315.751 253.788 315.505 253.529 315.327 253.194C315.149 252.858 315.06 252.465 315.06 252.015ZM322.237 249.791C322.562 249.791 322.855 249.862 323.117 250.003C323.379 250.14 323.583 250.347 323.73 250.624C323.882 250.902 323.958 251.24 323.958 251.638V254.176H323.251V251.74C323.251 251.31 323.143 250.983 322.929 250.758C322.714 250.527 322.42 250.412 322.048 250.412C321.671 250.412 321.37 250.53 321.145 250.766C320.925 251.001 320.815 251.344 320.815 251.795V254.176H320.1V248.361H320.815V250.483C320.956 250.263 321.15 250.092 321.396 249.972C321.648 249.852 321.928 249.791 322.237 249.791Z" fill="#92959E"/>
<path d="M175.174 248.699V249.281H172.793V251.127H174.726V251.709H172.793V254.176H172.078V248.699H175.174ZM179.966 251.858C179.966 251.994 179.958 252.138 179.943 252.29H176.501C176.527 252.714 176.671 253.047 176.933 253.288C177.2 253.524 177.523 253.641 177.9 253.641C178.209 253.641 178.465 253.571 178.67 253.429C178.879 253.283 179.026 253.089 179.11 252.848H179.88C179.765 253.262 179.534 253.6 179.188 253.861C178.843 254.118 178.413 254.246 177.9 254.246C177.491 254.246 177.124 254.155 176.8 253.971C176.48 253.788 176.229 253.529 176.045 253.194C175.862 252.853 175.77 252.46 175.77 252.015C175.77 251.57 175.859 251.179 176.037 250.844C176.216 250.509 176.464 250.252 176.784 250.074C177.109 249.891 177.481 249.799 177.9 249.799C178.308 249.799 178.67 249.888 178.984 250.066C179.298 250.244 179.539 250.491 179.707 250.805C179.88 251.114 179.966 251.465 179.966 251.858ZM179.228 251.709C179.228 251.436 179.167 251.203 179.047 251.009C178.926 250.81 178.761 250.661 178.552 250.561C178.348 250.457 178.12 250.404 177.868 250.404C177.507 250.404 177.198 250.519 176.941 250.75C176.69 250.98 176.546 251.3 176.509 251.709H179.228ZM181.625 250.671C181.772 250.415 181.986 250.205 182.269 250.043C182.552 249.88 182.874 249.799 183.236 249.799C183.623 249.799 183.972 249.891 184.281 250.074C184.59 250.258 184.834 250.517 185.012 250.852C185.19 251.182 185.279 251.567 185.279 252.007C185.279 252.442 185.19 252.83 185.012 253.17C184.834 253.511 184.587 253.775 184.273 253.964C183.964 254.152 183.618 254.246 183.236 254.246C182.864 254.246 182.537 254.165 182.254 254.003C181.976 253.841 181.766 253.634 181.625 253.382V254.176H180.91V248.361H181.625V250.671ZM184.548 252.007C184.548 251.682 184.483 251.399 184.352 251.158C184.221 250.918 184.043 250.734 183.817 250.608C183.597 250.483 183.354 250.42 183.087 250.42C182.825 250.42 182.581 250.485 182.356 250.616C182.136 250.742 181.958 250.928 181.821 251.174C181.691 251.415 181.625 251.695 181.625 252.015C181.625 252.34 181.691 252.625 181.821 252.871C181.958 253.112 182.136 253.298 182.356 253.429C182.581 253.555 182.825 253.618 183.087 253.618C183.354 253.618 183.597 253.555 183.817 253.429C184.043 253.298 184.221 253.112 184.352 252.871C184.483 252.625 184.548 252.337 184.548 252.007ZM186.935 250.569C187.061 250.323 187.239 250.132 187.469 249.996C187.705 249.859 187.991 249.791 188.326 249.791V250.53H188.137C187.336 250.53 186.935 250.965 186.935 251.834V254.176H186.22V249.87H186.935V250.569ZM192.97 249.87V254.176H192.255V253.539C192.119 253.759 191.928 253.932 191.681 254.058C191.44 254.178 191.173 254.239 190.88 254.239C190.545 254.239 190.243 254.171 189.976 254.034C189.709 253.893 189.497 253.683 189.34 253.406C189.188 253.128 189.112 252.79 189.112 252.392V249.87H189.819V252.298C189.819 252.722 189.926 253.05 190.141 253.28C190.356 253.505 190.649 253.618 191.021 253.618C191.404 253.618 191.705 253.5 191.925 253.264C192.145 253.029 192.255 252.685 192.255 252.235V249.87H192.97ZM193.91 252.007C193.91 251.567 193.999 251.182 194.177 250.852C194.355 250.517 194.599 250.258 194.908 250.074C195.222 249.891 195.571 249.799 195.953 249.799C196.33 249.799 196.658 249.88 196.935 250.043C197.213 250.205 197.42 250.409 197.556 250.656V249.87H198.279V254.176H197.556V253.374C197.415 253.626 197.202 253.835 196.919 254.003C196.642 254.165 196.317 254.246 195.945 254.246C195.563 254.246 195.217 254.152 194.908 253.964C194.599 253.775 194.355 253.511 194.177 253.17C193.999 252.83 193.91 252.442 193.91 252.007ZM197.556 252.015C197.556 251.69 197.49 251.407 197.36 251.166C197.229 250.925 197.05 250.742 196.825 250.616C196.605 250.485 196.362 250.42 196.094 250.42C195.827 250.42 195.584 250.483 195.364 250.608C195.144 250.734 194.968 250.918 194.837 251.158C194.706 251.399 194.641 251.682 194.641 252.007C194.641 252.337 194.706 252.625 194.837 252.871C194.968 253.112 195.144 253.298 195.364 253.429C195.584 253.555 195.827 253.618 196.094 253.618C196.362 253.618 196.605 253.555 196.825 253.429C197.05 253.298 197.229 253.112 197.36 252.871C197.49 252.625 197.556 252.34 197.556 252.015ZM200.202 250.569C200.328 250.323 200.506 250.132 200.737 249.996C200.972 249.859 201.258 249.791 201.593 249.791V250.53H201.404C200.603 250.53 200.202 250.965 200.202 251.834V254.176H199.487V249.87H200.202V250.569ZM206.127 249.87L203.534 256.203H202.796L203.644 254.129L201.908 249.87H202.701L204.053 253.359L205.389 249.87H206.127Z" fill="#92959E"/>
<path d="M429.122 252.958H426.733L426.293 254.176H425.539L427.519 248.731H428.344L430.316 254.176H429.562L429.122 252.958ZM428.918 252.376L427.928 249.611L426.938 252.376H428.918ZM431.894 250.663C432.036 250.417 432.245 250.213 432.523 250.051C432.806 249.883 433.133 249.799 433.505 249.799C433.888 249.799 434.233 249.891 434.542 250.074C434.857 250.258 435.103 250.517 435.281 250.852C435.459 251.182 435.548 251.567 435.548 252.007C435.548 252.442 435.459 252.83 435.281 253.17C435.103 253.511 434.857 253.775 434.542 253.964C434.233 254.152 433.888 254.246 433.505 254.246C433.139 254.246 432.814 254.165 432.531 254.003C432.253 253.835 432.041 253.628 431.894 253.382V256.219H431.179V249.87H431.894V250.663ZM434.817 252.007C434.817 251.682 434.752 251.399 434.621 251.158C434.49 250.918 434.312 250.734 434.087 250.608C433.867 250.483 433.623 250.42 433.356 250.42C433.094 250.42 432.85 250.485 432.625 250.616C432.405 250.742 432.227 250.928 432.091 251.174C431.96 251.415 431.894 251.695 431.894 252.015C431.894 252.34 431.96 252.625 432.091 252.871C432.227 253.112 432.405 253.298 432.625 253.429C432.85 253.555 433.094 253.618 433.356 253.618C433.623 253.618 433.867 253.555 434.087 253.429C434.312 253.298 434.49 253.112 434.621 252.871C434.752 252.625 434.817 252.337 434.817 252.007ZM437.204 250.569C437.33 250.323 437.508 250.132 437.739 249.996C437.974 249.859 438.26 249.791 438.595 249.791V250.53H438.407C437.605 250.53 437.204 250.965 437.204 251.834V254.176H436.489V249.87H437.204V250.569ZM439.79 249.171C439.654 249.171 439.538 249.123 439.444 249.029C439.35 248.935 439.303 248.82 439.303 248.683C439.303 248.547 439.35 248.432 439.444 248.338C439.538 248.243 439.654 248.196 439.79 248.196C439.921 248.196 440.031 248.243 440.12 248.338C440.214 248.432 440.261 248.547 440.261 248.683C440.261 248.82 440.214 248.935 440.12 249.029C440.031 249.123 439.921 249.171 439.79 249.171ZM440.136 249.87V254.176H439.421V249.87H440.136ZM442.069 248.361V254.176H441.354V248.361H442.069Z" fill="#92959E"/>
<path d="M554.684 248.738V254.176H553.969V250.121L552.161 254.176H551.659L549.843 250.113V254.176H549.128V248.738H549.899L551.91 253.233L553.922 248.738H554.684ZM555.629 252.007C555.629 251.567 555.718 251.182 555.896 250.852C556.074 250.517 556.318 250.258 556.627 250.074C556.941 249.891 557.29 249.799 557.672 249.799C558.049 249.799 558.377 249.88 558.654 250.043C558.932 250.205 559.139 250.409 559.275 250.656V249.87H559.998V254.176H559.275V253.374C559.134 253.626 558.921 253.835 558.639 254.003C558.361 254.165 558.036 254.246 557.664 254.246C557.282 254.246 556.936 254.152 556.627 253.964C556.318 253.775 556.074 253.511 555.896 253.17C555.718 252.83 555.629 252.442 555.629 252.007ZM559.275 252.015C559.275 251.69 559.21 251.407 559.079 251.166C558.948 250.925 558.77 250.742 558.544 250.616C558.324 250.485 558.081 250.42 557.814 250.42C557.546 250.42 557.303 250.483 557.083 250.608C556.863 250.734 556.687 250.918 556.556 251.158C556.425 251.399 556.36 251.682 556.36 252.007C556.36 252.337 556.425 252.625 556.556 252.871C556.687 253.112 556.863 253.298 557.083 253.429C557.303 253.555 557.546 253.618 557.814 253.618C558.081 253.618 558.324 253.555 558.544 253.429C558.77 253.298 558.948 253.112 559.079 252.871C559.21 252.625 559.275 252.34 559.275 252.015ZM564.915 249.87L562.322 256.203H561.583L562.432 254.129L560.696 249.87H561.489L562.841 253.359L564.176 249.87H564.915Z" fill="#92959E"/>
<path d="M512.124 234.943V70.2861" stroke="#ECECEE" stroke-width="0.654792"/>
<g filter="url(#filter0_d)">
<rect x="404.213" y="72.1475" width="97.6777" height="53.9553" rx="7.85751" fill="white"/>
</g>
<path d="M419.757 92.5036C419.348 92.5036 418.981 92.4325 418.655 92.2904C418.336 92.1424 418.084 91.9412 417.901 91.6866C417.717 91.4261 417.622 91.1271 417.616 90.7897H418.478C418.507 91.0798 418.626 91.3255 418.833 91.5267C419.046 91.7221 419.354 91.8198 419.757 91.8198C420.141 91.8198 420.443 91.7251 420.662 91.5356C420.887 91.3403 421 91.0916 421 90.7897C421 90.5529 420.935 90.3605 420.804 90.2125C420.674 90.0645 420.511 89.952 420.316 89.875C420.121 89.7981 419.857 89.7152 419.526 89.6264C419.117 89.5198 418.789 89.4132 418.54 89.3067C418.297 89.2001 418.087 89.0344 417.909 88.8094C417.738 88.5785 417.652 88.2707 417.652 87.8858C417.652 87.5484 417.738 87.2494 417.909 86.9889C418.081 86.7285 418.321 86.5272 418.629 86.3851C418.943 86.243 419.301 86.172 419.703 86.172C420.283 86.172 420.757 86.317 421.124 86.6071C421.497 86.8972 421.707 87.282 421.755 87.7615H420.867C420.837 87.5247 420.713 87.3175 420.494 87.1399C420.275 86.9564 419.984 86.8646 419.623 86.8646C419.286 86.8646 419.011 86.9534 418.797 87.131C418.584 87.3027 418.478 87.5454 418.478 87.8592C418.478 88.0842 418.54 88.2677 418.664 88.4098C418.795 88.5519 418.951 88.6614 419.135 88.7383C419.324 88.8094 419.588 88.8923 419.925 88.987C420.334 89.0995 420.662 89.212 420.911 89.3244C421.16 89.431 421.373 89.5997 421.55 89.8306C421.728 90.0556 421.817 90.3634 421.817 90.7542C421.817 91.0561 421.737 91.3403 421.577 91.6067C421.417 91.8731 421.18 92.0892 420.867 92.2549C420.553 92.4207 420.183 92.5036 419.757 92.5036ZM423.992 88.2411V91.1094C423.992 91.3462 424.042 91.5149 424.143 91.6155C424.243 91.7103 424.418 91.7576 424.667 91.7576H425.262V92.4414H424.533C424.083 92.4414 423.746 92.3378 423.521 92.1306C423.296 91.9234 423.184 91.583 423.184 91.1094V88.2411H422.553V87.575H423.184V86.3496H423.992V87.575H425.262V88.2411H423.992ZM425.939 89.9905C425.939 89.4932 426.039 89.058 426.241 88.6851C426.442 88.3062 426.717 88.0131 427.066 87.8059C427.422 87.5987 427.815 87.4951 428.248 87.4951C428.674 87.4951 429.044 87.5869 429.358 87.7704C429.671 87.9539 429.905 88.1848 430.059 88.4631V87.575H430.876V92.4414H430.059V91.5356C429.899 91.8198 429.66 92.0566 429.34 92.246C429.026 92.4296 428.659 92.5213 428.239 92.5213C427.807 92.5213 427.416 92.4148 427.066 92.2016C426.717 91.9885 426.442 91.6895 426.241 91.3047C426.039 90.9199 425.939 90.4818 425.939 89.9905ZM430.059 89.9993C430.059 89.6323 429.985 89.3126 429.837 89.0403C429.689 88.768 429.488 88.5607 429.233 88.4187C428.985 88.2707 428.709 88.1967 428.407 88.1967C428.105 88.1967 427.83 88.2677 427.582 88.4098C427.333 88.5519 427.135 88.7591 426.987 89.0314C426.839 89.3037 426.765 89.6234 426.765 89.9905C426.765 90.3634 426.839 90.689 426.987 90.9673C427.135 91.2396 427.333 91.4498 427.582 91.5978C427.83 91.7399 428.105 91.8109 428.407 91.8109C428.709 91.8109 428.985 91.7399 429.233 91.5978C429.488 91.4498 429.689 91.2396 429.837 90.9673C429.985 90.689 430.059 90.3664 430.059 89.9993ZM433.05 88.3654C433.192 88.0871 433.393 87.871 433.654 87.7171C433.92 87.5632 434.243 87.4862 434.622 87.4862V88.321H434.409C433.503 88.321 433.05 88.8124 433.05 89.7951V92.4414H432.242V87.575H433.05V88.3654ZM436.54 88.2411V91.1094C436.54 91.3462 436.59 91.5149 436.691 91.6155C436.792 91.7103 436.966 91.7576 437.215 91.7576H437.81V92.4414H437.082C436.632 92.4414 436.294 92.3378 436.07 92.1306C435.845 91.9234 435.732 91.583 435.732 91.1094V88.2411H435.102V87.575H435.732V86.3496H436.54V87.575H437.81V88.2411H436.54ZM443.105 87.575V92.4414H442.297V91.7221C442.143 91.9708 441.927 92.1661 441.649 92.3082C441.376 92.4444 441.074 92.5124 440.743 92.5124C440.364 92.5124 440.024 92.4355 439.722 92.2816C439.42 92.1217 439.18 91.8849 439.002 91.5711C438.831 91.2574 438.745 90.8755 438.745 90.4256V87.575H439.544V90.319C439.544 90.7986 439.665 91.1686 439.908 91.4291C440.151 91.6836 440.482 91.8109 440.903 91.8109C441.335 91.8109 441.675 91.6777 441.924 91.4113C442.173 91.1449 442.297 90.7571 442.297 90.248V87.575H443.105ZM445.277 88.4719C445.437 88.1937 445.674 87.9628 445.988 87.7793C446.308 87.5898 446.678 87.4951 447.098 87.4951C447.53 87.4951 447.921 87.5987 448.27 87.8059C448.625 88.0131 448.904 88.3062 449.105 88.6851C449.306 89.058 449.407 89.4932 449.407 89.9905C449.407 90.4818 449.306 90.9199 449.105 91.3047C448.904 91.6895 448.625 91.9885 448.27 92.2016C447.921 92.4148 447.53 92.5213 447.098 92.5213C446.684 92.5213 446.316 92.4296 445.997 92.246C445.683 92.0566 445.443 91.8228 445.277 91.5445V94.7503H444.469V87.575H445.277V88.4719ZM448.581 89.9905C448.581 89.6234 448.507 89.3037 448.359 89.0314C448.211 88.7591 448.01 88.5519 447.755 88.4098C447.506 88.2677 447.231 88.1967 446.929 88.1967C446.633 88.1967 446.358 88.2707 446.103 88.4187C445.855 88.5607 445.653 88.7709 445.499 89.0492C445.351 89.3215 445.277 89.6382 445.277 89.9993C445.277 90.3664 445.351 90.689 445.499 90.9673C445.653 91.2396 445.855 91.4498 446.103 91.5978C446.358 91.7399 446.633 91.8109 446.929 91.8109C447.231 91.8109 447.506 91.7399 447.755 91.5978C448.01 91.4498 448.211 91.2396 448.359 90.9673C448.507 90.689 448.581 90.3634 448.581 89.9905ZM452.193 92.5213C451.82 92.5213 451.486 92.4592 451.19 92.3348C450.894 92.2046 450.66 92.027 450.488 91.802C450.317 91.5711 450.222 91.3077 450.204 91.0117H451.039C451.063 91.2544 451.175 91.4527 451.376 91.6067C451.583 91.7606 451.853 91.8376 452.184 91.8376C452.492 91.8376 452.735 91.7695 452.913 91.6333C453.09 91.4971 453.179 91.3255 453.179 91.1183C453.179 90.9051 453.084 90.7482 452.895 90.6476C452.705 90.541 452.412 90.4374 452.016 90.3368C451.655 90.2421 451.359 90.1473 451.128 90.0526C450.903 89.952 450.707 89.8069 450.542 89.6175C450.382 89.4221 450.302 89.1676 450.302 88.8538C450.302 88.6051 450.376 88.3772 450.524 88.17C450.672 87.9628 450.882 87.8 451.154 87.6816C451.427 87.5573 451.737 87.4951 452.087 87.4951C452.625 87.4951 453.061 87.6313 453.392 87.9036C453.724 88.1759 453.901 88.5489 453.925 89.0225H453.117C453.099 88.768 452.995 88.5637 452.806 88.4098C452.622 88.2559 452.374 88.1789 452.06 88.1789C451.77 88.1789 451.539 88.2411 451.367 88.3654C451.196 88.4897 451.11 88.6525 451.11 88.8538C451.11 89.0136 451.16 89.1468 451.261 89.2534C451.367 89.354 451.498 89.4369 451.652 89.502C451.811 89.5613 452.03 89.6293 452.309 89.7063C452.658 89.801 452.942 89.8957 453.161 89.9905C453.38 90.0793 453.567 90.2154 453.721 90.399C453.88 90.5825 453.963 90.8222 453.969 91.1183C453.969 91.3847 453.895 91.6244 453.747 91.8376C453.599 92.0507 453.389 92.2194 453.117 92.3437C452.85 92.4621 452.543 92.5213 452.193 92.5213ZM461.136 91.065H458.437L457.939 92.4414H457.087L459.325 86.2874H460.257L462.486 92.4414H461.633L461.136 91.065ZM460.905 90.4078L459.786 87.282L458.667 90.4078H460.905ZM463.159 89.9993C463.159 89.4961 463.26 89.058 463.461 88.6851C463.663 88.3062 463.941 88.0131 464.296 87.8059C464.657 87.5987 465.069 87.4951 465.53 87.4951C466.128 87.4951 466.62 87.6402 467.005 87.9302C467.395 88.2203 467.653 88.6229 467.777 89.138H466.907C466.824 88.842 466.661 88.6081 466.418 88.4364C466.182 88.2647 465.886 88.1789 465.53 88.1789C465.069 88.1789 464.696 88.3387 464.411 88.6584C464.127 88.9722 463.985 89.4192 463.985 89.9993C463.985 90.5854 464.127 91.0383 464.411 91.358C464.696 91.6777 465.069 91.8376 465.53 91.8376C465.886 91.8376 466.182 91.7547 466.418 91.5889C466.655 91.4231 466.818 91.1863 466.907 90.8785H467.777C467.647 91.3758 467.386 91.7754 466.996 92.0773C466.605 92.3733 466.116 92.5213 465.53 92.5213C465.069 92.5213 464.657 92.4177 464.296 92.2105C463.941 92.0033 463.663 91.7103 463.461 91.3314C463.26 90.9525 463.159 90.5085 463.159 89.9993ZM469.841 88.2411V91.1094C469.841 91.3462 469.891 91.5149 469.992 91.6155C470.093 91.7103 470.267 91.7576 470.516 91.7576H471.111V92.4414H470.383C469.933 92.4414 469.595 92.3378 469.37 92.1306C469.145 91.9234 469.033 91.583 469.033 91.1094V88.2411H468.402V87.575H469.033V86.3496H469.841V87.575H471.111V88.2411H469.841ZM472.507 86.7847C472.353 86.7847 472.223 86.7314 472.117 86.6249C472.01 86.5183 471.957 86.388 471.957 86.2341C471.957 86.0802 472.01 85.95 472.117 85.8434C472.223 85.7368 472.353 85.6836 472.507 85.6836C472.655 85.6836 472.78 85.7368 472.88 85.8434C472.987 85.95 473.04 86.0802 473.04 86.2341C473.04 86.388 472.987 86.5183 472.88 86.6249C472.78 86.7314 472.655 86.7847 472.507 86.7847ZM472.898 87.575V92.4414H472.09V87.575H472.898ZM476.087 91.6955L477.597 87.575H478.458L476.549 92.4414H475.607L473.698 87.575H474.568L476.087 91.6955ZM479.671 86.7847C479.517 86.7847 479.386 86.7314 479.28 86.6249C479.173 86.5183 479.12 86.388 479.12 86.2341C479.12 86.0802 479.173 85.95 479.28 85.8434C479.386 85.7368 479.517 85.6836 479.671 85.6836C479.819 85.6836 479.943 85.7368 480.044 85.8434C480.15 85.95 480.203 86.0802 480.203 86.2341C480.203 86.388 480.15 86.5183 480.044 86.6249C479.943 86.7314 479.819 86.7847 479.671 86.7847ZM480.061 87.575V92.4414H479.253V87.575H480.061ZM482.424 88.2411V91.1094C482.424 91.3462 482.475 91.5149 482.575 91.6155C482.676 91.7103 482.851 91.7576 483.099 91.7576H483.694V92.4414H482.966C482.516 92.4414 482.179 92.3378 481.954 92.1306C481.729 91.9234 481.616 91.583 481.616 91.1094V88.2411H480.986V87.575H481.616V86.3496H482.424V87.575H483.694V88.2411H482.424ZM488.865 87.575L485.934 94.7325H485.1L486.059 92.3881L484.096 87.575H484.993L486.52 91.5179L488.03 87.575H488.865Z" fill="#92959E"/>
<path d="M443.266 105.587L439.625 114.126H438.42L442.113 105.705H437.058V104.684H443.266V105.587ZM450.624 105.692H446.028V108.678C446.228 108.399 446.525 108.172 446.918 107.997C447.311 107.814 447.734 107.722 448.188 107.722C448.913 107.722 449.502 107.875 449.956 108.18C450.41 108.477 450.733 108.866 450.925 109.346C451.126 109.817 451.227 110.319 451.227 110.852C451.227 111.481 451.109 112.044 450.873 112.541C450.637 113.039 450.275 113.432 449.786 113.72C449.306 114.008 448.708 114.152 447.992 114.152C447.075 114.152 446.333 113.916 445.766 113.445C445.198 112.974 444.853 112.345 444.731 111.559H445.897C446.01 112.057 446.25 112.445 446.617 112.725C446.984 113.004 447.446 113.144 448.005 113.144C448.695 113.144 449.214 112.939 449.563 112.528C449.913 112.109 450.087 111.559 450.087 110.878C450.087 110.197 449.913 109.673 449.563 109.307C449.214 108.931 448.699 108.744 448.018 108.744C447.555 108.744 447.149 108.857 446.8 109.084C446.46 109.302 446.211 109.604 446.054 109.988H444.928V104.645H450.624V105.692ZM452.522 112.018V111.114L457.119 104.749H458.546V110.983H459.856V112.018H458.546V114.126H457.368V112.018H452.522ZM457.42 105.993L453.897 110.983H457.42V105.993ZM466.324 106.91C466.132 105.941 465.534 105.457 464.53 105.457C463.753 105.457 463.172 105.758 462.788 106.36C462.404 106.954 462.216 107.936 462.225 109.307C462.426 108.853 462.758 108.499 463.22 108.246C463.692 107.984 464.216 107.853 464.792 107.853C465.691 107.853 466.407 108.132 466.939 108.691C467.481 109.25 467.751 110.023 467.751 111.009C467.751 111.603 467.634 112.135 467.398 112.607C467.171 113.078 466.822 113.454 466.35 113.733C465.887 114.012 465.324 114.152 464.661 114.152C463.762 114.152 463.059 113.951 462.552 113.55C462.046 113.148 461.692 112.594 461.492 111.887C461.291 111.179 461.19 110.306 461.19 109.267C461.19 106.063 462.308 104.461 464.543 104.461C465.399 104.461 466.071 104.693 466.56 105.155C467.049 105.618 467.337 106.203 467.424 106.91H466.324ZM464.543 108.861C464.168 108.861 463.814 108.94 463.482 109.097C463.15 109.246 462.88 109.477 462.67 109.791C462.469 110.097 462.369 110.472 462.369 110.917C462.369 111.581 462.561 112.122 462.945 112.541C463.329 112.952 463.879 113.157 464.595 113.157C465.206 113.157 465.691 112.969 466.049 112.594C466.416 112.21 466.599 111.695 466.599 111.048C466.599 110.367 466.424 109.835 466.075 109.451C465.726 109.058 465.215 108.861 464.543 108.861Z" fill="#15192C"/>
<defs>
<filter id="filter0_d" x="385.879" y="65.5995" width="134.346" height="90.6237" filterUnits="userSpaceOnUse" color-interpolation-filters="sRGB">
<feFlood flood-opacity="0" result="BackgroundImageFix"/>
<feColorMatrix in="SourceAlpha" type="matrix" values="0 0 0 0 0 0 0 0 0 0 0 0 0 0 0 0 0 0 127 0" result="hardAlpha"/>
<feMorphology radius="2.61917" operator="erode" in="SourceAlpha" result="effect1_dropShadow"/>
<feOffset dy="11.7863"/>
<feGaussianBlur stdDeviation="10.4767"/>
<feColorMatrix type="matrix" values="0 0 0 0 0.815686 0 0 0 0 0.823529 0 0 0 0 0.854902 0 0 0 0.15 0"/>
<feBlend mode="normal" in2="BackgroundImageFix" result="effect1_dropShadow"/>
<feBlend mode="normal" in="SourceGraphic" in2="effect1_dropShadow" result="shape"/>
</filter>
<linearGradient id="paint0_linear" x1="384.502" y1="18.2906" x2="384.502" y2="247.715" gradientUnits="userSpaceOnUse">
<stop stop-color="#EAFFF0"/>
<stop offset="1" stop-color="#F3FFF6"/>
</linearGradient>
</defs>
</svg>
