<svg width="404" height="91" viewBox="0 0 404 91" fill="none" xmlns="http://www.w3.org/2000/svg">
<path d="M8.64348 65.4974C8.64348 86.9096 26.2991 89.5391 35.1896 89.5391C38.0696 89.5391 40.073 89.1635 40.073 89.1635V75.2644C40.073 75.2644 38.9461 75.5148 37.193 75.5148C32.8104 75.5148 24.5461 74.0122 24.5461 63.4939V37.6991H39.0713V25.0522H24.5461V7.64696H9.01913V25.0522H0.379131V37.6991H8.64348V65.4974ZM54.7382 88.9131H70.5155V63.6191C70.5155 59.8626 71.0164 56.3565 71.8929 53.2261C74.7729 43.7096 82.5364 39.8278 89.2982 39.8278C91.5521 39.8278 93.1799 40.0783 93.1799 40.0783V24.4261C93.1799 24.4261 91.6773 24.1757 90.2999 24.1757C80.5329 24.1757 72.8947 31.4383 70.0147 40.5791H69.7642C69.7642 40.5791 70.0147 38.9513 70.0147 36.5722V32.8157C70.0147 27.4313 67.1347 25.0522 61.4999 25.0522H46.9747V38.5757H51.9834C53.7364 38.5757 54.7382 39.4522 54.7382 41.3304V88.9131ZM96.2898 70.5061C96.2898 83.2783 106.683 90.4157 118.078 90.4157C132.478 90.4157 137.361 79.1461 137.361 79.1461H137.612C137.612 79.1461 137.486 80.2731 137.486 81.9009C137.486 85.6574 139.74 88.9131 145.625 88.9131H159.9V75.5148H154.892C153.138 75.5148 152.137 74.5131 152.137 72.76V48.9687C152.137 34.6939 145.876 23.5496 124.589 23.5496C117.952 23.5496 101.173 24.8017 101.173 36.6974V43.4591H115.949V40.0783C115.949 36.5722 121.584 35.8209 124.464 35.8209C132.603 35.8209 136.234 39.2017 136.234 48.3426V48.8435H134.231C123.838 48.8435 96.2898 50.4713 96.2898 70.5061ZM112.318 69.7548C112.318 60.8644 125.465 59.7374 133.73 59.7374H136.485V61.24C136.485 69.0035 130.474 78.0191 121.959 78.0191C115.448 78.0191 112.318 74.0122 112.318 69.7548ZM172.118 88.9131H188.02V60.9896H191.526C193.53 60.9896 196.159 61.1148 197.412 63.3687L208.055 83.4035C210.559 88.0365 212.688 88.9131 218.072 88.9131H229.843V75.5148H225.586C222.58 75.5148 221.328 75.0139 220.326 73.1357L213.064 59.3617C210.81 55.2296 208.556 54.3531 208.556 54.3531V54.1026C208.556 54.1026 210.559 53.1009 213.314 49.0939L229.467 25.0522H211.812L198.789 45.2122C197.412 47.2157 194.782 47.5913 192.779 47.5913H188.02V7.27131C188.02 1.38609 185.391 0.00870235 179.506 0.00870235H164.354V13.5322H169.363C171.116 13.5322 172.118 14.4087 172.118 16.287V88.9131ZM242.081 65.4974C242.081 86.9096 259.737 89.5391 268.627 89.5391C271.507 89.5391 273.511 89.1635 273.511 89.1635V75.2644C273.511 75.2644 272.384 75.5148 270.631 75.5148C266.248 75.5148 257.984 74.0122 257.984 63.4939V37.6991H272.509V25.0522H257.984V7.64696H242.457V25.0522H233.817V37.6991H242.081V65.4974ZM280.811 56.9826C280.811 76.6418 296.338 90.4157 315.747 90.4157C335.281 90.4157 350.808 76.6418 350.808 56.9826C350.808 37.4487 335.281 23.5496 315.747 23.5496C296.338 23.5496 280.811 37.4487 280.811 56.9826ZM296.839 56.9826C296.839 45.2122 305.479 37.0731 315.747 37.0731C326.14 37.0731 334.78 45.2122 334.78 56.9826C334.78 68.8783 326.14 76.8922 315.747 76.8922C305.479 76.8922 296.839 68.8783 296.839 56.9826ZM365.214 88.9131H380.991V63.6191C380.991 59.8626 381.492 56.3565 382.368 53.2261C385.248 43.7096 393.012 39.8278 399.774 39.8278C402.028 39.8278 403.655 40.0783 403.655 40.0783V24.4261C403.655 24.4261 402.153 24.1757 400.775 24.1757C391.008 24.1757 383.37 31.4383 380.49 40.5791H380.24C380.24 40.5791 380.49 38.9513 380.49 36.5722V32.8157C380.49 27.4313 377.61 25.0522 371.975 25.0522H357.45V38.5757H362.459C364.212 38.5757 365.214 39.4522 365.214 41.3304V88.9131Z" fill="#3AA959"/>
</svg>
