<svg width="252" height="272" viewBox="0 0 252 272" fill="none" xmlns="http://www.w3.org/2000/svg">
<rect x="0.380576" y="0.380576" width="251.239" height="271.239" rx="3.42519" fill="white" stroke="#E5E5E5" stroke-width="0.761153"/>
<path d="M22.7494 26.9385L19.7779 18.4379H18.4748L15.5032 26.9385H16.5384L17.3909 24.4297H20.8252L21.6777 26.9385H22.7494ZM20.5695 23.5285H17.6345L19.0715 19.3878H19.1324L20.5695 23.5285ZM26.6781 26.9385L28.8946 20.6544H27.9568L26.8364 23.7721L26.1544 25.9155H26.0935L25.4116 23.7721L24.3155 20.6544H23.3412L25.5455 26.9385H26.6781ZM32.7536 27.0846C33.9349 27.0846 34.8361 26.5001 35.238 25.6476L34.5439 25.1482C34.215 25.8424 33.6061 26.2321 32.8145 26.2321C31.6454 26.2321 30.9512 25.4162 30.9512 24.3323V24.04H35.4694V23.5772C35.4694 21.7992 34.4343 20.5083 32.7536 20.5083C31.0487 20.5083 29.9282 21.7992 29.9282 23.7964C29.9282 25.7937 31.0487 27.0846 32.7536 27.0846ZM32.7536 21.3242C33.7523 21.3242 34.4221 22.0671 34.4221 23.1753V23.3093H30.9512V23.2241C30.9512 22.128 31.6941 21.3242 32.7536 21.3242ZM38.3841 26.9385V22.676C38.3841 22.0793 39.0173 21.6287 40.0647 21.6287H40.6371V20.6544H40.2595C39.2366 20.6544 38.6642 21.2146 38.445 21.8114H38.3841V20.6544H37.4098V26.9385H38.3841ZM47.2838 26.9385V26.086H46.5653V22.6273C46.5653 21.2999 45.6641 20.5083 44.154 20.5083C43.0214 20.5083 42.2663 21.0685 41.9253 21.7383L42.5099 22.2863C42.8509 21.7139 43.3502 21.3486 44.1053 21.3486C45.1039 21.3486 45.591 21.8357 45.591 22.7247V23.3458H44.3488C42.5221 23.3458 41.6696 24.0035 41.6696 25.1848C41.6696 26.3539 42.449 27.0846 43.7765 27.0846C44.6533 27.0846 45.3231 26.6827 45.591 25.9155H45.6519C45.725 26.5001 46.0173 26.9385 46.7358 26.9385H47.2838ZM43.9348 26.2565C43.1797 26.2565 42.6926 25.9033 42.6926 25.2822V25.0265C42.6926 24.4175 43.1919 24.0765 44.3001 24.0765H45.591V25.1117C45.591 25.7572 44.8969 26.2565 43.9348 26.2565ZM54.3069 27.6326C54.3069 26.5975 53.6371 25.9642 52.0782 25.9642H50.7386C50.1662 25.9642 49.7765 25.8668 49.7765 25.4892C49.7765 25.0995 50.1906 24.8925 50.6047 24.7829C50.7873 24.8194 51.0065 24.8438 51.2136 24.8438C52.6506 24.8438 53.5884 23.9548 53.5884 22.676C53.5884 22.0062 53.3204 21.446 52.8698 21.0563V20.6544H54.0633V19.8019H53.1256C52.6019 19.8019 52.3949 20.1551 52.3949 20.6422V20.7518C52.0539 20.5935 51.652 20.5083 51.2014 20.5083C49.7765 20.5083 48.8388 21.3973 48.8388 22.676C48.8388 23.5529 49.2772 24.247 50.0201 24.6002V24.6489C49.3868 24.8072 48.9362 25.1117 48.9362 25.745C48.9362 26.1712 49.1432 26.4513 49.4964 26.6218V26.7558C48.8753 26.9263 48.4978 27.2917 48.4978 27.9736C48.4978 28.9601 49.3016 29.5203 51.2623 29.5203C53.2839 29.5203 54.3069 28.9236 54.3069 27.6326ZM53.3935 27.7057C53.3935 28.3877 52.7602 28.7287 51.6764 28.7287H50.7752C49.7887 28.7287 49.4112 28.2781 49.4112 27.7301C49.4112 27.3404 49.5938 27.0603 49.9957 26.8776H52.0904C53.0647 26.8776 53.3935 27.2064 53.3935 27.7057ZM51.2136 24.0644C50.3854 24.0644 49.8618 23.6747 49.8618 22.8465V22.5055C49.8618 21.6774 50.3854 21.2877 51.2136 21.2877C52.0417 21.2877 52.5654 21.6774 52.5654 22.5055V22.8465C52.5654 23.6747 52.0417 24.0644 51.2136 24.0644ZM58.0696 27.0846C59.2509 27.0846 60.1521 26.5001 60.554 25.6476L59.8598 25.1482C59.531 25.8424 58.9221 26.2321 58.1305 26.2321C56.9613 26.2321 56.2672 25.4162 56.2672 24.3323V24.04H60.7854V23.5772C60.7854 21.7992 59.7502 20.5083 58.0696 20.5083C56.3646 20.5083 55.2442 21.7992 55.2442 23.7964C55.2442 25.7937 56.3646 27.0846 58.0696 27.0846ZM58.0696 21.3242C59.0682 21.3242 59.738 22.0671 59.738 23.1753V23.3093H56.2672V23.2241C56.2672 22.128 57.01 21.3242 58.0696 21.3242ZM68.4597 26.9385L70.6762 20.6544H69.7384L68.618 23.7721L67.936 25.9155H67.8751L67.1931 23.7721L66.0971 20.6544H65.1228L67.3271 26.9385H68.4597ZM74.1554 27.0846C75.5924 27.0846 76.4815 26.3417 76.4815 25.1239C76.4815 24.174 75.9456 23.565 74.5573 23.358L74.0701 23.2849C73.2907 23.1632 72.8645 22.9196 72.8645 22.3107C72.8645 21.7139 73.2907 21.3364 74.0945 21.3364C74.8983 21.3364 75.4341 21.7139 75.7142 22.1036L76.3597 21.5191C75.8482 20.8858 75.1784 20.5083 74.1676 20.5083C72.8888 20.5083 71.9267 21.1172 71.9267 22.3594C71.9267 23.5285 72.7914 24.0035 73.9484 24.174L74.4477 24.247C75.2758 24.3688 75.5437 24.7464 75.5437 25.2335C75.5437 25.879 75.0566 26.2565 74.2285 26.2565C73.4369 26.2565 72.8523 25.9033 72.3652 25.2944L71.671 25.8546C72.2312 26.5975 72.9984 27.0846 74.1554 27.0846ZM82.8707 26.9385V23.0901H86.5607V22.1889H82.8707V19.3391H86.9139V18.4379H81.8477V26.9385H82.8707ZM92.4515 26.9385H93.4258V20.6544H92.4515V25.0021C92.4515 25.8302 91.6964 26.2078 90.9292 26.2078C89.9915 26.2078 89.4921 25.6354 89.4921 24.515V20.6544H88.5179V24.6855C88.5179 26.2078 89.346 27.0846 90.6369 27.0846C91.6843 27.0846 92.1592 26.5122 92.4028 25.9155H92.4515V26.9385ZM96.8097 26.9385V22.5786C96.8097 21.7748 97.5647 21.3851 98.3442 21.3851C99.2819 21.3851 99.769 21.9575 99.769 23.0779V26.9385H100.743V22.9074C100.743 21.3851 99.9273 20.5083 98.6364 20.5083C97.6987 20.5083 97.1628 20.971 96.8584 21.6774H96.8097V20.6544H95.8354V26.9385H96.8097ZM107.111 26.9385H108.085V17.9264H107.111V21.6774H107.062C106.733 20.8858 106.088 20.5083 105.223 20.5083C103.652 20.5083 102.666 21.787 102.666 23.7964C102.666 25.8059 103.652 27.0846 105.223 27.0846C106.088 27.0846 106.685 26.6949 107.062 25.9155H107.111V26.9385ZM105.491 26.2078C104.395 26.2078 103.713 25.4527 103.713 24.3323V23.2606C103.713 22.1402 104.395 21.3851 105.491 21.3851C106.38 21.3851 107.111 21.8966 107.111 22.5908V24.929C107.111 25.745 106.38 26.2078 105.491 26.2078ZM110.979 19.1808C111.393 19.1808 111.575 18.9616 111.575 18.6328V18.4745C111.575 18.1456 111.393 17.9264 110.979 17.9264C110.564 17.9264 110.382 18.1456 110.382 18.4745V18.6328C110.382 18.9616 110.564 19.1808 110.979 19.1808ZM110.491 26.9385H111.466V20.6544H110.491V26.9385ZM114.845 26.9385V22.5786C114.845 21.7748 115.6 21.3851 116.38 21.3851C117.317 21.3851 117.805 21.9575 117.805 23.0779V26.9385H118.779V22.9074C118.779 21.3851 117.963 20.5083 116.672 20.5083C115.734 20.5083 115.198 20.971 114.894 21.6774H114.845V20.6544H113.871V26.9385H114.845ZM126.425 27.6326C126.425 26.5975 125.755 25.9642 124.197 25.9642H122.857C122.284 25.9642 121.895 25.8668 121.895 25.4892C121.895 25.0995 122.309 24.8925 122.723 24.7829C122.906 24.8194 123.125 24.8438 123.332 24.8438C124.769 24.8438 125.707 23.9548 125.707 22.676C125.707 22.0062 125.439 21.446 124.988 21.0563V20.6544H126.182V19.8019H125.244C124.72 19.8019 124.513 20.1551 124.513 20.6422V20.7518C124.172 20.5935 123.77 20.5083 123.32 20.5083C121.895 20.5083 120.957 21.3973 120.957 22.676C120.957 23.5529 121.395 24.247 122.138 24.6002V24.6489C121.505 24.8072 121.054 25.1117 121.054 25.745C121.054 26.1712 121.261 26.4513 121.615 26.6218V26.7558C120.994 26.9263 120.616 27.2917 120.616 27.9736C120.616 28.9601 121.42 29.5203 123.381 29.5203C125.402 29.5203 126.425 28.9236 126.425 27.6326ZM125.512 27.7057C125.512 28.3877 124.878 28.7287 123.795 28.7287H122.893C121.907 28.7287 121.529 28.2781 121.529 27.7301C121.529 27.3404 121.712 27.0603 122.114 26.8776H124.209C125.183 26.8776 125.512 27.2064 125.512 27.7057ZM123.332 24.0644C122.504 24.0644 121.98 23.6747 121.98 22.8465V22.5055C121.98 21.6774 122.504 21.2877 123.332 21.2877C124.16 21.2877 124.684 21.6774 124.684 22.5055V22.8465C124.684 23.6747 124.16 24.0644 123.332 24.0644ZM131.597 19.1808C132.011 19.1808 132.193 18.9616 132.193 18.6328V18.4745C132.193 18.1456 132.011 17.9264 131.597 17.9264C131.183 17.9264 131 18.1456 131 18.4745V18.6328C131 18.9616 131.183 19.1808 131.597 19.1808ZM131.11 26.9385H132.084V20.6544H131.11V26.9385ZM135.463 26.9385V22.5786C135.463 21.7748 136.218 21.3851 136.998 21.3851C137.936 21.3851 138.423 21.9575 138.423 23.0779V26.9385H139.397V22.9074C139.397 21.3851 138.581 20.5083 137.29 20.5083C136.352 20.5083 135.817 20.971 135.512 21.6774H135.463V20.6544H134.489V26.9385H135.463ZM150.415 26.0373H145.945L148.235 23.9791C149.319 23.0048 150.098 22.0793 150.098 20.764C150.098 19.3148 149.148 18.2918 147.492 18.2918C145.848 18.2918 145.093 19.2904 144.764 20.289L145.677 20.6422C145.909 19.8384 146.396 19.2052 147.443 19.2052C148.491 19.2052 149.014 19.8506 149.014 20.7884V20.9345C149.014 21.7505 148.405 22.603 147.614 23.3337L144.837 25.8911V26.9385H150.415V26.0373ZM155.214 27.0846C157.248 27.0846 158.137 25.4649 158.137 22.6882C158.137 19.9115 157.248 18.2918 155.214 18.2918C153.181 18.2918 152.292 19.9115 152.292 22.6882C152.292 25.4649 153.181 27.0846 155.214 27.0846ZM155.214 26.1956C153.887 26.1956 153.363 25.0265 153.363 23.3824V21.994C153.363 20.3499 153.887 19.1808 155.214 19.1808C156.542 19.1808 157.065 20.3499 157.065 21.994V23.3824C157.065 25.0265 156.542 26.1956 155.214 26.1956ZM165.689 26.0373H161.22L163.509 23.9791C164.593 23.0048 165.372 22.0793 165.372 20.764C165.372 19.3148 164.423 18.2918 162.766 18.2918C161.122 18.2918 160.367 19.2904 160.038 20.289L160.952 20.6422C161.183 19.8384 161.67 19.2052 162.718 19.2052C163.765 19.2052 164.289 19.8506 164.289 20.7884V20.9345C164.289 21.7505 163.68 22.603 162.888 23.3337L160.111 25.8911V26.9385H165.689V26.0373ZM173.497 26.9385V26.0373H171.305V18.4379H169.709L167.456 20.5448L168.053 21.1903L170.196 19.193H170.282V26.0373H167.907V26.9385H173.497Z" fill="#263238"/>
<path fill-rule="evenodd" clip-rule="evenodd" d="M79.0708 90.0693C91.1212 78.019 107.769 70.5657 126.157 70.5657V55.9989C103.809 55.9989 83.5765 65.2432 68.9312 79.9297L79.0708 90.0693Z" fill="#C49814"/>
<path fill-rule="evenodd" clip-rule="evenodd" d="M59.5669 137.156H45.0003C45.0003 114.808 54.2447 94.576 68.9311 79.9307L79.0708 90.0704C67.0204 102.121 59.567 118.768 59.5669 137.156Z" fill="#C49814"/>
<path fill-rule="evenodd" clip-rule="evenodd" d="M59.5669 137.155H45.0003C45.0003 159.503 54.2447 179.735 68.9311 194.381L79.0708 184.241C67.0204 172.191 59.567 155.543 59.5669 137.155Z" fill="#C49814"/>
<path fill-rule="evenodd" clip-rule="evenodd" d="M79.0708 184.242C91.1212 196.293 107.769 203.746 126.157 203.746V218.313C103.809 218.313 83.5765 209.068 68.9312 194.382L79.0708 184.242Z" fill="#C49814"/>
<path fill-rule="evenodd" clip-rule="evenodd" d="M173.243 184.242C161.192 196.293 144.545 203.746 126.157 203.746V218.313C148.505 218.313 168.737 209.068 183.382 194.382L173.243 184.242Z" fill="#C49814"/>
<path fill-rule="evenodd" clip-rule="evenodd" d="M192.747 137.155H207.313C207.313 159.503 198.069 179.735 183.382 194.381L173.243 184.241C185.293 172.191 192.747 155.543 192.747 137.155Z" fill="#F2C94C"/>
<path fill-rule="evenodd" clip-rule="evenodd" d="M192.747 137.156H207.313C207.313 114.808 198.069 94.576 183.382 79.9307L173.243 90.0703C185.293 102.121 192.747 118.768 192.747 137.156Z" fill="#F2C94C"/>
<path fill-rule="evenodd" clip-rule="evenodd" d="M173.243 90.0693C161.192 78.019 144.545 70.5657 126.157 70.5657V55.9989C148.505 55.9989 168.737 65.2432 183.382 79.9297L173.243 90.0693Z" fill="#F2C94C"/>
<path d="M120.432 129.68H118.725L119.398 129.153C119.915 128.744 120.36 128.367 120.36 127.746C120.36 127.12 119.91 126.66 119.129 126.66C118.379 126.66 117.96 127.079 117.799 127.58L118.477 127.839C118.549 127.565 118.715 127.332 119.056 127.332C119.289 127.332 119.532 127.472 119.532 127.746V127.818C119.532 128.123 119.392 128.325 118.989 128.672L117.877 129.623V130.332H120.432V129.68ZM123.011 130.394C123.957 130.394 124.402 129.706 124.402 128.527C124.402 127.348 123.957 126.66 123.011 126.66C122.064 126.66 121.62 127.348 121.62 128.527C121.62 129.706 122.064 130.394 123.011 130.394ZM123.011 129.737C122.597 129.737 122.463 129.417 122.463 128.868V128.186C122.463 127.637 122.597 127.317 123.011 127.317C123.425 127.317 123.559 127.637 123.559 128.186V128.868C123.559 129.417 123.425 129.737 123.011 129.737ZM128.186 129.68H126.479L127.152 129.153C127.669 128.744 128.114 128.367 128.114 127.746C128.114 127.12 127.664 126.66 126.883 126.66C126.133 126.66 125.714 127.079 125.554 127.58L126.231 127.839C126.304 127.565 126.469 127.332 126.811 127.332C127.043 127.332 127.286 127.472 127.286 127.746V127.818C127.286 128.123 127.147 128.325 126.743 128.672L125.631 129.623V130.332H128.186V129.68ZM132.214 130.332V129.706H131.448V126.722H130.258L129.395 127.86L129.891 128.248L130.626 127.286H130.672V129.706H129.7V130.332H132.214Z" fill="#F2C94C"/>
<path d="M114.312 173.49L113.138 169.88H112.165L110.976 173.49H111.772L112.031 172.632H113.236L113.495 173.49H114.312ZM113.045 171.964H112.217L112.615 170.594H112.641L113.045 171.964ZM117.027 173.49L118.201 169.88H117.43L116.892 171.613L116.618 172.745H116.602L116.318 171.613L115.78 169.88H114.983L116.147 173.49H117.027ZM121.906 173.49V172.792H120.235V172.011H121.668V171.318H120.235V170.578H121.906V169.88H119.449V173.49H121.906ZM124.153 172.166H124.717L125.348 173.49H126.222L125.513 172.073C125.953 171.908 126.17 171.52 126.17 171.033C126.17 170.345 125.746 169.88 125.079 169.88H123.367V173.49H124.153V172.166ZM124.153 171.504V170.563H124.98C125.213 170.563 125.358 170.687 125.358 170.92V171.147C125.358 171.38 125.213 171.504 124.98 171.504H124.153ZM130.669 173.49L129.495 169.88H128.523L127.333 173.49H128.13L128.388 172.632H129.593L129.852 173.49H130.669ZM129.402 171.964H128.574L128.973 170.594H128.998L129.402 171.964ZM134.079 173.49H134.741V171.478H133.319V172.135H133.991V172.316C133.991 172.668 133.676 172.854 133.283 172.854C132.796 172.854 132.481 172.575 132.481 171.975V171.395C132.481 170.795 132.796 170.516 133.283 170.516C133.702 170.516 133.924 170.744 134.033 171.023L134.674 170.656C134.405 170.102 133.924 169.818 133.283 169.818C132.305 169.818 131.648 170.485 131.648 171.701C131.648 172.911 132.3 173.552 133.127 173.552C133.671 173.552 134.002 173.278 134.053 172.916H134.079V173.49ZM138.738 173.49V172.792H137.067V172.011H138.5V171.318H137.067V170.578H138.738V169.88H136.281V173.49H138.738Z" fill="#C49814"/>
<path d="M105.711 121.938V119.34H102.533V106.952H97.5951L94.0094 111.675L96.0706 113.286L99.1195 109.292H99.3127V119.34H95.2762V121.938H105.711ZM117.748 119.233H110.662L113.454 117.043C115.601 115.347 117.447 113.78 117.447 111.203C117.447 108.605 115.579 106.694 112.337 106.694C109.224 106.694 107.485 108.433 106.819 110.516L109.632 111.589C109.932 110.452 110.62 109.485 112.037 109.485C113.003 109.485 114.012 110.065 114.012 111.203V111.504C114.012 112.77 113.432 113.608 111.758 115.046L107.141 118.997V121.938H117.748V119.233ZM124.653 121.938V119.469H123.236V106.05H120.058V118.847C120.058 120.843 121.046 121.938 123.215 121.938H124.653ZM136.435 121.938V119.469H135.383V114.531C135.383 111.869 133.751 110.409 130.573 110.409C128.212 110.409 126.923 111.224 126.022 112.556L127.911 114.23C128.405 113.543 129.07 112.899 130.337 112.899C131.668 112.899 132.205 113.586 132.205 114.681V115.39H130.423C127.439 115.39 125.592 116.528 125.592 118.911C125.592 120.865 126.837 122.196 129.092 122.196C130.81 122.196 132.055 121.423 132.398 119.963H132.527C132.721 121.166 133.536 121.938 134.674 121.938H136.435ZM130.273 119.985C129.328 119.985 128.791 119.598 128.791 118.782V118.46C128.791 117.644 129.435 117.193 130.659 117.193H132.205V118.525C132.205 119.555 131.325 119.985 130.273 119.985ZM142.905 122.196C145.116 122.196 146.727 121.23 147.478 119.083L145.009 118.009C144.687 118.911 144.172 119.684 142.905 119.684C141.617 119.684 140.951 118.782 140.951 117.365V115.261C140.951 113.844 141.617 112.921 142.905 112.921C144.021 112.921 144.644 113.608 144.837 114.467L147.414 113.35C146.748 111.504 145.181 110.409 142.905 110.409C139.513 110.409 137.645 112.684 137.645 116.292C137.645 119.899 139.513 122.196 142.905 122.196ZM153.052 122.196C155.951 122.196 157.883 120.607 157.883 118.439C157.883 116.485 156.616 115.368 154.169 115.046L152.902 114.875C151.979 114.746 151.721 114.424 151.721 113.822C151.721 113.264 152.15 112.878 153.224 112.878C154.169 112.878 155.113 113.329 155.822 114.037L157.647 112.169C156.509 111.053 155.414 110.409 153.052 110.409C150.368 110.409 148.672 111.912 148.672 114.08C148.672 116.12 149.917 117.236 152.472 117.558L153.696 117.709C154.491 117.816 154.834 118.095 154.834 118.653C154.834 119.319 154.405 119.727 153.16 119.727C151.936 119.727 150.969 119.169 150.175 118.288L148.307 120.178C149.467 121.466 150.884 122.196 153.052 122.196Z" fill="#F2C94C"/>
<path d="M103.564 163.22V160.343H105.453V157.852H103.564V148.233H99.7422L93.9021 157.594V160.343H100.494V163.22H103.564ZM100.279 151.561H100.494V157.852H96.4786L100.279 151.561ZM117.125 148.233H107.957L107.399 156.714L110.04 157.079C110.426 156.628 111.199 156.027 112.359 156.027C113.754 156.027 114.613 156.886 114.613 158.26V158.432C114.613 159.892 113.819 160.858 112.273 160.858C110.727 160.858 109.89 159.913 109.245 158.754L106.905 160.6C107.807 162.125 109.353 163.477 112.251 163.477C115.944 163.477 118.006 161.223 118.006 158.174C118.006 155.168 115.944 153.408 113.389 153.408C111.478 153.408 110.77 154.374 110.169 155.791H109.997L110.319 151.046H117.125V148.233ZM124.653 163.22V160.751H123.236V147.331H120.058V160.128C120.058 162.125 121.046 163.22 123.215 163.22H124.653ZM136.435 163.22V160.751H135.383V155.812C135.383 153.15 133.751 151.69 130.573 151.69C128.212 151.69 126.923 152.506 126.022 153.837L127.911 155.512C128.405 154.825 129.07 154.18 130.337 154.18C131.668 154.18 132.205 154.868 132.205 155.963V156.671H130.423C127.439 156.671 125.592 157.809 125.592 160.192C125.592 162.146 126.837 163.477 129.092 163.477C130.81 163.477 132.055 162.704 132.398 161.244H132.527C132.721 162.447 133.536 163.22 134.674 163.22H136.435ZM130.273 161.266C129.328 161.266 128.791 160.879 128.791 160.063V159.741C128.791 158.926 129.435 158.475 130.659 158.475H132.205V159.806C132.205 160.836 131.325 161.266 130.273 161.266ZM142.905 163.477C145.116 163.477 146.727 162.511 147.478 160.364L145.009 159.291C144.687 160.192 144.172 160.965 142.905 160.965C141.617 160.965 140.951 160.063 140.951 158.646V156.542C140.951 155.125 141.617 154.202 142.905 154.202C144.021 154.202 144.644 154.889 144.837 155.748L147.414 154.631C146.748 152.785 145.181 151.69 142.905 151.69C139.513 151.69 137.645 153.966 137.645 157.573C137.645 161.18 139.513 163.477 142.905 163.477ZM153.052 163.477C155.951 163.477 157.883 161.889 157.883 159.72C157.883 157.766 156.616 156.65 154.169 156.328L152.902 156.156C151.979 156.027 151.721 155.705 151.721 155.104C151.721 154.545 152.15 154.159 153.224 154.159C154.169 154.159 155.113 154.61 155.822 155.318L157.647 153.45C156.509 152.334 155.414 151.69 153.052 151.69C150.368 151.69 148.672 153.193 148.672 155.361C148.672 157.401 149.917 158.518 152.472 158.84L153.696 158.99C154.491 159.097 154.834 159.376 154.834 159.935C154.834 160.6 154.405 161.008 153.16 161.008C151.936 161.008 150.969 160.45 150.175 159.57L148.307 161.459C149.467 162.747 150.884 163.477 153.052 163.477Z" fill="#C49814"/>
</svg>
