<svg width="908" height="455" viewBox="0 0 908 455" fill="none" xmlns="http://www.w3.org/2000/svg">
<line x1="69.7523" y1="76.0762" x2="69.7523" y2="312.753" stroke="#ECECEE" stroke-width="0.837145"/>
<path d="M41.1718 284.024V283.19H43.0604V290.453H42.1362V284.024H41.1718ZM47.8553 290.453L45.6955 288.022V290.453H44.7813V283.019H45.6955V287.389L47.8151 284.948H49.091L46.4992 287.691L49.101 290.453H47.8553Z" fill="#92959E"/>
<path d="M40.0972 191.216H36.5711V193.507C36.7252 193.292 36.9529 193.118 37.2542 192.984C37.5556 192.844 37.8804 192.773 38.2287 192.773C38.7845 192.773 39.2366 192.89 39.5848 193.125C39.9331 193.352 40.1809 193.651 40.3282 194.019C40.4823 194.381 40.5593 194.766 40.5593 195.174C40.5593 195.656 40.4689 196.088 40.288 196.47C40.1072 196.852 39.8293 197.153 39.4543 197.374C39.0859 197.595 38.6272 197.706 38.078 197.706C37.3748 197.706 36.8055 197.525 36.3702 197.163C35.9349 196.802 35.6704 196.319 35.5766 195.717H36.4707C36.5577 196.098 36.7419 196.396 37.0232 196.611C37.3045 196.825 37.6594 196.932 38.088 196.932C38.6171 196.932 39.0156 196.775 39.2835 196.46C39.5514 196.139 39.6853 195.717 39.6853 195.194C39.6853 194.672 39.5514 194.27 39.2835 193.989C39.0156 193.701 38.6205 193.557 38.0981 193.557C37.7431 193.557 37.4317 193.644 37.1638 193.818C36.9026 193.985 36.7118 194.216 36.5912 194.511H35.7273V190.412H40.0972V191.216ZM44.9988 197.686L42.839 195.254V197.686H41.9248V190.252H42.839V194.622L44.9586 192.18H46.2344L43.6426 194.923L46.2445 197.686H44.9988Z" fill="#92959E"/>
<path d="M36.6414 104.159C36.7084 104.54 36.8625 104.835 37.1036 105.043C37.3513 105.25 37.6829 105.354 38.0981 105.354C38.6539 105.354 39.0625 105.136 39.3237 104.701C39.5915 104.266 39.7188 103.532 39.7054 102.501C39.5648 102.802 39.3304 103.04 39.0022 103.214C38.674 103.382 38.309 103.465 37.9072 103.465C37.4585 103.465 37.0567 103.375 36.7017 103.194C36.3535 103.007 36.0789 102.735 35.878 102.38C35.6771 102.026 35.5766 101.597 35.5766 101.095C35.5766 100.378 35.7842 99.8021 36.1994 99.3667C36.6147 98.9247 37.204 98.7037 37.9675 98.7037C38.9051 98.7037 39.5614 99.0084 39.9364 99.6179C40.3182 100.227 40.5091 101.135 40.5091 102.34C40.5091 103.184 40.432 103.881 40.278 104.43C40.1307 104.979 39.8762 105.398 39.5145 105.686C39.1596 105.973 38.6707 106.117 38.0479 106.117C37.3647 106.117 36.8323 105.933 36.4506 105.565C36.0688 105.197 35.8512 104.728 35.7976 104.159H36.6414ZM38.0579 102.692C38.5066 102.692 38.8749 102.555 39.1629 102.28C39.4509 101.999 39.5949 101.62 39.5949 101.145C39.5949 100.643 39.4543 100.237 39.173 99.9293C38.8917 99.6212 38.4966 99.4672 37.9876 99.4672C37.5188 99.4672 37.1437 99.6145 36.8625 99.9092C36.5879 100.204 36.4506 100.592 36.4506 101.075C36.4506 101.563 36.5879 101.955 36.8625 102.25C37.137 102.545 37.5355 102.692 38.0579 102.692ZM45.0184 106.107L42.8586 103.676V106.107H41.9444V98.6736H42.8586V103.043L44.9782 100.602H46.254L43.6622 103.345L46.2641 106.107H45.0184Z" fill="#92959E"/>
<path d="M35.446 238.634C35.4929 238.017 35.7306 237.535 36.1593 237.187C36.5879 236.839 37.1437 236.665 37.8268 236.665C38.2823 236.665 38.674 236.748 39.0022 236.916C39.3371 237.077 39.5882 237.298 39.7556 237.579C39.9298 237.86 40.0168 238.178 40.0168 238.533C40.0168 238.948 39.8963 239.307 39.6552 239.608C39.4208 239.909 39.1127 240.104 38.731 240.191V240.241C39.1663 240.348 39.5112 240.559 39.7657 240.874C40.0202 241.189 40.1474 241.6 40.1474 242.109C40.1474 242.491 40.0603 242.836 39.8862 243.144C39.7121 243.446 39.4509 243.683 39.1027 243.857C38.7544 244.032 38.3358 244.119 37.8469 244.119C37.137 244.119 36.5544 243.934 36.099 243.566C35.6436 243.191 35.3891 242.662 35.3355 241.979H36.2195C36.2664 242.381 36.4305 242.709 36.7118 242.963C36.993 243.218 37.3681 243.345 37.8369 243.345C38.3057 243.345 38.6606 243.225 38.9017 242.983C39.1495 242.736 39.2734 242.418 39.2734 242.029C39.2734 241.527 39.106 241.165 38.7711 240.944C38.4363 240.723 37.9307 240.613 37.2542 240.613H37.0232V239.849H37.2643C37.8804 239.842 38.3459 239.742 38.6606 239.548C38.9754 239.347 39.1328 239.039 39.1328 238.624C39.1328 238.269 39.0156 237.984 38.7812 237.77C38.5535 237.555 38.2253 237.448 37.7967 237.448C37.3815 237.448 37.0466 237.555 36.7921 237.77C36.5376 237.984 36.387 238.272 36.3401 238.634H35.446ZM44.6064 244.068L42.4465 241.637V244.068H41.5324V236.635H42.4465V241.004L44.5662 238.563H45.842L43.2502 241.306L45.852 244.068H44.6064Z" fill="#92959E"/>
<path d="M39.9364 145.942L37.1437 152.492H36.2195L39.0524 146.033H35.1748V145.249H39.9364V145.942ZM44.1747 152.492L42.0149 150.061V152.492H41.1007V145.058H42.0149V149.428L44.1345 146.987H45.4104L42.8186 149.73L45.4204 152.492H44.1747Z" fill="#92959E"/>
<line x1="875.098" y1="407.134" x2="875.098" y2="417.427" stroke="#ECECEE" stroke-width="1.68642" stroke-linecap="round" stroke-linejoin="round"/>
<path d="M850.923 432.725C850.923 431.565 851.112 430.661 851.49 430.013C851.868 429.359 852.529 429.032 853.473 429.032C854.411 429.032 855.068 429.359 855.446 430.013C855.824 430.661 856.013 431.565 856.013 432.725C856.013 433.906 855.824 434.823 855.446 435.477C855.068 436.132 854.411 436.459 853.473 436.459C852.529 436.459 851.868 436.132 851.49 435.477C851.112 434.823 850.923 433.906 850.923 432.725ZM855.102 432.725C855.102 432.138 855.062 431.643 854.981 431.238C854.907 430.826 854.748 430.496 854.505 430.246C854.269 429.997 853.925 429.872 853.473 429.872C853.014 429.872 852.664 429.997 852.421 430.246C852.185 430.496 852.026 430.826 851.945 431.238C851.871 431.643 851.834 432.138 851.834 432.725C851.834 433.332 851.871 433.842 851.945 434.253C852.026 434.665 852.185 434.995 852.421 435.245C852.664 435.494 853.014 435.619 853.473 435.619C853.925 435.619 854.269 435.494 854.505 435.245C854.748 434.995 854.907 434.665 854.981 434.253C855.062 433.842 855.102 433.332 855.102 432.725ZM857.257 430.985C857.304 430.364 857.543 429.879 857.975 429.528C858.407 429.177 858.967 429.002 859.655 429.002C860.114 429.002 860.508 429.086 860.839 429.255C861.176 429.416 861.429 429.639 861.598 429.922C861.773 430.206 861.861 430.526 861.861 430.884C861.861 431.302 861.739 431.663 861.496 431.966C861.26 432.27 860.95 432.466 860.565 432.553V432.604C861.004 432.712 861.351 432.924 861.608 433.241C861.864 433.558 861.992 433.973 861.992 434.486C861.992 434.87 861.904 435.218 861.729 435.528C861.554 435.832 861.291 436.071 860.94 436.246C860.589 436.422 860.167 436.51 859.675 436.51C858.96 436.51 858.373 436.324 857.914 435.953C857.456 435.575 857.199 435.042 857.145 434.354H858.036C858.083 434.759 858.248 435.09 858.532 435.346C858.815 435.602 859.193 435.73 859.665 435.73C860.137 435.73 860.495 435.609 860.737 435.366C860.987 435.117 861.112 434.796 861.112 434.405C861.112 433.899 860.943 433.535 860.606 433.312C860.269 433.09 859.759 432.978 859.078 432.978H858.845V432.209H859.088C859.709 432.202 860.178 432.101 860.495 431.906C860.812 431.703 860.97 431.393 860.97 430.975C860.97 430.617 860.852 430.331 860.616 430.115C860.387 429.899 860.056 429.791 859.624 429.791C859.206 429.791 858.869 429.899 858.613 430.115C858.356 430.331 858.204 430.621 858.157 430.985H857.257ZM863.681 436.52C863.505 436.52 863.357 436.459 863.235 436.338C863.114 436.216 863.053 436.068 863.053 435.892C863.053 435.717 863.114 435.569 863.235 435.447C863.357 435.326 863.505 435.265 863.681 435.265C863.849 435.265 863.991 435.326 864.106 435.447C864.227 435.569 864.288 435.717 864.288 435.892C864.288 436.068 864.227 436.216 864.106 436.338C863.991 436.459 863.849 436.52 863.681 436.52ZM863.681 432.189C863.505 432.189 863.357 432.128 863.235 432.007C863.114 431.885 863.053 431.737 863.053 431.562C863.053 431.386 863.114 431.238 863.235 431.116C863.357 430.995 863.505 430.934 863.681 430.934C863.849 430.934 863.991 430.995 864.106 431.116C864.227 431.238 864.288 431.386 864.288 431.562C864.288 431.737 864.227 431.885 864.106 432.007C863.991 432.128 863.849 432.189 863.681 432.189ZM865.369 430.985C865.417 430.364 865.656 429.879 866.088 429.528C866.519 429.177 867.079 429.002 867.767 429.002C868.226 429.002 868.621 429.086 868.951 429.255C869.289 429.416 869.542 429.639 869.71 429.922C869.886 430.206 869.973 430.526 869.973 430.884C869.973 431.302 869.852 431.663 869.609 431.966C869.373 432.27 869.063 432.466 868.678 432.553V432.604C869.117 432.712 869.464 432.924 869.72 433.241C869.977 433.558 870.105 433.973 870.105 434.486C870.105 434.87 870.017 435.218 869.842 435.528C869.666 435.832 869.403 436.071 869.052 436.246C868.702 436.422 868.28 436.51 867.788 436.51C867.073 436.51 866.486 436.324 866.027 435.953C865.568 435.575 865.312 435.042 865.258 434.354H866.148C866.196 434.759 866.361 435.09 866.644 435.346C866.928 435.602 867.305 435.73 867.778 435.73C868.25 435.73 868.607 435.609 868.85 435.366C869.1 435.117 869.224 434.796 869.224 434.405C869.224 433.899 869.056 433.535 868.719 433.312C868.381 433.09 867.872 432.978 867.191 432.978H866.958V432.209H867.201C867.821 432.202 868.29 432.101 868.607 431.906C868.924 431.703 869.083 431.393 869.083 430.975C869.083 430.617 868.965 430.331 868.729 430.115C868.499 429.899 868.169 429.791 867.737 429.791C867.319 429.791 866.982 429.899 866.725 430.115C866.469 430.331 866.317 430.621 866.27 430.985H865.369ZM871.348 432.725C871.348 431.565 871.537 430.661 871.915 430.013C872.292 429.359 872.953 429.032 873.898 429.032C874.836 429.032 875.493 429.359 875.871 430.013C876.249 430.661 876.438 431.565 876.438 432.725C876.438 433.906 876.249 434.823 875.871 435.477C875.493 436.132 874.836 436.459 873.898 436.459C872.953 436.459 872.292 436.132 871.915 435.477C871.537 434.823 871.348 433.906 871.348 432.725ZM875.527 432.725C875.527 432.138 875.486 431.643 875.406 431.238C875.331 430.826 875.173 430.496 874.93 430.246C874.694 429.997 874.35 429.872 873.898 429.872C873.439 429.872 873.088 429.997 872.846 430.246C872.609 430.496 872.451 430.826 872.37 431.238C872.296 431.643 872.259 432.138 872.259 432.725C872.259 433.332 872.296 433.842 872.37 434.253C872.451 434.665 872.609 434.995 872.846 435.245C873.088 435.494 873.439 435.619 873.898 435.619C874.35 435.619 874.694 435.494 874.93 435.245C875.173 434.995 875.331 434.665 875.406 434.253C875.486 433.842 875.527 433.332 875.527 432.725ZM885.266 431.471C885.266 432.057 885.064 432.546 884.659 432.938C884.261 433.322 883.651 433.514 882.828 433.514H881.472V436.459H880.551V429.406H882.828C883.624 429.406 884.228 429.599 884.639 429.983C885.057 430.368 885.266 430.863 885.266 431.471ZM882.828 432.756C883.34 432.756 883.718 432.644 883.961 432.422C884.204 432.199 884.325 431.882 884.325 431.471C884.325 430.6 883.826 430.165 882.828 430.165H881.472V432.756H882.828ZM893.565 429.457V436.459H892.644V431.238L890.317 436.459H889.669L887.332 431.228V436.459H886.411V429.457H887.402L889.993 435.245L892.583 429.457H893.565Z" fill="#92959E"/>
<rect x="1.43003" y="0.706396" width="905.768" height="453.676" rx="5.39076" fill="white" stroke="#E5E5E5" stroke-width="1.19795"/>
<line x1="49.9397" y1="59.9238" x2="49.9397" y2="403.514" stroke="#ECECEE" stroke-width="0.843209"/>
<line x1="887.432" y1="412.703" x2="50.0668" y2="412.703" stroke="#ECECEE" stroke-width="0.843209"/>
<path d="M133.493 322.149C103.296 332.876 50.9092 308.033 50.9092 308.033V434.117H860.025V125.744C826.061 114.254 780.213 26.9115 759.669 60.6852C696.947 163.798 622.235 51.2938 552.686 84.0083C481.727 117.386 464.944 176.818 388.563 180.369C353.196 182.014 358.571 291.05 323.228 293.302C287.141 295.602 253.905 202.756 219.736 216.582C183.209 231.361 170.473 309.013 133.493 322.149Z" fill="url(#paint0_linear_2215:13317)"/>
<path d="M50.9092 321.039C50.9092 321.039 103.327 348.369 133.542 336.569C170.544 322.118 183.287 236.695 219.836 220.436C254.025 205.227 287.28 307.364 323.388 304.835C358.752 302.357 353.374 182.409 388.762 180.6C465.188 176.693 481.981 111.313 552.982 74.5951C622.572 38.6067 697.328 162.37 760.087 48.9379C780.643 11.7843 826.518 107.868 860.502 120.508" stroke="#3AA959" stroke-width="2.10802" stroke-linecap="round" stroke-linejoin="round"/>
<line x1="875.098" y1="407.134" x2="875.098" y2="417.427" stroke="#ECECEE" stroke-width="1.68642" stroke-linecap="round" stroke-linejoin="round"/>
<line x1="718.167" y1="407.134" x2="718.167" y2="417.427" stroke="#ECECEE" stroke-width="1.68642" stroke-linecap="round" stroke-linejoin="round"/>
<line x1="560.038" y1="407.134" x2="560.038" y2="417.427" stroke="#ECECEE" stroke-width="1.68642" stroke-linecap="round" stroke-linejoin="round"/>
<line x1="403.106" y1="407.134" x2="403.106" y2="417.427" stroke="#ECECEE" stroke-width="1.68642" stroke-linecap="round" stroke-linejoin="round"/>
<line x1="243.717" y1="394.619" x2="243.717" y2="411.016" stroke="#ECECEE" stroke-width="1.68642" stroke-linecap="round" stroke-linejoin="round"/>
<line x1="88.0466" y1="407.134" x2="88.0466" y2="417.427" stroke="#ECECEE" stroke-width="1.68642" stroke-linecap="round" stroke-linejoin="round"/>
<line x1="47.579" y1="362.329" x2="55.63" y2="362.329" stroke="#ECECEE" stroke-width="1.68642" stroke-linecap="round" stroke-linejoin="round"/>
<line x1="47.579" y1="296.95" x2="55.63" y2="296.95" stroke="#ECECEE" stroke-width="1.68642" stroke-linecap="round" stroke-linejoin="round"/>
<line x1="47.579" y1="230.18" x2="55.63" y2="230.18" stroke="#ECECEE" stroke-width="1.68642" stroke-linecap="round" stroke-linejoin="round"/>
<line x1="47.579" y1="162.018" x2="55.63" y2="162.018" stroke="#ECECEE" stroke-width="1.68642" stroke-linecap="round" stroke-linejoin="round"/>
<line x1="47.579" y1="95.2466" x2="55.63" y2="95.2466" stroke="#ECECEE" stroke-width="1.68642" stroke-linecap="round" stroke-linejoin="round"/>
<path d="M71.402 429.406V434.617C71.402 435.198 71.2233 435.663 70.8658 436.014C70.5082 436.358 70.036 436.53 69.4492 436.53C68.8555 436.53 68.38 436.354 68.0224 436.004C67.6649 435.646 67.4862 435.16 67.4862 434.547H68.407C68.4137 434.891 68.5014 435.171 68.67 435.386C68.8454 435.602 69.1051 435.71 69.4492 435.71C69.7932 435.71 70.0495 435.609 70.2182 435.407C70.3868 435.198 70.4711 434.934 70.4711 434.617V429.406H71.402ZM72.872 433.666C72.872 433.1 72.9867 432.604 73.216 432.179C73.4454 431.747 73.759 431.413 74.157 431.177C74.5618 430.941 75.0104 430.823 75.5028 430.823C75.9885 430.823 76.4101 430.928 76.7676 431.137C77.1251 431.346 77.3916 431.609 77.567 431.926V430.914H78.4979V436.459H77.567V435.427C77.3848 435.751 77.1116 436.021 76.7474 436.236C76.3899 436.445 75.9716 436.55 75.4927 436.55C75.0002 436.55 74.555 436.429 74.157 436.186C73.759 435.943 73.4454 435.602 73.216 435.164C72.9867 434.725 72.872 434.226 72.872 433.666ZM77.567 433.676C77.567 433.258 77.4827 432.894 77.314 432.584C77.1454 432.273 76.916 432.037 76.626 431.875C76.3426 431.707 76.029 431.622 75.6849 431.622C75.3409 431.622 75.0272 431.703 74.7439 431.865C74.4606 432.027 74.2346 432.263 74.066 432.573C73.8973 432.884 73.813 433.248 73.813 433.666C73.813 434.091 73.8973 434.462 74.066 434.779C74.2346 435.09 74.4606 435.329 74.7439 435.498C75.0272 435.66 75.3409 435.741 75.6849 435.741C76.029 435.741 76.3426 435.66 76.626 435.498C76.916 435.329 77.1454 435.09 77.314 434.779C77.4827 434.462 77.567 434.095 77.567 433.676ZM82.7556 430.813C83.4301 430.813 83.9765 431.019 84.3948 431.43C84.813 431.835 85.0221 432.422 85.0221 433.191V436.459H84.1114V433.322C84.1114 432.769 83.9732 432.347 83.6966 432.057C83.42 431.761 83.0422 431.612 82.5633 431.612C82.0776 431.612 81.6897 431.764 81.3997 432.068C81.1164 432.371 80.9747 432.813 80.9747 433.393V436.459H80.0539V430.914H80.9747V431.703C81.1568 431.42 81.403 431.201 81.7133 431.046C82.0304 430.89 82.3778 430.813 82.7556 430.813ZM91.4438 430.914V436.459H90.523V435.639C90.3476 435.923 90.1014 436.145 89.7844 436.307C89.4741 436.462 89.13 436.54 88.7523 436.54C88.3206 436.54 87.9327 436.452 87.5886 436.277C87.2446 436.095 86.9714 435.825 86.769 435.467C86.5734 435.11 86.4756 434.675 86.4756 434.162V430.914H87.3863V434.041C87.3863 434.587 87.5246 435.009 87.8011 435.305C88.0777 435.596 88.4555 435.741 88.9344 435.741C89.4268 435.741 89.8147 435.589 90.098 435.285C90.3814 434.982 90.523 434.54 90.523 433.96V430.914H91.4438ZM92.6545 433.666C92.6545 433.1 92.7691 432.604 92.9985 432.179C93.2278 431.747 93.5415 431.413 93.9395 431.177C94.3443 430.941 94.7928 430.823 95.2853 430.823C95.771 430.823 96.1926 430.928 96.5501 431.137C96.9076 431.346 97.1741 431.609 97.3495 431.926V430.914H98.2804V436.459H97.3495V435.427C97.1673 435.751 96.8941 436.021 96.5299 436.236C96.1723 436.445 95.7541 436.55 95.2752 436.55C94.7827 436.55 94.3375 436.429 93.9395 436.186C93.5415 435.943 93.2278 435.602 92.9985 435.164C92.7691 434.725 92.6545 434.226 92.6545 433.666ZM97.3495 433.676C97.3495 433.258 97.2651 432.894 97.0965 432.584C96.9278 432.273 96.6985 432.037 96.4084 431.875C96.1251 431.707 95.8114 431.622 95.4674 431.622C95.1234 431.622 94.8097 431.703 94.5264 431.865C94.2431 432.027 94.0171 432.263 93.8484 432.573C93.6798 432.884 93.5955 433.248 93.5955 433.666C93.5955 434.091 93.6798 434.462 93.8484 434.779C94.0171 435.09 94.2431 435.329 94.5264 435.498C94.8097 435.66 95.1234 435.741 95.4674 435.741C95.8114 435.741 96.1251 435.66 96.4084 435.498C96.6985 435.329 96.9278 435.09 97.0965 434.779C97.2651 434.462 97.3495 434.095 97.3495 433.676ZM100.757 431.815C100.919 431.498 101.148 431.251 101.445 431.076C101.749 430.901 102.116 430.813 102.548 430.813V431.764H102.305C101.273 431.764 100.757 432.324 100.757 433.444V436.459H99.8364V430.914H100.757V431.815ZM108.387 430.914L105.048 439.07H104.097L105.19 436.398L102.953 430.914H103.975L105.716 435.407L107.436 430.914H108.387Z" fill="#92959E"/>
<path d="M29.0368 359.35V358.51H30.9391V365.826H30.0082V359.35H29.0368ZM35.7688 365.826L33.5933 363.377V365.826H32.6726V358.338H33.5933V362.74L35.7283 360.281H37.0134L34.4028 363.044L37.0235 365.826H35.7688Z" fill="#92959E"/>
<path d="M29.771 224.378H26.2194V226.685C26.3745 226.469 26.6039 226.294 26.9074 226.159C27.211 226.017 27.5382 225.947 27.8889 225.947C28.4488 225.947 28.9042 226.065 29.2549 226.301C29.6057 226.53 29.8553 226.83 30.0037 227.201C30.1589 227.566 30.2364 227.953 30.2364 228.365C30.2364 228.851 30.1454 229.286 29.9632 229.67C29.7811 230.055 29.5012 230.358 29.1234 230.581C28.7524 230.803 28.2903 230.915 27.7372 230.915C27.0289 230.915 26.4555 230.733 26.017 230.368C25.5785 230.004 25.3121 229.518 25.2177 228.911H26.1182C26.2059 229.296 26.3914 229.596 26.6747 229.812C26.958 230.028 27.3156 230.136 27.7473 230.136C28.2802 230.136 28.6816 229.977 28.9514 229.66C29.2212 229.336 29.3561 228.911 29.3561 228.385C29.3561 227.859 29.2212 227.454 28.9514 227.171C28.6816 226.881 28.2836 226.736 27.7574 226.736C27.3999 226.736 27.0862 226.824 26.8164 226.999C26.5533 227.168 26.361 227.4 26.2396 227.697H25.3694V223.569H29.771V224.378ZM34.7081 230.895L32.5326 228.446V230.895H31.6118V223.407H32.5326V227.808L34.6676 225.35H35.9527L33.3421 228.112L35.9628 230.895H34.7081Z" fill="#92959E"/>
<path d="M26.2902 96.7811C26.3577 97.1657 26.5128 97.4625 26.7557 97.6716C27.0053 97.8807 27.3392 97.9853 27.7574 97.9853C28.3173 97.9853 28.7288 97.766 28.9919 97.3275C29.2617 96.8891 29.3899 96.1504 29.3764 95.1116C29.2347 95.4151 28.9986 95.6546 28.6681 95.83C28.3375 95.9987 27.9699 96.083 27.5652 96.083C27.1132 96.083 26.7084 95.9919 26.3509 95.8098C26.0002 95.6209 25.7236 95.3477 25.5212 94.9902C25.3188 94.6327 25.2177 94.2009 25.2177 93.695C25.2177 92.9732 25.4268 92.3931 25.845 91.9546C26.2632 91.5094 26.8569 91.2868 27.6259 91.2868C28.5703 91.2868 29.2313 91.5937 29.6091 92.2076C29.9936 92.8214 30.1858 93.7355 30.1858 94.9497C30.1858 95.7997 30.1083 96.5012 29.9531 97.0543C29.8047 97.6075 29.5484 98.0291 29.1841 98.3192C28.8266 98.6092 28.3342 98.7543 27.7068 98.7543C27.0188 98.7543 26.4825 98.5688 26.098 98.1977C25.7135 97.8267 25.4942 97.3545 25.4403 96.7811H26.2902ZM27.7169 95.3038C28.1689 95.3038 28.5399 95.1656 28.83 94.889C29.12 94.6057 29.2651 94.2245 29.2651 93.7456C29.2651 93.2397 29.1234 92.8316 28.8401 92.5213C28.5568 92.211 28.1588 92.0558 27.6461 92.0558C27.1739 92.0558 26.7961 92.2042 26.5128 92.501C26.2363 92.7978 26.098 93.1891 26.098 93.6748C26.098 94.1672 26.2363 94.5618 26.5128 94.8586C26.7894 95.1554 27.1908 95.3038 27.7169 95.3038ZM34.7279 98.7441L32.5524 96.2955V98.7441H31.6316V91.2564H32.5524V95.658L34.6874 93.1992H35.9724L33.3619 95.9615L35.9826 98.7441H34.7279Z" fill="#92959E"/>
<path d="M25.0861 292.19C25.1333 291.569 25.3728 291.084 25.8045 290.733C26.2363 290.382 26.7961 290.207 27.4842 290.207C27.9429 290.207 28.3375 290.291 28.6681 290.46C29.0054 290.622 29.2583 290.844 29.427 291.128C29.6023 291.411 29.69 291.731 29.69 292.089C29.69 292.507 29.5686 292.868 29.3258 293.171C29.0897 293.475 28.7794 293.671 28.3949 293.758V293.809C28.8333 293.917 29.1807 294.129 29.4371 294.446C29.6934 294.763 29.8216 295.178 29.8216 295.691C29.8216 296.075 29.7339 296.423 29.5585 296.733C29.3831 297.037 29.12 297.276 28.7693 297.452C28.4185 297.627 27.9969 297.715 27.5044 297.715C26.7894 297.715 26.2025 297.529 25.7438 297.158C25.2851 296.78 25.0288 296.247 24.9748 295.559H25.8652C25.9125 295.964 26.0777 296.295 26.361 296.551C26.6444 296.807 27.0221 296.936 27.4943 296.936C27.9665 296.936 28.324 296.814 28.5669 296.571C28.8165 296.322 28.9413 296.001 28.9413 295.61C28.9413 295.104 28.7726 294.74 28.4353 294.517C28.0981 294.295 27.5888 294.183 26.9074 294.183H26.6747V293.414H26.9176C27.5382 293.408 28.007 293.306 28.324 293.111C28.6411 292.908 28.7996 292.598 28.7996 292.18C28.7996 291.822 28.6816 291.536 28.4455 291.32C28.2161 291.104 27.8856 290.996 27.4538 290.996C27.0356 290.996 26.6983 291.104 26.442 291.32C26.1857 291.536 26.0339 291.826 25.9867 292.19H25.0861ZM34.3129 297.664L32.1374 295.215V297.664H31.2166V290.176H32.1374V294.578L34.2724 292.119H35.5574L32.9469 294.881L35.5675 297.664H34.3129Z" fill="#92959E"/>
<path d="M29.6091 158.918L26.7961 165.516H25.8652L28.7187 159.009H24.8129V158.22H29.6091V158.918ZM33.8781 165.516L31.7026 163.067V165.516H30.7818V158.028H31.7026V162.429L33.8376 159.971H35.1227L32.5121 162.733L35.1328 165.516H33.8781Z" fill="#92959E"/>
<path d="M394.223 429.457V436.459H393.302V431.238L390.975 436.459H390.328L387.99 431.228V436.459H387.069V429.457H388.061L390.651 435.245L393.242 429.457H394.223ZM395.441 433.666C395.441 433.1 395.555 432.604 395.785 432.179C396.014 431.747 396.328 431.413 396.726 431.177C397.131 430.941 397.579 430.823 398.072 430.823C398.557 430.823 398.979 430.928 399.336 431.137C399.694 431.346 399.96 431.609 400.136 431.926V430.914H401.067V436.459H400.136V435.427C399.954 435.751 399.68 436.021 399.316 436.236C398.959 436.445 398.54 436.55 398.061 436.55C397.569 436.55 397.124 436.429 396.726 436.186C396.328 435.943 396.014 435.602 395.785 435.164C395.555 434.725 395.441 434.226 395.441 433.666ZM400.136 433.676C400.136 433.258 400.051 432.894 399.883 432.584C399.714 432.273 399.485 432.037 399.195 431.875C398.911 431.707 398.598 431.622 398.254 431.622C397.91 431.622 397.596 431.703 397.313 431.865C397.029 432.027 396.803 432.263 396.635 432.573C396.466 432.884 396.382 433.248 396.382 433.666C396.382 434.091 396.466 434.462 396.635 434.779C396.803 435.09 397.029 435.329 397.313 435.498C397.596 435.66 397.91 435.741 398.254 435.741C398.598 435.741 398.911 435.66 399.195 435.498C399.485 435.329 399.714 435.09 399.883 434.779C400.051 434.462 400.136 434.095 400.136 433.676ZM403.543 431.815C403.705 431.498 403.935 431.251 404.232 431.076C404.535 430.901 404.903 430.813 405.334 430.813V431.764H405.092C404.06 431.764 403.543 432.324 403.543 433.444V436.459H402.623V430.914H403.543V431.815ZM406.053 433.676C406.053 433.103 406.168 432.604 406.397 432.179C406.627 431.747 406.944 431.413 407.349 431.177C407.76 430.941 408.229 430.823 408.755 430.823C409.436 430.823 409.996 430.988 410.435 431.319C410.88 431.649 411.173 432.108 411.315 432.695H410.323C410.229 432.358 410.043 432.091 409.767 431.896C409.497 431.7 409.16 431.602 408.755 431.602C408.229 431.602 407.804 431.784 407.48 432.148C407.156 432.506 406.994 433.015 406.994 433.676C406.994 434.344 407.156 434.86 407.48 435.225C407.804 435.589 408.229 435.771 408.755 435.771C409.16 435.771 409.497 435.676 409.767 435.488C410.037 435.299 410.222 435.029 410.323 434.678H411.315C411.167 435.245 410.87 435.7 410.425 436.044C409.979 436.381 409.423 436.55 408.755 436.55C408.229 436.55 407.76 436.432 407.349 436.196C406.944 435.96 406.627 435.626 406.397 435.194C406.168 434.762 406.053 434.257 406.053 433.676ZM415.296 430.813C415.714 430.813 416.092 430.904 416.429 431.086C416.766 431.261 417.029 431.528 417.218 431.885C417.414 432.243 417.512 432.678 417.512 433.191V436.459H416.601V433.322C416.601 432.769 416.463 432.347 416.186 432.057C415.91 431.761 415.532 431.612 415.053 431.612C414.567 431.612 414.179 431.764 413.889 432.068C413.606 432.371 413.464 432.813 413.464 433.393V436.459H412.544V428.971H413.464V431.703C413.647 431.42 413.896 431.201 414.213 431.046C414.537 430.89 414.898 430.813 415.296 430.813Z" fill="#92959E"/>
<path d="M225.915 429.406V430.155H222.849V432.533H225.339V433.282H222.849V436.459H221.929V429.406H225.915ZM232.087 433.474C232.087 433.649 232.076 433.835 232.056 434.031H227.624C227.658 434.577 227.844 435.005 228.181 435.316C228.525 435.619 228.94 435.771 229.425 435.771C229.823 435.771 230.154 435.68 230.417 435.498C230.687 435.309 230.876 435.059 230.984 434.749H231.975C231.827 435.282 231.53 435.717 231.085 436.054C230.64 436.385 230.087 436.55 229.425 436.55C228.899 436.55 228.427 436.432 228.009 436.196C227.597 435.96 227.274 435.626 227.037 435.194C226.801 434.756 226.683 434.25 226.683 433.676C226.683 433.103 226.798 432.6 227.027 432.169C227.257 431.737 227.577 431.406 227.989 431.177C228.407 430.941 228.886 430.823 229.425 430.823C229.952 430.823 230.417 430.938 230.822 431.167C231.227 431.396 231.537 431.713 231.753 432.118C231.975 432.516 232.087 432.968 232.087 433.474ZM231.135 433.282C231.135 432.931 231.058 432.631 230.903 432.381C230.748 432.125 230.535 431.933 230.265 431.804C230.002 431.67 229.709 431.602 229.385 431.602C228.92 431.602 228.522 431.751 228.191 432.047C227.867 432.344 227.682 432.756 227.634 433.282H231.135ZM234.223 431.946C234.412 431.616 234.688 431.346 235.053 431.137C235.417 430.928 235.832 430.823 236.297 430.823C236.796 430.823 237.245 430.941 237.643 431.177C238.041 431.413 238.355 431.747 238.584 432.179C238.813 432.604 238.928 433.1 238.928 433.666C238.928 434.226 238.813 434.725 238.584 435.164C238.355 435.602 238.037 435.943 237.633 436.186C237.235 436.429 236.79 436.55 236.297 436.55C235.818 436.55 235.397 436.445 235.032 436.236C234.675 436.027 234.405 435.761 234.223 435.437V436.459H233.302V428.971H234.223V431.946ZM237.987 433.666C237.987 433.248 237.903 432.884 237.734 432.573C237.565 432.263 237.336 432.027 237.046 431.865C236.763 431.703 236.449 431.622 236.105 431.622C235.768 431.622 235.454 431.707 235.164 431.875C234.88 432.037 234.651 432.277 234.476 432.594C234.307 432.904 234.223 433.265 234.223 433.676C234.223 434.095 234.307 434.462 234.476 434.779C234.651 435.09 234.88 435.329 235.164 435.498C235.454 435.66 235.768 435.741 236.105 435.741C236.449 435.741 236.763 435.66 237.046 435.498C237.336 435.329 237.565 435.09 237.734 434.779C237.903 434.462 237.987 434.091 237.987 433.666ZM241.061 431.815C241.223 431.498 241.452 431.251 241.749 431.076C242.052 430.901 242.42 430.813 242.852 430.813V431.764H242.609C241.577 431.764 241.061 432.324 241.061 433.444V436.459H240.14V430.914H241.061V431.815ZM248.832 430.914V436.459H247.911V435.639C247.736 435.923 247.49 436.145 247.173 436.307C246.862 436.462 246.518 436.54 246.141 436.54C245.709 436.54 245.321 436.452 244.977 436.277C244.633 436.095 244.36 435.825 244.157 435.467C243.962 435.11 243.864 434.675 243.864 434.162V430.914H244.775V434.041C244.775 434.587 244.913 435.009 245.19 435.305C245.466 435.596 245.844 435.741 246.323 435.741C246.815 435.741 247.203 435.589 247.486 435.285C247.77 434.982 247.911 434.54 247.911 433.96V430.914H248.832ZM250.043 433.666C250.043 433.1 250.158 432.604 250.387 432.179C250.616 431.747 250.93 431.413 251.328 431.177C251.733 430.941 252.181 430.823 252.674 430.823C253.159 430.823 253.581 430.928 253.938 431.137C254.296 431.346 254.562 431.609 254.738 431.926V430.914H255.669V436.459H254.738V435.427C254.556 435.751 254.283 436.021 253.918 436.236C253.561 436.445 253.142 436.55 252.664 436.55C252.171 436.55 251.726 436.429 251.328 436.186C250.93 435.943 250.616 435.602 250.387 435.164C250.158 434.725 250.043 434.226 250.043 433.666ZM254.738 433.676C254.738 433.258 254.654 432.894 254.485 432.584C254.316 432.273 254.087 432.037 253.797 431.875C253.513 431.707 253.2 431.622 252.856 431.622C252.512 431.622 252.198 431.703 251.915 431.865C251.631 432.027 251.405 432.263 251.237 432.573C251.068 432.884 250.984 433.248 250.984 433.666C250.984 434.091 251.068 434.462 251.237 434.779C251.405 435.09 251.631 435.329 251.915 435.498C252.198 435.66 252.512 435.741 252.856 435.741C253.2 435.741 253.513 435.66 253.797 435.498C254.087 435.329 254.316 435.09 254.485 434.779C254.654 434.462 254.738 434.095 254.738 433.676ZM258.146 431.815C258.307 431.498 258.537 431.251 258.834 431.076C259.137 430.901 259.505 430.813 259.937 430.813V431.764H259.694C258.662 431.764 258.146 432.324 258.146 433.444V436.459H257.225V430.914H258.146V431.815ZM265.775 430.914L262.436 439.07H261.485L262.578 436.398L260.342 430.914H261.364L263.104 435.407L264.824 430.914H265.775Z" fill="#92959E"/>
<path d="M552.937 434.891H549.861L549.295 436.459H548.323L550.873 429.447H551.936L554.475 436.459H553.504L552.937 434.891ZM552.674 434.142L551.399 430.58L550.124 434.142H552.674ZM556.507 431.936C556.69 431.619 556.959 431.356 557.317 431.147C557.681 430.931 558.103 430.823 558.582 430.823C559.074 430.823 559.519 430.941 559.917 431.177C560.322 431.413 560.639 431.747 560.869 432.179C561.098 432.604 561.213 433.1 561.213 433.666C561.213 434.226 561.098 434.725 560.869 435.164C560.639 435.602 560.322 435.943 559.917 436.186C559.519 436.429 559.074 436.55 558.582 436.55C558.11 436.55 557.691 436.445 557.327 436.236C556.97 436.021 556.696 435.754 556.507 435.437V439.09H555.587V430.914H556.507V431.936ZM560.272 433.666C560.272 433.248 560.187 432.884 560.019 432.573C559.85 432.263 559.621 432.027 559.331 431.865C559.047 431.703 558.734 431.622 558.39 431.622C558.052 431.622 557.739 431.707 557.448 431.875C557.165 432.037 556.936 432.277 556.76 432.594C556.592 432.904 556.507 433.265 556.507 433.676C556.507 434.095 556.592 434.462 556.76 434.779C556.936 435.09 557.165 435.329 557.448 435.498C557.739 435.66 558.052 435.741 558.39 435.741C558.734 435.741 559.047 435.66 559.331 435.498C559.621 435.329 559.85 435.09 560.019 434.779C560.187 434.462 560.272 434.091 560.272 433.666ZM563.345 431.815C563.507 431.498 563.737 431.251 564.033 431.076C564.337 430.901 564.705 430.813 565.136 430.813V431.764H564.894C563.861 431.764 563.345 432.324 563.345 433.444V436.459H562.425V430.914H563.345V431.815ZM566.675 430.013C566.499 430.013 566.351 429.953 566.23 429.831C566.108 429.71 566.047 429.562 566.047 429.386C566.047 429.211 566.108 429.062 566.23 428.941C566.351 428.82 566.499 428.759 566.675 428.759C566.843 428.759 566.985 428.82 567.1 428.941C567.221 429.062 567.282 429.211 567.282 429.386C567.282 429.562 567.221 429.71 567.1 429.831C566.985 429.953 566.843 430.013 566.675 430.013ZM567.12 430.914V436.459H566.199V430.914H567.12ZM569.61 428.971V436.459H568.689V428.971H569.61Z" fill="#92959E"/>
<path d="M714.629 429.457V436.459H713.709V431.238L711.381 436.459H710.734L708.396 431.228V436.459H707.476V429.457H708.467L711.057 435.245L713.648 429.457H714.629ZM715.847 433.666C715.847 433.1 715.962 432.604 716.191 432.179C716.42 431.747 716.734 431.413 717.132 431.177C717.537 430.941 717.985 430.823 718.478 430.823C718.963 430.823 719.385 430.928 719.742 431.137C720.1 431.346 720.366 431.609 720.542 431.926V430.914H721.473V436.459H720.542V435.427C720.36 435.751 720.087 436.021 719.722 436.236C719.365 436.445 718.946 436.55 718.468 436.55C717.975 436.55 717.53 436.429 717.132 436.186C716.734 435.943 716.42 435.602 716.191 435.164C715.962 434.725 715.847 434.226 715.847 433.666ZM720.542 433.676C720.542 433.258 720.458 432.894 720.289 432.584C720.12 432.273 719.891 432.037 719.601 431.875C719.317 431.707 719.004 431.622 718.66 431.622C718.316 431.622 718.002 431.703 717.719 431.865C717.435 432.027 717.209 432.263 717.041 432.573C716.872 432.884 716.788 433.248 716.788 433.666C716.788 434.091 716.872 434.462 717.041 434.779C717.209 435.09 717.435 435.329 717.719 435.498C718.002 435.66 718.316 435.741 718.66 435.741C719.004 435.741 719.317 435.66 719.601 435.498C719.891 435.329 720.12 435.09 720.289 434.779C720.458 434.462 720.542 434.095 720.542 433.676ZM727.805 430.914L724.466 439.07H723.514L724.607 436.398L722.371 430.914H723.393L725.133 435.407L726.854 430.914H727.805Z" fill="#92959E"/>
<path d="M858.229 429.457V436.459H857.308V431.238L854.981 436.459H854.333L851.996 431.228V436.459H851.075V429.457H852.067L854.657 435.245L857.247 429.457H858.229ZM859.446 433.666C859.446 433.1 859.561 432.604 859.79 432.179C860.02 431.747 860.333 431.413 860.731 431.177C861.136 430.941 861.585 430.823 862.077 430.823C862.563 430.823 862.984 430.928 863.342 431.137C863.7 431.346 863.966 431.609 864.141 431.926V430.914H865.072V436.459H864.141V435.427C863.959 435.751 863.686 436.021 863.322 436.236C862.964 436.445 862.546 436.55 862.067 436.55C861.575 436.55 861.129 436.429 860.731 436.186C860.333 435.943 860.02 435.602 859.79 435.164C859.561 434.725 859.446 434.226 859.446 433.666ZM864.141 433.676C864.141 433.258 864.057 432.894 863.888 432.584C863.72 432.273 863.49 432.037 863.2 431.875C862.917 431.707 862.603 431.622 862.259 431.622C861.915 431.622 861.602 431.703 861.318 431.865C861.035 432.027 860.809 432.263 860.64 432.573C860.472 432.884 860.387 433.248 860.387 433.666C860.387 434.091 860.472 434.462 860.64 434.779C860.809 435.09 861.035 435.329 861.318 435.498C861.602 435.66 861.915 435.741 862.259 435.741C862.603 435.741 862.917 435.66 863.2 435.498C863.49 435.329 863.72 435.09 863.888 434.779C864.057 434.462 864.141 434.095 864.141 433.676ZM871.404 430.914L868.065 439.07H867.114L868.207 436.398L865.971 430.914H866.993L868.733 435.407L870.453 430.914H871.404Z" fill="#92959E"/>
<path d="M665.754 411.86L665.754 91.918" stroke="#ECECEE" stroke-width="0.843209"/>
<circle cx="666.18" cy="92.3433" r="5.98974" fill="white" stroke="#3AA959" stroke-width="2.52963"/>
<circle cx="659.822" cy="413.48" r="5.98974" fill="white" stroke="#3AA959" stroke-width="2.52963"/>
<g filter="url(#filter0_d_2215:13317)">
<rect x="578.118" y="123.912" width="125.784" height="69.481" rx="10.1185" fill="white"/>
</g>
<path d="M589.268 142.022C590.137 142.022 590.888 142.186 591.521 142.513C592.162 142.834 592.649 143.295 592.985 143.897C593.328 144.499 593.499 145.208 593.499 146.024C593.499 146.84 593.328 147.549 592.985 148.151C592.649 148.746 592.162 149.203 591.521 149.523C590.888 149.836 590.137 149.992 589.268 149.992H586.787V142.022H589.268ZM589.268 149.135C590.298 149.135 591.083 148.864 591.624 148.323C592.165 147.774 592.436 147.008 592.436 146.024C592.436 145.033 592.162 144.259 591.613 143.703C591.071 143.146 590.29 142.868 589.268 142.868H587.827V149.135H589.268ZM594.483 146.836C594.483 146.196 594.613 145.635 594.872 145.155C595.131 144.667 595.486 144.29 595.936 144.023C596.393 143.756 596.9 143.623 597.457 143.623C598.005 143.623 598.482 143.741 598.886 143.977C599.29 144.213 599.591 144.511 599.789 144.869V143.726H600.841V149.992H599.789V148.826C599.584 149.192 599.275 149.497 598.863 149.741C598.459 149.977 597.986 150.095 597.445 150.095C596.889 150.095 596.385 149.958 595.936 149.683C595.486 149.409 595.131 149.024 594.872 148.528C594.613 148.033 594.483 147.469 594.483 146.836ZM599.789 146.847C599.789 146.375 599.694 145.963 599.503 145.612C599.313 145.262 599.054 144.995 598.726 144.812C598.406 144.621 598.051 144.526 597.662 144.526C597.274 144.526 596.919 144.617 596.599 144.8C596.279 144.983 596.023 145.25 595.833 145.601C595.642 145.952 595.547 146.363 595.547 146.836C595.547 147.316 595.642 147.736 595.833 148.094C596.023 148.445 596.279 148.715 596.599 148.906C596.919 149.089 597.274 149.18 597.662 149.18C598.051 149.18 598.406 149.089 598.726 148.906C599.054 148.715 599.313 148.445 599.503 148.094C599.694 147.736 599.789 147.32 599.789 146.847ZM603.137 142.708C602.939 142.708 602.772 142.639 602.634 142.502C602.497 142.365 602.428 142.197 602.428 141.999C602.428 141.801 602.497 141.633 602.634 141.496C602.772 141.358 602.939 141.29 603.137 141.29C603.328 141.29 603.488 141.358 603.618 141.496C603.755 141.633 603.824 141.801 603.824 141.999C603.824 142.197 603.755 142.365 603.618 142.502C603.488 142.639 603.328 142.708 603.137 142.708ZM603.641 143.726V149.992H602.6V143.726H603.641ZM606.455 141.53V149.992H605.414V141.53H606.455ZM613.626 143.726L609.852 152.943H608.777L610.012 149.924L607.485 143.726H608.64L610.607 148.803L612.551 143.726H613.626ZM625.806 142.079V149.992H624.765V144.091L622.135 149.992H621.403L618.761 144.08V149.992H617.721V142.079H618.842L621.769 148.62L624.696 142.079H625.806ZM633.288 146.619C633.288 146.817 633.277 147.027 633.254 147.248H628.245C628.283 147.865 628.493 148.349 628.874 148.7C629.263 149.043 629.732 149.215 630.281 149.215C630.731 149.215 631.104 149.112 631.401 148.906C631.706 148.692 631.92 148.41 632.042 148.06H633.163C632.995 148.662 632.659 149.154 632.156 149.535C631.653 149.908 631.028 150.095 630.281 150.095C629.686 150.095 629.152 149.962 628.68 149.695C628.215 149.428 627.849 149.051 627.582 148.563C627.315 148.067 627.182 147.495 627.182 146.847C627.182 146.199 627.311 145.631 627.571 145.144C627.83 144.656 628.192 144.282 628.657 144.023C629.13 143.756 629.671 143.623 630.281 143.623C630.875 143.623 631.401 143.752 631.859 144.011C632.316 144.271 632.667 144.629 632.911 145.086C633.163 145.536 633.288 146.047 633.288 146.619ZM632.213 146.401C632.213 146.005 632.126 145.666 631.95 145.384C631.775 145.094 631.535 144.877 631.23 144.732C630.933 144.579 630.601 144.503 630.235 144.503C629.709 144.503 629.259 144.671 628.886 145.006C628.52 145.342 628.31 145.807 628.257 146.401H632.213ZM637.715 143.611C638.478 143.611 639.095 143.844 639.568 144.309C640.04 144.766 640.277 145.429 640.277 146.299V149.992H639.248V146.447C639.248 145.822 639.091 145.346 638.779 145.018C638.466 144.682 638.039 144.515 637.498 144.515C636.949 144.515 636.511 144.686 636.183 145.029C635.863 145.372 635.703 145.872 635.703 146.527V149.992H634.662V143.726H635.703V144.617C635.908 144.297 636.187 144.05 636.537 143.874C636.896 143.699 637.288 143.611 637.715 143.611ZM643.246 144.583V148.277C643.246 148.582 643.311 148.799 643.44 148.929C643.57 149.051 643.795 149.112 644.115 149.112H644.881V149.992H643.944C643.364 149.992 642.93 149.859 642.64 149.592C642.35 149.325 642.205 148.887 642.205 148.277V144.583H641.393V143.726H642.205V142.147H643.246V143.726H644.881V144.583H643.246ZM648.875 150.095C648.288 150.095 647.755 149.962 647.274 149.695C646.802 149.428 646.428 149.051 646.154 148.563C645.887 148.067 645.753 147.495 645.753 146.847C645.753 146.207 645.891 145.643 646.165 145.155C646.447 144.659 646.828 144.282 647.309 144.023C647.789 143.756 648.326 143.623 648.921 143.623C649.516 143.623 650.053 143.756 650.533 144.023C651.014 144.282 651.391 144.656 651.665 145.144C651.948 145.631 652.089 146.199 652.089 146.847C652.089 147.495 651.944 148.067 651.654 148.563C651.372 149.051 650.987 149.428 650.499 149.695C650.011 149.962 649.47 150.095 648.875 150.095ZM648.875 149.18C649.249 149.18 649.599 149.093 649.927 148.917C650.255 148.742 650.518 148.479 650.716 148.128C650.922 147.778 651.025 147.351 651.025 146.847C651.025 146.344 650.926 145.917 650.728 145.567C650.53 145.216 650.27 144.957 649.95 144.789C649.63 144.614 649.283 144.526 648.91 144.526C648.528 144.526 648.178 144.614 647.857 144.789C647.545 144.957 647.293 145.216 647.103 145.567C646.912 145.917 646.817 146.344 646.817 146.847C646.817 147.358 646.908 147.789 647.091 148.14C647.282 148.49 647.533 148.753 647.846 148.929C648.159 149.096 648.502 149.18 648.875 149.18ZM654.497 144.743C654.68 144.385 654.94 144.107 655.275 143.908C655.618 143.71 656.034 143.611 656.522 143.611V144.686H656.247C655.081 144.686 654.497 145.319 654.497 146.584V149.992H653.457V143.726H654.497V144.743ZM661.812 149.146H664.602V149.992H660.772V142.022H661.812V149.146ZM668.441 150.095C667.854 150.095 667.32 149.962 666.84 149.695C666.367 149.428 665.993 149.051 665.719 148.563C665.452 148.067 665.319 147.495 665.319 146.847C665.319 146.207 665.456 145.643 665.73 145.155C666.013 144.659 666.394 144.282 666.874 144.023C667.354 143.756 667.892 143.623 668.486 143.623C669.081 143.623 669.619 143.756 670.099 144.023C670.579 144.282 670.957 144.656 671.231 145.144C671.513 145.631 671.654 146.199 671.654 146.847C671.654 147.495 671.509 148.067 671.22 148.563C670.937 149.051 670.552 149.428 670.065 149.695C669.577 149.962 669.035 150.095 668.441 150.095ZM668.441 149.18C668.814 149.18 669.165 149.093 669.493 148.917C669.821 148.742 670.084 148.479 670.282 148.128C670.488 147.778 670.591 147.351 670.591 146.847C670.591 146.344 670.491 145.917 670.293 145.567C670.095 145.216 669.836 144.957 669.516 144.789C669.195 144.614 668.849 144.526 668.475 144.526C668.094 144.526 667.743 144.614 667.423 144.789C667.11 144.957 666.859 145.216 666.668 145.567C666.478 145.917 666.382 146.344 666.382 146.847C666.382 147.358 666.474 147.789 666.657 148.14C666.847 148.49 667.099 148.753 667.411 148.929C667.724 149.096 668.067 149.18 668.441 149.18ZM675.607 143.623C676.148 143.623 676.621 143.741 677.025 143.977C677.436 144.213 677.741 144.511 677.94 144.869V143.726H678.992V150.129C678.992 150.701 678.87 151.208 678.626 151.65C678.382 152.1 678.031 152.451 677.574 152.702C677.124 152.954 676.598 153.08 675.996 153.08C675.172 153.08 674.486 152.885 673.937 152.497C673.388 152.108 673.064 151.578 672.965 150.907H673.994C674.109 151.288 674.345 151.593 674.703 151.822C675.062 152.058 675.492 152.176 675.996 152.176C676.567 152.176 677.032 151.997 677.391 151.639C677.757 151.281 677.94 150.777 677.94 150.129V148.814C677.734 149.18 677.429 149.485 677.025 149.729C676.621 149.973 676.148 150.095 675.607 150.095C675.05 150.095 674.543 149.958 674.086 149.683C673.636 149.409 673.282 149.024 673.022 148.528C672.763 148.033 672.634 147.469 672.634 146.836C672.634 146.196 672.763 145.635 673.022 145.155C673.282 144.667 673.636 144.29 674.086 144.023C674.543 143.756 675.05 143.623 675.607 143.623ZM677.94 146.847C677.94 146.375 677.844 145.963 677.654 145.612C677.463 145.262 677.204 144.995 676.876 144.812C676.556 144.621 676.201 144.526 675.813 144.526C675.424 144.526 675.069 144.617 674.749 144.8C674.429 144.983 674.173 145.25 673.983 145.601C673.792 145.952 673.697 146.363 673.697 146.836C673.697 147.316 673.792 147.736 673.983 148.094C674.173 148.445 674.429 148.715 674.749 148.906C675.069 149.089 675.424 149.18 675.813 149.18C676.201 149.18 676.556 149.089 676.876 148.906C677.204 148.715 677.463 148.445 677.654 148.094C677.844 147.736 677.94 147.32 677.94 146.847ZM681.288 142.708C681.089 142.708 680.922 142.639 680.785 142.502C680.647 142.365 680.579 142.197 680.579 141.999C680.579 141.801 680.647 141.633 680.785 141.496C680.922 141.358 681.089 141.29 681.288 141.29C681.478 141.29 681.638 141.358 681.768 141.496C681.905 141.633 681.974 141.801 681.974 141.999C681.974 142.197 681.905 142.365 681.768 142.502C681.638 142.639 681.478 142.708 681.288 142.708ZM681.791 143.726V149.992H680.75V143.726H681.791ZM686.618 143.611C687.38 143.611 687.998 143.844 688.47 144.309C688.943 144.766 689.179 145.429 689.179 146.299V149.992H688.15V146.447C688.15 145.822 687.994 145.346 687.681 145.018C687.369 144.682 686.942 144.515 686.4 144.515C685.852 144.515 685.413 144.686 685.085 145.029C684.765 145.372 684.605 145.872 684.605 146.527V149.992H683.564V143.726H684.605V144.617C684.811 144.297 685.089 144.05 685.44 143.874C685.798 143.699 686.191 143.611 686.618 143.611ZM693.098 150.095C692.617 150.095 692.187 150.015 691.805 149.855C691.424 149.687 691.123 149.459 690.902 149.169C690.681 148.872 690.559 148.532 690.536 148.151H691.611C691.642 148.464 691.786 148.719 692.046 148.917C692.312 149.115 692.659 149.215 693.086 149.215C693.483 149.215 693.795 149.127 694.024 148.952C694.253 148.776 694.367 148.555 694.367 148.288C694.367 148.014 694.245 147.812 694.001 147.682C693.757 147.545 693.38 147.412 692.869 147.282C692.404 147.16 692.023 147.038 691.725 146.916C691.436 146.786 691.184 146.6 690.971 146.356C690.765 146.104 690.662 145.776 690.662 145.372C690.662 145.052 690.757 144.759 690.948 144.492C691.138 144.225 691.409 144.015 691.76 143.863C692.11 143.703 692.511 143.623 692.96 143.623C693.654 143.623 694.215 143.798 694.641 144.149C695.068 144.499 695.297 144.98 695.328 145.59H694.287C694.264 145.262 694.131 144.999 693.887 144.8C693.65 144.602 693.33 144.503 692.926 144.503C692.553 144.503 692.255 144.583 692.034 144.743C691.813 144.903 691.703 145.113 691.703 145.372C691.703 145.578 691.767 145.75 691.897 145.887C692.034 146.016 692.202 146.123 692.4 146.207C692.606 146.283 692.888 146.371 693.246 146.47C693.696 146.592 694.062 146.714 694.344 146.836C694.626 146.95 694.866 147.126 695.065 147.362C695.27 147.598 695.377 147.907 695.385 148.288C695.385 148.631 695.289 148.94 695.099 149.215C694.908 149.489 694.638 149.706 694.287 149.866C693.944 150.019 693.547 150.095 693.098 150.095Z" fill="#92959E"/>
<path d="M631.127 175.421C632.554 174.274 633.673 173.336 634.483 172.605C635.292 171.863 635.972 171.093 636.523 170.295C637.085 169.485 637.366 168.692 637.366 167.917C637.366 167.186 637.186 166.613 636.827 166.197C636.478 165.769 635.91 165.556 635.123 165.556C634.359 165.556 633.763 165.797 633.336 166.281C632.92 166.753 632.695 167.388 632.661 168.187H631.177C631.222 166.927 631.604 165.955 632.324 165.269C633.043 164.583 633.971 164.24 635.107 164.24C636.265 164.24 637.181 164.561 637.855 165.202C638.541 165.842 638.884 166.725 638.884 167.849C638.884 168.782 638.603 169.693 638.041 170.581C637.49 171.458 636.86 172.234 636.152 172.908C635.444 173.572 634.539 174.348 633.437 175.236H639.238V176.517H631.127V175.421ZM648.787 165.792H642.867V169.637C643.126 169.277 643.508 168.985 644.014 168.76C644.52 168.524 645.065 168.406 645.65 168.406C646.583 168.406 647.342 168.603 647.927 168.996C648.511 169.378 648.927 169.879 649.175 170.497C649.433 171.104 649.562 171.75 649.562 172.436C649.562 173.246 649.411 173.971 649.107 174.612C648.804 175.253 648.337 175.759 647.707 176.13C647.089 176.501 646.319 176.686 645.397 176.686C644.216 176.686 643.261 176.383 642.53 175.775C641.799 175.168 641.355 174.359 641.198 173.347H642.699C642.845 173.988 643.154 174.488 643.626 174.848C644.098 175.208 644.694 175.388 645.414 175.388C646.302 175.388 646.971 175.123 647.421 174.595C647.87 174.055 648.095 173.347 648.095 172.47C648.095 171.593 647.87 170.919 647.421 170.446C646.971 169.963 646.308 169.721 645.431 169.721C644.835 169.721 644.312 169.867 643.862 170.16C643.424 170.441 643.103 170.829 642.901 171.323H641.451V164.443H648.787V165.792Z" fill="#15192C"/>
<defs>
<filter id="filter0_d_2215:13317" x="554.508" y="115.48" width="173.004" height="116.7" filterUnits="userSpaceOnUse" color-interpolation-filters="sRGB">
<feFlood flood-opacity="0" result="BackgroundImageFix"/>
<feColorMatrix in="SourceAlpha" type="matrix" values="0 0 0 0 0 0 0 0 0 0 0 0 0 0 0 0 0 0 127 0" result="hardAlpha"/>
<feMorphology radius="3.37284" operator="erode" in="SourceAlpha" result="effect1_dropShadow_2215:13317"/>
<feOffset dy="15.1778"/>
<feGaussianBlur stdDeviation="13.4914"/>
<feColorMatrix type="matrix" values="0 0 0 0 0.815686 0 0 0 0 0.823529 0 0 0 0 0.854902 0 0 0 0.15 0"/>
<feBlend mode="normal" in2="BackgroundImageFix" result="effect1_dropShadow_2215:13317"/>
<feBlend mode="normal" in="SourceGraphic" in2="effect1_dropShadow_2215:13317" result="shape"/>
</filter>
<linearGradient id="paint0_linear_2215:13317" x1="495.191" y1="1.41247" x2="495.191" y2="426.752" gradientUnits="userSpaceOnUse">
<stop stop-color="#EAFFF0"/>
<stop offset="1" stop-color="#F3FFF6"/>
</linearGradient>
</defs>
</svg>
