<svg width="475" height="271" viewBox="0 0 475 271" fill="none" xmlns="http://www.w3.org/2000/svg">
<rect x="0.725461" y="1.05993" width="473.804" height="269.271" rx="4.22202" fill="white" stroke="#E5E5E5" stroke-width="0.938226"/>
<path d="M20.4166 33.54V23.0619H26.8115V24.1728H21.6776V27.6855H26.5113V28.7964H21.6776V32.4292H26.8115V33.54H20.4166ZM31.1725 33.54L28.4554 25.794H29.6564L31.0074 29.637L31.8481 32.2791H31.9231L32.7638 29.637L34.1448 25.794H35.3007L32.5686 33.54H31.1725ZM40.0575 33.7202C39.5271 33.7202 39.0468 33.6251 38.6164 33.435C38.1961 33.2448 37.8308 32.9746 37.5206 32.6243C37.2203 32.2641 36.9852 31.8387 36.815 31.3483C36.6549 30.848 36.5748 30.2875 36.5748 29.667C36.5748 29.0566 36.6549 28.5011 36.815 28.0008C36.9852 27.5004 37.2203 27.075 37.5206 26.7248C37.8308 26.3645 38.1961 26.0893 38.6164 25.8991C39.0468 25.709 39.5271 25.6139 40.0575 25.6139C40.5779 25.6139 41.0433 25.709 41.4536 25.8991C41.8639 26.0893 42.2142 26.3545 42.5044 26.6947C42.7947 27.025 43.0148 27.4203 43.1649 27.8807C43.3251 28.341 43.4051 28.8464 43.4051 29.3968V29.9673H37.8358V30.3276C37.8358 30.6578 37.8859 30.968 37.9859 31.2583C38.096 31.5385 38.2461 31.7837 38.4363 31.9938C38.6364 32.204 38.8766 32.3691 39.1568 32.4892C39.4471 32.6093 39.7723 32.6694 40.1326 32.6694C40.623 32.6694 41.0483 32.5543 41.4086 32.3241C41.7789 32.0939 42.0641 31.7637 42.2642 31.3333L43.1199 31.9488C42.8697 32.4792 42.4794 32.9096 41.949 33.2398C41.4186 33.5601 40.7881 33.7202 40.0575 33.7202ZM40.0575 26.6197C39.7273 26.6197 39.427 26.6797 39.1568 26.7998C38.8866 26.9099 38.6514 27.07 38.4513 27.2802C38.2611 27.4904 38.111 27.7405 38.0009 28.0308C37.8909 28.311 37.8358 28.6212 37.8358 28.9615V29.0666H42.1141V28.9014C42.1141 28.2109 41.924 27.6605 41.5437 27.2502C41.1734 26.8298 40.678 26.6197 40.0575 26.6197ZM45.7969 33.54V25.794H46.9978V27.055H47.0579C47.248 26.6147 47.5132 26.2644 47.8535 26.0042C48.2038 25.744 48.6691 25.6139 49.2496 25.6139C50.0502 25.6139 50.6807 25.8741 51.141 26.3945C51.6114 26.9049 51.8466 27.6305 51.8466 28.5712V33.54H50.6457V28.7814C50.6457 27.3903 50.0602 26.6947 48.8893 26.6947C48.6491 26.6947 48.4139 26.7248 48.1837 26.7848C47.9636 26.8449 47.7634 26.9349 47.5833 27.055C47.4031 27.1751 47.258 27.3302 47.1479 27.5204C47.0479 27.7005 46.9978 27.9157 46.9978 28.1659V33.54H45.7969ZM56.453 33.54C56.0327 33.54 55.7125 33.4249 55.4923 33.1948C55.2821 32.9546 55.177 32.6443 55.177 32.2641V26.8449H53.9011V25.794H54.6216C54.8818 25.794 55.057 25.744 55.147 25.6439C55.2471 25.5338 55.2971 25.3487 55.2971 25.0885V23.6474H56.378V25.794H58.0743V26.8449H56.378V32.4892H57.9542V33.54H56.453ZM62.7442 33.7202C62.0236 33.7202 61.4182 33.5851 60.9278 33.3149C60.4474 33.0346 60.0321 32.6644 59.6818 32.204L60.5375 31.5135C60.8377 31.8938 61.173 32.189 61.5433 32.3992C61.9136 32.5993 62.3439 32.6994 62.8343 32.6994C63.3447 32.6994 63.74 32.5893 64.0202 32.3691C64.3104 32.149 64.4555 31.8387 64.4555 31.4384C64.4555 31.1382 64.3554 30.883 64.1553 30.6728C63.9651 30.4526 63.6149 30.3025 63.1045 30.2225L62.489 30.1324C62.1287 30.0824 61.7985 30.0073 61.4982 29.9072C61.198 29.7971 60.9328 29.657 60.7026 29.4869C60.4824 29.3068 60.3073 29.0866 60.1772 28.8264C60.0571 28.5662 59.9971 28.2559 59.9971 27.8957C59.9971 27.5154 60.0671 27.1851 60.2072 26.9049C60.3473 26.6147 60.5375 26.3745 60.7777 26.1843C61.0279 25.9942 61.3231 25.8541 61.6634 25.764C62.0036 25.6639 62.3689 25.6139 62.7592 25.6139C63.3897 25.6139 63.9151 25.724 64.3354 25.9442C64.7658 26.1643 65.1411 26.4696 65.4613 26.8599L64.6657 27.5804C64.4956 27.3402 64.2454 27.1251 63.9151 26.9349C63.5848 26.7348 63.1695 26.6347 62.6691 26.6347C62.1688 26.6347 61.7885 26.7448 61.5283 26.9649C61.2781 27.1751 61.153 27.4653 61.153 27.8356C61.153 28.2159 61.2781 28.4911 61.5283 28.6613C61.7885 28.8314 62.1587 28.9565 62.6391 29.0366L63.2396 29.1266C64.1002 29.2567 64.7107 29.5069 65.071 29.8772C65.4313 30.2375 65.6114 30.7129 65.6114 31.3033C65.6114 32.0539 65.3562 32.6443 64.8458 33.0747C64.3354 33.505 63.6349 33.7202 62.7442 33.7202ZM73.8173 33.54L71.1002 25.794H72.3011L73.6521 29.637L74.4928 32.2791H74.5678L75.4085 29.637L76.7896 25.794H77.9455L75.2133 33.54H73.8173ZM82.2341 33.7202C81.5135 33.7202 80.9081 33.5851 80.4177 33.3149C79.9373 33.0346 79.522 32.6644 79.1717 32.204L80.0274 31.5135C80.3276 31.8938 80.6629 32.189 81.0332 32.3992C81.4034 32.5993 81.8338 32.6994 82.3242 32.6994C82.8346 32.6994 83.2299 32.5893 83.5101 32.3691C83.8003 32.149 83.9454 31.8387 83.9454 31.4384C83.9454 31.1382 83.8453 30.883 83.6452 30.6728C83.455 30.4526 83.1048 30.3025 82.5944 30.2225L81.9789 30.1324C81.6186 30.0824 81.2884 30.0073 80.9881 29.9072C80.6879 29.7971 80.4227 29.657 80.1925 29.4869C79.9723 29.3068 79.7972 29.0866 79.6671 28.8264C79.547 28.5662 79.487 28.2559 79.487 27.8957C79.487 27.5154 79.557 27.1851 79.6971 26.9049C79.8372 26.6147 80.0274 26.3745 80.2676 26.1843C80.5178 25.9942 80.813 25.8541 81.1533 25.764C81.4935 25.6639 81.8588 25.6139 82.2491 25.6139C82.8796 25.6139 83.405 25.724 83.8253 25.9442C84.2557 26.1643 84.6309 26.4696 84.9512 26.8599L84.1556 27.5804C83.9854 27.3402 83.7353 27.1251 83.405 26.9349C83.0747 26.7348 82.6594 26.6347 82.159 26.6347C81.6586 26.6347 81.2784 26.7448 81.0181 26.9649C80.768 27.1751 80.6429 27.4653 80.6429 27.8356C80.6429 28.2159 80.768 28.4911 81.0181 28.6613C81.2784 28.8314 81.6486 28.9565 82.129 29.0366L82.7295 29.1266C83.5901 29.2567 84.2006 29.5069 84.5609 29.8772C84.9212 30.2375 85.1013 30.7129 85.1013 31.3033C85.1013 32.0539 84.8461 32.6443 84.3357 33.0747C83.8253 33.505 83.1248 33.7202 82.2341 33.7202ZM91.2205 33.54V32.4892H92.6917V24.1127H91.2205V23.0619H95.4238V24.1127H93.9527V32.4892H95.4238V33.54H91.2205ZM98.0192 33.54V25.794H99.2201V27.055H99.2801C99.4703 26.6147 99.7355 26.2644 100.076 26.0042C100.426 25.744 100.891 25.6139 101.472 25.6139C102.272 25.6139 102.903 25.8741 103.363 26.3945C103.834 26.9049 104.069 27.6305 104.069 28.5712V33.54H102.868V28.7814C102.868 27.3903 102.282 26.6947 101.112 26.6947C100.871 26.6947 100.636 26.7248 100.406 26.7848C100.186 26.8449 99.9857 26.9349 99.8055 27.055C99.6254 27.1751 99.4803 27.3302 99.3702 27.5204C99.2701 27.7005 99.2201 27.9157 99.2201 28.1659V33.54H98.0192ZM111.918 32.2791H111.858C111.387 33.2398 110.632 33.7202 109.591 33.7202C109.111 33.7202 108.675 33.6251 108.285 33.435C107.895 33.2448 107.559 32.9746 107.279 32.6243C107.009 32.2741 106.799 31.8487 106.649 31.3483C106.509 30.848 106.439 30.2875 106.439 29.667C106.439 29.0466 106.509 28.4861 106.649 27.9857C106.799 27.4854 107.009 27.06 107.279 26.7098C107.559 26.3595 107.895 26.0893 108.285 25.8991C108.675 25.709 109.111 25.6139 109.591 25.6139C110.131 25.6139 110.592 25.734 110.972 25.9742C111.362 26.2044 111.658 26.5646 111.858 27.055H111.918V22.4314H113.119V33.54H111.918V32.2791ZM109.921 32.6393C110.191 32.6393 110.447 32.6043 110.687 32.5343C110.937 32.4642 111.152 32.3641 111.332 32.234C111.512 32.0939 111.653 31.9288 111.753 31.7386C111.863 31.5385 111.918 31.3133 111.918 31.0631V28.1809C111.918 27.9707 111.863 27.7756 111.753 27.5954C111.653 27.4053 111.512 27.2452 111.332 27.1151C111.152 26.985 110.937 26.8849 110.687 26.8148C110.447 26.7348 110.191 26.6947 109.921 26.6947C109.241 26.6947 108.705 26.9099 108.315 27.3402C107.925 27.7606 107.73 28.316 107.73 29.0065V30.3276C107.73 31.0181 107.925 31.5785 108.315 32.0089C108.705 32.4292 109.241 32.6393 109.921 32.6393ZM120.858 32.2791H120.798C120.718 32.4592 120.618 32.6393 120.498 32.8195C120.388 32.9896 120.248 33.1447 120.078 33.2848C119.908 33.4149 119.703 33.52 119.462 33.6001C119.222 33.6801 118.942 33.7202 118.622 33.7202C117.821 33.7202 117.186 33.465 116.715 32.9546C116.245 32.4342 116.01 31.7036 116.01 30.7629V25.794H117.211V30.5527C117.211 31.9438 117.801 32.6393 118.982 32.6393C119.222 32.6393 119.452 32.6093 119.672 32.5493C119.903 32.4892 120.103 32.3992 120.273 32.2791C120.453 32.159 120.593 32.0089 120.693 31.8287C120.803 31.6386 120.858 31.4134 120.858 31.1532V25.794H122.059V33.54H120.858V32.2791ZM127.356 33.7202C126.636 33.7202 126.03 33.5851 125.54 33.3149C125.06 33.0346 124.644 32.6644 124.294 32.204L125.15 31.5135C125.45 31.8938 125.785 32.189 126.155 32.3992C126.526 32.5993 126.956 32.6994 127.446 32.6994C127.957 32.6994 128.352 32.5893 128.632 32.3691C128.923 32.149 129.068 31.8387 129.068 31.4384C129.068 31.1382 128.968 30.883 128.767 30.6728C128.577 30.4526 128.227 30.3025 127.717 30.2225L127.101 30.1324C126.741 30.0824 126.411 30.0073 126.11 29.9072C125.81 29.7971 125.545 29.657 125.315 29.4869C125.095 29.3068 124.919 29.0866 124.789 28.8264C124.669 28.5662 124.609 28.2559 124.609 27.8957C124.609 27.5154 124.679 27.1851 124.819 26.9049C124.959 26.6147 125.15 26.3745 125.39 26.1843C125.64 25.9942 125.935 25.8541 126.275 25.764C126.616 25.6639 126.981 25.6139 127.371 25.6139C128.002 25.6139 128.527 25.724 128.948 25.9442C129.378 26.1643 129.753 26.4696 130.073 26.8599L129.278 27.5804C129.108 27.3402 128.857 27.1251 128.527 26.9349C128.197 26.7348 127.782 26.6347 127.281 26.6347C126.781 26.6347 126.401 26.7448 126.14 26.9649C125.89 27.1751 125.765 27.4653 125.765 27.8356C125.765 28.2159 125.89 28.4911 126.14 28.6613C126.401 28.8314 126.771 28.9565 127.251 29.0366L127.852 29.1266C128.712 29.2567 129.323 29.5069 129.683 29.8772C130.043 30.2375 130.224 30.7129 130.224 31.3033C130.224 32.0539 129.968 32.6443 129.458 33.0747C128.948 33.505 128.247 33.7202 127.356 33.7202ZM134.366 33.54C133.946 33.54 133.626 33.4249 133.406 33.1948C133.195 32.9546 133.09 32.6443 133.09 32.2641V26.8449H131.814V25.794H132.535C132.795 25.794 132.97 25.744 133.06 25.6439C133.16 25.5338 133.21 25.3487 133.21 25.0885V23.6474H134.291V25.794H135.988V26.8449H134.291V32.4892H135.867V33.54H134.366ZM138.331 33.54V25.794H139.532V27.2201H139.607C139.747 26.8499 139.997 26.5196 140.357 26.2294C140.717 25.9392 141.213 25.794 141.843 25.794H142.309V26.995H141.603C140.953 26.995 140.442 27.1201 140.072 27.3703C139.712 27.6104 139.532 27.9157 139.532 28.286V33.54H138.331ZM149.176 25.794H150.362L146.894 35.3414C146.804 35.5716 146.714 35.7618 146.624 35.9119C146.534 36.072 146.424 36.1971 146.294 36.2872C146.163 36.3772 145.998 36.4423 145.798 36.4823C145.608 36.5223 145.373 36.5424 145.093 36.5424H144.477V35.4915H145.693L146.279 33.8403L143.381 25.794H144.582L146.444 31.0631L146.804 32.3241H146.879L147.299 31.0631L149.176 25.794Z" fill="#263238"/>
<g opacity="0.4">
<g opacity="0.8">
<rect x="319.254" y="56.8838" width="10.2033" height="10.2033" rx="5.10166" fill="#F4B043"/>
</g>
</g>
<path d="M325.559 81.4883L323.069 74.3664H321.977L319.488 81.4883H320.355L321.069 79.3864H323.946L324.661 81.4883H325.559ZM323.732 78.6314H321.273L322.477 75.1622H322.528L323.732 78.6314ZM329.599 81.4883V80.774H328.599V75.0806H329.599V74.3664H326.742V75.0806H327.742V80.774H326.742V81.4883H329.599Z" fill="#F39C12"/>
<g opacity="0.8">
<rect x="319.253" y="99.8164" width="10.2033" height="10.2033" rx="5.10166" fill="#F4B043"/>
</g>
<path d="M322.722 124.42V123.706H321.722V118.012H322.722V117.298H319.865V118.012H320.865V123.706H319.865V124.42H322.722ZM327.29 124.542C329.127 124.542 330.311 123.247 330.311 120.859C330.311 118.471 329.127 117.176 327.29 117.176C325.454 117.176 324.27 118.471 324.27 120.859C324.27 123.247 325.454 124.542 327.29 124.542ZM327.29 123.777C326.056 123.777 325.188 122.859 325.188 121.451V120.267C325.188 118.859 326.056 117.941 327.29 117.941C328.525 117.941 329.392 118.859 329.392 120.267V121.451C329.392 122.859 328.525 123.777 327.29 123.777ZM336.655 118.053V117.298H331.268V118.053H333.533V124.42H334.39V118.053H336.655Z" fill="#F39C12"/>
<rect x="319.253" y="142.749" width="10.2033" height="10.2033" rx="5.10166" fill="#F39C12"/>
<path d="M325.559 167.354L323.069 160.232H321.977L319.488 167.354H320.355L321.069 165.252H323.946L324.661 167.354H325.559ZM323.732 164.497H321.273L322.477 161.027H322.528L323.732 164.497ZM327.936 164.293H329.599L331.139 167.354H332.109L330.476 164.211C331.405 163.997 331.905 163.293 331.905 162.252C331.905 160.956 331.16 160.232 329.915 160.232H327.078V167.354H327.936V164.293ZM327.936 163.558V160.987H329.915C330.588 160.987 330.986 161.354 330.986 162.007V162.538C330.986 163.191 330.588 163.558 329.915 163.558H327.936ZM333.723 168.894L336.386 159.803H335.651L332.988 168.894H333.723ZM340.954 167.354L343.352 160.232H342.464L341.28 163.823L340.474 166.496H340.423L339.638 163.823L338.464 160.232H337.546L339.913 167.354H340.954ZM345.706 164.293H347.369L348.909 167.354H349.879L348.246 164.211C349.175 163.997 349.675 163.293 349.675 162.252C349.675 160.956 348.93 160.232 347.685 160.232H344.849V167.354H345.706V164.293ZM345.706 163.558V160.987H347.685C348.359 160.987 348.756 161.354 348.756 162.007V162.538C348.756 163.191 348.359 163.558 347.685 163.558H345.706Z" fill="#F39C12"/>
<g opacity="0.16">
<rect x="319.253" y="185.681" width="10.2033" height="10.2033" rx="5.10166" fill="#F39C12"/>
</g>
<path d="M321.059 207.049H322.722L324.263 210.11H325.232L323.6 206.968C324.528 206.753 325.028 206.049 325.028 205.009C325.028 203.713 324.283 202.988 323.038 202.988H320.202V210.11H321.059V207.049ZM321.059 206.315V203.743H323.038C323.712 203.743 324.11 204.111 324.11 204.764V205.294C324.11 205.947 323.712 206.315 323.038 206.315H321.059ZM328.827 210.233C330.235 210.233 331.204 209.151 331.204 207.478C331.204 205.805 330.235 204.723 328.827 204.723C327.419 204.723 326.45 205.805 326.45 207.478C326.45 209.151 327.419 210.233 328.827 210.233ZM328.827 209.508C327.95 209.508 327.327 208.968 327.327 207.855V207.1C327.327 205.988 327.95 205.447 328.827 205.447C329.705 205.447 330.327 205.988 330.327 207.1V207.855C330.327 208.968 329.705 209.508 328.827 209.508ZM332.887 210.11H333.703V209.253H333.744C334.06 209.906 334.56 210.233 335.285 210.233C336.601 210.233 337.427 209.161 337.427 207.478C337.427 205.794 336.601 204.723 335.285 204.723C334.56 204.723 334.02 205.039 333.744 205.703H333.703V202.56H332.887V210.11ZM335.06 209.498C334.315 209.498 333.703 209.11 333.703 208.427V206.468C333.703 205.886 334.315 205.458 335.06 205.458C335.979 205.458 336.55 206.09 336.55 207.029V207.927C336.55 208.866 335.979 209.498 335.06 209.498ZM341.135 210.233C342.544 210.233 343.513 209.151 343.513 207.478C343.513 205.805 342.544 204.723 341.135 204.723C339.727 204.723 338.758 205.805 338.758 207.478C338.758 209.151 339.727 210.233 341.135 210.233ZM341.135 209.508C340.258 209.508 339.636 208.968 339.636 207.855V207.1C339.636 205.988 340.258 205.447 341.135 205.447C342.013 205.447 342.635 205.988 342.635 207.1V207.855C342.635 208.968 342.013 209.508 341.135 209.508ZM347.379 210.11V209.396H346.308V205.56H347.461V204.845H346.308V203.386H345.573V204.366C345.573 204.723 345.461 204.845 345.114 204.845H344.624V205.56H345.491V209.243C345.491 209.753 345.797 210.11 346.359 210.11H347.379ZM349.521 203.611C349.868 203.611 350.021 203.427 350.021 203.152V203.019C350.021 202.744 349.868 202.56 349.521 202.56C349.174 202.56 349.021 202.744 349.021 203.019V203.152C349.021 203.427 349.174 203.611 349.521 203.611ZM349.113 210.11H349.929V204.845H349.113V210.11ZM353.963 210.233C354.963 210.233 355.646 209.743 355.983 208.988L355.391 208.59C355.105 209.192 354.626 209.508 353.963 209.508C352.993 209.508 352.493 208.845 352.493 207.927V207.029C352.493 206.111 352.993 205.447 353.963 205.447C354.605 205.447 355.054 205.764 355.248 206.305L355.932 205.958C355.626 205.233 355.003 204.723 353.963 204.723C352.483 204.723 351.616 205.794 351.616 207.478C351.616 209.161 352.483 210.233 353.963 210.233ZM359.057 210.233C360.261 210.233 361.006 209.61 361.006 208.59C361.006 207.794 360.557 207.284 359.393 207.111L358.985 207.049C358.332 206.947 357.975 206.743 357.975 206.233C357.975 205.733 358.332 205.417 359.006 205.417C359.679 205.417 360.128 205.733 360.363 206.06L360.904 205.57C360.475 205.039 359.914 204.723 359.067 204.723C357.996 204.723 357.19 205.233 357.19 206.274C357.19 207.253 357.914 207.651 358.883 207.794L359.302 207.855C359.995 207.957 360.22 208.274 360.22 208.682C360.22 209.223 359.812 209.539 359.118 209.539C358.455 209.539 357.965 209.243 357.557 208.733L356.975 209.202C357.445 209.825 358.087 210.233 359.057 210.233Z" fill="#F39C12"/>
<g opacity="0.4">
<g opacity="0.8">
<rect x="388.682" y="56.8838" width="10.2033" height="10.2033" rx="5.10166" fill="#F4B043"/>
</g>
</g>
<path d="M394.988 81.4883L392.498 74.3664H391.406L388.917 81.4883H389.784L390.498 79.3864H393.376L394.09 81.4883H394.988ZM393.161 78.6314H390.702L391.906 75.1622H391.957L393.161 78.6314ZM399.028 81.4883V80.774H398.028V75.0806H399.028V74.3664H396.171V75.0806H397.171V80.774H396.171V81.4883H399.028Z" fill="#F39C12"/>
<g opacity="0.8">
<rect x="388.682" y="99.8164" width="10.2033" height="10.2033" rx="5.10166" fill="#F4B043"/>
</g>
<path d="M392.151 124.42V123.706H391.151V118.012H392.151V117.298H389.294V118.012H390.294V123.706H389.294V124.42H392.151ZM396.72 124.542C398.556 124.542 399.74 123.247 399.74 120.859C399.74 118.471 398.556 117.176 396.72 117.176C394.883 117.176 393.699 118.471 393.699 120.859C393.699 123.247 394.883 124.542 396.72 124.542ZM396.72 123.777C395.485 123.777 394.618 122.859 394.618 121.451V120.267C394.618 118.859 395.485 117.941 396.72 117.941C397.954 117.941 398.821 118.859 398.821 120.267V121.451C398.821 122.859 397.954 123.777 396.72 123.777ZM406.084 118.053V117.298H400.697V118.053H402.962V124.42H403.819V118.053H406.084Z" fill="#F39C12"/>
<rect x="388.682" y="142.749" width="10.2033" height="10.2033" rx="5.10166" fill="#F39C12"/>
<path d="M394.988 167.354L392.498 160.232H391.406L388.917 167.354H389.784L390.498 165.252H393.376L394.09 167.354H394.988ZM393.161 164.497H390.702L391.906 161.027H391.957L393.161 164.497ZM397.365 164.293H399.028L400.569 167.354H401.538L399.905 164.211C400.834 163.997 401.334 163.293 401.334 162.252C401.334 160.956 400.589 160.232 399.344 160.232H396.508V167.354H397.365V164.293ZM397.365 163.558V160.987H399.344C400.018 160.987 400.416 161.354 400.416 162.007V162.538C400.416 163.191 400.018 163.558 399.344 163.558H397.365ZM403.152 168.894L405.815 159.803H405.081L402.418 168.894H403.152ZM410.383 167.354L412.781 160.232H411.893L410.71 163.823L409.904 166.496H409.853L409.067 163.823L407.893 160.232H406.975L409.342 167.354H410.383ZM415.135 164.293H416.798L418.339 167.354H419.308L417.675 164.211C418.604 163.997 419.104 163.293 419.104 162.252C419.104 160.956 418.359 160.232 417.114 160.232H414.278V167.354H415.135V164.293ZM415.135 163.558V160.987H417.114C417.788 160.987 418.186 161.354 418.186 162.007V162.538C418.186 163.191 417.788 163.558 417.114 163.558H415.135Z" fill="#F39C12"/>
<g opacity="0.16">
<rect x="388.682" y="185.681" width="10.2033" height="10.2033" rx="5.10166" fill="#F39C12"/>
</g>
<path d="M390.488 207.049H392.151L393.692 210.11H394.661L393.029 206.968C393.957 206.753 394.457 206.049 394.457 205.009C394.457 203.713 393.712 202.988 392.468 202.988H389.631V210.11H390.488V207.049ZM390.488 206.315V203.743H392.468C393.141 203.743 393.539 204.111 393.539 204.764V205.294C393.539 205.947 393.141 206.315 392.468 206.315H390.488ZM398.256 210.233C399.664 210.233 400.634 209.151 400.634 207.478C400.634 205.805 399.664 204.723 398.256 204.723C396.848 204.723 395.879 205.805 395.879 207.478C395.879 209.151 396.848 210.233 398.256 210.233ZM398.256 209.508C397.379 209.508 396.756 208.968 396.756 207.855V207.1C396.756 205.988 397.379 205.447 398.256 205.447C399.134 205.447 399.756 205.988 399.756 207.1V207.855C399.756 208.968 399.134 209.508 398.256 209.508ZM402.316 210.11H403.132V209.253H403.173C403.49 209.906 403.99 210.233 404.714 210.233C406.03 210.233 406.857 209.161 406.857 207.478C406.857 205.794 406.03 204.723 404.714 204.723C403.99 204.723 403.449 205.039 403.173 205.703H403.132V202.56H402.316V210.11ZM404.489 209.498C403.745 209.498 403.132 209.11 403.132 208.427V206.468C403.132 205.886 403.745 205.458 404.489 205.458C405.408 205.458 405.979 206.09 405.979 207.029V207.927C405.979 208.866 405.408 209.498 404.489 209.498ZM410.565 210.233C411.973 210.233 412.942 209.151 412.942 207.478C412.942 205.805 411.973 204.723 410.565 204.723C409.157 204.723 408.187 205.805 408.187 207.478C408.187 209.151 409.157 210.233 410.565 210.233ZM410.565 209.508C409.687 209.508 409.065 208.968 409.065 207.855V207.1C409.065 205.988 409.687 205.447 410.565 205.447C411.442 205.447 412.065 205.988 412.065 207.1V207.855C412.065 208.968 411.442 209.508 410.565 209.508ZM416.808 210.11V209.396H415.737V205.56H416.89V204.845H415.737V203.386H415.002V204.366C415.002 204.723 414.89 204.845 414.543 204.845H414.053V205.56H414.92V209.243C414.92 209.753 415.227 210.11 415.788 210.11H416.808ZM418.95 203.611C419.297 203.611 419.45 203.427 419.45 203.152V203.019C419.45 202.744 419.297 202.56 418.95 202.56C418.603 202.56 418.45 202.744 418.45 203.019V203.152C418.45 203.427 418.603 203.611 418.95 203.611ZM418.542 210.11H419.358V204.845H418.542V210.11ZM423.392 210.233C424.392 210.233 425.075 209.743 425.412 208.988L424.82 208.59C424.535 209.192 424.055 209.508 423.392 209.508C422.423 209.508 421.923 208.845 421.923 207.927V207.029C421.923 206.111 422.423 205.447 423.392 205.447C424.035 205.447 424.484 205.764 424.677 206.305L425.361 205.958C425.055 205.233 424.433 204.723 423.392 204.723C421.912 204.723 421.045 205.794 421.045 207.478C421.045 209.161 421.912 210.233 423.392 210.233ZM428.486 210.233C429.69 210.233 430.435 209.61 430.435 208.59C430.435 207.794 429.986 207.284 428.823 207.111L428.415 207.049C427.762 206.947 427.404 206.743 427.404 206.233C427.404 205.733 427.762 205.417 428.435 205.417C429.108 205.417 429.557 205.733 429.792 206.06L430.333 205.57C429.904 205.039 429.343 204.723 428.496 204.723C427.425 204.723 426.619 205.233 426.619 206.274C426.619 207.253 427.343 207.651 428.313 207.794L428.731 207.855C429.425 207.957 429.649 208.274 429.649 208.682C429.649 209.223 429.241 209.539 428.547 209.539C427.884 209.539 427.394 209.243 426.986 208.733L426.404 209.202C426.874 209.825 427.517 210.233 428.486 210.233Z" fill="#F39C12"/>
<rect x="39.6621" y="61.5752" width="188.583" height="188.583" rx="94.2917" fill="#F4B043"/>
<g style="mix-blend-mode:overlay">
<path d="M133.954 155.868H228.245C228.245 181.833 217.505 205.34 200.441 222.355L133.954 155.868Z" fill="#CF8F2A" fill-opacity="0.91"/>
</g>
<g opacity="0.4">
<path d="M133.954 155.866H228.245C228.245 129.901 217.505 106.394 200.441 89.3779L133.954 155.866Z" fill="#F39C12"/>
</g>
<path d="M133.954 155.867V61.5754C159.919 61.5754 183.426 72.316 200.441 89.3794L133.954 155.867Z" fill="#F39C12"/>
</svg>
