<svg width="475" height="271" viewBox="0 0 475 271" fill="none" xmlns="http://www.w3.org/2000/svg">
<rect x="0.527219" y="1.05993" width="473.804" height="269.271" rx="4.22202" fill="white" stroke="#E5E5E5" stroke-width="0.938226"/>
<g opacity="0.16">
<rect x="66.6719" y="121.622" width="39.511" height="121.213" fill="#F39C12"/>
</g>
<g opacity="0.16">
<rect x="110.769" y="127.251" width="39.511" height="115.288" fill="#F39C12"/>
</g>
<g opacity="0.16">
<rect x="153.927" y="106.61" width="39.511" height="136.289" fill="#F39C12"/>
</g>
<g opacity="0.16">
<rect x="198.962" y="96.29" width="39.511" height="145.978" fill="#F39C12"/>
</g>
<g opacity="0.16">
<rect x="242.121" y="145.077" width="39.511" height="97.6684" fill="#F39C12"/>
</g>
<g opacity="0.16">
<rect x="285.279" y="121.622" width="39.511" height="120.885" fill="#F39C12"/>
</g>
<g opacity="0.16">
<rect x="330.313" y="110.363" width="39.511" height="131.969" fill="#F39C12"/>
</g>
<g opacity="0.16">
<rect x="373.472" y="166.656" width="39.511" height="75.8468" fill="#F39C12"/>
</g>
<g opacity="0.16">
<rect x="416.631" y="92.5361" width="39.511" height="149.36" fill="#F39C12"/>
</g>
<path d="M81.8557 234.365H77.8266L79.8906 232.51C80.8677 231.632 81.5703 230.797 81.5703 229.612C81.5703 228.305 80.714 227.383 79.2209 227.383C77.7388 227.383 77.0581 228.283 76.7617 229.183L77.5851 229.502C77.7937 228.777 78.2328 228.206 79.177 228.206C80.1211 228.206 80.5932 228.788 80.5932 229.634V229.765C80.5932 230.501 80.0443 231.269 79.3307 231.928L76.8276 234.234V235.178H81.8557V234.365ZM88.4203 227.515H84.3143L84.0398 231.73L84.8193 231.84C85.1377 231.489 85.489 231.193 86.1916 231.193C87.2346 231.193 87.7945 231.774 87.7945 232.784V232.894C87.7945 233.904 87.2346 234.486 86.1916 234.486C85.2694 234.486 84.8852 234.08 84.49 233.476L83.7983 234.003C84.2594 234.662 84.9181 235.309 86.1916 235.309C87.8055 235.309 88.7716 234.267 88.7716 232.773C88.7716 231.291 87.8055 230.402 86.4881 230.402C85.6866 230.402 85.2804 230.731 84.9181 231.247H84.8413L85.0609 228.327H88.4203V227.515ZM93.2063 235.309C94.7433 235.309 95.7533 234.277 95.7533 232.773C95.7533 231.324 94.8092 230.413 93.4917 230.413C92.5586 230.413 92.0096 230.885 91.6473 231.511L91.5925 231.489C92.0096 229.71 92.9209 228.711 94.5567 227.515H93.371C92.1414 228.316 90.6373 230.095 90.6373 232.367C90.6373 234.19 91.6144 235.309 93.2063 235.309ZM93.1953 234.508C92.1853 234.508 91.5925 233.926 91.5925 232.894V232.806C91.5925 231.774 92.1853 231.193 93.1953 231.193C94.2054 231.193 94.7982 231.774 94.7982 232.806V232.894C94.7982 233.926 94.2054 234.508 93.1953 234.508Z" fill="#263238"/>
<path d="M126.106 235.065V234.253H124.13V227.402H122.692L120.661 229.302L121.199 229.884L123.131 228.083H123.208V234.253H121.067V235.065H126.106ZM132.045 235.065V233.561H133.154V232.793H132.045V227.402H130.673L127.467 232.749V233.561H131.167V235.065H132.045ZM131.112 228.116H131.167V232.793H128.334L131.112 228.116ZM138.994 235.065V233.561H140.103V232.793H138.994V227.402H137.621L134.416 232.749V233.561H138.115V235.065H138.994ZM138.061 228.116H138.115V232.793H135.283L138.061 228.116Z" fill="#263238"/>
<path d="M169.265 234.486V233.674H167.289V226.823H165.85L163.819 228.723L164.357 229.304L166.29 227.504H166.366V233.674H164.226V234.486H169.265ZM173.513 234.618C175.05 234.618 176.06 233.586 176.06 232.082C176.06 230.633 175.116 229.722 173.798 229.722C172.865 229.722 172.316 230.194 171.954 230.819L171.899 230.798C172.316 229.019 173.227 228.02 174.863 226.823H173.678C172.448 227.625 170.944 229.403 170.944 231.676C170.944 233.498 171.921 234.618 173.513 234.618ZM173.502 233.817C172.492 233.817 171.899 233.235 171.899 232.203V232.115C171.899 231.083 172.492 230.501 173.502 230.501C174.512 230.501 175.105 231.083 175.105 232.115V232.203C175.105 233.235 174.512 233.817 173.502 233.817ZM180.451 234.618C182.196 234.618 183.108 233.663 183.108 232.4C183.108 231.357 182.482 230.754 181.56 230.501V230.413C182.361 230.139 182.877 229.491 182.877 228.613C182.877 227.449 181.977 226.692 180.451 226.692C178.925 226.692 178.024 227.449 178.024 228.613C178.024 229.491 178.54 230.139 179.342 230.413V230.501C178.42 230.754 177.794 231.357 177.794 232.4C177.794 233.663 178.705 234.618 180.451 234.618ZM180.451 233.817C179.386 233.817 178.771 233.312 178.771 232.444V232.214C178.771 231.346 179.386 230.841 180.451 230.841C181.516 230.841 182.13 231.346 182.13 232.214V232.444C182.13 233.312 181.516 233.817 180.451 233.817ZM180.451 230.073C179.496 230.073 178.98 229.645 178.98 228.865V228.701C178.98 227.921 179.496 227.493 180.451 227.493C181.406 227.493 181.922 227.921 181.922 228.701V228.865C181.922 229.645 181.406 230.073 180.451 230.073Z" fill="#263238"/>
<path d="M214.146 235.23H210.117L212.181 233.374C213.158 232.496 213.86 231.662 213.86 230.476C213.86 229.169 213.004 228.247 211.511 228.247C210.029 228.247 209.348 229.147 209.052 230.048L209.875 230.366C210.084 229.641 210.523 229.071 211.467 229.071C212.411 229.071 212.883 229.652 212.883 230.498V230.63C212.883 231.365 212.334 232.134 211.621 232.792L209.118 235.098V236.042H214.146V235.23ZM220.238 236.042V234.538H221.347V233.769H220.238V228.379H218.866L215.66 233.726V234.538H219.36V236.042H220.238ZM219.305 229.093H219.36V233.769H216.527L219.305 229.093ZM225.485 236.174C227.231 236.174 228.142 235.219 228.142 233.956C228.142 232.913 227.516 232.309 226.594 232.057V231.969C227.396 231.694 227.912 231.047 227.912 230.168C227.912 229.005 227.011 228.247 225.485 228.247C223.959 228.247 223.059 229.005 223.059 230.168C223.059 231.047 223.575 231.694 224.377 231.969V232.057C223.454 232.309 222.829 232.913 222.829 233.956C222.829 235.219 223.74 236.174 225.485 236.174ZM225.485 235.372C224.42 235.372 223.806 234.867 223.806 234V233.769C223.806 232.902 224.42 232.397 225.485 232.397C226.55 232.397 227.165 232.902 227.165 233.769V234C227.165 234.867 226.55 235.372 225.485 235.372ZM225.485 231.629C224.53 231.629 224.014 231.2 224.014 230.421V230.256C224.014 229.477 224.53 229.049 225.485 229.049C226.44 229.049 226.956 229.477 226.956 230.256V230.421C226.956 231.2 226.44 231.629 225.485 231.629Z" fill="#263238"/>
<path d="M260.779 231.978C260.779 230.155 259.802 229.035 258.21 229.035C256.673 229.035 255.663 230.067 255.663 231.571C255.663 233.021 256.607 233.932 257.924 233.932C258.858 233.932 259.407 233.46 259.769 232.834L259.824 232.856C259.407 234.634 258.495 235.633 256.86 236.83H258.045C259.275 236.029 260.779 234.25 260.779 231.978ZM258.221 233.152C257.211 233.152 256.618 232.57 256.618 231.538V231.451C256.618 230.419 257.211 229.837 258.221 229.837C259.231 229.837 259.824 230.419 259.824 231.451V231.538C259.824 232.57 259.231 233.152 258.221 233.152ZM265.181 236.962C266.718 236.962 267.728 235.93 267.728 234.426C267.728 232.977 266.784 232.065 265.466 232.065C264.533 232.065 263.984 232.537 263.622 233.163L263.567 233.141C263.984 231.363 264.895 230.364 266.531 229.167H265.345C264.116 229.968 262.612 231.747 262.612 234.02C262.612 235.842 263.589 236.962 265.181 236.962ZM265.17 236.16C264.16 236.16 263.567 235.579 263.567 234.547V234.459C263.567 233.427 264.16 232.845 265.17 232.845C266.18 232.845 266.773 233.427 266.773 234.459V234.547C266.773 235.579 266.18 236.16 265.17 236.16Z" fill="#263238"/>
<path d="M300.616 236.374V235.562H298.64V228.711H297.202L295.171 230.61L295.709 231.192L297.641 229.392H297.718V235.562H295.577V236.374H300.616ZM306.555 236.374V234.87H307.664V234.101H306.555V228.711H305.183L301.977 234.058V234.87H305.677V236.374H306.555ZM305.622 229.425H305.677V234.101H302.844L305.622 229.425ZM313.504 236.374V234.87H314.613V234.101H313.504V228.711H312.132L308.926 234.058V234.87H312.626V236.374H313.504ZM312.571 229.425H312.626V234.101H309.793L312.571 229.425Z" fill="#263238"/>
<path d="M345.651 235.178V234.365H343.675V227.515H342.237L340.206 229.414L340.744 229.996L342.676 228.195H342.753V234.365H340.612V235.178H345.651ZM349.899 235.309C351.436 235.309 352.446 234.277 352.446 232.773C352.446 231.324 351.502 230.413 350.185 230.413C349.251 230.413 348.702 230.885 348.34 231.511L348.285 231.489C348.702 229.71 349.614 228.711 351.249 227.515H350.064C348.834 228.316 347.33 230.095 347.33 232.367C347.33 234.19 348.307 235.309 349.899 235.309ZM349.888 234.508C348.878 234.508 348.285 233.926 348.285 232.894V232.806C348.285 231.774 348.878 231.193 349.888 231.193C350.898 231.193 351.491 231.774 351.491 232.806V232.894C351.491 233.926 350.898 234.508 349.888 234.508ZM356.837 235.309C358.583 235.309 359.494 234.354 359.494 233.092C359.494 232.049 358.868 231.445 357.946 231.193V231.105C358.747 230.83 359.263 230.182 359.263 229.304C359.263 228.14 358.363 227.383 356.837 227.383C355.311 227.383 354.411 228.14 354.411 229.304C354.411 230.182 354.927 230.83 355.728 231.105V231.193C354.806 231.445 354.18 232.049 354.18 233.092C354.18 234.354 355.091 235.309 356.837 235.309ZM356.837 234.508C355.772 234.508 355.157 234.003 355.157 233.136V232.905C355.157 232.038 355.772 231.533 356.837 231.533C357.902 231.533 358.517 232.038 358.517 232.905V233.136C358.517 234.003 357.902 234.508 356.837 234.508ZM356.837 230.764C355.882 230.764 355.366 230.336 355.366 229.557V229.392C355.366 228.613 355.882 228.184 356.837 228.184C357.792 228.184 358.308 228.613 358.308 229.392V229.557C358.308 230.336 357.792 230.764 356.837 230.764Z" fill="#263238"/>
<path d="M388.31 231.902V232.703H389.21C390.286 232.703 390.857 233.219 390.857 234.12V234.208C390.857 235.108 390.286 235.624 389.21 235.624C388.277 235.624 387.827 235.218 387.432 234.614L386.74 235.141C387.212 235.799 387.893 236.447 389.221 236.447C390.78 236.447 391.823 235.536 391.823 234.219C391.823 233.066 391.033 232.451 390.209 232.286V232.242C391.022 232.034 391.68 231.441 391.68 230.453C391.68 229.212 390.648 228.521 389.353 228.521C388.123 228.521 387.454 229.157 387.069 229.772L387.75 230.299C388.068 229.717 388.54 229.344 389.331 229.344C390.143 229.344 390.703 229.75 390.703 230.552V230.629C390.703 231.364 390.176 231.902 389.144 231.902H388.31ZM399.079 235.503H395.05L397.114 233.648C398.091 232.769 398.794 231.935 398.794 230.749C398.794 229.443 397.937 228.521 396.444 228.521C394.962 228.521 394.282 229.421 393.985 230.321L394.809 230.64C395.017 229.915 395.456 229.344 396.4 229.344C397.345 229.344 397.817 229.926 397.817 230.771V230.903C397.817 231.639 397.268 232.407 396.554 233.066L394.051 235.371V236.315H399.079V235.503Z" fill="#263238"/>
<path d="M431.815 234.384H427.786L429.85 232.529C430.827 231.65 431.529 230.816 431.529 229.63C431.529 228.324 430.673 227.402 429.18 227.402C427.698 227.402 427.017 228.302 426.721 229.202L427.544 229.52C427.753 228.796 428.192 228.225 429.136 228.225C430.08 228.225 430.552 228.807 430.552 229.652V229.784C430.552 230.519 430.003 231.288 429.29 231.947L426.787 234.252V235.196H431.815V234.384ZM438.379 227.533H434.273L433.999 231.749L434.778 231.859C435.097 231.507 435.448 231.211 436.151 231.211C437.194 231.211 437.753 231.793 437.753 232.803V232.913C437.753 233.923 437.194 234.505 436.151 234.505C435.228 234.505 434.844 234.098 434.449 233.495L433.757 234.022C434.218 234.68 434.877 235.328 436.151 235.328C437.764 235.328 438.731 234.285 438.731 232.792C438.731 231.31 437.764 230.421 436.447 230.421C435.646 230.421 435.239 230.75 434.877 231.266H434.8L435.02 228.346H438.379V227.533ZM443.165 235.328C444.702 235.328 445.712 234.296 445.712 232.792C445.712 231.343 444.768 230.432 443.451 230.432C442.518 230.432 441.969 230.904 441.606 231.529L441.551 231.507C441.969 229.729 442.88 228.73 444.516 227.533H443.33C442.1 228.335 440.596 230.113 440.596 232.386C440.596 234.208 441.573 235.328 443.165 235.328ZM443.154 234.527C442.144 234.527 441.551 233.945 441.551 232.913V232.825C441.551 231.793 442.144 231.211 443.154 231.211C444.164 231.211 444.757 231.793 444.757 232.825V232.913C444.757 233.945 444.164 234.527 443.154 234.527Z" fill="#263238"/>
<path d="M15.5279 33.54V23.0619H21.9229V24.1728H16.7889V27.6855H21.6226V28.7964H16.7889V32.4292H21.9229V33.54H15.5279ZM26.2839 33.54L23.5668 25.794H24.7677L26.1187 29.637L26.9594 32.2791H27.0344L27.8751 29.637L29.2562 25.794H30.4121L27.6799 33.54H26.2839ZM35.1689 33.7202C34.6385 33.7202 34.1581 33.6251 33.7277 33.435C33.3074 33.2448 32.9421 32.9746 32.6319 32.6243C32.3317 32.2641 32.0965 31.8387 31.9264 31.3483C31.7662 30.848 31.6862 30.2875 31.6862 29.667C31.6862 29.0566 31.7662 28.5011 31.9264 28.0008C32.0965 27.5004 32.3317 27.075 32.6319 26.7248C32.9421 26.3645 33.3074 26.0893 33.7277 25.8991C34.1581 25.709 34.6385 25.6139 35.1689 25.6139C35.6893 25.6139 36.1546 25.709 36.5649 25.8991C36.9753 26.0893 37.3255 26.3545 37.6158 26.6947C37.906 27.025 38.1262 27.4203 38.2763 27.8807C38.4364 28.341 38.5165 28.8464 38.5165 29.3968V29.9673H32.9471V30.3276C32.9471 30.6578 32.9972 30.968 33.0973 31.2583C33.2073 31.5385 33.3575 31.7837 33.5476 31.9938C33.7478 32.204 33.9879 32.3691 34.2682 32.4892C34.5584 32.6093 34.8836 32.6694 35.2439 32.6694C35.7343 32.6694 36.1596 32.5543 36.5199 32.3241C36.8902 32.0939 37.1754 31.7637 37.3756 31.3333L38.2312 31.9488C37.981 32.4792 37.5907 32.9096 37.0603 33.2398C36.5299 33.5601 35.8994 33.7202 35.1689 33.7202ZM35.1689 26.6197C34.8386 26.6197 34.5384 26.6797 34.2682 26.7998C33.998 26.9099 33.7628 27.07 33.5626 27.2802C33.3725 27.4904 33.2224 27.7405 33.1123 28.0308C33.0022 28.311 32.9471 28.6212 32.9471 28.9615V29.0666H37.2255V28.9014C37.2255 28.2109 37.0353 27.6605 36.655 27.2502C36.2847 26.8298 35.7893 26.6197 35.1689 26.6197ZM40.9082 33.54V25.794H42.1092V27.055H42.1692C42.3594 26.6147 42.6246 26.2644 42.9648 26.0042C43.3151 25.744 43.7805 25.6139 44.3609 25.6139C45.1615 25.6139 45.792 25.8741 46.2524 26.3945C46.7227 26.9049 46.9579 27.6305 46.9579 28.5712V33.54H45.757V28.7814C45.757 27.3903 45.1715 26.6947 44.0006 26.6947C43.7604 26.6947 43.5253 26.7248 43.2951 26.7848C43.0749 26.8449 42.8748 26.9349 42.6946 27.055C42.5145 27.1751 42.3694 27.3302 42.2593 27.5204C42.1592 27.7005 42.1092 27.9157 42.1092 28.1659V33.54H40.9082ZM51.5644 33.54C51.144 33.54 50.8238 33.4249 50.6036 33.1948C50.3935 32.9546 50.2884 32.6443 50.2884 32.2641V26.8449H49.0124V25.794H49.7329C49.9931 25.794 50.1683 25.744 50.2584 25.6439C50.3584 25.5338 50.4085 25.3487 50.4085 25.0885V23.6474H51.4893V25.794H53.1856V26.8449H51.4893V32.4892H53.0655V33.54H51.5644ZM57.8555 33.7202C57.135 33.7202 56.5295 33.5851 56.0391 33.3149C55.5587 33.0346 55.1434 32.6644 54.7932 32.204L55.6488 31.5135C55.949 31.8938 56.2843 32.189 56.6546 32.3992C57.0249 32.5993 57.4552 32.6994 57.9456 32.6994C58.456 32.6994 58.8513 32.5893 59.1315 32.3691C59.4217 32.149 59.5668 31.8387 59.5668 31.4384C59.5668 31.1382 59.4668 30.883 59.2666 30.6728C59.0765 30.4526 58.7262 30.3025 58.2158 30.2225L57.6003 30.1324C57.24 30.0824 56.9098 30.0073 56.6096 29.9072C56.3093 29.7971 56.0441 29.657 55.8139 29.4869C55.5938 29.3068 55.4186 29.0866 55.2885 28.8264C55.1684 28.5662 55.1084 28.2559 55.1084 27.8957C55.1084 27.5154 55.1785 27.1851 55.3186 26.9049C55.4587 26.6147 55.6488 26.3745 55.889 26.1843C56.1392 25.9942 56.4344 25.8541 56.7747 25.764C57.115 25.6639 57.4802 25.6139 57.8705 25.6139C58.501 25.6139 59.0264 25.724 59.4468 25.9442C59.8771 26.1643 60.2524 26.4696 60.5726 26.8599L59.777 27.5804C59.6069 27.3402 59.3567 27.1251 59.0264 26.9349C58.6962 26.7348 58.2809 26.6347 57.7805 26.6347C57.2801 26.6347 56.8998 26.7448 56.6396 26.9649C56.3894 27.1751 56.2643 27.4653 56.2643 27.8356C56.2643 28.2159 56.3894 28.4911 56.6396 28.6613C56.8998 28.8314 57.2701 28.9565 57.7504 29.0366L58.3509 29.1266C59.2116 29.2567 59.822 29.5069 60.1823 29.8772C60.5426 30.2375 60.7227 30.7129 60.7227 31.3033C60.7227 32.0539 60.4675 32.6443 59.9572 33.0747C59.4468 33.505 58.7462 33.7202 57.8555 33.7202ZM68.9286 33.54L66.2115 25.794H67.4124L68.7635 29.637L69.6041 32.2791H69.6792L70.5198 29.637L71.9009 25.794H73.0568L70.3247 33.54H68.9286ZM77.3454 33.7202C76.6249 33.7202 76.0194 33.5851 75.529 33.3149C75.0486 33.0346 74.6333 32.6644 74.283 32.204L75.1387 31.5135C75.4389 31.8938 75.7742 32.189 76.1445 32.3992C76.5148 32.5993 76.9451 32.6994 77.4355 32.6994C77.9459 32.6994 78.3412 32.5893 78.6214 32.3691C78.9116 32.149 79.0567 31.8387 79.0567 31.4384C79.0567 31.1382 78.9567 30.883 78.7565 30.6728C78.5664 30.4526 78.2161 30.3025 77.7057 30.2225L77.0902 30.1324C76.7299 30.0824 76.3997 30.0073 76.0995 29.9072C75.7992 29.7971 75.534 29.657 75.3038 29.4869C75.0837 29.3068 74.9085 29.0866 74.7784 28.8264C74.6583 28.5662 74.5983 28.2559 74.5983 27.8957C74.5983 27.5154 74.6683 27.1851 74.8085 26.9049C74.9486 26.6147 75.1387 26.3745 75.3789 26.1843C75.6291 25.9942 75.9243 25.8541 76.2646 25.764C76.6048 25.6639 76.9701 25.6139 77.3604 25.6139C77.9909 25.6139 78.5163 25.724 78.9367 25.9442C79.367 26.1643 79.7423 26.4696 80.0625 26.8599L79.2669 27.5804C79.0968 27.3402 78.8466 27.1251 78.5163 26.9349C78.1861 26.7348 77.7707 26.6347 77.2704 26.6347C76.77 26.6347 76.3897 26.7448 76.1295 26.9649C75.8793 27.1751 75.7542 27.4653 75.7542 27.8356C75.7542 28.2159 75.8793 28.4911 76.1295 28.6613C76.3897 28.8314 76.76 28.9565 77.2403 29.0366L77.8408 29.1266C78.7015 29.2567 79.3119 29.5069 79.6722 29.8772C80.0325 30.2375 80.2126 30.7129 80.2126 31.3033C80.2126 32.0539 79.9574 32.6443 79.447 33.0747C78.9367 33.505 78.2361 33.7202 77.3454 33.7202ZM89.7695 33.7202C88.9189 33.7202 88.1933 33.5601 87.5928 33.2398C86.9924 32.9096 86.482 32.4592 86.0617 31.8888L86.9924 31.1082C87.3627 31.5985 87.773 31.9738 88.2233 32.234C88.6737 32.4842 89.2041 32.6093 89.8146 32.6093C90.5651 32.6093 91.1356 32.4292 91.5259 32.0689C91.9262 31.7086 92.1264 31.2282 92.1264 30.6278C92.1264 30.1274 91.9762 29.7421 91.676 29.4719C91.3758 29.2017 90.8804 28.9865 90.1899 28.8264L89.3342 28.6312C88.3734 28.4111 87.6379 28.0808 87.1275 27.6405C86.6271 27.1901 86.3769 26.5596 86.3769 25.749C86.3769 25.2887 86.462 24.8783 86.6321 24.5181C86.8022 24.1578 87.0374 23.8575 87.3376 23.6174C87.6479 23.3772 88.0132 23.197 88.4335 23.0769C88.8638 22.9468 89.3342 22.8818 89.8446 22.8818C90.6352 22.8818 91.3107 23.0269 91.8712 23.3171C92.4416 23.6073 92.922 24.0327 93.3123 24.5931L92.3665 25.2836C92.0763 24.8833 91.726 24.5681 91.3157 24.3379C90.9054 24.1077 90.395 23.9926 89.7845 23.9926C89.114 23.9926 88.5836 24.1378 88.1933 24.428C87.813 24.7082 87.6229 25.1335 87.6229 25.704C87.6229 26.2044 87.783 26.5847 88.1032 26.8449C88.4335 27.095 88.9289 27.2952 89.5894 27.4453L90.445 27.6405C91.4758 27.8707 92.2214 28.2209 92.6818 28.6913C93.1421 29.1616 93.3723 29.7871 93.3723 30.5677C93.3723 31.0481 93.2872 31.4834 93.1171 31.8737C92.957 32.2641 92.7218 32.5943 92.4116 32.8645C92.1013 33.1347 91.721 33.3449 91.2707 33.495C90.8303 33.6451 90.33 33.7202 89.7695 33.7202ZM98.7548 33.7202C98.2244 33.7202 97.744 33.6251 97.3137 33.435C96.8934 33.2448 96.5281 32.9746 96.2178 32.6243C95.9176 32.2641 95.6824 31.8387 95.5123 31.3483C95.3522 30.848 95.2721 30.2875 95.2721 29.667C95.2721 29.0566 95.3522 28.5011 95.5123 28.0008C95.6824 27.5004 95.9176 27.075 96.2178 26.7248C96.5281 26.3645 96.8934 26.0893 97.3137 25.8991C97.744 25.709 98.2244 25.6139 98.7548 25.6139C99.2752 25.6139 99.7406 25.709 100.151 25.8991C100.561 26.0893 100.911 26.3545 101.202 26.6947C101.492 27.025 101.712 27.4203 101.862 27.8807C102.022 28.341 102.102 28.8464 102.102 29.3968V29.9673H96.5331V30.3276C96.5331 30.6578 96.5831 30.968 96.6832 31.2583C96.7933 31.5385 96.9434 31.7837 97.1335 31.9938C97.3337 32.204 97.5739 32.3691 97.8541 32.4892C98.1443 32.6093 98.4696 32.6694 98.8299 32.6694C99.3202 32.6694 99.7456 32.5543 100.106 32.3241C100.476 32.0939 100.761 31.7637 100.962 31.3333L101.817 31.9488C101.567 32.4792 101.177 32.9096 100.646 33.2398C100.116 33.5601 99.4854 33.7202 98.7548 33.7202ZM98.7548 26.6197C98.4245 26.6197 98.1243 26.6797 97.8541 26.7998C97.5839 26.9099 97.3487 27.07 97.1486 27.2802C96.9584 27.4904 96.8083 27.7405 96.6982 28.0308C96.5881 28.311 96.5331 28.6212 96.5331 28.9615V29.0666H100.811V28.9014C100.811 28.2109 100.621 27.6605 100.241 27.2502C99.8707 26.8298 99.3753 26.6197 98.7548 26.6197ZM107.376 33.7202C106.836 33.7202 106.351 33.6251 105.92 33.435C105.49 33.2448 105.125 32.9746 104.824 32.6243C104.534 32.2741 104.309 31.8487 104.149 31.3483C103.999 30.848 103.924 30.2875 103.924 29.667C103.924 29.0466 103.999 28.4861 104.149 27.9857C104.309 27.4854 104.534 27.06 104.824 26.7098C105.125 26.3595 105.49 26.0893 105.92 25.8991C106.351 25.709 106.836 25.6139 107.376 25.6139C108.147 25.6139 108.762 25.784 109.223 26.1243C109.693 26.4546 110.043 26.8899 110.274 27.4303L109.268 27.9407C109.128 27.5404 108.898 27.2302 108.577 27.01C108.257 26.7898 107.857 26.6797 107.376 26.6797C107.016 26.6797 106.701 26.7398 106.431 26.8599C106.16 26.97 105.935 27.1301 105.755 27.3402C105.575 27.5404 105.44 27.7856 105.35 28.0758C105.26 28.356 105.215 28.6663 105.215 29.0065V30.3276C105.215 31.0081 105.395 31.5685 105.755 32.0089C106.125 32.4392 106.666 32.6544 107.376 32.6544C108.347 32.6544 109.048 32.204 109.478 31.3033L110.349 31.8888C110.099 32.4492 109.723 32.8945 109.223 33.2248C108.732 33.5551 108.117 33.7202 107.376 33.7202ZM114.168 33.54C113.748 33.54 113.428 33.4249 113.207 33.1948C112.997 32.9546 112.892 32.6443 112.892 32.2641V26.8449H111.616V25.794H112.337C112.597 25.794 112.772 25.744 112.862 25.6439C112.962 25.5338 113.012 25.3487 113.012 25.0885V23.6474H114.093V25.794H115.789V26.8449H114.093V32.4892H115.669V33.54H114.168ZM121.001 33.7202C120.481 33.7202 120.005 33.6251 119.575 33.435C119.145 33.2448 118.774 32.9746 118.464 32.6243C118.164 32.2641 117.929 31.8387 117.759 31.3483C117.588 30.848 117.503 30.2875 117.503 29.667C117.503 29.0566 117.588 28.5011 117.759 28.0008C117.929 27.5004 118.164 27.075 118.464 26.7248C118.774 26.3645 119.145 26.0893 119.575 25.8991C120.005 25.709 120.481 25.6139 121.001 25.6139C121.521 25.6139 121.992 25.709 122.412 25.8991C122.843 26.0893 123.213 26.3645 123.523 26.7248C123.833 27.075 124.073 27.5004 124.244 28.0008C124.414 28.5011 124.499 29.0566 124.499 29.667C124.499 30.2875 124.414 30.848 124.244 31.3483C124.073 31.8387 123.833 32.2641 123.523 32.6243C123.213 32.9746 122.843 33.2448 122.412 33.435C121.992 33.6251 121.521 33.7202 121.001 33.7202ZM121.001 32.6544C121.652 32.6544 122.182 32.4542 122.592 32.0539C123.003 31.6536 123.208 31.0431 123.208 30.2225V29.1116C123.208 28.291 123.003 27.6805 122.592 27.2802C122.182 26.8799 121.652 26.6797 121.001 26.6797C120.351 26.6797 119.82 26.8799 119.41 27.2802C119 27.6805 118.794 28.291 118.794 29.1116V30.2225C118.794 31.0431 119 31.6536 119.41 32.0539C119.82 32.4542 120.351 32.6544 121.001 32.6544ZM126.887 33.54V25.794H128.088V27.2201H128.163C128.303 26.8499 128.553 26.5196 128.913 26.2294C129.274 25.9392 129.769 25.794 130.399 25.794H130.865V26.995H130.159C129.509 26.995 128.998 27.1201 128.628 27.3703C128.268 27.6104 128.088 27.9157 128.088 28.286V33.54H126.887ZM135.138 33.7202C134.418 33.7202 133.812 33.5851 133.322 33.3149C132.842 33.0346 132.426 32.6644 132.076 32.204L132.932 31.5135C133.232 31.8938 133.567 32.189 133.937 32.3992C134.308 32.5993 134.738 32.6994 135.228 32.6994C135.739 32.6994 136.134 32.5893 136.414 32.3691C136.705 32.149 136.85 31.8387 136.85 31.4384C136.85 31.1382 136.75 30.883 136.549 30.6728C136.359 30.4526 136.009 30.3025 135.499 30.2225L134.883 30.1324C134.523 30.0824 134.193 30.0073 133.892 29.9072C133.592 29.7971 133.327 29.657 133.097 29.4869C132.877 29.3068 132.702 29.0866 132.571 28.8264C132.451 28.5662 132.391 28.2559 132.391 27.8957C132.391 27.5154 132.461 27.1851 132.601 26.9049C132.742 26.6147 132.932 26.3745 133.172 26.1843C133.422 25.9942 133.717 25.8541 134.058 25.764C134.398 25.6639 134.763 25.6139 135.153 25.6139C135.784 25.6139 136.309 25.724 136.73 25.9442C137.16 26.1643 137.535 26.4696 137.855 26.8599L137.06 27.5804C136.89 27.3402 136.64 27.1251 136.309 26.9349C135.979 26.7348 135.564 26.6347 135.063 26.6347C134.563 26.6347 134.183 26.7448 133.922 26.9649C133.672 27.1751 133.547 27.4653 133.547 27.8356C133.547 28.2159 133.672 28.4911 133.922 28.6613C134.183 28.8314 134.553 28.9565 135.033 29.0366L135.634 29.1266C136.494 29.2567 137.105 29.5069 137.465 29.8772C137.825 30.2375 138.006 30.7129 138.006 31.3033C138.006 32.0539 137.75 32.6443 137.24 33.0747C136.73 33.505 136.029 33.7202 135.138 33.7202Z" fill="#263238"/>
<path d="M130.213 144.729L129.494 144.729L129.494 148.05L127.145 148.05L127.145 144.923L126.426 144.923L126.426 148.05L124.154 148.05L124.154 144.729L123.436 144.729L123.436 148.866L130.213 148.866L130.213 144.729ZM130.213 142.239L126.737 142.239C126.096 142.239 125.785 141.637 125.785 141.015C125.785 140.268 126.242 139.879 127.135 139.879L130.213 139.879L130.213 139.102L126.999 139.102C125.785 139.102 125.086 139.753 125.086 140.782C125.086 141.53 125.455 141.957 126.018 142.2L126.018 142.239L125.203 142.239L125.203 143.015L130.213 143.015L130.213 142.239ZM130.213 135.296L125.203 133.529L125.203 134.276L127.688 135.17L129.397 135.713L129.397 135.762L127.688 136.306L125.203 137.18L125.203 137.956L130.213 136.199L130.213 135.296ZM124.028 131.871C124.028 131.541 123.853 131.396 123.591 131.396L123.465 131.396C123.203 131.396 123.028 131.541 123.028 131.871C123.028 132.202 123.203 132.347 123.465 132.347L123.591 132.347C123.853 132.347 124.028 132.202 124.028 131.871ZM130.213 132.26L130.213 131.483L125.203 131.483L125.203 132.26L130.213 132.26ZM130.213 128.789L126.815 128.789C126.339 128.789 125.98 128.284 125.98 127.449L125.98 126.992L125.203 126.992L125.203 127.293C125.203 128.109 125.649 128.565 126.125 128.74L126.125 128.789L125.203 128.789L125.203 129.565L130.213 129.565L130.213 128.789ZM130.329 123.887C130.329 122.547 129.3 121.625 127.708 121.625C126.115 121.625 125.086 122.547 125.086 123.887C125.086 125.227 126.115 126.15 127.708 126.15C129.3 126.15 130.329 125.227 130.329 123.887ZM129.64 123.887C129.64 124.722 129.125 125.314 128.067 125.314L127.349 125.314C126.29 125.314 125.776 124.722 125.776 123.887C125.776 123.052 126.29 122.46 127.349 122.46L128.067 122.46C129.125 122.46 129.64 123.052 129.64 123.887ZM130.213 119.304L126.737 119.304C126.096 119.304 125.785 118.702 125.785 118.08C125.785 117.333 126.242 116.944 127.135 116.944L130.213 116.944L130.213 116.167L126.999 116.167C125.785 116.167 125.086 116.818 125.086 117.847C125.086 118.595 125.455 119.022 126.018 119.265L126.018 119.304L125.203 119.304L125.203 120.08L130.213 120.08L130.213 119.304ZM130.213 113.518L126.737 113.518C126.096 113.518 125.785 112.935 125.785 112.324C125.785 111.586 126.242 111.246 127.135 111.246L130.213 111.246L130.213 110.469L126.737 110.469C126.096 110.469 125.785 109.906 125.785 109.294C125.785 108.537 126.251 108.197 127.135 108.197L130.213 108.197L130.213 107.42L126.999 107.42C125.785 107.42 125.086 108.032 125.086 109.052C125.086 109.906 125.562 110.392 126.106 110.576L126.106 110.595C125.387 110.867 125.086 111.469 125.086 112.13C125.086 112.906 125.504 113.256 126.018 113.479L126.018 113.518L125.203 113.518L125.203 114.295L130.213 114.295L130.213 113.518ZM130.329 103.667C130.329 102.725 129.863 102.007 129.184 101.686L128.786 102.24C129.339 102.502 129.65 102.987 129.65 103.619C129.65 104.551 128.999 105.104 128.135 105.104L127.902 105.104L127.902 101.502L127.533 101.502C126.115 101.502 125.086 102.327 125.086 103.667C125.086 105.027 126.115 105.92 127.708 105.92C129.3 105.92 130.329 105.027 130.329 103.667ZM125.737 103.667C125.737 102.871 126.329 102.337 127.213 102.337L127.319 102.337L127.319 105.104L127.251 105.104C126.378 105.104 125.737 104.512 125.737 103.667ZM130.213 99.1781L126.737 99.1781C126.096 99.1781 125.785 98.5762 125.785 97.9547C125.785 97.2071 126.242 96.8187 127.135 96.8187L130.213 96.8187L130.213 96.0419L126.999 96.0419C125.785 96.0419 125.086 96.6925 125.086 97.7217C125.086 98.4693 125.455 98.8966 126.018 99.1393L126.018 99.1781L125.203 99.1781L125.203 99.9549L130.213 99.9549L130.213 99.1781ZM130.213 92.0915L129.533 92.0915L129.533 93.111L125.882 93.111L125.882 92.0138L125.203 92.0138L125.203 93.111L123.814 93.111L123.814 93.8101L124.746 93.8101C125.086 93.8101 125.203 93.9169 125.203 94.247L125.203 94.7131L125.882 94.7131L125.882 93.8878L129.388 93.8878C129.873 93.8878 130.213 93.5965 130.213 93.0625L130.213 92.0915Z" fill="#263238"/>
<path d="M173.371 123.043L173.371 122.228L166.594 122.228L166.594 123.043L169.584 123.043L169.584 126.471L166.594 126.471L166.594 127.286L173.371 127.286L173.371 126.471L170.303 126.471L170.303 123.043L173.371 123.043ZM173.488 118.348C173.488 117.407 173.022 116.688 172.342 116.368L171.944 116.921C172.497 117.183 172.808 117.669 172.808 118.3C172.808 119.232 172.157 119.785 171.293 119.785L171.06 119.785L171.06 116.183L170.691 116.183C169.274 116.183 168.244 117.009 168.244 118.348C168.244 119.708 169.274 120.601 170.866 120.601C172.458 120.601 173.488 119.708 173.488 118.348ZM168.895 118.348C168.895 117.552 169.487 117.018 170.371 117.018L170.478 117.018L170.478 119.785L170.41 119.785C169.536 119.785 168.895 119.193 168.895 118.348ZM173.371 110.558L172.691 110.558L172.691 111.131L169.934 111.131C168.876 111.131 168.244 111.85 168.244 113.054C168.244 113.957 168.691 114.559 169.225 114.83L169.662 114.364C169.206 114.092 168.914 113.694 168.914 113.092C168.914 112.296 169.303 111.908 170.012 111.908L170.507 111.908L170.507 112.898C170.507 114.355 171.031 115.034 171.973 115.034C172.905 115.034 173.488 114.413 173.488 113.355C173.488 112.655 173.167 112.121 172.555 111.908L172.555 111.859C173.022 111.801 173.371 111.568 173.371 110.995L173.371 110.558ZM172.827 113.228C172.827 113.83 172.546 114.219 172.051 114.219L171.847 114.219C171.361 114.219 171.089 113.821 171.089 112.937L171.089 111.908L171.915 111.908C172.429 111.908 172.827 112.461 172.827 113.228ZM173.371 107.668L172.691 107.668L172.691 108.406L166.186 108.406L166.186 109.183L172.565 109.183C173.031 109.183 173.371 108.891 173.371 108.357L173.371 107.668ZM173.371 104.24L172.691 104.24L172.691 105.259L169.041 105.259L169.041 104.162L168.361 104.162L168.361 105.259L166.972 105.259L166.972 105.958L167.905 105.958C168.244 105.958 168.361 106.065 168.361 106.395L168.361 106.861L169.041 106.861L169.041 106.036L172.546 106.036C173.031 106.036 173.371 105.745 173.371 105.211L173.371 104.24ZM173.371 102.646L173.371 101.87L169.895 101.87C169.254 101.87 168.944 101.268 168.944 100.646C168.944 99.8986 169.4 99.5102 170.293 99.5102L173.371 99.5102L173.371 98.7334L170.157 98.7334C168.944 98.7334 168.244 99.384 168.244 100.413C168.244 101.161 168.613 101.588 169.177 101.831L169.177 101.87L166.186 101.87L166.186 102.646L173.371 102.646Z" fill="#263238"/>
<path d="M219.344 115.644L218.626 115.644L218.626 118.965L216.276 118.965L216.276 115.839L215.557 115.839L215.557 118.965L213.285 118.965L213.285 115.644L212.567 115.644L212.567 119.781L219.344 119.781L219.344 115.644ZM219.344 110.821L219.344 110.044L212.159 110.044L212.159 110.821L215.15 110.821L215.15 110.86C214.519 111.122 214.218 111.637 214.218 112.326C214.218 113.579 215.237 114.365 216.839 114.365C218.441 114.365 219.461 113.579 219.461 112.326C219.461 111.637 219.15 111.161 218.529 110.86L218.529 110.821L219.344 110.821ZM218.762 112.113C218.762 112.986 218.16 113.53 217.266 113.53L216.412 113.53C215.519 113.53 214.917 112.986 214.917 112.113C214.917 111.404 215.324 110.821 215.878 110.821L217.742 110.821C218.393 110.821 218.762 111.404 218.762 112.113ZM219.344 105.038L219.344 104.262L214.334 104.262L214.334 105.038L217.8 105.038C218.461 105.038 218.762 105.64 218.762 106.252C218.762 107 218.305 107.398 217.412 107.398L214.334 107.398L214.334 108.175L217.548 108.175C218.762 108.175 219.461 107.514 219.461 106.485C219.461 105.65 219.004 105.271 218.529 105.077L218.529 105.038L219.344 105.038ZM219.461 100.476C219.461 99.5246 218.995 98.8741 218.276 98.5537L217.898 99.1168C218.47 99.3887 218.771 99.8451 218.771 100.476C218.771 101.399 218.14 101.874 217.266 101.874L216.412 101.874C215.538 101.874 214.907 101.399 214.907 100.476C214.907 99.8645 215.208 99.4373 215.723 99.2528L215.392 98.6022C214.703 98.8935 214.218 99.4858 214.218 100.476C214.218 101.884 215.237 102.709 216.839 102.709C218.441 102.709 219.461 101.884 219.461 100.476ZM219.344 93.1121L218.665 93.1121L218.665 93.685L215.907 93.685C214.849 93.685 214.218 94.4035 214.218 95.6075C214.218 96.5105 214.664 97.1125 215.198 97.3844L215.635 96.9183C215.179 96.6464 214.888 96.2483 214.888 95.6463C214.888 94.8502 215.276 94.4618 215.985 94.4618L216.48 94.4618L216.48 95.4521C216.48 96.9086 217.004 97.5883 217.946 97.5883C218.878 97.5883 219.461 96.9668 219.461 95.9085C219.461 95.2094 219.14 94.6754 218.529 94.4618L218.529 94.4132C218.995 94.355 219.344 94.1219 219.344 93.5491L219.344 93.1121ZM218.8 95.7823C218.8 96.3843 218.519 96.7727 218.024 96.7727L217.82 96.7727C217.334 96.7727 217.062 96.3746 217.062 95.491L217.062 94.4618L217.888 94.4618C218.402 94.4618 218.8 95.0152 218.8 95.7823ZM219.344 89.6586L218.665 89.6586L218.665 90.6781L215.014 90.6781L215.014 89.581L214.334 89.581L214.334 90.6781L212.946 90.6781L212.946 91.3772L213.878 91.3772C214.218 91.3772 214.334 91.484 214.334 91.8142L214.334 92.2802L215.014 92.2802L215.014 91.4549L218.519 91.4549C219.004 91.4549 219.344 91.1636 219.344 90.6296L219.344 89.6586ZM213.159 87.677C213.159 87.3469 212.984 87.2013 212.722 87.2013L212.596 87.2013C212.334 87.2013 212.159 87.3469 212.159 87.677C212.159 88.0072 212.334 88.1528 212.596 88.1528L212.722 88.1528C212.984 88.1528 213.159 88.0072 213.159 87.677ZM219.344 88.0654L219.344 87.2887L214.334 87.2887L214.334 88.0654L219.344 88.0654ZM219.461 83.4776C219.461 82.1377 218.432 81.2153 216.839 81.2153C215.247 81.2153 214.218 82.1377 214.218 83.4776C214.218 84.8176 215.247 85.74 216.839 85.74C218.432 85.74 219.461 84.8176 219.461 83.4776ZM218.771 83.4776C218.771 84.3127 218.257 84.9049 217.198 84.9049L216.48 84.9049C215.422 84.9049 214.907 84.3127 214.907 83.4776C214.907 82.6426 215.422 82.0503 216.48 82.0503L217.198 82.0503C218.257 82.0503 218.771 82.6426 218.771 83.4776ZM219.344 78.894L215.868 78.894C215.227 78.894 214.917 78.292 214.917 77.6706C214.917 76.923 215.373 76.5346 216.266 76.5346L219.344 76.5346L219.344 75.7578L216.13 75.7578C214.917 75.7578 214.218 76.4084 214.218 77.4376C214.218 78.1852 214.587 78.6124 215.15 78.8552L215.15 78.894L214.334 78.894L214.334 79.6708L219.344 79.6708L219.344 78.894Z" fill="#263238"/>
<path d="M265.317 162.123L262.249 162.123L262.249 159.181L261.531 159.181L261.531 162.123L259.259 162.123L259.259 158.9L258.54 158.9L258.54 162.939L265.317 162.939L265.317 162.123ZM259.132 156.937C259.132 156.607 258.958 156.462 258.695 156.462L258.569 156.462C258.307 156.462 258.132 156.607 258.132 156.937C258.132 157.267 258.307 157.413 258.569 157.413L258.695 157.413C258.958 157.413 259.132 157.267 259.132 156.937ZM265.317 157.326L265.317 156.549L260.307 156.549L260.307 157.326L265.317 157.326ZM265.434 153.126C265.434 151.981 264.842 151.272 263.871 151.272C263.113 151.272 262.628 151.699 262.463 152.806L262.405 153.194C262.307 153.816 262.113 154.156 261.628 154.156C261.152 154.156 260.851 153.816 260.851 153.175C260.851 152.534 261.152 152.107 261.463 151.884L260.997 151.369C260.492 151.777 260.191 152.311 260.191 153.117C260.191 154.136 260.676 154.903 261.667 154.903C262.599 154.903 262.977 154.214 263.113 153.291L263.172 152.893C263.269 152.233 263.57 152.019 263.958 152.019C264.473 152.019 264.774 152.408 264.774 153.068C264.774 153.699 264.492 154.165 264.007 154.554L264.453 155.107C265.046 154.66 265.434 154.049 265.434 153.126ZM265.317 149.633L265.317 148.856L261.841 148.856C261.201 148.856 260.89 148.254 260.89 147.633C260.89 146.885 261.346 146.497 262.239 146.497L265.317 146.497L265.317 145.72L262.104 145.72C260.89 145.72 260.191 146.37 260.191 147.4C260.191 148.147 260.56 148.574 261.123 148.817L261.123 148.856L258.132 148.856L258.132 149.633L265.317 149.633ZM265.434 141.964C265.434 141.022 264.968 140.303 264.288 139.983L263.89 140.536C264.444 140.798 264.754 141.284 264.754 141.915C264.754 142.847 264.104 143.401 263.24 143.401L263.006 143.401L263.006 139.798L262.638 139.798C261.22 139.798 260.191 140.624 260.191 141.964C260.191 143.323 261.22 144.216 262.812 144.216C264.405 144.216 265.434 143.323 265.434 141.964ZM260.841 141.964C260.841 141.167 261.434 140.633 262.317 140.633L262.424 140.633L262.424 143.401L262.356 143.401C261.482 143.401 260.841 142.808 260.841 141.964ZM265.317 137.475L261.919 137.475C261.443 137.475 261.084 136.97 261.084 136.135L261.084 135.678L260.307 135.678L260.307 135.979C260.307 136.795 260.754 137.251 261.23 137.426L261.23 137.475L260.307 137.475L260.307 138.251L265.317 138.251L265.317 137.475ZM259.132 134.031C259.132 133.701 258.958 133.555 258.695 133.555L258.569 133.555C258.307 133.555 258.132 133.701 258.132 134.031C258.132 134.361 258.307 134.506 258.569 134.506L258.695 134.506C258.958 134.506 259.132 134.361 259.132 134.031ZM265.317 134.419L265.317 133.642L260.307 133.642L260.307 134.419L265.317 134.419ZM265.434 129.841C265.434 128.899 264.968 128.181 264.288 127.86L263.89 128.414C264.444 128.676 264.754 129.161 264.754 129.792C264.754 130.725 264.104 131.278 263.24 131.278L263.006 131.278L263.006 127.676L262.638 127.676C261.22 127.676 260.191 128.501 260.191 129.841C260.191 131.2 261.22 132.094 262.812 132.094C264.405 132.094 265.434 131.2 265.434 129.841ZM260.841 129.841C260.841 129.045 261.434 128.511 262.317 128.511L262.424 128.511L262.424 131.278L262.356 131.278C261.482 131.278 260.841 130.686 260.841 129.841ZM265.434 124.624C265.434 123.478 264.842 122.769 263.871 122.769C263.113 122.769 262.628 123.196 262.463 124.303L262.405 124.692C262.307 125.313 262.113 125.653 261.628 125.653C261.152 125.653 260.851 125.313 260.851 124.672C260.851 124.031 261.152 123.604 261.463 123.381L260.997 122.866C260.492 123.274 260.191 123.808 260.191 124.614C260.191 125.634 260.676 126.401 261.667 126.401C262.599 126.401 262.977 125.711 263.113 124.789L263.172 124.391C263.269 123.73 263.57 123.517 263.958 123.517C264.473 123.517 264.774 123.905 264.774 124.565C264.774 125.197 264.492 125.663 264.007 126.051L264.453 126.605C265.046 126.158 265.434 125.546 265.434 124.624Z" fill="#263238"/>
<path d="M305.661 143.236L305.661 142.439L299.952 142.439L299.952 142.391L301.088 141.818L304.04 140.197L301.088 138.575L299.952 138.002L299.952 137.954L305.661 137.954L305.661 137.157L298.884 137.157L298.884 138.206L302.535 140.158L302.535 140.206L298.884 142.148L298.884 143.236L305.661 143.236ZM305.661 131.089L304.981 131.089L304.981 131.662L302.224 131.662C301.166 131.662 300.534 132.38 300.534 133.584C300.534 134.487 300.981 135.089 301.515 135.361L301.952 134.895C301.496 134.623 301.204 134.225 301.204 133.623C301.204 132.827 301.593 132.438 302.302 132.438L302.797 132.438L302.797 133.429C302.797 134.885 303.321 135.565 304.263 135.565C305.195 135.565 305.778 134.943 305.778 133.885C305.778 133.186 305.457 132.652 304.846 132.438L304.846 132.39C305.312 132.332 305.661 132.099 305.661 131.526L305.661 131.089ZM305.117 133.759C305.117 134.361 304.836 134.749 304.341 134.749L304.137 134.749C303.651 134.749 303.379 134.351 303.379 133.468L303.379 132.438L304.205 132.438C304.719 132.438 305.117 132.992 305.117 133.759ZM305.661 128.936L302.185 128.936C301.544 128.936 301.234 128.334 301.234 127.713C301.234 126.965 301.69 126.577 302.583 126.577L305.661 126.577L305.661 125.8L302.447 125.8C301.234 125.8 300.534 126.451 300.534 127.48C300.534 128.228 300.903 128.655 301.467 128.897L301.467 128.936L300.651 128.936L300.651 129.713L305.661 129.713L305.661 128.936ZM305.661 120.84L305.661 120.063L300.651 120.063L300.651 120.84L304.117 120.84C304.778 120.84 305.079 121.442 305.079 122.054C305.079 122.801 304.622 123.199 303.729 123.199L300.651 123.199L300.651 123.976L303.865 123.976C305.079 123.976 305.778 123.316 305.778 122.287C305.778 121.452 305.321 121.073 304.846 120.879L304.846 120.84L305.661 120.84ZM305.661 117.87L305.661 117.093L301.331 117.093L301.331 116.016L300.651 116.016L300.651 117.093L299.156 117.093L299.156 116.016L298.476 116.016L298.476 116.773C298.476 117.511 298.952 117.87 299.641 117.87L300.651 117.87L300.651 118.686L301.331 118.686L301.331 117.87L305.661 117.87ZM305.661 110.649L304.981 110.649L304.981 111.222L302.224 111.222C301.166 111.222 300.534 111.94 300.534 113.144C300.534 114.047 300.981 114.649 301.515 114.921L301.952 114.455C301.496 114.183 301.204 113.785 301.204 113.183C301.204 112.387 301.593 111.999 302.302 111.999L302.797 111.999L302.797 112.989C302.797 114.445 303.321 115.125 304.263 115.125C305.195 115.125 305.778 114.504 305.778 113.445C305.778 112.746 305.457 112.212 304.846 111.999L304.846 111.95C305.312 111.892 305.661 111.659 305.661 111.086L305.661 110.649ZM305.117 113.319C305.117 113.921 304.836 114.309 304.341 114.309L304.137 114.309C303.651 114.309 303.379 113.911 303.379 113.028L303.379 111.999L304.205 111.999C304.719 111.999 305.117 112.552 305.117 113.319ZM305.778 107.409C305.778 106.457 305.312 105.807 304.593 105.487L304.214 106.05C304.787 106.322 305.088 106.778 305.088 107.409C305.088 108.331 304.457 108.807 303.583 108.807L302.729 108.807C301.855 108.807 301.224 108.331 301.224 107.409C301.224 106.797 301.525 106.37 302.039 106.186L301.709 105.535C301.02 105.826 300.534 106.419 300.534 107.409C300.534 108.817 301.554 109.642 303.156 109.642C304.758 109.642 305.778 108.817 305.778 107.409ZM305.661 102.045L304.981 102.045L304.981 103.065L301.331 103.065L301.331 101.967L300.651 101.967L300.651 103.065L299.263 103.065L299.263 103.764L300.195 103.764C300.534 103.764 300.651 103.871 300.651 104.201L300.651 104.667L301.331 104.667L301.331 103.841L304.836 103.841C305.321 103.841 305.661 103.55 305.661 103.016L305.661 102.045ZM305.661 97.3643L305.661 96.5875L300.651 96.5875L300.651 97.3643L304.117 97.3643C304.778 97.3643 305.079 97.9663 305.079 98.578C305.079 99.3256 304.622 99.7237 303.729 99.7237L300.651 99.7237L300.651 100.5L303.865 100.5C305.079 100.5 305.778 99.8402 305.778 98.811C305.778 97.976 305.321 97.5973 304.846 97.4031L304.846 97.3643L305.661 97.3643ZM305.661 93.8896L302.263 93.8896C301.787 93.8896 301.428 93.3847 301.428 92.5497L301.428 92.0933L300.651 92.0933L300.651 92.3943C300.651 93.2099 301.098 93.6663 301.573 93.8411L301.573 93.8896L300.651 93.8896L300.651 94.6664L305.661 94.6664L305.661 93.8896ZM299.476 90.4457C299.476 90.1156 299.301 89.97 299.039 89.97L298.913 89.97C298.651 89.97 298.476 90.1156 298.476 90.4457C298.476 90.7759 298.651 90.9215 298.913 90.9215L299.039 90.9215C299.301 90.9215 299.476 90.7759 299.476 90.4457ZM305.661 90.8341L305.661 90.0574L300.651 90.0574L300.651 90.8341L305.661 90.8341ZM305.661 87.3629L302.185 87.3629C301.544 87.3629 301.234 86.761 301.234 86.1395C301.234 85.3919 301.69 85.0035 302.583 85.0035L305.661 85.0035L305.661 84.2267L302.447 84.2267C301.234 84.2267 300.534 84.8773 300.534 85.9065C300.534 86.6541 300.903 87.0814 301.467 87.3241L301.467 87.3629L300.651 87.3629L300.651 88.1397L305.661 88.1397L305.661 87.3629ZM306.215 78.1305C305.389 78.1305 304.884 78.6645 304.884 79.9073L304.884 80.9754C304.884 81.4317 304.807 81.7425 304.506 81.7425C304.195 81.7425 304.03 81.4123 303.943 81.0822C303.972 80.9366 303.991 80.7618 303.991 80.5967C303.991 79.451 303.282 78.7034 302.263 78.7034C301.729 78.7034 301.282 78.917 300.971 79.2762L300.651 79.2762L300.651 78.3247L299.971 78.3247L299.971 79.0723C299.971 79.4898 300.253 79.6549 300.641 79.6549L300.729 79.6549C300.602 79.9268 300.534 80.2472 300.534 80.6064C300.534 81.7425 301.243 82.4901 302.263 82.4901C302.962 82.4901 303.515 82.1406 303.797 81.5483L303.836 81.5483C303.962 82.0532 304.205 82.4124 304.71 82.4124C305.049 82.4124 305.273 82.2474 305.409 81.9658L305.515 81.9658C305.651 82.461 305.943 82.762 306.486 82.762C307.273 82.762 307.72 82.1211 307.72 80.5579C307.72 78.9461 307.244 78.1305 306.215 78.1305ZM306.273 78.8587C306.817 78.8587 307.088 79.3636 307.088 80.2278L307.088 80.9463C307.088 81.7327 306.729 82.0337 306.292 82.0337C305.982 82.0337 305.758 81.8881 305.613 81.5677L305.613 79.8976C305.613 79.1209 305.875 78.8587 306.273 78.8587ZM303.37 80.5967C303.37 81.257 303.059 81.6745 302.399 81.6745L302.127 81.6745C301.467 81.6745 301.156 81.257 301.156 80.5967C301.156 79.9365 301.467 79.519 302.127 79.519L302.399 79.519C303.059 79.519 303.37 79.9365 303.37 80.5967Z" fill="#263238"/>
<path d="M348.819 128.756L342.042 131.125L342.042 132.164L348.819 134.534L348.819 133.708L346.819 133.029L346.819 130.29L348.819 129.611L348.819 128.756ZM346.101 130.494L346.101 132.834L342.799 131.689L342.799 131.64L346.101 130.494ZM349.373 123.221C348.547 123.221 348.043 123.755 348.043 124.997L348.043 126.066C348.043 126.522 347.965 126.833 347.664 126.833C347.353 126.833 347.188 126.502 347.101 126.172C347.13 126.027 347.149 125.852 347.149 125.687C347.149 124.541 346.44 123.793 345.421 123.793C344.887 123.793 344.44 124.007 344.13 124.366L343.809 124.366L343.809 123.415L343.13 123.415L343.13 124.162C343.13 124.58 343.411 124.745 343.799 124.745L343.887 124.745C343.761 125.017 343.693 125.337 343.693 125.697C343.693 126.833 344.401 127.58 345.421 127.58C346.12 127.58 346.674 127.231 346.955 126.638L346.994 126.638C347.12 127.143 347.363 127.503 347.868 127.503C348.208 127.503 348.431 127.337 348.567 127.056L348.674 127.056C348.81 127.551 349.101 127.852 349.645 127.852C350.431 127.852 350.878 127.211 350.878 125.648C350.878 124.036 350.402 123.221 349.373 123.221ZM349.431 123.949C349.975 123.949 350.247 124.454 350.247 125.318L350.247 126.036C350.247 126.823 349.887 127.124 349.45 127.124C349.14 127.124 348.916 126.978 348.771 126.658L348.771 124.988C348.771 124.211 349.033 123.949 349.431 123.949ZM346.528 125.687C346.528 126.347 346.217 126.765 345.557 126.765L345.285 126.765C344.625 126.765 344.314 126.347 344.314 125.687C344.314 125.027 344.625 124.609 345.285 124.609L345.557 124.609C346.217 124.609 346.528 125.027 346.528 125.687ZM348.819 121.271L345.421 121.271C344.945 121.271 344.586 120.766 344.586 119.931L344.586 119.474L343.809 119.474L343.809 119.775C343.809 120.591 344.256 121.047 344.732 121.222L344.732 121.271L343.809 121.271L343.809 122.048L348.819 122.048L348.819 121.271ZM342.634 117.827C342.634 117.497 342.46 117.351 342.197 117.351L342.071 117.351C341.809 117.351 341.634 117.497 341.634 117.827C341.634 118.157 341.809 118.303 342.071 118.303L342.197 118.303C342.46 118.303 342.634 118.157 342.634 117.827ZM348.819 118.215L348.819 117.438L343.809 117.438L343.809 118.215L348.819 118.215ZM348.936 113.657C348.936 112.705 348.47 112.055 347.751 111.734L347.373 112.297C347.945 112.569 348.246 113.025 348.246 113.657C348.246 114.579 347.615 115.055 346.741 115.055L345.887 115.055C345.013 115.055 344.382 114.579 344.382 113.657C344.382 113.045 344.683 112.618 345.198 112.433L344.868 111.783C344.178 112.074 343.693 112.666 343.693 113.657C343.693 115.064 344.712 115.89 346.314 115.89C347.916 115.89 348.936 115.064 348.936 113.657ZM348.819 107.283L348.819 106.506L343.809 106.506L343.809 107.283L347.276 107.283C347.936 107.283 348.237 107.885 348.237 108.497C348.237 109.244 347.78 109.642 346.887 109.642L343.809 109.642L343.809 110.419L347.023 110.419C348.237 110.419 348.936 109.759 348.936 108.73C348.936 107.895 348.479 107.516 348.004 107.322L348.004 107.283L348.819 107.283ZM348.819 103.07L348.14 103.07L348.14 103.808L341.634 103.808L341.634 104.585L348.013 104.585C348.479 104.585 348.819 104.294 348.819 103.76L348.819 103.07ZM348.819 99.6421L348.14 99.6421L348.14 100.662L344.489 100.662L344.489 99.5644L343.809 99.5644L343.809 100.662L342.421 100.662L342.421 101.361L343.353 101.361C343.693 101.361 343.809 101.467 343.809 101.798L343.809 102.264L344.489 102.264L344.489 101.438L347.994 101.438C348.479 101.438 348.819 101.147 348.819 100.613L348.819 99.6421ZM348.819 94.9612L348.819 94.1845L343.809 94.1845L343.809 94.9612L347.276 94.9612C347.936 94.9612 348.237 95.5632 348.237 96.1749C348.237 96.9226 347.78 97.3207 346.887 97.3207L343.809 97.3207L343.809 98.0974L347.023 98.0974C348.237 98.0974 348.936 97.4372 348.936 96.408C348.936 95.5729 348.479 95.1943 348.004 95.0001L348.004 94.9612L348.819 94.9612ZM348.819 91.4866L345.421 91.4866C344.945 91.4866 344.586 90.9817 344.586 90.1466L344.586 89.6903L343.809 89.6903L343.809 89.9913C343.809 90.8069 344.256 91.2632 344.732 91.438L344.732 91.4866L343.809 91.4866L343.809 92.2633L348.819 92.2633L348.819 91.4866ZM348.936 86.5948C348.936 85.653 348.47 84.9345 347.79 84.6141L347.392 85.1675C347.945 85.4297 348.256 85.9151 348.256 86.5463C348.256 87.4784 347.606 88.0318 346.741 88.0318L346.508 88.0318L346.508 84.4296L346.139 84.4296C344.722 84.4296 343.693 85.2549 343.693 86.5948C343.693 87.9542 344.722 88.8474 346.314 88.8474C347.907 88.8474 348.936 87.9542 348.936 86.5948ZM344.343 86.5948C344.343 85.7986 344.935 85.2646 345.819 85.2646L345.926 85.2646L345.926 88.0318L345.858 88.0318C344.984 88.0318 344.343 87.4395 344.343 86.5948Z" fill="#263238"/>
<path d="M396.669 183.702L393.601 183.702L393.601 180.76L392.882 180.76L392.882 183.702L390.61 183.702L390.61 180.479L389.892 180.479L389.892 184.518L396.669 184.518L396.669 183.702ZM390.484 178.516C390.484 178.186 390.309 178.041 390.047 178.041L389.921 178.041C389.659 178.041 389.484 178.186 389.484 178.516C389.484 178.847 389.659 178.992 389.921 178.992L390.047 178.992C390.309 178.992 390.484 178.847 390.484 178.516ZM396.669 178.905L396.669 178.128L391.659 178.128L391.659 178.905L396.669 178.905ZM396.785 174.705C396.785 173.56 396.193 172.851 395.222 172.851C394.465 172.851 393.979 173.278 393.814 174.385L393.756 174.773C393.659 175.395 393.465 175.735 392.979 175.735C392.504 175.735 392.203 175.395 392.203 174.754C392.203 174.113 392.504 173.686 392.814 173.463L392.348 172.948C391.843 173.356 391.542 173.89 391.542 174.696C391.542 175.715 392.028 176.482 393.018 176.482C393.95 176.482 394.329 175.793 394.465 174.871L394.523 174.472C394.62 173.812 394.921 173.599 395.31 173.599C395.824 173.599 396.125 173.987 396.125 174.647C396.125 175.278 395.844 175.744 395.358 176.133L395.805 176.686C396.397 176.24 396.785 175.628 396.785 174.705ZM396.669 171.212L396.669 170.435L393.193 170.435C392.552 170.435 392.241 169.833 392.241 169.212C392.241 168.464 392.698 168.076 393.591 168.076L396.669 168.076L396.669 167.299L393.455 167.299C392.241 167.299 391.542 167.949 391.542 168.979C391.542 169.726 391.911 170.154 392.474 170.396L392.474 170.435L389.484 170.435L389.484 171.212L396.669 171.212ZM396.785 163.543C396.785 162.601 396.319 161.882 395.64 161.562L395.242 162.115C395.795 162.378 396.106 162.863 396.106 163.494C396.106 164.426 395.455 164.98 394.591 164.98L394.358 164.98L394.358 161.377L393.989 161.377C392.571 161.377 391.542 162.203 391.542 163.543C391.542 164.902 392.571 165.795 394.164 165.795C395.756 165.795 396.785 164.902 396.785 163.543ZM392.193 163.543C392.193 162.746 392.785 162.212 393.669 162.212L393.775 162.212L393.775 164.98L393.708 164.98C392.834 164.98 392.193 164.387 392.193 163.543ZM396.669 159.054L393.271 159.054C392.795 159.054 392.436 158.549 392.436 157.714L392.436 157.257L391.659 157.257L391.659 157.558C391.659 158.374 392.105 158.83 392.581 159.005L392.581 159.054L391.659 159.054L391.659 159.83L396.669 159.83L396.669 159.054ZM390.484 155.61C390.484 155.28 390.309 155.134 390.047 155.134L389.921 155.134C389.659 155.134 389.484 155.28 389.484 155.61C389.484 155.94 389.659 156.086 389.921 156.086L390.047 156.086C390.309 156.086 390.484 155.94 390.484 155.61ZM396.669 155.998L396.669 155.221L391.659 155.221L391.659 155.998L396.669 155.998ZM396.785 151.42C396.785 150.478 396.319 149.76 395.64 149.439L395.242 149.993C395.795 150.255 396.106 150.74 396.106 151.372C396.106 152.304 395.455 152.857 394.591 152.857L394.358 152.857L394.358 149.255L393.989 149.255C392.571 149.255 391.542 150.08 391.542 151.42C391.542 152.779 392.571 153.673 394.164 153.673C395.756 153.673 396.785 152.779 396.785 151.42ZM392.193 151.42C392.193 150.624 392.785 150.09 393.669 150.09L393.775 150.09L393.775 152.857L393.708 152.857C392.834 152.857 392.193 152.265 392.193 151.42ZM396.785 146.203C396.785 145.057 396.193 144.348 395.222 144.348C394.465 144.348 393.979 144.776 393.814 145.882L393.756 146.271C393.659 146.892 393.465 147.232 392.979 147.232C392.504 147.232 392.203 146.892 392.203 146.251C392.203 145.611 392.504 145.183 392.814 144.96L392.348 144.445C391.843 144.853 391.542 145.387 391.542 146.193C391.542 147.213 392.028 147.98 393.018 147.98C393.95 147.98 394.329 147.29 394.465 146.368L394.523 145.97C394.62 145.31 394.921 145.096 395.31 145.096C395.824 145.096 396.125 145.484 396.125 146.145C396.125 146.776 395.844 147.242 395.358 147.63L395.805 148.184C396.397 147.737 396.785 147.125 396.785 146.203Z" fill="#263238"/>
<path d="M439.828 107.093L439.828 106.278L433.05 106.278L433.05 107.093L436.041 107.093L436.041 110.521L433.05 110.521L433.05 111.336L439.828 111.336L439.828 110.521L436.759 110.521L436.759 107.093L439.828 107.093ZM439.944 102.389C439.944 101.049 438.915 100.126 437.323 100.126C435.73 100.126 434.701 101.049 434.701 102.389C434.701 103.728 435.73 104.651 437.323 104.651C438.915 104.651 439.944 103.728 439.944 102.389ZM439.255 102.389C439.255 103.224 438.74 103.816 437.682 103.816L436.963 103.816C435.905 103.816 435.39 103.224 435.39 102.389C435.39 101.554 435.905 100.961 436.963 100.961L437.682 100.961C438.74 100.961 439.255 101.554 439.255 102.389ZM439.828 97.805L436.429 97.805C435.954 97.805 435.594 97.3001 435.594 96.465L435.594 96.0087L434.817 96.0087L434.817 96.3097C434.817 97.1253 435.264 97.5816 435.74 97.7564L435.74 97.805L434.817 97.805L434.817 98.5817L439.828 98.5817L439.828 97.805ZM439.828 92.6337L439.148 92.6337L439.148 93.6532L435.497 93.6532L435.497 92.556L434.817 92.556L434.817 93.6532L433.429 93.6532L433.429 94.3523L434.361 94.3523C434.701 94.3523 434.817 94.4591 434.817 94.7892L434.817 95.2553L435.497 95.2553L435.497 94.43L439.002 94.43C439.488 94.43 439.828 94.1387 439.828 93.6046L439.828 92.6337ZM433.643 90.6521C433.643 90.322 433.468 90.1763 433.206 90.1763L433.079 90.1763C432.817 90.1763 432.643 90.322 432.643 90.6521C432.643 90.9822 432.817 91.1279 433.079 91.1279L433.206 91.1279C433.468 91.1279 433.643 90.9822 433.643 90.6521ZM439.828 91.0405L439.828 90.2637L434.817 90.2637L434.817 91.0405L439.828 91.0405ZM439.944 86.4818C439.944 85.5303 439.478 84.8797 438.76 84.5593L438.381 85.1225C438.954 85.3943 439.255 85.8507 439.255 86.4818C439.255 87.4042 438.624 87.88 437.75 87.88L436.895 87.88C436.021 87.88 435.39 87.4042 435.39 86.4818C435.39 85.8701 435.691 85.4429 436.206 85.2584L435.876 84.6079C435.186 84.8992 434.701 85.4914 434.701 86.4818C434.701 87.8897 435.72 88.715 437.323 88.715C438.925 88.715 439.944 87.8897 439.944 86.4818ZM439.828 80.1082L439.828 79.3314L434.817 79.3314L434.817 80.1082L438.284 80.1082C438.944 80.1082 439.245 80.7102 439.245 81.3219C439.245 82.0695 438.789 82.4676 437.895 82.4676L434.817 82.4676L434.817 83.2444L438.031 83.2444C439.245 83.2444 439.944 82.5841 439.944 81.5549C439.944 80.7199 439.488 80.3412 439.012 80.147L439.012 80.1082L439.828 80.1082ZM439.828 75.8956L439.148 75.8956L439.148 76.6335L432.643 76.6335L432.643 77.4103L439.022 77.4103C439.488 77.4103 439.828 77.119 439.828 76.5849L439.828 75.8956ZM439.828 72.4673L439.148 72.4673L439.148 73.4868L435.497 73.4868L435.497 72.3896L434.817 72.3896L434.817 73.4868L433.429 73.4868L433.429 74.1859L434.361 74.1859C434.701 74.1859 434.817 74.2927 434.817 74.6228L434.817 75.0889L435.497 75.0889L435.497 74.2636L439.002 74.2636C439.488 74.2636 439.828 73.9723 439.828 73.4383L439.828 72.4673ZM439.828 67.7865L439.828 67.0097L434.817 67.0097L434.817 67.7865L438.284 67.7865C438.944 67.7865 439.245 68.3884 439.245 69.0002C439.245 69.7478 438.789 70.1459 437.895 70.1459L434.817 70.1459L434.817 70.9227L438.031 70.9227C439.245 70.9227 439.944 70.2624 439.944 69.2332C439.944 68.3982 439.488 68.0195 439.012 67.8253L439.012 67.7865L439.828 67.7865ZM439.828 64.3118L436.429 64.3118C435.954 64.3118 435.594 63.8069 435.594 62.9719L435.594 62.5155L434.817 62.5155L434.817 62.8165C434.817 63.6321 435.264 64.0885 435.74 64.2632L435.74 64.3118L434.817 64.3118L434.817 65.0886L439.828 65.0886L439.828 64.3118ZM439.944 59.42C439.944 58.4782 439.478 57.7597 438.798 57.4393L438.4 57.9927C438.954 58.2549 439.264 58.7404 439.264 59.3715C439.264 60.3036 438.614 60.8571 437.75 60.8571L437.517 60.8571L437.517 57.2548L437.148 57.2548C435.73 57.2548 434.701 58.0801 434.701 59.42C434.701 60.7794 435.73 61.6727 437.323 61.6727C438.915 61.6727 439.944 60.7794 439.944 59.42ZM435.352 59.42C435.352 58.6239 435.944 58.0898 436.827 58.0898L436.934 58.0898L436.934 60.8571L436.866 60.8571C435.992 60.8571 435.352 60.2648 435.352 59.42Z" fill="#263238"/>
</svg>
