<svg width="977" height="384" viewBox="0 0 977 384" fill="none" xmlns="http://www.w3.org/2000/svg">
<line x1="940.894" y1="319.767" x2="940.894" y2="330.844" stroke="#ECECEE" stroke-width="1.81496" stroke-linecap="round" stroke-linejoin="round"/>
<path d="M914.877 347.47C914.877 346.221 915.08 345.248 915.487 344.552C915.893 343.847 916.605 343.495 917.621 343.495C918.63 343.495 919.338 343.847 919.745 344.552C920.151 345.248 920.354 346.221 920.354 347.47C920.354 348.74 920.151 349.728 919.745 350.432C919.338 351.136 918.63 351.488 917.621 351.488C916.605 351.488 915.893 351.136 915.487 350.432C915.08 349.728 914.877 348.74 914.877 347.47ZM919.374 347.47C919.374 346.838 919.331 346.305 919.244 345.869C919.164 345.426 918.993 345.071 918.732 344.802C918.478 344.533 918.107 344.399 917.621 344.399C917.127 344.399 916.75 344.533 916.489 344.802C916.234 345.071 916.064 345.426 915.977 345.869C915.897 346.305 915.857 346.838 915.857 347.47C915.857 348.123 915.897 348.671 915.977 349.114C916.064 349.557 916.234 349.913 916.489 350.182C916.75 350.45 917.127 350.584 917.621 350.584C918.107 350.584 918.478 350.45 918.732 350.182C918.993 349.913 919.164 349.557 919.244 349.114C919.331 348.671 919.374 348.123 919.374 347.47ZM921.693 345.597C921.744 344.929 922.002 344.406 922.466 344.029C922.931 343.651 923.533 343.463 924.274 343.463C924.768 343.463 925.192 343.553 925.548 343.735C925.911 343.909 926.183 344.149 926.365 344.453C926.554 344.758 926.648 345.103 926.648 345.488C926.648 345.938 926.517 346.327 926.256 346.653C926.002 346.98 925.668 347.19 925.254 347.285V347.339C925.726 347.455 926.1 347.684 926.376 348.025C926.652 348.367 926.789 348.813 926.789 349.365C926.789 349.779 926.695 350.152 926.506 350.486C926.318 350.813 926.034 351.071 925.657 351.26C925.279 351.448 924.826 351.543 924.296 351.543C923.526 351.543 922.895 351.343 922.401 350.944C921.907 350.537 921.631 349.964 921.573 349.223H922.532C922.582 349.659 922.76 350.015 923.065 350.29C923.37 350.566 923.777 350.704 924.285 350.704C924.793 350.704 925.178 350.574 925.439 350.312C925.708 350.044 925.842 349.699 925.842 349.278C925.842 348.733 925.661 348.341 925.298 348.102C924.935 347.862 924.386 347.742 923.653 347.742H923.403V346.915H923.664C924.332 346.907 924.837 346.798 925.178 346.588C925.519 346.37 925.69 346.036 925.69 345.586C925.69 345.201 925.563 344.893 925.308 344.66C925.062 344.428 924.706 344.312 924.241 344.312C923.791 344.312 923.428 344.428 923.152 344.66C922.876 344.893 922.713 345.205 922.662 345.597H921.693ZM928.607 351.554C928.418 351.554 928.258 351.488 928.127 351.358C927.997 351.227 927.931 351.067 927.931 350.878C927.931 350.69 927.997 350.53 928.127 350.399C928.258 350.269 928.418 350.203 928.607 350.203C928.788 350.203 928.941 350.269 929.064 350.399C929.195 350.53 929.26 350.69 929.26 350.878C929.26 351.067 929.195 351.227 929.064 351.358C928.941 351.488 928.788 351.554 928.607 351.554ZM928.607 346.893C928.418 346.893 928.258 346.827 928.127 346.697C927.997 346.566 927.931 346.406 927.931 346.218C927.931 346.029 927.997 345.869 928.127 345.738C928.258 345.608 928.418 345.542 928.607 345.542C928.788 345.542 928.941 345.608 929.064 345.738C929.195 345.869 929.26 346.029 929.26 346.218C929.26 346.406 929.195 346.566 929.064 346.697C928.941 346.827 928.788 346.893 928.607 346.893ZM930.424 345.597C930.475 344.929 930.733 344.406 931.197 344.029C931.662 343.651 932.264 343.463 933.005 343.463C933.499 343.463 933.923 343.553 934.279 343.735C934.642 343.909 934.914 344.149 935.096 344.453C935.284 344.758 935.379 345.103 935.379 345.488C935.379 345.938 935.248 346.327 934.987 346.653C934.733 346.98 934.399 347.19 933.985 347.285V347.339C934.457 347.455 934.831 347.684 935.107 348.025C935.382 348.367 935.52 348.813 935.52 349.365C935.52 349.779 935.426 350.152 935.237 350.486C935.049 350.813 934.765 351.071 934.388 351.26C934.01 351.448 933.557 351.543 933.027 351.543C932.257 351.543 931.626 351.343 931.132 350.944C930.638 350.537 930.362 349.964 930.304 349.223H931.263C931.313 349.659 931.491 350.015 931.796 350.29C932.101 350.566 932.508 350.704 933.016 350.704C933.524 350.704 933.909 350.574 934.17 350.312C934.439 350.044 934.573 349.699 934.573 349.278C934.573 348.733 934.392 348.341 934.029 348.102C933.666 347.862 933.117 347.742 932.384 347.742H932.134V346.915H932.395C933.063 346.907 933.568 346.798 933.909 346.588C934.25 346.37 934.421 346.036 934.421 345.586C934.421 345.201 934.293 344.893 934.039 344.66C933.793 344.428 933.437 344.312 932.972 344.312C932.522 344.312 932.159 344.428 931.883 344.66C931.607 344.893 931.444 345.205 931.393 345.597H930.424ZM936.858 347.47C936.858 346.221 937.062 345.248 937.468 344.552C937.875 343.847 938.586 343.495 939.603 343.495C940.612 343.495 941.32 343.847 941.726 344.552C942.133 345.248 942.336 346.221 942.336 347.47C942.336 348.74 942.133 349.728 941.726 350.432C941.32 351.136 940.612 351.488 939.603 351.488C938.586 351.488 937.875 351.136 937.468 350.432C937.062 349.728 936.858 348.74 936.858 347.47ZM941.356 347.47C941.356 346.838 941.312 346.305 941.225 345.869C941.145 345.426 940.975 345.071 940.713 344.802C940.459 344.533 940.089 344.399 939.603 344.399C939.109 344.399 938.731 344.533 938.47 344.802C938.216 345.071 938.045 345.426 937.958 345.869C937.878 346.305 937.838 346.838 937.838 347.47C937.838 348.123 937.878 348.671 937.958 349.114C938.045 349.557 938.216 349.913 938.47 350.182C938.731 350.45 939.109 350.584 939.603 350.584C940.089 350.584 940.459 350.45 940.713 350.182C940.975 349.913 941.145 349.557 941.225 349.114C941.312 348.671 941.356 348.123 941.356 347.47ZM951.838 346.12C951.838 346.751 951.62 347.278 951.184 347.699C950.756 348.112 950.099 348.319 949.213 348.319H947.754V351.488H946.763V343.898H949.213C950.07 343.898 950.72 344.105 951.162 344.519C951.613 344.933 951.838 345.466 951.838 346.12ZM949.213 347.503C949.765 347.503 950.171 347.383 950.433 347.143C950.694 346.904 950.825 346.562 950.825 346.12C950.825 345.183 950.288 344.715 949.213 344.715H947.754V347.503H949.213ZM960.768 343.953V351.488H959.777V345.869L957.273 351.488H956.576L954.06 345.858V351.488H953.069V343.953H954.136L956.924 350.182L959.712 343.953H960.768Z" fill="#92959E"/>
<rect x="0.644628" y="1.42588" width="974.25" height="381.221" rx="5.80165" fill="white" stroke="#E5E5E5" stroke-width="1.28926"/>
<line x1="53.4318" y1="68.7441" x2="53.4318" y2="325.306" stroke="#ECECEE" stroke-width="0.90748"/>
<line x1="954.169" y1="325.758" x2="52.9785" y2="325.758" stroke="#ECECEE" stroke-width="0.90748"/>
<path d="M143.133 264.813C110.639 272.831 54.2676 254.26 54.2676 254.26V348.514H924.92V117.991C888.373 109.402 839.039 44.1089 816.932 69.3563C749.44 146.438 669.045 62.3358 594.207 86.7913C517.851 111.743 499.792 156.171 417.602 158.826C379.545 160.055 385.328 241.565 347.297 243.248C308.465 244.967 272.702 175.561 235.935 185.896C196.629 196.944 182.925 254.993 143.133 264.813Z" fill="url(#paint0_linear_2215:13319)"/>
<path d="M54.2676 248.652C54.2676 248.652 110.696 266.677 143.223 258.894C183.056 249.363 196.774 193.022 236.119 182.298C272.924 172.267 308.724 239.632 347.595 237.964C385.665 236.33 379.876 157.218 417.971 156.024C500.245 153.448 518.323 110.326 594.756 86.1089C669.67 62.3726 750.146 144.001 817.707 69.1866C839.836 44.6819 889.221 108.054 925.805 116.391" stroke="#F2C94C" stroke-width="2.2687" stroke-linecap="round" stroke-linejoin="round"/>
<line x1="940.894" y1="319.767" x2="940.894" y2="330.844" stroke="#ECECEE" stroke-width="1.81496" stroke-linecap="round" stroke-linejoin="round"/>
<line x1="772.002" y1="319.767" x2="772.002" y2="330.844" stroke="#ECECEE" stroke-width="1.81496" stroke-linecap="round" stroke-linejoin="round"/>
<line x1="601.82" y1="319.767" x2="601.82" y2="330.844" stroke="#ECECEE" stroke-width="1.81496" stroke-linecap="round" stroke-linejoin="round"/>
<line x1="432.927" y1="319.767" x2="432.927" y2="330.844" stroke="#ECECEE" stroke-width="1.81496" stroke-linecap="round" stroke-linejoin="round"/>
<line x1="261.456" y1="319.767" x2="261.456" y2="330.844" stroke="#ECECEE" stroke-width="1.81496" stroke-linecap="round" stroke-linejoin="round"/>
<line x1="93.8523" y1="319.767" x2="93.8523" y2="330.844" stroke="#ECECEE" stroke-width="1.81496" stroke-linecap="round" stroke-linejoin="round"/>
<line x1="50.0178" y1="294.745" x2="58.5169" y2="294.745" stroke="#ECECEE" stroke-width="1.81496" stroke-linecap="round" stroke-linejoin="round"/>
<line x1="50.0178" y1="245.755" x2="58.5169" y2="245.755" stroke="#ECECEE" stroke-width="1.81496" stroke-linecap="round" stroke-linejoin="round"/>
<line x1="50.0178" y1="195.471" x2="58.5169" y2="195.471" stroke="#ECECEE" stroke-width="1.81496" stroke-linecap="round" stroke-linejoin="round"/>
<line x1="50.0178" y1="145.192" x2="58.5169" y2="145.192" stroke="#ECECEE" stroke-width="1.81496" stroke-linecap="round" stroke-linejoin="round"/>
<line x1="50.0178" y1="94.9109" x2="58.5169" y2="94.9109" stroke="#ECECEE" stroke-width="1.81496" stroke-linecap="round" stroke-linejoin="round"/>
<path d="M75.9396 343.898V349.506C75.9396 350.131 75.7472 350.632 75.3624 351.009C74.9777 351.379 74.4695 351.565 73.8379 351.565C73.199 351.565 72.6872 351.376 72.3024 350.998C71.9176 350.613 71.7252 350.091 71.7252 349.43H72.7162C72.7235 349.8 72.8179 350.102 72.9994 350.334C73.1881 350.566 73.4676 350.682 73.8379 350.682C74.2081 350.682 74.484 350.574 74.6655 350.356C74.847 350.131 74.9377 349.848 74.9377 349.506V343.898H75.9396ZM77.5216 348.483C77.5216 347.873 77.645 347.339 77.8918 346.882C78.1387 346.417 78.4762 346.058 78.9046 345.804C79.3402 345.55 79.8229 345.423 80.3529 345.423C80.8756 345.423 81.3294 345.535 81.7141 345.76C82.0989 345.985 82.3857 346.268 82.5744 346.61V345.521H83.5763V351.488H82.5744V350.378C82.3784 350.726 82.0844 351.016 81.6924 351.249C81.3076 351.474 80.8575 351.586 80.342 351.586C79.8121 351.586 79.3329 351.456 78.9046 351.194C78.4762 350.933 78.1387 350.566 77.8918 350.094C77.645 349.623 77.5216 349.085 77.5216 348.483ZM82.5744 348.494C82.5744 348.043 82.4837 347.651 82.3022 347.318C82.1207 346.984 81.8739 346.729 81.5617 346.555C81.2568 346.374 80.9192 346.283 80.5489 346.283C80.1787 346.283 79.8411 346.37 79.5362 346.544C79.2313 346.719 78.9881 346.973 78.8066 347.307C78.6251 347.641 78.5343 348.033 78.5343 348.483C78.5343 348.94 78.6251 349.339 78.8066 349.681C78.9881 350.015 79.2313 350.272 79.5362 350.454C79.8411 350.628 80.1787 350.715 80.5489 350.715C80.9192 350.715 81.2568 350.628 81.5617 350.454C81.8739 350.272 82.1207 350.015 82.3022 349.681C82.4837 349.339 82.5744 348.944 82.5744 348.494ZM88.1585 345.412C88.8845 345.412 89.4725 345.633 89.9226 346.076C90.3727 346.512 90.5978 347.143 90.5978 347.971V351.488H89.6177V348.112C89.6177 347.517 89.4689 347.063 89.1712 346.751C88.8736 346.432 88.467 346.272 87.9516 346.272C87.4289 346.272 87.0114 346.435 86.6993 346.762C86.3944 347.089 86.2419 347.564 86.2419 348.189V351.488H85.2509V345.521H86.2419V346.37C86.4379 346.065 86.7029 345.829 87.0368 345.662C87.3781 345.495 87.7519 345.412 88.1585 345.412ZM97.509 345.521V351.488H96.518V350.606C96.3292 350.911 96.0643 351.151 95.723 351.325C95.3891 351.492 95.0188 351.575 94.6123 351.575C94.1477 351.575 93.7302 351.481 93.36 351.292C92.9897 351.096 92.6957 350.806 92.4779 350.421C92.2674 350.036 92.1621 349.568 92.1621 349.016V345.521H93.1422V348.886C93.1422 349.474 93.291 349.927 93.5887 350.247C93.8863 350.559 94.2929 350.715 94.8083 350.715C95.3383 350.715 95.7557 350.552 96.0606 350.225C96.3655 349.898 96.518 349.423 96.518 348.799V345.521H97.509ZM98.8119 348.483C98.8119 347.873 98.9353 347.339 99.1822 346.882C99.429 346.417 99.7666 346.058 100.195 345.804C100.631 345.55 101.113 345.423 101.643 345.423C102.166 345.423 102.62 345.535 103.004 345.76C103.389 345.985 103.676 346.268 103.865 346.61V345.521H104.867V351.488H103.865V350.378C103.669 350.726 103.375 351.016 102.983 351.249C102.598 351.474 102.148 351.586 101.632 351.586C101.102 351.586 100.623 351.456 100.195 351.194C99.7666 350.933 99.429 350.566 99.1822 350.094C98.9353 349.623 98.8119 349.085 98.8119 348.483ZM103.865 348.494C103.865 348.043 103.774 347.651 103.593 347.318C103.411 346.984 103.164 346.729 102.852 346.555C102.547 346.374 102.21 346.283 101.839 346.283C101.469 346.283 101.131 346.37 100.827 346.544C100.522 346.719 100.278 346.973 100.097 347.307C99.9154 347.641 99.8247 348.033 99.8247 348.483C99.8247 348.94 99.9154 349.339 100.097 349.681C100.278 350.015 100.522 350.272 100.827 350.454C101.131 350.628 101.469 350.715 101.839 350.715C102.21 350.715 102.547 350.628 102.852 350.454C103.164 350.272 103.411 350.015 103.593 349.681C103.774 349.339 103.865 348.944 103.865 348.494ZM107.532 346.49C107.706 346.149 107.953 345.884 108.273 345.695C108.599 345.506 108.995 345.412 109.46 345.412V346.435H109.198C108.088 346.435 107.532 347.038 107.532 348.243V351.488H106.541V345.521H107.532V346.49ZM115.744 345.521L112.15 354.298H111.126L112.302 351.423L109.896 345.521H110.996L112.869 350.356L114.72 345.521H115.744Z" fill="#92959E"/>
<path d="M30.1853 294.238V293.334H32.2326V301.207H31.2307V294.238H30.1853ZM37.4304 301.207L35.0891 298.572V301.207H34.0981V293.149H35.0891V297.886L37.3868 295.239H38.7698L35.9603 298.212L38.7807 301.207H37.4304Z" fill="#92959E"/>
<path d="M31.5992 193.632H27.7768V196.114C27.9438 195.882 28.1907 195.693 28.5174 195.548C28.844 195.396 29.1961 195.319 29.5737 195.319C30.1762 195.319 30.6663 195.446 31.0438 195.701C31.4213 195.947 31.6899 196.27 31.8496 196.67C32.0166 197.062 32.1001 197.479 32.1001 197.922C32.1001 198.445 32.0021 198.913 31.8061 199.327C31.61 199.741 31.3088 200.067 30.9022 200.307C30.5029 200.547 30.0056 200.666 29.4103 200.666C28.648 200.666 28.0309 200.47 27.5591 200.078C27.0872 199.686 26.8004 199.164 26.6988 198.51H27.6679C27.7623 198.924 27.962 199.247 28.2669 199.479C28.5718 199.712 28.9566 199.828 29.4212 199.828C29.9947 199.828 30.4267 199.657 30.7171 199.316C31.0075 198.968 31.1527 198.51 31.1527 197.944C31.1527 197.378 31.0075 196.942 30.7171 196.637C30.4267 196.325 29.9984 196.169 29.4321 196.169C29.0473 196.169 28.7097 196.263 28.4193 196.452C28.1362 196.633 27.9293 196.884 27.7986 197.203H26.8621V192.76H31.5992V193.632ZM36.9126 200.645L34.5713 198.009V200.645H33.5803V192.586H34.5713V197.323L36.869 194.677H38.252L35.4425 197.65L38.2629 200.645H36.9126Z" fill="#92959E"/>
<path d="M27.8531 99.2604C27.9257 99.6742 28.0927 99.9937 28.354 100.219C28.6226 100.444 28.982 100.556 29.4321 100.556C30.0347 100.556 30.4775 100.32 30.7606 99.8485C31.051 99.3766 31.189 98.5816 31.1745 97.4636C31.022 97.7903 30.7679 98.048 30.4122 98.2368C30.0564 98.4183 29.6608 98.509 29.2252 98.509C28.7388 98.509 28.3032 98.411 27.9184 98.215C27.5409 98.0117 27.2432 97.7177 27.0255 97.3329C26.8077 96.9482 26.6988 96.4835 26.6988 95.9391C26.6988 95.1623 26.9238 94.5379 27.3739 94.066C27.824 93.5869 28.4629 93.3473 29.2905 93.3473C30.3069 93.3473 31.0184 93.6776 31.4249 94.3383C31.8387 94.9989 32.0456 95.9826 32.0456 97.2894C32.0456 98.2041 31.9621 98.9592 31.7952 99.5545C31.6355 100.15 31.3596 100.604 30.9675 100.916C30.5828 101.228 30.0528 101.384 29.3776 101.384C28.6371 101.384 28.06 101.184 27.6462 100.785C27.2324 100.386 26.9964 99.8775 26.9383 99.2604H27.8531ZM29.3885 97.6705C29.8749 97.6705 30.2742 97.5217 30.5864 97.224C30.8986 96.9191 31.0547 96.509 31.0547 95.9935C31.0547 95.449 30.9022 95.0098 30.5973 94.6758C30.2924 94.3419 29.8641 94.1749 29.3123 94.1749C28.8041 94.1749 28.3976 94.3346 28.0927 94.6541C27.795 94.9735 27.6462 95.3946 27.6462 95.9173C27.6462 96.4472 27.795 96.8719 28.0927 97.1914C28.3903 97.5108 28.8223 97.6705 29.3885 97.6705ZM36.9339 101.373L34.5926 98.7377V101.373H33.6016V93.3146H34.5926V98.0517L36.8903 95.4055H38.2733L35.4637 98.3784L38.2842 101.373H36.9339Z" fill="#92959E"/>
<path d="M26.5572 245.034C26.608 244.367 26.8657 243.844 27.3304 243.466C27.795 243.089 28.3976 242.9 29.1381 242.9C29.6317 242.9 30.0564 242.991 30.4122 243.172C30.7752 243.347 31.0474 243.586 31.2289 243.891C31.4177 244.196 31.512 244.541 31.512 244.926C31.512 245.376 31.3814 245.764 31.12 246.091C30.8659 246.417 30.532 246.628 30.1181 246.722V246.777C30.59 246.893 30.9639 247.122 31.2398 247.463C31.5157 247.804 31.6536 248.251 31.6536 248.802C31.6536 249.216 31.5592 249.59 31.3705 249.924C31.1817 250.251 30.8986 250.508 30.5211 250.697C30.1436 250.886 29.6898 250.98 29.1598 250.98C28.3903 250.98 27.7587 250.781 27.265 250.381C26.7714 249.975 26.4955 249.401 26.4374 248.661H27.3957C27.4465 249.096 27.6244 249.452 27.9293 249.728C28.2342 250.004 28.6408 250.142 29.149 250.142C29.6571 250.142 30.0419 250.011 30.3033 249.75C30.5719 249.481 30.7062 249.136 30.7062 248.715C30.7062 248.171 30.5247 247.779 30.1617 247.539C29.7987 247.299 29.2506 247.18 28.5174 247.18H28.2669V246.352H28.5282C29.1961 246.345 29.7007 246.236 30.0419 246.025C30.3831 245.808 30.5537 245.474 30.5537 245.024C30.5537 244.639 30.4267 244.33 30.1726 244.098C29.9258 243.866 29.57 243.749 29.1054 243.749C28.6553 243.749 28.2923 243.866 28.0164 244.098C27.7405 244.33 27.5772 244.642 27.5264 245.034H26.5572ZM36.4872 250.926L34.1459 248.29V250.926H33.1549V242.867H34.1459V247.604L36.4436 244.958H37.8266L35.0171 247.931L37.8375 250.926H36.4872Z" fill="#92959E"/>
<path d="M31.4249 144.554L28.3976 151.654H27.3957L30.4666 144.652H26.2632V143.803H31.4249V144.554ZM36.0193 151.654L33.678 149.019V151.654H32.687V143.596H33.678V148.333L35.9757 145.687H37.3587L34.5492 148.66L37.3696 151.654H36.0193Z" fill="#92959E"/>
<path d="M423.366 343.953V351.488H422.375V345.869L419.871 351.488H419.174L416.658 345.858V351.488H415.667V343.953H416.734L419.522 350.182L422.31 343.953H423.366ZM424.677 348.483C424.677 347.873 424.8 347.339 425.047 346.882C425.294 346.417 425.631 346.058 426.06 345.804C426.495 345.55 426.978 345.423 427.508 345.423C428.031 345.423 428.484 345.535 428.869 345.76C429.254 345.985 429.541 346.268 429.729 346.61V345.521H430.731V351.488H429.729V350.378C429.533 350.726 429.239 351.016 428.847 351.249C428.463 351.474 428.013 351.586 427.497 351.586C426.967 351.586 426.488 351.456 426.06 351.194C425.631 350.933 425.294 350.566 425.047 350.094C424.8 349.623 424.677 349.085 424.677 348.483ZM429.729 348.494C429.729 348.043 429.639 347.651 429.457 347.318C429.276 346.984 429.029 346.729 428.717 346.555C428.412 346.374 428.074 346.283 427.704 346.283C427.334 346.283 426.996 346.37 426.691 346.544C426.386 346.719 426.143 346.973 425.962 347.307C425.78 347.641 425.689 348.033 425.689 348.483C425.689 348.94 425.78 349.339 425.962 349.681C426.143 350.015 426.386 350.272 426.691 350.454C426.996 350.628 427.334 350.715 427.704 350.715C428.074 350.715 428.412 350.628 428.717 350.454C429.029 350.272 429.276 350.015 429.457 349.681C429.639 349.339 429.729 348.944 429.729 348.494ZM433.397 346.49C433.571 346.149 433.818 345.884 434.137 345.695C434.464 345.506 434.86 345.412 435.324 345.412V346.435H435.063C433.952 346.435 433.397 347.038 433.397 348.243V351.488H432.406V345.521H433.397V346.49ZM436.098 348.494C436.098 347.877 436.222 347.339 436.468 346.882C436.715 346.417 437.056 346.058 437.492 345.804C437.935 345.55 438.439 345.423 439.006 345.423C439.739 345.423 440.341 345.601 440.813 345.956C441.293 346.312 441.608 346.806 441.761 347.437H440.694C440.592 347.074 440.392 346.788 440.095 346.577C439.804 346.366 439.441 346.261 439.006 346.261C438.439 346.261 437.982 346.457 437.634 346.849C437.285 347.234 437.111 347.782 437.111 348.494C437.111 349.212 437.285 349.768 437.634 350.16C437.982 350.552 438.439 350.748 439.006 350.748C439.441 350.748 439.804 350.646 440.095 350.443C440.385 350.24 440.585 349.949 440.694 349.572H441.761C441.601 350.182 441.282 350.672 440.802 351.042C440.323 351.405 439.724 351.586 439.006 351.586C438.439 351.586 437.935 351.459 437.492 351.205C437.056 350.951 436.715 350.592 436.468 350.127C436.222 349.662 436.098 349.118 436.098 348.494ZM446.045 345.412C446.495 345.412 446.902 345.51 447.265 345.706C447.628 345.895 447.911 346.181 448.114 346.566C448.325 346.951 448.43 347.419 448.43 347.971V351.488H447.45V348.112C447.45 347.517 447.301 347.063 447.003 346.751C446.706 346.432 446.299 346.272 445.784 346.272C445.261 346.272 444.844 346.435 444.531 346.762C444.226 347.089 444.074 347.564 444.074 348.189V351.488H443.083V343.43H444.074V346.37C444.27 346.065 444.539 345.829 444.88 345.662C445.228 345.495 445.617 345.412 446.045 345.412Z" fill="#92959E"/>
<path d="M242.229 343.898V344.704H238.93V347.263H241.608V348.069H238.93V351.488H237.939V343.898H242.229ZM248.871 348.276C248.871 348.465 248.86 348.664 248.838 348.875H244.069C244.105 349.463 244.304 349.924 244.667 350.258C245.038 350.584 245.484 350.748 246.007 350.748C246.435 350.748 246.791 350.65 247.074 350.454C247.365 350.25 247.568 349.982 247.684 349.648H248.751C248.591 350.221 248.272 350.69 247.793 351.053C247.314 351.408 246.718 351.586 246.007 351.586C245.441 351.586 244.932 351.459 244.482 351.205C244.04 350.951 243.691 350.592 243.437 350.127C243.183 349.655 243.056 349.111 243.056 348.494C243.056 347.877 243.179 347.336 243.426 346.871C243.673 346.406 244.018 346.051 244.461 345.804C244.911 345.55 245.426 345.423 246.007 345.423C246.573 345.423 247.074 345.546 247.51 345.793C247.945 346.04 248.279 346.381 248.512 346.817C248.751 347.245 248.871 347.731 248.871 348.276ZM247.847 348.069C247.847 347.691 247.764 347.368 247.597 347.1C247.43 346.824 247.201 346.617 246.911 346.479C246.628 346.334 246.312 346.261 245.963 346.261C245.462 346.261 245.034 346.421 244.678 346.74C244.33 347.06 244.13 347.503 244.079 348.069H247.847ZM251.17 346.631C251.373 346.276 251.671 345.985 252.063 345.76C252.455 345.535 252.901 345.423 253.402 345.423C253.94 345.423 254.422 345.55 254.851 345.804C255.279 346.058 255.617 346.417 255.863 346.882C256.11 347.339 256.234 347.873 256.234 348.483C256.234 349.085 256.11 349.623 255.863 350.094C255.617 350.566 255.275 350.933 254.84 351.194C254.411 351.456 253.932 351.586 253.402 351.586C252.887 351.586 252.433 351.474 252.041 351.249C251.656 351.024 251.366 350.737 251.17 350.388V351.488H250.179V343.43H251.17V346.631ZM255.221 348.483C255.221 348.033 255.13 347.641 254.949 347.307C254.767 346.973 254.52 346.719 254.208 346.544C253.903 346.37 253.566 346.283 253.195 346.283C252.832 346.283 252.495 346.374 252.183 346.555C251.878 346.729 251.631 346.987 251.442 347.328C251.261 347.662 251.17 348.051 251.17 348.494C251.17 348.944 251.261 349.339 251.442 349.681C251.631 350.015 251.878 350.272 252.183 350.454C252.495 350.628 252.832 350.715 253.195 350.715C253.566 350.715 253.903 350.628 254.208 350.454C254.52 350.272 254.767 350.015 254.949 349.681C255.13 349.339 255.221 348.94 255.221 348.483ZM258.529 346.49C258.703 346.149 258.95 345.884 259.27 345.695C259.596 345.506 259.992 345.412 260.457 345.412V346.435H260.195C259.084 346.435 258.529 347.038 258.529 348.243V351.488H257.538V345.521H258.529V346.49ZM266.893 345.521V351.488H265.902V350.606C265.713 350.911 265.448 351.151 265.107 351.325C264.773 351.492 264.403 351.575 263.996 351.575C263.532 351.575 263.114 351.481 262.744 351.292C262.374 351.096 262.08 350.806 261.862 350.421C261.651 350.036 261.546 349.568 261.546 349.016V345.521H262.526V348.886C262.526 349.474 262.675 349.927 262.973 350.247C263.27 350.559 263.677 350.715 264.192 350.715C264.722 350.715 265.14 350.552 265.445 350.225C265.749 349.898 265.902 349.423 265.902 348.799V345.521H266.893ZM268.196 348.483C268.196 347.873 268.319 347.339 268.566 346.882C268.813 346.417 269.15 346.058 269.579 345.804C270.014 345.55 270.497 345.423 271.027 345.423C271.55 345.423 272.004 345.535 272.388 345.76C272.773 345.985 273.06 346.268 273.249 346.61V345.521H274.251V351.488H273.249V350.378C273.053 350.726 272.759 351.016 272.367 351.249C271.982 351.474 271.532 351.586 271.016 351.586C270.486 351.586 270.007 351.456 269.579 351.194C269.15 350.933 268.813 350.566 268.566 350.094C268.319 349.623 268.196 349.085 268.196 348.483ZM273.249 348.494C273.249 348.043 273.158 347.651 272.976 347.318C272.795 346.984 272.548 346.729 272.236 346.555C271.931 346.374 271.593 346.283 271.223 346.283C270.853 346.283 270.515 346.37 270.21 346.544C269.906 346.719 269.662 346.973 269.481 347.307C269.299 347.641 269.209 348.033 269.209 348.483C269.209 348.94 269.299 349.339 269.481 349.681C269.662 350.015 269.906 350.272 270.21 350.454C270.515 350.628 270.853 350.715 271.223 350.715C271.593 350.715 271.931 350.628 272.236 350.454C272.548 350.272 272.795 350.015 272.976 349.681C273.158 349.339 273.249 348.944 273.249 348.494ZM276.916 346.49C277.09 346.149 277.337 345.884 277.657 345.695C277.983 345.506 278.379 345.412 278.844 345.412V346.435H278.582C277.472 346.435 276.916 347.038 276.916 348.243V351.488H275.925V345.521H276.916V346.49ZM285.128 345.521L281.534 354.298H280.51L281.686 351.423L279.28 345.521H280.38L282.253 350.356L284.104 345.521H285.128Z" fill="#92959E"/>
<path d="M594.178 349.8H590.868L590.258 351.488H589.212L591.957 343.942H593.1L595.833 351.488H594.788L594.178 349.8ZM593.895 348.995L592.523 345.161L591.151 348.995H593.895ZM598.02 346.621C598.216 346.279 598.507 345.996 598.892 345.771C599.284 345.539 599.737 345.423 600.253 345.423C600.783 345.423 601.262 345.55 601.69 345.804C602.126 346.058 602.467 346.417 602.714 346.882C602.961 347.339 603.084 347.873 603.084 348.483C603.084 349.085 602.961 349.623 602.714 350.094C602.467 350.566 602.126 350.933 601.69 351.194C601.262 351.456 600.783 351.586 600.253 351.586C599.745 351.586 599.295 351.474 598.902 351.249C598.518 351.016 598.224 350.73 598.02 350.388V354.32H597.029V345.521H598.02V346.621ZM602.071 348.483C602.071 348.033 601.981 347.641 601.799 347.307C601.618 346.973 601.371 346.719 601.059 346.544C600.754 346.37 600.416 346.283 600.046 346.283C599.683 346.283 599.345 346.374 599.033 346.555C598.728 346.729 598.481 346.987 598.293 347.328C598.111 347.662 598.02 348.051 598.02 348.494C598.02 348.944 598.111 349.339 598.293 349.681C598.481 350.015 598.728 350.272 599.033 350.454C599.345 350.628 599.683 350.715 600.046 350.715C600.416 350.715 600.754 350.628 601.059 350.454C601.371 350.272 601.618 350.015 601.799 349.681C601.981 349.339 602.071 348.94 602.071 348.483ZM605.38 346.49C605.554 346.149 605.801 345.884 606.12 345.695C606.447 345.506 606.842 345.412 607.307 345.412V346.435H607.046C605.935 346.435 605.38 347.038 605.38 348.243V351.488H604.389V345.521H605.38V346.49ZM608.963 344.552C608.774 344.552 608.614 344.486 608.484 344.355C608.353 344.225 608.288 344.065 608.288 343.876C608.288 343.688 608.353 343.528 608.484 343.397C608.614 343.267 608.774 343.201 608.963 343.201C609.144 343.201 609.297 343.267 609.42 343.397C609.551 343.528 609.616 343.688 609.616 343.876C609.616 344.065 609.551 344.225 609.42 344.355C609.297 344.486 609.144 344.552 608.963 344.552ZM609.442 345.521V351.488H608.451V345.521H609.442ZM612.122 343.43V351.488H611.131V343.43H612.122Z" fill="#92959E"/>
<path d="M768.194 343.953V351.488H767.203V345.869L764.699 351.488H764.002L761.486 345.858V351.488H760.495V343.953H761.563L764.35 350.182L767.138 343.953H768.194ZM769.505 348.483C769.505 347.873 769.628 347.339 769.875 346.882C770.122 346.417 770.459 346.058 770.888 345.804C771.323 345.55 771.806 345.423 772.336 345.423C772.859 345.423 773.313 345.535 773.697 345.76C774.082 345.985 774.369 346.268 774.558 346.61V345.521H775.559V351.488H774.558V350.378C774.362 350.726 774.068 351.016 773.676 351.249C773.291 351.474 772.841 351.586 772.325 351.586C771.795 351.586 771.316 351.456 770.888 351.194C770.459 350.933 770.122 350.566 769.875 350.094C769.628 349.623 769.505 349.085 769.505 348.483ZM774.558 348.494C774.558 348.043 774.467 347.651 774.285 347.318C774.104 346.984 773.857 346.729 773.545 346.555C773.24 346.374 772.902 346.283 772.532 346.283C772.162 346.283 771.824 346.37 771.519 346.544C771.214 346.719 770.971 346.973 770.79 347.307C770.608 347.641 770.518 348.033 770.518 348.483C770.518 348.94 770.608 349.339 770.79 349.681C770.971 350.015 771.214 350.272 771.519 350.454C771.824 350.628 772.162 350.715 772.532 350.715C772.902 350.715 773.24 350.628 773.545 350.454C773.857 350.272 774.104 350.015 774.285 349.681C774.467 349.339 774.558 348.944 774.558 348.494ZM782.374 345.521L778.78 354.298H777.757L778.933 351.423L776.526 345.521H777.626L779.499 350.356L781.35 345.521H782.374Z" fill="#92959E"/>
<path d="M922.739 343.953V351.488H921.748V345.869L919.244 351.488H918.547L916.031 345.858V351.488H915.04V343.953H916.107L918.895 350.182L921.683 343.953H922.739ZM924.05 348.483C924.05 347.873 924.173 347.339 924.42 346.882C924.667 346.417 925.004 346.058 925.433 345.804C925.868 345.55 926.351 345.423 926.881 345.423C927.404 345.423 927.857 345.535 928.242 345.76C928.627 345.985 928.914 346.268 929.102 346.61V345.521H930.104V351.488H929.102V350.378C928.906 350.726 928.612 351.016 928.22 351.249C927.836 351.474 927.385 351.586 926.87 351.586C926.34 351.586 925.861 351.456 925.433 351.194C925.004 350.933 924.667 350.566 924.42 350.094C924.173 349.623 924.05 349.085 924.05 348.483ZM929.102 348.494C929.102 348.043 929.012 347.651 928.83 347.318C928.649 346.984 928.402 346.729 928.09 346.555C927.785 346.374 927.447 346.283 927.077 346.283C926.707 346.283 926.369 346.37 926.064 346.544C925.759 346.719 925.516 346.973 925.335 347.307C925.153 347.641 925.062 348.033 925.062 348.483C925.062 348.94 925.153 349.339 925.335 349.681C925.516 350.015 925.759 350.272 926.064 350.454C926.369 350.628 926.707 350.715 927.077 350.715C927.447 350.715 927.785 350.628 928.09 350.454C928.402 350.272 928.649 350.015 928.83 349.681C929.012 349.339 929.102 348.944 929.102 348.494ZM936.919 345.521L933.325 354.298H932.302L933.478 351.423L931.071 345.521H932.171L934.044 350.356L935.895 345.521H936.919Z" fill="#92959E"/>
<path d="M709.21 325.306V97.1074" stroke="#ECECEE" stroke-width="0.90748"/>
<circle cx="706.631" cy="97.1064" r="6.44628" fill="white" stroke="#F39C12" stroke-width="2.72244"/>
<circle cx="709.21" cy="326.597" r="6.44628" fill="white" stroke="#F2C94C" stroke-width="2.72244"/>
<g filter="url(#filter0_d_2215:13319)">
<rect x="559.656" y="99.6875" width="135.372" height="74.7769" rx="10.8898" fill="white"/>
</g>
<path d="M584.445 118.375V119.286H580.716V122.178H583.744V123.089H580.716V126.953H579.596V118.375H584.445ZM591.779 120.209V126.953H590.659V125.956C590.446 126.301 590.146 126.572 589.761 126.769C589.383 126.957 588.965 127.052 588.505 127.052C587.98 127.052 587.508 126.945 587.09 126.732C586.671 126.51 586.339 126.182 586.093 125.747C585.855 125.312 585.736 124.783 585.736 124.159V120.209H586.844V124.012C586.844 124.676 587.012 125.189 587.348 125.55C587.685 125.903 588.144 126.079 588.727 126.079C589.326 126.079 589.797 125.895 590.142 125.525C590.487 125.156 590.659 124.619 590.659 123.913V120.209H591.779ZM596.956 120.086C597.776 120.086 598.441 120.336 598.95 120.836C599.458 121.329 599.713 122.043 599.713 122.978V126.953H598.605V123.138C598.605 122.465 598.437 121.952 598.1 121.6C597.764 121.239 597.305 121.058 596.722 121.058C596.131 121.058 595.66 121.243 595.307 121.612C594.962 121.981 594.79 122.518 594.79 123.224V126.953H593.67V120.209H594.79V121.169C595.011 120.824 595.311 120.558 595.688 120.369C596.074 120.18 596.496 120.086 596.956 120.086ZM601.124 123.556C601.124 122.867 601.263 122.264 601.542 121.747C601.821 121.222 602.203 120.816 602.687 120.529C603.179 120.242 603.729 120.098 604.336 120.098C604.861 120.098 605.349 120.221 605.8 120.467C606.252 120.705 606.596 121.021 606.834 121.415V117.846H607.966V126.953H606.834V125.685C606.613 126.088 606.285 126.42 605.85 126.682C605.415 126.937 604.906 127.064 604.324 127.064C603.725 127.064 603.179 126.916 602.687 126.621C602.203 126.325 601.821 125.911 601.542 125.378C601.263 124.844 601.124 124.237 601.124 123.556ZM606.834 123.569C606.834 123.06 606.732 122.617 606.527 122.239C606.321 121.862 606.042 121.575 605.69 121.378C605.345 121.173 604.964 121.07 604.545 121.07C604.127 121.07 603.745 121.169 603.401 121.366C603.056 121.563 602.781 121.85 602.576 122.227C602.371 122.605 602.268 123.048 602.268 123.556C602.268 124.073 602.371 124.525 602.576 124.91C602.781 125.288 603.056 125.579 603.401 125.784C603.745 125.981 604.127 126.079 604.545 126.079C604.964 126.079 605.345 125.981 605.69 125.784C606.042 125.579 606.321 125.288 606.527 124.91C606.732 124.525 606.834 124.077 606.834 123.569ZM610.438 119.113C610.224 119.113 610.044 119.04 609.896 118.892C609.748 118.744 609.674 118.564 609.674 118.35C609.674 118.137 609.748 117.957 609.896 117.809C610.044 117.661 610.224 117.587 610.438 117.587C610.643 117.587 610.815 117.661 610.954 117.809C611.102 117.957 611.176 118.137 611.176 118.35C611.176 118.564 611.102 118.744 610.954 118.892C610.815 119.04 610.643 119.113 610.438 119.113ZM610.979 120.209V126.953H609.859V120.209H610.979ZM616.174 120.086C616.994 120.086 617.659 120.336 618.168 120.836C618.676 121.329 618.931 122.043 618.931 122.978V126.953H617.823V123.138C617.823 122.465 617.655 121.952 617.318 121.6C616.982 121.239 616.523 121.058 615.94 121.058C615.349 121.058 614.877 121.243 614.525 121.612C614.18 121.981 614.008 122.518 614.008 123.224V126.953H612.888V120.209H614.008V121.169C614.229 120.824 614.529 120.558 614.906 120.369C615.292 120.18 615.714 120.086 616.174 120.086ZM623.541 120.098C624.124 120.098 624.633 120.225 625.068 120.48C625.511 120.734 625.839 121.054 626.052 121.44V120.209H627.184V127.101C627.184 127.716 627.053 128.262 626.791 128.738C626.528 129.222 626.151 129.599 625.658 129.87C625.174 130.141 624.608 130.276 623.96 130.276C623.074 130.276 622.335 130.067 621.745 129.648C621.154 129.23 620.805 128.66 620.699 127.938H621.806C621.929 128.348 622.184 128.676 622.569 128.922C622.955 129.177 623.418 129.304 623.96 129.304C624.575 129.304 625.076 129.111 625.461 128.725C625.855 128.34 626.052 127.798 626.052 127.101V125.685C625.831 126.079 625.502 126.408 625.068 126.67C624.633 126.933 624.124 127.064 623.541 127.064C622.943 127.064 622.397 126.916 621.905 126.621C621.421 126.325 621.039 125.911 620.76 125.378C620.481 124.844 620.342 124.237 620.342 123.556C620.342 122.867 620.481 122.264 620.76 121.747C621.039 121.222 621.421 120.816 621.905 120.529C622.397 120.242 622.943 120.098 623.541 120.098ZM626.052 123.569C626.052 123.06 625.95 122.617 625.744 122.239C625.539 121.862 625.26 121.575 624.908 121.378C624.563 121.173 624.181 121.07 623.763 121.07C623.345 121.07 622.963 121.169 622.618 121.366C622.274 121.563 621.999 121.85 621.794 122.227C621.589 122.605 621.486 123.048 621.486 123.556C621.486 124.073 621.589 124.525 621.794 124.91C621.999 125.288 622.274 125.579 622.618 125.784C622.963 125.981 623.345 126.079 623.763 126.079C624.181 126.079 624.563 125.981 624.908 125.784C625.26 125.579 625.539 125.288 625.744 124.91C625.95 124.525 626.052 124.077 626.052 123.569ZM637.429 125.046H633.687L632.998 126.953H631.817L634.918 118.424H636.21L639.299 126.953H638.118L637.429 125.046ZM637.109 124.135L635.558 119.803L634.007 124.135H637.109ZM640.233 123.569C640.233 122.871 640.372 122.264 640.651 121.747C640.93 121.222 641.316 120.816 641.808 120.529C642.308 120.242 642.879 120.098 643.519 120.098C644.347 120.098 645.028 120.299 645.562 120.701C646.103 121.103 646.46 121.661 646.632 122.375H645.426C645.311 121.965 645.086 121.641 644.749 121.403C644.421 121.165 644.011 121.046 643.519 121.046C642.879 121.046 642.362 121.267 641.968 121.71C641.574 122.145 641.377 122.765 641.377 123.569C641.377 124.381 641.574 125.009 641.968 125.452C642.362 125.895 642.879 126.116 643.519 126.116C644.011 126.116 644.421 126.001 644.749 125.772C645.078 125.542 645.303 125.214 645.426 124.787H646.632C646.452 125.476 646.091 126.03 645.549 126.449C645.008 126.859 644.331 127.064 643.519 127.064C642.879 127.064 642.308 126.92 641.808 126.633C641.316 126.346 640.93 125.94 640.651 125.415C640.372 124.89 640.233 124.274 640.233 123.569ZM649.493 121.132V125.107C649.493 125.435 649.563 125.669 649.702 125.809C649.841 125.94 650.084 126.005 650.428 126.005H651.253V126.953H650.244C649.62 126.953 649.152 126.81 648.84 126.522C648.529 126.235 648.373 125.763 648.373 125.107V121.132H647.499V120.209H648.373V118.51H649.493V120.209H651.253V121.132H649.493ZM653.188 119.113C652.975 119.113 652.794 119.04 652.647 118.892C652.499 118.744 652.425 118.564 652.425 118.35C652.425 118.137 652.499 117.957 652.647 117.809C652.794 117.661 652.975 117.587 653.188 117.587C653.393 117.587 653.566 117.661 653.705 117.809C653.853 117.957 653.927 118.137 653.927 118.35C653.927 118.564 653.853 118.744 653.705 118.892C653.566 119.04 653.393 119.113 653.188 119.113ZM653.73 120.209V126.953H652.61V120.209H653.73ZM658.149 125.919L660.241 120.209H661.435L658.789 126.953H657.484L654.838 120.209H656.044L658.149 125.919ZM663.116 119.113C662.902 119.113 662.722 119.04 662.574 118.892C662.426 118.744 662.352 118.564 662.352 118.35C662.352 118.137 662.426 117.957 662.574 117.809C662.722 117.661 662.902 117.587 663.116 117.587C663.321 117.587 663.493 117.661 663.632 117.809C663.78 117.957 663.854 118.137 663.854 118.35C663.854 118.564 663.78 118.744 663.632 118.892C663.493 119.04 663.321 119.113 663.116 119.113ZM663.657 120.209V126.953H662.537V120.209H663.657ZM666.932 121.132V125.107C666.932 125.435 667.002 125.669 667.141 125.809C667.281 125.94 667.523 126.005 667.867 126.005H668.692V126.953H667.683C667.059 126.953 666.591 126.81 666.28 126.522C665.968 126.235 665.812 125.763 665.812 125.107V121.132H664.938V120.209H665.812V118.51H666.932V120.209H668.692V121.132H666.932ZM675.858 120.209L671.796 130.128H670.64L671.969 126.879L669.249 120.209H670.492L672.609 125.673L674.701 120.209H675.858Z" fill="#92959E"/>
<path d="M600.683 145.384V143.878H604.095V157H602.426V145.384H600.683ZM606.733 155.675C608.269 154.441 609.473 153.431 610.344 152.644C611.216 151.846 611.948 151.017 612.541 150.158C613.145 149.286 613.448 148.433 613.448 147.599C613.448 146.812 613.254 146.195 612.867 145.747C612.492 145.287 611.881 145.058 611.034 145.058C610.211 145.058 609.57 145.318 609.11 145.838C608.663 146.346 608.421 147.03 608.384 147.889H606.787C606.835 146.534 607.247 145.487 608.021 144.749C608.796 144.011 609.794 143.642 611.016 143.642C612.262 143.642 613.248 143.987 613.974 144.676C614.712 145.366 615.081 146.316 615.081 147.526C615.081 148.53 614.779 149.51 614.174 150.466C613.581 151.41 612.903 152.245 612.141 152.971C611.379 153.685 610.405 154.52 609.219 155.475H615.463V156.855H606.733V155.675ZM619.296 143.569V157H617.644V143.569H619.296ZM621.493 151.991C621.493 150.974 621.699 150.085 622.111 149.323C622.522 148.548 623.085 147.949 623.798 147.526C624.524 147.102 625.329 146.891 626.212 146.891C627.084 146.891 627.84 147.078 628.481 147.453C629.122 147.828 629.6 148.3 629.915 148.869V147.054H631.585V157H629.915V155.149C629.588 155.73 629.098 156.214 628.445 156.601C627.804 156.976 627.053 157.163 626.194 157.163C625.311 157.163 624.512 156.946 623.798 156.51C623.085 156.074 622.522 155.463 622.111 154.677C621.699 153.89 621.493 152.995 621.493 151.991ZM629.915 152.009C629.915 151.259 629.764 150.605 629.461 150.049C629.159 149.492 628.747 149.069 628.227 148.778C627.719 148.476 627.156 148.324 626.539 148.324C625.922 148.324 625.359 148.47 624.851 148.76C624.343 149.05 623.938 149.474 623.635 150.031C623.333 150.587 623.181 151.241 623.181 151.991C623.181 152.753 623.333 153.418 623.635 153.987C623.938 154.544 624.343 154.973 624.851 155.276C625.359 155.566 625.922 155.711 626.539 155.711C627.156 155.711 627.719 155.566 628.227 155.276C628.747 154.973 629.159 154.544 629.461 153.987C629.764 153.418 629.915 152.759 629.915 152.009ZM633.759 152.009C633.759 150.98 633.964 150.085 634.376 149.323C634.787 148.548 635.356 147.949 636.082 147.526C636.82 147.102 637.661 146.891 638.605 146.891C639.827 146.891 640.831 147.187 641.617 147.78C642.416 148.373 642.942 149.196 643.196 150.248H641.418C641.248 149.643 640.916 149.165 640.42 148.815C639.936 148.464 639.331 148.288 638.605 148.288C637.661 148.288 636.899 148.615 636.318 149.268C635.737 149.91 635.447 150.823 635.447 152.009C635.447 153.207 635.737 154.132 636.318 154.786C636.899 155.439 637.661 155.766 638.605 155.766C639.331 155.766 639.936 155.596 640.42 155.258C640.904 154.919 641.236 154.435 641.418 153.806H643.196C642.93 154.822 642.398 155.639 641.599 156.256C640.801 156.861 639.802 157.163 638.605 157.163C637.661 157.163 636.82 156.952 636.082 156.528C635.356 156.105 634.787 155.506 634.376 154.731C633.964 153.957 633.759 153.049 633.759 152.009ZM648.921 157.163C648.159 157.163 647.475 157.036 646.87 156.782C646.265 156.516 645.787 156.153 645.437 155.693C645.086 155.221 644.892 154.683 644.856 154.078H646.562C646.61 154.574 646.84 154.979 647.251 155.294C647.675 155.609 648.225 155.766 648.903 155.766C649.532 155.766 650.028 155.627 650.391 155.348C650.754 155.07 650.936 154.719 650.936 154.296C650.936 153.86 650.742 153.539 650.355 153.334C649.968 153.116 649.369 152.904 648.558 152.699C647.82 152.505 647.215 152.311 646.743 152.118C646.283 151.912 645.884 151.616 645.545 151.228C645.219 150.829 645.055 150.309 645.055 149.668C645.055 149.159 645.207 148.694 645.509 148.27C645.812 147.847 646.241 147.514 646.798 147.272C647.354 147.018 647.99 146.891 648.703 146.891C649.805 146.891 650.694 147.169 651.371 147.726C652.049 148.282 652.412 149.044 652.46 150.012H650.809C650.772 149.492 650.561 149.075 650.174 148.76C649.798 148.445 649.29 148.288 648.649 148.288C648.056 148.288 647.584 148.415 647.233 148.669C646.882 148.923 646.707 149.256 646.707 149.668C646.707 149.994 646.81 150.266 647.016 150.484C647.233 150.69 647.5 150.859 647.814 150.992C648.141 151.113 648.588 151.253 649.157 151.41C649.871 151.604 650.452 151.797 650.9 151.991C651.347 152.172 651.728 152.451 652.043 152.826C652.37 153.201 652.539 153.691 652.551 154.296C652.551 154.84 652.4 155.33 652.097 155.766C651.795 156.201 651.365 156.546 650.809 156.8C650.264 157.042 649.635 157.163 648.921 157.163Z" fill="#15192C"/>
<defs>
<filter id="filter0_d_2215:13319" x="534.247" y="90.6127" width="186.191" height="125.596" filterUnits="userSpaceOnUse" color-interpolation-filters="sRGB">
<feFlood flood-opacity="0" result="BackgroundImageFix"/>
<feColorMatrix in="SourceAlpha" type="matrix" values="0 0 0 0 0 0 0 0 0 0 0 0 0 0 0 0 0 0 127 0" result="hardAlpha"/>
<feMorphology radius="3.62992" operator="erode" in="SourceAlpha" result="effect1_dropShadow_2215:13319"/>
<feOffset dy="16.3346"/>
<feGaussianBlur stdDeviation="14.5197"/>
<feColorMatrix type="matrix" values="0 0 0 0 0.815686 0 0 0 0 0.823529 0 0 0 0 0.854902 0 0 0 0.15 0"/>
<feBlend mode="normal" in2="BackgroundImageFix" result="effect1_dropShadow_2215:13319"/>
<feBlend mode="normal" in="SourceGraphic" in2="effect1_dropShadow_2215:13319" result="shape"/>
</filter>
<linearGradient id="paint0_linear_2215:13319" x1="532.339" y1="25.0472" x2="532.339" y2="343.008" gradientUnits="userSpaceOnUse">
<stop stop-color="#FFF0D8"/>
<stop offset="1" stop-color="#FFF9EF"/>
</linearGradient>
</defs>
</svg>
