<svg width="314" height="347" viewBox="0 0 314 347" fill="none" xmlns="http://www.w3.org/2000/svg">
<rect x="1.26964" y="1.15635" width="312.17" height="344.799" rx="4.76461" fill="white" stroke="#E5E5E5" stroke-width="1.0588"/>
<path d="M32.2065 35.0451C31.7984 35.6296 31.2277 36.068 30.4942 36.3603C29.7663 36.6471 28.917 36.7904 27.9465 36.7904C26.9649 36.7904 26.0936 36.5616 25.3326 36.1039C24.5715 35.6406 23.9815 34.9844 23.5624 34.1352C23.1488 33.2859 22.9365 32.3016 22.9254 31.1821V30.1316C22.9254 28.3173 23.3473 26.911 24.191 25.9129C25.0403 24.9147 26.2314 24.4157 27.7645 24.4157C29.0218 24.4157 30.0338 24.7383 30.8003 25.3835C31.5668 26.0232 32.0356 26.9331 32.2065 28.1132H30.6183C30.3205 26.5195 29.372 25.7226 27.7728 25.7226C26.7084 25.7226 25.9006 26.0976 25.3491 26.8476C24.8032 27.5921 24.5274 28.6729 24.5219 30.0902V31.0746C24.5219 32.4256 24.8307 33.501 25.4484 34.3006C26.066 35.0947 26.9015 35.4917 27.9547 35.4917C28.5503 35.4917 29.0715 35.4256 29.5181 35.2932C29.9648 35.1609 30.3343 34.9375 30.6266 34.6232V31.9183H27.8389V30.6279H32.2065V35.0451ZM38.8019 36.7904C37.5886 36.7904 36.6015 36.3934 35.8405 35.5993C35.0795 34.7997 34.699 33.7326 34.699 32.3981V32.1168C34.699 31.229 34.8672 30.4376 35.2036 29.7428C35.5455 29.0424 36.0197 28.4965 36.6263 28.1049C37.2385 27.7079 37.9002 27.5094 38.6116 27.5094C39.7752 27.5094 40.6796 27.8926 41.3248 28.6592C41.97 29.4257 42.2926 30.5231 42.2926 31.9514V32.5883H36.2293C36.2514 33.4706 36.5078 34.1848 36.9986 34.7307C37.4949 35.2712 38.1236 35.5414 38.8846 35.5414C39.425 35.5414 39.8827 35.4311 40.2577 35.2105C40.6327 34.9899 40.9608 34.6976 41.2421 34.3337L42.1768 35.0616C41.4268 36.2142 40.3018 36.7904 38.8019 36.7904ZM38.6116 28.7667C37.994 28.7667 37.4756 28.9928 37.0565 29.445C36.6374 29.8917 36.3782 30.5203 36.2789 31.331H40.7623V31.2152C40.7182 30.4376 40.5086 29.8365 40.1336 29.4119C39.7586 28.9818 39.2513 28.7667 38.6116 28.7667ZM45.9845 27.6748L46.0341 28.7998C46.718 27.9395 47.6113 27.5094 48.7142 27.5094C50.6057 27.5094 51.5598 28.5764 51.5763 30.7106V36.625H50.046V30.7023C50.0405 30.0571 49.8916 29.5801 49.5993 29.2713C49.3126 28.9625 48.8631 28.8081 48.251 28.8081C47.7547 28.8081 47.319 28.9404 46.9441 29.2051C46.5691 29.4698 46.2768 29.8172 46.0672 30.2474V36.625H44.5369V27.6748H45.9845ZM53.9778 32.0755C53.9778 30.7023 54.3032 29.5994 54.9539 28.7667C55.6046 27.9285 56.4566 27.5094 57.5099 27.5094C58.5577 27.5094 59.3876 27.8678 59.9998 28.5847V23.9194H61.5301V36.625H60.1238L60.0494 35.6655C59.4373 36.4154 58.5853 36.7904 57.4934 36.7904C56.4566 36.7904 55.6101 36.3658 54.9539 35.5166C54.3032 34.6673 53.9778 33.5589 53.9778 32.1913V32.0755ZM55.5081 32.2492C55.5081 33.2639 55.7177 34.058 56.1368 34.6315C56.5559 35.205 57.1349 35.4917 57.8739 35.4917C58.8444 35.4917 59.5531 35.0561 59.9998 34.1848V30.0737C59.542 29.2299 58.8389 28.8081 57.8904 28.8081C57.1404 28.8081 56.5559 29.0976 56.1368 29.6766C55.7177 30.2556 55.5081 31.1132 55.5081 32.2492ZM68.0923 36.7904C66.8791 36.7904 65.892 36.3934 65.131 35.5993C64.37 34.7997 63.9895 33.7326 63.9895 32.3981V32.1168C63.9895 31.229 64.1577 30.4376 64.494 29.7428C64.836 29.0424 65.3102 28.4965 65.9168 28.1049C66.5289 27.7079 67.1907 27.5094 67.9021 27.5094C69.0656 27.5094 69.97 27.8926 70.6153 28.6592C71.2605 29.4257 71.5831 30.5231 71.5831 31.9514V32.5883H65.5198C65.5418 33.4706 65.7982 34.1848 66.289 34.7307C66.7854 35.2712 67.414 35.5414 68.175 35.5414C68.7155 35.5414 69.1732 35.4311 69.5482 35.2105C69.9232 34.9899 70.2513 34.6976 70.5325 34.3337L71.4673 35.0616C70.7173 36.2142 69.5923 36.7904 68.0923 36.7904ZM67.9021 28.7667C67.2844 28.7667 66.7661 28.9928 66.347 29.445C65.9278 29.8917 65.6687 30.5203 65.5694 31.331H70.0528V31.2152C70.0086 30.4376 69.7991 29.8365 69.4241 29.4119C69.0491 28.9818 68.5418 28.7667 67.9021 28.7667ZM78.1536 29.0479C77.922 29.0093 77.6711 28.99 77.4009 28.99C76.3972 28.99 75.7161 29.4174 75.3577 30.2722V36.625H73.8274V27.6748H75.3163L75.3412 28.7088C75.843 27.9092 76.5544 27.5094 77.4753 27.5094C77.7731 27.5094 77.9992 27.548 78.1536 27.6252V29.0479ZM87.655 34.5488L89.8719 27.6748H91.4353L88.2258 36.625H87.0595L83.8169 27.6748H85.3803L87.655 34.5488ZM98.5849 34.251C98.5849 33.8374 98.4277 33.5175 98.1134 33.2914C97.8045 33.0598 97.2614 32.8613 96.4838 32.6958C95.7118 32.5304 95.0969 32.3319 94.6392 32.1003C94.187 31.8687 93.8506 31.5929 93.63 31.2731C93.4149 30.9532 93.3074 30.5727 93.3074 30.1316C93.3074 29.3981 93.6162 28.7777 94.2338 28.2704C94.857 27.763 95.6511 27.5094 96.6162 27.5094C97.6308 27.5094 98.4525 27.7713 99.0812 28.2952C99.7154 28.8191 100.032 29.4891 100.032 30.3053H98.4939C98.4939 29.8862 98.3146 29.525 97.9562 29.2216C97.6033 28.9183 97.1566 28.7667 96.6162 28.7667C96.0592 28.7667 95.6235 28.888 95.3092 29.1307C94.9949 29.3733 94.8377 29.6904 94.8377 30.0819C94.8377 30.4514 94.9838 30.7299 95.2761 30.9174C95.5684 31.1049 96.095 31.2841 96.856 31.4551C97.6226 31.626 98.243 31.8301 98.7172 32.0672C99.1915 32.3043 99.5416 32.5911 99.7677 32.9275C99.9994 33.2583 100.115 33.6637 100.115 34.1434C100.115 34.943 99.7953 35.5855 99.1556 36.0708C98.5159 36.5506 97.686 36.7904 96.6658 36.7904C95.9489 36.7904 95.3147 36.6636 94.7632 36.4099C94.2118 36.1563 93.7789 35.8033 93.4646 35.3511C93.1557 34.8934 93.0013 34.3999 93.0013 33.8705H94.5316C94.5592 34.3833 94.7632 34.7914 95.1438 35.0947C95.5298 35.3925 96.0371 35.5414 96.6658 35.5414C97.2448 35.5414 97.708 35.4256 98.0555 35.194C98.4084 34.9568 98.5849 34.6425 98.5849 34.251ZM114.125 31.3062H109.071V36.625H107.482V24.5811H114.944V25.8881H109.071V30.0075H114.125V31.3062ZM116.485 32.0672C116.485 31.1904 116.656 30.4018 116.998 29.7014C117.345 29.0011 117.825 28.4606 118.437 28.0801C119.055 27.6996 119.758 27.5094 120.546 27.5094C121.765 27.5094 122.75 27.9312 123.499 28.775C124.255 29.6187 124.633 30.7409 124.633 32.1416V32.2492C124.633 33.1205 124.465 33.9035 124.128 34.5984C123.797 35.2877 123.32 35.8254 122.697 36.2114C122.079 36.5974 121.368 36.7904 120.563 36.7904C119.35 36.7904 118.365 36.3686 117.61 35.5248C116.86 34.6811 116.485 33.5644 116.485 32.1747V32.0672ZM118.023 32.2492C118.023 33.2418 118.252 34.0387 118.71 34.6397C119.173 35.2408 119.791 35.5414 120.563 35.5414C121.341 35.5414 121.958 35.2381 122.416 34.6315C122.874 34.0194 123.102 33.1646 123.102 32.0672C123.102 31.0856 122.868 30.2915 122.399 29.6849C121.936 29.0728 121.318 28.7667 120.546 28.7667C119.791 28.7667 119.182 29.0672 118.718 29.6683C118.255 30.2694 118.023 31.1297 118.023 32.2492ZM132.543 35.7399C131.948 36.4403 131.074 36.7904 129.921 36.7904C128.967 36.7904 128.239 36.5147 127.737 35.9632C127.241 35.4063 126.99 34.5846 126.985 33.4982V27.6748H128.515V33.4569C128.515 34.8135 129.066 35.4917 130.169 35.4917C131.338 35.4917 132.116 35.0561 132.502 34.1848V27.6748H134.032V36.625H132.576L132.543 35.7399ZM138.278 27.6748L138.328 28.7998C139.012 27.9395 139.905 27.5094 141.008 27.5094C142.9 27.5094 143.854 28.5764 143.87 30.7106V36.625H142.34V30.7023C142.334 30.0571 142.185 29.5801 141.893 29.2713C141.606 28.9625 141.157 28.8081 140.545 28.8081C140.049 28.8081 139.613 28.9404 139.238 29.2051C138.863 29.4698 138.571 29.8172 138.361 30.2474V36.625H136.831V27.6748H138.278ZM146.272 32.0755C146.272 30.7023 146.597 29.5994 147.248 28.7667C147.899 27.9285 148.751 27.5094 149.804 27.5094C150.852 27.5094 151.682 27.8678 152.294 28.5847V23.9194H153.824V36.625H152.418L152.343 35.6655C151.731 36.4154 150.879 36.7904 149.787 36.7904C148.751 36.7904 147.904 36.3658 147.248 35.5166C146.597 34.6673 146.272 33.5589 146.272 32.1913V32.0755ZM147.802 32.2492C147.802 33.2639 148.012 34.058 148.431 34.6315C148.85 35.205 149.429 35.4917 150.168 35.4917C151.138 35.4917 151.847 35.0561 152.294 34.1848V30.0737C151.836 29.2299 151.133 28.8081 150.184 28.8081C149.434 28.8081 148.85 29.0976 148.431 29.6766C148.012 30.2556 147.802 31.1132 147.802 32.2492ZM160.386 36.7904C159.173 36.7904 158.186 36.3934 157.425 35.5993C156.664 34.7997 156.283 33.7326 156.283 32.3981V32.1168C156.283 31.229 156.452 30.4376 156.788 29.7428C157.13 29.0424 157.604 28.4965 158.211 28.1049C158.823 27.7079 159.485 27.5094 160.196 27.5094C161.36 27.5094 162.264 27.8926 162.909 28.6592C163.554 29.4257 163.877 30.5231 163.877 31.9514V32.5883H157.814C157.836 33.4706 158.092 34.1848 158.583 34.7307C159.079 35.2712 159.708 35.5414 160.469 35.5414C161.009 35.5414 161.467 35.4311 161.842 35.2105C162.217 34.9899 162.545 34.6976 162.826 34.3337L163.761 35.0616C163.011 36.2142 161.886 36.7904 160.386 36.7904ZM160.196 28.7667C159.578 28.7667 159.06 28.9928 158.641 29.445C158.222 29.8917 157.963 30.5203 157.863 31.331H162.347V31.2152C162.303 30.4376 162.093 29.8365 161.718 29.4119C161.343 28.9818 160.836 28.7667 160.196 28.7667ZM170.447 29.0479C170.216 29.0093 169.965 28.99 169.695 28.99C168.691 28.99 168.01 29.4174 167.652 30.2722V36.625H166.121V27.6748H167.61L167.635 28.7088C168.137 27.9092 168.848 27.5094 169.769 27.5094C170.067 27.5094 170.293 27.548 170.447 27.6252V29.0479Z" fill="#263238"/>
<path fill-rule="evenodd" clip-rule="evenodd" d="M161.923 87.4499C161.923 87.4499 161.923 87.4499 161.923 87.4499C136.344 87.4499 113.186 97.8177 96.4238 114.58L82.3186 100.475C102.691 80.0453 130.835 67.1859 161.923 67.1859V87.4499Z" fill="#E0E0E0"/>
<path fill-rule="evenodd" clip-rule="evenodd" d="M69.2923 180.082C69.2923 180.082 69.2923 180.082 69.2923 180.082C69.2923 154.502 79.6603 131.345 96.4231 114.582L82.3186 100.478C61.889 120.85 49.0296 148.994 49.0296 180.082H69.2923Z" fill="#E0E0E0"/>
<path d="M147.995 169.151H145.972V171.241H144.918V166.126H148.248V166.98H145.972V168.301H147.995V169.151ZM153.016 169.024H150.993V170.395H153.368V171.241H149.939V166.126H153.361V166.98H150.993V168.199H153.016V169.024ZM156.442 166.126L157.756 169.836L159.063 166.126H160.447V171.241H159.39V169.843L159.495 167.429L158.115 171.241H157.391L156.014 167.433L156.119 169.843V171.241H155.065V166.126H156.442ZM165.398 170.187H163.55L163.199 171.241H162.078L163.982 166.126H164.959L166.874 171.241H165.753L165.398 170.187ZM163.835 169.334H165.114L164.471 167.419L163.835 169.334ZM169.485 170.395H171.722V171.241H168.431V166.126H169.485V170.395ZM176.487 169.024H174.463V170.395H176.838V171.241H173.409V166.126H176.831V166.98H174.463V168.199H176.487V169.024Z" fill="#6C6C6C"/>
<path fill-rule="evenodd" clip-rule="evenodd" d="M69.2923 180.08C69.2923 180.08 69.2923 180.08 69.2923 180.08C69.2923 205.659 79.6603 228.816 96.4231 245.579L82.3186 259.684C61.889 239.311 49.0296 211.167 49.0296 180.08H69.2923Z" fill="#E0E0E0"/>
<path fill-rule="evenodd" clip-rule="evenodd" d="M161.923 272.71V292.974C130.835 292.974 102.691 280.115 82.3186 259.685L96.424 245.58C113.187 262.343 136.344 272.71 161.923 272.71Z" fill="#E0E0E0"/>
<path fill-rule="evenodd" clip-rule="evenodd" d="M161.923 272.71C161.923 272.71 161.923 272.71 161.923 272.71C187.502 272.71 210.659 262.342 227.422 245.58L241.527 259.685C221.155 280.115 193.01 292.974 161.923 292.974V272.71Z" fill="#E0E0E0"/>
<path fill-rule="evenodd" clip-rule="evenodd" d="M254.553 180.08C254.553 180.08 254.553 180.08 254.553 180.08C254.553 205.659 244.185 228.816 227.422 245.579L241.527 259.684C261.956 239.311 274.816 211.167 274.816 180.08H254.553Z" fill="#6C6C6C"/>
<path d="M151.369 226.161L152.683 229.871L153.99 226.161H155.374V231.276H154.316V229.878L154.422 227.465L153.041 231.276H152.317L150.94 227.468L151.046 229.878V231.276H149.992V226.161H151.369ZM160.324 230.222H158.477L158.125 231.276H157.004L158.909 226.161H159.885L161.8 231.276H160.679L160.324 230.222ZM158.761 229.369H160.04L159.397 227.454L158.761 229.369ZM164.411 230.43H166.649V231.276H163.357V226.161H164.411V230.43ZM171.413 229.06H169.39V230.43H171.765V231.276H168.336V226.161H171.758V227.015H169.39V228.234H171.413V229.06Z" fill="#E0E0E0"/>
<path fill-rule="evenodd" clip-rule="evenodd" d="M254.553 180.082C254.553 180.082 254.553 180.082 254.553 180.082C254.553 154.502 244.185 131.345 227.422 114.582L241.527 100.478C261.956 120.85 274.816 148.994 274.816 180.082H254.553Z" fill="#6C6C6C"/>
<path fill-rule="evenodd" clip-rule="evenodd" d="M161.923 87.4499C161.923 87.4499 161.923 87.4499 161.923 87.4499C187.502 87.4499 210.659 97.8177 227.422 114.58L241.527 100.475C221.154 80.0453 193.01 67.1859 161.923 67.1859V87.4499Z" fill="#6C6C6C"/>
<path d="M148.108 150.317H150.514V153.715H148.108V158.309H143.893V153.715H135.187L134.997 151.061L143.85 137.075H148.108V150.317ZM139.197 150.317H143.893V142.821L143.616 143.302L139.197 150.317ZM166.783 149.529C166.783 152.465 166.175 154.711 164.96 156.267C163.744 157.822 161.965 158.6 159.622 158.6C157.308 158.6 155.539 157.837 154.314 156.311C153.089 154.784 152.461 152.597 152.432 149.748V145.84C152.432 142.874 153.045 140.624 154.27 139.087C155.505 137.551 157.279 136.783 159.593 136.783C161.907 136.783 163.676 137.546 164.901 139.073C166.126 140.59 166.753 142.772 166.783 145.621V149.529ZM162.568 145.242C162.568 143.482 162.325 142.203 161.839 141.406C161.362 140.599 160.614 140.196 159.593 140.196C158.601 140.196 157.867 140.58 157.391 141.348C156.924 142.106 156.676 143.297 156.647 144.921V150.083C156.647 151.814 156.88 153.102 157.347 153.948C157.823 154.784 158.582 155.202 159.622 155.202C160.653 155.202 161.396 154.799 161.853 153.992C162.31 153.185 162.548 151.95 162.568 150.288V145.242ZM169.284 141.158C169.284 139.855 169.707 138.801 170.553 137.994C171.399 137.177 172.507 136.769 173.878 136.769C175.268 136.769 176.386 137.172 177.232 137.979C178.078 138.776 178.501 139.86 178.501 141.231V142.281C178.501 143.594 178.078 144.649 177.232 145.446C176.386 146.243 175.278 146.642 173.907 146.642C172.526 146.642 171.408 146.243 170.553 145.446C169.707 144.639 169.284 143.555 169.284 142.194V141.158ZM172.084 142.281C172.084 142.865 172.249 143.336 172.58 143.696C172.92 144.046 173.362 144.221 173.907 144.221C174.451 144.221 174.884 144.041 175.205 143.681C175.526 143.322 175.686 142.84 175.686 142.237V141.158C175.686 140.575 175.526 140.103 175.205 139.744C174.884 139.384 174.442 139.204 173.878 139.204C173.343 139.204 172.91 139.384 172.58 139.744C172.249 140.094 172.084 140.585 172.084 141.217V142.281ZM179.434 153.102C179.434 151.79 179.862 150.735 180.717 149.938C181.573 149.131 182.681 148.727 184.043 148.727C185.423 148.727 186.536 149.126 187.382 149.923C188.238 150.711 188.666 151.799 188.666 153.19V154.24C188.666 155.543 188.247 156.597 187.411 157.404C186.575 158.202 185.462 158.6 184.072 158.6C182.672 158.6 181.549 158.197 180.703 157.39C179.857 156.583 179.434 155.513 179.434 154.181V153.102ZM182.234 154.24C182.234 154.775 182.409 155.231 182.759 155.611C183.109 155.99 183.547 156.179 184.072 156.179C185.258 156.179 185.851 155.523 185.851 154.211V153.102C185.851 152.519 185.686 152.052 185.355 151.702C185.025 151.342 184.587 151.163 184.043 151.163C183.498 151.163 183.061 151.342 182.73 151.702C182.399 152.052 182.234 152.533 182.234 153.146V154.24ZM174.738 156.719L172.682 155.611L183.051 139.014L185.107 140.123L174.738 156.719Z" fill="#6C6C6C"/>
<path d="M147.073 194.281V197.752H146.664C144.759 197.781 143.222 198.277 142.056 199.239C140.899 200.202 140.204 201.539 139.97 203.25C141.098 202.103 142.522 201.529 144.243 201.529C146.091 201.529 147.559 202.19 148.648 203.512C149.736 204.835 150.281 206.575 150.281 208.733C150.281 210.114 149.98 211.363 149.377 212.481C148.784 213.599 147.938 214.469 146.839 215.092C145.75 215.714 144.516 216.025 143.135 216.025C140.899 216.025 139.09 215.247 137.71 213.692C136.339 212.136 135.654 210.06 135.654 207.464V205.948C135.654 203.644 136.086 201.612 136.952 199.852C137.827 198.082 139.076 196.716 140.699 195.754C142.333 194.782 144.224 194.291 146.373 194.281H147.073ZM142.96 204.912C142.279 204.912 141.662 205.092 141.108 205.452C140.554 205.802 140.145 206.269 139.883 206.852V208.135C139.883 209.545 140.16 210.649 140.714 211.446C141.268 212.233 142.046 212.627 143.047 212.627C143.952 212.627 144.681 212.272 145.235 211.562C145.799 210.843 146.081 209.915 146.081 208.777C146.081 207.62 145.799 206.687 145.235 205.977C144.671 205.267 143.913 204.912 142.96 204.912ZM166.783 206.954C166.783 209.89 166.175 212.136 164.96 213.692C163.744 215.247 161.965 216.025 159.622 216.025C157.308 216.025 155.539 215.262 154.314 213.735C153.089 212.209 152.461 210.021 152.432 207.173V203.264C152.432 200.299 153.045 198.048 154.27 196.512C155.505 194.976 157.279 194.208 159.593 194.208C161.907 194.208 163.676 194.971 164.901 196.498C166.126 198.014 166.753 200.197 166.783 203.046V206.954ZM162.568 202.666C162.568 200.907 162.325 199.628 161.839 198.831C161.362 198.024 160.614 197.621 159.593 197.621C158.601 197.621 157.867 198.005 157.391 198.773C156.924 199.531 156.676 200.722 156.647 202.346V207.508C156.647 209.239 156.88 210.527 157.347 211.373C157.823 212.209 158.582 212.627 159.622 212.627C160.653 212.627 161.396 212.224 161.853 211.417C162.31 210.61 162.548 209.375 162.568 207.712V202.666ZM169.284 198.583C169.284 197.28 169.707 196.225 170.553 195.418C171.399 194.602 172.507 194.193 173.878 194.193C175.268 194.193 176.386 194.597 177.232 195.404C178.078 196.201 178.501 197.285 178.501 198.656V199.706C178.501 201.019 178.078 202.073 177.232 202.871C176.386 203.668 175.278 204.067 173.907 204.067C172.526 204.067 171.408 203.668 170.553 202.871C169.707 202.064 169.284 200.98 169.284 199.619V198.583ZM172.084 199.706C172.084 200.289 172.249 200.761 172.58 201.121C172.92 201.471 173.362 201.646 173.907 201.646C174.451 201.646 174.884 201.466 175.205 201.106C175.526 200.746 175.686 200.265 175.686 199.662V198.583C175.686 198 175.526 197.528 175.205 197.168C174.884 196.809 174.442 196.629 173.878 196.629C173.343 196.629 172.91 196.809 172.58 197.168C172.249 197.518 172.084 198.009 172.084 198.641V199.706ZM179.434 210.527C179.434 209.215 179.862 208.16 180.717 207.362C181.573 206.555 182.681 206.152 184.043 206.152C185.423 206.152 186.536 206.551 187.382 207.348C188.238 208.135 188.666 209.224 188.666 210.615V211.665C188.666 212.967 188.247 214.022 187.411 214.829C186.575 215.626 185.462 216.025 184.072 216.025C182.672 216.025 181.549 215.622 180.703 214.815C179.857 214.008 179.434 212.938 179.434 211.606V210.527ZM182.234 211.665C182.234 212.199 182.409 212.656 182.759 213.035C183.109 213.415 183.547 213.604 184.072 213.604C185.258 213.604 185.851 212.948 185.851 211.635V210.527C185.851 209.944 185.686 209.477 185.355 209.127C185.025 208.767 184.587 208.587 184.043 208.587C183.498 208.587 183.061 208.767 182.73 209.127C182.399 209.477 182.234 209.958 182.234 210.571V211.665ZM174.738 214.144L172.682 213.035L183.051 196.439L185.107 197.548L174.738 214.144Z" fill="#E0E0E0"/>
</svg>
