<svg width="475" height="271" viewBox="0 0 475 271" fill="none" xmlns="http://www.w3.org/2000/svg">
<rect x="0.469113" y="0.469113" width="473.804" height="269.271" rx="4.22202" fill="white" stroke="#E5E5E5" stroke-width="0.938226"/>
<path d="M19.6649 32.9492V31.8984H21.136V23.5219H19.6649V22.4711H23.8681V23.5219H22.397V31.8984H23.8681V32.9492H19.6649ZM26.4635 32.9492V25.2032H27.6644V26.4642H27.7245C27.9146 26.0239 28.1798 25.6736 28.5201 25.4134C28.8703 25.1532 29.3357 25.0231 29.9162 25.0231C30.7168 25.0231 31.3473 25.2833 31.8076 25.8037C32.278 26.3141 32.5132 27.0396 32.5132 27.9804V32.9492H31.3122V28.1905C31.3122 26.7995 30.7268 26.1039 29.5559 26.1039C29.3157 26.1039 29.0805 26.1339 28.8503 26.194C28.6302 26.254 28.43 26.3441 28.2499 26.4642C28.0697 26.5843 27.9246 26.7394 27.8145 26.9296C27.7144 27.1097 27.6644 27.3249 27.6644 27.5751V32.9492H26.4635ZM40.3621 31.6882H40.3021C39.8317 32.649 39.0761 33.1294 38.0353 33.1294C37.555 33.1294 37.1196 33.0343 36.7293 32.8441C36.339 32.654 36.0038 32.3838 35.7235 32.0335C35.4533 31.6832 35.2432 31.2579 35.093 30.7575C34.9529 30.2571 34.8829 29.6967 34.8829 29.0762C34.8829 28.4557 34.9529 27.8953 35.093 27.3949C35.2432 26.8945 35.4533 26.4692 35.7235 26.1189C36.0038 25.7687 36.339 25.4985 36.7293 25.3083C37.1196 25.1182 37.555 25.0231 38.0353 25.0231C38.5757 25.0231 39.0361 25.1432 39.4164 25.3834C39.8067 25.6135 40.1019 25.9738 40.3021 26.4642H40.3621V21.8406H41.5631V32.9492H40.3621V31.6882ZM38.3656 32.0485C38.6358 32.0485 38.891 32.0135 39.1312 31.9434C39.3814 31.8734 39.5965 31.7733 39.7767 31.6432C39.9568 31.5031 40.0969 31.338 40.197 31.1478C40.3071 30.9477 40.3621 30.7225 40.3621 30.4723V27.5901C40.3621 27.3799 40.3071 27.1848 40.197 27.0046C40.0969 26.8145 39.9568 26.6543 39.7767 26.5242C39.5965 26.3941 39.3814 26.2941 39.1312 26.224C38.891 26.144 38.6358 26.1039 38.3656 26.1039C37.6851 26.1039 37.1496 26.3191 36.7593 26.7494C36.369 27.1697 36.1739 27.7252 36.1739 28.4157V29.7367C36.1739 30.4273 36.369 30.9877 36.7593 31.418C37.1496 31.8384 37.6851 32.0485 38.3656 32.0485ZM49.3027 31.6882H49.2427C49.1626 31.8684 49.0625 32.0485 48.9424 32.2287C48.8324 32.3988 48.6922 32.5539 48.5221 32.694C48.352 32.8241 48.1468 32.9292 47.9066 33.0093C47.6665 33.0893 47.3862 33.1294 47.066 33.1294C46.2654 33.1294 45.6299 32.8742 45.1595 32.3638C44.6892 31.8434 44.454 31.1128 44.454 30.1721V25.2032H45.6549V29.9619C45.6549 31.353 46.2454 32.0485 47.4263 32.0485C47.6665 32.0485 47.8966 32.0185 48.1168 31.9585C48.347 31.8984 48.5471 31.8083 48.7173 31.6882C48.8974 31.5681 49.0375 31.418 49.1376 31.2379C49.2477 31.0477 49.3027 30.8226 49.3027 30.5624V25.2032H50.5037V32.9492H49.3027V31.6882ZM55.8006 33.1294C55.0801 33.1294 54.4746 32.9943 53.9842 32.724C53.5039 32.4438 53.0885 32.0735 52.7383 31.6132L53.5939 30.9226C53.8942 31.3029 54.2294 31.5982 54.5997 31.8083C54.97 32.0085 55.4003 32.1086 55.8907 32.1086C56.4011 32.1086 56.7964 31.9985 57.0766 31.7783C57.3669 31.5581 57.512 31.2479 57.512 30.8476C57.512 30.5474 57.4119 30.2922 57.2117 30.082C57.0216 29.8618 56.6713 29.7117 56.1609 29.6317L55.5454 29.5416C55.1852 29.4915 54.8549 29.4165 54.5547 29.3164C54.2544 29.2063 53.9892 29.0662 53.7591 28.8961C53.5389 28.7159 53.3638 28.4958 53.2337 28.2356C53.1136 27.9754 53.0535 27.6651 53.0535 27.3048C53.0535 26.9246 53.1236 26.5943 53.2637 26.3141C53.4038 26.0239 53.5939 25.7837 53.8341 25.5935C54.0843 25.4034 54.3795 25.2633 54.7198 25.1732C55.0601 25.0731 55.4254 25.0231 55.8157 25.0231C56.4461 25.0231 56.9715 25.1332 57.3919 25.3533C57.8222 25.5735 58.1975 25.8787 58.5177 26.269L57.7221 26.9896C57.552 26.7494 57.3018 26.5343 56.9715 26.3441C56.6413 26.144 56.226 26.0439 55.7256 26.0439C55.2252 26.0439 54.8449 26.154 54.5847 26.3741C54.3345 26.5843 54.2094 26.8745 54.2094 27.2448C54.2094 27.6251 54.3345 27.9003 54.5847 28.0704C54.8449 28.2406 55.2152 28.3657 55.6956 28.4457L56.296 28.5358C57.1567 28.6659 57.7672 28.9161 58.1274 29.2864C58.4877 29.6467 58.6679 30.122 58.6679 30.7125C58.6679 31.4631 58.4127 32.0535 57.9023 32.4839C57.3919 32.9142 56.6913 33.1294 55.8006 33.1294ZM62.8106 32.9492C62.3903 32.9492 62.07 32.8341 61.8499 32.604C61.6397 32.3638 61.5346 32.0535 61.5346 31.6732V26.254H60.2586V25.2032H60.9792C61.2394 25.2032 61.4145 25.1532 61.5046 25.0531C61.6047 24.943 61.6547 24.7579 61.6547 24.4977V23.0566H62.7355V25.2032H64.4319V26.254H62.7355V31.8984H64.3118V32.9492H62.8106ZM66.775 32.9492V25.2032H67.9759V26.6293H68.0509C68.1911 26.259 68.4412 25.9288 68.8015 25.6386C69.1618 25.3483 69.6572 25.2032 70.2877 25.2032H70.753V26.4042H70.0475C69.397 26.4042 68.8866 26.5292 68.5163 26.7794C68.156 27.0196 67.9759 27.3249 67.9759 27.6952V32.9492H66.775ZM77.6201 25.2032H78.8061L75.3384 34.7506C75.2483 34.9808 75.1582 35.1709 75.0682 35.3211C74.9781 35.4812 74.868 35.6063 74.7379 35.6963C74.6078 35.7864 74.4427 35.8515 74.2425 35.8915C74.0524 35.9315 73.8172 35.9515 73.537 35.9515H72.9215V34.9007H74.1375L74.7229 33.2495L71.8257 25.2032H73.0266L74.888 30.4723L75.2483 31.7333H75.3234L75.7437 30.4723L77.6201 25.2032ZM83.9003 25.2032H85.0712L85.8968 28.5508L86.7225 31.9434H86.7525L87.6982 28.5508L88.674 25.2032H89.7398L90.7456 28.5508L91.7063 31.9434H91.7363L92.532 28.5508L93.3726 25.2032H94.4985L92.4419 32.9492H90.9557L89.8749 29.2263L89.1994 26.8695H89.1694L88.5088 29.2263L87.428 32.9492H85.9719L83.9003 25.2032ZM97.2468 23.3868C96.9866 23.3868 96.7964 23.3268 96.6763 23.2067C96.5663 23.0766 96.5112 22.9114 96.5112 22.7113V22.5161C96.5112 22.316 96.5663 22.1559 96.6763 22.0358C96.7964 21.9057 96.9866 21.8406 97.2468 21.8406C97.507 21.8406 97.6921 21.9057 97.8022 22.0358C97.9223 22.1559 97.9824 22.316 97.9824 22.5161V22.7113C97.9824 22.9114 97.9223 23.0766 97.8022 23.2067C97.6921 23.3268 97.507 23.3868 97.2468 23.3868ZM96.6463 25.2032H97.8473V32.9492H96.6463V25.2032ZM103.139 33.1294C102.418 33.1294 101.813 32.9943 101.322 32.724C100.842 32.4438 100.427 32.0735 100.076 31.6132L100.932 30.9226C101.232 31.3029 101.568 31.5982 101.938 31.8083C102.308 32.0085 102.739 32.1086 103.229 32.1086C103.739 32.1086 104.135 31.9985 104.415 31.7783C104.705 31.5581 104.85 31.2479 104.85 30.8476C104.85 30.5474 104.75 30.2922 104.55 30.082C104.36 29.8618 104.01 29.7117 103.499 29.6317L102.884 29.5416C102.523 29.4915 102.193 29.4165 101.893 29.3164C101.593 29.2063 101.327 29.0662 101.097 28.8961C100.877 28.7159 100.702 28.4958 100.572 28.2356C100.452 27.9754 100.392 27.6651 100.392 27.3048C100.392 26.9246 100.462 26.5943 100.602 26.3141C100.742 26.0239 100.932 25.7837 101.172 25.5935C101.423 25.4034 101.718 25.2633 102.058 25.1732C102.398 25.0731 102.764 25.0231 103.154 25.0231C103.784 25.0231 104.31 25.1332 104.73 25.3533C105.16 25.5735 105.536 25.8787 105.856 26.269L105.06 26.9896C104.89 26.7494 104.64 26.5343 104.31 26.3441C103.979 26.144 103.564 26.0439 103.064 26.0439C102.563 26.0439 102.183 26.154 101.923 26.3741C101.673 26.5843 101.548 26.8745 101.548 27.2448C101.548 27.6251 101.673 27.9003 101.923 28.0704C102.183 28.2406 102.553 28.3657 103.034 28.4457L103.634 28.5358C104.495 28.6659 105.105 28.9161 105.466 29.2864C105.826 29.6467 106.006 30.122 106.006 30.7125C106.006 31.4631 105.751 32.0535 105.24 32.4839C104.73 32.9142 104.03 33.1294 103.139 33.1294ZM111.452 33.1294C110.922 33.1294 110.442 33.0343 110.011 32.8441C109.591 32.654 109.226 32.3838 108.915 32.0335C108.615 31.6732 108.38 31.2479 108.21 30.7575C108.05 30.2571 107.97 29.6967 107.97 29.0762C107.97 28.4657 108.05 27.9103 108.21 27.4099C108.38 26.9095 108.615 26.4842 108.915 26.1339C109.226 25.7737 109.591 25.4985 110.011 25.3083C110.442 25.1182 110.922 25.0231 111.452 25.0231C111.973 25.0231 112.438 25.1182 112.848 25.3083C113.259 25.4985 113.609 25.7637 113.899 26.1039C114.189 26.4342 114.41 26.8295 114.56 27.2898C114.72 27.7502 114.8 28.2556 114.8 28.806V29.3765H109.231V29.7367C109.231 30.067 109.281 30.3772 109.381 30.6675C109.491 30.9477 109.641 31.1929 109.831 31.403C110.031 31.6132 110.271 31.7783 110.552 31.8984C110.842 32.0185 111.167 32.0785 111.527 32.0785C112.018 32.0785 112.443 31.9635 112.803 31.7333C113.174 31.5031 113.459 31.1728 113.659 30.7425L114.515 31.358C114.265 31.8884 113.874 32.3187 113.344 32.649C112.813 32.9692 112.183 33.1294 111.452 33.1294ZM111.452 26.0289C111.122 26.0289 110.822 26.0889 110.552 26.209C110.281 26.3191 110.046 26.4792 109.846 26.6894C109.656 26.8995 109.506 27.1497 109.396 27.44C109.286 27.7202 109.231 28.0304 109.231 28.3707V28.4758H113.509V28.3106C113.509 27.6201 113.319 27.0697 112.939 26.6593C112.568 26.239 112.073 26.0289 111.452 26.0289ZM124.215 33.1294C123.364 33.1294 122.638 32.9692 122.038 32.649C121.437 32.3187 120.927 31.8684 120.507 31.2979L121.437 30.5173C121.808 31.0077 122.218 31.383 122.668 31.6432C123.119 31.8934 123.649 32.0185 124.26 32.0185C125.01 32.0185 125.581 31.8384 125.971 31.4781C126.371 31.1178 126.571 30.6374 126.571 30.037C126.571 29.5366 126.421 29.1513 126.121 28.8811C125.821 28.6109 125.325 28.3957 124.635 28.2356L123.779 28.0404C122.818 27.8202 122.083 27.49 121.573 27.0497C121.072 26.5993 120.822 25.9688 120.822 25.1582C120.822 24.6978 120.907 24.2875 121.077 23.9272C121.247 23.567 121.482 23.2667 121.783 23.0265C122.093 22.7864 122.458 22.6062 122.879 22.4861C123.309 22.356 123.779 22.291 124.29 22.291C125.08 22.291 125.756 22.4361 126.316 22.7263C126.887 23.0165 127.367 23.4419 127.757 24.0023L126.812 24.6928C126.521 24.2925 126.171 23.9773 125.761 23.7471C125.35 23.5169 124.84 23.4018 124.23 23.4018C123.559 23.4018 123.029 23.5469 122.638 23.8372C122.258 24.1174 122.068 24.5427 122.068 25.1132C122.068 25.6135 122.228 25.9938 122.548 26.254C122.879 26.5042 123.374 26.7044 124.034 26.8545L124.89 27.0497C125.921 27.2798 126.666 27.6301 127.127 28.1005C127.587 28.5708 127.817 29.1963 127.817 29.9769C127.817 30.4573 127.732 30.8926 127.562 31.2829C127.402 31.6732 127.167 32.0035 126.857 32.2737C126.546 32.5439 126.166 32.7541 125.716 32.9042C125.275 33.0543 124.775 33.1294 124.215 33.1294ZM131.999 32.9492C131.579 32.9492 131.258 32.8341 131.038 32.604C130.828 32.3638 130.723 32.0535 130.723 31.6732V26.254H129.447V25.2032H130.168C130.428 25.2032 130.603 25.1532 130.693 25.0531C130.793 24.943 130.843 24.7579 130.843 24.4977V23.0566H131.924V25.2032H133.62V26.254H131.924V31.8984H133.5V32.9492H131.999ZM141.593 32.9492C141.142 32.9492 140.817 32.8291 140.617 32.5889C140.427 32.3488 140.307 32.0485 140.257 31.6882H140.182C140.011 32.1686 139.731 32.5289 139.341 32.7691C138.951 33.0093 138.485 33.1294 137.945 33.1294C137.124 33.1294 136.484 32.9192 136.023 32.4989C135.573 32.0785 135.348 31.5081 135.348 30.7875C135.348 30.057 135.613 29.4965 136.143 29.1062C136.684 28.7159 137.519 28.5208 138.65 28.5208H140.182V27.7552C140.182 27.2048 140.031 26.7844 139.731 26.4942C139.431 26.204 138.971 26.0589 138.35 26.0589C137.88 26.0589 137.484 26.164 137.164 26.3741C136.854 26.5843 136.594 26.8645 136.384 27.2148L135.663 26.5393C135.873 26.1189 136.208 25.7637 136.669 25.4734C137.129 25.1732 137.71 25.0231 138.41 25.0231C139.351 25.0231 140.081 25.2533 140.602 25.7136C141.122 26.174 141.382 26.8145 141.382 27.6351V31.8984H142.268V32.9492H141.593ZM138.14 32.1086C138.44 32.1086 138.715 32.0735 138.966 32.0035C139.216 31.9334 139.431 31.8334 139.611 31.7033C139.791 31.5732 139.931 31.423 140.031 31.2529C140.132 31.0828 140.182 30.8976 140.182 30.6975V29.4215H138.59C137.9 29.4215 137.394 29.5216 137.074 29.7217C136.764 29.9219 136.609 30.2121 136.609 30.5924V30.9076C136.609 31.2879 136.744 31.5832 137.014 31.7933C137.294 32.0035 137.67 32.1086 138.14 32.1086ZM144.395 32.9492V25.2032H145.596V26.6293H145.671C145.811 26.259 146.061 25.9288 146.422 25.6386C146.782 25.3483 147.277 25.2032 147.908 25.2032H148.373V26.4042H147.668C147.017 26.4042 146.507 26.5292 146.136 26.7794C145.776 27.0196 145.596 27.3249 145.596 27.6952V32.9492H144.395ZM152.09 32.9492C151.67 32.9492 151.349 32.8341 151.129 32.604C150.919 32.3638 150.814 32.0535 150.814 31.6732V26.254H149.538V25.2032H150.258C150.519 25.2032 150.694 25.1532 150.784 25.0531C150.884 24.943 150.934 24.7579 150.934 24.4977V23.0566H152.015V25.2032H153.711V26.254H152.015V31.8984H153.591V32.9492H152.09ZM160.828 31.6882H160.768C160.688 31.8684 160.588 32.0485 160.468 32.2287C160.358 32.3988 160.217 32.5539 160.047 32.694C159.877 32.8241 159.672 32.9292 159.432 33.0093C159.192 33.0893 158.911 33.1294 158.591 33.1294C157.791 33.1294 157.155 32.8742 156.685 32.3638C156.214 31.8434 155.979 31.1128 155.979 30.1721V25.2032H157.18V29.9619C157.18 31.353 157.771 32.0485 158.951 32.0485C159.192 32.0485 159.422 32.0185 159.642 31.9585C159.872 31.8984 160.072 31.8083 160.242 31.6882C160.423 31.5681 160.563 31.418 160.663 31.2379C160.773 31.0477 160.828 30.8226 160.828 30.5624V25.2032H162.029V32.9492H160.828V31.6882ZM164.999 25.2032H166.2V26.4642H166.26C166.46 25.9738 166.75 25.6135 167.131 25.3834C167.521 25.1432 167.986 25.0231 168.527 25.0231C169.007 25.0231 169.442 25.1182 169.833 25.3083C170.223 25.4985 170.553 25.7687 170.824 26.1189C171.104 26.4692 171.314 26.8945 171.454 27.3949C171.604 27.8953 171.679 28.4557 171.679 29.0762C171.679 29.6967 171.604 30.2571 171.454 30.7575C171.314 31.2579 171.104 31.6832 170.824 32.0335C170.553 32.3838 170.223 32.654 169.833 32.8441C169.442 33.0343 169.007 33.1294 168.527 33.1294C167.476 33.1294 166.72 32.649 166.26 31.6882H166.2V35.9515H164.999V25.2032ZM168.197 32.0485C168.877 32.0485 169.412 31.8384 169.803 31.418C170.193 30.9877 170.388 30.4273 170.388 29.7367V28.4157C170.388 27.7252 170.193 27.1697 169.803 26.7494C169.412 26.3191 168.877 26.1039 168.197 26.1039C167.926 26.1039 167.666 26.144 167.416 26.224C167.176 26.2941 166.966 26.3941 166.785 26.5242C166.605 26.6543 166.46 26.8145 166.35 27.0046C166.25 27.1848 166.2 27.3799 166.2 27.5901V30.4723C166.2 30.7225 166.25 30.9477 166.35 31.1478C166.46 31.338 166.605 31.5031 166.785 31.6432C166.966 31.7733 167.176 31.8734 167.416 31.9434C167.666 32.0135 167.926 32.0485 168.197 32.0485ZM176.447 33.1294C175.726 33.1294 175.121 32.9943 174.63 32.724C174.15 32.4438 173.734 32.0735 173.384 31.6132L174.24 30.9226C174.54 31.3029 174.875 31.5982 175.246 31.8083C175.616 32.0085 176.046 32.1086 176.537 32.1086C177.047 32.1086 177.442 31.9985 177.723 31.7783C178.013 31.5581 178.158 31.2479 178.158 30.8476C178.158 30.5474 178.058 30.2922 177.858 30.082C177.668 29.8618 177.317 29.7117 176.807 29.6317L176.191 29.5416C175.831 29.4915 175.501 29.4165 175.201 29.3164C174.9 29.2063 174.635 29.0662 174.405 28.8961C174.185 28.7159 174.01 28.4958 173.88 28.2356C173.759 27.9754 173.699 27.6651 173.699 27.3048C173.699 26.9246 173.769 26.5943 173.91 26.3141C174.05 26.0239 174.24 25.7837 174.48 25.5935C174.73 25.4034 175.025 25.2633 175.366 25.1732C175.706 25.0731 176.071 25.0231 176.462 25.0231C177.092 25.0231 177.617 25.1332 178.038 25.3533C178.468 25.5735 178.843 25.8787 179.164 26.269L178.368 26.9896C178.198 26.7494 177.948 26.5343 177.617 26.3441C177.287 26.144 176.872 26.0439 176.372 26.0439C175.871 26.0439 175.491 26.154 175.231 26.3741C174.98 26.5843 174.855 26.8745 174.855 27.2448C174.855 27.6251 174.98 27.9003 175.231 28.0704C175.491 28.2406 175.861 28.3657 176.341 28.4457L176.942 28.5358C177.803 28.6659 178.413 28.9161 178.773 29.2864C179.134 29.6467 179.314 30.122 179.314 30.7125C179.314 31.4631 179.059 32.0535 178.548 32.4839C178.038 32.9142 177.337 33.1294 176.447 33.1294ZM185.928 32.9492V22.4711H192.173V23.582H187.189V27.0947H191.738V28.2055H187.189V32.9492H185.928ZM198.999 31.6882H198.939C198.859 31.8684 198.759 32.0485 198.639 32.2287C198.529 32.3988 198.389 32.5539 198.218 32.694C198.048 32.8241 197.843 32.9292 197.603 33.0093C197.363 33.0893 197.083 33.1294 196.762 33.1294C195.962 33.1294 195.326 32.8742 194.856 32.3638C194.385 31.8434 194.15 31.1128 194.15 30.1721V25.2032H195.351V29.9619C195.351 31.353 195.942 32.0485 197.123 32.0485C197.363 32.0485 197.593 32.0185 197.813 31.9585C198.043 31.8984 198.243 31.8083 198.414 31.6882C198.594 31.5681 198.734 31.418 198.834 31.2379C198.944 31.0477 198.999 30.8226 198.999 30.5624V25.2032H200.2V32.9492H198.999V31.6882ZM203.17 32.9492V25.2032H204.371V26.4642H204.431C204.621 26.0239 204.887 25.6736 205.227 25.4134C205.577 25.1532 206.042 25.0231 206.623 25.0231C207.423 25.0231 208.054 25.2833 208.514 25.8037C208.985 26.3141 209.22 27.0396 209.22 27.9804V32.9492H208.019V28.1905C208.019 26.7995 207.433 26.1039 206.263 26.1039C206.022 26.1039 205.787 26.1339 205.557 26.194C205.337 26.254 205.137 26.3441 204.957 26.4642C204.776 26.5843 204.631 26.7394 204.521 26.9296C204.421 27.1097 204.371 27.3249 204.371 27.5751V32.9492H203.17ZM217.069 31.6882H217.009C216.538 32.649 215.783 33.1294 214.742 33.1294C214.262 33.1294 213.826 33.0343 213.436 32.8441C213.046 32.654 212.71 32.3838 212.43 32.0335C212.16 31.6832 211.95 31.2579 211.8 30.7575C211.66 30.2571 211.59 29.6967 211.59 29.0762C211.59 28.4557 211.66 27.8953 211.8 27.3949C211.95 26.8945 212.16 26.4692 212.43 26.1189C212.71 25.7687 213.046 25.4985 213.436 25.3083C213.826 25.1182 214.262 25.0231 214.742 25.0231C215.282 25.0231 215.743 25.1432 216.123 25.3834C216.513 25.6135 216.809 25.9738 217.009 26.4642H217.069V21.8406H218.27V32.9492H217.069V31.6882ZM215.072 32.0485C215.343 32.0485 215.598 32.0135 215.838 31.9434C216.088 31.8734 216.303 31.7733 216.483 31.6432C216.664 31.5031 216.804 31.338 216.904 31.1478C217.014 30.9477 217.069 30.7225 217.069 30.4723V27.5901C217.069 27.3799 217.014 27.1848 216.904 27.0046C216.804 26.8145 216.664 26.6543 216.483 26.5242C216.303 26.3941 216.088 26.2941 215.838 26.224C215.598 26.144 215.343 26.1039 215.072 26.1039C214.392 26.1039 213.856 26.3191 213.466 26.7494C213.076 27.1697 212.881 27.7252 212.881 28.4157V29.7367C212.881 30.4273 213.076 30.9877 213.466 31.418C213.856 31.8384 214.392 32.0485 215.072 32.0485ZM224.148 33.1294C223.618 33.1294 223.137 33.0343 222.707 32.8441C222.287 32.654 221.921 32.3838 221.611 32.0335C221.311 31.6732 221.076 31.2479 220.905 30.7575C220.745 30.2571 220.665 29.6967 220.665 29.0762C220.665 28.4657 220.745 27.9103 220.905 27.4099C221.076 26.9095 221.311 26.4842 221.611 26.1339C221.921 25.7737 222.287 25.4985 222.707 25.3083C223.137 25.1182 223.618 25.0231 224.148 25.0231C224.668 25.0231 225.134 25.1182 225.544 25.3083C225.954 25.4985 226.305 25.7637 226.595 26.1039C226.885 26.4342 227.105 26.8295 227.255 27.2898C227.416 27.7502 227.496 28.2556 227.496 28.806V29.3765H221.926V29.7367C221.926 30.067 221.976 30.3772 222.076 30.6675C222.186 30.9477 222.337 31.1929 222.527 31.403C222.727 31.6132 222.967 31.7783 223.247 31.8984C223.538 32.0185 223.863 32.0785 224.223 32.0785C224.713 32.0785 225.139 31.9635 225.499 31.7333C225.869 31.5031 226.155 31.1728 226.355 30.7425L227.21 31.358C226.96 31.8884 226.57 32.3187 226.039 32.649C225.509 32.9692 224.879 33.1294 224.148 33.1294ZM224.148 26.0289C223.818 26.0289 223.518 26.0889 223.247 26.209C222.977 26.3191 222.742 26.4792 222.542 26.6894C222.352 26.8995 222.201 27.1497 222.091 27.44C221.981 27.7202 221.926 28.0304 221.926 28.3707V28.4758H226.205V28.3106C226.205 27.6201 226.014 27.0697 225.634 26.6593C225.264 26.239 224.768 26.0289 224.148 26.0289ZM234.841 31.6882H234.781C234.311 32.649 233.555 33.1294 232.514 33.1294C232.034 33.1294 231.599 33.0343 231.208 32.8441C230.818 32.654 230.483 32.3838 230.203 32.0335C229.932 31.6832 229.722 31.2579 229.572 30.7575C229.432 30.2571 229.362 29.6967 229.362 29.0762C229.362 28.4557 229.432 27.8953 229.572 27.3949C229.722 26.8945 229.932 26.4692 230.203 26.1189C230.483 25.7687 230.818 25.4985 231.208 25.3083C231.599 25.1182 232.034 25.0231 232.514 25.0231C233.055 25.0231 233.515 25.1432 233.895 25.3834C234.286 25.6135 234.581 25.9738 234.781 26.4642H234.841V21.8406H236.042V32.9492H234.841V31.6882ZM232.845 32.0485C233.115 32.0485 233.37 32.0135 233.61 31.9434C233.86 31.8734 234.076 31.7733 234.256 31.6432C234.436 31.5031 234.576 31.338 234.676 31.1478C234.786 30.9477 234.841 30.7225 234.841 30.4723V27.5901C234.841 27.3799 234.786 27.1848 234.676 27.0046C234.576 26.8145 234.436 26.6543 234.256 26.5242C234.076 26.3941 233.86 26.2941 233.61 26.224C233.37 26.144 233.115 26.1039 232.845 26.1039C232.164 26.1039 231.629 26.3191 231.238 26.7494C230.848 27.1697 230.653 27.7252 230.653 28.4157V29.7367C230.653 30.4273 230.848 30.9877 231.238 31.418C231.629 31.8384 232.164 32.0485 232.845 32.0485Z" fill="#263238"/>
<g opacity="0.4">
<g opacity="0.8">
<rect x="318.998" y="56.293" width="10.2033" height="10.2033" rx="5.10166" fill="#855CF8"/>
</g>
</g>
<path d="M325.302 80.8975L322.813 73.7755H321.721L319.231 80.8975H320.099L320.813 78.7956H323.69L324.404 80.8975H325.302ZM323.476 78.0405H321.017L322.221 74.5714H322.272L323.476 78.0405ZM329.342 80.8975V80.1832H328.342V74.4898H329.342V73.7755H326.485V74.4898H327.485V80.1832H326.485V80.8975H329.342Z" fill="#9B79FB"/>
<g opacity="0.8">
<rect x="318.997" y="99.2256" width="10.2033" height="10.2033" rx="5.10166" fill="#855CF8"/>
</g>
<path d="M322.466 123.829V123.115H321.466V117.421H322.466V116.707H319.609V117.421H320.609V123.115H319.609V123.829H322.466ZM327.034 123.952C328.871 123.952 330.054 122.656 330.054 120.268C330.054 117.881 328.871 116.585 327.034 116.585C325.197 116.585 324.014 117.881 324.014 120.268C324.014 122.656 325.197 123.952 327.034 123.952ZM327.034 123.186C325.799 123.186 324.932 122.268 324.932 120.86V119.676C324.932 118.268 325.799 117.35 327.034 117.35C328.269 117.35 329.136 118.268 329.136 119.676V120.86C329.136 122.268 328.269 123.186 327.034 123.186ZM336.399 117.462V116.707H331.011V117.462H333.276V123.829H334.134V117.462H336.399Z" fill="#9B79FB"/>
<rect x="318.997" y="142.158" width="10.2033" height="10.2033" rx="5.10166" fill="#9B79FB"/>
<path d="M325.302 166.763L322.813 159.641H321.721L319.231 166.763H320.099L320.813 164.661H323.69L324.404 166.763H325.302ZM323.476 163.906H321.017L322.221 160.437H322.272L323.476 163.906ZM327.679 163.702H329.342L330.883 166.763H331.852L330.22 163.62C331.148 163.406 331.648 162.702 331.648 161.661C331.648 160.365 330.903 159.641 329.659 159.641H326.822V166.763H327.679V163.702ZM327.679 162.967V160.396H329.659C330.332 160.396 330.73 160.763 330.73 161.416V161.947C330.73 162.6 330.332 162.967 329.659 162.967H327.679ZM333.467 168.303L336.13 159.212H335.395L332.732 168.303H333.467ZM340.698 166.763L343.095 159.641H342.208L341.024 163.232L340.218 165.906H340.167L339.381 163.232L338.208 159.641H337.29L339.657 166.763H340.698ZM345.449 163.702H347.112L348.653 166.763H349.622L347.99 163.62C348.918 163.406 349.418 162.702 349.418 161.661C349.418 160.365 348.674 159.641 347.429 159.641H344.592V166.763H345.449V163.702ZM345.449 162.967V160.396H347.429C348.102 160.396 348.5 160.763 348.5 161.416V161.947C348.5 162.6 348.102 162.967 347.429 162.967H345.449Z" fill="#9B79FB"/>
<g opacity="0.16">
<rect x="318.997" y="185.09" width="10.2033" height="10.2033" rx="5.10166" fill="#9B79FB"/>
</g>
<path d="M320.803 206.459H322.466L324.006 209.52H324.976L323.343 206.377C324.272 206.163 324.772 205.459 324.772 204.418C324.772 203.122 324.027 202.398 322.782 202.398H319.945V209.52H320.803V206.459ZM320.803 205.724V203.153H322.782C323.455 203.153 323.853 203.52 323.853 204.173V204.704C323.853 205.357 323.455 205.724 322.782 205.724H320.803ZM328.571 209.642C329.979 209.642 330.948 208.56 330.948 206.887C330.948 205.214 329.979 204.132 328.571 204.132C327.163 204.132 326.193 205.214 326.193 206.887C326.193 208.56 327.163 209.642 328.571 209.642ZM328.571 208.918C327.693 208.918 327.071 208.377 327.071 207.265V206.51C327.071 205.397 327.693 204.857 328.571 204.857C329.448 204.857 330.071 205.397 330.071 206.51V207.265C330.071 208.377 329.448 208.918 328.571 208.918ZM332.631 209.52H333.447V208.662H333.488C333.804 209.315 334.304 209.642 335.028 209.642C336.345 209.642 337.171 208.571 337.171 206.887C337.171 205.204 336.345 204.132 335.028 204.132C334.304 204.132 333.763 204.448 333.488 205.112H333.447V201.969H332.631V209.52ZM334.804 208.907C334.059 208.907 333.447 208.52 333.447 207.836V205.877C333.447 205.295 334.059 204.867 334.804 204.867C335.722 204.867 336.294 205.499 336.294 206.438V207.336C336.294 208.275 335.722 208.907 334.804 208.907ZM340.879 209.642C342.287 209.642 343.256 208.56 343.256 206.887C343.256 205.214 342.287 204.132 340.879 204.132C339.471 204.132 338.502 205.214 338.502 206.887C338.502 208.56 339.471 209.642 340.879 209.642ZM340.879 208.918C340.002 208.918 339.379 208.377 339.379 207.265V206.51C339.379 205.397 340.002 204.857 340.879 204.857C341.757 204.857 342.379 205.397 342.379 206.51V207.265C342.379 208.377 341.757 208.918 340.879 208.918ZM347.123 209.52V208.805H346.051V204.969H347.204V204.255H346.051V202.796H345.317V203.775C345.317 204.132 345.204 204.255 344.857 204.255H344.368V204.969H345.235V208.652C345.235 209.162 345.541 209.52 346.102 209.52H347.123ZM349.264 203.02C349.611 203.02 349.764 202.836 349.764 202.561V202.428C349.764 202.153 349.611 201.969 349.264 201.969C348.918 201.969 348.764 202.153 348.764 202.428V202.561C348.764 202.836 348.918 203.02 349.264 203.02ZM348.856 209.52H349.673V204.255H348.856V209.52ZM353.706 209.642C354.706 209.642 355.39 209.152 355.727 208.397L355.135 207.999C354.849 208.601 354.37 208.918 353.706 208.918C352.737 208.918 352.237 208.254 352.237 207.336V206.438C352.237 205.52 352.737 204.857 353.706 204.857C354.349 204.857 354.798 205.173 354.992 205.714L355.676 205.367C355.369 204.642 354.747 204.132 353.706 204.132C352.227 204.132 351.36 205.204 351.36 206.887C351.36 208.571 352.227 209.642 353.706 209.642ZM358.8 209.642C360.004 209.642 360.749 209.02 360.749 207.999C360.749 207.203 360.3 206.693 359.137 206.52L358.729 206.459C358.076 206.357 357.719 206.152 357.719 205.642C357.719 205.142 358.076 204.826 358.749 204.826C359.423 204.826 359.872 205.142 360.106 205.469L360.647 204.979C360.219 204.448 359.658 204.132 358.811 204.132C357.739 204.132 356.933 204.642 356.933 205.683C356.933 206.663 357.658 207.061 358.627 207.203L359.045 207.265C359.739 207.367 359.964 207.683 359.964 208.091C359.964 208.632 359.555 208.948 358.862 208.948C358.198 208.948 357.709 208.652 357.301 208.142L356.719 208.611C357.188 209.234 357.831 209.642 358.8 209.642Z" fill="#9B79FB"/>
<g opacity="0.4">
<g opacity="0.8">
<rect x="388.426" y="56.293" width="10.2033" height="10.2033" rx="5.10166" fill="#855CF8"/>
</g>
</g>
<path d="M394.731 80.8975L392.242 73.7755H391.15L388.66 80.8975H389.528L390.242 78.7956H393.119L393.834 80.8975H394.731ZM392.905 78.0405H390.446L391.65 74.5714H391.701L392.905 78.0405ZM398.772 80.8975V80.1832H397.772V74.4898H398.772V73.7755H395.915V74.4898H396.915V80.1832H395.915V80.8975H398.772Z" fill="#9B79FB"/>
<g opacity="0.8">
<rect x="388.426" y="99.2256" width="10.2033" height="10.2033" rx="5.10166" fill="#855CF8"/>
</g>
<path d="M391.895 123.829V123.115H390.895V117.421H391.895V116.707H389.038V117.421H390.038V123.115H389.038V123.829H391.895ZM396.463 123.952C398.3 123.952 399.483 122.656 399.483 120.268C399.483 117.881 398.3 116.585 396.463 116.585C394.627 116.585 393.443 117.881 393.443 120.268C393.443 122.656 394.627 123.952 396.463 123.952ZM396.463 123.186C395.229 123.186 394.361 122.268 394.361 120.86V119.676C394.361 118.268 395.229 117.35 396.463 117.35C397.698 117.35 398.565 118.268 398.565 119.676V120.86C398.565 122.268 397.698 123.186 396.463 123.186ZM405.828 117.462V116.707H400.441V117.462H402.706V123.829H403.563V117.462H405.828Z" fill="#9B79FB"/>
<rect x="388.426" y="142.158" width="10.2033" height="10.2033" rx="5.10166" fill="#9B79FB"/>
<path d="M394.731 166.763L392.242 159.641H391.15L388.66 166.763H389.528L390.242 164.661H393.119L393.834 166.763H394.731ZM392.905 163.906H390.446L391.65 160.437H391.701L392.905 163.906ZM397.108 163.702H398.772L400.312 166.763H401.282L399.649 163.62C400.578 163.406 401.077 162.702 401.077 161.661C401.077 160.365 400.333 159.641 399.088 159.641H396.251V166.763H397.108V163.702ZM397.108 162.967V160.396H399.088C399.761 160.396 400.159 160.763 400.159 161.416V161.947C400.159 162.6 399.761 162.967 399.088 162.967H397.108ZM402.896 168.303L405.559 159.212H404.824L402.161 168.303H402.896ZM410.127 166.763L412.525 159.641H411.637L410.453 163.232L409.647 165.906H409.596L408.811 163.232L407.637 159.641H406.719L409.086 166.763H410.127ZM414.879 163.702H416.542L418.082 166.763H419.052L417.419 163.62C418.348 163.406 418.848 162.702 418.848 161.661C418.848 160.365 418.103 159.641 416.858 159.641H414.021V166.763H414.879V163.702ZM414.879 162.967V160.396H416.858C417.531 160.396 417.929 160.763 417.929 161.416V161.947C417.929 162.6 417.531 162.967 416.858 162.967H414.879Z" fill="#9B79FB"/>
<g opacity="0.16">
<rect x="388.426" y="185.09" width="10.2033" height="10.2033" rx="5.10166" fill="#9B79FB"/>
</g>
<path d="M390.232 206.459H391.895L393.436 209.52H394.405L392.772 206.377C393.701 206.163 394.201 205.459 394.201 204.418C394.201 203.122 393.456 202.398 392.211 202.398H389.375V209.52H390.232V206.459ZM390.232 205.724V203.153H392.211C392.885 203.153 393.283 203.52 393.283 204.173V204.704C393.283 205.357 392.885 205.724 392.211 205.724H390.232ZM398 209.642C399.408 209.642 400.377 208.56 400.377 206.887C400.377 205.214 399.408 204.132 398 204.132C396.592 204.132 395.623 205.214 395.623 206.887C395.623 208.56 396.592 209.642 398 209.642ZM398 208.918C397.122 208.918 396.5 208.377 396.5 207.265V206.51C396.5 205.397 397.122 204.857 398 204.857C398.877 204.857 399.5 205.397 399.5 206.51V207.265C399.5 208.377 398.877 208.918 398 208.918ZM402.06 209.52H402.876V208.662H402.917C403.233 209.315 403.733 209.642 404.458 209.642C405.774 209.642 406.6 208.571 406.6 206.887C406.6 205.204 405.774 204.132 404.458 204.132C403.733 204.132 403.192 204.448 402.917 205.112H402.876V201.969H402.06V209.52ZM404.233 208.907C403.488 208.907 402.876 208.52 402.876 207.836V205.877C402.876 205.295 403.488 204.867 404.233 204.867C405.151 204.867 405.723 205.499 405.723 206.438V207.336C405.723 208.275 405.151 208.907 404.233 208.907ZM410.308 209.642C411.716 209.642 412.686 208.56 412.686 206.887C412.686 205.214 411.716 204.132 410.308 204.132C408.9 204.132 407.931 205.214 407.931 206.887C407.931 208.56 408.9 209.642 410.308 209.642ZM410.308 208.918C409.431 208.918 408.808 208.377 408.808 207.265V206.51C408.808 205.397 409.431 204.857 410.308 204.857C411.186 204.857 411.808 205.397 411.808 206.51V207.265C411.808 208.377 411.186 208.918 410.308 208.918ZM416.552 209.52V208.805H415.48V204.969H416.633V204.255H415.48V202.796H414.746V203.775C414.746 204.132 414.634 204.255 414.287 204.255H413.797V204.969H414.664V208.652C414.664 209.162 414.97 209.52 415.531 209.52H416.552ZM418.694 203.02C419.041 203.02 419.194 202.836 419.194 202.561V202.428C419.194 202.153 419.041 201.969 418.694 201.969C418.347 201.969 418.194 202.153 418.194 202.428V202.561C418.194 202.836 418.347 203.02 418.694 203.02ZM418.286 209.52H419.102V204.255H418.286V209.52ZM423.135 209.642C424.135 209.642 424.819 209.152 425.156 208.397L424.564 207.999C424.278 208.601 423.799 208.918 423.135 208.918C422.166 208.918 421.666 208.254 421.666 207.336V206.438C421.666 205.52 422.166 204.857 423.135 204.857C423.778 204.857 424.227 205.173 424.421 205.714L425.105 205.367C424.799 204.642 424.176 204.132 423.135 204.132C421.656 204.132 420.789 205.204 420.789 206.887C420.789 208.571 421.656 209.642 423.135 209.642ZM428.23 209.642C429.434 209.642 430.178 209.02 430.178 207.999C430.178 207.203 429.73 206.693 428.566 206.52L428.158 206.459C427.505 206.357 427.148 206.152 427.148 205.642C427.148 205.142 427.505 204.826 428.179 204.826C428.852 204.826 429.301 205.142 429.536 205.469L430.076 204.979C429.648 204.448 429.087 204.132 428.24 204.132C427.168 204.132 426.362 204.642 426.362 205.683C426.362 206.663 427.087 207.061 428.056 207.203L428.475 207.265C429.168 207.367 429.393 207.683 429.393 208.091C429.393 208.632 428.985 208.948 428.291 208.948C427.628 208.948 427.138 208.652 426.73 208.142L426.148 208.611C426.617 209.234 427.26 209.642 428.23 209.642Z" fill="#9B79FB"/>
<rect x="39.4058" y="60.9844" width="188.583" height="188.583" rx="94.2917" fill="#855CF8"/>
<g style="mix-blend-mode:overlay">
<path d="M133.697 155.277H227.989C227.989 181.242 217.248 204.749 200.185 221.765L133.697 155.277Z" fill="#ACB9FF"/>
</g>
<g opacity="0.4">
<path d="M133.697 155.275H227.989C227.989 129.31 217.248 105.803 200.185 88.7871L133.697 155.275Z" fill="#9B79FB"/>
</g>
<path d="M133.697 155.276V60.9846C159.662 60.9846 183.169 71.7252 200.185 88.7886L133.697 155.276Z" fill="#9B79FB"/>
</svg>
