<svg width="475" height="271" viewBox="0 0 475 271" fill="none" xmlns="http://www.w3.org/2000/svg">
<rect x="0.469113" y="0.469113" width="473.804" height="269.271" rx="4.22202" fill="white" stroke="#E5E5E5" stroke-width="0.938226"/>
<g opacity="0.16">
<rect x="66.614" y="121.031" width="39.511" height="121.213" fill="#B0B0B0"/>
</g>
<g opacity="0.16">
<rect x="110.711" y="126.66" width="39.511" height="115.288" fill="#B0B0B0"/>
</g>
<g opacity="0.16">
<rect x="153.869" y="106.02" width="39.511" height="136.289" fill="#B0B0B0"/>
</g>
<g opacity="0.16">
<rect x="198.904" y="95.6992" width="39.511" height="145.978" fill="#B0B0B0"/>
</g>
<g opacity="0.16">
<rect x="242.062" y="144.486" width="39.511" height="97.6684" fill="#B0B0B0"/>
</g>
<g opacity="0.16">
<rect x="285.221" y="121.031" width="39.511" height="120.885" fill="#B0B0B0"/>
</g>
<g opacity="0.16">
<rect x="330.256" y="109.772" width="39.511" height="131.969" fill="#B0B0B0"/>
</g>
<g opacity="0.16">
<rect x="373.414" y="166.065" width="39.511" height="75.8468" fill="#B0B0B0"/>
</g>
<g opacity="0.16">
<rect x="416.573" y="91.9453" width="39.511" height="149.36" fill="#B0B0B0"/>
</g>
<path d="M81.7979 233.775H77.7688L79.8327 231.919C80.8098 231.041 81.5124 230.206 81.5124 229.021C81.5124 227.714 80.6561 226.792 79.163 226.792C77.6809 226.792 77.0003 227.692 76.7038 228.593L77.5272 228.911C77.7358 228.186 78.175 227.616 79.1191 227.616C80.0633 227.616 80.5353 228.197 80.5353 229.043V229.174C80.5353 229.91 79.9864 230.679 79.2728 231.337L76.7697 233.643V234.587H81.7979V233.775ZM88.3624 226.924H84.2564L83.982 231.14L84.7615 231.249C85.0798 230.898 85.4312 230.602 86.1338 230.602C87.1767 230.602 87.7366 231.184 87.7366 232.194V232.303C87.7366 233.313 87.1767 233.895 86.1338 233.895C85.2116 233.895 84.8273 233.489 84.4321 232.885L83.7405 233.412C84.2016 234.071 84.8603 234.719 86.1338 234.719C87.7476 234.719 88.7137 233.676 88.7137 232.183C88.7137 230.701 87.7476 229.811 86.4302 229.811C85.6288 229.811 85.2226 230.141 84.8603 230.657H84.7834L85.003 227.736H88.3624V226.924ZM93.1484 234.719C94.6854 234.719 95.6955 233.687 95.6955 232.183C95.6955 230.733 94.7513 229.822 93.4339 229.822C92.5007 229.822 91.9518 230.294 91.5895 230.92L91.5346 230.898C91.9518 229.12 92.863 228.121 94.4988 226.924H93.3131C92.0835 227.725 90.5795 229.504 90.5795 231.776C90.5795 233.599 91.5566 234.719 93.1484 234.719ZM93.1375 233.917C92.1274 233.917 91.5346 233.335 91.5346 232.303V232.216C91.5346 231.184 92.1274 230.602 93.1375 230.602C94.1475 230.602 94.7403 231.184 94.7403 232.216V232.303C94.7403 233.335 94.1475 233.917 93.1375 233.917Z" fill="#263238"/>
<path d="M126.048 234.475V233.662H124.072V226.812H122.634L120.603 228.711L121.141 229.293L123.073 227.492H123.15V233.662H121.009V234.475H126.048ZM131.987 234.475V232.971H133.096V232.202H131.987V226.812H130.615L127.409 232.158V232.971H131.109V234.475H131.987ZM131.054 227.525H131.109V232.202H128.276L131.054 227.525ZM138.936 234.475V232.971H140.045V232.202H138.936V226.812H137.564L134.358 232.158V232.971H138.058V234.475H138.936ZM138.003 227.525H138.058V232.202H135.225L138.003 227.525Z" fill="#263238"/>
<path d="M169.207 233.896V233.083H167.231V226.232H165.792L163.761 228.132L164.299 228.714L166.232 226.913H166.308V233.083H164.168V233.896H169.207ZM173.455 234.027C174.992 234.027 176.002 232.995 176.002 231.491C176.002 230.042 175.058 229.131 173.74 229.131C172.807 229.131 172.258 229.603 171.896 230.229L171.841 230.207C172.258 228.428 173.169 227.429 174.805 226.232H173.619C172.39 227.034 170.886 228.812 170.886 231.085C170.886 232.907 171.863 234.027 173.455 234.027ZM173.444 233.226C172.434 233.226 171.841 232.644 171.841 231.612V231.524C171.841 230.492 172.434 229.91 173.444 229.91C174.454 229.91 175.047 230.492 175.047 231.524V231.612C175.047 232.644 174.454 233.226 173.444 233.226ZM180.393 234.027C182.138 234.027 183.049 233.072 183.049 231.81C183.049 230.767 182.424 230.163 181.501 229.91V229.822C182.303 229.548 182.819 228.9 182.819 228.022C182.819 226.858 181.919 226.101 180.393 226.101C178.867 226.101 177.966 226.858 177.966 228.022C177.966 228.9 178.482 229.548 179.284 229.822V229.91C178.362 230.163 177.736 230.767 177.736 231.81C177.736 233.072 178.647 234.027 180.393 234.027ZM180.393 233.226C179.328 233.226 178.713 232.721 178.713 231.853V231.623C178.713 230.756 179.328 230.251 180.393 230.251C181.458 230.251 182.072 230.756 182.072 231.623V231.853C182.072 232.721 181.458 233.226 180.393 233.226ZM180.393 229.482C179.437 229.482 178.921 229.054 178.921 228.274V228.11C178.921 227.33 179.437 226.902 180.393 226.902C181.348 226.902 181.864 227.33 181.864 228.11V228.274C181.864 229.054 181.348 229.482 180.393 229.482Z" fill="#263238"/>
<path d="M214.088 234.639H210.059L212.123 232.783C213.1 231.905 213.802 231.071 213.802 229.885C213.802 228.579 212.946 227.656 211.453 227.656C209.971 227.656 209.29 228.557 208.994 229.457L209.817 229.775C210.026 229.051 210.465 228.48 211.409 228.48C212.353 228.48 212.825 229.062 212.825 229.907V230.039C212.825 230.774 212.276 231.543 211.563 232.202L209.06 234.507V235.451H214.088V234.639ZM220.18 235.451V233.947H221.289V233.179H220.18V227.788H218.808L215.602 233.135V233.947H219.302V235.451H220.18ZM219.247 228.502H219.302V233.179H216.47L219.247 228.502ZM225.428 235.583C227.173 235.583 228.084 234.628 228.084 233.365C228.084 232.322 227.459 231.718 226.536 231.466V231.378C227.338 231.104 227.854 230.456 227.854 229.578C227.854 228.414 226.954 227.656 225.428 227.656C223.901 227.656 223.001 228.414 223.001 229.578C223.001 230.456 223.517 231.104 224.319 231.378V231.466C223.396 231.718 222.771 232.322 222.771 233.365C222.771 234.628 223.682 235.583 225.428 235.583ZM225.428 234.781C224.363 234.781 223.748 234.276 223.748 233.409V233.179C223.748 232.311 224.363 231.806 225.428 231.806C226.492 231.806 227.107 232.311 227.107 233.179V233.409C227.107 234.276 226.492 234.781 225.428 234.781ZM225.428 231.038C224.472 231.038 223.956 230.61 223.956 229.83V229.665C223.956 228.886 224.472 228.458 225.428 228.458C226.383 228.458 226.899 228.886 226.899 229.665V229.83C226.899 230.61 226.383 231.038 225.428 231.038Z" fill="#263238"/>
<path d="M260.721 231.387C260.721 229.564 259.744 228.444 258.152 228.444C256.615 228.444 255.605 229.476 255.605 230.981C255.605 232.43 256.549 233.341 257.866 233.341C258.8 233.341 259.348 232.869 259.711 232.243L259.766 232.265C259.348 234.044 258.437 235.043 256.801 236.239H257.987C259.217 235.438 260.721 233.659 260.721 231.387ZM258.163 232.561C257.153 232.561 256.56 231.98 256.56 230.948V230.86C256.56 229.828 257.153 229.246 258.163 229.246C259.173 229.246 259.766 229.828 259.766 230.86V230.948C259.766 231.98 259.173 232.561 258.163 232.561ZM265.123 236.371C266.66 236.371 267.67 235.339 267.67 233.835C267.67 232.386 266.725 231.475 265.408 231.475C264.475 231.475 263.926 231.947 263.564 232.572L263.509 232.55C263.926 230.772 264.837 229.773 266.473 228.576H265.287C264.058 229.378 262.554 231.156 262.554 233.429C262.554 235.251 263.531 236.371 265.123 236.371ZM265.112 235.57C264.102 235.57 263.509 234.988 263.509 233.956V233.868C263.509 232.836 264.102 232.254 265.112 232.254C266.122 232.254 266.714 232.836 266.714 233.868V233.956C266.714 234.988 266.122 235.57 265.112 235.57Z" fill="#263238"/>
<path d="M300.558 235.783V234.971H298.582V228.12H297.144L295.113 230.019L295.651 230.601L297.583 228.801H297.66V234.971H295.519V235.783H300.558ZM306.497 235.783V234.279H307.606V233.511H306.497V228.12H305.125L301.919 233.467V234.279H305.619V235.783H306.497ZM305.564 228.834H305.619V233.511H302.786L305.564 228.834ZM313.446 235.783V234.279H314.555V233.511H313.446V228.12H312.074L308.868 233.467V234.279H312.568V235.783H313.446ZM312.513 228.834H312.568V233.511H309.735L312.513 228.834Z" fill="#263238"/>
<path d="M345.593 234.587V233.775H343.617V226.924H342.179L340.148 228.823L340.686 229.405L342.618 227.605H342.695V233.775H340.554V234.587H345.593ZM349.841 234.719C351.378 234.719 352.388 233.687 352.388 232.183C352.388 230.733 351.444 229.822 350.127 229.822C349.194 229.822 348.645 230.294 348.282 230.92L348.227 230.898C348.645 229.12 349.556 228.121 351.192 226.924H350.006C348.776 227.725 347.272 229.504 347.272 231.776C347.272 233.599 348.249 234.719 349.841 234.719ZM349.83 233.917C348.82 233.917 348.227 233.335 348.227 232.303V232.216C348.227 231.184 348.82 230.602 349.83 230.602C350.84 230.602 351.433 231.184 351.433 232.216V232.303C351.433 233.335 350.84 233.917 349.83 233.917ZM356.779 234.719C358.525 234.719 359.436 233.764 359.436 232.501C359.436 231.458 358.81 230.854 357.888 230.602V230.514C358.689 230.239 359.205 229.592 359.205 228.713C359.205 227.55 358.305 226.792 356.779 226.792C355.253 226.792 354.353 227.55 354.353 228.713C354.353 229.592 354.869 230.239 355.67 230.514V230.602C354.748 230.854 354.122 231.458 354.122 232.501C354.122 233.764 355.033 234.719 356.779 234.719ZM356.779 233.917C355.714 233.917 355.099 233.412 355.099 232.545V232.314C355.099 231.447 355.714 230.942 356.779 230.942C357.844 230.942 358.459 231.447 358.459 232.314V232.545C358.459 233.412 357.844 233.917 356.779 233.917ZM356.779 230.174C355.824 230.174 355.308 229.745 355.308 228.966V228.801C355.308 228.022 355.824 227.594 356.779 227.594C357.734 227.594 358.25 228.022 358.25 228.801V228.966C358.25 229.745 357.734 230.174 356.779 230.174Z" fill="#263238"/>
<path d="M388.252 231.311V232.113H389.152C390.228 232.113 390.799 232.629 390.799 233.529V233.617C390.799 234.517 390.228 235.033 389.152 235.033C388.219 235.033 387.769 234.627 387.374 234.023L386.682 234.55C387.154 235.209 387.835 235.856 389.163 235.856C390.722 235.856 391.765 234.945 391.765 233.628C391.765 232.475 390.974 231.86 390.151 231.695V231.652C390.963 231.443 391.622 230.85 391.622 229.862C391.622 228.621 390.59 227.93 389.295 227.93C388.065 227.93 387.395 228.567 387.011 229.181L387.692 229.708C388.01 229.127 388.482 228.753 389.273 228.753C390.085 228.753 390.645 229.159 390.645 229.961V230.038C390.645 230.773 390.118 231.311 389.086 231.311H388.252ZM399.021 234.912H394.992L397.056 233.057C398.033 232.179 398.736 231.344 398.736 230.158C398.736 228.852 397.879 227.93 396.386 227.93C394.904 227.93 394.223 228.83 393.927 229.73L394.75 230.049C394.959 229.324 395.398 228.753 396.342 228.753C397.287 228.753 397.759 229.335 397.759 230.18V230.312C397.759 231.048 397.21 231.816 396.496 232.475L393.993 234.78V235.725H399.021V234.912Z" fill="#263238"/>
<path d="M431.756 233.793H427.727L429.791 231.938C430.768 231.059 431.471 230.225 431.471 229.039C431.471 227.733 430.615 226.811 429.122 226.811C427.639 226.811 426.959 227.711 426.662 228.611L427.486 228.93C427.694 228.205 428.133 227.634 429.078 227.634C430.022 227.634 430.494 228.216 430.494 229.061V229.193C430.494 229.929 429.945 230.697 429.231 231.356L426.728 233.661V234.605H431.756V233.793ZM438.321 226.942H434.215L433.94 231.158L434.72 231.268C435.038 230.917 435.39 230.62 436.092 230.62C437.135 230.62 437.695 231.202 437.695 232.212V232.322C437.695 233.332 437.135 233.914 436.092 233.914C435.17 233.914 434.786 233.508 434.391 232.904L433.699 233.431C434.16 234.089 434.819 234.737 436.092 234.737C437.706 234.737 438.672 233.694 438.672 232.201C438.672 230.719 437.706 229.83 436.389 229.83C435.587 229.83 435.181 230.159 434.819 230.675H434.742L434.961 227.755H438.321V226.942ZM443.107 234.737C444.644 234.737 445.654 233.705 445.654 232.201C445.654 230.752 444.71 229.841 443.392 229.841C442.459 229.841 441.91 230.313 441.548 230.939L441.493 230.917C441.91 229.138 442.821 228.139 444.457 226.942H443.272C442.042 227.744 440.538 229.522 440.538 231.795C440.538 233.617 441.515 234.737 443.107 234.737ZM443.096 233.936C442.086 233.936 441.493 233.354 441.493 232.322V232.234C441.493 231.202 442.086 230.62 443.096 230.62C444.106 230.62 444.699 231.202 444.699 232.234V232.322C444.699 233.354 444.106 233.936 443.096 233.936Z" fill="#263238"/>
<path d="M15.4696 32.9492H16.7005V24.1224H16.7756L17.6613 25.8787L20.1682 30.4423L22.6751 25.8787L23.5608 24.1224H23.6359V32.9492H24.8668V22.4711H23.2456L20.2283 28.1155H20.1532L17.1509 22.4711H15.4696V32.9492ZM30.8568 33.1294C32.313 33.1294 33.4238 32.4088 33.9192 31.358L33.0635 30.7425C32.6582 31.5982 31.9076 32.0785 30.9319 32.0785C29.4908 32.0785 28.6351 31.0728 28.6351 29.7367V29.3765H34.2044V28.806C34.2044 26.6143 32.9284 25.0231 30.8568 25.0231C28.7552 25.0231 27.3741 26.6143 27.3741 29.0762C27.3741 31.5381 28.7552 33.1294 30.8568 33.1294ZM30.8568 26.0289C32.0878 26.0289 32.9134 26.9446 32.9134 28.3106V28.4758H28.6351V28.3707C28.6351 27.0196 29.5508 26.0289 30.8568 26.0289ZM37.7971 32.9492V27.5751C37.7971 26.5843 38.7278 26.1039 39.6886 26.1039C40.8445 26.1039 41.4449 26.8095 41.4449 28.1905V32.9492H42.6459V27.9804C42.6459 26.1039 41.6401 25.0231 40.0489 25.0231C38.893 25.0231 38.2325 25.5935 37.8572 26.4642H37.7971V25.2032H36.5962V32.9492H37.7971ZM48.7535 32.9492V31.8984H47.1773V26.254H48.8736V25.2032H47.1773V23.0566H46.0964V24.4977C46.0964 25.0231 45.9313 25.2032 45.4209 25.2032H44.7004V26.254H45.9763V31.6732C45.9763 32.4238 46.4267 32.9492 47.2523 32.9492H48.7535ZM54.0853 33.1294C56.1569 33.1294 57.583 31.5381 57.583 29.0762C57.583 26.6143 56.1569 25.0231 54.0853 25.0231C52.0137 25.0231 50.5876 26.6143 50.5876 29.0762C50.5876 31.5381 52.0137 33.1294 54.0853 33.1294ZM54.0853 32.0635C52.7943 32.0635 51.8786 31.2679 51.8786 29.6317V28.5208C51.8786 26.8845 52.7943 26.0889 54.0853 26.0889C55.3763 26.0889 56.292 26.8845 56.292 28.5208V29.6317C56.292 31.2679 55.3763 32.0635 54.0853 32.0635ZM61.1719 32.9492V27.6952C61.1719 26.9596 61.9525 26.4042 63.2435 26.4042H63.949V25.2032H63.4836C62.2227 25.2032 61.5171 25.8938 61.2469 26.6293H61.1719V25.2032H59.9709V32.9492H61.1719ZM72.9637 32.9492L75.6958 25.2032H74.5399L73.1589 29.0462L72.3182 31.6882H72.2432L71.4025 29.0462L70.0515 25.2032H68.8505L71.5676 32.9492H72.9637ZM79.9845 33.1294C81.7558 33.1294 82.8517 32.2136 82.8517 30.7125C82.8517 29.5416 82.1912 28.791 80.4799 28.5358L79.8794 28.4457C78.9186 28.2956 78.3932 27.9954 78.3932 27.2448C78.3932 26.5092 78.9186 26.0439 79.9094 26.0439C80.9002 26.0439 81.5607 26.5092 81.906 26.9896L82.7016 26.269C82.0711 25.4884 81.2454 25.0231 79.9995 25.0231C78.4233 25.0231 77.2373 25.7737 77.2373 27.3048C77.2373 28.746 78.3032 29.3314 79.7293 29.5416L80.3447 29.6317C81.3655 29.7818 81.6958 30.2471 81.6958 30.8476C81.6958 31.6432 81.0953 32.1086 80.0745 32.1086C79.0988 32.1086 78.3782 31.6732 77.7778 30.9226L76.9221 31.6132C77.6126 32.5289 78.5584 33.1294 79.9845 33.1294ZM93.1592 33.1294C94.9005 33.1294 96.1765 32.2136 96.837 30.7425L95.8312 30.112C95.4109 31.2529 94.4952 32.0035 93.1592 32.0035C91.3578 32.0035 90.2919 30.6975 90.2919 28.5508V26.9896C90.2919 24.8429 91.3578 23.4168 93.1592 23.4168C94.4502 23.4168 95.3208 24.1224 95.7412 25.2032L96.762 24.5877C96.1014 23.1316 94.9005 22.291 93.1592 22.291C90.5171 22.291 88.9409 24.2725 88.9409 27.7702C88.9409 31.2679 90.5171 33.1294 93.1592 33.1294ZM102.01 33.1294C104.082 33.1294 105.508 31.5381 105.508 29.0762C105.508 26.6143 104.082 25.0231 102.01 25.0231C99.9383 25.0231 98.5122 26.6143 98.5122 29.0762C98.5122 31.5381 99.9383 33.1294 102.01 33.1294ZM102.01 32.0635C100.719 32.0635 99.8032 31.2679 99.8032 29.6317V28.5208C99.8032 26.8845 100.719 26.0889 102.01 26.0889C103.301 26.0889 104.217 26.8845 104.217 28.5208V29.6317C104.217 31.2679 103.301 32.0635 102.01 32.0635ZM112.669 32.9492H113.87V25.2032H112.669V30.5624C112.669 31.5832 111.739 32.0485 110.793 32.0485C109.637 32.0485 109.021 31.343 109.021 29.9619V25.2032H107.82V30.1721C107.82 32.0485 108.841 33.1294 110.432 33.1294C111.723 33.1294 112.309 32.4238 112.609 31.6882H112.669V32.9492ZM118.041 32.9492V27.6952C118.041 26.9596 118.822 26.4042 120.113 26.4042H120.818V25.2032H120.353C119.092 25.2032 118.387 25.8938 118.116 26.6293H118.041V25.2032H116.84V32.9492H118.041ZM125.092 33.1294C126.863 33.1294 127.959 32.2136 127.959 30.7125C127.959 29.5416 127.299 28.791 125.587 28.5358L124.987 28.4457C124.026 28.2956 123.501 27.9954 123.501 27.2448C123.501 26.5092 124.026 26.0439 125.017 26.0439C126.008 26.0439 126.668 26.5092 127.014 26.9896L127.809 26.269C127.179 25.4884 126.353 25.0231 125.107 25.0231C123.531 25.0231 122.345 25.7737 122.345 27.3048C122.345 28.746 123.411 29.3314 124.837 29.5416L125.452 29.6317C126.473 29.7818 126.803 30.2471 126.803 30.8476C126.803 31.6432 126.203 32.1086 125.182 32.1086C124.206 32.1086 123.486 31.6732 122.885 30.9226L122.03 31.6132C122.72 32.5289 123.666 33.1294 125.092 33.1294ZM133.406 33.1294C134.862 33.1294 135.973 32.4088 136.468 31.358L135.612 30.7425C135.207 31.5982 134.456 32.0785 133.481 32.0785C132.039 32.0785 131.184 31.0728 131.184 29.7367V29.3765H136.753V28.806C136.753 26.6143 135.477 25.0231 133.406 25.0231C131.304 25.0231 129.923 26.6143 129.923 29.0762C129.923 31.5381 131.304 33.1294 133.406 33.1294ZM133.406 26.0289C134.637 26.0289 135.462 26.9446 135.462 28.3106V28.4758H131.184V28.3707C131.184 27.0196 132.1 26.0289 133.406 26.0289Z" fill="#263238"/>
<path d="M130.155 148.275L130.155 145.197C130.155 144.197 129.31 143.449 128.193 143.449C127.067 143.449 126.65 144.294 126.62 144.779L126.562 144.779C126.494 144.333 126.135 143.682 125.125 143.682C124.067 143.682 123.377 144.371 123.377 145.488L123.377 148.275L130.155 148.275ZM127.009 147.459L127.009 145.449C127.009 144.75 127.378 144.323 128.058 144.323L128.388 144.323C129.067 144.323 129.436 144.75 129.436 145.449L129.436 147.459L127.009 147.459ZM124.096 147.459L124.096 145.585C124.096 144.944 124.436 144.556 125.038 144.556L125.368 144.556C125.97 144.556 126.31 144.944 126.31 145.585L126.31 147.459L124.096 147.459ZM130.155 137.528L129.436 137.528L129.436 140.849L127.087 140.849L127.087 137.722L126.368 137.722L126.368 140.849L124.096 140.849L124.096 137.528L123.377 137.528L123.377 141.664L130.155 141.664L130.155 137.528Z" fill="#263238"/>
<path d="M173.313 126.696L173.313 125.899L167.604 125.899L167.604 125.851L168.74 125.278L171.692 123.657L168.74 122.035L167.604 121.462L167.604 121.414L173.313 121.414L173.313 120.617L166.536 120.617L166.536 121.666L170.187 123.618L170.187 123.666L166.536 125.608L166.536 126.696L173.313 126.696ZM173.313 118.549L173.313 115.471C173.313 114.471 172.468 113.723 171.352 113.723C170.226 113.723 169.808 114.568 169.779 115.054L169.721 115.054C169.653 114.607 169.293 113.956 168.284 113.956C167.225 113.956 166.536 114.646 166.536 115.762L166.536 118.549L173.313 118.549ZM170.167 117.733L170.167 115.724C170.167 115.024 170.536 114.597 171.216 114.597L171.546 114.597C172.226 114.597 172.595 115.024 172.595 115.724L172.595 117.733L170.167 117.733ZM167.254 117.733L167.254 115.86C167.254 115.219 167.594 114.83 168.196 114.83L168.526 114.83C169.128 114.83 169.468 115.219 169.468 115.86L169.468 117.733L167.254 117.733ZM173.313 106.936L166.536 109.305L166.536 110.344L173.313 112.713L173.313 111.888L171.313 111.208L171.313 108.47L173.313 107.79L173.313 106.936ZM170.595 108.674L170.595 111.014L167.293 109.868L167.293 109.82L170.595 108.674Z" fill="#263238"/>
<path d="M219.286 118.374L216.393 118.374L216.393 116.491C216.393 115.277 215.645 114.597 214.451 114.597C213.256 114.597 212.509 115.277 212.509 116.491L212.509 119.19L219.286 119.19L219.286 118.374ZM213.227 118.374L213.227 116.491C213.227 115.85 213.577 115.471 214.198 115.471L214.703 115.471C215.325 115.471 215.674 115.85 215.674 116.491L215.674 118.374L213.227 118.374ZM219.286 113.112L219.286 112.335L215.81 112.335C215.169 112.335 214.859 111.733 214.859 111.112C214.859 110.364 215.315 109.976 216.208 109.976L219.286 109.976L219.286 109.199L216.072 109.199C214.859 109.199 214.159 109.85 214.159 110.879C214.159 111.627 214.528 112.054 215.092 112.296L215.092 112.335L212.101 112.335L212.101 113.112L219.286 113.112ZM219.403 106.831C219.403 106.424 219.17 106.239 218.839 106.239L218.713 106.239C218.383 106.239 218.15 106.424 218.15 106.831C218.15 107.239 218.383 107.424 218.713 107.424L218.839 107.424C219.17 107.424 219.403 107.239 219.403 106.831ZM219.286 104.336L219.286 102.064C219.286 100.375 218.16 99.2874 215.897 99.2874C213.635 99.2874 212.509 100.375 212.509 102.064L212.509 104.336L219.286 104.336ZM218.568 103.521L213.227 103.521L213.227 102.064C213.227 100.948 214.004 100.161 215.344 100.161L216.451 100.161C217.791 100.161 218.568 100.948 218.568 102.064L218.568 103.521ZM219.403 97.4316C219.403 97.0238 219.17 96.8394 218.839 96.8394L218.713 96.8394C218.383 96.8394 218.15 97.0238 218.15 97.4316C218.15 97.8394 218.383 98.0239 218.713 98.0239L218.839 98.0239C219.17 98.0239 219.403 97.8394 219.403 97.4316Z" fill="#263238"/>
<path d="M351 118.374L348.107 118.374L348.107 116.491C348.107 115.277 347.359 114.597 346.165 114.597C344.97 114.597 344.223 115.277 344.223 116.491L344.223 119.19L351 119.19L351 118.374ZM344.941 118.374L344.941 116.491C344.941 115.85 345.291 115.471 345.912 115.471L346.417 115.471C347.038 115.471 347.388 115.85 347.388 116.491L347.388 118.374L344.941 118.374ZM351 113.112L351 112.335L347.524 112.335C346.883 112.335 346.572 111.733 346.572 111.112C346.572 110.364 347.029 109.976 347.922 109.976L351 109.976L351 109.199L347.786 109.199C346.572 109.199 345.873 109.85 345.873 110.879C345.873 111.627 346.242 112.054 346.805 112.296L346.805 112.335L343.815 112.335L343.815 113.112L351 113.112ZM351.117 106.831C351.117 106.424 350.883 106.239 350.553 106.239L350.427 106.239C350.097 106.239 349.864 106.424 349.864 106.831C349.864 107.239 350.097 107.424 350.427 107.424L350.553 107.424C350.883 107.424 351.117 107.239 351.117 106.831ZM351 104.336L351 102.064C351 100.375 349.874 99.2874 347.611 99.2874C345.349 99.2874 344.223 100.375 344.223 102.064L344.223 104.336L351 104.336ZM350.281 103.521L344.941 103.521L344.941 102.064C344.941 100.948 345.718 100.161 347.058 100.161L348.165 100.161C349.505 100.161 350.281 100.948 350.281 102.064L350.281 103.521ZM351.117 97.4316C351.117 97.0238 350.883 96.8394 350.553 96.8394L350.427 96.8394C350.097 96.8394 349.864 97.0238 349.864 97.4316C349.864 97.8394 350.097 98.0239 350.427 98.0239L350.553 98.0239C350.883 98.0239 351.117 97.8394 351.117 97.4316Z" fill="#263238"/>
<path d="M265.259 162.348L265.259 161.552L259.55 161.552L259.55 161.503L260.686 160.93L263.638 159.309L260.686 157.687L259.55 157.115L259.55 157.066L265.259 157.066L265.259 156.27L258.482 156.27L258.482 157.318L262.133 159.27L262.133 159.319L258.482 161.261L258.482 162.348L265.259 162.348ZM265.376 152.298C265.376 150.842 264.58 149.968 263.337 149.968C262.327 149.968 261.744 150.541 261.443 151.861L261.317 152.415C261.123 153.269 260.832 153.687 260.191 153.687C259.463 153.687 259.084 153.153 259.084 152.289C259.084 151.502 259.404 150.988 259.919 150.619L259.472 150.007C258.754 150.512 258.365 151.23 258.365 152.25C258.365 153.58 259.016 154.493 260.22 154.493C261.259 154.493 261.803 153.813 262.084 152.58L262.21 152.026C262.414 151.133 262.735 150.774 263.376 150.774C264.152 150.774 264.657 151.298 264.657 152.269C264.657 153.056 264.317 153.619 263.686 154.095L264.191 154.697C264.929 154.153 265.376 153.386 265.376 152.298Z" fill="#263238"/>
<path d="M396.973 162.348L396.973 161.552L391.264 161.552L391.264 161.503L392.4 160.93L395.352 159.309L392.4 157.687L391.264 157.115L391.264 157.066L396.973 157.066L396.973 156.27L390.196 156.27L390.196 157.318L393.847 159.27L393.847 159.319L390.196 161.261L390.196 162.348L396.973 162.348ZM397.09 152.298C397.09 150.842 396.293 149.968 395.051 149.968C394.041 149.968 393.458 150.541 393.157 151.861L393.031 152.415C392.837 153.269 392.546 153.687 391.905 153.687C391.177 153.687 390.798 153.153 390.798 152.289C390.798 151.502 391.118 150.988 391.633 150.619L391.186 150.007C390.468 150.512 390.079 151.23 390.079 152.25C390.079 153.58 390.73 154.493 391.934 154.493C392.973 154.493 393.517 153.813 393.798 152.58L393.924 152.026C394.128 151.133 394.449 150.774 395.089 150.774C395.866 150.774 396.371 151.298 396.371 152.269C396.371 153.056 396.031 153.619 395.4 154.095L395.905 154.697C396.643 154.153 397.09 153.386 397.09 152.298Z" fill="#263238"/>
<path d="M305.603 142.645L305.603 140.373C305.603 138.683 304.477 137.596 302.214 137.596C299.952 137.596 298.826 138.683 298.826 140.373L298.826 142.645L305.603 142.645ZM304.885 141.829L299.544 141.829L299.544 140.373C299.544 139.256 300.321 138.47 301.661 138.47L302.768 138.47C304.108 138.47 304.885 139.256 304.885 140.373L304.885 141.829ZM299.418 135.553C299.418 135.223 299.243 135.077 298.981 135.077L298.855 135.077C298.593 135.077 298.418 135.223 298.418 135.553C298.418 135.883 298.593 136.029 298.855 136.029L298.981 136.029C299.243 136.029 299.418 135.883 299.418 135.553ZM305.603 135.941L305.603 135.165L300.593 135.165L300.593 135.941L305.603 135.941ZM307.545 133.247L307.545 132.47L304.787 132.47L304.787 132.431C305.409 132.13 305.72 131.655 305.72 130.965C305.72 129.713 304.7 128.926 303.098 128.926C301.496 128.926 300.476 129.713 300.476 130.965C300.476 131.655 300.777 132.169 301.408 132.431L301.408 132.47L300.593 132.47L300.593 133.247L307.545 133.247ZM305.02 131.179C305.02 131.888 304.651 132.47 304.001 132.47L302.137 132.47C301.583 132.47 301.175 131.888 301.175 131.179C301.175 130.305 301.777 129.761 302.671 129.761L303.525 129.761C304.418 129.761 305.02 130.305 305.02 131.179ZM305.603 125.833L304.923 125.833L304.923 126.571L298.418 126.571L298.418 127.348L304.797 127.348C305.263 127.348 305.603 127.056 305.603 126.522L305.603 125.833ZM305.72 122.542C305.72 121.202 304.69 120.279 303.098 120.279C301.506 120.279 300.476 121.202 300.476 122.542C300.476 123.882 301.506 124.804 303.098 124.804C304.69 124.804 305.72 123.882 305.72 122.542ZM305.03 122.542C305.03 123.377 304.516 123.969 303.457 123.969L302.739 123.969C301.68 123.969 301.166 123.377 301.166 122.542C301.166 121.707 301.68 121.114 302.739 121.114L303.457 121.114C304.516 121.114 305.03 121.707 305.03 122.542ZM305.603 117.958L302.127 117.958C301.486 117.958 301.175 117.376 301.175 116.764C301.175 116.026 301.632 115.686 302.525 115.686L305.603 115.686L305.603 114.909L302.127 114.909C301.486 114.909 301.175 114.346 301.175 113.734C301.175 112.977 301.642 112.637 302.525 112.637L305.603 112.637L305.603 111.861L302.389 111.861C301.175 111.861 300.476 112.472 300.476 113.492C300.476 114.346 300.952 114.832 301.496 115.016L301.496 115.036C300.777 115.307 300.476 115.909 300.476 116.57C300.476 117.346 300.894 117.696 301.408 117.919L301.408 117.958L300.593 117.958L300.593 118.735L305.603 118.735L305.603 117.958ZM305.603 105.913L304.923 105.913L304.923 106.486L302.166 106.486C301.107 106.486 300.476 107.204 300.476 108.408C300.476 109.311 300.923 109.913 301.457 110.185L301.894 109.719C301.438 109.447 301.146 109.049 301.146 108.447C301.146 107.651 301.535 107.263 302.244 107.263L302.739 107.263L302.739 108.253C302.739 109.709 303.263 110.389 304.205 110.389C305.137 110.389 305.72 109.768 305.72 108.709C305.72 108.01 305.399 107.476 304.787 107.263L304.787 107.214C305.253 107.156 305.603 106.923 305.603 106.35L305.603 105.913ZM305.059 108.583C305.059 109.185 304.778 109.573 304.283 109.573L304.079 109.573C303.593 109.573 303.321 109.175 303.321 108.292L303.321 107.263L304.147 107.263C304.661 107.263 305.059 107.816 305.059 108.583Z" fill="#263238"/>
<path d="M437.317 112.526L437.317 110.254C437.317 108.564 436.191 107.477 433.928 107.477C431.666 107.477 430.54 108.564 430.54 110.254L430.54 112.526L437.317 112.526ZM436.598 111.71L431.258 111.71L431.258 110.254C431.258 109.137 432.035 108.351 433.375 108.351L434.482 108.351C435.822 108.351 436.598 109.137 436.598 110.254L436.598 111.71ZM431.132 105.434C431.132 105.104 430.957 104.958 430.695 104.958L430.569 104.958C430.307 104.958 430.132 105.104 430.132 105.434C430.132 105.764 430.307 105.91 430.569 105.91L430.695 105.91C430.957 105.91 431.132 105.764 431.132 105.434ZM437.317 105.822L437.317 105.045L432.307 105.045L432.307 105.822L437.317 105.822ZM439.259 103.128L439.259 102.351L436.501 102.351L436.501 102.312C437.123 102.011 437.433 101.535 437.433 100.846C437.433 99.5935 436.414 98.807 434.812 98.807C433.21 98.807 432.19 99.5935 432.19 100.846C432.19 101.535 432.491 102.05 433.122 102.312L433.122 102.351L432.307 102.351L432.307 103.128L439.259 103.128ZM436.734 101.06C436.734 101.768 436.365 102.351 435.715 102.351L433.851 102.351C433.297 102.351 432.889 101.768 432.889 101.06C432.889 100.186 433.491 99.6421 434.385 99.6421L435.239 99.6421C436.132 99.6421 436.734 100.186 436.734 101.06ZM437.317 95.7138L436.637 95.7138L436.637 96.4517L430.132 96.4517L430.132 97.2285L436.511 97.2285C436.977 97.2285 437.317 96.9372 437.317 96.4032L437.317 95.7138ZM437.433 92.4226C437.433 91.0827 436.404 90.1603 434.812 90.1603C433.219 90.1603 432.19 91.0827 432.19 92.4226C432.19 93.7625 433.219 94.6849 434.812 94.6849C436.404 94.6849 437.433 93.7625 437.433 92.4226ZM436.744 92.4226C436.744 93.2576 436.229 93.8499 435.171 93.8499L434.453 93.8499C433.394 93.8499 432.88 93.2576 432.88 92.4226C432.88 91.5876 433.394 90.9953 434.453 90.9953L435.171 90.9953C436.229 90.9953 436.744 91.5876 436.744 92.4226ZM437.317 87.839L433.841 87.839C433.2 87.839 432.889 87.2564 432.889 86.6447C432.889 85.9068 433.346 85.5669 434.239 85.5669L437.317 85.5669L437.317 84.7902L433.841 84.7902C433.2 84.7902 432.889 84.227 432.889 83.6153C432.889 82.858 433.355 82.5181 434.239 82.5181L437.317 82.5181L437.317 81.7414L434.103 81.7414C432.889 81.7414 432.19 82.3531 432.19 83.3726C432.19 84.227 432.666 84.7125 433.21 84.897L433.21 84.9164C432.491 85.1883 432.19 85.7903 432.19 86.4505C432.19 87.2273 432.608 87.5768 433.122 87.8002L433.122 87.839L432.307 87.839L432.307 88.6158L437.317 88.6158L437.317 87.839ZM437.317 75.7938L436.637 75.7938L436.637 76.3667L433.88 76.3667C432.821 76.3667 432.19 77.0852 432.19 78.2892C432.19 79.1921 432.637 79.7941 433.171 80.066L433.608 79.5999C433.151 79.3281 432.86 78.93 432.86 78.328C432.86 77.5318 433.249 77.1434 433.957 77.1434L434.453 77.1434L434.453 78.1338C434.453 79.5902 434.977 80.2699 435.919 80.2699C436.851 80.2699 437.433 79.6485 437.433 78.5901C437.433 77.8911 437.113 77.357 436.501 77.1434L436.501 77.0949C436.967 77.0366 437.317 76.8036 437.317 76.2307L437.317 75.7938ZM436.773 78.4639C436.773 79.0659 436.492 79.4543 435.996 79.4543L435.792 79.4543C435.307 79.4543 435.035 79.0562 435.035 78.1726L435.035 77.1434L435.86 77.1434C436.375 77.1434 436.773 77.6969 436.773 78.4639Z" fill="#263238"/>
</svg>
