<svg width="985" height="376" viewBox="0 0 985 376" fill="none" xmlns="http://www.w3.org/2000/svg">
<rect x="0.909371" y="1.41865" width="982.941" height="373.154" rx="5.85084" fill="white" stroke="#E5E5E5" stroke-width="1.30019"/>
<line x1="54.0245" y1="69.6787" x2="54.0246" y2="328.416" stroke="#ECECEE" stroke-width="0.915174"/>
<path d="M144.486 267.408C111.717 275.495 54.8672 256.766 54.8672 256.766V351.819H932.901V119.342C896.045 110.68 846.292 44.8334 823.998 70.2948C755.933 148.03 674.857 63.2149 599.385 87.8777C522.381 113.041 504.169 157.845 421.282 160.523C382.902 161.763 388.735 243.963 350.381 245.661C311.22 247.394 275.154 177.4 238.075 187.823C198.436 198.965 184.615 257.505 144.486 267.408Z" fill="url(#paint0_linear)"/>
<path d="M54.8672 251.11C54.8672 251.11 111.774 269.288 144.577 261.439C184.747 251.827 198.582 195.009 238.261 184.195C275.378 174.078 311.481 242.014 350.682 240.332C389.074 238.684 383.236 158.901 421.654 157.698C504.625 155.099 522.856 111.612 599.938 87.1894C675.487 63.252 756.646 145.572 824.779 70.1237C847.096 45.4112 896.899 109.321 933.794 117.728" stroke="#3AA959" stroke-width="2.28793" stroke-linecap="round" stroke-linejoin="round"/>
<path d="M76.7228 347.063V352.719C76.7228 353.349 76.5288 353.854 76.1407 354.235C75.7527 354.608 75.2402 354.795 74.6032 354.795C73.9589 354.795 73.4428 354.604 73.0548 354.224C72.6667 353.836 72.4727 353.308 72.4727 352.642H73.4721C73.4794 353.016 73.5746 353.319 73.7576 353.554C73.948 353.788 74.2298 353.905 74.6032 353.905C74.9766 353.905 75.2548 353.795 75.4379 353.576C75.6209 353.349 75.7124 353.063 75.7124 352.719V347.063H76.7228ZM78.3182 351.687C78.3182 351.072 78.4426 350.534 78.6916 350.072C78.9405 349.604 79.2809 349.241 79.7129 348.985C80.1522 348.729 80.6391 348.601 81.1735 348.601C81.7007 348.601 82.1582 348.714 82.5463 348.941C82.9343 349.168 83.2235 349.454 83.4139 349.798V348.7H84.4242V354.718H83.4139V353.598C83.2162 353.949 82.9197 354.242 82.5243 354.476C82.1363 354.703 81.6824 354.817 81.1625 354.817C80.6281 354.817 80.1449 354.685 79.7129 354.421C79.2809 354.158 78.9405 353.788 78.6916 353.312C78.4426 352.836 78.3182 352.294 78.3182 351.687ZM83.4139 351.698C83.4139 351.244 83.3223 350.848 83.1393 350.512C82.9563 350.175 82.7074 349.919 82.3925 349.743C82.085 349.56 81.7446 349.468 81.3712 349.468C80.9978 349.468 80.6574 349.556 80.3499 349.732C80.0424 349.908 79.7971 350.164 79.6141 350.501C79.431 350.837 79.3395 351.233 79.3395 351.687C79.3395 352.148 79.431 352.551 79.6141 352.895C79.7971 353.232 80.0424 353.491 80.3499 353.674C80.6574 353.85 80.9978 353.938 81.3712 353.938C81.7446 353.938 82.085 353.85 82.3925 353.674C82.7074 353.491 82.9563 353.232 83.1393 352.895C83.3223 352.551 83.4139 352.152 83.4139 351.698ZM89.0453 348.59C89.7774 348.59 90.3704 348.813 90.8244 349.26C91.2783 349.699 91.5053 350.336 91.5053 351.171V354.718H90.5169V351.313C90.5169 350.713 90.3668 350.255 90.0666 349.941C89.7664 349.618 89.3564 349.457 88.8366 349.457C88.3095 349.457 87.8885 349.622 87.5737 349.952C87.2662 350.281 87.1124 350.761 87.1124 351.39V354.718H86.1131V348.7H87.1124V349.556C87.3101 349.249 87.5773 349.011 87.9141 348.842C88.2582 348.674 88.6353 348.59 89.0453 348.59ZM98.475 348.7V354.718H97.4756V353.828C97.2853 354.136 97.0181 354.377 96.674 354.553C96.3372 354.721 95.9638 354.806 95.5538 354.806C95.0852 354.806 94.6642 354.71 94.2908 354.52C93.9175 354.322 93.6209 354.03 93.4013 353.642C93.189 353.253 93.0828 352.781 93.0828 352.225V348.7H94.0712V352.093C94.0712 352.686 94.2213 353.144 94.5215 353.466C94.8216 353.781 95.2316 353.938 95.7515 353.938C96.2859 353.938 96.7069 353.773 97.0144 353.444C97.3219 353.114 97.4756 352.635 97.4756 352.005V348.7H98.475ZM99.789 351.687C99.789 351.072 99.9135 350.534 100.162 350.072C100.411 349.604 100.752 349.241 101.184 348.985C101.623 348.729 102.11 348.601 102.644 348.601C103.171 348.601 103.629 348.714 104.017 348.941C104.405 349.168 104.694 349.454 104.885 349.798V348.7H105.895V354.718H104.885V353.598C104.687 353.949 104.391 354.242 103.995 354.476C103.607 354.703 103.153 354.817 102.633 354.817C102.099 354.817 101.616 354.685 101.184 354.421C100.752 354.158 100.411 353.788 100.162 353.312C99.9135 352.836 99.789 352.294 99.789 351.687ZM104.885 351.698C104.885 351.244 104.793 350.848 104.61 350.512C104.427 350.175 104.178 349.919 103.863 349.743C103.556 349.56 103.215 349.468 102.842 349.468C102.469 349.468 102.128 349.556 101.821 349.732C101.513 349.908 101.268 350.164 101.085 350.501C100.902 350.837 100.81 351.233 100.81 351.687C100.81 352.148 100.902 352.551 101.085 352.895C101.268 353.232 101.513 353.491 101.821 353.674C102.128 353.85 102.469 353.938 102.842 353.938C103.215 353.938 103.556 353.85 103.863 353.674C104.178 353.491 104.427 353.232 104.61 352.895C104.793 352.551 104.885 352.152 104.885 351.698ZM108.583 349.677C108.759 349.333 109.008 349.066 109.33 348.875C109.659 348.685 110.059 348.59 110.527 348.59V349.622H110.264C109.143 349.622 108.583 350.23 108.583 351.445V354.718H107.584V348.7H108.583V349.677ZM116.864 348.7L113.24 357.551H112.208L113.394 354.652L110.967 348.7H112.076L113.965 353.576L115.832 348.7H116.864Z" fill="#92959E"/>
<path d="M30.581 296.982V296.071H32.6456V304.011H31.6352V296.982H30.581ZM34.3622 299.958C34.3622 298.699 34.5672 297.718 34.9772 297.015C35.3872 296.305 36.1047 295.95 37.1297 295.95C38.1474 295.95 38.8612 296.305 39.2712 297.015C39.6812 297.718 39.8862 298.699 39.8862 299.958C39.8862 301.24 39.6812 302.235 39.2712 302.945C38.8612 303.656 38.1474 304.011 37.1297 304.011C36.1047 304.011 35.3872 303.656 34.9772 302.945C34.5672 302.235 34.3622 301.24 34.3622 299.958ZM38.8978 299.958C38.8978 299.321 38.8539 298.783 38.766 298.344C38.6855 297.897 38.5134 297.539 38.2499 297.268C37.9936 296.997 37.6202 296.861 37.1297 296.861C36.6319 296.861 36.2511 296.997 35.9876 297.268C35.7313 297.539 35.5593 297.897 35.4714 298.344C35.3909 298.783 35.3506 299.321 35.3506 299.958C35.3506 300.617 35.3909 301.17 35.4714 301.617C35.5593 302.063 35.7313 302.422 35.9876 302.693C36.2511 302.964 36.6319 303.099 37.1297 303.099C37.6202 303.099 37.9936 302.964 38.2499 302.693C38.5134 302.422 38.6855 302.063 38.766 301.617C38.8539 301.17 38.8978 300.617 38.8978 299.958Z" fill="#92959E"/>
<path d="M26.6589 197.059C26.7102 196.385 26.9701 195.858 27.4387 195.477C27.9072 195.097 28.5149 194.906 29.2617 194.906C29.7595 194.906 30.1878 194.998 30.5466 195.181C30.9127 195.356 31.1872 195.598 31.3702 195.906C31.5606 196.213 31.6558 196.561 31.6558 196.949C31.6558 197.403 31.524 197.794 31.2604 198.124C31.0042 198.453 30.6674 198.666 30.2501 198.761V198.816C30.726 198.933 31.103 199.164 31.3812 199.508C31.6594 199.852 31.7985 200.302 31.7985 200.858C31.7985 201.276 31.7034 201.653 31.513 201.99C31.3226 202.319 31.0371 202.579 30.6564 202.769C30.2757 202.96 29.8181 203.055 29.2836 203.055C28.5076 203.055 27.8706 202.854 27.3728 202.451C26.8749 202.041 26.5967 201.463 26.5381 200.716H27.5045C27.5558 201.155 27.7352 201.514 28.0427 201.792C28.3502 202.07 28.7602 202.209 29.2727 202.209C29.7852 202.209 30.1732 202.078 30.4368 201.814C30.7077 201.543 30.8431 201.195 30.8431 200.771C30.8431 200.222 30.6601 199.826 30.294 199.585C29.9279 199.343 29.3752 199.222 28.6357 199.222H28.3831V198.388H28.6467C29.3202 198.38 29.8291 198.27 30.1732 198.058C30.5173 197.838 30.6893 197.502 30.6893 197.048C30.6893 196.66 30.5612 196.349 30.305 196.114C30.056 195.88 29.6973 195.763 29.2287 195.763C28.7748 195.763 28.4087 195.88 28.1305 196.114C27.8523 196.349 27.6876 196.663 27.6363 197.059H26.6589ZM33.1479 198.948C33.1479 197.688 33.3529 196.707 33.7629 196.004C34.1729 195.294 34.8904 194.939 35.9154 194.939C36.933 194.939 37.6469 195.294 38.0569 196.004C38.4669 196.707 38.6719 197.688 38.6719 198.948C38.6719 200.229 38.4669 201.225 38.0569 201.935C37.6469 202.645 36.933 203 35.9154 203C34.8904 203 34.1729 202.645 33.7629 201.935C33.3529 201.225 33.1479 200.229 33.1479 198.948ZM37.6835 198.948C37.6835 198.311 37.6395 197.773 37.5517 197.333C37.4712 196.887 37.2991 196.528 37.0355 196.257C36.7793 195.986 36.4059 195.851 35.9154 195.851C35.4175 195.851 35.0368 195.986 34.7732 196.257C34.517 196.528 34.3449 196.887 34.2571 197.333C34.1765 197.773 34.1363 198.311 34.1363 198.948C34.1363 199.607 34.1765 200.159 34.2571 200.606C34.3449 201.053 34.517 201.411 34.7732 201.682C35.0368 201.953 35.4175 202.088 35.9154 202.088C36.4059 202.088 36.7793 201.953 37.0355 201.682C37.2991 201.411 37.4712 201.053 37.5517 200.606C37.6395 200.159 37.6835 199.607 37.6835 198.948Z" fill="#92959E"/>
<path d="M32.0067 95.409H28.152V97.9129C28.3204 97.6786 28.5693 97.4883 28.8988 97.3418C29.2282 97.1881 29.5833 97.1112 29.964 97.1112C30.5717 97.1112 31.0659 97.2393 31.4466 97.4956C31.8273 97.7445 32.0982 98.0703 32.2593 98.473C32.4277 98.8683 32.5119 99.2893 32.5119 99.7359C32.5119 100.263 32.413 100.735 32.2154 101.153C32.0177 101.57 31.7138 101.899 31.3038 102.141C30.9012 102.383 30.3996 102.503 29.7993 102.503C29.0305 102.503 28.4082 102.306 27.9323 101.91C27.4564 101.515 27.1673 100.988 27.0648 100.329H28.0422C28.1373 100.746 28.3387 101.072 28.6462 101.306C28.9537 101.541 29.3417 101.658 29.8103 101.658C30.3887 101.658 30.8243 101.486 31.1171 101.142C31.41 100.79 31.5564 100.329 31.5564 99.7579C31.5564 99.1868 31.41 98.7475 31.1171 98.44C30.8243 98.1252 30.3923 97.9678 29.8213 97.9678C29.4332 97.9678 29.0928 98.063 28.7999 98.2533C28.5144 98.4364 28.3057 98.689 28.1739 99.0111H27.2295V94.5304H32.0067V95.409ZM33.8399 98.4291C33.8399 97.1698 34.0449 96.1887 34.4549 95.4859C34.8649 94.7757 35.5824 94.4206 36.6074 94.4206C37.6251 94.4206 38.3389 94.7757 38.7489 95.4859C39.1589 96.1887 39.3639 97.1698 39.3639 98.4291C39.3639 99.7103 39.1589 100.706 38.7489 101.416C38.3389 102.126 37.6251 102.481 36.6074 102.481C35.5824 102.481 34.8649 102.126 34.4549 101.416C34.0449 100.706 33.8399 99.7103 33.8399 98.4291ZM38.3755 98.4291C38.3755 97.7921 38.3316 97.254 38.2437 96.8147C38.1632 96.3681 37.9912 96.0093 37.7276 95.7384C37.4713 95.4676 37.0979 95.3321 36.6074 95.3321C36.1096 95.3321 35.7288 95.4676 35.4653 95.7384C35.209 96.0093 35.037 96.3681 34.9491 96.8147C34.8686 97.254 34.8283 97.7921 34.8283 98.4291C34.8283 99.088 34.8686 99.6407 34.9491 100.087C35.037 100.534 35.209 100.893 35.4653 101.164C35.7288 101.434 36.1096 101.57 36.6074 101.57C37.0979 101.57 37.4713 101.434 37.7276 101.164C37.9912 100.893 38.1632 100.534 38.2437 100.087C38.3316 99.6407 38.3755 99.088 38.3755 98.4291Z" fill="#92959E"/>
<path d="M26.5601 252.198C27.4899 251.452 28.2184 250.84 28.7455 250.364C29.2727 249.881 29.7156 249.38 30.0744 248.86C30.4404 248.333 30.6235 247.816 30.6235 247.311C30.6235 246.835 30.5063 246.462 30.272 246.191C30.0451 245.913 29.6753 245.774 29.1628 245.774C28.665 245.774 28.277 245.931 27.9987 246.246C27.7278 246.554 27.5814 246.967 27.5595 247.487H26.593C26.6223 246.667 26.8712 246.034 27.3398 245.587C27.8084 245.14 28.4124 244.917 29.1519 244.917C29.906 244.917 30.5027 245.126 30.9419 245.543C31.3885 245.96 31.6118 246.535 31.6118 247.267C31.6118 247.875 31.4288 248.468 31.0627 249.046C30.704 249.618 30.294 250.123 29.8327 250.562C29.3715 250.994 28.7821 251.499 28.0646 252.078H31.8425V252.912H26.5601V252.198ZM32.9977 248.948C32.9977 247.688 33.2027 246.707 33.6127 246.004C34.0227 245.294 34.7402 244.939 35.7652 244.939C36.7829 244.939 37.4967 245.294 37.9067 246.004C38.3167 246.707 38.5217 247.688 38.5217 248.948C38.5217 250.229 38.3167 251.225 37.9067 251.935C37.4967 252.645 36.7829 253 35.7652 253C34.7402 253 34.0227 252.645 33.6127 251.935C33.2027 251.225 32.9977 250.229 32.9977 248.948ZM37.5333 248.948C37.5333 248.311 37.4894 247.773 37.4015 247.333C37.321 246.887 37.149 246.528 36.8854 246.257C36.6291 245.986 36.2557 245.851 35.7652 245.851C35.2674 245.851 34.8866 245.986 34.6231 246.257C34.3668 246.528 34.1948 246.887 34.1069 247.333C34.0264 247.773 33.9861 248.311 33.9861 248.948C33.9861 249.607 34.0264 250.159 34.1069 250.606C34.1948 251.053 34.3668 251.411 34.6231 251.682C34.8866 251.953 35.2674 252.088 35.7652 252.088C36.2557 252.088 36.6291 251.953 36.8854 251.682C37.149 251.411 37.321 251.053 37.4015 250.606C37.4894 250.159 37.5333 249.607 37.5333 248.948Z" fill="#92959E"/>
<path d="M26.4393 151.232V150.474L30.294 145.137H31.491V150.364H32.5892V151.232H31.491V153H30.5027V151.232H26.4393ZM30.5466 146.18L27.5924 150.364H30.5466V146.18ZM33.5876 148.948C33.5876 147.688 33.7926 146.707 34.2026 146.004C34.6126 145.294 35.3301 144.939 36.3551 144.939C37.3727 144.939 38.0866 145.294 38.4966 146.004C38.9066 146.707 39.1116 147.688 39.1116 148.948C39.1116 150.229 38.9066 151.225 38.4966 151.935C38.0866 152.645 37.3727 153 36.3551 153C35.3301 153 34.6126 152.645 34.2026 151.935C33.7926 151.225 33.5876 150.229 33.5876 148.948ZM38.1232 148.948C38.1232 148.311 38.0793 147.773 37.9914 147.333C37.9109 146.887 37.7388 146.528 37.4752 146.257C37.219 145.986 36.8456 145.851 36.3551 145.851C35.8572 145.851 35.4765 145.986 35.2129 146.257C34.9567 146.528 34.7846 146.887 34.6968 147.333C34.6162 147.773 34.576 148.311 34.576 148.948C34.576 149.607 34.6162 150.159 34.6968 150.606C34.7846 151.053 34.9567 151.411 35.2129 151.682C35.4765 151.953 35.8572 152.088 36.3551 152.088C36.8456 152.088 37.219 151.953 37.4752 151.682C37.7388 151.411 37.9109 151.053 37.9914 150.606C38.0793 150.159 38.1232 149.607 38.1232 148.948Z" fill="#92959E"/>
<path d="M427.095 347.118V354.718H426.096V349.051L423.57 354.718H422.867L420.33 349.04V354.718H419.331V347.118H420.407L423.219 353.4L426.03 347.118H427.095ZM428.417 351.687C428.417 351.072 428.541 350.534 428.79 350.072C429.039 349.604 429.38 349.241 429.812 348.985C430.251 348.729 430.738 348.601 431.272 348.601C431.799 348.601 432.257 348.714 432.645 348.941C433.033 349.168 433.322 349.454 433.513 349.798V348.7H434.523V354.718H433.513V353.598C433.315 353.949 433.018 354.242 432.623 354.476C432.235 354.703 431.781 354.817 431.261 354.817C430.727 354.817 430.244 354.685 429.812 354.421C429.38 354.158 429.039 353.788 428.79 353.312C428.541 352.836 428.417 352.294 428.417 351.687ZM433.513 351.698C433.513 351.244 433.421 350.848 433.238 350.512C433.055 350.175 432.806 349.919 432.491 349.743C432.184 349.56 431.843 349.468 431.47 349.468C431.096 349.468 430.756 349.556 430.449 349.732C430.141 349.908 429.896 350.164 429.713 350.501C429.53 350.837 429.438 351.233 429.438 351.687C429.438 352.148 429.53 352.551 429.713 352.895C429.896 353.232 430.141 353.491 430.449 353.674C430.756 353.85 431.096 353.938 431.47 353.938C431.843 353.938 432.184 353.85 432.491 353.674C432.806 353.491 433.055 353.232 433.238 352.895C433.421 352.551 433.513 352.152 433.513 351.698ZM437.211 349.677C437.387 349.333 437.636 349.066 437.958 348.875C438.287 348.685 438.686 348.59 439.155 348.59V349.622H438.891C437.771 349.622 437.211 350.23 437.211 351.445V354.718H436.212V348.7H437.211V349.677ZM439.935 351.698C439.935 351.075 440.06 350.534 440.309 350.072C440.557 349.604 440.902 349.241 441.341 348.985C441.787 348.729 442.296 348.601 442.867 348.601C443.607 348.601 444.215 348.78 444.69 349.139C445.174 349.498 445.492 349.995 445.646 350.632H444.57C444.467 350.266 444.266 349.977 443.966 349.765C443.673 349.553 443.307 349.446 442.867 349.446C442.296 349.446 441.835 349.644 441.484 350.039C441.132 350.427 440.956 350.98 440.956 351.698C440.956 352.423 441.132 352.983 441.484 353.378C441.835 353.773 442.296 353.971 442.867 353.971C443.307 353.971 443.673 353.868 443.966 353.663C444.258 353.458 444.46 353.166 444.57 352.785H445.646C445.485 353.4 445.163 353.894 444.679 354.268C444.196 354.634 443.592 354.817 442.867 354.817C442.296 354.817 441.787 354.688 441.341 354.432C440.902 354.176 440.557 353.814 440.309 353.345C440.06 352.876 439.935 352.327 439.935 351.698ZM449.966 348.59C450.42 348.59 450.83 348.689 451.196 348.886C451.562 349.077 451.848 349.366 452.053 349.754C452.265 350.142 452.372 350.614 452.372 351.171V354.718H451.383V351.313C451.383 350.713 451.233 350.255 450.933 349.941C450.633 349.618 450.223 349.457 449.703 349.457C449.176 349.457 448.755 349.622 448.44 349.952C448.132 350.281 447.979 350.761 447.979 351.39V354.718H446.979V346.591H447.979V349.556C448.176 349.249 448.447 349.011 448.791 348.842C449.143 348.674 449.534 348.59 449.966 348.59Z" fill="#92959E"/>
<path d="M244.423 347.063V347.876H241.095V350.457H243.797V351.269H241.095V354.718H240.096V347.063H244.423ZM251.121 351.478C251.121 351.668 251.11 351.87 251.088 352.082H246.278C246.315 352.675 246.516 353.14 246.882 353.477C247.255 353.806 247.706 353.971 248.233 353.971C248.665 353.971 249.024 353.872 249.309 353.674C249.602 353.469 249.807 353.199 249.924 352.862H251C250.839 353.44 250.517 353.912 250.034 354.278C249.551 354.637 248.95 354.817 248.233 354.817C247.662 354.817 247.149 354.688 246.695 354.432C246.249 354.176 245.897 353.814 245.641 353.345C245.385 352.869 245.257 352.32 245.257 351.698C245.257 351.075 245.381 350.53 245.63 350.061C245.879 349.593 246.227 349.234 246.673 348.985C247.127 348.729 247.647 348.601 248.233 348.601C248.804 348.601 249.309 348.725 249.748 348.974C250.188 349.223 250.524 349.567 250.759 350.006C251 350.438 251.121 350.929 251.121 351.478ZM250.089 351.269C250.089 350.889 250.005 350.563 249.836 350.292C249.668 350.014 249.437 349.805 249.144 349.666C248.859 349.52 248.54 349.446 248.189 349.446C247.684 349.446 247.252 349.607 246.893 349.93C246.542 350.252 246.34 350.698 246.289 351.269H250.089ZM253.44 349.82C253.645 349.461 253.945 349.168 254.34 348.941C254.735 348.714 255.186 348.601 255.691 348.601C256.233 348.601 256.72 348.729 257.152 348.985C257.584 349.241 257.924 349.604 258.173 350.072C258.422 350.534 258.546 351.072 258.546 351.687C258.546 352.294 258.422 352.836 258.173 353.312C257.924 353.788 257.58 354.158 257.141 354.421C256.709 354.685 256.225 354.817 255.691 354.817C255.171 354.817 254.714 354.703 254.318 354.476C253.93 354.249 253.637 353.96 253.44 353.609V354.718H252.44V346.591H253.44V349.82ZM257.525 351.687C257.525 351.233 257.433 350.837 257.25 350.501C257.067 350.164 256.818 349.908 256.504 349.732C256.196 349.556 255.856 349.468 255.482 349.468C255.116 349.468 254.776 349.56 254.461 349.743C254.153 349.919 253.905 350.179 253.714 350.523C253.531 350.859 253.44 351.251 253.44 351.698C253.44 352.152 253.531 352.551 253.714 352.895C253.905 353.232 254.153 353.491 254.461 353.674C254.776 353.85 255.116 353.938 255.482 353.938C255.856 353.938 256.196 353.85 256.504 353.674C256.818 353.491 257.067 353.232 257.25 352.895C257.433 352.551 257.525 352.148 257.525 351.687ZM260.861 349.677C261.037 349.333 261.286 349.066 261.608 348.875C261.937 348.685 262.336 348.59 262.805 348.59V349.622H262.541C261.421 349.622 260.861 350.23 260.861 351.445V354.718H259.862V348.7H260.861V349.677ZM269.296 348.7V354.718H268.296V353.828C268.106 354.136 267.839 354.377 267.495 354.553C267.158 354.721 266.785 354.806 266.375 354.806C265.906 354.806 265.485 354.71 265.112 354.52C264.738 354.322 264.442 354.03 264.222 353.642C264.01 353.253 263.904 352.781 263.904 352.225V348.7H264.892V352.093C264.892 352.686 265.042 353.144 265.342 353.466C265.642 353.781 266.052 353.938 266.572 353.938C267.107 353.938 267.528 353.773 267.835 353.444C268.143 353.114 268.296 352.635 268.296 352.005V348.7H269.296ZM270.61 351.687C270.61 351.072 270.734 350.534 270.983 350.072C271.232 349.604 271.573 349.241 272.005 348.985C272.444 348.729 272.931 348.601 273.465 348.601C273.992 348.601 274.45 348.714 274.838 348.941C275.226 349.168 275.515 349.454 275.706 349.798V348.7H276.716V354.718H275.706V353.598C275.508 353.949 275.211 354.242 274.816 354.476C274.428 354.703 273.974 354.817 273.454 354.817C272.92 354.817 272.437 354.685 272.005 354.421C271.573 354.158 271.232 353.788 270.983 353.312C270.734 352.836 270.61 352.294 270.61 351.687ZM275.706 351.698C275.706 351.244 275.614 350.848 275.431 350.512C275.248 350.175 274.999 349.919 274.684 349.743C274.377 349.56 274.036 349.468 273.663 349.468C273.289 349.468 272.949 349.556 272.642 349.732C272.334 349.908 272.089 350.164 271.906 350.501C271.723 350.837 271.631 351.233 271.631 351.687C271.631 352.148 271.723 352.551 271.906 352.895C272.089 353.232 272.334 353.491 272.642 353.674C272.949 353.85 273.289 353.938 273.663 353.938C274.036 353.938 274.377 353.85 274.684 353.674C274.999 353.491 275.248 353.232 275.431 352.895C275.614 352.551 275.706 352.152 275.706 351.698ZM279.404 349.677C279.58 349.333 279.829 349.066 280.151 348.875C280.48 348.685 280.879 348.59 281.348 348.59V349.622H281.084C279.964 349.622 279.404 350.23 279.404 351.445V354.718H278.405V348.7H279.404V349.677ZM287.685 348.7L284.061 357.551H283.029L284.215 354.652L281.788 348.7H282.897L284.786 353.576L286.653 348.7H287.685Z" fill="#92959E"/>
<path d="M599.355 353.016H596.016L595.401 354.718H594.347L597.115 347.107H598.268L601.024 354.718H599.97L599.355 353.016ZM599.069 352.203L597.686 348.337L596.302 352.203H599.069ZM603.23 349.809C603.427 349.465 603.72 349.179 604.108 348.952C604.504 348.718 604.961 348.601 605.481 348.601C606.016 348.601 606.499 348.729 606.931 348.985C607.37 349.241 607.714 349.604 607.963 350.072C608.212 350.534 608.336 351.072 608.336 351.687C608.336 352.294 608.212 352.836 607.963 353.312C607.714 353.788 607.37 354.158 606.931 354.421C606.499 354.685 606.016 354.817 605.481 354.817C604.969 354.817 604.515 354.703 604.119 354.476C603.731 354.242 603.435 353.953 603.23 353.609V357.573H602.23V348.7H603.23V349.809ZM607.315 351.687C607.315 351.233 607.224 350.837 607.041 350.501C606.857 350.164 606.609 349.908 606.294 349.732C605.986 349.556 605.646 349.468 605.272 349.468C604.906 349.468 604.566 349.56 604.251 349.743C603.944 349.919 603.695 350.179 603.504 350.523C603.321 350.859 603.23 351.251 603.23 351.698C603.23 352.152 603.321 352.551 603.504 352.895C603.695 353.232 603.944 353.491 604.251 353.674C604.566 353.85 604.906 353.938 605.272 353.938C605.646 353.938 605.986 353.85 606.294 353.674C606.609 353.491 606.857 353.232 607.041 352.895C607.224 352.551 607.315 352.148 607.315 351.687ZM610.651 349.677C610.827 349.333 611.076 349.066 611.398 348.875C611.727 348.685 612.126 348.59 612.595 348.59V349.622H612.331C611.211 349.622 610.651 350.23 610.651 351.445V354.718H609.652V348.7H610.651V349.677ZM614.265 347.722C614.074 347.722 613.913 347.656 613.782 347.525C613.65 347.393 613.584 347.232 613.584 347.041C613.584 346.851 613.65 346.69 613.782 346.558C613.913 346.426 614.074 346.36 614.265 346.36C614.448 346.36 614.602 346.426 614.726 346.558C614.858 346.69 614.924 346.851 614.924 347.041C614.924 347.232 614.858 347.393 614.726 347.525C614.602 347.656 614.448 347.722 614.265 347.722ZM614.748 348.7V354.718H613.749V348.7H614.748ZM617.451 346.591V354.718H616.451V346.591H617.451Z" fill="#92959E"/>
<path d="M774.847 347.118V354.718H773.847V349.051L771.322 354.718H770.619L768.082 349.04V354.718H767.082V347.118H768.159L770.97 353.4L773.782 347.118H774.847ZM776.168 351.687C776.168 351.072 776.293 350.534 776.542 350.072C776.791 349.604 777.131 349.241 777.563 348.985C778.002 348.729 778.489 348.601 779.024 348.601C779.551 348.601 780.008 348.714 780.396 348.941C780.784 349.168 781.074 349.454 781.264 349.798V348.7H782.274V354.718H781.264V353.598C781.066 353.949 780.77 354.242 780.374 354.476C779.986 354.703 779.532 354.817 779.013 354.817C778.478 354.817 777.995 354.685 777.563 354.421C777.131 354.158 776.791 353.788 776.542 353.312C776.293 352.836 776.168 352.294 776.168 351.687ZM781.264 351.698C781.264 351.244 781.172 350.848 780.989 350.512C780.806 350.175 780.557 349.919 780.243 349.743C779.935 349.56 779.595 349.468 779.221 349.468C778.848 349.468 778.507 349.556 778.2 349.732C777.892 349.908 777.647 350.164 777.464 350.501C777.281 350.837 777.19 351.233 777.19 351.687C777.19 352.148 777.281 352.551 777.464 352.895C777.647 353.232 777.892 353.491 778.2 353.674C778.507 353.85 778.848 353.938 779.221 353.938C779.595 353.938 779.935 353.85 780.243 353.674C780.557 353.491 780.806 353.232 780.989 352.895C781.172 352.551 781.264 352.152 781.264 351.698ZM789.147 348.7L785.523 357.551H784.49L785.676 354.652L783.249 348.7H784.358L786.247 353.576L788.114 348.7H789.147Z" fill="#92959E"/>
<path d="M930.702 347.118V354.718H929.703V349.051L927.177 354.718H926.474L923.937 349.04V354.718H922.938V347.118H924.014L926.825 353.4L929.637 347.118H930.702ZM932.023 351.687C932.023 351.072 932.148 350.534 932.397 350.072C932.646 349.604 932.986 349.241 933.418 348.985C933.857 348.729 934.344 348.601 934.879 348.601C935.406 348.601 935.863 348.714 936.251 348.941C936.639 349.168 936.929 349.454 937.119 349.798V348.7H938.129V354.718H937.119V353.598C936.921 353.949 936.625 354.242 936.229 354.476C935.841 354.703 935.388 354.817 934.868 354.817C934.333 354.817 933.85 354.685 933.418 354.421C932.986 354.158 932.646 353.788 932.397 353.312C932.148 352.836 932.023 352.294 932.023 351.687ZM937.119 351.698C937.119 351.244 937.027 350.848 936.844 350.512C936.661 350.175 936.412 349.919 936.098 349.743C935.79 349.56 935.45 349.468 935.076 349.468C934.703 349.468 934.363 349.556 934.055 349.732C933.748 349.908 933.502 350.164 933.319 350.501C933.136 350.837 933.045 351.233 933.045 351.687C933.045 352.148 933.136 352.551 933.319 352.895C933.502 353.232 933.748 353.491 934.055 353.674C934.363 353.85 934.703 353.938 935.076 353.938C935.45 353.938 935.79 353.85 936.098 353.674C936.412 353.491 936.661 353.232 936.844 352.895C937.027 352.551 937.119 352.152 937.119 351.698ZM945.002 348.7L941.378 357.551H940.345L941.531 354.652L939.104 348.7H940.214L942.102 353.576L943.969 348.7H945.002Z" fill="#92959E"/>
<g filter="url(#filter0_d)">
<rect x="564.541" y="100.884" width="136.52" height="75.4109" rx="10.9821" fill="white"/>
</g>
<defs>
<filter id="filter0_d" x="538.916" y="91.732" width="187.769" height="126.661" filterUnits="userSpaceOnUse" color-interpolation-filters="sRGB">
<feFlood flood-opacity="0" result="BackgroundImageFix"/>
<feColorMatrix in="SourceAlpha" type="matrix" values="0 0 0 0 0 0 0 0 0 0 0 0 0 0 0 0 0 0 127 0" result="hardAlpha"/>
<feMorphology radius="3.66069" operator="erode" in="SourceAlpha" result="effect1_dropShadow"/>
<feOffset dy="16.4731"/>
<feGaussianBlur stdDeviation="14.6428"/>
<feColorMatrix type="matrix" values="0 0 0 0 0.815686 0 0 0 0 0.823529 0 0 0 0 0.854902 0 0 0 0.15 0"/>
<feBlend mode="normal" in2="BackgroundImageFix" result="effect1_dropShadow"/>
<feBlend mode="normal" in="SourceGraphic" in2="effect1_dropShadow" result="shape"/>
</filter>
<linearGradient id="paint0_linear" x1="536.992" y1="25.6101" x2="536.992" y2="346.266" gradientUnits="userSpaceOnUse">
<stop stop-color="#EAFFF0"/>
<stop offset="1" stop-color="#F3FFF6"/>
</linearGradient>
</defs>
</svg>
