<svg width="236" height="284" viewBox="0 0 236 284" fill="none" xmlns="http://www.w3.org/2000/svg">
<rect x="0.56543" y="1.25293" width="234.885" height="281.704" rx="3.96766" fill="white" stroke="#E5E5E5" stroke-width="0.793532"/>
<path d="M20.9301 28.8936C20.3545 28.8936 19.834 28.7962 19.3684 28.6015C18.9114 28.3984 18.5178 28.1064 18.1877 27.7255C17.866 27.3361 17.6163 26.8579 17.4386 26.2908C17.2608 25.7152 17.1719 25.055 17.1719 24.3101C17.1719 23.5653 17.2608 22.9093 17.4386 22.3422C17.6163 21.7751 17.866 21.2968 18.1877 20.9075C18.5178 20.5181 18.9114 20.2261 19.3684 20.0314C19.834 19.8283 20.3545 19.7267 20.9301 19.7267C21.4972 19.7267 22.0135 19.8283 22.4791 20.0314C22.9446 20.2261 23.3382 20.5181 23.6599 20.9075C23.99 21.2968 24.2439 21.7751 24.4216 22.3422C24.5994 22.9093 24.6883 23.5653 24.6883 24.3101C24.6883 25.055 24.5994 25.7152 24.4216 26.2908C24.2439 26.8579 23.99 27.3361 23.6599 27.7255C23.3382 28.1064 22.9446 28.3984 22.4791 28.6015C22.0135 28.7962 21.4972 28.8936 20.9301 28.8936ZM20.9301 27.9413C21.311 27.9413 21.6623 27.8736 21.9839 27.7382C22.3056 27.6028 22.5807 27.4081 22.8092 27.1541C23.0462 26.9002 23.2282 26.5955 23.3551 26.24C23.4821 25.8845 23.5456 25.4867 23.5456 25.0465V23.5737C23.5456 23.1336 23.4821 22.7358 23.3551 22.3803C23.2282 22.0248 23.0462 21.72 22.8092 21.4661C22.5807 21.2122 22.3056 21.0175 21.9839 20.8821C21.6623 20.7466 21.311 20.6789 20.9301 20.6789C20.5492 20.6789 20.1979 20.7466 19.8763 20.8821C19.5547 21.0175 19.2753 21.2122 19.0383 21.4661C18.8098 21.72 18.632 22.0248 18.5051 22.3803C18.3781 22.7358 18.3146 23.1336 18.3146 23.5737V25.0465C18.3146 25.4867 18.3781 25.8845 18.5051 26.24C18.632 26.5955 18.8098 26.9002 19.0383 27.1541C19.2753 27.4081 19.5547 27.6028 19.8763 27.7382C20.1979 27.8736 20.5492 27.9413 20.9301 27.9413ZM28.3005 28.7412L26.0025 22.1898H27.0182L28.1609 25.4401L28.8719 27.6747H28.9354L29.6464 25.4401L30.8144 22.1898H31.7921L29.4813 28.7412H28.3005ZM35.8153 28.8936C35.3667 28.8936 34.9604 28.8132 34.5964 28.6523C34.2409 28.4915 33.932 28.263 33.6696 27.9667C33.4156 27.662 33.2167 27.3023 33.0728 26.8875C32.9374 26.4643 32.8697 25.9903 32.8697 25.4655C32.8697 24.9492 32.9374 24.4794 33.0728 24.0562C33.2167 23.633 33.4156 23.2732 33.6696 22.977C33.932 22.6723 34.2409 22.4395 34.5964 22.2787C34.9604 22.1179 35.3667 22.0375 35.8153 22.0375C36.2554 22.0375 36.649 22.1179 36.9961 22.2787C37.3431 22.4395 37.6393 22.6638 37.8848 22.9516C38.1303 23.2309 38.3165 23.5653 38.4435 23.9546C38.5789 24.344 38.6466 24.7714 38.6466 25.237V25.7194H33.9362V26.0242C33.9362 26.3035 33.9785 26.5659 34.0632 26.8113C34.1563 27.0483 34.2832 27.2557 34.4441 27.4335C34.6133 27.6112 34.8165 27.7509 35.0535 27.8525C35.299 27.954 35.574 28.0048 35.8788 28.0048C36.2935 28.0048 36.6532 27.9075 36.958 27.7128C37.2711 27.5181 37.5124 27.2388 37.6817 26.8748L38.4054 27.3954C38.1938 27.844 37.8636 28.208 37.415 28.4873C36.9664 28.7581 36.4332 28.8936 35.8153 28.8936ZM35.8153 22.8881C35.536 22.8881 35.282 22.9389 35.0535 23.0405C34.8249 23.1336 34.626 23.269 34.4567 23.4468C34.2959 23.6245 34.169 23.8361 34.0759 24.0816C33.9827 24.3186 33.9362 24.581 33.9362 24.8688V24.9577H37.5547V24.818C37.5547 24.234 37.3939 23.7684 37.0722 23.4214C36.759 23.0659 36.3401 22.8881 35.8153 22.8881ZM40.6695 28.7412V22.1898H41.6852V23.396H41.7487C41.8672 23.0828 42.0788 22.8035 42.3835 22.558C42.6883 22.3125 43.1072 22.1898 43.6405 22.1898H44.0341V23.2055H43.4373C42.8872 23.2055 42.4555 23.3113 42.1423 23.5229C41.8376 23.7261 41.6852 23.9843 41.6852 24.2974V28.7412H40.6695ZM50.3923 28.7412C50.0114 28.7412 49.7363 28.6396 49.567 28.4365C49.4062 28.2334 49.3046 27.9794 49.2623 27.6747H49.1988C49.0549 28.081 48.8179 28.3857 48.4878 28.5889C48.1577 28.792 47.7641 28.8936 47.307 28.8936C46.6129 28.8936 46.0712 28.7158 45.6818 28.3603C45.301 28.0048 45.1105 27.5223 45.1105 26.9129C45.1105 26.295 45.3348 25.821 45.7834 25.4909C46.2405 25.1608 46.9473 24.9957 47.9037 24.9957H49.1988V24.3482C49.1988 23.8827 49.0718 23.5272 48.8179 23.2817C48.564 23.0362 48.1746 22.9135 47.6498 22.9135C47.252 22.9135 46.9176 23.0024 46.6468 23.1801C46.3844 23.3579 46.1643 23.5949 45.9866 23.8911L45.3771 23.3198C45.5549 22.9643 45.8384 22.6638 46.2278 22.4184C46.6172 22.1644 47.1081 22.0375 47.7006 22.0375C48.4962 22.0375 49.1141 22.2321 49.5543 22.6215C49.9944 23.0109 50.2145 23.5526 50.2145 24.2466V27.8525H50.9636V28.7412H50.3923ZM47.4721 28.0302C47.726 28.0302 47.9588 28.0006 48.1704 27.9413C48.382 27.8821 48.564 27.7974 48.7163 27.6874C48.8687 27.5774 48.9872 27.4504 49.0718 27.3065C49.1565 27.1626 49.1988 27.006 49.1988 26.8367V25.7575H47.853C47.2689 25.7575 46.8415 25.8422 46.5706 26.0115C46.3082 26.1807 46.177 26.4262 46.177 26.7479V27.0145C46.177 27.3361 46.2913 27.5858 46.5198 27.7636C46.7568 27.9413 47.0742 28.0302 47.4721 28.0302ZM53.8416 28.7412C53.4861 28.7412 53.2153 28.6439 53.0291 28.4492C52.8513 28.246 52.7624 27.9921 52.7624 27.6874V19.3458H53.7782V27.8525H54.7431V28.7412H53.8416ZM57.5881 28.7412C57.2326 28.7412 56.9617 28.6439 56.7755 28.4492C56.5978 28.246 56.5089 27.9921 56.5089 27.6874V19.3458H57.5246V27.8525H58.4895V28.7412H57.5881ZM63.7686 28.7412V19.879H69.0504V20.8186H64.8351V23.7896H68.6822V24.7291H64.8351V28.7412H63.7686ZM73.2491 28.8936C72.8005 28.8936 72.3942 28.8132 72.0303 28.6523C71.6748 28.4915 71.3658 28.263 71.1034 27.9667C70.8495 27.662 70.6506 27.3023 70.5067 26.8875C70.3713 26.4643 70.3035 25.9903 70.3035 25.4655C70.3035 24.9492 70.3713 24.4794 70.5067 24.0562C70.6506 23.633 70.8495 23.2732 71.1034 22.977C71.3658 22.6723 71.6748 22.4395 72.0303 22.2787C72.3942 22.1179 72.8005 22.0375 73.2491 22.0375C73.6893 22.0375 74.0829 22.1179 74.4299 22.2787C74.7769 22.4395 75.0732 22.6638 75.3187 22.9516C75.5641 23.2309 75.7503 23.5653 75.8773 23.9546C76.0127 24.344 76.0805 24.7714 76.0805 25.237V25.7194H71.3701V26.0242C71.3701 26.3035 71.4124 26.5659 71.497 26.8113C71.5901 27.0483 71.7171 27.2557 71.8779 27.4335C72.0472 27.6112 72.2503 27.7509 72.4873 27.8525C72.7328 27.954 73.0079 28.0048 73.3126 28.0048C73.7274 28.0048 74.0871 27.9075 74.3918 27.7128C74.705 27.5181 74.9462 27.2388 75.1155 26.8748L75.8392 27.3954C75.6276 27.844 75.2975 28.208 74.8489 28.4873C74.4003 28.7581 73.867 28.8936 73.2491 28.8936ZM73.2491 22.8881C72.9698 22.8881 72.7159 22.9389 72.4873 23.0405C72.2588 23.1336 72.0599 23.269 71.8906 23.4468C71.7298 23.6245 71.6028 23.8361 71.5097 24.0816C71.4166 24.3186 71.3701 24.581 71.3701 24.8688V24.9577H74.9886V24.818C74.9886 24.234 74.8277 23.7684 74.5061 23.4214C74.1929 23.0659 73.7739 22.8881 73.2491 22.8881ZM80.5665 28.8936C80.1179 28.8936 79.7116 28.8132 79.3476 28.6523C78.9921 28.4915 78.6832 28.263 78.4208 27.9667C78.1668 27.662 77.9679 27.3023 77.824 26.8875C77.6886 26.4643 77.6209 25.9903 77.6209 25.4655C77.6209 24.9492 77.6886 24.4794 77.824 24.0562C77.9679 23.633 78.1668 23.2732 78.4208 22.977C78.6832 22.6723 78.9921 22.4395 79.3476 22.2787C79.7116 22.1179 80.1179 22.0375 80.5665 22.0375C81.0066 22.0375 81.4002 22.1179 81.7473 22.2787C82.0943 22.4395 82.3906 22.6638 82.636 22.9516C82.8815 23.2309 83.0677 23.5653 83.1947 23.9546C83.3301 24.344 83.3978 24.7714 83.3978 25.237V25.7194H78.6874V26.0242C78.6874 26.3035 78.7297 26.5659 78.8144 26.8113C78.9075 27.0483 79.0344 27.2557 79.1953 27.4335C79.3646 27.6112 79.5677 27.7509 79.8047 27.8525C80.0502 27.954 80.3253 28.0048 80.63 28.0048C81.0447 28.0048 81.4045 27.9075 81.7092 27.7128C82.0224 27.5181 82.2636 27.2388 82.4329 26.8748L83.1566 27.3954C82.945 27.844 82.6149 28.208 82.1662 28.4873C81.7176 28.7581 81.1844 28.8936 80.5665 28.8936ZM80.5665 22.8881C80.2872 22.8881 80.0332 22.9389 79.8047 23.0405C79.5762 23.1336 79.3772 23.269 79.208 23.4468C79.0471 23.6245 78.9202 23.8361 78.8271 24.0816C78.734 24.3186 78.6874 24.581 78.6874 24.8688V24.9577H82.3059V24.818C82.3059 24.234 82.1451 23.7684 81.8234 23.4214C81.5103 23.0659 81.0913 22.8881 80.5665 22.8881ZM89.6106 27.6747H89.5598C89.162 28.4873 88.5229 28.8936 87.6426 28.8936C87.2363 28.8936 86.8681 28.8132 86.538 28.6523C86.2079 28.4915 85.9243 28.263 85.6873 27.9667C85.4588 27.6705 85.2811 27.3107 85.1541 26.8875C85.0356 26.4643 84.9763 25.9903 84.9763 25.4655C84.9763 24.9407 85.0356 24.4667 85.1541 24.0435C85.2811 23.6203 85.4588 23.2606 85.6873 22.9643C85.9243 22.668 86.2079 22.4395 86.538 22.2787C86.8681 22.1179 87.2363 22.0375 87.6426 22.0375C88.0997 22.0375 88.489 22.139 88.8107 22.3422C89.1408 22.5369 89.3905 22.8416 89.5598 23.2563H89.6106V19.3458H90.6263V28.7412H89.6106V27.6747ZM87.9219 27.9794C88.1505 27.9794 88.3663 27.9498 88.5695 27.8905C88.7811 27.8313 88.963 27.7467 89.1154 27.6366C89.2678 27.5181 89.3863 27.3785 89.4709 27.2176C89.564 27.0483 89.6106 26.8579 89.6106 26.6463V24.2086C89.6106 24.0308 89.564 23.8658 89.4709 23.7134C89.3863 23.5526 89.2678 23.4171 89.1154 23.3071C88.963 23.1971 88.7811 23.1124 88.5695 23.0532C88.3663 22.9855 88.1505 22.9516 87.9219 22.9516C87.3464 22.9516 86.8935 23.1336 86.5634 23.4976C86.2333 23.8531 86.0682 24.3228 86.0682 24.9069V26.0242C86.0682 26.6082 86.2333 27.0822 86.5634 27.4462C86.8935 27.8017 87.3464 27.9794 87.9219 27.9794ZM93.1348 19.3458H94.1506V23.2563H94.2013C94.3706 22.8416 94.6161 22.5369 94.9377 22.3422C95.2678 22.139 95.6614 22.0375 96.1185 22.0375C96.5248 22.0375 96.893 22.1179 97.2231 22.2787C97.5532 22.4395 97.8325 22.668 98.0611 22.9643C98.2981 23.2606 98.4758 23.6203 98.5943 24.0435C98.7213 24.4667 98.7848 24.9407 98.7848 25.4655C98.7848 25.9903 98.7213 26.4643 98.5943 26.8875C98.4758 27.3107 98.2981 27.6705 98.0611 27.9667C97.8325 28.263 97.5532 28.4915 97.2231 28.6523C96.893 28.8132 96.5248 28.8936 96.1185 28.8936C95.2298 28.8936 94.5907 28.4873 94.2013 27.6747H94.1506V28.7412H93.1348V19.3458ZM95.8392 27.9794C96.4148 27.9794 96.8676 27.8017 97.1977 27.4462C97.5278 27.0822 97.6929 26.6082 97.6929 26.0242V24.9069C97.6929 24.3228 97.5278 23.8531 97.1977 23.4976C96.8676 23.1336 96.4148 22.9516 95.8392 22.9516C95.6107 22.9516 95.3906 22.9855 95.179 23.0532C94.9758 23.1124 94.7981 23.1971 94.6457 23.3071C94.4934 23.4171 94.3706 23.5526 94.2775 23.7134C94.1929 23.8658 94.1506 24.0308 94.1506 24.2086V26.6463C94.1506 26.8579 94.1929 27.0483 94.2775 27.2176C94.3706 27.3785 94.4934 27.5181 94.6457 27.6366C94.7981 27.7467 94.9758 27.8313 95.179 27.8905C95.3906 27.9498 95.6107 27.9794 95.8392 27.9794ZM105.61 28.7412C105.229 28.7412 104.954 28.6396 104.785 28.4365C104.624 28.2334 104.522 27.9794 104.48 27.6747H104.417C104.273 28.081 104.036 28.3857 103.706 28.5889C103.376 28.792 102.982 28.8936 102.525 28.8936C101.831 28.8936 101.289 28.7158 100.9 28.3603C100.519 28.0048 100.328 27.5223 100.328 26.9129C100.328 26.295 100.553 25.821 101.001 25.4909C101.458 25.1608 102.165 24.9957 103.122 24.9957H104.417V24.3482C104.417 23.8827 104.29 23.5272 104.036 23.2817C103.782 23.0362 103.392 22.9135 102.868 22.9135C102.47 22.9135 102.136 23.0024 101.865 23.1801C101.602 23.3579 101.382 23.5949 101.204 23.8911L100.595 23.3198C100.773 22.9643 101.056 22.6638 101.446 22.4184C101.835 22.1644 102.326 22.0375 102.918 22.0375C103.714 22.0375 104.332 22.2321 104.772 22.6215C105.212 23.0109 105.432 23.5526 105.432 24.2466V27.8525H106.181V28.7412H105.61ZM102.69 28.0302C102.944 28.0302 103.177 28.0006 103.388 27.9413C103.6 27.8821 103.782 27.7974 103.934 27.6874C104.087 27.5774 104.205 27.4504 104.29 27.3065C104.374 27.1626 104.417 27.006 104.417 26.8367V25.7575H103.071C102.487 25.7575 102.059 25.8422 101.788 26.0115C101.526 26.1807 101.395 26.4262 101.395 26.7479V27.0145C101.395 27.3361 101.509 27.5858 101.738 27.7636C101.975 27.9413 102.292 28.0302 102.69 28.0302ZM110.418 28.8936C109.961 28.8936 109.55 28.8132 109.186 28.6523C108.823 28.4915 108.514 28.263 108.26 27.9667C108.014 27.6705 107.824 27.3107 107.688 26.8875C107.561 26.4643 107.498 25.9903 107.498 25.4655C107.498 24.9407 107.561 24.4667 107.688 24.0435C107.824 23.6203 108.014 23.2606 108.26 22.9643C108.514 22.668 108.823 22.4395 109.186 22.2787C109.55 22.1179 109.961 22.0375 110.418 22.0375C111.07 22.0375 111.59 22.1813 111.98 22.4691C112.378 22.7485 112.674 23.1167 112.868 23.5737L112.018 24.0054C111.899 23.6668 111.705 23.4044 111.434 23.2182C111.163 23.032 110.824 22.9389 110.418 22.9389C110.113 22.9389 109.847 22.9897 109.618 23.0913C109.39 23.1844 109.199 23.3198 109.047 23.4976C108.894 23.6668 108.78 23.8742 108.704 24.1197C108.628 24.3567 108.59 24.6191 108.59 24.9069V26.0242C108.59 26.5997 108.742 27.0737 109.047 27.4462C109.36 27.8101 109.817 27.9921 110.418 27.9921C111.239 27.9921 111.832 27.6112 112.196 26.8494L112.932 27.3446C112.72 27.8186 112.403 28.1953 111.98 28.4746C111.565 28.7539 111.044 28.8936 110.418 28.8936ZM114.715 19.3458H115.731V25.3005H115.781L116.784 24.1832L118.638 22.1898H119.87L117.445 24.7799L120.111 28.7412H118.879L116.708 25.402L115.731 26.4051V28.7412H114.715V19.3458ZM123.603 28.8936C122.994 28.8936 122.482 28.7793 122.067 28.5508C121.661 28.3138 121.31 28.0006 121.013 27.6112L121.737 27.0272C121.991 27.3488 122.275 27.5985 122.588 27.7763C122.901 27.9456 123.265 28.0302 123.68 28.0302C124.111 28.0302 124.446 27.9371 124.683 27.7509C124.928 27.5647 125.051 27.3023 125.051 26.9637C125.051 26.7098 124.966 26.4939 124.797 26.3162C124.636 26.13 124.34 26.003 123.908 25.9353L123.388 25.8591C123.083 25.8168 122.804 25.7533 122.55 25.6687C122.296 25.5755 122.071 25.457 121.877 25.3132C121.691 25.1608 121.542 24.9746 121.432 24.7545C121.331 24.5344 121.28 24.272 121.28 23.9673C121.28 23.6457 121.339 23.3664 121.458 23.1294C121.576 22.8839 121.737 22.6807 121.94 22.5199C122.152 22.3591 122.402 22.2406 122.689 22.1644C122.977 22.0798 123.286 22.0375 123.616 22.0375C124.149 22.0375 124.594 22.1306 124.949 22.3168C125.313 22.503 125.631 22.7612 125.902 23.0913L125.229 23.7007C125.085 23.4976 124.873 23.3156 124.594 23.1547C124.314 22.9855 123.963 22.9008 123.54 22.9008C123.117 22.9008 122.795 22.9939 122.575 23.1801C122.363 23.3579 122.258 23.6034 122.258 23.9165C122.258 24.2382 122.363 24.471 122.575 24.6148C122.795 24.7587 123.108 24.8645 123.515 24.9323L124.022 25.0084C124.75 25.1185 125.267 25.3301 125.571 25.6433C125.876 25.948 126.029 26.35 126.029 26.8494C126.029 27.4843 125.813 27.9837 125.381 28.3476C124.949 28.7116 124.357 28.8936 123.603 28.8936ZM131.496 24.7799C131.496 24.1705 131.555 23.5822 131.674 23.0151C131.792 22.448 131.953 21.9232 132.156 21.4407C132.368 20.9498 132.613 20.5054 132.893 20.1076C133.172 19.7098 133.472 19.3712 133.794 19.0919H134.759C134.404 19.4135 134.082 19.7775 133.794 20.1838C133.515 20.5901 133.274 21.0217 133.07 21.4788C132.876 21.9359 132.723 22.4014 132.613 22.8754C132.503 23.3494 132.448 23.8065 132.448 24.2466V25.3385C132.448 25.7872 132.503 26.2485 132.613 26.7225C132.723 27.1965 132.88 27.662 133.083 28.1191C133.286 28.5762 133.527 29.0078 133.807 29.4141C134.095 29.8204 134.412 30.1759 134.759 30.4806H133.794C133.481 30.2182 133.185 29.8881 132.905 29.4903C132.626 29.0925 132.381 28.6481 132.169 28.1572C131.966 27.6662 131.801 27.1372 131.674 26.5701C131.555 25.9945 131.496 25.3978 131.496 24.7799ZM138.714 28.8936C137.994 28.8936 137.38 28.7581 136.873 28.4873C136.365 28.208 135.933 27.8271 135.577 27.3446L136.365 26.6844C136.678 27.0991 137.025 27.4165 137.406 27.6366C137.787 27.8482 138.235 27.954 138.752 27.954C139.386 27.954 139.869 27.8017 140.199 27.497C140.538 27.1922 140.707 26.7859 140.707 26.2781C140.707 25.8549 140.58 25.529 140.326 25.3005C140.072 25.0719 139.653 24.8899 139.069 24.7545L138.345 24.5895C137.533 24.4032 136.911 24.1239 136.479 23.7515C136.056 23.3706 135.844 22.8373 135.844 22.1517C135.844 21.7624 135.916 21.4153 136.06 21.1106C136.204 20.8059 136.403 20.552 136.657 20.3488C136.919 20.1457 137.228 19.9933 137.584 19.8917C137.947 19.7817 138.345 19.7267 138.777 19.7267C139.446 19.7267 140.017 19.8494 140.491 20.0949C140.973 20.3404 141.38 20.7001 141.71 21.1741L140.91 21.7581C140.665 21.4196 140.368 21.1529 140.021 20.9583C139.674 20.7636 139.243 20.6662 138.726 20.6662C138.159 20.6662 137.71 20.789 137.38 21.0344C137.059 21.2714 136.898 21.6312 136.898 22.1136C136.898 22.5369 137.033 22.8585 137.304 23.0786C137.584 23.2902 138.003 23.4595 138.561 23.5864L139.285 23.7515C140.157 23.9462 140.787 24.2424 141.177 24.6402C141.566 25.0381 141.761 25.5671 141.761 26.2273C141.761 26.6336 141.689 27.0018 141.545 27.3319C141.409 27.662 141.21 27.9413 140.948 28.1699C140.686 28.3984 140.364 28.5762 139.983 28.7031C139.611 28.8301 139.188 28.8936 138.714 28.8936ZM145.297 28.7412C144.942 28.7412 144.671 28.6439 144.485 28.4492C144.307 28.246 144.218 27.9837 144.218 27.662V23.0786H143.139V22.1898H143.748C143.968 22.1898 144.117 22.1475 144.193 22.0628C144.277 21.9697 144.32 21.8132 144.32 21.5931V20.3742H145.234V22.1898H146.669V23.0786H145.234V27.8525H146.567V28.7412H145.297ZM153.411 28.7412C153.031 28.7412 152.756 28.6396 152.586 28.4365C152.425 28.2334 152.324 27.9794 152.282 27.6747H152.218C152.074 28.081 151.837 28.3857 151.507 28.5889C151.177 28.792 150.783 28.8936 150.326 28.8936C149.632 28.8936 149.09 28.7158 148.701 28.3603C148.32 28.0048 148.13 27.5223 148.13 26.9129C148.13 26.295 148.354 25.821 148.803 25.4909C149.26 25.1608 149.967 24.9957 150.923 24.9957H152.218V24.3482C152.218 23.8827 152.091 23.5272 151.837 23.2817C151.583 23.0362 151.194 22.9135 150.669 22.9135C150.271 22.9135 149.937 23.0024 149.666 23.1801C149.404 23.3579 149.184 23.5949 149.006 23.8911L148.396 23.3198C148.574 22.9643 148.858 22.6638 149.247 22.4184C149.636 22.1644 150.127 22.0375 150.72 22.0375C151.515 22.0375 152.133 22.2321 152.574 22.6215C153.014 23.0109 153.234 23.5526 153.234 24.2466V27.8525H153.983V28.7412H153.411ZM150.491 28.0302C150.745 28.0302 150.978 28.0006 151.19 27.9413C151.401 27.8821 151.583 27.7974 151.736 27.6874C151.888 27.5774 152.006 27.4504 152.091 27.3065C152.176 27.1626 152.218 27.006 152.218 26.8367V25.7575H150.872C150.288 25.7575 149.861 25.8422 149.59 26.0115C149.327 26.1807 149.196 26.4262 149.196 26.7479V27.0145C149.196 27.3361 149.311 27.5858 149.539 27.7636C149.776 27.9413 150.093 28.0302 150.491 28.0302ZM155.782 28.7412V22.1898H156.797V23.396H156.861C156.979 23.0828 157.191 22.8035 157.496 22.558C157.8 22.3125 158.219 22.1898 158.753 22.1898H159.146V23.2055H158.55C157.999 23.2055 157.568 23.3113 157.254 23.5229C156.95 23.7261 156.797 23.9843 156.797 24.2974V28.7412H155.782ZM162.29 28.7412C161.934 28.7412 161.663 28.6439 161.477 28.4492C161.3 28.246 161.211 27.9837 161.211 27.662V23.0786H160.131V22.1898H160.741C160.961 22.1898 161.109 22.1475 161.185 22.0628C161.27 21.9697 161.312 21.8132 161.312 21.5931V20.3742H162.226V22.1898H163.661V23.0786H162.226V27.8525H163.559V28.7412H162.29ZM169.68 27.6747H169.63C169.562 27.8271 169.477 27.9794 169.376 28.1318C169.282 28.2757 169.164 28.4069 169.02 28.5254C168.876 28.6354 168.703 28.7243 168.5 28.792C168.296 28.8597 168.059 28.8936 167.789 28.8936C167.111 28.8936 166.574 28.6777 166.176 28.246C165.778 27.8059 165.579 27.188 165.579 26.3924V22.1898H166.595V26.2146C166.595 27.3911 167.094 27.9794 168.093 27.9794C168.296 27.9794 168.491 27.954 168.677 27.9032C168.872 27.8525 169.041 27.7763 169.185 27.6747C169.337 27.5731 169.456 27.4462 169.541 27.2938C169.634 27.133 169.68 26.9425 169.68 26.7225V22.1898H170.696V28.7412H169.68V27.6747ZM173.208 22.1898H174.224V23.2563H174.275C174.444 22.8416 174.689 22.5369 175.011 22.3422C175.341 22.139 175.735 22.0375 176.192 22.0375C176.598 22.0375 176.966 22.1179 177.296 22.2787C177.627 22.4395 177.906 22.668 178.134 22.9643C178.371 23.2606 178.549 23.6203 178.668 24.0435C178.795 24.4667 178.858 24.9407 178.858 25.4655C178.858 25.9903 178.795 26.4643 178.668 26.8875C178.549 27.3107 178.371 27.6705 178.134 27.9667C177.906 28.263 177.627 28.4915 177.296 28.6523C176.966 28.8132 176.598 28.8936 176.192 28.8936C175.303 28.8936 174.664 28.4873 174.275 27.6747H174.224V31.2805H173.208V22.1898ZM175.912 27.9794C176.488 27.9794 176.941 27.8017 177.271 27.4462C177.601 27.0822 177.766 26.6082 177.766 26.0242V24.9069C177.766 24.3228 177.601 23.8531 177.271 23.4976C176.941 23.1336 176.488 22.9516 175.912 22.9516C175.684 22.9516 175.464 22.9855 175.252 23.0532C175.049 23.1124 174.871 23.1971 174.719 23.3071C174.567 23.4171 174.444 23.5526 174.351 23.7134C174.266 23.8658 174.224 24.0308 174.224 24.2086V26.6463C174.224 26.8579 174.266 27.0483 174.351 27.2176C174.444 27.3785 174.567 27.5181 174.719 27.6366C174.871 27.7467 175.049 27.8313 175.252 27.8905C175.464 27.9498 175.684 27.9794 175.912 27.9794ZM182.89 28.8936C182.281 28.8936 181.769 28.7793 181.354 28.5508C180.948 28.3138 180.596 28.0006 180.3 27.6112L181.024 27.0272C181.278 27.3488 181.561 27.5985 181.874 27.7763C182.188 27.9456 182.552 28.0302 182.966 28.0302C183.398 28.0302 183.732 27.9371 183.969 27.7509C184.215 27.5647 184.338 27.3023 184.338 26.9637C184.338 26.7098 184.253 26.4939 184.084 26.3162C183.923 26.13 183.627 26.003 183.195 25.9353L182.674 25.8591C182.37 25.8168 182.09 25.7533 181.836 25.6687C181.582 25.5755 181.358 25.457 181.163 25.3132C180.977 25.1608 180.829 24.9746 180.719 24.7545C180.618 24.5344 180.567 24.272 180.567 23.9673C180.567 23.6457 180.626 23.3664 180.745 23.1294C180.863 22.8839 181.024 22.6807 181.227 22.5199C181.439 22.3591 181.688 22.2406 181.976 22.1644C182.264 22.0798 182.573 22.0375 182.903 22.0375C183.436 22.0375 183.881 22.1306 184.236 22.3168C184.6 22.503 184.917 22.7612 185.188 23.0913L184.515 23.7007C184.371 23.4976 184.16 23.3156 183.881 23.1547C183.601 22.9855 183.25 22.9008 182.827 22.9008C182.404 22.9008 182.082 22.9939 181.862 23.1801C181.65 23.3579 181.544 23.6034 181.544 23.9165C181.544 24.2382 181.65 24.471 181.862 24.6148C182.082 24.7587 182.395 24.8645 182.801 24.9323L183.309 25.0084C184.037 25.1185 184.553 25.3301 184.858 25.6433C185.163 25.948 185.315 26.35 185.315 26.8494C185.315 27.4843 185.099 27.9837 184.668 28.3476C184.236 28.7116 183.644 28.8936 182.89 28.8936ZM189.579 24.7799C189.579 25.3978 189.515 25.9945 189.388 26.5701C189.27 27.1372 189.105 27.6662 188.893 28.1572C188.69 28.6481 188.449 29.0925 188.169 29.4903C187.89 29.8881 187.594 30.2182 187.281 30.4806H186.316C186.663 30.1759 186.976 29.8204 187.255 29.4141C187.543 29.0078 187.789 28.5762 187.992 28.1191C188.195 27.662 188.351 27.1965 188.461 26.7225C188.572 26.2485 188.627 25.7872 188.627 25.3385V24.2466C188.627 23.8065 188.572 23.3494 188.461 22.8754C188.351 22.4014 188.195 21.9359 187.992 21.4788C187.797 21.0217 187.556 20.5901 187.268 20.1838C186.989 19.7775 186.671 19.4135 186.316 19.0919H187.281C187.602 19.3712 187.903 19.7098 188.182 20.1076C188.461 20.5054 188.703 20.9498 188.906 21.4407C189.117 21.9232 189.283 22.448 189.401 23.0151C189.52 23.5822 189.579 24.1705 189.579 24.7799Z" fill="#1F1F1F"/>
<g opacity="0.4">
<g opacity="0.8">
<rect x="19.0005" y="239.312" width="7.69555" height="7.69555" rx="3.84778" fill="#3498DB"/>
</g>
</g>
<path d="M19.6772 257.572V257.003H21.1778V252.678H21.124L19.7696 253.94L19.3925 253.532L20.8162 252.201H21.8243V257.003H23.2095V257.572H19.6772Z" fill="#212121"/>
<g opacity="0.8">
<rect x="61.6416" y="239.312" width="7.69555" height="7.69555" rx="3.84778" fill="#3498DB"/>
</g>
<path d="M65.7433 257.572H62.2188V256.91L63.9734 255.294C64.2247 255.064 64.4351 254.82 64.6044 254.563C64.7737 254.302 64.8583 254.04 64.8583 253.778V253.686C64.8583 253.388 64.7763 253.147 64.6121 252.963C64.4479 252.778 64.1991 252.686 63.8656 252.686C63.7014 252.686 63.5578 252.709 63.4347 252.755C63.3115 252.801 63.2038 252.865 63.1115 252.947C63.0242 253.029 62.9498 253.127 62.8883 253.24C62.8318 253.347 62.7857 253.465 62.7498 253.594L62.1726 253.37C62.2239 253.211 62.2932 253.058 62.3804 252.909C62.4727 252.755 62.5856 252.619 62.719 252.501C62.8575 252.383 63.0217 252.288 63.2115 252.216C63.4064 252.144 63.6348 252.108 63.8964 252.108C64.158 252.108 64.3915 252.147 64.5967 252.224C64.8019 252.301 64.9738 252.409 65.1123 252.547C65.2508 252.686 65.356 252.85 65.4278 253.04C65.5048 253.229 65.5432 253.44 65.5432 253.671C65.5432 253.881 65.5125 254.076 65.4509 254.255C65.3945 254.435 65.3149 254.607 65.2123 254.771C65.1097 254.93 64.984 255.087 64.8353 255.241C64.6916 255.394 64.5351 255.548 64.3658 255.702L62.9191 257.003H65.7433V257.572Z" fill="#212121"/>
<rect x="104.284" y="239.312" width="7.69555" height="7.69555" rx="3.84778" fill="#3498DB"/>
<path d="M106.291 254.48C106.656 254.48 106.927 254.398 107.107 254.233C107.292 254.064 107.384 253.849 107.384 253.587V253.533C107.384 253.251 107.294 253.041 107.115 252.902C106.94 252.758 106.709 252.687 106.422 252.687C106.145 252.687 105.919 252.748 105.745 252.871C105.57 252.989 105.427 253.151 105.314 253.356L104.837 252.987C104.903 252.879 104.983 252.774 105.075 252.671C105.173 252.563 105.286 252.469 105.414 252.386C105.542 252.304 105.691 252.238 105.86 252.186C106.03 252.135 106.222 252.109 106.437 252.109C106.663 252.109 106.876 252.14 107.076 252.202C107.276 252.258 107.448 252.345 107.592 252.463C107.741 252.576 107.856 252.717 107.938 252.887C108.025 253.056 108.069 253.248 108.069 253.464C108.069 253.638 108.041 253.795 107.984 253.933C107.933 254.072 107.861 254.192 107.769 254.295C107.676 254.398 107.566 254.485 107.438 254.557C107.315 254.628 107.181 254.682 107.038 254.718V254.749C107.181 254.78 107.32 254.831 107.453 254.903C107.592 254.97 107.712 255.059 107.815 255.172C107.923 255.28 108.007 255.413 108.069 255.572C108.136 255.726 108.169 255.903 108.169 256.103C108.169 256.334 108.125 256.547 108.038 256.742C107.951 256.932 107.828 257.096 107.669 257.235C107.51 257.368 107.317 257.473 107.092 257.55C106.866 257.627 106.617 257.666 106.345 257.666C106.114 257.666 105.909 257.64 105.729 257.589C105.55 257.537 105.391 257.468 105.252 257.381C105.114 257.294 104.991 257.196 104.883 257.088C104.78 256.981 104.688 256.868 104.606 256.75L105.091 256.38C105.157 256.488 105.229 256.586 105.306 256.673C105.388 256.76 105.478 256.834 105.576 256.896C105.673 256.958 105.783 257.006 105.906 257.042C106.03 257.073 106.173 257.088 106.337 257.088C106.717 257.088 107.004 257.004 107.199 256.834C107.394 256.66 107.492 256.414 107.492 256.096V256.034C107.492 255.716 107.394 255.472 107.199 255.303C107.004 255.129 106.717 255.041 106.337 255.041H105.706V254.48H106.291Z" fill="#212121"/>
<g opacity="0.16">
<rect x="146.924" y="239.312" width="7.69555" height="7.69555" rx="3.84778" fill="#3498DB"/>
</g>
<path d="M149.81 257.442V256.388H147.217V255.819L149.464 252.071H150.426V255.849H151.203V256.388H150.426V257.442H149.81ZM147.825 255.849H149.81V252.571H149.772L147.825 255.849Z" fill="#212121"/>
<rect width="7.69555" height="7.69555" transform="translate(189.565 239.312)" fill="white"/>
<g opacity="0.16">
<rect x="189.565" y="239.312" width="7.69555" height="7.69555" rx="3.84778" fill="#00641C"/>
</g>
<path d="M193.398 252.64H191.043L190.889 254.687H190.943C191.071 254.508 191.215 254.364 191.374 254.256C191.538 254.149 191.761 254.095 192.043 254.095C192.274 254.095 192.487 254.133 192.682 254.21C192.877 254.287 193.046 254.398 193.19 254.541C193.334 254.68 193.444 254.852 193.521 255.057C193.603 255.262 193.644 255.495 193.644 255.757C193.644 256.019 193.603 256.26 193.521 256.48C193.439 256.696 193.318 256.883 193.159 257.042C193.005 257.196 192.816 257.317 192.59 257.404C192.369 257.491 192.118 257.535 191.836 257.535C191.61 257.535 191.41 257.509 191.235 257.458C191.066 257.406 190.915 257.337 190.781 257.25C190.648 257.163 190.53 257.065 190.427 256.958C190.33 256.85 190.24 256.737 190.158 256.619L190.643 256.25C190.71 256.357 190.779 256.455 190.851 256.542C190.928 256.629 191.01 256.704 191.097 256.765C191.189 256.827 191.294 256.875 191.412 256.911C191.53 256.942 191.671 256.958 191.836 256.958C192.205 256.958 192.485 256.86 192.674 256.665C192.864 256.47 192.959 256.196 192.959 255.842V255.765C192.959 255.411 192.864 255.136 192.674 254.941C192.485 254.746 192.205 254.649 191.836 254.649C191.589 254.649 191.394 254.695 191.251 254.787C191.112 254.875 190.987 254.98 190.874 255.103L190.327 255.026L190.52 252.071H193.398V252.64Z" fill="black"/>
<rect x="33.8936" y="52.832" width="159.5" height="159.5" rx="79.7499" fill="#3498DB"/>
<g style="mix-blend-mode:overlay">
<path d="M113.643 132.582H193.393C193.393 154.543 184.309 174.425 169.877 188.816L113.643 132.582Z" fill="#2C5136"/>
</g>
<g opacity="0.4">
<path d="M113.643 132.581H193.393C193.393 110.62 184.309 90.7382 169.877 76.3467L113.643 132.581Z" fill="#3F5F75" fill-opacity="0.64"/>
</g>
<path d="M113.644 132.582V52.8321C135.604 52.8321 155.486 61.9162 169.877 76.3481L113.644 132.582Z" fill="#3F5F75" fill-opacity="0.64"/>
</svg>
