<svg width="237" height="284" viewBox="0 0 237 284" fill="none" xmlns="http://www.w3.org/2000/svg">
<rect x="1.11475" y="1.25293" width="234.885" height="281.704" rx="3.96766" fill="white" stroke="#E5E5E5" stroke-width="0.793532"/>
<path d="M21.4799 28.8936C20.9043 28.8936 20.3838 28.7962 19.9182 28.6015C19.4612 28.3984 19.0676 28.1064 18.7375 27.7255C18.4158 27.3361 18.1661 26.8579 17.9884 26.2908C17.8106 25.7152 17.7217 25.055 17.7217 24.3101C17.7217 23.5653 17.8106 22.9093 17.9884 22.3422C18.1661 21.7751 18.4158 21.2968 18.7375 20.9075C19.0676 20.5181 19.4612 20.2261 19.9182 20.0314C20.3838 19.8283 20.9043 19.7267 21.4799 19.7267C22.047 19.7267 22.5633 19.8283 23.0289 20.0314C23.4944 20.2261 23.888 20.5181 24.2097 20.9075C24.5398 21.2968 24.7937 21.7751 24.9715 22.3422C25.1492 22.9093 25.2381 23.5653 25.2381 24.3101C25.2381 25.055 25.1492 25.7152 24.9715 26.2908C24.7937 26.8579 24.5398 27.3361 24.2097 27.7255C23.888 28.1064 23.4944 28.3984 23.0289 28.6015C22.5633 28.7962 22.047 28.8936 21.4799 28.8936ZM21.4799 27.9413C21.8608 27.9413 22.2121 27.8736 22.5337 27.7382C22.8554 27.6028 23.1305 27.4081 23.359 27.1541C23.596 26.9002 23.778 26.5955 23.9049 26.24C24.0319 25.8845 24.0954 25.4867 24.0954 25.0465V23.5737C24.0954 23.1336 24.0319 22.7358 23.9049 22.3803C23.778 22.0248 23.596 21.72 23.359 21.4661C23.1305 21.2122 22.8554 21.0175 22.5337 20.8821C22.2121 20.7466 21.8608 20.6789 21.4799 20.6789C21.099 20.6789 20.7477 20.7466 20.4261 20.8821C20.1045 21.0175 19.8251 21.2122 19.5881 21.4661C19.3596 21.72 19.1818 22.0248 19.0549 22.3803C18.9279 22.7358 18.8644 23.1336 18.8644 23.5737V25.0465C18.8644 25.4867 18.9279 25.8845 19.0549 26.24C19.1818 26.5955 19.3596 26.9002 19.5881 27.1541C19.8251 27.4081 20.1045 27.6028 20.4261 27.7382C20.7477 27.8736 21.099 27.9413 21.4799 27.9413ZM28.8503 28.7412L26.5523 22.1898H27.568L28.7107 25.4401L29.4217 27.6747H29.4852L30.1962 25.4401L31.3642 22.1898H32.3419L30.0311 28.7412H28.8503ZM36.3651 28.8936C35.9165 28.8936 35.5102 28.8132 35.1462 28.6523C34.7907 28.4915 34.4818 28.263 34.2194 27.9667C33.9654 27.662 33.7665 27.3023 33.6226 26.8875C33.4872 26.4643 33.4195 25.9903 33.4195 25.4655C33.4195 24.9492 33.4872 24.4794 33.6226 24.0562C33.7665 23.633 33.9654 23.2732 34.2194 22.977C34.4818 22.6723 34.7907 22.4395 35.1462 22.2787C35.5102 22.1179 35.9165 22.0375 36.3651 22.0375C36.8052 22.0375 37.1988 22.1179 37.5459 22.2787C37.8929 22.4395 38.1891 22.6638 38.4346 22.9516C38.6801 23.2309 38.8663 23.5653 38.9933 23.9546C39.1287 24.344 39.1964 24.7714 39.1964 25.237V25.7194H34.486V26.0242C34.486 26.3035 34.5283 26.5659 34.613 26.8113C34.7061 27.0483 34.833 27.2557 34.9939 27.4335C35.1631 27.6112 35.3663 27.7509 35.6033 27.8525C35.8488 27.954 36.1238 28.0048 36.4286 28.0048C36.8433 28.0048 37.203 27.9075 37.5078 27.7128C37.8209 27.5181 38.0622 27.2388 38.2315 26.8748L38.9552 27.3954C38.7436 27.844 38.4134 28.208 37.9648 28.4873C37.5162 28.7581 36.983 28.8936 36.3651 28.8936ZM36.3651 22.8881C36.0858 22.8881 35.8318 22.9389 35.6033 23.0405C35.3748 23.1336 35.1758 23.269 35.0066 23.4468C34.8457 23.6245 34.7188 23.8361 34.6257 24.0816C34.5326 24.3186 34.486 24.581 34.486 24.8688V24.9577H38.1045V24.818C38.1045 24.234 37.9437 23.7684 37.622 23.4214C37.3089 23.0659 36.8899 22.8881 36.3651 22.8881ZM41.2193 28.7412V22.1898H42.235V23.396H42.2985C42.417 23.0828 42.6286 22.8035 42.9333 22.558C43.2381 22.3125 43.657 22.1898 44.1903 22.1898H44.5839V23.2055H43.9871C43.437 23.2055 43.0053 23.3113 42.6921 23.5229C42.3874 23.7261 42.235 23.9843 42.235 24.2974V28.7412H41.2193ZM50.9421 28.7412C50.5612 28.7412 50.2861 28.6396 50.1168 28.4365C49.956 28.2334 49.8544 27.9794 49.8121 27.6747H49.7486C49.6047 28.081 49.3677 28.3857 49.0376 28.5889C48.7075 28.792 48.3139 28.8936 47.8568 28.8936C47.1627 28.8936 46.621 28.7158 46.2317 28.3603C45.8508 28.0048 45.6603 27.5223 45.6603 26.9129C45.6603 26.295 45.8846 25.821 46.3332 25.4909C46.7903 25.1608 47.4971 24.9957 48.4535 24.9957H49.7486V24.3482C49.7486 23.8827 49.6216 23.5272 49.3677 23.2817C49.1138 23.0362 48.7244 22.9135 48.1996 22.9135C47.8018 22.9135 47.4674 23.0024 47.1966 23.1801C46.9342 23.3579 46.7141 23.5949 46.5364 23.8911L45.9269 23.3198C46.1047 22.9643 46.3882 22.6638 46.7776 22.4184C47.167 22.1644 47.6579 22.0375 48.2504 22.0375C49.046 22.0375 49.6639 22.2321 50.1041 22.6215C50.5442 23.0109 50.7643 23.5526 50.7643 24.2466V27.8525H51.5134V28.7412H50.9421ZM48.0219 28.0302C48.2758 28.0302 48.5086 28.0006 48.7202 27.9413C48.9318 27.8821 49.1138 27.7974 49.2661 27.6874C49.4185 27.5774 49.537 27.4504 49.6216 27.3065C49.7063 27.1626 49.7486 27.006 49.7486 26.8367V25.7575H48.4028C47.8187 25.7575 47.3913 25.8422 47.1204 26.0115C46.858 26.1807 46.7268 26.4262 46.7268 26.7479V27.0145C46.7268 27.3361 46.8411 27.5858 47.0696 27.7636C47.3066 27.9413 47.624 28.0302 48.0219 28.0302ZM54.3914 28.7412C54.0359 28.7412 53.7651 28.6439 53.5789 28.4492C53.4011 28.246 53.3122 27.9921 53.3122 27.6874V19.3458H54.328V27.8525H55.2929V28.7412H54.3914ZM58.1379 28.7412C57.7824 28.7412 57.5115 28.6439 57.3253 28.4492C57.1476 28.246 57.0587 27.9921 57.0587 27.6874V19.3458H58.0744V27.8525H59.0394V28.7412H58.1379ZM64.3184 28.7412V19.879H69.6002V20.8186H65.3849V23.7896H69.232V24.7291H65.3849V28.7412H64.3184ZM73.7989 28.8936C73.3503 28.8936 72.944 28.8132 72.5801 28.6523C72.2246 28.4915 71.9156 28.263 71.6532 27.9667C71.3993 27.662 71.2004 27.3023 71.0565 26.8875C70.9211 26.4643 70.8534 25.9903 70.8534 25.4655C70.8534 24.9492 70.9211 24.4794 71.0565 24.0562C71.2004 23.633 71.3993 23.2732 71.6532 22.977C71.9156 22.6723 72.2246 22.4395 72.5801 22.2787C72.944 22.1179 73.3503 22.0375 73.7989 22.0375C74.2391 22.0375 74.6327 22.1179 74.9797 22.2787C75.3268 22.4395 75.623 22.6638 75.8685 22.9516C76.1139 23.2309 76.3002 23.5653 76.4271 23.9546C76.5625 24.344 76.6303 24.7714 76.6303 25.237V25.7194H71.9199V26.0242C71.9199 26.3035 71.9622 26.5659 72.0468 26.8113C72.1399 27.0483 72.2669 27.2557 72.4277 27.4335C72.597 27.6112 72.8001 27.7509 73.0371 27.8525C73.2826 27.954 73.5577 28.0048 73.8624 28.0048C74.2772 28.0048 74.6369 27.9075 74.9416 27.7128C75.2548 27.5181 75.496 27.2388 75.6653 26.8748L76.389 27.3954C76.1774 27.844 75.8473 28.208 75.3987 28.4873C74.9501 28.7581 74.4168 28.8936 73.7989 28.8936ZM73.7989 22.8881C73.5196 22.8881 73.2657 22.9389 73.0371 23.0405C72.8086 23.1336 72.6097 23.269 72.4404 23.4468C72.2796 23.6245 72.1526 23.8361 72.0595 24.0816C71.9664 24.3186 71.9199 24.581 71.9199 24.8688V24.9577H75.5384V24.818C75.5384 24.234 75.3775 23.7684 75.0559 23.4214C74.7427 23.0659 74.3237 22.8881 73.7989 22.8881ZM81.1163 28.8936C80.6677 28.8936 80.2614 28.8132 79.8974 28.6523C79.5419 28.4915 79.233 28.263 78.9706 27.9667C78.7167 27.662 78.5177 27.3023 78.3738 26.8875C78.2384 26.4643 78.1707 25.9903 78.1707 25.4655C78.1707 24.9492 78.2384 24.4794 78.3738 24.0562C78.5177 23.633 78.7167 23.2732 78.9706 22.977C79.233 22.6723 79.5419 22.4395 79.8974 22.2787C80.2614 22.1179 80.6677 22.0375 81.1163 22.0375C81.5564 22.0375 81.95 22.1179 82.2971 22.2787C82.6441 22.4395 82.9404 22.6638 83.1858 22.9516C83.4313 23.2309 83.6175 23.5653 83.7445 23.9546C83.8799 24.344 83.9476 24.7714 83.9476 25.237V25.7194H79.2372V26.0242C79.2372 26.3035 79.2795 26.5659 79.3642 26.8113C79.4573 27.0483 79.5842 27.2557 79.7451 27.4335C79.9144 27.6112 80.1175 27.7509 80.3545 27.8525C80.6 27.954 80.8751 28.0048 81.1798 28.0048C81.5945 28.0048 81.9543 27.9075 82.259 27.7128C82.5722 27.5181 82.8134 27.2388 82.9827 26.8748L83.7064 27.3954C83.4948 27.844 83.1647 28.208 82.7161 28.4873C82.2674 28.7581 81.7342 28.8936 81.1163 28.8936ZM81.1163 22.8881C80.837 22.8881 80.583 22.9389 80.3545 23.0405C80.126 23.1336 79.9271 23.269 79.7578 23.4468C79.5969 23.6245 79.47 23.8361 79.3769 24.0816C79.2838 24.3186 79.2372 24.581 79.2372 24.8688V24.9577H82.8557V24.818C82.8557 24.234 82.6949 23.7684 82.3732 23.4214C82.0601 23.0659 81.6411 22.8881 81.1163 22.8881ZM90.1604 27.6747H90.1096C89.7118 28.4873 89.0727 28.8936 88.1924 28.8936C87.7861 28.8936 87.4179 28.8132 87.0878 28.6523C86.7577 28.4915 86.4742 28.263 86.2371 27.9667C86.0086 27.6705 85.8309 27.3107 85.7039 26.8875C85.5854 26.4643 85.5261 25.9903 85.5261 25.4655C85.5261 24.9407 85.5854 24.4667 85.7039 24.0435C85.8309 23.6203 86.0086 23.2606 86.2371 22.9643C86.4742 22.668 86.7577 22.4395 87.0878 22.2787C87.4179 22.1179 87.7861 22.0375 88.1924 22.0375C88.6495 22.0375 89.0388 22.139 89.3605 22.3422C89.6906 22.5369 89.9403 22.8416 90.1096 23.2563H90.1604V19.3458H91.1761V28.7412H90.1604V27.6747ZM88.4717 27.9794C88.7003 27.9794 88.9161 27.9498 89.1193 27.8905C89.3309 27.8313 89.5128 27.7467 89.6652 27.6366C89.8176 27.5181 89.9361 27.3785 90.0207 27.2176C90.1138 27.0483 90.1604 26.8579 90.1604 26.6463V24.2086C90.1604 24.0308 90.1138 23.8658 90.0207 23.7134C89.9361 23.5526 89.8176 23.4171 89.6652 23.3071C89.5128 23.1971 89.3309 23.1124 89.1193 23.0532C88.9161 22.9855 88.7003 22.9516 88.4717 22.9516C87.8962 22.9516 87.4433 23.1336 87.1132 23.4976C86.7831 23.8531 86.618 24.3228 86.618 24.9069V26.0242C86.618 26.6082 86.7831 27.0822 87.1132 27.4462C87.4433 27.8017 87.8962 27.9794 88.4717 27.9794ZM93.6846 19.3458H94.7004V23.2563H94.7511C94.9204 22.8416 95.1659 22.5369 95.4875 22.3422C95.8177 22.139 96.2112 22.0375 96.6683 22.0375C97.0746 22.0375 97.4428 22.1179 97.7729 22.2787C98.103 22.4395 98.3823 22.668 98.6109 22.9643C98.8479 23.2606 99.0256 23.6203 99.1441 24.0435C99.2711 24.4667 99.3346 24.9407 99.3346 25.4655C99.3346 25.9903 99.2711 26.4643 99.1441 26.8875C99.0256 27.3107 98.8479 27.6705 98.6109 27.9667C98.3823 28.263 98.103 28.4915 97.7729 28.6523C97.4428 28.8132 97.0746 28.8936 96.6683 28.8936C95.7796 28.8936 95.1405 28.4873 94.7511 27.6747H94.7004V28.7412H93.6846V19.3458ZM96.389 27.9794C96.9646 27.9794 97.4174 27.8017 97.7475 27.4462C98.0776 27.0822 98.2427 26.6082 98.2427 26.0242V24.9069C98.2427 24.3228 98.0776 23.8531 97.7475 23.4976C97.4174 23.1336 96.9646 22.9516 96.389 22.9516C96.1605 22.9516 95.9404 22.9855 95.7288 23.0532C95.5256 23.1124 95.3479 23.1971 95.1955 23.3071C95.0432 23.4171 94.9204 23.5526 94.8273 23.7134C94.7427 23.8658 94.7004 24.0308 94.7004 24.2086V26.6463C94.7004 26.8579 94.7427 27.0483 94.8273 27.2176C94.9204 27.3785 95.0432 27.5181 95.1955 27.6366C95.3479 27.7467 95.5256 27.8313 95.7288 27.8905C95.9404 27.9498 96.1605 27.9794 96.389 27.9794ZM106.16 28.7412C105.779 28.7412 105.504 28.6396 105.335 28.4365C105.174 28.2334 105.072 27.9794 105.03 27.6747H104.966C104.823 28.081 104.586 28.3857 104.255 28.5889C103.925 28.792 103.532 28.8936 103.075 28.8936C102.381 28.8936 101.839 28.7158 101.45 28.3603C101.069 28.0048 100.878 27.5223 100.878 26.9129C100.878 26.295 101.103 25.821 101.551 25.4909C102.008 25.1608 102.715 24.9957 103.671 24.9957H104.966V24.3482C104.966 23.8827 104.84 23.5272 104.586 23.2817C104.332 23.0362 103.942 22.9135 103.418 22.9135C103.02 22.9135 102.685 23.0024 102.414 23.1801C102.152 23.3579 101.932 23.5949 101.754 23.8911L101.145 23.3198C101.323 22.9643 101.606 22.6638 101.995 22.4184C102.385 22.1644 102.876 22.0375 103.468 22.0375C104.264 22.0375 104.882 22.2321 105.322 22.6215C105.762 23.0109 105.982 23.5526 105.982 24.2466V27.8525H106.731V28.7412H106.16ZM103.24 28.0302C103.494 28.0302 103.726 28.0006 103.938 27.9413C104.15 27.8821 104.332 27.7974 104.484 27.6874C104.636 27.5774 104.755 27.4504 104.84 27.3065C104.924 27.1626 104.966 27.006 104.966 26.8367V25.7575H103.621C103.037 25.7575 102.609 25.8422 102.338 26.0115C102.076 26.1807 101.945 26.4262 101.945 26.7479V27.0145C101.945 27.3361 102.059 27.5858 102.288 27.7636C102.525 27.9413 102.842 28.0302 103.24 28.0302ZM110.968 28.8936C110.511 28.8936 110.1 28.8132 109.736 28.6523C109.372 28.4915 109.063 28.263 108.809 27.9667C108.564 27.6705 108.374 27.3107 108.238 26.8875C108.111 26.4643 108.048 25.9903 108.048 25.4655C108.048 24.9407 108.111 24.4667 108.238 24.0435C108.374 23.6203 108.564 23.2606 108.809 22.9643C109.063 22.668 109.372 22.4395 109.736 22.2787C110.1 22.1179 110.511 22.0375 110.968 22.0375C111.62 22.0375 112.14 22.1813 112.53 22.4691C112.927 22.7485 113.224 23.1167 113.418 23.5737L112.568 24.0054C112.449 23.6668 112.254 23.4044 111.984 23.2182C111.713 23.032 111.374 22.9389 110.968 22.9389C110.663 22.9389 110.397 22.9897 110.168 23.0913C109.939 23.1844 109.749 23.3198 109.597 23.4976C109.444 23.6668 109.33 23.8742 109.254 24.1197C109.178 24.3567 109.14 24.6191 109.14 24.9069V26.0242C109.14 26.5997 109.292 27.0737 109.597 27.4462C109.91 27.8101 110.367 27.9921 110.968 27.9921C111.789 27.9921 112.381 27.6112 112.745 26.8494L113.482 27.3446C113.27 27.8186 112.953 28.1953 112.53 28.4746C112.115 28.7539 111.594 28.8936 110.968 28.8936ZM115.265 19.3458H116.28V25.3005H116.331L117.334 24.1832L119.188 22.1898H120.42L117.994 24.7799L120.661 28.7412H119.429L117.258 25.402L116.28 26.4051V28.7412H115.265V19.3458ZM124.153 28.8936C123.544 28.8936 123.032 28.7793 122.617 28.5508C122.211 28.3138 121.859 28.0006 121.563 27.6112L122.287 27.0272C122.541 27.3488 122.824 27.5985 123.138 27.7763C123.451 27.9456 123.815 28.0302 124.229 28.0302C124.661 28.0302 124.995 27.9371 125.232 27.7509C125.478 27.5647 125.601 27.3023 125.601 26.9637C125.601 26.7098 125.516 26.4939 125.347 26.3162C125.186 26.13 124.89 26.003 124.458 25.9353L123.937 25.8591C123.633 25.8168 123.353 25.7533 123.099 25.6687C122.846 25.5755 122.621 25.457 122.427 25.3132C122.24 25.1608 122.092 24.9746 121.982 24.7545C121.881 24.5344 121.83 24.272 121.83 23.9673C121.83 23.6457 121.889 23.3664 122.008 23.1294C122.126 22.8839 122.287 22.6807 122.49 22.5199C122.702 22.3591 122.951 22.2406 123.239 22.1644C123.527 22.0798 123.836 22.0375 124.166 22.0375C124.699 22.0375 125.144 22.1306 125.499 22.3168C125.863 22.503 126.18 22.7612 126.451 23.0913L125.778 23.7007C125.635 23.4976 125.423 23.3156 125.144 23.1547C124.864 22.9855 124.513 22.9008 124.09 22.9008C123.667 22.9008 123.345 22.9939 123.125 23.1801C122.913 23.3579 122.807 23.6034 122.807 23.9165C122.807 24.2382 122.913 24.471 123.125 24.6148C123.345 24.7587 123.658 24.8645 124.064 24.9323L124.572 25.0084C125.3 25.1185 125.817 25.3301 126.121 25.6433C126.426 25.948 126.578 26.35 126.578 26.8494C126.578 27.4843 126.362 27.9837 125.931 28.3476C125.499 28.7116 124.907 28.8936 124.153 28.8936ZM132.046 24.7799C132.046 24.1705 132.105 23.5822 132.224 23.0151C132.342 22.448 132.503 21.9232 132.706 21.4407C132.918 20.9498 133.163 20.5054 133.442 20.1076C133.722 19.7098 134.022 19.3712 134.344 19.0919H135.309C134.953 19.4135 134.632 19.7775 134.344 20.1838C134.065 20.5901 133.823 21.0217 133.62 21.4788C133.426 21.9359 133.273 22.4014 133.163 22.8754C133.053 23.3494 132.998 23.8065 132.998 24.2466V25.3385C132.998 25.7872 133.053 26.2485 133.163 26.7225C133.273 27.1965 133.43 27.662 133.633 28.1191C133.836 28.5762 134.077 29.0078 134.357 29.4141C134.644 29.8204 134.962 30.1759 135.309 30.4806H134.344C134.031 30.2182 133.734 29.8881 133.455 29.4903C133.176 29.0925 132.93 28.6481 132.719 28.1572C132.516 27.6662 132.351 27.1372 132.224 26.5701C132.105 25.9945 132.046 25.3978 132.046 24.7799ZM143.682 21.2757H143.618L142.869 22.7612L140.749 26.6209L138.628 22.7612L137.879 21.2757H137.816V28.7412H136.775V19.879H138.197L140.736 24.6529H140.8L143.352 19.879H144.723V28.7412H143.682V21.2757ZM149.789 28.8936C149.34 28.8936 148.934 28.8132 148.57 28.6523C148.215 28.4915 147.906 28.263 147.643 27.9667C147.389 27.662 147.19 27.3023 147.047 26.8875C146.911 26.4643 146.843 25.9903 146.843 25.4655C146.843 24.9492 146.911 24.4794 147.047 24.0562C147.19 23.633 147.389 23.2732 147.643 22.977C147.906 22.6723 148.215 22.4395 148.57 22.2787C148.934 22.1179 149.34 22.0375 149.789 22.0375C150.229 22.0375 150.623 22.1179 150.97 22.2787C151.317 22.4395 151.613 22.6638 151.859 22.9516C152.104 23.2309 152.29 23.5653 152.417 23.9546C152.553 24.344 152.62 24.7714 152.62 25.237V25.7194H147.91V26.0242C147.91 26.3035 147.952 26.5659 148.037 26.8113C148.13 27.0483 148.257 27.2557 148.418 27.4335C148.587 27.6112 148.79 27.7509 149.027 27.8525C149.273 27.954 149.548 28.0048 149.852 28.0048C150.267 28.0048 150.627 27.9075 150.932 27.7128C151.245 27.5181 151.486 27.2388 151.655 26.8748L152.379 27.3954C152.167 27.844 151.837 28.208 151.389 28.4873C150.94 28.7581 150.407 28.8936 149.789 28.8936ZM149.789 22.8881C149.51 22.8881 149.256 22.9389 149.027 23.0405C148.799 23.1336 148.6 23.269 148.43 23.4468C148.27 23.6245 148.143 23.8361 148.05 24.0816C147.956 24.3186 147.91 24.581 147.91 24.8688V24.9577H151.528V24.818C151.528 24.234 151.368 23.7684 151.046 23.4214C150.733 23.0659 150.314 22.8881 149.789 22.8881ZM154.643 28.7412V22.1898H155.659V23.2563H155.71C155.871 22.8839 156.095 22.5876 156.383 22.3676C156.679 22.1475 157.073 22.0375 157.563 22.0375C158.241 22.0375 158.774 22.2575 159.163 22.6977C159.561 23.1294 159.76 23.743 159.76 24.5387V28.7412H158.744V24.7164C158.744 23.5399 158.249 22.9516 157.259 22.9516C157.056 22.9516 156.857 22.977 156.662 23.0278C156.476 23.0786 156.306 23.1547 156.154 23.2563C156.002 23.3579 155.879 23.4891 155.786 23.6499C155.701 23.8023 155.659 23.9843 155.659 24.1959V28.7412H154.643ZM163.656 28.7412C163.3 28.7412 163.03 28.6439 162.843 28.4492C162.666 28.246 162.577 27.9837 162.577 27.662V23.0786H161.498V22.1898H162.107C162.327 22.1898 162.475 22.1475 162.551 22.0628C162.636 21.9697 162.678 21.8132 162.678 21.5931V20.3742H163.593V22.1898H165.027V23.0786H163.593V27.8525H164.926V28.7412H163.656ZM169.435 28.8936C168.995 28.8936 168.593 28.8132 168.229 28.6523C167.865 28.4915 167.552 28.263 167.289 27.9667C167.036 27.662 166.837 27.3023 166.693 26.8875C166.549 26.4643 166.477 25.9903 166.477 25.4655C166.477 24.9492 166.549 24.4794 166.693 24.0562C166.837 23.633 167.036 23.2732 167.289 22.977C167.552 22.6723 167.865 22.4395 168.229 22.2787C168.593 22.1179 168.995 22.0375 169.435 22.0375C169.875 22.0375 170.273 22.1179 170.629 22.2787C170.993 22.4395 171.306 22.6723 171.568 22.977C171.831 23.2732 172.034 23.633 172.178 24.0562C172.322 24.4794 172.393 24.9492 172.393 25.4655C172.393 25.9903 172.322 26.4643 172.178 26.8875C172.034 27.3023 171.831 27.662 171.568 27.9667C171.306 28.263 170.993 28.4915 170.629 28.6523C170.273 28.8132 169.875 28.8936 169.435 28.8936ZM169.435 27.9921C169.985 27.9921 170.434 27.8228 170.781 27.4843C171.128 27.1457 171.302 26.6294 171.302 25.9353V24.9957C171.302 24.3017 171.128 23.7853 170.781 23.4468C170.434 23.1082 169.985 22.9389 169.435 22.9389C168.885 22.9389 168.436 23.1082 168.089 23.4468C167.742 23.7853 167.569 24.3017 167.569 24.9957V25.9353C167.569 26.6294 167.742 27.1457 168.089 27.4843C168.436 27.8228 168.885 27.9921 169.435 27.9921ZM174.413 28.7412V22.1898H175.429V23.396H175.492C175.611 23.0828 175.822 22.8035 176.127 22.558C176.432 22.3125 176.851 22.1898 177.384 22.1898H177.778V23.2055H177.181C176.631 23.2055 176.199 23.3113 175.886 23.5229C175.581 23.7261 175.429 23.9843 175.429 24.2974V28.7412H174.413ZM181.392 28.8936C180.783 28.8936 180.271 28.7793 179.856 28.5508C179.45 28.3138 179.098 28.0006 178.802 27.6112L179.526 27.0272C179.78 27.3488 180.063 27.5985 180.376 27.7763C180.69 27.9456 181.054 28.0302 181.468 28.0302C181.9 28.0302 182.234 27.9371 182.471 27.7509C182.717 27.5647 182.84 27.3023 182.84 26.9637C182.84 26.7098 182.755 26.4939 182.586 26.3162C182.425 26.13 182.129 26.003 181.697 25.9353L181.176 25.8591C180.872 25.8168 180.592 25.7533 180.338 25.6687C180.084 25.5755 179.86 25.457 179.665 25.3132C179.479 25.1608 179.331 24.9746 179.221 24.7545C179.12 24.5344 179.069 24.272 179.069 23.9673C179.069 23.6457 179.128 23.3664 179.246 23.1294C179.365 22.8839 179.526 22.6807 179.729 22.5199C179.941 22.3591 180.19 22.2406 180.478 22.1644C180.766 22.0798 181.075 22.0375 181.405 22.0375C181.938 22.0375 182.383 22.1306 182.738 22.3168C183.102 22.503 183.419 22.7612 183.69 23.0913L183.017 23.7007C182.873 23.4976 182.662 23.3156 182.383 23.1547C182.103 22.9855 181.752 22.9008 181.329 22.9008C180.906 22.9008 180.584 22.9939 180.364 23.1801C180.152 23.3579 180.046 23.6034 180.046 23.9165C180.046 24.2382 180.152 24.471 180.364 24.6148C180.584 24.7587 180.897 24.8645 181.303 24.9323L181.811 25.0084C182.539 25.1185 183.055 25.3301 183.36 25.6433C183.665 25.948 183.817 26.35 183.817 26.8494C183.817 27.4843 183.601 27.9837 183.17 28.3476C182.738 28.7116 182.146 28.8936 181.392 28.8936ZM188.081 24.7799C188.081 25.3978 188.017 25.9945 187.89 26.5701C187.772 27.1372 187.607 27.6662 187.395 28.1572C187.192 28.6481 186.951 29.0925 186.671 29.4903C186.392 29.8881 186.096 30.2182 185.783 30.4806H184.818C185.165 30.1759 185.478 29.8204 185.757 29.4141C186.045 29.0078 186.291 28.5762 186.494 28.1191C186.697 27.662 186.853 27.1965 186.963 26.7225C187.074 26.2485 187.129 25.7872 187.129 25.3385V24.2466C187.129 23.8065 187.074 23.3494 186.963 22.8754C186.853 22.4014 186.697 21.9359 186.494 21.4788C186.299 21.0217 186.058 20.5901 185.77 20.1838C185.491 19.7775 185.173 19.4135 184.818 19.0919H185.783C186.104 19.3712 186.405 19.7098 186.684 20.1076C186.963 20.5054 187.205 20.9498 187.408 21.4407C187.619 21.9232 187.785 22.448 187.903 23.0151C188.022 23.5822 188.081 24.1705 188.081 24.7799Z" fill="#1F1F1F"/>
<g opacity="0.4">
<g opacity="0.8">
<rect x="20.0005" y="239.312" width="7.69555" height="7.69555" rx="3.84778" fill="#3498DB"/>
</g>
</g>
<path d="M20.6772 257.572V257.003H22.1778V252.678H22.124L20.7696 253.94L20.3925 253.532L21.8162 252.201H22.8243V257.003H24.2095V257.572H20.6772Z" fill="#212121"/>
<g opacity="0.8">
<rect x="62.6416" y="239.312" width="7.69555" height="7.69555" rx="3.84778" fill="#3498DB"/>
</g>
<path d="M66.7433 257.572H63.2188V256.91L64.9734 255.294C65.2247 255.064 65.4351 254.82 65.6044 254.563C65.7737 254.302 65.8583 254.04 65.8583 253.778V253.686C65.8583 253.388 65.7763 253.147 65.6121 252.963C65.4479 252.778 65.1991 252.686 64.8656 252.686C64.7014 252.686 64.5578 252.709 64.4347 252.755C64.3115 252.801 64.2038 252.865 64.1115 252.947C64.0242 253.029 63.9498 253.127 63.8883 253.24C63.8318 253.347 63.7857 253.465 63.7498 253.594L63.1726 253.37C63.2239 253.211 63.2932 253.058 63.3804 252.909C63.4727 252.755 63.5856 252.619 63.719 252.501C63.8575 252.383 64.0217 252.288 64.2115 252.216C64.4064 252.144 64.6348 252.108 64.8964 252.108C65.158 252.108 65.3915 252.147 65.5967 252.224C65.8019 252.301 65.9738 252.409 66.1123 252.547C66.2508 252.686 66.356 252.85 66.4278 253.04C66.5048 253.229 66.5432 253.44 66.5432 253.671C66.5432 253.881 66.5125 254.076 66.4509 254.255C66.3945 254.435 66.3149 254.607 66.2123 254.771C66.1097 254.93 65.984 255.087 65.8353 255.241C65.6916 255.394 65.5351 255.548 65.3658 255.702L63.9191 257.003H66.7433V257.572Z" fill="#212121"/>
<rect x="105.284" y="239.312" width="7.69555" height="7.69555" rx="3.84778" fill="#3498DB"/>
<path d="M107.291 254.48C107.656 254.48 107.927 254.398 108.107 254.233C108.292 254.064 108.384 253.849 108.384 253.587V253.533C108.384 253.251 108.294 253.041 108.115 252.902C107.94 252.758 107.709 252.687 107.422 252.687C107.145 252.687 106.919 252.748 106.745 252.871C106.57 252.989 106.427 253.151 106.314 253.356L105.837 252.987C105.903 252.879 105.983 252.774 106.075 252.671C106.173 252.563 106.286 252.469 106.414 252.386C106.542 252.304 106.691 252.238 106.86 252.186C107.03 252.135 107.222 252.109 107.437 252.109C107.663 252.109 107.876 252.14 108.076 252.202C108.276 252.258 108.448 252.345 108.592 252.463C108.741 252.576 108.856 252.717 108.938 252.887C109.025 253.056 109.069 253.248 109.069 253.464C109.069 253.638 109.041 253.795 108.984 253.933C108.933 254.072 108.861 254.192 108.769 254.295C108.676 254.398 108.566 254.485 108.438 254.557C108.315 254.628 108.181 254.682 108.038 254.718V254.749C108.181 254.78 108.32 254.831 108.453 254.903C108.592 254.97 108.712 255.059 108.815 255.172C108.923 255.28 109.007 255.413 109.069 255.572C109.136 255.726 109.169 255.903 109.169 256.103C109.169 256.334 109.125 256.547 109.038 256.742C108.951 256.932 108.828 257.096 108.669 257.235C108.51 257.368 108.317 257.473 108.092 257.55C107.866 257.627 107.617 257.666 107.345 257.666C107.114 257.666 106.909 257.64 106.729 257.589C106.55 257.537 106.391 257.468 106.252 257.381C106.114 257.294 105.991 257.196 105.883 257.088C105.78 256.981 105.688 256.868 105.606 256.75L106.091 256.38C106.157 256.488 106.229 256.586 106.306 256.673C106.388 256.76 106.478 256.834 106.576 256.896C106.673 256.958 106.783 257.006 106.906 257.042C107.03 257.073 107.173 257.088 107.337 257.088C107.717 257.088 108.004 257.004 108.199 256.834C108.394 256.66 108.492 256.414 108.492 256.096V256.034C108.492 255.716 108.394 255.472 108.199 255.303C108.004 255.129 107.717 255.041 107.337 255.041H106.706V254.48H107.291Z" fill="#212121"/>
<g opacity="0.16">
<rect x="147.924" y="239.312" width="7.69555" height="7.69555" rx="3.84778" fill="#3498DB"/>
</g>
<path d="M150.81 257.442V256.388H148.217V255.819L150.464 252.071H151.426V255.849H152.203V256.388H151.426V257.442H150.81ZM148.825 255.849H150.81V252.571H150.772L148.825 255.849Z" fill="#212121"/>
<rect width="7.69555" height="7.69555" transform="translate(190.565 239.312)" fill="white"/>
<g opacity="0.16">
<rect x="190.565" y="239.312" width="7.69555" height="7.69555" rx="3.84778" fill="#00641C"/>
</g>
<path d="M194.398 252.64H192.043L191.889 254.687H191.943C192.071 254.508 192.215 254.364 192.374 254.256C192.538 254.149 192.761 254.095 193.043 254.095C193.274 254.095 193.487 254.133 193.682 254.21C193.877 254.287 194.046 254.398 194.19 254.541C194.334 254.68 194.444 254.852 194.521 255.057C194.603 255.262 194.644 255.495 194.644 255.757C194.644 256.019 194.603 256.26 194.521 256.48C194.439 256.696 194.318 256.883 194.159 257.042C194.005 257.196 193.816 257.317 193.59 257.404C193.369 257.491 193.118 257.535 192.836 257.535C192.61 257.535 192.41 257.509 192.235 257.458C192.066 257.406 191.915 257.337 191.781 257.25C191.648 257.163 191.53 257.065 191.427 256.958C191.33 256.85 191.24 256.737 191.158 256.619L191.643 256.25C191.71 256.357 191.779 256.455 191.851 256.542C191.928 256.629 192.01 256.704 192.097 256.765C192.189 256.827 192.294 256.875 192.412 256.911C192.53 256.942 192.671 256.958 192.836 256.958C193.205 256.958 193.485 256.86 193.674 256.665C193.864 256.47 193.959 256.196 193.959 255.842V255.765C193.959 255.411 193.864 255.136 193.674 254.941C193.485 254.746 193.205 254.649 192.836 254.649C192.589 254.649 192.394 254.695 192.251 254.787C192.112 254.875 191.987 254.98 191.874 255.103L191.327 255.026L191.52 252.071H194.398V252.64Z" fill="black"/>
<rect x="34.4429" y="52.832" width="159.5" height="159.5" rx="79.7499" fill="#3498DB"/>
<g style="mix-blend-mode:overlay">
<path d="M114.192 132.582H193.942C193.942 154.543 184.858 174.425 170.426 188.816L114.192 132.582Z" fill="#2C5136"/>
</g>
<g opacity="0.4">
<path d="M114.192 132.581H193.942C193.942 110.62 184.858 90.7382 170.426 76.3467L114.192 132.581Z" fill="#3F5F75" fill-opacity="0.64"/>
</g>
<path d="M114.193 132.582V52.8321C136.154 52.8321 156.035 61.9162 170.427 76.3481L114.193 132.582Z" fill="#3F5F75" fill-opacity="0.64"/>
</svg>
