<svg width="661" height="377" viewBox="0 0 661 377" fill="none" xmlns="http://www.w3.org/2000/svg">
<rect x="0.782444" y="1.551" width="659.087" height="374.57" rx="5.87305" fill="white" stroke="#E5E5E5" stroke-width="1.30512"/>
<g opacity="0.16">
<rect x="92.7935" y="169.26" width="54.9618" height="168.614" fill="#0099E6"/>
</g>
<g opacity="0.16">
<rect x="154.134" y="177.09" width="54.9618" height="160.372" fill="#0099E6"/>
</g>
<g opacity="0.16">
<rect x="214.17" y="148.377" width="54.9618" height="189.586" fill="#0099E6"/>
</g>
<g opacity="0.16">
<rect x="276.816" y="134.021" width="54.9618" height="203.064" fill="#0099E6"/>
</g>
<g opacity="0.16">
<rect x="336.852" y="201.887" width="54.9618" height="135.862" fill="#0099E6"/>
</g>
<g opacity="0.16">
<rect x="396.887" y="169.26" width="54.9618" height="168.158" fill="#0099E6"/>
</g>
<g opacity="0.16">
<rect x="459.533" y="153.598" width="54.9618" height="183.576" fill="#0099E6"/>
</g>
<g opacity="0.16">
<rect x="519.568" y="231.904" width="54.9618" height="105.507" fill="#0099E6"/>
</g>
<g opacity="0.16">
<rect x="579.604" y="128.799" width="54.9618" height="207.768" fill="#0099E6"/>
</g>
<path d="M114.664 327.514H107.55V326.522L111.308 322.346C111.865 321.715 112.248 321.203 112.457 320.81C112.67 320.412 112.777 320.002 112.777 319.58C112.777 319.013 112.606 318.548 112.263 318.185C111.92 317.822 111.462 317.641 110.891 317.641C110.205 317.641 109.67 317.837 109.287 318.23C108.91 318.618 108.721 319.159 108.721 319.855H107.341C107.341 318.856 107.662 318.048 108.303 317.432C108.949 316.816 109.812 316.507 110.891 316.507C111.9 316.507 112.698 316.773 113.284 317.305C113.871 317.832 114.164 318.536 114.164 319.415C114.164 320.484 113.483 321.757 112.121 323.233L109.213 326.388H114.664V327.514ZM117.268 322.07L117.82 316.656H123.383V317.932H118.991L118.663 320.892C119.195 320.579 119.799 320.422 120.475 320.422C121.464 320.422 122.249 320.75 122.831 321.406C123.413 322.058 123.704 322.94 123.704 324.054C123.704 325.172 123.4 326.055 122.794 326.701C122.192 327.342 121.35 327.663 120.266 327.663C119.306 327.663 118.523 327.397 117.917 326.865C117.311 326.333 116.965 325.597 116.88 324.658H118.185C118.27 325.279 118.491 325.749 118.849 326.067C119.207 326.38 119.679 326.537 120.266 326.537C120.907 326.537 121.409 326.318 121.772 325.881C122.14 325.443 122.324 324.839 122.324 324.069C122.324 323.343 122.125 322.761 121.727 322.324C121.335 321.881 120.81 321.66 120.154 321.66C119.553 321.66 119.08 321.792 118.737 322.055L118.372 322.353L117.268 322.07ZM131.133 316.649V317.82H130.879C129.805 317.84 128.95 318.158 128.314 318.774C127.678 319.391 127.31 320.258 127.21 321.377C127.782 320.72 128.562 320.392 129.552 320.392C130.496 320.392 131.249 320.725 131.811 321.392C132.378 322.058 132.661 322.918 132.661 323.972C132.661 325.09 132.356 325.985 131.744 326.656C131.138 327.327 130.322 327.663 129.298 327.663C128.259 327.663 127.417 327.265 126.77 326.47C126.124 325.669 125.801 324.64 125.801 323.383V322.853C125.801 320.855 126.226 319.328 127.076 318.275C127.931 317.216 129.201 316.674 130.887 316.649H131.133ZM129.321 321.541C128.848 321.541 128.413 321.682 128.016 321.966C127.618 322.249 127.342 322.605 127.188 323.032V323.539C127.188 324.434 127.389 325.155 127.792 325.702C128.195 326.248 128.697 326.522 129.298 326.522C129.92 326.522 130.407 326.293 130.76 325.836C131.118 325.379 131.297 324.779 131.297 324.039C131.297 323.293 131.115 322.692 130.752 322.234C130.394 321.772 129.917 321.541 129.321 321.541Z" fill="#263238"/>
<path d="M173.425 328.004H172.038V318.81L169.256 319.831V318.578L173.208 317.094H173.425V328.004ZM183.799 324.357H185.305V325.483H183.799V328.004H182.412V325.483H177.468V324.671L182.33 317.147H183.799V324.357ZM179.034 324.357H182.412V319.033L182.248 319.332L179.034 324.357ZM192.884 324.357H194.39V325.483H192.884V328.004H191.497V325.483H186.553V324.671L191.415 317.147H192.884V324.357ZM188.119 324.357H191.497V319.033L191.333 319.332L188.119 324.357Z" fill="#263238"/>
<path d="M233.46 326.986H232.073V317.792L229.292 318.814V317.561L233.244 316.077H233.46V326.986ZM243.425 316.122V317.292H243.171C242.097 317.312 241.242 317.63 240.606 318.247C239.97 318.863 239.602 319.731 239.502 320.849C240.074 320.193 240.854 319.865 241.844 319.865C242.788 319.865 243.541 320.198 244.103 320.864C244.67 321.53 244.953 322.39 244.953 323.444C244.953 324.563 244.648 325.458 244.036 326.129C243.43 326.8 242.614 327.135 241.59 327.135C240.551 327.135 239.709 326.738 239.062 325.942C238.416 325.142 238.093 324.113 238.093 322.855V322.326C238.093 320.327 238.518 318.801 239.368 317.747C240.223 316.688 241.493 316.146 243.179 316.122H243.425ZM241.613 321.013C241.14 321.013 240.705 321.155 240.308 321.438C239.91 321.722 239.634 322.077 239.48 322.505V323.012C239.48 323.907 239.681 324.627 240.084 325.174C240.487 325.721 240.989 325.995 241.59 325.995C242.212 325.995 242.699 325.766 243.052 325.309C243.41 324.851 243.589 324.252 243.589 323.511C243.589 322.766 243.407 322.164 243.044 321.707C242.686 321.245 242.209 321.013 241.613 321.013ZM253.68 318.963C253.68 319.505 253.536 319.987 253.247 320.409C252.964 320.832 252.579 321.162 252.092 321.401C252.658 321.645 253.106 322 253.434 322.467C253.767 322.935 253.933 323.464 253.933 324.056C253.933 324.995 253.615 325.744 252.979 326.3C252.348 326.857 251.515 327.135 250.481 327.135C249.437 327.135 248.599 326.857 247.968 326.3C247.341 325.739 247.028 324.99 247.028 324.056C247.028 323.469 247.187 322.94 247.506 322.467C247.829 321.995 248.274 321.637 248.84 321.394C248.358 321.155 247.978 320.824 247.699 320.402C247.421 319.979 247.282 319.5 247.282 318.963C247.282 318.048 247.575 317.322 248.162 316.785C248.748 316.248 249.521 315.98 250.481 315.98C251.435 315.98 252.206 316.248 252.792 316.785C253.384 317.322 253.68 318.048 253.68 318.963ZM252.554 324.026C252.554 323.419 252.36 322.925 251.972 322.542C251.589 322.159 251.087 321.968 250.466 321.968C249.844 321.968 249.345 322.157 248.967 322.535C248.594 322.912 248.408 323.409 248.408 324.026C248.408 324.642 248.589 325.127 248.952 325.48C249.32 325.833 249.83 326.009 250.481 326.009C251.127 326.009 251.634 325.833 252.002 325.48C252.37 325.122 252.554 324.637 252.554 324.026ZM250.481 317.113C249.939 317.113 249.499 317.282 249.161 317.62C248.828 317.954 248.661 318.408 248.661 318.985C248.661 319.537 248.825 319.984 249.153 320.327C249.487 320.665 249.929 320.834 250.481 320.834C251.033 320.834 251.473 320.665 251.801 320.327C252.134 319.984 252.3 319.537 252.3 318.985C252.3 318.433 252.129 317.983 251.786 317.635C251.443 317.287 251.008 317.113 250.481 317.113Z" fill="#263238"/>
<path d="M298.686 329.24H291.572V328.248L295.331 324.073C295.887 323.441 296.27 322.929 296.479 322.536C296.693 322.139 296.8 321.729 296.8 321.306C296.8 320.739 296.628 320.275 296.285 319.912C295.942 319.549 295.485 319.367 294.913 319.367C294.227 319.367 293.693 319.564 293.31 319.956C292.932 320.344 292.743 320.886 292.743 321.582H291.364C291.364 320.583 291.684 319.775 292.326 319.159C292.972 318.542 293.834 318.234 294.913 318.234C295.922 318.234 296.72 318.5 297.307 319.032C297.893 319.559 298.187 320.262 298.187 321.142C298.187 322.211 297.506 323.484 296.143 324.96L293.235 328.114H298.686V329.24ZM306.481 325.594H307.987V326.72H306.481V329.24H305.094V326.72H300.15V325.907L305.012 318.383H306.481V325.594ZM301.716 325.594H305.094V320.27L304.93 320.568L301.716 325.594ZM316.326 321.217C316.326 321.758 316.182 322.241 315.893 322.663C315.61 323.086 315.225 323.416 314.737 323.655C315.304 323.899 315.752 324.254 316.08 324.721C316.413 325.189 316.579 325.718 316.579 326.31C316.579 327.249 316.261 327.997 315.625 328.554C314.994 329.111 314.161 329.389 313.127 329.389C312.083 329.389 311.245 329.111 310.614 328.554C309.987 327.992 309.674 327.244 309.674 326.31C309.674 325.723 309.833 325.194 310.152 324.721C310.475 324.249 310.92 323.891 311.486 323.648C311.004 323.409 310.624 323.078 310.345 322.656C310.067 322.233 309.928 321.754 309.928 321.217C309.928 320.302 310.221 319.576 310.808 319.039C311.394 318.502 312.167 318.234 313.127 318.234C314.081 318.234 314.852 318.502 315.438 319.039C316.03 319.576 316.326 320.302 316.326 321.217ZM315.2 326.28C315.2 325.673 315.006 325.179 314.618 324.796C314.235 324.413 313.733 324.222 313.112 324.222C312.49 324.222 311.991 324.411 311.613 324.788C311.24 325.166 311.054 325.663 311.054 326.28C311.054 326.896 311.235 327.381 311.598 327.734C311.966 328.087 312.476 328.263 313.127 328.263C313.773 328.263 314.28 328.087 314.648 327.734C315.016 327.376 315.2 326.891 315.2 326.28ZM313.127 319.367C312.585 319.367 312.145 319.536 311.807 319.874C311.474 320.207 311.307 320.662 311.307 321.239C311.307 321.791 311.471 322.238 311.799 322.581C312.133 322.919 312.575 323.088 313.127 323.088C313.679 323.088 314.119 322.919 314.447 322.581C314.78 322.238 314.946 321.791 314.946 321.239C314.946 320.687 314.775 320.237 314.432 319.889C314.089 319.541 313.654 319.367 313.127 319.367Z" fill="#263238"/>
<path d="M361.437 324.335C361.149 324.678 360.803 324.954 360.401 325.163C360.003 325.372 359.566 325.476 359.088 325.476C358.462 325.476 357.915 325.322 357.448 325.014C356.985 324.705 356.628 324.273 356.374 323.716C356.12 323.154 355.994 322.535 355.994 321.859C355.994 321.134 356.13 320.48 356.404 319.898C356.682 319.317 357.075 318.872 357.582 318.563C358.089 318.255 358.681 318.101 359.357 318.101C360.431 318.101 361.276 318.504 361.892 319.309C362.513 320.109 362.824 321.203 362.824 322.59V322.993C362.824 325.106 362.407 326.649 361.571 327.623C360.736 328.593 359.476 329.09 357.791 329.115H357.522V327.952H357.813C358.952 327.932 359.827 327.636 360.438 327.064C361.049 326.488 361.383 325.578 361.437 324.335ZM359.312 324.335C359.774 324.335 360.199 324.193 360.587 323.91C360.98 323.627 361.266 323.276 361.445 322.859V322.307C361.445 321.402 361.248 320.666 360.856 320.099C360.463 319.533 359.966 319.249 359.364 319.249C358.758 319.249 358.271 319.483 357.903 319.95C357.535 320.413 357.351 321.024 357.351 321.785C357.351 322.525 357.527 323.137 357.88 323.619C358.238 324.096 358.715 324.335 359.312 324.335ZM370.648 318.243V319.413H370.395C369.321 319.433 368.466 319.751 367.83 320.368C367.193 320.984 366.826 321.852 366.726 322.97C367.298 322.314 368.078 321.986 369.068 321.986C370.012 321.986 370.765 322.319 371.327 322.985C371.894 323.651 372.177 324.511 372.177 325.565C372.177 326.684 371.871 327.579 371.26 328.25C370.653 328.921 369.838 329.257 368.814 329.257C367.775 329.257 366.932 328.859 366.286 328.063C365.64 327.263 365.317 326.234 365.317 324.976V324.447C365.317 322.448 365.742 320.922 366.592 319.868C367.447 318.809 368.717 318.268 370.402 318.243H370.648ZM368.836 323.134C368.364 323.134 367.929 323.276 367.531 323.559C367.134 323.843 366.858 324.198 366.704 324.626V325.133C366.704 326.028 366.905 326.749 367.308 327.295C367.71 327.842 368.213 328.116 368.814 328.116C369.435 328.116 369.923 327.887 370.276 327.43C370.634 326.972 370.813 326.373 370.813 325.633C370.813 324.887 370.631 324.285 370.268 323.828C369.91 323.366 369.433 323.134 368.836 323.134Z" fill="#263238"/>
<path d="M416.177 329.479H414.79V320.284L412.009 321.306V320.053L415.961 318.569H416.177V329.479ZM426.552 325.832H428.058V326.958H426.552V329.479H425.165V326.958H420.221V326.145L425.083 318.621H426.552V325.832ZM421.787 325.832H425.165V320.508L425 320.806L421.787 325.832ZM435.636 325.832H437.142V326.958H435.636V329.479H434.249V326.958H429.305V326.145L434.167 318.621H435.636V325.832ZM430.871 325.832H434.249V320.508L434.085 320.806L430.871 325.832Z" fill="#263238"/>
<path d="M478.823 327.514H477.436V318.319L474.655 319.341V318.088L478.607 316.604H478.823V327.514ZM488.787 316.649V317.82H488.534C487.46 317.84 486.605 318.158 485.969 318.774C485.332 319.391 484.964 320.258 484.865 321.377C485.437 320.72 486.217 320.392 487.207 320.392C488.151 320.392 488.904 320.725 489.466 321.392C490.033 322.058 490.316 322.918 490.316 323.972C490.316 325.09 490.01 325.985 489.399 326.656C488.792 327.327 487.977 327.663 486.953 327.663C485.914 327.663 485.071 327.265 484.425 326.47C483.779 325.669 483.456 324.64 483.456 323.383V322.853C483.456 320.855 483.881 319.328 484.731 318.275C485.586 317.216 486.856 316.674 488.541 316.649H488.787ZM486.975 321.541C486.503 321.541 486.068 321.682 485.67 321.966C485.273 322.249 484.997 322.605 484.843 323.032V323.539C484.843 324.434 485.044 325.155 485.447 325.702C485.849 326.248 486.351 326.522 486.953 326.522C487.574 326.522 488.062 326.293 488.415 325.836C488.772 325.379 488.951 324.779 488.951 324.039C488.951 323.293 488.77 322.692 488.407 322.234C488.049 321.772 487.572 321.541 486.975 321.541ZM499.043 319.49C499.043 320.032 498.898 320.514 498.61 320.937C498.327 321.359 497.941 321.69 497.454 321.928C498.021 322.172 498.468 322.527 498.797 322.995C499.13 323.462 499.296 323.992 499.296 324.583C499.296 325.523 498.978 326.271 498.342 326.828C497.71 327.384 496.878 327.663 495.844 327.663C494.8 327.663 493.962 327.384 493.331 326.828C492.704 326.266 492.391 325.518 492.391 324.583C492.391 323.996 492.55 323.467 492.868 322.995C493.191 322.523 493.636 322.165 494.203 321.921C493.721 321.682 493.341 321.352 493.062 320.929C492.784 320.507 492.645 320.027 492.645 319.49C492.645 318.575 492.938 317.85 493.525 317.313C494.111 316.776 494.884 316.507 495.844 316.507C496.798 316.507 497.569 316.776 498.155 317.313C498.747 317.85 499.043 318.575 499.043 319.49ZM497.917 324.553C497.917 323.947 497.723 323.452 497.335 323.069C496.952 322.687 496.45 322.495 495.829 322.495C495.207 322.495 494.708 322.684 494.33 323.062C493.957 323.44 493.771 323.937 493.771 324.553C493.771 325.17 493.952 325.654 494.315 326.007C494.683 326.36 495.192 326.537 495.844 326.537C496.49 326.537 496.997 326.36 497.365 326.007C497.733 325.649 497.917 325.165 497.917 324.553ZM495.844 317.641C495.302 317.641 494.862 317.81 494.524 318.148C494.191 318.481 494.024 318.936 494.024 319.512C494.024 320.064 494.188 320.512 494.516 320.855C494.849 321.193 495.292 321.362 495.844 321.362C496.395 321.362 496.835 321.193 497.163 320.855C497.497 320.512 497.663 320.064 497.663 319.512C497.663 318.961 497.492 318.511 497.149 318.163C496.806 317.815 496.371 317.641 495.844 317.641Z" fill="#263238"/>
<path d="M540.873 322.894H541.909C542.561 322.884 543.073 322.713 543.446 322.38C543.818 322.047 544.005 321.597 544.005 321.03C544.005 319.758 543.371 319.121 542.103 319.121C541.507 319.121 541.03 319.293 540.672 319.636C540.319 319.974 540.142 320.424 540.142 320.985H538.763C538.763 320.125 539.076 319.412 539.702 318.845C540.334 318.274 541.134 317.988 542.103 317.988C543.127 317.988 543.93 318.259 544.512 318.801C545.094 319.342 545.384 320.096 545.384 321.06C545.384 321.532 545.23 321.99 544.922 322.432C544.619 322.875 544.204 323.205 543.677 323.424C544.273 323.613 544.733 323.926 545.056 324.363C545.384 324.801 545.548 325.335 545.548 325.967C545.548 326.941 545.23 327.714 544.594 328.286C543.958 328.857 543.13 329.143 542.111 329.143C541.092 329.143 540.262 328.867 539.62 328.316C538.984 327.764 538.666 327.035 538.666 326.131H540.053C540.053 326.702 540.239 327.16 540.612 327.503C540.985 327.846 541.484 328.017 542.111 328.017C542.777 328.017 543.287 327.843 543.639 327.495C543.992 327.147 544.169 326.648 544.169 325.996C544.169 325.365 543.975 324.88 543.587 324.542C543.2 324.204 542.64 324.03 541.909 324.02H540.873V322.894ZM555.065 328.994H547.952V328.002L551.71 323.827C552.267 323.195 552.649 322.683 552.858 322.29C553.072 321.893 553.179 321.483 553.179 321.06C553.179 320.493 553.007 320.028 552.664 319.666C552.321 319.303 551.864 319.121 551.292 319.121C550.606 319.121 550.072 319.318 549.689 319.71C549.311 320.098 549.122 320.64 549.122 321.336H547.743C547.743 320.337 548.063 319.529 548.705 318.912C549.351 318.296 550.213 317.988 551.292 317.988C552.301 317.988 553.099 318.254 553.686 318.786C554.273 319.313 554.566 320.016 554.566 320.896C554.566 321.965 553.885 323.237 552.523 324.714L549.614 327.868H555.065V328.994Z" fill="#263238"/>
<path d="M601.474 327.891H594.36V326.899L598.119 322.723C598.676 322.092 599.058 321.58 599.267 321.187C599.481 320.789 599.588 320.379 599.588 319.956C599.588 319.39 599.416 318.925 599.073 318.562C598.73 318.199 598.273 318.018 597.701 318.018C597.015 318.018 596.481 318.214 596.098 318.607C595.72 318.995 595.531 319.536 595.531 320.232H594.152C594.152 319.233 594.472 318.425 595.114 317.809C595.76 317.192 596.622 316.884 597.701 316.884C598.71 316.884 599.508 317.15 600.095 317.682C600.681 318.209 600.975 318.913 600.975 319.792C600.975 320.861 600.294 322.134 598.932 323.61L596.023 326.765H601.474V327.891ZM604.079 322.447L604.631 317.033H610.193V318.309H605.801L605.473 321.269C606.005 320.956 606.609 320.799 607.285 320.799C608.275 320.799 609.06 321.127 609.642 321.783C610.223 322.435 610.514 323.317 610.514 324.431C610.514 325.549 610.211 326.432 609.604 327.078C609.003 327.719 608.16 328.04 607.076 328.04C606.117 328.04 605.334 327.774 604.728 327.242C604.121 326.71 603.776 325.974 603.691 325.035H604.996C605.081 325.656 605.302 326.126 605.66 326.444C606.018 326.757 606.49 326.914 607.076 326.914C607.718 326.914 608.22 326.695 608.583 326.258C608.951 325.82 609.135 325.216 609.135 324.446C609.135 323.72 608.936 323.138 608.538 322.701C608.145 322.258 607.621 322.037 606.965 322.037C606.363 322.037 605.891 322.169 605.548 322.432L605.182 322.73L604.079 322.447ZM617.943 317.026V318.197H617.69C616.616 318.217 615.761 318.535 615.124 319.151C614.488 319.768 614.12 320.635 614.021 321.754C614.593 321.097 615.373 320.769 616.362 320.769C617.307 320.769 618.06 321.102 618.622 321.769C619.188 322.435 619.472 323.295 619.472 324.349C619.472 325.467 619.166 326.362 618.555 327.033C617.948 327.704 617.133 328.04 616.109 328.04C615.07 328.04 614.227 327.642 613.581 326.847C612.935 326.046 612.611 325.017 612.611 323.76V323.23C612.611 321.232 613.037 319.705 613.887 318.652C614.742 317.593 616.012 317.051 617.697 317.026H617.943ZM616.131 321.918C615.659 321.918 615.224 322.059 614.826 322.343C614.428 322.626 614.153 322.981 613.998 323.409V323.916C613.998 324.811 614.2 325.532 614.602 326.079C615.005 326.625 615.507 326.899 616.109 326.899C616.73 326.899 617.217 326.67 617.57 326.213C617.928 325.755 618.107 325.156 618.107 324.416C618.107 323.67 617.926 323.068 617.563 322.611C617.205 322.149 616.728 321.918 616.131 321.918Z" fill="#263238"/>
<path d="M26.8748 40.0784H23.3876V46.084H21.4198V31.2382H26.3344C28.0065 31.2382 29.2913 31.6189 30.1885 32.3802C31.0926 33.1415 31.5447 34.2495 31.5447 35.7042C31.5447 36.6286 31.2931 37.4342 30.7901 38.1207C30.2939 38.8072 29.6006 39.3205 28.7101 39.6603L32.1972 45.9616V46.084H30.0968L26.8748 40.0784ZM23.3876 38.4776H26.3955C27.3676 38.4776 28.1391 38.2261 28.7101 37.723C29.2879 37.22 29.5768 36.5471 29.5768 35.7042C29.5768 34.7865 29.3015 34.083 28.7509 33.5936C28.2071 33.1041 27.4186 32.856 26.3853 32.8492H23.3876V38.4776ZM39.1543 46.2879C37.6589 46.2879 36.4421 45.7985 35.5041 44.8196C34.566 43.834 34.097 42.5187 34.097 40.8737V40.527C34.097 39.4326 34.3043 38.4572 34.719 37.6007C35.1404 36.7374 35.725 36.0645 36.4727 35.5818C37.2272 35.0924 38.0429 34.8477 38.9198 34.8477C40.3541 34.8477 41.4689 35.3201 42.2642 36.265C43.0595 37.2098 43.4572 38.5625 43.4572 40.3231V41.1082H35.9833C36.0105 42.1958 36.3266 43.0761 36.9315 43.749C37.5433 44.4152 38.3182 44.7483 39.2563 44.7483C39.9224 44.7483 40.4866 44.6123 40.9489 44.3404C41.4111 44.0685 41.8156 43.7083 42.1622 43.2596L43.3144 44.1569C42.3899 45.5776 41.0033 46.2879 39.1543 46.2879ZM38.9198 36.3975C38.1585 36.3975 37.5195 36.6762 37.0029 37.2336C36.4863 37.7842 36.1668 38.5591 36.0445 39.5584H41.5708V39.4156C41.5165 38.4572 41.2582 37.7162 40.7959 37.1928C40.3337 36.6626 39.7083 36.3975 38.9198 36.3975ZM45.775 40.476C45.775 38.7563 46.1726 37.39 46.9679 36.3771C47.7632 35.3575 48.8169 34.8477 50.1288 34.8477C51.4747 34.8477 52.5249 35.3235 53.2794 36.2752L53.3712 35.0516H55.0944V45.8189C55.0944 47.2464 54.6695 48.3713 53.8198 49.1938C52.9769 50.0163 51.8417 50.4276 50.4143 50.4276C49.619 50.4276 48.8406 50.2577 48.0793 49.9178C47.318 49.5779 46.7368 49.1123 46.3358 48.5209L47.3146 47.3891C48.1235 48.3883 49.1125 48.888 50.2817 48.888C51.1994 48.888 51.9131 48.6297 52.4229 48.113C52.9395 47.5964 53.1979 46.8691 53.1979 45.931V44.9828C52.4433 45.8529 51.4135 46.2879 50.1084 46.2879C48.8169 46.2879 47.77 45.7679 46.9679 44.7279C46.1726 43.6879 45.775 42.2706 45.775 40.476ZM47.6715 40.6902C47.6715 41.9341 47.9264 42.9129 48.4362 43.6267C48.946 44.3336 49.6597 44.6871 50.5774 44.6871C51.767 44.6871 52.6405 44.1467 53.1979 43.0659V38.0289C52.6201 36.9753 51.7534 36.4485 50.5978 36.4485C49.6801 36.4485 48.963 36.8054 48.4464 37.5191C47.9298 38.2329 47.6715 39.2899 47.6715 40.6902ZM60.573 46.084H58.6867V35.0516H60.573V46.084ZM58.5338 32.1253C58.5338 31.8194 58.6255 31.5611 58.8091 31.3504C58.9994 31.1397 59.2781 31.0343 59.6452 31.0343C60.0122 31.0343 60.2909 31.1397 60.4812 31.3504C60.6716 31.5611 60.7667 31.8194 60.7667 32.1253C60.7667 32.4312 60.6716 32.6861 60.4812 32.89C60.2909 33.0939 60.0122 33.1959 59.6452 33.1959C59.2781 33.1959 58.9994 33.0939 58.8091 32.89C58.6255 32.6861 58.5338 32.4312 58.5338 32.1253ZM63.6759 40.4658C63.6759 39.385 63.8867 38.413 64.3081 37.5497C64.7364 36.6864 65.3277 36.0203 66.0823 35.5512C66.8436 35.0822 67.7103 34.8477 68.6823 34.8477C70.1846 34.8477 71.3979 35.3677 72.3224 36.4077C73.2536 37.4477 73.7193 38.831 73.7193 40.5576V40.6902C73.7193 41.7642 73.5119 42.7294 73.0973 43.5859C72.6894 44.4356 72.1015 45.0983 71.3333 45.5742C70.572 46.05 69.6951 46.2879 68.7027 46.2879C67.2072 46.2879 65.9939 45.7679 65.0626 44.7279C64.1382 43.6879 63.6759 42.3114 63.6759 40.5984V40.4658ZM65.5724 40.6902C65.5724 41.9137 65.8545 42.896 66.4187 43.6369C66.9897 44.3778 67.751 44.7483 68.7027 44.7483C69.6611 44.7483 70.4225 44.3744 70.9867 43.6267C71.5509 42.8722 71.833 41.8185 71.833 40.4658C71.833 39.2559 71.5441 38.277 70.9663 37.5293C70.3953 36.7748 69.634 36.3975 68.6823 36.3975C67.751 36.3975 66.9999 36.768 66.4289 37.5089C65.8579 38.2499 65.5724 39.3103 65.5724 40.6902ZM78.4434 35.0516L78.5046 36.4383C79.3475 35.3779 80.4487 34.8477 81.8082 34.8477C84.1397 34.8477 85.3157 36.163 85.3361 38.7937V46.084H83.4498V38.7835C83.443 37.9881 83.2594 37.4002 82.8992 37.0195C82.5457 36.6388 81.9917 36.4485 81.2372 36.4485C80.6254 36.4485 80.0884 36.6117 79.6262 36.9379C79.1639 37.2642 78.8037 37.6925 78.5454 38.2227V46.084H76.659V35.0516H78.4434ZM98.1491 43.5247L100.882 35.0516H102.809L98.8527 46.084H97.415L93.418 35.0516H95.3451L98.1491 43.5247ZM111.622 43.1577C111.622 42.6478 111.428 42.2536 111.04 41.9749C110.66 41.6894 109.99 41.4447 109.032 41.2408C108.08 41.0368 107.322 40.7921 106.758 40.5066C106.201 40.2211 105.786 39.8813 105.514 39.487C105.249 39.0927 105.116 38.6237 105.116 38.0799C105.116 37.1758 105.497 36.4111 106.258 35.7858C107.027 35.1604 108.005 34.8477 109.195 34.8477C110.446 34.8477 111.458 35.1706 112.233 35.8163C113.015 36.4621 113.406 37.288 113.406 38.294H111.509C111.509 37.7774 111.289 37.3322 110.847 36.9583C110.412 36.5845 109.861 36.3975 109.195 36.3975C108.508 36.3975 107.971 36.5471 107.584 36.8462C107.196 37.1453 107.003 37.5361 107.003 38.0187C107.003 38.4742 107.183 38.8174 107.543 39.0486C107.903 39.2797 108.553 39.5006 109.491 39.7113C110.435 39.922 111.2 40.1735 111.785 40.4658C112.369 40.7581 112.801 41.1116 113.08 41.5263C113.365 41.9341 113.508 42.4337 113.508 43.0251C113.508 44.0107 113.114 44.8027 112.325 45.4008C111.537 45.9922 110.514 46.2879 109.256 46.2879C108.372 46.2879 107.591 46.1316 106.911 45.8189C106.231 45.5062 105.698 45.0712 105.31 44.5138C104.929 43.9496 104.739 43.3412 104.739 42.6886H106.625C106.659 43.3208 106.911 43.8238 107.38 44.1977C107.856 44.5647 108.481 44.7483 109.256 44.7483C109.97 44.7483 110.541 44.6055 110.969 44.32C111.404 44.0277 111.622 43.6403 111.622 43.1577ZM126.963 39.4666C125.284 38.984 124.061 38.3926 123.293 37.6925C122.531 36.9855 122.151 36.1154 122.151 35.0822C122.151 33.913 122.616 32.9478 123.548 32.1865C124.486 31.4184 125.702 31.0343 127.198 31.0343C128.217 31.0343 129.125 31.2314 129.92 31.6257C130.722 32.0199 131.341 32.5637 131.776 33.2571C132.218 33.9504 132.439 34.7084 132.439 35.5308H130.471C130.471 34.6336 130.185 33.93 129.614 33.4202C129.043 32.9036 128.238 32.6453 127.198 32.6453C126.233 32.6453 125.478 32.8594 124.934 33.2877C124.397 33.7091 124.129 34.2971 124.129 35.0516C124.129 35.6566 124.384 36.1698 124.894 36.5913C125.41 37.0059 126.284 37.3866 127.514 37.7332C128.751 38.0799 129.716 38.464 130.41 38.8854C131.11 39.3001 131.626 39.7861 131.96 40.3435C132.299 40.9009 132.469 41.5568 132.469 42.3114C132.469 43.5145 132 44.4798 131.062 45.2071C130.124 45.9276 128.87 46.2879 127.3 46.2879C126.28 46.2879 125.329 46.0942 124.445 45.7067C123.561 45.3125 122.878 44.7755 122.395 44.0957C121.92 43.416 121.682 42.6444 121.682 41.7812H123.65C123.65 42.6784 123.979 43.3888 124.639 43.9122C125.305 44.4288 126.192 44.6871 127.3 44.6871C128.333 44.6871 129.125 44.4764 129.676 44.0549C130.226 43.6335 130.501 43.0591 130.501 42.3318C130.501 41.6044 130.247 41.0436 129.737 40.6494C129.227 40.2483 128.302 39.8541 126.963 39.4666ZM139.844 46.2879C138.349 46.2879 137.132 45.7985 136.194 44.8196C135.256 43.834 134.787 42.5187 134.787 40.8737V40.527C134.787 39.4326 134.994 38.4572 135.409 37.6007C135.831 36.7374 136.415 36.0645 137.163 35.5818C137.917 35.0924 138.733 34.8477 139.61 34.8477C141.044 34.8477 142.159 35.3201 142.954 36.265C143.75 37.2098 144.147 38.5625 144.147 40.3231V41.1082H136.673C136.701 42.1958 137.017 43.0761 137.622 43.749C138.233 44.4152 139.008 44.7483 139.946 44.7483C140.613 44.7483 141.177 44.6123 141.639 44.3404C142.101 44.0685 142.506 43.7083 142.852 43.2596L144.005 44.1569C143.08 45.5776 141.693 46.2879 139.844 46.2879ZM139.61 36.3975C138.849 36.3975 138.21 36.6762 137.693 37.2336C137.176 37.7842 136.857 38.5591 136.735 39.5584H142.261V39.4156C142.207 38.4572 141.948 37.7162 141.486 37.1928C141.024 36.6626 140.398 36.3975 139.61 36.3975ZM151.339 44.7483C152.012 44.7483 152.6 44.5443 153.103 44.1365C153.606 43.7286 153.885 43.2188 153.939 42.6071H155.723C155.689 43.2392 155.472 43.8408 155.071 44.4118C154.67 44.9828 154.133 45.4382 153.46 45.7781C152.794 46.118 152.087 46.2879 151.339 46.2879C149.837 46.2879 148.64 45.7883 147.75 44.7891C146.866 43.783 146.424 42.4099 146.424 40.6698V40.3537C146.424 39.2797 146.621 38.3246 147.016 37.4885C147.41 36.6524 147.974 36.0033 148.708 35.541C149.449 35.0788 150.323 34.8477 151.329 34.8477C152.566 34.8477 153.592 35.2182 154.408 35.9591C155.231 36.7 155.669 37.6619 155.723 38.8446H153.939C153.885 38.1309 153.613 37.5463 153.123 37.0909C152.641 36.6286 152.042 36.3975 151.329 36.3975C150.37 36.3975 149.626 36.7442 149.096 37.4376C148.572 38.1241 148.311 39.1199 148.311 40.4251V40.7819C148.311 42.0531 148.572 43.0319 149.096 43.7185C149.619 44.405 150.367 44.7483 151.339 44.7483ZM160.978 32.3802V35.0516H163.037V36.5097H160.978V43.3514C160.978 43.7932 161.069 44.1263 161.253 44.3506C161.437 44.5681 161.749 44.6769 162.191 44.6769C162.409 44.6769 162.708 44.6361 163.088 44.5545V46.084C162.592 46.2199 162.109 46.2879 161.64 46.2879C160.798 46.2879 160.162 46.033 159.734 45.5232C159.305 45.0134 159.091 44.2894 159.091 43.3514V36.5097H157.083V35.0516H159.091V32.3802H160.978ZM165.121 40.4658C165.121 39.385 165.331 38.413 165.753 37.5497C166.181 36.6864 166.772 36.0203 167.527 35.5512C168.288 35.0822 169.155 34.8477 170.127 34.8477C171.629 34.8477 172.843 35.3677 173.767 36.4077C174.698 37.4477 175.164 38.831 175.164 40.5576V40.6902C175.164 41.7642 174.957 42.7294 174.542 43.5859C174.134 44.4356 173.546 45.0983 172.778 45.5742C172.017 46.05 171.14 46.2879 170.147 46.2879C168.652 46.2879 167.439 45.7679 166.507 44.7279C165.583 43.6879 165.121 42.3114 165.121 40.5984V40.4658ZM167.017 40.6902C167.017 41.9137 167.299 42.896 167.863 43.6369C168.434 44.3778 169.196 44.7483 170.147 44.7483C171.106 44.7483 171.867 44.3744 172.431 43.6267C172.996 42.8722 173.278 41.8185 173.278 40.4658C173.278 39.2559 172.989 38.277 172.411 37.5293C171.84 36.7748 171.079 36.3975 170.127 36.3975C169.196 36.3975 168.445 36.768 167.874 37.5089C167.303 38.2499 167.017 39.3103 167.017 40.6902ZM183.436 36.7442C183.151 36.6966 182.842 36.6728 182.509 36.6728C181.271 36.6728 180.432 37.1996 179.99 38.2533V46.084H178.104V35.0516H179.939L179.97 36.3262C180.588 35.3405 181.465 34.8477 182.6 34.8477C182.967 34.8477 183.246 34.8953 183.436 34.9904V36.7442ZM192.178 43.1577C192.178 42.6478 191.984 42.2536 191.597 41.9749C191.216 41.6894 190.546 41.4447 189.588 41.2408C188.636 41.0368 187.878 40.7921 187.314 40.5066C186.757 40.2211 186.342 39.8813 186.07 39.487C185.805 39.0927 185.673 38.6237 185.673 38.0799C185.673 37.1758 186.053 36.4111 186.815 35.7858C187.583 35.1604 188.562 34.8477 189.751 34.8477C191.002 34.8477 192.015 35.1706 192.79 35.8163C193.571 36.4621 193.962 37.288 193.962 38.294H192.066C192.066 37.7774 191.845 37.3322 191.403 36.9583C190.968 36.5845 190.417 36.3975 189.751 36.3975C189.065 36.3975 188.528 36.5471 188.14 36.8462C187.753 37.1453 187.559 37.5361 187.559 38.0187C187.559 38.4742 187.739 38.8174 188.099 39.0486C188.46 39.2797 189.109 39.5006 190.047 39.7113C190.992 39.922 191.756 40.1735 192.341 40.4658C192.926 40.7581 193.357 41.1116 193.636 41.5263C193.921 41.9341 194.064 42.4337 194.064 43.0251C194.064 44.0107 193.67 44.8027 192.881 45.4008C192.093 45.9922 191.07 46.2879 189.812 46.2879C188.929 46.2879 188.147 46.1316 187.467 45.8189C186.787 45.5062 186.254 45.0712 185.866 44.5138C185.486 43.9496 185.295 43.3412 185.295 42.6886H187.182C187.216 43.3208 187.467 43.8238 187.936 44.1977C188.412 44.5647 189.037 44.7483 189.812 44.7483C190.526 44.7483 191.097 44.6055 191.525 44.32C191.96 44.0277 192.178 43.6403 192.178 43.1577Z" fill="#263238"/>
<path d="M176.442 201.87L176.442 206.031L179.845 206.031L179.845 201.197L180.88 201.197L180.88 207.298L171.278 207.298L171.278 201.263L172.32 201.263L172.32 206.031L175.407 206.031L175.407 201.87L176.442 201.87ZM173.745 198.287L174.642 198.247C173.956 197.702 173.613 196.99 173.613 196.11C173.613 194.602 174.463 193.842 176.165 193.828L180.88 193.828L180.88 195.049L176.158 195.049C175.644 195.053 175.264 195.172 175.017 195.405C174.771 195.633 174.648 195.992 174.648 196.48C174.648 196.875 174.754 197.223 174.965 197.522C175.176 197.821 175.453 198.054 175.796 198.221L180.88 198.221L180.88 199.441L173.745 199.441L173.745 198.287ZM179.225 189.263L173.745 187.495L173.745 186.249L180.88 188.808L180.88 189.737L173.745 192.323L173.745 191.076L179.225 189.263ZM180.88 183.378L180.88 184.598L173.745 184.598L173.745 183.378L180.88 183.378ZM171.852 184.697C171.654 184.697 171.487 184.637 171.351 184.519C171.214 184.396 171.146 184.215 171.146 183.978C171.146 183.74 171.214 183.56 171.351 183.437C171.487 183.314 171.654 183.252 171.852 183.252C172.05 183.252 172.215 183.314 172.346 183.437C172.478 183.56 172.544 183.74 172.544 183.978C172.544 184.215 172.478 184.396 172.346 184.519C172.215 184.637 172.05 184.697 171.852 184.697ZM174.839 177.598C174.809 177.783 174.793 177.983 174.793 178.199C174.793 178.999 175.134 179.542 175.815 179.828L180.88 179.828L180.88 181.048L173.745 181.048L173.745 179.861L174.569 179.841C173.931 179.441 173.613 178.873 173.613 178.139C173.613 177.902 173.643 177.722 173.705 177.598L174.839 177.598ZM177.247 176.554C176.547 176.554 175.919 176.418 175.36 176.145C174.802 175.868 174.371 175.486 174.068 174.998C173.764 174.505 173.613 173.945 173.613 173.316C173.613 172.345 173.949 171.56 174.622 170.962C175.294 170.359 176.189 170.058 177.306 170.058L177.392 170.058C178.086 170.058 178.711 170.192 179.265 170.461C179.814 170.724 180.243 171.105 180.551 171.601C180.858 172.094 181.012 172.661 181.012 173.303C181.012 174.27 180.676 175.055 180.003 175.657C179.331 176.255 178.44 176.554 177.332 176.554L177.247 176.554ZM177.392 175.328C178.183 175.328 178.818 175.145 179.298 174.78C179.777 174.411 180.016 173.919 180.016 173.303C180.016 172.683 179.775 172.191 179.291 171.826C178.803 171.461 178.121 171.278 177.247 171.278C176.464 171.278 175.831 171.465 175.347 171.839C174.859 172.208 174.615 172.701 174.615 173.316C174.615 173.919 174.855 174.404 175.334 174.774C175.813 175.143 176.499 175.328 177.392 175.328ZM173.745 167.003L174.642 166.963C173.956 166.418 173.613 165.706 173.613 164.826C173.613 163.318 174.463 162.558 176.165 162.544L180.88 162.544L180.88 163.764L176.158 163.764C175.644 163.769 175.264 163.888 175.017 164.121C174.771 164.349 174.648 164.708 174.648 165.196C174.648 165.591 174.754 165.939 174.965 166.238C175.176 166.537 175.453 166.77 175.796 166.937L180.88 166.937L180.88 168.157L173.745 168.157L173.745 167.003ZM173.745 159.185L174.536 159.152C173.92 158.629 173.613 157.924 173.613 157.035C173.613 156.037 173.995 155.358 174.76 154.998C174.417 154.76 174.14 154.452 173.929 154.074C173.718 153.692 173.613 153.241 173.613 152.722C173.613 151.157 174.441 150.361 176.099 150.335L180.88 150.335L180.88 151.555L176.172 151.555C175.662 151.555 175.281 151.672 175.031 151.905C174.776 152.138 174.648 152.529 174.648 153.078C174.648 153.531 174.784 153.907 175.057 154.206C175.325 154.505 175.688 154.679 176.145 154.727L180.88 154.727L180.88 155.954L176.205 155.954C175.167 155.954 174.648 156.462 174.648 157.477C174.648 158.278 174.989 158.825 175.67 159.12L180.88 159.12L180.88 160.34L173.745 160.34L173.745 159.185ZM181.012 145.156C181.012 146.123 180.696 146.91 180.063 147.517C179.425 148.124 178.574 148.427 177.51 148.427L177.286 148.427C176.578 148.427 175.947 148.293 175.393 148.025C174.835 147.752 174.4 147.374 174.088 146.89C173.771 146.402 173.613 145.875 173.613 145.307C173.613 144.38 173.918 143.659 174.529 143.144C175.141 142.63 176.015 142.373 177.154 142.373L177.662 142.373L177.662 147.207C178.365 147.189 178.935 146.985 179.37 146.593C179.801 146.198 180.016 145.697 180.016 145.09C180.016 144.659 179.928 144.294 179.753 143.995C179.577 143.696 179.344 143.434 179.054 143.21L179.634 142.465C180.553 143.063 181.012 143.96 181.012 145.156ZM174.615 145.307C174.615 145.8 174.795 146.213 175.156 146.547C175.512 146.881 176.013 147.088 176.66 147.167L176.66 143.593L176.567 143.593C175.947 143.628 175.468 143.795 175.13 144.094C174.787 144.393 174.615 144.797 174.615 145.307ZM173.745 139.429L174.641 139.39C173.956 138.844 173.613 138.132 173.613 137.253C173.613 135.745 174.463 134.984 176.165 134.971L180.88 134.971L180.88 136.191L176.158 136.191C175.644 136.195 175.264 136.314 175.017 136.547C174.771 136.776 174.648 137.134 174.648 137.622C174.648 138.018 174.754 138.365 174.965 138.664C175.176 138.963 175.453 139.196 175.796 139.363L180.88 139.363L180.88 140.583L173.745 140.583L173.745 139.429ZM172.017 131.104L173.745 131.104L173.745 129.772L174.688 129.772L174.688 131.104L179.113 131.104C179.399 131.104 179.614 131.045 179.759 130.926C179.9 130.807 179.97 130.605 179.97 130.319C179.97 130.179 179.944 129.985 179.891 129.739L180.88 129.739C180.968 130.06 181.012 130.372 181.012 130.676C181.012 131.221 180.847 131.632 180.518 131.909C180.188 132.186 179.72 132.324 179.113 132.324L174.688 132.324L174.688 133.624L173.745 133.624L173.745 132.324L172.017 132.324L172.017 131.104Z" fill="#263238"/>
<path d="M240.916 169.9L240.916 171.173L236.478 171.173L236.478 176.014L240.916 176.014L240.916 177.28L231.314 177.28L231.314 176.014L235.442 176.014L235.442 171.173L231.314 171.173L231.314 169.9L240.916 169.9ZM241.048 164.51C241.048 165.477 240.731 166.264 240.098 166.871C239.461 167.478 238.61 167.781 237.546 167.781L237.322 167.781C236.614 167.781 235.983 167.647 235.429 167.379C234.871 167.106 234.435 166.728 234.123 166.244C233.807 165.756 233.648 165.229 233.648 164.662C233.648 163.734 233.954 163.013 234.565 162.498C235.176 161.984 236.051 161.727 237.19 161.727L237.698 161.727L237.698 166.561C238.401 166.543 238.97 166.339 239.406 165.948C239.837 165.552 240.052 165.051 240.052 164.444C240.052 164.013 239.964 163.648 239.788 163.349C239.612 163.05 239.379 162.789 239.089 162.564L239.67 161.819C240.588 162.417 241.048 163.314 241.048 164.51ZM234.651 164.662C234.651 165.154 234.831 165.567 235.192 165.901C235.548 166.236 236.049 166.442 236.695 166.521L236.695 162.947L236.603 162.947C235.983 162.982 235.504 163.149 235.165 163.448C234.822 163.747 234.651 164.152 234.651 164.662ZM240.916 155.532C240.775 155.602 240.525 155.66 240.164 155.704C240.753 156.271 241.048 156.948 241.048 157.735C241.048 158.438 240.85 159.016 240.454 159.469C240.054 159.918 239.549 160.142 238.938 160.142C238.194 160.142 237.619 159.861 237.21 159.298C236.796 158.731 236.59 157.935 236.59 156.91L236.59 155.723L236.029 155.723C235.603 155.723 235.264 155.851 235.013 156.106C234.758 156.361 234.631 156.737 234.631 157.234C234.631 157.669 234.741 158.034 234.961 158.328C235.181 158.623 235.447 158.77 235.759 158.77L235.759 159.997C235.403 159.997 235.06 159.872 234.73 159.621C234.396 159.366 234.132 159.023 233.939 158.592C233.745 158.157 233.648 157.68 233.648 157.161C233.648 156.339 233.855 155.695 234.268 155.229C234.677 154.763 235.242 154.521 235.963 154.503L239.247 154.503C239.903 154.503 240.424 154.42 240.81 154.253L240.916 154.253L240.916 155.532ZM239.986 157.557C239.986 157.174 239.887 156.811 239.689 156.469C239.491 156.126 239.234 155.877 238.918 155.723L237.454 155.723L237.454 156.68C237.454 158.174 237.891 158.922 238.766 158.922C239.149 158.922 239.448 158.794 239.663 158.539C239.878 158.284 239.986 157.957 239.986 157.557ZM240.916 150.894L240.916 152.114L230.786 152.114L230.786 150.894L240.916 150.894ZM232.052 146.908L233.78 146.908L233.78 145.576L234.723 145.576L234.723 146.908L239.149 146.908C239.434 146.908 239.65 146.849 239.795 146.73C239.936 146.611 240.006 146.409 240.006 146.123C240.006 145.983 239.98 145.789 239.927 145.543L240.916 145.543C241.004 145.864 241.048 146.176 241.048 146.479C241.048 147.025 240.883 147.436 240.553 147.713C240.224 147.99 239.755 148.128 239.149 148.128L234.723 148.128L234.723 149.427L233.78 149.427L233.78 148.128L232.052 148.128L232.052 146.908ZM234.644 142.553C233.98 142.013 233.648 141.309 233.648 140.443C233.648 138.935 234.499 138.174 236.201 138.161L240.916 138.161L240.916 139.381L236.194 139.381C235.68 139.386 235.299 139.504 235.053 139.737C234.807 139.966 234.684 140.324 234.684 140.812C234.684 141.208 234.789 141.555 235 141.854C235.211 142.153 235.488 142.386 235.831 142.553L240.916 142.553L240.916 143.773L230.786 143.773L230.786 142.553L234.644 142.553Z" fill="#263238"/>
<path d="M300.428 161.411L300.428 165.572L303.831 165.572L303.831 160.738L304.867 160.738L304.867 166.839L295.264 166.839L295.264 160.804L296.306 160.804L296.306 165.572L299.393 165.572L299.393 161.411L300.428 161.411ZM301.239 159.41C300.145 159.41 299.265 159.151 298.601 158.632C297.933 158.113 297.599 157.434 297.599 156.594C297.599 155.759 297.885 155.097 298.456 154.609L294.737 154.609L294.737 153.389L304.867 153.389L304.867 154.51L304.102 154.57C304.7 155.058 304.999 155.737 304.999 156.608C304.999 157.434 304.66 158.109 303.983 158.632C303.306 159.151 302.422 159.41 301.332 159.41L301.239 159.41ZM301.378 158.19C302.187 158.19 302.82 158.023 303.277 157.689C303.735 157.355 303.963 156.893 303.963 156.304C303.963 155.53 303.616 154.965 302.921 154.609L299.643 154.609C298.971 154.974 298.634 155.535 298.634 156.291C298.634 156.889 298.865 157.355 299.327 157.689C299.789 158.023 300.472 158.19 301.378 158.19ZM304.161 146.713C304.719 147.188 304.999 147.885 304.999 148.804C304.999 149.564 304.779 150.145 304.339 150.545C303.895 150.94 303.24 151.14 302.374 151.145L297.731 151.145L297.731 149.925L302.341 149.925C303.422 149.925 303.963 149.485 303.963 148.606C303.963 147.674 303.616 147.054 302.921 146.746L297.731 146.746L297.731 145.526L304.867 145.526L304.867 146.687L304.161 146.713ZM304.003 140.432C304.003 139.997 303.871 139.617 303.607 139.292C303.343 138.966 303.014 138.786 302.618 138.751L302.618 137.597C303.027 137.619 303.416 137.759 303.785 138.019C304.154 138.278 304.449 138.625 304.669 139.061C304.889 139.492 304.999 139.949 304.999 140.432C304.999 141.404 304.675 142.178 304.029 142.754C303.378 143.325 302.49 143.611 301.365 143.611L301.16 143.611C300.466 143.611 299.848 143.484 299.307 143.229C298.766 142.974 298.346 142.609 298.047 142.134C297.748 141.655 297.599 141.09 297.599 140.439C297.599 139.639 297.839 138.975 298.318 138.447C298.797 137.915 299.419 137.632 300.184 137.597L300.184 138.751C299.723 138.786 299.344 138.962 299.05 139.278C298.751 139.59 298.601 139.977 298.601 140.439C298.601 141.059 298.826 141.54 299.274 141.883C299.718 142.222 300.362 142.391 301.206 142.391L301.437 142.391C302.259 142.391 302.893 142.222 303.337 141.883C303.781 141.545 304.003 141.061 304.003 140.432ZM304.867 131.448C304.726 131.518 304.475 131.575 304.115 131.619C304.704 132.187 304.999 132.864 304.999 133.651C304.999 134.354 304.801 134.932 304.405 135.385C304.005 135.834 303.499 136.058 302.888 136.058C302.145 136.058 301.569 135.776 301.16 135.214C300.747 134.647 300.54 133.851 300.54 132.826L300.54 131.639L299.98 131.639C299.553 131.639 299.215 131.767 298.964 132.022C298.709 132.277 298.582 132.653 298.582 133.149C298.582 133.585 298.692 133.95 298.911 134.244C299.131 134.539 299.397 134.686 299.709 134.686L299.709 135.913C299.353 135.913 299.01 135.787 298.681 135.537C298.346 135.282 298.083 134.939 297.889 134.508C297.696 134.073 297.599 133.596 297.599 133.077C297.599 132.255 297.806 131.611 298.219 131.145C298.628 130.679 299.193 130.437 299.914 130.419L303.198 130.419C303.853 130.419 304.374 130.336 304.761 130.169L304.867 130.169L304.867 131.448ZM303.937 133.473C303.937 133.09 303.838 132.727 303.64 132.384C303.442 132.042 303.185 131.793 302.868 131.639L301.404 131.639L301.404 132.595C301.404 134.09 301.842 134.838 302.717 134.838C303.099 134.838 303.398 134.71 303.614 134.455C303.829 134.2 303.937 133.873 303.937 133.473ZM296.003 126.48L297.731 126.48L297.731 125.148L298.674 125.148L298.674 126.48L303.099 126.48C303.385 126.48 303.6 126.42 303.746 126.302C303.886 126.183 303.957 125.981 303.957 125.695C303.957 125.554 303.93 125.361 303.877 125.115L304.867 125.115C304.955 125.436 304.999 125.748 304.999 126.051C304.999 126.596 304.834 127.007 304.504 127.284C304.174 127.561 303.706 127.7 303.099 127.7L298.674 127.7L298.674 128.999L297.731 128.999L297.731 127.7L296.003 127.7L296.003 126.48ZM304.867 122.019L304.867 123.24L297.731 123.24L297.731 122.019L304.867 122.019ZM295.838 123.338C295.64 123.338 295.473 123.279 295.337 123.16C295.201 123.037 295.132 122.857 295.132 122.62C295.132 122.382 295.201 122.202 295.337 122.079C295.473 121.956 295.64 121.894 295.838 121.894C296.036 121.894 296.201 121.956 296.333 122.079C296.465 122.202 296.531 122.382 296.531 122.62C296.531 122.857 296.465 123.037 296.333 123.16C296.201 123.279 296.036 123.338 295.838 123.338ZM301.233 120.012C300.534 120.012 299.905 119.876 299.347 119.604C298.788 119.327 298.357 118.944 298.054 118.456C297.751 117.964 297.599 117.403 297.599 116.774C297.599 115.803 297.935 115.018 298.608 114.42C299.281 113.818 300.175 113.516 301.292 113.516L301.378 113.516C302.073 113.516 302.697 113.651 303.251 113.919C303.801 114.183 304.229 114.563 304.537 115.06C304.845 115.552 304.999 116.119 304.999 116.761C304.999 117.728 304.662 118.513 303.99 119.116C303.317 119.714 302.427 120.012 301.319 120.012L301.233 120.012ZM301.378 118.786C302.169 118.786 302.805 118.603 303.284 118.238C303.763 117.869 304.003 117.377 304.003 116.761C304.003 116.141 303.761 115.649 303.277 115.284C302.789 114.919 302.108 114.736 301.233 114.736C300.45 114.736 299.817 114.923 299.333 115.297C298.845 115.666 298.601 116.159 298.601 116.774C298.601 117.377 298.841 117.863 299.32 118.232C299.8 118.601 300.485 118.786 301.378 118.786ZM297.731 110.461L298.628 110.421C297.942 109.876 297.599 109.164 297.599 108.284C297.599 106.776 298.45 106.016 300.151 106.003L304.867 106.003L304.867 107.223L300.145 107.223C299.63 107.227 299.25 107.346 299.004 107.579C298.758 107.807 298.634 108.166 298.634 108.654C298.634 109.049 298.74 109.397 298.951 109.696C299.162 109.995 299.439 110.228 299.782 110.395L304.867 110.395L304.867 111.615L297.731 111.615L297.731 110.461Z" fill="#263238"/>
<path d="M364.577 221.58L364.577 225.609L368.818 225.609L368.818 226.876L359.216 226.876L359.216 220.927L360.258 220.927L360.258 225.609L363.542 225.609L363.542 221.58L364.577 221.58ZM368.818 217.904L368.818 219.124L361.682 219.124L361.682 217.904L368.818 217.904ZM359.789 219.223C359.591 219.223 359.424 219.164 359.288 219.045C359.152 218.922 359.084 218.742 359.084 218.505C359.084 218.267 359.152 218.087 359.288 217.964C359.424 217.841 359.591 217.779 359.789 217.779C359.987 217.779 360.152 217.841 360.284 217.964C360.416 218.087 360.482 218.267 360.482 218.505C360.482 218.742 360.416 218.922 360.284 219.045C360.152 219.164 359.987 219.223 359.789 219.223ZM366.925 211.419C366.595 211.419 366.34 211.545 366.16 211.795C365.975 212.042 365.817 212.475 365.685 213.095C365.553 213.71 365.395 214.2 365.21 214.565C365.026 214.926 364.806 215.194 364.551 215.37C364.296 215.541 363.993 215.627 363.641 215.627C363.056 215.627 362.561 215.381 362.157 214.888C361.752 214.392 361.55 213.758 361.55 212.989C361.55 212.18 361.759 211.525 362.177 211.024C362.594 210.518 363.129 210.265 363.779 210.265L363.779 211.492C363.445 211.492 363.157 211.635 362.915 211.921C362.674 212.202 362.553 212.558 362.553 212.989C362.553 213.433 362.649 213.78 362.843 214.031C363.036 214.282 363.289 214.407 363.601 214.407C363.896 214.407 364.118 214.29 364.267 214.057C364.417 213.824 364.56 213.404 364.696 212.798C364.832 212.187 364.995 211.692 365.184 211.314C365.373 210.936 365.602 210.657 365.87 210.476C366.134 210.292 366.457 210.199 366.839 210.199C367.477 210.199 367.989 210.454 368.376 210.964C368.759 211.474 368.95 212.136 368.95 212.949C368.95 213.521 368.849 214.027 368.646 214.466C368.444 214.906 368.163 215.251 367.802 215.502C367.437 215.748 367.044 215.871 366.622 215.871L366.622 214.651C367.031 214.629 367.356 214.466 367.598 214.163C367.835 213.855 367.954 213.451 367.954 212.949C367.954 212.488 367.862 212.118 367.677 211.841C367.488 211.56 367.237 211.419 366.925 211.419ZM362.546 207.018C361.882 206.478 361.55 205.774 361.55 204.908C361.55 203.4 362.401 202.639 364.102 202.626L368.818 202.626L368.818 203.846L364.096 203.846C363.581 203.851 363.201 203.969 362.955 204.202C362.709 204.431 362.586 204.789 362.586 205.277C362.586 205.673 362.691 206.02 362.902 206.319C363.113 206.618 363.39 206.851 363.733 207.018L368.818 207.018L368.818 208.238L358.688 208.238L358.688 207.018L362.546 207.018ZM368.95 197.467C368.95 198.434 368.633 199.221 368 199.828C367.363 200.434 366.512 200.738 365.448 200.738L365.224 200.738C364.516 200.738 363.885 200.604 363.331 200.336C362.772 200.063 362.337 199.685 362.025 199.201C361.708 198.713 361.55 198.186 361.55 197.618C361.55 196.691 361.856 195.97 362.467 195.455C363.078 194.941 363.953 194.684 365.092 194.684L365.6 194.684L365.6 199.518C366.303 199.5 366.872 199.296 367.308 198.904C367.738 198.509 367.954 198.008 367.954 197.401C367.954 196.97 367.866 196.605 367.69 196.306C367.514 196.007 367.281 195.745 366.991 195.521L367.571 194.776C368.49 195.374 368.95 196.271 368.95 197.467ZM362.553 197.618C362.553 198.111 362.733 198.524 363.093 198.858C363.45 199.192 363.951 199.399 364.597 199.478L364.597 195.904L364.505 195.904C363.885 195.939 363.406 196.106 363.067 196.405C362.724 196.704 362.553 197.108 362.553 197.618ZM362.777 189.445C362.746 189.63 362.731 189.83 362.731 190.045C362.731 190.845 363.071 191.388 363.753 191.674L368.818 191.674L368.818 192.894L361.682 192.894L361.682 191.707L362.506 191.687C361.869 191.287 361.55 190.72 361.55 189.986C361.55 189.748 361.581 189.568 361.643 189.445L362.777 189.445ZM368.818 186.62L368.818 187.84L361.682 187.84L361.682 186.62L368.818 186.62ZM359.789 187.939C359.591 187.939 359.424 187.88 359.288 187.761C359.152 187.638 359.084 187.458 359.084 187.22C359.084 186.983 359.152 186.803 359.288 186.68C359.424 186.557 359.591 186.495 359.789 186.495C359.987 186.495 360.152 186.557 360.284 186.68C360.416 186.803 360.482 186.983 360.482 187.22C360.482 187.458 360.416 187.638 360.284 187.761C360.152 187.88 359.987 187.939 359.789 187.939ZM368.95 181.329C368.95 182.296 368.633 183.083 368 183.69C367.363 184.297 366.512 184.6 365.448 184.6L365.224 184.6C364.516 184.6 363.885 184.466 363.331 184.198C362.772 183.925 362.337 183.547 362.025 183.064C361.708 182.575 361.55 182.048 361.55 181.481C361.55 180.553 361.856 179.832 362.467 179.318C363.078 178.803 363.953 178.546 365.092 178.546L365.6 178.546L365.6 183.38C366.303 183.362 366.872 183.158 367.308 182.767C367.738 182.371 367.954 181.87 367.954 181.263C367.954 180.832 367.866 180.467 367.69 180.168C367.514 179.869 367.281 179.608 366.991 179.384L367.571 178.638C368.49 179.236 368.95 180.133 368.95 181.329ZM362.553 181.481C362.553 181.973 362.733 182.386 363.093 182.721C363.45 183.055 363.951 183.261 364.597 183.341L364.597 179.766L364.505 179.766C363.885 179.801 363.406 179.968 363.067 180.267C362.724 180.566 362.553 180.971 362.553 181.481ZM366.925 172.602C366.595 172.602 366.34 172.727 366.16 172.978C365.975 173.224 365.817 173.657 365.685 174.277C365.553 174.892 365.395 175.383 365.21 175.748C365.026 176.108 364.806 176.376 364.551 176.552C364.296 176.724 363.993 176.809 363.641 176.809C363.056 176.809 362.561 176.563 362.157 176.071C361.752 175.574 361.55 174.941 361.55 174.171C361.55 173.362 361.759 172.707 362.177 172.206C362.594 171.7 363.129 171.448 363.779 171.448L363.779 172.674C363.445 172.674 363.157 172.817 362.915 173.103C362.674 173.384 362.553 173.74 362.553 174.171C362.553 174.615 362.649 174.963 362.843 175.213C363.036 175.464 363.289 175.589 363.601 175.589C363.896 175.589 364.118 175.473 364.267 175.24C364.417 175.007 364.56 174.587 364.696 173.98C364.832 173.369 364.995 172.874 365.184 172.496C365.373 172.118 365.602 171.839 365.87 171.659C366.134 171.474 366.457 171.382 366.839 171.382C367.477 171.382 367.989 171.637 368.376 172.147C368.759 172.657 368.95 173.318 368.95 174.132C368.95 174.703 368.849 175.209 368.646 175.649C368.444 176.088 368.163 176.433 367.802 176.684C367.437 176.93 367.044 177.053 366.622 177.053L366.622 175.833C367.031 175.811 367.356 175.649 367.598 175.345C367.835 175.037 367.954 174.633 367.954 174.132C367.954 173.67 367.862 173.301 367.677 173.024C367.488 172.742 367.237 172.602 366.925 172.602Z" fill="#263238"/>
<path d="M415.336 197.832L423.171 194.693L415.336 191.553L415.336 189.911L424.938 189.911L424.938 191.178L421.199 191.178L417.163 191.059L424.938 194.211L424.938 195.181L417.183 198.327L421.199 198.201L424.938 198.201L424.938 199.467L415.336 199.467L415.336 197.832ZM424.938 183.09C424.798 183.16 424.547 183.217 424.186 183.261C424.776 183.829 425.07 184.506 425.07 185.293C425.07 185.996 424.872 186.574 424.477 187.027C424.076 187.476 423.571 187.7 422.96 187.7C422.217 187.7 421.641 187.419 421.232 186.856C420.819 186.289 420.612 185.493 420.612 184.468L420.612 183.281L420.051 183.281C419.625 183.281 419.286 183.409 419.036 183.664C418.781 183.919 418.653 184.295 418.653 184.791C418.653 185.227 418.763 185.592 418.983 185.886C419.203 186.181 419.469 186.328 419.781 186.328L419.781 187.555C419.425 187.555 419.082 187.429 418.752 187.179C418.418 186.924 418.154 186.581 417.961 186.15C417.767 185.715 417.671 185.238 417.671 184.719C417.671 183.897 417.877 183.253 418.29 182.787C418.699 182.321 419.264 182.079 419.985 182.061L423.27 182.061C423.925 182.061 424.446 181.978 424.833 181.811L424.938 181.811L424.938 183.09ZM424.008 185.115C424.008 184.732 423.909 184.369 423.712 184.026C423.514 183.684 423.257 183.435 422.94 183.281L421.476 183.281L421.476 184.238C421.476 185.732 421.913 186.48 422.788 186.48C423.171 186.48 423.47 186.352 423.685 186.097C423.901 185.842 424.008 185.515 424.008 185.115ZM417.802 178.623L418.699 178.583C418.013 178.038 417.671 177.326 417.671 176.447C417.671 174.939 418.521 174.178 420.223 174.165L424.938 174.165L424.938 175.385L420.216 175.385C419.702 175.389 419.321 175.508 419.075 175.741C418.829 175.97 418.706 176.328 418.706 176.816C418.706 177.212 418.811 177.559 419.023 177.858C419.234 178.157 419.511 178.39 419.853 178.557L424.938 178.557L424.938 179.777L417.802 179.777L417.802 178.623ZM424.233 167.548C424.791 168.023 425.07 168.72 425.07 169.639C425.07 170.399 424.85 170.98 424.411 171.38C423.967 171.775 423.311 171.975 422.445 171.98L417.802 171.98L417.802 170.76L422.412 170.76C423.494 170.76 424.035 170.32 424.035 169.441C424.035 168.509 423.687 167.889 422.993 167.581L417.802 167.581L417.802 166.361L424.938 166.361L424.938 167.522L424.233 167.548ZM424.938 163.529L418.746 163.529L418.746 164.657L417.802 164.657L417.802 163.529L417.07 163.529C416.305 163.529 415.714 163.325 415.296 162.916C414.879 162.507 414.67 161.929 414.67 161.182C414.67 160.9 414.707 160.621 414.782 160.344L415.771 160.41C415.732 160.617 415.712 160.837 415.712 161.07C415.712 161.465 415.828 161.771 416.061 161.986C416.29 162.202 416.62 162.309 417.051 162.309L417.802 162.309L417.802 160.786L418.746 160.786L418.746 162.309L424.938 162.309L424.938 163.529ZM424.938 154.657C424.798 154.727 424.547 154.785 424.186 154.829C424.776 155.396 425.07 156.073 425.07 156.86C425.07 157.563 424.872 158.141 424.477 158.594C424.076 159.043 423.571 159.267 422.96 159.267C422.217 159.267 421.641 158.986 421.232 158.423C420.819 157.856 420.612 157.06 420.612 156.035L420.612 154.848L420.051 154.848C419.625 154.848 419.286 154.976 419.036 155.231C418.781 155.486 418.653 155.862 418.653 156.359C418.653 156.794 418.763 157.159 418.983 157.453C419.203 157.748 419.469 157.895 419.781 157.895L419.781 159.122C419.425 159.122 419.082 158.997 418.752 158.746C418.418 158.491 418.154 158.148 417.961 157.717C417.767 157.282 417.671 156.805 417.671 156.286C417.671 155.464 417.877 154.82 418.29 154.354C418.699 153.888 419.264 153.646 419.985 153.628L423.27 153.628C423.925 153.628 424.446 153.545 424.833 153.378L424.938 153.378L424.938 154.657ZM424.008 156.682C424.008 156.299 423.909 155.937 423.712 155.594C423.514 155.251 423.257 155.002 422.94 154.848L421.476 154.848L421.476 155.805C421.476 157.299 421.913 158.047 422.788 158.047C423.171 158.047 423.47 157.919 423.685 157.664C423.901 157.409 424.008 157.082 424.008 156.682ZM424.074 148.482C424.074 148.047 423.942 147.666 423.679 147.341C423.415 147.016 423.085 146.836 422.689 146.8L422.689 145.646C423.098 145.668 423.487 145.809 423.857 146.068C424.226 146.328 424.521 146.675 424.74 147.11C424.96 147.541 425.07 147.998 425.07 148.482C425.07 149.454 424.747 150.228 424.101 150.804C423.45 151.375 422.562 151.661 421.436 151.661L421.232 151.661C420.537 151.661 419.919 151.533 419.379 151.278C418.838 151.023 418.418 150.658 418.119 150.184C417.82 149.704 417.671 149.139 417.671 148.489C417.671 147.688 417.91 147.025 418.389 146.497C418.869 145.965 419.491 145.681 420.256 145.646L420.256 146.8C419.794 146.836 419.416 147.011 419.121 147.328C418.822 147.64 418.673 148.027 418.673 148.489C418.673 149.109 418.897 149.59 419.346 149.933C419.79 150.272 420.434 150.441 421.278 150.441L421.509 150.441C422.331 150.441 422.964 150.272 423.408 149.933C423.852 149.594 424.074 149.111 424.074 148.482ZM416.075 142.248L417.802 142.248L417.802 140.915L418.746 140.915L418.746 142.248L423.171 142.248C423.457 142.248 423.672 142.188 423.817 142.07C423.958 141.951 424.028 141.749 424.028 141.463C424.028 141.322 424.002 141.129 423.949 140.883L424.938 140.883C425.026 141.203 425.07 141.516 425.07 141.819C425.07 142.364 424.905 142.775 424.576 143.052C424.246 143.329 423.778 143.468 423.171 143.468L418.746 143.468L418.746 144.767L417.802 144.767L417.802 143.468L416.075 143.468L416.075 142.248ZM424.233 134.707C424.791 135.182 425.07 135.879 425.07 136.798C425.07 137.559 424.85 138.139 424.411 138.539C423.967 138.935 423.311 139.135 422.445 139.139L417.802 139.139L417.802 137.919L422.412 137.919C423.494 137.919 424.035 137.48 424.035 136.6C424.035 135.668 423.687 135.048 422.993 134.74L417.802 134.74L417.802 133.52L424.938 133.52L424.938 134.681L424.233 134.707ZM418.897 127.84C418.866 128.025 418.851 128.225 418.851 128.44C418.851 129.24 419.192 129.783 419.873 130.069L424.938 130.069L424.938 131.289L417.802 131.289L417.802 130.102L418.627 130.082C417.989 129.682 417.671 129.115 417.671 128.381C417.671 128.143 417.701 127.963 417.763 127.84L418.897 127.84ZM424.938 125.015L424.938 126.235L417.802 126.235L417.802 125.015L424.938 125.015ZM415.91 126.334C415.712 126.334 415.545 126.275 415.408 126.156C415.272 126.033 415.204 125.853 415.204 125.615C415.204 125.378 415.272 125.198 415.408 125.075C415.545 124.951 415.712 124.89 415.91 124.89C416.108 124.89 416.272 124.951 416.404 125.075C416.536 125.198 416.602 125.378 416.602 125.615C416.602 125.853 416.536 126.033 416.404 126.156C416.272 126.275 416.108 126.334 415.91 126.334ZM417.802 121.531L418.699 121.491C418.013 120.946 417.671 120.234 417.671 119.355C417.671 117.847 418.521 117.086 420.223 117.073L424.938 117.073L424.938 118.293L420.216 118.293C419.702 118.297 419.321 118.416 419.075 118.649C418.829 118.878 418.706 119.236 418.706 119.724C418.706 120.12 418.811 120.467 419.023 120.766C419.234 121.065 419.511 121.298 419.853 121.465L424.938 121.465L424.938 122.685L417.802 122.685L417.802 121.531ZM421.311 115.151C420.199 115.151 419.315 114.894 418.66 114.38C418 113.865 417.671 113.184 417.671 112.335C417.671 111.465 417.978 110.786 418.594 110.298L417.802 110.238L417.802 109.124L424.767 109.124C425.69 109.124 426.418 109.398 426.95 109.948C427.482 110.493 427.748 111.227 427.748 112.151C427.748 112.665 427.638 113.169 427.418 113.661C427.198 114.153 426.897 114.529 426.514 114.789L425.782 114.156C426.429 113.632 426.752 112.993 426.752 112.236C426.752 111.643 426.585 111.181 426.251 110.852C425.916 110.517 425.446 110.35 424.839 110.35L424.226 110.35C424.789 110.838 425.07 111.504 425.07 112.349C425.07 113.184 424.734 113.861 424.061 114.38C423.388 114.894 422.472 115.151 421.311 115.151ZM421.449 113.925C422.254 113.925 422.887 113.76 423.349 113.43C423.806 113.1 424.035 112.639 424.035 112.045C424.035 111.276 423.685 110.711 422.986 110.35L419.728 110.35C419.047 110.724 418.706 111.285 418.706 112.032C418.706 112.626 418.937 113.089 419.398 113.424C419.86 113.758 420.544 113.925 421.449 113.925Z" fill="#263238"/>
<path d="M482.468 181.114L482.468 185.137L484.974 186.041L484.974 187.347L475.372 183.68L475.372 182.572L484.974 178.898L484.974 180.198L482.468 181.114ZM481.426 184.755L481.426 181.49L476.935 183.126L481.426 184.755ZM481.347 177.716C480.234 177.716 479.351 177.459 478.695 176.944C478.036 176.43 477.706 175.748 477.706 174.9C477.706 174.029 478.014 173.35 478.629 172.862L477.838 172.803L477.838 171.688L484.802 171.688C485.726 171.688 486.453 171.963 486.985 172.512C487.517 173.058 487.783 173.792 487.783 174.715C487.783 175.229 487.673 175.733 487.454 176.225C487.234 176.718 486.933 177.094 486.55 177.353L485.818 176.72C486.464 176.197 486.788 175.557 486.788 174.801C486.788 174.207 486.62 173.746 486.286 173.416C485.952 173.082 485.482 172.915 484.875 172.915L484.262 172.915C484.824 173.403 485.106 174.069 485.106 174.913C485.106 175.748 484.769 176.425 484.097 176.944C483.424 177.459 482.507 177.716 481.347 177.716ZM481.485 176.489C482.29 176.489 482.923 176.324 483.384 175.994C483.842 175.665 484.07 175.203 484.07 174.61C484.07 173.84 483.721 173.275 483.022 172.915L479.764 172.915C479.082 173.288 478.742 173.849 478.742 174.596C478.742 175.19 478.972 175.654 479.434 175.988C479.896 176.322 480.579 176.489 481.485 176.489ZM478.933 166.021C478.902 166.205 478.887 166.405 478.887 166.621C478.887 167.421 479.227 167.964 479.909 168.25L484.974 168.25L484.974 169.47L477.838 169.47L477.838 168.283L478.662 168.263C478.025 167.863 477.706 167.296 477.706 166.562C477.706 166.324 477.737 166.144 477.799 166.021L478.933 166.021ZM484.974 163.196L484.974 164.416L477.838 164.416L477.838 163.196L484.974 163.196ZM475.945 164.515C475.747 164.515 475.58 164.456 475.444 164.337C475.308 164.214 475.24 164.034 475.24 163.796C475.24 163.559 475.308 163.378 475.444 163.255C475.58 163.132 475.747 163.071 475.945 163.071C476.143 163.071 476.308 163.132 476.44 163.255C476.572 163.378 476.638 163.559 476.638 163.796C476.638 164.034 476.572 164.214 476.44 164.337C476.308 164.456 476.143 164.515 475.945 164.515ZM484.11 158.004C484.11 157.568 483.978 157.188 483.714 156.863C483.45 156.537 483.121 156.357 482.725 156.322L482.725 155.168C483.134 155.19 483.523 155.33 483.892 155.59C484.262 155.849 484.556 156.197 484.776 156.632C484.996 157.063 485.106 157.52 485.106 158.004C485.106 158.975 484.783 159.749 484.136 160.325C483.486 160.897 482.597 161.182 481.472 161.182L481.267 161.182C480.573 161.182 479.955 161.055 479.414 160.8C478.874 160.545 478.454 160.18 478.155 159.705C477.856 159.226 477.706 158.661 477.706 158.01C477.706 157.21 477.946 156.546 478.425 156.018C478.904 155.487 479.526 155.203 480.291 155.168L480.291 156.322C479.83 156.357 479.452 156.533 479.157 156.849C478.858 157.162 478.709 157.549 478.709 158.01C478.709 158.63 478.933 159.112 479.381 159.454C479.825 159.793 480.469 159.962 481.314 159.962L481.544 159.962C482.367 159.962 483 159.793 483.444 159.454C483.888 159.116 484.11 158.632 484.11 158.004ZM484.268 149.019C484.827 149.494 485.106 150.191 485.106 151.11C485.106 151.87 484.886 152.451 484.446 152.851C484.002 153.246 483.347 153.447 482.481 153.451L477.838 153.451L477.838 152.231L482.448 152.231C483.53 152.231 484.07 151.791 484.07 150.912C484.07 149.98 483.723 149.36 483.028 149.052L477.838 149.052L477.838 147.832L484.974 147.832L484.974 148.993L484.268 149.019ZM484.974 144.275L484.974 145.495L474.844 145.495L474.844 144.275L484.974 144.275ZM476.11 140.29L477.838 140.29L477.838 138.958L478.781 138.958L478.781 140.29L483.206 140.29C483.492 140.29 483.708 140.23 483.853 140.112C483.993 139.993 484.064 139.791 484.064 139.505C484.064 139.364 484.037 139.171 483.985 138.925L484.974 138.925C485.062 139.245 485.106 139.558 485.106 139.861C485.106 140.406 484.941 140.817 484.611 141.094C484.281 141.371 483.813 141.51 483.206 141.51L478.781 141.51L478.781 142.809L477.838 142.809L477.838 141.51L476.11 141.51L476.11 140.29ZM484.268 132.749C484.827 133.224 485.106 133.921 485.106 134.84C485.106 135.601 484.886 136.181 484.446 136.581C484.002 136.977 483.347 137.177 482.481 137.181L477.838 137.181L477.838 135.961L482.448 135.961C483.53 135.961 484.07 135.522 484.07 134.642C484.07 133.71 483.723 133.09 483.028 132.782L477.838 132.782L477.838 131.562L484.974 131.562L484.974 132.723L484.268 132.749ZM478.933 125.882C478.902 126.067 478.887 126.267 478.887 126.482C478.887 127.282 479.227 127.825 479.909 128.111L484.974 128.111L484.974 129.331L477.838 129.331L477.838 128.144L478.662 128.124C478.025 127.724 477.706 127.157 477.706 126.423C477.706 126.185 477.737 126.005 477.799 125.882L478.933 125.882ZM485.106 121.554C485.106 122.521 484.789 123.308 484.156 123.915C483.519 124.521 482.668 124.825 481.604 124.825L481.38 124.825C480.672 124.825 480.041 124.691 479.487 124.422C478.928 124.15 478.493 123.772 478.181 123.288C477.864 122.8 477.706 122.272 477.706 121.705C477.706 120.778 478.012 120.056 478.623 119.542C479.234 119.028 480.109 118.77 481.248 118.77L481.756 118.77L481.756 123.605C482.459 123.587 483.028 123.383 483.464 122.991C483.894 122.596 484.11 122.094 484.11 121.488C484.11 121.057 484.022 120.692 483.846 120.393C483.67 120.094 483.437 119.832 483.147 119.608L483.727 118.863C484.646 119.461 485.106 120.358 485.106 121.554ZM478.709 121.705C478.709 122.198 478.889 122.611 479.249 122.945C479.606 123.279 480.107 123.486 480.753 123.565L480.753 119.991L480.661 119.991C480.041 120.026 479.562 120.193 479.223 120.492C478.88 120.791 478.709 121.195 478.709 121.705Z" fill="#263238"/>
<path d="M547.295 251.597L547.295 255.627L551.535 255.627L551.535 256.893L541.933 256.893L541.933 250.945L542.975 250.945L542.975 255.627L546.259 255.627L546.259 251.597L547.295 251.597ZM551.535 247.922L551.535 249.142L544.399 249.142L544.399 247.922L551.535 247.922ZM542.507 249.241C542.309 249.241 542.142 249.182 542.005 249.063C541.869 248.94 541.801 248.76 541.801 248.522C541.801 248.285 541.869 248.104 542.005 247.981C542.142 247.858 542.309 247.797 542.507 247.797C542.704 247.797 542.869 247.858 543.001 247.981C543.133 248.104 543.199 248.285 543.199 248.522C543.199 248.76 543.133 248.94 543.001 249.063C542.869 249.182 542.704 249.241 542.507 249.241ZM549.642 241.437C549.313 241.437 549.058 241.562 548.877 241.813C548.693 242.059 548.534 242.492 548.403 243.112C548.271 243.728 548.112 244.218 547.928 244.583C547.743 244.943 547.523 245.211 547.268 245.387C547.013 245.559 546.71 245.645 546.358 245.645C545.773 245.645 545.279 245.398 544.874 244.906C544.47 244.409 544.267 243.776 544.267 243.007C544.267 242.198 544.476 241.542 544.894 241.041C545.312 240.536 545.846 240.283 546.497 240.283L546.497 241.509C546.162 241.509 545.874 241.652 545.633 241.938C545.391 242.22 545.27 242.576 545.27 243.007C545.27 243.451 545.367 243.798 545.56 244.049C545.754 244.299 546.006 244.424 546.319 244.424C546.613 244.424 546.835 244.308 546.985 244.075C547.134 243.842 547.277 243.422 547.413 242.815C547.55 242.204 547.712 241.71 547.901 241.331C548.09 240.953 548.319 240.674 548.587 240.494C548.851 240.309 549.174 240.217 549.557 240.217C550.194 240.217 550.706 240.472 551.093 240.982C551.476 241.492 551.667 242.154 551.667 242.967C551.667 243.539 551.566 244.044 551.364 244.484C551.161 244.924 550.88 245.269 550.52 245.519C550.155 245.765 549.761 245.889 549.339 245.889L549.339 244.669C549.748 244.647 550.073 244.484 550.315 244.18C550.553 243.873 550.671 243.468 550.671 242.967C550.671 242.505 550.579 242.136 550.394 241.859C550.205 241.578 549.955 241.437 549.642 241.437ZM545.263 237.036C544.599 236.495 544.267 235.792 544.267 234.926C544.267 233.418 545.118 232.657 546.82 232.644L551.535 232.644L551.535 233.864L546.813 233.864C546.299 233.868 545.918 233.987 545.672 234.22C545.426 234.449 545.303 234.807 545.303 235.295C545.303 235.691 545.408 236.038 545.619 236.337C545.83 236.636 546.107 236.869 546.45 237.036L551.535 237.036L551.535 238.256L541.405 238.256L541.405 237.036L545.263 237.036ZM551.667 227.484C551.667 228.452 551.35 229.239 550.717 229.845C550.08 230.452 549.229 230.755 548.165 230.755L547.941 230.755C547.233 230.755 546.602 230.621 546.048 230.353C545.49 230.081 545.054 229.702 544.742 229.219C544.426 228.731 544.267 228.203 544.267 227.636C544.267 226.708 544.573 225.987 545.184 225.473C545.795 224.958 546.67 224.701 547.809 224.701L548.317 224.701L548.317 229.535C549.02 229.518 549.59 229.313 550.025 228.922C550.456 228.526 550.671 228.025 550.671 227.418C550.671 226.987 550.583 226.623 550.407 226.324C550.232 226.025 549.999 225.763 549.708 225.539L550.289 224.794C551.208 225.391 551.667 226.288 551.667 227.484ZM545.27 227.636C545.27 228.128 545.45 228.542 545.811 228.876C546.167 229.21 546.668 229.417 547.314 229.496L547.314 225.921L547.222 225.921C546.602 225.956 546.123 226.124 545.784 226.423C545.441 226.721 545.27 227.126 545.27 227.636ZM545.494 219.463C545.463 219.647 545.448 219.847 545.448 220.063C545.448 220.863 545.789 221.406 546.47 221.692L551.535 221.692L551.535 222.912L544.399 222.912L544.399 221.725L545.224 221.705C544.586 221.305 544.267 220.738 544.267 220.003C544.267 219.766 544.298 219.586 544.36 219.463L545.494 219.463ZM551.535 216.638L551.535 217.858L544.399 217.858L544.399 216.638L551.535 216.638ZM542.507 217.957C542.309 217.957 542.142 217.898 542.005 217.779C541.869 217.656 541.801 217.475 541.801 217.238C541.801 217.001 541.869 216.82 542.005 216.697C542.142 216.574 542.309 216.513 542.507 216.513C542.704 216.513 542.869 216.574 543.001 216.697C543.133 216.82 543.199 217.001 543.199 217.238C543.199 217.475 543.133 217.656 543.001 217.779C542.869 217.898 542.704 217.957 542.507 217.957ZM551.667 211.347C551.667 212.314 551.35 213.101 550.717 213.708C550.08 214.314 549.229 214.618 548.165 214.618L547.941 214.618C547.233 214.618 546.602 214.484 546.048 214.215C545.49 213.943 545.054 213.565 544.742 213.081C544.426 212.593 544.267 212.065 544.267 211.498C544.267 210.571 544.573 209.85 545.184 209.335C545.795 208.821 546.67 208.564 547.809 208.564L548.317 208.564L548.317 213.398C549.02 213.38 549.59 213.176 550.025 212.784C550.456 212.389 550.671 211.887 550.671 211.281C550.671 210.85 550.583 210.485 550.407 210.186C550.232 209.887 549.999 209.625 549.708 209.401L550.289 208.656C551.208 209.254 551.667 210.151 551.667 211.347ZM545.27 211.498C545.27 211.991 545.45 212.404 545.811 212.738C546.167 213.072 546.668 213.279 547.314 213.358L547.314 209.784L547.222 209.784C546.602 209.819 546.123 209.986 545.784 210.285C545.441 210.584 545.27 210.988 545.27 211.498ZM549.642 202.619C549.313 202.619 549.058 202.745 548.877 202.995C548.693 203.241 548.534 203.675 548.403 204.294C548.271 204.91 548.112 205.4 547.928 205.765C547.743 206.126 547.523 206.394 547.268 206.57C547.013 206.741 546.71 206.827 546.358 206.827C545.773 206.827 545.279 206.581 544.874 206.088C544.47 205.591 544.267 204.958 544.267 204.189C544.267 203.38 544.476 202.725 544.894 202.224C545.312 201.718 545.846 201.465 546.497 201.465L546.497 202.692C546.162 202.692 545.874 202.835 545.633 203.121C545.391 203.402 545.27 203.758 545.27 204.189C545.27 204.633 545.367 204.98 545.56 205.231C545.754 205.482 546.006 205.607 546.319 205.607C546.613 205.607 546.835 205.49 546.985 205.257C547.134 205.024 547.277 204.604 547.413 203.998C547.55 203.387 547.712 202.892 547.901 202.514C548.09 202.136 548.319 201.856 548.587 201.676C548.851 201.492 549.174 201.399 549.557 201.399C550.194 201.399 550.706 201.654 551.093 202.164C551.476 202.674 551.667 203.336 551.667 204.149C551.667 204.721 551.566 205.227 551.364 205.666C551.161 206.106 550.88 206.451 550.52 206.702C550.155 206.948 549.761 207.071 549.339 207.071L549.339 205.851C549.748 205.829 550.073 205.666 550.315 205.363C550.552 205.055 550.671 204.651 550.671 204.149C550.671 203.688 550.579 203.318 550.394 203.041C550.205 202.76 549.955 202.619 549.642 202.619Z" fill="#263238"/>
<path d="M611.571 147.713L611.571 148.986L607.132 148.986L607.132 153.826L611.571 153.826L611.571 155.092L601.968 155.092L601.968 153.826L606.097 153.826L606.097 148.986L601.968 148.986L601.968 147.713L611.571 147.713ZM607.937 145.607C607.238 145.607 606.609 145.47 606.051 145.198C605.492 144.921 605.062 144.538 604.758 144.05C604.455 143.558 604.303 142.997 604.303 142.369C604.303 141.397 604.639 140.612 605.312 140.014C605.985 139.412 606.88 139.111 607.996 139.111L608.082 139.111C608.777 139.111 609.401 139.245 609.955 139.513C610.505 139.777 610.933 140.157 611.241 140.654C611.549 141.146 611.703 141.714 611.703 142.355C611.703 143.323 611.366 144.107 610.694 144.71C610.021 145.308 609.131 145.607 608.023 145.607L607.937 145.607ZM608.082 144.38C608.873 144.38 609.509 144.198 609.988 143.833C610.467 143.463 610.707 142.971 610.707 142.355C610.707 141.735 610.465 141.243 609.981 140.878C609.493 140.513 608.812 140.331 607.937 140.331C607.154 140.331 606.521 140.518 606.038 140.891C605.55 141.261 605.306 141.753 605.306 142.369C605.306 142.971 605.545 143.457 606.024 143.826C606.504 144.195 607.19 144.38 608.082 144.38ZM605.53 133.76C605.499 133.945 605.484 134.145 605.484 134.36C605.484 135.16 605.824 135.703 606.506 135.989L611.571 135.989L611.571 137.209L604.435 137.209L604.435 136.022L605.259 136.002C604.622 135.602 604.303 135.035 604.303 134.301C604.303 134.063 604.334 133.883 604.395 133.76L605.53 133.76ZM602.707 130.276L604.435 130.276L604.435 128.944L605.378 128.944L605.378 130.276L609.803 130.276C610.089 130.276 610.305 130.216 610.45 130.098C610.59 129.979 610.661 129.777 610.661 129.491C610.661 129.35 610.634 129.157 610.582 128.911L611.571 128.911C611.659 129.232 611.703 129.544 611.703 129.847C611.703 130.392 611.538 130.803 611.208 131.08C610.878 131.357 610.41 131.496 609.803 131.496L605.378 131.496L605.378 132.795L604.435 132.795L604.435 131.496L602.707 131.496L602.707 130.276ZM611.571 125.815L611.571 127.036L604.435 127.036L604.435 125.815L611.571 125.815ZM602.542 127.134C602.344 127.134 602.177 127.075 602.041 126.956C601.905 126.833 601.837 126.653 601.837 126.416C601.837 126.178 601.905 125.998 602.041 125.875C602.177 125.752 602.344 125.69 602.542 125.69C602.74 125.69 602.905 125.752 603.037 125.875C603.169 125.998 603.235 126.178 603.235 126.416C603.235 126.653 603.169 126.833 603.037 126.956C602.905 127.075 602.74 127.134 602.542 127.134ZM610.707 120.623C610.707 120.188 610.575 119.807 610.311 119.482C610.047 119.157 609.718 118.977 609.322 118.941L609.322 117.787C609.731 117.809 610.12 117.95 610.489 118.209C610.859 118.469 611.153 118.816 611.373 119.251C611.593 119.682 611.703 120.139 611.703 120.623C611.703 121.595 611.38 122.369 610.733 122.944C610.083 123.516 609.194 123.802 608.069 123.802L607.864 123.802C607.17 123.802 606.552 123.674 606.011 123.419C605.47 123.164 605.051 122.799 604.752 122.325C604.453 121.845 604.303 121.28 604.303 120.63C604.303 119.829 604.543 119.166 605.022 118.638C605.501 118.106 606.123 117.822 606.888 117.787L606.888 118.941C606.427 118.977 606.049 119.152 605.754 119.469C605.455 119.781 605.306 120.168 605.306 120.63C605.306 121.25 605.53 121.731 605.978 122.074C606.422 122.412 607.066 122.582 607.911 122.582L608.141 122.582C608.964 122.582 609.597 122.412 610.041 122.074C610.485 121.735 610.707 121.252 610.707 120.623ZM610.865 111.639C611.424 112.113 611.703 112.81 611.703 113.729C611.703 114.49 611.483 115.07 611.043 115.47C610.599 115.866 609.944 116.066 609.078 116.07L604.435 116.07L604.435 114.85L609.045 114.85C610.126 114.85 610.667 114.411 610.667 113.531C610.667 112.599 610.32 111.979 609.625 111.672L604.435 111.672L604.435 110.451L611.571 110.451L611.571 111.612L610.865 111.639ZM611.571 106.895L611.571 108.115L601.441 108.115L601.441 106.895L611.571 106.895ZM602.707 102.909L604.435 102.909L604.435 101.577L605.378 101.577L605.378 102.909L609.803 102.909C610.089 102.909 610.305 102.85 610.45 102.731C610.59 102.612 610.661 102.41 610.661 102.124C610.661 101.984 610.634 101.79 610.582 101.544L611.571 101.544C611.659 101.865 611.703 102.177 611.703 102.48C611.703 103.026 611.538 103.437 611.208 103.714C610.878 103.991 610.41 104.129 609.803 104.129L605.378 104.129L605.378 105.428L604.435 105.428L604.435 104.129L602.707 104.129L602.707 102.909ZM610.865 95.369C611.424 95.8438 611.703 96.5407 611.703 97.4596C611.703 98.2202 611.483 98.8006 611.043 99.2007C610.599 99.5964 609.944 99.7964 609.078 99.8008L604.435 99.8008L604.435 98.5807L609.045 98.5807C610.126 98.5807 610.667 98.1411 610.667 97.2617C610.667 96.3296 610.32 95.7097 609.625 95.4019L604.435 95.4019L604.435 94.1819L611.571 94.1819L611.571 95.3426L610.865 95.369ZM605.53 88.5015C605.499 88.6861 605.484 88.8862 605.484 89.1016C605.484 89.9018 605.824 90.4448 606.506 90.7306L611.571 90.7306L611.571 91.9506L604.435 91.9506L604.435 90.7635L605.259 90.7438C604.622 90.3437 604.303 89.7765 604.303 89.0422C604.303 88.8048 604.334 88.6246 604.395 88.5015L605.53 88.5015ZM611.703 84.173C611.703 85.1403 611.386 85.9273 610.753 86.534C610.116 87.1408 609.265 87.4441 608.201 87.4441L607.977 87.4441C607.269 87.4441 606.638 87.31 606.084 87.0418C605.525 86.7693 605.09 86.3911 604.778 85.9075C604.461 85.4195 604.303 84.8919 604.303 84.3247C604.303 83.397 604.609 82.676 605.22 82.1616C605.831 81.6471 606.706 81.3899 607.845 81.3899L608.352 81.3899L608.352 86.2241C609.056 86.2065 609.625 86.002 610.061 85.6107C610.491 85.215 610.707 84.7138 610.707 84.1071C610.707 83.6762 610.619 83.3113 610.443 83.0123C610.267 82.7133 610.034 82.4517 609.744 82.2275L610.324 81.4823C611.243 82.0802 611.703 82.9771 611.703 84.173ZM605.306 84.3247C605.306 84.8171 605.486 85.2304 605.846 85.5646C606.202 85.8987 606.704 86.1054 607.35 86.1845L607.35 82.61L607.258 82.61C606.638 82.6452 606.159 82.8123 605.82 83.1112C605.477 83.4102 605.306 83.8147 605.306 84.3247Z" fill="#263238"/>
</svg>
