<svg width="655" height="374" viewBox="0 0 655 374" fill="none" xmlns="http://www.w3.org/2000/svg">
<rect x="0.817871" y="1" width="653.216" height="371.791" rx="6.4547" fill="white" stroke="#E5E5E5" stroke-width="1.29094"/>
<path d="M605 107.094H603.63V98.0112L600.882 99.0203V97.7828L604.786 96.3169H605V107.094ZM614.843 96.3611V97.5176H614.593C613.532 97.5373 612.687 97.8516 612.059 98.4605C611.43 99.0694 611.067 99.9264 610.969 101.031C611.533 100.383 612.304 100.059 613.282 100.059C614.215 100.059 614.959 100.388 615.514 101.046C616.073 101.704 616.353 102.554 616.353 103.595C616.353 104.7 616.051 105.584 615.447 106.247C614.848 106.91 614.043 107.241 613.031 107.241C612.005 107.241 611.172 106.848 610.534 106.062C609.896 105.272 609.576 104.255 609.576 103.013V102.49C609.576 100.516 609.996 99.0081 610.836 97.967C611.681 96.9209 612.935 96.3857 614.6 96.3611H614.843ZM613.053 101.193C612.587 101.193 612.157 101.333 611.764 101.613C611.371 101.893 611.099 102.244 610.946 102.667V103.168C610.946 104.051 611.145 104.764 611.543 105.304C611.941 105.844 612.437 106.114 613.031 106.114C613.645 106.114 614.126 105.888 614.475 105.436C614.828 104.985 615.005 104.393 615.005 103.661C615.005 102.924 614.826 102.33 614.468 101.878C614.114 101.422 613.642 101.193 613.053 101.193ZM624.974 99.1677C624.974 99.7029 624.831 100.179 624.547 100.597C624.267 101.014 623.886 101.341 623.405 101.576C623.965 101.817 624.407 102.168 624.731 102.63C625.06 103.091 625.224 103.614 625.224 104.199C625.224 105.127 624.91 105.866 624.281 106.416C623.658 106.966 622.835 107.241 621.814 107.241C620.782 107.241 619.955 106.966 619.331 106.416C618.712 105.861 618.403 105.122 618.403 104.199C618.403 103.619 618.56 103.096 618.874 102.63C619.194 102.163 619.633 101.81 620.193 101.569C619.717 101.333 619.341 101.007 619.066 100.589C618.791 100.172 618.653 99.698 618.653 99.1677C618.653 98.2641 618.943 97.5471 619.523 97.0167C620.102 96.4863 620.866 96.2212 621.814 96.2212C622.757 96.2212 623.518 96.4863 624.097 97.0167C624.682 97.5471 624.974 98.2641 624.974 99.1677ZM623.861 104.169C623.861 103.57 623.67 103.082 623.287 102.703C622.909 102.325 622.413 102.136 621.799 102.136C621.185 102.136 620.691 102.323 620.318 102.696C619.95 103.069 619.766 103.56 619.766 104.169C619.766 104.778 619.945 105.257 620.304 105.606C620.667 105.954 621.17 106.129 621.814 106.129C622.452 106.129 622.953 105.954 623.316 105.606C623.68 105.252 623.861 104.773 623.861 104.169ZM621.814 97.3408C621.278 97.3408 620.844 97.5078 620.51 97.8417C620.181 98.1708 620.016 98.6201 620.016 99.1898C620.016 99.7349 620.178 100.177 620.502 100.516C620.831 100.85 621.269 101.017 621.814 101.017C622.359 101.017 622.793 100.85 623.117 100.516C623.446 100.177 623.611 99.7349 623.611 99.1898C623.611 98.6447 623.442 98.2002 623.103 97.8565C622.764 97.5127 622.334 97.3408 621.814 97.3408Z" fill="#263238"/>
<path d="M575.6 138.035H574.229V128.953L571.482 129.962V128.724L575.386 127.258H575.6V138.035ZM580.721 132.658L581.266 127.31H586.761V128.57H582.423L582.099 131.494C582.624 131.185 583.221 131.03 583.889 131.03C584.866 131.03 585.642 131.354 586.216 132.002C586.791 132.646 587.078 133.517 587.078 134.617C587.078 135.722 586.779 136.594 586.179 137.232C585.585 137.866 584.753 138.182 583.682 138.182C582.734 138.182 581.961 137.92 581.362 137.394C580.763 136.869 580.421 136.142 580.338 135.214H581.627C581.711 135.828 581.929 136.292 582.283 136.606C582.636 136.915 583.103 137.07 583.682 137.07C584.316 137.07 584.812 136.854 585.17 136.422C585.534 135.99 585.715 135.393 585.715 134.632C585.715 133.915 585.519 133.34 585.126 132.908C584.738 132.471 584.22 132.253 583.572 132.253C582.978 132.253 582.511 132.383 582.172 132.643L581.811 132.938L580.721 132.658ZM595.794 133.461C595.794 135.057 595.522 136.243 594.977 137.019C594.432 137.795 593.58 138.182 592.421 138.182C591.276 138.182 590.429 137.804 589.879 137.048C589.329 136.287 589.044 135.152 589.025 133.645V131.825C589.025 130.249 589.297 129.078 589.842 128.312C590.388 127.546 591.242 127.163 592.406 127.163C593.56 127.163 594.409 127.533 594.955 128.275C595.5 129.011 595.78 130.151 595.794 131.693V133.461ZM594.432 131.597C594.432 130.443 594.27 129.603 593.945 129.078C593.621 128.547 593.108 128.282 592.406 128.282C591.709 128.282 591.2 128.545 590.881 129.07C590.562 129.596 590.397 130.404 590.388 131.494V133.674C590.388 134.833 590.554 135.69 590.888 136.245C591.227 136.795 591.738 137.07 592.421 137.07C593.093 137.07 593.592 136.81 593.916 136.289C594.245 135.769 594.417 134.949 594.432 133.829V131.597Z" fill="#263238"/>
<path d="M520.562 168.977H519.192V159.894L516.444 160.903V159.666L520.348 158.2H520.562V168.977ZM525.683 163.599L526.229 158.251H531.724V159.511H527.385L527.061 162.435C527.586 162.126 528.183 161.971 528.851 161.971C529.828 161.971 530.604 162.295 531.179 162.944C531.753 163.587 532.041 164.459 532.041 165.559C532.041 166.664 531.741 167.535 531.142 168.174C530.548 168.807 529.715 169.124 528.645 169.124C527.697 169.124 526.923 168.861 526.324 168.336C525.725 167.81 525.384 167.083 525.3 166.155H526.589C526.673 166.769 526.891 167.233 527.245 167.548C527.599 167.857 528.065 168.012 528.645 168.012C529.278 168.012 529.774 167.796 530.133 167.363C530.496 166.931 530.678 166.335 530.678 165.573C530.678 164.856 530.481 164.282 530.088 163.85C529.7 163.413 529.182 163.194 528.534 163.194C527.94 163.194 527.473 163.324 527.135 163.584L526.774 163.879L525.683 163.599ZM534.657 163.599L535.203 158.251H540.698V159.511H536.359L536.035 162.435C536.56 162.126 537.157 161.971 537.825 161.971C538.802 161.971 539.578 162.295 540.153 162.944C540.727 163.587 541.015 164.459 541.015 165.559C541.015 166.664 540.715 167.535 540.116 168.174C539.522 168.807 538.689 169.124 537.619 169.124C536.671 169.124 535.897 168.861 535.298 168.336C534.699 167.81 534.358 167.083 534.274 166.155H535.564C535.647 166.769 535.866 167.233 536.219 167.548C536.573 167.857 537.039 168.012 537.619 168.012C538.252 168.012 538.748 167.796 539.107 167.363C539.47 166.931 539.652 166.335 539.652 165.573C539.652 164.856 539.455 164.282 539.063 163.85C538.675 163.413 538.156 163.194 537.508 163.194C536.914 163.194 536.447 163.324 536.109 163.584L535.748 163.879L534.657 163.599Z" fill="#263238"/>
<path d="M344.7 196.318H346.188V197.43H344.7V199.92H343.33V197.43H338.446V196.627L343.249 189.195H344.7V196.318ZM339.993 196.318H343.33V191.058L343.168 191.353L339.993 196.318ZM354.646 195.345C354.646 196.941 354.374 198.127 353.829 198.903C353.283 199.679 352.431 200.067 351.272 200.067C350.128 200.067 349.281 199.689 348.731 198.933C348.181 198.172 347.896 197.037 347.877 195.53V193.71C347.877 192.134 348.149 190.963 348.694 190.196C349.239 189.43 350.094 189.047 351.258 189.047C352.412 189.047 353.261 189.418 353.806 190.16C354.352 190.896 354.631 192.036 354.646 193.578V195.345ZM353.283 193.482C353.283 192.328 353.121 191.488 352.797 190.963C352.473 190.432 351.96 190.167 351.258 190.167C350.56 190.167 350.052 190.43 349.733 190.955C349.414 191.481 349.249 192.288 349.239 193.379V195.559C349.239 196.718 349.406 197.575 349.74 198.13C350.079 198.68 350.59 198.955 351.272 198.955C351.945 198.955 352.444 198.695 352.768 198.174C353.097 197.654 353.269 196.833 353.283 195.714V193.482Z" fill="#263238"/>
<path d="M283.16 225.484L283.705 220.136H289.2V221.396H284.861L284.537 224.32C285.063 224.011 285.659 223.856 286.327 223.856C287.305 223.856 288.08 224.18 288.655 224.828C289.23 225.472 289.517 226.343 289.517 227.443C289.517 228.548 289.217 229.42 288.618 230.058C288.024 230.692 287.192 231.009 286.121 231.009C285.173 231.009 284.4 230.746 283.801 230.22C283.202 229.695 282.86 228.968 282.777 228.04H284.066C284.149 228.654 284.368 229.118 284.721 229.432C285.075 229.742 285.542 229.896 286.121 229.896C286.755 229.896 287.25 229.68 287.609 229.248C287.972 228.816 288.154 228.219 288.154 227.458C288.154 226.741 287.958 226.167 287.565 225.734C287.177 225.297 286.659 225.079 286.011 225.079C285.416 225.079 284.95 225.209 284.611 225.469L284.25 225.764L283.16 225.484ZM298.233 226.287C298.233 227.883 297.961 229.069 297.415 229.845C296.87 230.621 296.018 231.009 294.859 231.009C293.715 231.009 292.868 230.631 292.318 229.874C291.768 229.113 291.483 227.979 291.464 226.471V224.652C291.464 223.075 291.736 221.904 292.281 221.138C292.826 220.372 293.681 219.989 294.845 219.989C295.999 219.989 296.848 220.36 297.393 221.101C297.938 221.838 298.218 222.977 298.233 224.519V226.287ZM296.87 224.423C296.87 223.269 296.708 222.429 296.384 221.904C296.06 221.374 295.547 221.108 294.845 221.108C294.147 221.108 293.639 221.371 293.32 221.897C293.001 222.422 292.836 223.23 292.826 224.32V226.501C292.826 227.659 292.993 228.516 293.327 229.071C293.666 229.621 294.177 229.896 294.859 229.896C295.532 229.896 296.031 229.636 296.355 229.116C296.684 228.595 296.856 227.775 296.87 226.655V224.423Z" fill="#263238"/>
<path d="M224.993 258.201H226.481V259.313H224.993V261.803H223.623V259.313H218.739V258.51L223.542 251.077H224.993V258.201ZM220.286 258.201H223.623V252.941L223.461 253.236L220.286 258.201ZM228.84 256.425L229.385 251.077H234.881V252.337H230.542L230.218 255.261C230.743 254.952 231.34 254.797 232.008 254.797C232.985 254.797 233.761 255.122 234.336 255.77C234.91 256.413 235.197 257.285 235.197 258.385C235.197 259.49 234.898 260.361 234.299 261C233.705 261.633 232.872 261.95 231.802 261.95C230.854 261.95 230.08 261.687 229.481 261.162C228.882 260.636 228.541 259.91 228.457 258.981H229.746C229.83 259.595 230.048 260.059 230.402 260.374C230.756 260.683 231.222 260.838 231.802 260.838C232.435 260.838 232.931 260.622 233.29 260.19C233.653 259.757 233.835 259.161 233.835 258.4C233.835 257.683 233.638 257.108 233.245 256.676C232.857 256.239 232.339 256.02 231.691 256.02C231.097 256.02 230.63 256.15 230.292 256.411L229.931 256.705L228.84 256.425Z" fill="#263238"/>
<path d="M202.774 282.787L198.332 292.746H196.903L201.33 283.14H195.525V282.021H202.774V282.787ZM211.549 288.172C211.549 289.768 211.276 290.954 210.731 291.73C210.186 292.505 209.334 292.893 208.175 292.893C207.031 292.893 206.184 292.515 205.634 291.759C205.084 290.998 204.799 289.863 204.779 288.356V286.536C204.779 284.96 205.052 283.789 205.597 283.023C206.142 282.257 206.997 281.873 208.161 281.873C209.315 281.873 210.164 282.244 210.709 282.986C211.254 283.722 211.534 284.862 211.549 286.404V288.172ZM210.186 286.308C210.186 285.154 210.024 284.314 209.7 283.789C209.376 283.258 208.863 282.993 208.161 282.993C207.463 282.993 206.955 283.256 206.636 283.781C206.317 284.307 206.152 285.115 206.142 286.205V288.385C206.142 289.544 206.309 290.401 206.643 290.956C206.982 291.506 207.493 291.781 208.175 291.781C208.848 291.781 209.346 291.521 209.671 291C210 290.48 210.172 289.66 210.186 288.54V286.308Z" fill="#263238"/>
<path d="M177.192 317.662H178.216C178.859 317.652 179.365 317.483 179.733 317.154C180.102 316.825 180.286 316.38 180.286 315.82C180.286 314.563 179.66 313.935 178.407 313.935C177.818 313.935 177.347 314.104 176.993 314.443C176.644 314.777 176.47 315.221 176.47 315.776H175.107C175.107 314.927 175.417 314.222 176.035 313.662C176.659 313.097 177.45 312.815 178.407 312.815C179.419 312.815 180.212 313.083 180.787 313.618C181.361 314.153 181.649 314.897 181.649 315.85C181.649 316.316 181.496 316.768 181.192 317.205C180.892 317.642 180.482 317.969 179.962 318.185C180.551 318.372 181.005 318.681 181.324 319.113C181.649 319.545 181.811 320.073 181.811 320.697C181.811 321.659 181.496 322.423 180.868 322.988C180.239 323.552 179.421 323.835 178.415 323.835C177.408 323.835 176.588 323.562 175.954 323.017C175.326 322.472 175.012 321.753 175.012 320.859H176.382C176.382 321.424 176.566 321.875 176.934 322.214C177.302 322.553 177.796 322.723 178.415 322.723C179.073 322.723 179.576 322.551 179.925 322.207C180.273 321.863 180.448 321.37 180.448 320.726C180.448 320.103 180.256 319.624 179.873 319.29C179.49 318.956 178.938 318.784 178.216 318.774H177.192V317.662ZM184.811 318.31L185.356 312.962H190.851V314.222H186.512L186.188 317.146C186.714 316.837 187.31 316.682 187.978 316.682C188.955 316.682 189.731 317.006 190.306 317.655C190.88 318.298 191.168 319.17 191.168 320.27C191.168 321.374 190.868 322.246 190.269 322.885C189.675 323.518 188.842 323.835 187.772 323.835C186.824 323.835 186.051 323.572 185.451 323.047C184.852 322.521 184.511 321.794 184.428 320.866H185.717C185.8 321.48 186.019 321.944 186.372 322.258C186.726 322.568 187.192 322.723 187.772 322.723C188.405 322.723 188.901 322.506 189.26 322.074C189.623 321.642 189.805 321.045 189.805 320.284C189.805 319.567 189.608 318.993 189.216 318.561C188.828 318.124 188.31 317.905 187.661 317.905C187.067 317.905 186.601 318.035 186.262 318.295L185.901 318.59L184.811 318.31Z" fill="#263238"/>
<rect x="31.0088" y="84.9316" width="547.934" height="30.9422" fill="#3AA959"/>
<path d="M495.232 103.217H490.624L489.589 106.088H488.094L492.294 95.0889H493.563L497.771 106.088H496.282L495.232 103.217ZM491.062 102.024H494.802L492.928 96.8793L491.062 102.024ZM499.215 101.933C499.215 100.659 499.51 99.6466 500.099 98.8963C500.688 98.1408 501.469 97.7631 502.441 97.7631C503.438 97.7631 504.216 98.1157 504.775 98.8207L504.843 97.9142H506.12V105.891C506.12 106.949 505.805 107.783 505.176 108.392C504.551 109.001 503.71 109.306 502.653 109.306C502.063 109.306 501.487 109.18 500.923 108.928C500.359 108.676 499.928 108.331 499.631 107.893L500.356 107.055C500.955 107.795 501.688 108.165 502.554 108.165C503.234 108.165 503.763 107.974 504.141 107.591C504.523 107.208 504.715 106.67 504.715 105.975V105.272C504.156 105.917 503.393 106.239 502.426 106.239C501.469 106.239 500.693 105.854 500.099 105.083C499.51 104.313 499.215 103.263 499.215 101.933ZM500.62 102.092C500.62 103.013 500.809 103.739 501.187 104.267C501.565 104.791 502.094 105.053 502.773 105.053C503.655 105.053 504.302 104.653 504.715 103.852V100.12C504.287 99.3394 503.645 98.9491 502.789 98.9491C502.109 98.9491 501.577 99.2135 501.195 99.7423C500.812 100.271 500.62 101.054 500.62 102.092ZM512.702 99.1682C512.49 99.133 512.261 99.1153 512.014 99.1153C511.098 99.1153 510.476 99.5056 510.148 100.286V106.088H508.751V97.9142H510.111L510.133 98.8585C510.592 98.1282 511.241 97.7631 512.082 97.7631C512.354 97.7631 512.561 97.7984 512.702 97.8689V99.1682ZM516.028 106.088H514.63V97.9142H516.028V106.088ZM514.517 95.7461C514.517 95.5195 514.585 95.3281 514.721 95.172C514.862 95.0159 515.068 94.9378 515.34 94.9378C515.612 94.9378 515.819 95.0159 515.96 95.172C516.101 95.3281 516.171 95.5195 516.171 95.7461C516.171 95.9728 516.101 96.1616 515.96 96.3127C515.819 96.4638 515.612 96.5393 515.34 96.5393C515.068 96.5393 514.862 96.4638 514.721 96.3127C514.585 96.1616 514.517 95.9728 514.517 95.7461ZM522.065 105.098C522.564 105.098 523 104.947 523.372 104.645C523.745 104.343 523.951 103.965 523.992 103.512H525.314C525.289 103.98 525.127 104.426 524.83 104.849C524.533 105.272 524.135 105.609 523.637 105.861C523.143 106.113 522.619 106.239 522.065 106.239C520.952 106.239 520.066 105.869 519.406 105.129C518.752 104.383 518.424 103.366 518.424 102.077V101.842C518.424 101.047 518.57 100.339 518.862 99.7197C519.155 99.1002 519.573 98.6193 520.116 98.2768C520.665 97.9343 521.313 97.7631 522.058 97.7631C522.974 97.7631 523.735 98.0376 524.339 98.5865C524.949 99.1355 525.273 99.8481 525.314 100.724H523.992C523.951 100.196 523.75 99.7625 523.387 99.4251C523.03 99.0826 522.587 98.9114 522.058 98.9114C521.348 98.9114 520.796 99.1682 520.404 99.6819C520.016 100.191 519.822 100.928 519.822 101.895V102.16C519.822 103.101 520.016 103.827 520.404 104.335C520.791 104.844 521.345 105.098 522.065 105.098ZM532.447 105.28C531.903 105.919 531.105 106.239 530.052 106.239C529.181 106.239 528.516 105.987 528.058 105.484C527.605 104.975 527.376 104.225 527.371 103.232V97.9142H528.768V103.195C528.768 104.434 529.272 105.053 530.279 105.053C531.347 105.053 532.057 104.655 532.409 103.859V97.9142H533.807V106.088H532.477L532.447 105.28ZM537.971 106.088H536.574V94.4846H537.971V106.088ZM542.627 95.935V97.9142H544.153V98.9945H542.627V104.063C542.627 104.391 542.695 104.637 542.831 104.804C542.967 104.965 543.198 105.045 543.526 105.045C543.687 105.045 543.908 105.015 544.19 104.955V106.088C543.823 106.189 543.465 106.239 543.118 106.239C542.493 106.239 542.022 106.05 541.705 105.672C541.388 105.295 541.229 104.758 541.229 104.063V98.9945H539.741V97.9142H541.229V95.935H542.627ZM551.354 105.28C550.81 105.919 550.012 106.239 548.959 106.239C548.088 106.239 547.423 105.987 546.965 105.484C546.511 104.975 546.282 104.225 546.277 103.232V97.9142H547.675V103.195C547.675 104.434 548.178 105.053 549.186 105.053C550.253 105.053 550.963 104.655 551.316 103.859V97.9142H552.713V106.088H551.384L551.354 105.28ZM559.31 99.1682C559.099 99.133 558.87 99.1153 558.623 99.1153C557.706 99.1153 557.084 99.5056 556.757 100.286V106.088H555.359V97.9142H556.719L556.742 98.8585C557.2 98.1282 557.85 97.7631 558.691 97.7631C558.963 97.7631 559.169 97.7984 559.31 97.8689V99.1682ZM564.359 106.239C563.251 106.239 562.349 105.876 561.654 105.151C560.959 104.421 560.612 103.446 560.612 102.228V101.971C560.612 101.16 560.765 100.437 561.073 99.8028C561.385 99.1632 561.818 98.6646 562.372 98.307C562.931 97.9444 563.535 97.7631 564.185 97.7631C565.248 97.7631 566.073 98.1131 566.663 98.8132C567.252 99.5132 567.547 100.515 567.547 101.82V102.401H562.009C562.029 103.207 562.264 103.859 562.712 104.358C563.165 104.852 563.739 105.098 564.434 105.098C564.928 105.098 565.346 104.998 565.688 104.796C566.031 104.595 566.33 104.328 566.587 103.995L567.441 104.66C566.756 105.713 565.728 106.239 564.359 106.239ZM564.185 98.9114C563.621 98.9114 563.147 99.1178 562.765 99.5308C562.382 99.9387 562.145 100.513 562.055 101.253H566.149V101.147C566.109 100.437 565.917 99.8884 565.575 99.5006C565.232 99.1078 564.769 98.9114 564.185 98.9114Z" fill="white"/>
<g opacity="0.8">
<rect x="31.0088" y="115.873" width="523.438" height="30.9422" fill="#3AA959"/>
<path d="M484.633 132.172H480.018V137.029H478.567V126.03H485.381V127.224H480.018V130.986H484.633V132.172ZM488.934 137.029H487.536V128.856H488.934V137.029ZM487.423 126.688C487.423 126.461 487.491 126.27 487.627 126.113C487.768 125.957 487.974 125.879 488.246 125.879C488.518 125.879 488.725 125.957 488.866 126.113C489.007 126.27 489.077 126.461 489.077 126.688C489.077 126.914 489.007 127.103 488.866 127.254C488.725 127.405 488.518 127.481 488.246 127.481C487.974 127.481 487.768 127.405 487.627 127.254C487.491 127.103 487.423 126.914 487.423 126.688ZM496.452 134.861C496.452 134.484 496.308 134.191 496.021 133.985C495.739 133.773 495.243 133.592 494.533 133.441C493.828 133.29 493.267 133.109 492.849 132.897C492.436 132.686 492.128 132.434 491.927 132.142C491.731 131.85 491.632 131.502 491.632 131.099C491.632 130.429 491.914 129.863 492.478 129.4C493.048 128.936 493.773 128.705 494.654 128.705C495.581 128.705 496.331 128.944 496.905 129.422C497.484 129.901 497.774 130.513 497.774 131.258H496.369C496.369 130.875 496.205 130.545 495.878 130.268C495.556 129.991 495.148 129.853 494.654 129.853C494.145 129.853 493.748 129.964 493.461 130.185C493.173 130.407 493.03 130.696 493.03 131.054C493.03 131.391 493.163 131.646 493.43 131.817C493.697 131.988 494.178 132.152 494.873 132.308C495.573 132.464 496.14 132.65 496.573 132.867C497.006 133.083 497.326 133.345 497.532 133.653C497.744 133.955 497.85 134.325 497.85 134.763C497.85 135.493 497.557 136.08 496.973 136.523C496.389 136.961 495.631 137.18 494.699 137.18C494.045 137.18 493.466 137.065 492.962 136.833C492.458 136.601 492.063 136.279 491.776 135.866C491.494 135.448 491.353 134.997 491.353 134.514H492.75C492.776 134.982 492.962 135.355 493.309 135.632C493.662 135.904 494.125 136.04 494.699 136.04C495.228 136.04 495.651 135.934 495.969 135.722C496.291 135.506 496.452 135.219 496.452 134.861ZM501.583 129.845C502.203 129.085 503.009 128.705 504.001 128.705C505.728 128.705 506.599 129.679 506.614 131.628V137.029H505.217V131.62C505.212 131.031 505.076 130.596 504.809 130.314C504.547 130.032 504.137 129.891 503.578 129.891C503.124 129.891 502.727 130.011 502.384 130.253C502.042 130.495 501.775 130.812 501.583 131.205V137.029H500.186V125.426H501.583V129.845ZM512.615 137.18C511.507 137.18 510.605 136.818 509.91 136.093C509.215 135.362 508.868 134.388 508.868 133.169V132.912C508.868 132.101 509.021 131.379 509.328 130.744C509.641 130.105 510.074 129.606 510.628 129.248C511.187 128.886 511.791 128.705 512.441 128.705C513.503 128.705 514.329 129.055 514.919 129.755C515.508 130.455 515.802 131.457 515.802 132.761V133.343H510.265C510.285 134.149 510.52 134.801 510.968 135.299C511.421 135.793 511.995 136.04 512.69 136.04C513.184 136.04 513.602 135.939 513.944 135.738C514.287 135.536 514.586 135.269 514.843 134.937L515.697 135.602C515.012 136.654 513.984 137.18 512.615 137.18ZM512.441 129.853C511.877 129.853 511.403 130.059 511.021 130.472C510.638 130.88 510.401 131.454 510.311 132.195H514.405V132.089C514.365 131.379 514.173 130.83 513.831 130.442C513.488 130.049 513.025 129.853 512.441 129.853ZM521.893 130.11C521.682 130.074 521.453 130.057 521.206 130.057C520.289 130.057 519.667 130.447 519.34 131.228V137.029H517.942V128.856H519.302L519.325 129.8C519.783 129.07 520.433 128.705 521.274 128.705C521.546 128.705 521.752 128.74 521.893 128.81V130.11ZM525.219 137.029H523.822V128.856H525.219V137.029ZM523.708 126.688C523.708 126.461 523.776 126.27 523.912 126.113C524.053 125.957 524.26 125.879 524.532 125.879C524.804 125.879 525.01 125.957 525.151 126.113C525.292 126.27 525.363 126.461 525.363 126.688C525.363 126.914 525.292 127.103 525.151 127.254C525.01 127.405 524.804 127.481 524.532 127.481C524.26 127.481 524.053 127.405 523.912 127.254C523.776 127.103 523.708 126.914 523.708 126.688ZM531.37 137.18C530.262 137.18 529.361 136.818 528.666 136.093C527.971 135.362 527.623 134.388 527.623 133.169V132.912C527.623 132.101 527.777 131.379 528.084 130.744C528.396 130.105 528.829 129.606 529.383 129.248C529.942 128.886 530.547 128.705 531.196 128.705C532.259 128.705 533.085 129.055 533.674 129.755C534.263 130.455 534.558 131.457 534.558 132.761V133.343H529.021C529.041 134.149 529.275 134.801 529.723 135.299C530.177 135.793 530.751 136.04 531.446 136.04C531.939 136.04 532.357 135.939 532.7 135.738C533.042 135.536 533.342 135.269 533.599 134.937L534.452 135.602C533.767 136.654 532.74 137.18 531.37 137.18ZM531.196 129.853C530.632 129.853 530.159 130.059 529.776 130.472C529.394 130.88 529.157 131.454 529.066 132.195H533.161V132.089C533.12 131.379 532.929 130.83 532.586 130.442C532.244 130.049 531.781 129.853 531.196 129.853ZM541.457 134.861C541.457 134.484 541.314 134.191 541.027 133.985C540.745 133.773 540.248 133.592 539.538 133.441C538.833 133.29 538.272 133.109 537.854 132.897C537.441 132.686 537.134 132.434 536.932 132.142C536.736 131.85 536.638 131.502 536.638 131.099C536.638 130.429 536.92 129.863 537.484 129.4C538.053 128.936 538.778 128.705 539.659 128.705C540.586 128.705 541.336 128.944 541.91 129.422C542.49 129.901 542.779 130.513 542.779 131.258H541.374C541.374 130.875 541.21 130.545 540.883 130.268C540.561 129.991 540.153 129.853 539.659 129.853C539.151 129.853 538.753 129.964 538.466 130.185C538.179 130.407 538.035 130.696 538.035 131.054C538.035 131.391 538.169 131.646 538.435 131.817C538.702 131.988 539.183 132.152 539.878 132.308C540.578 132.464 541.145 132.65 541.578 132.867C542.011 133.083 542.331 133.345 542.537 133.653C542.749 133.955 542.855 134.325 542.855 134.763C542.855 135.493 542.563 136.08 541.978 136.523C541.394 136.961 540.636 137.18 539.705 137.18C539.05 137.18 538.471 137.065 537.967 136.833C537.463 136.601 537.068 136.279 536.781 135.866C536.499 135.448 536.358 134.997 536.358 134.514H537.756C537.781 134.982 537.967 135.355 538.315 135.632C538.667 135.904 539.13 136.04 539.705 136.04C540.233 136.04 540.656 135.934 540.974 135.722C541.296 135.506 541.457 135.219 541.457 134.861Z" fill="white"/>
</g>
<g opacity="0.64">
<rect x="31.0088" y="146.816" width="466.711" height="30.9422" fill="#3AA959"/>
<path d="M409.362 167.973H407.904V162.889H402.359V167.973H400.909V156.974H402.359V161.703H407.904V156.974H409.362V167.973ZM411.864 163.81C411.864 163.01 412.02 162.289 412.333 161.65C412.65 161.01 413.088 160.517 413.647 160.169C414.211 159.822 414.853 159.648 415.573 159.648C416.686 159.648 417.585 160.033 418.27 160.804C418.96 161.574 419.305 162.599 419.305 163.878V163.976C419.305 164.772 419.152 165.487 418.844 166.122C418.542 166.751 418.107 167.242 417.537 167.595C416.973 167.947 416.324 168.124 415.588 168.124C414.48 168.124 413.582 167.738 412.892 166.968C412.207 166.197 411.864 165.178 411.864 163.908V163.81ZM413.269 163.976C413.269 164.883 413.478 165.611 413.896 166.16C414.319 166.709 414.883 166.983 415.588 166.983C416.299 166.983 416.863 166.706 417.281 166.152C417.699 165.593 417.908 164.812 417.908 163.81C417.908 162.914 417.694 162.189 417.265 161.635C416.842 161.076 416.278 160.796 415.573 160.796C414.883 160.796 414.327 161.071 413.904 161.62C413.481 162.168 413.269 162.954 413.269 163.976ZM425.524 161.053C425.313 161.018 425.084 161 424.837 161C423.92 161 423.298 161.39 422.971 162.171V167.973H421.573V159.799H422.933L422.956 160.743C423.414 160.013 424.064 159.648 424.905 159.648C425.177 159.648 425.383 159.683 425.524 159.754V161.053ZM429.606 157.82V159.799H431.132V160.879H429.606V165.948C429.606 166.275 429.674 166.522 429.81 166.688C429.946 166.85 430.177 166.93 430.505 166.93C430.666 166.93 430.887 166.9 431.169 166.84V167.973C430.802 168.073 430.444 168.124 430.097 168.124C429.472 168.124 429.001 167.935 428.684 167.557C428.367 167.179 428.208 166.643 428.208 165.948V160.879H426.72V159.799H428.208V157.82H429.606ZM434.805 167.973H433.407V159.799H434.805V167.973ZM433.294 157.631C433.294 157.404 433.362 157.213 433.498 157.057C433.639 156.901 433.846 156.823 434.117 156.823C434.389 156.823 434.596 156.901 434.737 157.057C434.878 157.213 434.948 157.404 434.948 157.631C434.948 157.858 434.878 158.046 434.737 158.197C434.596 158.349 434.389 158.424 434.117 158.424C433.846 158.424 433.639 158.349 433.498 158.197C433.362 158.046 433.294 157.858 433.294 157.631ZM440.843 166.983C441.341 166.983 441.777 166.832 442.15 166.53C442.522 166.228 442.729 165.85 442.769 165.397H444.091C444.066 165.865 443.905 166.311 443.608 166.734C443.31 167.157 442.913 167.494 442.414 167.746C441.92 167.998 441.397 168.124 440.843 168.124C439.73 168.124 438.843 167.754 438.184 167.013C437.529 166.268 437.202 165.251 437.202 163.961V163.727C437.202 162.931 437.348 162.224 437.64 161.604C437.932 160.985 438.35 160.504 438.894 160.162C439.443 159.819 440.09 159.648 440.835 159.648C441.752 159.648 442.512 159.922 443.117 160.471C443.726 161.02 444.051 161.733 444.091 162.609H442.769C442.729 162.08 442.527 161.647 442.165 161.31C441.807 160.967 441.364 160.796 440.835 160.796C440.125 160.796 439.574 161.053 439.181 161.567C438.793 162.075 438.599 162.813 438.599 163.78V164.044C438.599 164.986 438.793 165.711 439.181 166.22C439.569 166.729 440.123 166.983 440.843 166.983ZM451.224 167.164C450.68 167.804 449.882 168.124 448.83 168.124C447.958 168.124 447.294 167.872 446.835 167.368C446.382 166.86 446.153 166.109 446.148 165.117V159.799H447.545V165.079C447.545 166.318 448.049 166.938 449.056 166.938C450.124 166.938 450.834 166.54 451.187 165.744V159.799H452.584V167.973H451.255L451.224 167.164ZM456.748 167.973H455.351V156.369H456.748V167.973ZM461.404 157.82V159.799H462.93V160.879H461.404V165.948C461.404 166.275 461.472 166.522 461.608 166.688C461.744 166.85 461.975 166.93 462.303 166.93C462.464 166.93 462.686 166.9 462.968 166.84V167.973C462.6 168.073 462.242 168.124 461.895 168.124C461.27 168.124 460.8 167.935 460.482 167.557C460.165 167.179 460.006 166.643 460.006 165.948V160.879H458.518V159.799H460.006V157.82H461.404ZM470.131 167.164C469.587 167.804 468.789 168.124 467.736 168.124C466.865 168.124 466.2 167.872 465.742 167.368C465.289 166.86 465.06 166.109 465.055 165.117V159.799H466.452V165.079C466.452 166.318 466.956 166.938 467.963 166.938C469.031 166.938 469.741 166.54 470.093 165.744V159.799H471.491V167.973H470.161L470.131 167.164ZM478.088 161.053C477.876 161.018 477.647 161 477.4 161C476.484 161 475.862 161.39 475.534 162.171V167.973H474.137V159.799H475.497L475.519 160.743C475.978 160.013 476.627 159.648 477.468 159.648C477.74 159.648 477.947 159.683 478.088 159.754V161.053ZM483.136 168.124C482.028 168.124 481.126 167.761 480.431 167.036C479.737 166.306 479.389 165.331 479.389 164.112V163.856C479.389 163.045 479.543 162.322 479.85 161.688C480.162 161.048 480.595 160.549 481.149 160.192C481.708 159.829 482.312 159.648 482.962 159.648C484.025 159.648 484.851 159.998 485.44 160.698C486.029 161.398 486.324 162.4 486.324 163.705V164.286H480.787C480.807 165.092 481.041 165.744 481.489 166.243C481.942 166.736 482.516 166.983 483.211 166.983C483.705 166.983 484.123 166.882 484.465 166.681C484.808 166.479 485.108 166.213 485.364 165.88L486.218 166.545C485.533 167.597 484.506 168.124 483.136 168.124ZM482.962 160.796C482.398 160.796 481.925 161.003 481.542 161.416C481.159 161.824 480.923 162.398 480.832 163.138H484.926V163.032C484.886 162.322 484.695 161.773 484.352 161.385C484.01 160.993 483.546 160.796 482.962 160.796Z" fill="white"/>
</g>
<g opacity="0.56">
<rect x="31.0088" y="177.758" width="296.529" height="30.9422" fill="#3AA959"/>
<path d="M232.64 193.832H227.873V197.73H233.41V198.916H226.423V187.917H233.335V189.111H227.873V192.646H232.64V193.832ZM236.834 190.742L236.88 191.77C237.504 190.984 238.32 190.591 239.327 190.591C241.055 190.591 241.926 191.566 241.941 193.515V198.916H240.544V193.507C240.539 192.918 240.403 192.482 240.136 192.2C239.874 191.918 239.463 191.777 238.904 191.777C238.451 191.777 238.053 191.898 237.711 192.14C237.368 192.382 237.101 192.699 236.91 193.092V198.916H235.513V190.742H236.834ZM247.261 197.02L249.286 190.742H250.714L247.783 198.916H246.717L243.756 190.742H245.184L247.261 197.02ZM254.092 198.916H252.695V190.742H254.092V198.916ZM252.582 188.574C252.582 188.348 252.65 188.156 252.786 188C252.927 187.844 253.133 187.766 253.405 187.766C253.677 187.766 253.883 187.844 254.024 188C254.165 188.156 254.236 188.348 254.236 188.574C254.236 188.801 254.165 188.99 254.024 189.141C253.883 189.292 253.677 189.367 253.405 189.367C253.133 189.367 252.927 189.292 252.786 189.141C252.65 188.99 252.582 188.801 252.582 188.574ZM260.803 191.996C260.591 191.961 260.362 191.943 260.115 191.943C259.199 191.943 258.577 192.334 258.249 193.114V198.916H256.852V190.742H258.211L258.234 191.687C258.692 190.956 259.342 190.591 260.183 190.591C260.455 190.591 260.662 190.626 260.803 190.697V191.996ZM262.089 194.754C262.089 193.953 262.245 193.233 262.557 192.593C262.874 191.954 263.313 191.46 263.872 191.112C264.436 190.765 265.078 190.591 265.798 190.591C266.911 190.591 267.81 190.977 268.495 191.747C269.185 192.518 269.53 193.542 269.53 194.822V194.92C269.53 195.716 269.376 196.431 269.069 197.065C268.767 197.695 268.331 198.186 267.762 198.538C267.198 198.891 266.548 199.067 265.813 199.067C264.705 199.067 263.806 198.682 263.116 197.911C262.431 197.141 262.089 196.121 262.089 194.852V194.754ZM263.494 194.92C263.494 195.826 263.703 196.554 264.121 197.103C264.544 197.652 265.108 197.926 265.813 197.926C266.523 197.926 267.087 197.649 267.505 197.095C267.923 196.536 268.132 195.756 268.132 194.754C268.132 193.857 267.918 193.132 267.49 192.578C267.067 192.019 266.503 191.739 265.798 191.739C265.108 191.739 264.551 192.014 264.128 192.563C263.705 193.112 263.494 193.897 263.494 194.92ZM273.12 190.742L273.165 191.77C273.79 190.984 274.606 190.591 275.613 190.591C277.34 190.591 278.212 191.566 278.227 193.515V198.916H276.829V193.507C276.824 192.918 276.688 192.482 276.421 192.2C276.159 191.918 275.749 191.777 275.19 191.777C274.737 191.777 274.339 191.898 273.996 192.14C273.654 192.382 273.387 192.699 273.196 193.092V198.916H271.798V190.742H273.12ZM282.164 190.742L282.202 191.649C282.802 190.944 283.61 190.591 284.627 190.591C285.77 190.591 286.548 191.029 286.961 191.906C287.233 191.513 287.586 191.196 288.019 190.954C288.457 190.712 288.973 190.591 289.568 190.591C291.36 190.591 292.272 191.541 292.302 193.439V198.916H290.905V193.522C290.905 192.938 290.771 192.502 290.504 192.215C290.237 191.923 289.789 191.777 289.16 191.777C288.641 191.777 288.21 191.933 287.868 192.246C287.525 192.553 287.327 192.968 287.271 193.492V198.916H285.866V193.56C285.866 192.372 285.284 191.777 284.121 191.777C283.204 191.777 282.577 192.168 282.24 192.948V198.916H280.842V190.742H282.164ZM298.325 199.067C297.217 199.067 296.316 198.704 295.621 197.979C294.926 197.249 294.578 196.275 294.578 195.056V194.799C294.578 193.988 294.732 193.265 295.039 192.631C295.351 191.991 295.784 191.493 296.338 191.135C296.897 190.773 297.502 190.591 298.151 190.591C299.214 190.591 300.04 190.941 300.629 191.641C301.218 192.341 301.513 193.344 301.513 194.648V195.23H295.976C295.996 196.035 296.23 196.688 296.678 197.186C297.131 197.68 297.706 197.926 298.401 197.926C298.894 197.926 299.312 197.826 299.655 197.624C299.997 197.423 300.297 197.156 300.553 196.823L301.407 197.488C300.722 198.541 299.695 199.067 298.325 199.067ZM298.151 191.739C297.587 191.739 297.114 191.946 296.731 192.359C296.348 192.767 296.112 193.341 296.021 194.081H300.115V193.976C300.075 193.265 299.884 192.717 299.541 192.329C299.199 191.936 298.735 191.739 298.151 191.739ZM304.975 190.742L305.02 191.77C305.645 190.984 306.46 190.591 307.468 190.591C309.195 190.591 310.066 191.566 310.081 193.515V198.916H308.684V193.507C308.679 192.918 308.543 192.482 308.276 192.2C308.014 191.918 307.604 191.777 307.045 191.777C306.591 191.777 306.193 191.898 305.851 192.14C305.509 192.382 305.242 192.699 305.05 193.092V198.916H303.653V190.742H304.975ZM314.601 188.763V190.742H316.127V191.823H314.601V196.891C314.601 197.219 314.669 197.466 314.805 197.632C314.941 197.793 315.172 197.874 315.5 197.874C315.661 197.874 315.883 197.843 316.165 197.783V198.916C315.797 199.017 315.439 199.067 315.092 199.067C314.467 199.067 313.997 198.878 313.679 198.501C313.362 198.123 313.203 197.586 313.203 196.891V191.823H311.715V190.742H313.203V188.763H314.601Z" fill="white"/>
</g>
<g opacity="0.48">
<rect x="31.0088" y="208.699" width="229.488" height="30.9422" fill="#3AA959"/>
<path d="M179.954 229.857H178.496V224.773H172.951V229.857H171.5V218.858H172.951V223.587H178.496V218.858H179.954V229.857ZM186.218 230.009C185.11 230.009 184.209 229.646 183.514 228.921C182.819 228.19 182.471 227.216 182.471 225.997V225.74C182.471 224.93 182.625 224.207 182.932 223.572C183.244 222.933 183.677 222.434 184.231 222.077C184.79 221.714 185.395 221.533 186.044 221.533C187.107 221.533 187.933 221.883 188.522 222.583C189.111 223.283 189.406 224.285 189.406 225.589V226.171H183.869C183.889 226.977 184.123 227.629 184.571 228.128C185.024 228.621 185.599 228.868 186.294 228.868C186.787 228.868 187.205 228.767 187.548 228.566C187.89 228.364 188.19 228.097 188.447 227.765L189.3 228.43C188.615 229.482 187.588 230.009 186.218 230.009ZM186.044 222.681C185.48 222.681 185.007 222.887 184.624 223.3C184.241 223.708 184.005 224.282 183.914 225.023H188.008V224.917C187.968 224.207 187.777 223.658 187.434 223.27C187.092 222.877 186.629 222.681 186.044 222.681ZM196.592 229.857C196.511 229.696 196.446 229.409 196.396 228.996C195.746 229.671 194.97 230.009 194.069 230.009C193.263 230.009 192.601 229.782 192.082 229.329C191.568 228.87 191.312 228.291 191.312 227.591C191.312 226.74 191.634 226.08 192.279 225.612C192.928 225.139 193.84 224.902 195.013 224.902H196.373V224.26C196.373 223.771 196.227 223.383 195.935 223.096C195.643 222.804 195.212 222.658 194.643 222.658C194.144 222.658 193.726 222.784 193.389 223.036C193.052 223.288 192.883 223.592 192.883 223.95H191.478C191.478 223.542 191.621 223.149 191.908 222.772C192.201 222.389 192.593 222.087 193.087 221.865C193.585 221.643 194.132 221.533 194.726 221.533C195.668 221.533 196.406 221.769 196.94 222.243C197.473 222.711 197.75 223.358 197.771 224.184V227.946C197.771 228.697 197.866 229.293 198.058 229.737V229.857H196.592ZM194.273 228.792C194.711 228.792 195.127 228.679 195.519 228.452C195.912 228.226 196.197 227.931 196.373 227.568V225.891H195.278C193.565 225.891 192.709 226.393 192.709 227.395C192.709 227.833 192.855 228.175 193.147 228.422C193.439 228.669 193.815 228.792 194.273 228.792ZM201.995 229.857H200.598V218.254H201.995V229.857ZM206.651 219.705V221.684H208.177V222.764H206.651V227.833C206.651 228.16 206.719 228.407 206.855 228.573C206.991 228.734 207.222 228.815 207.55 228.815C207.711 228.815 207.932 228.785 208.214 228.724V229.857C207.847 229.958 207.489 230.009 207.142 230.009C206.517 230.009 206.046 229.82 205.729 229.442C205.412 229.064 205.253 228.528 205.253 227.833V222.764H203.765V221.684H205.253V219.705H206.651ZM211.729 222.673C212.349 221.913 213.154 221.533 214.147 221.533C215.874 221.533 216.745 222.507 216.76 224.456V229.857H215.363V224.449C215.358 223.859 215.222 223.424 214.955 223.142C214.693 222.86 214.283 222.719 213.724 222.719C213.27 222.719 212.872 222.84 212.53 223.081C212.188 223.323 211.921 223.64 211.729 224.033V229.857H210.332V218.254H211.729V222.673ZM222.647 228.868C223.146 228.868 223.581 228.717 223.954 228.415C224.327 228.112 224.533 227.735 224.573 227.281H225.895C225.87 227.75 225.709 228.195 225.412 228.619C225.115 229.042 224.717 229.379 224.218 229.631C223.725 229.883 223.201 230.009 222.647 230.009C221.534 230.009 220.648 229.638 219.988 228.898C219.333 228.153 219.006 227.135 219.006 225.846V225.612C219.006 224.816 219.152 224.109 219.444 223.489C219.736 222.87 220.154 222.389 220.698 222.046C221.247 221.704 221.894 221.533 222.64 221.533C223.556 221.533 224.317 221.807 224.921 222.356C225.53 222.905 225.855 223.618 225.895 224.494H224.573C224.533 223.965 224.332 223.532 223.969 223.195C223.612 222.852 223.168 222.681 222.64 222.681C221.929 222.681 221.378 222.938 220.985 223.451C220.597 223.96 220.404 224.698 220.404 225.665V225.929C220.404 226.871 220.597 227.596 220.985 228.105C221.373 228.613 221.927 228.868 222.647 228.868ZM233.029 229.857C232.948 229.696 232.883 229.409 232.832 228.996C232.183 229.671 231.407 230.009 230.506 230.009C229.7 230.009 229.038 229.782 228.519 229.329C228.005 228.87 227.748 228.291 227.748 227.591C227.748 226.74 228.071 226.08 228.715 225.612C229.365 225.139 230.276 224.902 231.45 224.902H232.81V224.26C232.81 223.771 232.664 223.383 232.371 223.096C232.079 222.804 231.649 222.658 231.08 222.658C230.581 222.658 230.163 222.784 229.826 223.036C229.488 223.288 229.32 223.592 229.32 223.95H227.914C227.914 223.542 228.058 223.149 228.345 222.772C228.637 222.389 229.03 222.087 229.523 221.865C230.022 221.643 230.568 221.533 231.163 221.533C232.105 221.533 232.842 221.769 233.376 222.243C233.91 222.711 234.187 223.358 234.207 224.184V227.946C234.207 228.697 234.303 229.293 234.494 229.737V229.857H233.029ZM230.71 228.792C231.148 228.792 231.563 228.679 231.956 228.452C232.349 228.226 232.633 227.931 232.81 227.568V225.891H231.714C230.002 225.891 229.146 226.393 229.146 227.395C229.146 227.833 229.292 228.175 229.584 228.422C229.876 228.669 230.251 228.792 230.71 228.792ZM240.864 222.938C240.653 222.902 240.424 222.885 240.177 222.885C239.26 222.885 238.638 223.275 238.311 224.056V229.857H236.914V221.684H238.273L238.296 222.628C238.754 221.898 239.404 221.533 240.245 221.533C240.517 221.533 240.723 221.568 240.864 221.638V222.938ZM245.913 230.009C244.805 230.009 243.903 229.646 243.208 228.921C242.513 228.19 242.166 227.216 242.166 225.997V225.74C242.166 224.93 242.319 224.207 242.627 223.572C242.939 222.933 243.372 222.434 243.926 222.077C244.485 221.714 245.089 221.533 245.739 221.533C246.802 221.533 247.627 221.883 248.217 222.583C248.806 223.283 249.101 224.285 249.101 225.589V226.171H243.563C243.583 226.977 243.818 227.629 244.266 228.128C244.719 228.621 245.293 228.868 245.988 228.868C246.482 228.868 246.9 228.767 247.242 228.566C247.585 228.364 247.884 228.097 248.141 227.765L248.995 228.43C248.31 229.482 247.283 230.009 245.913 230.009ZM245.739 222.681C245.175 222.681 244.701 222.887 244.319 223.3C243.936 223.708 243.699 224.282 243.609 225.023H247.703V224.917C247.663 224.207 247.471 223.658 247.129 223.27C246.786 222.877 246.323 222.681 245.739 222.681Z" fill="white"/>
</g>
<g opacity="0.4">
<rect x="31.0088" y="239.643" width="174.05" height="30.9422" fill="#3AA959"/>
<path d="M121.348 257.93H116.74L115.705 260.801H114.21L118.41 249.802H119.679L123.887 260.801H122.398L121.348 257.93ZM117.178 256.737H120.918L119.044 251.592L117.178 256.737ZM125.331 256.646C125.331 255.372 125.626 254.36 126.215 253.609C126.804 252.854 127.585 252.476 128.557 252.476C129.554 252.476 130.332 252.829 130.891 253.534L130.959 252.627H132.236V260.604C132.236 261.662 131.921 262.495 131.292 263.105C130.667 263.714 129.826 264.019 128.769 264.019C128.179 264.019 127.603 263.893 127.039 263.641C126.475 263.389 126.044 263.044 125.747 262.606L126.472 261.768C127.071 262.508 127.804 262.878 128.67 262.878C129.35 262.878 129.879 262.687 130.257 262.304C130.64 261.921 130.831 261.382 130.831 260.687V259.985C130.272 260.63 129.509 260.952 128.542 260.952C127.585 260.952 126.81 260.567 126.215 259.796C125.626 259.026 125.331 257.975 125.331 256.646ZM126.737 256.805C126.737 257.726 126.925 258.451 127.303 258.98C127.681 259.504 128.21 259.766 128.889 259.766C129.771 259.766 130.418 259.365 130.831 258.565V254.833C130.403 254.052 129.761 253.662 128.905 253.662C128.225 253.662 127.693 253.926 127.311 254.455C126.928 254.984 126.737 255.767 126.737 256.805ZM138.818 253.881C138.606 253.846 138.377 253.828 138.13 253.828C137.214 253.828 136.592 254.219 136.264 254.999V260.801H134.867V252.627H136.227L136.249 253.571C136.708 252.841 137.357 252.476 138.198 252.476C138.47 252.476 138.677 252.511 138.818 252.582V253.881ZM142.144 260.801H140.746V252.627H142.144V260.801ZM140.633 250.459C140.633 250.232 140.701 250.041 140.837 249.885C140.978 249.729 141.184 249.651 141.456 249.651C141.728 249.651 141.935 249.729 142.076 249.885C142.217 250.041 142.287 250.232 142.287 250.459C142.287 250.686 142.217 250.875 142.076 251.026C141.935 251.177 141.728 251.252 141.456 251.252C141.184 251.252 140.978 251.177 140.837 251.026C140.701 250.875 140.633 250.686 140.633 250.459ZM148.181 259.811C148.68 259.811 149.116 259.66 149.488 259.358C149.861 259.056 150.068 258.678 150.108 258.225H151.43C151.405 258.693 151.243 259.139 150.946 259.562C150.649 259.985 150.251 260.322 149.753 260.574C149.259 260.826 148.735 260.952 148.181 260.952C147.068 260.952 146.182 260.582 145.522 259.841C144.868 259.096 144.54 258.079 144.54 256.789V256.555C144.54 255.76 144.686 255.052 144.978 254.433C145.271 253.813 145.689 253.332 146.232 252.99C146.781 252.647 147.429 252.476 148.174 252.476C149.091 252.476 149.851 252.75 150.455 253.299C151.065 253.848 151.39 254.561 151.43 255.437H150.108C150.068 254.908 149.866 254.475 149.503 254.138C149.146 253.795 148.703 253.624 148.174 253.624C147.464 253.624 146.912 253.881 146.52 254.395C146.132 254.903 145.938 255.641 145.938 256.608V256.873C145.938 257.814 146.132 258.54 146.52 259.048C146.907 259.557 147.461 259.811 148.181 259.811ZM158.563 259.992C158.019 260.632 157.221 260.952 156.168 260.952C155.297 260.952 154.632 260.7 154.174 260.196C153.721 259.688 153.492 258.937 153.487 257.945V252.627H154.884V257.908C154.884 259.146 155.388 259.766 156.395 259.766C157.463 259.766 158.173 259.368 158.525 258.572V252.627H159.923V260.801H158.593L158.563 259.992ZM164.087 260.801H162.69V249.197H164.087V260.801ZM168.743 250.648V252.627H170.269V253.707H168.743V258.776C168.743 259.104 168.811 259.35 168.947 259.517C169.083 259.678 169.314 259.758 169.642 259.758C169.803 259.758 170.024 259.728 170.306 259.668V260.801C169.939 260.902 169.581 260.952 169.234 260.952C168.609 260.952 168.138 260.763 167.821 260.385C167.504 260.008 167.345 259.471 167.345 258.776V253.707H165.857V252.627H167.345V250.648H168.743ZM177.47 259.992C176.926 260.632 176.128 260.952 175.075 260.952C174.204 260.952 173.539 260.7 173.081 260.196C172.627 259.688 172.398 258.937 172.393 257.945V252.627H173.791V257.908C173.791 259.146 174.294 259.766 175.302 259.766C176.369 259.766 177.079 259.368 177.432 258.572V252.627H178.83V260.801H177.5L177.47 259.992ZM185.426 253.881C185.215 253.846 184.986 253.828 184.739 253.828C183.822 253.828 183.2 254.219 182.873 254.999V260.801H181.476V252.627H182.835L182.858 253.571C183.316 252.841 183.966 252.476 184.807 252.476C185.079 252.476 185.285 252.511 185.426 252.582V253.881ZM190.475 260.952C189.367 260.952 188.465 260.589 187.77 259.864C187.075 259.134 186.728 258.159 186.728 256.941V256.684C186.728 255.873 186.881 255.15 187.189 254.516C187.501 253.876 187.934 253.377 188.488 253.02C189.047 252.657 189.651 252.476 190.301 252.476C191.364 252.476 192.189 252.826 192.779 253.526C193.368 254.226 193.663 255.228 193.663 256.533V257.114H188.125C188.145 257.92 188.38 258.572 188.828 259.071C189.281 259.564 189.855 259.811 190.55 259.811C191.044 259.811 191.462 259.71 191.804 259.509C192.147 259.308 192.446 259.041 192.703 258.708L193.557 259.373C192.872 260.426 191.844 260.952 190.475 260.952ZM190.301 253.624C189.737 253.624 189.263 253.831 188.881 254.244C188.498 254.652 188.261 255.226 188.171 255.966H192.265V255.86C192.225 255.15 192.033 254.601 191.691 254.213C191.348 253.821 190.885 253.624 190.301 253.624Z" fill="white"/>
</g>
<g opacity="0.16">
<rect x="31.0088" y="270.584" width="153.422" height="30.9422" fill="#263238"/>
</g>
<path d="M89.5324 286.656H84.7657V290.554H90.3029V291.74H83.3152V280.741H90.2274V281.935H84.7657V285.47H89.5324V286.656ZM93.727 283.567L93.7723 284.594C94.3968 283.808 95.2127 283.415 96.2199 283.415C97.9473 283.415 98.8186 284.39 98.8337 286.339V291.74H97.4361V286.331C97.4311 285.742 97.2951 285.307 97.0282 285.025C96.7663 284.742 96.3559 284.601 95.7969 284.601C95.3436 284.601 94.9457 284.722 94.6033 284.964C94.2608 285.206 93.9939 285.523 93.8025 285.916V291.74H92.405V283.567H93.727ZM104.154 289.844L106.178 283.567H107.606L104.675 291.74H103.61L100.649 283.567H102.076L104.154 289.844ZM110.985 291.74H109.587V283.567H110.985V291.74ZM109.474 281.398C109.474 281.172 109.542 280.98 109.678 280.824C109.819 280.668 110.026 280.59 110.297 280.59C110.569 280.59 110.776 280.668 110.917 280.824C111.058 280.98 111.128 281.172 111.128 281.398C111.128 281.625 111.058 281.814 110.917 281.965C110.776 282.116 110.569 282.192 110.297 282.192C110.026 282.192 109.819 282.116 109.678 281.965C109.542 281.814 109.474 281.625 109.474 281.398ZM117.695 284.821C117.484 284.785 117.254 284.768 117.008 284.768C116.091 284.768 115.469 285.158 115.142 285.939V291.74H113.744V283.567H115.104L115.127 284.511C115.585 283.781 116.235 283.415 117.076 283.415C117.348 283.415 117.554 283.451 117.695 283.521V284.821ZM118.981 287.578C118.981 286.777 119.137 286.057 119.45 285.417C119.767 284.778 120.205 284.284 120.764 283.937C121.328 283.589 121.97 283.415 122.69 283.415C123.803 283.415 124.702 283.801 125.387 284.571C126.077 285.342 126.422 286.367 126.422 287.646V287.744C126.422 288.54 126.269 289.255 125.961 289.889C125.659 290.519 125.224 291.01 124.655 291.363C124.091 291.715 123.441 291.891 122.706 291.891C121.598 291.891 120.699 291.506 120.009 290.736C119.324 289.965 118.981 288.945 118.981 287.676V287.578ZM120.386 287.744C120.386 288.651 120.595 289.378 121.013 289.927C121.436 290.476 122 290.751 122.706 290.751C123.416 290.751 123.98 290.474 124.398 289.92C124.816 289.361 125.025 288.58 125.025 287.578C125.025 286.681 124.811 285.956 124.383 285.402C123.96 284.843 123.396 284.564 122.69 284.564C122 284.564 121.444 284.838 121.021 285.387C120.598 285.936 120.386 286.722 120.386 287.744ZM130.013 283.567L130.058 284.594C130.682 283.808 131.498 283.415 132.505 283.415C134.233 283.415 135.104 284.39 135.119 286.339V291.74H133.722V286.331C133.717 285.742 133.581 285.307 133.314 285.025C133.052 284.742 132.641 284.601 132.082 284.601C131.629 284.601 131.231 284.722 130.889 284.964C130.546 285.206 130.279 285.523 130.088 285.916V291.74H128.691V283.567H130.013ZM139.057 283.567L139.095 284.473C139.694 283.768 140.502 283.415 141.52 283.415C142.663 283.415 143.441 283.854 143.854 284.73C144.126 284.337 144.478 284.02 144.911 283.778C145.35 283.536 145.866 283.415 146.46 283.415C148.253 283.415 149.165 284.365 149.195 286.263V291.74H147.797V286.347C147.797 285.762 147.664 285.327 147.397 285.04C147.13 284.748 146.682 284.601 146.052 284.601C145.533 284.601 145.103 284.758 144.76 285.07C144.418 285.377 144.219 285.793 144.164 286.316V291.74H142.759V286.384C142.759 285.196 142.177 284.601 141.014 284.601C140.097 284.601 139.47 284.992 139.133 285.772V291.74H137.735V283.567H139.057ZM155.217 291.891C154.11 291.891 153.208 291.529 152.513 290.804C151.818 290.073 151.471 289.099 151.471 287.88V287.623C151.471 286.812 151.624 286.09 151.931 285.455C152.244 284.816 152.677 284.317 153.231 283.959C153.79 283.597 154.394 283.415 155.044 283.415C156.106 283.415 156.932 283.765 157.522 284.466C158.111 285.166 158.405 286.168 158.405 287.472V288.054H152.868C152.888 288.86 153.122 289.512 153.571 290.01C154.024 290.504 154.598 290.751 155.293 290.751C155.787 290.751 156.205 290.65 156.547 290.448C156.889 290.247 157.189 289.98 157.446 289.648L158.3 290.312C157.615 291.365 156.587 291.891 155.217 291.891ZM155.044 284.564C154.48 284.564 154.006 284.77 153.624 285.183C153.241 285.591 153.004 286.165 152.913 286.906H157.008V286.8C156.968 286.09 156.776 285.541 156.434 285.153C156.091 284.76 155.628 284.564 155.044 284.564ZM161.867 283.567L161.913 284.594C162.537 283.808 163.353 283.415 164.36 283.415C166.088 283.415 166.959 284.39 166.974 286.339V291.74H165.576V286.331C165.571 285.742 165.435 285.307 165.168 285.025C164.907 284.742 164.496 284.601 163.937 284.601C163.484 284.601 163.086 284.722 162.744 284.964C162.401 285.206 162.134 285.523 161.943 285.916V291.74H160.545V283.567H161.867ZM171.493 281.587V283.567H173.019V284.647H171.493V289.716C171.493 290.043 171.561 290.29 171.697 290.456C171.833 290.617 172.065 290.698 172.392 290.698C172.553 290.698 172.775 290.668 173.057 290.607V291.74C172.689 291.841 172.332 291.891 171.984 291.891C171.36 291.891 170.889 291.702 170.572 291.325C170.254 290.947 170.096 290.411 170.096 289.716V284.647H168.608V283.567H170.096V281.587H171.493Z" fill="white"/>
<g opacity="0.64">
<g opacity="0.16">
<rect x="31.0088" y="301.527" width="131.504" height="30.9422" fill="#263238"/>
</g>
<path d="M92.6991 317.826H88.0835V322.684H86.6331V311.685H93.447V312.878H88.0835V316.64H92.6991V317.826ZM96.9995 322.684H95.602V314.51H96.9995V322.684ZM95.4886 312.342C95.4886 312.115 95.5566 311.924 95.6926 311.768C95.8336 311.612 96.0401 311.534 96.3121 311.534C96.584 311.534 96.7905 311.612 96.9315 311.768C97.0725 311.924 97.143 312.115 97.143 312.342C97.143 312.568 97.0725 312.757 96.9315 312.908C96.7905 313.059 96.584 313.135 96.3121 313.135C96.0401 313.135 95.8336 313.059 95.6926 312.908C95.5566 312.757 95.4886 312.568 95.4886 312.342ZM104.518 320.516C104.518 320.138 104.374 319.846 104.087 319.639C103.805 319.428 103.309 319.246 102.599 319.095C101.894 318.944 101.333 318.763 100.915 318.551C100.502 318.34 100.194 318.088 99.993 317.796C99.7966 317.504 99.6984 317.156 99.6984 316.754C99.6984 316.084 99.9804 315.517 100.544 315.054C101.114 314.59 101.839 314.359 102.72 314.359C103.647 314.359 104.397 314.598 104.971 315.076C105.55 315.555 105.84 316.167 105.84 316.912H104.435C104.435 316.529 104.271 316.2 103.944 315.923C103.622 315.646 103.214 315.507 102.72 315.507C102.211 315.507 101.814 315.618 101.526 315.839C101.239 316.061 101.096 316.351 101.096 316.708C101.096 317.046 101.229 317.3 101.496 317.471C101.763 317.642 102.244 317.806 102.939 317.962C103.639 318.118 104.206 318.305 104.639 318.521C105.072 318.738 105.392 319 105.598 319.307C105.81 319.609 105.916 319.979 105.916 320.417C105.916 321.148 105.623 321.734 105.039 322.177C104.455 322.616 103.697 322.835 102.765 322.835C102.111 322.835 101.532 322.719 101.028 322.487C100.524 322.256 100.129 321.933 99.8419 321.52C99.5599 321.102 99.4189 320.652 99.4189 320.168H100.816C100.842 320.636 101.028 321.009 101.375 321.286C101.728 321.558 102.191 321.694 102.765 321.694C103.294 321.694 103.717 321.588 104.034 321.377C104.357 321.16 104.518 320.873 104.518 320.516ZM109.649 315.5C110.269 314.739 111.075 314.359 112.067 314.359C113.794 314.359 114.665 315.333 114.68 317.282V322.684H113.283V317.275C113.278 316.686 113.142 316.25 112.875 315.968C112.613 315.686 112.203 315.545 111.644 315.545C111.19 315.545 110.793 315.666 110.45 315.907C110.108 316.149 109.841 316.466 109.649 316.859V322.684H108.252V311.08H109.649V315.5ZM120.681 322.835C119.573 322.835 118.671 322.472 117.976 321.747C117.281 321.017 116.934 320.042 116.934 318.823V318.567C116.934 317.756 117.087 317.033 117.394 316.398C117.707 315.759 118.14 315.26 118.694 314.903C119.253 314.54 119.857 314.359 120.507 314.359C121.569 314.359 122.395 314.709 122.985 315.409C123.574 316.109 123.868 317.111 123.868 318.415V318.997H118.331C118.351 319.803 118.585 320.455 119.034 320.954C119.487 321.447 120.061 321.694 120.756 321.694C121.25 321.694 121.668 321.593 122.01 321.392C122.353 321.19 122.652 320.923 122.909 320.591L123.763 321.256C123.078 322.308 122.05 322.835 120.681 322.835ZM120.507 315.507C119.943 315.507 119.469 315.714 119.087 316.127C118.704 316.534 118.467 317.109 118.376 317.849H122.471V317.743C122.431 317.033 122.239 316.484 121.897 316.096C121.554 315.703 121.091 315.507 120.507 315.507ZM129.959 315.764C129.748 315.729 129.518 315.711 129.272 315.711C128.355 315.711 127.733 316.101 127.406 316.882V322.684H126.008V314.51H127.368L127.391 315.454C127.849 314.724 128.499 314.359 129.34 314.359C129.612 314.359 129.818 314.394 129.959 314.465V315.764ZM133.285 322.684H131.887V314.51H133.285V322.684ZM131.774 312.342C131.774 312.115 131.842 311.924 131.978 311.768C132.119 311.612 132.326 311.534 132.598 311.534C132.87 311.534 133.076 311.612 133.217 311.768C133.358 311.924 133.429 312.115 133.429 312.342C133.429 312.568 133.358 312.757 133.217 312.908C133.076 313.059 132.87 313.135 132.598 313.135C132.326 313.135 132.119 313.059 131.978 312.908C131.842 312.757 131.774 312.568 131.774 312.342ZM139.436 322.835C138.328 322.835 137.427 322.472 136.732 321.747C136.037 321.017 135.689 320.042 135.689 318.823V318.567C135.689 317.756 135.843 317.033 136.15 316.398C136.462 315.759 136.895 315.26 137.449 314.903C138.008 314.54 138.613 314.359 139.262 314.359C140.325 314.359 141.151 314.709 141.74 315.409C142.329 316.109 142.624 317.111 142.624 318.415V318.997H137.087C137.107 319.803 137.341 320.455 137.789 320.954C138.243 321.447 138.817 321.694 139.512 321.694C140.005 321.694 140.423 321.593 140.766 321.392C141.108 321.19 141.408 320.923 141.665 320.591L142.518 321.256C141.833 322.308 140.806 322.835 139.436 322.835ZM139.262 315.507C138.698 315.507 138.225 315.714 137.842 316.127C137.459 316.534 137.223 317.109 137.132 317.849H141.227V317.743C141.186 317.033 140.995 316.484 140.652 316.096C140.31 315.703 139.847 315.507 139.262 315.507ZM149.523 320.516C149.523 320.138 149.38 319.846 149.093 319.639C148.81 319.428 148.314 319.246 147.604 319.095C146.899 318.944 146.338 318.763 145.92 318.551C145.507 318.34 145.2 318.088 144.998 317.796C144.802 317.504 144.703 317.156 144.703 316.754C144.703 316.084 144.986 315.517 145.55 315.054C146.119 314.59 146.844 314.359 147.725 314.359C148.652 314.359 149.402 314.598 149.976 315.076C150.556 315.555 150.845 316.167 150.845 316.912H149.44C149.44 316.529 149.276 316.2 148.949 315.923C148.627 315.646 148.219 315.507 147.725 315.507C147.217 315.507 146.819 315.618 146.532 315.839C146.245 316.061 146.101 316.351 146.101 316.708C146.101 317.046 146.234 317.3 146.501 317.471C146.768 317.642 147.249 317.806 147.944 317.962C148.644 318.118 149.211 318.305 149.644 318.521C150.077 318.738 150.397 319 150.603 319.307C150.815 319.609 150.921 319.979 150.921 320.417C150.921 321.148 150.629 321.734 150.044 322.177C149.46 322.616 148.702 322.835 147.771 322.835C147.116 322.835 146.537 322.719 146.033 322.487C145.529 322.256 145.134 321.933 144.847 321.52C144.565 321.102 144.424 320.652 144.424 320.168H145.822C145.847 320.636 146.033 321.009 146.381 321.286C146.733 321.558 147.196 321.694 147.771 321.694C148.299 321.694 148.722 321.588 149.04 321.377C149.362 321.16 149.523 320.873 149.523 320.516Z" fill="white"/>
</g>
<path d="M27.2727 40.005H23.8235V45.9453H21.877V31.2609H26.7382C28.3922 31.2609 29.663 31.6374 30.5505 32.3904C31.4447 33.1435 31.8918 34.2394 31.8918 35.6783C31.8918 36.5927 31.6431 37.3895 31.1455 38.0686C30.6547 38.7477 29.9689 39.2553 29.0881 39.5915L32.5373 45.8243V45.9453H30.4597L27.2727 40.005ZM23.8235 38.4216H26.7987C27.7602 38.4216 28.5233 38.1728 29.0881 37.6752C29.6596 37.1777 29.9453 36.512 29.9453 35.6783C29.9453 34.7706 29.673 34.0747 29.1284 33.5906C28.5905 33.1065 27.8106 32.8611 26.7886 32.8544H23.8235V38.4216ZM39.4188 46.147C37.9396 46.147 36.7361 45.6629 35.8082 44.6947C34.8804 43.7198 34.4164 42.4188 34.4164 40.7916V40.4487C34.4164 39.3662 34.6215 38.4014 35.0317 37.5542C35.4485 36.7003 36.0268 36.0347 36.7664 35.5573C37.5127 35.0732 38.3195 34.8311 39.1869 34.8311C40.6056 34.8311 41.7082 35.2984 42.4949 36.233C43.2816 37.1676 43.6749 38.5056 43.6749 40.247V41.0236H36.2822C36.3091 42.0994 36.6218 42.9701 37.2202 43.6357C37.8253 44.2947 38.5918 44.6241 39.5197 44.6241C40.1786 44.6241 40.7367 44.4896 41.1939 44.2207C41.6511 43.9518 42.0511 43.5954 42.394 43.1516L43.5337 44.0392C42.6193 45.4444 41.2477 46.147 39.4188 46.147ZM39.1869 36.3641C38.4338 36.3641 37.8018 36.6398 37.2908 37.1911C36.7798 37.7357 36.4638 38.5022 36.3428 39.4906H41.8091V39.3494C41.7553 38.4014 41.4998 37.6685 41.0426 37.1508C40.5854 36.6263 39.9668 36.3641 39.1869 36.3641ZM49.8706 43.4139L52.5735 35.0328H54.4797L50.5665 45.9453H49.1444L45.1909 35.0328H47.0971L49.8706 43.4139ZM61.2301 46.147C59.7509 46.147 58.5473 45.6629 57.6195 44.6947C56.6916 43.7198 56.2277 42.4188 56.2277 40.7916V40.4487C56.2277 39.3662 56.4327 38.4014 56.8429 37.5542C57.2598 36.7003 57.838 36.0347 58.5776 35.5573C59.3239 35.0732 60.1308 34.8311 60.9981 34.8311C62.4168 34.8311 63.5195 35.2984 64.3061 36.233C65.0928 37.1676 65.4861 38.5056 65.4861 40.247V41.0236H58.0935C58.1204 42.0994 58.433 42.9701 59.0314 43.6357C59.6366 44.2947 60.4031 44.6241 61.3309 44.6241C61.9898 44.6241 62.5479 44.4896 63.0051 44.2207C63.4623 43.9518 63.8624 43.5954 64.2053 43.1516L65.3449 44.0392C64.4305 45.4444 63.0589 46.147 61.2301 46.147ZM60.9981 36.3641C60.2451 36.3641 59.613 36.6398 59.102 37.1911C58.591 37.7357 58.275 38.5022 58.154 39.4906H63.6203V39.3494C63.5665 38.4014 63.311 37.6685 62.8538 37.1508C62.3966 36.6263 61.778 36.3641 60.9981 36.3641ZM69.9875 35.0328L70.048 36.4045C70.8817 35.3556 71.971 34.8311 73.3157 34.8311C75.6219 34.8311 76.7851 36.1322 76.8053 38.7342V45.9453H74.9394V38.7241C74.9327 37.9375 74.7512 37.3559 74.3948 36.9793C74.0452 36.6028 73.4972 36.4145 72.7509 36.4145C72.1458 36.4145 71.6146 36.5759 71.1574 36.8986C70.7002 37.2214 70.3438 37.645 70.0883 38.1694V45.9453H68.2225V35.0328H69.9875ZM86.9242 44.8662C86.1981 45.7201 85.1324 46.147 83.7271 46.147C82.5639 46.147 81.6764 45.8108 81.0645 45.1385C80.4594 44.4594 80.1535 43.4576 80.1468 42.133V35.0328H82.0126V42.0826C82.0126 43.7366 82.6849 44.5636 84.0297 44.5636C85.4551 44.5636 86.4031 44.0324 86.8738 42.9701V35.0328H88.7396V45.9453H86.9645L86.9242 44.8662ZM96.6801 46.147C95.2009 46.147 93.9973 45.6629 93.0695 44.6947C92.1416 43.7198 91.6777 42.4188 91.6777 40.7916V40.4487C91.6777 39.3662 91.8828 38.4014 92.2929 37.5542C92.7098 36.7003 93.288 36.0347 94.0276 35.5573C94.7739 35.0732 95.5808 34.8311 96.4481 34.8311C97.8668 34.8311 98.9695 35.2984 99.7561 36.233C100.543 37.1676 100.936 38.5056 100.936 40.247V41.0236H93.5435C93.5704 42.0994 93.883 42.9701 94.4814 43.6357C95.0866 44.2947 95.8531 44.6241 96.7809 44.6241C97.4399 44.6241 97.9979 44.4896 98.4551 44.2207C98.9123 43.9518 99.3124 43.5954 99.6553 43.1516L100.795 44.0392C99.8805 45.4444 98.5089 46.147 96.6801 46.147ZM96.4481 36.3641C95.6951 36.3641 95.063 36.6398 94.552 37.1911C94.041 37.7357 93.725 38.5022 93.604 39.4906H99.0703V39.3494C99.0165 38.4014 98.761 37.6685 98.3038 37.1508C97.8466 36.6263 97.2281 36.3641 96.4481 36.3641ZM118.582 40.6101C118.582 42.2708 118.202 43.6088 117.442 44.6241C116.683 45.6394 115.654 46.147 114.356 46.147C113.032 46.147 111.99 45.7268 111.23 44.8863V50.1409H109.364V35.0328H111.068L111.159 36.2431C111.919 35.3018 112.975 34.8311 114.326 34.8311C115.637 34.8311 116.673 35.3253 117.432 36.3137C118.199 37.3021 118.582 38.6771 118.582 40.4386V40.6101ZM116.716 40.3983C116.716 39.1679 116.454 38.1963 115.93 37.4836C115.405 36.7709 114.686 36.4145 113.771 36.4145C112.642 36.4145 111.795 36.9155 111.23 37.9173V43.1315C111.788 44.1266 112.642 44.6241 113.791 44.6241C114.686 44.6241 115.395 44.2711 115.92 43.5651C116.451 42.8524 116.716 41.7968 116.716 40.3983ZM126.059 46.147C124.579 46.147 123.376 45.6629 122.448 44.6947C121.52 43.7198 121.056 42.4188 121.056 40.7916V40.4487C121.056 39.3662 121.261 38.4014 121.671 37.5542C122.088 36.7003 122.667 36.0347 123.406 35.5573C124.152 35.0732 124.959 34.8311 125.827 34.8311C127.245 34.8311 128.348 35.2984 129.135 36.233C129.921 37.1676 130.315 38.5056 130.315 40.247V41.0236H122.922C122.949 42.0994 123.262 42.9701 123.86 43.6357C124.465 44.2947 125.232 44.6241 126.159 44.6241C126.818 44.6241 127.376 44.4896 127.834 44.2207C128.291 43.9518 128.691 43.5954 129.034 43.1516L130.174 44.0392C129.259 45.4444 127.887 46.147 126.059 46.147ZM125.827 36.3641C125.074 36.3641 124.442 36.6398 123.931 37.1911C123.42 37.7357 123.104 38.5022 122.983 39.4906H128.449V39.3494C128.395 38.4014 128.14 37.6685 127.682 37.1508C127.225 36.6263 126.607 36.3641 125.827 36.3641ZM138.326 36.707C138.043 36.66 137.737 36.6364 137.408 36.6364C136.184 36.6364 135.354 37.1575 134.917 38.1997V45.9453H133.051V35.0328H134.866L134.897 36.2935C135.509 35.3186 136.376 34.8311 137.499 34.8311C137.862 34.8311 138.138 34.8782 138.326 34.9723V36.707ZM150.929 39.3998C149.268 38.9225 148.058 38.3375 147.298 37.645C146.545 36.9457 146.169 36.0851 146.169 35.0631C146.169 33.9066 146.629 32.9519 147.55 32.1988C148.478 31.439 149.682 31.0592 151.161 31.0592C152.17 31.0592 153.067 31.2541 153.854 31.6441C154.647 32.0341 155.259 32.572 155.689 33.2578C156.126 33.9436 156.345 34.6933 156.345 35.5069H154.398C154.398 34.6193 154.116 33.9234 153.551 33.4192C152.986 32.9082 152.19 32.6527 151.161 32.6527C150.206 32.6527 149.46 32.8645 148.922 33.2881C148.391 33.7049 148.125 34.2865 148.125 35.0328C148.125 35.6312 148.377 36.1389 148.882 36.5557C149.393 36.9659 150.257 37.3424 151.474 37.6853C152.697 38.0282 153.652 38.4081 154.338 38.825C155.03 39.2351 155.541 39.7159 155.871 40.2672C156.207 40.8185 156.375 41.4674 156.375 42.2137C156.375 43.4038 155.911 44.3585 154.983 45.078C154.055 45.7907 152.815 46.147 151.262 46.147C150.253 46.147 149.312 45.9554 148.438 45.5722C147.564 45.1822 146.888 44.651 146.411 43.9786C145.94 43.3063 145.705 42.5431 145.705 41.6892H147.651C147.651 42.5768 147.977 43.2794 148.63 43.7971C149.288 44.3081 150.166 44.5636 151.262 44.5636C152.284 44.5636 153.067 44.3552 153.612 43.9383C154.156 43.5214 154.429 42.9533 154.429 42.2339C154.429 41.5144 154.177 40.9597 153.672 40.5698C153.168 40.1731 152.254 39.7831 150.929 39.3998ZM163.67 46.147C162.191 46.147 160.987 45.6629 160.06 44.6947C159.132 43.7198 158.668 42.4188 158.668 40.7916V40.4487C158.668 39.3662 158.873 38.4014 159.283 37.5542C159.7 36.7003 160.278 36.0347 161.018 35.5573C161.764 35.0732 162.571 34.8311 163.438 34.8311C164.857 34.8311 165.96 35.2984 166.746 36.233C167.533 37.1676 167.926 38.5056 167.926 40.247V41.0236H160.534C160.56 42.0994 160.873 42.9701 161.472 43.6357C162.077 44.2947 162.843 44.6241 163.771 44.6241C164.43 44.6241 164.988 44.4896 165.445 44.2207C165.902 43.9518 166.302 43.5954 166.645 43.1516L167.785 44.0392C166.871 45.4444 165.499 46.147 163.67 46.147ZM163.438 36.3641C162.685 36.3641 162.053 36.6398 161.542 37.1911C161.031 37.7357 160.715 38.5022 160.594 39.4906H166.06V39.3494C166.007 38.4014 165.751 37.6685 165.294 37.1508C164.837 36.6263 164.218 36.3641 163.438 36.3641ZM175.04 44.6241C175.705 44.6241 176.287 44.4224 176.785 44.019C177.282 43.6156 177.558 43.1113 177.612 42.5062H179.376C179.343 43.1315 179.128 43.7265 178.731 44.2913C178.334 44.8561 177.803 45.3066 177.137 45.6427C176.479 45.9789 175.779 46.147 175.04 46.147C173.554 46.147 172.37 45.6528 171.49 44.6645C170.616 43.6694 170.179 42.3112 170.179 40.5899V40.2773C170.179 39.2149 170.374 38.2703 170.763 37.4433C171.153 36.6163 171.712 35.9741 172.438 35.5169C173.171 35.0597 174.035 34.8311 175.03 34.8311C176.253 34.8311 177.269 35.1976 178.075 35.9304C178.889 36.6633 179.323 37.6147 179.376 38.7846H177.612C177.558 38.0786 177.289 37.5004 176.805 37.0499C176.327 36.5927 175.736 36.3641 175.03 36.3641C174.082 36.3641 173.345 36.707 172.821 37.3928C172.303 38.0719 172.044 39.0569 172.044 40.3479V40.7009C172.044 41.9582 172.303 42.9264 172.821 43.6055C173.339 44.2846 174.078 44.6241 175.04 44.6241ZM184.574 32.3904V35.0328H186.611V36.4751H184.574V43.2424C184.574 43.6794 184.664 44.0089 184.846 44.2308C185.028 44.4459 185.337 44.5535 185.774 44.5535C185.989 44.5535 186.285 44.5132 186.661 44.4325V45.9453C186.171 46.0798 185.693 46.147 185.229 46.147C184.396 46.147 183.767 45.8949 183.343 45.3906C182.92 44.8863 182.708 44.1703 182.708 43.2424V36.4751H180.721V35.0328H182.708V32.3904H184.574ZM188.672 40.3882C188.672 39.3192 188.88 38.3577 189.297 37.5038C189.721 36.6499 190.305 35.991 191.052 35.527C191.805 35.0631 192.662 34.8311 193.624 34.8311C195.11 34.8311 196.31 35.3455 197.224 36.3742C198.145 37.4029 198.606 38.7712 198.606 40.479V40.6101C198.606 41.6724 198.401 42.6272 197.991 43.4744C197.587 44.3148 197.006 44.9704 196.246 45.441C195.493 45.9117 194.625 46.147 193.644 46.147C192.165 46.147 190.964 45.6327 190.043 44.6039C189.129 43.5752 188.672 42.2137 188.672 40.5193V40.3882ZM190.548 40.6101C190.548 41.8204 190.827 42.7919 191.385 43.5248C191.949 44.2577 192.702 44.6241 193.644 44.6241C194.592 44.6241 195.345 44.2543 195.903 43.5147C196.461 42.7684 196.74 41.7262 196.74 40.3882C196.74 39.1914 196.454 38.2232 195.883 37.4836C195.318 36.7373 194.565 36.3641 193.624 36.3641C192.702 36.3641 191.96 36.7306 191.395 37.4634C190.83 38.1963 190.548 39.2452 190.548 40.6101ZM206.788 36.707C206.506 36.66 206.2 36.6364 205.871 36.6364C204.647 36.6364 203.817 37.1575 203.379 38.1997V45.9453H201.514V35.0328H203.329L203.359 36.2935C203.971 35.3186 204.839 34.8311 205.961 34.8311C206.324 34.8311 206.6 34.8782 206.788 34.9723V36.707Z" fill="#1F1F1F"/>
</svg>
