<svg width="477" height="272" viewBox="0 0 477 272" fill="none" xmlns="http://www.w3.org/2000/svg">
<rect x="1.05811" y="1" width="474.742" height="270.209" rx="4.69113" fill="white" stroke="#E5E5E5" stroke-width="0.938226"/>
<g opacity="0.16">
<rect x="67.6719" y="122.031" width="39.511" height="121.213" fill="#9D7DF9"/>
</g>
<path d="M82.8557 234.775H78.8266L80.8906 232.919C81.8677 232.041 82.5703 231.206 82.5703 230.021C82.5703 228.714 81.714 227.792 80.2209 227.792C78.7388 227.792 78.0581 228.692 77.7617 229.593L78.5851 229.911C78.7937 229.186 79.2328 228.616 80.177 228.616C81.1211 228.616 81.5932 229.197 81.5932 230.043V230.174C81.5932 230.91 81.0443 231.679 80.3307 232.337L77.8276 234.643V235.587H82.8557V234.775ZM89.4203 227.924H85.3143L85.0398 232.14L85.8193 232.249C86.1377 231.898 86.489 231.602 87.1916 231.602C88.2346 231.602 88.7945 232.184 88.7945 233.194V233.303C88.7945 234.313 88.2346 234.895 87.1916 234.895C86.2694 234.895 85.8852 234.489 85.49 233.885L84.7983 234.412C85.2594 235.071 85.9181 235.719 87.1916 235.719C88.8055 235.719 89.7716 234.676 89.7716 233.183C89.7716 231.701 88.8055 230.811 87.4881 230.811C86.6866 230.811 86.2804 231.141 85.9181 231.657H85.8413L86.0609 228.736H89.4203V227.924ZM94.2063 235.719C95.7433 235.719 96.7533 234.687 96.7533 233.183C96.7533 231.733 95.8092 230.822 94.4917 230.822C93.5586 230.822 93.0096 231.294 92.6473 231.92L92.5925 231.898C93.0096 230.12 93.9209 229.121 95.5567 227.924H94.371C93.1414 228.725 91.6373 230.504 91.6373 232.776C91.6373 234.599 92.6144 235.719 94.2063 235.719ZM94.1953 234.917C93.1853 234.917 92.5925 234.335 92.5925 233.303V233.216C92.5925 232.184 93.1853 231.602 94.1953 231.602C95.2054 231.602 95.7982 232.184 95.7982 233.216V233.303C95.7982 234.335 95.2054 234.917 94.1953 234.917Z" fill="#1F1F1F"/>
<g opacity="0.16">
<rect x="111.769" y="127.66" width="39.511" height="115.288" fill="#9D7DF9"/>
</g>
<path d="M127.106 235.475V234.662H125.13V227.812H123.692L121.661 229.711L122.199 230.293L124.131 228.492H124.208V234.662H122.067V235.475H127.106ZM133.045 235.475V233.971H134.154V233.202H133.045V227.812H131.673L128.467 233.158V233.971H132.167V235.475H133.045ZM132.112 228.525H132.167V233.202H129.334L132.112 228.525ZM139.994 235.475V233.971H141.103V233.202H139.994V227.812H138.621L135.416 233.158V233.971H139.115V235.475H139.994ZM139.061 228.525H139.115V233.202H136.283L139.061 228.525Z" fill="#1F1F1F"/>
<g opacity="0.16">
<rect x="154.927" y="107.02" width="39.511" height="136.289" fill="#9D7DF9"/>
</g>
<path d="M170.265 234.896V234.083H168.289V227.232H166.85L164.819 229.132L165.357 229.714L167.29 227.913H167.366V234.083H165.226V234.896H170.265ZM174.513 235.027C176.05 235.027 177.06 233.995 177.06 232.491C177.06 231.042 176.116 230.131 174.798 230.131C173.865 230.131 173.316 230.603 172.954 231.229L172.899 231.207C173.316 229.428 174.227 228.429 175.863 227.232H174.678C173.448 228.034 171.944 229.812 171.944 232.085C171.944 233.907 172.921 235.027 174.513 235.027ZM174.502 234.226C173.492 234.226 172.899 233.644 172.899 232.612V232.524C172.899 231.492 173.492 230.91 174.502 230.91C175.512 230.91 176.105 231.492 176.105 232.524V232.612C176.105 233.644 175.512 234.226 174.502 234.226ZM181.451 235.027C183.196 235.027 184.108 234.072 184.108 232.81C184.108 231.767 183.482 231.163 182.56 230.91V230.822C183.361 230.548 183.877 229.9 183.877 229.022C183.877 227.858 182.977 227.101 181.451 227.101C179.925 227.101 179.024 227.858 179.024 229.022C179.024 229.9 179.54 230.548 180.342 230.822V230.91C179.42 231.163 178.794 231.767 178.794 232.81C178.794 234.072 179.705 235.027 181.451 235.027ZM181.451 234.226C180.386 234.226 179.771 233.721 179.771 232.853V232.623C179.771 231.756 180.386 231.251 181.451 231.251C182.516 231.251 183.13 231.756 183.13 232.623V232.853C183.13 233.721 182.516 234.226 181.451 234.226ZM181.451 230.482C180.496 230.482 179.98 230.054 179.98 229.274V229.11C179.98 228.33 180.496 227.902 181.451 227.902C182.406 227.902 182.922 228.33 182.922 229.11V229.274C182.922 230.054 182.406 230.482 181.451 230.482Z" fill="#1F1F1F"/>
<g opacity="0.16">
<rect x="199.962" y="96.6992" width="39.511" height="145.978" fill="#9D7DF9"/>
</g>
<path d="M215.146 235.639H211.117L213.181 233.783C214.158 232.905 214.86 232.071 214.86 230.885C214.86 229.579 214.004 228.656 212.511 228.656C211.029 228.656 210.348 229.557 210.052 230.457L210.875 230.775C211.084 230.051 211.523 229.48 212.467 229.48C213.411 229.48 213.883 230.062 213.883 230.907V231.039C213.883 231.774 213.334 232.543 212.621 233.202L210.118 235.507V236.451H215.146V235.639ZM221.238 236.451V234.947H222.347V234.179H221.238V228.788H219.866L216.66 234.135V234.947H220.36V236.451H221.238ZM220.305 229.502H220.36V234.179H217.527L220.305 229.502ZM226.485 236.583C228.231 236.583 229.142 235.628 229.142 234.365C229.142 233.322 228.516 232.718 227.594 232.466V232.378C228.396 232.104 228.912 231.456 228.912 230.578C228.912 229.414 228.011 228.656 226.485 228.656C224.959 228.656 224.059 229.414 224.059 230.578C224.059 231.456 224.575 232.104 225.377 232.378V232.466C224.454 232.718 223.829 233.322 223.829 234.365C223.829 235.628 224.74 236.583 226.485 236.583ZM226.485 235.781C225.42 235.781 224.806 235.276 224.806 234.409V234.179C224.806 233.311 225.42 232.806 226.485 232.806C227.55 232.806 228.165 233.311 228.165 234.179V234.409C228.165 235.276 227.55 235.781 226.485 235.781ZM226.485 232.038C225.53 232.038 225.014 231.61 225.014 230.83V230.665C225.014 229.886 225.53 229.458 226.485 229.458C227.44 229.458 227.956 229.886 227.956 230.665V230.83C227.956 231.61 227.44 232.038 226.485 232.038Z" fill="#1F1F1F"/>
<g opacity="0.16">
<rect x="243.121" y="145.486" width="39.511" height="97.6684" fill="#9D7DF9"/>
</g>
<path d="M261.779 232.387C261.779 230.564 260.802 229.444 259.21 229.444C257.673 229.444 256.663 230.476 256.663 231.981C256.663 233.43 257.607 234.341 258.924 234.341C259.858 234.341 260.407 233.869 260.769 233.243L260.824 233.265C260.407 235.044 259.495 236.043 257.86 237.239H259.045C260.275 236.438 261.779 234.659 261.779 232.387ZM259.221 233.561C258.211 233.561 257.618 232.98 257.618 231.948V231.86C257.618 230.828 258.211 230.246 259.221 230.246C260.231 230.246 260.824 230.828 260.824 231.86V231.948C260.824 232.98 260.231 233.561 259.221 233.561ZM266.181 237.371C267.718 237.371 268.728 236.339 268.728 234.835C268.728 233.386 267.784 232.475 266.466 232.475C265.533 232.475 264.984 232.947 264.622 233.572L264.567 233.55C264.984 231.772 265.895 230.773 267.531 229.576H266.345C265.116 230.378 263.612 232.156 263.612 234.429C263.612 236.251 264.589 237.371 266.181 237.371ZM266.17 236.57C265.16 236.57 264.567 235.988 264.567 234.956V234.868C264.567 233.836 265.16 233.254 266.17 233.254C267.18 233.254 267.773 233.836 267.773 234.868V234.956C267.773 235.988 267.18 236.57 266.17 236.57Z" fill="#1F1F1F"/>
<g opacity="0.16">
<rect x="286.279" y="122.031" width="39.511" height="120.885" fill="#9D7DF9"/>
</g>
<path d="M301.616 236.784V235.972H299.64V229.121H298.202L296.171 231.02L296.709 231.602L298.641 229.802H298.718V235.972H296.577V236.784H301.616ZM307.555 236.784V235.28H308.664V234.512H307.555V229.121H306.183L302.977 234.468V235.28H306.677V236.784H307.555ZM306.622 229.835H306.677V234.512H303.844L306.622 229.835ZM314.504 236.784V235.28H315.613V234.512H314.504V229.121H313.132L309.926 234.468V235.28H313.626V236.784H314.504ZM313.571 229.835H313.626V234.512H310.793L313.571 229.835Z" fill="#1F1F1F"/>
<g opacity="0.16">
<rect x="331.313" y="110.772" width="39.511" height="131.969" fill="#9D7DF9"/>
</g>
<path d="M346.651 235.587V234.775H344.675V227.924H343.237L341.206 229.823L341.744 230.405L343.676 228.605H343.753V234.775H341.612V235.587H346.651ZM350.899 235.719C352.436 235.719 353.446 234.687 353.446 233.183C353.446 231.733 352.502 230.822 351.185 230.822C350.251 230.822 349.702 231.294 349.34 231.92L349.285 231.898C349.702 230.12 350.614 229.121 352.249 227.924H351.064C349.834 228.725 348.33 230.504 348.33 232.776C348.33 234.599 349.307 235.719 350.899 235.719ZM350.888 234.917C349.878 234.917 349.285 234.335 349.285 233.303V233.216C349.285 232.184 349.878 231.602 350.888 231.602C351.898 231.602 352.491 232.184 352.491 233.216V233.303C352.491 234.335 351.898 234.917 350.888 234.917ZM357.837 235.719C359.583 235.719 360.494 234.764 360.494 233.501C360.494 232.458 359.868 231.854 358.946 231.602V231.514C359.747 231.239 360.263 230.592 360.263 229.713C360.263 228.55 359.363 227.792 357.837 227.792C356.311 227.792 355.411 228.55 355.411 229.713C355.411 230.592 355.927 231.239 356.728 231.514V231.602C355.806 231.854 355.18 232.458 355.18 233.501C355.18 234.764 356.091 235.719 357.837 235.719ZM357.837 234.917C356.772 234.917 356.157 234.412 356.157 233.545V233.314C356.157 232.447 356.772 231.942 357.837 231.942C358.902 231.942 359.517 232.447 359.517 233.314V233.545C359.517 234.412 358.902 234.917 357.837 234.917ZM357.837 231.174C356.882 231.174 356.366 230.745 356.366 229.966V229.801C356.366 229.022 356.882 228.594 357.837 228.594C358.792 228.594 359.308 229.022 359.308 229.801V229.966C359.308 230.745 358.792 231.174 357.837 231.174Z" fill="#1F1F1F"/>
<g opacity="0.16">
<rect x="374.472" y="167.065" width="39.511" height="75.8468" fill="#9D7DF9"/>
</g>
<path d="M389.31 232.311V233.113H390.21C391.286 233.113 391.857 233.629 391.857 234.529V234.617C391.857 235.517 391.286 236.033 390.21 236.033C389.277 236.033 388.827 235.627 388.432 235.023L387.74 235.55C388.212 236.209 388.893 236.856 390.221 236.856C391.78 236.856 392.823 235.945 392.823 234.628C392.823 233.475 392.033 232.86 391.209 232.695V232.652C392.022 232.443 392.68 231.85 392.68 230.862C392.68 229.621 391.648 228.93 390.353 228.93C389.123 228.93 388.454 229.567 388.069 230.181L388.75 230.708C389.068 230.127 389.54 229.753 390.331 229.753C391.143 229.753 391.703 230.159 391.703 230.961V231.038C391.703 231.773 391.176 232.311 390.144 232.311H389.31ZM400.079 235.912H396.05L398.114 234.057C399.091 233.179 399.794 232.344 399.794 231.158C399.794 229.852 398.937 228.93 397.444 228.93C395.962 228.93 395.282 229.83 394.985 230.73L395.809 231.049C396.017 230.324 396.456 229.753 397.4 229.753C398.345 229.753 398.817 230.335 398.817 231.18V231.312C398.817 232.048 398.268 232.816 397.554 233.475L395.051 235.78V236.725H400.079V235.912Z" fill="#1F1F1F"/>
<g opacity="0.16">
<rect x="417.631" y="92.9453" width="39.511" height="149.36" fill="#9D7DF9"/>
</g>
<path d="M432.815 234.793H428.786L430.85 232.938C431.827 232.059 432.529 231.225 432.529 230.039C432.529 228.733 431.673 227.811 430.18 227.811C428.698 227.811 428.017 228.711 427.721 229.611L428.544 229.93C428.753 229.205 429.192 228.634 430.136 228.634C431.08 228.634 431.552 229.216 431.552 230.061V230.193C431.552 230.929 431.003 231.697 430.29 232.356L427.787 234.661V235.605H432.815V234.793ZM439.379 227.942H435.273L434.999 232.158L435.778 232.268C436.097 231.917 436.448 231.62 437.151 231.62C438.194 231.62 438.753 232.202 438.753 233.212V233.322C438.753 234.332 438.194 234.914 437.151 234.914C436.228 234.914 435.844 234.508 435.449 233.904L434.757 234.431C435.218 235.089 435.877 235.737 437.151 235.737C438.764 235.737 439.731 234.694 439.731 233.201C439.731 231.719 438.764 230.83 437.447 230.83C436.646 230.83 436.239 231.159 435.877 231.675H435.8L436.02 228.755H439.379V227.942ZM444.165 235.737C445.702 235.737 446.712 234.705 446.712 233.201C446.712 231.752 445.768 230.841 444.451 230.841C443.518 230.841 442.969 231.313 442.606 231.939L442.551 231.917C442.969 230.138 443.88 229.139 445.516 227.942H444.33C443.1 228.744 441.596 230.522 441.596 232.795C441.596 234.617 442.573 235.737 444.165 235.737ZM444.154 234.936C443.144 234.936 442.551 234.354 442.551 233.322V233.234C442.551 232.202 443.144 231.62 444.154 231.62C445.164 231.62 445.757 232.202 445.757 233.234V233.322C445.757 234.354 445.164 234.936 444.154 234.936Z" fill="#1F1F1F"/>
<path d="M19.4702 34.1294C21.7219 34.1294 23.073 32.8984 23.073 30.9769C23.073 29.4157 22.1873 28.515 20.1457 28.0497L19.2901 27.8545C17.969 27.5543 17.3235 27.1039 17.3235 26.1132C17.3235 24.9873 18.1492 24.4018 19.4852 24.4018C20.7011 24.4018 21.4968 24.8972 22.0672 25.6928L23.0129 25.0023C22.2323 23.8914 21.1215 23.291 19.5453 23.291C17.4887 23.291 16.0776 24.2967 16.0776 26.1582C16.0776 27.7644 17.1284 28.6051 19.0349 29.0404L19.8905 29.2356C21.2716 29.5508 21.827 30.0462 21.827 31.037C21.827 32.2379 21.0164 33.0185 19.5152 33.0185C18.2993 33.0185 17.4286 32.4931 16.693 31.5173L15.7623 32.2979C16.603 33.4388 17.7889 34.1294 19.4702 34.1294ZM28.4555 34.1294C29.9116 34.1294 31.0225 33.4088 31.5178 32.358L30.6622 31.7425C30.2569 32.5982 29.5063 33.0785 28.5305 33.0785C27.0894 33.0785 26.2338 32.0728 26.2338 30.7367V30.3765H31.8031V29.806C31.8031 27.6143 30.5271 26.0231 28.4555 26.0231C26.3538 26.0231 24.9728 27.6143 24.9728 30.0762C24.9728 32.5381 26.3538 34.1294 28.4555 34.1294ZM28.4555 27.0289C29.6864 27.0289 30.5121 27.9446 30.5121 29.3106V29.4758H26.2338V29.3707C26.2338 28.0196 27.1495 27.0289 28.4555 27.0289ZM37.0771 34.1294C38.5482 34.1294 39.554 33.4088 40.0494 32.2979L39.1787 31.7125C38.7584 32.5982 38.0528 33.0635 37.0771 33.0635C35.651 33.0635 34.9154 32.0878 34.9154 30.7367V29.4157C34.9154 28.0647 35.651 27.0889 37.0771 27.0889C38.0228 27.0889 38.6833 27.5543 38.9685 28.3499L39.9743 27.8395C39.524 26.7737 38.6083 26.0231 37.0771 26.0231C34.9004 26.0231 33.6244 27.5993 33.6244 30.0762C33.6244 32.5531 34.9004 34.1294 37.0771 34.1294ZM45.3699 33.9492V32.8984H43.7937V27.254H45.49V26.2032H43.7937V24.0566H42.7129V25.4977C42.7129 26.0231 42.5477 26.2032 42.0374 26.2032H41.3168V27.254H42.5928V32.6732C42.5928 33.4238 43.0431 33.9492 43.8688 33.9492H45.3699ZM50.7018 34.1294C52.7734 34.1294 54.1995 32.5381 54.1995 30.0762C54.1995 27.6143 52.7734 26.0231 50.7018 26.0231C48.6301 26.0231 47.204 27.6143 47.204 30.0762C47.204 32.5381 48.6301 34.1294 50.7018 34.1294ZM50.7018 33.0635C49.4108 33.0635 48.495 32.2679 48.495 30.6317V29.5208C48.495 27.8845 49.4108 27.0889 50.7018 27.0889C51.9928 27.0889 52.9085 27.8845 52.9085 29.5208V30.6317C52.9085 32.2679 51.9928 33.0635 50.7018 33.0635ZM57.7883 33.9492V28.6952C57.7883 27.9596 58.5689 27.4042 59.8599 27.4042H60.5654V26.2032H60.1001C58.8391 26.2032 58.1336 26.8938 57.8634 27.6293H57.7883V26.2032H56.5874V33.9492H57.7883ZM64.8391 34.1294C66.6104 34.1294 67.7063 33.2136 67.7063 31.7125C67.7063 30.5416 67.0458 29.791 65.3344 29.5358L64.734 29.4457C63.7732 29.2956 63.2478 28.9954 63.2478 28.2448C63.2478 27.5092 63.7732 27.0439 64.764 27.0439C65.7548 27.0439 66.4153 27.5092 66.7606 27.9896L67.5562 27.269C66.9257 26.4884 66.1 26.0231 64.8541 26.0231C63.2779 26.0231 62.0919 26.7737 62.0919 28.3048C62.0919 29.746 63.1578 30.3314 64.5839 30.5416L65.1993 30.6317C66.2201 30.7818 66.5504 31.2471 66.5504 31.8476C66.5504 32.6432 65.9499 33.1086 64.9291 33.1086C63.9534 33.1086 63.2328 32.6732 62.6324 31.9226L61.7767 32.6132C62.4672 33.5289 63.413 34.1294 64.8391 34.1294ZM75.5819 33.9492V29.2055H80.1304V28.0947H75.5819V24.582H80.5657V23.4711H74.3209V33.9492H75.5819ZM87.3916 33.9492H88.5925V26.2032H87.3916V31.5624C87.3916 32.5832 86.4608 33.0485 85.5151 33.0485C84.3592 33.0485 83.7437 32.343 83.7437 30.9619V26.2032H82.5428V31.1721C82.5428 33.0485 83.5636 34.1294 85.1548 34.1294C86.4458 34.1294 87.0313 33.4238 87.3315 32.6882H87.3916V33.9492ZM92.7636 33.9492V28.5751C92.7636 27.5843 93.6943 27.1039 94.6551 27.1039C95.811 27.1039 96.4114 27.8095 96.4114 29.1905V33.9492H97.6124V28.9804C97.6124 27.1039 96.6066 26.0231 95.0154 26.0231C93.8595 26.0231 93.1989 26.5935 92.8237 27.4642H92.7636V26.2032H91.5627V33.9492H92.7636ZM105.461 33.9492H106.662V22.8406H105.461V27.4642H105.401C104.996 26.4884 104.2 26.0231 103.135 26.0231C101.198 26.0231 99.9821 27.5993 99.9821 30.0762C99.9821 32.5531 101.198 34.1294 103.135 34.1294C104.2 34.1294 104.936 33.649 105.401 32.6882H105.461V33.9492ZM103.465 33.0485C102.114 33.0485 101.273 32.1178 101.273 30.7367V29.4157C101.273 28.0346 102.114 27.1039 103.465 27.1039C104.561 27.1039 105.461 27.7344 105.461 28.5901V31.4723C105.461 32.4781 104.561 33.0485 103.465 33.0485ZM112.54 34.1294C113.997 34.1294 115.107 33.4088 115.603 32.358L114.747 31.7425C114.342 32.5982 113.591 33.0785 112.616 33.0785C111.174 33.0785 110.319 32.0728 110.319 30.7367V30.3765H115.888V29.806C115.888 27.6143 114.612 26.0231 112.54 26.0231C110.439 26.0231 109.058 27.6143 109.058 30.0762C109.058 32.5381 110.439 34.1294 112.54 34.1294ZM112.54 27.0289C113.771 27.0289 114.597 27.9446 114.597 29.3106V29.4758H110.319V29.3707C110.319 28.0196 111.234 27.0289 112.54 27.0289ZM123.234 33.9492H124.435V22.8406H123.234V27.4642H123.174C122.768 26.4884 121.973 26.0231 120.907 26.0231C118.97 26.0231 117.754 27.5993 117.754 30.0762C117.754 32.5531 118.97 34.1294 120.907 34.1294C121.973 34.1294 122.708 33.649 123.174 32.6882H123.234V33.9492ZM121.237 33.0485C119.886 33.0485 119.045 32.1178 119.045 30.7367V29.4157C119.045 28.0346 119.886 27.1039 121.237 27.1039C122.333 27.1039 123.234 27.7344 123.234 28.5901V31.4723C123.234 32.4781 122.333 33.0485 121.237 33.0485ZM131.331 29.2656C131.331 32.1929 132.562 34.7448 134.048 36.0058H135.189C133.568 34.5647 132.457 32.0277 132.457 29.9261V28.6351C132.457 26.5335 133.523 24.0415 135.189 22.5404H134.048C132.517 23.8464 131.331 26.3684 131.331 29.2656ZM137.403 24.3868C137.913 24.3868 138.138 24.1166 138.138 23.7113V23.5161C138.138 23.1108 137.913 22.8406 137.403 22.8406C136.892 22.8406 136.667 23.1108 136.667 23.5161V23.7113C136.667 24.1166 136.892 24.3868 137.403 24.3868ZM136.802 33.9492H138.003V26.2032H136.802V33.9492ZM142.169 33.9492V28.5751C142.169 27.5843 143.1 27.1039 144.06 27.1039C145.216 27.1039 145.817 27.8095 145.817 29.1905V33.9492H147.018V28.9804C147.018 27.1039 146.012 26.0231 144.421 26.0231C143.265 26.0231 142.604 26.5935 142.229 27.4642H142.169V26.2032H140.968V33.9492H142.169ZM156.215 33.9492V32.8984H155.074V22.8406H153.873V32.7033C153.873 33.4238 154.324 33.9492 155.149 33.9492H156.215ZM164.681 33.9492V32.8984H163.795V28.6351C163.795 26.9988 162.684 26.0231 160.823 26.0231C159.427 26.0231 158.496 26.7136 158.076 27.5393L158.796 28.2148C159.217 27.5092 159.832 27.0589 160.763 27.0589C161.994 27.0589 162.594 27.6593 162.594 28.7552V29.5208H161.063C158.811 29.5208 157.761 30.3314 157.761 31.7875C157.761 33.2287 158.721 34.1294 160.358 34.1294C161.438 34.1294 162.264 33.634 162.594 32.6882H162.669C162.76 33.4088 163.12 33.9492 164.005 33.9492H164.681ZM160.553 33.1086C159.622 33.1086 159.022 32.6732 159.022 31.9076V31.5924C159.022 30.8418 159.637 30.4215 161.003 30.4215H162.594V31.6975C162.594 32.4931 161.739 33.1086 160.553 33.1086ZM169.69 34.1294C171.161 34.1294 172.167 33.4088 172.662 32.2979L171.792 31.7125C171.371 32.5982 170.666 33.0635 169.69 33.0635C168.264 33.0635 167.528 32.0878 167.528 30.7367V29.4157C167.528 28.0647 168.264 27.0889 169.69 27.0889C170.636 27.0889 171.296 27.5543 171.582 28.3499L172.587 27.8395C172.137 26.7737 171.221 26.0231 169.69 26.0231C167.513 26.0231 166.237 27.5993 166.237 30.0762C166.237 32.5531 167.513 34.1294 169.69 34.1294ZM177.097 34.1294C178.869 34.1294 179.964 33.2136 179.964 31.7125C179.964 30.5416 179.304 29.791 177.593 29.5358L176.992 29.4457C176.031 29.2956 175.506 28.9954 175.506 28.2448C175.506 27.5092 176.031 27.0439 177.022 27.0439C178.013 27.0439 178.673 27.5092 179.019 27.9896L179.814 27.269C179.184 26.4884 178.358 26.0231 177.112 26.0231C175.536 26.0231 174.35 26.7737 174.35 28.3048C174.35 29.746 175.416 30.3314 176.842 30.5416L177.458 30.6317C178.478 30.7818 178.809 31.2471 178.809 31.8476C178.809 32.6432 178.208 33.1086 177.187 33.1086C176.212 33.1086 175.491 32.6732 174.891 31.9226L174.035 32.6132C174.725 33.5289 175.671 34.1294 177.097 34.1294ZM185.005 29.2656C185.005 26.3684 183.82 23.8464 182.288 22.5404H181.147C182.814 24.0415 183.88 26.5335 183.88 28.6351V29.9261C183.88 32.0277 182.769 34.5647 181.147 36.0058H182.288C183.774 34.7448 185.005 32.1929 185.005 29.2656Z" fill="#1F1F1F"/>
<path d="M131.213 145.138L130.494 145.138L130.494 148.459L128.145 148.459L128.145 145.333L127.426 145.333L127.426 148.459L125.154 148.459L125.154 145.138L124.436 145.138L124.436 149.275L131.213 149.275L131.213 145.138ZM131.213 142.648L127.737 142.648C127.096 142.648 126.785 142.046 126.785 141.424C126.785 140.677 127.242 140.288 128.135 140.288L131.213 140.288L131.213 139.512L127.999 139.512C126.785 139.512 126.086 140.162 126.086 141.191C126.086 141.939 126.455 142.366 127.018 142.609L127.018 142.648L126.203 142.648L126.203 143.425L131.213 143.425L131.213 142.648ZM131.213 135.705L126.203 133.938L126.203 134.686L128.688 135.579L130.397 136.123L130.397 136.171L128.688 136.715L126.203 137.589L126.203 138.365L131.213 136.608L131.213 135.705ZM125.028 132.281C125.028 131.95 124.853 131.805 124.591 131.805L124.465 131.805C124.203 131.805 124.028 131.95 124.028 132.281C124.028 132.611 124.203 132.756 124.465 132.756L124.591 132.756C124.853 132.756 125.028 132.611 125.028 132.281ZM131.213 132.669L131.213 131.892L126.203 131.892L126.203 132.669L131.213 132.669ZM131.213 129.198L127.815 129.198C127.339 129.198 126.98 128.693 126.98 127.858L126.98 127.402L126.203 127.402L126.203 127.703C126.203 128.518 126.649 128.974 127.125 129.149L127.125 129.198L126.203 129.198L126.203 129.975L131.213 129.975L131.213 129.198ZM131.329 124.296C131.329 122.956 130.3 122.034 128.708 122.034C127.115 122.034 126.086 122.956 126.086 124.296C126.086 125.636 127.115 126.559 128.708 126.559C130.3 126.559 131.329 125.636 131.329 124.296ZM130.64 124.296C130.64 125.131 130.125 125.724 129.067 125.724L128.349 125.724C127.29 125.724 126.776 125.131 126.776 124.296C126.776 123.461 127.29 122.869 128.349 122.869L129.067 122.869C130.125 122.869 130.64 123.461 130.64 124.296ZM131.213 119.713L127.737 119.713C127.096 119.713 126.785 119.111 126.785 118.489C126.785 117.742 127.242 117.353 128.135 117.353L131.213 117.353L131.213 116.577L127.999 116.577C126.785 116.577 126.086 117.227 126.086 118.256C126.086 119.004 126.455 119.431 127.018 119.674L127.018 119.713L126.203 119.713L126.203 120.49L131.213 120.49L131.213 119.713ZM131.213 113.927L127.737 113.927C127.096 113.927 126.785 113.345 126.785 112.733C126.785 111.995 127.242 111.655 128.135 111.655L131.213 111.655L131.213 110.878L127.737 110.878C127.096 110.878 126.785 110.315 126.785 109.704C126.785 108.946 127.251 108.606 128.135 108.606L131.213 108.606L131.213 107.83L127.999 107.83C126.785 107.83 126.086 108.441 126.086 109.461C126.086 110.315 126.562 110.801 127.106 110.985L127.106 111.005C126.387 111.276 126.086 111.878 126.086 112.539C126.086 113.315 126.504 113.665 127.018 113.888L127.018 113.927L126.203 113.927L126.203 114.704L131.213 114.704L131.213 113.927ZM131.329 104.076C131.329 103.135 130.863 102.416 130.184 102.096L129.786 102.649C130.339 102.911 130.65 103.397 130.65 104.028C130.65 104.96 129.999 105.513 129.135 105.513L128.902 105.513L128.902 101.911L128.533 101.911C127.115 101.911 126.086 102.736 126.086 104.076C126.086 105.436 127.115 106.329 128.708 106.329C130.3 106.329 131.329 105.436 131.329 104.076ZM126.737 104.076C126.737 103.28 127.329 102.746 128.213 102.746L128.319 102.746L128.319 105.513L128.251 105.513C127.378 105.513 126.737 104.921 126.737 104.076ZM131.213 99.5873L127.737 99.5873C127.096 99.5873 126.785 98.9853 126.785 98.3639C126.785 97.6163 127.242 97.2279 128.135 97.2279L131.213 97.2279L131.213 96.4511L127.999 96.4511C126.785 96.4511 126.086 97.1017 126.086 98.1309C126.086 98.8785 126.455 99.3057 127.018 99.5485L127.018 99.5873L126.203 99.5873L126.203 100.364L131.213 100.364L131.213 99.5873ZM131.213 92.5007L130.533 92.5007L130.533 93.5202L126.882 93.5202L126.882 92.423L126.203 92.423L126.203 93.5202L124.814 93.5202L124.814 94.2193L125.746 94.2193C126.086 94.2193 126.203 94.3261 126.203 94.6562L126.203 95.1223L126.882 95.1223L126.882 94.297L130.388 94.297C130.873 94.297 131.213 94.0057 131.213 93.4716L131.213 92.5007Z" fill="#1F1F1F"/>
<path d="M174.371 123.453L174.371 122.637L167.594 122.637L167.594 123.453L170.584 123.453L170.584 126.88L167.594 126.88L167.594 127.696L174.371 127.696L174.371 126.88L171.303 126.88L171.303 123.453L174.371 123.453ZM174.488 118.758C174.488 117.816 174.022 117.097 173.342 116.777L172.944 117.33C173.497 117.593 173.808 118.078 173.808 118.709C173.808 119.641 173.157 120.195 172.293 120.195L172.06 120.195L172.06 116.592L171.691 116.592C170.274 116.592 169.244 117.418 169.244 118.758C169.244 120.117 170.274 121.01 171.866 121.01C173.458 121.01 174.488 120.117 174.488 118.758ZM169.895 118.758C169.895 117.961 170.487 117.427 171.371 117.427L171.478 117.427L171.478 120.195L171.41 120.195C170.536 120.195 169.895 119.602 169.895 118.758ZM174.371 110.967L173.691 110.967L173.691 111.54L170.934 111.54C169.876 111.54 169.244 112.259 169.244 113.463C169.244 114.366 169.691 114.968 170.225 115.24L170.662 114.774C170.206 114.502 169.914 114.104 169.914 113.502C169.914 112.705 170.303 112.317 171.012 112.317L171.507 112.317L171.507 113.307C171.507 114.764 172.031 115.443 172.973 115.443C173.905 115.443 174.488 114.822 174.488 113.764C174.488 113.065 174.167 112.531 173.555 112.317L173.555 112.268C174.022 112.21 174.371 111.977 174.371 111.404L174.371 110.967ZM173.827 113.638C173.827 114.24 173.546 114.628 173.051 114.628L172.847 114.628C172.361 114.628 172.089 114.23 172.089 113.346L172.089 112.317L172.915 112.317C173.429 112.317 173.827 112.87 173.827 113.638ZM174.371 108.077L173.691 108.077L173.691 108.815L167.186 108.815L167.186 109.592L173.565 109.592C174.031 109.592 174.371 109.3 174.371 108.766L174.371 108.077ZM174.371 104.649L173.691 104.649L173.691 105.668L170.041 105.668L170.041 104.571L169.361 104.571L169.361 105.668L167.972 105.668L167.972 106.367L168.905 106.367C169.244 106.367 169.361 106.474 169.361 106.804L169.361 107.27L170.041 107.27L170.041 106.445L173.546 106.445C174.031 106.445 174.371 106.154 174.371 105.62L174.371 104.649ZM174.371 103.056L174.371 102.279L170.895 102.279C170.254 102.279 169.944 101.677 169.944 101.055C169.944 100.308 170.4 99.9194 171.293 99.9194L174.371 99.9194L174.371 99.1426L171.157 99.1426C169.944 99.1426 169.244 99.7931 169.244 100.822C169.244 101.57 169.613 101.997 170.177 102.24L170.177 102.279L167.186 102.279L167.186 103.056L174.371 103.056Z" fill="#1F1F1F"/>
<path d="M220.344 116.053L219.626 116.053L219.626 119.374L217.276 119.374L217.276 116.248L216.557 116.248L216.557 119.374L214.285 119.374L214.285 116.053L213.567 116.053L213.567 120.19L220.344 120.19L220.344 116.053ZM220.344 111.23L220.344 110.454L213.159 110.454L213.159 111.23L216.15 111.23L216.15 111.269C215.519 111.531 215.218 112.046 215.218 112.735C215.218 113.988 216.237 114.774 217.839 114.774C219.441 114.774 220.461 113.988 220.461 112.735C220.461 112.046 220.15 111.57 219.529 111.269L219.529 111.23L220.344 111.23ZM219.762 112.522C219.762 113.396 219.16 113.939 218.266 113.939L217.412 113.939C216.519 113.939 215.917 113.396 215.917 112.522C215.917 111.813 216.324 111.23 216.878 111.23L218.742 111.23C219.393 111.23 219.762 111.813 219.762 112.522ZM220.344 105.448L220.344 104.671L215.334 104.671L215.334 105.448L218.8 105.448C219.461 105.448 219.762 106.049 219.762 106.661C219.762 107.409 219.305 107.807 218.412 107.807L215.334 107.807L215.334 108.584L218.548 108.584C219.762 108.584 220.461 107.923 220.461 106.894C220.461 106.059 220.004 105.681 219.529 105.486L219.529 105.448L220.344 105.448ZM220.461 100.885C220.461 99.9338 219.995 99.2833 219.276 98.9629L218.898 99.526C219.47 99.7979 219.771 100.254 219.771 100.885C219.771 101.808 219.14 102.284 218.266 102.284L217.412 102.284C216.538 102.284 215.907 101.808 215.907 100.885C215.907 100.274 216.208 99.8464 216.723 99.6619L216.392 99.0114C215.703 99.3027 215.218 99.895 215.218 100.885C215.218 102.293 216.237 103.119 217.839 103.119C219.441 103.119 220.461 102.293 220.461 100.885ZM220.344 93.5213L219.665 93.5213L219.665 94.0942L216.907 94.0942C215.849 94.0942 215.218 94.8127 215.218 96.0167C215.218 96.9197 215.664 97.5217 216.198 97.7935L216.635 97.3275C216.179 97.0556 215.888 96.6575 215.888 96.0555C215.888 95.2593 216.276 94.8709 216.985 94.8709L217.48 94.8709L217.48 95.8613C217.48 97.3178 218.004 97.9974 218.946 97.9974C219.878 97.9974 220.461 97.376 220.461 96.3177C220.461 95.6186 220.14 95.0846 219.529 94.8709L219.529 94.8224C219.995 94.7641 220.344 94.5311 220.344 93.9582L220.344 93.5213ZM219.8 96.1915C219.8 96.7934 219.519 97.1818 219.024 97.1818L218.82 97.1818C218.334 97.1818 218.062 96.7837 218.062 95.9002L218.062 94.8709L218.888 94.8709C219.402 94.8709 219.8 95.4244 219.8 96.1915ZM220.344 90.0678L219.665 90.0678L219.665 91.0873L216.014 91.0873L216.014 89.9901L215.334 89.9901L215.334 91.0873L213.946 91.0873L213.946 91.7864L214.878 91.7864C215.218 91.7864 215.334 91.8932 215.334 92.2233L215.334 92.6894L216.014 92.6894L216.014 91.8641L219.519 91.8641C220.004 91.8641 220.344 91.5728 220.344 91.0388L220.344 90.0678ZM214.159 88.0862C214.159 87.7561 213.984 87.6104 213.722 87.6104L213.596 87.6104C213.334 87.6104 213.159 87.7561 213.159 88.0862C213.159 88.4163 213.334 88.562 213.596 88.562L213.722 88.562C213.984 88.562 214.159 88.4163 214.159 88.0862ZM220.344 88.4746L220.344 87.6978L215.334 87.6978L215.334 88.4746L220.344 88.4746ZM220.461 83.8868C220.461 82.5469 219.432 81.6245 217.839 81.6245C216.247 81.6245 215.218 82.5469 215.218 83.8868C215.218 85.2267 216.247 86.1492 217.839 86.1492C219.432 86.1492 220.461 85.2267 220.461 83.8868ZM219.771 83.8868C219.771 84.7218 219.257 85.3141 218.198 85.3141L217.48 85.3141C216.422 85.3141 215.907 84.7218 215.907 83.8868C215.907 83.0518 216.422 82.4595 217.48 82.4595L218.198 82.4595C219.257 82.4595 219.771 83.0518 219.771 83.8868ZM220.344 79.3032L216.868 79.3032C216.227 79.3032 215.917 78.7012 215.917 78.0798C215.917 77.3322 216.373 76.9438 217.266 76.9438L220.344 76.9438L220.344 76.167L217.13 76.167C215.917 76.167 215.218 76.8175 215.218 77.8468C215.218 78.5944 215.587 79.0216 216.15 79.2644L216.15 79.3032L215.334 79.3032L215.334 80.08L220.344 80.08L220.344 79.3032Z" fill="#1F1F1F"/>
<path d="M266.317 162.532L263.249 162.532L263.249 159.59L262.531 159.59L262.531 162.532L260.259 162.532L260.259 159.309L259.54 159.309L259.54 163.348L266.317 163.348L266.317 162.532ZM260.132 157.347C260.132 157.016 259.958 156.871 259.695 156.871L259.569 156.871C259.307 156.871 259.132 157.016 259.132 157.347C259.132 157.677 259.307 157.822 259.569 157.822L259.695 157.822C259.958 157.822 260.132 157.677 260.132 157.347ZM266.317 157.735L266.317 156.958L261.307 156.958L261.307 157.735L266.317 157.735ZM266.434 153.536C266.434 152.39 265.842 151.681 264.871 151.681C264.113 151.681 263.628 152.108 263.463 153.215L263.405 153.603C263.307 154.225 263.113 154.565 262.628 154.565C262.152 154.565 261.851 154.225 261.851 153.584C261.851 152.943 262.152 152.516 262.463 152.293L261.997 151.778C261.492 152.186 261.191 152.72 261.191 153.526C261.191 154.545 261.676 155.312 262.667 155.312C263.599 155.312 263.977 154.623 264.113 153.701L264.172 153.302C264.269 152.642 264.57 152.429 264.958 152.429C265.473 152.429 265.774 152.817 265.774 153.477C265.774 154.108 265.492 154.574 265.007 154.963L265.453 155.516C266.046 155.07 266.434 154.458 266.434 153.536ZM266.317 150.042L266.317 149.265L262.841 149.265C262.201 149.265 261.89 148.663 261.89 148.042C261.89 147.294 262.346 146.906 263.239 146.906L266.317 146.906L266.317 146.129L263.104 146.129C261.89 146.129 261.191 146.78 261.191 147.809C261.191 148.556 261.56 148.984 262.123 149.226L262.123 149.265L259.132 149.265L259.132 150.042L266.317 150.042ZM266.434 142.373C266.434 141.431 265.968 140.712 265.288 140.392L264.89 140.945C265.444 141.208 265.754 141.693 265.754 142.324C265.754 143.256 265.104 143.81 264.24 143.81L264.006 143.81L264.006 140.208L263.638 140.208C262.22 140.208 261.191 141.033 261.191 142.373C261.191 143.732 262.22 144.625 263.812 144.625C265.405 144.625 266.434 143.732 266.434 142.373ZM261.841 142.373C261.841 141.577 262.434 141.043 263.317 141.043L263.424 141.043L263.424 143.81L263.356 143.81C262.482 143.81 261.841 143.217 261.841 142.373ZM266.317 137.884L262.919 137.884C262.443 137.884 262.084 137.379 262.084 136.544L262.084 136.087L261.307 136.087L261.307 136.388C261.307 137.204 261.754 137.66 262.23 137.835L262.23 137.884L261.307 137.884L261.307 138.661L266.317 138.661L266.317 137.884ZM260.132 134.44C260.132 134.11 259.958 133.964 259.695 133.964L259.569 133.964C259.307 133.964 259.132 134.11 259.132 134.44C259.132 134.77 259.307 134.916 259.569 134.916L259.695 134.916C259.958 134.916 260.132 134.77 260.132 134.44ZM266.317 134.828L266.317 134.051L261.307 134.051L261.307 134.828L266.317 134.828ZM266.434 130.25C266.434 129.308 265.968 128.59 265.288 128.269L264.89 128.823C265.444 129.085 265.754 129.57 265.754 130.202C265.754 131.134 265.104 131.687 264.24 131.687L264.006 131.687L264.006 128.085L263.638 128.085C262.22 128.085 261.191 128.91 261.191 130.25C261.191 131.61 262.22 132.503 263.812 132.503C265.405 132.503 266.434 131.61 266.434 130.25ZM261.841 130.25C261.841 129.454 262.434 128.92 263.317 128.92L263.424 128.92L263.424 131.687L263.356 131.687C262.482 131.687 261.841 131.095 261.841 130.25ZM266.434 125.033C266.434 123.887 265.842 123.178 264.871 123.178C264.113 123.178 263.628 123.606 263.463 124.713L263.405 125.101C263.307 125.722 263.113 126.062 262.628 126.062C262.152 126.062 261.851 125.722 261.851 125.081C261.851 124.441 262.152 124.013 262.463 123.79L261.997 123.275C261.492 123.683 261.191 124.217 261.191 125.023C261.191 126.043 261.676 126.81 262.667 126.81C263.599 126.81 263.977 126.12 264.113 125.198L264.172 124.8C264.269 124.14 264.57 123.926 264.958 123.926C265.473 123.926 265.774 124.314 265.774 124.975C265.774 125.606 265.492 126.072 265.007 126.46L265.453 127.014C266.046 126.567 266.434 125.955 266.434 125.033Z" fill="#1F1F1F"/>
<path d="M306.661 143.645L306.661 142.849L300.952 142.849L300.952 142.8L302.088 142.227L305.04 140.606L302.088 138.984L300.952 138.411L300.952 138.363L306.661 138.363L306.661 137.567L299.884 137.567L299.884 138.615L303.535 140.567L303.535 140.615L299.884 142.557L299.884 143.645L306.661 143.645ZM306.661 131.498L305.981 131.498L305.981 132.071L303.224 132.071C302.166 132.071 301.534 132.789 301.534 133.993C301.534 134.896 301.981 135.498 302.515 135.77L302.952 135.304C302.496 135.032 302.204 134.634 302.204 134.032C302.204 133.236 302.593 132.848 303.302 132.848L303.797 132.848L303.797 133.838C303.797 135.294 304.321 135.974 305.263 135.974C306.195 135.974 306.778 135.353 306.778 134.294C306.778 133.595 306.457 133.061 305.846 132.848L305.846 132.799C306.312 132.741 306.661 132.508 306.661 131.935L306.661 131.498ZM306.117 134.168C306.117 134.77 305.836 135.158 305.341 135.158L305.137 135.158C304.651 135.158 304.379 134.76 304.379 133.877L304.379 132.848L305.205 132.848C305.719 132.848 306.117 133.401 306.117 134.168ZM306.661 129.346L303.185 129.346C302.544 129.346 302.234 128.744 302.234 128.122C302.234 127.374 302.69 126.986 303.583 126.986L306.661 126.986L306.661 126.209L303.447 126.209C302.234 126.209 301.534 126.86 301.534 127.889C301.534 128.637 301.903 129.064 302.467 129.307L302.467 129.346L301.651 129.346L301.651 130.122L306.661 130.122L306.661 129.346ZM306.661 121.249L306.661 120.472L301.651 120.472L301.651 121.249L305.117 121.249C305.778 121.249 306.079 121.851 306.079 122.463C306.079 123.21 305.622 123.609 304.729 123.609L301.651 123.609L301.651 124.385L304.865 124.385C306.079 124.385 306.778 123.725 306.778 122.696C306.778 121.861 306.321 121.482 305.846 121.288L305.846 121.249L306.661 121.249ZM306.661 118.279L306.661 117.503L302.331 117.503L302.331 116.425L301.651 116.425L301.651 117.503L300.156 117.503L300.156 116.425L299.476 116.425L299.476 117.182C299.476 117.92 299.952 118.279 300.641 118.279L301.651 118.279L301.651 119.095L302.331 119.095L302.331 118.279L306.661 118.279ZM306.661 111.058L305.981 111.058L305.981 111.631L303.224 111.631C302.166 111.631 301.534 112.349 301.534 113.553C301.534 114.456 301.981 115.058 302.515 115.33L302.952 114.864C302.496 114.592 302.204 114.194 302.204 113.592C302.204 112.796 302.593 112.408 303.302 112.408L303.797 112.408L303.797 113.398C303.797 114.855 304.321 115.534 305.263 115.534C306.195 115.534 306.778 114.913 306.778 113.854C306.778 113.155 306.457 112.621 305.846 112.408L305.846 112.359C306.312 112.301 306.661 112.068 306.661 111.495L306.661 111.058ZM306.117 113.728C306.117 114.33 305.836 114.719 305.341 114.719L305.137 114.719C304.651 114.719 304.379 114.321 304.379 113.437L304.379 112.408L305.205 112.408C305.719 112.408 306.117 112.961 306.117 113.728ZM306.778 107.818C306.778 106.867 306.312 106.216 305.593 105.896L305.214 106.459C305.787 106.731 306.088 107.187 306.088 107.818C306.088 108.741 305.457 109.216 304.583 109.216L303.729 109.216C302.855 109.216 302.224 108.741 302.224 107.818C302.224 107.206 302.525 106.779 303.039 106.595L302.709 105.944C302.02 106.236 301.534 106.828 301.534 107.818C301.534 109.226 302.554 110.051 304.156 110.051C305.758 110.051 306.778 109.226 306.778 107.818ZM306.661 102.454L305.981 102.454L305.981 103.474L302.331 103.474L302.331 102.377L301.651 102.377L301.651 103.474L300.263 103.474L300.263 104.173L301.195 104.173C301.534 104.173 301.651 104.28 301.651 104.61L301.651 105.076L302.331 105.076L302.331 104.251L305.836 104.251C306.321 104.251 306.661 103.959 306.661 103.425L306.661 102.454ZM306.661 97.7735L306.661 96.9967L301.651 96.9967L301.651 97.7735L305.117 97.7735C305.778 97.7735 306.079 98.3755 306.079 98.9872C306.079 99.7348 305.622 100.133 304.729 100.133L301.651 100.133L301.651 100.91L304.865 100.91C306.079 100.91 306.778 100.249 306.778 99.2202C306.778 98.3852 306.321 98.0065 305.846 97.8123L305.846 97.7735L306.661 97.7735ZM306.661 94.2988L303.263 94.2988C302.787 94.2988 302.428 93.7939 302.428 92.9589L302.428 92.5025L301.651 92.5025L301.651 92.8035C301.651 93.6191 302.098 94.0755 302.573 94.2502L302.573 94.2988L301.651 94.2988L301.651 95.0756L306.661 95.0756L306.661 94.2988ZM300.476 90.8549C300.476 90.5248 300.301 90.3792 300.039 90.3792L299.913 90.3792C299.651 90.3792 299.476 90.5248 299.476 90.8549C299.476 91.185 299.651 91.3307 299.913 91.3307L300.039 91.3307C300.301 91.3307 300.476 91.185 300.476 90.8549ZM306.661 91.2433L306.661 90.4665L301.651 90.4665L301.651 91.2433L306.661 91.2433ZM306.661 87.7721L303.185 87.7721C302.544 87.7721 302.234 87.1701 302.234 86.5487C302.234 85.8011 302.69 85.4127 303.583 85.4127L306.661 85.4127L306.661 84.6359L303.447 84.6359C302.234 84.6359 301.534 85.2865 301.534 86.3157C301.534 87.0633 301.903 87.4905 302.467 87.7333L302.467 87.7721L301.651 87.7721L301.651 88.5489L306.661 88.5489L306.661 87.7721ZM307.215 78.5397C306.389 78.5397 305.884 79.0737 305.884 80.3165L305.884 81.3846C305.884 81.8409 305.807 82.1516 305.506 82.1516C305.195 82.1516 305.03 81.8215 304.943 81.4914C304.972 81.3457 304.991 81.171 304.991 81.0059C304.991 79.8602 304.282 79.1125 303.263 79.1125C302.729 79.1125 302.282 79.3261 301.971 79.6854L301.651 79.6854L301.651 78.7339L300.971 78.7339L300.971 79.4815C300.971 79.899 301.253 80.0641 301.641 80.0641L301.729 80.0641C301.602 80.3359 301.534 80.6564 301.534 81.0156C301.534 82.1516 302.243 82.8993 303.263 82.8993C303.962 82.8993 304.515 82.5497 304.797 81.9574L304.836 81.9574C304.962 82.4623 305.205 82.8216 305.71 82.8216C306.049 82.8216 306.273 82.6565 306.409 82.375L306.515 82.375C306.651 82.8701 306.943 83.1711 307.486 83.1711C308.273 83.1711 308.72 82.5303 308.72 80.9671C308.72 79.3553 308.244 78.5397 307.215 78.5397ZM307.273 79.2679C307.817 79.2679 308.088 79.7728 308.088 80.6369L308.088 81.3554C308.088 82.1419 307.729 82.4429 307.292 82.4429C306.982 82.4429 306.758 82.2973 306.613 81.9769L306.613 80.3068C306.613 79.53 306.875 79.2679 307.273 79.2679ZM304.37 81.0059C304.37 81.6662 304.059 82.0837 303.399 82.0837L303.127 82.0837C302.467 82.0837 302.156 81.6662 302.156 81.0059C302.156 80.3457 302.467 79.9281 303.127 79.9281L303.399 79.9281C304.059 79.9281 304.37 80.3457 304.37 81.0059Z" fill="#1F1F1F"/>
<path d="M349.819 129.165L343.042 131.535L343.042 132.574L349.819 134.943L349.819 134.117L347.819 133.438L347.819 130.7L349.819 130.02L349.819 129.165ZM347.101 130.904L347.101 133.244L343.799 132.098L343.799 132.049L347.101 130.904ZM350.373 123.63C349.547 123.63 349.043 124.164 349.043 125.407L349.043 126.475C349.043 126.931 348.965 127.242 348.664 127.242C348.353 127.242 348.188 126.912 348.101 126.582C348.13 126.436 348.149 126.261 348.149 126.096C348.149 124.95 347.44 124.203 346.421 124.203C345.887 124.203 345.44 124.416 345.13 124.776L344.809 124.776L344.809 123.824L344.13 123.824L344.13 124.572C344.13 124.989 344.411 125.154 344.799 125.154L344.887 125.154C344.761 125.426 344.693 125.746 344.693 126.106C344.693 127.242 345.401 127.989 346.421 127.989C347.12 127.989 347.674 127.64 347.955 127.048L347.994 127.048C348.12 127.552 348.363 127.912 348.868 127.912C349.208 127.912 349.431 127.747 349.567 127.465L349.674 127.465C349.81 127.96 350.101 128.261 350.645 128.261C351.431 128.261 351.878 127.62 351.878 126.057C351.878 124.445 351.402 123.63 350.373 123.63ZM350.431 124.358C350.975 124.358 351.247 124.863 351.247 125.727L351.247 126.446C351.247 127.232 350.887 127.533 350.45 127.533C350.14 127.533 349.916 127.387 349.771 127.067L349.771 125.397C349.771 124.62 350.033 124.358 350.431 124.358ZM347.528 126.096C347.528 126.756 347.217 127.174 346.557 127.174L346.285 127.174C345.625 127.174 345.314 126.756 345.314 126.096C345.314 125.436 345.625 125.018 346.285 125.018L346.557 125.018C347.217 125.018 347.528 125.436 347.528 126.096ZM349.819 121.68L346.421 121.68C345.945 121.68 345.586 121.175 345.586 120.34L345.586 119.884L344.809 119.884L344.809 120.185C344.809 121 345.256 121.457 345.732 121.631L345.732 121.68L344.809 121.68L344.809 122.457L349.819 122.457L349.819 121.68ZM343.634 118.236C343.634 117.906 343.46 117.76 343.197 117.76L343.071 117.76C342.809 117.76 342.634 117.906 342.634 118.236C342.634 118.566 342.809 118.712 343.071 118.712L343.197 118.712C343.46 118.712 343.634 118.566 343.634 118.236ZM349.819 118.624L349.819 117.848L344.809 117.848L344.809 118.624L349.819 118.624ZM349.936 114.066C349.936 113.114 349.47 112.464 348.751 112.143L348.373 112.706C348.945 112.978 349.246 113.435 349.246 114.066C349.246 114.988 348.615 115.464 347.741 115.464L346.887 115.464C346.013 115.464 345.382 114.988 345.382 114.066C345.382 113.454 345.683 113.027 346.198 112.842L345.868 112.192C345.178 112.483 344.693 113.075 344.693 114.066C344.693 115.474 345.712 116.299 347.314 116.299C348.916 116.299 349.936 115.474 349.936 114.066ZM349.819 107.692L349.819 106.915L344.809 106.915L344.809 107.692L348.276 107.692C348.936 107.692 349.237 108.294 349.237 108.906C349.237 109.653 348.78 110.052 347.887 110.052L344.809 110.052L344.809 110.828L348.023 110.828C349.237 110.828 349.936 110.168 349.936 109.139C349.936 108.304 349.479 107.925 349.004 107.731L349.004 107.692L349.819 107.692ZM349.819 103.48L349.14 103.48L349.14 104.217L342.634 104.217L342.634 104.994L349.013 104.994C349.479 104.994 349.819 104.703 349.819 104.169L349.819 103.48ZM349.819 100.051L349.14 100.051L349.14 101.071L345.489 101.071L345.489 99.9736L344.809 99.9736L344.809 101.071L343.421 101.071L343.421 101.77L344.353 101.77C344.693 101.77 344.809 101.877 344.809 102.207L344.809 102.673L345.489 102.673L345.489 101.848L348.994 101.848C349.479 101.848 349.819 101.556 349.819 101.022L349.819 100.051ZM349.819 95.3704L349.819 94.5936L344.809 94.5936L344.809 95.3704L348.276 95.3704C348.936 95.3704 349.237 95.9724 349.237 96.5841C349.237 97.3317 348.78 97.7298 347.887 97.7298L344.809 97.7298L344.809 98.5066L348.023 98.5066C349.237 98.5066 349.936 97.8464 349.936 96.8171C349.936 95.9821 349.479 95.6034 349.004 95.4092L349.004 95.3704L349.819 95.3704ZM349.819 91.8957L346.421 91.8957C345.945 91.8957 345.586 91.3908 345.586 90.5558L345.586 90.0995L344.809 90.0995L344.809 90.4005C344.809 91.2161 345.256 91.6724 345.732 91.8472L345.732 91.8957L344.809 91.8957L344.809 92.6725L349.819 92.6725L349.819 91.8957ZM349.936 87.004C349.936 86.0622 349.47 85.3437 348.79 85.0232L348.392 85.5767C348.945 85.8388 349.256 86.3243 349.256 86.9554C349.256 87.8876 348.606 88.441 347.741 88.441L347.508 88.441L347.508 84.8388L347.139 84.8388C345.722 84.8388 344.693 85.6641 344.693 87.004C344.693 88.3633 345.722 89.2566 347.314 89.2566C348.907 89.2566 349.936 88.3633 349.936 87.004ZM345.343 87.004C345.343 86.2078 345.935 85.6738 346.819 85.6738L346.926 85.6738L346.926 88.441L346.858 88.441C345.984 88.441 345.343 87.8487 345.343 87.004Z" fill="#1F1F1F"/>
<path d="M397.669 184.111L394.601 184.111L394.601 181.169L393.882 181.169L393.882 184.111L391.61 184.111L391.61 180.888L390.892 180.888L390.892 184.927L397.669 184.927L397.669 184.111ZM391.484 178.926C391.484 178.596 391.309 178.45 391.047 178.45L390.921 178.45C390.659 178.45 390.484 178.596 390.484 178.926C390.484 179.256 390.659 179.401 390.921 179.401L391.047 179.401C391.309 179.401 391.484 179.256 391.484 178.926ZM397.669 179.314L397.669 178.537L392.659 178.537L392.659 179.314L397.669 179.314ZM397.785 175.115C397.785 173.969 397.193 173.26 396.222 173.26C395.465 173.26 394.979 173.687 394.814 174.794L394.756 175.183C394.659 175.804 394.465 176.144 393.979 176.144C393.504 176.144 393.203 175.804 393.203 175.163C393.203 174.522 393.504 174.095 393.814 173.872L393.348 173.357C392.843 173.765 392.542 174.299 392.542 175.105C392.542 176.124 393.028 176.891 394.018 176.891C394.95 176.891 395.329 176.202 395.465 175.28L395.523 174.882C395.62 174.221 395.921 174.008 396.31 174.008C396.824 174.008 397.125 174.396 397.125 175.056C397.125 175.687 396.844 176.154 396.358 176.542L396.805 177.095C397.397 176.649 397.785 176.037 397.785 175.115ZM397.669 171.621L397.669 170.844L394.193 170.844C393.552 170.844 393.241 170.242 393.241 169.621C393.241 168.873 393.698 168.485 394.591 168.485L397.669 168.485L397.669 167.708L394.455 167.708C393.241 167.708 392.542 168.359 392.542 169.388C392.542 170.136 392.911 170.563 393.474 170.805L393.474 170.844L390.484 170.844L390.484 171.621L397.669 171.621ZM397.785 163.952C397.785 163.01 397.319 162.292 396.64 161.971L396.242 162.525C396.795 162.787 397.106 163.272 397.106 163.903C397.106 164.835 396.455 165.389 395.591 165.389L395.358 165.389L395.358 161.787L394.989 161.787C393.571 161.787 392.542 162.612 392.542 163.952C392.542 165.311 393.571 166.204 395.164 166.204C396.756 166.204 397.785 165.311 397.785 163.952ZM393.193 163.952C393.193 163.156 393.785 162.622 394.669 162.622L394.775 162.622L394.775 165.389L394.708 165.389C393.834 165.389 393.193 164.797 393.193 163.952ZM397.669 159.463L394.271 159.463C393.795 159.463 393.436 158.958 393.436 158.123L393.436 157.667L392.659 157.667L392.659 157.968C392.659 158.783 393.105 159.24 393.581 159.414L393.581 159.463L392.659 159.463L392.659 160.24L397.669 160.24L397.669 159.463ZM391.484 156.019C391.484 155.689 391.309 155.543 391.047 155.543L390.921 155.543C390.659 155.543 390.484 155.689 390.484 156.019C390.484 156.349 390.659 156.495 390.921 156.495L391.047 156.495C391.309 156.495 391.484 156.349 391.484 156.019ZM397.669 156.407L397.669 155.631L392.659 155.631L392.659 156.407L397.669 156.407ZM397.785 151.829C397.785 150.887 397.319 150.169 396.64 149.849L396.242 150.402C396.795 150.664 397.106 151.15 397.106 151.781C397.106 152.713 396.455 153.266 395.591 153.266L395.358 153.266L395.358 149.664L394.989 149.664C393.571 149.664 392.542 150.489 392.542 151.829C392.542 153.189 393.571 154.082 395.164 154.082C396.756 154.082 397.785 153.189 397.785 151.829ZM393.193 151.829C393.193 151.033 393.785 150.499 394.669 150.499L394.775 150.499L394.775 153.266L394.708 153.266C393.834 153.266 393.193 152.674 393.193 151.829ZM397.785 146.612C397.785 145.466 397.193 144.758 396.222 144.758C395.465 144.758 394.979 145.185 394.814 146.292L394.756 146.68C394.659 147.301 394.465 147.641 393.979 147.641C393.504 147.641 393.203 147.301 393.203 146.661C393.203 146.02 393.504 145.593 393.814 145.369L393.348 144.855C392.843 145.262 392.542 145.796 392.542 146.602C392.542 147.622 393.028 148.389 394.018 148.389C394.95 148.389 395.329 147.7 395.465 146.777L395.523 146.379C395.62 145.719 395.921 145.505 396.31 145.505C396.824 145.505 397.125 145.894 397.125 146.554C397.125 147.185 396.844 147.651 396.358 148.039L396.805 148.593C397.397 148.146 397.785 147.534 397.785 146.612Z" fill="#1F1F1F"/>
<path d="M440.828 107.502L440.828 106.687L434.05 106.687L434.05 107.502L437.041 107.502L437.041 110.93L434.05 110.93L434.05 111.745L440.828 111.745L440.828 110.93L437.759 110.93L437.759 107.502L440.828 107.502ZM440.944 102.798C440.944 101.458 439.915 100.535 438.323 100.535C436.73 100.535 435.701 101.458 435.701 102.798C435.701 104.138 436.73 105.06 438.323 105.06C439.915 105.06 440.944 104.138 440.944 102.798ZM440.255 102.798C440.255 103.633 439.74 104.225 438.682 104.225L437.963 104.225C436.905 104.225 436.39 103.633 436.39 102.798C436.39 101.963 436.905 101.37 437.963 101.37L438.682 101.37C439.74 101.37 440.255 101.963 440.255 102.798ZM440.828 98.2141L437.429 98.2141C436.954 98.2141 436.594 97.7092 436.594 96.8742L436.594 96.4179L435.817 96.4179L435.817 96.7189C435.817 97.5345 436.264 97.9908 436.74 98.1656L436.74 98.2141L435.817 98.2141L435.817 98.9909L440.828 98.9909L440.828 98.2141ZM440.828 93.0429L440.148 93.0429L440.148 94.0624L436.497 94.0624L436.497 92.9652L435.817 92.9652L435.817 94.0624L434.429 94.0624L434.429 94.7615L435.361 94.7615C435.701 94.7615 435.817 94.8683 435.817 95.1984L435.817 95.6645L436.497 95.6645L436.497 94.8391L440.002 94.8391C440.488 94.8391 440.828 94.5479 440.828 94.0138L440.828 93.0429ZM434.643 91.0613C434.643 90.7311 434.468 90.5855 434.206 90.5855L434.079 90.5855C433.817 90.5855 433.643 90.7311 433.643 91.0613C433.643 91.3914 433.817 91.537 434.079 91.537L434.206 91.537C434.468 91.537 434.643 91.3914 434.643 91.0613ZM440.828 91.4497L440.828 90.6729L435.817 90.6729L435.817 91.4497L440.828 91.4497ZM440.944 86.891C440.944 85.9395 440.478 85.2889 439.76 84.9685L439.381 85.5317C439.954 85.8035 440.255 86.2599 440.255 86.891C440.255 87.8134 439.624 88.2892 438.75 88.2892L437.895 88.2892C437.021 88.2892 436.39 87.8134 436.39 86.891C436.39 86.2793 436.691 85.8521 437.206 85.6676L436.876 85.0171C436.186 85.3083 435.701 85.9006 435.701 86.891C435.701 88.2989 436.72 89.1242 438.323 89.1242C439.925 89.1242 440.944 88.2989 440.944 86.891ZM440.828 80.5173L440.828 79.7406L435.817 79.7406L435.817 80.5173L439.284 80.5173C439.944 80.5173 440.245 81.1193 440.245 81.731C440.245 82.4787 439.789 82.8768 438.895 82.8768L435.817 82.8768L435.817 83.6535L439.031 83.6535C440.245 83.6535 440.944 82.9933 440.944 81.9641C440.944 81.129 440.488 80.7504 440.012 80.5562L440.012 80.5173L440.828 80.5173ZM440.828 76.3047L440.148 76.3047L440.148 77.0427L433.643 77.0427L433.643 77.8194L440.022 77.8194C440.488 77.8194 440.828 77.5281 440.828 76.9941L440.828 76.3047ZM440.828 72.8765L440.148 72.8765L440.148 73.896L436.497 73.896L436.497 72.7988L435.817 72.7988L435.817 73.896L434.429 73.896L434.429 74.5951L435.361 74.5951C435.701 74.5951 435.817 74.7019 435.817 75.032L435.817 75.4981L436.497 75.4981L436.497 74.6728L440.002 74.6728C440.488 74.6728 440.828 74.3815 440.828 73.8475L440.828 72.8765ZM440.828 68.1956L440.828 67.4189L435.817 67.4189L435.817 68.1956L439.284 68.1956C439.944 68.1956 440.245 68.7976 440.245 69.4093C440.245 70.157 439.789 70.5551 438.895 70.5551L435.817 70.5551L435.817 71.3318L439.031 71.3318C440.245 71.3318 440.944 70.6716 440.944 69.6424C440.944 68.8073 440.488 68.4287 440.012 68.2345L440.012 68.1956L440.828 68.1956ZM440.828 64.721L437.429 64.721C436.954 64.721 436.594 64.2161 436.594 63.381L436.594 62.9247L435.817 62.9247L435.817 63.2257C435.817 64.0413 436.264 64.4976 436.74 64.6724L436.74 64.721L435.817 64.721L435.817 65.4977L440.828 65.4977L440.828 64.721ZM440.944 59.8292C440.944 58.8874 440.478 58.1689 439.798 57.8485L439.4 58.4019C439.954 58.6641 440.264 59.1496 440.264 59.7807C440.264 60.7128 439.614 61.2662 438.75 61.2662L438.517 61.2662L438.517 57.664L438.148 57.664C436.73 57.664 435.701 58.4893 435.701 59.8292C435.701 61.1886 436.73 62.0818 438.323 62.0818C439.915 62.0818 440.944 61.1886 440.944 59.8292ZM436.352 59.8292C436.352 59.033 436.944 58.499 437.827 58.499L437.934 58.499L437.934 61.2662L437.866 61.2662C436.992 61.2662 436.352 60.674 436.352 59.8292Z" fill="#1F1F1F"/>
</svg>
