<svg width="227" height="272" viewBox="0 0 227 272" fill="none" xmlns="http://www.w3.org/2000/svg">
<rect x="0.565186" y="0.993164" width="225.301" height="270.209" rx="3.80576" fill="white" stroke="#E5E5E5" stroke-width="0.761153"/>
<path d="M22.0846 27.9316H23.2659V19.4311H22.2673V26.5068H22.2307L21.2077 24.6191L18.1022 19.4311H16.9209V27.9316H17.9196V20.856H17.9561L18.9791 22.7436L22.0846 27.9316ZM29.6417 27.9316H30.616V21.6476H29.6417V25.9953C29.6417 26.8234 28.8866 27.2009 28.1194 27.2009C27.1816 27.2009 26.6823 26.6285 26.6823 25.5081V21.6476H25.7081V25.6786C25.7081 27.2009 26.5362 28.0778 27.8271 28.0778C28.8744 28.0778 29.3494 27.5054 29.593 26.9087H29.6417V27.9316ZM33.9999 27.9316V23.5718C33.9999 22.768 34.7306 22.3783 35.4978 22.3783C36.4234 22.3783 36.8496 22.9507 36.8496 24.0711V27.9316H37.8239V23.5718C37.8239 22.768 38.5302 22.3783 39.2975 22.3783C40.2474 22.3783 40.6736 22.9628 40.6736 24.0711V27.9316H41.6479V23.9006C41.6479 22.3783 40.8807 21.5014 39.6019 21.5014C38.5302 21.5014 37.9213 22.0982 37.6899 22.7802H37.6656C37.3246 21.879 36.5695 21.5014 35.7414 21.5014C34.7671 21.5014 34.3287 22.0251 34.0486 22.6706H33.9999V21.6476H33.0256V27.9316H33.9999ZM43.9928 27.9316H44.9671V26.9087H45.0158C45.3934 27.6881 45.9901 28.0778 46.8548 28.0778C48.4258 28.0778 49.4122 26.799 49.4122 24.7896C49.4122 22.7802 48.4258 21.5014 46.8548 21.5014C45.9901 21.5014 45.3446 21.879 45.0158 22.6706H44.9671V18.9196H43.9928V27.9316ZM46.5868 27.2009C45.6978 27.2009 44.9671 26.7382 44.9671 25.9222V23.5839C44.9671 22.8898 45.6978 22.3783 46.5868 22.3783C47.6829 22.3783 48.3649 23.1333 48.3649 24.2538V25.3255C48.3649 26.4459 47.6829 27.2009 46.5868 27.2009ZM53.7548 28.0778C54.9361 28.0778 55.8373 27.4932 56.2392 26.6407L55.545 26.1414C55.2162 26.8356 54.6073 27.2253 53.8157 27.2253C52.6466 27.2253 51.9524 26.4093 51.9524 25.3255V25.0332H56.4706V24.5704C56.4706 22.7923 55.4354 21.5014 53.7548 21.5014C52.0498 21.5014 50.9294 22.7923 50.9294 24.7896C50.9294 26.7869 52.0498 28.0778 53.7548 28.0778ZM53.7548 22.3174C54.7534 22.3174 55.4233 23.0603 55.4233 24.1685V24.3025H51.9524V24.2172C51.9524 23.1212 52.6953 22.3174 53.7548 22.3174ZM59.3852 27.9316V23.6692C59.3852 23.0724 60.0185 22.6218 61.0659 22.6218H61.6383V21.6476H61.2607C60.2377 21.6476 59.6654 22.2078 59.4461 22.8045H59.3852V21.6476H58.411V27.9316H59.3852ZM68.8055 28.0778C70.4861 28.0778 71.643 26.7869 71.643 24.7896C71.643 22.7923 70.4861 21.5014 68.8055 21.5014C67.1248 21.5014 65.9679 22.7923 65.9679 24.7896C65.9679 26.7869 67.1248 28.0778 68.8055 28.0778ZM68.8055 27.2131C67.7581 27.2131 67.0152 26.5677 67.0152 25.2402V24.339C67.0152 23.0115 67.7581 22.3661 68.8055 22.3661C69.8528 22.3661 70.5957 23.0115 70.5957 24.339V25.2402C70.5957 26.5677 69.8528 27.2131 68.8055 27.2131ZM73.8499 27.9316H74.8242V22.5001H76.176V21.6476H74.8242V19.7721H76.176V18.9196H75.2261C74.3005 18.9196 73.8499 19.5163 73.8499 20.381V21.6476H72.8269V22.5001H73.8499V27.9316ZM83.4897 28.0778C85.3165 28.0778 86.4125 27.0791 86.4125 25.5203C86.4125 24.2538 85.694 23.523 84.0377 23.1455L83.3436 22.9872C82.2719 22.7436 81.7482 22.3783 81.7482 21.5745C81.7482 20.6611 82.418 20.1862 83.5019 20.1862C84.4883 20.1862 85.1338 20.588 85.5966 21.2335L86.3638 20.6733C85.7305 19.7721 84.8293 19.2849 83.5506 19.2849C81.8822 19.2849 80.7374 20.1009 80.7374 21.611C80.7374 22.9141 81.5899 23.5961 83.1365 23.9493L83.8307 24.1076C84.9511 24.3634 85.4017 24.7652 85.4017 25.569C85.4017 26.5433 84.7441 27.1766 83.5263 27.1766C82.5398 27.1766 81.8334 26.7503 81.2367 25.9587L80.4816 26.592C81.1636 27.5176 82.1257 28.0778 83.4897 28.0778ZM91.0227 27.9316V27.0791H89.744V22.5001H91.1202V21.6476H89.744V19.906H88.8672V21.0752C88.8672 21.5014 88.7332 21.6476 88.3191 21.6476H87.7346V22.5001H88.7697V26.8965C88.7697 27.5054 89.1351 27.9316 89.8049 27.9316H91.0227ZM98.136 27.9316V27.0791H97.4175V23.6205C97.4175 22.293 96.5163 21.5014 95.0061 21.5014C93.8736 21.5014 93.1185 22.0616 92.7775 22.7314L93.3621 23.2795C93.7031 22.7071 94.2024 22.3417 94.9574 22.3417C95.9561 22.3417 96.4432 22.8289 96.4432 23.7179V24.339H95.201C93.3742 24.339 92.5217 24.9966 92.5217 26.1779C92.5217 27.3471 93.3012 28.0778 94.6286 28.0778C95.5055 28.0778 96.1753 27.6759 96.4432 26.9087H96.5041C96.5772 27.4932 96.8694 27.9316 97.588 27.9316H98.136ZM94.7869 27.2496C94.0319 27.2496 93.5447 26.8965 93.5447 26.2754V26.0196C93.5447 25.4107 94.0441 25.0697 95.1523 25.0697H96.4432V26.1049C96.4432 26.7503 95.749 27.2496 94.7869 27.2496ZM100.836 27.9316V23.6692C100.836 23.0724 101.469 22.6218 102.516 22.6218H103.089V21.6476H102.711C101.688 21.6476 101.116 22.2078 100.897 22.8045H100.836V21.6476H99.8614V27.9316H100.836ZM107.322 27.9316V27.0791H106.043V22.5001H107.419V21.6476H106.043V19.906H105.166V21.0752C105.166 21.5014 105.032 21.6476 104.618 21.6476H104.034V22.5001H105.069V26.8965C105.069 27.5054 105.434 27.9316 106.104 27.9316H107.322ZM113.193 27.9316H114.167V21.6476H113.193V25.9953C113.193 26.8234 112.438 27.2009 111.671 27.2009C110.733 27.2009 110.234 26.6285 110.234 25.5081V21.6476H109.259V25.6786C109.259 27.2009 110.087 28.0778 111.378 28.0778C112.426 28.0778 112.901 27.5054 113.144 26.9087H113.193V27.9316ZM116.577 30.3673H117.551V26.9087H117.6C117.977 27.6881 118.574 28.0778 119.439 28.0778C121.01 28.0778 121.996 26.799 121.996 24.7896C121.996 22.7802 121.01 21.5014 119.439 21.5014C118.574 21.5014 117.929 21.879 117.6 22.6706H117.551V21.6476H116.577V30.3673ZM119.171 27.2009C118.282 27.2009 117.551 26.7382 117.551 25.9222V23.5839C117.551 22.8898 118.282 22.3783 119.171 22.3783C120.267 22.3783 120.949 23.1333 120.949 24.2538V25.3255C120.949 26.4459 120.267 27.2009 119.171 27.2009ZM125.864 28.0778C127.301 28.0778 128.19 27.3349 128.19 26.1171C128.19 25.1671 127.654 24.5582 126.266 24.3512L125.779 24.2781C124.999 24.1563 124.573 23.9128 124.573 23.3038C124.573 22.7071 124.999 22.3296 125.803 22.3296C126.607 22.3296 127.143 22.7071 127.423 23.0968L128.068 22.5122C127.557 21.879 126.887 21.5014 125.876 21.5014C124.597 21.5014 123.635 22.1103 123.635 23.3525C123.635 24.5217 124.5 24.9966 125.657 25.1671L126.156 25.2402C126.984 25.362 127.252 25.7395 127.252 26.2267C127.252 26.8721 126.765 27.2496 125.937 27.2496C125.145 27.2496 124.561 26.8965 124.074 26.2876L123.379 26.8478C123.94 27.5906 124.707 28.0778 125.864 28.0778ZM133.459 30.3673H134.433V26.9087H134.482C134.859 27.6881 135.456 28.0778 136.321 28.0778C137.892 28.0778 138.878 26.799 138.878 24.7896C138.878 22.7802 137.892 21.5014 136.321 21.5014C135.456 21.5014 134.811 21.879 134.482 22.6706H134.433V21.6476H133.459V30.3673ZM136.053 27.2009C135.164 27.2009 134.433 26.7382 134.433 25.9222V23.5839C134.433 22.8898 135.164 22.3783 136.053 22.3783C137.149 22.3783 137.831 23.1333 137.831 24.2538V25.3255C137.831 26.4459 137.149 27.2009 136.053 27.2009ZM143.221 28.0778C144.402 28.0778 145.303 27.4932 145.705 26.6407L145.011 26.1414C144.682 26.8356 144.073 27.2253 143.282 27.2253C142.112 27.2253 141.418 26.4093 141.418 25.3255V25.0332H145.936V24.5704C145.936 22.7923 144.901 21.5014 143.221 21.5014C141.516 21.5014 140.395 22.7923 140.395 24.7896C140.395 26.7869 141.516 28.0778 143.221 28.0778ZM143.221 22.3174C144.219 22.3174 144.889 23.0603 144.889 24.1685V24.3025H141.418V24.2172C141.418 23.1212 142.161 22.3174 143.221 22.3174ZM148.851 27.9316V23.6692C148.851 23.0724 149.484 22.6218 150.532 22.6218H151.104V21.6476H150.727C149.704 21.6476 149.131 22.2078 148.912 22.8045H148.851V21.6476H147.877V27.9316H148.851ZM155.994 27.9316H156.993V20.7707H157.053L157.772 22.1956L159.806 25.8978L161.84 22.1956L162.558 20.7707H162.619V27.9316H163.618V19.4311H162.302L159.855 24.0102H159.794L157.358 19.4311H155.994V27.9316ZM168.477 28.0778C169.658 28.0778 170.56 27.4932 170.962 26.6407L170.267 26.1414C169.939 26.8356 169.33 27.2253 168.538 27.2253C167.369 27.2253 166.675 26.4093 166.675 25.3255V25.0332H171.193V24.5704C171.193 22.7923 170.158 21.5014 168.477 21.5014C166.772 21.5014 165.652 22.7923 165.652 24.7896C165.652 26.7869 166.772 28.0778 168.477 28.0778ZM168.477 22.3174C169.476 22.3174 170.146 23.0603 170.146 24.1685V24.3025H166.675V24.2172C166.675 23.1212 167.418 22.3174 168.477 22.3174ZM174.108 27.9316V23.5718C174.108 22.768 174.863 22.3783 175.642 22.3783C176.58 22.3783 177.067 22.9507 177.067 24.0711V27.9316H178.041V23.9006C178.041 22.3783 177.225 21.5014 175.934 21.5014C174.997 21.5014 174.461 21.9642 174.156 22.6706H174.108V21.6476H173.133V27.9316H174.108ZM182.996 27.9316V27.0791H181.717V22.5001H183.094V21.6476H181.717V19.906H180.841V21.0752C180.841 21.5014 180.707 21.6476 180.293 21.6476H179.708V22.5001H180.743V26.8965C180.743 27.5054 181.108 27.9316 181.778 27.9316H182.996ZM187.322 28.0778C189.002 28.0778 190.159 26.7869 190.159 24.7896C190.159 22.7923 189.002 21.5014 187.322 21.5014C185.641 21.5014 184.484 22.7923 184.484 24.7896C184.484 26.7869 185.641 28.0778 187.322 28.0778ZM187.322 27.2131C186.274 27.2131 185.531 26.5677 185.531 25.2402V24.339C185.531 23.0115 186.274 22.3661 187.322 22.3661C188.369 22.3661 189.112 23.0115 189.112 24.339V25.2402C189.112 26.5677 188.369 27.2131 187.322 27.2131ZM193.071 27.9316V23.6692C193.071 23.0724 193.704 22.6218 194.751 22.6218H195.324V21.6476H194.946C193.923 21.6476 193.351 22.2078 193.132 22.8045H193.071V21.6476H192.096V27.9316H193.071Z" fill="#1F1F1F"/>
<g opacity="0.4">
<g opacity="0.8">
<rect x="37.1011" y="229.339" width="7.38155" height="7.38155" rx="3.69077" fill="#F2C94C"/>
</g>
</g>
<path d="M39.3151 247.269C40.5478 247.269 41.0866 246.287 41.0866 244.605C41.0866 242.922 40.5478 241.94 39.3151 241.94C38.0823 241.94 37.5435 242.922 37.5435 244.605C37.5435 246.287 38.0823 247.269 39.3151 247.269ZM39.3151 246.73C38.5105 246.73 38.1931 246.022 38.1931 245.025V244.184C38.1931 243.187 38.5105 242.479 39.3151 242.479C40.1196 242.479 40.437 243.187 40.437 244.184V245.025C40.437 246.022 40.1196 246.73 39.3151 246.73Z" fill="#212121"/>
<g opacity="0.8">
<rect x="78.002" y="229.339" width="7.38155" height="7.38155" rx="3.69077" fill="#F2C94C"/>
</g>
<path d="M82.0397 247.181V246.634H80.711V242.028H79.744L78.3784 243.305L78.7401 243.697L80.0393 242.486H80.0909V246.634H78.6515V247.181H82.0397Z" fill="#212121"/>
<rect x="118.904" y="229.339" width="7.38155" height="7.38155" rx="3.69077" fill="#E7AF07"/>
<path d="M122.838 246.635H120.129L121.517 245.388C122.174 244.797 122.646 244.236 122.646 243.439C122.646 242.561 122.07 241.941 121.066 241.941C120.07 241.941 119.612 242.546 119.413 243.151L119.967 243.365C120.107 242.878 120.402 242.494 121.037 242.494C121.672 242.494 121.989 242.886 121.989 243.454V243.543C121.989 244.037 121.62 244.554 121.14 244.997L119.457 246.547V247.182H122.838V246.635Z" fill="#212121"/>
<g opacity="0.16">
<rect x="159.805" y="229.339" width="7.38155" height="7.38155" rx="3.69077" fill="#E7AF07"/>
</g>
<path d="M161.171 244.088V244.627H161.776C162.499 244.627 162.883 244.974 162.883 245.579V245.638C162.883 246.244 162.499 246.591 161.776 246.591C161.148 246.591 160.846 246.318 160.58 245.912L160.115 246.266C160.432 246.709 160.89 247.144 161.783 247.144C162.831 247.144 163.533 246.532 163.533 245.646C163.533 244.871 163.001 244.457 162.448 244.347V244.317C162.994 244.177 163.437 243.778 163.437 243.114C163.437 242.28 162.743 241.815 161.872 241.815C161.045 241.815 160.595 242.243 160.336 242.656L160.794 243.011C161.008 242.619 161.326 242.368 161.857 242.368C162.403 242.368 162.78 242.641 162.78 243.18V243.232C162.78 243.727 162.425 244.088 161.732 244.088H161.171Z" fill="#212121"/>
<rect x="32.5337" y="50.4678" width="152.992" height="152.992" rx="76.4958" fill="#F2C94C"/>
<g style="mix-blend-mode:overlay">
<path d="M109.03 126.964H185.525C185.525 148.029 176.812 167.099 162.969 180.903L109.03 126.964Z" fill="#ACB9FF"/>
</g>
<g opacity="0.4">
<path d="M109.03 126.963H185.525C185.525 105.898 176.812 86.8277 162.969 73.0234L109.03 126.963Z" fill="#FFE597"/>
</g>
<path d="M109.029 126.964V50.468C130.094 50.468 149.164 59.1815 162.969 73.0245L109.029 126.964Z" fill="#FFE597"/>
</svg>
