<svg width="659" height="376" viewBox="0 0 659 376" fill="none" xmlns="http://www.w3.org/2000/svg">
<rect x="0.789742" y="1.41377" width="656.594" height="373.154" rx="5.85084" fill="white" stroke="#E5E5E5" stroke-width="1.30019"/>
<path d="M591.34 135H589.959V125.84L587.188 126.858V125.61L591.125 124.132H591.34V135ZM601.267 124.176V125.343H601.014C599.945 125.362 599.093 125.679 598.459 126.294C597.825 126.908 597.459 127.772 597.36 128.886C597.929 128.232 598.707 127.906 599.692 127.906C600.633 127.906 601.383 128.237 601.943 128.901C602.508 129.565 602.79 130.421 602.79 131.471C602.79 132.586 602.485 133.477 601.876 134.146C601.272 134.814 600.46 135.149 599.44 135.149C598.405 135.149 597.565 134.752 596.921 133.96C596.277 133.163 595.956 132.137 595.956 130.884V130.357C595.956 128.366 596.379 126.846 597.226 125.796C598.078 124.741 599.343 124.201 601.022 124.176H601.267ZM599.462 129.05C598.991 129.05 598.558 129.191 598.162 129.473C597.766 129.755 597.491 130.109 597.337 130.535V131.04C597.337 131.932 597.538 132.65 597.939 133.195C598.34 133.74 598.84 134.012 599.44 134.012C600.059 134.012 600.544 133.784 600.896 133.329C601.252 132.873 601.43 132.276 601.43 131.538C601.43 130.795 601.25 130.196 600.888 129.74C600.532 129.28 600.056 129.05 599.462 129.05ZM611.483 127.007C611.483 127.547 611.34 128.027 611.053 128.448C610.77 128.869 610.387 129.198 609.901 129.436C610.466 129.679 610.911 130.033 611.238 130.498C611.57 130.964 611.736 131.491 611.736 132.081C611.736 133.017 611.419 133.762 610.785 134.317C610.156 134.871 609.327 135.149 608.297 135.149C607.257 135.149 606.422 134.871 605.793 134.317C605.169 133.757 604.857 133.012 604.857 132.081C604.857 131.496 605.016 130.969 605.333 130.498C605.654 130.028 606.098 129.671 606.662 129.428C606.182 129.191 605.803 128.861 605.526 128.44C605.248 128.019 605.11 127.542 605.11 127.007C605.11 126.095 605.402 125.372 605.986 124.838C606.571 124.303 607.341 124.035 608.297 124.035C609.247 124.035 610.015 124.303 610.599 124.838C611.189 125.372 611.483 126.095 611.483 127.007ZM610.362 132.051C610.362 131.447 610.169 130.954 609.782 130.572C609.401 130.191 608.901 130 608.282 130C607.663 130 607.165 130.189 606.789 130.565C606.417 130.941 606.231 131.437 606.231 132.051C606.231 132.665 606.412 133.148 606.774 133.499C607.14 133.851 607.648 134.027 608.297 134.027C608.94 134.027 609.446 133.851 609.812 133.499C610.179 133.143 610.362 132.66 610.362 132.051ZM608.297 125.164C607.757 125.164 607.318 125.333 606.982 125.67C606.65 126.001 606.484 126.455 606.484 127.029C606.484 127.579 606.647 128.024 606.974 128.366C607.306 128.703 607.747 128.871 608.297 128.871C608.846 128.871 609.285 128.703 609.611 128.366C609.943 128.024 610.109 127.579 610.109 127.029C610.109 126.479 609.938 126.031 609.597 125.684C609.255 125.338 608.822 125.164 608.297 125.164Z" fill="#263238"/>
<path d="M512.34 196H510.959V186.84L508.188 187.858V186.61L512.125 185.132H512.34V196ZM517.505 190.577L518.055 185.184H523.597V186.454H519.221L518.894 189.403C519.424 189.091 520.026 188.935 520.7 188.935C521.685 188.935 522.468 189.262 523.047 189.916C523.626 190.565 523.916 191.444 523.916 192.553C523.916 193.667 523.614 194.546 523.01 195.19C522.411 195.829 521.571 196.149 520.492 196.149C519.536 196.149 518.756 195.884 518.152 195.354C517.547 194.824 517.203 194.091 517.119 193.155H518.419C518.503 193.774 518.724 194.242 519.08 194.559C519.437 194.871 519.907 195.027 520.492 195.027C521.13 195.027 521.631 194.809 521.992 194.373C522.359 193.937 522.542 193.336 522.542 192.568C522.542 191.845 522.344 191.265 521.948 190.83C521.556 190.389 521.034 190.168 520.38 190.168C519.781 190.168 519.31 190.3 518.969 190.562L518.605 190.859L517.505 190.577ZM532.706 191.387C532.706 192.996 532.431 194.192 531.882 194.975C531.332 195.757 530.473 196.149 529.304 196.149C528.15 196.149 527.296 195.767 526.741 195.005C526.186 194.237 525.899 193.093 525.879 191.572V189.738C525.879 188.148 526.154 186.967 526.704 186.194C527.254 185.422 528.115 185.035 529.289 185.035C530.453 185.035 531.31 185.409 531.859 186.157C532.409 186.9 532.692 188.049 532.706 189.604V191.387ZM531.332 189.507C531.332 188.343 531.169 187.497 530.842 186.967C530.515 186.432 529.997 186.164 529.289 186.164C528.586 186.164 528.073 186.429 527.751 186.959C527.429 187.489 527.264 188.304 527.254 189.403V191.602C527.254 192.771 527.422 193.635 527.759 194.195C528.101 194.75 528.616 195.027 529.304 195.027C529.982 195.027 530.485 194.764 530.812 194.239C531.144 193.714 531.317 192.887 531.332 191.758V189.507Z" fill="#263238"/>
<path d="M568.34 257H566.959V247.84L564.188 248.858V247.61L568.125 246.132H568.34V257ZM573.505 251.577L574.055 246.184H579.597V247.454H575.221L574.894 250.403C575.424 250.091 576.026 249.935 576.7 249.935C577.685 249.935 578.468 250.262 579.047 250.916C579.626 251.565 579.916 252.444 579.916 253.553C579.916 254.667 579.614 255.546 579.01 256.19C578.411 256.829 577.571 257.149 576.492 257.149C575.536 257.149 574.756 256.884 574.152 256.354C573.547 255.824 573.203 255.091 573.119 254.155H574.419C574.503 254.774 574.724 255.242 575.08 255.559C575.437 255.871 575.907 256.027 576.492 256.027C577.13 256.027 577.631 255.809 577.992 255.373C578.359 254.937 578.542 254.336 578.542 253.568C578.542 252.845 578.344 252.265 577.948 251.83C577.556 251.389 577.034 251.168 576.38 251.168C575.781 251.168 575.31 251.3 574.969 251.562L574.605 251.859L573.505 251.577ZM582.555 251.577L583.105 246.184H588.647V247.454H584.271L583.945 250.403C584.474 250.091 585.076 249.935 585.75 249.935C586.735 249.935 587.518 250.262 588.097 250.916C588.677 251.565 588.966 252.444 588.966 253.553C588.966 254.667 588.664 255.546 588.06 256.19C587.461 256.829 586.621 257.149 585.542 257.149C584.586 257.149 583.806 256.884 583.202 256.354C582.597 255.824 582.253 255.091 582.169 254.155H583.469C583.553 254.774 583.774 255.242 584.13 255.559C584.487 255.871 584.957 256.027 585.542 256.027C586.181 256.027 586.681 255.809 587.042 255.373C587.409 254.937 587.592 254.336 587.592 253.568C587.592 252.845 587.394 252.265 586.998 251.83C586.607 251.389 586.084 251.168 585.43 251.168C584.831 251.168 584.361 251.3 584.019 251.562L583.655 251.859L582.555 251.577Z" fill="#263238"/>
<path d="M199.151 314.367H200.651V315.489H199.151V318H197.769V315.489H192.844V314.679L197.687 307.184H199.151V314.367ZM194.404 314.367H197.769V309.063L197.605 309.36L194.404 314.367ZM209.181 313.387C209.181 314.996 208.906 316.192 208.357 316.975C207.807 317.757 206.948 318.149 205.779 318.149C204.625 318.149 203.771 317.767 203.216 317.005C202.661 316.237 202.374 315.093 202.354 313.572V311.738C202.354 310.148 202.629 308.967 203.179 308.194C203.729 307.422 204.59 307.035 205.764 307.035C206.928 307.035 207.785 307.409 208.334 308.157C208.884 308.9 209.166 310.049 209.181 311.604V313.387ZM207.807 311.507C207.807 310.343 207.644 309.497 207.317 308.967C206.99 308.432 206.472 308.164 205.764 308.164C205.061 308.164 204.548 308.429 204.226 308.959C203.904 309.489 203.739 310.304 203.729 311.403V313.602C203.729 314.771 203.897 315.635 204.234 316.195C204.575 316.75 205.091 317.027 205.779 317.027C206.457 317.027 206.96 316.764 207.287 316.239C207.619 315.714 207.792 314.887 207.807 313.758V311.507Z" fill="#263238"/>
<path d="M25.8365 39.5844C24.1638 39.1036 22.9449 38.5145 22.1797 37.817C21.4212 37.1127 21.042 36.2459 21.042 35.2166C21.042 34.0518 21.5059 33.0902 22.4336 32.3318C23.3681 31.5666 24.5803 31.184 26.0701 31.184C27.0859 31.184 27.9899 31.3804 28.7822 31.7731C29.5813 32.1659 30.1975 32.7076 30.6309 33.3984C31.0711 34.0891 31.2911 34.8441 31.2911 35.6635H29.3307C29.3307 34.7696 29.0463 34.0688 28.4775 33.5609C27.9086 33.0462 27.1062 32.7889 26.0701 32.7889C25.1085 32.7889 24.3568 33.0022 23.8151 33.4288C23.2801 33.8487 23.0126 34.4344 23.0126 35.1861C23.0126 35.7888 23.2666 36.3001 23.7744 36.7199C24.2891 37.133 25.1593 37.5122 26.385 37.8576C27.6174 38.203 28.579 38.5856 29.2698 39.0054C29.9673 39.4185 30.4819 39.9027 30.8137 40.458C31.1523 41.0133 31.3216 41.6667 31.3216 42.4184C31.3216 43.617 30.8544 44.5786 29.9199 45.3032C28.9853 46.021 27.7359 46.3799 26.1717 46.3799C25.1559 46.3799 24.2078 46.1869 23.3275 45.8009C22.4472 45.4082 21.7666 44.8732 21.2858 44.196C20.8118 43.5188 20.5748 42.7502 20.5748 41.8902H22.5352C22.5352 42.7841 22.8636 43.4917 23.5205 44.0132C24.1841 44.5278 25.0679 44.7852 26.1717 44.7852C27.201 44.7852 27.9899 44.5752 28.5384 44.1554C29.0869 43.7355 29.3612 43.1633 29.3612 42.4387C29.3612 41.7141 29.1072 41.1555 28.5994 40.7627C28.0915 40.3632 27.1705 39.9704 25.8365 39.5844ZM36.6577 32.5248V35.1861H38.7095V36.6387H36.6577V43.4545C36.6577 43.8947 36.7491 44.2265 36.9319 44.4499C37.1148 44.6666 37.4263 44.775 37.8664 44.775C38.0831 44.775 38.3811 44.7344 38.7603 44.6531V46.1768C38.266 46.3122 37.7852 46.3799 37.3179 46.3799C36.4782 46.3799 35.8451 46.126 35.4184 45.6181C34.9918 45.1102 34.7785 44.389 34.7785 43.4545V36.6387H32.7774V35.1861H34.7785V32.5248H36.6577ZM48.2712 46.1768C48.1628 45.9601 48.0748 45.5741 48.0071 45.0188C47.1335 45.9262 46.0907 46.3799 44.8785 46.3799C43.795 46.3799 42.9045 46.0752 42.207 45.4657C41.5163 44.8495 41.1709 44.0707 41.1709 43.1294C41.1709 41.985 41.6043 41.0979 42.4711 40.4681C43.3447 39.8316 44.5704 39.5133 46.1482 39.5133H47.9766V38.6499C47.9766 37.993 47.7802 37.4716 47.3875 37.0856C46.9947 36.6928 46.4157 36.4965 45.6505 36.4965C44.9801 36.4965 44.418 36.6658 43.9643 37.0043C43.5106 37.3429 43.2837 37.7526 43.2837 38.2334H41.3944C41.3944 37.6849 41.5874 37.1567 41.9734 36.6488C42.3662 36.1342 42.8944 35.7279 43.558 35.4299C44.2284 35.1319 44.9632 34.983 45.7622 34.983C47.0286 34.983 48.0206 35.3012 48.7384 35.9378C49.4563 36.5676 49.8287 37.4377 49.8558 38.5483V43.6069C49.8558 44.6159 49.9845 45.4183 50.2418 46.0142V46.1768H48.2712ZM45.1528 44.7445C45.7419 44.7445 46.3006 44.5922 46.8288 44.2874C47.357 43.9827 47.7396 43.5865 47.9766 43.099V40.844H46.5037C44.2013 40.844 43.0501 41.5178 43.0501 42.8653C43.0501 43.4545 43.2465 43.915 43.6393 44.2468C44.032 44.5786 44.5365 44.7445 45.1528 44.7445ZM58.6861 36.8723C58.4017 36.8249 58.0936 36.8012 57.7617 36.8012C56.5293 36.8012 55.693 37.326 55.2528 38.3756V46.1768H53.3736V35.1861H55.202L55.2325 36.4558C55.8487 35.4739 56.7223 34.983 57.8532 34.983C58.2188 34.983 58.4965 35.0304 58.6861 35.1252V36.8723ZM64.0526 32.5248V35.1861H66.1045V36.6387H64.0526V43.4545C64.0526 43.8947 64.144 44.2265 64.3269 44.4499C64.5097 44.6666 64.8212 44.775 65.2614 44.775C65.4781 44.775 65.776 44.7344 66.1553 44.6531V46.1768C65.6609 46.3122 65.1801 46.3799 64.7129 46.3799C63.8732 46.3799 63.24 46.126 62.8134 45.6181C62.3867 45.1102 62.1734 44.389 62.1734 43.4545V36.6387H60.1724V35.1861H62.1734V32.5248H64.0526ZM75.6661 45.0899C74.9348 45.9499 73.8614 46.3799 72.4461 46.3799C71.2746 46.3799 70.3807 46.0413 69.7645 45.3641C69.155 44.6802 68.8469 43.6712 68.8401 42.3371V35.1861H70.7193V42.2864C70.7193 43.9522 71.3965 44.7852 72.7509 44.7852C74.1865 44.7852 75.1413 44.2502 75.6153 43.1802V35.1861H77.4945V46.1768H75.7068L75.6661 45.0899ZM90.2152 40.8033C90.2152 42.476 89.8326 43.8236 89.0674 44.8461C88.3022 45.8686 87.2661 46.3799 85.9591 46.3799C84.6251 46.3799 83.5755 45.9567 82.8103 45.1102V50.4024H80.9311V35.1861H82.6477L82.7391 36.405C83.5044 35.457 84.5675 34.983 85.9287 34.983C87.2492 34.983 88.292 35.4807 89.0572 36.4761C89.8292 37.4716 90.2152 38.8564 90.2152 40.6306V40.8033ZM88.336 40.59C88.336 39.3508 88.0719 38.3722 87.5437 37.6544C87.0155 36.9366 86.291 36.5777 85.37 36.5777C84.2323 36.5777 83.3791 37.0822 82.8103 38.0912V43.3428C83.3723 44.345 84.2323 44.8461 85.3903 44.8461C86.291 44.8461 87.0054 44.4906 87.5336 43.7795C88.0686 43.0617 88.336 41.9986 88.336 40.59ZM99.5839 43.2615C99.5839 42.7536 99.3909 42.3608 99.0049 42.0832C98.6257 41.7988 97.9586 41.555 97.0038 41.3518C96.0558 41.1487 95.3007 40.9049 94.7387 40.6205C94.1834 40.3361 93.7703 39.9975 93.4994 39.6047C93.2353 39.212 93.1033 38.7447 93.1033 38.203C93.1033 37.3023 93.4825 36.5405 94.2409 35.9175C95.0061 35.2945 95.9813 34.983 97.1663 34.983C98.4124 34.983 99.4214 35.3046 100.193 35.9479C100.972 36.5913 101.361 37.414 101.361 38.4163H99.4721C99.4721 37.9016 99.2521 37.4581 98.8119 37.0856C98.3785 36.7132 97.83 36.5269 97.1663 36.5269C96.4824 36.5269 95.9474 36.6759 95.5614 36.9739C95.1754 37.2718 94.9824 37.6612 94.9824 38.142C94.9824 38.5957 95.1619 38.9377 95.5208 39.1679C95.8797 39.3982 96.5264 39.6183 97.4609 39.8282C98.4022 40.0381 99.164 40.2887 99.7464 40.5799C100.329 40.871 100.759 41.2232 101.036 41.6363C101.321 42.0426 101.463 42.5403 101.463 43.1294C101.463 44.1114 101.07 44.9003 100.285 45.4962C99.4992 46.0853 98.4801 46.3799 97.2273 46.3799C96.347 46.3799 95.5682 46.2242 94.891 45.9127C94.2138 45.6012 93.6823 45.1678 93.2963 44.6125C92.917 44.0504 92.7274 43.4443 92.7274 42.7942H94.6066C94.6405 43.424 94.891 43.9251 95.3583 44.2976C95.8323 44.6633 96.4553 44.8461 97.2273 44.8461C97.9383 44.8461 98.5072 44.7039 98.9338 44.4195C99.3672 44.1283 99.5839 43.7423 99.5839 43.2615ZM119.52 40.8033C119.52 42.4827 119.134 43.8337 118.362 44.8563C117.59 45.872 116.554 46.3799 115.254 46.3799C113.865 46.3799 112.792 45.889 112.034 44.907L111.942 46.1768H110.215V30.5745H112.095V36.3949C112.853 35.4536 113.899 34.983 115.233 34.983C116.567 34.983 117.614 35.4875 118.372 36.4965C119.137 37.5055 119.52 38.8869 119.52 40.6408V40.8033ZM117.641 40.59C117.641 39.3101 117.393 38.3215 116.899 37.624C116.405 36.9265 115.694 36.5777 114.766 36.5777C113.527 36.5777 112.636 37.1533 112.095 38.3045V43.0583C112.67 44.2095 113.567 44.7852 114.786 44.7852C115.687 44.7852 116.388 44.4364 116.889 43.7389C117.39 43.0414 117.641 41.9918 117.641 40.59ZM125.943 43.424L128.502 35.1861H130.514L126.095 47.8731C125.411 49.7015 124.324 50.6157 122.834 50.6157L122.479 50.5852L121.778 50.4532V48.9295L122.286 48.9701C122.923 48.9701 123.417 48.8415 123.769 48.5841C124.128 48.3268 124.422 47.8562 124.653 47.1722L125.069 46.0549L121.148 35.1861H123.2L125.943 43.424ZM138.799 46.1768V31.3871H142.974C144.26 31.3871 145.398 31.6715 146.387 32.2404C147.375 32.8092 148.137 33.6184 148.672 34.6681C149.214 35.7177 149.488 36.9231 149.495 38.2842V39.2289C149.495 40.6239 149.224 41.8462 148.682 42.8958C148.147 43.9454 147.379 44.7513 146.376 45.3134C145.381 45.8754 144.22 46.1632 142.892 46.1768H138.799ZM140.749 32.992V44.582H142.801C144.304 44.582 145.472 44.1147 146.305 43.1802C147.145 42.2457 147.565 40.9151 147.565 39.1883V38.3248C147.565 36.6454 147.169 35.3419 146.376 34.4141C145.591 33.4796 144.474 33.0056 143.024 32.992H140.749ZM161.383 39.3406H154.973V44.582H162.419V46.1768H153.023V31.3871H162.317V32.992H154.973V37.7459H161.383V39.3406Z" fill="#263238"/>
<rect x="19.7621" y="88.1865" width="552.579" height="61.2045" fill="#855CF8"/>
<path d="M400.977 119.045V123.388H399.514V112.295H403.605C404.819 112.295 405.768 112.605 406.454 113.225C407.145 113.845 407.49 114.665 407.49 115.686C407.49 116.762 407.152 117.593 406.477 118.177C405.807 118.756 404.844 119.045 403.59 119.045H400.977ZM400.977 117.849H403.605C404.387 117.849 404.986 117.666 405.403 117.301C405.819 116.93 406.027 116.397 406.027 115.701C406.027 115.041 405.819 114.512 405.403 114.116C404.986 113.72 404.415 113.514 403.689 113.499H400.977V117.849ZM413.64 116.409C413.427 116.374 413.196 116.356 412.947 116.356C412.023 116.356 411.395 116.75 411.065 117.537V123.388H409.656V115.145H411.027L411.05 116.097C411.512 115.361 412.167 114.992 413.015 114.992C413.29 114.992 413.498 115.028 413.64 115.099V116.409ZM414.937 119.19C414.937 118.382 415.095 117.656 415.41 117.011C415.73 116.366 416.171 115.868 416.735 115.518C417.304 115.168 417.952 114.992 418.678 114.992C419.8 114.992 420.707 115.381 421.398 116.158C422.093 116.935 422.441 117.969 422.441 119.259V119.358C422.441 120.16 422.286 120.881 421.977 121.521C421.672 122.156 421.233 122.651 420.659 123.007C420.09 123.362 419.435 123.54 418.693 123.54C417.576 123.54 416.669 123.152 415.973 122.374C415.283 121.597 414.937 120.569 414.937 119.289V119.19ZM416.354 119.358C416.354 120.272 416.565 121.006 416.987 121.559C417.413 122.113 417.982 122.39 418.693 122.39C419.409 122.39 419.978 122.11 420.4 121.552C420.821 120.988 421.032 120.201 421.032 119.19C421.032 118.286 420.816 117.555 420.384 116.996C419.958 116.432 419.389 116.15 418.678 116.15C417.982 116.15 417.421 116.427 416.994 116.981C416.568 117.534 416.354 118.327 416.354 119.358ZM431.707 119.358C431.707 120.617 431.418 121.63 430.839 122.397C430.26 123.159 429.483 123.54 428.507 123.54C427.466 123.54 426.661 123.172 426.092 122.435L426.024 123.388H424.729V111.686H426.138V116.051C426.707 115.345 427.492 114.992 428.492 114.992C429.493 114.992 430.277 115.371 430.846 116.127C431.42 116.884 431.707 117.92 431.707 119.236V119.358ZM430.298 119.198C430.298 118.238 430.112 117.496 429.742 116.973C429.371 116.45 428.838 116.188 428.142 116.188C427.212 116.188 426.544 116.62 426.138 117.484V121.049C426.57 121.912 427.243 122.344 428.157 122.344C428.833 122.344 429.358 122.082 429.734 121.559C430.11 121.036 430.298 120.249 430.298 119.198ZM435.541 123.388H434.132V111.686H435.541V123.388ZM441.744 123.54C440.627 123.54 439.718 123.174 439.017 122.443C438.316 121.707 437.966 120.724 437.966 119.495V119.236C437.966 118.418 438.121 117.689 438.431 117.049C438.745 116.404 439.182 115.901 439.741 115.541C440.305 115.175 440.914 114.992 441.569 114.992C442.641 114.992 443.474 115.345 444.068 116.051C444.662 116.757 444.959 117.768 444.959 119.083V119.67H439.375C439.396 120.483 439.632 121.14 440.084 121.643C440.541 122.141 441.12 122.39 441.821 122.39C442.318 122.39 442.74 122.288 443.085 122.085C443.431 121.882 443.733 121.613 443.992 121.277L444.853 121.948C444.162 123.009 443.126 123.54 441.744 123.54ZM441.569 116.15C441 116.15 440.523 116.359 440.137 116.775C439.751 117.186 439.512 117.765 439.421 118.512H443.55V118.405C443.509 117.689 443.316 117.136 442.971 116.745C442.626 116.348 442.158 116.15 441.569 116.15ZM448.443 115.145L448.481 116.059C449.085 115.348 449.901 114.992 450.927 114.992C452.079 114.992 452.864 115.434 453.281 116.318C453.555 115.922 453.91 115.602 454.347 115.358C454.789 115.114 455.31 114.992 455.909 114.992C457.717 114.992 458.636 115.95 458.667 117.864V123.388H457.257V117.948C457.257 117.359 457.123 116.92 456.854 116.63C456.584 116.336 456.132 116.188 455.498 116.188C454.974 116.188 454.54 116.346 454.195 116.661C453.849 116.971 453.649 117.39 453.593 117.918V123.388H452.176V117.986C452.176 116.788 451.589 116.188 450.416 116.188C449.492 116.188 448.859 116.582 448.519 117.369V123.388H447.11V115.145H448.443ZM467.5 123.388H466.038V112.295H467.5V123.388ZM470.138 119.198C470.138 117.933 470.438 116.917 471.037 116.15C471.637 115.378 472.421 114.992 473.391 114.992C474.356 114.992 475.121 115.322 475.684 115.983V111.686H477.094V123.388H475.799L475.73 122.504C475.166 123.195 474.382 123.54 473.376 123.54C472.421 123.54 471.642 123.149 471.037 122.367C470.438 121.585 470.138 120.564 470.138 119.304V119.198ZM471.548 119.358C471.548 120.292 471.741 121.023 472.127 121.552C472.513 122.08 473.046 122.344 473.727 122.344C474.62 122.344 475.273 121.943 475.684 121.14V117.354C475.263 116.577 474.615 116.188 473.742 116.188C473.051 116.188 472.513 116.455 472.127 116.988C471.741 117.522 471.548 118.311 471.548 119.358ZM483.229 123.54C482.111 123.54 481.202 123.174 480.501 122.443C479.8 121.707 479.45 120.724 479.45 119.495V119.236C479.45 118.418 479.605 117.689 479.915 117.049C480.23 116.404 480.666 115.901 481.225 115.541C481.789 115.175 482.398 114.992 483.053 114.992C484.125 114.992 484.958 115.345 485.552 116.051C486.146 116.757 486.444 117.768 486.444 119.083V119.67H480.859C480.88 120.483 481.116 121.14 481.568 121.643C482.025 122.141 482.604 122.39 483.305 122.39C483.803 122.39 484.224 122.288 484.569 122.085C484.915 121.882 485.217 121.613 485.476 121.277L486.337 121.948C485.646 123.009 484.61 123.54 483.229 123.54ZM483.053 116.15C482.485 116.15 482.007 116.359 481.621 116.775C481.235 117.186 480.996 117.765 480.905 118.512H485.034V118.405C484.993 117.689 484.8 117.136 484.455 116.745C484.11 116.348 483.643 116.15 483.053 116.15ZM489.935 115.145L489.98 116.181C490.61 115.388 491.433 114.992 492.449 114.992C494.191 114.992 495.069 115.975 495.085 117.941V123.388H493.675V117.933C493.67 117.339 493.533 116.899 493.264 116.615C493 116.331 492.586 116.188 492.022 116.188C491.565 116.188 491.164 116.31 490.818 116.554C490.473 116.798 490.204 117.118 490.011 117.514V123.388H488.602V115.145H489.935ZM499.642 113.149V115.145H501.181V116.234H499.642V121.346C499.642 121.676 499.711 121.925 499.848 122.093C499.985 122.255 500.219 122.336 500.549 122.336C500.712 122.336 500.935 122.306 501.219 122.245V123.388C500.849 123.489 500.488 123.54 500.138 123.54C499.508 123.54 499.033 123.35 498.713 122.969C498.393 122.588 498.233 122.047 498.233 121.346V116.234H496.732V115.145H498.233V113.149H499.642ZM504.886 123.388H503.476V115.145H504.886V123.388ZM503.362 112.958C503.362 112.73 503.431 112.537 503.568 112.379C503.71 112.222 503.918 112.143 504.193 112.143C504.467 112.143 504.675 112.222 504.817 112.379C504.96 112.537 505.031 112.73 505.031 112.958C505.031 113.187 504.96 113.377 504.817 113.53C504.675 113.682 504.467 113.758 504.193 113.758C503.918 113.758 503.71 113.682 503.568 113.53C503.431 113.377 503.362 113.187 503.362 112.958ZM508.141 123.388V116.234H506.838V115.145H508.141V114.444C508.141 113.525 508.402 112.808 508.926 112.295C509.454 111.783 510.198 111.526 511.158 111.526C511.727 111.526 512.445 111.681 513.314 111.991L513.078 113.179C512.443 112.925 511.838 112.798 511.264 112.798C510.66 112.798 510.223 112.935 509.954 113.21C509.69 113.479 509.558 113.885 509.558 114.429V115.145H511.242V116.234H509.558V123.388H508.141ZM514.015 123.388H512.598V115.145H514.015V123.388ZM520.134 122.39C520.637 122.39 521.076 122.237 521.452 121.933C521.828 121.628 522.036 121.247 522.077 120.79H523.41C523.385 121.262 523.222 121.712 522.922 122.138C522.623 122.565 522.222 122.905 521.719 123.159C521.221 123.413 520.693 123.54 520.134 123.54C519.012 123.54 518.118 123.167 517.452 122.42C516.792 121.669 516.462 120.643 516.462 119.342V119.106C516.462 118.304 516.609 117.59 516.904 116.965C517.199 116.341 517.62 115.856 518.169 115.51C518.722 115.165 519.375 114.992 520.126 114.992C521.051 114.992 521.818 115.269 522.427 115.823C523.042 116.376 523.369 117.095 523.41 117.979H522.077C522.036 117.445 521.833 117.009 521.467 116.668C521.107 116.323 520.66 116.15 520.126 116.15C519.41 116.15 518.854 116.409 518.458 116.927C518.067 117.44 517.871 118.184 517.871 119.16V119.426C517.871 120.376 518.067 121.107 518.458 121.62C518.849 122.133 519.408 122.39 520.134 122.39ZM530.604 123.388C530.522 123.225 530.456 122.936 530.406 122.519C529.75 123.2 528.968 123.54 528.059 123.54C527.247 123.54 526.579 123.312 526.056 122.854C525.537 122.392 525.278 121.808 525.278 121.102C525.278 120.244 525.603 119.579 526.254 119.106C526.909 118.629 527.828 118.39 529.011 118.39H530.383V117.743C530.383 117.25 530.235 116.859 529.941 116.569C529.646 116.275 529.212 116.127 528.638 116.127C528.135 116.127 527.714 116.254 527.373 116.508C527.033 116.762 526.863 117.07 526.863 117.43H525.446C525.446 117.019 525.591 116.623 525.88 116.242C526.175 115.856 526.571 115.551 527.069 115.328C527.572 115.104 528.123 114.992 528.722 114.992C529.672 114.992 530.416 115.231 530.954 115.708C531.492 116.181 531.772 116.833 531.792 117.666V121.46C531.792 122.217 531.889 122.819 532.082 123.266V123.388H530.604ZM528.265 122.314C528.707 122.314 529.126 122.199 529.522 121.971C529.918 121.742 530.205 121.445 530.383 121.079V119.388H529.278C527.551 119.388 526.688 119.893 526.688 120.904C526.688 121.346 526.835 121.691 527.13 121.94C527.424 122.189 527.803 122.314 528.265 122.314ZM536.434 113.149V115.145H537.973V116.234H536.434V121.346C536.434 121.676 536.502 121.925 536.639 122.093C536.776 122.255 537.01 122.336 537.34 122.336C537.503 122.336 537.726 122.306 538.011 122.245V123.388C537.64 123.489 537.279 123.54 536.929 123.54C536.299 123.54 535.824 123.35 535.504 122.969C535.184 122.588 535.024 122.047 535.024 121.346V116.234H533.523V115.145H535.024V113.149H536.434ZM541.677 123.388H540.268V115.145H541.677V123.388ZM540.153 112.958C540.153 112.73 540.222 112.537 540.359 112.379C540.501 112.222 540.71 112.143 540.984 112.143C541.258 112.143 541.466 112.222 541.608 112.379C541.751 112.537 541.822 112.73 541.822 112.958C541.822 113.187 541.751 113.377 541.608 113.53C541.466 113.682 541.258 113.758 540.984 113.758C540.71 113.758 540.501 113.682 540.359 113.53C540.222 113.377 540.153 113.187 540.153 112.958ZM544.087 119.19C544.087 118.382 544.244 117.656 544.559 117.011C544.879 116.366 545.321 115.868 545.884 115.518C546.453 115.168 547.101 114.992 547.827 114.992C548.95 114.992 549.856 115.381 550.547 116.158C551.243 116.935 551.591 117.969 551.591 119.259V119.358C551.591 120.16 551.436 120.881 551.126 121.521C550.821 122.156 550.382 122.651 549.808 123.007C549.239 123.362 548.584 123.54 547.842 123.54C546.725 123.54 545.818 123.152 545.123 122.374C544.432 121.597 544.087 120.569 544.087 119.289V119.19ZM545.504 119.358C545.504 120.272 545.714 121.006 546.136 121.559C546.562 122.113 547.131 122.39 547.842 122.39C548.558 122.39 549.127 122.11 549.549 121.552C549.97 120.988 550.181 120.201 550.181 119.19C550.181 118.286 549.965 117.555 549.534 116.996C549.107 116.432 548.538 116.15 547.827 116.15C547.131 116.15 546.57 116.427 546.143 116.981C545.717 117.534 545.504 118.327 545.504 119.358ZM555.211 115.145L555.257 116.181C555.887 115.388 556.709 114.992 557.725 114.992C559.467 114.992 560.346 115.975 560.361 117.941V123.388H558.952V117.933C558.947 117.339 558.81 116.899 558.54 116.615C558.276 116.331 557.862 116.188 557.299 116.188C556.842 116.188 556.44 116.31 556.095 116.554C555.75 116.798 555.48 117.118 555.287 117.514V123.388H553.878V115.145H555.211Z" fill="white"/>
<g opacity="0.8">
<rect x="19.7621" y="210.092" width="527.876" height="61.2045" fill="#855CF8"/>
<path d="M397.696 244.097H402.953V245.293H396.226V234.201H397.696V244.097ZM408.341 245.445C407.223 245.445 406.314 245.08 405.613 244.348C404.913 243.612 404.562 242.629 404.562 241.4V241.141C404.562 240.323 404.717 239.594 405.027 238.955C405.342 238.31 405.779 237.807 406.337 237.446C406.901 237.08 407.51 236.898 408.166 236.898C409.237 236.898 410.07 237.251 410.664 237.957C411.259 238.663 411.556 239.673 411.556 240.989V241.575H405.972C405.992 242.388 406.228 243.046 406.68 243.548C407.137 244.046 407.716 244.295 408.417 244.295C408.915 244.295 409.336 244.193 409.682 243.99C410.027 243.787 410.329 243.518 410.588 243.183L411.449 243.853C410.758 244.915 409.722 245.445 408.341 245.445ZM408.166 238.056C407.597 238.056 407.119 238.264 406.733 238.68C406.347 239.092 406.109 239.671 406.017 240.417H410.146V240.311C410.106 239.594 409.913 239.041 409.567 238.65C409.222 238.254 408.755 238.056 408.166 238.056ZM418.803 245.293C418.721 245.13 418.655 244.841 418.605 244.424C417.949 245.105 417.167 245.445 416.258 245.445C415.446 245.445 414.778 245.217 414.255 244.76C413.737 244.298 413.478 243.713 413.478 243.007C413.478 242.149 413.803 241.484 414.453 241.011C415.108 240.534 416.027 240.295 417.211 240.295H418.582V239.648C418.582 239.155 418.435 238.764 418.14 238.475C417.845 238.18 417.411 238.033 416.837 238.033C416.334 238.033 415.913 238.16 415.573 238.414C415.232 238.668 415.062 238.975 415.062 239.335H413.645C413.645 238.924 413.79 238.528 414.079 238.147C414.374 237.761 414.77 237.456 415.268 237.233C415.771 237.009 416.322 236.898 416.921 236.898C417.871 236.898 418.615 237.136 419.153 237.614C419.692 238.086 419.971 238.739 419.991 239.572V243.366C419.991 244.122 420.088 244.724 420.281 245.171V245.293H418.803ZM416.464 244.219C416.906 244.219 417.325 244.105 417.721 243.876C418.117 243.647 418.404 243.35 418.582 242.985V241.293H417.477C415.75 241.293 414.887 241.799 414.887 242.809C414.887 243.251 415.034 243.597 415.329 243.845C415.623 244.094 416.002 244.219 416.464 244.219ZM422.378 241.103C422.378 239.838 422.677 238.823 423.277 238.056C423.876 237.284 424.661 236.898 425.631 236.898C426.596 236.898 427.36 237.228 427.924 237.888V233.591H429.333V245.293H428.038L427.97 244.409C427.406 245.1 426.621 245.445 425.615 245.445C424.661 245.445 423.881 245.054 423.277 244.272C422.677 243.49 422.378 242.469 422.378 241.21V241.103ZM423.787 241.263C423.787 242.197 423.98 242.929 424.366 243.457C424.752 243.985 425.285 244.249 425.966 244.249C426.86 244.249 427.512 243.848 427.924 243.046V239.259C427.502 238.482 426.855 238.094 425.981 238.094C425.29 238.094 424.752 238.36 424.366 238.894C423.98 239.427 423.787 240.217 423.787 241.263ZM444.818 241.773C444.681 242.947 444.246 243.853 443.515 244.493C442.789 245.128 441.821 245.445 440.612 245.445C439.302 245.445 438.251 244.976 437.458 244.036C436.671 243.096 436.278 241.839 436.278 240.265V239.198C436.278 238.167 436.46 237.261 436.826 236.479C437.197 235.696 437.72 235.097 438.395 234.681C439.071 234.259 439.853 234.048 440.742 234.048C441.92 234.048 442.865 234.379 443.576 235.039C444.287 235.694 444.701 236.603 444.818 237.766H443.347C443.22 236.882 442.944 236.242 442.517 235.846C442.095 235.45 441.504 235.252 440.742 235.252C439.807 235.252 439.073 235.597 438.54 236.288C438.012 236.979 437.748 237.962 437.748 239.236V240.311C437.748 241.514 437.999 242.472 438.502 243.183C439.005 243.894 439.708 244.249 440.612 244.249C441.425 244.249 442.047 244.066 442.479 243.701C442.916 243.33 443.205 242.688 443.347 241.773H444.818ZM452.209 244.478C451.661 245.123 450.856 245.445 449.794 245.445C448.916 245.445 448.245 245.191 447.783 244.684C447.326 244.171 447.095 243.414 447.09 242.413V237.05H448.499V242.375C448.499 243.625 449.007 244.249 450.023 244.249C451.1 244.249 451.816 243.848 452.171 243.046V237.05H453.581V245.293H452.24L452.209 244.478ZM461.049 243.107C461.049 242.726 460.904 242.431 460.614 242.223C460.33 242.009 459.83 241.827 459.114 241.674C458.403 241.522 457.836 241.339 457.415 241.126C456.998 240.912 456.688 240.659 456.485 240.364C456.287 240.069 456.188 239.719 456.188 239.313C456.188 238.637 456.473 238.066 457.041 237.599C457.615 237.131 458.347 236.898 459.235 236.898C460.17 236.898 460.927 237.139 461.506 237.621C462.09 238.104 462.382 238.721 462.382 239.473H460.965C460.965 239.087 460.8 238.754 460.47 238.475C460.145 238.195 459.733 238.056 459.235 238.056C458.723 238.056 458.321 238.167 458.032 238.391C457.742 238.614 457.598 238.906 457.598 239.267C457.598 239.607 457.732 239.864 458.001 240.036C458.271 240.209 458.756 240.374 459.456 240.532C460.162 240.689 460.734 240.877 461.171 241.095C461.607 241.314 461.93 241.578 462.138 241.888C462.351 242.192 462.458 242.566 462.458 243.007C462.458 243.744 462.163 244.336 461.574 244.783C460.985 245.224 460.221 245.445 459.281 245.445C458.621 245.445 458.037 245.329 457.529 245.095C457.021 244.861 456.622 244.536 456.333 244.12C456.049 243.698 455.906 243.244 455.906 242.756H457.316C457.341 243.228 457.529 243.604 457.879 243.884C458.235 244.158 458.702 244.295 459.281 244.295C459.814 244.295 460.241 244.188 460.561 243.975C460.886 243.757 461.049 243.467 461.049 243.107ZM466.726 235.054V237.05H468.265V238.139H466.726V243.251C466.726 243.581 466.795 243.83 466.932 243.998C467.069 244.16 467.303 244.242 467.633 244.242C467.795 244.242 468.019 244.211 468.303 244.15V245.293C467.933 245.395 467.572 245.445 467.221 245.445C466.592 245.445 466.117 245.255 465.797 244.874C465.477 244.493 465.317 243.952 465.317 243.251V238.139H463.816V237.05H465.317V235.054H466.726ZM469.913 241.095C469.913 240.288 470.07 239.561 470.385 238.916C470.705 238.271 471.147 237.774 471.711 237.423C472.28 237.073 472.927 236.898 473.653 236.898C474.776 236.898 475.682 237.286 476.373 238.063C477.069 238.84 477.417 239.874 477.417 241.164V241.263C477.417 242.065 477.262 242.787 476.952 243.426C476.647 244.061 476.208 244.557 475.634 244.912C475.065 245.268 474.41 245.445 473.669 245.445C472.551 245.445 471.645 245.057 470.949 244.28C470.258 243.503 469.913 242.474 469.913 241.194V241.095ZM471.33 241.263C471.33 242.177 471.541 242.911 471.962 243.465C472.389 244.018 472.958 244.295 473.669 244.295C474.385 244.295 474.954 244.016 475.375 243.457C475.797 242.893 476.007 242.106 476.007 241.095C476.007 240.191 475.792 239.46 475.36 238.901C474.933 238.337 474.364 238.056 473.653 238.056C472.958 238.056 472.396 238.332 471.97 238.886C471.543 239.44 471.33 240.232 471.33 241.263ZM481.03 237.05L481.068 237.964C481.672 237.253 482.488 236.898 483.513 236.898C484.666 236.898 485.451 237.339 485.868 238.223C486.142 237.827 486.497 237.507 486.934 237.263C487.376 237.02 487.897 236.898 488.496 236.898C490.304 236.898 491.223 237.855 491.254 239.77V245.293H489.844V239.854C489.844 239.264 489.71 238.825 489.44 238.536C489.171 238.241 488.719 238.094 488.084 238.094C487.561 238.094 487.127 238.251 486.782 238.566C486.436 238.876 486.236 239.295 486.18 239.823V245.293H484.763V239.892C484.763 238.693 484.176 238.094 483.003 238.094C482.079 238.094 481.446 238.487 481.106 239.275V245.293H479.697V237.05H481.03ZM497.327 245.445C496.21 245.445 495.301 245.08 494.6 244.348C493.899 243.612 493.549 242.629 493.549 241.4V241.141C493.549 240.323 493.704 239.594 494.013 238.955C494.328 238.31 494.765 237.807 495.324 237.446C495.888 237.08 496.497 236.898 497.152 236.898C498.224 236.898 499.057 237.251 499.651 237.957C500.245 238.663 500.542 239.673 500.542 240.989V241.575H494.958C494.978 242.388 495.215 243.046 495.667 243.548C496.124 244.046 496.703 244.295 497.404 244.295C497.901 244.295 498.323 244.193 498.668 243.99C499.014 243.787 499.316 243.518 499.575 243.183L500.436 243.853C499.745 244.915 498.709 245.445 497.327 245.445ZM497.152 238.056C496.583 238.056 496.106 238.264 495.72 238.68C495.334 239.092 495.095 239.671 495.004 240.417H499.133V240.311C499.092 239.594 498.899 239.041 498.554 238.65C498.209 238.254 497.741 238.056 497.152 238.056ZM506.685 238.315C506.471 238.279 506.24 238.261 505.991 238.261C505.067 238.261 504.44 238.655 504.11 239.442V245.293H502.7V237.05H504.072L504.094 238.002C504.557 237.266 505.212 236.898 506.06 236.898C506.334 236.898 506.543 236.933 506.685 237.004V238.315ZM519.388 240.166H514.581V244.097H520.166V245.293H513.119V234.201H520.089V235.404H514.581V238.97H519.388V240.166ZM531.039 240.105C531.039 241.192 530.856 242.142 530.49 242.954C530.125 243.762 529.607 244.379 528.936 244.805C528.266 245.232 527.484 245.445 526.59 245.445C525.716 245.445 524.942 245.232 524.266 244.805C523.591 244.374 523.065 243.762 522.689 242.969C522.318 242.172 522.128 241.25 522.118 240.204V239.404C522.118 238.337 522.303 237.395 522.674 236.578C523.045 235.76 523.568 235.135 524.243 234.704C524.924 234.267 525.701 234.048 526.575 234.048C527.463 234.048 528.245 234.264 528.921 234.696C529.602 235.123 530.125 235.745 530.49 236.562C530.856 237.375 531.039 238.322 531.039 239.404V240.105ZM529.584 239.389C529.584 238.073 529.32 237.065 528.791 236.364C528.263 235.658 527.524 235.305 526.575 235.305C525.65 235.305 524.921 235.658 524.388 236.364C523.86 237.065 523.588 238.04 523.573 239.29V240.105C523.573 241.38 523.84 242.383 524.373 243.114C524.911 243.84 525.65 244.204 526.59 244.204C527.534 244.204 528.266 243.861 528.784 243.175C529.302 242.484 529.569 241.497 529.584 240.212V239.389ZM535.322 245.293H533.86V234.201H535.322V245.293Z" fill="white"/>
</g>
<g opacity="0.64">
<rect x="19.7621" y="149.14" width="470.668" height="61.2045" fill="#855CF8"/>
<path d="M341.804 179.997V184.34H340.341V173.248H344.432C345.646 173.248 346.596 173.557 347.281 174.177C347.972 174.797 348.317 175.617 348.317 176.638C348.317 177.714 347.98 178.545 347.304 179.129C346.634 179.708 345.671 179.997 344.417 179.997H341.804ZM341.804 178.801H344.432C345.214 178.801 345.814 178.619 346.23 178.253C346.646 177.882 346.855 177.349 346.855 176.653C346.855 175.993 346.646 175.465 346.23 175.068C345.814 174.672 345.242 174.467 344.516 174.451H341.804V178.801ZM354.467 177.361C354.254 177.326 354.023 177.308 353.774 177.308C352.85 177.308 352.223 177.702 351.892 178.489V184.34H350.483V176.097H351.854L351.877 177.049C352.339 176.313 352.995 175.944 353.843 175.944C354.117 175.944 354.325 175.98 354.467 176.051V177.361ZM355.765 180.142C355.765 179.335 355.922 178.608 356.237 177.963C356.557 177.318 356.999 176.821 357.562 176.47C358.131 176.12 358.779 175.944 359.505 175.944C360.628 175.944 361.534 176.333 362.225 177.11C362.921 177.887 363.269 178.921 363.269 180.211V180.31C363.269 181.112 363.114 181.833 362.804 182.473C362.499 183.108 362.06 183.603 361.486 183.959C360.917 184.314 360.262 184.492 359.52 184.492C358.403 184.492 357.496 184.104 356.801 183.327C356.11 182.55 355.765 181.521 355.765 180.241V180.142ZM357.182 180.31C357.182 181.224 357.392 181.958 357.814 182.511C358.24 183.065 358.809 183.342 359.52 183.342C360.236 183.342 360.805 183.063 361.227 182.504C361.648 181.94 361.859 181.153 361.859 180.142C361.859 179.238 361.643 178.507 361.212 177.948C360.785 177.384 360.216 177.102 359.505 177.102C358.809 177.102 358.248 177.379 357.821 177.933C357.395 178.486 357.182 179.279 357.182 180.31ZM372.534 180.31C372.534 181.569 372.245 182.583 371.666 183.349C371.087 184.111 370.31 184.492 369.335 184.492C368.294 184.492 367.489 184.124 366.92 183.388L366.851 184.34H365.556V172.638H366.965V177.003C367.534 176.297 368.319 175.944 369.319 175.944C370.32 175.944 371.105 176.323 371.674 177.08C372.247 177.836 372.534 178.872 372.534 180.188V180.31ZM371.125 180.15C371.125 179.19 370.94 178.448 370.569 177.925C370.198 177.402 369.665 177.141 368.969 177.141C368.04 177.141 367.372 177.572 366.965 178.436V182.001C367.397 182.864 368.07 183.296 368.984 183.296C369.66 183.296 370.185 183.035 370.561 182.511C370.937 181.988 371.125 181.201 371.125 180.15ZM376.368 184.34H374.959V172.638H376.368V184.34ZM382.572 184.492C381.454 184.492 380.545 184.127 379.844 183.395C379.144 182.659 378.793 181.676 378.793 180.447V180.188C378.793 179.37 378.948 178.641 379.258 178.001C379.573 177.356 380.009 176.854 380.568 176.493C381.132 176.127 381.741 175.944 382.397 175.944C383.468 175.944 384.301 176.297 384.895 177.003C385.49 177.709 385.787 178.72 385.787 180.036V180.622H380.202C380.223 181.435 380.459 182.092 380.911 182.595C381.368 183.093 381.947 183.342 382.648 183.342C383.146 183.342 383.567 183.24 383.913 183.037C384.258 182.834 384.56 182.565 384.819 182.23L385.68 182.9C384.989 183.961 383.953 184.492 382.572 184.492ZM382.397 177.102C381.828 177.102 381.35 177.311 380.964 177.727C380.578 178.139 380.34 178.718 380.248 179.464H384.377V179.357C384.337 178.641 384.144 178.088 383.798 177.697C383.453 177.301 382.986 177.102 382.397 177.102ZM389.27 176.097L389.308 177.011C389.913 176.3 390.728 175.944 391.754 175.944C392.907 175.944 393.691 176.386 394.108 177.27C394.382 176.874 394.738 176.554 395.174 176.31C395.616 176.066 396.137 175.944 396.736 175.944C398.544 175.944 399.464 176.902 399.494 178.817V184.34H398.085V178.9C398.085 178.311 397.95 177.872 397.681 177.582C397.412 177.288 396.96 177.141 396.325 177.141C395.802 177.141 395.367 177.298 395.022 177.613C394.677 177.923 394.476 178.342 394.42 178.87V184.34H393.003V178.938C393.003 177.74 392.417 177.141 391.243 177.141C390.319 177.141 389.687 177.534 389.346 178.321V184.34H387.937V176.097H389.27ZM410.43 182.397L413.6 173.248H415.199L411.085 184.34H409.79L405.684 173.248H407.276L410.43 182.397ZM421.73 184.34C421.649 184.177 421.583 183.888 421.532 183.471C420.877 184.152 420.095 184.492 419.186 184.492C418.373 184.492 417.705 184.264 417.182 183.807C416.664 183.344 416.405 182.76 416.405 182.054C416.405 181.196 416.73 180.531 417.38 180.058C418.035 179.581 418.955 179.342 420.138 179.342H421.509V178.695C421.509 178.202 421.362 177.811 421.067 177.521C420.773 177.227 420.339 177.08 419.765 177.08C419.262 177.08 418.84 177.207 418.5 177.461C418.16 177.714 417.99 178.022 417.99 178.382H416.573C416.573 177.971 416.717 177.575 417.007 177.194C417.301 176.808 417.698 176.503 418.195 176.28C418.698 176.056 419.249 175.944 419.849 175.944C420.798 175.944 421.542 176.183 422.081 176.661C422.619 177.133 422.898 177.786 422.919 178.619V182.412C422.919 183.169 423.015 183.771 423.208 184.218V184.34H421.73ZM419.391 183.266C419.833 183.266 420.252 183.151 420.648 182.923C421.045 182.694 421.332 182.397 421.509 182.032V180.34H420.405C418.678 180.34 417.814 180.846 417.814 181.856C417.814 182.298 417.962 182.644 418.256 182.892C418.551 183.141 418.929 183.266 419.391 183.266ZM427.179 184.34H425.77V172.638H427.179V184.34ZM431.493 184.34H430.084V176.097H431.493V184.34ZM429.97 173.91C429.97 173.682 430.038 173.489 430.175 173.331C430.318 173.174 430.526 173.095 430.8 173.095C431.074 173.095 431.283 173.174 431.425 173.331C431.567 173.489 431.638 173.682 431.638 173.91C431.638 174.139 431.567 174.329 431.425 174.482C431.283 174.634 431.074 174.71 430.8 174.71C430.526 174.71 430.318 174.634 430.175 174.482C430.038 174.329 429.97 174.139 429.97 173.91ZM433.933 180.15C433.933 178.885 434.233 177.869 434.832 177.102C435.431 176.33 436.216 175.944 437.186 175.944C438.151 175.944 438.916 176.275 439.479 176.935V172.638H440.889V184.34H439.594L439.525 183.456C438.961 184.147 438.177 184.492 437.171 184.492C436.216 184.492 435.437 184.101 434.832 183.319C434.233 182.537 433.933 181.516 433.933 180.256V180.15ZM435.343 180.31C435.343 181.244 435.536 181.976 435.922 182.504C436.308 183.032 436.841 183.296 437.521 183.296C438.415 183.296 439.068 182.895 439.479 182.092V178.306C439.058 177.529 438.41 177.141 437.537 177.141C436.846 177.141 436.308 177.407 435.922 177.94C435.536 178.474 435.343 179.264 435.343 180.31ZM448.692 184.34C448.611 184.177 448.545 183.888 448.494 183.471C447.839 184.152 447.056 184.492 446.147 184.492C445.335 184.492 444.667 184.264 444.144 183.807C443.626 183.344 443.367 182.76 443.367 182.054C443.367 181.196 443.692 180.531 444.342 180.058C444.997 179.581 445.916 179.342 447.1 179.342H448.471V178.695C448.471 178.202 448.324 177.811 448.029 177.521C447.734 177.227 447.3 177.08 446.726 177.08C446.224 177.08 445.802 177.207 445.462 177.461C445.121 177.714 444.951 178.022 444.951 178.382H443.534C443.534 177.971 443.679 177.575 443.969 177.194C444.263 176.808 444.659 176.503 445.157 176.28C445.66 176.056 446.211 175.944 446.81 175.944C447.76 175.944 448.504 176.183 449.042 176.661C449.581 177.133 449.86 177.786 449.88 178.619V182.412C449.88 183.169 449.977 183.771 450.17 184.218V184.34H448.692ZM446.353 183.266C446.795 183.266 447.214 183.151 447.61 182.923C448.006 182.694 448.293 182.397 448.471 182.032V180.34H447.366C445.639 180.34 444.776 180.846 444.776 181.856C444.776 182.298 444.923 182.644 445.218 182.892C445.512 183.141 445.891 183.266 446.353 183.266ZM454.522 174.101V176.097H456.061V177.186H454.522V182.298C454.522 182.628 454.59 182.877 454.728 183.045C454.865 183.207 455.098 183.289 455.428 183.289C455.591 183.289 455.814 183.258 456.099 183.197V184.34C455.728 184.441 455.367 184.492 455.017 184.492C454.387 184.492 453.912 184.302 453.592 183.921C453.272 183.54 453.112 182.999 453.112 182.298V177.186H451.612V176.097H453.112V174.101H454.522ZM459.765 184.34H458.356V176.097H459.765V184.34ZM458.242 173.91C458.242 173.682 458.31 173.489 458.447 173.331C458.59 173.174 458.798 173.095 459.072 173.095C459.346 173.095 459.555 173.174 459.697 173.331C459.839 173.489 459.91 173.682 459.91 173.91C459.91 174.139 459.839 174.329 459.697 174.482C459.555 174.634 459.346 174.71 459.072 174.71C458.798 174.71 458.59 174.634 458.447 174.482C458.31 174.329 458.242 174.139 458.242 173.91ZM462.175 180.142C462.175 179.335 462.332 178.608 462.647 177.963C462.967 177.318 463.409 176.821 463.973 176.47C464.541 176.12 465.189 175.944 465.915 175.944C467.038 175.944 467.944 176.333 468.635 177.11C469.331 177.887 469.679 178.921 469.679 180.211V180.31C469.679 181.112 469.524 181.833 469.214 182.473C468.909 183.108 468.47 183.603 467.896 183.959C467.327 184.314 466.672 184.492 465.931 184.492C464.813 184.492 463.907 184.104 463.211 183.327C462.52 182.55 462.175 181.521 462.175 180.241V180.142ZM463.592 180.31C463.592 181.224 463.802 181.958 464.224 182.511C464.651 183.065 465.219 183.342 465.931 183.342C466.647 183.342 467.215 183.063 467.637 182.504C468.059 181.94 468.269 181.153 468.269 180.142C468.269 179.238 468.053 178.507 467.622 177.948C467.195 177.384 466.626 177.102 465.915 177.102C465.219 177.102 464.658 177.379 464.232 177.933C463.805 178.486 463.592 179.279 463.592 180.31ZM473.299 176.097L473.345 177.133C473.975 176.341 474.798 175.944 475.813 175.944C477.555 175.944 478.434 176.927 478.449 178.893V184.34H477.04V178.885C477.035 178.291 476.898 177.852 476.629 177.567C476.365 177.283 475.951 177.141 475.387 177.141C474.93 177.141 474.529 177.262 474.183 177.506C473.838 177.75 473.569 178.07 473.376 178.466V184.34H471.966V176.097H473.299Z" fill="white"/>
</g>
<g opacity="0.16">
<rect x="19.7621" y="271.047" width="154.722" height="61.2045" fill="#263238"/>
</g>
<path d="M91.9479 304.793C91.5721 305.331 91.0464 305.735 90.3709 306.004C89.7005 306.268 88.9184 306.4 88.0245 306.4C87.1205 306.4 86.318 306.19 85.6171 305.768C84.9162 305.341 84.3728 304.737 83.9868 303.955C83.6059 303.173 83.4104 302.266 83.4002 301.235V300.268C83.4002 298.597 83.7887 297.302 84.5658 296.382C85.3479 295.463 86.445 295.003 87.8569 295.003C89.0149 295.003 89.9468 295.301 90.6528 295.895C91.3588 296.484 91.7905 297.322 91.9479 298.409H90.4852C90.2109 296.941 89.3374 296.207 87.8645 296.207C86.8843 296.207 86.1402 296.553 85.6324 297.243C85.1296 297.929 84.8756 298.924 84.8705 300.23V301.136C84.8705 302.38 85.1549 303.371 85.7238 304.107C86.2926 304.839 87.0621 305.204 88.0321 305.204C88.5806 305.204 89.0606 305.143 89.472 305.022C89.8834 304.9 90.2236 304.694 90.4928 304.404V301.913H87.9255V300.725H91.9479V304.793ZM98.6769 299.27C98.4636 299.234 98.2325 299.216 97.9836 299.216C97.0593 299.216 96.432 299.61 96.1019 300.397V306.248H94.6925V298.005H96.0638L96.0867 298.957C96.5489 298.221 97.204 297.853 98.0522 297.853C98.3264 297.853 98.5347 297.888 98.6769 297.959V299.27ZM105.284 306.248C105.203 306.086 105.137 305.796 105.086 305.38C104.431 306.06 103.649 306.4 102.739 306.4C101.927 306.4 101.259 306.172 100.736 305.715C100.218 305.253 99.9588 304.669 99.9588 303.963C99.9588 303.104 100.284 302.439 100.934 301.967C101.589 301.489 102.508 301.25 103.692 301.25H105.063V300.603C105.063 300.11 104.916 299.719 104.621 299.43C104.327 299.135 103.892 298.988 103.318 298.988C102.816 298.988 102.394 299.115 102.054 299.369C101.714 299.623 101.543 299.93 101.543 300.291H100.126C100.126 299.879 100.271 299.483 100.561 299.102C100.855 298.716 101.251 298.411 101.749 298.188C102.252 297.964 102.803 297.853 103.402 297.853C104.352 297.853 105.096 298.091 105.634 298.569C106.173 299.041 106.452 299.694 106.472 300.527V304.321C106.472 305.077 106.569 305.679 106.762 306.126V306.248H105.284ZM102.945 305.174C103.387 305.174 103.806 305.06 104.202 304.831C104.598 304.602 104.885 304.305 105.063 303.94V302.248H103.958C102.232 302.248 101.368 302.754 101.368 303.764C101.368 304.206 101.515 304.552 101.81 304.801C102.105 305.049 102.483 305.174 102.945 305.174ZM108.859 302.058C108.859 300.793 109.159 299.778 109.758 299.011C110.357 298.239 111.142 297.853 112.112 297.853C113.077 297.853 113.841 298.183 114.405 298.843V294.546H115.814V306.248H114.519L114.451 305.364C113.887 306.055 113.102 306.4 112.097 306.4C111.142 306.4 110.362 306.009 109.758 305.227C109.159 304.445 108.859 303.424 108.859 302.165V302.058ZM110.268 302.218C110.268 303.152 110.461 303.884 110.847 304.412C111.233 304.94 111.767 305.204 112.447 305.204C113.341 305.204 113.994 304.803 114.405 304.001V300.214C113.984 299.437 113.336 299.049 112.462 299.049C111.772 299.049 111.233 299.315 110.847 299.849C110.461 300.382 110.268 301.172 110.268 302.218ZM123.618 305.433C123.069 306.078 122.264 306.4 121.203 306.4C120.324 306.4 119.654 306.146 119.191 305.639C118.734 305.126 118.503 304.369 118.498 303.368V298.005H119.908V303.33C119.908 304.58 120.415 305.204 121.431 305.204C122.508 305.204 123.224 304.803 123.58 304.001V298.005H124.989V306.248H123.648L123.618 305.433ZM132.746 306.248C132.665 306.086 132.599 305.796 132.548 305.38C131.893 306.06 131.111 306.4 130.202 306.4C129.389 306.4 128.721 306.172 128.198 305.715C127.68 305.253 127.421 304.669 127.421 303.963C127.421 303.104 127.746 302.439 128.396 301.967C129.051 301.489 129.971 301.25 131.154 301.25H132.525V300.603C132.525 300.11 132.378 299.719 132.084 299.43C131.789 299.135 131.355 298.988 130.781 298.988C130.278 298.988 129.856 299.115 129.516 299.369C129.176 299.623 129.006 299.93 129.006 300.291H127.589C127.589 299.879 127.734 299.483 128.023 299.102C128.318 298.716 128.714 298.411 129.211 298.188C129.714 297.964 130.265 297.853 130.865 297.853C131.814 297.853 132.558 298.091 133.097 298.569C133.635 299.041 133.914 299.694 133.935 300.527V304.321C133.935 305.077 134.031 305.679 134.224 306.126V306.248H132.746ZM130.408 305.174C130.849 305.174 131.268 305.06 131.665 304.831C132.061 304.602 132.348 304.305 132.525 303.94V302.248H131.421C129.694 302.248 128.831 302.754 128.831 303.764C128.831 304.206 128.978 304.552 129.272 304.801C129.567 305.049 129.945 305.174 130.408 305.174ZM138.576 296.009V298.005H140.115V299.094H138.576V304.206C138.576 304.536 138.645 304.785 138.782 304.953C138.919 305.115 139.153 305.197 139.483 305.197C139.645 305.197 139.869 305.166 140.153 305.105V306.248C139.783 306.35 139.422 306.4 139.072 306.4C138.442 306.4 137.967 306.21 137.647 305.829C137.327 305.448 137.167 304.907 137.167 304.206V299.094H135.666V298.005H137.167V296.009H138.576ZM143.82 306.248H142.41V298.005H143.82V306.248ZM142.296 295.819C142.296 295.59 142.365 295.397 142.502 295.24C142.644 295.082 142.852 295.003 143.127 295.003C143.401 295.003 143.609 295.082 143.751 295.24C143.893 295.397 143.965 295.59 143.965 295.819C143.965 296.047 143.893 296.238 143.751 296.39C143.609 296.542 143.401 296.619 143.127 296.619C142.852 296.619 142.644 296.542 142.502 296.39C142.365 296.238 142.296 296.047 142.296 295.819ZM146.229 302.05C146.229 301.243 146.387 300.517 146.702 299.872C147.021 299.227 147.463 298.729 148.027 298.378C148.596 298.028 149.243 297.853 149.97 297.853C151.092 297.853 151.999 298.241 152.69 299.018C153.385 299.795 153.733 300.829 153.733 302.119V302.218C153.733 303.02 153.578 303.742 153.268 304.382C152.964 305.016 152.524 305.512 151.951 305.867C151.382 306.223 150.727 306.4 149.985 306.4C148.868 306.4 147.961 306.012 147.265 305.235C146.575 304.458 146.229 303.429 146.229 302.149V302.05ZM147.646 302.218C147.646 303.132 147.857 303.866 148.279 304.42C148.705 304.973 149.274 305.25 149.985 305.25C150.701 305.25 151.27 304.971 151.692 304.412C152.113 303.848 152.324 303.061 152.324 302.05C152.324 301.146 152.108 300.415 151.676 299.856C151.25 299.293 150.681 299.011 149.97 299.011C149.274 299.011 148.713 299.287 148.286 299.841C147.86 300.395 147.646 301.187 147.646 302.218ZM157.354 298.005L157.4 299.041C158.029 298.249 158.852 297.853 159.868 297.853C161.61 297.853 162.489 298.835 162.504 300.801V306.248H161.095V300.793C161.089 300.199 160.952 299.76 160.683 299.475C160.419 299.191 160.005 299.049 159.441 299.049C158.984 299.049 158.583 299.171 158.238 299.414C157.892 299.658 157.623 299.978 157.43 300.374V306.248H156.021V298.005H157.354Z" fill="#263238"/>
</svg>
