<svg width="475" height="270" viewBox="0 0 475 270" fill="none" xmlns="http://www.w3.org/2000/svg">
<rect x="1.10339" y="0.500728" width="473.187" height="268.92" rx="4.21651" fill="white" stroke="#E5E5E5" stroke-width="0.937003"/>
<path d="M23.7077 33.1418C25.9565 33.1418 27.3058 31.9125 27.3058 29.9935C27.3058 28.4343 26.4213 27.5348 24.3823 27.07L23.5278 26.8751C22.2085 26.5753 21.5638 26.1255 21.5638 25.1361C21.5638 24.0117 22.3884 23.427 23.7227 23.427C24.9371 23.427 25.7316 23.9217 26.3013 24.7163L27.2458 24.0267C26.4662 22.9172 25.3568 22.3176 23.7827 22.3176C21.7288 22.3176 20.3195 23.322 20.3195 25.181C20.3195 26.7852 21.3689 27.6247 23.2729 28.0595L24.1275 28.2544C25.5067 28.5692 26.0615 29.064 26.0615 30.0535C26.0615 31.2528 25.2519 32.0324 23.7527 32.0324C22.5383 32.0324 21.6688 31.5077 20.9342 30.5332L20.0047 31.3128C20.8442 32.4522 22.0286 33.1418 23.7077 33.1418ZM32.9811 32.9619V31.9125H31.4069V26.2755H33.101V25.226H31.4069V23.0822H30.3275V24.5214C30.3275 25.0461 30.1626 25.226 29.6529 25.226H28.9333V26.2755H30.2076V31.6876C30.2076 32.4372 30.6573 32.9619 31.4819 32.9619H32.9811ZM41.7377 32.9619V31.9125H40.8532V27.6547C40.8532 26.0206 39.7438 25.0461 37.8848 25.0461C36.4905 25.0461 35.561 25.7357 35.1412 26.5603L35.8609 27.235C36.2806 26.5303 36.8953 26.0806 37.8248 26.0806C39.0542 26.0806 39.6539 26.6802 39.6539 27.7747V28.5393H38.1247C35.8759 28.5393 34.8264 29.3488 34.8264 30.8031C34.8264 32.2423 35.7859 33.1418 37.42 33.1418C38.4995 33.1418 39.324 32.6471 39.6539 31.7026H39.7288C39.8188 32.4222 40.1786 32.9619 41.0631 32.9619H41.7377ZM37.6149 32.1224C36.6854 32.1224 36.0857 31.6876 36.0857 30.923V30.6082C36.0857 29.8586 36.7004 29.4388 38.0647 29.4388H39.6539V30.7131C39.6539 31.5077 38.7993 32.1224 37.6149 32.1224ZM45.0612 32.9619V27.7147C45.0612 26.9801 45.8408 26.4254 47.1301 26.4254H47.8347V25.226H47.37C46.1106 25.226 45.406 25.9157 45.1361 26.6503H45.0612V25.226H43.8618V32.9619H45.0612ZM53.0459 32.9619V31.9125H51.4717V26.2755H53.1658V25.226H51.4717V23.0822H50.3923V24.5214C50.3923 25.0461 50.2274 25.226 49.7176 25.226H48.998V26.2755H50.2723V31.6876C50.2723 32.4372 50.7221 32.9619 51.5467 32.9619H53.0459ZM60.2733 32.9619H61.4727V25.226H60.2733V30.5782C60.2733 31.5976 59.3438 32.0624 58.3993 32.0624C57.2449 32.0624 56.6302 31.3578 56.6302 29.9785V25.226H55.4309V30.1884C55.4309 32.0624 56.4503 33.1418 58.0395 33.1418C59.3288 33.1418 59.9135 32.4372 60.2133 31.7026H60.2733V32.9619ZM64.439 35.9603H65.6384V31.7026H65.6983C66.1631 32.6621 66.8977 33.1418 67.9621 33.1418C69.8961 33.1418 71.1105 31.5677 71.1105 29.094C71.1105 26.6203 69.8961 25.0461 67.9621 25.0461C66.8977 25.0461 66.1031 25.5109 65.6983 26.4853H65.6384V25.226H64.439V35.9603ZM67.6323 32.0624C66.5379 32.0624 65.6384 31.4927 65.6384 30.4882V27.6098C65.6384 26.7552 66.5379 26.1255 67.6323 26.1255C68.9816 26.1255 69.8211 27.055 69.8211 28.4343V29.7536C69.8211 31.1329 68.9816 32.0624 67.6323 32.0624ZM75.8716 33.1418C77.6407 33.1418 78.7351 32.2273 78.7351 30.7281C78.7351 29.5587 78.0754 28.8091 76.3663 28.5543L75.7667 28.4643C74.8072 28.3144 74.2824 28.0145 74.2824 27.2649C74.2824 26.5303 74.8072 26.0656 75.7966 26.0656C76.7861 26.0656 77.4458 26.5303 77.7906 27.0101L78.5852 26.2905C77.9555 25.5109 77.1309 25.0461 75.8866 25.0461C74.3124 25.0461 73.1281 25.7957 73.1281 27.3249C73.1281 28.7641 74.1925 29.3488 75.6167 29.5587L76.2314 29.6487C77.2509 29.7986 77.5807 30.2633 77.5807 30.863C77.5807 31.6576 76.981 32.1224 75.9616 32.1224C74.9871 32.1224 74.2675 31.6876 73.6678 30.938L72.8132 31.6276C73.5029 32.5421 74.4474 33.1418 75.8716 33.1418ZM88.3245 32.9619L91.053 25.226H89.8987L88.5194 29.064L87.6798 31.7026H87.6049L86.7653 29.064L85.416 25.226H84.2167L86.9302 32.9619H88.3245ZM95.3361 33.1418C97.1051 33.1418 98.1996 32.2273 98.1996 30.7281C98.1996 29.5587 97.5399 28.8091 95.8308 28.5543L95.2311 28.4643C94.2716 28.3144 93.7469 28.0145 93.7469 27.2649C93.7469 26.5303 94.2716 26.0656 95.2611 26.0656C96.2506 26.0656 96.9102 26.5303 97.2551 27.0101L98.0496 26.2905C97.42 25.5109 96.5954 25.0461 95.3511 25.0461C93.7769 25.0461 92.5925 25.7957 92.5925 27.3249C92.5925 28.7641 93.657 29.3488 95.0812 29.5587L95.6959 29.6487C96.7154 29.7986 97.0452 30.2633 97.0452 30.863C97.0452 31.6576 96.4455 32.1224 95.426 32.1224C94.4516 32.1224 93.7319 31.6876 93.1323 30.938L92.2777 31.6276C92.9673 32.5421 93.9118 33.1418 95.3361 33.1418ZM108.509 32.9619V31.9125H107.039V23.5469H108.509V22.4975H104.311V23.5469H105.78V31.9125H104.311V32.9619H108.509ZM112.3 32.9619V27.5948C112.3 26.6053 113.229 26.1255 114.189 26.1255C115.343 26.1255 115.943 26.8302 115.943 28.2094V32.9619H117.142V27.9995C117.142 26.1255 116.138 25.0461 114.549 25.0461C113.394 25.0461 112.735 25.6158 112.36 26.4853H112.3V25.226H111.101V32.9619H112.3ZM124.981 32.9619H126.18V21.8678H124.981V26.4853H124.921C124.516 25.5109 123.722 25.0461 122.657 25.0461C120.723 25.0461 119.509 26.6203 119.509 29.094C119.509 31.5677 120.723 33.1418 122.657 33.1418C123.722 33.1418 124.456 32.6621 124.921 31.7026H124.981V32.9619ZM122.987 32.0624C121.638 32.0624 120.798 31.1329 120.798 29.7536V28.4343C120.798 27.055 121.638 26.1255 122.987 26.1255C124.082 26.1255 124.981 26.7552 124.981 27.6098V30.4882C124.981 31.4927 124.082 32.0624 122.987 32.0624ZM133.91 32.9619H135.109V25.226H133.91V30.5782C133.91 31.5976 132.981 32.0624 132.036 32.0624C130.882 32.0624 130.267 31.3578 130.267 29.9785V25.226H129.068V30.1884C129.068 32.0624 130.087 33.1418 131.676 33.1418C132.966 33.1418 133.55 32.4372 133.85 31.7026H133.91V32.9619ZM140.399 33.1418C142.169 33.1418 143.263 32.2273 143.263 30.7281C143.263 29.5587 142.603 28.8091 140.894 28.5543L140.295 28.4643C139.335 28.3144 138.81 28.0145 138.81 27.2649C138.81 26.5303 139.335 26.0656 140.325 26.0656C141.314 26.0656 141.974 26.5303 142.318 27.0101L143.113 26.2905C142.483 25.5109 141.659 25.0461 140.414 25.0461C138.84 25.0461 137.656 25.7957 137.656 27.3249C137.656 28.7641 138.72 29.3488 140.145 29.5587L140.759 29.6487C141.779 29.7986 142.109 30.2633 142.109 30.863C142.109 31.6576 141.509 32.1224 140.489 32.1224C139.515 32.1224 138.795 31.6876 138.196 30.938L137.341 31.6276C138.031 32.5421 138.975 33.1418 140.399 33.1418ZM148.9 32.9619V31.9125H147.325V26.2755H149.019V25.226H147.325V23.0822H146.246V24.5214C146.246 25.0461 146.081 25.226 145.571 25.226H144.852V26.2755H146.126V31.6876C146.126 32.4372 146.576 32.9619 147.4 32.9619H148.9ZM152.559 32.9619V27.7147C152.559 26.9801 153.338 26.4254 154.628 26.4254H155.332V25.226H154.868C153.608 25.226 152.904 25.9157 152.634 26.6503H152.559V25.226H151.359V32.9619H152.559ZM160.317 30.4882L159.897 31.7476H159.822L159.462 30.4882L157.603 25.226H156.404L159.297 33.2618L158.712 34.9109H157.498V35.9603H158.113C159.252 35.9603 159.567 35.6905 159.912 34.761L163.375 25.226H162.191L160.317 30.4882Z" fill="#263238"/>
<g opacity="0.4">
<g opacity="0.8">
<rect x="319.216" y="56.2529" width="10.19" height="10.19" rx="5.09501" fill="#56CCF2"/>
</g>
</g>
<path d="M325.513 80.8389L323.027 73.7262H321.937L319.45 80.8389H320.316L321.03 78.7397H323.903L324.617 80.8389H325.513ZM323.689 77.9857H321.234L322.436 74.5211H322.487L323.689 77.9857ZM329.548 80.8389V80.1256H328.55V74.4395H329.548V73.7262H326.695V74.4395H327.694V80.1256H326.695V80.8389H329.548Z" fill="#3498DB"/>
<g opacity="0.8">
<rect x="319.216" y="99.1289" width="10.19" height="10.19" rx="5.09501" fill="#56CCF2"/>
</g>
<path d="M322.681 123.716V123.003H321.682V117.316H322.681V116.603H319.827V117.316H320.826V123.003H319.827V123.716H322.681ZM327.243 123.838C329.077 123.838 330.259 122.544 330.259 120.16C330.259 117.775 329.077 116.481 327.243 116.481C325.409 116.481 324.227 117.775 324.227 120.16C324.227 122.544 325.409 123.838 327.243 123.838ZM327.243 123.074C326.01 123.074 325.144 122.157 325.144 120.751V119.568C325.144 118.162 326.01 117.245 327.243 117.245C328.476 117.245 329.342 118.162 329.342 119.568V120.751C329.342 122.157 328.476 123.074 327.243 123.074ZM336.595 117.357V116.603H331.215V117.357H333.477V123.716H334.333V117.357H336.595Z" fill="#3498DB"/>
<rect x="319.216" y="142.006" width="10.19" height="10.19" rx="5.09501" fill="#3498DB"/>
<path d="M325.513 166.593L323.027 159.48H321.937L319.45 166.593H320.316L321.03 164.494H323.903L324.617 166.593H325.513ZM323.689 163.74H321.234L322.436 160.275H322.487L323.689 163.74ZM327.887 163.536H329.548L331.087 166.593H332.055L330.425 163.454C331.352 163.24 331.851 162.537 331.851 161.498C331.851 160.204 331.107 159.48 329.864 159.48H327.031V166.593H327.887V163.536ZM327.887 162.802V160.234H329.864C330.537 160.234 330.934 160.601 330.934 161.253V161.783C330.934 162.435 330.537 162.802 329.864 162.802H327.887ZM333.667 168.131L336.327 159.052H335.593L332.933 168.131H333.667ZM340.889 166.593L343.283 159.48H342.397L341.215 163.067L340.41 165.737H340.359L339.574 163.067L338.402 159.48H337.485L339.849 166.593H340.889ZM345.634 163.536H347.295L348.834 166.593H349.802L348.171 163.454C349.099 163.24 349.598 162.537 349.598 161.498C349.598 160.204 348.854 159.48 347.611 159.48H344.778V166.593H345.634V163.536ZM345.634 162.802V160.234H347.611C348.284 160.234 348.681 160.601 348.681 161.253V161.783C348.681 162.435 348.284 162.802 347.611 162.802H345.634Z" fill="#3498DB"/>
<g opacity="0.16">
<rect x="319.216" y="184.882" width="10.19" height="10.19" rx="5.09501" fill="#3498DB"/>
</g>
<path d="M321.02 206.238H322.681L324.219 209.295H325.187L323.557 206.156C324.484 205.942 324.983 205.239 324.983 204.2C324.983 202.906 324.24 202.182 322.996 202.182H320.164V209.295H321.02V206.238ZM321.02 205.504V202.936H322.996C323.669 202.936 324.066 203.303 324.066 203.955V204.485C324.066 205.137 323.669 205.504 322.996 205.504H321.02ZM328.778 209.417C330.184 209.417 331.152 208.337 331.152 206.666C331.152 204.995 330.184 203.915 328.778 203.915C327.371 203.915 326.403 204.995 326.403 206.666C326.403 208.337 327.371 209.417 328.778 209.417ZM328.778 208.694C327.901 208.694 327.28 208.154 327.28 207.043V206.289C327.28 205.178 327.901 204.638 328.778 204.638C329.654 204.638 330.276 205.178 330.276 206.289V207.043C330.276 208.154 329.654 208.694 328.778 208.694ZM332.832 209.295H333.647V208.439H333.688C334.004 209.091 334.503 209.417 335.227 209.417C336.541 209.417 337.367 208.347 337.367 206.666C337.367 204.985 336.541 203.915 335.227 203.915C334.503 203.915 333.963 204.23 333.688 204.893H333.647V201.754H332.832V209.295ZM335.003 208.684C334.259 208.684 333.647 208.296 333.647 207.614V205.657C333.647 205.076 334.259 204.648 335.003 204.648C335.92 204.648 336.49 205.28 336.49 206.218V207.114C336.49 208.052 335.92 208.684 335.003 208.684ZM341.07 209.417C342.476 209.417 343.444 208.337 343.444 206.666C343.444 204.995 342.476 203.915 341.07 203.915C339.664 203.915 338.696 204.995 338.696 206.666C338.696 208.337 339.664 209.417 341.07 209.417ZM341.07 208.694C340.194 208.694 339.572 208.154 339.572 207.043V206.289C339.572 205.178 340.194 204.638 341.07 204.638C341.946 204.638 342.568 205.178 342.568 206.289V207.043C342.568 208.154 341.946 208.694 341.07 208.694ZM347.305 209.295V208.582H346.235V204.75H347.387V204.037H346.235V202.58H345.502V203.558C345.502 203.915 345.39 204.037 345.043 204.037H344.554V204.75H345.42V208.429C345.42 208.938 345.726 209.295 346.286 209.295H347.305ZM349.444 202.804C349.791 202.804 349.944 202.62 349.944 202.345V202.213C349.944 201.938 349.791 201.754 349.444 201.754C349.098 201.754 348.945 201.938 348.945 202.213V202.345C348.945 202.62 349.098 202.804 349.444 202.804ZM349.037 209.295H349.852V204.037H349.037V209.295ZM353.88 209.417C354.879 209.417 355.562 208.928 355.898 208.174L355.307 207.777C355.022 208.378 354.543 208.694 353.88 208.694C352.912 208.694 352.413 208.031 352.413 207.114V206.218C352.413 205.3 352.912 204.638 353.88 204.638C354.522 204.638 354.971 204.954 355.164 205.494L355.847 205.148C355.541 204.424 354.92 203.915 353.88 203.915C352.403 203.915 351.537 204.985 351.537 206.666C351.537 208.347 352.403 209.417 353.88 209.417ZM358.968 209.417C360.17 209.417 360.914 208.796 360.914 207.777C360.914 206.982 360.466 206.472 359.304 206.299L358.897 206.238C358.244 206.136 357.888 205.932 357.888 205.423C357.888 204.923 358.244 204.608 358.917 204.608C359.589 204.608 360.038 204.923 360.272 205.249L360.812 204.76C360.384 204.23 359.824 203.915 358.978 203.915C357.908 203.915 357.103 204.424 357.103 205.463C357.103 206.442 357.827 206.839 358.795 206.982L359.212 207.043C359.905 207.145 360.13 207.461 360.13 207.868C360.13 208.408 359.722 208.724 359.029 208.724C358.367 208.724 357.878 208.429 357.47 207.919L356.889 208.388C357.358 209.01 358 209.417 358.968 209.417Z" fill="#3498DB"/>
<g opacity="0.4">
<g opacity="0.8">
<rect x="388.554" y="56.2529" width="10.19" height="10.19" rx="5.09501" fill="#56CCF2"/>
</g>
</g>
<path d="M394.852 80.8389L392.365 73.7262H391.275L388.788 80.8389H389.655L390.368 78.7397H393.241L393.955 80.8389H394.852ZM393.027 77.9857H390.572L391.774 74.5211H391.825L393.027 77.9857ZM398.886 80.8389V80.1256H397.888V74.4395H398.886V73.7262H396.033V74.4395H397.032V80.1256H396.033V80.8389H398.886Z" fill="#3498DB"/>
<g opacity="0.8">
<rect x="388.554" y="99.1289" width="10.19" height="10.19" rx="5.09501" fill="#56CCF2"/>
</g>
<path d="M392.019 123.716V123.003H391.02V117.316H392.019V116.603H389.165V117.316H390.164V123.003H389.165V123.716H392.019ZM396.581 123.838C398.415 123.838 399.597 122.544 399.597 120.16C399.597 117.775 398.415 116.481 396.581 116.481C394.747 116.481 393.565 117.775 393.565 120.16C393.565 122.544 394.747 123.838 396.581 123.838ZM396.581 123.074C395.348 123.074 394.482 122.157 394.482 120.751V119.568C394.482 118.162 395.348 117.245 396.581 117.245C397.814 117.245 398.68 118.162 398.68 119.568V120.751C398.68 122.157 397.814 123.074 396.581 123.074ZM405.933 117.357V116.603H400.553V117.357H402.815V123.716H403.671V117.357H405.933Z" fill="#3498DB"/>
<rect x="388.554" y="142.006" width="10.19" height="10.19" rx="5.09501" fill="#3498DB"/>
<path d="M394.852 166.593L392.365 159.48H391.275L388.788 166.593H389.655L390.368 164.494H393.241L393.955 166.593H394.852ZM393.027 163.74H390.572L391.774 160.275H391.825L393.027 163.74ZM397.225 163.536H398.886L400.425 166.593H401.393L399.763 163.454C400.69 163.24 401.189 162.537 401.189 161.498C401.189 160.204 400.445 159.48 399.202 159.48H396.369V166.593H397.225V163.536ZM397.225 162.802V160.234H399.202C399.875 160.234 400.272 160.601 400.272 161.253V161.783C400.272 162.435 399.875 162.802 399.202 162.802H397.225ZM403.005 168.131L405.665 159.052H404.931L402.272 168.131H403.005ZM410.227 166.593L412.621 159.48H411.735L410.553 163.067L409.748 165.737H409.697L408.912 163.067L407.74 159.48H406.823L409.187 166.593H410.227ZM414.972 163.536H416.633L418.172 166.593H419.14L417.51 163.454C418.437 163.24 418.936 162.537 418.936 161.498C418.936 160.204 418.192 159.48 416.949 159.48H414.116V166.593H414.972V163.536ZM414.972 162.802V160.234H416.949C417.622 160.234 418.019 160.601 418.019 161.253V161.783C418.019 162.435 417.622 162.802 416.949 162.802H414.972Z" fill="#3498DB"/>
<g opacity="0.16">
<rect x="388.554" y="184.882" width="10.19" height="10.19" rx="5.09501" fill="#3498DB"/>
</g>
<path d="M390.358 206.238H392.019L393.557 209.295H394.525L392.895 206.156C393.822 205.942 394.322 205.239 394.322 204.2C394.322 202.906 393.578 202.182 392.335 202.182H389.502V209.295H390.358V206.238ZM390.358 205.504V202.936H392.335C393.007 202.936 393.405 203.303 393.405 203.955V204.485C393.405 205.137 393.007 205.504 392.335 205.504H390.358ZM398.116 209.417C399.522 209.417 400.49 208.337 400.49 206.666C400.49 204.995 399.522 203.915 398.116 203.915C396.709 203.915 395.741 204.995 395.741 206.666C395.741 208.337 396.709 209.417 398.116 209.417ZM398.116 208.694C397.239 208.694 396.618 208.154 396.618 207.043V206.289C396.618 205.178 397.239 204.638 398.116 204.638C398.992 204.638 399.614 205.178 399.614 206.289V207.043C399.614 208.154 398.992 208.694 398.116 208.694ZM402.17 209.295H402.986V208.439H403.026C403.342 209.091 403.842 209.417 404.565 209.417C405.88 209.417 406.705 208.347 406.705 206.666C406.705 204.985 405.88 203.915 404.565 203.915C403.842 203.915 403.301 204.23 403.026 204.893H402.986V201.754H402.17V209.295ZM404.341 208.684C403.597 208.684 402.986 208.296 402.986 207.614V205.657C402.986 205.076 403.597 204.648 404.341 204.648C405.258 204.648 405.829 205.28 405.829 206.218V207.114C405.829 208.052 405.258 208.684 404.341 208.684ZM410.408 209.417C411.814 209.417 412.782 208.337 412.782 206.666C412.782 204.995 411.814 203.915 410.408 203.915C409.002 203.915 408.034 204.995 408.034 206.666C408.034 208.337 409.002 209.417 410.408 209.417ZM410.408 208.694C409.532 208.694 408.91 208.154 408.91 207.043V206.289C408.91 205.178 409.532 204.638 410.408 204.638C411.284 204.638 411.906 205.178 411.906 206.289V207.043C411.906 208.154 411.284 208.694 410.408 208.694ZM416.643 209.295V208.582H415.573V204.75H416.725V204.037H415.573V202.58H414.84V203.558C414.84 203.915 414.728 204.037 414.381 204.037H413.892V204.75H414.758V208.429C414.758 208.938 415.064 209.295 415.624 209.295H416.643ZM418.782 202.804C419.129 202.804 419.282 202.62 419.282 202.345V202.213C419.282 201.938 419.129 201.754 418.782 201.754C418.436 201.754 418.283 201.938 418.283 202.213V202.345C418.283 202.62 418.436 202.804 418.782 202.804ZM418.375 209.295H419.19V204.037H418.375V209.295ZM423.219 209.417C424.217 209.417 424.9 208.928 425.236 208.174L424.645 207.777C424.36 208.378 423.881 208.694 423.219 208.694C422.25 208.694 421.751 208.031 421.751 207.114V206.218C421.751 205.3 422.25 204.638 423.219 204.638C423.861 204.638 424.309 204.954 424.502 205.494L425.185 205.148C424.88 204.424 424.258 203.915 423.219 203.915C421.741 203.915 420.875 204.985 420.875 206.666C420.875 208.347 421.741 209.417 423.219 209.417ZM428.306 209.417C429.508 209.417 430.252 208.796 430.252 207.777C430.252 206.982 429.804 206.472 428.642 206.299L428.235 206.238C427.583 206.136 427.226 205.932 427.226 205.423C427.226 204.923 427.583 204.608 428.255 204.608C428.928 204.608 429.376 204.923 429.61 205.249L430.15 204.76C429.722 204.23 429.162 203.915 428.316 203.915C427.246 203.915 426.441 204.424 426.441 205.463C426.441 206.442 427.165 206.839 428.133 206.982L428.551 207.043C429.244 207.145 429.468 207.461 429.468 207.868C429.468 208.408 429.06 208.724 428.367 208.724C427.705 208.724 427.216 208.429 426.808 207.919L426.227 208.388C426.696 209.01 427.338 209.417 428.306 209.417Z" fill="#3498DB"/>
<rect x="39.989" y="60.9375" width="188.338" height="188.338" rx="94.1688" fill="#56CCF2"/>
<g style="mix-blend-mode:overlay">
<path d="M134.158 155.108H228.327C228.327 181.039 217.6 204.515 200.559 221.509L134.158 155.108Z" fill="#ACB9FF"/>
</g>
<g opacity="0.4">
<path d="M134.158 155.106H228.327C228.327 129.175 217.6 105.699 200.559 88.7051L134.158 155.106Z" fill="#3498DB"/>
</g>
<path d="M134.158 155.106V60.9376C160.089 60.9376 183.565 71.6642 200.559 88.7054L134.158 155.106Z" fill="#3498DB"/>
</svg>
