<svg width="967" height="384" viewBox="0 0 967 384" fill="none" xmlns="http://www.w3.org/2000/svg">
<rect x="0.64547" y="0.64547" width="965.709" height="382.709" rx="5.80923" fill="white" stroke="#E5E5E5" stroke-width="1.29094"/>
<g opacity="0.16">
<rect x="91.4742" y="178.531" width="54.3646" height="166.782" fill="#3AA959"/>
</g>
<g opacity="0.16">
<rect x="152.148" y="186.276" width="54.3646" height="158.629" fill="#3AA959"/>
</g>
<g opacity="0.16">
<rect x="211.532" y="157.877" width="54.3646" height="187.525" fill="#3AA959"/>
</g>
<g opacity="0.16">
<rect x="273.497" y="143.677" width="54.3646" height="200.857" fill="#3AA959"/>
</g>
<g opacity="0.16">
<rect x="332.88" y="210.805" width="54.3646" height="134.386" fill="#3AA959"/>
</g>
<g opacity="0.16">
<rect x="627" y="210.805" width="54.3646" height="134.386" fill="#3AA959"/>
</g>
<g opacity="0.16">
<rect x="392.263" y="178.531" width="54.3646" height="166.33" fill="#3AA959"/>
</g>
<g opacity="0.16">
<rect x="686.383" y="178.531" width="54.3646" height="166.33" fill="#3AA959"/>
</g>
<g opacity="0.16">
<rect x="454.228" y="163.04" width="54.3646" height="181.581" fill="#3AA959"/>
</g>
<g opacity="0.16">
<rect x="748.348" y="163.04" width="54.3646" height="181.581" fill="#3AA959"/>
</g>
<g opacity="0.16">
<rect x="513.612" y="240.496" width="54.3646" height="104.36" fill="#3AA959"/>
</g>
<g opacity="0.16">
<rect x="807.731" y="240.496" width="54.3646" height="104.36" fill="#3AA959"/>
</g>
<g opacity="0.16">
<rect x="572.996" y="138.512" width="54.3646" height="205.51" fill="#3AA959"/>
</g>
<g opacity="0.16">
<rect x="867.115" y="138.512" width="54.3646" height="205.51" fill="#3AA959"/>
</g>
<path d="M113.107 334.913H106.07V333.932L109.788 329.802C110.338 329.177 110.717 328.671 110.924 328.282C111.135 327.889 111.241 327.483 111.241 327.065C111.241 326.505 111.071 326.045 110.732 325.686C110.393 325.327 109.94 325.147 109.375 325.147C108.696 325.147 108.167 325.342 107.789 325.73C107.415 326.114 107.228 326.65 107.228 327.338H105.864C105.864 326.35 106.181 325.551 106.815 324.941C107.454 324.331 108.308 324.026 109.375 324.026C110.373 324.026 111.162 324.289 111.742 324.816C112.323 325.337 112.613 326.033 112.613 326.903C112.613 327.96 111.939 329.219 110.592 330.679L107.715 333.799H113.107V334.913ZM115.683 329.529L116.229 324.174H121.731V325.435H117.387L117.062 328.363C117.588 328.054 118.186 327.899 118.855 327.899C119.833 327.899 120.61 328.223 121.185 328.872C121.761 329.516 122.048 330.389 122.048 331.491C122.048 332.597 121.748 333.47 121.149 334.109C120.554 334.743 119.72 335.061 118.648 335.061C117.699 335.061 116.925 334.798 116.325 334.271C115.725 333.745 115.383 333.017 115.299 332.088H116.59C116.674 332.703 116.893 333.167 117.247 333.482C117.601 333.792 118.068 333.947 118.648 333.947C119.282 333.947 119.779 333.73 120.138 333.298C120.502 332.865 120.684 332.268 120.684 331.505C120.684 330.788 120.487 330.212 120.094 329.779C119.705 329.342 119.187 329.123 118.537 329.123C117.942 329.123 117.475 329.253 117.136 329.514L116.775 329.809L115.683 329.529ZM129.397 324.166V325.324H129.146C128.084 325.344 127.238 325.659 126.609 326.269C125.979 326.878 125.615 327.736 125.517 328.843C126.083 328.194 126.855 327.869 127.833 327.869C128.767 327.869 129.512 328.199 130.068 328.857C130.629 329.516 130.909 330.367 130.909 331.41C130.909 332.516 130.606 333.401 130.002 334.065C129.402 334.729 128.595 335.061 127.582 335.061C126.555 335.061 125.721 334.667 125.082 333.88C124.443 333.089 124.123 332.071 124.123 330.827V330.303C124.123 328.326 124.543 326.817 125.384 325.774C126.23 324.727 127.486 324.191 129.153 324.166H129.397ZM127.604 329.005C127.137 329.005 126.707 329.145 126.314 329.425C125.92 329.706 125.647 330.057 125.495 330.48V330.982C125.495 331.867 125.694 332.58 126.092 333.121C126.491 333.662 126.987 333.932 127.582 333.932C128.197 333.932 128.679 333.706 129.028 333.254C129.382 332.801 129.559 332.209 129.559 331.476C129.559 330.738 129.38 330.143 129.021 329.691C128.667 329.234 128.194 329.005 127.604 329.005Z" fill="#263238"/>
<path d="M112.563 206.154L112.563 204.895L119.289 204.895C120.198 204.895 120.909 205.169 121.422 205.717C121.935 206.26 122.192 206.986 122.192 207.895C122.192 208.839 121.95 209.574 121.467 210.1C120.985 210.627 120.308 210.89 119.439 210.89L119.439 209.637C119.982 209.637 120.406 209.489 120.711 209.194C121.015 208.893 121.167 208.461 121.167 207.895C121.167 207.378 121.004 206.96 120.678 206.643C120.352 206.321 119.895 206.158 119.308 206.154L112.563 206.154ZM121.363 198.226C121.915 198.695 122.192 199.385 122.192 200.294C122.192 201.046 121.974 201.62 121.539 202.016C121.1 202.407 120.452 202.605 119.595 202.609L115.003 202.609L115.003 201.403L119.563 201.403C120.632 201.403 121.167 200.968 121.167 200.098C121.167 199.176 120.824 198.563 120.137 198.258L115.003 198.258L115.003 197.052L122.061 197.052L122.061 198.2L121.363 198.226ZM122.061 193.533L122.061 194.74L112.041 194.74L112.041 193.533L122.061 193.533ZM120.293 188.919L115.003 187.275L115.003 185.984L123.15 188.821C124.325 189.261 124.912 189.959 124.912 190.915L124.892 191.144L124.807 191.594L123.829 191.594L123.855 191.268C123.855 190.859 123.772 190.541 123.607 190.315C123.442 190.085 123.14 189.896 122.7 189.748L121.983 189.48L115.003 191.998L115.003 190.681L120.293 188.919ZM122.061 174.753L122.061 180.976L121.193 180.976L117.54 177.688C116.988 177.201 116.54 176.867 116.197 176.684C115.849 176.497 115.49 176.403 115.12 176.403C114.624 176.403 114.218 176.553 113.9 176.853C113.583 177.154 113.424 177.554 113.424 178.054C113.424 178.654 113.596 179.121 113.939 179.456C114.279 179.787 114.753 179.952 115.362 179.952L115.362 181.159C114.487 181.159 113.781 180.878 113.241 180.317C112.702 179.752 112.433 178.997 112.433 178.054C112.433 177.171 112.665 176.473 113.131 175.96C113.592 175.447 114.207 175.19 114.977 175.19C115.912 175.19 117.025 175.786 118.317 176.977L121.076 179.522L121.076 174.753L122.061 174.753ZM118.01 167.151C119.423 167.151 120.474 167.393 121.161 167.875C121.848 168.358 122.191 169.113 122.192 170.139C122.192 171.152 121.857 171.902 121.187 172.389C120.513 172.876 119.508 173.129 118.173 173.146L116.562 173.146C115.166 173.146 114.129 172.905 113.45 172.422C112.772 171.939 112.433 171.183 112.433 170.152C112.433 169.13 112.761 168.378 113.418 167.895C114.07 167.412 115.079 167.164 116.444 167.151L118.01 167.151ZM116.36 168.358C115.338 168.358 114.594 168.502 114.129 168.789C113.659 169.076 113.424 169.53 113.424 170.152C113.424 170.769 113.657 171.22 114.122 171.502C114.587 171.785 115.303 171.931 116.268 171.939L118.199 171.939C119.226 171.939 119.984 171.791 120.476 171.496C120.963 171.196 121.206 170.743 121.206 170.139C121.206 169.543 120.976 169.102 120.515 168.815C120.054 168.523 119.328 168.371 118.336 168.358L116.36 168.358ZM122.061 159.015L122.061 165.238L121.193 165.238L117.54 161.95C116.988 161.463 116.54 161.128 116.197 160.945C115.849 160.758 115.49 160.665 115.12 160.665C114.624 160.665 114.218 160.815 113.9 161.115C113.583 161.415 113.424 161.815 113.424 162.315C113.424 162.915 113.596 163.383 113.939 163.718C114.279 164.048 114.753 164.214 115.362 164.214L115.362 165.42C114.487 165.42 113.781 165.14 113.241 164.579C112.702 164.014 112.433 163.259 112.433 162.315C112.433 161.432 112.665 160.734 113.131 160.221C113.592 159.708 114.207 159.452 114.977 159.452C115.912 159.452 117.025 160.047 118.317 161.239L121.076 163.783L121.076 159.015L122.061 159.015ZM122.061 153.402L122.061 154.616L114.018 154.616L114.911 157.049L113.816 157.049L112.517 153.592L112.517 153.402L122.061 153.402Z" fill="#263238"/>
<path d="M173.104 204.778L173.104 203.519L179.83 203.519C180.739 203.519 181.45 203.793 181.963 204.341C182.476 204.884 182.733 205.611 182.733 206.519C182.733 207.463 182.491 208.198 182.009 208.724C181.526 209.251 180.85 209.514 179.98 209.514L179.98 208.261C180.523 208.261 180.947 208.113 181.252 207.818C181.556 207.517 181.708 207.085 181.708 206.519C181.708 206.002 181.545 205.584 181.219 205.267C180.893 204.945 180.436 204.782 179.849 204.778L173.104 204.778ZM181.904 196.85C182.456 197.319 182.733 198.009 182.733 198.918C182.733 199.67 182.515 200.244 182.08 200.64C181.641 201.031 180.993 201.229 180.136 201.233L175.544 201.233L175.544 200.027L180.104 200.027C181.174 200.027 181.708 199.592 181.708 198.722C181.708 197.8 181.365 197.187 180.678 196.882L175.544 196.882L175.544 195.676L182.602 195.676L182.602 196.824L181.904 196.85ZM182.602 192.157L182.602 193.364L172.582 193.364L172.582 192.157L182.602 192.157ZM180.834 187.543L175.544 185.899L175.544 184.608L183.692 187.445C184.866 187.885 185.453 188.583 185.453 189.539L185.433 189.768L185.348 190.218L184.37 190.218L184.396 189.892C184.396 189.483 184.313 189.165 184.148 188.939C183.983 188.709 183.681 188.52 183.241 188.372L182.524 188.104L175.544 190.622L175.544 189.305L180.834 187.543ZM182.602 173.377L182.602 179.6L181.735 179.6L178.082 176.312C177.529 175.825 177.081 175.491 176.738 175.308C176.39 175.121 176.031 175.027 175.661 175.027C175.166 175.027 174.759 175.177 174.441 175.477C174.124 175.778 173.965 176.178 173.965 176.678C173.965 177.278 174.137 177.745 174.481 178.08C174.82 178.411 175.294 178.576 175.903 178.576L175.903 179.783C175.029 179.783 174.322 179.502 173.783 178.941C173.243 178.376 172.974 177.621 172.974 176.678C172.974 175.795 173.206 175.097 173.672 174.584C174.133 174.071 174.748 173.814 175.518 173.814C176.453 173.814 177.566 174.41 178.858 175.601L181.617 178.146L181.617 173.377L182.602 173.377ZM178.551 165.775C179.965 165.775 181.015 166.017 181.702 166.499C182.389 166.982 182.733 167.737 182.733 168.763C182.733 169.776 182.398 170.526 181.728 171.013C181.054 171.501 180.049 171.753 178.714 171.77L177.103 171.77C175.707 171.77 174.67 171.529 173.991 171.046C173.313 170.563 172.974 169.807 172.974 168.776C172.974 167.754 173.302 167.002 173.959 166.519C174.611 166.036 175.62 165.788 176.986 165.775L178.551 165.775ZM176.901 166.982C175.879 166.982 175.135 167.126 174.67 167.413C174.2 167.7 173.965 168.154 173.965 168.776C173.965 169.393 174.198 169.844 174.663 170.126C175.129 170.409 175.844 170.555 176.809 170.563L178.74 170.563C179.767 170.563 180.526 170.415 181.017 170.12C181.504 169.82 181.748 169.367 181.748 168.763C181.748 168.167 181.517 167.726 181.056 167.439C180.595 167.147 179.869 166.995 178.877 166.982L176.901 166.982ZM182.602 157.639L182.602 163.862L181.735 163.862L178.082 160.574C177.529 160.087 177.081 159.752 176.738 159.569C176.39 159.382 176.031 159.289 175.661 159.289C175.166 159.289 174.759 159.439 174.441 159.739C174.124 160.039 173.965 160.439 173.965 160.939C173.965 161.539 174.137 162.007 174.481 162.342C174.82 162.672 175.294 162.838 175.903 162.838L175.903 164.044C175.029 164.044 174.322 163.764 173.783 163.203C173.243 162.638 172.974 161.883 172.974 160.939C172.974 160.057 173.206 159.359 173.672 158.845C174.133 158.332 174.748 158.076 175.518 158.076C176.453 158.076 177.566 158.671 178.858 159.863L181.617 162.407L181.617 157.639L182.602 157.639ZM182.602 152.026L182.602 153.24L174.559 153.24L175.453 155.673L174.357 155.673L173.059 152.216L173.059 152.026L182.602 152.026Z" fill="#263238"/>
<path d="M233.645 184.139L233.645 182.88L240.371 182.88C241.28 182.88 241.991 183.154 242.504 183.702C243.017 184.246 243.274 184.972 243.274 185.881C243.274 186.824 243.032 187.559 242.55 188.086C242.067 188.612 241.391 188.875 240.521 188.875L240.521 187.622C241.065 187.622 241.489 187.475 241.793 187.179C242.097 186.879 242.25 186.446 242.25 185.881C242.25 185.363 242.087 184.946 241.76 184.628C241.434 184.306 240.978 184.143 240.391 184.139L233.645 184.139ZM242.445 176.211C242.998 176.681 243.274 177.37 243.274 178.279C243.274 179.031 243.056 179.605 242.622 180.001C242.182 180.393 241.534 180.59 240.678 180.595L236.085 180.595L236.085 179.388L240.645 179.388C241.715 179.388 242.25 178.953 242.25 178.083C242.25 177.161 241.906 176.548 241.219 176.244L236.085 176.244L236.085 175.037L243.143 175.037L243.143 176.185L242.445 176.211ZM243.143 171.519L243.143 172.726L233.124 172.726L233.124 171.519L243.143 171.519ZM241.376 166.905L236.085 165.261L236.085 163.969L244.233 166.807C245.407 167.246 245.994 167.944 245.994 168.901L245.974 169.129L245.89 169.579L244.911 169.579L244.937 169.253C244.937 168.844 244.855 168.527 244.689 168.301C244.524 168.07 244.222 167.881 243.783 167.733L243.065 167.466L236.085 169.984L236.085 168.666L241.376 166.905ZM243.143 152.738L243.143 158.962L242.276 158.962L238.623 155.674C238.07 155.187 237.622 154.852 237.279 154.669C236.931 154.482 236.572 154.389 236.203 154.389C235.707 154.389 235.3 154.539 234.983 154.839C234.665 155.139 234.506 155.539 234.506 156.039C234.506 156.639 234.678 157.107 235.022 157.442C235.361 157.772 235.835 157.937 236.444 157.937L236.444 159.144C235.57 159.144 234.863 158.864 234.324 158.303C233.785 157.737 233.515 156.983 233.515 156.039C233.515 155.156 233.748 154.458 234.213 153.945C234.674 153.432 235.289 153.175 236.059 153.175C236.994 153.175 238.107 153.771 239.399 154.963L242.158 157.507L242.158 152.738L243.143 152.738ZM239.092 145.137C240.506 145.137 241.556 145.378 242.243 145.861C242.93 146.343 243.274 147.098 243.274 148.124C243.274 149.138 242.939 149.888 242.269 150.375C241.595 150.862 240.591 151.114 239.255 151.131L237.644 151.131C236.248 151.131 235.211 150.89 234.533 150.407C233.854 149.925 233.515 149.168 233.515 148.137C233.515 147.115 233.843 146.363 234.5 145.88C235.152 145.397 236.161 145.15 237.527 145.137L239.092 145.137ZM237.442 146.343C236.42 146.343 235.676 146.487 235.211 146.774C234.741 147.061 234.506 147.515 234.506 148.137C234.506 148.755 234.739 149.205 235.204 149.488C235.67 149.77 236.385 149.916 237.351 149.925L239.282 149.925C240.308 149.925 241.067 149.777 241.558 149.481C242.045 149.181 242.289 148.729 242.289 148.124C242.289 147.528 242.058 147.087 241.597 146.8C241.136 146.509 240.41 146.356 239.419 146.343L237.442 146.343ZM243.143 137L243.143 143.223L242.276 143.223L238.623 139.935C238.07 139.448 237.622 139.113 237.279 138.931C236.931 138.744 236.572 138.65 236.203 138.65C235.707 138.65 235.3 138.8 234.983 139.1C234.665 139.4 234.506 139.801 234.506 140.301C234.506 140.901 234.678 141.368 235.022 141.703C235.361 142.034 235.835 142.199 236.444 142.199L236.444 143.406C235.57 143.406 234.863 143.125 234.324 142.564C233.785 141.999 233.515 141.244 233.515 140.301C233.515 139.418 233.748 138.72 234.213 138.207C234.674 137.693 235.289 137.437 236.059 137.437C236.994 137.437 238.107 138.033 239.399 139.224L242.158 141.768L242.158 137L243.143 137ZM243.143 131.388L243.143 132.601L235.1 132.601L235.994 135.034L234.898 135.034L233.6 131.577L233.6 131.388L243.143 131.388Z" fill="#263238"/>
<path d="M295.563 184.139L295.563 182.88L302.288 182.88C303.197 182.88 303.908 183.154 304.421 183.702C304.934 184.246 305.191 184.972 305.191 185.881C305.191 186.824 304.95 187.559 304.467 188.086C303.984 188.612 303.308 188.875 302.438 188.875L302.438 187.622C302.982 187.622 303.406 187.475 303.71 187.179C304.015 186.879 304.167 186.446 304.167 185.881C304.167 185.363 304.004 184.946 303.678 184.628C303.351 184.306 302.895 184.143 302.308 184.139L295.563 184.139ZM304.363 176.211C304.915 176.681 305.191 177.37 305.191 178.279C305.191 179.031 304.974 179.605 304.539 180.001C304.099 180.393 303.451 180.59 302.595 180.595L298.002 180.595L298.002 179.388L302.562 179.388C303.632 179.388 304.167 178.953 304.167 178.083C304.167 177.161 303.823 176.548 303.136 176.244L298.002 176.244L298.002 175.037L305.061 175.037L305.061 176.185L304.363 176.211ZM305.061 171.519L305.061 172.726L295.041 172.726L295.041 171.519L305.061 171.519ZM303.293 166.905L298.002 165.261L298.002 163.969L306.15 166.807C307.324 167.246 307.911 167.944 307.911 168.901L307.892 169.129L307.807 169.579L306.828 169.579L306.854 169.253C306.854 168.844 306.772 168.527 306.607 168.301C306.441 168.07 306.139 167.881 305.7 167.733L304.982 167.466L298.002 169.984L298.002 168.666L303.293 166.905ZM305.061 152.738L305.061 158.962L304.193 158.962L300.54 155.674C299.988 155.187 299.54 154.852 299.196 154.669C298.848 154.482 298.489 154.389 298.12 154.389C297.624 154.389 297.217 154.539 296.9 154.839C296.582 155.139 296.424 155.539 296.424 156.039C296.424 156.639 296.595 157.107 296.939 157.442C297.278 157.772 297.752 157.937 298.361 157.937L298.361 159.144C297.487 159.144 296.78 158.864 296.241 158.303C295.702 157.737 295.432 156.983 295.432 156.039C295.432 155.156 295.665 154.458 296.13 153.945C296.591 153.432 297.206 153.175 297.976 153.175C298.911 153.175 300.025 153.771 301.316 154.963L304.076 157.507L304.076 152.738L305.061 152.738ZM301.01 145.137C302.423 145.137 303.473 145.378 304.16 145.861C304.847 146.343 305.191 147.098 305.191 148.124C305.191 149.138 304.856 149.888 304.186 150.375C303.512 150.862 302.508 151.114 301.173 151.131L299.561 151.131C298.165 151.131 297.128 150.89 296.45 150.407C295.771 149.925 295.432 149.168 295.432 148.137C295.432 147.115 295.76 146.363 296.417 145.88C297.069 145.397 298.078 145.15 299.444 145.137L301.01 145.137ZM299.359 146.343C298.337 146.343 297.594 146.487 297.128 146.774C296.658 147.061 296.424 147.515 296.424 148.137C296.424 148.755 296.656 149.205 297.122 149.488C297.587 149.77 298.302 149.916 299.268 149.925L301.199 149.925C302.225 149.925 302.984 149.777 303.475 149.481C303.962 149.181 304.206 148.729 304.206 148.124C304.206 147.528 303.975 147.087 303.515 146.8C303.054 146.509 302.327 146.356 301.336 146.343L299.359 146.343ZM305.061 137L305.061 143.223L304.193 143.223L300.54 139.935C299.988 139.448 299.54 139.113 299.196 138.931C298.848 138.744 298.489 138.65 298.12 138.65C297.624 138.65 297.217 138.8 296.9 139.1C296.582 139.4 296.424 139.801 296.424 140.301C296.424 140.901 296.595 141.368 296.939 141.703C297.278 142.034 297.752 142.199 298.361 142.199L298.361 143.406C297.487 143.406 296.78 143.125 296.241 142.564C295.702 141.999 295.432 141.244 295.432 140.301C295.432 139.418 295.665 138.72 296.13 138.207C296.591 137.693 297.206 137.437 297.976 137.437C298.911 137.437 300.025 138.033 301.316 139.224L304.076 141.768L304.076 137L305.061 137ZM305.061 131.388L305.061 132.601L297.017 132.601L297.911 135.034L296.815 135.034L295.517 131.577L295.517 131.388L305.061 131.388Z" fill="#263238"/>
<path d="M354.728 236.424L354.728 235.165L361.453 235.165C362.362 235.165 363.073 235.439 363.586 235.987C364.1 236.531 364.356 237.257 364.356 238.166C364.356 239.11 364.115 239.845 363.632 240.371C363.149 240.897 362.473 241.16 361.603 241.16L361.603 239.908C362.147 239.908 362.571 239.76 362.875 239.464C363.18 239.164 363.332 238.731 363.332 238.166C363.332 237.648 363.169 237.231 362.843 236.913C362.517 236.592 362.06 236.429 361.473 236.424L354.728 236.424ZM363.528 228.496C364.08 228.966 364.356 229.655 364.356 230.564C364.356 231.316 364.139 231.891 363.704 232.286C363.265 232.678 362.617 232.876 361.76 232.88L357.168 232.88L357.168 231.673L361.727 231.673C362.797 231.673 363.332 231.238 363.332 230.368C363.332 229.446 362.989 228.833 362.301 228.529L357.168 228.529L357.168 227.322L364.226 227.322L364.226 228.47L363.528 228.496ZM364.226 223.804L364.226 225.011L354.206 225.011L354.206 223.804L364.226 223.804ZM362.458 219.19L357.168 217.546L357.168 216.254L365.315 219.092C366.489 219.531 367.076 220.229 367.076 221.186L367.057 221.414L366.972 221.864L365.994 221.864L366.02 221.538C366.02 221.129 365.937 220.812 365.772 220.586C365.607 220.355 365.304 220.166 364.865 220.018L364.147 219.751L357.168 222.269L357.168 220.951L362.458 219.19ZM364.226 205.023L364.226 211.247L363.358 211.247L359.705 207.959C359.153 207.472 358.705 207.137 358.361 206.954C358.013 206.767 357.655 206.674 357.285 206.674C356.789 206.674 356.383 206.824 356.065 207.124C355.748 207.424 355.589 207.824 355.589 208.324C355.589 208.924 355.761 209.392 356.104 209.727C356.443 210.057 356.917 210.223 357.526 210.223L357.526 211.429C356.652 211.429 355.945 211.149 355.406 210.588C354.867 210.023 354.597 209.268 354.597 208.324C354.597 207.441 354.83 206.743 355.295 206.23C355.756 205.717 356.372 205.461 357.141 205.461C358.076 205.461 359.19 206.056 360.481 207.248L363.241 209.792L363.241 205.023L364.226 205.023ZM360.175 197.422C361.588 197.422 362.638 197.663 363.326 198.146C364.013 198.629 364.356 199.383 364.356 200.409C364.356 201.423 364.021 202.173 363.352 202.66C362.678 203.147 361.673 203.399 360.338 203.417L358.727 203.417C357.331 203.417 356.293 203.175 355.615 202.693C354.937 202.21 354.597 201.453 354.597 200.422C354.597 199.4 354.926 198.648 355.582 198.165C356.235 197.683 357.244 197.435 358.609 197.422L360.175 197.422ZM358.524 198.629C357.502 198.629 356.759 198.772 356.293 199.059C355.824 199.346 355.589 199.801 355.589 200.422C355.589 201.04 355.822 201.49 356.287 201.773C356.752 202.055 357.468 202.201 358.433 202.21L360.364 202.21C361.39 202.21 362.149 202.062 362.641 201.766C363.128 201.466 363.371 201.014 363.371 200.409C363.371 199.814 363.141 199.372 362.68 199.085C362.219 198.794 361.492 198.642 360.501 198.629L358.524 198.629ZM364.226 189.285L364.226 195.508L363.358 195.508L359.705 192.221C359.153 191.733 358.705 191.399 358.361 191.216C358.013 191.029 357.655 190.935 357.285 190.935C356.789 190.935 356.383 191.085 356.065 191.386C355.748 191.686 355.589 192.086 355.589 192.586C355.589 193.186 355.761 193.653 356.104 193.988C356.443 194.319 356.917 194.484 357.526 194.484L357.526 195.691C356.652 195.691 355.945 195.41 355.406 194.849C354.867 194.284 354.597 193.53 354.597 192.586C354.597 191.703 354.83 191.005 355.295 190.492C355.756 189.979 356.372 189.722 357.141 189.722C358.076 189.722 359.19 190.318 360.481 191.509L363.241 194.054L363.241 189.285L364.226 189.285ZM364.226 183.673L364.226 184.886L356.182 184.886L357.076 187.319L355.98 187.319L354.682 183.862L354.682 183.673L364.226 183.673Z" fill="#263238"/>
<path d="M648.847 236.424L648.847 235.165L655.573 235.165C656.482 235.165 657.193 235.439 657.706 235.987C658.219 236.531 658.476 237.257 658.476 238.166C658.476 239.11 658.234 239.845 657.752 240.371C657.269 240.897 656.593 241.16 655.723 241.16L655.723 239.908C656.266 239.908 656.69 239.76 656.995 239.464C657.299 239.164 657.452 238.731 657.452 238.166C657.452 237.648 657.288 237.231 656.962 236.913C656.636 236.592 656.179 236.429 655.592 236.424L648.847 236.424ZM657.647 228.496C658.2 228.966 658.476 229.655 658.476 230.564C658.476 231.316 658.258 231.891 657.823 232.286C657.384 232.678 656.736 232.876 655.879 232.88L651.287 232.88L651.287 231.673L655.847 231.673C656.917 231.673 657.452 231.238 657.452 230.368C657.452 229.446 657.108 228.833 656.421 228.529L651.287 228.529L651.287 227.322L658.345 227.322L658.345 228.47L657.647 228.496ZM658.345 223.804L658.345 225.011L648.325 225.011L648.325 223.804L658.345 223.804ZM656.577 219.19L651.287 217.546L651.287 216.254L659.435 219.092C660.609 219.531 661.196 220.229 661.196 221.186L661.176 221.414L661.092 221.864L660.113 221.864L660.139 221.538C660.139 221.129 660.057 220.812 659.891 220.586C659.726 220.355 659.424 220.166 658.985 220.018L658.267 219.751L651.287 222.269L651.287 220.951L656.577 219.19ZM658.345 205.023L658.345 211.247L657.478 211.247L653.825 207.959C653.272 207.472 652.824 207.137 652.481 206.954C652.133 206.767 651.774 206.674 651.404 206.674C650.909 206.674 650.502 206.824 650.185 207.124C649.867 207.424 649.708 207.824 649.708 208.324C649.708 208.924 649.88 209.392 650.224 209.727C650.563 210.057 651.037 210.223 651.646 210.223L651.646 211.429C650.772 211.429 650.065 211.149 649.526 210.588C648.986 210.023 648.717 209.268 648.717 208.324C648.717 207.441 648.949 206.743 649.415 206.23C649.876 205.717 650.491 205.461 651.261 205.461C652.196 205.461 653.309 206.056 654.601 207.248L657.36 209.792L657.36 205.023L658.345 205.023ZM654.294 197.422C655.708 197.422 656.758 197.663 657.445 198.146C658.132 198.629 658.476 199.383 658.476 200.409C658.476 201.423 658.141 202.173 657.471 202.66C656.797 203.147 655.792 203.399 654.457 203.417L652.846 203.417C651.45 203.417 650.413 203.175 649.734 202.693C649.056 202.21 648.717 201.453 648.717 200.422C648.717 199.4 649.045 198.648 649.702 198.165C650.354 197.683 651.363 197.435 652.729 197.422L654.294 197.422ZM652.644 198.629C651.622 198.629 650.878 198.772 650.413 199.059C649.943 199.346 649.708 199.801 649.708 200.422C649.708 201.04 649.941 201.49 650.406 201.773C650.872 202.055 651.587 202.201 652.552 202.21L654.483 202.21C655.51 202.21 656.269 202.062 656.76 201.766C657.247 201.466 657.491 201.014 657.491 200.409C657.491 199.814 657.26 199.372 656.799 199.085C656.338 198.794 655.612 198.642 654.62 198.629L652.644 198.629ZM658.345 189.285L658.345 195.508L657.478 195.508L653.825 192.221C653.272 191.733 652.824 191.399 652.481 191.216C652.133 191.029 651.774 190.935 651.404 190.935C650.909 190.935 650.502 191.085 650.185 191.386C649.867 191.686 649.708 192.086 649.708 192.586C649.708 193.186 649.88 193.653 650.224 193.988C650.563 194.319 651.037 194.484 651.646 194.484L651.646 195.691C650.772 195.691 650.065 195.41 649.526 194.849C648.986 194.284 648.717 193.53 648.717 192.586C648.717 191.703 648.949 191.005 649.415 190.492C649.876 189.979 650.491 189.722 651.261 189.722C652.196 189.722 653.309 190.318 654.601 191.509L657.36 194.054L657.36 189.285L658.345 189.285ZM658.345 183.673L658.345 184.886L650.302 184.886L651.196 187.319L650.1 187.319L648.802 183.862L648.802 183.673L658.345 183.673Z" fill="#263238"/>
<path d="M413.893 218.537L413.893 217.278L420.619 217.278C421.528 217.278 422.239 217.552 422.752 218.1C423.265 218.644 423.522 219.37 423.522 220.279C423.522 221.223 423.28 221.958 422.797 222.484C422.315 223.01 421.638 223.273 420.769 223.273L420.769 222.021C421.312 222.021 421.736 221.873 422.041 221.577C422.345 221.277 422.497 220.845 422.497 220.279C422.497 219.762 422.334 219.344 422.008 219.027C421.682 218.705 421.225 218.542 420.638 218.537L413.893 218.537ZM422.693 210.61C423.245 211.079 423.522 211.769 423.522 212.677C423.522 213.43 423.304 214.004 422.869 214.4C422.43 214.791 421.782 214.989 420.925 214.993L416.333 214.993L416.333 213.786L420.893 213.786C421.962 213.786 422.497 213.352 422.497 212.482C422.497 211.56 422.154 210.947 421.467 210.642L416.333 210.642L416.333 209.435L423.391 209.435L423.391 210.583L422.693 210.61ZM423.391 205.917L423.391 207.124L413.371 207.124L413.371 205.917L423.391 205.917ZM421.623 201.303L416.333 199.659L416.333 198.368L424.48 201.205C425.655 201.644 426.242 202.342 426.242 203.299L426.222 203.528L426.137 203.978L425.159 203.978L425.185 203.651C425.185 203.243 425.102 202.925 424.937 202.699C424.772 202.469 424.47 202.279 424.03 202.132L423.313 201.864L416.333 204.382L416.333 203.064L421.623 201.303ZM423.391 187.137L423.391 193.36L422.523 193.36L418.87 190.072C418.318 189.585 417.87 189.25 417.527 189.068C417.179 188.881 416.82 188.787 416.45 188.787C415.954 188.787 415.548 188.937 415.23 189.237C414.913 189.537 414.754 189.937 414.754 190.438C414.754 191.038 414.926 191.505 415.27 191.84C415.609 192.171 416.083 192.336 416.692 192.336L416.692 193.543C415.817 193.543 415.111 193.262 414.572 192.701C414.032 192.136 413.763 191.381 413.763 190.438C413.763 189.555 413.995 188.857 414.461 188.344C414.922 187.83 415.537 187.574 416.307 187.574C417.242 187.574 418.355 188.17 419.647 189.361L422.406 191.905L422.406 187.137L423.391 187.137ZM419.34 179.535C420.753 179.535 421.804 179.776 422.491 180.259C423.178 180.742 423.522 181.496 423.522 182.523C423.522 183.536 423.187 184.286 422.517 184.773C421.843 185.26 420.838 185.513 419.503 185.53L417.892 185.53C416.496 185.53 415.459 185.289 414.78 184.806C414.102 184.323 413.763 183.566 413.763 182.536C413.763 181.514 414.091 180.761 414.748 180.279C415.4 179.796 416.409 179.548 417.774 179.535L419.34 179.535ZM417.69 180.742C416.668 180.742 415.924 180.885 415.459 181.172C414.989 181.459 414.754 181.914 414.754 182.536C414.754 183.153 414.987 183.603 415.452 183.886C415.917 184.169 416.633 184.314 417.598 184.323L419.529 184.323C420.556 184.323 421.314 184.175 421.806 183.88C422.293 183.579 422.536 183.127 422.536 182.523C422.536 181.927 422.306 181.485 421.845 181.198C421.384 180.907 420.658 180.755 419.666 180.742L417.69 180.742ZM423.391 171.398L423.391 177.622L422.523 177.622L418.87 174.334C418.318 173.847 417.87 173.512 417.527 173.329C417.179 173.142 416.82 173.049 416.45 173.049C415.954 173.049 415.548 173.199 415.23 173.499C414.913 173.799 414.754 174.199 414.754 174.699C414.754 175.299 414.926 175.767 415.269 176.102C415.609 176.432 416.083 176.597 416.692 176.597L416.692 177.804C415.817 177.804 415.111 177.524 414.572 176.963C414.032 176.397 413.763 175.643 413.763 174.699C413.763 173.816 413.995 173.118 414.461 172.605C414.922 172.092 415.537 171.835 416.307 171.835C417.242 171.835 418.355 172.431 419.647 173.623L422.406 176.167L422.406 171.398L423.391 171.398ZM423.391 165.786L423.391 166.999L415.348 166.999L416.241 169.433L415.146 169.433L413.847 165.975L413.847 165.786L423.391 165.786Z" fill="#263238"/>
<path d="M708.013 218.537L708.013 217.278L714.738 217.278C715.647 217.278 716.358 217.552 716.871 218.1C717.384 218.644 717.641 219.37 717.641 220.279C717.641 221.223 717.4 221.958 716.917 222.484C716.434 223.01 715.758 223.273 714.888 223.273L714.888 222.021C715.432 222.021 715.856 221.873 716.16 221.577C716.465 221.277 716.617 220.845 716.617 220.279C716.617 219.762 716.454 219.344 716.128 219.027C715.801 218.705 715.345 218.542 714.758 218.537L708.013 218.537ZM716.813 210.61C717.365 211.079 717.641 211.769 717.641 212.677C717.641 213.43 717.424 214.004 716.989 214.4C716.549 214.791 715.901 214.989 715.045 214.993L710.452 214.993L710.452 213.786L715.012 213.786C716.082 213.786 716.617 213.352 716.617 212.482C716.617 211.56 716.273 210.947 715.586 210.642L710.452 210.642L710.452 209.435L717.51 209.435L717.51 210.583L716.813 210.61ZM717.51 205.917L717.51 207.124L707.491 207.124L707.491 205.917L717.51 205.917ZM715.743 201.303L710.452 199.659L710.452 198.368L718.6 201.205C719.774 201.644 720.361 202.342 720.361 203.299L720.342 203.528L720.257 203.978L719.278 203.978L719.304 203.651C719.304 203.243 719.222 202.925 719.057 202.699C718.891 202.469 718.589 202.279 718.15 202.132L717.432 201.864L710.452 204.382L710.452 203.064L715.743 201.303ZM717.51 187.137L717.51 193.36L716.643 193.36L712.99 190.072C712.438 189.585 711.99 189.25 711.646 189.068C711.298 188.881 710.939 188.787 710.57 188.787C710.074 188.787 709.667 188.937 709.35 189.237C709.032 189.537 708.874 189.937 708.874 190.438C708.874 191.038 709.045 191.505 709.389 191.84C709.728 192.171 710.202 192.336 710.811 192.336L710.811 193.543C709.937 193.543 709.23 193.262 708.691 192.701C708.152 192.136 707.882 191.381 707.882 190.438C707.882 189.555 708.115 188.857 708.58 188.344C709.041 187.83 709.656 187.574 710.426 187.574C711.361 187.574 712.474 188.17 713.766 189.361L716.525 191.905L716.525 187.137L717.51 187.137ZM713.46 179.535C714.873 179.535 715.923 179.776 716.61 180.259C717.297 180.742 717.641 181.496 717.641 182.523C717.641 183.536 717.306 184.286 716.636 184.773C715.962 185.26 714.958 185.513 713.623 185.53L712.011 185.53C710.615 185.53 709.578 185.289 708.9 184.806C708.221 184.323 707.882 183.566 707.882 182.536C707.882 181.514 708.21 180.761 708.867 180.279C709.519 179.796 710.528 179.548 711.894 179.535L713.46 179.535ZM711.809 180.742C710.787 180.742 710.043 180.885 709.578 181.172C709.108 181.459 708.874 181.914 708.874 182.536C708.874 183.153 709.106 183.603 709.572 183.886C710.037 184.169 710.752 184.314 711.718 184.323L713.649 184.323C714.675 184.323 715.434 184.175 715.925 183.88C716.412 183.579 716.656 183.127 716.656 182.523C716.656 181.927 716.425 181.485 715.964 181.198C715.503 180.907 714.777 180.755 713.786 180.742L711.809 180.742ZM717.51 171.398L717.51 177.622L716.643 177.622L712.99 174.334C712.438 173.847 711.99 173.512 711.646 173.329C711.298 173.142 710.939 173.049 710.57 173.049C710.074 173.049 709.667 173.199 709.35 173.499C709.032 173.799 708.874 174.199 708.874 174.699C708.874 175.299 709.045 175.767 709.389 176.102C709.728 176.432 710.202 176.597 710.811 176.597L710.811 177.804C709.937 177.804 709.23 177.524 708.691 176.963C708.152 176.397 707.882 175.643 707.882 174.699C707.882 173.816 708.115 173.118 708.58 172.605C709.041 172.092 709.656 171.835 710.426 171.835C711.361 171.835 712.474 172.431 713.766 173.623L716.525 176.167L716.525 171.398L717.51 171.398ZM717.51 165.786L717.51 166.999L709.467 166.999L710.361 169.433L709.265 169.433L707.967 165.975L707.967 165.786L717.51 165.786Z" fill="#263238"/>
<path d="M477.186 206.154L477.186 204.895L483.912 204.895C484.821 204.895 485.532 205.169 486.045 205.717C486.558 206.26 486.815 206.986 486.815 207.895C486.815 208.839 486.573 209.574 486.091 210.1C485.608 210.627 484.932 210.89 484.062 210.89L484.062 209.637C484.605 209.637 485.029 209.489 485.334 209.194C485.638 208.893 485.79 208.461 485.79 207.895C485.79 207.378 485.627 206.96 485.301 206.643C484.975 206.321 484.518 206.158 483.931 206.154L477.186 206.154ZM485.986 198.226C486.538 198.695 486.815 199.385 486.815 200.294C486.815 201.046 486.597 201.62 486.162 202.016C485.723 202.407 485.075 202.605 484.218 202.609L479.626 202.609L479.626 201.403L484.186 201.403C485.256 201.403 485.79 200.968 485.79 200.098C485.79 199.176 485.447 198.563 484.76 198.258L479.626 198.258L479.626 197.052L486.684 197.052L486.684 198.2L485.986 198.226ZM486.684 193.533L486.684 194.74L476.664 194.74L476.664 193.533L486.684 193.533ZM484.916 188.919L479.626 187.275L479.626 185.984L487.774 188.821C488.948 189.261 489.535 189.959 489.535 190.915L489.515 191.144L489.43 191.594L488.452 191.594L488.478 191.268C488.478 190.859 488.395 190.541 488.23 190.315C488.065 190.085 487.763 189.896 487.323 189.748L486.606 189.48L479.626 191.998L479.626 190.681L484.916 188.919ZM486.684 174.753L486.684 180.976L485.817 180.976L482.163 177.688C481.611 177.201 481.163 176.867 480.82 176.684C480.472 176.497 480.113 176.403 479.743 176.403C479.248 176.403 478.841 176.553 478.523 176.853C478.206 177.154 478.047 177.554 478.047 178.054C478.047 178.654 478.219 179.121 478.563 179.456C478.902 179.787 479.376 179.952 479.985 179.952L479.985 181.159C479.111 181.159 478.404 180.878 477.865 180.317C477.325 179.752 477.056 178.997 477.056 178.054C477.056 177.171 477.288 176.473 477.754 175.96C478.215 175.447 478.83 175.19 479.6 175.19C480.535 175.19 481.648 175.786 482.94 176.977L485.699 179.522L485.699 174.753L486.684 174.753ZM482.633 167.151C484.047 167.151 485.097 167.393 485.784 167.875C486.471 168.358 486.815 169.113 486.815 170.139C486.815 171.152 486.48 171.902 485.81 172.389C485.136 172.876 484.131 173.129 482.796 173.146L481.185 173.146C479.789 173.146 478.752 172.905 478.073 172.422C477.395 171.939 477.056 171.183 477.056 170.152C477.056 169.13 477.384 168.378 478.041 167.895C478.693 167.412 479.702 167.164 481.068 167.151L482.633 167.151ZM480.983 168.358C479.961 168.358 479.217 168.502 478.752 168.789C478.282 169.076 478.047 169.53 478.047 170.152C478.047 170.769 478.28 171.22 478.745 171.502C479.211 171.785 479.926 171.931 480.891 171.939L482.822 171.939C483.849 171.939 484.608 171.791 485.099 171.496C485.586 171.196 485.83 170.743 485.83 170.139C485.83 169.543 485.599 169.102 485.138 168.815C484.677 168.523 483.951 168.371 482.959 168.358L480.983 168.358ZM486.684 159.015L486.684 165.238L485.817 165.238L482.163 161.95C481.611 161.463 481.163 161.128 480.82 160.945C480.472 160.758 480.113 160.665 479.743 160.665C479.248 160.665 478.841 160.815 478.523 161.115C478.206 161.415 478.047 161.815 478.047 162.315C478.047 162.915 478.219 163.383 478.563 163.718C478.902 164.048 479.376 164.214 479.985 164.214L479.985 165.42C479.111 165.42 478.404 165.14 477.865 164.579C477.325 164.014 477.056 163.259 477.056 162.315C477.056 161.432 477.288 160.734 477.754 160.221C478.215 159.708 478.83 159.452 479.6 159.452C480.535 159.452 481.648 160.047 482.94 161.239L485.699 163.783L485.699 159.015L486.684 159.015ZM486.684 153.402L486.684 154.616L478.641 154.616L479.535 157.049L478.439 157.049L477.141 153.592L477.141 153.402L486.684 153.402Z" fill="#263238"/>
<path d="M771.306 206.154L771.306 204.895L778.031 204.895C778.94 204.895 779.651 205.169 780.164 205.717C780.678 206.26 780.934 206.986 780.934 207.895C780.934 208.839 780.693 209.574 780.21 210.1C779.727 210.627 779.051 210.89 778.181 210.89L778.181 209.637C778.725 209.637 779.149 209.489 779.453 209.194C779.758 208.893 779.91 208.461 779.91 207.895C779.91 207.378 779.747 206.96 779.421 206.643C779.095 206.321 778.638 206.158 778.051 206.154L771.306 206.154ZM780.106 198.226C780.658 198.695 780.934 199.385 780.934 200.294C780.934 201.046 780.717 201.62 780.282 202.016C779.843 202.407 779.195 202.605 778.338 202.609L773.745 202.609L773.745 201.403L778.305 201.403C779.375 201.403 779.91 200.968 779.91 200.098C779.91 199.176 779.566 198.563 778.879 198.258L773.745 198.258L773.745 197.052L780.804 197.052L780.804 198.2L780.106 198.226ZM780.804 193.533L780.804 194.74L770.784 194.74L770.784 193.533L780.804 193.533ZM779.036 188.919L773.745 187.275L773.745 185.984L781.893 188.821C783.067 189.261 783.654 189.959 783.654 190.915L783.635 191.144L783.55 191.594L782.572 191.594L782.598 191.268C782.598 190.859 782.515 190.541 782.35 190.315C782.184 190.085 781.882 189.896 781.443 189.748L780.725 189.48L773.745 191.998L773.745 190.681L779.036 188.919ZM780.804 174.753L780.804 180.976L779.936 180.976L776.283 177.688C775.731 177.201 775.283 176.867 774.939 176.684C774.591 176.497 774.233 176.403 773.863 176.403C773.367 176.403 772.96 176.553 772.643 176.853C772.326 177.154 772.167 177.554 772.167 178.054C772.167 178.654 772.339 179.121 772.682 179.456C773.021 179.787 773.495 179.952 774.104 179.952L774.104 181.159C773.23 181.159 772.523 180.878 771.984 180.317C771.445 179.752 771.175 178.997 771.175 178.054C771.175 177.171 771.408 176.473 771.873 175.96C772.334 175.447 772.95 175.19 773.719 175.19C774.654 175.19 775.768 175.786 777.059 176.977L779.819 179.522L779.819 174.753L780.804 174.753ZM776.753 167.151C778.166 167.151 779.216 167.393 779.903 167.875C780.591 168.358 780.934 169.113 780.934 170.139C780.934 171.152 780.599 171.902 779.93 172.389C779.256 172.876 778.251 173.129 776.916 173.146L775.305 173.146C773.909 173.146 772.871 172.905 772.193 172.422C771.514 171.939 771.175 171.183 771.175 170.152C771.175 169.13 771.504 168.378 772.16 167.895C772.813 167.412 773.822 167.164 775.187 167.151L776.753 167.151ZM775.102 168.358C774.08 168.358 773.337 168.502 772.871 168.789C772.402 169.076 772.167 169.53 772.167 170.152C772.167 170.769 772.399 171.22 772.865 171.502C773.33 171.785 774.046 171.931 775.011 171.939L776.942 171.939C777.968 171.939 778.727 171.791 779.219 171.496C779.706 171.196 779.949 170.743 779.949 170.139C779.949 169.543 779.719 169.102 779.258 168.815C778.797 168.523 778.07 168.371 777.079 168.358L775.102 168.358ZM780.804 159.015L780.804 165.238L779.936 165.238L776.283 161.95C775.731 161.463 775.283 161.128 774.939 160.945C774.591 160.758 774.233 160.665 773.863 160.665C773.367 160.665 772.96 160.815 772.643 161.115C772.326 161.415 772.167 161.815 772.167 162.315C772.167 162.915 772.339 163.383 772.682 163.718C773.021 164.048 773.495 164.214 774.104 164.214L774.104 165.42C773.23 165.42 772.523 165.14 771.984 164.579C771.445 164.014 771.175 163.259 771.175 162.315C771.175 161.432 771.408 160.734 771.873 160.221C772.334 159.708 772.95 159.452 773.719 159.452C774.654 159.452 775.768 160.047 777.059 161.239L779.819 163.783L779.819 159.015L780.804 159.015ZM780.804 153.402L780.804 154.616L772.76 154.616L773.654 157.049L772.558 157.049L771.26 153.592L771.26 153.402L780.804 153.402Z" fill="#263238"/>
<path d="M534.975 262.568L534.975 261.309L541.701 261.309C542.61 261.309 543.321 261.583 543.834 262.131C544.347 262.674 544.604 263.401 544.604 264.309C544.604 265.253 544.363 265.988 543.88 266.514C543.397 267.041 542.721 267.304 541.851 267.304L541.851 266.051C542.395 266.051 542.819 265.903 543.123 265.608C543.428 265.308 543.58 264.875 543.58 264.309C543.58 263.792 543.417 263.374 543.091 263.057C542.764 262.735 542.308 262.572 541.721 262.568L534.975 262.568ZM543.775 254.64C544.328 255.109 544.604 255.799 544.604 256.708C544.604 257.46 544.386 258.034 543.952 258.43C543.512 258.821 542.864 259.019 542.008 259.023L537.415 259.023L537.415 257.817L541.975 257.817C543.045 257.817 543.58 257.382 543.58 256.512C543.58 255.59 543.236 254.977 542.549 254.672L537.415 254.672L537.415 253.466L544.473 253.466L544.473 254.614L543.775 254.64ZM544.473 249.947L544.473 251.154L534.454 251.154L534.454 249.947L544.473 249.947ZM542.706 245.333L537.415 243.689L537.415 242.398L545.563 245.236C546.737 245.675 547.324 246.373 547.324 247.329L547.305 247.558L547.22 248.008L546.241 248.008L546.267 247.682C546.267 247.273 546.185 246.955 546.019 246.729C545.854 246.499 545.552 246.31 545.113 246.162L544.395 245.894L537.415 248.412L537.415 247.095L542.706 245.333ZM544.473 231.167L544.473 237.39L543.606 237.39L539.953 234.103C539.4 233.615 538.953 233.281 538.609 233.098C538.261 232.911 537.902 232.817 537.533 232.817C537.037 232.817 536.63 232.967 536.313 233.268C535.995 233.568 535.837 233.968 535.837 234.468C535.837 235.068 536.008 235.535 536.352 235.87C536.691 236.201 537.165 236.366 537.774 236.366L537.774 237.573C536.9 237.573 536.193 237.292 535.654 236.731C535.115 236.166 534.845 235.412 534.845 234.468C534.845 233.585 535.078 232.887 535.543 232.374C536.004 231.861 536.619 231.604 537.389 231.604C538.324 231.604 539.437 232.2 540.729 233.391L543.488 235.936L543.488 231.167L544.473 231.167ZM540.422 223.565C541.836 223.565 542.886 223.807 543.573 224.289C544.26 224.772 544.604 225.527 544.604 226.553C544.604 227.566 544.269 228.316 543.599 228.803C542.925 229.291 541.921 229.543 540.586 229.56L538.974 229.56C537.578 229.56 536.541 229.319 535.863 228.836C535.184 228.353 534.845 227.597 534.845 226.566C534.845 225.544 535.173 224.792 535.83 224.309C536.482 223.826 537.491 223.578 538.857 223.565L540.422 223.565ZM538.772 224.772C537.75 224.772 537.006 224.916 536.541 225.203C536.071 225.49 535.837 225.944 535.837 226.566C535.837 227.184 536.069 227.634 536.535 227.916C537 228.199 537.715 228.345 538.681 228.353L540.612 228.353C541.638 228.353 542.397 228.206 542.888 227.91C543.375 227.61 543.619 227.157 543.619 226.553C543.619 225.957 543.388 225.516 542.927 225.229C542.466 224.937 541.74 224.785 540.749 224.772L538.772 224.772ZM544.473 215.429L544.473 221.652L543.606 221.652L539.953 218.364C539.4 217.877 538.953 217.542 538.609 217.359C538.261 217.172 537.902 217.079 537.533 217.079C537.037 217.079 536.63 217.229 536.313 217.529C535.995 217.829 535.837 218.229 535.837 218.729C535.837 219.33 536.008 219.797 536.352 220.132C536.691 220.462 537.165 220.628 537.774 220.628L537.774 221.834C536.9 221.834 536.193 221.554 535.654 220.993C535.115 220.428 534.845 219.673 534.845 218.729C534.845 217.847 535.078 217.149 535.543 216.635C536.004 216.122 536.619 215.866 537.389 215.866C538.324 215.866 539.437 216.461 540.729 217.653L543.488 220.197L543.488 215.429L544.473 215.429ZM544.473 209.816L544.473 211.03L536.43 211.03L537.324 213.463L536.228 213.463L534.93 210.006L534.93 209.816L544.473 209.816Z" fill="#263238"/>
<path d="M829.095 262.568L829.095 261.309L835.821 261.309C836.73 261.309 837.441 261.583 837.954 262.131C838.467 262.674 838.723 263.401 838.723 264.309C838.723 265.253 838.482 265.988 837.999 266.514C837.517 267.041 836.84 267.304 835.971 267.304L835.971 266.051C836.514 266.051 836.938 265.903 837.243 265.608C837.547 265.308 837.699 264.875 837.699 264.309C837.699 263.792 837.536 263.374 837.21 263.057C836.884 262.735 836.427 262.572 835.84 262.568L829.095 262.568ZM837.895 254.64C838.447 255.109 838.723 255.799 838.723 256.708C838.723 257.46 838.506 258.034 838.071 258.43C837.632 258.821 836.984 259.019 836.127 259.023L831.535 259.023L831.535 257.817L836.095 257.817C837.164 257.817 837.699 257.382 837.699 256.512C837.699 255.59 837.356 254.977 836.669 254.672L831.535 254.672L831.535 253.466L838.593 253.466L838.593 254.614L837.895 254.64ZM838.593 249.947L838.593 251.154L828.573 251.154L828.573 249.947L838.593 249.947ZM836.825 245.333L831.535 243.689L831.535 242.398L839.682 245.236C840.857 245.675 841.444 246.373 841.444 247.329L841.424 247.558L841.339 248.008L840.361 248.008L840.387 247.682C840.387 247.273 840.304 246.955 840.139 246.729C839.974 246.499 839.672 246.31 839.232 246.162L838.515 245.894L831.535 248.412L831.535 247.095L836.825 245.333ZM838.593 231.167L838.593 237.39L837.725 237.39L834.072 234.103C833.52 233.615 833.072 233.281 832.729 233.098C832.381 232.911 832.022 232.817 831.652 232.817C831.156 232.817 830.75 232.967 830.432 233.268C830.115 233.568 829.956 233.968 829.956 234.468C829.956 235.068 830.128 235.535 830.471 235.87C830.811 236.201 831.285 236.366 831.894 236.366L831.894 237.573C831.019 237.573 830.313 237.292 829.773 236.731C829.234 236.166 828.965 235.412 828.965 234.468C828.965 233.585 829.197 232.887 829.663 232.374C830.124 231.861 830.739 231.604 831.509 231.604C832.444 231.604 833.557 232.2 834.849 233.391L837.608 235.936L837.608 231.167L838.593 231.167ZM834.542 223.565C835.955 223.565 837.006 223.807 837.693 224.289C838.38 224.772 838.723 225.527 838.723 226.553C838.723 227.566 838.389 228.316 837.719 228.803C837.045 229.291 836.04 229.543 834.705 229.56L833.094 229.56C831.698 229.56 830.661 229.319 829.982 228.836C829.304 228.353 828.965 227.597 828.965 226.566C828.965 225.544 829.293 224.792 829.95 224.309C830.602 223.826 831.611 223.578 832.976 223.565L834.542 223.565ZM832.892 224.772C831.87 224.772 831.126 224.916 830.661 225.203C830.191 225.49 829.956 225.944 829.956 226.566C829.956 227.184 830.189 227.634 830.654 227.916C831.119 228.199 831.835 228.345 832.8 228.353L834.731 228.353C835.758 228.353 836.516 228.206 837.008 227.91C837.495 227.61 837.738 227.157 837.738 226.553C837.738 225.957 837.508 225.516 837.047 225.229C836.586 224.937 835.86 224.785 834.868 224.772L832.892 224.772ZM838.593 215.429L838.593 221.652L837.725 221.652L834.072 218.364C833.52 217.877 833.072 217.542 832.729 217.359C832.381 217.172 832.022 217.079 831.652 217.079C831.156 217.079 830.75 217.229 830.432 217.529C830.115 217.829 829.956 218.229 829.956 218.729C829.956 219.33 830.128 219.797 830.471 220.132C830.811 220.462 831.285 220.628 831.894 220.628L831.894 221.834C831.019 221.834 830.313 221.554 829.773 220.993C829.234 220.428 828.965 219.673 828.965 218.729C828.965 217.847 829.197 217.149 829.663 216.635C830.124 216.122 830.739 215.866 831.509 215.866C832.444 215.866 833.557 216.461 834.849 217.653L837.608 220.197L837.608 215.429L838.593 215.429ZM838.593 209.816L838.593 211.03L830.55 211.03L831.443 213.463L830.348 213.463L829.049 210.006L829.049 209.816L838.593 209.816Z" fill="#263238"/>
<path d="M594.141 169.004L594.141 167.745L600.866 167.745C601.775 167.745 602.486 168.019 602.999 168.567C603.513 169.111 603.769 169.837 603.769 170.746C603.769 171.69 603.528 172.425 603.045 172.951C602.562 173.477 601.886 173.74 601.016 173.74L601.016 172.488C601.56 172.488 601.984 172.34 602.288 172.044C602.593 171.744 602.745 171.311 602.745 170.746C602.745 170.228 602.582 169.811 602.256 169.494C601.93 169.172 601.473 169.009 600.886 169.004L594.141 169.004ZM602.941 161.076C603.493 161.546 603.769 162.235 603.769 163.144C603.769 163.897 603.552 164.471 603.117 164.866C602.678 165.258 602.03 165.456 601.173 165.46L596.58 165.46L596.58 164.253L601.14 164.253C602.21 164.253 602.745 163.818 602.745 162.949C602.745 162.027 602.401 161.413 601.714 161.109L596.58 161.109L596.58 159.902L603.639 159.902L603.639 161.05L602.941 161.076ZM603.639 156.384L603.639 157.591L593.619 157.591L593.619 156.384L603.639 156.384ZM601.871 151.77L596.58 150.126L596.58 148.834L604.728 151.672C605.902 152.111 606.489 152.809 606.489 153.766L606.47 153.994L606.385 154.444L605.406 154.444L605.433 154.118C605.433 153.709 605.35 153.392 605.185 153.166C605.019 152.935 604.717 152.746 604.278 152.598L603.56 152.331L596.58 154.849L596.58 153.531L601.871 151.77ZM603.639 137.604L603.639 143.827L602.771 143.827L599.118 140.539C598.566 140.052 598.118 139.717 597.774 139.534C597.426 139.347 597.067 139.254 596.698 139.254C596.202 139.254 595.795 139.404 595.478 139.704C595.161 140.004 595.002 140.404 595.002 140.904C595.002 141.504 595.174 141.972 595.517 142.307C595.856 142.637 596.33 142.803 596.939 142.803L596.939 144.009C596.065 144.009 595.358 143.729 594.819 143.168C594.28 142.603 594.01 141.848 594.01 140.904C594.01 140.022 594.243 139.324 594.708 138.81C595.169 138.297 595.785 138.041 596.554 138.041C597.489 138.041 598.603 138.636 599.894 139.828L602.654 142.372L602.654 137.604L603.639 137.604ZM599.588 130.002C601.001 130.002 602.051 130.243 602.738 130.726C603.426 131.209 603.769 131.963 603.769 132.989C603.769 134.003 603.434 134.753 602.765 135.24C602.09 135.727 601.086 135.979 599.751 135.997L598.14 135.997C596.744 135.997 595.706 135.755 595.028 135.273C594.349 134.79 594.01 134.033 594.01 133.003C594.01 131.981 594.339 131.228 594.995 130.745C595.648 130.263 596.657 130.015 598.022 130.002L599.588 130.002ZM597.937 131.209C596.915 131.209 596.172 131.352 595.706 131.639C595.237 131.926 595.002 132.381 595.002 133.003C595.002 133.62 595.234 134.07 595.7 134.353C596.165 134.636 596.88 134.781 597.846 134.79L599.777 134.79C600.803 134.79 601.562 134.642 602.054 134.346C602.541 134.046 602.784 133.594 602.784 132.989C602.784 132.394 602.554 131.952 602.093 131.665C601.632 131.374 600.905 131.222 599.914 131.209L597.937 131.209ZM603.639 121.865L603.639 128.088L602.771 128.088L599.118 124.801C598.566 124.314 598.118 123.979 597.774 123.796C597.426 123.609 597.067 123.515 596.698 123.515C596.202 123.515 595.795 123.666 595.478 123.966C595.161 124.266 595.002 124.666 595.002 125.166C595.002 125.766 595.174 126.234 595.517 126.568C595.856 126.899 596.33 127.064 596.939 127.064L596.939 128.271C596.065 128.271 595.358 127.99 594.819 127.429C594.28 126.864 594.01 126.11 594.01 125.166C594.01 124.283 594.243 123.585 594.708 123.072C595.169 122.559 595.785 122.302 596.554 122.302C597.489 122.302 598.603 122.898 599.894 124.09L602.654 126.634L602.654 121.865L603.639 121.865ZM603.639 116.253L603.639 117.466L595.595 117.466L596.489 119.899L595.393 119.899L594.095 116.442L594.095 116.253L603.639 116.253Z" fill="#263238"/>
<path d="M888.26 169.004L888.26 167.745L894.986 167.745C895.895 167.745 896.606 168.019 897.119 168.567C897.632 169.111 897.889 169.837 897.889 170.746C897.889 171.69 897.647 172.425 897.165 172.951C896.682 173.477 896.006 173.74 895.136 173.74L895.136 172.488C895.679 172.488 896.103 172.34 896.408 172.044C896.712 171.744 896.864 171.311 896.864 170.746C896.864 170.228 896.701 169.811 896.375 169.494C896.049 169.172 895.592 169.009 895.005 169.004L888.26 169.004ZM897.06 161.076C897.612 161.546 897.889 162.235 897.889 163.144C897.889 163.897 897.671 164.471 897.236 164.866C896.797 165.258 896.149 165.456 895.292 165.46L890.7 165.46L890.7 164.253L895.26 164.253C896.33 164.253 896.864 163.818 896.864 162.949C896.864 162.027 896.521 161.413 895.834 161.109L890.7 161.109L890.7 159.902L897.758 159.902L897.758 161.05L897.06 161.076ZM897.758 156.384L897.758 157.591L887.738 157.591L887.738 156.384L897.758 156.384ZM895.99 151.77L890.7 150.126L890.7 148.834L898.848 151.672C900.022 152.111 900.609 152.809 900.609 153.766L900.589 153.994L900.505 154.444L899.526 154.444L899.552 154.118C899.552 153.709 899.469 153.392 899.304 153.166C899.139 152.935 898.837 152.746 898.397 152.598L897.68 152.331L890.7 154.849L890.7 153.531L895.99 151.77ZM897.758 137.604L897.758 143.827L896.891 143.827L893.238 140.539C892.685 140.052 892.237 139.717 891.894 139.534C891.546 139.347 891.187 139.254 890.817 139.254C890.322 139.254 889.915 139.404 889.597 139.704C889.28 140.004 889.121 140.404 889.121 140.904C889.121 141.504 889.293 141.972 889.637 142.307C889.976 142.637 890.45 142.803 891.059 142.803L891.059 144.009C890.185 144.009 889.478 143.729 888.939 143.168C888.399 142.603 888.13 141.848 888.13 140.904C888.13 140.022 888.362 139.324 888.828 138.81C889.289 138.297 889.904 138.041 890.674 138.041C891.609 138.041 892.722 138.636 894.014 139.828L896.773 142.372L896.773 137.604L897.758 137.604ZM893.707 130.002C895.121 130.002 896.171 130.243 896.858 130.726C897.545 131.209 897.889 131.963 897.889 132.989C897.889 134.003 897.554 134.753 896.884 135.24C896.21 135.727 895.205 135.979 893.87 135.997L892.259 135.997C890.863 135.997 889.826 135.755 889.147 135.273C888.469 134.79 888.13 134.033 888.13 133.003C888.13 131.981 888.458 131.228 889.115 130.745C889.767 130.263 890.776 130.015 892.142 130.002L893.707 130.002ZM892.057 131.209C891.035 131.209 890.291 131.352 889.826 131.639C889.356 131.926 889.121 132.381 889.121 133.003C889.121 133.62 889.354 134.07 889.819 134.353C890.285 134.636 891 134.781 891.965 134.79L893.896 134.79C894.923 134.79 895.682 134.642 896.173 134.346C896.66 134.046 896.904 133.594 896.904 132.989C896.904 132.394 896.673 131.952 896.212 131.665C895.751 131.374 895.025 131.222 894.033 131.209L892.057 131.209ZM897.758 121.865L897.758 128.088L896.891 128.088L893.238 124.801C892.685 124.314 892.237 123.979 891.894 123.796C891.546 123.609 891.187 123.515 890.817 123.515C890.322 123.515 889.915 123.666 889.597 123.966C889.28 124.266 889.121 124.666 889.121 125.166C889.121 125.766 889.293 126.234 889.637 126.568C889.976 126.899 890.45 127.064 891.059 127.064L891.059 128.271C890.185 128.271 889.478 127.99 888.939 127.429C888.399 126.864 888.13 126.11 888.13 125.166C888.13 124.283 888.362 123.585 888.828 123.072C889.289 122.559 889.904 122.302 890.674 122.302C891.609 122.302 892.722 122.898 894.014 124.09L896.773 126.634L896.773 121.865L897.758 121.865ZM897.758 116.253L897.758 117.466L889.715 117.466L890.609 119.899L889.513 119.899L888.215 116.442L888.215 116.253L897.758 116.253Z" fill="#263238"/>
<path d="M171.229 335.149H169.857V326.055L167.106 327.065V325.826L171.015 324.359H171.229V335.149ZM181.491 331.543H182.981V332.656H181.491V335.149H180.119V332.656H175.229V331.852L180.038 324.41H181.491V331.543ZM176.778 331.543H180.119V326.276L179.957 326.571L176.778 331.543ZM190.477 331.543H191.967V332.656H190.477V335.149H189.105V332.656H184.215V331.852L189.024 324.41H190.477V331.543ZM185.763 331.543H189.105V326.276L188.942 326.571L185.763 331.543Z" fill="#263238"/>
<path d="M230.613 334.458H229.241V325.364L226.49 326.374V325.135L230.399 323.667H230.613V334.458ZM240.469 323.711V324.869H240.218C239.156 324.889 238.31 325.204 237.681 325.813C237.051 326.423 236.687 327.281 236.589 328.388C237.155 327.739 237.927 327.414 238.905 327.414C239.839 327.414 240.584 327.744 241.14 328.402C241.701 329.061 241.981 329.912 241.981 330.954C241.981 332.061 241.678 332.946 241.074 333.61C240.474 334.274 239.667 334.606 238.654 334.606C237.627 334.606 236.793 334.212 236.154 333.425C235.515 332.634 235.195 331.616 235.195 330.372V329.848C235.195 327.871 235.615 326.362 236.456 325.319C237.302 324.272 238.558 323.736 240.225 323.711H240.469ZM238.676 328.55C238.209 328.55 237.779 328.69 237.386 328.97C236.992 329.251 236.719 329.602 236.567 330.025V330.527C236.567 331.412 236.766 332.125 237.164 332.666C237.563 333.207 238.059 333.477 238.654 333.477C239.269 333.477 239.751 333.251 240.1 332.798C240.454 332.346 240.631 331.754 240.631 331.021C240.631 330.283 240.452 329.688 240.093 329.236C239.739 328.779 239.267 328.55 238.676 328.55ZM250.613 326.522C250.613 327.058 250.47 327.535 250.185 327.952C249.905 328.37 249.523 328.697 249.042 328.933C249.602 329.174 250.045 329.526 250.369 329.988C250.699 330.45 250.863 330.974 250.863 331.559C250.863 332.489 250.549 333.229 249.919 333.779C249.295 334.33 248.471 334.606 247.448 334.606C246.416 334.606 245.587 334.33 244.963 333.779C244.343 333.224 244.033 332.484 244.033 331.559C244.033 330.979 244.191 330.455 244.505 329.988C244.825 329.521 245.265 329.167 245.826 328.926C245.349 328.69 244.973 328.363 244.697 327.945C244.422 327.527 244.284 327.053 244.284 326.522C244.284 325.617 244.574 324.899 245.154 324.368C245.735 323.837 246.499 323.571 247.448 323.571C248.392 323.571 249.155 323.837 249.735 324.368C250.32 324.899 250.613 325.617 250.613 326.522ZM249.499 331.53C249.499 330.93 249.307 330.441 248.924 330.062C248.545 329.683 248.048 329.494 247.434 329.494C246.819 329.494 246.325 329.681 245.951 330.055C245.582 330.428 245.398 330.92 245.398 331.53C245.398 332.14 245.577 332.619 245.936 332.968C246.3 333.317 246.804 333.492 247.448 333.492C248.088 333.492 248.589 333.317 248.953 332.968C249.317 332.614 249.499 332.135 249.499 331.53ZM247.448 324.692C246.912 324.692 246.477 324.86 246.143 325.194C245.813 325.523 245.649 325.973 245.649 326.544C245.649 327.09 245.811 327.532 246.135 327.871C246.465 328.206 246.903 328.373 247.448 328.373C247.994 328.373 248.429 328.206 248.754 327.871C249.083 327.532 249.248 327.09 249.248 326.544C249.248 325.998 249.078 325.553 248.739 325.209C248.4 324.864 247.97 324.692 247.448 324.692Z" fill="#263238"/>
<path d="M295.13 336.839H288.093V335.858L291.81 331.727C292.361 331.103 292.74 330.596 292.946 330.208C293.158 329.815 293.263 329.409 293.263 328.991C293.263 328.43 293.094 327.971 292.754 327.612C292.415 327.253 291.963 327.073 291.397 327.073C290.719 327.073 290.19 327.267 289.812 327.656C289.438 328.039 289.251 328.575 289.251 329.264H287.886C287.886 328.275 288.204 327.476 288.838 326.867C289.477 326.257 290.33 325.952 291.397 325.952C292.396 325.952 293.185 326.215 293.765 326.741C294.345 327.263 294.635 327.958 294.635 328.829C294.635 329.886 293.962 331.145 292.614 332.605L289.738 335.725H295.13V336.839ZM302.839 333.232H304.329V334.346H302.839V336.839H301.467V334.346H296.577V333.542L301.386 326.1H302.839V333.232ZM298.126 333.232H301.467V327.966L301.305 328.261L298.126 333.232ZM312.577 328.902C312.577 329.438 312.435 329.915 312.15 330.333C311.869 330.751 311.488 331.078 311.006 331.314C311.567 331.555 312.009 331.907 312.334 332.369C312.663 332.831 312.828 333.355 312.828 333.94C312.828 334.87 312.513 335.61 311.884 336.16C311.26 336.711 310.436 336.986 309.413 336.986C308.381 336.986 307.552 336.711 306.927 336.16C306.308 335.605 305.998 334.865 305.998 333.94C305.998 333.36 306.155 332.836 306.47 332.369C306.79 331.902 307.23 331.548 307.79 331.307C307.313 331.071 306.937 330.744 306.662 330.326C306.387 329.908 306.249 329.433 306.249 328.902C306.249 327.998 306.539 327.28 307.119 326.749C307.699 326.218 308.464 325.952 309.413 325.952C310.357 325.952 311.119 326.218 311.7 326.749C312.285 327.28 312.577 327.998 312.577 328.902ZM311.464 333.911C311.464 333.311 311.272 332.821 310.888 332.443C310.51 332.064 310.013 331.875 309.398 331.875C308.784 331.875 308.29 332.062 307.916 332.435C307.547 332.809 307.363 333.301 307.363 333.911C307.363 334.52 307.542 335 307.901 335.349C308.265 335.698 308.769 335.873 309.413 335.873C310.052 335.873 310.554 335.698 310.918 335.349C311.282 334.995 311.464 334.515 311.464 333.911ZM309.413 327.073C308.877 327.073 308.442 327.24 308.108 327.575C307.778 327.904 307.613 328.354 307.613 328.925C307.613 329.47 307.776 329.913 308.1 330.252C308.43 330.587 308.867 330.754 309.413 330.754C309.959 330.754 310.394 330.587 310.719 330.252C311.048 329.913 311.213 329.47 311.213 328.925C311.213 328.379 311.043 327.934 310.704 327.59C310.365 327.245 309.934 327.073 309.413 327.073Z" fill="#263238"/>
<path d="M357.199 332.248C356.914 332.587 356.572 332.86 356.174 333.067C355.78 333.273 355.348 333.377 354.876 333.377C354.256 333.377 353.715 333.224 353.253 332.919C352.796 332.615 352.442 332.187 352.191 331.636C351.94 331.08 351.815 330.468 351.815 329.799C351.815 329.081 351.95 328.435 352.22 327.86C352.496 327.284 352.884 326.844 353.386 326.539C353.887 326.234 354.472 326.082 355.141 326.082C356.203 326.082 357.039 326.48 357.649 327.277C358.264 328.069 358.571 329.15 358.571 330.522V330.921C358.571 333.01 358.158 334.537 357.332 335.501C356.506 336.46 355.259 336.952 353.592 336.976H353.327V335.825H353.614C354.74 335.806 355.606 335.513 356.211 334.948C356.815 334.377 357.145 333.478 357.199 332.248ZM355.097 332.248C355.554 332.248 355.975 332.108 356.358 331.828C356.747 331.547 357.029 331.201 357.206 330.788V330.242C357.206 329.347 357.012 328.619 356.624 328.059C356.235 327.498 355.743 327.218 355.148 327.218C354.549 327.218 354.067 327.449 353.703 327.911C353.339 328.368 353.157 328.973 353.157 329.726C353.157 330.458 353.332 331.063 353.681 331.54C354.035 332.012 354.507 332.248 355.097 332.248ZM366.31 326.222V327.38H366.059C364.997 327.4 364.151 327.714 363.522 328.324C362.893 328.934 362.529 329.792 362.43 330.898C362.996 330.249 363.768 329.925 364.746 329.925C365.681 329.925 366.426 330.254 366.981 330.913C367.542 331.572 367.822 332.423 367.822 333.465C367.822 334.572 367.52 335.457 366.915 336.121C366.315 336.784 365.509 337.116 364.496 337.116C363.468 337.116 362.635 336.723 361.995 335.936C361.356 335.144 361.036 334.127 361.036 332.883V332.359C361.036 330.382 361.457 328.873 362.298 327.83C363.143 326.783 364.4 326.247 366.067 326.222H366.31ZM364.518 331.061C364.051 331.061 363.62 331.201 363.227 331.481C362.834 331.761 362.561 332.113 362.408 332.536V333.037C362.408 333.923 362.607 334.636 363.006 335.176C363.404 335.717 363.901 335.988 364.496 335.988C365.11 335.988 365.592 335.762 365.941 335.309C366.295 334.857 366.472 334.264 366.472 333.532C366.472 332.794 366.293 332.199 365.934 331.747C365.58 331.289 365.108 331.061 364.518 331.061Z" fill="#263238"/>
<path d="M651.318 332.248C651.033 332.587 650.692 332.86 650.293 333.067C649.9 333.273 649.467 333.377 648.995 333.377C648.376 333.377 647.835 333.224 647.372 332.919C646.915 332.615 646.561 332.187 646.31 331.636C646.059 331.08 645.934 330.468 645.934 329.799C645.934 329.081 646.069 328.435 646.34 327.86C646.615 327.284 647.004 326.844 647.505 326.539C648.007 326.234 648.592 326.082 649.261 326.082C650.323 326.082 651.159 326.48 651.768 327.277C652.383 328.069 652.69 329.15 652.69 330.522V330.921C652.69 333.01 652.277 334.537 651.451 335.501C650.625 336.46 649.379 336.952 647.712 336.976H647.446V335.825H647.734C648.86 335.806 649.725 335.513 650.33 334.948C650.935 334.377 651.264 333.478 651.318 332.248ZM649.216 332.248C649.674 332.248 650.094 332.108 650.478 331.828C650.866 331.547 651.149 331.201 651.326 330.788V330.242C651.326 329.347 651.132 328.619 650.743 328.059C650.355 327.498 649.863 327.218 649.268 327.218C648.668 327.218 648.186 327.449 647.822 327.911C647.458 328.368 647.277 328.973 647.277 329.726C647.277 330.458 647.451 331.063 647.8 331.54C648.154 332.012 648.626 332.248 649.216 332.248ZM660.43 326.222V327.38H660.179C659.117 327.4 658.271 327.714 657.642 328.324C657.012 328.934 656.648 329.792 656.55 330.898C657.115 330.249 657.887 329.925 658.866 329.925C659.8 329.925 660.545 330.254 661.101 330.913C661.661 331.572 661.942 332.423 661.942 333.465C661.942 334.572 661.639 335.457 661.034 336.121C660.435 336.784 659.628 337.116 658.615 337.116C657.587 337.116 656.754 336.723 656.115 335.936C655.476 335.144 655.156 334.127 655.156 332.883V332.359C655.156 330.382 655.576 328.873 656.417 327.83C657.263 326.783 658.519 326.247 660.186 326.222H660.43ZM658.637 331.061C658.17 331.061 657.74 331.201 657.347 331.481C656.953 331.761 656.68 332.113 656.528 332.536V333.037C656.528 333.923 656.727 334.636 657.125 335.176C657.524 335.717 658.02 335.988 658.615 335.988C659.23 335.988 659.712 335.762 660.061 335.309C660.415 334.857 660.592 334.264 660.592 333.532C660.592 332.794 660.412 332.199 660.053 331.747C659.699 331.289 659.227 331.061 658.637 331.061Z" fill="#263238"/>
<path d="M411.344 336.694H409.972V327.6L407.221 328.61V327.371L411.13 325.903H411.344V336.694ZM421.606 333.088H423.096V334.201H421.606V336.694H420.234V334.201H415.344V333.397L420.153 325.955H421.606V333.088ZM416.893 333.088H420.234V327.821L420.072 328.116L416.893 333.088ZM430.592 333.088H432.082V334.201H430.592V336.694H429.22V334.201H424.33V333.397L429.139 325.955H430.592V333.088ZM425.878 333.088H429.22V327.821L429.057 328.116L425.878 333.088Z" fill="#263238"/>
<path d="M705.464 336.694H704.092V327.6L701.34 328.61V327.371L705.25 325.903H705.464V336.694ZM715.725 333.088H717.215V334.201H715.725V336.694H714.353V334.201H709.463V333.397L714.272 325.955H715.725V333.088ZM711.012 333.088H714.353V327.821L714.191 328.116L711.012 333.088ZM724.711 333.088H726.201V334.201H724.711V336.694H723.339V334.201H718.449V333.397L723.258 325.955H724.711V333.088ZM719.998 333.088H723.339V327.821L723.177 328.116L719.998 333.088Z" fill="#263238"/>
<path d="M473.309 334.913H471.937V325.819L469.186 326.829V325.59L473.095 324.122H473.309V334.913ZM483.165 324.166V325.324H482.914C481.852 325.344 481.006 325.659 480.377 326.269C479.748 326.878 479.384 327.736 479.285 328.843C479.851 328.194 480.623 327.869 481.601 327.869C482.536 327.869 483.281 328.199 483.836 328.857C484.397 329.516 484.677 330.367 484.677 331.41C484.677 332.516 484.375 333.401 483.77 334.065C483.17 334.729 482.364 335.061 481.351 335.061C480.323 335.061 479.489 334.667 478.85 333.88C478.211 333.089 477.891 332.071 477.891 330.827V330.303C477.891 328.326 478.312 326.817 479.153 325.774C479.998 324.727 481.255 324.191 482.922 324.166H483.165ZM481.373 329.005C480.906 329.005 480.475 329.145 480.082 329.425C479.689 329.706 479.416 330.057 479.263 330.48V330.982C479.263 331.867 479.462 332.58 479.861 333.121C480.259 333.662 480.756 333.932 481.351 333.932C481.965 333.932 482.447 333.706 482.796 333.254C483.15 332.801 483.327 332.209 483.327 331.476C483.327 330.738 483.148 330.143 482.789 329.691C482.435 329.234 481.963 329.005 481.373 329.005ZM493.309 326.977C493.309 327.513 493.166 327.99 492.881 328.408C492.601 328.826 492.22 329.153 491.738 329.389C492.298 329.63 492.741 329.981 493.065 330.443C493.395 330.906 493.56 331.429 493.56 332.014C493.56 332.944 493.245 333.684 492.616 334.235C491.991 334.785 491.167 335.061 490.145 335.061C489.112 335.061 488.283 334.785 487.659 334.235C487.039 333.679 486.73 332.939 486.73 332.014C486.73 331.434 486.887 330.91 487.202 330.443C487.521 329.976 487.961 329.622 488.522 329.381C488.045 329.145 487.669 328.818 487.393 328.4C487.118 327.982 486.98 327.508 486.98 326.977C486.98 326.072 487.27 325.354 487.851 324.823C488.431 324.292 489.196 324.026 490.145 324.026C491.089 324.026 491.851 324.292 492.431 324.823C493.016 325.354 493.309 326.072 493.309 326.977ZM492.195 331.985C492.195 331.385 492.003 330.896 491.62 330.517C491.241 330.138 490.744 329.949 490.13 329.949C489.515 329.949 489.021 330.136 488.647 330.51C488.278 330.883 488.094 331.375 488.094 331.985C488.094 332.595 488.274 333.074 488.633 333.423C488.996 333.772 489.5 333.947 490.145 333.947C490.784 333.947 491.285 333.772 491.649 333.423C492.013 333.069 492.195 332.59 492.195 331.985ZM490.145 325.147C489.609 325.147 489.173 325.315 488.839 325.649C488.51 325.978 488.345 326.428 488.345 326.999C488.345 327.545 488.507 327.987 488.832 328.326C489.161 328.661 489.599 328.828 490.145 328.828C490.69 328.828 491.126 328.661 491.45 328.326C491.78 327.987 491.944 327.545 491.944 326.999C491.944 326.453 491.775 326.008 491.435 325.664C491.096 325.32 490.666 325.147 490.145 325.147Z" fill="#263238"/>
<path d="M767.428 334.913H766.057V325.819L763.305 326.829V325.59L767.215 324.122H767.428V334.913ZM777.285 324.166V325.324H777.034C775.972 325.344 775.126 325.659 774.496 326.269C773.867 326.878 773.503 327.736 773.405 328.843C773.97 328.194 774.742 327.869 775.721 327.869C776.655 327.869 777.4 328.199 777.956 328.857C778.516 329.516 778.797 330.367 778.797 331.41C778.797 332.516 778.494 333.401 777.889 334.065C777.289 334.729 776.483 335.061 775.47 335.061C774.442 335.061 773.609 334.667 772.97 333.88C772.33 333.089 772.011 332.071 772.011 330.827V330.303C772.011 328.326 772.431 326.817 773.272 325.774C774.118 324.727 775.374 324.191 777.041 324.166H777.285ZM775.492 329.005C775.025 329.005 774.595 329.145 774.201 329.425C773.808 329.706 773.535 330.057 773.383 330.48V330.982C773.383 331.867 773.582 332.58 773.98 333.121C774.378 333.662 774.875 333.932 775.47 333.932C776.085 333.932 776.567 333.706 776.916 333.254C777.27 332.801 777.447 332.209 777.447 331.476C777.447 330.738 777.267 330.143 776.908 329.691C776.554 329.234 776.082 329.005 775.492 329.005ZM787.428 326.977C787.428 327.513 787.286 327.99 787.001 328.408C786.72 328.826 786.339 329.153 785.857 329.389C786.418 329.63 786.86 329.981 787.185 330.443C787.514 330.906 787.679 331.429 787.679 332.014C787.679 332.944 787.364 333.684 786.735 334.235C786.111 334.785 785.287 335.061 784.264 335.061C783.231 335.061 782.403 334.785 781.778 334.235C781.159 333.679 780.849 332.939 780.849 332.014C780.849 331.434 781.006 330.91 781.321 330.443C781.641 329.976 782.081 329.622 782.641 329.381C782.164 329.145 781.788 328.818 781.513 328.4C781.238 327.982 781.1 327.508 781.1 326.977C781.1 326.072 781.39 325.354 781.97 324.823C782.55 324.292 783.315 324.026 784.264 324.026C785.208 324.026 785.97 324.292 786.551 324.823C787.136 325.354 787.428 326.072 787.428 326.977ZM786.315 331.985C786.315 331.385 786.123 330.896 785.739 330.517C785.361 330.138 784.864 329.949 784.249 329.949C783.635 329.949 783.141 330.136 782.767 330.51C782.398 330.883 782.214 331.375 782.214 331.985C782.214 332.595 782.393 333.074 782.752 333.423C783.116 333.772 783.62 333.947 784.264 333.947C784.903 333.947 785.405 333.772 785.769 333.423C786.133 333.069 786.315 332.59 786.315 331.985ZM784.264 325.147C783.728 325.147 783.293 325.315 782.959 325.649C782.629 325.978 782.464 326.428 782.464 326.999C782.464 327.545 782.627 327.987 782.951 328.326C783.281 328.661 783.718 328.828 784.264 328.828C784.81 328.828 785.245 328.661 785.57 328.326C785.899 327.987 786.064 327.545 786.064 326.999C786.064 326.453 785.894 326.008 785.555 325.664C785.216 325.32 784.785 325.147 784.264 325.147Z" fill="#263238"/>
<path d="M534.685 330.498H535.71C536.354 330.488 536.861 330.318 537.23 329.989C537.598 329.659 537.783 329.214 537.783 328.654C537.783 327.395 537.156 326.766 535.902 326.766C535.312 326.766 534.84 326.935 534.486 327.275C534.137 327.609 533.962 328.054 533.962 328.61H532.598C532.598 327.759 532.907 327.053 533.527 326.493C534.151 325.927 534.943 325.644 535.902 325.644C536.915 325.644 537.709 325.912 538.284 326.448C538.86 326.984 539.147 327.729 539.147 328.683C539.147 329.15 538.995 329.603 538.69 330.04C538.39 330.478 537.98 330.805 537.458 331.021C538.048 331.208 538.503 331.518 538.823 331.951C539.147 332.384 539.31 332.912 539.31 333.537C539.31 334.5 538.995 335.265 538.366 335.831C537.736 336.396 536.917 336.679 535.909 336.679C534.901 336.679 534.08 336.406 533.446 335.86C532.816 335.314 532.502 334.594 532.502 333.699H533.874C533.874 334.264 534.058 334.717 534.427 335.056C534.796 335.395 535.29 335.565 535.909 335.565C536.568 335.565 537.072 335.393 537.421 335.049C537.771 334.704 537.945 334.21 537.945 333.566C537.945 332.942 537.753 332.462 537.37 332.128C536.986 331.793 536.433 331.621 535.71 331.612H534.685V330.498ZM548.723 336.531H541.687V335.55L545.404 331.42C545.955 330.795 546.333 330.289 546.54 329.9C546.751 329.507 546.857 329.101 546.857 328.683C546.857 328.123 546.687 327.663 546.348 327.304C546.009 326.945 545.557 326.766 544.991 326.766C544.312 326.766 543.784 326.96 543.405 327.348C543.032 327.732 542.845 328.268 542.845 328.956H541.48C541.48 327.968 541.797 327.169 542.432 326.559C543.071 325.949 543.924 325.644 544.991 325.644C545.989 325.644 546.778 325.908 547.359 326.434C547.939 326.955 548.229 327.651 548.229 328.521C548.229 329.578 547.555 330.837 546.208 332.297L543.331 335.417H548.723V336.531Z" fill="#263238"/>
<path d="M828.805 330.498H829.83C830.474 330.488 830.98 330.318 831.349 329.989C831.718 329.659 831.902 329.214 831.902 328.654C831.902 327.395 831.275 326.766 830.022 326.766C829.432 326.766 828.959 326.935 828.605 327.275C828.256 327.609 828.082 328.054 828.082 328.61H826.717C826.717 327.759 827.027 327.053 827.647 326.493C828.271 325.927 829.063 325.644 830.022 325.644C831.035 325.644 831.829 325.912 832.404 326.448C832.979 326.984 833.267 327.729 833.267 328.683C833.267 329.15 833.115 329.603 832.81 330.04C832.51 330.478 832.099 330.805 831.578 331.021C832.168 331.208 832.623 331.518 832.942 331.951C833.267 332.384 833.429 332.912 833.429 333.537C833.429 334.5 833.115 335.265 832.485 335.831C831.856 336.396 831.037 336.679 830.029 336.679C829.021 336.679 828.2 336.406 827.565 335.86C826.936 335.314 826.621 334.594 826.621 333.699H827.993C827.993 334.264 828.178 334.717 828.546 335.056C828.915 335.395 829.409 335.565 830.029 335.565C830.688 335.565 831.192 335.393 831.541 335.049C831.89 334.704 832.065 334.21 832.065 333.566C832.065 332.942 831.873 332.462 831.489 332.128C831.106 331.793 830.553 331.621 829.83 331.612H828.805V330.498ZM842.843 336.531H835.806V335.55L839.524 331.42C840.074 330.795 840.453 330.289 840.66 329.9C840.871 329.507 840.977 329.101 840.977 328.683C840.977 328.123 840.807 327.663 840.468 327.304C840.128 326.945 839.676 326.766 839.111 326.766C838.432 326.766 837.903 326.96 837.525 327.348C837.151 327.732 836.964 328.268 836.964 328.956H835.6C835.6 327.968 835.917 327.169 836.551 326.559C837.19 325.949 838.044 325.644 839.111 325.644C840.109 325.644 840.898 325.908 841.478 326.434C842.059 326.955 842.349 327.651 842.349 328.521C842.349 329.578 841.675 330.837 840.328 332.297L837.451 335.417H842.843V336.531Z" fill="#263238"/>
<path d="M594.628 335.547H587.592V334.566L591.309 330.435C591.86 329.811 592.239 329.304 592.445 328.916C592.656 328.523 592.762 328.117 592.762 327.699C592.762 327.138 592.593 326.679 592.253 326.32C591.914 325.961 591.462 325.781 590.896 325.781C590.218 325.781 589.689 325.975 589.31 326.364C588.937 326.747 588.75 327.283 588.75 327.972H587.385C587.385 326.983 587.702 326.184 588.337 325.575C588.976 324.965 589.829 324.66 590.896 324.66C591.894 324.66 592.684 324.923 593.264 325.449C593.844 325.971 594.134 326.666 594.134 327.537C594.134 328.594 593.46 329.853 592.113 331.313L589.237 334.433H594.628V335.547ZM597.204 330.162L597.75 324.808H603.253V326.069H598.908L598.584 328.997C599.11 328.687 599.707 328.532 600.376 328.532C601.355 328.532 602.132 328.857 602.707 329.506C603.282 330.15 603.57 331.023 603.57 332.124C603.57 333.231 603.27 334.104 602.67 334.743C602.075 335.377 601.242 335.694 600.17 335.694C599.221 335.694 598.446 335.431 597.846 334.905C597.246 334.379 596.904 333.651 596.821 332.722H598.112C598.195 333.337 598.414 333.801 598.768 334.116C599.122 334.426 599.589 334.581 600.17 334.581C600.804 334.581 601.301 334.364 601.659 333.932C602.023 333.499 602.205 332.901 602.205 332.139C602.205 331.421 602.009 330.846 601.615 330.413C601.227 329.976 600.708 329.757 600.059 329.757C599.464 329.757 598.997 329.887 598.657 330.148L598.296 330.443L597.204 330.162ZM610.918 324.8V325.958H610.667C609.605 325.978 608.759 326.293 608.13 326.902C607.501 327.512 607.137 328.37 607.038 329.477C607.604 328.827 608.376 328.503 609.354 328.503C610.289 328.503 611.034 328.832 611.589 329.491C612.15 330.15 612.43 331.001 612.43 332.043C612.43 333.15 612.128 334.035 611.523 334.699C610.923 335.362 610.117 335.694 609.104 335.694C608.076 335.694 607.243 335.301 606.603 334.514C605.964 333.723 605.644 332.705 605.644 331.461V330.937C605.644 328.96 606.065 327.451 606.906 326.408C607.751 325.361 609.008 324.825 610.675 324.8H610.918ZM609.126 329.639C608.659 329.639 608.228 329.779 607.835 330.059C607.442 330.34 607.169 330.691 607.016 331.114V331.616C607.016 332.501 607.215 333.214 607.614 333.755C608.012 334.295 608.509 334.566 609.104 334.566C609.718 334.566 610.2 334.34 610.549 333.887C610.903 333.435 611.08 332.842 611.08 332.11C611.08 331.372 610.901 330.777 610.542 330.325C610.188 329.867 609.716 329.639 609.126 329.639Z" fill="#263238"/>
<path d="M888.748 335.547H881.711V334.566L885.429 330.435C885.979 329.811 886.358 329.304 886.565 328.916C886.776 328.523 886.882 328.117 886.882 327.699C886.882 327.138 886.712 326.679 886.373 326.32C886.033 325.961 885.581 325.781 885.016 325.781C884.337 325.781 883.808 325.975 883.43 326.364C883.056 326.747 882.869 327.283 882.869 327.972H881.505C881.505 326.983 881.822 326.184 882.456 325.575C883.095 324.965 883.949 324.66 885.016 324.66C886.014 324.66 886.803 324.923 887.383 325.449C887.964 325.971 888.254 326.666 888.254 327.537C888.254 328.594 887.58 329.853 886.233 331.313L883.356 334.433H888.748V335.547ZM891.324 330.162L891.87 324.808H897.372V326.069H893.028L892.703 328.997C893.229 328.687 893.827 328.532 894.496 328.532C895.474 328.532 896.251 328.857 896.826 329.506C897.402 330.15 897.689 331.023 897.689 332.124C897.689 333.231 897.389 334.104 896.789 334.743C896.194 335.377 895.361 335.694 894.289 335.694C893.34 335.694 892.566 335.431 891.966 334.905C891.366 334.379 891.024 333.651 890.94 332.722H892.231C892.315 333.337 892.534 333.801 892.888 334.116C893.242 334.426 893.709 334.581 894.289 334.581C894.923 334.581 895.42 334.364 895.779 333.932C896.143 333.499 896.325 332.901 896.325 332.139C896.325 331.421 896.128 330.846 895.735 330.413C895.346 329.976 894.827 329.757 894.178 329.757C893.583 329.757 893.116 329.887 892.777 330.148L892.416 330.443L891.324 330.162ZM905.038 324.8V325.958H904.787C903.725 325.978 902.879 326.293 902.25 326.902C901.62 327.512 901.256 328.37 901.158 329.477C901.723 328.827 902.495 328.503 903.474 328.503C904.408 328.503 905.153 328.832 905.709 329.491C906.269 330.15 906.55 331.001 906.55 332.043C906.55 333.15 906.247 334.035 905.642 334.699C905.043 335.362 904.236 335.694 903.223 335.694C902.195 335.694 901.362 335.301 900.723 334.514C900.084 333.723 899.764 332.705 899.764 331.461V330.937C899.764 328.96 900.184 327.451 901.025 326.408C901.871 325.361 903.127 324.825 904.794 324.8H905.038ZM903.245 329.639C902.778 329.639 902.348 329.779 901.955 330.059C901.561 330.34 901.288 330.691 901.136 331.114V331.616C901.136 332.501 901.335 333.214 901.733 333.755C902.132 334.295 902.628 334.566 903.223 334.566C903.838 334.566 904.32 334.34 904.669 333.887C905.023 333.435 905.2 332.842 905.2 332.11C905.2 331.372 905.02 330.777 904.661 330.325C904.307 329.867 903.835 329.639 903.245 329.639Z" fill="#263238"/>
<path d="M25.2135 50.3998C23.5527 49.9225 22.3425 49.3375 21.5827 48.645C20.8297 47.9457 20.4531 47.0851 20.4531 46.0631C20.4531 44.9066 20.9137 43.9519 21.8349 43.1988C22.7627 42.439 23.9662 42.0592 25.4454 42.0592C26.454 42.0592 27.3516 42.2541 28.1383 42.6441C28.9317 43.0341 29.5435 43.572 29.9738 44.2578C30.4109 44.9436 30.6294 45.6933 30.6294 46.5069H28.6829C28.6829 45.6193 28.4005 44.9234 27.8357 44.4192C27.2709 43.9082 26.4742 43.6527 25.4454 43.6527C24.4907 43.6527 23.7444 43.8645 23.2065 44.2881C22.6753 44.7049 22.4097 45.2865 22.4097 46.0328C22.4097 46.6312 22.6619 47.1389 23.1661 47.5557C23.6771 47.9659 24.5411 48.3424 25.7581 48.6853C26.9818 49.0282 27.9366 49.4081 28.6224 49.825C29.3149 50.2351 29.8259 50.7159 30.1554 51.2672C30.4915 51.8185 30.6596 52.4674 30.6596 53.2137C30.6596 54.4038 30.1957 55.3585 29.2678 56.078C28.34 56.7907 27.0995 57.147 25.5463 57.147C24.5378 57.147 23.5964 56.9554 22.7224 56.5722C21.8483 56.1822 21.1726 55.651 20.6952 54.9786C20.2245 54.3063 19.9892 53.5431 19.9892 52.6892H21.9357C21.9357 53.5768 22.2618 54.2794 22.914 54.7971C23.5729 55.3081 24.4503 55.5636 25.5463 55.5636C26.5683 55.5636 27.3516 55.3552 27.8962 54.9383C28.4408 54.5214 28.7131 53.9533 28.7131 53.2339C28.7131 52.5144 28.461 51.9597 27.9567 51.5698C27.4525 51.1731 26.538 50.7831 25.2135 50.3998ZM35.9577 43.3904V46.0328H37.995V47.4751H35.9577V54.2424C35.9577 54.6794 36.0485 55.0089 36.23 55.2308C36.4116 55.4459 36.7209 55.5535 37.1579 55.5535C37.3731 55.5535 37.6689 55.5132 38.0454 55.4325V56.9453C37.5546 57.0798 37.0772 57.147 36.6133 57.147C35.7796 57.147 35.1509 56.8949 34.7273 56.3906C34.3037 55.8863 34.0919 55.1703 34.0919 54.2424V47.4751H32.1051V46.0328H34.0919V43.3904H35.9577ZM47.4886 56.9453C47.3811 56.7302 47.2937 56.3469 47.2264 55.7956C46.3591 56.6965 45.3236 57.147 44.1201 57.147C43.0443 57.147 42.1602 56.8445 41.4676 56.2393C40.7818 55.6275 40.4389 54.8543 40.4389 53.9197C40.4389 52.7834 40.8692 51.9026 41.7298 51.2773C42.5972 50.6453 43.8142 50.3292 45.3808 50.3292H47.1962V49.472C47.1962 48.8198 47.0012 48.3021 46.6112 47.9188C46.2212 47.5288 45.6464 47.3339 44.8866 47.3339C44.221 47.3339 43.6629 47.502 43.2124 47.8381C42.7619 48.1743 42.5367 48.5811 42.5367 49.0585H40.6608C40.6608 48.5139 40.8524 47.9894 41.2357 47.4851C41.6256 46.9741 42.1501 46.5707 42.809 46.2749C43.4746 45.979 44.2041 45.8311 44.9975 45.8311C46.2549 45.8311 47.2399 46.1471 47.9526 46.7792C48.6653 47.4045 49.0351 48.2684 49.062 49.3711V54.3937C49.062 55.3955 49.1897 56.1923 49.4452 56.7839V56.9453H47.4886ZM44.3924 55.5233C44.9774 55.5233 45.5321 55.372 46.0565 55.0694C46.581 54.7669 46.9608 54.3735 47.1962 53.8894V51.6504H45.7338C43.4477 51.6504 42.3047 52.3194 42.3047 53.6575C42.3047 54.2424 42.4997 54.6996 42.8897 55.0291C43.2796 55.3585 43.7806 55.5233 44.3924 55.5233ZM57.8295 47.707C57.5471 47.66 57.2412 47.6364 56.9117 47.6364C55.688 47.6364 54.8576 48.1575 54.4206 49.1997V56.9453H52.5548V46.0328H54.3702L54.4004 47.2935C55.0123 46.3186 55.8796 45.8311 57.0025 45.8311C57.3655 45.8311 57.6412 45.8782 57.8295 45.9723V47.707ZM63.1578 43.3904V46.0328H65.1951V47.4751H63.1578V54.2424C63.1578 54.6794 63.2486 55.0089 63.4301 55.2308C63.6117 55.4459 63.921 55.5535 64.358 55.5535C64.5732 55.5535 64.869 55.5132 65.2455 55.4325V56.9453C64.7547 57.0798 64.2773 57.147 63.8134 57.147C62.9797 57.147 62.351 56.8949 61.9274 56.3906C61.5038 55.8863 61.292 55.1703 61.292 54.2424V47.4751H59.3052V46.0328H61.292V43.3904H63.1578ZM74.6887 55.8662C73.9626 56.7201 72.8969 57.147 71.4917 57.147C70.3285 57.147 69.4409 56.8108 68.8291 56.1385C68.224 55.4594 67.918 54.4576 67.9113 53.133V46.0328H69.7771V53.0826C69.7771 54.7366 70.4495 55.5636 71.7942 55.5636C73.2196 55.5636 74.1677 55.0324 74.6383 53.9701V46.0328H76.5041V56.9453H74.7291L74.6887 55.8662ZM89.1344 51.6101C89.1344 53.2708 88.7545 54.6088 87.9947 55.6241C87.2349 56.6394 86.2062 57.147 84.9086 57.147C83.584 57.147 82.5418 56.7268 81.7821 55.8863V61.1409H79.9162V46.0328H81.6207L81.7115 47.2431C82.4712 46.3018 83.5268 45.8311 84.8783 45.8311C86.1894 45.8311 87.2249 46.3253 87.9846 47.3137C88.7511 48.3021 89.1344 49.6771 89.1344 51.4386V51.6101ZM87.2686 51.3983C87.2686 50.1679 87.0063 49.1963 86.4819 48.4836C85.9574 47.7709 85.238 47.4145 84.3236 47.4145C83.194 47.4145 82.3468 47.9155 81.7821 48.9173V54.1315C82.3401 55.1266 83.194 55.6241 84.3438 55.6241C85.238 55.6241 85.9474 55.2711 86.4718 54.5651C87.003 53.8524 87.2686 52.7968 87.2686 51.3983ZM98.4364 54.0508C98.4364 53.5465 98.2448 53.1565 97.8615 52.8809C97.485 52.5985 96.8227 52.3564 95.8747 52.1547C94.9334 51.953 94.1837 51.711 93.6256 51.4286C93.0743 51.1462 92.6641 50.81 92.3952 50.42C92.133 50.03 92.0019 49.5661 92.0019 49.0282C92.0019 48.134 92.3784 47.3776 93.1314 46.759C93.8912 46.1404 94.8594 45.8311 96.0361 45.8311C97.2732 45.8311 98.275 46.1505 99.0415 46.7892C99.8147 47.428 100.201 48.2449 100.201 49.24H98.3255C98.3255 48.729 98.1069 48.2886 97.6699 47.9188C97.2396 47.549 96.695 47.3641 96.0361 47.3641C95.357 47.3641 94.8258 47.512 94.4426 47.8079C94.0593 48.1037 93.8677 48.4903 93.8677 48.9677C93.8677 49.4182 94.0459 49.7577 94.4022 49.9863C94.7586 50.2149 95.4007 50.4335 96.3285 50.6419C97.2631 50.8503 98.0195 51.0991 98.5978 51.3882C99.176 51.6773 99.6029 52.027 99.8786 52.4371C100.161 52.8405 100.302 53.3347 100.302 53.9197C100.302 54.8946 99.9122 55.6779 99.1323 56.2696C98.3523 56.8545 97.3404 57.147 96.0966 57.147C95.2225 57.147 94.4493 56.9924 93.7769 56.6831C93.1045 56.3738 92.5767 55.9435 92.1935 55.3922C91.817 54.8341 91.6287 54.2323 91.6287 53.5869H93.4945C93.5281 54.2122 93.7769 54.7097 94.2408 55.0795C94.7115 55.4426 95.3301 55.6241 96.0966 55.6241C96.8025 55.6241 97.3673 55.4829 97.7909 55.2005C98.2212 54.9114 98.4364 54.5282 98.4364 54.0508ZM118.21 51.6101C118.21 53.2708 117.83 54.6088 117.071 55.6241C116.311 56.6394 115.282 57.147 113.985 57.147C112.66 57.147 111.618 56.7268 110.858 55.8863V61.1409H108.992V46.0328H110.697L110.787 47.2431C111.547 46.3018 112.603 45.8311 113.954 45.8311C115.265 45.8311 116.301 46.3253 117.061 47.3137C117.827 48.3021 118.21 49.6771 118.21 51.4386V51.6101ZM116.345 51.3983C116.345 50.1679 116.082 49.1963 115.558 48.4836C115.033 47.7709 114.314 47.4145 113.4 47.4145C112.27 47.4145 111.423 47.9155 110.858 48.9173V54.1315C111.416 55.1266 112.27 55.6241 113.42 55.6241C114.314 55.6241 115.023 55.2711 115.548 54.5651C116.079 53.8524 116.345 52.7968 116.345 51.3983ZM125.687 57.147C124.208 57.147 123.004 56.6629 122.076 55.6947C121.148 54.7198 120.685 53.4188 120.685 51.7916V51.4487C120.685 50.3662 120.89 49.4014 121.3 48.5542C121.717 47.7003 122.295 47.0347 123.034 46.5573C123.781 46.0732 124.588 45.8311 125.455 45.8311C126.874 45.8311 127.976 46.2984 128.763 47.233C129.55 48.1676 129.943 49.5056 129.943 51.247V52.0236H122.55C122.577 53.0994 122.89 53.9701 123.488 54.6357C124.093 55.2947 124.86 55.6241 125.788 55.6241C126.447 55.6241 127.005 55.4896 127.462 55.2207C127.919 54.9518 128.319 54.5954 128.662 54.1516L129.802 55.0392C128.887 56.4444 127.516 57.147 125.687 57.147ZM125.455 47.3641C124.702 47.3641 124.07 47.6398 123.559 48.1911C123.048 48.7357 122.732 49.5022 122.611 50.4906H128.077V50.3494C128.023 49.4014 127.768 48.6685 127.311 48.1508C126.853 47.6263 126.235 47.3641 125.455 47.3641ZM137.954 47.707C137.672 47.66 137.366 47.6364 137.036 47.6364C135.813 47.6364 134.982 48.1575 134.545 49.1997V56.9453H132.679V46.0328H134.495L134.525 47.2935C135.137 46.3186 136.004 45.8311 137.127 45.8311C137.49 45.8311 137.766 45.8782 137.954 45.9723V47.707ZM157.032 52.2858C156.851 53.839 156.276 55.0392 155.308 55.8863C154.346 56.7268 153.065 57.147 151.465 57.147C149.73 57.147 148.338 56.5251 147.29 55.2812C146.247 54.0373 145.726 52.3732 145.726 50.2889V48.8769C145.726 47.512 145.968 46.3119 146.453 45.2764C146.943 44.241 147.636 43.4476 148.53 42.8963C149.424 42.3382 150.46 42.0592 151.636 42.0592C153.196 42.0592 154.447 42.4962 155.388 43.3703C156.33 44.2376 156.878 45.4412 157.032 46.9809H155.086C154.918 45.811 154.551 44.9638 153.986 44.4393C153.428 43.9149 152.645 43.6527 151.636 43.6527C150.399 43.6527 149.428 44.1099 148.722 45.0243C148.022 45.9387 147.673 47.2397 147.673 48.9274V50.3494C147.673 51.9429 148.006 53.2103 148.671 54.1516C149.337 55.0929 150.268 55.5636 151.465 55.5636C152.541 55.5636 153.364 55.3216 153.936 54.8374C154.514 54.3466 154.897 53.4961 155.086 52.2858H157.032ZM159.466 51.3882C159.466 50.3192 159.674 49.3577 160.091 48.5038C160.515 47.6499 161.1 46.991 161.846 46.527C162.599 46.0631 163.456 45.8311 164.418 45.8311C165.904 45.8311 167.104 46.3455 168.018 47.3742C168.94 48.4029 169.4 49.7712 169.4 51.479V51.6101C169.4 52.6724 169.195 53.6272 168.785 54.4744C168.382 55.3148 167.8 55.9704 167.04 56.441C166.287 56.9117 165.42 57.147 164.438 57.147C162.959 57.147 161.759 56.6327 160.838 55.6039C159.923 54.5752 159.466 53.2137 159.466 51.5193V51.3882ZM161.342 51.6101C161.342 52.8204 161.621 53.7919 162.179 54.5248C162.744 55.2577 163.497 55.6241 164.438 55.6241C165.386 55.6241 166.139 55.2543 166.697 54.5147C167.255 53.7684 167.534 52.7262 167.534 51.3882C167.534 50.1914 167.249 49.2232 166.677 48.4836C166.112 47.7373 165.359 47.3641 164.418 47.3641C163.497 47.3641 162.754 47.7306 162.189 48.4634C161.624 49.1963 161.342 50.2452 161.342 51.6101ZM174.174 47.354C175.001 46.3388 176.077 45.8311 177.401 45.8311C179.707 45.8311 180.871 47.1322 180.891 49.7342V56.9453H179.025V49.7241C179.018 48.9375 178.837 48.3559 178.48 47.9793C178.131 47.6028 177.583 47.4145 176.836 47.4145C176.231 47.4145 175.7 47.5759 175.243 47.8986C174.786 48.2214 174.429 48.645 174.174 49.1694V56.9453H172.308V41.454H174.174V47.354ZM183.758 51.3882C183.758 50.3192 183.967 49.3577 184.384 48.5038C184.807 47.6499 185.392 46.991 186.138 46.527C186.891 46.0631 187.749 45.8311 188.71 45.8311C190.196 45.8311 191.396 46.3455 192.311 47.3742C193.232 48.4029 193.692 49.7712 193.692 51.479V51.6101C193.692 52.6724 193.487 53.6272 193.077 54.4744C192.674 55.3148 192.092 55.9704 191.332 56.441C190.579 56.9117 189.712 57.147 188.73 57.147C187.251 57.147 186.051 56.6327 185.13 55.6039C184.215 54.5752 183.758 53.2137 183.758 51.5193V51.3882ZM185.634 51.6101C185.634 52.8204 185.913 53.7919 186.471 54.5248C187.036 55.2577 187.789 55.6241 188.73 55.6241C189.678 55.6241 190.431 55.2543 190.99 54.5147C191.548 53.7684 191.827 52.7262 191.827 51.3882C191.827 50.1914 191.541 49.2232 190.969 48.4836C190.405 47.7373 189.652 47.3641 188.71 47.3641C187.789 47.3641 187.046 47.7306 186.481 48.4634C185.917 49.1963 185.634 50.2452 185.634 51.6101ZM201.875 47.707C201.593 47.66 201.287 47.6364 200.957 47.6364C199.733 47.6364 198.903 48.1575 198.466 49.1997V56.9453H196.6V46.0328H198.416L198.446 47.2935C199.058 46.3186 199.925 45.8311 201.048 45.8311C201.411 45.8311 201.687 45.8782 201.875 45.9723V47.707ZM207.203 43.3904V46.0328H209.241V47.4751H207.203V54.2424C207.203 54.6794 207.294 55.0089 207.476 55.2308C207.657 55.4459 207.966 55.5535 208.403 55.5535C208.619 55.5535 208.914 55.5132 209.291 55.4325V56.9453C208.8 57.0798 208.323 57.147 207.859 57.147C207.025 57.147 206.396 56.8949 205.973 56.3906C205.549 55.8863 205.338 55.1703 205.338 54.2424V47.4751H203.351V46.0328H205.338V43.3904H207.203Z" fill="#263238"/>
</svg>
