<svg width="477" height="272" viewBox="0 0 477 272" fill="none" xmlns="http://www.w3.org/2000/svg">
<rect x="1.05811" y="1" width="474.742" height="270.209" rx="4.69113" fill="white" stroke="#E5E5E5" stroke-width="0.938226"/>
<path d="M441.633 77.751V76.9396H439.659V70.0979H438.223L436.194 71.9948L436.732 72.5759L438.661 70.7777H438.738V76.9396H436.6V77.751H441.633ZM445.875 77.8825C447.41 77.8825 448.419 76.8519 448.419 75.3498C448.419 73.9025 447.476 72.9925 446.16 72.9925C445.228 72.9925 444.68 73.464 444.318 74.0889L444.263 74.067C444.68 72.2908 445.59 71.293 447.224 70.0979H446.04C444.812 70.8983 443.309 72.6745 443.309 74.9441C443.309 76.7642 444.285 77.8825 445.875 77.8825ZM445.864 77.0822C444.855 77.0822 444.263 76.5011 444.263 75.4704V75.3827C444.263 74.3521 444.855 73.771 445.864 73.771C446.873 73.771 447.465 74.3521 447.465 75.3827V75.4704C447.465 76.5011 446.873 77.0822 445.864 77.0822ZM452.804 77.8825C454.547 77.8825 455.457 76.9287 455.457 75.6678C455.457 74.6262 454.832 74.0231 453.911 73.771V73.6832C454.712 73.4091 455.227 72.7622 455.227 71.8851C455.227 70.7229 454.328 69.9664 452.804 69.9664C451.28 69.9664 450.381 70.7229 450.381 71.8851C450.381 72.7622 450.896 73.4091 451.696 73.6832V73.771C450.775 74.0231 450.151 74.6262 450.151 75.6678C450.151 76.9287 451.061 77.8825 452.804 77.8825ZM452.804 77.0822C451.74 77.0822 451.126 76.5778 451.126 75.7116V75.4814C451.126 74.6152 451.74 74.1108 452.804 74.1108C453.867 74.1108 454.481 74.6152 454.481 75.4814V75.7116C454.481 76.5778 453.867 77.0822 452.804 77.0822ZM452.804 73.3434C451.85 73.3434 451.335 72.9157 451.335 72.1373V71.9728C451.335 71.1944 451.85 70.7668 452.804 70.7668C453.758 70.7668 454.273 71.1944 454.273 71.9728V72.1373C454.273 72.9157 453.758 73.3434 452.804 73.3434Z" fill="#263238"/>
<path d="M420.265 100.238V99.4269H418.291V92.5852H416.855L414.827 94.4821L415.364 95.0632L417.294 93.265H417.37V99.4269H415.232V100.238H420.265ZM426.667 92.5852H422.567L422.293 96.7955L423.071 96.9052C423.389 96.5543 423.74 96.2583 424.442 96.2583C425.483 96.2583 426.042 96.8394 426.042 97.8481V97.9577C426.042 98.9664 425.483 99.5475 424.442 99.5475C423.521 99.5475 423.137 99.1419 422.742 98.5388L422.051 99.0651C422.512 99.723 423.17 100.37 424.442 100.37C426.053 100.37 427.018 99.3282 427.018 97.8371C427.018 96.3569 426.053 95.4688 424.738 95.4688C423.937 95.4688 423.532 95.7978 423.17 96.3131H423.093L423.312 93.3966H426.667V92.5852ZM431.436 100.37C433.267 100.37 434.068 98.9116 434.068 96.4118C434.068 93.9119 433.267 92.4537 431.436 92.4537C429.605 92.4537 428.805 93.9119 428.805 96.4118C428.805 98.9116 429.605 100.37 431.436 100.37ZM431.436 99.5695C430.241 99.5695 429.77 98.5169 429.77 97.0367V95.7868C429.77 94.3066 430.241 93.2541 431.436 93.2541C432.631 93.2541 433.103 94.3066 433.103 95.7868V97.0367C433.103 98.5169 432.631 99.5695 431.436 99.5695Z" fill="#263238"/>
<path d="M380.265 122.727V121.915H378.291V115.074H376.855L374.827 116.97L375.364 117.551L377.294 115.753H377.37V121.915H375.232V122.727H380.265ZM386.667 115.074H382.567L382.293 119.284L383.071 119.393C383.389 119.043 383.74 118.747 384.442 118.747C385.483 118.747 386.042 119.328 386.042 120.336V120.446C386.042 121.455 385.483 122.036 384.442 122.036C383.521 122.036 383.137 121.63 382.742 121.027L382.051 121.553C382.512 122.211 383.17 122.858 384.442 122.858C386.053 122.858 387.018 121.817 387.018 120.325C387.018 118.845 386.053 117.957 384.738 117.957C383.937 117.957 383.532 118.286 383.17 118.801H383.093L383.312 115.885H386.667V115.074ZM393.607 115.074H389.506L389.232 119.284L390.011 119.393C390.329 119.043 390.68 118.747 391.381 118.747C392.423 118.747 392.982 119.328 392.982 120.336V120.446C392.982 121.455 392.423 122.036 391.381 122.036C390.46 122.036 390.077 121.63 389.682 121.027L388.991 121.553C389.452 122.211 390.11 122.858 391.381 122.858C392.993 122.858 393.958 121.817 393.958 120.325C393.958 118.845 392.993 117.957 391.677 117.957C390.877 117.957 390.471 118.286 390.11 118.801H390.033L390.252 115.885H393.607V115.074Z" fill="#263238"/>
<path d="M250.726 145.215V143.713H251.833V142.945H250.726V137.562H249.356L246.154 142.901V143.713H249.849V145.215H250.726ZM249.794 138.274H249.849V142.945H247.02L249.794 138.274ZM255.966 145.346C257.797 145.346 258.598 143.888 258.598 141.388C258.598 138.888 257.797 137.43 255.966 137.43C254.135 137.43 253.335 138.888 253.335 141.388C253.335 143.888 254.135 145.346 255.966 145.346ZM255.966 144.546C254.771 144.546 254.3 143.493 254.3 142.013V140.763C254.3 139.283 254.771 138.231 255.966 138.231C257.161 138.231 257.633 139.283 257.633 140.763V142.013C257.633 143.493 257.161 144.546 255.966 144.546Z" fill="#263238"/>
<path d="M210.198 160.05H206.097L205.823 164.26L206.601 164.37C206.919 164.019 207.27 163.723 207.972 163.723C209.013 163.723 209.573 164.304 209.573 165.313V165.423C209.573 166.431 209.013 167.012 207.972 167.012C207.051 167.012 206.667 166.607 206.272 166.004L205.582 166.53C206.042 167.188 206.7 167.835 207.972 167.835C209.584 167.835 210.548 166.793 210.548 165.302C210.548 163.822 209.584 162.934 208.268 162.934C207.467 162.934 207.062 163.263 206.7 163.778H206.623L206.842 160.861H210.198V160.05ZM214.966 167.835C216.797 167.835 217.598 166.376 217.598 163.877C217.598 161.377 216.797 159.919 214.966 159.919C213.135 159.919 212.335 161.377 212.335 163.877C212.335 166.376 213.135 167.835 214.966 167.835ZM214.966 167.034C213.771 167.034 213.3 165.982 213.3 164.502V163.252C213.3 161.771 213.771 160.719 214.966 160.719C216.161 160.719 216.633 161.771 216.633 163.252V164.502C216.633 165.982 216.161 167.034 214.966 167.034Z" fill="#263238"/>
<path d="M163.726 190.19V188.688H164.833V187.921H163.726V182.537H162.356L159.154 187.877V188.688H162.849V190.19H163.726ZM162.794 183.25H162.849V187.921H160.02L162.794 183.25ZM171.137 182.537H167.037L166.763 186.748L167.541 186.857C167.859 186.506 168.21 186.21 168.912 186.21C169.953 186.21 170.512 186.792 170.512 187.8V187.91C170.512 188.919 169.953 189.5 168.912 189.5C167.991 189.5 167.607 189.094 167.212 188.491L166.521 189.017C166.982 189.675 167.64 190.322 168.912 190.322C170.523 190.322 171.488 189.28 171.488 187.789C171.488 186.309 170.523 185.421 169.208 185.421C168.407 185.421 168.001 185.75 167.64 186.265H167.563L167.782 183.349H171.137V182.537Z" fill="#263238"/>
<path d="M144.643 212.679L147.515 205.837V205.026H142.494V207.24H143.316V205.815H146.584L143.656 212.679H144.643ZM151.966 212.81C153.797 212.81 154.598 211.352 154.598 208.852C154.598 206.352 153.797 204.894 151.966 204.894C150.135 204.894 149.335 206.352 149.335 208.852C149.335 211.352 150.135 212.81 151.966 212.81ZM151.966 212.01C150.771 212.01 150.3 210.957 150.3 209.477V208.227C150.3 206.747 150.771 205.694 151.966 205.694C153.161 205.694 153.633 206.747 153.633 208.227V209.477C153.633 210.957 153.161 212.01 151.966 212.01Z" fill="#263238"/>
<path d="M128.766 230.759V231.56H129.665C130.739 231.56 131.309 232.075 131.309 232.974V233.062C131.309 233.961 130.739 234.476 129.665 234.476C128.733 234.476 128.283 234.071 127.889 233.468L127.198 233.994C127.669 234.652 128.349 235.299 129.676 235.299C131.233 235.299 132.274 234.389 132.274 233.073C132.274 231.922 131.485 231.308 130.663 231.143V231.099C131.474 230.891 132.132 230.299 132.132 229.312C132.132 228.073 131.101 227.382 129.807 227.382C128.579 227.382 127.911 228.018 127.527 228.632L128.207 229.159C128.525 228.577 128.996 228.205 129.785 228.205C130.597 228.205 131.156 228.61 131.156 229.411V229.488C131.156 230.222 130.63 230.759 129.599 230.759H128.766ZM139.137 227.514H135.037L134.763 231.724L135.541 231.834C135.859 231.483 136.21 231.187 136.912 231.187C137.953 231.187 138.512 231.768 138.512 232.777V232.886C138.512 233.895 137.953 234.476 136.912 234.476C135.991 234.476 135.607 234.071 135.212 233.468L134.521 233.994C134.982 234.652 135.64 235.299 136.912 235.299C138.523 235.299 139.488 234.257 139.488 232.766C139.488 231.286 138.523 230.398 137.208 230.398C136.407 230.398 136.001 230.726 135.64 231.242H135.563L135.782 228.325H139.137V227.514Z" fill="#263238"/>
<rect x="23" y="62" width="398.226" height="22.4881" fill="#855CF8"/>
<path d="M365.594 74.3748H367.427L369.124 77.748H370.193L368.394 74.2849C369.417 74.0488 369.968 73.2729 369.968 72.126C369.968 70.698 369.147 69.8997 367.775 69.8997H364.649V77.748H365.594V74.3748ZM365.594 73.5653V70.7318H367.775C368.517 70.7318 368.956 71.1366 368.956 71.8562V72.4409C368.956 73.1605 368.517 73.5653 367.775 73.5653H365.594ZM374.143 77.883C375.234 77.883 376.066 77.3433 376.437 76.5562L375.796 76.0952C375.492 76.7361 374.93 77.0959 374.199 77.0959C373.12 77.0959 372.479 76.3425 372.479 75.3418V75.072H376.65V74.6447C376.65 73.0031 375.695 71.8112 374.143 71.8112C372.569 71.8112 371.534 73.0031 371.534 74.8471C371.534 76.6911 372.569 77.883 374.143 77.883ZM374.143 72.5645C375.065 72.5645 375.683 73.2504 375.683 74.2736V74.3973H372.479V74.3186C372.479 73.3067 373.165 72.5645 374.143 72.5645ZM380.25 77.883C381.577 77.883 382.398 77.1971 382.398 76.0727C382.398 75.1957 381.903 74.6334 380.621 74.4423L380.172 74.3748C379.452 74.2624 379.058 74.0375 379.058 73.4753C379.058 72.9244 379.452 72.5758 380.194 72.5758C380.936 72.5758 381.431 72.9244 381.69 73.2842L382.286 72.7445C381.813 72.1598 381.195 71.8112 380.262 71.8112C379.081 71.8112 378.193 72.3734 378.193 73.5203C378.193 74.5997 378.991 75.0382 380.059 75.1957L380.52 75.2631C381.285 75.3756 381.532 75.7241 381.532 76.1739C381.532 76.7698 381.082 77.1184 380.318 77.1184C379.587 77.1184 379.047 76.7923 378.597 76.2301L377.957 76.7473C378.474 77.4332 379.182 77.883 380.25 77.883ZM386.554 77.883C388.106 77.883 389.174 76.6911 389.174 74.8471C389.174 73.0031 388.106 71.8112 386.554 71.8112C385.003 71.8112 383.934 73.0031 383.934 74.8471C383.934 76.6911 385.003 77.883 386.554 77.883ZM386.554 77.0846C385.587 77.0846 384.901 76.4887 384.901 75.2631V74.4311C384.901 73.2055 385.587 72.6095 386.554 72.6095C387.521 72.6095 388.207 73.2055 388.207 74.4311V75.2631C388.207 76.4887 387.521 77.0846 386.554 77.0846ZM391.928 77.748V73.7227C391.928 72.9806 392.625 72.6208 393.344 72.6208C394.21 72.6208 394.66 73.1492 394.66 74.1837V77.748H395.56V74.0263C395.56 72.6208 394.806 71.8112 393.614 71.8112C392.749 71.8112 392.254 72.2385 391.973 72.8906H391.928V71.9461H391.028V77.748H391.928ZM399.975 77.883C401.066 77.883 401.898 77.3433 402.269 76.5562L401.628 76.0952C401.324 76.7361 400.762 77.0959 400.031 77.0959C398.952 77.0959 398.311 76.3425 398.311 75.3418V75.072H402.482V74.6447C402.482 73.0031 401.527 71.8112 399.975 71.8112C398.401 71.8112 397.366 73.0031 397.366 74.8471C397.366 76.6911 398.401 77.883 399.975 77.883ZM399.975 72.5645C400.897 72.5645 401.515 73.2504 401.515 74.2736V74.3973H398.311V74.3186C398.311 73.3067 398.997 72.5645 399.975 72.5645ZM406.498 77.883C407.6 77.883 408.354 77.3433 408.725 76.5112L408.073 76.0727C407.758 76.7361 407.229 77.0846 406.498 77.0846C405.43 77.0846 404.879 76.3538 404.879 75.3418V74.3523C404.879 73.3404 405.43 72.6095 406.498 72.6095C407.207 72.6095 407.701 72.9581 407.915 73.554L408.668 73.1717C408.331 72.3734 407.645 71.8112 406.498 71.8112C404.868 71.8112 403.912 72.9918 403.912 74.8471C403.912 76.7024 404.868 77.883 406.498 77.883ZM412.776 77.748V76.961H411.595V72.7332H412.865V71.9461H411.595V70.3382H410.785V71.4177C410.785 71.8112 410.662 71.9461 410.279 71.9461H409.74V72.7332H410.695V76.7923C410.695 77.3545 411.033 77.748 411.651 77.748H412.776Z" fill="white"/>
<g opacity="0.8">
<rect x="23" y="84.4883" width="380.423" height="22.4881" fill="#855CF8"/>
<path d="M347.791 96.8631H349.624L351.321 100.236H352.39L350.59 96.7732C351.614 96.537 352.165 95.7612 352.165 94.6143C352.165 93.1863 351.344 92.388 349.972 92.388H346.846V100.236H347.791V96.8631ZM347.791 96.0535V93.22H349.972C350.714 93.22 351.153 93.6248 351.153 94.3445V94.9291C351.153 95.6488 350.714 96.0535 349.972 96.0535H347.791ZM356.34 100.371C357.431 100.371 358.263 99.8315 358.634 99.0445L357.993 98.5835C357.689 99.2244 357.127 99.5842 356.396 99.5842C355.317 99.5842 354.676 98.8308 354.676 97.8301V97.5602H358.847V97.133C358.847 95.4913 357.892 94.2995 356.34 94.2995C354.766 94.2995 353.731 95.4913 353.731 97.3354C353.731 99.1794 354.766 100.371 356.34 100.371ZM356.34 95.0528C357.262 95.0528 357.88 95.7387 357.88 96.7619V96.8856H354.676V96.8069C354.676 95.7949 355.362 95.0528 356.34 95.0528ZM362.447 100.371C363.774 100.371 364.595 99.6854 364.595 98.561C364.595 97.6839 364.1 97.1217 362.818 96.9306L362.369 96.8631C361.649 96.7507 361.255 96.5258 361.255 95.9636C361.255 95.4126 361.649 95.0641 362.391 95.0641C363.133 95.0641 363.628 95.4126 363.887 95.7724L364.482 95.2327C364.01 94.648 363.392 94.2995 362.459 94.2995C361.278 94.2995 360.39 94.8617 360.39 96.0086C360.39 97.088 361.188 97.5265 362.256 97.6839L362.717 97.7514C363.482 97.8638 363.729 98.2124 363.729 98.6622C363.729 99.2581 363.279 99.6067 362.515 99.6067C361.784 99.6067 361.244 99.2806 360.794 98.7184L360.154 99.2356C360.671 99.9215 361.379 100.371 362.447 100.371ZM368.751 100.371C370.303 100.371 371.371 99.1794 371.371 97.3354C371.371 95.4913 370.303 94.2995 368.751 94.2995C367.199 94.2995 366.131 95.4913 366.131 97.3354C366.131 99.1794 367.199 100.371 368.751 100.371ZM368.751 99.5729C367.784 99.5729 367.098 98.977 367.098 97.7514V96.9193C367.098 95.6937 367.784 95.0978 368.751 95.0978C369.718 95.0978 370.404 95.6937 370.404 96.9193V97.7514C370.404 98.977 369.718 99.5729 368.751 99.5729ZM374.125 100.236V96.211C374.125 95.4689 374.822 95.109 375.541 95.109C376.407 95.109 376.857 95.6375 376.857 96.672V100.236H377.756V96.5146C377.756 95.109 377.003 94.2995 375.811 94.2995C374.945 94.2995 374.451 94.7268 374.17 95.3789H374.125V94.4344H373.225V100.236H374.125ZM382.172 100.371C383.263 100.371 384.095 99.8315 384.466 99.0445L383.825 98.5835C383.521 99.2244 382.959 99.5842 382.228 99.5842C381.149 99.5842 380.508 98.8308 380.508 97.8301V97.5602H384.679V97.133C384.679 95.4913 383.724 94.2995 382.172 94.2995C380.598 94.2995 379.563 95.4913 379.563 97.3354C379.563 99.1794 380.598 100.371 382.172 100.371ZM382.172 95.0528C383.094 95.0528 383.712 95.7387 383.712 96.7619V96.8856H380.508V96.8069C380.508 95.7949 381.194 95.0528 382.172 95.0528ZM388.695 100.371C389.797 100.371 390.551 99.8315 390.922 98.9995L390.269 98.561C389.955 99.2244 389.426 99.5729 388.695 99.5729C387.627 99.5729 387.076 98.8421 387.076 97.8301V96.8406C387.076 95.8287 387.627 95.0978 388.695 95.0978C389.404 95.0978 389.898 95.4464 390.112 96.0423L390.865 95.66C390.528 94.8617 389.842 94.2995 388.695 94.2995C387.065 94.2995 386.109 95.4801 386.109 97.3354C386.109 99.1906 387.065 100.371 388.695 100.371ZM394.972 100.236V99.4492H393.792V95.2215H395.062V94.4344H393.792V92.8265H392.982V93.9059C392.982 94.2995 392.859 94.4344 392.476 94.4344H391.937V95.2215H392.892V99.2806C392.892 99.8428 393.23 100.236 393.848 100.236H394.972Z" fill="white"/>
</g>
<g opacity="0.64">
<rect x="23" y="106.977" width="339.195" height="22.4881" fill="#855CF8"/>
<path d="M306.563 119.351H308.395L310.093 122.725H311.161L309.362 119.261C310.386 119.025 310.937 118.249 310.937 117.103C310.937 115.675 310.116 114.876 308.744 114.876H305.618V122.725H306.563V119.351ZM306.563 118.542V115.708H308.744C309.486 115.708 309.925 116.113 309.925 116.833V117.417C309.925 118.137 309.486 118.542 308.744 118.542H306.563ZM315.112 122.86C316.202 122.86 317.035 122.32 317.406 121.533L316.765 121.072C316.461 121.713 315.899 122.072 315.168 122.072C314.089 122.072 313.448 121.319 313.448 120.318V120.049H317.619V119.621C317.619 117.98 316.663 116.788 315.112 116.788C313.538 116.788 312.503 117.98 312.503 119.824C312.503 121.668 313.538 122.86 315.112 122.86ZM315.112 117.541C316.034 117.541 316.652 118.227 316.652 119.25V119.374H313.448V119.295C313.448 118.283 314.134 117.541 315.112 117.541ZM321.219 122.86C322.546 122.86 323.367 122.174 323.367 121.049C323.367 120.172 322.872 119.61 321.59 119.419L321.14 119.351C320.421 119.239 320.027 119.014 320.027 118.452C320.027 117.901 320.421 117.552 321.163 117.552C321.905 117.552 322.4 117.901 322.658 118.261L323.254 117.721C322.782 117.136 322.164 116.788 321.23 116.788C320.05 116.788 319.162 117.35 319.162 118.497C319.162 119.576 319.96 120.015 321.028 120.172L321.489 120.24C322.254 120.352 322.501 120.701 322.501 121.15C322.501 121.746 322.051 122.095 321.287 122.095C320.556 122.095 320.016 121.769 319.566 121.207L318.925 121.724C319.443 122.41 320.151 122.86 321.219 122.86ZM327.523 122.86C329.075 122.86 330.143 121.668 330.143 119.824C330.143 117.98 329.075 116.788 327.523 116.788C325.971 116.788 324.903 117.98 324.903 119.824C324.903 121.668 325.971 122.86 327.523 122.86ZM327.523 122.061C326.556 122.061 325.87 121.465 325.87 120.24V119.408C325.87 118.182 326.556 117.586 327.523 117.586C328.49 117.586 329.176 118.182 329.176 119.408V120.24C329.176 121.465 328.49 122.061 327.523 122.061ZM332.897 122.725V118.699C332.897 117.957 333.594 117.597 334.313 117.597C335.179 117.597 335.629 118.126 335.629 119.16V122.725H336.528V119.003C336.528 117.597 335.775 116.788 334.583 116.788C333.717 116.788 333.223 117.215 332.942 117.867H332.897V116.923H331.997V122.725H332.897ZM340.944 122.86C342.034 122.86 342.867 122.32 343.238 121.533L342.597 121.072C342.293 121.713 341.731 122.072 341 122.072C339.921 122.072 339.28 121.319 339.28 120.318V120.049H343.451V119.621C343.451 117.98 342.495 116.788 340.944 116.788C339.37 116.788 338.335 117.98 338.335 119.824C338.335 121.668 339.37 122.86 340.944 122.86ZM340.944 117.541C341.866 117.541 342.484 118.227 342.484 119.25V119.374H339.28V119.295C339.28 118.283 339.966 117.541 340.944 117.541ZM347.467 122.86C348.569 122.86 349.322 122.32 349.694 121.488L349.041 121.049C348.727 121.713 348.198 122.061 347.467 122.061C346.399 122.061 345.848 121.33 345.848 120.318V119.329C345.848 118.317 346.399 117.586 347.467 117.586C348.176 117.586 348.67 117.935 348.884 118.531L349.637 118.148C349.3 117.35 348.614 116.788 347.467 116.788C345.837 116.788 344.881 117.968 344.881 119.824C344.881 121.679 345.837 122.86 347.467 122.86ZM353.744 122.725V121.938H352.564V117.71H353.834V116.923H352.564V115.315H351.754V116.394C351.754 116.788 351.63 116.923 351.248 116.923H350.708V117.71H351.664V121.769C351.664 122.331 352.001 122.725 352.62 122.725H353.744Z" fill="white"/>
</g>
<g opacity="0.56">
<rect x="23" y="129.464" width="215.511" height="22.4881" fill="#855CF8"/>
<path d="M182.878 141.839H184.711L186.409 145.212H187.477L185.678 141.749C186.701 141.513 187.252 140.737 187.252 139.59C187.252 138.162 186.431 137.364 185.06 137.364H181.934V145.212H182.878V141.839ZM182.878 141.029V138.196H185.06C185.802 138.196 186.24 138.6 186.24 139.32V139.905C186.24 140.624 185.802 141.029 185.06 141.029H182.878ZM191.427 145.347C192.518 145.347 193.35 144.807 193.721 144.02L193.08 143.559C192.777 144.2 192.215 144.56 191.484 144.56C190.404 144.56 189.763 143.806 189.763 142.806V142.536H193.935V142.109C193.935 140.467 192.979 139.275 191.427 139.275C189.853 139.275 188.819 140.467 188.819 142.311C188.819 144.155 189.853 145.347 191.427 145.347ZM191.427 140.028C192.349 140.028 192.968 140.714 192.968 141.738V141.861H189.763V141.782C189.763 140.771 190.449 140.028 191.427 140.028ZM197.535 145.347C198.862 145.347 199.682 144.661 199.682 143.537C199.682 142.66 199.188 142.097 197.906 141.906L197.456 141.839C196.736 141.726 196.343 141.501 196.343 140.939C196.343 140.388 196.736 140.04 197.479 140.04C198.221 140.04 198.715 140.388 198.974 140.748L199.57 140.208C199.098 139.624 198.479 139.275 197.546 139.275C196.365 139.275 195.477 139.837 195.477 140.984C195.477 142.064 196.275 142.502 197.344 142.66L197.805 142.727C198.569 142.839 198.817 143.188 198.817 143.638C198.817 144.234 198.367 144.582 197.602 144.582C196.871 144.582 196.332 144.256 195.882 143.694L195.241 144.211C195.758 144.897 196.467 145.347 197.535 145.347ZM203.839 145.347C205.39 145.347 206.458 144.155 206.458 142.311C206.458 140.467 205.39 139.275 203.839 139.275C202.287 139.275 201.219 140.467 201.219 142.311C201.219 144.155 202.287 145.347 203.839 145.347ZM203.839 144.549C202.872 144.549 202.186 143.953 202.186 142.727V141.895C202.186 140.669 202.872 140.073 203.839 140.073C204.806 140.073 205.491 140.669 205.491 141.895V142.727C205.491 143.953 204.806 144.549 203.839 144.549ZM209.212 145.212V141.187C209.212 140.444 209.909 140.085 210.629 140.085C211.495 140.085 211.944 140.613 211.944 141.648V145.212H212.844V141.49C212.844 140.085 212.091 139.275 210.899 139.275C210.033 139.275 209.538 139.702 209.257 140.354H209.212V139.41H208.313V145.212H209.212ZM217.259 145.347C218.35 145.347 219.182 144.807 219.553 144.02L218.912 143.559C218.609 144.2 218.047 144.56 217.316 144.56C216.236 144.56 215.595 143.806 215.595 142.806V142.536H219.767V142.109C219.767 140.467 218.811 139.275 217.259 139.275C215.685 139.275 214.651 140.467 214.651 142.311C214.651 144.155 215.685 145.347 217.259 145.347ZM217.259 140.028C218.181 140.028 218.8 140.714 218.8 141.738V141.861H215.595V141.782C215.595 140.771 216.281 140.028 217.259 140.028ZM223.783 145.347C224.885 145.347 225.638 144.807 226.009 143.975L225.357 143.537C225.042 144.2 224.514 144.549 223.783 144.549C222.715 144.549 222.164 143.818 222.164 142.806V141.816C222.164 140.804 222.715 140.073 223.783 140.073C224.491 140.073 224.986 140.422 225.2 141.018L225.953 140.636C225.616 139.837 224.93 139.275 223.783 139.275C222.152 139.275 221.197 140.456 221.197 142.311C221.197 144.166 222.152 145.347 223.783 145.347ZM230.06 145.212V144.425H228.879V140.197H230.15V139.41H228.879V137.802H228.07V138.882C228.07 139.275 227.946 139.41 227.564 139.41H227.024V140.197H227.98V144.256C227.98 144.818 228.317 145.212 228.936 145.212H230.06Z" fill="white"/>
</g>
<g opacity="0.48">
<rect x="23" y="151.952" width="166.787" height="22.4881" fill="#855CF8"/>
<path d="M134.154 164.327H135.987L137.685 167.7H138.753L136.954 164.237C137.977 164.001 138.528 163.225 138.528 162.078C138.528 160.65 137.707 159.852 136.335 159.852H133.21V167.7H134.154V164.327ZM134.154 163.517V160.684H136.335C137.077 160.684 137.516 161.089 137.516 161.808V162.393C137.516 163.113 137.077 163.517 136.335 163.517H134.154ZM142.703 167.835C143.794 167.835 144.626 167.295 144.997 166.508L144.356 166.047C144.053 166.688 143.49 167.048 142.759 167.048C141.68 167.048 141.039 166.295 141.039 165.294V165.024H145.211V164.597C145.211 162.955 144.255 161.763 142.703 161.763C141.129 161.763 140.095 162.955 140.095 164.799C140.095 166.643 141.129 167.835 142.703 167.835ZM142.703 162.517C143.625 162.517 144.244 163.203 144.244 164.226V164.349H141.039V164.271C141.039 163.259 141.725 162.517 142.703 162.517ZM148.811 167.835C150.137 167.835 150.958 167.149 150.958 166.025C150.958 165.148 150.463 164.586 149.182 164.394L148.732 164.327C148.012 164.215 147.619 163.99 147.619 163.427C147.619 162.877 148.012 162.528 148.754 162.528C149.496 162.528 149.991 162.877 150.25 163.236L150.846 162.697C150.374 162.112 149.755 161.763 148.822 161.763C147.641 161.763 146.753 162.326 146.753 163.472C146.753 164.552 147.551 164.99 148.619 165.148L149.08 165.215C149.845 165.328 150.092 165.676 150.092 166.126C150.092 166.722 149.643 167.071 148.878 167.071C148.147 167.071 147.607 166.744 147.158 166.182L146.517 166.699C147.034 167.385 147.742 167.835 148.811 167.835ZM155.114 167.835C156.666 167.835 157.734 166.643 157.734 164.799C157.734 162.955 156.666 161.763 155.114 161.763C153.563 161.763 152.495 162.955 152.495 164.799C152.495 166.643 153.563 167.835 155.114 167.835ZM155.114 167.037C154.147 167.037 153.462 166.441 153.462 165.215V164.383C153.462 163.158 154.147 162.562 155.114 162.562C156.081 162.562 156.767 163.158 156.767 164.383V165.215C156.767 166.441 156.081 167.037 155.114 167.037ZM160.488 167.7V163.675C160.488 162.933 161.185 162.573 161.905 162.573C162.771 162.573 163.22 163.101 163.22 164.136V167.7H164.12V163.978C164.12 162.573 163.366 161.763 162.175 161.763C161.309 161.763 160.814 162.191 160.533 162.843H160.488V161.898H159.588V167.7H160.488ZM168.535 167.835C169.626 167.835 170.458 167.295 170.829 166.508L170.188 166.047C169.885 166.688 169.322 167.048 168.591 167.048C167.512 167.048 166.871 166.295 166.871 165.294V165.024H171.043V164.597C171.043 162.955 170.087 161.763 168.535 161.763C166.961 161.763 165.927 162.955 165.927 164.799C165.927 166.643 166.961 167.835 168.535 167.835ZM168.535 162.517C169.457 162.517 170.076 163.203 170.076 164.226V164.349H166.871V164.271C166.871 163.259 167.557 162.517 168.535 162.517ZM175.059 167.835C176.161 167.835 176.914 167.295 177.285 166.463L176.633 166.025C176.318 166.688 175.789 167.037 175.059 167.037C173.99 167.037 173.439 166.306 173.439 165.294V164.304C173.439 163.293 173.99 162.562 175.059 162.562C175.767 162.562 176.262 162.91 176.475 163.506L177.229 163.124C176.891 162.326 176.206 161.763 175.059 161.763C173.428 161.763 172.472 162.944 172.472 164.799C172.472 166.654 173.428 167.835 175.059 167.835ZM181.336 167.7V166.913H180.155V162.685H181.426V161.898H180.155V160.29H179.346V161.37C179.346 161.763 179.222 161.898 178.84 161.898H178.3V162.685H179.256V166.744C179.256 167.307 179.593 167.7 180.211 167.7H181.336Z" fill="white"/>
</g>
<g opacity="0.4">
<rect x="23" y="174.44" width="126.495" height="22.4881" fill="#855CF8"/>
<path d="M93.8629 186.815H95.6957L97.3935 190.188H98.4617L96.6627 186.725C97.6859 186.489 98.2368 185.713 98.2368 184.566C98.2368 183.138 97.416 182.34 96.0443 182.34H92.9184V190.188H93.8629V186.815ZM93.8629 186.006V183.172H96.0443C96.7864 183.172 97.2249 183.577 97.2249 184.297V184.881C97.2249 185.601 96.7864 186.006 96.0443 186.006H93.8629ZM102.412 190.323C103.503 190.323 104.335 189.784 104.706 188.997L104.065 188.536C103.761 189.177 103.199 189.536 102.468 189.536C101.389 189.536 100.748 188.783 100.748 187.782V187.512H104.92V187.085C104.92 185.443 103.964 184.252 102.412 184.252C100.838 184.252 99.8035 185.443 99.8035 187.288C99.8035 189.132 100.838 190.323 102.412 190.323ZM102.412 185.005C103.334 185.005 103.953 185.691 103.953 186.714V186.838H100.748V186.759C100.748 185.747 101.434 185.005 102.412 185.005ZM108.519 190.323C109.846 190.323 110.667 189.638 110.667 188.513C110.667 187.636 110.172 187.074 108.891 186.883L108.441 186.815C107.721 186.703 107.328 186.478 107.328 185.916C107.328 185.365 107.721 185.016 108.463 185.016C109.205 185.016 109.7 185.365 109.959 185.725L110.555 185.185C110.082 184.6 109.464 184.252 108.531 184.252C107.35 184.252 106.462 184.814 106.462 185.961C106.462 187.04 107.26 187.479 108.328 187.636L108.789 187.704C109.554 187.816 109.801 188.165 109.801 188.614C109.801 189.21 109.352 189.559 108.587 189.559C107.856 189.559 107.316 189.233 106.867 188.671L106.226 189.188C106.743 189.874 107.451 190.323 108.519 190.323ZM114.823 190.323C116.375 190.323 117.443 189.132 117.443 187.288C117.443 185.443 116.375 184.252 114.823 184.252C113.272 184.252 112.203 185.443 112.203 187.288C112.203 189.132 113.272 190.323 114.823 190.323ZM114.823 189.525C113.856 189.525 113.17 188.929 113.17 187.704V186.871C113.17 185.646 113.856 185.05 114.823 185.05C115.79 185.05 116.476 185.646 116.476 186.871V187.704C116.476 188.929 115.79 189.525 114.823 189.525ZM120.197 190.188V186.163C120.197 185.421 120.894 185.061 121.614 185.061C122.479 185.061 122.929 185.59 122.929 186.624V190.188H123.829V186.467C123.829 185.061 123.075 184.252 121.883 184.252C121.018 184.252 120.523 184.679 120.242 185.331H120.197V184.387H119.297V190.188H120.197ZM128.244 190.323C129.335 190.323 130.167 189.784 130.538 188.997L129.897 188.536C129.593 189.177 129.031 189.536 128.3 189.536C127.221 189.536 126.58 188.783 126.58 187.782V187.512H130.752V187.085C130.752 185.443 129.796 184.252 128.244 184.252C126.67 184.252 125.636 185.443 125.636 187.288C125.636 189.132 126.67 190.323 128.244 190.323ZM128.244 185.005C129.166 185.005 129.785 185.691 129.785 186.714V186.838H126.58V186.759C126.58 185.747 127.266 185.005 128.244 185.005ZM134.767 190.323C135.869 190.323 136.623 189.784 136.994 188.952L136.342 188.513C136.027 189.177 135.498 189.525 134.767 189.525C133.699 189.525 133.148 188.794 133.148 187.782V186.793C133.148 185.781 133.699 185.05 134.767 185.05C135.476 185.05 135.971 185.399 136.184 185.994L136.938 185.612C136.6 184.814 135.914 184.252 134.767 184.252C133.137 184.252 132.181 185.432 132.181 187.288C132.181 189.143 133.137 190.323 134.767 190.323ZM141.045 190.188V189.401H139.864V185.174H141.135V184.387H139.864V182.779H139.054V183.858C139.054 184.252 138.931 184.387 138.548 184.387H138.009V185.174H138.964V189.233C138.964 189.795 139.302 190.188 139.92 190.188H141.045Z" fill="white"/>
</g>
<g opacity="0.16">
<rect x="23" y="196.929" width="111.503" height="22.4881" fill="#263238"/>
</g>
<path d="M78.8709 209.304H80.7036L82.4015 212.677H83.4697L81.6706 209.214C82.6938 208.977 83.2448 208.202 83.2448 207.055C83.2448 205.627 82.424 204.828 81.0522 204.828H77.9264V212.677H78.8709V209.304ZM78.8709 208.494V205.66H81.0522C81.7943 205.66 82.2328 206.065 82.2328 206.785V207.37C82.2328 208.089 81.7943 208.494 81.0522 208.494H78.8709ZM87.4201 212.812C88.5108 212.812 89.3428 212.272 89.7139 211.485L89.073 211.024C88.7694 211.665 88.2072 212.025 87.4763 212.025C86.3969 212.025 85.756 211.271 85.756 210.271V210.001H89.9275V209.573C89.9275 207.932 88.9718 206.74 87.4201 206.74C85.8459 206.74 84.8115 207.932 84.8115 209.776C84.8115 211.62 85.8459 212.812 87.4201 212.812ZM87.4201 207.493C88.3421 207.493 88.9605 208.179 88.9605 209.202V209.326H85.756V209.247C85.756 208.235 86.4419 207.493 87.4201 207.493ZM93.5274 212.812C94.8542 212.812 95.675 212.126 95.675 211.001C95.675 210.124 95.1803 209.562 93.8985 209.371L93.4487 209.304C92.7291 209.191 92.3355 208.966 92.3355 208.404C92.3355 207.853 92.7291 207.505 93.4712 207.505C94.2133 207.505 94.708 207.853 94.9666 208.213L95.5626 207.673C95.0903 207.088 94.4719 206.74 93.5387 206.74C92.358 206.74 91.4698 207.302 91.4698 208.449C91.4698 209.528 92.2681 209.967 93.3363 210.124L93.7973 210.192C94.5619 210.304 94.8092 210.653 94.8092 211.103C94.8092 211.699 94.3595 212.047 93.5949 212.047C92.864 212.047 92.3243 211.721 91.8745 211.159L91.2336 211.676C91.7509 212.362 92.4592 212.812 93.5274 212.812ZM99.8312 212.812C101.383 212.812 102.451 211.62 102.451 209.776C102.451 207.932 101.383 206.74 99.8312 206.74C98.2796 206.74 97.2114 207.932 97.2114 209.776C97.2114 211.62 98.2796 212.812 99.8312 212.812ZM99.8312 212.013C98.8643 212.013 98.1784 211.417 98.1784 210.192V209.36C98.1784 208.134 98.8643 207.538 99.8312 207.538C100.798 207.538 101.484 208.134 101.484 209.36V210.192C101.484 211.417 100.798 212.013 99.8312 212.013ZM105.205 212.677V208.651C105.205 207.909 105.902 207.549 106.622 207.549C107.487 207.549 107.937 208.078 107.937 209.112V212.677H108.837V208.955C108.837 207.549 108.083 206.74 106.891 206.74C106.026 206.74 105.531 207.167 105.25 207.819H105.205V206.875H104.305V212.677H105.205ZM113.252 212.812C114.343 212.812 115.175 212.272 115.546 211.485L114.905 211.024C114.601 211.665 114.039 212.025 113.308 212.025C112.229 212.025 111.588 211.271 111.588 210.271V210.001H115.76V209.573C115.76 207.932 114.804 206.74 113.252 206.74C111.678 206.74 110.643 207.932 110.643 209.776C110.643 211.62 111.678 212.812 113.252 212.812ZM113.252 207.493C114.174 207.493 114.793 208.179 114.793 209.202V209.326H111.588V209.247C111.588 208.235 112.274 207.493 113.252 207.493ZM119.775 212.812C120.877 212.812 121.631 212.272 122.002 211.44L121.35 211.001C121.035 211.665 120.506 212.013 119.775 212.013C118.707 212.013 118.156 211.282 118.156 210.271V209.281C118.156 208.269 118.707 207.538 119.775 207.538C120.484 207.538 120.979 207.887 121.192 208.483L121.946 208.1C121.608 207.302 120.922 206.74 119.775 206.74C118.145 206.74 117.189 207.921 117.189 209.776C117.189 211.631 118.145 212.812 119.775 212.812ZM126.053 212.677V211.89H124.872V207.662H126.143V206.875H124.872V205.267H124.062V206.346C124.062 206.74 123.939 206.875 123.556 206.875H123.017V207.662H123.972V211.721C123.972 212.283 124.31 212.677 124.928 212.677H126.053Z" fill="white"/>
<g opacity="0.64">
<g opacity="0.16">
<rect x="23" y="219.417" width="95.5743" height="22.4881" fill="#263238"/>
</g>
<path d="M62.9418 231.792H64.7746L66.4724 235.165H67.5406L65.7416 231.702C66.7648 231.466 67.3157 230.69 67.3157 229.543C67.3157 228.115 66.4949 227.317 65.1232 227.317H61.9973V235.165H62.9418V231.792ZM62.9418 230.982V228.149H65.1232C65.8653 228.149 66.3038 228.554 66.3038 229.273V229.858C66.3038 230.577 65.8653 230.982 65.1232 230.982H62.9418ZM71.491 235.3C72.5817 235.3 73.4138 234.76 73.7848 233.973L73.1439 233.512C72.8403 234.153 72.2781 234.513 71.5472 234.513C70.4678 234.513 69.8269 233.76 69.8269 232.759V232.489H73.9984V232.062C73.9984 230.42 73.0427 229.228 71.491 229.228C69.9169 229.228 68.8824 230.42 68.8824 232.264C68.8824 234.108 69.9169 235.3 71.491 235.3ZM71.491 229.982C72.413 229.982 73.0315 230.667 73.0315 231.691V231.814H69.8269V231.736C69.8269 230.724 70.5128 229.982 71.491 229.982ZM77.5984 235.3C78.9252 235.3 79.746 234.614 79.746 233.49C79.746 232.613 79.2512 232.05 77.9694 231.859L77.5196 231.792C76.8 231.679 76.4065 231.455 76.4065 230.892C76.4065 230.341 76.8 229.993 77.5421 229.993C78.2842 229.993 78.779 230.341 79.0376 230.701L79.6335 230.161C79.1613 229.577 78.5429 229.228 77.6096 229.228C76.429 229.228 75.5407 229.79 75.5407 230.937C75.5407 232.017 76.339 232.455 77.4072 232.613L77.8682 232.68C78.6328 232.793 78.8802 233.141 78.8802 233.591C78.8802 234.187 78.4304 234.535 77.6658 234.535C76.935 234.535 76.3952 234.209 75.9455 233.647L75.3046 234.164C75.8218 234.85 76.5302 235.3 77.5984 235.3ZM83.9022 235.3C85.4539 235.3 86.5221 234.108 86.5221 232.264C86.5221 230.42 85.4539 229.228 83.9022 229.228C82.3505 229.228 81.2823 230.42 81.2823 232.264C81.2823 234.108 82.3505 235.3 83.9022 235.3ZM83.9022 234.502C82.9352 234.502 82.2493 233.906 82.2493 232.68V231.848C82.2493 230.622 82.9352 230.027 83.9022 230.027C84.8692 230.027 85.5551 230.622 85.5551 231.848V232.68C85.5551 233.906 84.8692 234.502 83.9022 234.502ZM89.2758 235.165V231.14C89.2758 230.398 89.9729 230.038 90.6925 230.038C91.5583 230.038 92.0081 230.566 92.0081 231.601V235.165H92.9076V231.443C92.9076 230.038 92.1542 229.228 90.9624 229.228C90.0966 229.228 89.6018 229.655 89.3207 230.308H89.2758V229.363H88.3762V235.165H89.2758ZM97.323 235.3C98.4137 235.3 99.2458 234.76 99.6168 233.973L98.9759 233.512C98.6723 234.153 98.1101 234.513 97.3793 234.513C96.2998 234.513 95.6589 233.76 95.6589 232.759V232.489H99.8305V232.062C99.8305 230.42 98.8747 229.228 97.323 229.228C95.7489 229.228 94.7144 230.42 94.7144 232.264C94.7144 234.108 95.7489 235.3 97.323 235.3ZM97.323 229.982C98.245 229.982 98.8635 230.667 98.8635 231.691V231.814H95.6589V231.736C95.6589 230.724 96.3448 229.982 97.323 229.982ZM103.846 235.3C104.948 235.3 105.702 234.76 106.073 233.928L105.421 233.49C105.106 234.153 104.577 234.502 103.846 234.502C102.778 234.502 102.227 233.771 102.227 232.759V231.769C102.227 230.757 102.778 230.027 103.846 230.027C104.555 230.027 105.049 230.375 105.263 230.971L106.016 230.589C105.679 229.79 104.993 229.228 103.846 229.228C102.216 229.228 101.26 230.409 101.26 232.264C101.26 234.119 102.216 235.3 103.846 235.3ZM110.124 235.165V234.378H108.943V230.15H110.213V229.363H108.943V227.755H108.133V228.835C108.133 229.228 108.01 229.363 107.627 229.363H107.088V230.15H108.043V234.209C108.043 234.771 108.381 235.165 108.999 235.165H110.124Z" fill="white"/>
</g>
<path d="M23.3882 24.582V23.4711H15.4621V24.582H18.7947V33.9492H20.0556V24.582H23.3882ZM27.3563 34.1294C29.4279 34.1294 30.854 32.5381 30.854 30.0762C30.854 27.6143 29.4279 26.0231 27.3563 26.0231C25.2847 26.0231 23.8586 27.6143 23.8586 30.0762C23.8586 32.5381 25.2847 34.1294 27.3563 34.1294ZM27.3563 33.0635C26.0653 33.0635 25.1496 32.2679 25.1496 30.6317V29.5208C25.1496 27.8845 26.0653 27.0889 27.3563 27.0889C28.6473 27.0889 29.563 27.8845 29.563 29.5208V30.6317C29.563 32.2679 28.6473 33.0635 27.3563 33.0635ZM33.2419 36.9515H34.4429V32.6882H34.5029C34.9683 33.649 35.7039 34.1294 36.7697 34.1294C38.7062 34.1294 39.9221 32.5531 39.9221 30.0762C39.9221 27.5993 38.7062 26.0231 36.7697 26.0231C35.7039 26.0231 34.9082 26.4884 34.5029 27.4642H34.4429V26.2032H33.2419V36.9515ZM36.4394 33.0485C35.3436 33.0485 34.4429 32.4781 34.4429 31.4723V28.5901C34.4429 27.7344 35.3436 27.1039 36.4394 27.1039C37.7905 27.1039 38.6311 28.0346 38.6311 29.4157V30.7367C38.6311 32.1178 37.7905 33.0485 36.4394 33.0485ZM53.2585 33.9492V32.8384H50.5564V23.4711H48.5899L45.8128 26.0681L46.5483 26.8637L49.1904 24.4018H49.2955V32.8384H46.3682V33.9492H53.2585ZM58.9646 34.1294C61.4715 34.1294 62.5674 32.1328 62.5674 28.7102C62.5674 25.2875 61.4715 23.291 58.9646 23.291C56.4577 23.291 55.3618 25.2875 55.3618 28.7102C55.3618 32.1328 56.4577 34.1294 58.9646 34.1294ZM58.9646 33.0335C57.3283 33.0335 56.6828 31.5924 56.6828 29.5658V27.8545C56.6828 25.8279 57.3283 24.3868 58.9646 24.3868C60.6009 24.3868 61.2464 25.8279 61.2464 27.8545V29.5658C61.2464 31.5924 60.6009 33.0335 58.9646 33.0335ZM70.4926 33.9492V29.2055H75.0411V28.0947H70.4926V24.582H75.4764V23.4711H69.2316V33.9492H70.4926ZM82.3023 33.9492H83.5032V26.2032H82.3023V31.5624C82.3023 32.5832 81.3715 33.0485 80.4258 33.0485C79.2699 33.0485 78.6544 32.343 78.6544 30.9619V26.2032H77.4535V31.1721C77.4535 33.0485 78.4743 34.1294 80.0655 34.1294C81.3565 34.1294 81.942 33.4238 82.2422 32.6882H82.3023V33.9492ZM87.6743 33.9492V28.5751C87.6743 27.5843 88.605 27.1039 89.5658 27.1039C90.7217 27.1039 91.3221 27.8095 91.3221 29.1905V33.9492H92.5231V28.9804C92.5231 27.1039 91.5173 26.0231 89.9261 26.0231C88.7702 26.0231 88.1097 26.5935 87.7344 27.4642H87.6743V26.2032H86.4734V33.9492H87.6743ZM100.372 33.9492H101.573V22.8406H100.372V27.4642H100.312C99.9067 26.4884 99.1111 26.0231 98.0452 26.0231C96.1087 26.0231 94.8928 27.5993 94.8928 30.0762C94.8928 32.5531 96.1087 34.1294 98.0452 34.1294C99.1111 34.1294 99.8466 33.649 100.312 32.6882H100.372V33.9492ZM98.3755 33.0485C97.0244 33.0485 96.1838 32.1178 96.1838 30.7367V29.4157C96.1838 28.0346 97.0244 27.1039 98.3755 27.1039C99.4713 27.1039 100.372 27.7344 100.372 28.5901V31.4723C100.372 32.4781 99.4713 33.0485 98.3755 33.0485ZM107.451 34.1294C108.907 34.1294 110.018 33.4088 110.514 32.358L109.658 31.7425C109.253 32.5982 108.502 33.0785 107.526 33.0785C106.085 33.0785 105.229 32.0728 105.229 30.7367V30.3765H110.799V29.806C110.799 27.6143 109.523 26.0231 107.451 26.0231C105.35 26.0231 103.968 27.6143 103.968 30.0762C103.968 32.5381 105.35 34.1294 107.451 34.1294ZM107.451 27.0289C108.682 27.0289 109.508 27.9446 109.508 29.3106V29.4758H105.229V29.3707C105.229 28.0196 106.145 27.0289 107.451 27.0289ZM118.144 33.9492H119.345V22.8406H118.144V27.4642H118.084C117.679 26.4884 116.883 26.0231 115.818 26.0231C113.881 26.0231 112.665 27.5993 112.665 30.0762C112.665 32.5531 113.881 34.1294 115.818 34.1294C116.883 34.1294 117.619 33.649 118.084 32.6882H118.144V33.9492ZM116.148 33.0485C114.797 33.0485 113.956 32.1178 113.956 30.7367V29.4157C113.956 28.0346 114.797 27.1039 116.148 27.1039C117.244 27.1039 118.144 27.7344 118.144 28.5901V31.4723C118.144 32.4781 117.244 33.0485 116.148 33.0485ZM129.334 34.1294C131.586 34.1294 132.937 32.8984 132.937 30.9769C132.937 29.4157 132.051 28.515 130.01 28.0497L129.154 27.8545C127.833 27.5543 127.187 27.1039 127.187 26.1132C127.187 24.9873 128.013 24.4018 129.349 24.4018C130.565 24.4018 131.361 24.8972 131.931 25.6928L132.877 25.0023C132.096 23.8914 130.985 23.291 129.409 23.291C127.353 23.291 125.942 24.2967 125.942 26.1582C125.942 27.7644 126.992 28.6051 128.899 29.0404L129.754 29.2356C131.136 29.5508 131.691 30.0462 131.691 31.037C131.691 32.2379 130.88 33.0185 129.379 33.0185C128.163 33.0185 127.293 32.4931 126.557 31.5173L125.626 32.2979C126.467 33.4388 127.653 34.1294 129.334 34.1294ZM138.62 33.9492V32.8984H137.043V27.254H138.74V26.2032H137.043V24.0566H135.963V25.4977C135.963 26.0231 135.797 26.2032 135.287 26.2032H134.567V27.254H135.843V32.6732C135.843 33.4238 136.293 33.9492 137.118 33.9492H138.62ZM147.388 33.9492V32.8984H146.502V28.6351C146.502 26.9988 145.391 26.0231 143.53 26.0231C142.134 26.0231 141.203 26.7136 140.783 27.5393L141.503 28.2148C141.924 27.5092 142.539 27.0589 143.47 27.0589C144.701 27.0589 145.301 27.6593 145.301 28.7552V29.5208H143.77C141.518 29.5208 140.467 30.3314 140.467 31.7875C140.467 33.2287 141.428 34.1294 143.064 34.1294C144.145 34.1294 144.971 33.634 145.301 32.6882H145.376C145.466 33.4088 145.827 33.9492 146.712 33.9492H147.388ZM143.26 33.1086C142.329 33.1086 141.728 32.6732 141.728 31.9076V31.5924C141.728 30.8418 142.344 30.4215 143.71 30.4215H145.301V31.6975C145.301 32.4931 144.445 33.1086 143.26 33.1086ZM150.716 33.9492V28.6952C150.716 27.9596 151.496 27.4042 152.787 27.4042H153.493V26.2032H153.027C151.766 26.2032 151.061 26.8938 150.791 27.6293H150.716V26.2032H149.515V33.9492H150.716ZM158.711 33.9492V32.8984H157.134V27.254H158.831V26.2032H157.134V24.0566H156.054V25.4977C156.054 26.0231 155.888 26.2032 155.378 26.2032H154.657V27.254H155.933V32.6732C155.933 33.4238 156.384 33.9492 157.209 33.9492H158.711ZM165.947 33.9492H167.148V26.2032H165.947V31.5624C165.947 32.5832 165.017 33.0485 164.071 33.0485C162.915 33.0485 162.3 32.343 162.3 30.9619V26.2032H161.099V31.1721C161.099 33.0485 162.12 34.1294 163.711 34.1294C165.002 34.1294 165.587 33.4238 165.887 32.6882H165.947V33.9492ZM170.119 36.9515H171.32V32.6882H171.38C171.845 33.649 172.581 34.1294 173.646 34.1294C175.583 34.1294 176.799 32.5531 176.799 30.0762C176.799 27.5993 175.583 26.0231 173.646 26.0231C172.581 26.0231 171.785 26.4884 171.38 27.4642H171.32V26.2032H170.119V36.9515ZM173.316 33.0485C172.22 33.0485 171.32 32.4781 171.32 31.4723V28.5901C171.32 27.7344 172.22 27.1039 173.316 27.1039C174.667 27.1039 175.508 28.0346 175.508 29.4157V30.7367C175.508 32.1178 174.667 33.0485 173.316 33.0485ZM181.566 34.1294C183.338 34.1294 184.433 33.2136 184.433 31.7125C184.433 30.5416 183.773 29.791 182.062 29.5358L181.461 29.4457C180.5 29.2956 179.975 28.9954 179.975 28.2448C179.975 27.5092 180.5 27.0439 181.491 27.0439C182.482 27.0439 183.142 27.5092 183.488 27.9896L184.283 27.269C183.653 26.4884 182.827 26.0231 181.581 26.0231C180.005 26.0231 178.819 26.7737 178.819 28.3048C178.819 29.746 179.885 30.3314 181.311 30.5416L181.926 30.6317C182.947 30.7818 183.277 31.2471 183.277 31.8476C183.277 32.6432 182.677 33.1086 181.656 33.1086C180.68 33.1086 179.96 32.6732 179.359 31.9226L178.504 32.6132C179.194 33.5289 180.14 34.1294 181.566 34.1294ZM190.898 29.2656C190.898 32.1929 192.129 34.7448 193.615 36.0058H194.756C193.135 34.5647 192.024 32.0277 192.024 29.9261V28.6351C192.024 26.5335 193.09 24.0415 194.756 22.5404H193.615C192.084 23.8464 190.898 26.3684 190.898 29.2656ZM196.969 24.3868C197.48 24.3868 197.705 24.1166 197.705 23.7113V23.5161C197.705 23.1108 197.48 22.8406 196.969 22.8406C196.459 22.8406 196.234 23.1108 196.234 23.5161V23.7113C196.234 24.1166 196.459 24.3868 196.969 24.3868ZM196.369 33.9492H197.57V26.2032H196.369V33.9492ZM201.736 33.9492V28.5751C201.736 27.5843 202.666 27.1039 203.627 27.1039C204.783 27.1039 205.383 27.8095 205.383 29.1905V33.9492H206.584V28.9804C206.584 27.1039 205.579 26.0231 203.987 26.0231C202.832 26.0231 202.171 26.5935 201.796 27.4642H201.736V26.2032H200.535V33.9492H201.736ZM215.782 33.9492V32.8984H214.641V22.8406H213.44V32.7033C213.44 33.4238 213.89 33.9492 214.716 33.9492H215.782ZM224.248 33.9492V32.8984H223.362V28.6351C223.362 26.9988 222.251 26.0231 220.39 26.0231C218.994 26.0231 218.063 26.7136 217.643 27.5393L218.363 28.2148C218.784 27.5092 219.399 27.0589 220.33 27.0589C221.561 27.0589 222.161 27.6593 222.161 28.7552V29.5208H220.63C218.378 29.5208 217.327 30.3314 217.327 31.7875C217.327 33.2287 218.288 34.1294 219.924 34.1294C221.005 34.1294 221.831 33.634 222.161 32.6882H222.236C222.326 33.4088 222.687 33.9492 223.572 33.9492H224.248ZM220.12 33.1086C219.189 33.1086 218.588 32.6732 218.588 31.9076V31.5924C218.588 30.8418 219.204 30.4215 220.57 30.4215H222.161V31.6975C222.161 32.4931 221.306 33.1086 220.12 33.1086ZM229.257 34.1294C230.728 34.1294 231.734 33.4088 232.229 32.2979L231.359 31.7125C230.938 32.5982 230.233 33.0635 229.257 33.0635C227.831 33.0635 227.095 32.0878 227.095 30.7367V29.4157C227.095 28.0647 227.831 27.0889 229.257 27.0889C230.203 27.0889 230.863 27.5543 231.148 28.3499L232.154 27.8395C231.704 26.7737 230.788 26.0231 229.257 26.0231C227.08 26.0231 225.804 27.5993 225.804 30.0762C225.804 32.5531 227.08 34.1294 229.257 34.1294ZM236.664 34.1294C238.435 34.1294 239.531 33.2136 239.531 31.7125C239.531 30.5416 238.871 29.791 237.159 29.5358L236.559 29.4457C235.598 29.2956 235.073 28.9954 235.073 28.2448C235.073 27.5092 235.598 27.0439 236.589 27.0439C237.58 27.0439 238.24 27.5092 238.586 27.9896L239.381 27.269C238.751 26.4884 237.925 26.0231 236.679 26.0231C235.103 26.0231 233.917 26.7737 233.917 28.3048C233.917 29.746 234.983 30.3314 236.409 30.5416L237.024 30.6317C238.045 30.7818 238.375 31.2471 238.375 31.8476C238.375 32.6432 237.775 33.1086 236.754 33.1086C235.778 33.1086 235.058 32.6732 234.457 31.9226L233.602 32.6132C234.292 33.5289 235.238 34.1294 236.664 34.1294ZM244.572 29.2656C244.572 26.3684 243.386 23.8464 241.855 22.5404H240.714C242.381 24.0415 243.446 26.5335 243.446 28.6351V29.9261C243.446 32.0277 242.336 34.5647 240.714 36.0058H241.855C243.341 34.7448 244.572 32.1929 244.572 29.2656Z" fill="#1F1F1F"/>
</svg>
