<svg width="312" height="374" viewBox="0 0 312 374" fill="none" xmlns="http://www.w3.org/2000/svg">
<rect x="0.852539" y="1.20898" width="310" height="371.791" rx="5.23649" fill="white" stroke="#E5E5E5" stroke-width="1.0473"/>
<path d="M26.8134 31.0798L29.9226 25.0987H31.7063L27.5989 32.5689V37.0117H26.028V32.5689L21.9206 25.0987H23.7206L26.8134 31.0798ZM36.6017 37.1754C35.4017 37.1754 34.4253 36.7826 33.6726 35.9971C32.9198 35.2062 32.5435 34.1507 32.5435 32.8307V32.5525C32.5435 31.6743 32.7098 30.8916 33.0426 30.2043C33.3807 29.5115 33.8498 28.9715 34.4499 28.5842C35.0553 28.1915 35.7099 27.9951 36.4135 27.9951C37.5645 27.9951 38.459 28.3742 39.0972 29.1324C39.7354 29.8906 40.0545 30.9761 40.0545 32.3889V33.0189H34.0571C34.0789 33.8916 34.3326 34.598 34.8181 35.138C35.309 35.6726 35.9308 35.9399 36.6836 35.9399C37.2181 35.9399 37.6708 35.8308 38.0418 35.6126C38.4127 35.3944 38.7372 35.1053 39.0154 34.7453L39.94 35.4653C39.1982 36.6053 38.0854 37.1754 36.6017 37.1754ZM36.4135 29.2388C35.8026 29.2388 35.2899 29.4624 34.8753 29.9097C34.4608 30.3516 34.2044 30.9734 34.1062 31.7752H38.5409V31.6607C38.4972 30.8916 38.29 30.297 37.919 29.877C37.5481 29.4515 37.0463 29.2388 36.4135 29.2388ZM47.7401 37.0117C47.6528 36.8372 47.5819 36.5263 47.5273 36.079C46.8237 36.8099 45.9837 37.1754 45.0073 37.1754C44.1345 37.1754 43.4172 36.9299 42.8554 36.439C42.299 35.9426 42.0208 35.3153 42.0208 34.5571C42.0208 33.6353 42.3699 32.9207 43.0681 32.4134C43.7718 31.9007 44.7591 31.6443 46.03 31.6443H47.5028V30.9488C47.5028 30.4197 47.3446 29.9997 47.0282 29.6888C46.7119 29.3724 46.2455 29.2143 45.6291 29.2143C45.0891 29.2143 44.6364 29.3506 44.2709 29.6234C43.9054 29.8961 43.7227 30.2261 43.7227 30.6134H42.2008C42.2008 30.1716 42.3563 29.7461 42.6672 29.337C42.9836 28.9224 43.4091 28.5952 43.9436 28.3551C44.4836 28.1151 45.0755 27.9951 45.7191 27.9951C46.7391 27.9951 47.5382 28.2515 48.1164 28.7642C48.6946 29.2715 48.9946 29.9725 49.0165 30.867V34.9417C49.0165 35.7544 49.1201 36.4008 49.3274 36.8808V37.0117H47.7401ZM45.2282 35.8581C45.7027 35.8581 46.1528 35.7353 46.5782 35.4899C47.0037 35.2444 47.3119 34.9253 47.5028 34.5326V32.7162H46.3164C44.4618 32.7162 43.5345 33.2589 43.5345 34.3444C43.5345 34.8189 43.6927 35.1899 44.0091 35.4571C44.3254 35.7244 44.7318 35.8581 45.2282 35.8581ZM56.1293 29.517C55.9002 29.4788 55.652 29.4597 55.3847 29.4597C54.3919 29.4597 53.7183 29.8825 53.3637 30.7279V37.0117H51.8501V28.1588H53.3228L53.3474 29.1815C53.8437 28.3906 54.5474 27.9951 55.4583 27.9951C55.7529 27.9951 55.9765 28.0333 56.1293 28.1097V29.517ZM65.5274 34.958L67.7202 28.1588H69.2666L66.092 37.0117H64.9383L61.731 28.1588H63.2774L65.5274 34.958ZM76.3385 34.6635C76.3385 34.2544 76.183 33.938 75.8721 33.7144C75.5667 33.4853 75.0294 33.2889 74.2603 33.1253C73.4966 32.9616 72.8884 32.7653 72.4357 32.5362C71.9884 32.3071 71.6557 32.0343 71.4375 31.718C71.2247 31.4016 71.1184 31.0252 71.1184 30.5888C71.1184 29.8634 71.4238 29.2497 72.0348 28.7479C72.6511 28.2461 73.4366 27.9951 74.3912 27.9951C75.3948 27.9951 76.2076 28.2542 76.8294 28.7724C77.4567 29.2906 77.7704 29.9534 77.7704 30.7607H76.2485C76.2485 30.3461 76.0712 29.9888 75.7167 29.6888C75.3676 29.3888 74.9257 29.2388 74.3912 29.2388C73.8403 29.2388 73.4093 29.3588 73.0984 29.5988C72.7875 29.8388 72.632 30.1525 72.632 30.5397C72.632 30.9052 72.7766 31.1807 73.0657 31.3661C73.3548 31.5516 73.8757 31.7289 74.6285 31.898C75.3867 32.0671 76.0003 32.2689 76.4694 32.5034C76.9385 32.738 77.2849 33.0216 77.5085 33.3544C77.7376 33.6816 77.8522 34.0826 77.8522 34.5571C77.8522 35.348 77.5358 35.9835 76.9031 36.4635C76.2703 36.9381 75.4494 37.1754 74.4403 37.1754C73.7312 37.1754 73.1039 37.0499 72.5584 36.799C72.0129 36.5481 71.5847 36.199 71.2738 35.7517C70.9684 35.299 70.8156 34.8108 70.8156 34.2871H72.3293C72.3566 34.7944 72.5584 35.198 72.9348 35.498C73.3166 35.7926 73.8184 35.9399 74.4403 35.9399C75.013 35.9399 75.4712 35.8253 75.8149 35.5962C76.1639 35.3617 76.3385 35.0508 76.3385 34.6635ZM91.7096 31.7507H86.7103V37.0117H85.1394V25.0987H92.5196V26.3915H86.7103V30.4661H91.7096V31.7507ZM99.9106 36.1362C99.3214 36.829 98.4569 37.1754 97.3169 37.1754C96.3732 37.1754 95.6532 36.9026 95.1568 36.3572C94.6659 35.8062 94.4177 34.9935 94.4122 33.9189V28.1588H95.9259V33.878C95.9259 35.2199 96.4714 35.8908 97.5623 35.8908C98.7187 35.8908 99.4878 35.4599 99.8696 34.598V28.1588H101.383V37.0117H99.9433L99.9106 36.1362ZM105.583 28.1588L105.632 29.2715C106.309 28.4206 107.192 27.9951 108.283 27.9951C110.154 27.9951 111.098 29.0506 111.114 31.1616V37.0117H109.601V31.1534C109.595 30.5152 109.448 30.0434 109.159 29.7379C108.875 29.4324 108.431 29.2797 107.825 29.2797C107.334 29.2797 106.903 29.4106 106.532 29.6725C106.162 29.9343 105.872 30.2779 105.665 30.7034V37.0117H104.151V28.1588H105.583ZM113.49 32.5116C113.49 31.1534 113.812 30.0625 114.455 29.2388C115.099 28.4097 115.942 27.9951 116.983 27.9951C118.02 27.9951 118.841 28.3497 119.446 29.0588V24.4441H120.96V37.0117H119.569L119.495 36.0626C118.89 36.8044 118.047 37.1754 116.967 37.1754C115.942 37.1754 115.104 36.7553 114.455 35.9153C113.812 35.0753 113.49 33.9789 113.49 32.6262V32.5116ZM115.003 32.6834C115.003 33.6871 115.211 34.4726 115.625 35.0399C116.04 35.6071 116.613 35.8908 117.343 35.8908C118.303 35.8908 119.004 35.4599 119.446 34.598V30.5316C118.994 29.697 118.298 29.2797 117.36 29.2797C116.618 29.2797 116.04 29.5661 115.625 30.1388C115.211 30.7116 115.003 31.5598 115.003 32.6834ZM125.422 37.0117H123.908V28.1588H125.422V37.0117ZM123.785 25.8105C123.785 25.5651 123.859 25.3578 124.006 25.1887C124.159 25.0196 124.383 24.9351 124.677 24.9351C124.972 24.9351 125.195 25.0196 125.348 25.1887C125.501 25.3578 125.577 25.5651 125.577 25.8105C125.577 26.056 125.501 26.2606 125.348 26.4242C125.195 26.5878 124.972 26.6697 124.677 26.6697C124.383 26.6697 124.159 26.5878 124.006 26.4242C123.859 26.2606 123.785 26.056 123.785 25.8105ZM129.744 28.1588L129.794 29.2715C130.47 28.4206 131.354 27.9951 132.445 27.9951C134.315 27.9951 135.259 29.0506 135.276 31.1616V37.0117H133.762V31.1534C133.756 30.5152 133.609 30.0434 133.32 29.7379C133.036 29.4324 132.592 29.2797 131.986 29.2797C131.495 29.2797 131.064 29.4106 130.694 29.6725C130.323 29.9343 130.034 30.2779 129.826 30.7034V37.0117H128.313V28.1588H129.744ZM137.659 32.5116C137.659 31.1316 137.978 30.0352 138.616 29.2224C139.255 28.4042 140.1 27.9951 141.153 27.9951C142.233 27.9951 143.076 28.377 143.681 29.1406L143.755 28.1588H145.137V36.799C145.137 37.9445 144.797 38.8472 144.115 39.5072C143.438 40.1672 142.527 40.4973 141.382 40.4973C140.744 40.4973 140.119 40.3609 139.508 40.0882C138.897 39.8154 138.431 39.4418 138.109 38.9672L138.895 38.059C139.544 38.8609 140.337 39.2618 141.276 39.2618C142.012 39.2618 142.585 39.0545 142.994 38.6399C143.408 38.2254 143.616 37.6417 143.616 36.889V36.1281C143.01 36.8263 142.184 37.1754 141.136 37.1754C140.1 37.1754 139.26 36.7581 138.616 35.9235C137.978 35.0889 137.659 33.9516 137.659 32.5116ZM139.181 32.6834C139.181 33.6816 139.385 34.4671 139.795 35.0399C140.204 35.6071 140.776 35.8908 141.513 35.8908C142.467 35.8908 143.168 35.4571 143.616 34.5898V30.5479C143.152 29.7025 142.456 29.2797 141.529 29.2797C140.793 29.2797 140.217 29.5661 139.803 30.1388C139.388 30.7116 139.181 31.5598 139.181 32.6834Z" fill="#1F1F1F"/>
<g opacity="0.4">
<g opacity="0.8">
<rect x="51.123" y="315.398" width="10.1565" height="10.1565" rx="5.07827" fill="#F2C94C"/>
</g>
</g>
<path d="M56.2504 335.86C56.2504 336.934 56.0669 337.733 55.6999 338.255C55.333 338.777 54.7593 339.039 53.9791 339.039C53.2087 339.039 52.6384 338.784 52.2681 338.275C51.8979 337.762 51.7061 336.999 51.6929 335.984V334.759C51.6929 333.698 51.8764 332.909 52.2433 332.393C52.6103 331.877 53.1856 331.62 53.9692 331.62C54.7461 331.62 55.3181 331.869 55.6851 332.368C56.0521 332.864 56.2405 333.631 56.2504 334.67V335.86ZM55.333 334.605C55.333 333.828 55.2239 333.263 55.0057 332.909C54.7874 332.552 54.4419 332.373 53.9692 332.373C53.4997 332.373 53.1575 332.55 52.9426 332.904C52.7277 333.258 52.6169 333.802 52.6103 334.536V336.004C52.6103 336.784 52.7227 337.361 52.9476 337.734C53.1757 338.105 53.5195 338.29 53.9791 338.29C54.432 338.29 54.7676 338.115 54.9858 337.764C55.2073 337.414 55.323 336.862 55.333 336.108V334.605Z" fill="#212121"/>
<g opacity="0.8">
<rect x="107.401" y="315.398" width="10.1565" height="10.1565" rx="5.07827" fill="#F2C94C"/>
</g>
<path d="M111.016 338.939H110.093V332.825L108.243 333.504V332.671L110.872 331.684H111.016V338.939Z" fill="#212121"/>
<rect x="163.679" y="315.398" width="10.1565" height="10.1565" rx="5.07827" fill="#E7AF07"/>
<path d="M169.009 338.941H164.278V338.282L166.778 335.505C167.148 335.085 167.403 334.744 167.541 334.483C167.684 334.219 167.755 333.946 167.755 333.665C167.755 333.288 167.641 332.979 167.413 332.737C167.184 332.496 166.88 332.375 166.5 332.375C166.044 332.375 165.688 332.506 165.434 332.767C165.183 333.025 165.057 333.385 165.057 333.848H164.139C164.139 333.184 164.353 332.646 164.779 332.237C165.209 331.827 165.783 331.622 166.5 331.622C167.171 331.622 167.702 331.798 168.092 332.152C168.482 332.503 168.677 332.97 168.677 333.556C168.677 334.266 168.224 335.113 167.318 336.095L165.384 338.193H169.009V338.941Z" fill="#212121"/>
<g opacity="0.16">
<rect x="219.957" y="315.398" width="10.1565" height="10.1565" rx="5.07827" fill="#E7AF07"/>
</g>
<path d="M221.89 334.711H222.579C223.013 334.704 223.353 334.59 223.601 334.369C223.849 334.147 223.973 333.848 223.973 333.471C223.973 332.625 223.552 332.202 222.708 332.202C222.312 332.202 221.994 332.316 221.756 332.544C221.522 332.769 221.404 333.068 221.404 333.441H220.487C220.487 332.869 220.695 332.395 221.112 332.018C221.531 331.638 222.064 331.448 222.708 331.448C223.39 331.448 223.923 331.628 224.31 331.988C224.697 332.349 224.891 332.85 224.891 333.491C224.891 333.805 224.788 334.109 224.583 334.403C224.381 334.698 224.105 334.918 223.755 335.063C224.152 335.189 224.457 335.397 224.672 335.688C224.891 335.979 225 336.334 225 336.754C225 337.402 224.788 337.916 224.365 338.296C223.942 338.677 223.391 338.867 222.713 338.867C222.036 338.867 221.484 338.683 221.057 338.316C220.634 337.949 220.422 337.465 220.422 336.863H221.345C221.345 337.243 221.469 337.548 221.717 337.776C221.965 338.004 222.297 338.118 222.713 338.118C223.156 338.118 223.495 338.002 223.73 337.771C223.965 337.539 224.082 337.207 224.082 336.774C224.082 336.354 223.953 336.032 223.695 335.807C223.437 335.582 223.066 335.466 222.579 335.46H221.89V334.711Z" fill="#212121"/>
<rect x="44.8389" y="69.2832" width="210.507" height="210.507" rx="105.253" fill="#F2C94C"/>
<g style="mix-blend-mode:overlay">
<path d="M150.092 174.537H255.345C255.345 203.52 243.356 229.76 224.309 248.754L150.092 174.537Z" fill="#ACB9FF"/>
</g>
<g opacity="0.4">
<path d="M150.092 174.535H255.345C255.345 145.552 243.356 119.312 224.309 100.318L150.092 174.535Z" fill="#FFE597"/>
</g>
<path d="M150.092 174.537V69.2837C179.076 69.2837 205.315 81.2728 224.309 100.32L150.092 174.537Z" fill="#FFE597"/>
</svg>
