<svg width="251" height="251" viewBox="0 0 251 251" fill="none" xmlns="http://www.w3.org/2000/svg">
<rect x="1.43003" y="1.25425" width="248.702" height="248.702" rx="3.89661" fill="white" stroke="#E5E5E5" stroke-width="0.865912"/>
<g opacity="0.16">
<rect x="22.6448" y="154.087" width="36.4657" height="70.0009" fill="#263238"/>
</g>
<path d="M36.3389 213.612V214.352H37.1697C38.1627 214.352 38.6896 214.828 38.6896 215.659V215.74C38.6896 216.571 38.1627 217.047 37.1697 217.047C36.3085 217.047 35.8931 216.672 35.5283 216.115L34.89 216.601C35.3256 217.209 35.9539 217.807 37.1799 217.807C38.6187 217.807 39.5812 216.966 39.5812 215.75C39.5812 214.686 38.8517 214.119 38.0918 213.967V213.926C38.8416 213.734 39.4495 213.187 39.4495 212.275C39.4495 211.13 38.4971 210.492 37.3015 210.492C36.1666 210.492 35.5486 211.079 35.1939 211.647L35.8221 212.133C36.116 211.596 36.5517 211.251 37.2812 211.251C38.031 211.251 38.5477 211.626 38.5477 212.366V212.437C38.5477 213.116 38.0614 213.612 37.1089 213.612H36.3389ZM46.2782 216.936H42.5596L44.4645 215.223C45.3663 214.413 46.0147 213.643 46.0147 212.548C46.0147 211.343 45.2244 210.492 43.8464 210.492C42.4785 210.492 41.8503 211.322 41.5767 212.153L42.3367 212.447C42.5292 211.778 42.9345 211.251 43.8059 211.251C44.6773 211.251 45.1129 211.789 45.1129 212.569V212.69C45.1129 213.369 44.6063 214.078 43.9477 214.686L41.6375 216.814V217.686H46.2782V216.936Z" fill="#263238"/>
<g opacity="0.16">
<rect x="62.4768" y="112.524" width="36.4657" height="111.871" fill="#263238"/>
</g>
<path d="M76.4904 215.981H72.7718L74.6767 214.268C75.5785 213.458 76.2269 212.688 76.2269 211.593C76.2269 210.388 75.4366 209.536 74.0586 209.536C72.6907 209.536 72.0625 210.367 71.789 211.198L72.5489 211.492C72.7414 210.823 73.1467 210.296 74.0181 210.296C74.8895 210.296 75.3252 210.833 75.3252 211.614V211.735C75.3252 212.414 74.8185 213.123 74.1599 213.731L71.8497 215.859V216.73H76.4904V215.981ZM82.549 209.658H78.7594L78.5061 213.549L79.2255 213.65C79.5194 213.326 79.8436 213.052 80.4921 213.052C81.4547 213.052 81.9714 213.589 81.9714 214.522V214.623C81.9714 215.555 81.4547 216.092 80.4921 216.092C79.641 216.092 79.2863 215.717 78.9216 215.16L78.2832 215.646C78.7088 216.254 79.3167 216.852 80.4921 216.852C81.9815 216.852 82.8732 215.889 82.8732 214.511C82.8732 213.144 81.9815 212.323 80.7657 212.323C80.026 212.323 79.6511 212.627 79.3167 213.103H79.2458L79.4484 210.408H82.549V209.658ZM86.9661 216.852C88.3846 216.852 89.3168 215.9 89.3168 214.511C89.3168 213.174 88.4454 212.333 87.2295 212.333C86.3683 212.333 85.8617 212.769 85.5273 213.346L85.4766 213.326C85.8617 211.685 86.7027 210.762 88.2124 209.658H87.1181C85.9833 210.398 84.5951 212.039 84.5951 214.137C84.5951 215.819 85.4969 216.852 86.9661 216.852ZM86.956 216.112C86.0238 216.112 85.4766 215.575 85.4766 214.623V214.542C85.4766 213.589 86.0238 213.052 86.956 213.052C87.8881 213.052 88.4353 213.589 88.4353 214.542V214.623C88.4353 215.575 87.8881 216.112 86.956 216.112Z" fill="#263238"/>
<g opacity="0.16">
<rect x="103.175" y="117.719" width="36.4657" height="106.402" fill="#263238"/>
</g>
<path d="M117.33 217.316V216.567H115.506V210.244H114.179L112.305 211.997L112.801 212.534L114.584 210.872H114.655V216.567H112.679V217.316H117.33ZM122.811 217.316V215.928H123.835V215.219H122.811V210.244H121.545L118.586 215.178V215.928H122.001V217.316H122.811ZM121.95 210.903H122.001V215.219H119.387L121.95 210.903ZM129.224 217.316V215.928H130.248V215.219H129.224V210.244H127.958L124.999 215.178V215.928H128.414V217.316H129.224ZM128.363 210.903H128.414V215.219H125.8L128.363 210.903Z" fill="#263238"/>
<g opacity="0.16">
<rect x="143.007" y="98.6699" width="36.4657" height="125.785" fill="#263238"/>
</g>
<path d="M157.162 217.401V216.652H155.338V210.329H154.011L152.137 212.082L152.633 212.619L154.416 210.957H154.487V216.652H152.511V217.401H157.162ZM161.083 217.523C162.501 217.523 163.434 216.571 163.434 215.182C163.434 213.845 162.562 213.004 161.346 213.004C160.485 213.004 159.978 213.44 159.644 214.017L159.593 213.997C159.978 212.355 160.819 211.433 162.329 210.329H161.235C160.1 211.069 158.712 212.71 158.712 214.807C158.712 216.489 159.614 217.523 161.083 217.523ZM161.073 216.783C160.141 216.783 159.593 216.246 159.593 215.294V215.213C159.593 214.26 160.141 213.723 161.073 213.723C162.005 213.723 162.552 214.26 162.552 215.213V215.294C162.552 216.246 162.005 216.783 161.073 216.783ZM167.486 217.523C169.097 217.523 169.938 216.641 169.938 215.476C169.938 214.514 169.36 213.956 168.509 213.723V213.642C169.249 213.389 169.725 212.791 169.725 211.981C169.725 210.907 168.894 210.207 167.486 210.207C166.078 210.207 165.247 210.907 165.247 211.981C165.247 212.791 165.723 213.389 166.463 213.642V213.723C165.612 213.956 165.034 214.514 165.034 215.476C165.034 216.641 165.875 217.523 167.486 217.523ZM167.486 216.783C166.503 216.783 165.936 216.317 165.936 215.517V215.304C165.936 214.504 166.503 214.037 167.486 214.037C168.469 214.037 169.036 214.504 169.036 215.304V215.517C169.036 216.317 168.469 216.783 167.486 216.783ZM167.486 213.328C166.604 213.328 166.128 212.933 166.128 212.214V212.062C166.128 211.342 166.604 210.947 167.486 210.947C168.368 210.947 168.844 211.342 168.844 212.062V212.214C168.844 212.933 168.368 213.328 167.486 213.328Z" fill="#263238"/>
<g opacity="0.16">
<rect x="184.57" y="89.1445" width="36.4657" height="134.727" fill="#263238"/>
</g>
<path d="M198.584 216.858H194.865L196.77 215.145C197.672 214.335 198.32 213.565 198.32 212.47C198.32 211.265 197.53 210.413 196.152 210.413C194.784 210.413 194.156 211.244 193.882 212.075L194.642 212.369C194.835 211.7 195.24 211.173 196.112 211.173C196.983 211.173 197.419 211.71 197.419 212.491V212.612C197.419 213.291 196.912 214 196.253 214.608L193.943 216.736V217.607H198.584V216.858ZM204.207 217.607V216.219H205.23V215.51H204.207V210.535H202.94L199.982 215.469V216.219H203.396V217.607H204.207ZM203.346 211.194H203.396V215.51H200.782L203.346 211.194ZM209.049 217.729C210.661 217.729 211.502 216.847 211.502 215.682C211.502 214.72 210.924 214.162 210.073 213.929V213.848C210.813 213.595 211.289 212.997 211.289 212.187C211.289 211.113 210.458 210.413 209.049 210.413C207.641 210.413 206.81 211.113 206.81 212.187C206.81 212.997 207.286 213.595 208.026 213.848V213.929C207.175 214.162 206.597 214.72 206.597 215.682C206.597 216.847 207.438 217.729 209.049 217.729ZM209.049 216.989C208.067 216.989 207.499 216.523 207.499 215.723V215.51C207.499 214.71 208.067 214.243 209.049 214.243C210.032 214.243 210.6 214.71 210.6 215.51V215.723C210.6 216.523 210.032 216.989 209.049 216.989ZM209.049 213.534C208.168 213.534 207.692 213.139 207.692 212.42V212.268C207.692 211.548 208.168 211.153 209.049 211.153C209.931 211.153 210.407 211.548 210.407 212.268V212.42C210.407 213.139 209.931 213.534 209.049 213.534Z" fill="#263238"/>
<path d="M22.5477 31.541L19.1672 21.8705H17.6848L14.3043 31.541H15.4819L16.4517 28.687H20.3587L21.3285 31.541H22.5477ZM20.0678 27.6617H16.7288L18.3636 22.9512H18.4329L20.0678 27.6617ZM30.4466 32.3307C30.4466 31.1531 29.6846 30.4326 27.9112 30.4326H26.3872C25.736 30.4326 25.2927 30.3218 25.2927 29.8923C25.2927 29.449 25.7637 29.2134 26.2348 29.0888C26.4426 29.1303 26.692 29.158 26.9275 29.158C28.5624 29.158 29.6292 28.1466 29.6292 26.6919C29.6292 25.9299 29.3244 25.2926 28.8117 24.8492V24.392H30.1695V23.4222H29.1027C28.5069 23.4222 28.2714 23.824 28.2714 24.3782V24.5029C27.8835 24.3228 27.4263 24.2258 26.9137 24.2258C25.2927 24.2258 24.2259 25.2372 24.2259 26.6919C24.2259 27.6894 24.7246 28.4791 25.5698 28.8809V28.9364C24.8493 29.1165 24.3367 29.4628 24.3367 30.1833C24.3367 30.6682 24.5722 30.9868 24.974 31.1808V31.3332C24.2674 31.5272 23.8379 31.9428 23.8379 32.7187C23.8379 33.8409 24.7524 34.4782 26.9829 34.4782C29.2828 34.4782 30.4466 33.7993 30.4466 32.3307ZM29.4075 32.4139C29.4075 33.1897 28.6871 33.5776 27.454 33.5776H26.4288C25.3065 33.5776 24.877 33.065 24.877 32.4416C24.877 31.9982 25.0849 31.6796 25.5421 31.4717H27.9251C29.0334 31.4717 29.4075 31.8458 29.4075 32.4139ZM26.9275 28.2713C25.9854 28.2713 25.3897 27.828 25.3897 26.8859V26.4979C25.3897 25.5558 25.9854 25.1125 26.9275 25.1125C27.8696 25.1125 28.4654 25.5558 28.4654 26.4979V26.8859C28.4654 27.828 27.8696 28.2713 26.9275 28.2713ZM34.7271 31.7073C36.071 31.7073 37.0963 31.0423 37.5535 30.0724L36.7637 29.5044C36.3897 30.2941 35.6969 30.7374 34.7964 30.7374C33.4664 30.7374 32.6766 29.8092 32.6766 28.5761V28.2436H37.8167V27.7171C37.8167 25.6944 36.6391 24.2258 34.7271 24.2258C32.7875 24.2258 31.5129 25.6944 31.5129 27.9665C31.5129 30.2387 32.7875 31.7073 34.7271 31.7073ZM34.7271 25.154C35.8632 25.154 36.6252 25.9992 36.6252 27.2599V27.4123H32.6766V27.3154C32.6766 26.0684 33.5218 25.154 34.7271 25.154Z" fill="#263238"/>
<path d="M41.3037 165.638L40.6406 165.638L40.6406 167.251L35.0488 167.251L35.0488 168.425L36.5991 170.083L37.074 169.644L35.6044 168.067L35.6044 168.004L40.6406 168.004L40.6406 169.751L41.3037 169.751L41.3037 165.638ZM41.4112 162.232C41.4112 160.807 40.6316 160.063 39.6011 160.063C38.7498 160.063 38.2569 160.574 38.0508 161.327L37.9791 161.327C37.7551 160.673 37.2264 160.252 36.5095 160.252C35.5596 160.252 34.9412 160.986 34.9412 162.232C34.9412 163.478 35.5596 164.212 36.5095 164.212C37.2264 164.212 37.7551 163.791 37.9791 163.137L38.0508 163.137C38.2569 163.89 38.7498 164.401 39.6011 164.401C40.6316 164.401 41.4112 163.657 41.4112 162.232ZM40.7571 162.232C40.7571 163.101 40.3449 163.603 39.6369 163.603L39.4487 163.603C38.7408 163.603 38.3286 163.101 38.3286 162.232C38.3286 161.363 38.7408 160.861 39.4487 160.861L39.6369 160.861C40.3449 160.861 40.7571 161.363 40.7571 162.232ZM37.7013 162.232C37.7013 163.012 37.3518 163.433 36.7156 163.433L36.5811 163.433C35.9449 163.433 35.5954 163.012 35.5954 162.232C35.5954 161.452 35.9449 161.031 36.5811 161.031L36.7156 161.031C37.3518 161.031 37.7013 161.452 37.7013 162.232ZM38.9648 156.343L38.1942 156.343L38.1942 158.682L38.9648 158.682L38.9648 156.343ZM40.6406 150.699L40.6406 153.987L39.1261 152.303C38.4092 151.505 37.7282 150.932 36.7604 150.932C35.694 150.932 34.9412 151.631 34.9412 152.849C34.9412 154.059 35.6761 154.615 36.4109 154.857L36.6708 154.185C36.0793 154.014 35.6133 153.656 35.6133 152.885C35.6133 152.115 36.0883 151.729 36.7783 151.729L36.8858 151.729C37.4862 151.729 38.1135 152.177 38.6512 152.76L40.533 154.803L41.3037 154.803L41.3037 150.699L40.6406 150.699ZM35.0488 145.393L35.0488 148.744L38.4899 148.968L38.5795 148.332C38.2927 148.072 38.0508 147.785 38.0508 147.212C38.0508 146.36 38.5257 145.903 39.3502 145.903L39.4398 145.903C40.2642 145.903 40.7392 146.36 40.7392 147.212C40.7392 147.965 40.4076 148.278 39.9147 148.601L40.3449 149.165C40.8825 148.789 41.4112 148.251 41.4112 147.212C41.4112 145.894 40.5599 145.106 39.3412 145.106C38.1314 145.106 37.4056 145.894 37.4056 146.97C37.4056 147.624 37.6744 147.956 38.0956 148.251L38.0956 148.314L35.7119 148.135L35.7119 145.393L35.0488 145.393Z" fill="#263238"/>
<path d="M117.365 136.843L118.02 136.843L118.02 136.108C118.02 135.23 118.441 134.764 119.176 134.764L119.247 134.764C119.982 134.764 120.403 135.23 120.403 136.108C120.403 136.87 120.072 137.237 119.579 137.56L120.009 138.125C120.547 137.739 121.075 137.184 121.075 136.099C121.075 134.827 120.332 133.976 119.256 133.976C118.315 133.976 117.813 134.621 117.679 135.293L117.643 135.293C117.473 134.63 116.989 134.092 116.182 134.092C115.17 134.092 114.605 134.934 114.605 135.992C114.605 136.995 115.125 137.542 115.627 137.856L116.057 137.3C115.582 137.04 115.277 136.655 115.277 136.01C115.277 135.347 115.609 134.89 116.263 134.89L116.326 134.89C116.926 134.89 117.365 135.32 117.365 136.162L117.365 136.843ZM114.713 128.419L114.713 131.77L118.154 131.994L118.244 131.358C117.957 131.098 117.715 130.811 117.715 130.238C117.715 129.386 118.19 128.929 119.014 128.929L119.104 128.929C119.928 128.929 120.403 129.386 120.403 130.238C120.403 130.99 120.072 131.304 119.579 131.627L120.009 132.191C120.547 131.815 121.075 131.277 121.075 130.238C121.075 128.92 120.224 128.132 119.005 128.132C117.795 128.132 117.07 128.92 117.07 129.996C117.07 130.65 117.338 130.982 117.76 131.277L117.76 131.34L115.376 131.161L115.376 128.419L114.713 128.419ZM118.629 124.304L117.858 124.304L117.858 126.643L118.629 126.643L118.629 124.304ZM120.968 119.359L119.74 119.359L119.74 118.454L119.113 118.454L119.113 119.359L114.713 119.359L114.713 120.479L119.077 123.095L119.74 123.095L119.74 120.076L120.968 120.076L120.968 119.359ZM115.295 120.12L115.295 120.076L119.113 120.076L119.113 122.387L115.295 120.12ZM121.075 115.128C121.075 113.631 119.883 112.977 117.84 112.977C115.797 112.977 114.605 113.631 114.605 115.128C114.605 116.624 115.797 117.279 117.84 117.279C119.883 117.279 121.075 116.624 121.075 115.128ZM120.421 115.128C120.421 116.105 119.561 116.49 118.351 116.49L117.33 116.49C116.12 116.49 115.259 116.105 115.259 115.128C115.259 114.151 116.12 113.766 117.33 113.766L118.351 113.766C119.561 113.766 120.421 114.151 120.421 115.128Z" fill="#263238"/>
<path d="M80.4726 128.528L80.4726 131.817L78.9582 130.132C78.2413 129.335 77.5602 128.761 76.5924 128.761C75.526 128.761 74.7733 129.46 74.7733 130.679C74.7733 131.889 75.5081 132.444 76.2429 132.686L76.5028 132.014C75.9113 131.844 75.4454 131.486 75.4454 130.715C75.4454 129.944 75.9203 129.559 76.6103 129.559L76.7179 129.559C77.3183 129.559 77.9455 130.007 78.4832 130.589L80.3651 132.633L81.1357 132.633L81.1357 128.528L80.4726 128.528ZM74.8808 123.222L74.8808 126.574L78.3219 126.798L78.4115 126.162C78.1248 125.902 77.8828 125.615 77.8828 125.041C77.8828 124.19 78.3578 123.733 79.1822 123.733L79.2718 123.733C80.0962 123.733 80.5712 124.19 80.5712 125.041C80.5712 125.794 80.2396 126.108 79.7468 126.43L80.1769 126.995C80.7146 126.619 81.2433 126.081 81.2433 125.041C81.2433 123.724 80.392 122.936 79.1732 122.936C77.9635 122.936 77.2376 123.724 77.2376 124.8C77.2376 125.454 77.5064 125.785 77.9276 126.081L77.9276 126.144L75.5439 125.964L75.5439 123.222L74.8808 123.222ZM78.7969 119.108L78.0262 119.108L78.0262 121.447L78.7969 121.447L78.7969 119.108ZM77.5333 116.582L78.1875 116.582L78.1875 115.847C78.1875 114.969 78.6087 114.503 79.3435 114.503L79.4152 114.503C80.15 114.503 80.5712 114.969 80.5712 115.847C80.5712 116.609 80.2396 116.976 79.7468 117.299L80.1769 117.863C80.7146 117.478 81.2433 116.922 81.2433 115.838C81.2433 114.566 80.4995 113.714 79.4241 113.714C78.4832 113.714 77.9814 114.359 77.847 115.032L77.8111 115.032C77.6409 114.368 77.157 113.831 76.3504 113.831C75.3378 113.831 74.7733 114.673 74.7733 115.731C74.7733 116.734 75.293 117.281 75.7948 117.594L76.225 117.039C75.75 116.779 75.4454 116.394 75.4454 115.748C75.4454 115.085 75.7769 114.628 76.4311 114.628L76.4938 114.628C77.0942 114.628 77.5333 115.058 77.5333 115.901L77.5333 116.582ZM81.2433 109.932C81.2433 108.435 80.0514 107.781 78.0083 107.781C75.9651 107.781 74.7733 108.435 74.7733 109.932C74.7733 111.428 75.9651 112.082 78.0083 112.082C80.0514 112.082 81.2433 111.428 81.2433 109.932ZM80.5891 109.932C80.5891 110.908 79.7288 111.294 78.5191 111.294L77.4975 111.294C76.2877 111.294 75.4274 110.908 75.4274 109.932C75.4274 108.955 76.2877 108.57 77.4975 108.57L78.5191 108.57C79.7288 108.57 80.5891 108.955 80.5891 109.932Z" fill="#263238"/>
<path d="M160.8 114.508L159.572 114.508L159.572 113.603L158.945 113.603L158.945 114.508L154.545 114.508L154.545 115.628L158.909 118.244L159.572 118.244L159.572 115.225L160.8 115.224L160.8 114.508ZM155.127 115.269L155.127 115.225L158.945 115.225L158.945 117.536L155.127 115.269ZM160.907 110.277C160.907 108.78 159.715 108.126 157.672 108.126C155.629 108.126 154.437 108.78 154.437 110.277C154.437 111.773 155.629 112.428 157.672 112.428C159.715 112.428 160.907 111.773 160.907 110.277ZM160.253 110.277C160.253 111.254 159.393 111.639 158.183 111.639L157.162 111.639C155.952 111.639 155.092 111.254 155.092 110.277C155.092 109.3 155.952 108.915 157.162 108.915L158.183 108.915C159.393 108.915 160.253 109.3 160.253 110.277ZM158.461 104.388L157.69 104.388L157.69 106.727L158.461 106.727L158.461 104.388ZM154.545 99.0573L154.545 102.409L157.986 102.633L158.076 101.997C157.789 101.737 157.547 101.45 157.547 100.876C157.547 100.025 158.022 99.568 158.846 99.568L158.936 99.568C159.76 99.568 160.235 100.025 160.235 100.876C160.235 101.629 159.904 101.943 159.411 102.265L159.841 102.83C160.379 102.454 160.907 101.916 160.907 100.876C160.907 99.5591 160.056 98.7705 158.837 98.7705C157.628 98.7705 156.902 99.5591 156.902 100.634C156.902 101.289 157.171 101.62 157.592 101.916L157.592 101.979L155.208 101.799L155.208 99.0573L154.545 99.0573ZM160.907 95.2119C160.907 93.7154 159.715 93.0612 157.672 93.0612C155.629 93.0612 154.437 93.7154 154.437 95.2119C154.437 96.7084 155.629 97.3626 157.672 97.3626C159.715 97.3626 160.907 96.7084 160.907 95.2119ZM160.253 95.2119C160.253 96.1887 159.393 96.574 158.183 96.574L157.162 96.574C155.952 96.574 155.092 96.1887 155.092 95.2119C155.092 94.2351 155.952 93.8498 157.162 93.8498L158.183 93.8498C159.393 93.8498 160.253 94.2351 160.253 95.2119Z" fill="#263238"/>
<path d="M196.975 107.196L196.975 110.547L200.416 110.771L200.505 110.135C200.219 109.875 199.977 109.588 199.977 109.015C199.977 108.163 200.452 107.706 201.276 107.706L201.366 107.706C202.19 107.706 202.665 108.163 202.665 109.015C202.665 109.767 202.333 110.081 201.841 110.404L202.271 110.968C202.808 110.592 203.337 110.054 203.337 109.015C203.337 107.697 202.486 106.909 201.267 106.909C200.057 106.909 199.331 107.697 199.331 108.773C199.331 109.427 199.6 109.758 200.021 110.054L200.021 110.117L197.638 109.938L197.638 107.196L196.975 107.196ZM203.337 103.35C203.337 101.854 202.145 101.199 200.102 101.199C198.059 101.199 196.867 101.854 196.867 103.35C196.867 104.847 198.059 105.501 200.102 105.501C202.145 105.501 203.337 104.847 203.337 103.35ZM202.683 103.35C202.683 104.327 201.823 104.712 200.613 104.712L199.591 104.712C198.381 104.712 197.521 104.327 197.521 103.35C197.521 102.373 198.381 101.988 199.591 101.988L200.613 101.988C201.823 101.988 202.683 102.373 202.683 103.35ZM202.674 97.39L200.801 97.39L200.801 95.6425L200.192 95.6425L200.192 97.39L198.319 97.39L198.319 98.071L200.192 98.071L200.192 99.8185L200.801 99.8185L200.801 98.071L202.674 98.071L202.674 97.39Z" fill="#263238"/>
</svg>
