<svg width="227" height="272" viewBox="0 0 227 272" fill="none" xmlns="http://www.w3.org/2000/svg">
<rect x="0.56543" y="1" width="225.301" height="270.209" rx="3.80576" fill="white" stroke="#E5E5E5" stroke-width="0.761153"/>
<path d="M23.3144 27.9385L20.3428 19.4379H19.0397L16.0682 27.9385H17.1034L17.9558 25.4297H21.3902L22.2427 27.9385H23.3144ZM21.1344 24.5285H18.1994L19.6365 20.3878H19.6974L21.1344 24.5285ZM25.9343 27.9385V23.5786C25.9343 22.7748 26.6893 22.3851 27.4687 22.3851C28.4065 22.3851 28.8936 22.9575 28.8936 24.0779V27.9385H29.8679V23.9074C29.8679 22.3851 29.0519 21.5083 27.761 21.5083C26.8233 21.5083 26.2874 21.971 25.983 22.6774H25.9343V21.6544H24.96V27.9385H25.9343ZM33.1909 27.9385V23.5786C33.1909 22.7748 33.946 22.3851 34.7254 22.3851C35.6631 22.3851 36.1503 22.9575 36.1503 24.0779V27.9385H37.1245V23.9074C37.1245 22.3851 36.3086 21.5083 35.0177 21.5083C34.0799 21.5083 33.5441 21.971 33.2396 22.6774H33.1909V21.6544H32.2166V27.9385H33.1909ZM43.346 27.9385H44.3203V21.6544H43.346V26.0021C43.346 26.8302 42.5909 27.2078 41.8237 27.2078C40.886 27.2078 40.3866 26.6354 40.3866 25.515V21.6544H39.4124V25.6855C39.4124 27.2078 40.2405 28.0846 41.5314 28.0846C42.5788 28.0846 43.0537 27.5122 43.2973 26.9155H43.346V27.9385ZM51.8448 27.9385V27.086H51.1263V23.6273C51.1263 22.2999 50.2251 21.5083 48.715 21.5083C47.5824 21.5083 46.8273 22.0685 46.4863 22.7383L47.0709 23.2863C47.4119 22.7139 47.9112 22.3486 48.6663 22.3486C49.6649 22.3486 50.152 22.8357 50.152 23.7247V24.3458H48.9098C47.0831 24.3458 46.2306 25.0035 46.2306 26.1848C46.2306 27.3539 47.01 28.0846 48.3374 28.0846C49.2143 28.0846 49.8841 27.6827 50.152 26.9155H50.2129C50.286 27.5001 50.5783 27.9385 51.2968 27.9385H51.8448ZM48.4958 27.2565C47.7407 27.2565 47.2536 26.9033 47.2536 26.2822V26.0265C47.2536 25.4175 47.7529 25.0765 48.8611 25.0765H50.152V26.1117C50.152 26.7572 49.4579 27.2565 48.4958 27.2565ZM55.4701 27.9385V27.086H54.5445V18.9264H53.5703V26.9277C53.5703 27.5122 53.9356 27.9385 54.6054 27.9385H55.4701ZM63.5297 28.0846C64.9424 28.0846 65.9775 27.3417 66.5134 26.1482L65.6974 25.6368C65.3564 26.5623 64.6136 27.1712 63.5297 27.1712C62.0683 27.1712 61.2036 26.1117 61.2036 24.3702V23.1036C61.2036 21.3621 62.0683 20.2052 63.5297 20.2052C64.577 20.2052 65.2834 20.7776 65.6244 21.6544L66.4525 21.1551C65.9166 19.9738 64.9424 19.2918 63.5297 19.2918C61.3863 19.2918 60.1075 20.8993 60.1075 23.7369C60.1075 26.5745 61.3863 28.0846 63.5297 28.0846ZM70.71 28.0846C72.3906 28.0846 73.5476 26.7937 73.5476 24.7964C73.5476 22.7992 72.3906 21.5083 70.71 21.5083C69.0294 21.5083 67.8724 22.7992 67.8724 24.7964C67.8724 26.7937 69.0294 28.0846 70.71 28.0846ZM70.71 27.2199C69.6627 27.2199 68.9198 26.5745 68.9198 25.247V24.3458C68.9198 23.0184 69.6627 22.3729 70.71 22.3729C71.7574 22.3729 72.5002 23.0184 72.5002 24.3458V25.247C72.5002 26.5745 71.7574 27.2199 70.71 27.2199ZM75.4848 27.9385H76.4591V23.5786C76.4591 22.7748 77.2141 22.3851 77.9936 22.3851C78.9313 22.3851 79.4184 22.9575 79.4184 24.0779V27.9385H80.3927V23.9074C80.3927 22.3851 79.5768 21.5083 78.2859 21.5083C77.3481 21.5083 76.8123 21.971 76.5078 22.6774H76.4591V18.9264H75.4848V27.9385ZM85.1162 28.0846C86.7969 28.0846 87.9538 26.7937 87.9538 24.7964C87.9538 22.7992 86.7969 21.5083 85.1162 21.5083C83.4356 21.5083 82.2787 22.7992 82.2787 24.7964C82.2787 26.7937 83.4356 28.0846 85.1162 28.0846ZM85.1162 27.2199C84.0689 27.2199 83.326 26.5745 83.326 25.247V24.3458C83.326 23.0184 84.0689 22.3729 85.1162 22.3729C86.1636 22.3729 86.9065 23.0184 86.9065 24.3458V25.247C86.9065 26.5745 86.1636 27.2199 85.1162 27.2199ZM90.8653 27.9385V23.676C90.8653 23.0793 91.4986 22.6287 92.5459 22.6287H93.1183V21.6544H92.7408C91.7178 21.6544 91.1454 22.2146 90.9262 22.8114H90.8653V21.6544H89.891V27.9385H90.8653ZM97.3515 27.9385V27.086H96.0728V22.5069H97.4489V21.6544H96.0728V19.9129H95.1959V21.082C95.1959 21.5083 95.0619 21.6544 94.6479 21.6544H94.0633V22.5069H95.0985V26.9033C95.0985 27.5122 95.4638 27.9385 96.1336 27.9385H97.3515ZM105.084 27.9385L107.3 21.6544H106.362L105.242 24.7721L104.56 26.9155H104.499L103.817 24.7721L102.721 21.6544H101.747L103.951 27.9385H105.084ZM110.779 28.0846C112.217 28.0846 113.106 27.3417 113.106 26.1239C113.106 25.174 112.57 24.565 111.181 24.358L110.694 24.2849C109.915 24.1632 109.489 23.9196 109.489 23.3107C109.489 22.7139 109.915 22.3364 110.719 22.3364C111.522 22.3364 112.058 22.7139 112.338 23.1036L112.984 22.5191C112.472 21.8858 111.802 21.5083 110.792 21.5083C109.513 21.5083 108.551 22.1172 108.551 23.3594C108.551 24.5285 109.415 25.0035 110.572 25.174L111.072 25.247C111.9 25.3688 112.168 25.7464 112.168 26.2335C112.168 26.879 111.681 27.2565 110.853 27.2565C110.061 27.2565 109.476 26.9033 108.989 26.2944L108.295 26.8546C108.855 27.5975 109.623 28.0846 110.779 28.0846ZM119.495 27.9385V24.0901H123.185V23.1889H119.495V20.3391H123.538V19.4379H118.472V27.9385H119.495ZM129.076 27.9385H130.05V21.6544H129.076V26.0021C129.076 26.8302 128.321 27.2078 127.553 27.2078C126.616 27.2078 126.116 26.6354 126.116 25.515V21.6544H125.142V25.6855C125.142 27.2078 125.97 28.0846 127.261 28.0846C128.308 28.0846 128.783 27.5122 129.027 26.9155H129.076V27.9385ZM133.434 27.9385V23.5786C133.434 22.7748 134.189 22.3851 134.968 22.3851C135.906 22.3851 136.393 22.9575 136.393 24.0779V27.9385H137.367V23.9074C137.367 22.3851 136.551 21.5083 135.261 21.5083C134.323 21.5083 133.787 21.971 133.482 22.6774H133.434V21.6544H132.459V27.9385H133.434ZM143.735 27.9385H144.709V18.9264H143.735V22.6774H143.686C143.357 21.8858 142.712 21.5083 141.847 21.5083C140.276 21.5083 139.29 22.787 139.29 24.7964C139.29 26.8059 140.276 28.0846 141.847 28.0846C142.712 28.0846 143.309 27.6949 143.686 26.9155H143.735V27.9385ZM142.115 27.2078C141.019 27.2078 140.337 26.4527 140.337 25.3323V24.2606C140.337 23.1402 141.019 22.3851 142.115 22.3851C143.004 22.3851 143.735 22.8966 143.735 23.5908V25.929C143.735 26.745 143.004 27.2078 142.115 27.2078ZM147.603 20.1808C148.017 20.1808 148.199 19.9616 148.199 19.6328V19.4745C148.199 19.1456 148.017 18.9264 147.603 18.9264C147.189 18.9264 147.006 19.1456 147.006 19.4745V19.6328C147.006 19.9616 147.189 20.1808 147.603 20.1808ZM147.115 27.9385H148.09V21.6544H147.115V27.9385ZM151.469 27.9385V23.5786C151.469 22.7748 152.224 22.3851 153.004 22.3851C153.941 22.3851 154.429 22.9575 154.429 24.0779V27.9385H155.403V23.9074C155.403 22.3851 154.587 21.5083 153.296 21.5083C152.358 21.5083 151.822 21.971 151.518 22.6774H151.469V21.6544H150.495V27.9385H151.469ZM163.049 28.6326C163.049 27.5975 162.379 26.9642 160.821 26.9642H159.481C158.909 26.9642 158.519 26.8668 158.519 26.4892C158.519 26.0995 158.933 25.8925 159.347 25.7829C159.53 25.8194 159.749 25.8438 159.956 25.8438C161.393 25.8438 162.331 24.9548 162.331 23.676C162.331 23.0062 162.063 22.446 161.612 22.0563V21.6544H162.806V20.8019H161.868C161.344 20.8019 161.137 21.1551 161.137 21.6422V21.7518C160.796 21.5935 160.394 21.5083 159.944 21.5083C158.519 21.5083 157.581 22.3973 157.581 23.676C157.581 24.5529 158.02 25.247 158.762 25.6002V25.6489C158.129 25.8072 157.679 26.1117 157.679 26.745C157.679 27.1712 157.886 27.4513 158.239 27.6218V27.7558C157.618 27.9263 157.24 28.2917 157.24 28.9736C157.24 29.9601 158.044 30.5203 160.005 30.5203C162.026 30.5203 163.049 29.9236 163.049 28.6326ZM162.136 28.7057C162.136 29.3877 161.503 29.7287 160.419 29.7287H159.517C158.531 29.7287 158.154 29.2781 158.154 28.7301C158.154 28.3404 158.336 28.0603 158.738 27.8776H160.833C161.807 27.8776 162.136 28.2064 162.136 28.7057ZM159.956 25.0644C159.128 25.0644 158.604 24.6747 158.604 23.8465V23.5055C158.604 22.6774 159.128 22.2877 159.956 22.2877C160.784 22.2877 161.308 22.6774 161.308 23.5055V23.8465C161.308 24.6747 160.784 25.0644 159.956 25.0644Z" fill="#1F1F1F"/>
<g opacity="0.4">
<g opacity="0.8">
<rect x="37.1011" y="229.346" width="7.38155" height="7.38155" rx="3.69077" fill="#F2C94C"/>
</g>
</g>
<path d="M39.3151 247.276C40.5478 247.276 41.0866 246.294 41.0866 244.611C41.0866 242.928 40.5478 241.947 39.3151 241.947C38.0823 241.947 37.5435 242.928 37.5435 244.611C37.5435 246.294 38.0823 247.276 39.3151 247.276ZM39.3151 246.737C38.5105 246.737 38.1931 246.029 38.1931 245.032V244.191C38.1931 243.194 38.5105 242.485 39.3151 242.485C40.1196 242.485 40.437 243.194 40.437 244.191V245.032C40.437 246.029 40.1196 246.737 39.3151 246.737Z" fill="#212121"/>
<g opacity="0.8">
<rect x="78.002" y="229.346" width="7.38155" height="7.38155" rx="3.69077" fill="#F2C94C"/>
</g>
<path d="M82.0397 247.188V246.641H80.711V242.035H79.744L78.3784 243.312L78.7401 243.703L80.0393 242.493H80.0909V246.641H78.6515V247.188H82.0397Z" fill="#212121"/>
<rect x="118.904" y="229.346" width="7.38155" height="7.38155" rx="3.69077" fill="#E7AF07"/>
<path d="M122.838 246.642H120.129L121.516 245.395C122.173 244.804 122.646 244.243 122.646 243.446C122.646 242.568 122.07 241.948 121.066 241.948C120.07 241.948 119.612 242.553 119.413 243.158L119.966 243.372C120.107 242.885 120.402 242.501 121.037 242.501C121.671 242.501 121.989 242.892 121.989 243.461V243.549C121.989 244.044 121.62 244.561 121.14 245.004L119.457 246.554V247.188H122.838V246.642Z" fill="#212121"/>
<g opacity="0.16">
<rect x="159.805" y="229.346" width="7.38155" height="7.38155" rx="3.69077" fill="#E7AF07"/>
</g>
<path d="M161.171 244.095V244.634H161.776C162.499 244.634 162.883 244.981 162.883 245.586V245.645C162.883 246.251 162.499 246.597 161.776 246.597C161.149 246.597 160.846 246.324 160.58 245.918L160.115 246.273C160.433 246.716 160.89 247.151 161.783 247.151C162.832 247.151 163.533 246.538 163.533 245.653C163.533 244.878 163.001 244.464 162.448 244.353V244.324C162.994 244.184 163.437 243.785 163.437 243.121C163.437 242.287 162.743 241.822 161.872 241.822C161.045 241.822 160.595 242.25 160.337 242.663L160.794 243.017C161.008 242.626 161.326 242.375 161.857 242.375C162.403 242.375 162.78 242.648 162.78 243.187V243.239C162.78 243.733 162.426 244.095 161.732 244.095H161.171Z" fill="#212121"/>
<rect x="32.5337" y="50.4746" width="152.992" height="152.992" rx="76.4958" fill="#F2C94C"/>
<g style="mix-blend-mode:overlay">
<path d="M109.029 126.971H185.525C185.525 148.035 176.812 167.106 162.969 180.91L109.029 126.971Z" fill="#ACB9FF"/>
</g>
<g opacity="0.4">
<path d="M109.029 126.97H185.525C185.525 105.905 176.812 86.8346 162.969 73.0303L109.029 126.97Z" fill="#FFE597"/>
</g>
<path d="M109.029 126.971V50.4749C130.094 50.4749 149.164 59.1883 162.969 73.0313L109.029 126.971Z" fill="#FFE597"/>
</svg>
