<svg width="25" height="25" viewBox="0 0 37 36" fill="none" xmlns="http://www.w3.org/2000/svg">
<rect width="35.8718" height="35.8718" transform="translate(0.989258 0.0537109)" fill="white" fill-opacity="0.01"/>
<path fill-rule="evenodd" clip-rule="evenodd" d="M6.96777 7.54183C6.96777 6.70632 7.62991 6.03223 8.47738 6.03223H11.4368C12.2723 6.03223 12.9464 6.69436 12.9464 7.54183V10.5012C12.9464 11.3368 12.2843 12.0109 11.4368 12.0109H8.47738C7.64186 12.0109 6.96777 11.3487 6.96777 10.5012V7.54183ZM6.96777 16.5098C6.96777 15.6758 7.62991 15.0002 8.47738 15.0002H11.4368C12.2708 15.0002 12.9464 15.6623 12.9464 16.5098V19.4692C12.9464 20.3047 12.2843 20.9788 11.4368 20.9788H8.47738C7.64186 20.9788 6.96777 20.3167 6.96777 19.4692V16.5098ZM15.9357 7.54183C15.9357 6.70781 16.5978 6.03223 17.4453 6.03223H20.4047C21.2388 6.03223 21.9143 6.69436 21.9143 7.54183V10.5012C21.9143 11.3368 21.2522 12.0109 20.4047 12.0109H17.4453C16.6098 12.0109 15.9357 11.3487 15.9357 10.5012V7.54183ZM15.9357 16.5098C15.9357 15.6758 16.5978 15.0002 17.4453 15.0002H20.4047C21.2388 15.0002 21.9143 15.6623 21.9143 16.5098V19.4692C21.9143 20.3032 21.2522 20.9788 20.4047 20.9788H17.4453C16.6113 20.9788 15.9357 20.3167 15.9357 19.4692V16.5098ZM24.9037 7.54183C24.9037 6.70781 25.5658 6.03223 26.4133 6.03223H29.3727C30.2067 6.03223 30.8823 6.69436 30.8823 7.54183V10.5012C30.8823 11.3368 30.2201 12.0109 29.3727 12.0109H26.4133C25.5777 12.0109 24.9037 11.3487 24.9037 10.5012V7.54183ZM24.9037 16.5098C24.9037 15.6758 25.5658 15.0002 26.4133 15.0002H29.3727C30.2067 15.0002 30.8823 15.6623 30.8823 16.5098V19.4692C30.8823 20.3032 30.2201 20.9788 29.3727 20.9788H26.4133C25.5792 20.9788 24.9037 20.3167 24.9037 19.4692V16.5098ZM6.96777 25.4777C6.96777 24.6437 7.62991 23.9681 8.47738 23.9681H11.4368C12.2708 23.9681 12.9464 24.6302 12.9464 25.4777V28.4371C12.9464 29.2726 12.2843 29.9467 11.4368 29.9467H8.47738C7.64186 29.9467 6.96777 29.2846 6.96777 28.4371V25.4777ZM15.9357 25.4777C15.9357 24.6437 16.5978 23.9681 17.4453 23.9681H20.4047C21.2388 23.9681 21.9143 24.6302 21.9143 25.4777V28.4371C21.9143 29.2711 21.2522 29.9467 20.4047 29.9467H17.4453C16.6113 29.9467 15.9357 29.2846 15.9357 28.4371V25.4777ZM24.9037 25.4777C24.9037 24.6437 25.5658 23.9681 26.4133 23.9681H29.3727C30.2067 23.9681 30.8823 24.6302 30.8823 25.4777V28.4371C30.8823 29.2711 30.2201 29.9467 29.3727 29.9467H26.4133C25.5792 29.9467 24.9037 29.2846 24.9037 28.4371V25.4777Z" fill="#626262"/>
</svg>
