<svg width="227" height="272" viewBox="0 0 227 272" fill="none" xmlns="http://www.w3.org/2000/svg">
<rect x="0.850586" y="0.993164" width="225.301" height="270.209" rx="3.80576" fill="white" stroke="#E5E5E5" stroke-width="0.761153"/>
<path d="M23.6 27.9316L20.6285 19.4311H19.3254L16.3538 27.9316H17.389L18.2415 25.4229H21.6758L22.5283 27.9316H23.6ZM21.4201 24.5217H18.4851L19.9221 20.381H19.983L21.4201 24.5217ZM27.1333 28.0778C28.5703 28.0778 29.4594 27.3349 29.4594 26.1171C29.4594 25.1671 28.9235 24.5582 27.5352 24.3512L27.048 24.2781C26.2686 24.1563 25.8424 23.9128 25.8424 23.3038C25.8424 22.7071 26.2686 22.3296 27.0724 22.3296C27.8762 22.3296 28.412 22.7071 28.6921 23.0968L29.3376 22.5122C28.8261 21.879 28.1563 21.5014 27.1455 21.5014C25.8667 21.5014 24.9046 22.1103 24.9046 23.3525C24.9046 24.5217 25.7693 24.9966 26.9262 25.1671L27.4256 25.2402C28.2537 25.362 28.5216 25.7395 28.5216 26.2267C28.5216 26.8721 28.0345 27.2496 27.2063 27.2496C26.4148 27.2496 25.8302 26.8965 25.343 26.2876L24.6489 26.8478C25.2091 27.5906 25.9763 28.0778 27.1333 28.0778ZM33.3314 28.0778C34.7685 28.0778 35.6575 27.3349 35.6575 26.1171C35.6575 25.1671 35.1217 24.5582 33.7333 24.3512L33.2462 24.2781C32.4668 24.1563 32.0405 23.9128 32.0405 23.3038C32.0405 22.7071 32.4668 22.3296 33.2705 22.3296C34.0743 22.3296 34.6102 22.7071 34.8903 23.0968L35.5357 22.5122C35.0242 21.879 34.3544 21.5014 33.3436 21.5014C32.0649 21.5014 31.1028 22.1103 31.1028 23.3525C31.1028 24.5217 31.9675 24.9966 33.1244 25.1671L33.6237 25.2402C34.4519 25.362 34.7198 25.7395 34.7198 26.2267C34.7198 26.8721 34.2326 27.2496 33.4045 27.2496C32.6129 27.2496 32.0283 26.8965 31.5412 26.2876L30.847 26.8478C31.4072 27.5906 32.1745 28.0778 33.3314 28.0778ZM38.2004 20.174C38.6145 20.174 38.7972 19.9548 38.7972 19.6259V19.4676C38.7972 19.1388 38.6145 18.9196 38.2004 18.9196C37.7864 18.9196 37.6037 19.1388 37.6037 19.4676V19.6259C37.6037 19.9548 37.7864 20.174 38.2004 20.174ZM37.7133 27.9316H38.6876V21.6476H37.7133V27.9316ZM46.3904 28.6258C46.3904 27.5906 45.7206 26.9574 44.1618 26.9574H42.8222C42.2498 26.9574 41.8601 26.8599 41.8601 26.4824C41.8601 26.0927 42.2741 25.8857 42.6882 25.7761C42.8709 25.8126 43.0901 25.8369 43.2971 25.8369C44.7342 25.8369 45.6719 24.9479 45.6719 23.6692C45.6719 22.9994 45.404 22.4392 44.9534 22.0495V21.6476H46.1469V20.7951H45.2091C44.6855 20.7951 44.4784 21.1482 44.4784 21.6354V21.745C44.1374 21.5867 43.7355 21.5014 43.2849 21.5014C41.8601 21.5014 40.9223 22.3904 40.9223 23.6692C40.9223 24.546 41.3607 25.2402 42.1036 25.5934V25.6421C41.4703 25.8004 41.0197 26.1049 41.0197 26.7382C41.0197 27.1644 41.2268 27.4445 41.58 27.615V27.749C40.9589 27.9195 40.5813 28.2848 40.5813 28.9668C40.5813 29.9533 41.3851 30.5135 43.3458 30.5135C45.3675 30.5135 46.3904 29.9167 46.3904 28.6258ZM45.4771 28.6989C45.4771 29.3809 44.8438 29.7219 43.7599 29.7219H42.8587C41.8722 29.7219 41.4947 29.2713 41.4947 28.7232C41.4947 28.3335 41.6774 28.0534 42.0793 27.8707H44.174C45.1482 27.8707 45.4771 28.1996 45.4771 28.6989ZM43.2971 25.0575C42.469 25.0575 41.9453 24.6678 41.9453 23.8397V23.4987C41.9453 22.6706 42.469 22.2808 43.2971 22.2808C44.1252 22.2808 44.6489 22.6706 44.6489 23.4987V23.8397C44.6489 24.6678 44.1252 25.0575 43.2971 25.0575ZM48.8361 27.9316V23.5718C48.8361 22.768 49.5912 22.3783 50.3706 22.3783C51.3083 22.3783 51.7955 22.9507 51.7955 24.0711V27.9316H52.7698V23.9006C52.7698 22.3783 51.9538 21.5014 50.6629 21.5014C49.7251 21.5014 49.1893 21.9642 48.8848 22.6706H48.8361V21.6476H47.8618V27.9316H48.8361ZM57.4811 28.0778C58.6624 28.0778 59.5636 27.4932 59.9655 26.6407L59.2713 26.1414C58.9425 26.8356 58.3336 27.2253 57.542 27.2253C56.3729 27.2253 55.6787 26.4093 55.6787 25.3255V25.0332H60.1969V24.5704C60.1969 22.7923 59.1617 21.5014 57.4811 21.5014C55.7761 21.5014 54.6557 22.7923 54.6557 24.7896C54.6557 26.7869 55.7761 28.0778 57.4811 28.0778ZM57.4811 22.3174C58.4797 22.3174 59.1495 23.0603 59.1495 24.1685V24.3025H55.6787V24.2172C55.6787 23.1212 56.4216 22.3174 57.4811 22.3174ZM66.1561 27.9316H67.1304V18.9196H66.1561V22.6706H66.1074C65.7786 21.879 65.1332 21.5014 64.2685 21.5014C62.6975 21.5014 61.711 22.7802 61.711 24.7896C61.711 26.799 62.6975 28.0778 64.2685 28.0778C65.1332 28.0778 65.7299 27.6881 66.1074 26.9087H66.1561V27.9316ZM64.5364 27.2009C63.4404 27.2009 62.7584 26.4459 62.7584 25.3255V24.2538C62.7584 23.1333 63.4404 22.3783 64.5364 22.3783C65.4254 22.3783 66.1561 22.8898 66.1561 23.5839V25.9222C66.1561 26.7382 65.4254 27.2009 64.5364 27.2009ZM75.2706 27.9316L77.487 21.6476H76.5493L75.4289 24.7652L74.7469 26.9087H74.686L74.004 24.7652L72.9079 21.6476H71.9337L74.138 27.9316H75.2706ZM80.9663 28.0778C82.4033 28.0778 83.2924 27.3349 83.2924 26.1171C83.2924 25.1671 82.7565 24.5582 81.3682 24.3512L80.881 24.2781C80.1016 24.1563 79.6754 23.9128 79.6754 23.3038C79.6754 22.7071 80.1016 22.3296 80.9054 22.3296C81.7092 22.3296 82.245 22.7071 82.5251 23.0968L83.1706 22.5122C82.6591 21.879 81.9893 21.5014 80.9785 21.5014C79.6997 21.5014 78.7376 22.1103 78.7376 23.3525C78.7376 24.5217 79.6023 24.9966 80.7592 25.1671L81.2586 25.2402C82.0867 25.362 82.3546 25.7395 82.3546 26.2267C82.3546 26.8721 81.8675 27.2496 81.0393 27.2496C80.2477 27.2496 79.6632 26.8965 79.176 26.2876L78.4819 26.8478C79.0421 27.5906 79.8093 28.0778 80.9663 28.0778ZM93.8222 27.9316H95.0035V19.4311H94.0049V26.5068H93.9684L92.9454 24.6191L89.8399 19.4311H88.6586V27.9316H89.6572V20.856H89.6937L90.7167 22.7436L93.8222 27.9316ZM99.8814 28.0778C101.562 28.0778 102.719 26.7869 102.719 24.7896C102.719 22.7923 101.562 21.5014 99.8814 21.5014C98.2008 21.5014 97.0438 22.7923 97.0438 24.7896C97.0438 26.7869 98.2008 28.0778 99.8814 28.0778ZM99.8814 27.2131C98.834 27.2131 98.0912 26.5677 98.0912 25.2402V24.339C98.0912 23.0115 98.834 22.3661 99.8814 22.3661C100.929 22.3661 101.672 23.0115 101.672 24.339V25.2402C101.672 26.5677 100.929 27.2131 99.8814 27.2131ZM107.262 27.9316V27.0791H105.984V22.5001H107.36V21.6476H105.984V19.906H105.107V21.0752C105.107 21.5014 104.973 21.6476 104.559 21.6476H103.974V22.5001H105.009V26.8965C105.009 27.5054 105.375 27.9316 106.045 27.9316H107.262ZM118.965 27.9316L115.993 19.4311H114.69L111.719 27.9316H112.754L113.606 25.4229H117.041L117.893 27.9316H118.965ZM116.785 24.5217H113.85L115.287 20.381H115.348L116.785 24.5217ZM122.498 28.0778C123.935 28.0778 124.824 27.3349 124.824 26.1171C124.824 25.1671 124.288 24.5582 122.9 24.3512L122.413 24.2781C121.633 24.1563 121.207 23.9128 121.207 23.3038C121.207 22.7071 121.633 22.3296 122.437 22.3296C123.241 22.3296 123.777 22.7071 124.057 23.0968L124.702 22.5122C124.191 21.879 123.521 21.5014 122.51 21.5014C121.232 21.5014 120.269 22.1103 120.269 23.3525C120.269 24.5217 121.134 24.9966 122.291 25.1671L122.79 25.2402C123.619 25.362 123.886 25.7395 123.886 26.2267C123.886 26.8721 123.399 27.2496 122.571 27.2496C121.78 27.2496 121.195 26.8965 120.708 26.2876L120.014 26.8478C120.574 27.5906 121.341 28.0778 122.498 28.0778ZM128.696 28.0778C130.133 28.0778 131.022 27.3349 131.022 26.1171C131.022 25.1671 130.486 24.5582 129.098 24.3512L128.611 24.2781C127.832 24.1563 127.405 23.9128 127.405 23.3038C127.405 22.7071 127.832 22.3296 128.635 22.3296C129.439 22.3296 129.975 22.7071 130.255 23.0968L130.901 22.5122C130.389 21.879 129.719 21.5014 128.708 21.5014C127.43 21.5014 126.468 22.1103 126.468 23.3525C126.468 24.5217 127.332 24.9966 128.489 25.1671L128.989 25.2402C129.817 25.362 130.085 25.7395 130.085 26.2267C130.085 26.8721 129.597 27.2496 128.769 27.2496C127.978 27.2496 127.393 26.8965 126.906 26.2876L126.212 26.8478C126.772 27.5906 127.539 28.0778 128.696 28.0778ZM133.565 20.174C133.979 20.174 134.162 19.9548 134.162 19.6259V19.4676C134.162 19.1388 133.979 18.9196 133.565 18.9196C133.151 18.9196 132.969 19.1388 132.969 19.4676V19.6259C132.969 19.9548 133.151 20.174 133.565 20.174ZM133.078 27.9316H134.052V21.6476H133.078V27.9316ZM141.755 28.6258C141.755 27.5906 141.085 26.9574 139.527 26.9574H138.187C137.615 26.9574 137.225 26.8599 137.225 26.4824C137.225 26.0927 137.639 25.8857 138.053 25.7761C138.236 25.8126 138.455 25.8369 138.662 25.8369C140.099 25.8369 141.037 24.9479 141.037 23.6692C141.037 22.9994 140.769 22.4392 140.318 22.0495V21.6476H141.512V20.7951H140.574C140.05 20.7951 139.843 21.1482 139.843 21.6354V21.745C139.502 21.5867 139.1 21.5014 138.65 21.5014C137.225 21.5014 136.287 22.3904 136.287 23.6692C136.287 24.546 136.726 25.2402 137.468 25.5934V25.6421C136.835 25.8004 136.385 26.1049 136.385 26.7382C136.385 27.1644 136.592 27.4445 136.945 27.615V27.749C136.324 27.9195 135.946 28.2848 135.946 28.9668C135.946 29.9533 136.75 30.5135 138.711 30.5135C140.732 30.5135 141.755 29.9167 141.755 28.6258ZM140.842 28.6989C140.842 29.3809 140.209 29.7219 139.125 29.7219H138.224C137.237 29.7219 136.86 29.2713 136.86 28.7232C136.86 28.3335 137.042 28.0534 137.444 27.8707H139.539C140.513 27.8707 140.842 28.1996 140.842 28.6989ZM138.662 25.0575C137.834 25.0575 137.31 24.6678 137.31 23.8397V23.4987C137.31 22.6706 137.834 22.2808 138.662 22.2808C139.49 22.2808 140.014 22.6706 140.014 23.4987V23.8397C140.014 24.6678 139.49 25.0575 138.662 25.0575ZM144.201 27.9316V23.5718C144.201 22.768 144.956 22.3783 145.735 22.3783C146.673 22.3783 147.16 22.9507 147.16 24.0711V27.9316H148.135V23.9006C148.135 22.3783 147.319 21.5014 146.028 21.5014C145.09 21.5014 144.554 21.9642 144.25 22.6706H144.201V21.6476H143.227V27.9316H144.201ZM152.846 28.0778C154.027 28.0778 154.928 27.4932 155.33 26.6407L154.636 26.1414C154.307 26.8356 153.698 27.2253 152.907 27.2253C151.738 27.2253 151.043 26.4093 151.043 25.3255V25.0332H155.562V24.5704C155.562 22.7923 154.527 21.5014 152.846 21.5014C151.141 21.5014 150.021 22.7923 150.021 24.7896C150.021 26.7869 151.141 28.0778 152.846 28.0778ZM152.846 22.3174C153.845 22.3174 154.514 23.0603 154.514 24.1685V24.3025H151.043V24.2172C151.043 23.1212 151.786 22.3174 152.846 22.3174ZM161.521 27.9316H162.495V18.9196H161.521V22.6706H161.472C161.143 21.879 160.498 21.5014 159.633 21.5014C158.062 21.5014 157.076 22.7802 157.076 24.7896C157.076 26.799 158.062 28.0778 159.633 28.0778C160.498 28.0778 161.095 27.6881 161.472 26.9087H161.521V27.9316ZM159.901 27.2009C158.805 27.2009 158.123 26.4459 158.123 25.3255V24.2538C158.123 23.1333 158.805 22.3783 159.901 22.3783C160.79 22.3783 161.521 22.8898 161.521 23.5839V25.9222C161.521 26.7382 160.79 27.2009 159.901 27.2009Z" fill="#1F1F1F"/>
<g opacity="0.8">
<rect x="70.877" y="229.339" width="7.38155" height="7.38155" rx="3.69077" fill="#F2C94C"/>
</g>
<path d="M75.4385 247.234L73.6374 242.082H72.8476L71.0465 247.234H71.6739L72.1906 245.714H74.2722L74.7889 247.234H75.4385ZM74.1172 245.168H72.3383L73.2093 242.658H73.2462L74.1172 245.168ZM77.6231 247.323C78.4942 247.323 79.033 246.873 79.033 246.135C79.033 245.559 78.7082 245.19 77.8667 245.064L77.5715 245.02C77.099 244.946 76.8407 244.798 76.8407 244.429C76.8407 244.068 77.099 243.839 77.5862 243.839C78.0734 243.839 78.3982 244.068 78.568 244.304L78.9592 243.95C78.6492 243.566 78.2432 243.337 77.6305 243.337C76.8555 243.337 76.2723 243.706 76.2723 244.459C76.2723 245.168 76.7964 245.455 77.4977 245.559L77.8003 245.603C78.3022 245.677 78.4646 245.906 78.4646 246.201C78.4646 246.592 78.1694 246.821 77.6674 246.821C77.1876 246.821 76.8333 246.607 76.538 246.238L76.1173 246.577C76.4569 247.028 76.9219 247.323 77.6231 247.323ZM81.423 247.323C82.294 247.323 82.8329 246.873 82.8329 246.135C82.8329 245.559 82.5081 245.19 81.6666 245.064L81.3713 245.02C80.8989 244.946 80.6406 244.798 80.6406 244.429C80.6406 244.068 80.8989 243.839 81.3861 243.839C81.8733 243.839 82.1981 244.068 82.3678 244.304L82.7591 243.95C82.449 243.566 82.0431 243.337 81.4304 243.337C80.6553 243.337 80.0722 243.706 80.0722 244.459C80.0722 245.168 80.5963 245.455 81.2975 245.559L81.6002 245.603C82.1021 245.677 82.2645 245.906 82.2645 246.201C82.2645 246.592 81.9692 246.821 81.4673 246.821C80.9875 246.821 80.6332 246.607 80.3379 246.238L79.9172 246.577C80.2567 247.028 80.7218 247.323 81.423 247.323ZM84.4172 242.532C84.6682 242.532 84.7789 242.399 84.7789 242.2V242.104C84.7789 241.905 84.6682 241.772 84.4172 241.772C84.1663 241.772 84.0555 241.905 84.0555 242.104V242.2C84.0555 242.399 84.1663 242.532 84.4172 242.532ZM84.122 247.234H84.7125V243.425H84.122V247.234ZM89.4244 247.655C89.4244 247.028 89.0184 246.644 88.0736 246.644H87.2616C86.9147 246.644 86.6785 246.585 86.6785 246.356C86.6785 246.12 86.9294 245.994 87.1804 245.928C87.2911 245.95 87.424 245.965 87.5495 245.965C88.4205 245.965 88.9889 245.426 88.9889 244.651C88.9889 244.245 88.8265 243.905 88.5534 243.669V243.425H89.2768V242.909H88.7084C88.391 242.909 88.2655 243.123 88.2655 243.418V243.485C88.0588 243.389 87.8152 243.337 87.5421 243.337C86.6785 243.337 86.1101 243.876 86.1101 244.651C86.1101 245.182 86.3758 245.603 86.8261 245.817V245.847C86.4422 245.943 86.1691 246.127 86.1691 246.511C86.1691 246.769 86.2946 246.939 86.5087 247.042V247.124C86.1322 247.227 85.9034 247.448 85.9034 247.862C85.9034 248.46 86.3906 248.799 87.579 248.799C88.8043 248.799 89.4244 248.438 89.4244 247.655ZM88.8708 247.699C88.8708 248.113 88.4869 248.319 87.83 248.319H87.2837C86.6858 248.319 86.457 248.046 86.457 247.714C86.457 247.478 86.5677 247.308 86.8113 247.197H88.0809C88.6715 247.197 88.8708 247.397 88.8708 247.699ZM87.5495 245.492C87.0475 245.492 86.7301 245.256 86.7301 244.754V244.547C86.7301 244.046 87.0475 243.809 87.5495 243.809C88.0514 243.809 88.3688 244.046 88.3688 244.547V244.754C88.3688 245.256 88.0514 245.492 87.5495 245.492ZM90.9498 247.234V244.592C90.9498 244.105 91.4075 243.868 91.8799 243.868C92.4483 243.868 92.7435 244.215 92.7435 244.894V247.234H93.3341V244.791C93.3341 243.868 92.8395 243.337 92.057 243.337C91.4887 243.337 91.1639 243.617 90.9793 244.046H90.9498V243.425H90.3593V247.234H90.9498ZM96.2327 247.323C96.9487 247.323 97.495 246.969 97.7386 246.452L97.3178 246.149C97.1185 246.57 96.7494 246.806 96.2696 246.806C95.561 246.806 95.1403 246.312 95.1403 245.655V245.478H97.8788V245.197C97.8788 244.119 97.2514 243.337 96.2327 243.337C95.1993 243.337 94.5202 244.119 94.5202 245.33C94.5202 246.541 95.1993 247.323 96.2327 247.323ZM96.2327 243.831C96.838 243.831 97.244 244.282 97.244 244.953V245.035H95.1403V244.983C95.1403 244.319 95.5905 243.831 96.2327 243.831ZM101.534 247.234H102.124V241.772H101.534V244.046H101.504C101.305 243.566 100.914 243.337 100.39 243.337C99.4375 243.337 98.8396 244.112 98.8396 245.33C98.8396 246.548 99.4375 247.323 100.39 247.323C100.914 247.323 101.276 247.087 101.504 246.614H101.534V247.234ZM100.552 246.791C99.8878 246.791 99.4744 246.334 99.4744 245.655V245.005C99.4744 244.326 99.8878 243.868 100.552 243.868C101.091 243.868 101.534 244.178 101.534 244.599V246.016C101.534 246.511 101.091 246.791 100.552 246.791Z" fill="#373737"/>
<rect x="120.31" y="229.339" width="7.38155" height="7.38155" rx="3.69077" fill="#E7AF07"/>
<path d="M124.169 247.234H124.885V242.082H124.279V246.371H124.257L123.637 245.227L121.755 242.082H121.039V247.234H121.644V242.946H121.666L122.286 244.09L124.169 247.234ZM127.884 247.323C128.903 247.323 129.604 246.541 129.604 245.33C129.604 244.119 128.903 243.337 127.884 243.337C126.866 243.337 126.164 244.119 126.164 245.33C126.164 246.541 126.866 247.323 127.884 247.323ZM127.884 246.799C127.249 246.799 126.799 246.408 126.799 245.603V245.057C126.799 244.252 127.249 243.861 127.884 243.861C128.519 243.861 128.969 244.252 128.969 245.057V245.603C128.969 246.408 128.519 246.799 127.884 246.799ZM132.401 247.234V246.718H131.626V243.942H132.46V243.425H131.626V242.37H131.094V243.079C131.094 243.337 131.013 243.425 130.762 243.425H130.408V243.942H131.035V246.607C131.035 246.976 131.257 247.234 131.663 247.234H132.401ZM139.58 247.234L137.779 242.082H136.989L135.188 247.234H135.816L136.332 245.714H138.414L138.931 247.234H139.58ZM138.259 245.168H136.48L137.351 242.658H137.388L138.259 245.168ZM141.765 247.323C142.636 247.323 143.175 246.873 143.175 246.135C143.175 245.559 142.85 245.19 142.008 245.064L141.713 245.02C141.241 244.946 140.982 244.798 140.982 244.429C140.982 244.068 141.241 243.839 141.728 243.839C142.215 243.839 142.54 244.068 142.71 244.304L143.101 243.95C142.791 243.566 142.385 243.337 141.772 243.337C140.997 243.337 140.414 243.706 140.414 244.459C140.414 245.168 140.938 245.455 141.639 245.559L141.942 245.603C142.444 245.677 142.606 245.906 142.606 246.201C142.606 246.592 142.311 246.821 141.809 246.821C141.329 246.821 140.975 246.607 140.68 246.238L140.259 246.577C140.598 247.028 141.063 247.323 141.765 247.323ZM145.565 247.323C146.436 247.323 146.974 246.873 146.974 246.135C146.974 245.559 146.65 245.19 145.808 245.064L145.513 245.02C145.041 244.946 144.782 244.798 144.782 244.429C144.782 244.068 145.041 243.839 145.528 243.839C146.015 243.839 146.34 244.068 146.509 244.304L146.901 243.95C146.591 243.566 146.185 243.337 145.572 243.337C144.797 243.337 144.214 243.706 144.214 244.459C144.214 245.168 144.738 245.455 145.439 245.559L145.742 245.603C146.244 245.677 146.406 245.906 146.406 246.201C146.406 246.592 146.111 246.821 145.609 246.821C145.129 246.821 144.775 246.607 144.48 246.238L144.059 246.577C144.398 247.028 144.863 247.323 145.565 247.323ZM148.559 242.532C148.81 242.532 148.921 242.399 148.921 242.2V242.104C148.921 241.905 148.81 241.772 148.559 241.772C148.308 241.772 148.197 241.905 148.197 242.104V242.2C148.197 242.399 148.308 242.532 148.559 242.532ZM148.264 247.234H148.854V243.425H148.264V247.234ZM153.566 247.655C153.566 247.028 153.16 246.644 152.215 246.644H151.403C151.056 246.644 150.82 246.585 150.82 246.356C150.82 246.12 151.071 245.994 151.322 245.928C151.433 245.95 151.566 245.965 151.691 245.965C152.562 245.965 153.13 245.426 153.13 244.651C153.13 244.245 152.968 243.905 152.695 243.669V243.425H153.418V242.909H152.85C152.533 242.909 152.407 243.123 152.407 243.418V243.485C152.2 243.389 151.957 243.337 151.684 243.337C150.82 243.337 150.252 243.876 150.252 244.651C150.252 245.182 150.517 245.603 150.968 245.817V245.847C150.584 245.943 150.311 246.127 150.311 246.511C150.311 246.769 150.436 246.939 150.65 247.042V247.124C150.274 247.227 150.045 247.448 150.045 247.862C150.045 248.46 150.532 248.799 151.721 248.799C152.946 248.799 153.566 248.438 153.566 247.655ZM153.012 247.699C153.012 248.113 152.629 248.319 151.972 248.319H151.425C150.827 248.319 150.599 248.046 150.599 247.714C150.599 247.478 150.709 247.308 150.953 247.197H152.223C152.813 247.197 153.012 247.397 153.012 247.699ZM151.691 245.492C151.189 245.492 150.872 245.256 150.872 244.754V244.547C150.872 244.046 151.189 243.809 151.691 243.809C152.193 243.809 152.51 244.046 152.51 244.547V244.754C152.51 245.256 152.193 245.492 151.691 245.492ZM155.091 247.234V244.592C155.091 244.105 155.549 243.868 156.021 243.868C156.59 243.868 156.885 244.215 156.885 244.894V247.234H157.476V244.791C157.476 243.868 156.981 243.337 156.199 243.337C155.63 243.337 155.305 243.617 155.121 244.046H155.091V243.425H154.501V247.234H155.091ZM160.374 247.323C161.09 247.323 161.637 246.969 161.88 246.452L161.459 246.149C161.26 246.57 160.891 246.806 160.411 246.806C159.703 246.806 159.282 246.312 159.282 245.655V245.478H162.02V245.197C162.02 244.119 161.393 243.337 160.374 243.337C159.341 243.337 158.662 244.119 158.662 245.33C158.662 246.541 159.341 247.323 160.374 247.323ZM160.374 243.831C160.98 243.831 161.386 244.282 161.386 244.953V245.035H159.282V244.983C159.282 244.319 159.732 243.831 160.374 243.831ZM165.675 247.234H166.266V241.772H165.675V244.046H165.646C165.447 243.566 165.055 243.337 164.531 243.337C163.579 243.337 162.981 244.112 162.981 245.33C162.981 246.548 163.579 247.323 164.531 247.323C165.055 247.323 165.417 247.087 165.646 246.614H165.675V247.234ZM164.694 246.791C164.029 246.791 163.616 246.334 163.616 245.655V245.005C163.616 244.326 164.029 243.868 164.694 243.868C165.233 243.868 165.675 244.178 165.675 244.599V246.016C165.675 246.511 165.233 246.791 164.694 246.791Z" fill="#373737"/>
<rect x="32.8188" y="50.4678" width="152.992" height="152.992" rx="76.4958" fill="#F2C94C"/>
<g style="mix-blend-mode:overlay">
<path d="M109.315 126.964H185.811C185.811 148.029 177.097 167.099 163.254 180.903L109.315 126.964Z" fill="#ACB9FF"/>
</g>
<g opacity="0.4">
<path d="M109.315 126.963H185.811C185.811 105.898 177.097 86.8277 163.254 73.0234L109.315 126.963Z" fill="#FFE597"/>
</g>
<path d="M109.315 126.964V50.468C130.379 50.468 149.45 59.1815 163.254 73.0245L109.315 126.964Z" fill="#FFE597"/>
</svg>
