<svg width="30" height="32" viewBox="0 0 30 32" fill="none" xmlns="http://www.w3.org/2000/svg">
<path d="M1.9375 30.1758C1.9375 30.8326 2.46816 31.3633 3.125 31.3633H13.7383V17.4102H1.9375V30.1758ZM16.2617 31.3633H26.875C27.5318 31.3633 28.0625 30.8326 28.0625 30.1758V17.4102H16.2617V31.3633ZM28.6562 8.50391H23.1789C23.6836 7.70977 23.9805 6.76719 23.9805 5.75781C23.9805 2.93379 21.6834 0.636719 18.8594 0.636719C17.323 0.636719 15.9389 1.31953 15 2.3957C14.0611 1.31953 12.677 0.636719 11.1406 0.636719C8.3166 0.636719 6.01953 2.93379 6.01953 5.75781C6.01953 6.76719 6.3127 7.70977 6.82109 8.50391H1.34375C0.686914 8.50391 0.15625 9.03457 0.15625 9.69141V14.8867H13.7383V8.50391H16.2617V14.8867H29.8438V9.69141C29.8438 9.03457 29.3131 8.50391 28.6562 8.50391ZM13.7383 8.35547H11.1406C9.7082 8.35547 8.54297 7.19023 8.54297 5.75781C8.54297 4.32539 9.7082 3.16016 11.1406 3.16016C12.573 3.16016 13.7383 4.32539 13.7383 5.75781V8.35547ZM18.8594 8.35547H16.2617V5.75781C16.2617 4.32539 17.427 3.16016 18.8594 3.16016C20.2918 3.16016 21.457 4.32539 21.457 5.75781C21.457 7.19023 20.2918 8.35547 18.8594 8.35547Z" fill="#3AA959"/>
</svg>
