<svg width="710" height="312" viewBox="0 0 710 312" fill="none" xmlns="http://www.w3.org/2000/svg">
<line x1="683.821" y1="265.831" x2="683.821" y2="273.882" stroke="#ECECEE" stroke-width="1.31907" stroke-linecap="round" stroke-linejoin="round"/>
<path d="M664.912 286.244C664.912 285.336 665.06 284.629 665.355 284.123C665.651 283.611 666.168 283.355 666.907 283.355C667.64 283.355 668.154 283.611 668.45 284.123C668.745 284.629 668.893 285.336 668.893 286.244C668.893 287.167 668.745 287.885 668.45 288.396C668.154 288.908 667.64 289.164 666.907 289.164C666.168 289.164 665.651 288.908 665.355 288.396C665.06 287.885 664.912 287.167 664.912 286.244ZM668.181 286.244C668.181 285.785 668.149 285.397 668.086 285.08C668.028 284.758 667.904 284.5 667.714 284.305C667.529 284.109 667.26 284.012 666.907 284.012C666.548 284.012 666.273 284.109 666.083 284.305C665.899 284.5 665.775 284.758 665.711 285.08C665.653 285.397 665.624 285.785 665.624 286.244C665.624 286.719 665.653 287.117 665.711 287.439C665.775 287.761 665.899 288.019 666.083 288.214C666.273 288.41 666.548 288.507 666.907 288.507C667.26 288.507 667.529 288.41 667.714 288.214C667.904 288.019 668.028 287.761 668.086 287.439C668.149 287.117 668.181 286.719 668.181 286.244ZM669.866 284.882C669.903 284.397 670.09 284.017 670.428 283.743C670.766 283.468 671.204 283.331 671.742 283.331C672.1 283.331 672.409 283.397 672.668 283.529C672.931 283.656 673.129 283.83 673.261 284.051C673.398 284.273 673.467 284.524 673.467 284.803C673.467 285.13 673.372 285.413 673.182 285.65C672.997 285.887 672.755 286.04 672.454 286.109V286.149C672.797 286.233 673.069 286.399 673.269 286.647C673.47 286.895 673.57 287.22 673.57 287.621C673.57 287.921 673.501 288.193 673.364 288.436C673.227 288.673 673.021 288.861 672.747 288.998C672.472 289.135 672.143 289.204 671.758 289.204C671.198 289.204 670.739 289.059 670.38 288.768C670.022 288.473 669.821 288.056 669.779 287.518H670.475C670.512 287.834 670.642 288.093 670.863 288.293C671.085 288.494 671.38 288.594 671.75 288.594C672.119 288.594 672.399 288.499 672.589 288.309C672.784 288.114 672.881 287.863 672.881 287.557C672.881 287.162 672.749 286.877 672.486 286.703C672.222 286.529 671.823 286.441 671.291 286.441H671.109V285.84H671.298C671.784 285.835 672.151 285.756 672.399 285.603C672.647 285.444 672.771 285.202 672.771 284.874C672.771 284.595 672.678 284.371 672.494 284.202C672.314 284.033 672.056 283.948 671.718 283.948C671.391 283.948 671.127 284.033 670.926 284.202C670.726 284.371 670.607 284.597 670.57 284.882H669.866ZM674.891 289.212C674.753 289.212 674.637 289.164 674.542 289.069C674.447 288.974 674.4 288.858 674.4 288.721C674.4 288.584 674.447 288.468 674.542 288.373C674.637 288.278 674.753 288.23 674.891 288.23C675.022 288.23 675.133 288.278 675.223 288.373C675.318 288.468 675.365 288.584 675.365 288.721C675.365 288.858 675.318 288.974 675.223 289.069C675.133 289.164 675.022 289.212 674.891 289.212ZM674.891 285.824C674.753 285.824 674.637 285.777 674.542 285.682C674.447 285.587 674.4 285.471 674.4 285.333C674.4 285.196 674.447 285.08 674.542 284.985C674.637 284.89 674.753 284.843 674.891 284.843C675.022 284.843 675.133 284.89 675.223 284.985C675.318 285.08 675.365 285.196 675.365 285.333C675.365 285.471 675.318 285.587 675.223 285.682C675.133 285.777 675.022 285.824 674.891 285.824ZM676.211 284.882C676.248 284.397 676.436 284.017 676.773 283.743C677.111 283.468 677.549 283.331 678.087 283.331C678.446 283.331 678.755 283.397 679.013 283.529C679.277 283.656 679.475 283.83 679.607 284.051C679.744 284.273 679.812 284.524 679.812 284.803C679.812 285.13 679.718 285.413 679.528 285.65C679.343 285.887 679.1 286.04 678.799 286.109V286.149C679.142 286.233 679.414 286.399 679.615 286.647C679.815 286.895 679.915 287.22 679.915 287.621C679.915 287.921 679.847 288.193 679.71 288.436C679.572 288.673 679.367 288.861 679.092 288.998C678.818 289.135 678.488 289.204 678.103 289.204C677.544 289.204 677.085 289.059 676.726 288.768C676.367 288.473 676.167 288.056 676.124 287.518H676.821C676.858 287.834 676.987 288.093 677.209 288.293C677.43 288.494 677.726 288.594 678.095 288.594C678.464 288.594 678.744 288.499 678.934 288.309C679.129 288.114 679.227 287.863 679.227 287.557C679.227 287.162 679.095 286.877 678.831 286.703C678.567 286.529 678.169 286.441 677.636 286.441H677.454V285.84H677.644C678.129 285.835 678.496 285.756 678.744 285.603C678.992 285.444 679.116 285.202 679.116 284.874C679.116 284.595 679.024 284.371 678.839 284.202C678.66 284.033 678.401 283.948 678.063 283.948C677.736 283.948 677.472 284.033 677.272 284.202C677.071 284.371 676.953 284.597 676.916 284.882H676.211ZM680.888 286.244C680.888 285.336 681.036 284.629 681.331 284.123C681.626 283.611 682.144 283.355 682.882 283.355C683.616 283.355 684.13 283.611 684.426 284.123C684.721 284.629 684.869 285.336 684.869 286.244C684.869 287.167 684.721 287.885 684.426 288.396C684.13 288.908 683.616 289.164 682.882 289.164C682.144 289.164 681.626 288.908 681.331 288.396C681.036 287.885 680.888 287.167 680.888 286.244ZM684.156 286.244C684.156 285.785 684.125 285.397 684.061 285.08C684.003 284.758 683.879 284.5 683.69 284.305C683.505 284.109 683.236 284.012 682.882 284.012C682.523 284.012 682.249 284.109 682.059 284.305C681.874 284.5 681.75 284.758 681.687 285.08C681.629 285.397 681.6 285.785 681.6 286.244C681.6 286.719 681.629 287.117 681.687 287.439C681.75 287.761 681.874 288.019 682.059 288.214C682.249 288.41 682.523 288.507 682.882 288.507C683.236 288.507 683.505 288.41 683.69 288.214C683.879 288.019 684.003 287.761 684.061 287.439C684.125 287.117 684.156 286.719 684.156 286.244ZM691.774 285.262C691.774 285.721 691.616 286.104 691.299 286.41C690.988 286.711 690.511 286.861 689.867 286.861H688.806V289.164H688.086V283.648H689.867C690.49 283.648 690.962 283.798 691.284 284.099C691.611 284.4 691.774 284.787 691.774 285.262ZM689.867 286.267C690.268 286.267 690.563 286.18 690.753 286.006C690.943 285.832 691.038 285.584 691.038 285.262C691.038 284.582 690.648 284.241 689.867 284.241H688.806V286.267H689.867ZM698.265 283.687V289.164H697.545V285.08L695.724 289.164H695.218L693.39 285.072V289.164H692.669V283.687H693.445L695.471 288.214L697.497 283.687H698.265Z" fill="#92959E"/>
<rect x="0.468502" y="34.4685" width="708.063" height="277.063" rx="4.21651" fill="white" stroke="#E5E5E5" stroke-width="0.937003"/>
<path d="M0.67756 12.4242C0.67756 11.3378 0.92786 10.3632 1.42846 9.50045C1.93971 8.63771 2.62671 7.96669 3.48944 7.4874C4.36283 6.99745 5.3161 6.75247 6.34925 6.75247C7.53152 6.75247 8.58065 7.04538 9.49664 7.63119C10.4233 8.20634 11.0943 9.02648 11.5097 10.0916H9.3209C9.03332 9.50577 8.63391 9.06908 8.12266 8.7815C7.6114 8.49392 7.02027 8.35013 6.34925 8.35013C5.61433 8.35013 4.95929 8.51522 4.38413 8.84541C3.80897 9.17559 3.3563 9.64956 3.02612 10.2673C2.70659 10.8851 2.54682 11.604 2.54682 12.4242C2.54682 13.2443 2.70659 13.9632 3.02612 14.581C3.3563 15.1988 3.80897 15.6781 4.38413 16.0189C4.95929 16.3491 5.61433 16.5142 6.34925 16.5142C7.02027 16.5142 7.6114 16.3704 8.12266 16.0828C8.63391 15.7952 9.03332 15.3585 9.3209 14.7727H11.5097C11.0943 15.8378 10.4233 16.658 9.49664 17.2331C8.58065 17.8083 7.53152 18.0959 6.34925 18.0959C5.30545 18.0959 4.35218 17.8562 3.48944 17.3769C2.62671 16.887 1.93971 16.2106 1.42846 15.3479C0.92786 14.4851 0.67756 13.5106 0.67756 12.4242ZM17.46 18.1438C16.6292 18.1438 15.8783 17.9574 15.2073 17.5846C14.5363 17.2012 14.009 16.6686 13.6256 15.9869C13.2422 15.2946 13.0504 14.4958 13.0504 13.5905C13.0504 12.6958 13.2475 11.9023 13.6416 11.2099C14.0357 10.5176 14.5735 9.98507 15.2552 9.61228C15.9369 9.2395 16.6984 9.0531 17.5399 9.0531C18.3813 9.0531 19.1428 9.2395 19.8245 9.61228C20.5062 9.98507 21.0441 10.5176 21.4382 11.2099C21.8322 11.9023 22.0293 12.6958 22.0293 13.5905C22.0293 14.4851 21.8269 15.2787 21.4222 15.971C21.0174 16.6633 20.4636 17.2012 19.7606 17.5846C19.0683 17.9574 18.3014 18.1438 17.46 18.1438ZM17.46 16.5621C17.9286 16.5621 18.3653 16.4503 18.7701 16.2266C19.1855 16.0029 19.521 15.6674 19.7766 15.2201C20.0322 14.7727 20.16 14.2295 20.16 13.5905C20.16 12.9514 20.0375 12.4135 19.7926 11.9768C19.5476 11.5295 19.2227 11.194 18.818 10.9703C18.4133 10.7466 17.9766 10.6348 17.5079 10.6348C17.0393 10.6348 16.6026 10.7466 16.1978 10.9703C15.8037 11.194 15.4895 11.5295 15.2552 11.9768C15.0209 12.4135 14.9037 12.9514 14.9037 13.5905C14.9037 14.5384 15.1434 15.2733 15.6227 15.7952C16.1126 16.3065 16.7251 16.5621 17.46 16.5621ZM28.3831 9.0531C29.0541 9.0531 29.6506 9.19689 30.1725 9.48447C30.705 9.77205 31.1204 10.1981 31.4187 10.7626C31.7275 11.3271 31.882 12.0088 31.882 12.8076V18H30.0766V13.0792C30.0766 12.291 29.8796 11.6892 29.4855 11.2739C29.0914 10.8478 28.5535 10.6348 27.8719 10.6348C27.1902 10.6348 26.647 10.8478 26.2422 11.2739C25.8482 11.6892 25.6511 12.291 25.6511 13.0792V18H23.8298V6.17732H25.6511V10.2194C25.96 9.84661 26.3488 9.55903 26.8174 9.35666C27.2967 9.15429 27.8186 9.0531 28.3831 9.0531ZM38.0236 18.1438C37.1928 18.1438 36.4419 17.9574 35.7709 17.5846C35.0999 17.2012 34.5727 16.6686 34.1892 15.9869C33.8058 15.2946 33.6141 14.4958 33.6141 13.5905C33.6141 12.6958 33.8111 11.9023 34.2052 11.2099C34.5993 10.5176 35.1372 9.98507 35.8188 9.61228C36.5005 9.2395 37.2621 9.0531 38.1035 9.0531C38.9449 9.0531 39.7065 9.2395 40.3882 9.61228C41.0698 9.98507 41.6077 10.5176 42.0018 11.2099C42.3959 11.9023 42.5929 12.6958 42.5929 13.5905C42.5929 14.4851 42.3906 15.2787 41.9858 15.971C41.5811 16.6633 41.0272 17.2012 40.3242 17.5846C39.6319 17.9574 38.865 18.1438 38.0236 18.1438ZM38.0236 16.5621C38.4923 16.5621 38.929 16.4503 39.3337 16.2266C39.7491 16.0029 40.0846 15.6674 40.3402 15.2201C40.5958 14.7727 40.7237 14.2295 40.7237 13.5905C40.7237 12.9514 40.6012 12.4135 40.3562 11.9768C40.1112 11.5295 39.7864 11.194 39.3816 10.9703C38.9769 10.7466 38.5402 10.6348 38.0715 10.6348C37.6029 10.6348 37.1662 10.7466 36.7615 10.9703C36.3674 11.194 36.0532 11.5295 35.8188 11.9768C35.5845 12.4135 35.4674 12.9514 35.4674 13.5905C35.4674 14.5384 35.707 15.2733 36.1863 15.7952C36.6763 16.3065 37.2887 16.5621 38.0236 16.5621ZM46.2147 10.475C46.481 10.0277 46.8325 9.68152 47.2692 9.43654C47.7165 9.18092 48.2438 9.0531 48.8509 9.0531V10.9383H48.3876C47.6739 10.9383 47.1307 11.1194 46.7579 11.4815C46.3958 11.8437 46.2147 12.4721 46.2147 13.3668V18H44.3934V9.19689H46.2147V10.475ZM52.6499 10.6827V15.5556C52.6499 15.8858 52.7245 16.1254 52.8736 16.2745C53.0334 16.413 53.2997 16.4822 53.6724 16.4822H54.7908V18H53.3529C52.5328 18 51.9044 17.8083 51.4677 17.4248C51.031 17.0414 50.8126 16.4183 50.8126 15.5556V10.6827H49.7742V9.19689H50.8126V7.0081H52.6499V9.19689H54.7908V10.6827H52.6499Z" fill="#4F4F4F"/>
<line x1="38.8332" y1="83.3936" x2="38.8332" y2="269.857" stroke="#ECECEE" stroke-width="0.659536"/>
<line x1="693.469" y1="270.186" x2="38.5036" y2="270.186" stroke="#ECECEE" stroke-width="0.659536"/>
<path d="M104.026 225.891C80.41 231.719 39.4404 218.222 39.4404 218.222V286.723H672.212V119.184C645.65 112.942 609.795 65.4886 593.728 83.8378C544.676 139.859 486.247 78.7355 431.857 96.5093C376.363 114.643 363.238 146.933 303.504 148.862C275.845 149.756 280.048 208.995 252.408 210.219C224.186 211.468 198.194 161.025 171.472 168.536C142.906 176.566 132.946 218.754 104.026 225.891Z" fill="url(#paint0_linear)"/>
<path d="M39.4404 214.146C39.4404 214.146 80.4516 227.246 104.091 221.59C133.041 214.663 143.011 173.715 171.606 165.922C198.355 158.631 224.374 207.591 252.624 206.378C280.292 205.191 276.085 147.694 303.772 146.826C363.567 144.953 376.705 113.614 432.255 96.0132C486.701 78.7623 545.19 138.088 594.292 83.7145C610.374 65.905 646.266 111.963 672.855 118.021" stroke="#F2C94C" stroke-width="1.64884" stroke-linecap="round" stroke-linejoin="round"/>
<line x1="683.821" y1="265.831" x2="683.821" y2="273.882" stroke="#ECECEE" stroke-width="1.31907" stroke-linecap="round" stroke-linejoin="round"/>
<line x1="561.074" y1="265.831" x2="561.074" y2="273.882" stroke="#ECECEE" stroke-width="1.31907" stroke-linecap="round" stroke-linejoin="round"/>
<line x1="437.389" y1="265.831" x2="437.389" y2="273.882" stroke="#ECECEE" stroke-width="1.31907" stroke-linecap="round" stroke-linejoin="round"/>
<line x1="314.642" y1="265.831" x2="314.642" y2="273.882" stroke="#ECECEE" stroke-width="1.31907" stroke-linecap="round" stroke-linejoin="round"/>
<line x1="190.02" y1="265.831" x2="190.02" y2="273.882" stroke="#ECECEE" stroke-width="1.31907" stroke-linecap="round" stroke-linejoin="round"/>
<line x1="68.2098" y1="265.831" x2="68.2098" y2="273.882" stroke="#ECECEE" stroke-width="1.31907" stroke-linecap="round" stroke-linejoin="round"/>
<line x1="36.3519" y1="247.646" x2="42.5289" y2="247.646" stroke="#ECECEE" stroke-width="1.31907" stroke-linecap="round" stroke-linejoin="round"/>
<line x1="36.3519" y1="212.041" x2="42.5289" y2="212.041" stroke="#ECECEE" stroke-width="1.31907" stroke-linecap="round" stroke-linejoin="round"/>
<line x1="36.3519" y1="175.497" x2="42.5289" y2="175.497" stroke="#ECECEE" stroke-width="1.31907" stroke-linecap="round" stroke-linejoin="round"/>
<line x1="36.3519" y1="138.954" x2="42.5289" y2="138.954" stroke="#ECECEE" stroke-width="1.31907" stroke-linecap="round" stroke-linejoin="round"/>
<line x1="36.3519" y1="102.411" x2="42.5289" y2="102.411" stroke="#ECECEE" stroke-width="1.31907" stroke-linecap="round" stroke-linejoin="round"/>
<path d="M55.1911 283.648V287.724C55.1911 288.177 55.0513 288.541 54.7717 288.816C54.492 289.085 54.1227 289.219 53.6637 289.219C53.1993 289.219 52.8274 289.082 52.5477 288.808C52.2681 288.528 52.1283 288.148 52.1283 287.668H52.8485C52.8537 287.937 52.9223 288.156 53.0542 288.325C53.1914 288.494 53.3946 288.578 53.6637 288.578C53.9328 288.578 54.1333 288.499 54.2652 288.341C54.3971 288.177 54.463 287.972 54.463 287.724V283.648H55.1911ZM56.3409 286.98C56.3409 286.536 56.4306 286.149 56.61 285.816C56.7894 285.479 57.0347 285.217 57.346 285.033C57.6626 284.848 58.0135 284.756 58.3987 284.756C58.7785 284.756 59.1083 284.838 59.388 285.001C59.6676 285.165 59.876 285.37 60.0132 285.618V284.827H60.7413V289.164H60.0132V288.357C59.8707 288.61 59.6571 288.821 59.3721 288.99C59.0925 289.154 58.7654 289.235 58.3907 289.235C58.0056 289.235 57.6573 289.14 57.346 288.95C57.0347 288.76 56.7894 288.494 56.61 288.151C56.4306 287.808 56.3409 287.418 56.3409 286.98ZM60.0132 286.988C60.0132 286.66 59.9472 286.376 59.8153 286.133C59.6834 285.89 59.504 285.705 59.2772 285.579C59.0556 285.447 58.8102 285.381 58.5411 285.381C58.272 285.381 58.0267 285.444 57.8051 285.571C57.5835 285.698 57.4067 285.882 57.2748 286.125C57.1429 286.368 57.0769 286.653 57.0769 286.98C57.0769 287.312 57.1429 287.602 57.2748 287.85C57.4067 288.093 57.5835 288.28 57.8051 288.412C58.0267 288.539 58.272 288.602 58.5411 288.602C58.8102 288.602 59.0556 288.539 59.2772 288.412C59.504 288.28 59.6834 288.093 59.8153 287.85C59.9472 287.602 60.0132 287.315 60.0132 286.988ZM64.0716 284.748C64.5992 284.748 65.0266 284.909 65.3537 285.231C65.6808 285.547 65.8444 286.006 65.8444 286.608V289.164H65.1321V286.711C65.1321 286.278 65.0239 285.948 64.8076 285.721C64.5913 285.489 64.2958 285.373 63.9212 285.373C63.5413 285.373 63.2379 285.492 63.011 285.729C62.7894 285.967 62.6786 286.312 62.6786 286.766V289.164H61.9584V284.827H62.6786V285.444C62.8211 285.223 63.0137 285.051 63.2564 284.93C63.5044 284.808 63.7761 284.748 64.0716 284.748ZM70.8673 284.827V289.164H70.1471V288.523C70.0099 288.745 69.8173 288.919 69.5693 289.045C69.3266 289.167 69.0575 289.227 68.762 289.227C68.4244 289.227 68.121 289.159 67.8519 289.022C67.5828 288.879 67.3691 288.668 67.2108 288.388C67.0578 288.109 66.9813 287.768 66.9813 287.367V284.827H67.6936V287.273C67.6936 287.7 67.8018 288.03 68.0181 288.262C68.2344 288.489 68.5299 288.602 68.9045 288.602C69.2897 288.602 69.5931 288.483 69.8147 288.246C70.0363 288.009 70.1471 287.663 70.1471 287.209V284.827H70.8673ZM71.8142 286.98C71.8142 286.536 71.9039 286.149 72.0833 285.816C72.2627 285.479 72.5081 285.217 72.8194 285.033C73.136 284.848 73.4868 284.756 73.872 284.756C74.2519 284.756 74.5817 284.838 74.8613 285.001C75.1409 285.165 75.3494 285.37 75.4865 285.618V284.827H76.2147V289.164H75.4865V288.357C75.3441 288.61 75.1304 288.821 74.8455 288.99C74.5658 289.154 74.2387 289.235 73.8641 289.235C73.4789 289.235 73.1307 289.14 72.8194 288.95C72.5081 288.76 72.2627 288.494 72.0833 288.151C71.9039 287.808 71.8142 287.418 71.8142 286.98ZM75.4865 286.988C75.4865 286.66 75.4206 286.376 75.2887 286.133C75.1568 285.89 74.9774 285.705 74.7505 285.579C74.5289 285.447 74.2835 285.381 74.0145 285.381C73.7454 285.381 73.5 285.444 73.2784 285.571C73.0568 285.698 72.8801 285.882 72.7481 286.125C72.6162 286.368 72.5503 286.653 72.5503 286.98C72.5503 287.312 72.6162 287.602 72.7481 287.85C72.8801 288.093 73.0568 288.28 73.2784 288.412C73.5 288.539 73.7454 288.602 74.0145 288.602C74.2835 288.602 74.5289 288.539 74.7505 288.412C74.9774 288.28 75.1568 288.093 75.2887 287.85C75.4206 287.602 75.4865 287.315 75.4865 286.988ZM78.152 285.531C78.2786 285.283 78.458 285.091 78.6902 284.954C78.9276 284.816 79.2151 284.748 79.5528 284.748V285.492H79.3629C78.5556 285.492 78.152 285.93 78.152 286.806V289.164H77.4318V284.827H78.152V285.531ZM84.1198 284.827L81.5081 291.206H80.7641L81.6189 289.117L79.8698 284.827H80.6691L82.0304 288.341L83.3759 284.827H84.1198Z" fill="#92959E"/>
<path d="M21.938 247.556V246.899H23.4259V252.621H22.6977V247.556H21.938ZM27.2035 252.621L25.5019 250.706V252.621H24.7817V246.764H25.5019V250.207L27.1719 248.284H28.177L26.1351 250.445L28.1849 252.621H27.2035Z" fill="#92959E"/>
<path d="M22.9654 174.437H20.1875V176.242C20.3088 176.073 20.4882 175.936 20.7256 175.83C20.9631 175.719 21.219 175.664 21.4933 175.664C21.9313 175.664 22.2874 175.756 22.5618 175.941C22.8362 176.12 23.0314 176.355 23.1475 176.645C23.2688 176.93 23.3295 177.234 23.3295 177.556C23.3295 177.935 23.2583 178.276 23.1158 178.577C22.9733 178.877 22.7544 179.115 22.4589 179.289C22.1687 179.463 21.8073 179.55 21.3746 179.55C20.8206 179.55 20.3721 179.408 20.0292 179.123C19.6862 178.838 19.4778 178.458 19.4039 177.983H20.1083C20.1769 178.284 20.322 178.518 20.5436 178.687C20.7652 178.856 21.0449 178.941 21.3825 178.941C21.7994 178.941 22.1133 178.817 22.3244 178.569C22.5354 178.315 22.6409 177.983 22.6409 177.571C22.6409 177.16 22.5354 176.843 22.3244 176.622C22.1133 176.395 21.802 176.281 21.3904 176.281C21.1108 176.281 20.8655 176.35 20.6544 176.487C20.4486 176.619 20.2983 176.801 20.2033 177.033H19.5226V173.804H22.9654V174.437ZM26.8271 179.534L25.1255 177.619V179.534H24.4053V173.677H25.1255V177.12L26.7955 175.197H27.8006L25.7587 177.358L27.8085 179.534H26.8271Z" fill="#92959E"/>
<path d="M20.2429 105.85C20.2956 106.151 20.417 106.383 20.6069 106.547C20.8021 106.71 21.0633 106.792 21.3904 106.792C21.8284 106.792 22.1502 106.621 22.356 106.278C22.5671 105.935 22.6673 105.357 22.6568 104.544C22.546 104.782 22.3613 104.969 22.1027 105.106C21.8442 105.238 21.5567 105.304 21.2401 105.304C20.8866 105.304 20.57 105.233 20.2903 105.091C20.016 104.943 19.7996 104.729 19.6414 104.449C19.4831 104.17 19.4039 103.832 19.4039 103.436C19.4039 102.872 19.5675 102.418 19.8946 102.075C20.2218 101.727 20.6861 101.553 21.2876 101.553C22.0262 101.553 22.5433 101.793 22.8388 102.273C23.1395 102.753 23.2899 103.468 23.2899 104.418C23.2899 105.083 23.2292 105.631 23.1079 106.064C22.9918 106.497 22.7913 106.826 22.5064 107.053C22.2267 107.28 21.8416 107.394 21.3509 107.394C20.8127 107.394 20.3932 107.249 20.0925 106.958C19.7917 106.668 19.6203 106.299 19.578 105.85H20.2429ZM21.3588 104.695C21.7123 104.695 22.0025 104.587 22.2294 104.37C22.4563 104.149 22.5697 103.851 22.5697 103.476C22.5697 103.08 22.4589 102.761 22.2373 102.518C22.0157 102.276 21.7044 102.154 21.3034 102.154C20.934 102.154 20.6386 102.27 20.417 102.503C20.2006 102.735 20.0925 103.041 20.0925 103.421C20.0925 103.806 20.2006 104.114 20.417 104.347C20.6333 104.579 20.9472 104.695 21.3588 104.695ZM26.8426 107.386L25.141 105.47V107.386H24.4207V101.529H25.141V104.972L26.8109 103.049H27.816L25.7741 105.209L27.824 107.386H26.8426Z" fill="#92959E"/>
<path d="M19.301 211.796C19.338 211.311 19.5253 210.931 19.863 210.657C20.2006 210.382 20.6386 210.245 21.1768 210.245C21.5355 210.245 21.8442 210.311 22.1027 210.443C22.3666 210.57 22.5644 210.744 22.6963 210.965C22.8335 211.187 22.9021 211.438 22.9021 211.717C22.9021 212.044 22.8071 212.327 22.6172 212.564C22.4325 212.802 22.1898 212.955 21.8891 213.023V213.063C22.232 213.147 22.5037 213.313 22.7042 213.561C22.9047 213.809 23.005 214.134 23.005 214.535C23.005 214.836 22.9364 215.107 22.7992 215.35C22.662 215.587 22.4563 215.775 22.1819 215.912C21.9075 216.049 21.5778 216.118 21.1926 216.118C20.6333 216.118 20.1743 215.973 19.8155 215.682C19.4567 215.387 19.2562 214.97 19.214 214.432H19.9104C19.9474 214.749 20.0767 215.007 20.2983 215.208C20.5199 215.408 20.8153 215.508 21.1847 215.508C21.554 215.508 21.8337 215.413 22.0236 215.223C22.2188 215.028 22.3164 214.778 22.3164 214.471C22.3164 214.076 22.1845 213.791 21.9207 213.617C21.6569 213.443 21.2585 213.356 20.7256 213.356H20.5436V212.754H20.7336C21.219 212.749 21.5857 212.67 21.8337 212.517C22.0816 212.358 22.2056 212.116 22.2056 211.789C22.2056 211.509 22.1133 211.285 21.9286 211.116C21.7492 210.947 21.4907 210.863 21.153 210.863C20.8259 210.863 20.5621 210.947 20.3616 211.116C20.1611 211.285 20.0424 211.511 20.0054 211.796H19.301ZM26.518 216.078L24.8163 214.163V216.078H24.0961V210.221H24.8163V213.664L26.4863 211.741H27.4914L25.4495 213.902L27.4993 216.078H26.518Z" fill="#92959E"/>
<path d="M22.8388 138.768L20.6386 143.929H19.9104L22.1423 138.84H19.0873V138.222H22.8388V138.768ZM26.1779 143.929L24.4763 142.013V143.929H23.7561V138.072H24.4763V141.515L26.1462 139.592H27.1514L25.1094 141.752L27.1593 143.929H26.1779Z" fill="#92959E"/>
<path d="M307.693 283.687V289.164H306.973V285.08L305.153 289.164H304.646L302.818 285.072V289.164H302.098V283.687H302.873L304.9 288.214L306.926 283.687H307.693ZM308.646 286.98C308.646 286.536 308.735 286.149 308.915 285.816C309.094 285.479 309.339 285.217 309.651 285.033C309.967 284.848 310.318 284.756 310.703 284.756C311.083 284.756 311.413 284.838 311.693 285.001C311.972 285.165 312.181 285.37 312.318 285.618V284.827H313.046V289.164H312.318V288.357C312.175 288.61 311.962 288.821 311.677 288.99C311.397 289.154 311.07 289.235 310.695 289.235C310.31 289.235 309.962 289.14 309.651 288.95C309.339 288.76 309.094 288.494 308.915 288.151C308.735 287.808 308.646 287.418 308.646 286.98ZM312.318 286.988C312.318 286.66 312.252 286.376 312.12 286.133C311.988 285.89 311.809 285.705 311.582 285.579C311.36 285.447 311.115 285.381 310.846 285.381C310.577 285.381 310.331 285.444 310.11 285.571C309.888 285.698 309.711 285.882 309.58 286.125C309.448 286.368 309.382 286.653 309.382 286.98C309.382 287.312 309.448 287.602 309.58 287.85C309.711 288.093 309.888 288.28 310.11 288.412C310.331 288.539 310.577 288.602 310.846 288.602C311.115 288.602 311.36 288.539 311.582 288.412C311.809 288.28 311.988 288.093 312.12 287.85C312.252 287.602 312.318 287.315 312.318 286.988ZM314.983 285.531C315.11 285.283 315.289 285.091 315.522 284.954C315.759 284.816 316.047 284.748 316.384 284.748V285.492H316.194C315.387 285.492 314.983 285.93 314.983 286.806V289.164H314.263V284.827H314.983V285.531ZM316.947 286.988C316.947 286.539 317.036 286.149 317.216 285.816C317.395 285.479 317.643 285.217 317.96 285.033C318.281 284.848 318.648 284.756 319.06 284.756C319.593 284.756 320.031 284.885 320.373 285.144C320.722 285.402 320.951 285.761 321.062 286.22H320.286C320.213 285.956 320.067 285.748 319.851 285.595C319.64 285.442 319.376 285.365 319.06 285.365C318.648 285.365 318.316 285.508 318.062 285.793C317.809 286.072 317.683 286.471 317.683 286.988C317.683 287.51 317.809 287.914 318.062 288.199C318.316 288.483 318.648 288.626 319.06 288.626C319.376 288.626 319.64 288.552 319.851 288.404C320.062 288.257 320.207 288.045 320.286 287.771H321.062C320.946 288.214 320.714 288.57 320.366 288.84C320.017 289.103 319.582 289.235 319.06 289.235C318.648 289.235 318.281 289.143 317.96 288.958C317.643 288.774 317.395 288.512 317.216 288.175C317.036 287.837 316.947 287.441 316.947 286.988ZM324.176 284.748C324.503 284.748 324.798 284.819 325.062 284.961C325.326 285.099 325.532 285.307 325.679 285.587C325.832 285.866 325.909 286.207 325.909 286.608V289.164H325.197V286.711C325.197 286.278 325.089 285.948 324.872 285.721C324.656 285.489 324.36 285.373 323.986 285.373C323.606 285.373 323.303 285.492 323.076 285.729C322.854 285.967 322.743 286.312 322.743 286.766V289.164H322.023V283.307H322.743V285.444C322.886 285.223 323.081 285.051 323.329 284.93C323.582 284.808 323.864 284.748 324.176 284.748Z" fill="#92959E"/>
<path d="M176.047 283.648V284.233H173.649V286.093H175.596V286.679H173.649V289.164H172.929V283.648H176.047ZM180.874 286.829C180.874 286.966 180.866 287.112 180.85 287.265H177.384C177.41 287.692 177.555 288.027 177.819 288.27C178.088 288.507 178.413 288.626 178.793 288.626C179.104 288.626 179.362 288.555 179.568 288.412C179.779 288.264 179.927 288.069 180.011 287.827H180.787C180.671 288.243 180.439 288.584 180.09 288.847C179.742 289.106 179.31 289.235 178.793 289.235C178.381 289.235 178.012 289.143 177.684 288.958C177.363 288.774 177.109 288.512 176.925 288.175C176.74 287.832 176.648 287.436 176.648 286.988C176.648 286.539 176.737 286.146 176.917 285.808C177.096 285.471 177.347 285.212 177.669 285.033C177.996 284.848 178.37 284.756 178.793 284.756C179.204 284.756 179.568 284.845 179.885 285.025C180.201 285.204 180.444 285.452 180.613 285.769C180.787 286.08 180.874 286.434 180.874 286.829ZM180.13 286.679C180.13 286.405 180.069 286.17 179.948 285.975C179.827 285.774 179.66 285.624 179.449 285.523C179.244 285.418 179.014 285.365 178.761 285.365C178.397 285.365 178.085 285.481 177.827 285.713C177.574 285.946 177.429 286.267 177.392 286.679H180.13ZM182.545 285.634C182.693 285.376 182.909 285.165 183.194 285.001C183.479 284.838 183.803 284.756 184.167 284.756C184.558 284.756 184.909 284.848 185.22 285.033C185.531 285.217 185.777 285.479 185.956 285.816C186.135 286.149 186.225 286.536 186.225 286.98C186.225 287.418 186.135 287.808 185.956 288.151C185.777 288.494 185.529 288.76 185.212 288.95C184.901 289.14 184.553 289.235 184.167 289.235C183.793 289.235 183.463 289.154 183.178 288.99C182.898 288.826 182.687 288.618 182.545 288.365V289.164H181.825V283.307H182.545V285.634ZM185.489 286.98C185.489 286.653 185.423 286.368 185.291 286.125C185.159 285.882 184.98 285.698 184.753 285.571C184.531 285.444 184.286 285.381 184.017 285.381C183.753 285.381 183.508 285.447 183.281 285.579C183.059 285.705 182.88 285.893 182.743 286.141C182.611 286.383 182.545 286.666 182.545 286.988C182.545 287.315 182.611 287.602 182.743 287.85C182.88 288.093 183.059 288.28 183.281 288.412C183.508 288.539 183.753 288.602 184.017 288.602C184.286 288.602 184.531 288.539 184.753 288.412C184.98 288.28 185.159 288.093 185.291 287.85C185.423 287.602 185.489 287.312 185.489 286.98ZM187.893 285.531C188.02 285.283 188.199 285.091 188.431 284.954C188.669 284.816 188.956 284.748 189.294 284.748V285.492H189.104C188.297 285.492 187.893 285.93 187.893 286.806V289.164H187.173V284.827H187.893V285.531ZM193.972 284.827V289.164H193.252V288.523C193.115 288.745 192.922 288.919 192.674 289.045C192.431 289.167 192.162 289.227 191.867 289.227C191.529 289.227 191.226 289.159 190.957 289.022C190.687 288.879 190.474 288.668 190.315 288.388C190.162 288.109 190.086 287.768 190.086 287.367V284.827H190.798V287.273C190.798 287.7 190.906 288.03 191.123 288.262C191.339 288.489 191.635 288.602 192.009 288.602C192.394 288.602 192.698 288.483 192.919 288.246C193.141 288.009 193.252 287.663 193.252 287.209V284.827H193.972ZM194.919 286.98C194.919 286.536 195.009 286.149 195.188 285.816C195.367 285.479 195.613 285.217 195.924 285.033C196.241 284.848 196.591 284.756 196.977 284.756C197.357 284.756 197.686 284.838 197.966 285.001C198.246 285.165 198.454 285.37 198.591 285.618V284.827H199.319V289.164H198.591V288.357C198.449 288.61 198.235 288.821 197.95 288.99C197.67 289.154 197.343 289.235 196.969 289.235C196.584 289.235 196.235 289.14 195.924 288.95C195.613 288.76 195.367 288.494 195.188 288.151C195.009 287.808 194.919 287.418 194.919 286.98ZM198.591 286.988C198.591 286.66 198.525 286.376 198.393 286.133C198.261 285.89 198.082 285.705 197.855 285.579C197.634 285.447 197.388 285.381 197.119 285.381C196.85 285.381 196.605 285.444 196.383 285.571C196.161 285.698 195.985 285.882 195.853 286.125C195.721 286.368 195.655 286.653 195.655 286.98C195.655 287.312 195.721 287.602 195.853 287.85C195.985 288.093 196.161 288.28 196.383 288.412C196.605 288.539 196.85 288.602 197.119 288.602C197.388 288.602 197.634 288.539 197.855 288.412C198.082 288.28 198.261 288.093 198.393 287.85C198.525 287.602 198.591 287.315 198.591 286.988ZM201.257 285.531C201.383 285.283 201.563 285.091 201.795 284.954C202.032 284.816 202.32 284.748 202.657 284.748V285.492H202.468C201.66 285.492 201.257 285.93 201.257 286.806V289.164H200.536V284.827H201.257V285.531ZM207.224 284.827L204.613 291.206H203.869L204.724 289.117L202.974 284.827H203.774L205.135 288.341L206.481 284.827H207.224Z" fill="#92959E"/>
<path d="M431.835 287.937H429.429L428.986 289.164H428.226L430.221 283.679H431.052L433.038 289.164H432.279L431.835 287.937ZM431.63 287.352L430.632 284.566L429.635 287.352H431.63ZM434.628 285.626C434.77 285.378 434.981 285.173 435.261 285.009C435.546 284.84 435.876 284.756 436.25 284.756C436.635 284.756 436.984 284.848 437.295 285.033C437.612 285.217 437.859 285.479 438.039 285.816C438.218 286.149 438.308 286.536 438.308 286.98C438.308 287.418 438.218 287.808 438.039 288.151C437.859 288.494 437.612 288.76 437.295 288.95C436.984 289.14 436.635 289.235 436.25 289.235C435.881 289.235 435.554 289.154 435.269 288.99C434.989 288.821 434.775 288.613 434.628 288.365V291.222H433.908V284.827H434.628V285.626ZM437.572 286.98C437.572 286.653 437.506 286.368 437.374 286.125C437.242 285.882 437.063 285.698 436.836 285.571C436.614 285.444 436.369 285.381 436.1 285.381C435.836 285.381 435.591 285.447 435.364 285.579C435.142 285.705 434.963 285.893 434.826 286.141C434.694 286.383 434.628 286.666 434.628 286.988C434.628 287.315 434.694 287.602 434.826 287.85C434.963 288.093 435.142 288.28 435.364 288.412C435.591 288.539 435.836 288.602 436.1 288.602C436.369 288.602 436.614 288.539 436.836 288.412C437.063 288.28 437.242 288.093 437.374 287.85C437.506 287.602 437.572 287.312 437.572 286.98ZM439.976 285.531C440.103 285.283 440.282 285.091 440.514 284.954C440.752 284.816 441.039 284.748 441.377 284.748V285.492H441.187C440.38 285.492 439.976 285.93 439.976 286.806V289.164H439.256V284.827H439.976V285.531ZM442.58 284.123C442.443 284.123 442.327 284.075 442.232 283.98C442.137 283.885 442.09 283.769 442.09 283.632C442.09 283.495 442.137 283.379 442.232 283.284C442.327 283.189 442.443 283.141 442.58 283.141C442.712 283.141 442.823 283.189 442.913 283.284C443.008 283.379 443.055 283.495 443.055 283.632C443.055 283.769 443.008 283.885 442.913 283.98C442.823 284.075 442.712 284.123 442.58 284.123ZM442.929 284.827V289.164H442.208V284.827H442.929ZM444.876 283.307V289.164H444.156V283.307H444.876Z" fill="#92959E"/>
<path d="M558.307 283.687V289.164H557.587V285.08L555.766 289.164H555.26L553.432 285.072V289.164H552.711V283.687H553.487L555.513 288.214L557.539 283.687H558.307ZM559.259 286.98C559.259 286.536 559.349 286.149 559.528 285.816C559.708 285.479 559.953 285.217 560.264 285.033C560.581 284.848 560.932 284.756 561.317 284.756C561.697 284.756 562.027 284.838 562.306 285.001C562.586 285.165 562.794 285.37 562.931 285.618V284.827H563.66V289.164H562.931V288.357C562.789 288.61 562.575 288.821 562.29 288.99C562.011 289.154 561.684 289.235 561.309 289.235C560.924 289.235 560.576 289.14 560.264 288.95C559.953 288.76 559.708 288.494 559.528 288.151C559.349 287.808 559.259 287.418 559.259 286.98ZM562.931 286.988C562.931 286.66 562.865 286.376 562.734 286.133C562.602 285.89 562.422 285.705 562.195 285.579C561.974 285.447 561.728 285.381 561.459 285.381C561.19 285.381 560.945 285.444 560.723 285.571C560.502 285.698 560.325 285.882 560.193 286.125C560.061 286.368 559.995 286.653 559.995 286.98C559.995 287.312 560.061 287.602 560.193 287.85C560.325 288.093 560.502 288.28 560.723 288.412C560.945 288.539 561.19 288.602 561.459 288.602C561.728 288.602 561.974 288.539 562.195 288.412C562.422 288.28 562.602 288.093 562.734 287.85C562.865 287.602 562.931 287.315 562.931 286.988ZM568.612 284.827L566 291.206H565.257L566.111 289.117L564.362 284.827H565.162L566.523 288.341L567.868 284.827H568.612Z" fill="#92959E"/>
<path d="M670.626 283.687V289.164H669.906V285.08L668.086 289.164H667.579L665.751 285.072V289.164H665.031V283.687H665.806L667.833 288.214L669.859 283.687H670.626ZM671.579 286.98C671.579 286.536 671.668 286.149 671.848 285.816C672.027 285.479 672.272 285.217 672.584 285.033C672.9 284.848 673.251 284.756 673.636 284.756C674.016 284.756 674.346 284.838 674.626 285.001C674.905 285.165 675.114 285.37 675.251 285.618V284.827H675.979V289.164H675.251V288.357C675.108 288.61 674.895 288.821 674.61 288.99C674.33 289.154 674.003 289.235 673.628 289.235C673.243 289.235 672.895 289.14 672.584 288.95C672.272 288.76 672.027 288.494 671.848 288.151C671.668 287.808 671.579 287.418 671.579 286.98ZM675.251 286.988C675.251 286.66 675.185 286.376 675.053 286.133C674.921 285.89 674.742 285.705 674.515 285.579C674.293 285.447 674.048 285.381 673.779 285.381C673.51 285.381 673.264 285.444 673.043 285.571C672.821 285.698 672.644 285.882 672.513 286.125C672.381 286.368 672.315 286.653 672.315 286.98C672.315 287.312 672.381 287.602 672.513 287.85C672.644 288.093 672.821 288.28 673.043 288.412C673.264 288.539 673.51 288.602 673.779 288.602C674.048 288.602 674.293 288.539 674.515 288.412C674.742 288.28 674.921 288.093 675.053 287.85C675.185 287.602 675.251 287.315 675.251 286.988ZM680.932 284.827L678.32 291.206H677.576L678.431 289.117L676.682 284.827H677.481L678.842 288.341L680.188 284.827H680.932Z" fill="#92959E"/>
<path d="M515.438 269.857V104.008" stroke="#ECECEE" stroke-width="0.659536"/>
<circle cx="513.564" cy="104.007" r="4.68502" fill="white" stroke="#F39C12" stroke-width="1.97861"/>
<circle cx="515.438" cy="270.794" r="4.68502" fill="white" stroke="#F2C94C" stroke-width="1.97861"/>
<g filter="url(#filter0_d)">
<rect x="406.746" y="105.882" width="98.3853" height="54.3462" rx="7.91443" fill="white"/>
</g>
<path d="M424.762 120.017V120.679H422.051V122.78H424.252V123.442H422.051V126.251H421.237V120.017H424.762ZM430.092 121.349V126.251H429.278V125.526C429.123 125.777 428.905 125.974 428.625 126.117C428.351 126.254 428.046 126.323 427.713 126.323C427.331 126.323 426.988 126.245 426.684 126.09C426.38 125.929 426.138 125.69 425.959 125.374C425.786 125.058 425.7 124.674 425.7 124.221V121.349H426.505V124.113C426.505 124.596 426.627 124.969 426.872 125.231C427.116 125.488 427.45 125.616 427.874 125.616C428.309 125.616 428.652 125.482 428.902 125.213C429.153 124.945 429.278 124.554 429.278 124.042V121.349H430.092ZM433.854 121.26C434.451 121.26 434.934 121.442 435.303 121.806C435.673 122.163 435.858 122.682 435.858 123.362V126.251H435.053V123.478C435.053 122.989 434.931 122.616 434.686 122.36C434.442 122.098 434.108 121.967 433.684 121.967C433.255 121.967 432.912 122.101 432.656 122.369C432.405 122.637 432.28 123.028 432.28 123.541V126.251H431.466V121.349H432.28V122.047C432.441 121.797 432.659 121.603 432.933 121.466C433.213 121.328 433.52 121.26 433.854 121.26ZM436.883 123.782C436.883 123.281 436.985 122.843 437.187 122.467C437.39 122.086 437.668 121.791 438.019 121.582C438.377 121.373 438.777 121.269 439.218 121.269C439.6 121.269 439.954 121.358 440.282 121.537C440.61 121.71 440.861 121.94 441.034 122.226V119.632H441.857V126.251H441.034V125.33C440.873 125.622 440.634 125.863 440.318 126.054C440.002 126.239 439.632 126.331 439.209 126.331C438.774 126.331 438.377 126.224 438.019 126.009C437.668 125.795 437.39 125.494 437.187 125.106C436.985 124.718 436.883 124.277 436.883 123.782ZM441.034 123.791C441.034 123.422 440.959 123.1 440.81 122.825C440.661 122.551 440.458 122.342 440.202 122.199C439.951 122.05 439.674 121.975 439.37 121.975C439.066 121.975 438.789 122.047 438.538 122.19C438.288 122.333 438.088 122.542 437.939 122.816C437.79 123.091 437.715 123.413 437.715 123.782C437.715 124.158 437.79 124.486 437.939 124.766C438.088 125.04 438.288 125.252 438.538 125.401C438.789 125.544 439.066 125.616 439.37 125.616C439.674 125.616 439.951 125.544 440.202 125.401C440.458 125.252 440.661 125.04 440.81 124.766C440.959 124.486 441.034 124.161 441.034 123.791ZM443.652 120.553C443.497 120.553 443.366 120.5 443.259 120.392C443.152 120.285 443.098 120.154 443.098 119.999C443.098 119.844 443.152 119.712 443.259 119.605C443.366 119.498 443.497 119.444 443.652 119.444C443.802 119.444 443.927 119.498 444.028 119.605C444.135 119.712 444.189 119.844 444.189 119.999C444.189 120.154 444.135 120.285 444.028 120.392C443.927 120.5 443.802 120.553 443.652 120.553ZM444.046 121.349V126.251H443.232V121.349H444.046ZM447.821 121.26C448.418 121.26 448.901 121.442 449.27 121.806C449.64 122.163 449.825 122.682 449.825 123.362V126.251H449.02V123.478C449.02 122.989 448.898 122.616 448.653 122.36C448.409 122.098 448.075 121.967 447.652 121.967C447.222 121.967 446.879 122.101 446.623 122.369C446.372 122.637 446.247 123.028 446.247 123.541V126.251H445.433V121.349H446.247V122.047C446.408 121.797 446.626 121.603 446.9 121.466C447.18 121.328 447.488 121.26 447.821 121.26ZM453.176 121.269C453.599 121.269 453.969 121.361 454.285 121.546C454.607 121.731 454.846 121.964 455.001 122.244V121.349H455.824V126.358C455.824 126.806 455.728 127.202 455.537 127.548C455.347 127.9 455.072 128.174 454.715 128.371C454.363 128.568 453.951 128.666 453.48 128.666C452.836 128.666 452.3 128.514 451.87 128.21C451.441 127.906 451.187 127.491 451.11 126.967H451.915C452.004 127.265 452.189 127.503 452.469 127.682C452.75 127.867 453.087 127.959 453.48 127.959C453.927 127.959 454.291 127.819 454.571 127.539C454.858 127.259 455.001 126.865 455.001 126.358V125.33C454.84 125.616 454.601 125.854 454.285 126.045C453.969 126.236 453.599 126.331 453.176 126.331C452.741 126.331 452.344 126.224 451.986 126.009C451.635 125.795 451.357 125.494 451.155 125.106C450.952 124.718 450.851 124.277 450.851 123.782C450.851 123.281 450.952 122.843 451.155 122.467C451.357 122.086 451.635 121.791 451.986 121.582C452.344 121.373 452.741 121.269 453.176 121.269ZM455.001 123.791C455.001 123.422 454.926 123.1 454.777 122.825C454.628 122.551 454.425 122.342 454.169 122.199C453.919 122.05 453.641 121.975 453.337 121.975C453.033 121.975 452.756 122.047 452.505 122.19C452.255 122.333 452.055 122.542 451.906 122.816C451.757 123.091 451.682 123.413 451.682 123.782C451.682 124.158 451.757 124.486 451.906 124.766C452.055 125.04 452.255 125.252 452.505 125.401C452.756 125.544 453.033 125.616 453.337 125.616C453.641 125.616 453.919 125.544 454.169 125.401C454.425 125.252 454.628 125.04 454.777 124.766C454.926 124.486 455.001 124.161 455.001 123.791ZM463.269 124.865H460.55L460.049 126.251H459.19L461.444 120.052H462.383L464.629 126.251H463.77L463.269 124.865ZM463.036 124.203L461.909 121.054L460.782 124.203H463.036ZM465.307 123.791C465.307 123.284 465.408 122.843 465.611 122.467C465.814 122.086 466.094 121.791 466.452 121.582C466.815 121.373 467.23 121.269 467.695 121.269C468.297 121.269 468.792 121.415 469.18 121.707C469.573 121.999 469.833 122.405 469.958 122.924H469.081C468.998 122.625 468.834 122.39 468.589 122.217C468.351 122.044 468.053 121.958 467.695 121.958C467.23 121.958 466.854 122.119 466.568 122.441C466.282 122.757 466.139 123.207 466.139 123.791C466.139 124.382 466.282 124.838 466.568 125.16C466.854 125.482 467.23 125.643 467.695 125.643C468.053 125.643 468.351 125.559 468.589 125.392C468.828 125.225 468.992 124.987 469.081 124.677H469.958C469.827 125.178 469.564 125.58 469.171 125.884C468.777 126.182 468.285 126.331 467.695 126.331C467.23 126.331 466.815 126.227 466.452 126.018C466.094 125.81 465.814 125.515 465.611 125.133C465.408 124.751 465.307 124.304 465.307 123.791ZM472.037 122.02V124.909C472.037 125.148 472.088 125.318 472.189 125.419C472.29 125.515 472.466 125.562 472.717 125.562H473.316V126.251H472.583C472.129 126.251 471.789 126.147 471.563 125.938C471.336 125.729 471.223 125.386 471.223 124.909V122.02H470.588V121.349H471.223V120.115H472.037V121.349H473.316V122.02H472.037ZM474.723 120.553C474.568 120.553 474.436 120.5 474.329 120.392C474.222 120.285 474.168 120.154 474.168 119.999C474.168 119.844 474.222 119.712 474.329 119.605C474.436 119.498 474.568 119.444 474.723 119.444C474.872 119.444 474.997 119.498 475.098 119.605C475.206 119.712 475.259 119.844 475.259 119.999C475.259 120.154 475.206 120.285 475.098 120.392C474.997 120.5 474.872 120.553 474.723 120.553ZM475.116 121.349V126.251H474.302V121.349H475.116ZM478.328 125.5L479.849 121.349H480.716L478.793 126.251H477.845L475.922 121.349H476.799L478.328 125.5ZM481.938 120.553C481.783 120.553 481.651 120.5 481.544 120.392C481.437 120.285 481.383 120.154 481.383 119.999C481.383 119.844 481.437 119.712 481.544 119.605C481.651 119.498 481.783 119.444 481.938 119.444C482.087 119.444 482.212 119.498 482.313 119.605C482.421 119.712 482.474 119.844 482.474 119.999C482.474 120.154 482.421 120.285 482.313 120.392C482.212 120.5 482.087 120.553 481.938 120.553ZM482.331 121.349V126.251H481.517V121.349H482.331ZM484.711 122.02V124.909C484.711 125.148 484.762 125.318 484.863 125.419C484.965 125.515 485.141 125.562 485.391 125.562H485.99V126.251H485.257C484.804 126.251 484.464 126.147 484.237 125.938C484.011 125.729 483.897 125.386 483.897 124.909V122.02H483.262V121.349H483.897V120.115H484.711V121.349H485.99V122.02H484.711ZM491.198 121.349L488.247 128.559H487.406L488.372 126.197L486.395 121.349H487.299L488.837 125.321L490.358 121.349H491.198Z" fill="#92959E"/>
<path d="M436.563 139.558V138.463H439.043V148H437.829V139.558H436.563ZM440.96 147.037C442.076 146.14 442.951 145.406 443.585 144.834C444.218 144.254 444.75 143.651 445.181 143.027C445.62 142.394 445.84 141.774 445.84 141.167C445.84 140.596 445.699 140.147 445.418 139.822C445.145 139.488 444.701 139.321 444.086 139.321C443.488 139.321 443.022 139.51 442.688 139.888C442.362 140.257 442.186 140.754 442.16 141.378H440.999C441.034 140.393 441.333 139.633 441.896 139.096C442.459 138.56 443.184 138.292 444.073 138.292C444.978 138.292 445.695 138.542 446.223 139.043C446.759 139.545 447.027 140.235 447.027 141.114C447.027 141.844 446.807 142.557 446.368 143.251C445.937 143.937 445.444 144.544 444.89 145.072C444.336 145.59 443.629 146.197 442.767 146.892H447.304V147.894H440.96V147.037ZM450.09 138.239V148H448.89V138.239H450.09ZM451.687 144.359C451.687 143.621 451.837 142.974 452.136 142.42C452.435 141.858 452.844 141.422 453.363 141.114C453.89 140.807 454.475 140.653 455.117 140.653C455.75 140.653 456.3 140.789 456.766 141.062C457.232 141.334 457.579 141.677 457.808 142.091V140.771H459.022V148H457.808V146.655C457.571 147.077 457.214 147.428 456.74 147.71C456.273 147.982 455.728 148.119 455.104 148.119C454.462 148.119 453.882 147.96 453.363 147.644C452.844 147.327 452.435 146.883 452.136 146.312C451.837 145.74 451.687 145.089 451.687 144.359ZM457.808 144.373C457.808 143.827 457.698 143.352 457.478 142.948C457.258 142.543 456.959 142.236 456.581 142.025C456.212 141.805 455.803 141.695 455.354 141.695C454.906 141.695 454.497 141.8 454.128 142.011C453.758 142.222 453.464 142.53 453.244 142.935C453.024 143.339 452.914 143.814 452.914 144.359C452.914 144.913 453.024 145.397 453.244 145.81C453.464 146.215 453.758 146.527 454.128 146.747C454.497 146.958 454.906 147.063 455.354 147.063C455.803 147.063 456.212 146.958 456.581 146.747C456.959 146.527 457.258 146.215 457.478 145.81C457.698 145.397 457.808 144.918 457.808 144.373ZM460.602 144.373C460.602 143.625 460.751 142.974 461.05 142.42C461.349 141.858 461.762 141.422 462.29 141.114C462.826 140.807 463.438 140.653 464.123 140.653C465.012 140.653 465.741 140.868 466.313 141.299C466.893 141.73 467.276 142.328 467.461 143.093H466.168C466.045 142.653 465.803 142.306 465.443 142.051C465.091 141.796 464.651 141.668 464.123 141.668C463.438 141.668 462.884 141.906 462.461 142.381C462.039 142.847 461.828 143.511 461.828 144.373C461.828 145.243 462.039 145.916 462.461 146.391C462.884 146.866 463.438 147.103 464.123 147.103C464.651 147.103 465.091 146.98 465.443 146.734C465.794 146.487 466.036 146.136 466.168 145.678H467.461C467.267 146.417 466.88 147.011 466.3 147.459C465.72 147.899 464.994 148.119 464.123 148.119C463.438 148.119 462.826 147.965 462.29 147.657C461.762 147.349 461.349 146.914 461.05 146.351C460.751 145.788 460.602 145.129 460.602 144.373ZM471.621 148.119C471.067 148.119 470.57 148.026 470.131 147.842C469.691 147.648 469.344 147.384 469.089 147.05C468.834 146.707 468.693 146.316 468.667 145.876H469.907C469.942 146.237 470.109 146.531 470.408 146.76C470.716 146.989 471.116 147.103 471.608 147.103C472.065 147.103 472.426 147.002 472.69 146.8C472.954 146.597 473.085 146.342 473.085 146.035C473.085 145.718 472.945 145.485 472.663 145.335C472.382 145.177 471.947 145.023 471.358 144.874C470.821 144.733 470.381 144.592 470.038 144.452C469.704 144.302 469.414 144.087 469.168 143.805C468.93 143.515 468.812 143.137 468.812 142.671C468.812 142.302 468.922 141.963 469.141 141.655C469.361 141.347 469.673 141.106 470.078 140.93C470.483 140.745 470.944 140.653 471.463 140.653C472.263 140.653 472.91 140.855 473.402 141.26C473.895 141.664 474.158 142.218 474.194 142.922H472.993C472.967 142.543 472.813 142.24 472.531 142.011C472.259 141.783 471.89 141.668 471.423 141.668C470.993 141.668 470.65 141.761 470.395 141.945C470.14 142.13 470.012 142.372 470.012 142.671C470.012 142.908 470.087 143.106 470.236 143.265C470.395 143.414 470.588 143.537 470.817 143.634C471.054 143.722 471.379 143.823 471.793 143.937C472.312 144.078 472.734 144.219 473.059 144.359C473.384 144.491 473.661 144.694 473.89 144.966C474.128 145.239 474.251 145.595 474.259 146.035C474.259 146.43 474.15 146.786 473.93 147.103C473.71 147.42 473.398 147.67 472.993 147.855C472.597 148.031 472.14 148.119 471.621 148.119Z" fill="#15192C"/>
<defs>
<filter id="filter0_d" x="388.279" y="99.2865" width="135.319" height="91.2802" filterUnits="userSpaceOnUse" color-interpolation-filters="sRGB">
<feFlood flood-opacity="0" result="BackgroundImageFix"/>
<feColorMatrix in="SourceAlpha" type="matrix" values="0 0 0 0 0 0 0 0 0 0 0 0 0 0 0 0 0 0 127 0" result="hardAlpha"/>
<feMorphology radius="2.63815" operator="erode" in="SourceAlpha" result="effect1_dropShadow"/>
<feOffset dy="11.8717"/>
<feGaussianBlur stdDeviation="10.5526"/>
<feColorMatrix type="matrix" values="0 0 0 0 0.815686 0 0 0 0 0.823529 0 0 0 0 0.854902 0 0 0 0.15 0"/>
<feBlend mode="normal" in2="BackgroundImageFix" result="effect1_dropShadow"/>
<feBlend mode="normal" in="SourceGraphic" in2="effect1_dropShadow" result="shape"/>
</filter>
<linearGradient id="paint0_linear" x1="386.892" y1="51.635" x2="386.892" y2="282.722" gradientUnits="userSpaceOnUse">
<stop stop-color="#FFF0D8"/>
<stop offset="1" stop-color="#FFF9EF"/>
</linearGradient>
</defs>
</svg>
