<svg width="475" height="271" viewBox="0 0 475 271" fill="none" xmlns="http://www.w3.org/2000/svg">
<rect x="0.527219" y="0.469113" width="473.804" height="269.271" rx="4.22202" fill="white" stroke="#E5E5E5" stroke-width="0.938226"/>
<g opacity="0.16">
<rect x="66.6719" y="121.031" width="39.511" height="121.213" fill="#F2C94C"/>
</g>
<g opacity="0.16">
<rect x="110.769" y="126.66" width="39.511" height="115.288" fill="#F2C94C"/>
</g>
<g opacity="0.16">
<rect x="153.927" y="106.02" width="39.511" height="136.289" fill="#F2C94C"/>
</g>
<g opacity="0.16">
<rect x="198.962" y="95.6992" width="39.511" height="145.978" fill="#F2C94C"/>
</g>
<g opacity="0.16">
<rect x="242.121" y="144.486" width="39.511" height="97.6684" fill="#F2C94C"/>
</g>
<g opacity="0.16">
<rect x="285.279" y="121.031" width="39.511" height="120.885" fill="#F2C94C"/>
</g>
<g opacity="0.16">
<rect x="330.313" y="109.772" width="39.511" height="131.969" fill="#F2C94C"/>
</g>
<g opacity="0.16">
<rect x="373.472" y="166.065" width="39.511" height="75.8468" fill="#F2C94C"/>
</g>
<g opacity="0.16">
<rect x="416.631" y="91.9453" width="39.511" height="149.36" fill="#F2C94C"/>
</g>
<path d="M81.8557 233.775H77.8266L79.8906 231.919C80.8677 231.041 81.5703 230.206 81.5703 229.021C81.5703 227.714 80.714 226.792 79.2209 226.792C77.7388 226.792 77.0581 227.692 76.7617 228.593L77.5851 228.911C77.7937 228.186 78.2328 227.616 79.177 227.616C80.1211 227.616 80.5932 228.197 80.5932 229.043V229.174C80.5932 229.91 80.0443 230.679 79.3307 231.337L76.8276 233.643V234.587H81.8557V233.775ZM88.4203 226.924H84.3143L84.0398 231.14L84.8193 231.249C85.1377 230.898 85.489 230.602 86.1916 230.602C87.2346 230.602 87.7945 231.184 87.7945 232.194V232.303C87.7945 233.313 87.2346 233.895 86.1916 233.895C85.2694 233.895 84.8852 233.489 84.49 232.885L83.7983 233.412C84.2594 234.071 84.9181 234.719 86.1916 234.719C87.8055 234.719 88.7716 233.676 88.7716 232.183C88.7716 230.701 87.8055 229.811 86.4881 229.811C85.6866 229.811 85.2804 230.141 84.9181 230.657H84.8413L85.0609 227.736H88.4203V226.924ZM93.2063 234.719C94.7433 234.719 95.7533 233.687 95.7533 232.183C95.7533 230.733 94.8092 229.822 93.4917 229.822C92.5586 229.822 92.0096 230.294 91.6473 230.92L91.5925 230.898C92.0096 229.12 92.9209 228.121 94.5567 226.924H93.371C92.1414 227.725 90.6373 229.504 90.6373 231.776C90.6373 233.599 91.6144 234.719 93.2063 234.719ZM93.1953 233.917C92.1853 233.917 91.5925 233.335 91.5925 232.303V232.216C91.5925 231.184 92.1853 230.602 93.1953 230.602C94.2054 230.602 94.7982 231.184 94.7982 232.216V232.303C94.7982 233.335 94.2054 233.917 93.1953 233.917Z" fill="#263238"/>
<path d="M82.2227 143.848L82.9412 143.848L82.9412 141.518L87.0969 141.518C87.9611 141.518 88.3883 141.926 88.3883 142.625C88.3883 143.314 87.9805 143.664 87.3979 143.79L87.5727 144.528C88.4951 144.343 89.1165 143.693 89.1165 142.644C89.1165 141.499 88.3883 140.702 87.2426 140.702L82.2227 140.702L82.2227 143.848ZM89 135.67L89 134.893L83.9898 134.893L83.9898 135.67L87.4562 135.67C88.1164 135.67 88.4174 136.272 88.4174 136.884C88.4174 137.632 87.9611 138.03 87.0678 138.03L83.9898 138.03L83.9898 138.806L87.2037 138.806C88.4174 138.806 89.1165 138.146 89.1165 137.117C89.1165 136.282 88.6602 135.903 88.1844 135.709L88.1844 135.67L89 135.67ZM89 131.458L88.3203 131.458L88.3203 132.196L81.8149 132.196L81.8149 132.972L88.1941 132.972C88.6602 132.972 89 132.681 89 132.147L89 131.458ZM87.3979 128.281L88.2135 128.553L88.2135 128.601L87.3979 128.834L83.9898 130.038L83.9898 130.815L89.1942 128.941L90.2622 129.32L90.2622 130.106L90.9419 130.106L90.9419 129.708C90.9419 128.97 90.7671 128.766 90.1652 128.543L83.9898 126.3L83.9898 127.067L87.3979 128.281ZM88.2815 118.131L88.2815 121.694L86.6406 119.869C85.8638 119.005 85.1259 118.383 84.0772 118.383C82.9218 118.383 82.1062 119.141 82.1062 120.461C82.1062 121.772 82.9024 122.374 83.6986 122.636L83.9801 121.908C83.3393 121.723 82.8344 121.335 82.8344 120.5C82.8344 119.665 83.349 119.247 84.0967 119.247L84.2132 119.247C84.8637 119.247 85.5434 119.733 86.126 120.364L88.165 122.578L89 122.578L89 118.131L88.2815 118.131ZM89.1165 114.304C89.1165 112.683 87.8251 111.974 85.6113 111.974C83.3976 111.974 82.1062 112.683 82.1062 114.304C82.1062 115.926 83.3976 116.634 85.6113 116.634C87.8251 116.634 89.1165 115.926 89.1165 114.304ZM88.4077 114.304C88.4077 115.362 87.4756 115.78 86.1648 115.78L85.0579 115.78C83.7471 115.78 82.815 115.362 82.815 114.304C82.815 113.246 83.7471 112.828 85.0579 112.828L86.1648 112.828C87.4756 112.828 88.4077 113.246 88.4077 114.304ZM88.2815 105.953L88.2815 109.516L86.6406 107.691C85.8638 106.827 85.1259 106.205 84.0772 106.205C82.9218 106.205 82.1062 106.963 82.1062 108.283C82.1062 109.594 82.9024 110.196 83.6986 110.458L83.9801 109.73C83.3393 109.545 82.8344 109.157 82.8344 108.322C82.8344 107.487 83.349 107.069 84.0967 107.069L84.2132 107.069C84.8637 107.069 85.5434 107.555 86.126 108.186L88.165 110.4L89 110.4L89 105.953L88.2815 105.953ZM89 99.7279L88.2815 99.7279L88.2815 101.476L82.2227 101.476L82.2227 102.748L83.9025 104.544L84.4171 104.068L82.8247 102.359L82.8247 102.291L88.2815 102.291L88.2815 104.185L89 104.185L89 99.7279Z" fill="#263238"/>
<path d="M126.223 142.848L126.941 142.848L126.941 140.518L131.097 140.518C131.961 140.518 132.388 140.926 132.388 141.625C132.388 142.314 131.98 142.664 131.398 142.79L131.573 143.528C132.495 143.343 133.117 142.693 133.117 141.644C133.117 140.499 132.388 139.702 131.243 139.702L126.223 139.702L126.223 142.848ZM133 134.67L133 133.893L127.99 133.893L127.99 134.67L131.456 134.67C132.116 134.67 132.417 135.272 132.417 135.884C132.417 136.632 131.961 137.03 131.068 137.03L127.99 137.03L127.99 137.806L131.204 137.806C132.417 137.806 133.117 137.146 133.117 136.117C133.117 135.282 132.66 134.903 132.184 134.709L132.184 134.67L133 134.67ZM133 130.458L132.32 130.458L132.32 131.196L125.815 131.196L125.815 131.972L132.194 131.972C132.66 131.972 133 131.681 133 131.147L133 130.458ZM131.398 127.281L132.214 127.553L132.214 127.601L131.398 127.834L127.99 129.038L127.99 129.815L133.194 127.941L134.262 128.32L134.262 129.106L134.942 129.106L134.942 128.708C134.942 127.97 134.767 127.766 134.165 127.543L127.99 125.3L127.99 126.067L131.398 127.281ZM132.281 117.131L132.281 120.694L130.641 118.869C129.864 118.005 129.126 117.383 128.077 117.383C126.922 117.383 126.106 118.141 126.106 119.461C126.106 120.772 126.902 121.374 127.699 121.636L127.98 120.908C127.339 120.723 126.834 120.335 126.834 119.5C126.834 118.665 127.349 118.247 128.097 118.247L128.213 118.247C128.864 118.247 129.543 118.733 130.126 119.364L132.165 121.578L133 121.578L133 117.131L132.281 117.131ZM133.117 113.304C133.117 111.683 131.825 110.974 129.611 110.974C127.398 110.974 126.106 111.683 126.106 113.304C126.106 114.926 127.398 115.634 129.611 115.634C131.825 115.634 133.117 114.926 133.117 113.304ZM132.408 113.304C132.408 114.362 131.476 114.78 130.165 114.78L129.058 114.78C127.747 114.78 126.815 114.362 126.815 113.304C126.815 112.246 127.747 111.828 129.058 111.828L130.165 111.828C131.476 111.828 132.408 112.246 132.408 113.304ZM132.281 104.953L132.281 108.516L130.641 106.691C129.864 105.827 129.126 105.205 128.077 105.205C126.922 105.205 126.106 105.963 126.106 107.283C126.106 108.594 126.902 109.196 127.699 109.458L127.98 108.73C127.339 108.545 126.834 108.157 126.834 107.322C126.834 106.487 127.349 106.069 128.097 106.069L128.213 106.069C128.864 106.069 129.543 106.555 130.126 107.186L132.165 109.4L133 109.4L133 104.953L132.281 104.953ZM133 98.7279L132.281 98.7279L132.281 100.476L126.223 100.476L126.223 101.748L127.902 103.544L128.417 103.068L126.825 101.359L126.825 101.291L132.281 101.291L132.281 103.185L133 103.185L133 98.7279Z" fill="#263238"/>
<path d="M170.223 127.848L170.941 127.848L170.941 125.518L175.097 125.518C175.961 125.518 176.388 125.926 176.388 126.625C176.388 127.314 175.98 127.664 175.398 127.79L175.573 128.528C176.495 128.343 177.117 127.693 177.117 126.644C177.117 125.499 176.388 124.702 175.243 124.702L170.223 124.702L170.223 127.848ZM177 119.67L177 118.893L171.99 118.893L171.99 119.67L175.456 119.67C176.116 119.67 176.417 120.272 176.417 120.884C176.417 121.632 175.961 122.03 175.068 122.03L171.99 122.03L171.99 122.806L175.204 122.806C176.417 122.806 177.117 122.146 177.117 121.117C177.117 120.282 176.66 119.903 176.184 119.709L176.184 119.67L177 119.67ZM177 115.458L176.32 115.458L176.32 116.196L169.815 116.196L169.815 116.972L176.194 116.972C176.66 116.972 177 116.681 177 116.147L177 115.458ZM175.398 112.281L176.214 112.553L176.214 112.601L175.398 112.834L171.99 114.038L171.99 114.815L177.194 112.941L178.262 113.32L178.262 114.106L178.942 114.106L178.942 113.708C178.942 112.97 178.767 112.766 178.165 112.543L171.99 110.3L171.99 111.067L175.398 112.281ZM176.281 102.131L176.281 105.694L174.641 103.869C173.864 103.005 173.126 102.383 172.077 102.383C170.922 102.383 170.106 103.141 170.106 104.461C170.106 105.772 170.902 106.374 171.699 106.636L171.98 105.908C171.339 105.723 170.834 105.335 170.834 104.5C170.834 103.665 171.349 103.247 172.097 103.247L172.213 103.247C172.864 103.247 173.543 103.733 174.126 104.364L176.165 106.578L177 106.578L177 102.131L176.281 102.131ZM177.117 98.3041C177.117 96.6826 175.825 95.9738 173.611 95.9738C171.398 95.9738 170.106 96.6826 170.106 98.3041C170.106 99.9256 171.398 100.634 173.611 100.634C175.825 100.634 177.117 99.9256 177.117 98.3041ZM176.408 98.3041C176.408 99.3624 175.476 99.7799 174.165 99.7799L173.058 99.7799C171.747 99.7799 170.815 99.3624 170.815 98.3041C170.815 97.2457 171.747 96.8282 173.058 96.8282L174.165 96.8282C175.476 96.8282 176.408 97.2457 176.408 98.3041ZM176.281 89.9528L176.281 93.5162L174.641 91.6908C173.864 90.8266 173.126 90.2052 172.077 90.2052C170.922 90.2052 170.106 90.9626 170.106 92.2831C170.106 93.5939 170.902 94.1959 171.699 94.458L171.98 93.7298C171.339 93.5453 170.834 93.1569 170.834 92.3219C170.834 91.4869 171.349 91.0694 172.097 91.0694L172.213 91.0694C172.864 91.0694 173.543 91.5549 174.126 92.186L176.165 94.3998L177 94.3998L177 89.9528L176.281 89.9528ZM177 83.7279L176.281 83.7279L176.281 85.4756L170.223 85.4756L170.223 86.7475L171.902 88.5438L172.417 88.068L170.825 86.3592L170.825 86.2912L176.281 86.2912L176.281 88.1846L177 88.1846L177 83.7279Z" fill="#263238"/>
<path d="M215.223 127.848L215.941 127.848L215.941 125.518L220.097 125.518C220.961 125.518 221.388 125.926 221.388 126.625C221.388 127.314 220.98 127.664 220.398 127.79L220.573 128.528C221.495 128.343 222.117 127.693 222.117 126.644C222.117 125.499 221.388 124.702 220.243 124.702L215.223 124.702L215.223 127.848ZM222 119.67L222 118.893L216.99 118.893L216.99 119.67L220.456 119.67C221.116 119.67 221.417 120.272 221.417 120.884C221.417 121.632 220.961 122.03 220.068 122.03L216.99 122.03L216.99 122.806L220.204 122.806C221.417 122.806 222.117 122.146 222.117 121.117C222.117 120.282 221.66 119.903 221.184 119.709L221.184 119.67L222 119.67ZM222 115.458L221.32 115.458L221.32 116.196L214.815 116.196L214.815 116.972L221.194 116.972C221.66 116.972 222 116.681 222 116.147L222 115.458ZM220.398 112.281L221.214 112.553L221.214 112.601L220.398 112.834L216.99 114.038L216.99 114.815L222.194 112.941L223.262 113.32L223.262 114.106L223.942 114.106L223.942 113.708C223.942 112.97 223.767 112.766 223.165 112.543L216.99 110.3L216.99 111.067L220.398 112.281ZM221.281 102.131L221.281 105.694L219.641 103.869C218.864 103.005 218.126 102.383 217.077 102.383C215.922 102.383 215.106 103.141 215.106 104.461C215.106 105.772 215.902 106.374 216.699 106.636L216.98 105.908C216.339 105.723 215.834 105.335 215.834 104.5C215.834 103.665 216.349 103.247 217.097 103.247L217.213 103.247C217.864 103.247 218.543 103.733 219.126 104.364L221.165 106.578L222 106.578L222 102.131L221.281 102.131ZM222.117 98.3041C222.117 96.6826 220.825 95.9738 218.611 95.9738C216.398 95.9738 215.106 96.6826 215.106 98.3041C215.106 99.9256 216.398 100.634 218.611 100.634C220.825 100.634 222.117 99.9256 222.117 98.3041ZM221.408 98.3041C221.408 99.3624 220.476 99.7799 219.165 99.7799L218.058 99.7799C216.747 99.7799 215.815 99.3624 215.815 98.3041C215.815 97.2457 216.747 96.8282 218.058 96.8282L219.165 96.8282C220.476 96.8282 221.408 97.2457 221.408 98.3041ZM221.281 89.9528L221.281 93.5162L219.641 91.6908C218.864 90.8266 218.126 90.2052 217.077 90.2052C215.922 90.2052 215.106 90.9626 215.106 92.2831C215.106 93.5939 215.902 94.1959 216.699 94.458L216.98 93.7298C216.339 93.5453 215.834 93.1569 215.834 92.3219C215.834 91.4869 216.349 91.0694 217.097 91.0694L217.213 91.0694C217.864 91.0694 218.543 91.5549 219.126 92.186L221.165 94.3998L222 94.3998L222 89.9528L221.281 89.9528ZM222 83.7279L221.281 83.7279L221.281 85.4756L215.223 85.4756L215.223 86.7475L216.902 88.5438L217.417 88.068L215.825 86.3592L215.825 86.2912L221.281 86.2912L221.281 88.1846L222 88.1846L222 83.7279Z" fill="#263238"/>
<path d="M258.223 165.848L258.941 165.848L258.941 163.518L263.097 163.518C263.961 163.518 264.388 163.926 264.388 164.625C264.388 165.314 263.98 165.664 263.398 165.79L263.573 166.528C264.495 166.343 265.117 165.693 265.117 164.644C265.117 163.499 264.388 162.702 263.243 162.702L258.223 162.702L258.223 165.848ZM265 157.67L265 156.893L259.99 156.893L259.99 157.67L263.456 157.67C264.116 157.67 264.417 158.272 264.417 158.884C264.417 159.632 263.961 160.03 263.068 160.03L259.99 160.03L259.99 160.806L263.204 160.806C264.417 160.806 265.117 160.146 265.117 159.117C265.117 158.282 264.66 157.903 264.184 157.709L264.184 157.67L265 157.67ZM265 153.458L264.32 153.458L264.32 154.196L257.815 154.196L257.815 154.972L264.194 154.972C264.66 154.972 265 154.681 265 154.147L265 153.458ZM263.398 150.281L264.214 150.553L264.214 150.601L263.398 150.834L259.99 152.038L259.99 152.815L265.194 150.941L266.262 151.32L266.262 152.106L266.942 152.106L266.942 151.708C266.942 150.97 266.767 150.766 266.165 150.543L259.99 148.3L259.99 149.067L263.398 150.281ZM264.281 140.131L264.281 143.694L262.641 141.869C261.864 141.005 261.126 140.383 260.077 140.383C258.922 140.383 258.106 141.141 258.106 142.461C258.106 143.772 258.902 144.374 259.699 144.636L259.98 143.908C259.339 143.723 258.834 143.335 258.834 142.5C258.834 141.665 259.349 141.247 260.097 141.247L260.213 141.247C260.864 141.247 261.543 141.733 262.126 142.364L264.165 144.578L265 144.578L265 140.131L264.281 140.131ZM265.117 136.304C265.117 134.683 263.825 133.974 261.611 133.974C259.398 133.974 258.106 134.683 258.106 136.304C258.106 137.926 259.398 138.634 261.611 138.634C263.825 138.634 265.117 137.926 265.117 136.304ZM264.408 136.304C264.408 137.362 263.476 137.78 262.165 137.78L261.058 137.78C259.747 137.78 258.815 137.362 258.815 136.304C258.815 135.246 259.747 134.828 261.058 134.828L262.165 134.828C263.476 134.828 264.408 135.246 264.408 136.304ZM264.281 127.953L264.281 131.516L262.641 129.691C261.864 128.827 261.126 128.205 260.077 128.205C258.922 128.205 258.106 128.963 258.106 130.283C258.106 131.594 258.902 132.196 259.699 132.458L259.98 131.73C259.339 131.545 258.834 131.157 258.834 130.322C258.834 129.487 259.349 129.069 260.097 129.069L260.213 129.069C260.864 129.069 261.543 129.555 262.126 130.186L264.165 132.4L265 132.4L265 127.953L264.281 127.953ZM265 121.728L264.281 121.728L264.281 123.476L258.223 123.476L258.223 124.748L259.902 126.544L260.417 126.068L258.825 124.359L258.825 124.291L264.281 124.291L264.281 126.185L265 126.185L265 121.728Z" fill="#263238"/>
<path d="M301.223 152.848L301.941 152.848L301.941 150.518L306.097 150.518C306.961 150.518 307.388 150.926 307.388 151.625C307.388 152.314 306.98 152.664 306.398 152.79L306.573 153.528C307.495 153.343 308.117 152.693 308.117 151.644C308.117 150.499 307.388 149.702 306.243 149.702L301.223 149.702L301.223 152.848ZM308 144.67L308 143.893L302.99 143.893L302.99 144.67L306.456 144.67C307.116 144.67 307.417 145.272 307.417 145.884C307.417 146.632 306.961 147.03 306.068 147.03L302.99 147.03L302.99 147.806L306.204 147.806C307.417 147.806 308.117 147.146 308.117 146.117C308.117 145.282 307.66 144.903 307.184 144.709L307.184 144.67L308 144.67ZM308 140.458L307.32 140.458L307.32 141.196L300.815 141.196L300.815 141.972L307.194 141.972C307.66 141.972 308 141.681 308 141.147L308 140.458ZM306.398 137.281L307.214 137.553L307.214 137.601L306.398 137.834L302.99 139.038L302.99 139.815L308.194 137.941L309.262 138.32L309.262 139.106L309.942 139.106L309.942 138.708C309.942 137.97 309.767 137.766 309.165 137.543L302.99 135.3L302.99 136.067L306.398 137.281ZM307.281 127.131L307.281 130.694L305.641 128.869C304.864 128.005 304.126 127.383 303.077 127.383C301.922 127.383 301.106 128.141 301.106 129.461C301.106 130.772 301.902 131.374 302.699 131.636L302.98 130.908C302.339 130.723 301.834 130.335 301.834 129.5C301.834 128.665 302.349 128.247 303.097 128.247L303.213 128.247C303.864 128.247 304.543 128.733 305.126 129.364L307.165 131.578L308 131.578L308 127.131L307.281 127.131ZM308.117 123.304C308.117 121.683 306.825 120.974 304.611 120.974C302.398 120.974 301.106 121.683 301.106 123.304C301.106 124.926 302.398 125.634 304.611 125.634C306.825 125.634 308.117 124.926 308.117 123.304ZM307.408 123.304C307.408 124.362 306.476 124.78 305.165 124.78L304.058 124.78C302.747 124.78 301.815 124.362 301.815 123.304C301.815 122.246 302.747 121.828 304.058 121.828L305.165 121.828C306.476 121.828 307.408 122.246 307.408 123.304ZM307.281 114.953L307.281 118.516L305.641 116.691C304.864 115.827 304.126 115.205 303.077 115.205C301.922 115.205 301.106 115.963 301.106 117.283C301.106 118.594 301.902 119.196 302.699 119.458L302.98 118.73C302.339 118.545 301.834 118.157 301.834 117.322C301.834 116.487 302.349 116.069 303.097 116.069L303.213 116.069C303.864 116.069 304.543 116.555 305.126 117.186L307.165 119.4L308 119.4L308 114.953L307.281 114.953ZM308 108.728L307.281 108.728L307.281 110.476L301.223 110.476L301.223 111.748L302.902 113.544L303.417 113.068L301.825 111.359L301.825 111.291L307.281 111.291L307.281 113.185L308 113.185L308 108.728Z" fill="#263238"/>
<path d="M347.223 143.848L347.941 143.848L347.941 141.518L352.097 141.518C352.961 141.518 353.388 141.926 353.388 142.625C353.388 143.314 352.98 143.664 352.398 143.79L352.573 144.528C353.495 144.343 354.117 143.693 354.117 142.644C354.117 141.499 353.388 140.702 352.243 140.702L347.223 140.702L347.223 143.848ZM354 135.67L354 134.893L348.99 134.893L348.99 135.67L352.456 135.67C353.116 135.67 353.417 136.272 353.417 136.884C353.417 137.632 352.961 138.03 352.068 138.03L348.99 138.03L348.99 138.806L352.204 138.806C353.417 138.806 354.117 138.146 354.117 137.117C354.117 136.282 353.66 135.903 353.184 135.709L353.184 135.67L354 135.67ZM354 131.458L353.32 131.458L353.32 132.196L346.815 132.196L346.815 132.972L353.194 132.972C353.66 132.972 354 132.681 354 132.147L354 131.458ZM352.398 128.281L353.214 128.553L353.214 128.601L352.398 128.834L348.99 130.038L348.99 130.815L354.194 128.941L355.262 129.32L355.262 130.106L355.942 130.106L355.942 129.708C355.942 128.97 355.767 128.766 355.165 128.543L348.99 126.3L348.99 127.067L352.398 128.281ZM353.281 118.131L353.281 121.694L351.641 119.869C350.864 119.005 350.126 118.383 349.077 118.383C347.922 118.383 347.106 119.141 347.106 120.461C347.106 121.772 347.902 122.374 348.699 122.636L348.98 121.908C348.339 121.723 347.834 121.335 347.834 120.5C347.834 119.665 348.349 119.247 349.097 119.247L349.213 119.247C349.864 119.247 350.543 119.733 351.126 120.364L353.165 122.578L354 122.578L354 118.131L353.281 118.131ZM354.117 114.304C354.117 112.683 352.825 111.974 350.611 111.974C348.398 111.974 347.106 112.683 347.106 114.304C347.106 115.926 348.398 116.634 350.611 116.634C352.825 116.634 354.117 115.926 354.117 114.304ZM353.408 114.304C353.408 115.362 352.476 115.78 351.165 115.78L350.058 115.78C348.747 115.78 347.815 115.362 347.815 114.304C347.815 113.246 348.747 112.828 350.058 112.828L351.165 112.828C352.476 112.828 353.408 113.246 353.408 114.304ZM353.281 105.953L353.281 109.516L351.641 107.691C350.864 106.827 350.126 106.205 349.077 106.205C347.922 106.205 347.106 106.963 347.106 108.283C347.106 109.594 347.902 110.196 348.699 110.458L348.98 109.73C348.339 109.545 347.834 109.157 347.834 108.322C347.834 107.487 348.349 107.069 349.097 107.069L349.213 107.069C349.864 107.069 350.543 107.555 351.126 108.186L353.165 110.4L354 110.4L354 105.953L353.281 105.953ZM354 99.7279L353.281 99.7279L353.281 101.476L347.223 101.476L347.223 102.748L348.902 104.544L349.417 104.068L347.825 102.359L347.825 102.291L353.281 102.291L353.281 104.185L354 104.185L354 99.7279Z" fill="#263238"/>
<path d="M389.223 184.848L389.941 184.848L389.941 182.518L394.097 182.518C394.961 182.518 395.388 182.926 395.388 183.625C395.388 184.314 394.98 184.664 394.398 184.79L394.573 185.528C395.495 185.343 396.117 184.693 396.117 183.644C396.117 182.499 395.388 181.702 394.243 181.702L389.223 181.702L389.223 184.848ZM396 176.67L396 175.893L390.99 175.893L390.99 176.67L394.456 176.67C395.116 176.67 395.417 177.272 395.417 177.884C395.417 178.632 394.961 179.03 394.068 179.03L390.99 179.03L390.99 179.806L394.204 179.806C395.417 179.806 396.117 179.146 396.117 178.117C396.117 177.282 395.66 176.903 395.184 176.709L395.184 176.67L396 176.67ZM396 172.458L395.32 172.458L395.32 173.196L388.815 173.196L388.815 173.972L395.194 173.972C395.66 173.972 396 173.681 396 173.147L396 172.458ZM394.398 169.281L395.214 169.553L395.214 169.601L394.398 169.834L390.99 171.038L390.99 171.815L396.194 169.941L397.262 170.32L397.262 171.106L397.942 171.106L397.942 170.708C397.942 169.97 397.767 169.766 397.165 169.543L390.99 167.3L390.99 168.067L394.398 169.281ZM395.281 159.131L395.281 162.694L393.641 160.869C392.864 160.005 392.126 159.383 391.077 159.383C389.922 159.383 389.106 160.141 389.106 161.461C389.106 162.772 389.902 163.374 390.699 163.636L390.98 162.908C390.339 162.723 389.834 162.335 389.834 161.5C389.834 160.665 390.349 160.247 391.097 160.247L391.213 160.247C391.864 160.247 392.543 160.733 393.126 161.364L395.165 163.578L396 163.578L396 159.131L395.281 159.131ZM396.117 155.304C396.117 153.683 394.825 152.974 392.611 152.974C390.398 152.974 389.106 153.683 389.106 155.304C389.106 156.926 390.398 157.634 392.611 157.634C394.825 157.634 396.117 156.926 396.117 155.304ZM395.408 155.304C395.408 156.362 394.476 156.78 393.165 156.78L392.058 156.78C390.747 156.78 389.815 156.362 389.815 155.304C389.815 154.246 390.747 153.828 392.058 153.828L393.165 153.828C394.476 153.828 395.408 154.246 395.408 155.304ZM395.281 146.953L395.281 150.516L393.641 148.691C392.864 147.827 392.126 147.205 391.077 147.205C389.922 147.205 389.106 147.963 389.106 149.283C389.106 150.594 389.902 151.196 390.699 151.458L390.98 150.73C390.339 150.545 389.834 150.157 389.834 149.322C389.834 148.487 390.349 148.069 391.097 148.069L391.213 148.069C391.864 148.069 392.543 148.555 393.126 149.186L395.165 151.4L396 151.4L396 146.953L395.281 146.953ZM396 140.728L395.281 140.728L395.281 142.476L389.223 142.476L389.223 143.748L390.902 145.544L391.417 145.068L389.825 143.359L389.825 143.291L395.281 143.291L395.281 145.185L396 145.185L396 140.728Z" fill="#263238"/>
<path d="M432.223 116.848L432.941 116.848L432.941 114.518L437.097 114.518C437.961 114.518 438.388 114.926 438.388 115.625C438.388 116.314 437.98 116.664 437.398 116.79L437.573 117.528C438.495 117.343 439.117 116.693 439.117 115.644C439.117 114.499 438.388 113.702 437.243 113.702L432.223 113.702L432.223 116.848ZM439 108.67L439 107.893L433.99 107.893L433.99 108.67L437.456 108.67C438.116 108.67 438.417 109.272 438.417 109.884C438.417 110.632 437.961 111.03 437.068 111.03L433.99 111.03L433.99 111.806L437.204 111.806C438.417 111.806 439.117 111.146 439.117 110.117C439.117 109.282 438.66 108.903 438.184 108.709L438.184 108.67L439 108.67ZM439 104.458L438.32 104.458L438.32 105.196L431.815 105.196L431.815 105.972L438.194 105.972C438.66 105.972 439 105.681 439 105.147L439 104.458ZM437.398 101.281L438.214 101.553L438.214 101.601L437.398 101.834L433.99 103.038L433.99 103.815L439.194 101.941L440.262 102.32L440.262 103.106L440.942 103.106L440.942 102.708C440.942 101.97 440.767 101.766 440.165 101.543L433.99 99.2999L433.99 100.067L437.398 101.281ZM438.281 91.1307L438.281 94.6942L436.641 92.8687C435.864 92.0046 435.126 91.3832 434.077 91.3832C432.922 91.3832 432.106 92.1405 432.106 93.461C432.106 94.7718 432.902 95.3738 433.699 95.636L433.98 94.9078C433.339 94.7233 432.834 94.3349 432.834 93.4999C432.834 92.6648 433.349 92.2473 434.097 92.2473L434.213 92.2473C434.864 92.2473 435.543 92.7328 436.126 93.3639L438.165 95.5777L439 95.5777L439 91.1307L438.281 91.1307ZM439.117 87.3041C439.117 85.6826 437.825 84.9738 435.611 84.9738C433.398 84.9738 432.106 85.6826 432.106 87.3041C432.106 88.9256 433.398 89.6344 435.611 89.6344C437.825 89.6344 439.117 88.9256 439.117 87.3041ZM438.408 87.3041C438.408 88.3624 437.476 88.7799 436.165 88.7799L435.058 88.7799C433.747 88.7799 432.815 88.3624 432.815 87.3041C432.815 86.2457 433.747 85.8282 435.058 85.8282L436.165 85.8282C437.476 85.8282 438.408 86.2457 438.408 87.3041ZM438.281 78.9528L438.281 82.5162L436.641 80.6908C435.864 79.8266 435.126 79.2052 434.077 79.2052C432.922 79.2052 432.106 79.9626 432.106 81.2831C432.106 82.5939 432.902 83.1959 433.699 83.458L433.98 82.7298C433.339 82.5453 432.834 82.1569 432.834 81.3219C432.834 80.4869 433.349 80.0694 434.097 80.0694L434.213 80.0694C434.864 80.0694 435.543 80.5549 436.126 81.186L438.165 83.3998L439 83.3998L439 78.9528L438.281 78.9528ZM439 72.7279L438.281 72.7279L438.281 74.4756L432.223 74.4756L432.223 75.7475L433.902 77.5438L434.417 77.068L432.825 75.3592L432.825 75.2912L438.281 75.2912L438.281 77.1846L439 77.1846L439 72.7279Z" fill="#263238"/>
<path d="M126.106 234.475V233.662H124.13V226.812H122.692L120.661 228.711L121.199 229.293L123.131 227.492H123.208V233.662H121.067V234.475H126.106ZM132.045 234.475V232.971H133.154V232.202H132.045V226.812H130.673L127.467 232.158V232.971H131.167V234.475H132.045ZM131.112 227.525H131.167V232.202H128.334L131.112 227.525ZM138.994 234.475V232.971H140.103V232.202H138.994V226.812H137.621L134.416 232.158V232.971H138.115V234.475H138.994ZM138.061 227.525H138.115V232.202H135.283L138.061 227.525Z" fill="#263238"/>
<path d="M169.265 233.896V233.083H167.289V226.232H165.85L163.819 228.132L164.357 228.714L166.29 226.913H166.366V233.083H164.226V233.896H169.265ZM173.513 234.027C175.05 234.027 176.06 232.995 176.06 231.491C176.06 230.042 175.116 229.131 173.798 229.131C172.865 229.131 172.316 229.603 171.954 230.229L171.899 230.207C172.316 228.428 173.227 227.429 174.863 226.232H173.678C172.448 227.034 170.944 228.812 170.944 231.085C170.944 232.907 171.921 234.027 173.513 234.027ZM173.502 233.226C172.492 233.226 171.899 232.644 171.899 231.612V231.524C171.899 230.492 172.492 229.91 173.502 229.91C174.512 229.91 175.105 230.492 175.105 231.524V231.612C175.105 232.644 174.512 233.226 173.502 233.226ZM180.451 234.027C182.196 234.027 183.108 233.072 183.108 231.81C183.108 230.767 182.482 230.163 181.56 229.91V229.822C182.361 229.548 182.877 228.9 182.877 228.022C182.877 226.858 181.977 226.101 180.451 226.101C178.925 226.101 178.024 226.858 178.024 228.022C178.024 228.9 178.54 229.548 179.342 229.822V229.91C178.42 230.163 177.794 230.767 177.794 231.81C177.794 233.072 178.705 234.027 180.451 234.027ZM180.451 233.226C179.386 233.226 178.771 232.721 178.771 231.853V231.623C178.771 230.756 179.386 230.251 180.451 230.251C181.516 230.251 182.13 230.756 182.13 231.623V231.853C182.13 232.721 181.516 233.226 180.451 233.226ZM180.451 229.482C179.496 229.482 178.98 229.054 178.98 228.274V228.11C178.98 227.33 179.496 226.902 180.451 226.902C181.406 226.902 181.922 227.33 181.922 228.11V228.274C181.922 229.054 181.406 229.482 180.451 229.482Z" fill="#263238"/>
<path d="M214.146 234.639H210.117L212.181 232.783C213.158 231.905 213.86 231.071 213.86 229.885C213.86 228.579 213.004 227.656 211.511 227.656C210.029 227.656 209.348 228.557 209.052 229.457L209.875 229.775C210.084 229.051 210.523 228.48 211.467 228.48C212.411 228.48 212.883 229.062 212.883 229.907V230.039C212.883 230.774 212.334 231.543 211.621 232.202L209.118 234.507V235.451H214.146V234.639ZM220.238 235.451V233.947H221.347V233.179H220.238V227.788H218.866L215.66 233.135V233.947H219.36V235.451H220.238ZM219.305 228.502H219.36V233.179H216.527L219.305 228.502ZM225.485 235.583C227.231 235.583 228.142 234.628 228.142 233.365C228.142 232.322 227.516 231.718 226.594 231.466V231.378C227.396 231.104 227.912 230.456 227.912 229.578C227.912 228.414 227.011 227.656 225.485 227.656C223.959 227.656 223.059 228.414 223.059 229.578C223.059 230.456 223.575 231.104 224.377 231.378V231.466C223.454 231.718 222.829 232.322 222.829 233.365C222.829 234.628 223.74 235.583 225.485 235.583ZM225.485 234.781C224.42 234.781 223.806 234.276 223.806 233.409V233.179C223.806 232.311 224.42 231.806 225.485 231.806C226.55 231.806 227.165 232.311 227.165 233.179V233.409C227.165 234.276 226.55 234.781 225.485 234.781ZM225.485 231.038C224.53 231.038 224.014 230.61 224.014 229.83V229.665C224.014 228.886 224.53 228.458 225.485 228.458C226.44 228.458 226.956 228.886 226.956 229.665V229.83C226.956 230.61 226.44 231.038 225.485 231.038Z" fill="#263238"/>
<path d="M260.779 231.387C260.779 229.564 259.802 228.444 258.21 228.444C256.673 228.444 255.663 229.476 255.663 230.981C255.663 232.43 256.607 233.341 257.924 233.341C258.858 233.341 259.407 232.869 259.769 232.243L259.824 232.265C259.407 234.044 258.495 235.043 256.86 236.239H258.045C259.275 235.438 260.779 233.659 260.779 231.387ZM258.221 232.561C257.211 232.561 256.618 231.98 256.618 230.948V230.86C256.618 229.828 257.211 229.246 258.221 229.246C259.231 229.246 259.824 229.828 259.824 230.86V230.948C259.824 231.98 259.231 232.561 258.221 232.561ZM265.181 236.371C266.718 236.371 267.728 235.339 267.728 233.835C267.728 232.386 266.784 231.475 265.466 231.475C264.533 231.475 263.984 231.947 263.622 232.572L263.567 232.55C263.984 230.772 264.895 229.773 266.531 228.576H265.345C264.116 229.378 262.612 231.156 262.612 233.429C262.612 235.251 263.589 236.371 265.181 236.371ZM265.17 235.57C264.16 235.57 263.567 234.988 263.567 233.956V233.868C263.567 232.836 264.16 232.254 265.17 232.254C266.18 232.254 266.773 232.836 266.773 233.868V233.956C266.773 234.988 266.18 235.57 265.17 235.57Z" fill="#263238"/>
<path d="M300.616 235.783V234.971H298.64V228.12H297.202L295.171 230.019L295.709 230.601L297.641 228.801H297.718V234.971H295.577V235.783H300.616ZM306.555 235.783V234.279H307.664V233.511H306.555V228.12H305.183L301.977 233.467V234.279H305.677V235.783H306.555ZM305.622 228.834H305.677V233.511H302.844L305.622 228.834ZM313.504 235.783V234.279H314.613V233.511H313.504V228.12H312.132L308.926 233.467V234.279H312.626V235.783H313.504ZM312.571 228.834H312.626V233.511H309.793L312.571 228.834Z" fill="#263238"/>
<path d="M345.651 234.587V233.775H343.675V226.924H342.237L340.206 228.823L340.744 229.405L342.676 227.605H342.753V233.775H340.612V234.587H345.651ZM349.899 234.719C351.436 234.719 352.446 233.687 352.446 232.183C352.446 230.733 351.502 229.822 350.185 229.822C349.251 229.822 348.702 230.294 348.34 230.92L348.285 230.898C348.702 229.12 349.614 228.121 351.249 226.924H350.064C348.834 227.725 347.33 229.504 347.33 231.776C347.33 233.599 348.307 234.719 349.899 234.719ZM349.888 233.917C348.878 233.917 348.285 233.335 348.285 232.303V232.216C348.285 231.184 348.878 230.602 349.888 230.602C350.898 230.602 351.491 231.184 351.491 232.216V232.303C351.491 233.335 350.898 233.917 349.888 233.917ZM356.837 234.719C358.583 234.719 359.494 233.764 359.494 232.501C359.494 231.458 358.868 230.854 357.946 230.602V230.514C358.747 230.239 359.263 229.592 359.263 228.713C359.263 227.55 358.363 226.792 356.837 226.792C355.311 226.792 354.411 227.55 354.411 228.713C354.411 229.592 354.927 230.239 355.728 230.514V230.602C354.806 230.854 354.18 231.458 354.18 232.501C354.18 233.764 355.091 234.719 356.837 234.719ZM356.837 233.917C355.772 233.917 355.157 233.412 355.157 232.545V232.314C355.157 231.447 355.772 230.942 356.837 230.942C357.902 230.942 358.517 231.447 358.517 232.314V232.545C358.517 233.412 357.902 233.917 356.837 233.917ZM356.837 230.174C355.882 230.174 355.366 229.745 355.366 228.966V228.801C355.366 228.022 355.882 227.594 356.837 227.594C357.792 227.594 358.308 228.022 358.308 228.801V228.966C358.308 229.745 357.792 230.174 356.837 230.174Z" fill="#263238"/>
<path d="M388.31 231.311V232.113H389.21C390.286 232.113 390.857 232.629 390.857 233.529V233.617C390.857 234.517 390.286 235.033 389.21 235.033C388.277 235.033 387.827 234.627 387.432 234.023L386.74 234.55C387.212 235.209 387.893 235.856 389.221 235.856C390.78 235.856 391.823 234.945 391.823 233.628C391.823 232.475 391.033 231.86 390.209 231.695V231.652C391.022 231.443 391.68 230.85 391.68 229.862C391.68 228.621 390.648 227.93 389.353 227.93C388.123 227.93 387.454 228.567 387.069 229.181L387.75 229.708C388.068 229.127 388.54 228.753 389.331 228.753C390.143 228.753 390.703 229.159 390.703 229.961V230.038C390.703 230.773 390.176 231.311 389.144 231.311H388.31ZM399.079 234.912H395.05L397.114 233.057C398.091 232.179 398.794 231.344 398.794 230.158C398.794 228.852 397.937 227.93 396.444 227.93C394.962 227.93 394.282 228.83 393.985 229.73L394.809 230.049C395.017 229.324 395.456 228.753 396.4 228.753C397.345 228.753 397.817 229.335 397.817 230.18V230.312C397.817 231.048 397.268 231.816 396.554 232.475L394.051 234.78V235.725H399.079V234.912Z" fill="#263238"/>
<path d="M431.815 233.793H427.786L429.85 231.938C430.827 231.059 431.529 230.225 431.529 229.039C431.529 227.733 430.673 226.811 429.18 226.811C427.698 226.811 427.017 227.711 426.721 228.611L427.544 228.93C427.753 228.205 428.192 227.634 429.136 227.634C430.08 227.634 430.552 228.216 430.552 229.061V229.193C430.552 229.929 430.003 230.697 429.29 231.356L426.787 233.661V234.605H431.815V233.793ZM438.379 226.942H434.273L433.999 231.158L434.778 231.268C435.097 230.917 435.448 230.62 436.151 230.62C437.194 230.62 437.753 231.202 437.753 232.212V232.322C437.753 233.332 437.194 233.914 436.151 233.914C435.228 233.914 434.844 233.508 434.449 232.904L433.757 233.431C434.218 234.089 434.877 234.737 436.151 234.737C437.764 234.737 438.731 233.694 438.731 232.201C438.731 230.719 437.764 229.83 436.447 229.83C435.646 229.83 435.239 230.159 434.877 230.675H434.8L435.02 227.755H438.379V226.942ZM443.165 234.737C444.702 234.737 445.712 233.705 445.712 232.201C445.712 230.752 444.768 229.841 443.451 229.841C442.518 229.841 441.969 230.313 441.606 230.939L441.551 230.917C441.969 229.138 442.88 228.139 444.516 226.942H443.33C442.1 227.744 440.596 229.522 440.596 231.795C440.596 233.617 441.573 234.737 443.165 234.737ZM443.154 233.936C442.144 233.936 441.551 233.354 441.551 232.322V232.234C441.551 231.202 442.144 230.62 443.154 230.62C444.164 230.62 444.757 231.202 444.757 232.234V232.322C444.757 233.354 444.164 233.936 443.154 233.936Z" fill="#263238"/>
<path d="M22.133 31.8384H16.6238L19.4459 29.3014C20.782 28.1005 21.7427 26.9596 21.7427 25.3383C21.7427 23.5519 20.5718 22.291 18.5302 22.291C16.5037 22.291 15.573 23.5219 15.1676 24.7529L16.2935 25.1882C16.5787 24.1974 17.1792 23.4168 18.4702 23.4168C19.7612 23.4168 20.4067 24.2125 20.4067 25.3684V25.5485C20.4067 26.5543 19.6561 27.6051 18.6804 28.5058L15.2577 31.6582V32.9492H22.133V31.8384ZM28.0493 33.1294C30.5562 33.1294 31.652 31.1328 31.652 27.7102C31.652 24.2875 30.5562 22.291 28.0493 22.291C25.5423 22.291 24.4465 24.2875 24.4465 27.7102C24.4465 31.1328 25.5423 33.1294 28.0493 33.1294ZM28.0493 32.0335C26.413 32.0335 25.7675 30.5924 25.7675 28.5658V26.8545C25.7675 24.8279 26.413 23.3868 28.0493 23.3868C29.6855 23.3868 30.331 24.8279 30.331 26.8545V28.5658C30.331 30.5924 29.6855 32.0335 28.0493 32.0335ZM40.9609 31.8384H35.4516L38.2738 29.3014C39.6098 28.1005 40.5706 26.9596 40.5706 25.3383C40.5706 23.5519 39.3997 22.291 37.3581 22.291C35.3315 22.291 34.4008 23.5219 33.9955 24.7529L35.1214 25.1882C35.4066 24.1974 36.0071 23.4168 37.2981 23.4168C38.5891 23.4168 39.2345 24.2125 39.2345 25.3684V25.5485C39.2345 26.5543 38.484 27.6051 37.5082 28.5058L34.0856 31.6582V32.9492H40.9609V31.8384ZM50.585 32.9492V31.8384H47.8829V22.4711H45.9164L43.1392 25.0681L43.8748 25.8637L46.5168 23.4018H46.6219V31.8384H43.6946V32.9492H50.585ZM60.837 33.1294C62.5783 33.1294 63.8543 32.2136 64.5148 30.7425L63.509 30.112C63.0887 31.2529 62.173 32.0035 60.837 32.0035C59.0356 32.0035 57.9698 30.6975 57.9698 28.5508V26.9896C57.9698 24.8429 59.0356 23.4168 60.837 23.4168C62.128 23.4168 62.9986 24.1224 63.419 25.2032L64.4398 24.5877C63.7793 23.1316 62.5783 22.291 60.837 22.291C58.1949 22.291 56.6187 24.2725 56.6187 27.7702C56.6187 31.2679 58.1949 33.1294 60.837 33.1294ZM69.6877 33.1294C71.7593 33.1294 73.1854 31.5381 73.1854 29.0762C73.1854 26.6143 71.7593 25.0231 69.6877 25.0231C67.6161 25.0231 66.19 26.6143 66.19 29.0762C66.19 31.5381 67.6161 33.1294 69.6877 33.1294ZM69.6877 32.0635C68.3967 32.0635 67.481 31.2679 67.481 29.6317V28.5208C67.481 26.8845 68.3967 26.0889 69.6877 26.0889C70.9787 26.0889 71.8944 26.8845 71.8944 28.5208V29.6317C71.8944 31.2679 70.9787 32.0635 69.6877 32.0635ZM75.5733 32.9492H76.7743V27.5751C76.7743 26.5843 77.705 26.1039 78.6657 26.1039C79.8216 26.1039 80.4221 26.8095 80.4221 28.1905V32.9492H81.623V27.9804C81.623 26.1039 80.6172 25.0231 79.026 25.0231C77.8701 25.0231 77.2096 25.5935 76.8343 26.4642H76.7743V21.8406H75.5733V32.9492ZM87.4454 33.1294C89.517 33.1294 90.9431 31.5381 90.9431 29.0762C90.9431 26.6143 89.517 25.0231 87.4454 25.0231C85.3738 25.0231 83.9477 26.6143 83.9477 29.0762C83.9477 31.5381 85.3738 33.1294 87.4454 33.1294ZM87.4454 32.0635C86.1544 32.0635 85.2387 31.2679 85.2387 29.6317V28.5208C85.2387 26.8845 86.1544 26.0889 87.4454 26.0889C88.7364 26.0889 89.6521 26.8845 89.6521 28.5208V29.6317C89.6521 31.2679 88.7364 32.0635 87.4454 32.0635ZM94.532 32.9492V27.6952C94.532 26.9596 95.3126 26.4042 96.6036 26.4042H97.3091V25.2032H96.8438C95.5828 25.2032 94.8772 25.8938 94.607 26.6293H94.532V25.2032H93.331V32.9492H94.532ZM102.527 32.9492V31.8984H100.951V26.254H102.647V25.2032H100.951V23.0566H99.87V24.4977C99.87 25.0231 99.7049 25.2032 99.1945 25.2032H98.4739V26.254H99.7499V31.6732C99.7499 32.4238 100.2 32.9492 101.026 32.9492H102.527ZM112.058 32.9492L114.79 25.2032H113.634L112.253 29.0462L111.413 31.6882H111.338L110.497 29.0462L109.146 25.2032H107.945L110.662 32.9492H112.058ZM119.079 33.1294C120.85 33.1294 121.946 32.2136 121.946 30.7125C121.946 29.5416 121.286 28.791 119.574 28.5358L118.974 28.4457C118.013 28.2956 117.488 27.9954 117.488 27.2448C117.488 26.5092 118.013 26.0439 119.004 26.0439C119.995 26.0439 120.655 26.5092 121 26.9896L121.796 26.269C121.166 25.4884 120.34 25.0231 119.094 25.0231C117.518 25.0231 116.332 25.7737 116.332 27.3048C116.332 28.746 117.398 29.3314 118.824 29.5416L119.439 29.6317C120.46 29.7818 120.79 30.2471 120.79 30.8476C120.79 31.6432 120.19 32.1086 119.169 32.1086C118.193 32.1086 117.473 31.6732 116.872 30.9226L116.017 31.6132C116.707 32.5289 117.653 33.1294 119.079 33.1294ZM129.822 32.9492V28.2055H134.37V27.0947H129.822V23.582H134.806V22.4711H128.561V32.9492H129.822ZM141.631 32.9492H142.832V25.2032H141.631V30.5624C141.631 31.5832 140.701 32.0485 139.755 32.0485C138.599 32.0485 137.984 31.343 137.984 29.9619V25.2032H136.783V30.1721C136.783 32.0485 137.803 33.1294 139.395 33.1294C140.686 33.1294 141.271 32.4238 141.571 31.6882H141.631V32.9492ZM147.003 32.9492V27.5751C147.003 26.5843 147.934 26.1039 148.895 26.1039C150.051 26.1039 150.651 26.8095 150.651 28.1905V32.9492H151.852V27.9804C151.852 26.1039 150.846 25.0231 149.255 25.0231C148.099 25.0231 147.439 25.5935 147.063 26.4642H147.003V25.2032H145.803V32.9492H147.003ZM159.701 32.9492H160.902V21.8406H159.701V26.4642H159.641C159.236 25.4884 158.44 25.0231 157.374 25.0231C155.438 25.0231 154.222 26.5993 154.222 29.0762C154.222 31.5531 155.438 33.1294 157.374 33.1294C158.44 33.1294 159.176 32.649 159.641 31.6882H159.701V32.9492ZM157.705 32.0485C156.354 32.0485 155.513 31.1178 155.513 29.7367V28.4157C155.513 27.0346 156.354 26.1039 157.705 26.1039C158.8 26.1039 159.701 26.7344 159.701 27.5901V30.4723C159.701 31.4781 158.8 32.0485 157.705 32.0485ZM164.469 23.3868C164.979 23.3868 165.204 23.1166 165.204 22.7113V22.5161C165.204 22.1108 164.979 21.8406 164.469 21.8406C163.958 21.8406 163.733 22.1108 163.733 22.5161V22.7113C163.733 23.1166 163.958 23.3868 164.469 23.3868ZM163.868 32.9492H165.069V25.2032H163.868V32.9492ZM169.235 32.9492V27.5751C169.235 26.5843 170.165 26.1039 171.126 26.1039C172.282 26.1039 172.883 26.8095 172.883 28.1905V32.9492H174.083V27.9804C174.083 26.1039 173.078 25.0231 171.486 25.0231C170.331 25.0231 169.67 25.5935 169.295 26.4642H169.235V25.2032H168.034V32.9492H169.235ZM183.509 33.8049C183.509 32.5289 182.683 31.7483 180.762 31.7483H179.11C178.405 31.7483 177.924 31.6282 177.924 31.1628C177.924 30.6825 178.435 30.4273 178.945 30.2922C179.17 30.3372 179.44 30.3672 179.696 30.3672C181.467 30.3672 182.623 29.2714 182.623 27.6952C182.623 26.8695 182.293 26.179 181.737 25.6986V25.2032H183.208V24.1524H182.053C181.407 24.1524 181.152 24.5877 181.152 25.1882V25.3233C180.731 25.1282 180.236 25.0231 179.681 25.0231C177.924 25.0231 176.768 26.1189 176.768 27.6952C176.768 28.776 177.309 29.6317 178.225 30.067V30.127C177.444 30.3222 176.889 30.6975 176.889 31.4781C176.889 32.0035 177.144 32.3488 177.579 32.5589V32.724C176.813 32.9342 176.348 33.3846 176.348 34.2252C176.348 35.4411 177.339 36.1317 179.756 36.1317C182.248 36.1317 183.509 35.3961 183.509 33.8049ZM182.383 33.895C182.383 34.7356 181.602 35.1559 180.266 35.1559H179.155C177.939 35.1559 177.474 34.6005 177.474 33.925C177.474 33.4446 177.699 33.0993 178.195 32.8742H180.777C181.977 32.8742 182.383 33.2795 182.383 33.895ZM179.696 29.4065C178.675 29.4065 178.029 28.9261 178.029 27.9053V27.485C178.029 26.4642 178.675 25.9838 179.696 25.9838C180.716 25.9838 181.362 26.4642 181.362 27.485V27.9053C181.362 28.9261 180.716 29.4065 179.696 29.4065Z" fill="#263238"/>
</svg>
