<svg width="54" height="55" viewBox="0 0 54 55" fill="none" xmlns="http://www.w3.org/2000/svg">
<path d="M27 54.9238C41.8979 54.9238 53.9751 42.8466 53.9751 27.9487C53.9751 13.0508 41.8979 0.973633 27 0.973633C12.1021 0.973633 0.0249023 13.0508 0.0249023 27.9487C0.0249023 42.8466 12.1021 54.9238 27 54.9238Z" fill="#F4F4F4"/>
<path d="M31.2236 43.6781C31.1186 44.0114 30.923 44.309 30.6587 44.5376C30.3944 44.7662 30.0717 44.9168 29.7268 44.9727C29.5228 44.964 29.3235 44.9086 29.1442 44.8108C28.7254 44.5828 28.3579 44.2713 28.0642 43.8955C27.7706 43.5198 27.5571 43.0878 27.4371 42.6263C27.0163 41.4936 26.628 40.3608 26.183 39.2281C25.3739 36.9519 24.5918 34.6675 23.8366 32.3751C23.7391 31.9074 23.4718 31.4923 23.0863 31.2099C22.7009 30.9275 22.2245 30.7979 21.7492 30.8459C18.0273 30.676 14.3055 30.3605 10.5918 30.1178C9.49952 30.053 8.4558 29.8912 8.16452 28.629C7.87325 27.3668 8.81989 26.7843 9.73416 26.2584C18.4723 21.2582 27.2024 16.2419 35.9891 11.3145C36.6688 10.9261 37.9876 10.6591 38.5782 11.3549C39.1689 12.0508 38.9909 13.4019 38.7805 14.3243C38.3679 16.258 37.7853 18.1594 37.2999 20.0769C36.5771 22.9088 35.8543 25.7433 35.1315 28.5805C33.9017 33.3703 32.6692 38.1601 31.434 42.9499C31.3773 43.1927 31.3045 43.4192 31.2236 43.6781ZM24.0955 27.4154C24.6555 27.4013 25.2031 27.5813 25.6455 27.9249C26.0879 28.2685 26.3979 28.7545 26.5228 29.3006C27.3319 31.8735 28.319 34.414 29.2171 36.9708C30.9647 30.1744 32.7042 23.3942 34.5651 16.1448C28.3675 19.7533 22.5906 23.1029 16.7652 26.4526L16.2231 26.8248C18.8202 27.0189 21.4174 27.2859 24.0227 27.4073L24.0955 27.4154Z" fill="#3DAB5C"/>
</svg>
