<svg width="476" height="378" viewBox="0 0 476 378" fill="none" xmlns="http://www.w3.org/2000/svg">
<path d="M1.12988 7.88694C1.12988 4.28294 4.0515 1.36133 7.65549 1.36133H468.474C472.078 1.36133 475 4.28294 475 7.88694V370.711C475 374.315 472.078 377.236 468.474 377.236H7.65549C4.0515 377.236 1.12988 374.315 1.12988 370.711V7.88694Z" fill="white" stroke="#E5E5E5" stroke-width="1.30512"/>
<g opacity="0.16">
<rect x="67.6215" y="169.723" width="38.9618" height="168.614" fill="#E7AF07"/>
</g>
<path d="M81.4918 327.976H74.3779V326.984L78.1362 322.808C78.693 322.177 79.0758 321.665 79.2846 321.272C79.4983 320.874 79.6052 320.464 79.6052 320.041C79.6052 319.475 79.4337 319.01 79.0907 318.647C78.7477 318.284 78.2903 318.103 77.7186 318.103C77.0326 318.103 76.4982 318.299 76.1154 318.692C75.7376 319.079 75.5487 319.621 75.5487 320.317H74.1691C74.1691 319.318 74.4898 318.51 75.1311 317.894C75.7773 317.277 76.6398 316.969 77.7186 316.969C78.7278 316.969 79.5257 317.235 80.1123 317.767C80.6989 318.294 80.9922 318.997 80.9922 319.877C80.9922 320.946 80.3111 322.219 78.949 323.695L76.0408 326.85H81.4918V327.976ZM84.0963 322.532L84.6481 317.118H90.2109V318.393H85.8188L85.4907 321.354C86.0226 321.041 86.6266 320.884 87.3027 320.884C88.292 320.884 89.0775 321.212 89.6591 321.868C90.2407 322.52 90.5316 323.402 90.5316 324.516C90.5316 325.634 90.2283 326.517 89.6218 327.163C89.0203 327.804 88.1777 328.125 87.0939 328.125C86.1345 328.125 85.3515 327.859 84.745 327.327C84.1385 326.795 83.793 326.059 83.7085 325.12H85.0135C85.098 325.741 85.3192 326.211 85.6771 326.529C86.0351 326.842 86.5073 326.999 87.0939 326.999C87.7352 326.999 88.2373 326.78 88.6002 326.343C88.9681 325.905 89.152 325.301 89.152 324.53C89.152 323.805 88.9532 323.223 88.5555 322.786C88.1628 322.343 87.6383 322.122 86.9821 322.122C86.3806 322.122 85.9083 322.254 85.5653 322.517L85.1999 322.815L84.0963 322.532ZM97.9606 317.111V318.282H97.7071C96.6333 318.301 95.7782 318.62 95.1419 319.236C94.5056 319.853 94.1377 320.72 94.0383 321.839C94.61 321.182 95.3905 320.854 96.3798 320.854C97.3243 320.854 98.0775 321.187 98.6392 321.853C99.2059 322.52 99.4893 323.38 99.4893 324.434C99.4893 325.552 99.1836 326.447 98.5721 327.118C97.9656 327.789 97.1503 328.125 96.1262 328.125C95.0872 328.125 94.2446 327.727 93.5983 326.932C92.9521 326.131 92.6289 325.102 92.6289 323.844V323.315C92.6289 321.317 93.054 319.79 93.9041 318.736C94.7591 317.678 96.0293 317.136 97.7146 317.111H97.9606ZM96.1486 322.003C95.6763 322.003 95.2413 322.144 94.8436 322.428C94.4459 322.711 94.17 323.066 94.0159 323.494V324.001C94.0159 324.896 94.2173 325.617 94.6199 326.164C95.0226 326.71 95.5247 326.984 96.1262 326.984C96.7476 326.984 97.2348 326.755 97.5878 326.298C97.9457 325.84 98.1247 325.241 98.1247 324.501C98.1247 323.755 97.9432 323.153 97.5803 322.696C97.2224 322.234 96.7452 322.003 96.1486 322.003Z" fill="#1F1F1F"/>
<g opacity="0.16">
<rect x="111.637" y="177.553" width="38.9618" height="160.372" fill="#E7AF07"/>
</g>
<path d="M130.05 328.468H122.936V327.476L126.694 323.3C127.251 322.669 127.634 322.157 127.842 321.764C128.056 321.366 128.163 320.956 128.163 320.534C128.163 319.967 127.992 319.502 127.649 319.139C127.306 318.776 126.848 318.595 126.277 318.595C125.591 318.595 125.056 318.791 124.673 319.184C124.295 319.572 124.107 320.114 124.107 320.81H122.727C122.727 319.81 123.048 319.002 123.689 318.386C124.335 317.77 125.198 317.461 126.277 317.461C127.286 317.461 128.084 317.727 128.67 318.259C129.257 318.786 129.55 319.49 129.55 320.37C129.55 321.438 128.869 322.711 127.507 324.188L124.599 327.342H130.05V328.468ZM138.829 323.837C138.829 325.453 138.553 326.653 138.001 327.439C137.449 328.224 136.586 328.617 135.413 328.617C134.255 328.617 133.397 328.234 132.841 327.469C132.284 326.698 131.995 325.55 131.976 324.023V322.182C131.976 320.586 132.252 319.4 132.803 318.625C133.355 317.849 134.22 317.461 135.398 317.461C136.567 317.461 137.427 317.837 137.978 318.587C138.53 319.333 138.814 320.486 138.829 322.047V323.837ZM137.449 321.95C137.449 320.782 137.285 319.932 136.957 319.4C136.629 318.863 136.109 318.595 135.398 318.595C134.692 318.595 134.178 318.861 133.855 319.393C133.532 319.925 133.365 320.742 133.355 321.846V324.053C133.355 325.227 133.524 326.094 133.862 326.656C134.205 327.213 134.722 327.491 135.413 327.491C136.094 327.491 136.599 327.227 136.927 326.7C137.26 326.174 137.434 325.343 137.449 324.21V321.95Z" fill="#1F1F1F"/>
<g opacity="0.16">
<rect x="154.716" y="148.84" width="38.9618" height="189.586" fill="#E7AF07"/>
</g>
<path d="M170.549 327.45H169.162V318.256L166.38 319.277V318.025L170.333 316.541H170.549V327.45ZM180.923 323.804H182.43V324.93H180.923V327.45H179.536V324.93H174.592V324.117L179.454 316.593H180.923V323.804ZM176.158 323.804H179.536V318.48L179.372 318.778L176.158 323.804Z" fill="#1F1F1F"/>
<g opacity="0.16">
<rect x="199.668" y="134.484" width="38.9618" height="203.064" fill="#E7AF07"/>
</g>
<path d="M212.973 323.603H214.01C214.661 323.593 215.173 323.422 215.546 323.089C215.919 322.756 216.105 322.306 216.105 321.739C216.105 320.467 215.471 319.83 214.203 319.83C213.607 319.83 213.13 320.002 212.772 320.345C212.419 320.683 212.242 321.133 212.242 321.694H210.863C210.863 320.834 211.176 320.121 211.802 319.554C212.434 318.983 213.234 318.697 214.203 318.697C215.228 318.697 216.03 318.968 216.612 319.51C217.194 320.051 217.485 320.805 217.485 321.769C217.485 322.241 217.33 322.699 217.022 323.141C216.719 323.583 216.304 323.914 215.777 324.133C216.373 324.322 216.833 324.635 217.156 325.072C217.485 325.51 217.649 326.044 217.649 326.676C217.649 327.65 217.33 328.423 216.694 328.995C216.058 329.566 215.23 329.852 214.211 329.852C213.192 329.852 212.362 329.576 211.72 329.025C211.084 328.473 210.766 327.744 210.766 326.84H212.153C212.153 327.411 212.339 327.869 212.712 328.212C213.085 328.555 213.585 328.726 214.211 328.726C214.877 328.726 215.387 328.552 215.74 328.204C216.093 327.856 216.269 327.357 216.269 326.705C216.269 326.074 216.075 325.589 215.687 325.251C215.3 324.913 214.74 324.739 214.01 324.729H212.973V323.603ZM227.166 329.703H220.052V328.711L223.81 324.535C224.367 323.904 224.75 323.392 224.958 322.999C225.172 322.602 225.279 322.192 225.279 321.769C225.279 321.202 225.107 320.737 224.764 320.375C224.421 320.012 223.964 319.83 223.392 319.83C222.706 319.83 222.172 320.027 221.789 320.419C221.411 320.807 221.222 321.349 221.222 322.045H219.843C219.843 321.046 220.164 320.238 220.805 319.621C221.451 319.005 222.314 318.697 223.392 318.697C224.402 318.697 225.199 318.963 225.786 319.495C226.373 320.022 226.666 320.725 226.666 321.605C226.666 322.674 225.985 323.946 224.623 325.423L221.715 328.577H227.166V329.703Z" fill="#1F1F1F"/>
<g opacity="0.16">
<rect x="242.748" y="202.35" width="38.9618" height="135.862" fill="#E7AF07"/>
</g>
<path d="M259.222 324.127L259.774 318.713H265.337V319.988H260.945L260.617 322.949C261.149 322.635 261.753 322.479 262.429 322.479C263.418 322.479 264.204 322.807 264.785 323.463C265.367 324.114 265.658 324.997 265.658 326.11C265.658 327.229 265.354 328.111 264.748 328.758C264.146 329.399 263.304 329.719 262.22 329.719C261.261 329.719 260.478 329.453 259.871 328.922C259.265 328.39 258.919 327.654 258.835 326.714H260.14C260.224 327.336 260.445 327.806 260.803 328.124C261.161 328.437 261.633 328.593 262.22 328.593C262.861 328.593 263.363 328.375 263.726 327.937C264.094 327.5 264.278 326.896 264.278 326.125C264.278 325.399 264.079 324.818 263.682 324.38C263.289 323.938 262.764 323.717 262.108 323.717C261.507 323.717 261.034 323.848 260.691 324.112L260.326 324.41L259.222 324.127Z" fill="#1F1F1F"/>
<g opacity="0.16">
<rect x="285.826" y="169.723" width="38.9618" height="168.158" fill="#E7AF07"/>
</g>
<path d="M301.659 329.942H300.272V320.748L297.491 321.77V320.517L301.443 319.033H301.659V329.942ZM313.018 325.312C313.018 326.927 312.742 328.128 312.19 328.913C311.638 329.699 310.776 330.092 309.603 330.092C308.444 330.092 307.587 329.709 307.03 328.943C306.473 328.173 306.185 327.024 306.165 325.498V323.656C306.165 322.06 306.441 320.875 306.993 320.099C307.544 319.324 308.409 318.936 309.588 318.936C310.756 318.936 311.616 319.311 312.168 320.062C312.72 320.808 313.003 321.961 313.018 323.522V325.312ZM311.638 323.425C311.638 322.257 311.474 321.407 311.146 320.875C310.818 320.338 310.298 320.069 309.588 320.069C308.882 320.069 308.367 320.335 308.044 320.867C307.721 321.399 307.554 322.217 307.544 323.321V325.528C307.544 326.701 307.713 327.569 308.051 328.13C308.394 328.687 308.912 328.966 309.603 328.966C310.284 328.966 310.788 328.702 311.116 328.175C311.449 327.648 311.623 326.818 311.638 325.684V323.425Z" fill="#1F1F1F"/>
<g opacity="0.16">
<rect x="330.779" y="154.061" width="38.9618" height="183.576" fill="#E7AF07"/>
</g>
<path d="M346.611 327.976H345.224V318.781L342.443 319.803V318.55L346.395 317.066H346.611V327.976ZM358.276 327.976H351.162V326.984L354.92 322.808C355.477 322.177 355.86 321.665 356.068 321.272C356.282 320.874 356.389 320.464 356.389 320.041C356.389 319.475 356.218 319.01 355.875 318.647C355.532 318.284 355.074 318.103 354.502 318.103C353.816 318.103 353.282 318.299 352.899 318.692C352.521 319.079 352.333 319.621 352.333 320.317H350.953C350.953 319.318 351.274 318.51 351.915 317.894C352.561 317.277 353.424 316.969 354.502 316.969C355.512 316.969 356.31 317.235 356.896 317.767C357.483 318.294 357.776 318.997 357.776 319.877C357.776 320.946 357.095 322.219 355.733 323.695L352.825 326.85H358.276V327.976Z" fill="#1F1F1F"/>
<g opacity="0.16">
<rect x="373.858" y="232.367" width="38.9618" height="105.507" fill="#E7AF07"/>
</g>
<path d="M389.69 329.457H388.303V320.263L385.522 321.284V320.032L389.474 318.548H389.69V329.457ZM394.875 324.013L395.427 318.6H400.989V319.875H396.597L396.269 322.835C396.801 322.522 397.405 322.366 398.081 322.366C399.07 322.366 399.856 322.694 400.438 323.35C401.019 324.001 401.31 324.883 401.31 325.997C401.31 327.116 401.007 327.998 400.4 328.644C399.799 329.286 398.956 329.606 397.872 329.606C396.913 329.606 396.13 329.34 395.523 328.808C394.917 328.276 394.571 327.541 394.487 326.601H395.792C395.876 327.222 396.098 327.692 396.456 328.01C396.814 328.324 397.286 328.48 397.872 328.48C398.514 328.48 399.016 328.261 399.379 327.824C399.747 327.386 399.93 326.782 399.93 326.012C399.93 325.286 399.732 324.704 399.334 324.267C398.941 323.825 398.417 323.603 397.761 323.603C397.159 323.603 396.687 323.735 396.344 323.999L395.978 324.297L394.875 324.013Z" fill="#1F1F1F"/>
<g opacity="0.16">
<rect x="416.937" y="129.262" width="38.9618" height="207.768" fill="#E7AF07"/>
</g>
<path d="M439.892 328.354H432.778V327.362L436.536 323.186C437.093 322.555 437.476 322.042 437.684 321.65C437.898 321.252 438.005 320.842 438.005 320.419C438.005 319.853 437.834 319.388 437.49 319.025C437.147 318.662 436.69 318.481 436.118 318.481C435.432 318.481 434.898 318.677 434.515 319.07C434.137 319.457 433.948 319.999 433.948 320.695H432.569C432.569 319.696 432.89 318.888 433.531 318.272C434.177 317.655 435.04 317.347 436.118 317.347C437.128 317.347 437.925 317.613 438.512 318.145C439.099 318.672 439.392 319.375 439.392 320.255C439.392 321.324 438.711 322.597 437.349 324.073L434.441 327.228H439.892V328.354Z" fill="#1F1F1F"/>
<path d="M25.0883 39.9917H18.8583V46.5479H16.9007V31.7021H26.0977V33.3131H18.8583V38.3908H25.0883V39.9917ZM27.9975 40.9297C27.9975 39.8489 28.2082 38.8769 28.6296 38.0136C29.0579 37.1503 29.6493 36.4841 30.4038 36.0151C31.1651 35.5461 32.0318 35.3116 33.0038 35.3116C34.5061 35.3116 35.7194 35.8316 36.6439 36.8716C37.5752 37.9116 38.0408 39.2949 38.0408 41.0215V41.154C38.0408 42.228 37.8335 43.1933 37.4188 44.0498C37.011 44.8995 36.423 45.5622 35.6549 46.038C34.8935 46.5139 34.0167 46.7518 33.0242 46.7518C31.5288 46.7518 30.3154 46.2318 29.3842 45.1917C28.4597 44.1517 27.9975 42.7752 27.9975 41.0623V40.9297ZM29.894 41.154C29.894 42.3776 30.1761 43.3598 30.7403 44.1007C31.3112 44.8417 32.0726 45.2121 33.0242 45.2121C33.9827 45.2121 34.744 44.8383 35.3082 44.0906C35.8724 43.336 36.1545 42.2824 36.1545 40.9297C36.1545 39.7198 35.8656 38.7409 35.2878 37.9932C34.7168 37.2387 33.9555 36.8614 33.0038 36.8614C32.0726 36.8614 31.3214 37.2319 30.7505 37.9728C30.1795 38.7137 29.894 39.7741 29.894 41.154ZM47.7917 45.4569C47.0575 46.3201 45.9801 46.7518 44.5595 46.7518C43.3835 46.7518 42.4862 46.4119 41.8676 45.7322C41.2559 45.0456 40.9466 44.0328 40.9398 42.6937V35.5155H42.8261V42.6427C42.8261 44.3149 43.5058 45.151 44.8653 45.151C46.3064 45.151 47.2649 44.614 47.7407 43.54V35.5155H49.627V46.5479H47.8325L47.7917 45.4569ZM54.8609 35.5155L54.9221 36.9022C55.765 35.8418 56.8662 35.3116 58.2257 35.3116C60.5573 35.3116 61.7332 36.6269 61.7536 39.2575V46.5479H59.8673V39.2473C59.8605 38.452 59.677 37.864 59.3167 37.4834C58.9632 37.1027 58.4092 36.9124 57.6547 36.9124C57.0429 36.9124 56.5059 37.0755 56.0437 37.4018C55.5815 37.7281 55.2212 38.1563 54.9629 38.6865V46.5479H53.0766V35.5155H54.8609ZM64.7138 40.9399C64.7138 39.2473 65.1149 37.8878 65.917 36.8614C66.7191 35.8282 67.7693 35.3116 69.0676 35.3116C70.3591 35.3116 71.3822 35.7534 72.1367 36.6371V30.8864H74.023V46.5479H72.2896L72.1979 45.3651C71.4433 46.2895 70.3931 46.7518 69.0472 46.7518C67.7693 46.7518 66.7259 46.2284 65.917 45.1816C65.1149 44.1347 64.7138 42.7684 64.7138 41.0827V40.9399ZM66.6001 41.154C66.6001 42.4048 66.8584 43.3836 67.375 44.0906C67.8916 44.7975 68.6054 45.151 69.5162 45.151C70.7126 45.151 71.5861 44.614 72.1367 43.54V38.4724C71.5725 37.4324 70.7058 36.9124 69.5366 36.9124C68.6122 36.9124 67.8916 37.2692 67.375 37.983C66.8584 38.6967 66.6001 39.7537 66.6001 41.154ZM82.1119 46.7518C80.6164 46.7518 79.3997 46.2624 78.4616 45.2835C77.5236 44.2979 77.0545 42.9826 77.0545 41.3376V40.9909C77.0545 39.8965 77.2619 38.921 77.6765 38.0646C78.098 37.2013 78.6826 36.5283 79.4303 36.0457C80.1848 35.5563 81.0005 35.3116 81.8774 35.3116C83.3117 35.3116 84.4264 35.784 85.2218 36.7288C86.0171 37.6737 86.4147 39.0264 86.4147 40.787V41.5721H78.9409C78.968 42.6597 79.2841 43.54 79.8891 44.2129C80.5009 44.8791 81.2758 45.2121 82.2139 45.2121C82.88 45.2121 83.4442 45.0762 83.9064 44.8043C84.3687 44.5324 84.7731 44.1721 85.1198 43.7235L86.272 44.6208C85.3475 46.0414 83.9608 46.7518 82.1119 46.7518ZM81.8774 36.8614C81.1161 36.8614 80.4771 37.1401 79.9605 37.6975C79.4439 38.2481 79.1244 39.023 79.002 40.0222H84.5284V39.8795C84.474 38.921 84.2157 38.1801 83.7535 37.6567C83.2913 37.1265 82.6659 36.8614 81.8774 36.8614ZM94.5138 37.2081C94.2283 37.1605 93.919 37.1367 93.586 37.1367C92.3488 37.1367 91.5093 37.6635 91.0675 38.7171V46.5479H89.1812V35.5155H91.0165L91.0471 36.79C91.6657 35.8044 92.5425 35.3116 93.6777 35.3116C94.0448 35.3116 94.3235 35.3591 94.5138 35.4543V37.2081ZM103.255 43.6215C103.255 43.1117 103.062 42.7175 102.674 42.4388C102.293 42.1533 101.624 41.9086 100.665 41.7046C99.7138 41.5007 98.9559 41.256 98.3917 40.9705C97.8343 40.685 97.4196 40.3451 97.1477 39.9509C96.8826 39.5566 96.7501 39.0876 96.7501 38.5438C96.7501 37.6397 97.1307 36.875 97.892 36.2496C98.6602 35.6243 99.639 35.3116 100.829 35.3116C102.079 35.3116 103.092 35.6344 103.867 36.2802C104.649 36.926 105.04 37.7519 105.04 38.7579H103.143C103.143 38.2413 102.922 37.7961 102.48 37.4222C102.045 37.0483 101.495 36.8614 100.829 36.8614C100.142 36.8614 99.605 37.0109 99.2176 37.31C98.8301 37.6091 98.6364 38 98.6364 38.4826C98.6364 38.938 98.8165 39.2813 99.1768 39.5124C99.537 39.7435 100.186 39.9645 101.124 40.1752C102.069 40.3859 102.834 40.6374 103.418 40.9297C104.003 41.222 104.435 41.5755 104.713 41.9901C104.999 42.398 105.142 42.8976 105.142 43.489C105.142 44.4746 104.747 45.2665 103.959 45.8647C103.17 46.4561 102.147 46.7518 100.89 46.7518C100.006 46.7518 99.2244 46.5954 98.5446 46.2827C97.8649 45.9701 97.3313 45.535 96.9438 44.9776C96.5631 44.4134 96.3728 43.8051 96.3728 43.1525H98.2591C98.2931 43.7847 98.5446 44.2877 99.0136 44.6615C99.4895 45.0286 100.115 45.2121 100.89 45.2121C101.603 45.2121 102.174 45.0694 102.603 44.7839C103.038 44.4916 103.255 44.1041 103.255 43.6215ZM117.567 43.9886L120.3 35.5155H122.227L118.271 46.5479H116.833L112.836 35.5155H114.763L117.567 43.9886ZM131.04 43.6215C131.04 43.1117 130.846 42.7175 130.459 42.4388C130.078 42.1533 129.408 41.9086 128.45 41.7046C127.498 41.5007 126.74 41.256 126.176 40.9705C125.619 40.685 125.204 40.3451 124.932 39.9509C124.667 39.5566 124.534 39.0876 124.534 38.5438C124.534 37.6397 124.915 36.875 125.676 36.2496C126.445 35.6243 127.423 35.3116 128.613 35.3116C129.864 35.3116 130.877 35.6344 131.651 36.2802C132.433 36.926 132.824 37.7519 132.824 38.7579H130.928C130.928 38.2413 130.707 37.7961 130.265 37.4222C129.83 37.0483 129.279 36.8614 128.613 36.8614C127.926 36.8614 127.389 37.0109 127.002 37.31C126.615 37.6091 126.421 38 126.421 38.4826C126.421 38.938 126.601 39.2813 126.961 39.5124C127.321 39.7435 127.971 39.9645 128.909 40.1752C129.854 40.3859 130.618 40.6374 131.203 40.9297C131.787 41.222 132.219 41.5755 132.498 41.9901C132.783 42.398 132.926 42.8976 132.926 43.489C132.926 44.4746 132.532 45.2665 131.743 45.8647C130.955 46.4561 129.932 46.7518 128.674 46.7518C127.79 46.7518 127.009 46.5954 126.329 46.2827C125.649 45.9701 125.116 45.535 124.728 44.9776C124.348 44.4134 124.157 43.8051 124.157 43.1525H126.044C126.078 43.7847 126.329 44.2877 126.798 44.6615C127.274 45.0286 127.899 45.2121 128.674 45.2121C129.388 45.2121 129.959 45.0694 130.387 44.7839C130.822 44.4916 131.04 44.1041 131.04 43.6215ZM152.927 41.8372C152.744 43.4074 152.163 44.6208 151.184 45.4772C150.212 46.3269 148.917 46.7518 147.299 46.7518C145.545 46.7518 144.138 46.123 143.078 44.8655C142.024 43.6079 141.497 41.9255 141.497 39.8183V38.3908C141.497 37.0109 141.742 35.7976 142.232 34.7508C142.728 33.704 143.428 32.9018 144.332 32.3445C145.236 31.7803 146.283 31.4982 147.472 31.4982C149.049 31.4982 150.314 31.94 151.265 32.8237C152.217 33.7006 152.771 34.9173 152.927 36.4739H150.96C150.79 35.2912 150.419 34.4347 149.848 33.9045C149.284 33.3743 148.492 33.1092 147.472 33.1092C146.222 33.1092 145.239 33.5714 144.526 34.4959C143.819 35.4203 143.465 36.7356 143.465 38.4418V39.8795C143.465 41.4905 143.802 42.7718 144.475 43.7235C145.148 44.6751 146.089 45.151 147.299 45.151C148.387 45.151 149.219 44.9063 149.797 44.4168C150.382 43.9206 150.769 43.0607 150.96 41.8372H152.927ZM155.388 40.9297C155.388 39.8489 155.599 38.8769 156.02 38.0136C156.448 37.1503 157.04 36.4841 157.794 36.0151C158.556 35.5461 159.422 35.3116 160.394 35.3116C161.897 35.3116 163.11 35.8316 164.034 36.8716C164.966 37.9116 165.431 39.2949 165.431 41.0215V41.154C165.431 42.228 165.224 43.1933 164.809 44.0498C164.401 44.8995 163.813 45.5622 163.045 46.038C162.284 46.5139 161.407 46.7518 160.415 46.7518C158.919 46.7518 157.706 46.2318 156.775 45.1917C155.85 44.1517 155.388 42.7752 155.388 41.0623V40.9297ZM157.284 41.154C157.284 42.3776 157.567 43.3598 158.131 44.1007C158.702 44.8417 159.463 45.2121 160.415 45.2121C161.373 45.2121 162.135 44.8383 162.699 44.0906C163.263 43.336 163.545 42.2824 163.545 40.9297C163.545 39.7198 163.256 38.7409 162.678 37.9932C162.107 37.2387 161.346 36.8614 160.394 36.8614C159.463 36.8614 158.712 37.2319 158.141 37.9728C157.57 38.7137 157.284 39.7741 157.284 41.154ZM175.182 45.4569C174.448 46.3201 173.371 46.7518 171.95 46.7518C170.774 46.7518 169.877 46.4119 169.258 45.7322C168.646 45.0456 168.337 44.0328 168.33 42.6937V35.5155H170.217V42.6427C170.217 44.3149 170.896 45.151 172.256 45.151C173.697 45.151 174.655 44.614 175.131 43.54V35.5155H177.018V46.5479H175.223L175.182 45.4569ZM185.8 37.2081C185.514 37.1605 185.205 37.1367 184.872 37.1367C183.635 37.1367 182.795 37.6635 182.353 38.7171V46.5479H180.467V35.5155H182.302L182.333 36.79C182.952 35.8044 183.828 35.3116 184.964 35.3116C185.331 35.3116 185.609 35.3591 185.8 35.4543V37.2081ZM194.541 43.6215C194.541 43.1117 194.347 42.7175 193.96 42.4388C193.579 42.1533 192.91 41.9086 191.951 41.7046C191 41.5007 190.242 41.256 189.678 40.9705C189.12 40.685 188.706 40.3451 188.434 39.9509C188.169 39.5566 188.036 39.0876 188.036 38.5438C188.036 37.6397 188.417 36.875 189.178 36.2496C189.946 35.6243 190.925 35.3116 192.115 35.3116C193.365 35.3116 194.378 35.6344 195.153 36.2802C195.935 36.926 196.326 37.7519 196.326 38.7579H194.429C194.429 38.2413 194.208 37.7961 193.766 37.4222C193.331 37.0483 192.781 36.8614 192.115 36.8614C191.428 36.8614 190.891 37.0109 190.503 37.31C190.116 37.6091 189.922 38 189.922 38.4826C189.922 38.938 190.102 39.2813 190.463 39.5124C190.823 39.7435 191.472 39.9645 192.41 40.1752C193.355 40.3859 194.12 40.6374 194.704 40.9297C195.289 41.222 195.721 41.5755 195.999 41.9901C196.285 42.398 196.428 42.8976 196.428 43.489C196.428 44.4746 196.033 45.2665 195.245 45.8647C194.456 46.4561 193.433 46.7518 192.176 46.7518C191.292 46.7518 190.51 46.5954 189.831 46.2827C189.151 45.9701 188.617 45.535 188.23 44.9776C187.849 44.4134 187.659 43.8051 187.659 43.1525H189.545C189.579 43.7847 189.831 44.2877 190.3 44.6615C190.775 45.0286 191.401 45.2121 192.176 45.2121C192.889 45.2121 193.46 45.0694 193.889 44.7839C194.324 44.4916 194.541 44.1041 194.541 43.6215ZM204.037 46.7518C202.542 46.7518 201.325 46.2624 200.387 45.2835C199.449 44.2979 198.98 42.9826 198.98 41.3376V40.9909C198.98 39.8965 199.187 38.921 199.602 38.0646C200.023 37.2013 200.608 36.5283 201.356 36.0457C202.11 35.5563 202.926 35.3116 203.803 35.3116C205.237 35.3116 206.352 35.784 207.147 36.7288C207.942 37.6737 208.34 39.0264 208.34 40.787V41.5721H200.866C200.893 42.6597 201.209 43.54 201.814 44.2129C202.426 44.8791 203.201 45.2121 204.139 45.2121C204.805 45.2121 205.37 45.0762 205.832 44.8043C206.294 44.5324 206.698 44.1721 207.045 43.7235L208.197 44.6208C207.273 46.0414 205.886 46.7518 204.037 46.7518ZM203.803 36.8614C203.041 36.8614 202.402 37.1401 201.886 37.6975C201.369 38.2481 201.05 39.023 200.927 40.0222H206.454V39.8795C206.399 38.921 206.141 38.1801 205.679 37.6567C205.217 37.1265 204.591 36.8614 203.803 36.8614Z" fill="#1F1F1F"/>
<path d="M121.202 205.089C121.202 204.654 121.07 204.274 120.806 203.949C120.542 203.623 120.212 203.443 119.817 203.408L119.817 202.254C120.226 202.276 120.615 202.416 120.984 202.676C121.353 202.935 121.648 203.282 121.868 203.718C122.088 204.149 122.198 204.606 122.198 205.089C122.198 206.061 121.874 206.835 121.228 207.411C120.577 207.982 119.689 208.268 118.564 208.268L118.359 208.268C117.665 208.268 117.047 208.141 116.506 207.886C115.965 207.631 115.545 207.266 115.246 206.791C114.947 206.312 114.798 205.747 114.798 205.096C114.798 204.296 115.038 203.632 115.517 203.104C115.996 202.572 116.618 202.289 117.383 202.254L117.383 203.408C116.922 203.443 116.543 203.619 116.249 203.935C115.95 204.248 115.8 204.634 115.8 205.096C115.8 205.716 116.025 206.197 116.473 206.54C116.917 206.879 117.561 207.048 118.405 207.048L118.636 207.048C119.458 207.048 120.092 206.879 120.536 206.54C120.98 206.202 121.202 205.718 121.202 205.089ZM118.432 200.834C117.733 200.834 117.104 200.697 116.546 200.425C115.987 200.148 115.556 199.765 115.253 199.277C114.95 198.785 114.798 198.224 114.798 197.595C114.798 196.624 115.134 195.839 115.807 195.241C116.48 194.639 117.374 194.338 118.491 194.338L118.577 194.338C119.272 194.338 119.896 194.472 120.45 194.74C120.999 195.004 121.428 195.384 121.736 195.881C122.044 196.373 122.198 196.94 122.198 197.582C122.198 198.55 121.861 199.334 121.189 199.937C120.516 200.535 119.626 200.834 118.518 200.834L118.432 200.834ZM118.577 199.607C119.368 199.607 120.004 199.424 120.483 199.06C120.962 198.69 121.202 198.198 121.202 197.582C121.202 196.962 120.96 196.47 120.476 196.105C119.988 195.74 119.307 195.558 118.432 195.558C117.649 195.558 117.016 195.744 116.532 196.118C116.044 196.487 115.8 196.98 115.8 197.595C115.8 198.198 116.04 198.684 116.519 199.053C116.999 199.422 117.684 199.607 118.577 199.607ZM114.93 191.289L115.721 191.256C115.106 190.732 114.798 190.027 114.798 189.139C114.798 188.141 115.18 187.461 115.946 187.101C115.603 186.863 115.326 186.556 115.115 186.177C114.904 185.795 114.798 185.344 114.798 184.825C114.798 183.26 115.627 182.464 117.284 182.438L122.066 182.438L122.066 183.658L117.357 183.658C116.847 183.658 116.467 183.775 116.216 184.008C115.961 184.241 115.833 184.632 115.833 185.182C115.833 185.634 115.97 186.01 116.242 186.309C116.51 186.608 116.873 186.782 117.33 186.83L122.066 186.83L122.066 188.057L117.39 188.057C116.352 188.057 115.833 188.565 115.833 189.58C115.833 190.381 116.174 190.928 116.856 191.223L122.066 191.223L122.066 192.443L114.93 192.443L114.93 191.289ZM118.577 174.192C119.663 174.192 120.538 174.441 121.202 174.937C121.866 175.434 122.198 176.107 122.198 176.955C122.198 177.822 121.923 178.503 121.373 179L124.809 179L124.809 180.22L114.93 180.22L114.93 179.105L115.721 179.046C115.106 178.549 114.798 177.859 114.798 176.975C114.798 176.118 115.121 175.441 115.767 174.944C116.414 174.443 117.313 174.192 118.465 174.192L118.577 174.192ZM118.438 175.412C117.634 175.412 116.999 175.584 116.532 175.927C116.066 176.27 115.833 176.74 115.833 177.338C115.833 178.077 116.161 178.631 116.816 179L120.226 179C120.876 178.635 121.202 178.077 121.202 177.325C121.202 176.74 120.971 176.276 120.509 175.933C120.043 175.586 119.353 175.412 118.438 175.412ZM121.36 167.859C121.918 168.334 122.198 169.031 122.198 169.949C122.198 170.71 121.978 171.29 121.538 171.691C121.094 172.086 120.439 172.286 119.573 172.291L114.93 172.291L114.93 171.071L119.54 171.071C120.621 171.071 121.162 170.631 121.162 169.752C121.162 168.82 120.815 168.2 120.12 167.892L114.93 167.892L114.93 166.672L122.066 166.672L122.066 167.832L121.36 167.859ZM113.202 162.785L114.93 162.785L114.93 161.453L115.873 161.453L115.873 162.785L120.298 162.785C120.584 162.785 120.799 162.726 120.945 162.607C121.085 162.488 121.156 162.286 121.156 162C121.156 161.86 121.129 161.666 121.076 161.42L122.066 161.42C122.154 161.741 122.198 162.053 122.198 162.357C122.198 162.902 122.033 163.313 121.703 163.59C121.373 163.867 120.905 164.005 120.298 164.005L115.873 164.005L115.873 165.304L114.93 165.304L114.93 164.005L113.202 164.005L113.202 162.785ZM122.198 156.689C122.198 157.657 121.881 158.444 121.248 159.05C120.61 159.657 119.76 159.96 118.696 159.96L118.471 159.96C117.764 159.96 117.133 159.826 116.579 159.558C116.02 159.286 115.585 158.907 115.273 158.424C114.956 157.936 114.798 157.408 114.798 156.841C114.798 155.913 115.104 155.192 115.715 154.678C116.326 154.163 117.201 153.906 118.339 153.906L118.847 153.906L118.847 158.74C119.551 158.723 120.12 158.518 120.555 158.127C120.986 157.731 121.202 157.23 121.202 156.623C121.202 156.192 121.114 155.828 120.938 155.529C120.762 155.23 120.529 154.968 120.239 154.744L120.819 153.999C121.738 154.596 122.198 155.493 122.198 156.689ZM115.8 156.841C115.8 157.333 115.981 157.747 116.341 158.081C116.697 158.415 117.199 158.622 117.845 158.701L117.845 155.126L117.753 155.126C117.133 155.161 116.653 155.329 116.315 155.628C115.972 155.926 115.8 156.331 115.8 156.841ZM116.025 148.668C115.994 148.852 115.978 149.052 115.978 149.268C115.978 150.068 116.319 150.611 117.001 150.897L122.066 150.897L122.066 152.117L114.93 152.117L114.93 150.93L115.754 150.91C115.117 150.51 114.798 149.943 114.798 149.208C114.798 148.971 114.829 148.791 114.89 148.668L116.025 148.668ZM140.173 203.797C139.843 203.797 139.588 203.922 139.408 204.173C139.223 204.419 139.065 204.852 138.933 205.472C138.801 206.088 138.643 206.578 138.458 206.943C138.274 207.303 138.054 207.571 137.799 207.747C137.544 207.919 137.24 208.004 136.889 208.004C136.304 208.004 135.809 207.758 135.405 207.266C135 206.769 134.798 206.136 134.798 205.366C134.798 204.557 135.007 203.902 135.425 203.401C135.842 202.896 136.376 202.643 137.027 202.643L137.027 203.869C136.693 203.869 136.405 204.012 136.163 204.298C135.921 204.579 135.8 204.936 135.8 205.366C135.8 205.811 135.897 206.158 136.091 206.408C136.284 206.659 136.537 206.784 136.849 206.784C137.144 206.784 137.366 206.668 137.515 206.435C137.665 206.202 137.808 205.782 137.944 205.175C138.08 204.564 138.243 204.069 138.432 203.691C138.621 203.313 138.85 203.034 139.118 202.854C139.382 202.669 139.705 202.577 140.087 202.577C140.725 202.577 141.237 202.832 141.624 203.342C142.006 203.852 142.198 204.514 142.198 205.327C142.198 205.898 142.096 206.404 141.894 206.844C141.692 207.283 141.411 207.629 141.05 207.879C140.685 208.125 140.292 208.248 139.87 208.248L139.87 207.028C140.278 207.006 140.604 206.844 140.846 206.54C141.083 206.233 141.202 205.828 141.202 205.327C141.202 204.865 141.109 204.496 140.925 204.219C140.736 203.938 140.485 203.797 140.173 203.797ZM141.202 197.754C141.202 197.318 141.07 196.938 140.806 196.613C140.542 196.287 140.212 196.107 139.817 196.072L139.817 194.918C140.226 194.94 140.615 195.081 140.984 195.34C141.353 195.599 141.648 195.947 141.868 196.382C142.088 196.813 142.198 197.27 142.198 197.754C142.198 198.725 141.874 199.499 141.228 200.075C140.577 200.647 139.689 200.933 138.564 200.933L138.359 200.933C137.665 200.933 137.047 200.805 136.506 200.55C135.965 200.295 135.545 199.93 135.246 199.455C134.947 198.976 134.798 198.411 134.798 197.76C134.798 196.96 135.038 196.296 135.517 195.769C135.996 195.237 136.618 194.953 137.383 194.918L137.383 196.072C136.922 196.107 136.543 196.283 136.249 196.6C135.95 196.912 135.8 197.299 135.8 197.76C135.8 198.38 136.025 198.862 136.473 199.205C136.917 199.543 137.561 199.712 138.405 199.712L138.636 199.712C139.458 199.712 140.092 199.543 140.536 199.205C140.98 198.866 141.202 198.382 141.202 197.754ZM142.066 191.849L142.066 193.069L134.93 193.069L134.93 191.849L142.066 191.849ZM133.037 193.168C132.839 193.168 132.672 193.109 132.536 192.99C132.4 192.867 132.331 192.687 132.331 192.449C132.331 192.212 132.4 192.032 132.536 191.908C132.672 191.785 132.839 191.724 133.037 191.724C133.235 191.724 133.4 191.785 133.532 191.908C133.664 192.032 133.73 192.212 133.73 192.449C133.73 192.687 133.664 192.867 133.532 192.99C133.4 193.109 133.235 193.168 133.037 193.168ZM142.198 186.558C142.198 187.525 141.881 188.312 141.248 188.919C140.61 189.526 139.76 189.829 138.696 189.829L138.471 189.829C137.764 189.829 137.133 189.695 136.579 189.427C136.02 189.154 135.585 188.776 135.273 188.292C134.956 187.804 134.798 187.277 134.798 186.709C134.798 185.782 135.104 185.061 135.715 184.546C136.326 184.032 137.201 183.775 138.339 183.775L138.847 183.775L138.847 188.609C139.551 188.591 140.12 188.387 140.555 187.995C140.986 187.6 141.202 187.099 141.202 186.492C141.202 186.061 141.114 185.696 140.938 185.397C140.762 185.098 140.529 184.836 140.239 184.612L140.819 183.867C141.738 184.465 142.198 185.362 142.198 186.558ZM135.8 186.709C135.8 187.202 135.981 187.615 136.341 187.949C136.697 188.283 137.199 188.49 137.845 188.569L137.845 184.995L137.753 184.995C137.133 185.03 136.653 185.197 136.315 185.496C135.972 185.795 135.8 186.199 135.8 186.709ZM134.93 180.831L135.827 180.792C135.141 180.246 134.798 179.534 134.798 178.655C134.798 177.147 135.649 176.386 137.35 176.373L142.066 176.373L142.066 177.593L137.344 177.593C136.829 177.597 136.449 177.716 136.203 177.949C135.957 178.178 135.833 178.536 135.833 179.024C135.833 179.42 135.939 179.767 136.15 180.066C136.361 180.365 136.638 180.598 136.981 180.765L142.066 180.765L142.066 181.985L134.93 181.985L134.93 180.831ZM141.202 171.299C141.202 170.864 141.07 170.484 140.806 170.158C140.542 169.833 140.212 169.653 139.817 169.618L139.817 168.463C140.226 168.485 140.615 168.626 140.984 168.886C141.353 169.145 141.648 169.492 141.868 169.928C142.088 170.358 142.198 170.816 142.198 171.299C142.198 172.271 141.874 173.045 141.228 173.621C140.577 174.192 139.689 174.478 138.564 174.478L138.359 174.478C137.665 174.478 137.047 174.351 136.506 174.096C135.965 173.841 135.545 173.476 135.246 173.001C134.947 172.522 134.798 171.957 134.798 171.306C134.798 170.506 135.038 169.842 135.517 169.314C135.996 168.782 136.618 168.499 137.383 168.463L137.383 169.618C136.922 169.653 136.543 169.829 136.249 170.145C135.95 170.457 135.8 170.844 135.8 171.306C135.8 171.926 136.025 172.407 136.473 172.75C136.917 173.089 137.561 173.258 138.405 173.258L138.636 173.258C139.458 173.258 140.092 173.089 140.536 172.75C140.98 172.412 141.202 171.928 141.202 171.299ZM142.198 163.759C142.198 164.726 141.881 165.513 141.248 166.12C140.61 166.727 139.76 167.03 138.696 167.03L138.471 167.03C137.764 167.03 137.133 166.896 136.579 166.628C136.02 166.355 135.585 165.977 135.273 165.494C134.956 165.006 134.798 164.478 134.798 163.911C134.798 162.983 135.104 162.262 135.715 161.748C136.326 161.233 137.201 160.976 138.339 160.976L138.847 160.976L138.847 165.81C139.551 165.793 140.12 165.588 140.555 165.197C140.986 164.801 141.202 164.3 141.202 163.693C141.202 163.262 141.114 162.897 140.938 162.598C140.762 162.299 140.529 162.038 140.239 161.814L140.819 161.068C141.738 161.666 142.198 162.563 142.198 163.759ZM135.8 163.911C135.8 164.403 135.981 164.817 136.341 165.151C136.697 165.485 137.199 165.691 137.845 165.771L137.845 162.196L137.753 162.196C137.133 162.231 136.653 162.398 136.315 162.697C135.972 162.996 135.8 163.401 135.8 163.911Z" fill="#1F1F1F"/>
<path d="M350.494 202.458L350.494 206.481L353 207.385L353 208.69L343.398 205.024L343.398 203.916L353 200.242L353 201.541L350.494 202.458ZM349.452 206.099L349.452 202.834L344.961 204.47L349.452 206.099ZM352.294 194.443C352.853 194.918 353.132 195.615 353.132 196.534C353.132 197.294 352.912 197.875 352.472 198.275C352.028 198.67 351.373 198.87 350.507 198.875L345.864 198.875L345.864 197.655L350.474 197.655C351.556 197.655 352.096 197.215 352.096 196.336C352.096 195.404 351.749 194.784 351.054 194.476L345.864 194.476L345.864 193.256L353 193.256L353 194.417L352.294 194.443ZM344.136 189.369L345.864 189.369L345.864 188.037L346.807 188.037L346.807 189.369L351.233 189.369C351.518 189.369 351.734 189.31 351.879 189.191C352.02 189.073 352.09 188.87 352.09 188.585C352.09 188.444 352.064 188.25 352.011 188.004L353 188.004C353.088 188.325 353.132 188.637 353.132 188.941C353.132 189.486 352.967 189.897 352.637 190.174C352.308 190.451 351.839 190.589 351.233 190.589L346.807 190.589L346.807 191.889L345.864 191.889L345.864 190.589L344.136 190.589L344.136 189.369ZM349.366 186.69C348.667 186.69 348.038 186.553 347.48 186.281C346.922 186.004 346.491 185.621 346.187 185.133C345.884 184.641 345.732 184.08 345.732 183.452C345.732 182.48 346.069 181.695 346.741 181.097C347.414 180.495 348.309 180.194 349.426 180.194L349.511 180.194C350.206 180.194 350.83 180.328 351.384 180.596C351.934 180.86 352.362 181.24 352.67 181.737C352.978 182.229 353.132 182.796 353.132 183.438C353.132 184.406 352.796 185.19 352.123 185.793C351.45 186.391 350.56 186.69 349.452 186.69L349.366 186.69ZM349.511 185.463C350.303 185.463 350.938 185.281 351.417 184.916C351.896 184.546 352.136 184.054 352.136 183.438C352.136 182.818 351.894 182.326 351.411 181.961C350.923 181.596 350.241 181.414 349.366 181.414C348.584 181.414 347.95 181.601 347.467 181.974C346.979 182.344 346.735 182.836 346.735 183.452C346.735 184.054 346.974 184.54 347.454 184.909C347.933 185.278 348.619 185.463 349.511 185.463ZM343.398 172.744L351.233 169.604L343.398 166.465L343.398 164.823L353 164.823L353 166.089L349.261 166.089L345.224 165.971L353 169.123L353 170.092L345.244 173.238L349.261 173.113L353 173.113L353 174.379L343.398 174.379L343.398 172.744ZM349.366 162.73C348.667 162.73 348.038 162.594 347.48 162.321C346.922 162.044 346.491 161.662 346.187 161.174C345.884 160.681 345.732 160.121 345.732 159.492C345.732 158.521 346.069 157.736 346.741 157.138C347.414 156.535 348.309 156.234 349.426 156.234L349.511 156.234C350.206 156.234 350.83 156.368 351.384 156.637C351.934 156.9 352.362 157.281 352.67 157.777C352.978 158.27 353.132 158.837 353.132 159.479C353.132 160.446 352.796 161.231 352.123 161.833C351.45 162.431 350.56 162.73 349.452 162.73L349.366 162.73ZM349.511 161.504C350.303 161.504 350.938 161.321 351.417 160.956C351.896 160.587 352.136 160.095 352.136 159.479C352.136 158.859 351.894 158.367 351.411 158.002C350.923 157.637 350.241 157.454 349.366 157.454C348.584 157.454 347.95 157.641 347.467 158.015C346.979 158.384 346.735 158.877 346.735 159.492C346.735 160.095 346.974 160.58 347.454 160.95C347.933 161.319 348.619 161.504 349.511 161.504ZM349.511 148.292C350.602 148.292 351.479 148.542 352.143 149.044C352.802 149.545 353.132 150.217 353.132 151.062C353.132 151.963 352.813 152.66 352.176 153.152L353 153.212L353 154.333L342.87 154.333L342.87 153.113L346.649 153.113C346.038 152.62 345.732 151.941 345.732 151.075C345.732 150.209 346.06 149.529 346.715 149.037C347.37 148.54 348.267 148.292 349.406 148.292L349.511 148.292ZM349.373 149.512C348.542 149.512 347.9 149.672 347.447 149.993C346.994 150.314 346.768 150.776 346.768 151.378C346.768 152.183 347.141 152.761 347.889 153.113L350.975 153.113C351.723 152.739 352.096 152.156 352.096 151.365C352.096 150.78 351.87 150.325 351.417 150C350.964 149.675 350.283 149.512 349.373 149.512ZM353 145.052L353 146.272L345.864 146.272L345.864 145.052L353 145.052ZM343.971 146.371C343.774 146.371 343.607 146.311 343.47 146.192C343.334 146.069 343.266 145.889 343.266 145.652C343.266 145.414 343.334 145.234 343.47 145.111C343.607 144.988 343.774 144.926 343.971 144.926C344.169 144.926 344.334 144.988 344.466 145.111C344.598 145.234 344.664 145.414 344.664 145.652C344.664 145.889 344.598 146.069 344.466 146.192C344.334 146.311 344.169 146.371 343.971 146.371ZM353 141.396L353 142.616L342.87 142.616L342.87 141.396L353 141.396ZM353.132 136.104C353.132 137.072 352.815 137.859 352.182 138.465C351.545 139.072 350.694 139.376 349.63 139.376L349.406 139.376C348.698 139.376 348.067 139.241 347.513 138.973C346.955 138.701 346.519 138.323 346.207 137.839C345.891 137.351 345.732 136.823 345.732 136.256C345.732 135.328 346.038 134.607 346.649 134.093C347.26 133.579 348.135 133.321 349.274 133.321L349.782 133.321L349.782 138.156C350.485 138.138 351.054 137.933 351.49 137.542C351.921 137.146 352.136 136.645 352.136 136.039C352.136 135.608 352.048 135.243 351.872 134.944C351.696 134.645 351.463 134.383 351.173 134.159L351.754 133.414C352.672 134.012 353.132 134.909 353.132 136.104ZM346.735 136.256C346.735 136.749 346.915 137.162 347.276 137.496C347.632 137.83 348.133 138.037 348.779 138.116L348.779 134.541L348.687 134.541C348.067 134.577 347.588 134.744 347.249 135.043C346.906 135.342 346.735 135.746 346.735 136.256Z" fill="#1F1F1F"/>
<path d="M165.543 176.107L173.377 172.968L165.543 169.829L165.543 168.187L175.145 168.187L175.145 169.453L171.406 169.453L167.369 169.334L175.145 172.487L175.145 173.456L167.389 176.602L171.406 176.477L175.145 176.477L175.145 177.743L165.543 177.743L165.543 176.107ZM175.277 162.81C175.277 163.777 174.96 164.564 174.327 165.171C173.69 165.777 172.839 166.081 171.775 166.081L171.551 166.081C170.843 166.081 170.212 165.947 169.658 165.679C169.099 165.406 168.664 165.028 168.352 164.544C168.035 164.056 167.877 163.529 167.877 162.961C167.877 162.034 168.183 161.313 168.794 160.798C169.405 160.284 170.28 160.027 171.419 160.027L171.927 160.027L171.927 164.861C172.63 164.843 173.199 164.639 173.635 164.247C174.066 163.852 174.281 163.35 174.281 162.744C174.281 162.313 174.193 161.948 174.017 161.649C173.841 161.35 173.608 161.088 173.318 160.864L173.898 160.119C174.817 160.717 175.277 161.614 175.277 162.81ZM168.88 162.961C168.88 163.454 169.06 163.867 169.42 164.201C169.777 164.535 170.278 164.742 170.924 164.821L170.924 161.247L170.832 161.247C170.212 161.282 169.733 161.449 169.394 161.748C169.051 162.047 168.88 162.451 168.88 162.961ZM174.281 155.375C174.281 154.94 174.149 154.559 173.885 154.234C173.621 153.909 173.292 153.728 172.896 153.693L172.896 152.539C173.305 152.561 173.694 152.702 174.063 152.961C174.433 153.221 174.727 153.568 174.947 154.003C175.167 154.434 175.277 154.891 175.277 155.375C175.277 156.347 174.954 157.12 174.307 157.696C173.657 158.268 172.768 158.554 171.643 158.554L171.439 158.554C170.744 158.554 170.126 158.426 169.585 158.171C169.045 157.916 168.625 157.551 168.326 157.077C168.027 156.597 167.877 156.032 167.877 155.382C167.877 154.581 168.117 153.918 168.596 153.39C169.075 152.858 169.697 152.574 170.462 152.539L170.462 153.693C170.001 153.728 169.623 153.904 169.328 154.221C169.029 154.533 168.88 154.92 168.88 155.382C168.88 156.002 169.104 156.483 169.552 156.826C169.996 157.164 170.641 157.334 171.485 157.334L171.715 157.334C172.538 157.334 173.171 157.164 173.615 156.826C174.059 156.487 174.281 156.004 174.281 155.375ZM168.873 149.576C168.209 149.035 167.877 148.332 167.877 147.465C167.877 145.957 168.728 145.197 170.429 145.184L175.145 145.184L175.145 146.404L170.423 146.404C169.908 146.408 169.528 146.527 169.282 146.76C169.036 146.988 168.913 147.347 168.913 147.835C168.913 148.231 169.018 148.578 169.229 148.877C169.44 149.176 169.717 149.409 170.06 149.576L175.145 149.576L175.145 150.796L165.015 150.796L165.015 149.576L168.873 149.576ZM175.145 138.58C175.004 138.65 174.754 138.707 174.393 138.751C174.982 139.319 175.277 139.996 175.277 140.783C175.277 141.486 175.079 142.064 174.683 142.517C174.283 142.966 173.778 143.19 173.166 143.19C172.423 143.19 171.847 142.908 171.439 142.346C171.025 141.778 170.819 140.983 170.819 139.958L170.819 138.771L170.258 138.771C169.832 138.771 169.493 138.899 169.242 139.154C168.987 139.409 168.86 139.785 168.86 140.281C168.86 140.717 168.97 141.082 169.19 141.376C169.409 141.671 169.675 141.818 169.988 141.818L169.988 143.045C169.631 143.045 169.289 142.919 168.959 142.669C168.625 142.414 168.361 142.071 168.167 141.64C167.974 141.205 167.877 140.728 167.877 140.209C167.877 139.387 168.084 138.743 168.497 138.277C168.906 137.811 169.471 137.569 170.192 137.551L173.476 137.551C174.131 137.551 174.652 137.468 175.039 137.3L175.145 137.3L175.145 138.58ZM174.215 140.605C174.215 140.222 174.116 139.859 173.918 139.516C173.72 139.173 173.463 138.925 173.147 138.771L171.683 138.771L171.683 139.727C171.683 141.222 172.12 141.97 172.995 141.97C173.377 141.97 173.676 141.842 173.892 141.587C174.107 141.332 174.215 141.005 174.215 140.605ZM168.009 134.113L168.906 134.073C168.22 133.528 167.877 132.816 167.877 131.937C167.877 130.429 168.728 129.668 170.429 129.655L175.145 129.655L175.145 130.875L170.423 130.875C169.908 130.879 169.528 130.998 169.282 131.231C169.036 131.46 168.913 131.818 168.913 132.306C168.913 132.702 169.018 133.049 169.229 133.348C169.44 133.647 169.717 133.88 170.06 134.047L175.145 134.047L175.145 135.267L168.009 135.267L168.009 134.113ZM175.145 126.118L175.145 127.338L168.009 127.338L168.009 126.118L175.145 126.118ZM166.116 127.437C165.918 127.437 165.751 127.377 165.615 127.259C165.479 127.136 165.411 126.955 165.411 126.718C165.411 126.48 165.479 126.3 165.615 126.177C165.751 126.054 165.918 125.992 166.116 125.992C166.314 125.992 166.479 126.054 166.611 126.177C166.743 126.3 166.809 126.48 166.809 126.718C166.809 126.955 166.743 127.136 166.611 127.259C166.479 127.377 166.314 127.437 166.116 127.437ZM174.281 120.925C174.281 120.49 174.149 120.11 173.885 119.784C173.621 119.459 173.292 119.279 172.896 119.244L172.896 118.09C173.305 118.112 173.694 118.252 174.063 118.512C174.433 118.771 174.727 119.118 174.947 119.554C175.167 119.984 175.277 120.442 175.277 120.925C175.277 121.897 174.954 122.671 174.307 123.247C173.657 123.818 172.768 124.104 171.643 124.104L171.439 124.104C170.744 124.104 170.126 123.977 169.585 123.722C169.045 123.467 168.625 123.102 168.326 122.627C168.027 122.148 167.877 121.583 167.877 120.932C167.877 120.132 168.117 119.468 168.596 118.94C169.075 118.408 169.697 118.125 170.462 118.09L170.462 119.244C170.001 119.279 169.623 119.455 169.328 119.771C169.029 120.083 168.88 120.47 168.88 120.932C168.88 121.552 169.104 122.033 169.552 122.376C169.996 122.715 170.641 122.884 171.485 122.884L171.715 122.884C172.538 122.884 173.171 122.715 173.615 122.376C174.059 122.038 174.281 121.554 174.281 120.925ZM175.145 111.941C175.004 112.011 174.754 112.068 174.393 112.112C174.982 112.68 175.277 113.357 175.277 114.144C175.277 114.847 175.079 115.425 174.683 115.878C174.283 116.327 173.778 116.551 173.166 116.551C172.423 116.551 171.847 116.269 171.439 115.707C171.025 115.139 170.819 114.344 170.819 113.319L170.819 112.132L170.258 112.132C169.832 112.132 169.493 112.26 169.242 112.515C168.987 112.77 168.86 113.146 168.86 113.642C168.86 114.078 168.97 114.443 169.19 114.737C169.409 115.032 169.675 115.179 169.988 115.179L169.988 116.406C169.631 116.406 169.289 116.28 168.959 116.03C168.625 115.775 168.361 115.432 168.167 115.001C167.974 114.566 167.877 114.089 167.877 113.57C167.877 112.748 168.084 112.104 168.497 111.638C168.906 111.171 169.471 110.93 170.192 110.912L173.476 110.912C174.131 110.912 174.652 110.829 175.039 110.661L175.145 110.661L175.145 111.941ZM174.215 113.966C174.215 113.583 174.116 113.22 173.918 112.877C173.72 112.534 173.463 112.286 173.147 112.132L171.683 112.132L171.683 113.088C171.683 114.583 172.12 115.331 172.995 115.331C173.377 115.331 173.676 115.203 173.892 114.948C174.107 114.693 174.215 114.366 174.215 113.966ZM175.145 107.302L175.145 108.523L165.015 108.523L165.015 107.302L175.145 107.302Z" fill="#1F1F1F"/>
<path d="M391.641 172.315L391.641 176.477L395.044 176.477L395.044 171.642L396.079 171.642L396.079 177.743L386.477 177.743L386.477 171.708L387.519 171.708L387.519 176.477L390.605 176.477L390.605 172.315L391.641 172.315ZM396.079 168.561L396.079 169.781L385.949 169.781L385.949 168.561L396.079 168.561ZM396.211 163.269C396.211 164.236 395.895 165.023 395.261 165.63C394.624 166.237 393.773 166.54 392.709 166.54L392.485 166.54C391.777 166.54 391.146 166.406 390.592 166.138C390.034 165.865 389.599 165.487 389.286 165.004C388.97 164.516 388.812 163.988 388.812 163.421C388.812 162.493 389.117 161.772 389.728 161.258C390.339 160.743 391.214 160.486 392.353 160.486L392.861 160.486L392.861 165.32C393.564 165.303 394.134 165.098 394.569 164.707C395 164.311 395.215 163.81 395.215 163.203C395.215 162.772 395.127 162.407 394.951 162.108C394.776 161.81 394.543 161.548 394.252 161.324L394.833 160.578C395.752 161.176 396.211 162.073 396.211 163.269ZM389.814 163.421C389.814 163.913 389.994 164.327 390.355 164.661C390.711 164.995 391.212 165.202 391.858 165.281L391.858 161.706L391.766 161.706C391.146 161.741 390.667 161.908 390.328 162.207C389.985 162.506 389.814 162.911 389.814 163.421ZM395.215 155.835C395.215 155.399 395.083 155.019 394.82 154.694C394.556 154.368 394.226 154.188 393.83 154.153L393.83 152.999C394.239 153.021 394.628 153.161 394.998 153.421C395.367 153.68 395.662 154.028 395.881 154.463C396.101 154.894 396.211 155.351 396.211 155.835C396.211 156.806 395.888 157.58 395.242 158.156C394.591 158.728 393.703 159.013 392.577 159.013L392.373 159.013C391.678 159.013 391.06 158.886 390.52 158.631C389.979 158.376 389.559 158.011 389.26 157.536C388.961 157.057 388.812 156.492 388.812 155.841C388.812 155.041 389.051 154.377 389.53 153.849C390.01 153.317 390.632 153.034 391.397 152.999L391.397 154.153C390.935 154.188 390.557 154.364 390.262 154.68C389.963 154.993 389.814 155.379 389.814 155.841C389.814 156.461 390.038 156.943 390.487 157.285C390.931 157.624 391.575 157.793 392.419 157.793L392.65 157.793C393.472 157.793 394.105 157.624 394.549 157.285C394.993 156.947 395.215 156.463 395.215 155.835ZM387.216 149.6L388.943 149.6L388.943 148.268L389.887 148.268L389.887 149.6L394.312 149.6C394.598 149.6 394.813 149.541 394.958 149.422C395.099 149.303 395.169 149.101 395.169 148.815C395.169 148.675 395.143 148.481 395.09 148.235L396.079 148.235C396.167 148.556 396.211 148.868 396.211 149.171C396.211 149.717 396.046 150.128 395.716 150.405C395.387 150.682 394.919 150.82 394.312 150.82L389.887 150.82L389.887 152.119L388.943 152.119L388.943 150.82L387.216 150.82L387.216 149.6ZM390.038 143.016C390.007 143.201 389.992 143.401 389.992 143.616C389.992 144.417 390.333 144.96 391.014 145.245L396.079 145.245L396.079 146.465L388.943 146.465L388.943 145.278L389.768 145.259C389.13 144.858 388.812 144.291 388.812 143.557C388.812 143.32 388.842 143.139 388.904 143.016L390.038 143.016ZM396.079 140.191L396.079 141.412L388.943 141.412L388.943 140.191L396.079 140.191ZM387.051 141.51C386.853 141.51 386.686 141.451 386.549 141.332C386.413 141.209 386.345 141.029 386.345 140.792C386.345 140.554 386.413 140.374 386.549 140.251C386.686 140.128 386.853 140.066 387.051 140.066C387.249 140.066 387.413 140.128 387.545 140.251C387.677 140.374 387.743 140.554 387.743 140.792C387.743 141.029 387.677 141.209 387.545 141.332C387.413 141.451 387.249 141.51 387.051 141.51ZM395.215 134.999C395.215 134.564 395.083 134.184 394.82 133.858C394.556 133.533 394.226 133.353 393.83 133.317L393.83 132.163C394.239 132.185 394.628 132.326 394.998 132.585C395.367 132.845 395.662 133.192 395.881 133.627C396.101 134.058 396.211 134.515 396.211 134.999C396.211 135.971 395.888 136.745 395.242 137.321C394.591 137.892 393.703 138.178 392.577 138.178L392.373 138.178C391.678 138.178 391.06 138.05 390.52 137.795C389.979 137.54 389.559 137.175 389.26 136.701C388.961 136.221 388.812 135.656 388.812 135.006C388.812 134.205 389.051 133.542 389.53 133.014C390.01 132.482 390.632 132.198 391.397 132.163L391.397 133.317C390.935 133.353 390.557 133.528 390.262 133.845C389.963 134.157 389.814 134.544 389.814 135.006C389.814 135.626 390.038 136.107 390.487 136.45C390.931 136.789 391.575 136.958 392.419 136.958L392.65 136.958C393.472 136.958 394.105 136.789 394.549 136.45C394.993 136.111 395.215 135.628 395.215 134.999ZM396.079 126.015C395.939 126.085 395.688 126.142 395.327 126.186C395.917 126.753 396.211 127.43 396.211 128.217C396.211 128.921 396.013 129.499 395.618 129.952C395.217 130.4 394.712 130.625 394.101 130.625C393.358 130.625 392.782 130.343 392.373 129.78C391.96 129.213 391.753 128.417 391.753 127.393L391.753 126.206L391.192 126.206C390.766 126.206 390.427 126.333 390.177 126.588C389.922 126.843 389.794 127.219 389.794 127.716C389.794 128.151 389.904 128.516 390.124 128.811C390.344 129.105 390.61 129.253 390.922 129.253L390.922 130.479C390.566 130.479 390.223 130.354 389.893 130.103C389.559 129.848 389.295 129.506 389.102 129.075C388.908 128.639 388.812 128.162 388.812 127.644C388.812 126.821 389.018 126.177 389.431 125.711C389.84 125.245 390.405 125.003 391.126 124.986L394.411 124.986C395.066 124.986 395.587 124.902 395.974 124.735L396.079 124.735L396.079 126.015ZM395.149 128.039C395.149 127.657 395.05 127.294 394.853 126.951C394.655 126.608 394.397 126.36 394.081 126.206L392.617 126.206L392.617 127.162C392.617 128.657 393.054 129.404 393.929 129.404C394.312 129.404 394.611 129.277 394.826 129.022C395.042 128.767 395.149 128.439 395.149 128.039ZM396.079 121.376L396.079 122.596L385.949 122.596L385.949 121.376L396.079 121.376Z" fill="#1F1F1F"/>
<path d="M216.595 161.875L216.595 166.036L219.998 166.036L219.998 161.202L221.033 161.202L221.033 167.302L211.431 167.302L211.431 161.268L212.473 161.268L212.473 166.036L215.559 166.036L215.559 161.875L216.595 161.875ZM221.033 158.12L221.033 159.34L210.903 159.34L210.903 158.12L221.033 158.12ZM221.165 152.829C221.165 153.796 220.849 154.583 220.215 155.19C219.578 155.797 218.727 156.1 217.663 156.1L217.439 156.1C216.731 156.1 216.1 155.966 215.546 155.698C214.988 155.425 214.553 155.047 214.24 154.563C213.924 154.075 213.766 153.548 213.766 152.98C213.766 152.053 214.071 151.332 214.682 150.817C215.293 150.303 216.168 150.046 217.307 150.046L217.815 150.046L217.815 154.88C218.518 154.862 219.088 154.658 219.523 154.266C219.954 153.871 220.169 153.37 220.169 152.763C220.169 152.332 220.081 151.967 219.905 151.668C219.73 151.369 219.497 151.107 219.206 150.883L219.787 150.138C220.706 150.736 221.165 151.633 221.165 152.829ZM214.768 152.98C214.768 153.473 214.948 153.886 215.309 154.22C215.665 154.554 216.166 154.761 216.812 154.84L216.812 151.266L216.72 151.266C216.1 151.301 215.621 151.468 215.282 151.767C214.939 152.066 214.768 152.47 214.768 152.98ZM220.169 145.394C220.169 144.959 220.037 144.579 219.774 144.253C219.51 143.928 219.18 143.748 218.784 143.712L218.784 142.558C219.193 142.58 219.582 142.721 219.952 142.98C220.321 143.24 220.616 143.587 220.835 144.022C221.055 144.453 221.165 144.91 221.165 145.394C221.165 146.366 220.842 147.14 220.196 147.716C219.545 148.287 218.657 148.573 217.531 148.573L217.327 148.573C216.632 148.573 216.014 148.445 215.474 148.19C214.933 147.935 214.513 147.57 214.214 147.096C213.915 146.616 213.766 146.051 213.766 145.401C213.766 144.601 214.005 143.937 214.484 143.409C214.964 142.877 215.586 142.593 216.351 142.558L216.351 143.712C215.889 143.748 215.511 143.923 215.216 144.24C214.917 144.552 214.768 144.939 214.768 145.401C214.768 146.021 214.992 146.502 215.441 146.845C215.885 147.184 216.529 147.353 217.373 147.353L217.604 147.353C218.426 147.353 219.059 147.184 219.503 146.845C219.947 146.506 220.169 146.023 220.169 145.394ZM212.17 139.16L213.897 139.16L213.897 137.828L214.84 137.828L214.84 139.16L219.266 139.16C219.552 139.16 219.767 139.1 219.912 138.982C220.053 138.863 220.123 138.661 220.123 138.375C220.123 138.234 220.097 138.041 220.044 137.795L221.033 137.795C221.121 138.116 221.165 138.428 221.165 138.731C221.165 139.276 221 139.687 220.67 139.964C220.341 140.241 219.872 140.38 219.266 140.38L214.84 140.38L214.84 141.679L213.897 141.679L213.897 140.38L212.17 140.38L212.17 139.16ZM214.992 132.576C214.961 132.76 214.946 132.961 214.946 133.176C214.946 133.976 215.287 134.519 215.968 134.805L221.033 134.805L221.033 136.025L213.897 136.025L213.897 134.838L214.722 134.818C214.084 134.418 213.766 133.851 213.766 133.117C213.766 132.879 213.796 132.699 213.858 132.576L214.992 132.576ZM217.399 131.532C216.7 131.532 216.072 131.395 215.513 131.123C214.955 130.846 214.524 130.463 214.221 129.975C213.917 129.483 213.766 128.922 213.766 128.294C213.766 127.322 214.102 126.537 214.775 125.939C215.447 125.337 216.342 125.036 217.459 125.036L217.544 125.036C218.239 125.036 218.863 125.17 219.417 125.438C219.967 125.702 220.396 126.082 220.703 126.579C221.011 127.071 221.165 127.638 221.165 128.28C221.165 129.248 220.829 130.032 220.156 130.635C219.483 131.233 218.593 131.532 217.485 131.532L217.399 131.532ZM217.544 130.305C218.336 130.305 218.971 130.123 219.45 129.758C219.93 129.388 220.169 128.896 220.169 128.28C220.169 127.66 219.927 127.168 219.444 126.803C218.956 126.438 218.274 126.256 217.399 126.256C216.617 126.256 215.984 126.443 215.5 126.816C215.012 127.186 214.768 127.678 214.768 128.294C214.768 128.896 215.008 129.382 215.487 129.751C215.966 130.12 216.652 130.305 217.544 130.305ZM213.897 121.98L214.794 121.94C214.108 121.395 213.766 120.683 213.766 119.804C213.766 118.296 214.616 117.535 216.318 117.522L221.033 117.522L221.033 118.742L216.311 118.742C215.797 118.746 215.416 118.865 215.17 119.098C214.924 119.327 214.801 119.685 214.801 120.173C214.801 120.569 214.906 120.916 215.117 121.215C215.329 121.514 215.606 121.747 215.948 121.914L221.033 121.914L221.033 123.134L213.897 123.134L213.897 121.98ZM221.033 113.985L221.033 115.205L213.897 115.205L213.897 113.985L221.033 113.985ZM212.005 115.304C211.807 115.304 211.64 115.244 211.503 115.126C211.367 115.003 211.299 114.822 211.299 114.585C211.299 114.347 211.367 114.167 211.503 114.044C211.64 113.921 211.807 113.859 212.005 113.859C212.202 113.859 212.367 113.921 212.499 114.044C212.631 114.167 212.697 114.347 212.697 114.585C212.697 114.822 212.631 115.003 212.499 115.126C212.367 115.244 212.202 115.304 212.005 115.304ZM220.169 108.792C220.169 108.357 220.037 107.977 219.774 107.651C219.51 107.326 219.18 107.146 218.784 107.111L218.784 105.957C219.193 105.979 219.582 106.119 219.952 106.379C220.321 106.638 220.616 106.985 220.835 107.421C221.055 107.852 221.165 108.309 221.165 108.792C221.165 109.764 220.842 110.538 220.196 111.114C219.545 111.685 218.657 111.971 217.531 111.971L217.327 111.971C216.632 111.971 216.014 111.844 215.474 111.589C214.933 111.334 214.513 110.969 214.214 110.494C213.915 110.015 213.766 109.45 213.766 108.799C213.766 107.999 214.005 107.335 214.484 106.807C214.964 106.275 215.586 105.992 216.351 105.957L216.351 107.111C215.889 107.146 215.511 107.322 215.216 107.638C214.917 107.95 214.768 108.337 214.768 108.799C214.768 109.419 214.992 109.9 215.441 110.243C215.885 110.582 216.529 110.751 217.373 110.751L217.604 110.751C218.426 110.751 219.059 110.582 219.503 110.243C219.947 109.905 220.169 109.421 220.169 108.792ZM219.14 100.059C218.811 100.059 218.556 100.184 218.375 100.434C218.191 100.681 218.032 101.114 217.901 101.734C217.769 102.349 217.61 102.839 217.426 103.204C217.241 103.565 217.021 103.833 216.766 104.009C216.511 104.18 216.208 104.266 215.856 104.266C215.271 104.266 214.777 104.02 214.372 103.527C213.968 103.031 213.766 102.398 213.766 101.628C213.766 100.819 213.974 100.164 214.392 99.6628C214.81 99.1572 215.344 98.9044 215.995 98.9044L215.995 100.131C215.66 100.131 215.372 100.274 215.131 100.56C214.889 100.841 214.768 101.197 214.768 101.628C214.768 102.072 214.865 102.42 215.058 102.67C215.252 102.921 215.504 103.046 215.817 103.046C216.111 103.046 216.333 102.93 216.483 102.697C216.632 102.463 216.775 102.044 216.911 101.437C217.048 100.826 217.21 100.331 217.399 99.953C217.588 99.5749 217.817 99.2957 218.085 99.1154C218.349 98.9308 218.672 98.8384 219.055 98.8384C219.692 98.8384 220.204 99.0934 220.591 99.6035C220.974 100.113 221.165 100.775 221.165 101.589C221.165 102.16 221.064 102.666 220.862 103.105C220.659 103.545 220.378 103.89 220.018 104.141C219.653 104.387 219.259 104.51 218.837 104.51L218.837 103.29C219.246 103.268 219.571 103.105 219.813 102.802C220.051 102.494 220.169 102.09 220.169 101.589C220.169 101.127 220.077 100.758 219.892 100.481C219.703 100.199 219.453 100.059 219.14 100.059Z" fill="#1F1F1F"/>
<path d="M432.365 165.667L440.2 162.528L432.365 159.388L432.365 157.746L441.968 157.746L441.968 159.013L438.228 159.013L434.192 158.894L441.968 162.046L441.968 163.016L434.212 166.162L438.228 166.036L441.968 166.036L441.968 167.302L432.365 167.302L432.365 165.667ZM442.099 152.369C442.099 153.337 441.783 154.124 441.15 154.73C440.512 155.337 439.661 155.64 438.597 155.64L438.373 155.64C437.665 155.64 437.034 155.506 436.48 155.238C435.922 154.965 435.487 154.587 435.175 154.104C434.858 153.616 434.7 153.088 434.7 152.521C434.7 151.593 435.005 150.872 435.617 150.358C436.228 149.843 437.103 149.586 438.241 149.586L438.749 149.586L438.749 154.42C439.453 154.403 440.022 154.198 440.457 153.807C440.888 153.411 441.104 152.91 441.104 152.303C441.104 151.872 441.016 151.508 440.84 151.209C440.664 150.91 440.431 150.648 440.141 150.424L440.721 149.678C441.64 150.276 442.099 151.173 442.099 152.369ZM435.702 152.521C435.702 153.013 435.883 153.427 436.243 153.761C436.599 154.095 437.1 154.302 437.747 154.381L437.747 150.806L437.654 150.806C437.034 150.841 436.555 151.008 436.217 151.307C435.874 151.606 435.702 152.011 435.702 152.521ZM441.104 144.935C441.104 144.499 440.972 144.119 440.708 143.794C440.444 143.468 440.114 143.288 439.719 143.253L439.719 142.099C440.128 142.121 440.517 142.261 440.886 142.521C441.255 142.78 441.55 143.128 441.77 143.563C441.99 143.994 442.099 144.451 442.099 144.935C442.099 145.906 441.776 146.68 441.13 147.256C440.479 147.828 439.591 148.113 438.466 148.113L438.261 148.113C437.566 148.113 436.949 147.986 436.408 147.731C435.867 147.476 435.447 147.111 435.148 146.636C434.849 146.157 434.7 145.592 434.7 144.941C434.7 144.141 434.939 143.477 435.419 142.949C435.898 142.417 436.52 142.134 437.285 142.099L437.285 143.253C436.823 143.288 436.445 143.464 436.151 143.78C435.852 144.093 435.702 144.48 435.702 144.941C435.702 145.561 435.927 146.043 436.375 146.385C436.819 146.724 437.463 146.893 438.307 146.893L438.538 146.893C439.36 146.893 439.993 146.724 440.437 146.385C440.882 146.047 441.104 145.563 441.104 144.935ZM435.696 139.135C435.032 138.595 434.7 137.891 434.7 137.025C434.7 135.517 435.551 134.756 437.252 134.743L441.968 134.743L441.968 135.963L437.246 135.963C436.731 135.968 436.351 136.086 436.105 136.319C435.858 136.548 435.735 136.906 435.735 137.394C435.735 137.79 435.841 138.137 436.052 138.436C436.263 138.735 436.54 138.968 436.883 139.135L441.968 139.135L441.968 140.356L431.838 140.356L431.838 139.135L435.696 139.135ZM441.968 128.139C441.827 128.21 441.576 128.267 441.216 128.311C441.805 128.878 442.099 129.555 442.099 130.342C442.099 131.046 441.902 131.624 441.506 132.077C441.106 132.525 440.6 132.749 439.989 132.749C439.246 132.749 438.67 132.468 438.261 131.905C437.848 131.338 437.641 130.542 437.641 129.518L437.641 128.331L437.081 128.331C436.654 128.331 436.316 128.458 436.065 128.713C435.81 128.968 435.682 129.344 435.682 129.841C435.682 130.276 435.792 130.641 436.012 130.936C436.232 131.23 436.498 131.378 436.81 131.378L436.81 132.604C436.454 132.604 436.111 132.479 435.781 132.228C435.447 131.973 435.183 131.63 434.99 131.2C434.797 130.764 434.7 130.287 434.7 129.768C434.7 128.946 434.906 128.302 435.32 127.836C435.729 127.37 436.294 127.128 437.015 127.111L440.299 127.111C440.954 127.111 441.475 127.027 441.862 126.86L441.968 126.86L441.968 128.139ZM441.038 130.164C441.038 129.782 440.939 129.419 440.741 129.076C440.543 128.733 440.286 128.485 439.969 128.331L438.505 128.331L438.505 129.287C438.505 130.782 438.943 131.529 439.818 131.529C440.2 131.529 440.499 131.402 440.714 131.147C440.93 130.892 441.038 130.564 441.038 130.164ZM433.104 123.171L434.832 123.171L434.832 121.839L435.775 121.839L435.775 123.171L440.2 123.171C440.486 123.171 440.701 123.112 440.846 122.993C440.987 122.875 441.057 122.672 441.057 122.387C441.057 122.246 441.031 122.052 440.978 121.806L441.968 121.806C442.055 122.127 442.099 122.439 442.099 122.743C442.099 123.288 441.935 123.699 441.605 123.976C441.275 124.253 440.807 124.391 440.2 124.391L435.775 124.391L435.775 125.691L434.832 125.691L434.832 124.391L433.104 124.391L433.104 123.171ZM435.927 116.587C435.896 116.772 435.88 116.972 435.88 117.188C435.88 117.988 436.221 118.531 436.903 118.817L441.968 118.817L441.968 120.037L434.832 120.037L434.832 118.85L435.656 118.83C435.019 118.43 434.7 117.862 434.7 117.128C434.7 116.891 434.731 116.711 434.792 116.587L435.927 116.587ZM438.334 115.543C437.635 115.543 437.006 115.407 436.448 115.134C435.889 114.857 435.458 114.475 435.155 113.987C434.852 113.494 434.7 112.934 434.7 112.305C434.7 111.333 435.036 110.549 435.709 109.951C436.382 109.348 437.276 109.047 438.393 109.047L438.479 109.047C439.173 109.047 439.798 109.181 440.352 109.45C440.901 109.713 441.33 110.094 441.638 110.59C441.946 111.083 442.099 111.65 442.099 112.292C442.099 113.259 441.763 114.044 441.09 114.646C440.418 115.244 439.527 115.543 438.419 115.543L438.334 115.543ZM438.479 114.317C439.27 114.317 439.905 114.134 440.385 113.769C440.864 113.4 441.104 112.908 441.104 112.292C441.104 111.672 440.862 111.18 440.378 110.815C439.89 110.45 439.209 110.267 438.334 110.267C437.551 110.267 436.918 110.454 436.434 110.828C435.946 111.197 435.702 111.69 435.702 112.305C435.702 112.908 435.942 113.393 436.421 113.763C436.9 114.132 437.586 114.317 438.479 114.317ZM434.832 105.992L435.729 105.952C435.043 105.407 434.7 104.695 434.7 103.815C434.7 102.307 435.551 101.547 437.252 101.533L441.968 101.533L441.968 102.753L437.246 102.753C436.731 102.758 436.351 102.877 436.105 103.11C435.858 103.338 435.735 103.697 435.735 104.185C435.735 104.58 435.841 104.928 436.052 105.227C436.263 105.526 436.54 105.759 436.883 105.926L441.968 105.926L441.968 107.146L434.832 107.146L434.832 105.992ZM441.968 97.9964L441.968 99.2165L434.832 99.2165L434.832 97.9964L441.968 97.9964ZM432.939 99.3154C432.741 99.3154 432.574 99.256 432.438 99.1373C432.301 99.0142 432.233 98.834 432.233 98.5965C432.233 98.3591 432.301 98.1789 432.438 98.0557C432.574 97.9326 432.741 97.8711 432.939 97.8711C433.137 97.8711 433.302 97.9326 433.434 98.0557C433.565 98.1789 433.631 98.3591 433.631 98.5965C433.631 98.834 433.565 99.0142 433.434 99.1373C433.302 99.256 433.137 99.3154 432.939 99.3154ZM441.104 92.804C441.104 92.3687 440.972 91.9884 440.708 91.6631C440.444 91.3377 440.114 91.1575 439.719 91.1223L439.719 89.9682C440.128 89.9901 440.517 90.1308 440.886 90.3902C441.255 90.6496 441.55 90.997 441.77 91.4322C441.99 91.8631 442.099 92.3204 442.099 92.804C442.099 93.7757 441.776 94.5495 441.13 95.1254C440.479 95.697 439.591 95.9828 438.466 95.9828L438.261 95.9828C437.566 95.9828 436.949 95.8553 436.408 95.6003C435.867 95.3453 435.447 94.9804 435.148 94.5055C434.849 94.0263 434.7 93.4613 434.7 92.8106C434.7 92.0104 434.939 91.3465 435.419 90.8189C435.898 90.2869 436.52 90.0033 437.285 89.9682L437.285 91.1223C436.823 91.1575 436.445 91.3333 436.151 91.6499C435.852 91.962 435.702 92.349 435.702 92.8106C435.702 93.4305 435.927 93.912 436.375 94.2549C436.819 94.5935 437.463 94.7627 438.307 94.7627L438.538 94.7627C439.36 94.7627 439.993 94.5935 440.437 94.2549C440.882 93.9164 441.104 93.4327 441.104 92.804ZM440.075 84.0701C439.745 84.0701 439.49 84.1954 439.31 84.446C439.125 84.6923 438.967 85.1253 438.835 85.7453C438.703 86.3608 438.545 86.851 438.36 87.2159C438.175 87.5765 437.956 87.8447 437.701 88.0205C437.446 88.192 437.142 88.2777 436.79 88.2777C436.206 88.2777 435.711 88.0315 435.307 87.5391C434.902 87.0423 434.7 86.4092 434.7 85.6397C434.7 84.8308 434.909 84.1756 435.326 83.6744C435.744 83.1688 436.278 82.916 436.929 82.916L436.929 84.1427C436.595 84.1427 436.307 84.2856 436.065 84.5713C435.823 84.8527 435.702 85.2089 435.702 85.6397C435.702 86.0838 435.799 86.4311 435.992 86.6817C436.186 86.9324 436.439 87.0577 436.751 87.0577C437.045 87.0577 437.267 86.9412 437.417 86.7081C437.566 86.4751 437.709 86.0552 437.846 85.4485C437.982 84.8373 438.145 84.3427 438.334 83.9646C438.523 83.5865 438.751 83.3073 439.02 83.127C439.283 82.9424 439.607 82.8501 439.989 82.8501C440.627 82.8501 441.139 83.1051 441.526 83.6151C441.908 84.1251 442.099 84.7868 442.099 85.6002C442.099 86.1717 441.998 86.6774 441.796 87.117C441.594 87.5567 441.312 87.9018 440.952 88.1524C440.587 88.3986 440.193 88.5218 439.771 88.5218L439.771 87.3017C440.18 87.2797 440.506 87.117 440.747 86.8136C440.985 86.5059 441.104 86.1014 441.104 85.6002C441.104 85.1385 441.011 84.7692 440.827 84.4922C440.638 84.2108 440.387 84.0701 440.075 84.0701Z" fill="#1F1F1F"/>
<path d="M263.875 220.274C264.891 220.393 265.675 220.769 266.229 221.402C266.779 222.031 267.054 222.868 267.054 223.915C267.054 225.049 266.647 225.959 265.834 226.645C265.02 227.327 263.932 227.667 262.569 227.667L261.646 227.667C260.753 227.667 259.969 227.509 259.291 227.193C258.614 226.872 258.096 226.419 257.735 225.834C257.37 225.249 257.188 224.572 257.188 223.803C257.188 222.783 257.473 221.965 258.045 221.349C258.612 220.734 259.399 220.375 260.406 220.274L260.406 221.547C259.641 221.657 259.087 221.897 258.744 222.266C258.401 222.631 258.23 223.143 258.23 223.803C258.23 224.612 258.529 225.247 259.127 225.709C259.725 226.166 260.575 226.395 261.679 226.395L262.609 226.395C263.651 226.395 264.48 226.177 265.095 225.742C265.711 225.306 266.018 224.697 266.018 223.915C266.018 223.211 265.86 222.673 265.544 222.299C265.223 221.921 264.666 221.67 263.875 221.547L263.875 220.274ZM266.922 217.034L266.922 218.254L259.786 218.254L259.786 217.034L266.922 217.034ZM257.893 218.353C257.695 218.353 257.528 218.294 257.392 218.175C257.256 218.052 257.188 217.872 257.188 217.634C257.188 217.397 257.256 217.217 257.392 217.093C257.528 216.97 257.695 216.909 257.893 216.909C258.091 216.909 258.256 216.97 258.388 217.093C258.52 217.217 258.586 217.397 258.586 217.634C258.586 217.872 258.52 218.052 258.388 218.175C258.256 218.294 258.091 218.353 257.893 218.353ZM265.267 212.35L259.786 210.582L259.786 209.336L266.922 211.894L266.922 212.824L259.786 215.41L259.786 214.163L265.267 212.35ZM266.922 206.465L266.922 207.685L259.786 207.685L259.786 206.465L266.922 206.465ZM257.893 207.784C257.695 207.784 257.528 207.724 257.392 207.606C257.256 207.483 257.188 207.302 257.188 207.065C257.188 206.827 257.256 206.647 257.392 206.524C257.528 206.401 257.695 206.339 257.893 206.339C258.091 206.339 258.256 206.401 258.388 206.524C258.52 206.647 258.586 206.827 258.586 207.065C258.586 207.302 258.52 207.483 258.388 207.606C258.256 207.724 258.091 207.784 257.893 207.784ZM266.922 202.809L266.922 204.029L256.792 204.029L256.792 202.809L266.922 202.809Z" fill="#1F1F1F"/>
<path d="M297.192 198.571L297.192 199.837L287.589 199.837L287.589 198.571L297.192 198.571ZM290.056 194.915L290.953 194.876C290.267 194.33 289.924 193.618 289.924 192.739C289.924 191.231 290.775 190.47 292.476 190.457L297.192 190.457L297.192 191.677L292.47 191.677C291.955 191.681 291.575 191.8 291.329 192.033C291.082 192.262 290.959 192.62 290.959 193.108C290.959 193.504 291.065 193.851 291.276 194.15C291.487 194.449 291.764 194.682 292.107 194.849L297.192 194.849L297.192 196.069L290.056 196.069L290.056 194.915ZM297.192 187.645L290.999 187.645L290.999 188.773L290.056 188.773L290.056 187.645L289.324 187.645C288.559 187.645 287.967 187.441 287.55 187.032C287.132 186.623 286.923 186.045 286.923 185.297C286.923 185.016 286.96 184.737 287.035 184.46L288.024 184.526C287.985 184.732 287.965 184.952 287.965 185.185C287.965 185.581 288.082 185.887 288.315 186.102C288.543 186.317 288.873 186.425 289.304 186.425L290.056 186.425L290.056 184.902L290.999 184.902L290.999 186.425L297.192 186.425L297.192 187.645ZM293.558 183.502C292.859 183.502 292.23 183.365 291.672 183.093C291.113 182.816 290.682 182.433 290.379 181.945C290.076 181.453 289.924 180.892 289.924 180.263C289.924 179.292 290.26 178.507 290.933 177.909C291.606 177.307 292.5 177.005 293.617 177.005L293.703 177.005C294.397 177.005 295.022 177.14 295.576 177.408C296.125 177.672 296.554 178.052 296.862 178.549C297.17 179.041 297.323 179.608 297.323 180.25C297.323 181.217 296.987 182.002 296.314 182.605C295.642 183.203 294.751 183.502 293.643 183.502L293.558 183.502ZM293.703 182.275C294.494 182.275 295.129 182.092 295.609 181.727C296.088 181.358 296.328 180.866 296.328 180.25C296.328 179.63 296.086 179.138 295.602 178.773C295.114 178.408 294.433 178.226 293.558 178.226C292.775 178.226 292.142 178.412 291.658 178.786C291.17 179.155 290.926 179.648 290.926 180.263C290.926 180.866 291.166 181.352 291.645 181.721C292.124 182.09 292.81 182.275 293.703 182.275ZM291.151 171.655C291.12 171.839 291.104 172.039 291.104 172.255C291.104 173.055 291.445 173.598 292.127 173.884L297.192 173.884L297.192 175.104L290.056 175.104L290.056 173.917L290.88 173.897C290.243 173.497 289.924 172.93 289.924 172.196C289.924 171.958 289.955 171.778 290.016 171.655L291.151 171.655ZM290.056 169.008L290.847 168.975C290.232 168.452 289.924 167.746 289.924 166.858C289.924 165.86 290.306 165.181 291.071 164.82C290.728 164.583 290.451 164.275 290.24 163.897C290.029 163.514 289.924 163.064 289.924 162.545C289.924 160.98 290.753 160.184 292.41 160.158L297.192 160.158L297.192 161.378L292.483 161.378C291.973 161.378 291.592 161.494 291.342 161.727C291.087 161.96 290.959 162.352 290.959 162.901C290.959 163.354 291.096 163.73 291.368 164.029C291.636 164.328 291.999 164.501 292.456 164.55L297.192 164.55L297.192 165.777L292.516 165.777C291.478 165.777 290.959 166.284 290.959 167.3C290.959 168.1 291.3 168.648 291.981 168.942L297.192 168.942L297.192 170.162L290.056 170.162L290.056 169.008ZM297.192 153.534C297.051 153.604 296.8 153.662 296.44 153.706C297.029 154.273 297.323 154.95 297.323 155.737C297.323 156.44 297.126 157.018 296.73 157.471C296.33 157.92 295.824 158.144 295.213 158.144C294.47 158.144 293.894 157.863 293.485 157.3C293.072 156.733 292.865 155.937 292.865 154.912L292.865 153.725L292.305 153.725C291.878 153.725 291.54 153.853 291.289 154.108C291.034 154.363 290.906 154.739 290.906 155.236C290.906 155.671 291.016 156.036 291.236 156.33C291.456 156.625 291.722 156.772 292.034 156.772L292.034 157.999C291.678 157.999 291.335 157.874 291.005 157.623C290.671 157.368 290.407 157.025 290.214 156.594C290.021 156.159 289.924 155.682 289.924 155.163C289.924 154.341 290.13 153.697 290.544 153.231C290.953 152.765 291.518 152.523 292.239 152.505L295.523 152.505C296.178 152.505 296.699 152.422 297.086 152.255L297.192 152.255L297.192 153.534ZM296.262 155.559C296.262 155.176 296.163 154.814 295.965 154.471C295.767 154.128 295.51 153.879 295.193 153.725L293.729 153.725L293.729 154.682C293.729 156.176 294.167 156.924 295.042 156.924C295.424 156.924 295.723 156.796 295.938 156.541C296.154 156.286 296.262 155.959 296.262 155.559ZM288.328 148.566L290.056 148.566L290.056 147.234L290.999 147.234L290.999 148.566L295.424 148.566C295.71 148.566 295.925 148.507 296.07 148.388C296.211 148.269 296.281 148.067 296.281 147.781C296.281 147.64 296.255 147.447 296.202 147.201L297.192 147.201C297.279 147.522 297.323 147.834 297.323 148.137C297.323 148.682 297.159 149.094 296.829 149.371C296.499 149.648 296.031 149.786 295.424 149.786L290.999 149.786L290.999 151.085L290.056 151.085L290.056 149.786L288.328 149.786L288.328 148.566ZM297.192 144.106L297.192 145.326L290.056 145.326L290.056 144.106L297.192 144.106ZM288.163 145.425C287.965 145.425 287.798 145.365 287.662 145.247C287.525 145.123 287.457 144.943 287.457 144.706C287.457 144.468 287.525 144.288 287.662 144.165C287.798 144.042 287.965 143.98 288.163 143.98C288.361 143.98 288.526 144.042 288.658 144.165C288.789 144.288 288.855 144.468 288.855 144.706C288.855 144.943 288.789 145.123 288.658 145.247C288.526 145.365 288.361 145.425 288.163 145.425ZM293.558 142.099C292.859 142.099 292.23 141.962 291.672 141.69C291.113 141.413 290.682 141.03 290.379 140.542C290.076 140.05 289.924 139.489 289.924 138.86C289.924 137.889 290.26 137.104 290.933 136.506C291.606 135.904 292.5 135.603 293.617 135.603L293.703 135.603C294.397 135.603 295.022 135.737 295.576 136.005C296.125 136.269 296.554 136.649 296.862 137.146C297.17 137.638 297.323 138.205 297.323 138.847C297.323 139.815 296.987 140.599 296.314 141.202C295.642 141.8 294.751 142.099 293.643 142.099L293.558 142.099ZM293.703 140.872C294.494 140.872 295.129 140.69 295.609 140.325C296.088 139.955 296.328 139.463 296.328 138.847C296.328 138.227 296.086 137.735 295.602 137.37C295.114 137.005 294.433 136.823 293.558 136.823C292.775 136.823 292.142 137.009 291.658 137.383C291.17 137.753 290.926 138.245 290.926 138.86C290.926 139.463 291.166 139.949 291.645 140.318C292.124 140.687 292.81 140.872 293.703 140.872ZM290.056 132.547L290.953 132.507C290.267 131.962 289.924 131.25 289.924 130.371C289.924 128.863 290.775 128.102 292.476 128.089L297.192 128.089L297.192 129.309L292.47 129.309C291.955 129.313 291.575 129.432 291.329 129.665C291.082 129.894 290.959 130.252 290.959 130.74C290.959 131.136 291.065 131.483 291.276 131.782C291.487 132.081 291.764 132.314 292.107 132.481L297.192 132.481L297.192 133.701L290.056 133.701L290.056 132.547ZM312.911 197.1C312.599 198.186 312.217 198.978 311.764 199.474C311.307 199.967 310.744 200.213 310.076 200.213C309.319 200.213 308.695 199.912 308.203 199.309C307.706 198.703 307.457 197.916 307.457 196.948C307.457 196.289 307.585 195.702 307.84 195.188C308.095 194.669 308.447 194.269 308.895 193.987C309.343 193.702 309.834 193.559 310.366 193.559L310.366 194.831C309.785 194.831 309.33 195.016 309.001 195.385C308.666 195.755 308.499 196.276 308.499 196.948C308.499 197.573 308.638 198.061 308.915 198.413C309.187 198.76 309.568 198.934 310.056 198.934C310.447 198.934 310.779 198.769 311.052 198.439C311.32 198.105 311.566 197.54 311.79 196.744C312.014 195.944 312.263 195.319 312.535 194.871C312.804 194.418 313.118 194.084 313.479 193.869C313.839 193.649 314.263 193.539 314.751 193.539C315.53 193.539 316.154 193.842 316.624 194.449C317.09 195.056 317.323 195.867 317.323 196.882C317.323 197.542 317.198 198.158 316.948 198.729C316.693 199.301 316.345 199.743 315.906 200.055C315.466 200.362 314.967 200.516 314.408 200.516L314.408 199.244C314.989 199.244 315.448 199.03 315.787 198.604C316.121 198.173 316.288 197.599 316.288 196.882C316.288 196.214 316.152 195.702 315.879 195.346C315.607 194.99 315.235 194.812 314.765 194.812C314.294 194.812 313.931 194.977 313.676 195.306C313.417 195.636 313.162 196.234 312.911 197.1ZM316.328 188.867C316.328 188.432 316.196 188.052 315.932 187.727C315.668 187.401 315.338 187.221 314.943 187.186L314.943 186.032C315.352 186.054 315.741 186.194 316.11 186.454C316.479 186.713 316.774 187.06 316.994 187.496C317.214 187.927 317.323 188.384 317.323 188.867C317.323 189.839 317 190.613 316.354 191.189C315.703 191.76 314.815 192.046 313.69 192.046L313.485 192.046C312.79 192.046 312.173 191.919 311.632 191.664C311.091 191.409 310.671 191.044 310.372 190.569C310.073 190.09 309.924 189.525 309.924 188.874C309.924 188.074 310.163 187.41 310.643 186.882C311.122 186.35 311.744 186.067 312.509 186.032L312.509 187.186C312.047 187.221 311.669 187.397 311.375 187.713C311.076 188.026 310.926 188.412 310.926 188.874C310.926 189.494 311.151 189.975 311.599 190.318C312.043 190.657 312.687 190.826 313.531 190.826L313.762 190.826C314.584 190.826 315.217 190.657 315.661 190.318C316.106 189.98 316.328 189.496 316.328 188.867ZM317.192 182.963L317.192 184.183L310.056 184.183L310.056 182.963L317.192 182.963ZM308.163 184.282C307.965 184.282 307.798 184.222 307.662 184.104C307.525 183.981 307.457 183.8 307.457 183.563C307.457 183.326 307.525 183.145 307.662 183.022C307.798 182.899 307.965 182.838 308.163 182.838C308.361 182.838 308.526 182.899 308.658 183.022C308.789 183.145 308.855 183.326 308.855 183.563C308.855 183.8 308.789 183.981 308.658 184.104C308.526 184.222 308.361 184.282 308.163 184.282ZM317.323 177.672C317.323 178.639 317.007 179.426 316.374 180.033C315.736 180.639 314.885 180.943 313.821 180.943L313.597 180.943C312.889 180.943 312.258 180.809 311.704 180.54C311.146 180.268 310.711 179.89 310.399 179.406C310.082 178.918 309.924 178.39 309.924 177.823C309.924 176.896 310.229 176.174 310.841 175.66C311.452 175.146 312.327 174.888 313.465 174.888L313.973 174.888L313.973 179.723C314.677 179.705 315.246 179.501 315.681 179.109C316.112 178.714 316.328 178.212 316.328 177.606C316.328 177.175 316.24 176.81 316.064 176.511C315.888 176.212 315.655 175.95 315.365 175.726L315.945 174.981C316.864 175.579 317.323 176.476 317.323 177.672ZM310.926 177.823C310.926 178.316 311.107 178.729 311.467 179.063C311.823 179.397 312.324 179.604 312.971 179.683L312.971 176.109L312.878 176.109C312.258 176.144 311.779 176.311 311.441 176.61C311.098 176.909 310.926 177.313 310.926 177.823ZM310.056 171.945L310.953 171.905C310.267 171.36 309.924 170.648 309.924 169.769C309.924 168.261 310.775 167.5 312.476 167.487L317.192 167.487L317.192 168.707L312.47 168.707C311.955 168.711 311.575 168.83 311.329 169.063C311.082 169.292 310.959 169.65 310.959 170.138C310.959 170.534 311.065 170.881 311.276 171.18C311.487 171.479 311.764 171.712 312.107 171.879L317.192 171.879L317.192 173.099L310.056 173.099L310.056 171.945ZM316.328 162.413C316.328 161.978 316.196 161.597 315.932 161.272C315.668 160.947 315.338 160.767 314.943 160.731L314.943 159.577C315.352 159.599 315.741 159.74 316.11 159.999C316.479 160.259 316.774 160.606 316.994 161.041C317.214 161.472 317.323 161.929 317.323 162.413C317.323 163.385 317 164.159 316.354 164.735C315.703 165.306 314.815 165.592 313.69 165.592L313.485 165.592C312.79 165.592 312.173 165.464 311.632 165.209C311.091 164.954 310.671 164.589 310.372 164.115C310.073 163.635 309.924 163.07 309.924 162.42C309.924 161.619 310.163 160.956 310.643 160.428C311.122 159.896 311.744 159.612 312.509 159.577L312.509 160.731C312.047 160.767 311.669 160.942 311.375 161.259C311.076 161.571 310.926 161.958 310.926 162.42C310.926 163.04 311.151 163.521 311.599 163.864C312.043 164.203 312.687 164.372 313.531 164.372L313.762 164.372C314.584 164.372 315.217 164.203 315.661 163.864C316.106 163.525 316.328 163.042 316.328 162.413ZM317.323 154.873C317.323 155.84 317.007 156.627 316.374 157.234C315.736 157.841 314.885 158.144 313.821 158.144L313.597 158.144C312.889 158.144 312.258 158.01 311.704 157.742C311.146 157.469 310.711 157.091 310.399 156.607C310.082 156.119 309.924 155.592 309.924 155.025C309.924 154.097 310.229 153.376 310.841 152.861C311.452 152.347 312.327 152.09 313.465 152.09L313.973 152.09L313.973 156.924C314.677 156.906 315.246 156.702 315.681 156.311C316.112 155.915 316.328 155.414 316.328 154.807C316.328 154.376 316.24 154.011 316.064 153.712C315.888 153.413 315.655 153.152 315.365 152.927L315.945 152.182C316.864 152.78 317.323 153.677 317.323 154.873ZM310.926 155.025C310.926 155.517 311.107 155.93 311.467 156.264C311.823 156.599 312.324 156.805 312.971 156.884L312.971 153.31L312.878 153.31C312.258 153.345 311.779 153.512 311.441 153.811C311.098 154.11 310.926 154.515 310.926 155.025Z" fill="#1F1F1F"/>
</svg>
