<svg width="65" height="65" viewBox="0 0 65 65" fill="none" xmlns="http://www.w3.org/2000/svg">
<rect x="0.788208" y="0.779297" width="63.4941" height="63.4941" rx="31.7471" fill="#F2994A" fill-opacity="0.2"/>
<g clip-path="url(#clip0_2166:15563)">
<path d="M47.9999 26V24H45.8989C45.77 23.374 45.5214 22.7788 45.1669 22.247L46.6569 20.757L45.2429 19.343L43.7529 20.833C43.2211 20.4785 42.6259 20.23 41.9999 20.101V18H39.9999V20.101C39.374 20.23 38.7787 20.4785 38.2469 20.833L36.7569 19.343L35.3429 20.757L36.8329 22.247C36.4785 22.7788 36.2299 23.374 36.1009 24H33.9999V26H36.1009C36.2299 26.626 36.4785 27.2212 36.8329 27.753L35.3429 29.243L36.7569 30.657L38.2469 29.167C38.7787 29.5215 39.374 29.77 39.9999 29.899V32H41.9999V29.899C42.6259 29.77 43.2211 29.5215 43.7529 29.167L45.2429 30.657L46.6569 29.243L45.1669 27.753C45.5214 27.2212 45.77 26.626 45.8989 26H47.9999ZM40.9999 28C40.4066 28 39.8266 27.8241 39.3332 27.4944C38.8399 27.1648 38.4554 26.6962 38.2283 26.1481C38.0012 25.5999 37.9418 24.9967 38.0576 24.4147C38.1733 23.8328 38.4591 23.2982 38.8786 22.8787C39.2982 22.4591 39.8327 22.1734 40.4147 22.0576C40.9966 21.9419 41.5998 22.0013 42.148 22.2284C42.6962 22.4554 43.1647 22.8399 43.4943 23.3333C43.824 23.8266 43.9999 24.4067 43.9999 25C43.9991 25.7954 43.6828 26.558 43.1204 27.1204C42.5579 27.6829 41.7953 27.9992 40.9999 28Z" fill="#F39C12"/>
<path d="M33.9999 46H31.9999V41C31.9991 40.2046 31.6828 39.442 31.1204 38.8796C30.5579 38.3171 29.7953 38.0008 28.9999 38H24.9999C24.2045 38.0008 23.4419 38.3171 22.8795 38.8796C22.3171 39.442 22.0007 40.2046 21.9999 41V46H19.9999V41C20.0015 39.6744 20.5288 38.4036 21.4662 37.4662C22.4035 36.5289 23.6743 36.0016 24.9999 36H28.9999C30.3255 36.0016 31.5964 36.5289 32.5337 37.4662C33.4711 38.4036 33.9984 39.6744 33.9999 41V46Z" fill="#F39C12"/>
<path d="M26.9999 26C27.5933 26 28.1733 26.1759 28.6667 26.5056C29.16 26.8352 29.5445 27.3038 29.7716 27.8519C29.9986 28.4001 30.0581 29.0033 29.9423 29.5853C29.8265 30.1672 29.5408 30.7018 29.1213 31.1213C28.7017 31.5409 28.1672 31.8266 27.5852 31.9424C27.0033 32.0581 26.4001 31.9987 25.8519 31.7716C25.3037 31.5446 24.8352 31.1601 24.5055 30.6667C24.1759 30.1734 23.9999 29.5933 23.9999 29C23.9999 28.2044 24.316 27.4413 24.8786 26.8787C25.4412 26.3161 26.2043 26 26.9999 26ZM26.9999 24C26.011 24 25.0443 24.2932 24.2221 24.8427C23.3998 25.3921 22.759 26.173 22.3805 27.0866C22.0021 28.0002 21.9031 29.0055 22.096 29.9755C22.2889 30.9454 22.7651 31.8363 23.4644 32.5355C24.1637 33.2348 25.0546 33.711 26.0245 33.9039C26.9944 34.0969 27.9997 33.9978 28.9134 33.6194C29.827 33.241 30.6079 32.6001 31.1573 31.7779C31.7067 30.9556 31.9999 29.9889 31.9999 29C31.9999 28.3434 31.8706 27.6932 31.6193 27.0866C31.3681 26.48 30.9998 25.9288 30.5355 25.4645C30.0712 25.0002 29.52 24.6319 28.9134 24.3806C28.3067 24.1293 27.6566 24 26.9999 24Z" fill="#F39C12"/>
</g>
<defs>
<clipPath id="clip0_2166:15563">
<rect width="33.2962" height="33.2962" fill="white" transform="translate(15.8871 15.8789)"/>
</clipPath>
</defs>
</svg>
