<svg width="893" height="448" viewBox="0 0 893 448" fill="none" xmlns="http://www.w3.org/2000/svg">
<line x1="68.4065" y1="75.4785" x2="68.4065" y2="308.137" stroke="#ECECEE" stroke-width="0.822931"/>
<path d="M40.3112 280.082V279.263H42.1677V286.402H41.2592V280.082H40.3112ZM46.8812 286.402L44.7581 284.013V286.402H43.8594V279.095H44.7581V283.39L46.8417 280.991H48.0959L45.5481 283.687L48.1058 286.402H46.8812Z" fill="#92959E"/>
<path d="M39.255 188.85H35.7888V191.102C35.9402 190.891 36.1641 190.72 36.4603 190.588C36.7566 190.45 37.0759 190.381 37.4182 190.381C37.9646 190.381 38.409 190.496 38.7514 190.727C39.0937 190.95 39.3373 191.243 39.4821 191.606C39.6335 191.961 39.7092 192.34 39.7092 192.741C39.7092 193.215 39.6204 193.64 39.4426 194.015C39.2649 194.39 38.9916 194.687 38.623 194.904C38.2609 195.121 37.8099 195.23 37.2701 195.23C36.5788 195.23 36.0192 195.052 35.5913 194.696C35.1634 194.341 34.9033 193.867 34.8112 193.274H35.69C35.7756 193.65 35.9567 193.943 36.2332 194.153C36.5097 194.364 36.8586 194.469 37.28 194.469C37.8 194.469 38.1918 194.315 38.4551 194.005C38.7184 193.689 38.8501 193.274 38.8501 192.761C38.8501 192.247 38.7184 191.852 38.4551 191.576C38.1918 191.293 37.8033 191.151 37.2898 191.151C36.9409 191.151 36.6348 191.237 36.3714 191.408C36.1147 191.573 35.9271 191.8 35.8086 192.089H34.9593V188.06H39.255V188.85ZM44.0734 195.21L41.9502 192.82V195.21H41.0516V187.902H41.9502V192.198L44.0339 189.798H45.288L42.7402 192.494L45.2979 195.21H44.0734Z" fill="#92959E"/>
<path d="M35.8579 103.271C35.9238 103.646 36.0752 103.936 36.3122 104.14C36.5558 104.344 36.8817 104.446 37.2898 104.446C37.8363 104.446 38.2378 104.232 38.4946 103.804C38.7579 103.376 38.883 102.655 38.8699 101.641C38.7316 101.938 38.5012 102.171 38.1786 102.342C37.856 102.507 37.4972 102.589 37.1022 102.589C36.6611 102.589 36.2661 102.5 35.9172 102.323C35.5748 102.138 35.3049 101.872 35.1074 101.523C34.9099 101.174 34.8112 100.753 34.8112 100.259C34.8112 99.5544 35.0152 98.9882 35.4234 98.5603C35.8316 98.1258 36.4109 97.9085 37.1614 97.9085C38.0831 97.9085 38.7283 98.2081 39.097 98.8072C39.4722 99.4063 39.6599 100.298 39.6599 101.483C39.6599 102.313 39.5842 102.998 39.4327 103.537C39.2879 104.077 39.0377 104.489 38.6822 104.772C38.3333 105.055 37.8527 105.196 37.2405 105.196C36.5689 105.196 36.0456 105.015 35.6703 104.653C35.295 104.291 35.0811 103.83 35.0284 103.271H35.8579ZM37.2503 101.829C37.6914 101.829 38.0535 101.694 38.3366 101.424C38.6197 101.148 38.7612 100.776 38.7612 100.308C38.7612 99.8144 38.623 99.4161 38.3465 99.1133C38.07 98.8105 37.6815 98.659 37.1812 98.659C36.7204 98.659 36.3517 98.8039 36.0752 99.0935C35.8053 99.3832 35.6703 99.7651 35.6703 100.239C35.6703 100.72 35.8053 101.105 36.0752 101.394C36.3451 101.684 36.7368 101.829 37.2503 101.829ZM44.0927 105.187L41.9695 102.797V105.187H41.0709V97.8789H41.9695V102.175L44.0532 99.7749H45.3073L42.7595 102.471L45.3172 105.187H44.0927Z" fill="#92959E"/>
<path d="M34.6828 235.463C34.7289 234.858 34.9626 234.384 35.3839 234.041C35.8053 233.699 36.3517 233.528 37.0232 233.528C37.4709 233.528 37.856 233.61 38.1786 233.775C38.5078 233.933 38.7546 234.15 38.9192 234.426C39.0904 234.703 39.176 235.016 39.176 235.364C39.176 235.773 39.0575 236.125 38.8205 236.421C38.5901 236.717 38.2872 236.908 37.912 236.994V237.043C38.3399 237.149 38.6789 237.356 38.9291 237.665C39.1793 237.975 39.3044 238.38 39.3044 238.88C39.3044 239.255 39.2188 239.594 39.0476 239.897C38.8764 240.193 38.6197 240.427 38.2773 240.598C37.935 240.769 37.5235 240.855 37.0429 240.855C36.3451 240.855 35.7723 240.674 35.3247 240.312C34.877 239.943 34.6268 239.423 34.5742 238.752H35.4432C35.4893 239.147 35.6505 239.469 35.9271 239.719C36.2036 239.97 36.5722 240.095 37.0331 240.095C37.4939 240.095 37.8428 239.976 38.0798 239.739C38.3234 239.496 38.4452 239.183 38.4452 238.801C38.4452 238.307 38.2806 237.952 37.9515 237.734C37.6223 237.517 37.1252 237.409 36.4603 237.409H36.2332V236.658H36.4702C37.0759 236.652 37.5334 236.553 37.8428 236.362C38.1523 236.164 38.307 235.861 38.307 235.453C38.307 235.104 38.1918 234.825 37.9613 234.614C37.7375 234.403 37.4149 234.298 36.9936 234.298C36.5854 234.298 36.2562 234.403 36.0061 234.614C35.7559 234.825 35.6078 235.108 35.5617 235.463H34.6828ZM43.6876 240.806L41.5645 238.416V240.806H40.6658V233.498H41.5645V237.794L43.6481 235.394H44.9023L42.3545 238.09L44.9121 240.806H43.6876Z" fill="#92959E"/>
<path d="M39.097 144.345L36.3517 150.783H35.4432L38.228 144.433H34.4162V143.663H39.097V144.345ZM43.2633 150.783L41.1401 148.393V150.783H40.2415V143.476H41.1401V147.771L43.2238 145.372H44.4779L41.9302 148.068L44.4878 150.783H43.2633Z" fill="#92959E"/>
<line x1="860.079" y1="400.916" x2="860.079" y2="411.034" stroke="#ECECEE" stroke-width="1.65779" stroke-linecap="round" stroke-linejoin="round"/>
<path d="M836.314 426.259C836.314 425.119 836.5 424.23 836.871 423.594C837.242 422.95 837.892 422.629 838.821 422.629C839.742 422.629 840.389 422.95 840.76 423.594C841.132 424.23 841.317 425.119 841.317 426.259C841.317 427.42 841.132 428.322 840.76 428.965C840.389 429.608 839.742 429.93 838.821 429.93C837.892 429.93 837.242 429.608 836.871 428.965C836.5 428.322 836.314 427.42 836.314 426.259ZM840.422 426.259C840.422 425.682 840.382 425.195 840.303 424.797C840.23 424.393 840.074 424.068 839.835 423.822C839.603 423.577 839.265 423.454 838.821 423.454C838.37 423.454 838.025 423.577 837.786 423.822C837.554 424.068 837.398 424.393 837.319 424.797C837.246 425.195 837.209 425.682 837.209 426.259C837.209 426.856 837.246 427.357 837.319 427.761C837.398 428.166 837.554 428.491 837.786 428.736C838.025 428.981 838.37 429.104 838.821 429.104C839.265 429.104 839.603 428.981 839.835 428.736C840.074 428.491 840.23 428.166 840.303 427.761C840.382 427.357 840.422 426.856 840.422 426.259ZM842.54 424.549C842.586 423.938 842.822 423.461 843.246 423.116C843.671 422.771 844.221 422.599 844.897 422.599C845.348 422.599 845.736 422.682 846.061 422.848C846.393 423.007 846.641 423.226 846.807 423.504C846.98 423.783 847.066 424.098 847.066 424.449C847.066 424.86 846.946 425.215 846.708 425.513C846.476 425.812 846.171 426.004 845.793 426.09V426.14C846.224 426.246 846.565 426.455 846.817 426.767C847.069 427.078 847.195 427.486 847.195 427.99C847.195 428.368 847.109 428.71 846.936 429.015C846.764 429.313 846.505 429.548 846.161 429.721C845.816 429.893 845.401 429.979 844.917 429.979C844.214 429.979 843.637 429.797 843.187 429.432C842.736 429.061 842.484 428.537 842.431 427.861H843.306C843.352 428.259 843.515 428.584 843.793 428.836C844.072 429.088 844.443 429.214 844.907 429.214C845.372 429.214 845.723 429.094 845.962 428.855C846.207 428.61 846.33 428.295 846.33 427.911C846.33 427.413 846.164 427.055 845.832 426.836C845.501 426.617 845 426.508 844.33 426.508H844.102V425.752H844.34C844.95 425.745 845.411 425.646 845.723 425.454C846.035 425.255 846.19 424.95 846.19 424.539C846.19 424.187 846.074 423.905 845.842 423.693C845.617 423.481 845.292 423.375 844.868 423.375C844.456 423.375 844.125 423.481 843.873 423.693C843.621 423.905 843.472 424.19 843.425 424.549H842.54ZM848.855 429.989C848.682 429.989 848.537 429.93 848.417 429.81C848.298 429.691 848.238 429.545 848.238 429.373C848.238 429.2 848.298 429.054 848.417 428.935C848.537 428.816 848.682 428.756 848.855 428.756C849.021 428.756 849.16 428.816 849.273 428.935C849.392 429.054 849.452 429.2 849.452 429.373C849.452 429.545 849.392 429.691 849.273 429.81C849.16 429.93 849.021 429.989 848.855 429.989ZM848.855 425.732C848.682 425.732 848.537 425.672 848.417 425.553C848.298 425.434 848.238 425.288 848.238 425.115C848.238 424.943 848.298 424.797 848.417 424.678C848.537 424.558 848.682 424.499 848.855 424.499C849.021 424.499 849.16 424.558 849.273 424.678C849.392 424.797 849.452 424.943 849.452 425.115C849.452 425.288 849.392 425.434 849.273 425.553C849.16 425.672 849.021 425.732 848.855 425.732ZM850.515 424.549C850.561 423.938 850.797 423.461 851.221 423.116C851.645 422.771 852.196 422.599 852.872 422.599C853.323 422.599 853.711 422.682 854.036 422.848C854.368 423.007 854.616 423.226 854.782 423.504C854.954 423.783 855.041 424.098 855.041 424.449C855.041 424.86 854.921 425.215 854.683 425.513C854.45 425.812 854.145 426.004 853.767 426.09V426.14C854.198 426.246 854.54 426.455 854.792 426.767C855.044 427.078 855.17 427.486 855.17 427.99C855.17 428.368 855.084 428.71 854.911 429.015C854.739 429.313 854.48 429.548 854.135 429.721C853.791 429.893 853.376 429.979 852.892 429.979C852.189 429.979 851.612 429.797 851.161 429.432C850.711 429.061 850.459 428.537 850.405 427.861H851.281C851.327 428.259 851.49 428.584 851.768 428.836C852.047 429.088 852.418 429.214 852.882 429.214C853.346 429.214 853.698 429.094 853.937 428.855C854.182 428.61 854.305 428.295 854.305 427.911C854.305 427.413 854.139 427.055 853.807 426.836C853.476 426.617 852.975 426.508 852.305 426.508H852.077V425.752H852.315C852.925 425.745 853.386 425.646 853.698 425.454C854.009 425.255 854.165 424.95 854.165 424.539C854.165 424.187 854.049 423.905 853.817 423.693C853.592 423.481 853.267 423.375 852.842 423.375C852.431 423.375 852.1 423.481 851.848 423.693C851.596 423.905 851.447 424.19 851.4 424.549H850.515ZM856.392 426.259C856.392 425.119 856.578 424.23 856.949 423.594C857.32 422.95 857.97 422.629 858.899 422.629C859.82 422.629 860.467 422.95 860.838 423.594C861.21 424.23 861.395 425.119 861.395 426.259C861.395 427.42 861.21 428.322 860.838 428.965C860.467 429.608 859.82 429.93 858.899 429.93C857.97 429.93 857.32 429.608 856.949 428.965C856.578 428.322 856.392 427.42 856.392 426.259ZM860.5 426.259C860.5 425.682 860.46 425.195 860.381 424.797C860.308 424.393 860.152 424.068 859.913 423.822C859.681 423.577 859.343 423.454 858.899 423.454C858.448 423.454 858.103 423.577 857.864 423.822C857.632 424.068 857.476 424.393 857.397 424.797C857.324 425.195 857.287 425.682 857.287 426.259C857.287 426.856 857.324 427.357 857.397 427.761C857.476 428.166 857.632 428.491 857.864 428.736C858.103 428.981 858.448 429.104 858.899 429.104C859.343 429.104 859.681 428.981 859.913 428.736C860.152 428.491 860.308 428.166 860.381 427.761C860.46 427.357 860.5 426.856 860.5 426.259ZM870.074 425.026C870.074 425.603 869.875 426.084 869.477 426.468C869.086 426.846 868.486 427.035 867.677 427.035H866.344V429.93H865.439V422.997H867.677C868.459 422.997 869.053 423.186 869.457 423.564C869.869 423.942 870.074 424.429 870.074 425.026ZM867.677 426.289C868.181 426.289 868.552 426.18 868.791 425.961C869.03 425.742 869.149 425.43 869.149 425.026C869.149 424.171 868.658 423.743 867.677 423.743H866.344V426.289H867.677ZM878.231 423.047V429.93H877.326V424.797L875.039 429.93H874.402L872.104 424.787V429.93H871.199V423.047H872.174L874.72 428.736L877.267 423.047H878.231Z" fill="#92959E"/>
<rect x="1.24457" y="1.38861" width="890.39" height="445.973" rx="5.29924" fill="white" stroke="#E5E5E5" stroke-width="1.17761"/>
<line x1="48.9303" y1="59.5996" x2="48.9303" y2="397.356" stroke="#ECECEE" stroke-width="0.828893"/>
<line x1="872.203" y1="406.389" x2="49.0553" y2="406.389" stroke="#ECECEE" stroke-width="0.828893"/>
<path d="M131.065 317.373C101.381 327.918 49.8832 303.496 49.8832 303.496V427.44H845.261V124.303C811.874 113.008 766.805 27.1479 746.61 60.3481C684.953 161.71 611.509 51.1162 543.141 83.2752C473.387 116.086 456.888 174.509 381.805 178C347.038 179.617 352.321 286.802 317.578 289.016C282.104 291.276 249.433 200.007 215.844 213.598C179.937 228.126 167.417 304.46 131.065 317.373Z" fill="url(#paint0_linear)"/>
<path d="M49.8832 316.282C49.8832 316.282 101.411 343.148 131.113 331.548C167.487 317.342 180.013 233.37 215.942 217.387C249.55 202.436 282.241 302.839 317.736 300.353C352.499 297.917 347.213 180.006 382 178.227C457.128 174.386 473.636 110.117 543.432 74.0222C611.84 38.6448 685.327 160.307 747.02 48.8006C767.228 12.2778 812.323 106.73 845.73 119.156" stroke="#3AA959" stroke-width="2.07223" stroke-linecap="round" stroke-linejoin="round"/>
<line x1="860.079" y1="400.916" x2="860.079" y2="411.034" stroke="#ECECEE" stroke-width="1.65779" stroke-linecap="round" stroke-linejoin="round"/>
<line x1="705.812" y1="400.916" x2="705.812" y2="411.034" stroke="#ECECEE" stroke-width="1.65779" stroke-linecap="round" stroke-linejoin="round"/>
<line x1="550.368" y1="400.916" x2="550.368" y2="411.034" stroke="#ECECEE" stroke-width="1.65779" stroke-linecap="round" stroke-linejoin="round"/>
<line x1="396.101" y1="400.916" x2="396.101" y2="411.034" stroke="#ECECEE" stroke-width="1.65779" stroke-linecap="round" stroke-linejoin="round"/>
<line x1="239.418" y1="388.613" x2="239.418" y2="404.732" stroke="#ECECEE" stroke-width="1.65779" stroke-linecap="round" stroke-linejoin="round"/>
<line x1="86.3903" y1="400.916" x2="86.3903" y2="411.034" stroke="#ECECEE" stroke-width="1.65779" stroke-linecap="round" stroke-linejoin="round"/>
<line x1="46.6098" y1="356.871" x2="54.5241" y2="356.871" stroke="#ECECEE" stroke-width="1.65779" stroke-linecap="round" stroke-linejoin="round"/>
<line x1="46.6098" y1="292.602" x2="54.5241" y2="292.602" stroke="#ECECEE" stroke-width="1.65779" stroke-linecap="round" stroke-linejoin="round"/>
<line x1="46.6098" y1="226.965" x2="54.5241" y2="226.965" stroke="#ECECEE" stroke-width="1.65779" stroke-linecap="round" stroke-linejoin="round"/>
<line x1="46.6098" y1="159.961" x2="54.5241" y2="159.961" stroke="#ECECEE" stroke-width="1.65779" stroke-linecap="round" stroke-linejoin="round"/>
<line x1="46.6098" y1="94.3244" x2="54.5241" y2="94.3244" stroke="#ECECEE" stroke-width="1.65779" stroke-linecap="round" stroke-linejoin="round"/>
<path d="M70.0283 422.997V428.119C70.0283 428.69 69.8526 429.147 69.5011 429.492C69.1497 429.83 68.6855 429.999 68.1086 429.999C67.5251 429.999 67.0576 429.827 66.7061 429.482C66.3547 429.131 66.1789 428.653 66.1789 428.05H67.0841C67.0907 428.388 67.1769 428.663 67.3427 428.875C67.5151 429.088 67.7704 429.194 68.1086 429.194C68.4468 429.194 68.6988 429.094 68.8646 428.895C69.0303 428.69 69.1132 428.431 69.1132 428.119V422.997H70.0283ZM71.4733 427.184C71.4733 426.627 71.586 426.14 71.8115 425.722C72.037 425.298 72.3453 424.97 72.7365 424.738C73.1344 424.505 73.5754 424.389 74.0595 424.389C74.5369 424.389 74.9513 424.492 75.3028 424.698C75.6542 424.903 75.9162 425.162 76.0886 425.474V424.479H77.0037V429.93H76.0886V428.915C75.9095 429.233 75.641 429.499 75.2829 429.711C74.9315 429.916 74.5203 430.019 74.0495 430.019C73.5654 430.019 73.1278 429.9 72.7365 429.661C72.3453 429.422 72.037 429.088 71.8115 428.657C71.586 428.225 71.4733 427.735 71.4733 427.184ZM76.0886 427.194C76.0886 426.783 76.0057 426.425 75.8399 426.12C75.6741 425.815 75.4487 425.583 75.1635 425.424C74.885 425.258 74.5767 425.175 74.2385 425.175C73.9003 425.175 73.592 425.255 73.3135 425.414C73.0349 425.573 72.8128 425.805 72.647 426.11C72.4812 426.415 72.3984 426.773 72.3984 427.184C72.3984 427.602 72.4812 427.967 72.647 428.279C72.8128 428.584 73.0349 428.819 73.3135 428.985C73.592 429.144 73.9003 429.223 74.2385 429.223C74.5767 429.223 74.885 429.144 75.1635 428.985C75.4487 428.819 75.6741 428.584 75.8399 428.279C76.0057 427.967 76.0886 427.605 76.0886 427.194ZM81.1891 424.379C81.8522 424.379 82.3893 424.582 82.8004 424.986C83.2116 425.384 83.4171 425.961 83.4171 426.717V429.93H82.5219V426.846C82.5219 426.302 82.386 425.888 82.1141 425.603C81.8422 425.311 81.4709 425.165 81.0001 425.165C80.5226 425.165 80.1414 425.314 79.8562 425.613C79.5777 425.911 79.4385 426.346 79.4385 426.916V429.93H78.5333V424.479H79.4385V425.255C79.6175 424.976 79.8595 424.761 80.1646 424.608C80.4762 424.456 80.8177 424.379 81.1891 424.379ZM89.7298 424.479V429.93H88.8247V429.124C88.6522 429.403 88.4102 429.621 88.0985 429.78C87.7935 429.933 87.4553 430.009 87.084 430.009C86.6596 430.009 86.2783 429.923 85.9401 429.751C85.6019 429.572 85.3334 429.306 85.1344 428.955C84.9421 428.603 84.846 428.176 84.846 427.672V424.479H85.7412V427.552C85.7412 428.09 85.8771 428.504 86.149 428.796C86.4209 429.081 86.7922 429.223 87.263 429.223C87.7471 429.223 88.1284 429.074 88.4069 428.776C88.6854 428.477 88.8247 428.043 88.8247 427.473V424.479H89.7298ZM90.9199 427.184C90.9199 426.627 91.0326 426.14 91.2581 425.722C91.4836 425.298 91.7919 424.97 92.1831 424.738C92.581 424.505 93.022 424.389 93.5061 424.389C93.9835 424.389 94.398 424.492 94.7494 424.698C95.1009 424.903 95.3628 425.162 95.5352 425.474V424.479H96.4503V429.93H95.5352V428.915C95.3562 429.233 95.0876 429.499 94.7295 429.711C94.3781 429.916 93.9669 430.019 93.4961 430.019C93.012 430.019 92.5744 429.9 92.1831 429.661C91.7919 429.422 91.4836 429.088 91.2581 428.657C91.0326 428.225 90.9199 427.735 90.9199 427.184ZM95.5352 427.194C95.5352 426.783 95.4523 426.425 95.2865 426.12C95.1207 425.815 94.8953 425.583 94.6101 425.424C94.3316 425.258 94.0233 425.175 93.6851 425.175C93.3469 425.175 93.0386 425.255 92.7601 425.414C92.4815 425.573 92.2594 425.805 92.0936 426.11C91.9278 426.415 91.845 426.773 91.845 427.184C91.845 427.602 91.9278 427.967 92.0936 428.279C92.2594 428.584 92.4815 428.819 92.7601 428.985C93.0386 429.144 93.3469 429.223 93.6851 429.223C94.0233 429.223 94.3316 429.144 94.6101 428.985C94.8953 428.819 95.1207 428.584 95.2865 428.279C95.4523 427.967 95.5352 427.605 95.5352 427.194ZM98.8851 425.364C99.0442 425.052 99.2697 424.81 99.5614 424.638C99.8598 424.466 100.221 424.379 100.646 424.379V425.314H100.407C99.3923 425.314 98.8851 425.865 98.8851 426.966V429.93H97.9799V424.479H98.8851V425.364ZM106.385 424.479L103.103 432.496H102.168L103.242 429.87L101.044 424.479H102.049L103.759 428.895L105.45 424.479H106.385Z" fill="#92959E"/>
<path d="M28.3822 354.13V353.305H30.2522V360.496H29.3371V354.13H28.3822ZM34.9999 360.496L32.8614 358.089V360.496H31.9562V353.136H32.8614V357.462L34.9601 355.045H36.2234L33.6571 357.761L36.2333 360.496H34.9999Z" fill="#92959E"/>
<path d="M29.1041 221.449H25.6128V223.717C25.7653 223.504 25.9908 223.332 26.2892 223.199C26.5876 223.06 26.9092 222.991 27.254 222.991C27.8044 222.991 28.252 223.107 28.5968 223.339C28.9416 223.564 29.187 223.859 29.3329 224.224C29.4854 224.582 29.5617 224.963 29.5617 225.368C29.5617 225.845 29.4721 226.273 29.2931 226.651C29.1141 227.029 28.8389 227.327 28.4675 227.546C28.1028 227.765 27.6486 227.874 27.1048 227.874C26.4085 227.874 25.8449 227.695 25.4139 227.337C24.9829 226.979 24.7209 226.502 24.6281 225.905H25.5133C25.5996 226.283 25.7819 226.578 26.0604 226.79C26.3389 227.002 26.6904 227.108 27.1148 227.108C27.6386 227.108 28.0332 226.953 28.2984 226.641C28.5637 226.323 28.6963 225.905 28.6963 225.388C28.6963 224.87 28.5637 224.473 28.2984 224.194C28.0332 223.909 27.6419 223.766 27.1247 223.766C26.7733 223.766 26.4649 223.853 26.1997 224.025C25.9411 224.191 25.7521 224.42 25.6327 224.711H24.7773V220.653H29.1041V221.449ZM33.9574 227.854L31.8189 225.447V227.854H30.9137V220.494H31.8189V224.821L33.9176 222.404H35.1809L32.6146 225.119L35.1908 227.854H33.9574Z" fill="#92959E"/>
<path d="M25.6824 96.0186C25.7488 96.3966 25.9013 96.6883 26.14 96.8939C26.3853 97.0995 26.7136 97.2022 27.1247 97.2022C27.6751 97.2022 28.0796 96.9867 28.3382 96.5557C28.6035 96.1247 28.7295 95.3986 28.7162 94.3774C28.5769 94.6758 28.3448 94.9112 28.0199 95.0836C27.695 95.2494 27.3336 95.3323 26.9357 95.3323C26.4914 95.3323 26.0936 95.2427 25.7421 95.0637C25.3973 94.878 25.1254 94.6095 24.9265 94.258C24.7276 93.9066 24.6281 93.4822 24.6281 92.9848C24.6281 92.2753 24.8337 91.705 25.2448 91.274C25.6559 90.8363 26.2395 90.6175 26.9954 90.6175C27.9238 90.6175 28.5736 90.9192 28.945 91.5227C29.3229 92.1261 29.5119 93.0246 29.5119 94.2182C29.5119 95.0537 29.4357 95.7434 29.2832 96.2871C29.1373 96.8309 28.8853 97.2453 28.5272 97.5305C28.1757 97.8156 27.6917 97.9582 27.075 97.9582C26.3986 97.9582 25.8714 97.7758 25.4935 97.4111C25.1155 97.0464 24.9 96.5822 24.8469 96.0186H25.6824ZM27.0849 94.5664C27.5292 94.5664 27.8939 94.4304 28.1791 94.1585C28.4642 93.88 28.6068 93.5054 28.6068 93.0346C28.6068 92.5372 28.4675 92.136 28.189 91.831C27.9105 91.526 27.5193 91.3735 27.0153 91.3735C26.5511 91.3735 26.1798 91.5193 25.9013 91.8111C25.6294 92.1029 25.4935 92.4875 25.4935 92.9649C25.4935 93.449 25.6294 93.8369 25.9013 94.1287C26.1731 94.4205 26.5677 94.5664 27.0849 94.5664ZM33.9768 97.9482L31.8383 95.5411V97.9482H30.9331V90.5877H31.8383V94.9145L33.937 92.4974H35.2003L32.634 95.2129L35.2102 97.9482H33.9768Z" fill="#92959E"/>
<path d="M24.4988 288.11C24.5452 287.5 24.7806 287.023 25.205 286.678C25.6294 286.333 26.1798 286.16 26.8562 286.16C27.3071 286.16 27.695 286.243 28.0199 286.409C28.3515 286.568 28.6001 286.787 28.7659 287.066C28.9383 287.344 29.0245 287.659 29.0245 288.011C29.0245 288.422 28.9052 288.776 28.6665 289.075C28.4344 289.373 28.1293 289.566 27.7514 289.652V289.702C28.1824 289.808 28.5239 290.016 28.7759 290.328C29.0279 290.64 29.1538 291.048 29.1538 291.552C29.1538 291.93 29.0676 292.271 28.8952 292.576C28.7228 292.875 28.4642 293.11 28.1194 293.282C27.7746 293.455 27.3601 293.541 26.876 293.541C26.1731 293.541 25.5962 293.359 25.1453 292.994C24.6944 292.623 24.4424 292.099 24.3894 291.422H25.2647C25.3111 291.82 25.4736 292.145 25.7521 292.397C26.0306 292.649 26.4019 292.775 26.8661 292.775C27.3303 292.775 27.6817 292.656 27.9205 292.417C28.1658 292.172 28.2885 291.857 28.2885 291.472C28.2885 290.975 28.1227 290.617 27.7911 290.398C27.4596 290.179 26.9589 290.07 26.2892 290.07H26.0604V289.314H26.2991C26.9092 289.307 27.3701 289.207 27.6817 289.015C27.9934 288.816 28.1492 288.511 28.1492 288.1C28.1492 287.749 28.0332 287.467 27.8011 287.255C27.5756 287.042 27.2507 286.936 26.8263 286.936C26.4152 286.936 26.0836 287.042 25.8316 287.255C25.5797 287.467 25.4305 287.752 25.384 288.11H24.4988ZM33.5689 293.491L31.4303 291.084V293.491H30.5252V286.131H31.4303V290.457L33.5291 288.04H34.7923L32.2261 290.756L34.8023 293.491H33.5689Z" fill="#92959E"/>
<path d="M28.945 157.1L26.1798 163.585H25.2647L28.0697 157.189H24.2302V156.413H28.945V157.1ZM33.1415 163.585L31.0029 161.178V163.585H30.0978V156.224H31.0029V160.551L33.1017 158.134H34.3649L31.7987 160.85L34.3749 163.585H33.1415Z" fill="#92959E"/>
<path d="M387.368 423.047V429.93H386.463V424.797L384.176 429.93H383.539L381.241 424.787V429.93H380.336V423.047H381.311L383.857 428.736L386.404 423.047H387.368ZM388.565 427.184C388.565 426.627 388.678 426.14 388.904 425.722C389.129 425.298 389.437 424.97 389.829 424.738C390.226 424.505 390.667 424.389 391.151 424.389C391.629 424.389 392.043 424.492 392.395 424.698C392.746 424.903 393.008 425.162 393.181 425.474V424.479H394.096V429.93H393.181V428.915C393.002 429.233 392.733 429.499 392.375 429.711C392.023 429.916 391.612 430.019 391.142 430.019C390.657 430.019 390.22 429.9 389.829 429.661C389.437 429.422 389.129 429.088 388.904 428.657C388.678 428.225 388.565 427.735 388.565 427.184ZM393.181 427.194C393.181 426.783 393.098 426.425 392.932 426.12C392.766 425.815 392.541 425.583 392.256 425.424C391.977 425.258 391.669 425.175 391.331 425.175C390.992 425.175 390.684 425.255 390.405 425.414C390.127 425.573 389.905 425.805 389.739 426.11C389.573 426.415 389.49 426.773 389.49 427.184C389.49 427.602 389.573 427.967 389.739 428.279C389.905 428.584 390.127 428.819 390.405 428.985C390.684 429.144 390.992 429.223 391.331 429.223C391.669 429.223 391.977 429.144 392.256 428.985C392.541 428.819 392.766 428.584 392.932 428.279C393.098 427.967 393.181 427.605 393.181 427.194ZM396.53 425.364C396.69 425.052 396.915 424.81 397.207 424.638C397.505 424.466 397.867 424.379 398.291 424.379V425.314H398.052C397.038 425.314 396.53 425.865 396.53 426.966V429.93H395.625V424.479H396.53V425.364ZM398.998 427.194C398.998 426.631 399.11 426.14 399.336 425.722C399.561 425.298 399.873 424.97 400.271 424.738C400.675 424.505 401.136 424.389 401.653 424.389C402.323 424.389 402.874 424.552 403.305 424.877C403.742 425.202 404.031 425.653 404.17 426.23H403.195C403.102 425.898 402.92 425.636 402.648 425.444C402.383 425.251 402.051 425.155 401.653 425.155C401.136 425.155 400.719 425.334 400.4 425.692C400.082 426.044 399.923 426.544 399.923 427.194C399.923 427.851 400.082 428.358 400.4 428.716C400.719 429.074 401.136 429.253 401.653 429.253C402.051 429.253 402.383 429.16 402.648 428.975C402.913 428.789 403.096 428.524 403.195 428.179H404.17C404.024 428.736 403.732 429.184 403.295 429.522C402.857 429.853 402.31 430.019 401.653 430.019C401.136 430.019 400.675 429.903 400.271 429.671C399.873 429.439 399.561 429.111 399.336 428.686C399.11 428.262 398.998 427.765 398.998 427.194ZM408.083 424.379C408.494 424.379 408.866 424.469 409.197 424.648C409.529 424.82 409.787 425.082 409.973 425.434C410.165 425.785 410.262 426.213 410.262 426.717V429.93H409.366V426.846C409.366 426.302 409.23 425.888 408.959 425.603C408.687 425.311 408.315 425.165 407.845 425.165C407.367 425.165 406.986 425.314 406.701 425.613C406.422 425.911 406.283 426.346 406.283 426.916V429.93H405.378V422.569H406.283V425.255C406.462 424.976 406.707 424.761 407.019 424.608C407.337 424.456 407.692 424.379 408.083 424.379Z" fill="#92959E"/>
<path d="M221.918 422.997V423.733H218.904V426.07H221.351V426.806H218.904V429.93H217.999V422.997H221.918ZM227.985 426.995C227.985 427.168 227.975 427.35 227.955 427.542H223.598C223.631 428.08 223.814 428.501 224.145 428.806C224.483 429.104 224.891 429.253 225.369 429.253C225.76 429.253 226.085 429.164 226.343 428.985C226.609 428.799 226.794 428.554 226.9 428.249H227.875C227.729 428.773 227.437 429.2 227 429.532C226.562 429.857 226.018 430.019 225.369 430.019C224.851 430.019 224.387 429.903 223.976 429.671C223.572 429.439 223.253 429.111 223.021 428.686C222.789 428.255 222.673 427.758 222.673 427.194C222.673 426.631 222.786 426.137 223.011 425.712C223.237 425.288 223.552 424.963 223.956 424.738C224.367 424.505 224.838 424.389 225.369 424.389C225.886 424.389 226.343 424.502 226.741 424.728C227.139 424.953 227.444 425.265 227.656 425.663C227.875 426.054 227.985 426.498 227.985 426.995ZM227.05 426.806C227.05 426.462 226.973 426.167 226.821 425.921C226.668 425.669 226.459 425.48 226.194 425.354C225.936 425.222 225.647 425.155 225.329 425.155C224.871 425.155 224.48 425.301 224.155 425.593C223.837 425.885 223.654 426.289 223.608 426.806H227.05ZM230.084 425.493C230.27 425.169 230.542 424.903 230.9 424.698C231.258 424.492 231.666 424.389 232.124 424.389C232.614 424.389 233.055 424.505 233.446 424.738C233.838 424.97 234.146 425.298 234.372 425.722C234.597 426.14 234.71 426.627 234.71 427.184C234.71 427.735 234.597 428.225 234.372 428.657C234.146 429.088 233.834 429.422 233.437 429.661C233.045 429.9 232.608 430.019 232.124 430.019C231.653 430.019 231.238 429.916 230.88 429.711C230.529 429.505 230.264 429.243 230.084 428.925V429.93H229.179V422.569H230.084V425.493ZM233.785 427.184C233.785 426.773 233.702 426.415 233.536 426.11C233.37 425.805 233.145 425.573 232.86 425.414C232.581 425.255 232.273 425.175 231.935 425.175C231.603 425.175 231.295 425.258 231.01 425.424C230.731 425.583 230.506 425.818 230.333 426.13C230.167 426.435 230.084 426.79 230.084 427.194C230.084 427.605 230.167 427.967 230.333 428.279C230.506 428.584 230.731 428.819 231.01 428.985C231.295 429.144 231.603 429.223 231.935 429.223C232.273 429.223 232.581 429.144 232.86 428.985C233.145 428.819 233.37 428.584 233.536 428.279C233.702 427.967 233.785 427.602 233.785 427.184ZM236.806 425.364C236.965 425.052 237.191 424.81 237.483 424.638C237.781 424.466 238.142 424.379 238.567 424.379V425.314H238.328C237.314 425.314 236.806 425.865 236.806 426.966V429.93H235.901V424.479H236.806V425.364ZM244.446 424.479V429.93H243.541V429.124C243.368 429.403 243.126 429.621 242.815 429.78C242.51 429.933 242.171 430.009 241.8 430.009C241.376 430.009 240.994 429.923 240.656 429.751C240.318 429.572 240.049 429.306 239.85 428.955C239.658 428.603 239.562 428.176 239.562 427.672V424.479H240.457V427.552C240.457 428.09 240.593 428.504 240.865 428.796C241.137 429.081 241.508 429.223 241.979 429.223C242.463 429.223 242.844 429.074 243.123 428.776C243.401 428.477 243.541 428.043 243.541 427.473V424.479H244.446ZM245.636 427.184C245.636 426.627 245.749 426.14 245.974 425.722C246.2 425.298 246.508 424.97 246.899 424.738C247.297 424.505 247.738 424.389 248.222 424.389C248.7 424.389 249.114 424.492 249.465 424.698C249.817 424.903 250.079 425.162 250.251 425.474V424.479H251.166V429.93H250.251V428.915C250.072 429.233 249.804 429.499 249.446 429.711C249.094 429.916 248.683 430.019 248.212 430.019C247.728 430.019 247.29 429.9 246.899 429.661C246.508 429.422 246.2 429.088 245.974 428.657C245.749 428.225 245.636 427.735 245.636 427.184ZM250.251 427.194C250.251 426.783 250.168 426.425 250.003 426.12C249.837 425.815 249.611 425.583 249.326 425.424C249.048 425.258 248.739 425.175 248.401 425.175C248.063 425.175 247.755 425.255 247.476 425.414C247.198 425.573 246.975 425.805 246.81 426.11C246.644 426.415 246.561 426.773 246.561 427.184C246.561 427.602 246.644 427.967 246.81 428.279C246.975 428.584 247.198 428.819 247.476 428.985C247.755 429.144 248.063 429.223 248.401 429.223C248.739 429.223 249.048 429.144 249.326 428.985C249.611 428.819 249.837 428.584 250.003 428.279C250.168 427.967 250.251 427.605 250.251 427.194ZM253.601 425.364C253.76 425.052 253.986 424.81 254.277 424.638C254.576 424.466 254.937 424.379 255.362 424.379V425.314H255.123C254.108 425.314 253.601 425.865 253.601 426.966V429.93H252.696V424.479H253.601V425.364ZM261.101 424.479L257.819 432.496H256.884L257.958 429.87L255.76 424.479H256.765L258.475 428.895L260.166 424.479H261.101Z" fill="#92959E"/>
<path d="M543.388 428.388H540.364L539.807 429.93H538.852L541.359 423.037H542.403L544.9 429.93H543.945L543.388 428.388ZM543.129 427.652L541.876 424.151L540.623 427.652H543.129ZM546.897 425.484C547.076 425.172 547.342 424.913 547.693 424.708C548.051 424.495 548.466 424.389 548.936 424.389C549.42 424.389 549.858 424.505 550.249 424.738C550.647 424.97 550.959 425.298 551.184 425.722C551.41 426.14 551.522 426.627 551.522 427.184C551.522 427.735 551.41 428.225 551.184 428.657C550.959 429.088 550.647 429.422 550.249 429.661C549.858 429.9 549.42 430.019 548.936 430.019C548.472 430.019 548.061 429.916 547.703 429.711C547.351 429.499 547.083 429.237 546.897 428.925V432.516H545.992V424.479H546.897V425.484ZM550.597 427.184C550.597 426.773 550.515 426.415 550.349 426.11C550.183 425.805 549.958 425.573 549.672 425.414C549.394 425.255 549.086 425.175 548.747 425.175C548.416 425.175 548.107 425.258 547.822 425.424C547.544 425.583 547.318 425.818 547.146 426.13C546.98 426.435 546.897 426.79 546.897 427.194C546.897 427.605 546.98 427.967 547.146 428.279C547.318 428.584 547.544 428.819 547.822 428.985C548.107 429.144 548.416 429.223 548.747 429.223C549.086 429.223 549.394 429.144 549.672 428.985C549.958 428.819 550.183 428.584 550.349 428.279C550.515 427.967 550.597 427.602 550.597 427.184ZM553.619 425.364C553.778 425.052 554.004 424.81 554.295 424.638C554.594 424.466 554.955 424.379 555.38 424.379V425.314H555.141C554.126 425.314 553.619 425.865 553.619 426.966V429.93H552.714V424.479H553.619V425.364ZM556.892 423.594C556.72 423.594 556.574 423.534 556.454 423.415C556.335 423.295 556.275 423.149 556.275 422.977C556.275 422.805 556.335 422.659 556.454 422.539C556.574 422.42 556.72 422.36 556.892 422.36C557.058 422.36 557.197 422.42 557.31 422.539C557.429 422.659 557.489 422.805 557.489 422.977C557.489 423.149 557.429 423.295 557.31 423.415C557.197 423.534 557.058 423.594 556.892 423.594ZM557.33 424.479V429.93H556.424V424.479H557.33ZM559.777 422.569V429.93H558.872V422.569H559.777Z" fill="#92959E"/>
<path d="M702.335 423.047V429.93H701.429V424.797L699.142 429.93H698.505L696.207 424.787V429.93H695.302V423.047H696.277L698.823 428.736L701.37 423.047H702.335ZM703.531 427.184C703.531 426.627 703.644 426.14 703.87 425.722C704.095 425.298 704.403 424.97 704.795 424.738C705.192 424.505 705.633 424.389 706.118 424.389C706.595 424.389 707.009 424.492 707.361 424.698C707.712 424.903 707.974 425.162 708.147 425.474V424.479H709.062V429.93H708.147V428.915C707.968 429.233 707.699 429.499 707.341 429.711C706.99 429.916 706.578 430.019 706.108 430.019C705.624 430.019 705.186 429.9 704.795 429.661C704.403 429.422 704.095 429.088 703.87 428.657C703.644 428.225 703.531 427.735 703.531 427.184ZM708.147 427.194C708.147 426.783 708.064 426.425 707.898 426.12C707.732 425.815 707.507 425.583 707.222 425.424C706.943 425.258 706.635 425.175 706.297 425.175C705.958 425.175 705.65 425.255 705.372 425.414C705.093 425.573 704.871 425.805 704.705 426.11C704.539 426.415 704.456 426.773 704.456 427.184C704.456 427.602 704.539 427.967 704.705 428.279C704.871 428.584 705.093 428.819 705.372 428.985C705.65 429.144 705.958 429.223 706.297 429.223C706.635 429.223 706.943 429.144 707.222 428.985C707.507 428.819 707.732 428.584 707.898 428.279C708.064 427.967 708.147 427.605 708.147 427.194ZM715.286 424.479L712.004 432.496H711.069L712.143 429.87L709.945 424.479H710.949L712.66 428.895L714.351 424.479H715.286Z" fill="#92959E"/>
<path d="M843.496 423.047V429.93H842.59V424.797L840.303 429.93H839.666L837.368 424.787V429.93H836.463V423.047H837.438L839.984 428.736L842.531 423.047H843.496ZM844.692 427.184C844.692 426.627 844.805 426.14 845.031 425.722C845.256 425.298 845.564 424.97 845.956 424.738C846.354 424.505 846.795 424.389 847.279 424.389C847.756 424.389 848.171 424.492 848.522 424.698C848.873 424.903 849.135 425.162 849.308 425.474V424.479H850.223V429.93H849.308V428.915C849.129 429.233 848.86 429.499 848.502 429.711C848.151 429.916 847.739 430.019 847.269 430.019C846.785 430.019 846.347 429.9 845.956 429.661C845.564 429.422 845.256 429.088 845.031 428.657C844.805 428.225 844.692 427.735 844.692 427.184ZM849.308 427.194C849.308 426.783 849.225 426.425 849.059 426.12C848.893 425.815 848.668 425.583 848.383 425.424C848.104 425.258 847.796 425.175 847.458 425.175C847.119 425.175 846.811 425.255 846.533 425.414C846.254 425.573 846.032 425.805 845.866 426.11C845.7 426.415 845.618 426.773 845.618 427.184C845.618 427.602 845.7 427.967 845.866 428.279C846.032 428.584 846.254 428.819 846.533 428.985C846.811 429.144 847.119 429.223 847.458 429.223C847.796 429.223 848.104 429.144 848.383 428.985C848.668 428.819 848.893 428.584 849.059 428.279C849.225 427.967 849.308 427.605 849.308 427.194ZM856.447 424.479L853.165 432.496H852.23L853.304 429.87L851.106 424.479H852.111L853.821 428.895L855.512 424.479H856.447Z" fill="#92959E"/>
<path d="M654.289 405.561L654.289 91.0508" stroke="#ECECEE" stroke-width="0.828893"/>
<circle cx="654.708" cy="91.4691" r="5.88804" fill="white" stroke="#3AA959" stroke-width="2.48668"/>
<circle cx="648.458" cy="407.154" r="5.88804" fill="white" stroke="#3AA959" stroke-width="2.48668"/>
<g filter="url(#filter0_d)">
<rect x="568.141" y="122.502" width="123.649" height="68.3013" rx="9.94672" fill="white"/>
</g>
<path d="M579.102 139.525C579.956 139.525 580.694 139.686 581.316 140.008C581.946 140.323 582.425 140.777 582.755 141.369C583.092 141.961 583.261 142.658 583.261 143.46C583.261 144.261 583.092 144.958 582.755 145.55C582.425 146.135 581.946 146.585 581.316 146.899C580.694 147.207 579.956 147.36 579.102 147.36H576.662V139.525H579.102ZM579.102 146.517C580.113 146.517 580.885 146.251 581.417 145.719C581.949 145.18 582.216 144.426 582.216 143.46C582.216 142.485 581.946 141.725 581.406 141.178C580.874 140.631 580.106 140.357 579.102 140.357H577.685V146.517H579.102ZM584.228 144.258C584.228 143.628 584.356 143.077 584.61 142.605C584.865 142.126 585.214 141.755 585.656 141.492C586.105 141.23 586.604 141.099 587.151 141.099C587.69 141.099 588.159 141.215 588.556 141.447C588.953 141.68 589.249 141.972 589.444 142.324V141.2H590.478V147.36H589.444V146.214C589.242 146.573 588.938 146.873 588.534 147.113C588.136 147.345 587.672 147.462 587.14 147.462C586.593 147.462 586.098 147.327 585.656 147.057C585.214 146.787 584.865 146.409 584.61 145.921C584.356 145.434 584.228 144.88 584.228 144.258ZM589.444 144.269C589.444 143.804 589.35 143.4 589.163 143.055C588.976 142.71 588.721 142.448 588.399 142.268C588.084 142.081 587.735 141.987 587.353 141.987C586.971 141.987 586.623 142.077 586.308 142.257C585.993 142.437 585.742 142.699 585.555 143.044C585.367 143.388 585.274 143.793 585.274 144.258C585.274 144.73 585.367 145.142 585.555 145.494C585.742 145.839 585.993 146.105 586.308 146.292C586.623 146.472 586.971 146.562 587.353 146.562C587.735 146.562 588.084 146.472 588.399 146.292C588.721 146.105 588.976 145.839 589.163 145.494C589.35 145.142 589.444 144.734 589.444 144.269ZM592.735 140.2C592.541 140.2 592.376 140.132 592.241 139.997C592.106 139.862 592.038 139.697 592.038 139.503C592.038 139.308 592.106 139.143 592.241 139.008C592.376 138.873 592.541 138.806 592.735 138.806C592.923 138.806 593.08 138.873 593.207 139.008C593.342 139.143 593.41 139.308 593.41 139.503C593.41 139.697 593.342 139.862 593.207 139.997C593.08 140.132 592.923 140.2 592.735 140.2ZM593.23 141.2V147.36H592.207V141.2H593.23ZM595.996 139.042V147.36H594.973V139.042H595.996ZM603.046 141.2L599.336 150.261H598.279L599.494 147.293L597.009 141.2H598.145L600.078 146.191L601.989 141.2H603.046ZM615.019 139.581V147.36H613.996V141.56L611.41 147.36H610.691L608.094 141.549V147.36H607.071V139.581H608.173L611.051 146.011L613.928 139.581H615.019ZM622.374 144.044C622.374 144.239 622.363 144.445 622.341 144.662H617.417C617.454 145.269 617.66 145.745 618.035 146.09C618.417 146.427 618.878 146.596 619.418 146.596C619.86 146.596 620.227 146.495 620.519 146.292C620.819 146.083 621.029 145.805 621.149 145.461H622.251C622.086 146.053 621.756 146.536 621.261 146.911C620.767 147.278 620.152 147.462 619.418 147.462C618.833 147.462 618.309 147.33 617.844 147.068C617.387 146.806 617.027 146.435 616.765 145.955C616.503 145.468 616.371 144.906 616.371 144.269C616.371 143.632 616.499 143.074 616.754 142.594C617.008 142.114 617.364 141.747 617.822 141.492C618.286 141.23 618.818 141.099 619.418 141.099C620.002 141.099 620.519 141.226 620.969 141.481C621.419 141.736 621.764 142.088 622.003 142.538C622.251 142.98 622.374 143.482 622.374 144.044ZM621.318 143.831C621.318 143.441 621.231 143.107 621.059 142.83C620.887 142.545 620.651 142.332 620.351 142.189C620.059 142.039 619.733 141.964 619.373 141.964C618.856 141.964 618.414 142.129 618.046 142.459C617.687 142.789 617.481 143.246 617.428 143.831H621.318ZM626.726 141.088C627.475 141.088 628.082 141.316 628.547 141.773C629.012 142.223 629.244 142.875 629.244 143.729V147.36H628.232V143.876C628.232 143.261 628.079 142.793 627.771 142.47C627.464 142.141 627.045 141.976 626.512 141.976C625.973 141.976 625.542 142.144 625.22 142.482C624.905 142.819 624.748 143.31 624.748 143.954V147.36H623.725V141.2H624.748V142.077C624.95 141.762 625.223 141.519 625.568 141.346C625.92 141.174 626.306 141.088 626.726 141.088ZM632.163 142.043V145.674C632.163 145.974 632.227 146.188 632.354 146.315C632.481 146.435 632.702 146.495 633.017 146.495H633.77V147.36H632.849C632.279 147.36 631.852 147.229 631.567 146.967C631.282 146.705 631.14 146.274 631.14 145.674V142.043H630.342V141.2H631.14V139.649H632.163V141.2H633.77V142.043H632.163ZM637.697 147.462C637.119 147.462 636.595 147.33 636.123 147.068C635.658 146.806 635.291 146.435 635.021 145.955C634.759 145.468 634.628 144.906 634.628 144.269C634.628 143.639 634.763 143.085 635.032 142.605C635.31 142.118 635.684 141.747 636.156 141.492C636.629 141.23 637.157 141.099 637.742 141.099C638.326 141.099 638.854 141.23 639.327 141.492C639.799 141.747 640.17 142.114 640.439 142.594C640.717 143.074 640.855 143.632 640.855 144.269C640.855 144.906 640.713 145.468 640.428 145.955C640.151 146.435 639.772 146.806 639.293 147.068C638.813 147.33 638.281 147.462 637.697 147.462ZM637.697 146.562C638.064 146.562 638.408 146.476 638.731 146.304C639.053 146.131 639.312 145.873 639.506 145.528C639.709 145.183 639.81 144.764 639.81 144.269C639.81 143.774 639.712 143.355 639.518 143.01C639.323 142.665 639.068 142.41 638.753 142.246C638.438 142.073 638.097 141.987 637.73 141.987C637.356 141.987 637.011 142.073 636.696 142.246C636.389 142.41 636.141 142.665 635.954 143.01C635.767 143.355 635.673 143.774 635.673 144.269C635.673 144.771 635.763 145.195 635.943 145.539C636.13 145.884 636.378 146.143 636.685 146.315C636.992 146.48 637.329 146.562 637.697 146.562ZM643.223 142.201C643.403 141.848 643.658 141.575 643.988 141.38C644.325 141.185 644.733 141.088 645.213 141.088V142.144H644.943C643.797 142.144 643.223 142.766 643.223 144.01V147.36H642.2V141.2H643.223V142.201ZM650.414 146.528H653.157V147.36H649.391V139.525H650.414V146.528ZM656.93 147.462C656.353 147.462 655.828 147.33 655.356 147.068C654.891 146.806 654.524 146.435 654.254 145.955C653.992 145.468 653.861 144.906 653.861 144.269C653.861 143.639 653.996 143.085 654.266 142.605C654.543 142.118 654.918 141.747 655.39 141.492C655.862 141.23 656.39 141.099 656.975 141.099C657.559 141.099 658.088 141.23 658.56 141.492C659.032 141.747 659.403 142.114 659.673 142.594C659.95 143.074 660.089 143.632 660.089 144.269C660.089 144.906 659.946 145.468 659.661 145.955C659.384 146.435 659.006 146.806 658.526 147.068C658.046 147.33 657.514 147.462 656.93 147.462ZM656.93 146.562C657.297 146.562 657.642 146.476 657.964 146.304C658.286 146.131 658.545 145.873 658.74 145.528C658.942 145.183 659.043 144.764 659.043 144.269C659.043 143.774 658.946 143.355 658.751 143.01C658.556 142.665 658.301 142.41 657.987 142.246C657.672 142.073 657.331 141.987 656.964 141.987C656.589 141.987 656.244 142.073 655.929 142.246C655.622 142.41 655.375 142.665 655.187 143.01C655 143.355 654.906 143.774 654.906 144.269C654.906 144.771 654.996 145.195 655.176 145.539C655.364 145.884 655.611 146.143 655.918 146.315C656.225 146.48 656.563 146.562 656.93 146.562ZM663.974 141.099C664.506 141.099 664.971 141.215 665.368 141.447C665.773 141.68 666.073 141.972 666.267 142.324V141.2H667.302V147.495C667.302 148.057 667.182 148.556 666.942 148.99C666.702 149.433 666.357 149.777 665.908 150.025C665.466 150.272 664.948 150.396 664.356 150.396C663.547 150.396 662.873 150.204 662.333 149.822C661.793 149.44 661.475 148.919 661.377 148.26H662.389C662.502 148.634 662.734 148.934 663.086 149.159C663.438 149.391 663.862 149.507 664.356 149.507C664.918 149.507 665.376 149.331 665.728 148.979C666.088 148.627 666.267 148.132 666.267 147.495V146.202C666.065 146.562 665.765 146.862 665.368 147.102C664.971 147.342 664.506 147.462 663.974 147.462C663.427 147.462 662.929 147.327 662.479 147.057C662.037 146.787 661.688 146.409 661.434 145.921C661.179 145.434 661.051 144.88 661.051 144.258C661.051 143.628 661.179 143.077 661.434 142.605C661.688 142.126 662.037 141.755 662.479 141.492C662.929 141.23 663.427 141.099 663.974 141.099ZM666.267 144.269C666.267 143.804 666.174 143.4 665.986 143.055C665.799 142.71 665.544 142.448 665.222 142.268C664.907 142.081 664.559 141.987 664.177 141.987C663.794 141.987 663.446 142.077 663.131 142.257C662.816 142.437 662.565 142.699 662.378 143.044C662.191 143.388 662.097 143.793 662.097 144.258C662.097 144.73 662.191 145.142 662.378 145.494C662.565 145.839 662.816 146.105 663.131 146.292C663.446 146.472 663.794 146.562 664.177 146.562C664.559 146.562 664.907 146.472 665.222 146.292C665.544 146.105 665.799 145.839 665.986 145.494C666.174 145.142 666.267 144.734 666.267 144.269ZM669.559 140.2C669.364 140.2 669.199 140.132 669.064 139.997C668.929 139.862 668.862 139.697 668.862 139.503C668.862 139.308 668.929 139.143 669.064 139.008C669.199 138.873 669.364 138.806 669.559 138.806C669.746 138.806 669.903 138.873 670.031 139.008C670.166 139.143 670.233 139.308 670.233 139.503C670.233 139.697 670.166 139.862 670.031 139.997C669.903 140.132 669.746 140.2 669.559 140.2ZM670.053 141.2V147.36H669.03V141.2H670.053ZM674.798 141.088C675.548 141.088 676.155 141.316 676.619 141.773C677.084 142.223 677.316 142.875 677.316 143.729V147.36H676.305V143.876C676.305 143.261 676.151 142.793 675.844 142.47C675.536 142.141 675.117 141.976 674.585 141.976C674.045 141.976 673.614 142.144 673.292 142.482C672.977 142.819 672.82 143.31 672.82 143.954V147.36H671.797V141.2H672.82V142.077C673.022 141.762 673.296 141.519 673.64 141.346C673.993 141.174 674.379 141.088 674.798 141.088ZM681.168 147.462C680.696 147.462 680.273 147.383 679.898 147.225C679.523 147.061 679.227 146.836 679.01 146.551C678.792 146.259 678.673 145.925 678.65 145.55H679.707C679.737 145.858 679.879 146.109 680.134 146.304C680.396 146.499 680.737 146.596 681.157 146.596C681.547 146.596 681.854 146.51 682.079 146.337C682.304 146.165 682.416 145.948 682.416 145.685C682.416 145.416 682.296 145.217 682.056 145.09C681.816 144.955 681.445 144.824 680.943 144.696C680.486 144.576 680.111 144.456 679.819 144.336C679.534 144.209 679.287 144.025 679.077 143.786C678.875 143.538 678.774 143.216 678.774 142.819C678.774 142.504 678.867 142.216 679.055 141.953C679.242 141.691 679.508 141.485 679.853 141.335C680.198 141.178 680.591 141.099 681.033 141.099C681.715 141.099 682.266 141.271 682.686 141.616C683.105 141.961 683.33 142.433 683.36 143.032H682.337C682.315 142.71 682.184 142.452 681.944 142.257C681.711 142.062 681.397 141.964 681 141.964C680.632 141.964 680.34 142.043 680.123 142.201C679.905 142.358 679.797 142.564 679.797 142.819C679.797 143.021 679.86 143.19 679.988 143.325C680.123 143.452 680.288 143.557 680.482 143.639C680.685 143.714 680.962 143.801 681.314 143.898C681.756 144.018 682.116 144.138 682.393 144.258C682.671 144.37 682.907 144.543 683.102 144.775C683.304 145.007 683.409 145.311 683.416 145.685C683.416 146.023 683.323 146.326 683.135 146.596C682.948 146.866 682.682 147.079 682.337 147.237C682 147.387 681.61 147.462 681.168 147.462Z" fill="#92959E"/>
<path d="M620.249 173.443C621.653 172.316 622.752 171.393 623.548 170.675C624.344 169.945 625.013 169.188 625.554 168.403C626.107 167.608 626.383 166.829 626.383 166.066C626.383 165.348 626.206 164.784 625.852 164.375C625.51 163.955 624.952 163.745 624.178 163.745C623.427 163.745 622.841 163.983 622.421 164.458C622.012 164.922 621.791 165.547 621.758 166.331H620.299C620.343 165.093 620.719 164.137 621.426 163.463C622.134 162.789 623.045 162.452 624.162 162.452C625.3 162.452 626.201 162.767 626.864 163.397C627.538 164.027 627.875 164.894 627.875 166C627.875 166.917 627.599 167.812 627.046 168.685C626.505 169.547 625.886 170.31 625.189 170.973C624.493 171.625 623.603 172.388 622.52 173.261H628.223V174.521H620.249V173.443ZM637.609 163.977H631.791V167.757C632.045 167.403 632.421 167.116 632.918 166.895C633.415 166.663 633.951 166.547 634.526 166.547C635.443 166.547 636.189 166.74 636.764 167.127C637.339 167.503 637.748 167.995 637.991 168.602C638.245 169.199 638.372 169.835 638.372 170.509C638.372 171.305 638.223 172.017 637.924 172.647C637.626 173.277 637.167 173.775 636.548 174.139C635.941 174.504 635.184 174.686 634.277 174.686C633.117 174.686 632.177 174.388 631.459 173.791C630.741 173.194 630.304 172.399 630.149 171.404H631.625C631.768 172.034 632.072 172.526 632.537 172.879C633.001 173.233 633.587 173.41 634.294 173.41C635.167 173.41 635.825 173.15 636.267 172.631C636.709 172.1 636.93 171.404 636.93 170.542C636.93 169.68 636.709 169.017 636.267 168.553C635.825 168.077 635.172 167.84 634.31 167.84C633.725 167.84 633.211 167.983 632.769 168.271C632.338 168.547 632.023 168.928 631.824 169.415H630.398V162.651H637.609V163.977Z" fill="#15192C"/>
<defs>
<filter id="filter0_d" x="544.932" y="114.213" width="170.067" height="114.719" filterUnits="userSpaceOnUse" color-interpolation-filters="sRGB">
<feFlood flood-opacity="0" result="BackgroundImageFix"/>
<feColorMatrix in="SourceAlpha" type="matrix" values="0 0 0 0 0 0 0 0 0 0 0 0 0 0 0 0 0 0 127 0" result="hardAlpha"/>
<feMorphology radius="3.31557" operator="erode" in="SourceAlpha" result="effect1_dropShadow"/>
<feOffset dy="14.9201"/>
<feGaussianBlur stdDeviation="13.2623"/>
<feColorMatrix type="matrix" values="0 0 0 0 0.815686 0 0 0 0 0.823529 0 0 0 0 0.854902 0 0 0 0.15 0"/>
<feBlend mode="normal" in2="BackgroundImageFix" result="effect1_dropShadow"/>
<feBlend mode="normal" in="SourceGraphic" in2="effect1_dropShadow" result="shape"/>
</filter>
<linearGradient id="paint0_linear" x1="486.622" y1="2.08176" x2="486.622" y2="420.199" gradientUnits="userSpaceOnUse">
<stop stop-color="#C8FFD7"/>
<stop offset="1" stop-color="#FBFFFC"/>
</linearGradient>
</defs>
</svg>
