<svg width="40" height="40" viewBox="0 0 56 56" fill="none" xmlns="http://www.w3.org/2000/svg">
<path d="M9.33317 14.0003H4.6665V46.667C4.6665 49.2337 6.7665 51.3337 9.33317 51.3337H41.9998V46.667H9.33317V14.0003ZM46.6665 4.66699H18.6665C16.0998 4.66699 13.9998 6.76699 13.9998 9.33366V37.3337C13.9998 39.9003 16.0998 42.0003 18.6665 42.0003H46.6665C49.2332 42.0003 51.3332 39.9003 51.3332 37.3337V9.33366C51.3332 6.76699 49.2332 4.66699 46.6665 4.66699ZM44.3332 25.667H20.9998V21.0003H44.3332V25.667ZM34.9998 35.0003H20.9998V30.3337H34.9998V35.0003ZM44.3332 16.3337H20.9998V11.667H44.3332V16.3337Z" fill="#3AA959"/>
</svg>
