<svg width="46" height="47" viewBox="0 0 46 47" fill="none" xmlns="http://www.w3.org/2000/svg">
<rect x="0.0684204" y="0.582031" width="45.655" height="45.655" rx="22.8275" fill="#3AA959" fill-opacity="0.2"/>
<path d="M31.53 13.9883H11.1223V29.6865H31.53V13.9883ZM29.9601 28.1167H12.6921V15.5581H29.9601V28.1167Z" fill="#3AA959"/>
<path d="M33.0997 17.9141V31.2575H15.0468V32.8273H34.6696V17.9141H33.0997Z" fill="#3AA959"/>
<path d="M21.3261 25.6878C23.2737 25.6878 24.8582 23.9641 24.8582 21.8454C24.8582 19.7266 23.2737 18.0029 21.3261 18.0029C19.3785 18.0029 17.794 19.7266 17.794 21.8454C17.794 23.9641 19.3785 25.6878 21.3261 25.6878ZM21.3261 19.5728C22.4081 19.5728 23.2884 20.5923 23.2884 21.8454C23.2884 23.0985 22.4081 24.118 21.3261 24.118C20.2441 24.118 19.3638 23.0985 19.3638 21.8454C19.3638 20.5923 20.2441 19.5728 21.3261 19.5728Z" fill="#3AA959"/>
<path d="M14.2619 17.5215H15.8317V26.1555H14.2619V17.5215Z" fill="#3AA959"/>
<path d="M26.8205 17.5215H28.3903V26.1555H26.8205V17.5215Z" fill="#3AA959"/>
</svg>
