<svg width="47" height="47" viewBox="0 0 47 47" fill="none" xmlns="http://www.w3.org/2000/svg">
    <rect x="0.452637" y="0.665039" width="45.655" height="45.655" rx="22.8275" fill="#fff" fill-opacity="0.2" />
    <path
        d="M30.7222 15.1213V13.2607H15.838V15.1213H20.9545C21.9812 15.1243 22.9709 15.5054 23.7345 16.1917C24.4981 16.8781 24.9821 17.8217 25.0941 18.8423H15.838V20.7028H25.0941C24.9821 21.7235 24.4981 22.667 23.7345 23.3534C22.9709 24.0398 21.9812 24.4209 20.9545 24.4239H15.838V26.6054L24.7844 34.6568L26.029 33.2744L18.2623 26.2844H20.9545C22.4765 26.2822 23.9417 25.7065 25.0581 24.672C26.1745 23.6375 26.86 22.2203 26.9779 20.7028H30.7222V18.8423H26.9779C26.8712 17.4455 26.2807 16.1296 25.3081 15.1213H30.7222Z"
        fill="#fff" />
</svg>