<svg width="47" height="46" viewBox="0 0 47 46" fill="none" xmlns="http://www.w3.org/2000/svg">
<rect x="0.986908" y="0.290039" width="45.655" height="45.655" rx="22.8275" fill="#3498DB" fill-opacity="0.2"/>
<g clip-path="url(#clip0)">
<path d="M12.6513 30.0933C12.6513 30.7354 13.1512 31.2562 13.7676 31.2562H33.8613C34.4777 31.2562 34.9776 30.7354 34.9776 30.0933V18.4651H12.6513V30.0933ZM28.2797 22.535C28.2797 22.2137 28.5295 21.9535 28.8379 21.9535H32.1868C32.4952 21.9535 32.745 22.2137 32.745 22.535V23.6978C32.745 24.019 32.4952 24.2792 32.1868 24.2792H28.8379C28.5295 24.2792 28.2797 24.019 28.2797 23.6978V22.535ZM28.2797 26.8956C28.2797 26.7349 28.4046 26.6049 28.5588 26.6049H32.4659C32.6201 26.6049 32.745 26.7349 32.745 26.8956V27.477C32.745 27.6376 32.6201 27.7677 32.4659 27.7677H28.5588C28.4046 27.7677 28.2797 27.6376 28.2797 27.477V26.8956ZM14.8839 23.4071C14.8839 23.2465 15.0088 23.1164 15.163 23.1164H25.768C25.9222 23.1164 26.0471 23.2465 26.0471 23.4071V23.9885C26.0471 24.1491 25.9222 24.2792 25.768 24.2792H15.163C15.0088 24.2792 14.8839 24.1491 14.8839 23.9885V23.4071ZM14.8839 26.8956C14.8839 26.7349 15.0088 26.6049 15.163 26.6049H21.3027C21.4569 26.6049 21.5818 26.7349 21.5818 26.8956V27.477C21.5818 27.6376 21.4569 27.7677 21.3027 27.7677H15.163C15.0088 27.7677 14.8839 27.6376 14.8839 27.477V26.8956ZM34.4194 14.9766H13.2094C12.9011 14.9766 12.6513 15.2367 12.6513 15.558V17.3022H34.9776V15.558C34.9776 15.2367 34.7278 14.9766 34.4194 14.9766Z" fill="#3498DB"/>
</g>
<defs>
<clipPath id="clip0">
<rect width="22.3263" height="18.6053" fill="white" transform="translate(12.6513 13.8154)"/>
</clipPath>
</defs>
</svg>
