<svg width="227" height="250" viewBox="0 0 227 250" fill="none" xmlns="http://www.w3.org/2000/svg">
<rect x="1.31515" y="1.20187" width="224.413" height="247.869" rx="3.42519" fill="white" stroke="#E5E5E5" stroke-width="0.761153"/>
<path d="M22.795 27.7598H23.7449V23.3877H20.8708V24.2889H22.7463V25.1292C22.7463 26.3836 21.7598 26.9925 20.5785 26.9925C18.9588 26.9925 17.9601 25.8721 17.9601 24.1915V22.8153C17.9601 21.1347 18.9831 20.0265 20.4811 20.0265C21.5528 20.0265 22.3444 20.5867 22.7341 21.4879L23.5744 20.9764C23.0264 19.8681 22.0034 19.1131 20.4811 19.1131C18.3011 19.1131 16.8641 20.6841 16.8641 23.5095C16.8641 26.3592 18.3133 27.9059 20.3958 27.9059C21.6867 27.9059 22.5514 27.3092 22.7584 26.5176H22.795V27.7598ZM28.3582 27.9059C29.5395 27.9059 30.4407 27.3213 30.8426 26.4689L30.1485 25.9695C29.8196 26.6637 29.2107 27.0534 28.4191 27.0534C27.25 27.0534 26.5558 26.2375 26.5558 25.1536V24.8613H31.074V24.3985C31.074 22.6205 30.0389 21.3295 28.3582 21.3295C26.6532 21.3295 25.5328 22.6205 25.5328 24.6177C25.5328 26.615 26.6532 27.9059 28.3582 27.9059ZM28.3582 22.1455C29.3569 22.1455 30.0267 22.8884 30.0267 23.9966V24.1306H26.5558V24.0453C26.5558 22.9493 27.2987 22.1455 28.3582 22.1455ZM33.9887 27.7598V23.3999C33.9887 22.5961 34.7437 22.2064 35.5231 22.2064C36.4609 22.2064 36.948 22.7788 36.948 23.8992V27.7598H37.9223V23.7287C37.9223 22.2064 37.1063 21.3295 35.8154 21.3295C34.8777 21.3295 34.3418 21.7923 34.0374 22.4987H33.9887V21.4757H33.0144V27.7598H33.9887ZM44.2899 27.7598H45.2642V18.7477H44.2899V22.4987H44.2412C43.9124 21.7071 43.2669 21.3295 42.4023 21.3295C40.8312 21.3295 39.8448 22.6083 39.8448 24.6177C39.8448 26.6272 40.8312 27.9059 42.4023 27.9059C43.2669 27.9059 43.8637 27.5162 44.2412 26.7368H44.2899V27.7598ZM42.6702 27.0291C41.5741 27.0291 40.8921 26.274 40.8921 25.1536V24.0819C40.8921 22.9615 41.5741 22.2064 42.6702 22.2064C43.5592 22.2064 44.2899 22.7179 44.2899 23.4121V25.7503C44.2899 26.5663 43.5592 27.0291 42.6702 27.0291ZM50.033 27.9059C51.2143 27.9059 52.1155 27.3213 52.5174 26.4689L51.8232 25.9695C51.4944 26.6637 50.8855 27.0534 50.0939 27.0534C48.9248 27.0534 48.2306 26.2375 48.2306 25.1536V24.8613H52.7488V24.3985C52.7488 22.6205 51.7136 21.3295 50.033 21.3295C48.328 21.3295 47.2076 22.6205 47.2076 24.6177C47.2076 26.615 48.328 27.9059 50.033 27.9059ZM50.033 22.1455C51.0316 22.1455 51.7014 22.8884 51.7014 23.9966V24.1306H48.2306V24.0453C48.2306 22.9493 48.9735 22.1455 50.033 22.1455ZM55.6634 27.7598V23.4973C55.6634 22.9006 56.2967 22.45 57.3441 22.45H57.9165V21.4757H57.5389C56.5159 21.4757 55.9435 22.0359 55.7243 22.6326H55.6634V21.4757H54.6892V27.7598H55.6634ZM65.2298 27.7598L67.4463 21.4757H66.5085L65.3881 24.5934L64.7061 26.7368H64.6452L63.9632 24.5934L62.8672 21.4757H61.8929L64.0972 27.7598H65.2298ZM70.9255 27.9059C72.3626 27.9059 73.2516 27.163 73.2516 25.9452C73.2516 24.9953 72.7157 24.3863 71.3274 24.1793L70.8403 24.1062C70.0608 23.9844 69.6346 23.7409 69.6346 23.132C69.6346 22.5352 70.0608 22.1577 70.8646 22.1577C71.6684 22.1577 72.2042 22.5352 72.4843 22.9249L73.1298 22.3404C72.6183 21.7071 71.9485 21.3295 70.9377 21.3295C69.6589 21.3295 68.6968 21.9385 68.6968 23.1807C68.6968 24.3498 69.5615 24.8248 70.7185 24.9953L71.2178 25.0683C72.0459 25.1901 72.3138 25.5676 72.3138 26.0548C72.3138 26.7002 71.8267 27.0778 70.9986 27.0778C70.207 27.0778 69.6224 26.7246 69.1353 26.1157L68.4411 26.6759C69.0013 27.4188 69.7685 27.9059 70.9255 27.9059ZM78.6178 27.7598H79.6164V20.5988H79.6773L80.3959 22.0237L82.4297 25.726L84.4635 22.0237L85.182 20.5988H85.2429V27.7598H86.2415V19.2592H84.9262L82.4784 23.8383H82.4175L79.9818 19.2592H78.6178V27.7598ZM91.101 27.9059C92.2823 27.9059 93.1835 27.3213 93.5854 26.4689L92.8912 25.9695C92.5624 26.6637 91.9535 27.0534 91.1619 27.0534C89.9928 27.0534 89.2986 26.2375 89.2986 25.1536V24.8613H93.8168V24.3985C93.8168 22.6205 92.7816 21.3295 91.101 21.3295C89.396 21.3295 88.2756 22.6205 88.2756 24.6177C88.2756 26.615 89.396 27.9059 91.101 27.9059ZM91.101 22.1455C92.0996 22.1455 92.7694 22.8884 92.7694 23.9966V24.1306H89.2986V24.0453C89.2986 22.9493 90.0415 22.1455 91.101 22.1455ZM96.7314 27.7598V23.3999C96.7314 22.5961 97.4865 22.2064 98.2659 22.2064C99.2037 22.2064 99.6908 22.7788 99.6908 23.8992V27.7598H100.665V23.7287C100.665 22.2064 99.8491 21.3295 98.5582 21.3295C97.6205 21.3295 97.0846 21.7923 96.7801 22.4987H96.7314V21.4757H95.7572V27.7598H96.7314ZM105.62 27.7598V26.9073H104.341V22.3282H105.717V21.4757H104.341V19.7342H103.464V20.9033C103.464 21.3295 103.33 21.4757 102.916 21.4757H102.332V22.3282H103.367V26.7246C103.367 27.3335 103.732 27.7598 104.402 27.7598H105.62ZM109.946 27.9059C111.626 27.9059 112.783 26.615 112.783 24.6177C112.783 22.6205 111.626 21.3295 109.946 21.3295C108.265 21.3295 107.108 22.6205 107.108 24.6177C107.108 26.615 108.265 27.9059 109.946 27.9059ZM109.946 27.0412C108.898 27.0412 108.155 26.3958 108.155 25.0683V24.1671C108.155 22.8397 108.898 22.1942 109.946 22.1942C110.993 22.1942 111.736 22.8397 111.736 24.1671V25.0683C111.736 26.3958 110.993 27.0412 109.946 27.0412ZM115.695 27.7598V23.4973C115.695 22.9006 116.328 22.45 117.375 22.45H117.948V21.4757H117.57C116.547 21.4757 115.975 22.0359 115.755 22.6326H115.695V21.4757H114.72V27.7598H115.695ZM121.415 27.9059C122.852 27.9059 123.741 27.163 123.741 25.9452C123.741 24.9953 123.205 24.3863 121.817 24.1793L121.329 24.1062C120.55 23.9844 120.124 23.7409 120.124 23.132C120.124 22.5352 120.55 22.1577 121.354 22.1577C122.158 22.1577 122.693 22.5352 122.973 22.9249L123.619 22.3404C123.107 21.7071 122.438 21.3295 121.427 21.3295C120.148 21.3295 119.186 21.9385 119.186 23.1807C119.186 24.3498 120.051 24.8248 121.208 24.9953L121.707 25.0683C122.535 25.1901 122.803 25.5676 122.803 26.0548C122.803 26.7002 122.316 27.0778 121.488 27.0778C120.696 27.0778 120.112 26.7246 119.624 26.1157L118.93 26.6759C119.49 27.4188 120.258 27.9059 121.415 27.9059Z" fill="#263238"/>
<path fill-rule="evenodd" clip-rule="evenodd" d="M69.7195 82.7402C81.7699 70.6899 98.4174 63.2366 116.806 63.2366V48.6698C94.4576 48.6698 74.2252 57.9141 59.5798 72.6006L69.7195 82.7402Z" fill="#E0E0E0"/>
<path fill-rule="evenodd" clip-rule="evenodd" d="M50.2153 129.827H35.6488C35.6488 107.479 44.8931 87.2469 59.5796 72.6016L69.7192 82.7413C57.6688 94.7916 50.2154 111.439 50.2153 129.827Z" fill="#E0E0E0"/>
<path d="M105.278 123.408V121.929H106.649V121.236H105.278V120.496H106.887V119.798H104.492V123.408H105.278ZM110.75 123.408V122.71H109.08V121.929H110.512V121.236H109.08V120.496H110.75V119.798H108.293V123.408H110.75ZM114.911 123.408H115.651V119.798H114.813L113.938 121.489H113.928L113.044 119.798H112.211V123.408H112.951V121.003H112.966L113.24 121.572L113.928 122.844L114.632 121.567L114.895 121.039H114.911V123.408ZM120.266 123.408L119.092 119.798H118.119L116.93 123.408H117.726L117.985 122.55H119.19L119.449 123.408H120.266ZM118.999 121.882H118.171L118.569 120.512H118.595L118.999 121.882ZM123.703 123.408V122.71H122.327V119.798H121.541V123.408H123.703ZM127.517 123.408V122.71H125.846V121.929H127.279V121.236H125.846V120.496H127.517V119.798H125.06V123.408H127.517Z" fill="#6C6C6C"/>
<path fill-rule="evenodd" clip-rule="evenodd" d="M50.2153 129.826H35.6488C35.6488 152.174 44.8931 172.406 59.5796 187.052L69.7192 176.912C57.6688 164.862 50.2154 148.214 50.2153 129.826Z" fill="#E0E0E0"/>
<path fill-rule="evenodd" clip-rule="evenodd" d="M69.7193 176.913C81.7697 188.963 98.4171 196.417 116.805 196.417V210.984C94.4573 210.984 74.2249 201.739 59.5796 187.053L69.7193 176.913Z" fill="#E0E0E0"/>
<path fill-rule="evenodd" clip-rule="evenodd" d="M163.892 176.913C151.841 188.963 135.194 196.417 116.806 196.417V210.984C139.154 210.984 159.386 201.739 174.031 187.053L163.892 176.913Z" fill="#E0E0E0"/>
<path fill-rule="evenodd" clip-rule="evenodd" d="M183.396 129.826H197.962C197.962 152.174 188.718 172.406 174.031 187.052L163.892 176.912C175.942 164.862 183.395 148.214 183.396 129.826Z" fill="#6C6C6C"/>
<path d="M111.051 166.566H111.791V162.956H110.953L110.079 164.647H110.069L109.184 162.956H108.351V166.566H109.091V164.161H109.107L109.381 164.73L110.069 166.003L110.772 164.725L111.036 164.198H111.051V166.566ZM116.406 166.566L115.232 162.956H114.26L113.07 166.566H113.867L114.125 165.708H115.331L115.589 166.566H116.406ZM115.139 165.041H114.312L114.71 163.67H114.736L115.139 165.041ZM119.844 166.566V165.868H118.468V162.956H117.682V166.566H119.844ZM123.657 166.566V165.868H121.986V165.087H123.419V164.394H121.986V163.654H123.657V162.956H121.2V166.566H123.657Z" fill="#E0E0E0"/>
<path fill-rule="evenodd" clip-rule="evenodd" d="M183.396 129.827H197.962C197.962 107.479 188.718 87.2469 174.031 72.6016L163.892 82.7412C175.942 94.7916 183.395 111.439 183.396 129.827Z" fill="#6C6C6C"/>
<path fill-rule="evenodd" clip-rule="evenodd" d="M163.892 82.7402C151.841 70.6899 135.194 63.2366 116.806 63.2366V48.6698C139.154 48.6698 159.386 57.9141 174.031 72.6006L163.892 82.7402Z" fill="#6C6C6C"/>
<path d="M104.107 115.015V112.138H105.996V109.647H104.107V100.028H100.285L94.4451 109.389V112.138H101.037V115.015H104.107ZM100.822 103.356H101.037V109.647H97.0216L100.822 103.356ZM112.902 115.272C116.831 115.272 118.677 112.417 118.677 107.521C118.677 102.626 116.831 99.7703 112.902 99.7703C108.973 99.7703 107.126 102.626 107.126 107.521C107.126 112.417 108.973 115.272 112.902 115.272ZM112.902 112.545C111.184 112.545 110.626 111.214 110.626 108.938V106.104C110.626 103.828 111.184 102.497 112.902 102.497C114.619 102.497 115.178 103.828 115.178 106.104V108.938C115.178 111.214 114.619 112.545 112.902 112.545ZM125.797 115.015L136.189 100.028H133.355L122.963 115.015H125.797ZM124.058 108.273C126.549 108.273 127.923 106.813 127.923 104.022C127.923 101.23 126.549 99.7703 124.058 99.7703C121.568 99.7703 120.193 101.23 120.193 104.022C120.193 106.813 121.568 108.273 124.058 108.273ZM124.058 106.426C123.328 106.426 122.942 105.868 122.942 104.58V103.463C122.942 102.175 123.328 101.617 124.058 101.617C124.788 101.617 125.175 102.175 125.175 103.463V104.58C125.175 105.868 124.788 106.426 124.058 106.426ZM135.094 115.272C137.585 115.272 138.959 113.812 138.959 111.021C138.959 108.23 137.585 106.77 135.094 106.77C132.604 106.77 131.229 108.23 131.229 111.021C131.229 113.812 132.604 115.272 135.094 115.272ZM135.094 113.426C134.364 113.426 133.978 112.868 133.978 111.579V110.463C133.978 109.175 134.364 108.616 135.094 108.616C135.824 108.616 136.211 109.175 136.211 110.463V111.579C136.211 112.868 135.824 113.426 135.094 113.426Z" fill="#6C6C6C"/>
<path d="M100.328 156.554C103.742 156.554 105.953 154.364 105.953 151.293C105.953 148.459 104.043 146.634 101.573 146.634C99.6625 146.634 98.7822 147.75 98.2669 148.888L98.0737 148.824C98.6748 145.968 100.865 143.929 104.515 141.309H100.07C97.5154 143.048 94.7027 146.398 94.7027 150.606C94.7027 154.213 96.7639 156.554 100.328 156.554ZM100.328 154.041C98.911 154.041 98.0522 153.226 98.0522 151.766V151.379C98.0522 149.919 98.911 149.103 100.328 149.103C101.745 149.103 102.604 149.919 102.604 151.379V151.766C102.604 153.226 101.745 154.041 100.328 154.041ZM112.902 156.554C116.831 156.554 118.677 153.698 118.677 148.803C118.677 143.907 116.831 141.052 112.902 141.052C108.973 141.052 107.126 143.907 107.126 148.803C107.126 153.698 108.973 156.554 112.902 156.554ZM112.902 153.827C111.184 153.827 110.626 152.496 110.626 150.22V147.385C110.626 145.11 111.184 143.778 112.902 143.778C114.619 143.778 115.178 145.11 115.178 147.385V150.22C115.178 152.496 114.619 153.827 112.902 153.827ZM125.797 156.296L136.189 141.309H133.355L122.963 156.296H125.797ZM124.058 149.554C126.549 149.554 127.923 148.094 127.923 145.303C127.923 142.512 126.549 141.052 124.058 141.052C121.568 141.052 120.193 142.512 120.193 145.303C120.193 148.094 121.568 149.554 124.058 149.554ZM124.058 147.708C123.328 147.708 122.942 147.149 122.942 145.861V144.745C122.942 143.456 123.328 142.898 124.058 142.898C124.788 142.898 125.175 143.456 125.175 144.745V145.861C125.175 147.149 124.788 147.708 124.058 147.708ZM135.094 156.554C137.585 156.554 138.959 155.094 138.959 152.302C138.959 149.511 137.585 148.051 135.094 148.051C132.604 148.051 131.229 149.511 131.229 152.302C131.229 155.094 132.604 156.554 135.094 156.554ZM135.094 154.707C134.364 154.707 133.978 154.149 133.978 152.861V151.744C133.978 150.456 134.364 149.898 135.094 149.898C135.824 149.898 136.211 150.456 136.211 151.744V152.861C136.211 154.149 135.824 154.707 135.094 154.707Z" fill="#E0E0E0"/>
</svg>
