<svg width="57" height="57" viewBox="0 0 57 57" fill="none" xmlns="http://www.w3.org/2000/svg">
<rect x="0.378418" y="0.365234" width="56.3937" height="56.3937" rx="28.1969" fill="#3aa959" fill-opacity="0.2"/>
<path d="M35.6166 21.5205H21.5343C17.6456 21.5205 14.4932 24.6729 14.4932 28.5616C14.4932 32.4504 17.6456 35.6028 21.5343 35.6028H35.6166C39.5053 35.6028 42.6577 32.4504 42.6577 28.5616C42.6577 24.6729 39.5053 21.5205 35.6166 21.5205Z" stroke="#3aa959" stroke-width="2.81646" stroke-linecap="round" stroke-linejoin="round"/>
<path d="M21.5343 35.6028C25.423 35.6028 28.5754 32.4504 28.5754 28.5616C28.5754 24.6729 25.423 21.5205 21.5343 21.5205C17.6456 21.5205 14.4932 24.6729 14.4932 28.5616C14.4932 32.4504 17.6456 35.6028 21.5343 35.6028Z" stroke="#3aa959" stroke-width="2.81646" stroke-linecap="round" stroke-linejoin="round"/>
</svg>
