<svg width="53" height="53" viewBox="0 0 53 53" fill="none" xmlns="http://www.w3.org/2000/svg">
<rect x="0.402344" y="0.263672" width="52.0671" height="52.0671" rx="26.0336" fill="#F2994A" fill-opacity="0.2"/>
<path d="M32.9369 19.7969H19.935C16.3446 19.7969 13.4341 22.7074 13.4341 26.2978C13.4341 29.8882 16.3446 32.7987 19.935 32.7987H32.9369C36.5273 32.7987 39.4378 29.8882 39.4378 26.2978C39.4378 22.7074 36.5273 19.7969 32.9369 19.7969Z" stroke="#F39C12" stroke-width="2.60037" stroke-linecap="round" stroke-linejoin="round"/>
<path d="M19.935 32.7987C23.5254 32.7987 26.436 29.8882 26.436 26.2978C26.436 22.7074 23.5254 19.7969 19.935 19.7969C16.3446 19.7969 13.4341 22.7074 13.4341 26.2978C13.4341 29.8882 16.3446 32.7987 19.935 32.7987Z" stroke="#F39C12" stroke-width="2.60037" stroke-linecap="round" stroke-linejoin="round"/>
</svg>
