<svg width="517" height="354" viewBox="0 0 517 354" fill="none" xmlns="http://www.w3.org/2000/svg">
<rect x="0.652561" y="1.1135" width="515.087" height="352.189" rx="5.87305" fill="white" stroke="#E5E5E5" stroke-width="1.30512"/>
<g opacity="0.16">
<rect x="72" y="158.461" width="73.9618" height="159.614" fill="#B0B0B0"/>
</g>
<g opacity="0.16">
<rect x="155" y="166.461" width="73.9618" height="150.372" fill="#B0B0B0"/>
</g>
<g opacity="0.16">
<rect x="236" y="139.461" width="73.9618" height="178.586" fill="#B0B0B0"/>
</g>
<g opacity="0.16">
<rect x="321" y="125.461" width="73.9618" height="191.064" fill="#B0B0B0"/>
</g>
<g opacity="0.16">
<rect x="402" y="189.461" width="73.9618" height="127.862" fill="#B0B0B0"/>
</g>
<path d="M103.37 307.461H96.2565V306.469L100.015 302.293C100.572 301.662 100.954 301.15 101.163 300.757C101.377 300.359 101.484 299.949 101.484 299.527C101.484 298.96 101.312 298.495 100.969 298.132C100.626 297.769 100.169 297.588 99.5972 297.588C98.9111 297.588 98.3767 297.784 97.9939 298.177C97.6161 298.565 97.4272 299.107 97.4272 299.803H96.0477C96.0477 298.803 96.3683 297.996 97.0096 297.379C97.6559 296.763 98.5184 296.455 99.5972 296.455C100.606 296.455 101.404 296.721 101.991 297.252C102.577 297.779 102.871 298.483 102.871 299.363C102.871 300.432 102.19 301.704 100.828 303.181L97.9194 306.335H103.37V307.461ZM105.975 302.017L106.527 296.604H112.089V297.879H107.697L107.369 300.839C107.901 300.526 108.505 300.369 109.181 300.369C110.171 300.369 110.956 300.698 111.538 301.354C112.119 302.005 112.41 302.887 112.41 304.001C112.41 305.119 112.107 306.002 111.5 306.648C110.899 307.289 110.056 307.61 108.972 307.61C108.013 307.61 107.23 307.344 106.624 306.812C106.017 306.28 105.672 305.545 105.587 304.605H106.892C106.977 305.226 107.198 305.696 107.556 306.014C107.914 306.327 108.386 306.484 108.972 306.484C109.614 306.484 110.116 306.265 110.479 305.828C110.847 305.39 111.031 304.786 111.031 304.016C111.031 303.29 110.832 302.708 110.434 302.271C110.041 301.828 109.517 301.607 108.861 301.607C108.259 301.607 107.787 301.739 107.444 302.002L107.078 302.301L105.975 302.017ZM119.839 296.596V297.767H119.586C118.512 297.787 117.657 298.105 117.02 298.721C116.384 299.338 116.016 300.205 115.917 301.324C116.489 300.668 117.269 300.34 118.258 300.34C119.203 300.34 119.956 300.673 120.518 301.339C121.084 302.005 121.368 302.865 121.368 303.919C121.368 305.037 121.062 305.932 120.451 306.603C119.844 307.275 119.029 307.61 118.005 307.61C116.966 307.61 116.123 307.212 115.477 306.417C114.831 305.617 114.507 304.588 114.507 303.33V302.8C114.507 300.802 114.933 299.276 115.783 298.222C116.638 297.163 117.908 296.621 119.593 296.596H119.839ZM118.027 301.488C117.555 301.488 117.12 301.63 116.722 301.913C116.324 302.196 116.049 302.552 115.894 302.979V303.486C115.894 304.381 116.096 305.102 116.498 305.649C116.901 306.196 117.403 306.469 118.005 306.469C118.626 306.469 119.113 306.24 119.466 305.783C119.824 305.326 120.003 304.727 120.003 303.986C120.003 303.24 119.822 302.639 119.459 302.181C119.101 301.719 118.624 301.488 118.027 301.488Z" fill="#263238"/>
<path d="M183.79 308.461H182.403V299.267L179.622 300.288V299.035L183.574 297.551H183.79V308.461ZM194.165 304.815H195.671V305.941H194.165V308.461H192.778V305.941H187.834V305.128L192.696 297.604H194.165V304.815ZM189.4 304.815H192.778V299.49L192.614 299.789L189.4 304.815ZM203.249 304.815H204.756V305.941H203.249V308.461H201.862V305.941H196.918V305.128L201.78 297.604H203.249V304.815ZM198.484 304.815H201.862V299.49L201.698 299.789L198.484 304.815Z" fill="#263238"/>
<path d="M264.79 306.461H263.403V297.267L260.622 298.288V297.035L264.574 295.551H264.79V306.461ZM274.755 295.596V296.767H274.501C273.427 296.787 272.572 297.105 271.936 297.721C271.3 298.338 270.932 299.205 270.832 300.324C271.404 299.668 272.185 299.34 273.174 299.34C274.118 299.34 274.871 299.673 275.433 300.339C276 301.005 276.283 301.865 276.283 302.919C276.283 304.037 275.978 304.932 275.366 305.603C274.76 306.275 273.944 306.61 272.92 306.61C271.881 306.61 271.039 306.212 270.392 305.417C269.746 304.617 269.423 303.588 269.423 302.33V301.8C269.423 299.802 269.848 298.276 270.698 297.222C271.553 296.163 272.823 295.621 274.509 295.596H274.755ZM272.943 300.488C272.47 300.488 272.035 300.63 271.638 300.913C271.24 301.196 270.964 301.552 270.81 301.979V302.486C270.81 303.381 271.011 304.102 271.414 304.649C271.817 305.196 272.319 305.469 272.92 305.469C273.542 305.469 274.029 305.24 274.382 304.783C274.74 304.326 274.919 303.727 274.919 302.986C274.919 302.24 274.737 301.639 274.374 301.181C274.016 300.719 273.539 300.488 272.943 300.488ZM285.01 298.437C285.01 298.979 284.866 299.461 284.577 299.884C284.294 300.307 283.909 300.637 283.422 300.876C283.988 301.119 284.436 301.475 284.764 301.942C285.097 302.409 285.263 302.939 285.263 303.53C285.263 304.47 284.945 305.218 284.309 305.775C283.678 306.332 282.845 306.61 281.811 306.61C280.767 306.61 279.929 306.332 279.298 305.775C278.672 305.213 278.358 304.465 278.358 303.53C278.358 302.944 278.517 302.414 278.836 301.942C279.159 301.47 279.604 301.112 280.17 300.868C279.688 300.63 279.308 300.299 279.029 299.876C278.751 299.454 278.612 298.974 278.612 298.437C278.612 297.523 278.905 296.797 279.492 296.26C280.078 295.723 280.851 295.455 281.811 295.455C282.765 295.455 283.536 295.723 284.123 296.26C284.714 296.797 285.01 297.523 285.01 298.437ZM283.884 303.501C283.884 302.894 283.69 302.399 283.302 302.017C282.919 301.634 282.417 301.442 281.796 301.442C281.175 301.442 280.675 301.631 280.297 302.009C279.924 302.387 279.738 302.884 279.738 303.501C279.738 304.117 279.919 304.602 280.282 304.955C280.65 305.308 281.16 305.484 281.811 305.484C282.457 305.484 282.964 305.308 283.332 304.955C283.7 304.597 283.884 304.112 283.884 303.501ZM281.811 296.588C281.269 296.588 280.829 296.757 280.491 297.095C280.158 297.428 279.991 297.883 279.991 298.46C279.991 299.011 280.155 299.459 280.484 299.802C280.817 300.14 281.259 300.309 281.811 300.309C282.363 300.309 282.803 300.14 283.131 299.802C283.464 299.459 283.63 299.011 283.63 298.46C283.63 297.908 283.459 297.458 283.116 297.11C282.773 296.762 282.338 296.588 281.811 296.588Z" fill="#263238"/>
<path d="M352.37 309.461H345.256V308.469L349.015 304.293C349.572 303.662 349.954 303.15 350.163 302.757C350.377 302.359 350.484 301.949 350.484 301.527C350.484 300.96 350.312 300.495 349.969 300.132C349.626 299.769 349.169 299.588 348.597 299.588C347.911 299.588 347.377 299.784 346.994 300.177C346.616 300.565 346.427 301.107 346.427 301.803H345.048C345.048 300.803 345.368 299.996 346.01 299.379C346.656 298.763 347.518 298.455 348.597 298.455C349.606 298.455 350.404 298.721 350.991 299.252C351.577 299.779 351.871 300.483 351.871 301.363C351.871 302.432 351.19 303.704 349.828 305.181L346.919 308.335H352.37V309.461ZM360.165 305.815H361.671V306.941H360.165V309.461H358.778V306.941H353.834V306.128L358.696 298.604H360.165V305.815ZM355.4 305.815H358.778V300.49L358.614 300.789L355.4 305.815ZM370.01 301.437C370.01 301.979 369.866 302.461 369.577 302.884C369.294 303.307 368.909 303.637 368.422 303.876C368.988 304.119 369.436 304.475 369.764 304.942C370.097 305.409 370.263 305.939 370.263 306.53C370.263 307.47 369.945 308.218 369.309 308.775C368.678 309.332 367.845 309.61 366.811 309.61C365.767 309.61 364.929 309.332 364.298 308.775C363.672 308.213 363.358 307.465 363.358 306.53C363.358 305.944 363.517 305.414 363.836 304.942C364.159 304.47 364.604 304.112 365.17 303.868C364.688 303.63 364.308 303.299 364.029 302.876C363.751 302.454 363.612 301.974 363.612 301.437C363.612 300.523 363.905 299.797 364.492 299.26C365.078 298.723 365.851 298.455 366.811 298.455C367.765 298.455 368.536 298.723 369.123 299.26C369.714 299.797 370.01 300.523 370.01 301.437ZM368.884 306.501C368.884 305.894 368.69 305.399 368.302 305.017C367.919 304.634 367.417 304.442 366.796 304.442C366.175 304.442 365.675 304.631 365.297 305.009C364.924 305.387 364.738 305.884 364.738 306.501C364.738 307.117 364.919 307.602 365.282 307.955C365.65 308.308 366.16 308.484 366.811 308.484C367.457 308.484 367.964 308.308 368.332 307.955C368.7 307.597 368.884 307.112 368.884 306.501ZM366.811 299.588C366.269 299.588 365.829 299.757 365.491 300.095C365.158 300.428 364.991 300.883 364.991 301.46C364.991 302.011 365.155 302.459 365.484 302.802C365.817 303.14 366.259 303.309 366.811 303.309C367.363 303.309 367.803 303.14 368.131 302.802C368.464 302.459 368.63 302.011 368.63 301.46C368.63 300.908 368.459 300.458 368.116 300.11C367.773 299.762 367.338 299.588 366.811 299.588Z" fill="#263238"/>
<path d="M436.086 304.689C435.797 305.032 435.452 305.307 435.049 305.516C434.651 305.725 434.214 305.829 433.737 305.829C433.11 305.829 432.564 305.675 432.096 305.367C431.634 305.059 431.276 304.626 431.022 304.07C430.769 303.508 430.642 302.889 430.642 302.213C430.642 301.487 430.779 300.833 431.052 300.252C431.331 299.67 431.723 299.225 432.23 298.917C432.738 298.609 433.329 298.455 434.005 298.455C435.079 298.455 435.924 298.857 436.541 299.663C437.162 300.463 437.473 301.557 437.473 302.944V303.346C437.473 305.459 437.055 307.003 436.22 307.977C435.385 308.946 434.124 309.444 432.439 309.468H432.171V308.305H432.462C433.6 308.285 434.475 307.989 435.086 307.418C435.698 306.841 436.031 305.931 436.086 304.689ZM433.96 304.689C434.423 304.689 434.848 304.547 435.236 304.263C435.628 303.98 435.914 303.63 436.093 303.212V302.66C436.093 301.755 435.897 301.02 435.504 300.453C435.111 299.886 434.614 299.603 434.013 299.603C433.406 299.603 432.919 299.837 432.551 300.304C432.183 300.766 431.999 301.378 431.999 302.138C431.999 302.879 432.176 303.49 432.529 303.973C432.887 304.45 433.364 304.689 433.96 304.689ZM445.297 298.596V299.767H445.043C443.97 299.787 443.115 300.105 442.478 300.721C441.842 301.338 441.474 302.205 441.375 303.324C441.946 302.668 442.727 302.34 443.716 302.34C444.661 302.34 445.414 302.673 445.975 303.339C446.542 304.005 446.826 304.865 446.826 305.919C446.826 307.037 446.52 307.932 445.908 308.603C445.302 309.275 444.487 309.61 443.463 309.61C442.424 309.61 441.581 309.212 440.935 308.417C440.288 307.617 439.965 306.588 439.965 305.33V304.8C439.965 302.802 440.39 301.276 441.24 300.222C442.095 299.163 443.366 298.621 445.051 298.596H445.297ZM443.485 303.488C443.013 303.488 442.578 303.63 442.18 303.913C441.782 304.196 441.506 304.552 441.352 304.979V305.486C441.352 306.381 441.554 307.102 441.956 307.649C442.359 308.196 442.861 308.469 443.463 308.469C444.084 308.469 444.571 308.24 444.924 307.783C445.282 307.326 445.461 306.727 445.461 305.986C445.461 305.24 445.28 304.639 444.917 304.181C444.559 303.719 444.081 303.488 443.485 303.488Z" fill="#263238"/>
<path d="M19.1317 43.3262H17.174V28.4804H19.1317V43.3262ZM25.2527 37.5143V43.3262H23.295V28.4804H28.7704C30.395 28.4804 31.6662 28.8951 32.5838 29.7244C33.5083 30.5536 33.9705 31.6514 33.9705 33.0177C33.9705 34.4588 33.5185 35.5702 32.6144 36.3519C31.7172 37.1268 30.429 37.5143 28.75 37.5143H25.2527ZM25.2527 35.9135H28.7704C29.8173 35.9135 30.6194 35.6688 31.1768 35.1794C31.7342 34.6831 32.0129 33.9694 32.0129 33.0381C32.0129 32.1545 31.7342 31.4475 31.1768 30.9173C30.6194 30.3871 29.8546 30.1118 28.8826 30.0914H25.2527V35.9135ZM43.1708 40.3998C43.1708 39.89 42.9771 39.4958 42.5896 39.2171C42.209 38.9316 41.5394 38.6869 40.581 38.4829C39.6293 38.279 38.8714 38.0343 38.3072 37.7488C37.7498 37.4633 37.3352 37.1234 37.0633 36.7292C36.7982 36.3349 36.6656 35.8659 36.6656 35.3221C36.6656 34.418 37.0463 33.6533 37.8076 33.0279C38.5757 32.4026 39.5546 32.0899 40.7441 32.0899C41.9949 32.0899 43.0077 32.4128 43.7826 33.0585C44.5643 33.7043 44.9552 34.5302 44.9552 35.5362H43.0587C43.0587 35.0196 42.8378 34.5744 42.3959 34.2005C41.9609 33.8267 41.4103 33.6397 40.7441 33.6397C40.0576 33.6397 39.5206 33.7893 39.1331 34.0884C38.7456 34.3874 38.5519 34.7783 38.5519 35.2609C38.5519 35.7164 38.7321 36.0596 39.0923 36.2907C39.4526 36.5219 40.1018 36.7428 41.0398 36.9535C41.9847 37.1642 42.7494 37.4157 43.334 37.708C43.9186 38.0003 44.3502 38.3538 44.6289 38.7684C44.9144 39.1763 45.0571 39.6759 45.0571 40.2673C45.0571 41.2529 44.6629 42.0448 43.8744 42.643C43.0859 43.2344 42.0628 43.5301 40.8053 43.5301C39.9216 43.5301 39.1399 43.3738 38.4602 43.0611C37.7804 42.7484 37.2468 42.3133 36.8593 41.7559C36.4787 41.1918 36.2883 40.5834 36.2883 39.9308H38.1747C38.2086 40.563 38.4602 41.066 38.9292 41.4399C39.405 41.8069 40.0304 41.9905 40.8053 41.9905C41.519 41.9905 42.09 41.8477 42.5183 41.5622C42.9533 41.2699 43.1708 40.8825 43.1708 40.3998Z" fill="#263238"/>
<path d="M186.953 187.283C187.969 187.402 188.754 187.778 189.308 188.411C189.857 189.04 190.132 189.877 190.132 190.924C190.132 192.058 189.725 192.968 188.912 193.654C188.098 194.335 187.01 194.676 185.647 194.676L184.724 194.676C183.831 194.676 183.047 194.518 182.37 194.201C181.692 193.88 181.174 193.427 180.813 192.843C180.448 192.258 180.266 191.581 180.266 190.811C180.266 189.791 180.552 188.974 181.123 188.358C181.69 187.743 182.477 187.384 183.484 187.283L183.484 188.556C182.719 188.666 182.165 188.906 181.822 189.275C181.479 189.64 181.308 190.152 181.308 190.811C181.308 191.62 181.607 192.256 182.205 192.717C182.803 193.175 183.653 193.403 184.757 193.403L185.687 193.403C186.729 193.403 187.558 193.186 188.173 192.75C188.789 192.315 189.096 191.706 189.096 190.924C189.096 190.22 188.938 189.682 188.622 189.308C188.301 188.93 187.745 188.679 186.953 188.556L186.953 187.283ZM186.366 185.692C185.667 185.692 185.038 185.555 184.48 185.283C183.922 185.006 183.491 184.623 183.187 184.135C182.884 183.643 182.732 183.082 182.732 182.453C182.732 181.482 183.069 180.697 183.741 180.099C184.414 179.497 185.309 179.196 186.426 179.196L186.511 179.196C187.206 179.196 187.83 179.33 188.384 179.598C188.934 179.862 189.362 180.242 189.67 180.739C189.978 181.231 190.132 181.798 190.132 182.44C190.132 183.408 189.796 184.192 189.123 184.795C188.45 185.393 187.56 185.692 186.452 185.692L186.366 185.692ZM186.511 184.465C187.303 184.465 187.938 184.283 188.417 183.918C188.896 183.548 189.136 183.056 189.136 182.44C189.136 181.82 188.894 181.328 188.411 180.963C187.923 180.598 187.241 180.416 186.366 180.416C185.584 180.416 184.95 180.602 184.467 180.976C183.979 181.346 183.735 181.838 183.735 182.453C183.735 183.056 183.974 183.542 184.454 183.911C184.933 184.28 185.619 184.465 186.511 184.465ZM186.511 171.266C187.597 171.266 188.472 171.515 189.136 172.011C189.8 172.508 190.132 173.181 190.132 174.03C190.132 174.896 189.857 175.577 189.308 176.074L192.744 176.074L192.744 177.294L182.864 177.294L182.864 176.18L183.656 176.12C183.04 175.623 182.732 174.933 182.732 174.049C182.732 173.192 183.055 172.515 183.702 172.018C184.348 171.517 185.247 171.266 186.399 171.266L186.511 171.266ZM186.373 172.486C185.568 172.486 184.933 172.658 184.467 173.001C184.001 173.344 183.768 173.814 183.768 174.412C183.768 175.151 184.095 175.705 184.75 176.074L188.16 176.074C188.811 175.709 189.136 175.151 189.136 174.399C189.136 173.814 188.905 173.35 188.444 173.007C187.978 172.66 187.287 172.486 186.373 172.486ZM188.213 167.083L182.864 165.421L182.864 164.115L191.101 166.984C192.288 167.428 192.882 168.134 192.882 169.101L192.862 169.332L192.776 169.787L191.787 169.787L191.814 169.457C191.814 169.044 191.73 168.723 191.563 168.494C191.396 168.261 191.09 168.07 190.646 167.92L189.921 167.65L182.864 170.196L182.864 168.864L188.213 167.083ZM183.959 159.2C183.928 159.384 183.913 159.584 183.913 159.8C183.913 160.6 184.254 161.143 184.935 161.429L190 161.429L190 162.649L182.864 162.649L182.864 161.462L183.689 161.442C183.051 161.042 182.732 160.475 182.732 159.741C182.732 159.503 182.763 159.323 182.825 159.2L183.959 159.2ZM190 156.375L190 157.595L182.864 157.595L182.864 156.375L190 156.375ZM180.971 157.694C180.774 157.694 180.607 157.635 180.47 157.516C180.334 157.393 180.266 157.213 180.266 156.975C180.266 156.738 180.334 156.557 180.47 156.434C180.607 156.311 180.774 156.25 180.971 156.25C181.169 156.25 181.334 156.311 181.466 156.434C181.598 156.557 181.664 156.738 181.664 156.975C181.664 157.213 181.598 157.393 181.466 157.516C181.334 157.635 181.169 157.694 180.971 157.694ZM186.373 154.335C185.26 154.335 184.377 154.078 183.722 153.563C183.062 153.049 182.732 152.368 182.732 151.519C182.732 150.648 183.04 149.969 183.656 149.481L182.864 149.422L182.864 148.307L189.829 148.307C190.752 148.307 191.479 148.582 192.011 149.132C192.543 149.677 192.809 150.411 192.809 151.334C192.809 151.849 192.7 152.352 192.48 152.845C192.26 153.337 191.959 153.713 191.576 153.972L190.844 153.339C191.49 152.816 191.814 152.176 191.814 151.42C191.814 150.827 191.647 150.365 191.312 150.035C190.978 149.701 190.508 149.534 189.901 149.534L189.288 149.534C189.851 150.022 190.132 150.688 190.132 151.532C190.132 152.368 189.796 153.045 189.123 153.563C188.45 154.078 187.533 154.335 186.373 154.335ZM186.511 153.108C187.316 153.108 187.949 152.944 188.411 152.614C188.868 152.284 189.096 151.822 189.096 151.229C189.096 150.459 188.747 149.894 188.048 149.534L184.79 149.534C184.108 149.908 183.768 150.468 183.768 151.216C183.768 151.809 183.999 152.273 184.46 152.607C184.922 152.941 185.606 153.108 186.511 153.108ZM183.728 144.869C183.064 144.328 182.732 143.625 182.732 142.759C182.732 141.251 183.583 140.49 185.285 140.477L190 140.477L190 141.697L185.278 141.697C184.764 141.701 184.383 141.82 184.137 142.053C183.891 142.282 183.768 142.64 183.768 143.128C183.768 143.524 183.873 143.871 184.084 144.17C184.295 144.469 184.572 144.702 184.915 144.869L190 144.869L190 146.089L179.87 146.089L179.87 144.869L183.728 144.869ZM181.136 136.623L182.864 136.623L182.864 135.291L183.807 135.291L183.807 136.623L188.233 136.623C188.518 136.623 188.734 136.564 188.879 136.445C189.02 136.326 189.09 136.124 189.09 135.838C189.09 135.698 189.064 135.504 189.011 135.258L190 135.258C190.088 135.579 190.132 135.891 190.132 136.195C190.132 136.74 189.967 137.151 189.637 137.428C189.308 137.705 188.839 137.843 188.233 137.843L183.807 137.843L183.807 139.143L182.864 139.143L182.864 137.843L181.136 137.843L181.136 136.623ZM188.107 129.334C187.777 129.334 187.522 129.459 187.342 129.71C187.158 129.956 186.999 130.389 186.867 131.009C186.735 131.624 186.577 132.115 186.393 132.479C186.208 132.84 185.988 133.108 185.733 133.284C185.478 133.456 185.175 133.541 184.823 133.541C184.238 133.541 183.744 133.295 183.339 132.803C182.935 132.306 182.732 131.673 182.732 130.903C182.732 130.094 182.941 129.439 183.359 128.938C183.777 128.432 184.311 128.18 184.961 128.18L184.961 129.406C184.627 129.406 184.339 129.549 184.097 129.835C183.856 130.116 183.735 130.472 183.735 130.903C183.735 131.347 183.831 131.695 184.025 131.945C184.218 132.196 184.471 132.321 184.783 132.321C185.078 132.321 185.3 132.205 185.449 131.972C185.599 131.739 185.742 131.319 185.878 130.712C186.014 130.101 186.177 129.606 186.366 129.228C186.555 128.85 186.784 128.571 187.052 128.391C187.316 128.206 187.639 128.114 188.021 128.114C188.659 128.114 189.171 128.369 189.558 128.879C189.941 129.389 190.132 130.05 190.132 130.864C190.132 131.435 190.031 131.941 189.829 132.381C189.626 132.82 189.345 133.165 188.984 133.416C188.619 133.662 188.226 133.785 187.804 133.785L187.804 132.565C188.213 132.543 188.538 132.381 188.78 132.077C189.017 131.769 189.136 131.365 189.136 130.864C189.136 130.402 189.044 130.033 188.859 129.756C188.67 129.474 188.419 129.334 188.107 129.334Z" fill="#263238"/>
<path d="M267.241 165.08L271 165.08L271 166.346L261.398 166.346L261.398 162.805C261.398 161.754 261.666 160.932 262.202 160.338C262.739 159.74 263.449 159.441 264.332 159.441C265.265 159.441 265.983 159.734 266.489 160.319C266.99 160.899 267.241 161.732 267.241 162.818L267.241 165.08ZM266.205 165.08L266.205 162.805C266.205 162.128 266.047 161.609 265.731 161.248C265.41 160.888 264.948 160.708 264.346 160.708C263.774 160.708 263.317 160.888 262.974 161.248C262.631 161.609 262.453 162.104 262.44 162.732L262.44 165.08L266.205 165.08ZM271 153.319C270.859 153.389 270.609 153.447 270.248 153.491C270.837 154.058 271.132 154.735 271.132 155.522C271.132 156.225 270.934 156.804 270.538 157.256C270.138 157.705 269.633 157.929 269.021 157.929C268.278 157.929 267.703 157.648 267.294 157.085C266.88 156.518 266.674 155.722 266.674 154.698L266.674 153.51L266.113 153.51C265.687 153.51 265.348 153.638 265.097 153.893C264.842 154.148 264.715 154.524 264.715 155.021C264.715 155.456 264.825 155.821 265.045 156.115C265.265 156.41 265.531 156.557 265.843 156.557L265.843 157.784C265.487 157.784 265.144 157.659 264.814 157.408C264.48 157.153 264.216 156.81 264.022 156.379C263.829 155.944 263.732 155.467 263.732 154.948C263.732 154.126 263.939 153.482 264.352 153.016C264.761 152.55 265.326 152.308 266.047 152.29L269.331 152.29C269.987 152.29 270.508 152.207 270.894 152.04L271 152.04L271 153.319ZM270.07 155.344C270.07 154.961 269.971 154.599 269.773 154.256C269.575 153.913 269.318 153.664 269.002 153.51L267.538 153.51L267.538 154.467C267.538 155.962 267.975 156.709 268.85 156.709C269.233 156.709 269.532 156.581 269.747 156.326C269.962 156.071 270.07 155.744 270.07 155.344ZM262.136 148.351L263.864 148.351L263.864 147.019L264.807 147.019L264.807 148.351L269.233 148.351C269.518 148.351 269.734 148.292 269.879 148.173C270.02 148.054 270.09 147.852 270.09 147.566C270.09 147.426 270.064 147.232 270.011 146.986L271 146.986C271.088 147.307 271.132 147.619 271.132 147.922C271.132 148.468 270.967 148.879 270.637 149.156C270.308 149.433 269.839 149.571 269.233 149.571L264.807 149.571L264.807 150.87L263.864 150.87L263.864 149.571L262.136 149.571L262.136 148.351ZM271.132 142.255C271.132 143.222 270.815 144.009 270.182 144.616C269.545 145.223 268.694 145.526 267.63 145.526L267.406 145.526C266.698 145.526 266.067 145.392 265.513 145.124C264.955 144.851 264.519 144.473 264.207 143.99C263.891 143.502 263.732 142.974 263.732 142.407C263.732 141.479 264.038 140.758 264.649 140.244C265.26 139.729 266.135 139.472 267.274 139.472L267.782 139.472L267.782 144.306C268.485 144.289 269.054 144.084 269.49 143.693C269.921 143.297 270.136 142.796 270.136 142.189C270.136 141.758 270.048 141.393 269.872 141.094C269.696 140.795 269.463 140.534 269.173 140.31L269.754 139.564C270.672 140.162 271.132 141.059 271.132 142.255ZM264.735 142.407C264.735 142.899 264.915 143.313 265.276 143.647C265.632 143.981 266.133 144.187 266.779 144.267L266.779 140.692L266.687 140.692C266.067 140.727 265.588 140.894 265.249 141.193C264.906 141.492 264.735 141.897 264.735 142.407ZM263.864 136.529L264.761 136.489C264.075 135.944 263.732 135.232 263.732 134.352C263.732 132.844 264.583 132.084 266.285 132.07L271 132.07L271 133.29L266.278 133.29C265.764 133.295 265.383 133.414 265.137 133.647C264.891 133.875 264.768 134.233 264.768 134.722C264.768 135.117 264.873 135.465 265.084 135.764C265.295 136.062 265.572 136.296 265.915 136.463L271 136.463L271 137.683L263.864 137.683L263.864 136.529ZM262.136 128.204L263.864 128.204L263.864 126.871L264.807 126.871L264.807 128.204L269.233 128.204C269.518 128.204 269.734 128.144 269.879 128.025C270.02 127.907 270.09 127.705 270.09 127.419C270.09 127.278 270.064 127.085 270.011 126.838L271 126.838C271.088 127.159 271.132 127.472 271.132 127.775C271.132 128.32 270.967 128.731 270.637 129.008C270.308 129.285 269.839 129.424 269.233 129.424L264.807 129.424L264.807 130.723L263.864 130.723L263.864 129.424L262.136 129.424L262.136 128.204ZM269.107 120.914C268.777 120.914 268.522 121.039 268.342 121.29C268.158 121.536 267.999 121.969 267.867 122.589C267.735 123.205 267.577 123.695 267.393 124.06C267.208 124.42 266.988 124.688 266.733 124.864C266.478 125.036 266.175 125.122 265.823 125.122C265.238 125.122 264.744 124.875 264.339 124.383C263.935 123.886 263.732 123.253 263.732 122.484C263.732 121.675 263.941 121.019 264.359 120.518C264.777 120.013 265.311 119.76 265.961 119.76L265.961 120.987C265.627 120.987 265.339 121.129 265.097 121.415C264.856 121.697 264.735 122.053 264.735 122.484C264.735 122.928 264.831 123.275 265.025 123.526C265.218 123.776 265.471 123.901 265.783 123.901C266.078 123.901 266.3 123.785 266.449 123.552C266.599 123.319 266.742 122.899 266.878 122.292C267.014 121.681 267.177 121.187 267.366 120.808C267.555 120.43 267.784 120.151 268.052 119.971C268.316 119.786 268.639 119.694 269.021 119.694C269.659 119.694 270.171 119.949 270.558 120.459C270.941 120.969 271.132 121.631 271.132 122.444C271.132 123.016 271.031 123.521 270.829 123.961C270.626 124.401 270.345 124.746 269.984 124.996C269.619 125.242 269.226 125.366 268.804 125.366L268.804 124.146C269.213 124.124 269.538 123.961 269.78 123.657C270.017 123.35 270.136 122.945 270.136 122.444C270.136 121.982 270.044 121.613 269.859 121.336C269.67 121.055 269.419 120.914 269.107 120.914Z" fill="#263238"/>
<path d="M349.44 149.712L349.44 152.798L358 152.798L358 154.058L349.44 154.058L349.44 157.138L348.398 157.138L348.398 149.712L349.44 149.712ZM351.959 145.159C351.928 145.344 351.913 145.544 351.913 145.759C351.913 146.559 352.254 147.102 352.935 147.388L358 147.388L358 148.608L350.864 148.608L350.864 147.421L351.689 147.401C351.051 147.001 350.732 146.434 350.732 145.7C350.732 145.463 350.763 145.282 350.825 145.159L351.959 145.159ZM358 139.518C357.859 139.589 357.609 139.646 357.248 139.69C357.837 140.257 358.132 140.934 358.132 141.721C358.132 142.425 357.934 143.003 357.538 143.456C357.138 143.904 356.633 144.128 356.021 144.128C355.278 144.128 354.702 143.847 354.294 143.284C353.88 142.717 353.674 141.921 353.674 140.897L353.674 139.71L353.113 139.71C352.687 139.71 352.348 139.837 352.097 140.092C351.842 140.347 351.715 140.723 351.715 141.22C351.715 141.655 351.825 142.02 352.045 142.315C352.265 142.609 352.531 142.756 352.843 142.756L352.843 143.983C352.487 143.983 352.144 143.858 351.814 143.607C351.48 143.352 351.216 143.009 351.022 142.578C350.829 142.143 350.732 141.666 350.732 141.147C350.732 140.325 350.939 139.681 351.352 139.215C351.761 138.749 352.326 138.507 353.047 138.49L356.331 138.489C356.987 138.489 357.508 138.406 357.894 138.239L358 138.239L358 139.518ZM357.07 141.543C357.07 141.16 356.971 140.798 356.773 140.455C356.575 140.112 356.318 139.863 356.002 139.71L354.538 139.71L354.538 140.666C354.538 142.161 354.975 142.908 355.85 142.908C356.233 142.908 356.532 142.781 356.747 142.526C356.962 142.271 357.07 141.943 357.07 141.543ZM354.373 136.502C353.278 136.502 352.399 136.243 351.735 135.724C351.066 135.205 350.732 134.526 350.732 133.686C350.732 132.851 351.018 132.189 351.59 131.701L347.87 131.701L347.87 130.481L358 130.481L358 131.602L357.235 131.662C357.833 132.15 358.132 132.829 358.132 133.699C358.132 134.526 357.793 135.201 357.116 135.724C356.439 136.243 355.555 136.502 354.465 136.502L354.373 136.502ZM354.511 135.282C355.32 135.282 355.953 135.115 356.411 134.781C356.868 134.447 357.096 133.985 357.096 133.396C357.096 132.622 356.749 132.057 356.054 131.701L352.777 131.701C352.104 132.066 351.768 132.627 351.768 133.383C351.768 133.981 351.999 134.447 352.46 134.781C352.922 135.115 353.606 135.282 354.511 135.282ZM358.132 125.249C358.132 126.216 357.815 127.003 357.182 127.61C356.545 128.217 355.694 128.52 354.63 128.52L354.406 128.52C353.698 128.52 353.067 128.386 352.513 128.118C351.955 127.845 351.519 127.467 351.207 126.984C350.891 126.496 350.732 125.968 350.732 125.401C350.732 124.473 351.038 123.752 351.649 123.238C352.26 122.723 353.135 122.466 354.274 122.466L354.782 122.466L354.782 127.3C355.485 127.283 356.054 127.078 356.49 126.687C356.921 126.291 357.136 125.79 357.136 125.183C357.136 124.752 357.048 124.387 356.872 124.088C356.696 123.789 356.463 123.528 356.173 123.304L356.754 122.558C357.672 123.156 358.132 124.053 358.132 125.249ZM351.735 125.401C351.735 125.893 351.915 126.307 352.276 126.641C352.632 126.975 353.133 127.181 353.779 127.261L353.779 123.686L353.687 123.686C353.067 123.721 352.588 123.888 352.249 124.187C351.906 124.486 351.735 124.891 351.735 125.401ZM350.864 119.529L351.656 119.496C351.04 118.973 350.732 118.267 350.732 117.379C350.732 116.381 351.115 115.702 351.88 115.341C351.537 115.104 351.26 114.796 351.049 114.418C350.838 114.036 350.732 113.585 350.732 113.066C350.732 111.501 351.561 110.705 353.219 110.679L358 110.679L358 111.899L353.291 111.899C352.781 111.899 352.401 112.015 352.15 112.248C351.895 112.481 351.768 112.873 351.768 113.422C351.768 113.875 351.904 114.251 352.177 114.55C352.445 114.849 352.808 115.023 353.265 115.071L358 115.071L358 116.298L353.324 116.298C352.287 116.298 351.768 116.805 351.768 117.821C351.768 118.621 352.108 119.169 352.79 119.463L358 119.463L358 120.683L350.864 120.683L350.864 119.529ZM358 104.055C357.859 104.126 357.609 104.183 357.248 104.227C357.837 104.794 358.132 105.471 358.132 106.258C358.132 106.961 357.934 107.54 357.538 107.992C357.138 108.441 356.633 108.665 356.021 108.665C355.278 108.665 354.702 108.384 354.294 107.821C353.88 107.254 353.674 106.458 353.674 105.434L353.674 104.246L353.113 104.246C352.687 104.246 352.348 104.374 352.097 104.629C351.842 104.884 351.715 105.26 351.715 105.757C351.715 106.192 351.825 106.557 352.045 106.851C352.265 107.146 352.531 107.293 352.843 107.293L352.843 108.52C352.487 108.52 352.144 108.395 351.814 108.144C351.48 107.889 351.216 107.546 351.022 107.115C350.829 106.68 350.732 106.203 350.732 105.684C350.732 104.862 350.939 104.218 351.352 103.752C351.761 103.286 352.326 103.044 353.047 103.026L356.331 103.026C356.987 103.026 357.508 102.943 357.894 102.776L358 102.776L358 104.055ZM357.07 106.08C357.07 105.697 356.971 105.335 356.773 104.992C356.575 104.649 356.318 104.4 356.002 104.246L354.538 104.246L354.538 105.203C354.538 106.698 354.975 107.445 355.85 107.445C356.233 107.445 356.532 107.317 356.747 107.062C356.962 106.807 357.07 106.48 357.07 106.08ZM351.959 97.2932C351.928 97.4778 351.913 97.6779 351.913 97.8933C351.913 98.6935 352.254 99.2365 352.935 99.5223L358 99.5223L358 100.742L350.864 100.742L350.864 99.5553L351.689 99.5355C351.051 99.1354 350.732 98.5682 350.732 97.834C350.732 97.5966 350.763 97.4163 350.825 97.2932L351.959 97.2932ZM354.696 93.8023L355.494 94.5673L358 94.5673L358 95.7874L347.87 95.7874L347.87 94.5673L353.997 94.5673L353.212 93.9144L350.864 91.6919L350.864 90.208L353.845 92.9845L358 89.8849L358 91.316L354.696 93.8023ZM356.107 84.4221C355.777 84.4221 355.522 84.5474 355.342 84.798C355.158 85.0442 354.999 85.4773 354.867 86.0972C354.735 86.7128 354.577 87.203 354.393 87.5679C354.208 87.9285 353.988 88.1967 353.733 88.3725C353.478 88.544 353.175 88.6297 352.823 88.6297C352.238 88.6297 351.744 88.3835 351.339 87.8911C350.935 87.3943 350.732 86.7611 350.732 85.9917C350.732 85.1827 350.941 84.5276 351.359 84.0264C351.777 83.5208 352.311 83.268 352.961 83.268L352.961 84.4947C352.627 84.4947 352.339 84.6376 352.097 84.9233C351.856 85.2047 351.735 85.5609 351.735 85.9917C351.735 86.4358 351.831 86.7831 352.025 87.0337C352.218 87.2843 352.471 87.4097 352.783 87.4097C353.078 87.4097 353.3 87.2931 353.449 87.0601C353.599 86.8271 353.742 86.4072 353.878 85.8005C354.014 85.1893 354.177 84.6947 354.366 84.3166C354.555 83.9385 354.784 83.6593 355.052 83.479C355.316 83.2944 355.639 83.202 356.021 83.202C356.659 83.202 357.171 83.457 357.558 83.9671C357.941 84.4771 358.132 85.1388 358.132 85.9522C358.132 86.5237 358.031 87.0293 357.829 87.469C357.626 87.9087 357.345 88.2538 356.984 88.5044C356.619 88.7506 356.226 88.8737 355.804 88.8737L355.804 87.6537C356.213 87.6317 356.538 87.469 356.78 87.1656C357.017 86.8579 357.136 86.4534 357.136 85.9522C357.136 85.4905 357.044 85.1212 356.859 84.8442C356.67 84.5628 356.419 84.4221 356.107 84.4221Z" fill="#263238"/>
<path d="M435.44 206.712L435.44 209.798L444 209.798L444 211.058L435.44 211.058L435.44 214.138L434.398 214.138L434.398 206.712L435.44 206.712ZM437.959 202.159C437.928 202.344 437.913 202.544 437.913 202.759C437.913 203.559 438.254 204.102 438.935 204.388L444 204.388L444 205.608L436.864 205.608L436.864 204.421L437.689 204.401C437.051 204.001 436.732 203.434 436.732 202.7C436.732 202.463 436.763 202.282 436.825 202.159L437.959 202.159ZM444 196.518C443.859 196.589 443.609 196.646 443.248 196.69C443.837 197.257 444.132 197.934 444.132 198.721C444.132 199.425 443.934 200.003 443.538 200.456C443.138 200.904 442.633 201.128 442.021 201.128C441.278 201.128 440.702 200.847 440.294 200.284C439.88 199.717 439.674 198.921 439.674 197.897L439.674 196.71L439.113 196.71C438.687 196.71 438.348 196.837 438.097 197.092C437.842 197.347 437.715 197.723 437.715 198.22C437.715 198.655 437.825 199.02 438.045 199.315C438.265 199.609 438.531 199.756 438.843 199.756L438.843 200.983C438.487 200.983 438.144 200.858 437.814 200.607C437.48 200.352 437.216 200.009 437.022 199.578C436.829 199.143 436.732 198.666 436.732 198.147C436.732 197.325 436.939 196.681 437.352 196.215C437.761 195.749 438.326 195.507 439.047 195.49L442.331 195.489C442.987 195.489 443.508 195.406 443.894 195.239L444 195.239L444 196.518ZM443.07 198.543C443.07 198.16 442.971 197.798 442.773 197.455C442.575 197.112 442.318 196.863 442.002 196.71L440.538 196.71L440.538 197.666C440.538 199.161 440.975 199.908 441.85 199.908C442.233 199.908 442.532 199.781 442.747 199.526C442.962 199.271 443.07 198.943 443.07 198.543ZM440.373 193.502C439.278 193.502 438.399 193.243 437.735 192.724C437.066 192.205 436.732 191.526 436.732 190.686C436.732 189.851 437.018 189.189 437.59 188.701L433.87 188.701L433.87 187.481L444 187.481L444 188.602L443.235 188.662C443.833 189.15 444.132 189.829 444.132 190.699C444.132 191.526 443.793 192.201 443.116 192.724C442.439 193.243 441.555 193.502 440.465 193.502L440.373 193.502ZM440.511 192.282C441.32 192.282 441.953 192.115 442.411 191.781C442.868 191.447 443.096 190.985 443.096 190.396C443.096 189.622 442.749 189.057 442.054 188.701L438.777 188.701C438.104 189.066 437.768 189.627 437.768 190.383C437.768 190.981 437.999 191.447 438.46 191.781C438.922 192.115 439.606 192.282 440.511 192.282ZM444.132 182.249C444.132 183.216 443.815 184.003 443.182 184.61C442.545 185.217 441.694 185.52 440.63 185.52L440.406 185.52C439.698 185.52 439.067 185.386 438.513 185.118C437.955 184.845 437.519 184.467 437.207 183.984C436.891 183.496 436.732 182.968 436.732 182.401C436.732 181.473 437.038 180.752 437.649 180.238C438.26 179.723 439.135 179.466 440.274 179.466L440.782 179.466L440.782 184.3C441.485 184.283 442.054 184.078 442.49 183.687C442.921 183.291 443.136 182.79 443.136 182.183C443.136 181.752 443.048 181.387 442.872 181.088C442.696 180.789 442.463 180.528 442.173 180.304L442.754 179.558C443.672 180.156 444.132 181.053 444.132 182.249ZM437.735 182.401C437.735 182.893 437.915 183.307 438.276 183.641C438.632 183.975 439.133 184.181 439.779 184.261L439.779 180.686L439.687 180.686C439.067 180.721 438.588 180.888 438.249 181.187C437.906 181.486 437.735 181.891 437.735 182.401ZM439.72 170.934C439.408 172.02 439.025 172.812 438.572 173.309C438.115 173.801 437.552 174.047 436.884 174.047C436.128 174.047 435.503 173.746 435.011 173.144C434.514 172.537 434.266 171.75 434.266 170.783C434.266 170.123 434.393 169.536 434.648 169.022C434.903 168.503 435.255 168.103 435.703 167.822C436.152 167.536 436.642 167.393 437.174 167.393L437.174 168.666C436.594 168.666 436.139 168.85 435.809 169.22C435.475 169.589 435.308 170.11 435.308 170.783C435.308 171.407 435.446 171.895 435.723 172.247C435.996 172.594 436.376 172.768 436.864 172.768C437.256 172.768 437.587 172.603 437.86 172.273C438.128 171.939 438.374 171.374 438.599 170.578C438.823 169.778 439.071 169.154 439.344 168.705C439.612 168.253 439.926 167.918 440.287 167.703C440.648 167.483 441.072 167.373 441.56 167.373C442.338 167.373 442.962 167.677 443.433 168.283C443.899 168.89 444.132 169.701 444.132 170.717C444.132 171.376 444.007 171.992 443.756 172.563C443.501 173.135 443.154 173.577 442.714 173.889C442.274 174.197 441.775 174.351 441.217 174.351L441.217 173.078C441.797 173.078 442.257 172.865 442.595 172.438C442.929 172.007 443.096 171.433 443.096 170.717C443.096 170.049 442.96 169.536 442.688 169.18C442.415 168.824 442.043 168.646 441.573 168.646C441.103 168.646 440.74 168.811 440.485 169.141C440.225 169.47 439.97 170.068 439.72 170.934ZM444.132 162.603C444.132 163.57 443.815 164.357 443.182 164.964C442.545 165.571 441.694 165.874 440.63 165.874L440.406 165.874C439.698 165.874 439.067 165.74 438.513 165.472C437.955 165.199 437.519 164.821 437.207 164.337C436.891 163.849 436.732 163.322 436.732 162.755C436.732 161.827 437.038 161.106 437.649 160.591C438.26 160.077 439.135 159.82 440.274 159.82L440.782 159.82L440.782 164.654C441.485 164.636 442.054 164.432 442.49 164.041C442.921 163.645 443.136 163.144 443.136 162.537C443.136 162.106 443.048 161.741 442.872 161.442C442.696 161.143 442.463 160.882 442.173 160.657L442.754 159.912C443.672 160.51 444.132 161.407 444.132 162.603ZM437.735 162.755C437.735 163.247 437.915 163.66 438.276 163.994C438.632 164.329 439.133 164.535 439.779 164.614L439.779 161.04L439.687 161.04C439.067 161.075 438.588 161.242 438.249 161.541C437.906 161.84 437.735 162.245 437.735 162.755ZM443.136 155.168C443.136 154.733 443.004 154.353 442.74 154.027C442.477 153.702 442.147 153.522 441.751 153.486L441.751 152.332C442.16 152.354 442.549 152.495 442.918 152.754C443.288 153.014 443.582 153.361 443.802 153.796C444.022 154.227 444.132 154.685 444.132 155.168C444.132 156.14 443.809 156.914 443.162 157.49C442.512 158.061 441.624 158.347 440.498 158.347L440.294 158.347C439.599 158.347 438.981 158.219 438.44 157.964C437.9 157.709 437.48 157.345 437.181 156.87C436.882 156.39 436.732 155.826 436.732 155.175C436.732 154.375 436.972 153.711 437.451 153.183C437.93 152.651 438.553 152.368 439.318 152.332L439.318 153.486C438.856 153.522 438.478 153.698 438.183 154.014C437.884 154.326 437.735 154.713 437.735 155.175C437.735 155.795 437.959 156.276 438.407 156.619C438.852 156.958 439.496 157.127 440.34 157.127L440.571 157.127C441.393 157.127 442.026 156.958 442.47 156.619C442.914 156.281 443.136 155.797 443.136 155.168ZM437.959 147.14C437.928 147.325 437.913 147.525 437.913 147.74C437.913 148.54 438.254 149.083 438.935 149.369L444 149.369L444 150.589L436.864 150.589L436.864 149.402L437.689 149.382C437.051 148.982 436.732 148.415 436.732 147.681C436.732 147.443 436.763 147.263 436.825 147.14L437.959 147.14ZM444.132 142.812C444.132 143.779 443.815 144.566 443.182 145.173C442.545 145.779 441.694 146.083 440.63 146.083L440.406 146.083C439.698 146.083 439.067 145.949 438.513 145.68C437.955 145.408 437.519 145.03 437.207 144.546C436.891 144.058 436.732 143.53 436.732 142.963C436.732 142.036 437.038 141.314 437.649 140.8C438.26 140.286 439.135 140.028 440.274 140.028L440.782 140.028L440.782 144.863C441.485 144.845 442.054 144.641 442.49 144.249C442.921 143.854 443.136 143.352 443.136 142.746C443.136 142.315 443.048 141.95 442.872 141.651C442.696 141.352 442.463 141.09 442.173 140.866L442.754 140.121C443.672 140.719 444.132 141.616 444.132 142.812ZM437.735 142.963C437.735 143.456 437.915 143.869 438.276 144.203C438.632 144.537 439.133 144.744 439.779 144.823L439.779 141.249L439.687 141.249C439.067 141.284 438.588 141.451 438.249 141.75C437.906 142.049 437.735 142.453 437.735 142.963ZM435.136 136.584L436.864 136.584L436.864 135.252L437.807 135.252L437.807 136.584L442.233 136.584C442.518 136.584 442.734 136.524 442.879 136.406C443.02 136.287 443.09 136.085 443.09 135.799C443.09 135.658 443.064 135.465 443.011 135.219L444 135.219C444.088 135.54 444.132 135.852 444.132 136.155C444.132 136.7 443.967 137.111 443.637 137.388C443.308 137.665 442.839 137.804 442.233 137.804L437.807 137.804L437.807 139.103L436.864 139.103L436.864 137.804L435.136 137.804L435.136 136.584ZM442.107 129.294C441.777 129.294 441.522 129.419 441.342 129.67C441.158 129.916 440.999 130.349 440.867 130.969C440.735 131.585 440.577 132.075 440.393 132.44C440.208 132.801 439.988 133.069 439.733 133.245C439.478 133.416 439.175 133.502 438.823 133.502C438.238 133.502 437.744 133.256 437.339 132.763C436.935 132.266 436.732 131.633 436.732 130.864C436.732 130.055 436.941 129.4 437.359 128.898C437.777 128.393 438.311 128.14 438.961 128.14L438.961 129.367C438.627 129.367 438.339 129.51 438.097 129.795C437.856 130.077 437.735 130.433 437.735 130.864C437.735 131.308 437.831 131.655 438.025 131.906C438.218 132.156 438.471 132.282 438.783 132.282C439.078 132.282 439.3 132.165 439.449 131.932C439.599 131.699 439.742 131.279 439.878 130.673C440.014 130.061 440.177 129.567 440.366 129.189C440.555 128.811 440.784 128.531 441.052 128.351C441.316 128.166 441.639 128.074 442.021 128.074C442.659 128.074 443.171 128.329 443.558 128.839C443.941 129.349 444.132 130.011 444.132 130.824C444.132 131.396 444.031 131.901 443.829 132.341C443.626 132.781 443.345 133.126 442.984 133.376C442.619 133.623 442.226 133.746 441.804 133.746L441.804 132.526C442.213 132.504 442.538 132.341 442.78 132.038C443.017 131.73 443.136 131.325 443.136 130.824C443.136 130.363 443.044 129.993 442.859 129.716C442.67 129.435 442.419 129.294 442.107 129.294Z" fill="#263238"/>
</svg>
