<svg width="902" height="432" viewBox="0 0 902 432" fill="none" xmlns="http://www.w3.org/2000/svg">
<rect x="0.64547" y="1.29195" width="893.254" height="429.709" rx="5.80923" fill="white" stroke="#E5E5E5" stroke-width="1.29094"/>
<path d="M51.8001 400.927V406.543C51.8001 407.168 51.6075 407.67 51.2222 408.048C50.8369 408.418 50.3281 408.604 49.6956 408.604C49.0559 408.604 48.5434 408.415 48.1582 408.037C47.7729 407.651 47.5803 407.128 47.5803 406.466H48.5725C48.5798 406.837 48.6743 407.139 48.856 407.372C49.045 407.604 49.3249 407.72 49.6956 407.72C50.0664 407.72 50.3426 407.611 50.5243 407.393C50.7061 407.168 50.7969 406.884 50.7969 406.543V400.927H51.8001ZM53.3842 405.518C53.3842 404.907 53.5077 404.373 53.7549 403.915C54.002 403.45 54.3401 403.09 54.769 402.835C55.2051 402.581 55.6885 402.454 56.2192 402.454C56.7426 402.454 57.1969 402.567 57.5822 402.792C57.9675 403.017 58.2546 403.301 58.4436 403.642V402.552H59.4468V408.527H58.4436V407.415C58.2473 407.764 57.9529 408.055 57.5604 408.287C57.1751 408.513 56.7244 408.625 56.2083 408.625C55.6776 408.625 55.1978 408.495 54.769 408.233C54.3401 407.971 54.002 407.604 53.7549 407.132C53.5077 406.659 53.3842 406.121 53.3842 405.518ZM58.4436 405.529C58.4436 405.078 58.3527 404.686 58.171 404.351C57.9893 404.017 57.7421 403.762 57.4295 403.588C57.1242 403.406 56.7862 403.315 56.4155 403.315C56.0447 403.315 55.7067 403.402 55.4014 403.577C55.0961 403.751 54.8526 404.006 54.6708 404.34C54.4891 404.675 54.3982 405.067 54.3982 405.518C54.3982 405.976 54.4891 406.376 54.6708 406.717C54.8526 407.052 55.0961 407.31 55.4014 407.491C55.7067 407.666 56.0447 407.753 56.4155 407.753C56.7862 407.753 57.1242 407.666 57.4295 407.491C57.7421 407.31 57.9893 407.052 58.171 406.717C58.3527 406.376 58.4436 405.979 58.4436 405.529ZM64.0349 402.443C64.7619 402.443 65.3507 402.665 65.8014 403.108C66.2521 403.544 66.4774 404.177 66.4774 405.005V408.527H65.4961V405.147C65.4961 404.551 65.3471 404.097 65.049 403.784C64.751 403.464 64.3439 403.304 63.8278 403.304C63.3044 403.304 62.8864 403.468 62.5738 403.795C62.2685 404.122 62.1158 404.598 62.1158 405.223V408.527H61.1236V402.552H62.1158V403.402C62.3121 403.097 62.5775 402.861 62.9118 402.694C63.2535 402.527 63.6279 402.443 64.0349 402.443ZM73.3976 402.552V408.527H72.4054V407.644C72.2164 407.949 71.951 408.189 71.6094 408.364C71.275 408.531 70.9043 408.615 70.4972 408.615C70.0319 408.615 69.614 408.52 69.2432 408.331C68.8725 408.135 68.5781 407.844 68.36 407.459C68.1492 407.073 68.0438 406.605 68.0438 406.052V402.552H69.0251V405.921C69.0251 406.51 69.1742 406.964 69.4722 407.284C69.7702 407.597 70.1773 407.753 70.6934 407.753C71.2241 407.753 71.6421 407.59 71.9474 407.262C72.2527 406.935 72.4054 406.459 72.4054 405.834V402.552H73.3976ZM74.7023 405.518C74.7023 404.907 74.8259 404.373 75.073 403.915C75.3202 403.45 75.6582 403.09 76.0871 402.835C76.5232 402.581 77.0066 402.454 77.5373 402.454C78.0607 402.454 78.515 402.567 78.9003 402.792C79.2856 403.017 79.5727 403.301 79.7617 403.642V402.552H80.7649V408.527H79.7617V407.415C79.5654 407.764 79.271 408.055 78.8785 408.287C78.4932 408.513 78.0425 408.625 77.5264 408.625C76.9957 408.625 76.516 408.495 76.0871 408.233C75.6582 407.971 75.3202 407.604 75.073 407.132C74.8259 406.659 74.7023 406.121 74.7023 405.518ZM79.7617 405.529C79.7617 405.078 79.6709 404.686 79.4891 404.351C79.3074 404.017 79.0602 403.762 78.7476 403.588C78.4423 403.406 78.1043 403.315 77.7336 403.315C77.3628 403.315 77.0248 403.402 76.7195 403.577C76.4142 403.751 76.1707 404.006 75.9889 404.34C75.8072 404.675 75.7163 405.067 75.7163 405.518C75.7163 405.976 75.8072 406.376 75.9889 406.717C76.1707 407.052 76.4142 407.31 76.7195 407.491C77.0248 407.666 77.3628 407.753 77.7336 407.753C78.1043 407.753 78.4423 407.666 78.7476 407.491C79.0602 407.31 79.3074 407.052 79.4891 406.717C79.6709 406.376 79.7617 405.979 79.7617 405.529ZM83.434 403.522C83.6084 403.181 83.8556 402.915 84.1754 402.726C84.5026 402.537 84.8987 402.443 85.364 402.443V403.468H85.1023C83.9901 403.468 83.434 404.071 83.434 405.278V408.527H82.4417V402.552H83.434V403.522ZM91.6561 402.552L88.0578 411.341H87.0328L88.2104 408.462L85.8006 402.552H86.9019L88.7774 407.393L90.6311 402.552H91.6561Z" fill="#92959E"/>
<path d="M163.615 400.927V401.734H160.311V404.297H162.994V405.103H160.311V408.527H159.319V400.927H163.615ZM170.266 405.311C170.266 405.5 170.255 405.7 170.233 405.91H165.457C165.493 406.499 165.693 406.961 166.057 407.295C166.427 407.622 166.874 407.786 167.398 407.786C167.827 407.786 168.183 407.688 168.466 407.491C168.757 407.288 168.961 407.019 169.077 406.685H170.146C169.986 407.259 169.666 407.728 169.186 408.091C168.706 408.447 168.11 408.625 167.398 408.625C166.831 408.625 166.322 408.498 165.871 408.244C165.428 407.989 165.079 407.63 164.824 407.164C164.57 406.692 164.443 406.147 164.443 405.529C164.443 404.911 164.566 404.369 164.814 403.904C165.061 403.439 165.406 403.083 165.849 402.835C166.3 402.581 166.816 402.454 167.398 402.454C167.965 402.454 168.466 402.577 168.903 402.825C169.339 403.072 169.673 403.413 169.906 403.85C170.146 404.278 170.266 404.765 170.266 405.311ZM169.241 405.103C169.241 404.725 169.157 404.402 168.99 404.133C168.823 403.857 168.594 403.65 168.303 403.512C168.019 403.366 167.703 403.293 167.354 403.293C166.853 403.293 166.424 403.453 166.067 403.773C165.719 404.093 165.519 404.536 165.468 405.103H169.241ZM172.568 403.664C172.771 403.308 173.069 403.017 173.462 402.792C173.854 402.567 174.301 402.454 174.803 402.454C175.341 402.454 175.824 402.581 176.253 402.835C176.682 403.09 177.02 403.45 177.267 403.915C177.514 404.373 177.638 404.907 177.638 405.518C177.638 406.121 177.514 406.659 177.267 407.132C177.02 407.604 176.678 407.971 176.242 408.233C175.813 408.495 175.334 408.625 174.803 408.625C174.287 408.625 173.832 408.513 173.44 408.287C173.055 408.062 172.764 407.775 172.568 407.426V408.527H171.575V400.458H172.568V403.664ZM176.624 405.518C176.624 405.067 176.533 404.675 176.351 404.34C176.169 404.006 175.922 403.751 175.61 403.577C175.304 403.402 174.966 403.315 174.596 403.315C174.232 403.315 173.894 403.406 173.582 403.588C173.276 403.762 173.029 404.02 172.84 404.362C172.658 404.696 172.568 405.085 172.568 405.529C172.568 405.979 172.658 406.376 172.84 406.717C173.029 407.052 173.276 407.31 173.582 407.491C173.894 407.666 174.232 407.753 174.596 407.753C174.966 407.753 175.304 407.666 175.61 407.491C175.922 407.31 176.169 407.052 176.351 406.717C176.533 406.376 176.624 405.976 176.624 405.518ZM179.936 403.522C180.111 403.181 180.358 402.915 180.678 402.726C181.005 402.537 181.401 402.443 181.866 402.443V403.468H181.605C180.492 403.468 179.936 404.071 179.936 405.278V408.527H178.944V402.552H179.936V403.522ZM188.311 402.552V408.527H187.319V407.644C187.13 407.949 186.864 408.189 186.523 408.364C186.188 408.531 185.818 408.615 185.411 408.615C184.945 408.615 184.527 408.52 184.157 408.331C183.786 408.135 183.491 407.844 183.273 407.459C183.063 407.073 182.957 406.605 182.957 406.052V402.552H183.939V405.921C183.939 406.51 184.088 406.964 184.386 407.284C184.684 407.597 185.091 407.753 185.607 407.753C186.137 407.753 186.555 407.59 186.861 407.262C187.166 406.935 187.319 406.459 187.319 405.834V402.552H188.311ZM189.616 405.518C189.616 404.907 189.739 404.373 189.986 403.915C190.234 403.45 190.572 403.09 191 402.835C191.437 402.581 191.92 402.454 192.451 402.454C192.974 402.454 193.428 402.567 193.814 402.792C194.199 403.017 194.486 403.301 194.675 403.642V402.552H195.678V408.527H194.675V407.415C194.479 407.764 194.184 408.055 193.792 408.287C193.407 408.513 192.956 408.625 192.44 408.625C191.909 408.625 191.429 408.495 191 408.233C190.572 407.971 190.234 407.604 189.986 407.132C189.739 406.659 189.616 406.121 189.616 405.518ZM194.675 405.529C194.675 405.078 194.584 404.686 194.402 404.351C194.221 404.017 193.974 403.762 193.661 403.588C193.356 403.406 193.018 403.315 192.647 403.315C192.276 403.315 191.938 403.402 191.633 403.577C191.328 403.751 191.084 404.006 190.902 404.34C190.721 404.675 190.63 405.067 190.63 405.518C190.63 405.976 190.721 406.376 190.902 406.717C191.084 407.052 191.328 407.31 191.633 407.491C191.938 407.666 192.276 407.753 192.647 407.753C193.018 407.753 193.356 407.666 193.661 407.491C193.974 407.31 194.221 407.052 194.402 406.717C194.584 406.376 194.675 405.979 194.675 405.529ZM198.347 403.522C198.522 403.181 198.769 402.915 199.089 402.726C199.416 402.537 199.812 402.443 200.277 402.443V403.468H200.016C198.903 403.468 198.347 404.071 198.347 405.278V408.527H197.355V402.552H198.347V403.522ZM206.569 402.552L202.971 411.341H201.946L203.124 408.462L200.714 402.552H201.815L203.691 407.393L205.544 402.552H206.569Z" fill="#92959E"/>
<path d="M285.132 400.982V408.527H284.14V402.901L281.632 408.527H280.934L278.415 402.89V408.527H277.423V400.982H278.492L281.283 407.219L284.075 400.982H285.132ZM286.444 405.518C286.444 404.907 286.568 404.373 286.815 403.915C287.062 403.45 287.4 403.09 287.829 402.835C288.265 402.581 288.749 402.454 289.279 402.454C289.803 402.454 290.257 402.567 290.642 402.792C291.028 403.017 291.315 403.301 291.504 403.642V402.552H292.507V408.527H291.504V407.415C291.307 407.764 291.013 408.055 290.621 408.287C290.235 408.513 289.785 408.625 289.268 408.625C288.738 408.625 288.258 408.495 287.829 408.233C287.4 407.971 287.062 407.604 286.815 407.132C286.568 406.659 286.444 406.121 286.444 405.518ZM291.504 405.529C291.504 405.078 291.413 404.686 291.231 404.351C291.049 404.017 290.802 403.762 290.49 403.588C290.184 403.406 289.846 403.315 289.476 403.315C289.105 403.315 288.767 403.402 288.462 403.577C288.156 403.751 287.913 404.006 287.731 404.34C287.549 404.675 287.458 405.067 287.458 405.518C287.458 405.976 287.549 406.376 287.731 406.717C287.913 407.052 288.156 407.31 288.462 407.491C288.767 407.666 289.105 407.753 289.476 407.753C289.846 407.753 290.184 407.666 290.49 407.491C290.802 407.31 291.049 407.052 291.231 406.717C291.413 406.376 291.504 405.979 291.504 405.529ZM295.176 403.522C295.35 403.181 295.598 402.915 295.917 402.726C296.245 402.537 296.641 402.443 297.106 402.443V403.468H296.844C295.732 403.468 295.176 404.071 295.176 405.278V408.527H294.184V402.552H295.176V403.522ZM297.881 405.529C297.881 404.911 298.004 404.373 298.251 403.915C298.499 403.45 298.84 403.09 299.276 402.835C299.72 402.581 300.225 402.454 300.792 402.454C301.526 402.454 302.13 402.632 302.602 402.988C303.082 403.344 303.398 403.839 303.551 404.471H302.482C302.38 404.108 302.18 403.82 301.882 403.61C301.592 403.399 301.228 403.293 300.792 403.293C300.225 403.293 299.767 403.49 299.418 403.882C299.069 404.268 298.895 404.816 298.895 405.529C298.895 406.248 299.069 406.805 299.418 407.197C299.767 407.59 300.225 407.786 300.792 407.786C301.228 407.786 301.592 407.684 301.882 407.481C302.173 407.277 302.373 406.986 302.482 406.608H303.551C303.391 407.219 303.071 407.71 302.591 408.08C302.111 408.444 301.512 408.625 300.792 408.625C300.225 408.625 299.72 408.498 299.276 408.244C298.84 407.989 298.499 407.63 298.251 407.164C298.004 406.699 297.881 406.154 297.881 405.529ZM307.841 402.443C308.291 402.443 308.698 402.541 309.062 402.737C309.425 402.926 309.709 403.213 309.912 403.599C310.123 403.984 310.229 404.453 310.229 405.005V408.527H309.247V405.147C309.247 404.551 309.098 404.097 308.8 403.784C308.502 403.464 308.095 403.304 307.579 403.304C307.056 403.304 306.638 403.468 306.325 403.795C306.02 404.122 305.867 404.598 305.867 405.223V408.527H304.875V400.458H305.867V403.402C306.063 403.097 306.332 402.861 306.674 402.694C307.023 402.527 307.412 402.443 307.841 402.443Z" fill="#92959E"/>
<path d="M400.183 406.837H396.868L396.258 408.527H395.211L397.959 400.971H399.104L401.841 408.527H400.794L400.183 406.837ZM399.9 406.03L398.526 402.192L397.152 406.03H399.9ZM404.03 403.653C404.227 403.312 404.517 403.028 404.903 402.803C405.295 402.57 405.75 402.454 406.266 402.454C406.796 402.454 407.276 402.581 407.705 402.835C408.141 403.09 408.483 403.45 408.73 403.915C408.977 404.373 409.101 404.907 409.101 405.518C409.101 406.121 408.977 406.659 408.73 407.132C408.483 407.604 408.141 407.971 407.705 408.233C407.276 408.495 406.796 408.625 406.266 408.625C405.757 408.625 405.306 408.513 404.914 408.287C404.528 408.055 404.234 407.768 404.03 407.426V411.362H403.038V402.552H404.03V403.653ZM408.087 405.518C408.087 405.067 407.996 404.675 407.814 404.34C407.632 404.006 407.385 403.751 407.073 403.577C406.767 403.402 406.429 403.315 406.059 403.315C405.695 403.315 405.357 403.406 405.044 403.588C404.739 403.762 404.492 404.02 404.303 404.362C404.121 404.696 404.03 405.085 404.03 405.529C404.03 405.979 404.121 406.376 404.303 406.717C404.492 407.052 404.739 407.31 405.044 407.491C405.357 407.666 405.695 407.753 406.059 407.753C406.429 407.753 406.767 407.666 407.073 407.491C407.385 407.31 407.632 407.052 407.814 406.717C407.996 406.376 408.087 405.976 408.087 405.518ZM411.399 403.522C411.574 403.181 411.821 402.915 412.141 402.726C412.468 402.537 412.864 402.443 413.329 402.443V403.468H413.067C411.955 403.468 411.399 404.071 411.399 405.278V408.527H410.407V402.552H411.399V403.522ZM414.987 401.582C414.798 401.582 414.638 401.516 414.507 401.385C414.376 401.254 414.311 401.094 414.311 400.905C414.311 400.716 414.376 400.557 414.507 400.426C414.638 400.295 414.798 400.229 414.987 400.229C415.169 400.229 415.321 400.295 415.445 400.426C415.576 400.557 415.641 400.716 415.641 400.905C415.641 401.094 415.576 401.254 415.445 401.385C415.321 401.516 415.169 401.582 414.987 401.582ZM415.467 402.552V408.527H414.475V402.552H415.467ZM418.15 400.458V408.527H417.158V400.458H418.15Z" fill="#92959E"/>
<path d="M518.443 400.982V408.527H517.451V402.901L514.943 408.527H514.245L511.727 402.89V408.527H510.734V400.982H511.803L514.594 407.219L517.386 400.982H518.443ZM519.756 405.518C519.756 404.907 519.879 404.373 520.126 403.915C520.373 403.45 520.711 403.09 521.14 402.835C521.576 402.581 522.06 402.454 522.591 402.454C523.114 402.454 523.568 402.567 523.954 402.792C524.339 403.017 524.626 403.301 524.815 403.642V402.552H525.818V408.527H524.815V407.415C524.619 407.764 524.324 408.055 523.932 408.287C523.546 408.513 523.096 408.625 522.58 408.625C522.049 408.625 521.569 408.495 521.14 408.233C520.711 407.971 520.373 407.604 520.126 407.132C519.879 406.659 519.756 406.121 519.756 405.518ZM524.815 405.529C524.815 405.078 524.724 404.686 524.542 404.351C524.361 404.017 524.113 403.762 523.801 403.588C523.496 403.406 523.158 403.315 522.787 403.315C522.416 403.315 522.078 403.402 521.773 403.577C521.467 403.751 521.224 404.006 521.042 404.34C520.86 404.675 520.77 405.067 520.77 405.518C520.77 405.976 520.86 406.376 521.042 406.717C521.224 407.052 521.467 407.31 521.773 407.491C522.078 407.666 522.416 407.753 522.787 407.753C523.158 407.753 523.496 407.666 523.801 407.491C524.113 407.31 524.361 407.052 524.542 406.717C524.724 406.376 524.815 405.979 524.815 405.529ZM532.642 402.552L529.043 411.341H528.018L529.196 408.462L526.786 402.552H527.887L529.763 407.393L531.617 402.552H532.642Z" fill="#92959E"/>
<path d="M610.743 400.927V406.543C610.743 407.168 610.55 407.67 610.165 408.048C609.78 408.418 609.271 408.604 608.639 408.604C607.999 408.604 607.486 408.415 607.101 408.037C606.716 407.651 606.523 407.128 606.523 406.466H607.515C607.523 406.837 607.617 407.139 607.799 407.372C607.988 407.604 608.268 407.72 608.639 407.72C609.009 407.72 609.286 407.611 609.467 407.393C609.649 407.168 609.74 406.884 609.74 406.543V400.927H610.743ZM617.997 402.552V408.527H617.005V407.644C616.816 407.949 616.551 408.189 616.209 408.364C615.875 408.531 615.504 408.615 615.097 408.615C614.632 408.615 614.214 408.52 613.843 408.331C613.472 408.135 613.178 407.844 612.96 407.459C612.749 407.073 612.643 406.605 612.643 406.052V402.552H613.625V405.921C613.625 406.51 613.774 406.964 614.072 407.284C614.37 407.597 614.777 407.753 615.293 407.753C615.824 407.753 616.242 407.59 616.547 407.262C616.852 406.935 617.005 406.459 617.005 405.834V402.552H617.997ZM622.584 402.443C623.311 402.443 623.9 402.665 624.35 403.108C624.801 403.544 625.026 404.177 625.026 405.005V408.527H624.045V405.147C624.045 404.551 623.896 404.097 623.598 403.784C623.3 403.464 622.893 403.304 622.377 403.304C621.853 403.304 621.435 403.468 621.123 403.795C620.817 404.122 620.665 404.598 620.665 405.223V408.527H619.673V402.552H620.665V403.402C620.861 403.097 621.126 402.861 621.461 402.694C621.802 402.527 622.177 402.443 622.584 402.443ZM632.099 405.311C632.099 405.5 632.088 405.7 632.067 405.91H627.291C627.327 406.499 627.527 406.961 627.89 407.295C628.261 407.622 628.708 407.786 629.232 407.786C629.66 407.786 630.017 407.688 630.3 407.491C630.591 407.288 630.794 407.019 630.911 406.685H631.979C631.819 407.259 631.5 407.728 631.02 408.091C630.54 408.447 629.944 408.625 629.232 408.625C628.665 408.625 628.156 408.498 627.705 408.244C627.262 407.989 626.913 407.63 626.658 407.164C626.404 406.692 626.277 406.147 626.277 405.529C626.277 404.911 626.4 404.369 626.647 403.904C626.894 403.439 627.24 403.083 627.683 402.835C628.134 402.581 628.65 402.454 629.232 402.454C629.799 402.454 630.3 402.577 630.736 402.825C631.172 403.072 631.507 403.413 631.739 403.85C631.979 404.278 632.099 404.765 632.099 405.311ZM631.074 405.103C631.074 404.725 630.991 404.402 630.824 404.133C630.656 403.857 630.427 403.65 630.137 403.512C629.853 403.366 629.537 403.293 629.188 403.293C628.686 403.293 628.257 403.453 627.901 403.773C627.552 404.093 627.352 404.536 627.302 405.103H631.074Z" fill="#92959E"/>
<path d="M69.0548 36.421H71.0013V46.8191C71.0013 48.2244 70.5777 49.3237 69.7305 50.1171C68.8901 50.9105 67.7672 51.3072 66.362 51.3072C64.903 51.3072 63.7667 50.934 62.9531 50.1877C62.1396 49.4414 61.7328 48.3958 61.7328 47.0511H63.6692C63.6692 47.8916 63.8978 48.5471 64.355 49.0178C64.8189 49.4884 65.4879 49.7238 66.362 49.7238C67.1621 49.7238 67.8076 49.4716 68.2984 48.9673C68.796 48.4631 69.0481 47.7571 69.0548 46.8494V36.421ZM74.0806 45.5484C74.0806 44.4793 74.289 43.5178 74.7059 42.6639C75.1295 41.81 75.7145 41.1511 76.4608 40.6872C77.2138 40.2232 78.0711 39.9913 79.0326 39.9913C80.5185 39.9913 81.7187 40.5056 82.6331 41.5344C83.5542 42.5631 84.0148 43.9313 84.0148 45.6391V45.7703C84.0148 46.8326 83.8097 47.7874 83.3996 48.6345C82.9962 49.475 82.4146 50.1305 81.6548 50.6012C80.9017 51.0719 80.0344 51.3072 79.0527 51.3072C77.5735 51.3072 76.3734 50.7928 75.4522 49.7641C74.5378 48.7354 74.0806 47.3738 74.0806 45.6795V45.5484ZM75.9565 45.7703C75.9565 46.9805 76.2355 47.9521 76.7936 48.685C77.3584 49.4178 78.1114 49.7843 79.0527 49.7843C80.0008 49.7843 80.7538 49.4145 81.3119 48.6749C81.87 47.9285 82.149 46.8864 82.149 45.5484C82.149 44.3516 81.8632 43.3834 81.2917 42.6438C80.7269 41.8974 79.9739 41.5243 79.0326 41.5243C78.1114 41.5243 77.3685 41.8907 76.8037 42.6236C76.2389 43.3565 75.9565 44.4054 75.9565 45.7703ZM96.1609 45.7703C96.1609 47.4377 95.7777 48.7791 95.0112 49.7944C94.2447 50.8029 93.216 51.3072 91.925 51.3072C90.5467 51.3072 89.481 50.8197 88.7279 49.8448L88.6372 51.1055H86.9226V35.6142H88.7885V41.3932C89.5415 40.4586 90.5803 39.9913 91.9049 39.9913C93.2294 39.9913 94.2682 40.4922 95.0213 41.494C95.781 42.4958 96.1609 43.8675 96.1609 45.6089V45.7703ZM94.2951 45.5585C94.2951 44.2877 94.0497 43.306 93.5589 42.6135C93.0681 41.921 92.3621 41.5747 91.4409 41.5747C90.2105 41.5747 89.3263 42.1462 88.7885 43.2892V48.0092C89.36 49.1522 90.2508 49.7238 91.4611 49.7238C92.3553 49.7238 93.0512 49.3775 93.5488 48.685C94.0463 47.9924 94.2951 46.9503 94.2951 45.5585ZM105.443 48.2109C105.443 47.7067 105.251 47.3167 104.868 47.041C104.491 46.7586 103.829 46.5166 102.881 46.3149C101.94 46.1132 101.19 45.8711 100.632 45.5887C100.081 45.3063 99.6705 44.9701 99.4016 44.5802C99.1394 44.1902 99.0083 43.7263 99.0083 43.1884C99.0083 42.2941 99.3848 41.5377 100.138 40.9191C100.898 40.3006 101.866 39.9913 103.042 39.9913C104.28 39.9913 105.281 40.3107 106.048 40.9494C106.821 41.5881 107.208 42.4051 107.208 43.4002H105.332C105.332 42.8892 105.113 42.4488 104.676 42.079C104.246 41.7092 103.701 41.5243 103.042 41.5243C102.363 41.5243 101.832 41.6722 101.449 41.968C101.066 42.2639 100.874 42.6505 100.874 43.1279C100.874 43.5783 101.052 43.9179 101.409 44.1465C101.765 44.3751 102.407 44.5936 103.335 44.8021C104.27 45.0105 105.026 45.2593 105.604 45.5484C106.182 45.8375 106.609 46.1871 106.885 46.5973C107.167 47.0007 107.309 47.4949 107.309 48.0798C107.309 49.0548 106.919 49.8381 106.139 50.4297C105.359 51.0147 104.347 51.3072 103.103 51.3072C102.229 51.3072 101.456 51.1525 100.783 50.8432C100.111 50.534 99.5831 50.1036 99.1999 49.5523C98.8234 48.9942 98.6351 48.3925 98.6351 47.747H100.501C100.535 48.3723 100.783 48.8699 101.247 49.2397C101.718 49.6027 102.336 49.7843 103.103 49.7843C103.809 49.7843 104.374 49.6431 104.797 49.3607C105.228 49.0716 105.443 48.6883 105.443 48.2109ZM127.093 46.446C126.911 47.9991 126.336 49.1993 125.368 50.0465C124.407 50.887 123.126 51.3072 121.525 51.3072C119.791 51.3072 118.399 50.6852 117.35 49.4414C116.308 48.1975 115.787 46.5334 115.787 44.4491V43.0371C115.787 41.6722 116.029 40.472 116.513 39.4366C117.004 38.4011 117.696 37.6078 118.591 37.0564C119.485 36.4984 120.52 36.2193 121.697 36.2193C123.257 36.2193 124.507 36.6564 125.449 37.5304C126.39 38.3978 126.938 39.6013 127.093 41.141H125.146C124.978 39.9711 124.612 39.1239 124.047 38.5995C123.489 38.075 122.705 37.8128 121.697 37.8128C120.46 37.8128 119.488 38.27 118.782 39.1844C118.083 40.0989 117.733 41.3999 117.733 43.0875V44.5096C117.733 46.1031 118.066 47.3705 118.732 48.3118C119.397 49.2531 120.329 49.7238 121.525 49.7238C122.601 49.7238 123.425 49.4817 123.996 48.9976C124.575 48.5068 124.958 47.6562 125.146 46.446H127.093ZM135.295 41.8672C135.013 41.8201 134.707 41.7966 134.378 41.7966C133.154 41.7966 132.324 42.3177 131.886 43.3598V51.1055H130.021V40.193H131.836L131.866 41.4537C132.478 40.4787 133.346 39.9913 134.468 39.9913C134.831 39.9913 135.107 40.0383 135.295 40.1325V41.8672ZM141.915 51.3072C140.435 51.3072 139.232 50.8231 138.304 49.8549C137.376 48.8799 136.912 47.5789 136.912 45.9518V45.6089C136.912 44.5264 137.117 43.5615 137.527 42.7144C137.944 41.8605 138.523 41.1948 139.262 40.7174C140.009 40.2333 140.815 39.9913 141.683 39.9913C143.101 39.9913 144.204 40.4586 144.991 41.3932C145.777 42.3278 146.171 43.6658 146.171 45.4072V46.1838H138.778C138.805 47.2595 139.118 48.1303 139.716 48.7959C140.321 49.4548 141.088 49.7843 142.016 49.7843C142.674 49.7843 143.232 49.6498 143.69 49.3809C144.147 49.1119 144.547 48.7556 144.89 48.3118L146.03 49.1993C145.115 50.6046 143.743 51.3072 141.915 51.3072ZM141.683 41.5243C140.93 41.5243 140.298 41.7999 139.787 42.3513C139.276 42.8959 138.96 43.6624 138.839 44.6508H144.305V44.5096C144.251 43.5615 143.996 42.8287 143.538 42.3109C143.081 41.7865 142.463 41.5243 141.683 41.5243ZM155.644 51.1055C155.537 50.8903 155.449 50.5071 155.382 49.9557C154.515 50.8567 153.479 51.3072 152.276 51.3072C151.2 51.3072 150.316 51.0046 149.623 50.3995C148.937 49.7876 148.594 49.0144 148.594 48.0798C148.594 46.9435 149.025 46.0627 149.885 45.4374C150.753 44.8054 151.97 44.4894 153.536 44.4894H155.352V43.6321C155.352 42.9799 155.157 42.4622 154.767 42.079C154.377 41.689 153.802 41.494 153.042 41.494C152.377 41.494 151.818 41.6621 151.368 41.9983C150.917 42.3345 150.692 42.7413 150.692 43.2186H148.816C148.816 42.674 149.008 42.1496 149.391 41.6453C149.781 41.1343 150.306 40.7309 150.965 40.435C151.63 40.1392 152.36 39.9913 153.153 39.9913C154.41 39.9913 155.395 40.3073 156.108 40.9393C156.821 41.5646 157.191 42.4286 157.218 43.5313V48.5538C157.218 49.5557 157.345 50.3524 157.601 50.9441V51.1055H155.644ZM152.548 49.6834C153.133 49.6834 153.688 49.5321 154.212 49.2296C154.737 48.927 155.116 48.5337 155.352 48.0496V45.8106H153.889C151.603 45.8106 150.46 46.4796 150.46 47.8176C150.46 48.4026 150.655 48.8598 151.045 49.1892C151.435 49.5187 151.936 49.6834 152.548 49.6834ZM163.242 37.5506V40.193H165.279V41.6352H163.242V48.4026C163.242 48.8396 163.333 49.1691 163.514 49.3909C163.696 49.6061 164.005 49.7137 164.442 49.7137C164.657 49.7137 164.953 49.6733 165.329 49.5926V51.1055C164.839 51.2399 164.361 51.3072 163.897 51.3072C163.064 51.3072 162.435 51.055 162.011 50.5508C161.588 50.0465 161.376 49.3304 161.376 48.4026V41.6352H159.389V40.193H161.376V37.5506H163.242ZM172.564 51.3072C171.085 51.3072 169.881 50.8231 168.953 49.8549C168.026 48.8799 167.562 47.5789 167.562 45.9518V45.6089C167.562 44.5264 167.767 43.5615 168.177 42.7144C168.594 41.8605 169.172 41.1948 169.912 40.7174C170.658 40.2333 171.465 39.9913 172.332 39.9913C173.751 39.9913 174.853 40.4586 175.64 41.3932C176.427 42.3278 176.82 43.6658 176.82 45.4072V46.1838H169.427C169.454 47.2595 169.767 48.1303 170.365 48.7959C170.97 49.4548 171.737 49.7843 172.665 49.7843C173.324 49.7843 173.882 49.6498 174.339 49.3809C174.796 49.1119 175.196 48.7556 175.539 48.3118L176.679 49.1993C175.764 50.6046 174.393 51.3072 172.564 51.3072ZM172.332 41.5243C171.579 41.5243 170.947 41.7999 170.436 42.3513C169.925 42.8959 169.609 43.6624 169.488 44.6508H174.954V44.5096C174.9 43.5615 174.645 42.8287 174.188 42.3109C173.731 41.7865 173.112 41.5243 172.332 41.5243ZM179.103 45.5585C179.103 43.8843 179.499 42.5395 180.293 41.5243C181.086 40.5023 182.125 39.9913 183.409 39.9913C184.687 39.9913 185.698 40.4283 186.445 41.3024V35.6142H188.311V51.1055H186.596L186.505 49.9356C185.759 50.85 184.72 51.3072 183.389 51.3072C182.125 51.3072 181.093 50.7895 180.293 49.754C179.499 48.7186 179.103 47.3671 179.103 45.6997V45.5585ZM180.968 45.7703C180.968 47.0074 181.224 47.9756 181.735 48.6749C182.246 49.3741 182.952 49.7238 183.853 49.7238C185.036 49.7238 185.9 49.1926 186.445 48.1303V43.1178C185.887 42.0891 185.029 41.5747 183.873 41.5747C182.959 41.5747 182.246 41.9277 181.735 42.6337C181.224 43.3397 180.968 44.3852 180.968 45.7703ZM206.693 45.7703C206.693 47.431 206.313 48.769 205.553 49.7843C204.793 50.7995 203.765 51.3072 202.467 51.3072C201.142 51.3072 200.1 50.887 199.341 50.0465V55.301H197.475V40.193H199.179L199.27 41.4032C200.03 40.4619 201.085 39.9913 202.437 39.9913C203.748 39.9913 204.783 40.4855 205.543 41.4738C206.31 42.4622 206.693 43.8372 206.693 45.5988V45.7703ZM204.827 45.5585C204.827 44.328 204.565 43.3565 204.04 42.6438C203.516 41.9311 202.796 41.5747 201.882 41.5747C200.752 41.5747 199.905 42.0756 199.341 43.0774V48.2916C199.899 49.2867 200.752 49.7843 201.902 49.7843C202.796 49.7843 203.506 49.4313 204.03 48.7253C204.561 48.0126 204.827 46.957 204.827 45.5585ZM214.169 51.3072C212.69 51.3072 211.487 50.8231 210.559 49.8549C209.631 48.8799 209.167 47.5789 209.167 45.9518V45.6089C209.167 44.5264 209.372 43.5615 209.782 42.7144C210.199 41.8605 210.777 41.1948 211.517 40.7174C212.263 40.2333 213.07 39.9913 213.937 39.9913C215.356 39.9913 216.459 40.4586 217.245 41.3932C218.032 42.3278 218.425 43.6658 218.425 45.4072V46.1838H211.033C211.06 47.2595 211.372 48.1303 211.971 48.7959C212.576 49.4548 213.342 49.7843 214.27 49.7843C214.929 49.7843 215.487 49.6498 215.944 49.3809C216.402 49.1119 216.802 48.7556 217.145 48.3118L218.284 49.1993C217.37 50.6046 215.998 51.3072 214.169 51.3072ZM213.937 41.5243C213.184 41.5243 212.552 41.7999 212.041 42.3513C211.53 42.8959 211.214 43.6624 211.093 44.6508H216.56V44.5096C216.506 43.5615 216.25 42.8287 215.793 42.3109C215.336 41.7865 214.717 41.5243 213.937 41.5243ZM226.437 41.8672C226.154 41.8201 225.848 41.7966 225.519 41.7966C224.295 41.7966 223.465 42.3177 223.028 43.3598V51.1055H221.162V40.193H222.977L223.007 41.4537C223.619 40.4787 224.487 39.9913 225.61 39.9913C225.973 39.9913 226.248 40.0383 226.437 40.1325V41.8672ZM237.214 36.421L242.015 48.4026L246.816 36.421H249.327V51.1055H247.39V45.387L247.572 39.2147L242.751 51.1055H241.269L236.458 39.245L236.649 45.387V51.1055H234.713V36.421H237.214ZM252.527 45.5484C252.527 44.4793 252.736 43.5178 253.153 42.6639C253.576 41.81 254.161 41.1511 254.907 40.6872C255.66 40.2232 256.518 39.9913 257.479 39.9913C258.965 39.9913 260.165 40.5056 261.08 41.5344C262.001 42.5631 262.461 43.9313 262.461 45.6391V45.7703C262.461 46.8326 262.256 47.7874 261.846 48.6345C261.443 49.475 260.861 50.1305 260.101 50.6012C259.348 51.0719 258.481 51.3072 257.499 51.3072C256.02 51.3072 254.82 50.7928 253.899 49.7641C252.984 48.7354 252.527 47.3738 252.527 45.6795V45.5484ZM254.403 45.7703C254.403 46.9805 254.682 47.9521 255.24 48.685C255.805 49.4178 256.558 49.7843 257.499 49.7843C258.447 49.7843 259.2 49.4145 259.758 48.6749C260.317 47.9285 260.596 46.8864 260.596 45.5484C260.596 44.3516 260.31 43.3834 259.738 42.6438C259.174 41.8974 258.42 41.5243 257.479 41.5243C256.558 41.5243 255.815 41.8907 255.25 42.6236C254.686 43.3565 254.403 44.4054 254.403 45.7703ZM267.134 40.193L267.195 41.5646C268.028 40.5157 269.118 39.9913 270.462 39.9913C272.769 39.9913 273.932 41.2923 273.952 43.8944V51.1055H272.086V43.8843C272.079 43.0976 271.898 42.516 271.542 42.1395C271.192 41.763 270.644 41.5747 269.898 41.5747C269.292 41.5747 268.761 41.7361 268.304 42.0588C267.847 42.3815 267.491 42.8051 267.235 43.3296V51.1055H265.369V40.193H267.134ZM279.865 37.5506V40.193H281.903V41.6352H279.865V48.4026C279.865 48.8396 279.956 49.1691 280.138 49.3909C280.319 49.6061 280.628 49.7137 281.065 49.7137C281.281 49.7137 281.576 49.6733 281.953 49.5926V51.1055C281.462 51.2399 280.985 51.3072 280.521 51.3072C279.687 51.3072 279.058 51.055 278.635 50.5508C278.211 50.0465 277.999 49.3304 277.999 48.4026V41.6352H276.013V40.193H277.999V37.5506H279.865ZM286.525 41.5142C287.352 40.4989 288.428 39.9913 289.752 39.9913C292.058 39.9913 293.222 41.2923 293.242 43.8944V51.1055H291.376V43.8843C291.369 43.0976 291.188 42.516 290.831 42.1395C290.482 41.763 289.934 41.5747 289.187 41.5747C288.582 41.5747 288.051 41.7361 287.594 42.0588C287.137 42.3815 286.78 42.8051 286.525 43.3296V51.1055H284.659V35.6142H286.525V41.5142Z" fill="#263238"/>
<g opacity="0.24">
<rect x="46.5911" y="201.602" width="20.2363" height="174.718" fill="#3AA959"/>
</g>
<g opacity="0.64">
<rect x="46.5909" y="196.438" width="20.2363" height="2.58188" fill="#3AA959"/>
</g>
<g opacity="0.24">
<rect x="68.9722" y="204.184" width="20.2363" height="172.136" fill="#3AA959"/>
</g>
<g opacity="0.64">
<rect x="68.972" y="199.02" width="20.2363" height="2.58188" fill="#3AA959"/>
</g>
<g opacity="0.24">
<rect x="91.3527" y="199.02" width="20.2363" height="177.299" fill="#3AA959"/>
</g>
<g opacity="0.64">
<rect x="91.3529" y="193.855" width="20.2363" height="2.58188" fill="#3AA959"/>
</g>
<g opacity="0.24">
<rect x="113.734" y="191.275" width="20.2363" height="185.045" fill="#3AA959"/>
</g>
<g opacity="0.64">
<rect x="113.734" y="186.111" width="20.2363" height="2.58188" fill="#3AA959"/>
</g>
<g opacity="0.24">
<rect x="136.115" y="189.984" width="20.2363" height="186.336" fill="#3AA959"/>
</g>
<g opacity="0.64">
<rect x="136.115" y="184.82" width="20.2363" height="2.58188" fill="#3AA959"/>
</g>
<g opacity="0.24">
<rect x="158.496" y="201.602" width="20.2363" height="174.718" fill="#3AA959"/>
</g>
<g opacity="0.64">
<rect x="158.496" y="196.438" width="20.2363" height="2.58188" fill="#3AA959"/>
</g>
<g opacity="0.24">
<rect x="180.877" y="183.529" width="20.2363" height="192.791" fill="#3AA959"/>
</g>
<g opacity="0.64">
<rect x="180.877" y="178.365" width="20.2363" height="2.58188" fill="#3AA959"/>
</g>
<g opacity="0.24">
<rect x="203.258" y="165.455" width="20.2363" height="210.864" fill="#3AA959"/>
</g>
<g opacity="0.64">
<rect x="203.258" y="160.291" width="20.2363" height="2.58188" fill="#3AA959"/>
</g>
<g opacity="0.24">
<rect x="225.639" y="175.783" width="20.2363" height="200.536" fill="#3AA959"/>
</g>
<g opacity="0.64">
<rect x="225.638" y="170.619" width="20.2363" height="2.58188" fill="#3AA959"/>
</g>
<g opacity="0.24">
<rect x="248.019" y="157.709" width="20.2363" height="218.61" fill="#3AA959"/>
</g>
<g opacity="0.64">
<rect x="248.019" y="152.545" width="20.2363" height="2.58188" fill="#3AA959"/>
</g>
<g opacity="0.24">
<rect x="270.4" y="186.111" width="20.2363" height="190.209" fill="#3AA959"/>
</g>
<g opacity="0.64">
<rect x="270.4" y="180.947" width="20.2363" height="2.58188" fill="#3AA959"/>
</g>
<g opacity="0.24">
<rect x="292.782" y="183.529" width="20.2363" height="192.791" fill="#3AA959"/>
</g>
<g opacity="0.64">
<rect x="292.782" y="178.365" width="20.2363" height="2.58188" fill="#3AA959"/>
</g>
<g opacity="0.24">
<rect x="315.163" y="178.365" width="20.2363" height="197.955" fill="#3AA959"/>
</g>
<g opacity="0.64">
<rect x="315.163" y="173.201" width="20.2363" height="2.58188" fill="#3AA959"/>
</g>
<g opacity="0.24">
<rect x="337.544" y="165.455" width="20.2363" height="210.864" fill="#3AA959"/>
</g>
<g opacity="0.64">
<rect x="337.544" y="160.291" width="20.2363" height="2.58188" fill="#3AA959"/>
</g>
<g opacity="0.24">
<rect x="359.925" y="180.947" width="20.2363" height="195.373" fill="#3AA959"/>
</g>
<g opacity="0.64">
<rect x="359.925" y="175.783" width="20.2363" height="2.58188" fill="#3AA959"/>
</g>
<g opacity="0.24">
<rect x="382.306" y="162.873" width="20.2363" height="213.446" fill="#3AA959"/>
</g>
<g opacity="0.64">
<rect x="382.306" y="157.709" width="20.2363" height="2.58188" fill="#3AA959"/>
</g>
<g opacity="0.24">
<rect x="404.687" y="170.619" width="20.2363" height="205.7" fill="#3AA959"/>
</g>
<g opacity="0.64">
<rect x="404.687" y="165.455" width="20.2363" height="2.58188" fill="#3AA959"/>
</g>
<g opacity="0.24">
<rect x="427.068" y="160.293" width="20.2363" height="216.028" fill="#3AA959"/>
</g>
<g opacity="0.64">
<rect x="427.068" y="155.129" width="20.2363" height="2.58188" fill="#3AA959"/>
</g>
<g opacity="0.24">
<rect x="449.448" y="155.129" width="20.2363" height="221.191" fill="#3AA959"/>
</g>
<g opacity="0.64">
<rect x="449.449" y="149.965" width="20.2363" height="2.58188" fill="#3AA959"/>
</g>
<g opacity="0.24">
<rect x="471.829" y="143.51" width="20.2363" height="232.81" fill="#3AA959"/>
</g>
<g opacity="0.64">
<rect x="471.829" y="138.346" width="20.2363" height="2.58188" fill="#3AA959"/>
</g>
<g opacity="0.24">
<rect x="494.21" y="147.383" width="20.2363" height="228.937" fill="#3AA959"/>
</g>
<g opacity="0.64">
<rect x="494.21" y="142.219" width="20.2363" height="2.58188" fill="#3AA959"/>
</g>
<g opacity="0.24">
<rect x="516.591" y="149.965" width="20.2363" height="226.355" fill="#3AA959"/>
</g>
<g opacity="0.64">
<rect x="516.591" y="144.801" width="20.2363" height="2.58188" fill="#3AA959"/>
</g>
<g opacity="0.24">
<rect x="538.972" y="144.801" width="20.2363" height="231.519" fill="#3AA959"/>
</g>
<g opacity="0.64">
<rect x="538.972" y="139.637" width="20.2363" height="2.58188" fill="#3AA959"/>
</g>
<g opacity="0.24">
<rect x="561.353" y="157.709" width="20.2363" height="218.61" fill="#3AA959"/>
</g>
<g opacity="0.64">
<rect x="561.353" y="152.545" width="20.2363" height="2.58188" fill="#3AA959"/>
</g>
<g opacity="0.24">
<rect x="583.734" y="129.309" width="20.2363" height="247.01" fill="#3AA959"/>
</g>
<g opacity="0.64">
<rect x="583.734" y="124.145" width="20.2363" height="2.58188" fill="#3AA959"/>
</g>
<g opacity="0.24">
<rect x="606.115" y="149.965" width="20.2363" height="226.355" fill="#3AA959"/>
</g>
<g opacity="0.64">
<rect x="606.115" y="144.801" width="20.2363" height="2.58188" fill="#3AA959"/>
</g>
<g opacity="0.24">
<rect x="628.496" y="138.346" width="20.2363" height="237.974" fill="#3AA959"/>
</g>
<g opacity="0.64">
<rect x="628.496" y="133.182" width="20.2363" height="2.58188" fill="#3AA959"/>
</g>
<g opacity="0.24">
<rect x="650.877" y="126.727" width="20.2363" height="249.592" fill="#3AA959"/>
</g>
<g opacity="0.64">
<rect x="650.877" y="121.562" width="20.2363" height="2.58188" fill="#3AA959"/>
</g>
<g opacity="0.24">
<rect x="673.258" y="134.473" width="20.2363" height="241.846" fill="#3AA959"/>
</g>
<g opacity="0.64">
<rect x="673.258" y="129.309" width="20.2363" height="2.58188" fill="#3AA959"/>
</g>
<g opacity="0.24">
<rect x="695.639" y="140.928" width="20.2363" height="235.392" fill="#3AA959"/>
</g>
<g opacity="0.64">
<rect x="695.639" y="135.764" width="20.2363" height="2.58188" fill="#3AA959"/>
</g>
<g opacity="0.24">
<rect x="718.02" y="117.691" width="20.2363" height="258.629" fill="#3AA959"/>
</g>
<g opacity="0.64">
<rect x="718.02" y="112.527" width="20.2363" height="2.58188" fill="#3AA959"/>
</g>
<g opacity="0.24">
<rect x="740.4" y="124.146" width="20.2363" height="252.174" fill="#3AA959"/>
</g>
<g opacity="0.64">
<rect x="740.401" y="118.982" width="20.2363" height="2.58188" fill="#3AA959"/>
</g>
<g opacity="0.24">
<rect x="762.781" y="134.473" width="20.2363" height="241.846" fill="#3AA959"/>
</g>
<g opacity="0.64">
<rect x="762.782" y="129.309" width="20.2363" height="2.58188" fill="#3AA959"/>
</g>
<g opacity="0.24">
<rect x="785.162" y="129.309" width="20.2363" height="247.01" fill="#3AA959"/>
</g>
<g opacity="0.64">
<rect x="785.162" y="124.145" width="20.2363" height="2.58188" fill="#3AA959"/>
</g>
<g opacity="0.24">
<rect x="807.543" y="117.691" width="20.2363" height="258.629" fill="#3AA959"/>
</g>
<g opacity="0.64">
<rect x="807.543" y="112.527" width="20.2363" height="2.58188" fill="#3AA959"/>
</g>
<g opacity="0.24">
<rect x="829.924" y="104.781" width="20.2363" height="271.538" fill="#3AA959"/>
</g>
<g opacity="0.64">
<rect x="829.924" y="99.6172" width="20.2363" height="2.58188" fill="#3AA959"/>
</g>
</svg>
