<svg width="315" height="378" viewBox="0 0 315 378" fill="none" xmlns="http://www.w3.org/2000/svg">
<rect x="1" y="1.46094" width="313.406" height="375.875" rx="5.29402" fill="white" stroke="#E5E5E5" stroke-width="1.0588"/>
<path d="M28.6201 25.4151H30.2166V33.9434C30.2166 35.096 29.8691 35.9976 29.1743 36.6483C28.485 37.2991 27.564 37.6244 26.4115 37.6244C25.2148 37.6244 24.2828 37.3184 23.6156 36.7062C22.9483 36.0941 22.6147 35.2366 22.6147 34.1337H24.2029C24.2029 34.823 24.3904 35.3607 24.7654 35.7467C25.1459 36.1327 25.6946 36.3257 26.4115 36.3257C27.0677 36.3257 27.5971 36.1189 27.9997 35.7053C28.4078 35.2917 28.6146 34.7127 28.6201 33.9682V25.4151ZM32.7421 32.9012C32.7421 32.0243 32.9131 31.2358 33.255 30.5354C33.6024 29.835 34.0822 29.2946 34.6943 28.9141C35.3119 28.5336 36.015 28.3434 36.8036 28.3434C38.0224 28.3434 39.0067 28.7652 39.7567 29.609C40.5122 30.4527 40.89 31.5749 40.89 32.9756V33.0831C40.89 33.9545 40.7218 34.7375 40.3854 35.4324C40.0545 36.1217 39.5775 36.6594 38.9543 37.0454C38.3367 37.4314 37.6253 37.6244 36.8202 37.6244C35.607 37.6244 34.6226 37.2026 33.8671 36.3588C33.1171 35.5151 32.7421 34.3984 32.7421 33.0087V32.9012ZM34.2807 33.0831C34.2807 34.0758 34.5096 34.8726 34.9673 35.4737C35.4305 36.0748 36.0481 36.3754 36.8202 36.3754C37.5977 36.3754 38.2154 36.0721 38.6731 35.4655C39.1308 34.8533 39.3597 33.9986 39.3597 32.9012C39.3597 31.9196 39.1253 31.1255 38.6565 30.5189C38.1933 29.9067 37.5757 29.6007 36.8036 29.6007C36.0481 29.6007 35.4388 29.9012 34.9755 30.5023C34.5123 31.1034 34.2807 31.9637 34.2807 33.0831ZM50.852 33.0831C50.852 34.4508 50.5376 35.5509 49.909 36.3836C49.2803 37.2108 48.4366 37.6244 47.3778 37.6244C46.2473 37.6244 45.3732 37.2246 44.7556 36.425L44.6811 37.459H43.2749V24.7533H44.8052V29.4931C45.4228 28.7266 46.2749 28.3434 47.3612 28.3434C48.4476 28.3434 49.2996 28.7542 49.9172 29.5759C50.5404 30.3975 50.852 31.5225 50.852 32.9508V33.0831ZM49.3217 32.9094C49.3217 31.8672 49.1204 31.062 48.7178 30.494C48.3153 29.926 47.7362 29.642 46.9807 29.642C45.9715 29.642 45.2464 30.1108 44.8052 31.0483V34.9195C45.274 35.857 46.0046 36.3257 46.9973 36.3257C47.7307 36.3257 48.3015 36.0417 48.7095 35.4737C49.1176 34.9057 49.3217 34.051 49.3217 32.9094ZM58.4648 35.0849C58.4648 34.6714 58.3076 34.3515 57.9933 34.1254C57.6844 33.8938 57.1413 33.6953 56.3637 33.5298C55.5917 33.3644 54.9768 33.1659 54.5191 32.9343C54.0669 32.7026 53.7305 32.4269 53.5099 32.1071C53.2948 31.7872 53.1873 31.4067 53.1873 30.9655C53.1873 30.2321 53.4961 29.6117 54.1137 29.1044C54.7369 28.597 55.531 28.3434 56.4961 28.3434C57.5107 28.3434 58.3324 28.6053 58.9611 29.1292C59.5953 29.6531 59.9123 30.3231 59.9123 31.1393H58.3738C58.3738 30.7201 58.1945 30.3589 57.8361 30.0556C57.4832 29.7523 57.0365 29.6007 56.4961 29.6007C55.9391 29.6007 55.5034 29.722 55.1891 29.9646C54.8748 30.2073 54.7176 30.5244 54.7176 30.9159C54.7176 31.2854 54.8637 31.5639 55.156 31.7514C55.4483 31.9389 55.9749 32.1181 56.7359 32.289C57.5025 32.46 58.1229 32.664 58.5971 32.9012C59.0714 33.1383 59.4215 33.4251 59.6476 33.7614C59.8793 34.0923 59.9951 34.4976 59.9951 34.9774C59.9951 35.777 59.6752 36.4195 59.0355 36.9048C58.3958 37.3845 57.5659 37.6244 56.5457 37.6244C55.8288 37.6244 55.1946 37.4976 54.6431 37.2439C54.0917 36.9902 53.6588 36.6373 53.3445 36.1851C53.0356 35.7274 52.8812 35.2338 52.8812 34.7044H54.4115C54.4391 35.2173 54.6431 35.6254 55.0237 35.9287C55.4097 36.2265 55.917 36.3754 56.5457 36.3754C57.1247 36.3754 57.5879 36.2596 57.9354 36.0279C58.2883 35.7908 58.4648 35.4765 58.4648 35.0849ZM76.6269 31.8258C76.6269 33.0059 76.4284 34.0372 76.0313 34.9195C75.6342 35.7963 75.0718 36.4664 74.3438 36.9296C73.6159 37.3928 72.7667 37.6244 71.7961 37.6244C70.8476 37.6244 70.0066 37.3928 69.2732 36.9296C68.5397 36.4608 67.969 35.7963 67.5609 34.9361C67.1583 34.0703 66.9515 33.0694 66.9405 31.9334V31.0648C66.9405 29.9067 67.1418 28.8838 67.5443 27.9959C67.9469 27.1081 68.5149 26.4298 69.2483 25.961C69.9873 25.4868 70.831 25.2497 71.7795 25.2497C72.7446 25.2497 73.5938 25.484 74.3273 25.9528C75.0662 26.416 75.6342 27.0915 76.0313 27.9794C76.4284 28.8617 76.6269 29.8902 76.6269 31.0648V31.8258ZM75.0469 31.0483C75.0469 29.62 74.7602 28.5253 74.1867 27.7643C73.6131 26.9978 72.8108 26.6145 71.7795 26.6145C70.7759 26.6145 69.9845 26.9978 69.4055 27.7643C68.832 28.5253 68.537 29.5841 68.5204 30.9407V31.8258C68.5204 33.21 68.8099 34.2991 69.389 35.0932C69.9735 35.8818 70.7759 36.2761 71.7961 36.2761C72.8218 36.2761 73.6159 35.9039 74.1784 35.1594C74.7409 34.4094 75.0304 33.3368 75.0469 31.9416V31.0483ZM86.7957 33.0831C86.7957 34.4453 86.4841 35.5427 85.861 36.3754C85.2378 37.2081 84.3941 37.6244 83.3298 37.6244C82.2434 37.6244 81.3886 37.2798 80.7655 36.5904V40.9001H79.2352V28.5088H80.6331L80.7076 29.5014C81.3307 28.7294 82.1965 28.3434 83.3049 28.3434C84.3803 28.3434 85.2295 28.7487 85.8527 29.5593C86.4814 30.37 86.7957 31.4977 86.7957 32.9425V33.0831ZM85.2654 32.9094C85.2654 31.9003 85.0503 31.1034 84.6202 30.5189C84.19 29.9343 83.6 29.642 82.85 29.642C81.9235 29.642 81.2287 30.0529 80.7655 30.8746V35.1511C81.2232 35.9673 81.9235 36.3754 82.8665 36.3754C83.6 36.3754 84.1818 36.0858 84.6119 35.5068C85.0476 34.9223 85.2654 34.0565 85.2654 32.9094ZM92.9278 37.6244C91.7146 37.6244 90.7275 37.2274 89.9665 36.4333C89.2055 35.6337 88.825 34.5666 88.825 33.232V32.9508C88.825 32.0629 88.9931 31.2716 89.3295 30.5768C89.6714 29.8764 90.1457 29.3305 90.7523 28.9389C91.3644 28.5419 92.0262 28.3434 92.7376 28.3434C93.9011 28.3434 94.8055 28.7266 95.4507 29.4931C96.096 30.2597 96.4186 31.3571 96.4186 32.7854V33.4223H90.3553C90.3773 34.3046 90.6337 35.0188 91.1245 35.5647C91.6209 36.1052 92.2495 36.3754 93.0105 36.3754C93.551 36.3754 94.0087 36.2651 94.3837 36.0445C94.7587 35.8239 95.0868 35.5316 95.368 35.1677L96.3027 35.8956C95.5528 37.0481 94.4278 37.6244 92.9278 37.6244ZM92.7376 29.6007C92.1199 29.6007 91.6016 29.8268 91.1824 30.279C90.7633 30.7257 90.5041 31.3543 90.4049 32.165H94.8883V32.0492C94.8441 31.2716 94.6346 30.6705 94.2596 30.2459C93.8846 29.8157 93.3773 29.6007 92.7376 29.6007ZM100.11 28.5088L100.16 29.6338C100.844 28.7735 101.737 28.3434 102.84 28.3434C104.732 28.3434 105.686 29.4104 105.702 31.5446V37.459H104.172V31.5363C104.166 30.8911 104.018 30.4141 103.725 30.1053C103.439 29.7964 102.989 29.642 102.377 29.642C101.881 29.642 101.445 29.7744 101.07 30.0391C100.695 30.3038 100.403 30.6512 100.193 31.0813V37.459H98.6629V28.5088H100.11ZM116.097 35.3827L118.314 28.5088H119.877L116.668 37.459H115.501L112.259 28.5088H113.822L116.097 35.3827ZM127.027 35.0849C127.027 34.6714 126.87 34.3515 126.555 34.1254C126.247 33.8938 125.703 33.6953 124.926 33.5298C124.154 33.3644 123.539 33.1659 123.081 32.9343C122.629 32.7026 122.293 32.4269 122.072 32.1071C121.857 31.7872 121.749 31.4067 121.749 30.9655C121.749 30.2321 122.058 29.6117 122.676 29.1044C123.299 28.597 124.093 28.3434 125.058 28.3434C126.073 28.3434 126.895 28.6053 127.523 29.1292C128.157 29.6531 128.474 30.3231 128.474 31.1393H126.936C126.936 30.7201 126.757 30.3589 126.398 30.0556C126.045 29.7523 125.599 29.6007 125.058 29.6007C124.501 29.6007 124.066 29.722 123.751 29.9646C123.437 30.2073 123.28 30.5244 123.28 30.9159C123.28 31.2854 123.426 31.5639 123.718 31.7514C124.01 31.9389 124.537 32.1181 125.298 32.289C126.065 32.46 126.685 32.664 127.159 32.9012C127.634 33.1383 127.984 33.4251 128.21 33.7614C128.441 34.0923 128.557 34.4976 128.557 34.9774C128.557 35.777 128.237 36.4195 127.598 36.9048C126.958 37.3845 126.128 37.6244 125.108 37.6244C124.391 37.6244 123.757 37.4976 123.205 37.2439C122.654 36.9902 122.221 36.6373 121.907 36.1851C121.598 35.7274 121.443 35.2338 121.443 34.7044H122.974C123.001 35.2173 123.205 35.6254 123.586 35.9287C123.972 36.2265 124.479 36.3754 125.108 36.3754C125.687 36.3754 126.15 36.2596 126.498 36.0279C126.85 35.7908 127.027 35.4765 127.027 35.0849ZM144.784 33.6374C144.635 34.9112 144.163 35.8956 143.369 36.5904C142.581 37.2798 141.53 37.6244 140.218 37.6244C138.795 37.6244 137.653 37.1143 136.793 36.0941C135.938 35.0739 135.511 33.7091 135.511 31.9995V30.8415C135.511 29.722 135.709 28.7376 136.106 27.8884C136.509 27.0391 137.077 26.3884 137.81 25.9362C138.544 25.4785 139.393 25.2497 140.358 25.2497C141.638 25.2497 142.663 25.6081 143.435 26.325C144.207 27.0364 144.657 28.0235 144.784 29.2863H143.187C143.049 28.3268 142.749 27.632 142.286 27.2018C141.828 26.7717 141.185 26.5566 140.358 26.5566C139.344 26.5566 138.547 26.9316 137.968 27.6816C137.394 28.4316 137.107 29.4987 137.107 30.8828V32.0492C137.107 33.3561 137.38 34.3956 137.926 35.1677C138.472 35.9397 139.236 36.3257 140.218 36.3257C141.1 36.3257 141.775 36.1272 142.244 35.7302C142.718 35.3276 143.033 34.63 143.187 33.6374H144.784ZM148.848 37.459H147.318V24.7533H148.848V37.459ZM151.365 32.9012C151.365 32.0243 151.536 31.2358 151.878 30.5354C152.225 29.835 152.705 29.2946 153.317 28.9141C153.935 28.5336 154.638 28.3434 155.427 28.3434C156.645 28.3434 157.63 28.7652 158.38 29.609C159.135 30.4527 159.513 31.5749 159.513 32.9756V33.0831C159.513 33.9545 159.345 34.7375 159.008 35.4324C158.678 36.1217 158.201 36.6594 157.577 37.0454C156.96 37.4314 156.248 37.6244 155.443 37.6244C154.23 37.6244 153.246 37.2026 152.49 36.3588C151.74 35.5151 151.365 34.3984 151.365 33.0087V32.9012ZM152.904 33.0831C152.904 34.0758 153.133 34.8726 153.59 35.4737C154.054 36.0748 154.671 36.3754 155.443 36.3754C156.221 36.3754 156.838 36.0721 157.296 35.4655C157.754 34.8533 157.983 33.9986 157.983 32.9012C157.983 31.9196 157.748 31.1255 157.28 30.5189C156.816 29.9067 156.199 29.6007 155.427 29.6007C154.671 29.6007 154.062 29.9012 153.599 30.5023C153.135 31.1034 152.904 31.9637 152.904 33.0831ZM167.109 35.0849C167.109 34.6714 166.952 34.3515 166.638 34.1254C166.329 33.8938 165.786 33.6953 165.008 33.5298C164.236 33.3644 163.621 33.1659 163.164 32.9343C162.711 32.7026 162.375 32.4269 162.154 32.1071C161.939 31.7872 161.832 31.4067 161.832 30.9655C161.832 30.2321 162.141 29.6117 162.758 29.1044C163.381 28.597 164.175 28.3434 165.141 28.3434C166.155 28.3434 166.977 28.6053 167.606 29.1292C168.24 29.6531 168.557 30.3231 168.557 31.1393H167.018C167.018 30.7201 166.839 30.3589 166.481 30.0556C166.128 29.7523 165.681 29.6007 165.141 29.6007C164.584 29.6007 164.148 29.722 163.834 29.9646C163.519 30.2073 163.362 30.5244 163.362 30.9159C163.362 31.2854 163.508 31.5639 163.8 31.7514C164.093 31.9389 164.619 32.1181 165.38 32.289C166.147 32.46 166.767 32.664 167.242 32.9012C167.716 33.1383 168.066 33.4251 168.292 33.7614C168.524 34.0923 168.64 34.4976 168.64 34.9774C168.64 35.777 168.32 36.4195 167.68 36.9048C167.04 37.3845 166.21 37.6244 165.19 37.6244C164.473 37.6244 163.839 37.4976 163.288 37.2439C162.736 36.9902 162.303 36.6373 161.989 36.1851C161.68 35.7274 161.526 35.2338 161.526 34.7044H163.056C163.084 35.2173 163.288 35.6254 163.668 35.9287C164.054 36.2265 164.561 36.3754 165.19 36.3754C165.769 36.3754 166.232 36.2596 166.58 36.0279C166.933 35.7908 167.109 35.4765 167.109 35.0849ZM174.813 37.6244C173.6 37.6244 172.613 37.2274 171.852 36.4333C171.091 35.6337 170.71 34.5666 170.71 33.232V32.9508C170.71 32.0629 170.878 31.2716 171.215 30.5768C171.557 29.8764 172.031 29.3305 172.637 28.9389C173.25 28.5419 173.911 28.3434 174.623 28.3434C175.786 28.3434 176.691 28.7266 177.336 29.4931C177.981 30.2597 178.304 31.3571 178.304 32.7854V33.4223H172.24C172.263 34.3046 172.519 35.0188 173.01 35.5647C173.506 36.1052 174.135 36.3754 174.896 36.3754C175.436 36.3754 175.894 36.2651 176.269 36.0445C176.644 35.8239 176.972 35.5316 177.253 35.1677L178.188 35.8956C177.438 37.0481 176.313 37.6244 174.813 37.6244ZM174.623 29.6007C174.005 29.6007 173.487 29.8268 173.068 30.279C172.649 30.7257 172.389 31.3543 172.29 32.165H176.773V32.0492C176.729 31.2716 176.52 30.6705 176.145 30.2459C175.77 29.8157 175.262 29.6007 174.623 29.6007ZM180.176 32.9094C180.176 31.5363 180.501 30.4334 181.152 29.6007C181.803 28.7625 182.655 28.3434 183.708 28.3434C184.756 28.3434 185.586 28.7018 186.198 29.4187V24.7533H187.728V37.459H186.322L186.247 36.4994C185.635 37.2494 184.783 37.6244 183.691 37.6244C182.655 37.6244 181.808 37.1998 181.152 36.3505C180.501 35.5013 180.176 34.3929 180.176 33.0252V32.9094ZM181.706 33.0831C181.706 34.0978 181.916 34.8919 182.335 35.4655C182.754 36.039 183.333 36.3257 184.072 36.3257C185.042 36.3257 185.751 35.8901 186.198 35.0188V30.9076C185.74 30.0639 185.037 29.642 184.088 29.642C183.338 29.642 182.754 29.9316 182.335 30.5106C181.916 31.0896 181.706 31.9471 181.706 33.0831Z" fill="#1F1F1F"/>
<g opacity="0.8">
<rect x="98.4104" y="319.102" width="10.2681" height="10.2681" rx="5.13406" fill="#F2C94C"/>
</g>
<path d="M104.873 339.453C104.873 340.168 104.753 340.793 104.512 341.328C104.271 341.859 103.93 342.266 103.489 342.546C103.048 342.827 102.533 342.967 101.945 342.967C101.37 342.967 100.86 342.827 100.416 342.546C99.9711 342.262 99.6252 341.859 99.3778 341.338C99.1338 340.813 99.0085 340.207 99.0018 339.518V338.992C99.0018 338.29 99.1238 337.67 99.3678 337.131C99.6118 336.593 99.9561 336.182 100.401 335.898C100.849 335.611 101.36 335.467 101.935 335.467C102.52 335.467 103.034 335.609 103.479 335.893C103.927 336.174 104.271 336.583 104.512 337.121C104.753 337.656 104.873 338.28 104.873 338.992V339.453ZM103.915 338.982C103.915 338.116 103.741 337.452 103.394 336.991C103.046 336.526 102.56 336.294 101.935 336.294C101.326 336.294 100.847 336.526 100.496 336.991C100.148 337.452 99.9694 338.094 99.9594 338.916V339.453C99.9594 340.292 100.135 340.952 100.486 341.433C100.84 341.911 101.326 342.15 101.945 342.15C102.567 342.15 103.048 341.925 103.389 341.473C103.73 341.019 103.905 340.369 103.915 339.523V338.982ZM111.096 340.215C111.096 341.041 110.907 341.706 110.53 342.21C110.152 342.715 109.641 342.967 108.995 342.967C108.337 342.967 107.819 342.759 107.441 342.341V344.953H106.514V337.442H107.361L107.406 338.044C107.784 337.576 108.309 337.342 108.98 337.342C109.632 337.342 110.147 337.588 110.525 338.079C110.906 338.57 111.096 339.254 111.096 340.13V340.215ZM110.169 340.11C110.169 339.498 110.038 339.015 109.778 338.661C109.517 338.306 109.159 338.129 108.705 338.129C108.143 338.129 107.722 338.378 107.441 338.876V341.468C107.719 341.963 108.143 342.21 108.715 342.21C109.159 342.21 109.512 342.035 109.773 341.684C110.037 341.33 110.169 340.805 110.169 340.11ZM114.873 342.967C114.138 342.967 113.539 342.727 113.078 342.245C112.617 341.761 112.386 341.114 112.386 340.305V340.135C112.386 339.597 112.488 339.117 112.692 338.696C112.899 338.271 113.187 337.94 113.554 337.703C113.925 337.462 114.326 337.342 114.758 337.342C115.463 337.342 116.011 337.574 116.402 338.039C116.793 338.504 116.989 339.169 116.989 340.034V340.42H113.314C113.327 340.955 113.482 341.388 113.78 341.719C114.081 342.047 114.462 342.21 114.923 342.21C115.251 342.21 115.528 342.144 115.755 342.01C115.983 341.876 116.181 341.699 116.352 341.478L116.919 341.92C116.464 342.618 115.782 342.967 114.873 342.967ZM114.758 338.104C114.383 338.104 114.069 338.241 113.815 338.515C113.561 338.786 113.404 339.167 113.344 339.658H116.061V339.588C116.034 339.117 115.907 338.753 115.68 338.495C115.453 338.234 115.145 338.104 114.758 338.104ZM119.286 337.442L119.316 338.124C119.731 337.603 120.272 337.342 120.941 337.342C122.087 337.342 122.666 337.989 122.676 339.282V342.867H121.748V339.277C121.745 338.886 121.654 338.597 121.477 338.41C121.304 338.223 121.031 338.129 120.66 338.129C120.359 338.129 120.095 338.209 119.868 338.37C119.641 338.53 119.463 338.741 119.336 339.002V342.867H118.409V337.442H119.286Z" fill="#373737"/>
<rect x="167.174" y="319.102" width="10.2681" height="10.2681" rx="5.13406" fill="#E7AF07"/>
<path d="M173.45 340.551C173.36 341.323 173.074 341.92 172.593 342.341C172.115 342.759 171.478 342.967 170.683 342.967C169.82 342.967 169.128 342.658 168.607 342.04C168.089 341.422 167.83 340.594 167.83 339.558V338.856C167.83 338.178 167.95 337.581 168.191 337.066C168.435 336.552 168.779 336.157 169.224 335.883C169.668 335.606 170.183 335.467 170.768 335.467C171.543 335.467 172.165 335.684 172.633 336.119C173.101 336.55 173.373 337.148 173.45 337.914H172.483C172.399 337.332 172.217 336.911 171.936 336.65C171.659 336.389 171.269 336.259 170.768 336.259C170.153 336.259 169.67 336.486 169.319 336.941C168.971 337.396 168.797 338.042 168.797 338.881V339.588C168.797 340.38 168.963 341.01 169.294 341.478C169.625 341.946 170.088 342.18 170.683 342.18C171.217 342.18 171.627 342.06 171.911 341.819C172.198 341.575 172.389 341.152 172.483 340.551H173.45ZM175.973 342.867H175.046V335.166H175.973V342.867ZM177.559 340.105C177.559 339.573 177.663 339.095 177.87 338.671C178.081 338.246 178.371 337.919 178.742 337.688C179.117 337.457 179.543 337.342 180.021 337.342C180.76 337.342 181.356 337.598 181.811 338.109C182.269 338.621 182.498 339.301 182.498 340.15V340.215C182.498 340.743 182.396 341.218 182.192 341.639C181.991 342.057 181.702 342.383 181.324 342.617C180.95 342.85 180.519 342.967 180.031 342.967C179.296 342.967 178.699 342.712 178.241 342.2C177.786 341.689 177.559 341.012 177.559 340.17V340.105ZM178.492 340.215C178.492 340.817 178.63 341.3 178.908 341.664C179.189 342.028 179.563 342.21 180.031 342.21C180.502 342.21 180.877 342.027 181.154 341.659C181.431 341.288 181.57 340.77 181.57 340.105C181.57 339.51 181.428 339.028 181.144 338.661C180.863 338.29 180.489 338.104 180.021 338.104C179.563 338.104 179.194 338.286 178.913 338.651C178.632 339.015 178.492 339.536 178.492 340.215ZM187.162 341.428C187.162 341.178 187.066 340.984 186.876 340.847C186.689 340.706 186.36 340.586 185.888 340.486C185.42 340.385 185.048 340.265 184.77 340.125C184.496 339.984 184.292 339.817 184.159 339.623C184.028 339.429 183.963 339.199 183.963 338.931C183.963 338.487 184.15 338.111 184.525 337.803C184.902 337.496 185.384 337.342 185.968 337.342C186.583 337.342 187.082 337.501 187.463 337.818C187.847 338.136 188.039 338.542 188.039 339.037H187.107C187.107 338.783 186.998 338.564 186.781 338.38C186.567 338.196 186.296 338.104 185.968 338.104C185.631 338.104 185.367 338.178 185.176 338.325C184.986 338.472 184.891 338.664 184.891 338.901C184.891 339.125 184.979 339.294 185.156 339.408C185.333 339.521 185.653 339.63 186.114 339.734C186.578 339.837 186.954 339.961 187.242 340.105C187.529 340.248 187.742 340.422 187.879 340.626C188.019 340.827 188.089 341.072 188.089 341.363C188.089 341.848 187.895 342.237 187.508 342.531C187.12 342.822 186.617 342.967 185.999 342.967C185.564 342.967 185.18 342.891 184.845 342.737C184.511 342.583 184.249 342.369 184.058 342.095C183.871 341.818 183.777 341.518 183.777 341.198H184.705C184.722 341.508 184.845 341.756 185.076 341.94C185.31 342.12 185.618 342.21 185.999 342.21C186.35 342.21 186.63 342.14 186.841 342C187.055 341.856 187.162 341.666 187.162 341.428ZM191.891 342.967C191.156 342.967 190.557 342.727 190.096 342.245C189.635 341.761 189.404 341.114 189.404 340.305V340.135C189.404 339.597 189.506 339.117 189.71 338.696C189.917 338.271 190.205 337.94 190.572 337.703C190.943 337.462 191.345 337.342 191.776 337.342C192.481 337.342 193.029 337.574 193.42 338.039C193.811 338.504 194.007 339.169 194.007 340.034V340.42H190.332C190.345 340.955 190.501 341.388 190.798 341.719C191.099 342.047 191.48 342.21 191.941 342.21C192.269 342.21 192.546 342.144 192.773 342.01C193.001 341.876 193.2 341.699 193.37 341.478L193.937 341.92C193.482 342.618 192.8 342.967 191.891 342.967ZM191.776 338.104C191.401 338.104 191.087 338.241 190.833 338.515C190.579 338.786 190.422 339.167 190.362 339.658H193.079V339.588C193.053 339.117 192.926 338.753 192.698 338.495C192.471 338.234 192.163 338.104 191.776 338.104ZM195.201 340.11C195.201 339.277 195.399 338.609 195.793 338.104C196.187 337.596 196.704 337.342 197.342 337.342C197.977 337.342 198.48 337.559 198.851 337.994V335.166H199.779V342.867H198.927L198.881 342.286C198.51 342.74 197.994 342.967 197.332 342.967C196.704 342.967 196.191 342.71 195.793 342.195C195.399 341.681 195.201 341.009 195.201 340.18V340.11ZM196.129 340.215C196.129 340.83 196.256 341.311 196.51 341.659C196.764 342.006 197.115 342.18 197.563 342.18C198.151 342.18 198.581 341.916 198.851 341.388V338.896C198.574 338.385 198.148 338.129 197.573 338.129C197.118 338.129 196.764 338.305 196.51 338.656C196.256 339.007 196.129 339.526 196.129 340.215Z" fill="#373737"/>
<rect x="45.4697" y="70.2832" width="212.819" height="212.819" rx="106.41" fill="#F2C94C"/>
<g style="mix-blend-mode:overlay">
<path d="M151.879 176.692H258.289C258.289 205.994 246.168 232.522 226.912 251.725L151.879 176.692Z" fill="#ACB9FF"/>
</g>
<g opacity="0.4">
<path d="M151.879 176.691H258.289C258.289 147.389 246.168 120.861 226.912 101.658L151.879 176.691Z" fill="#FFE597"/>
</g>
<path d="M151.879 176.693V70.2836C181.181 70.2836 207.709 82.4045 226.912 101.661L151.879 176.693Z" fill="#FFE597"/>
</svg>
