<svg width="430" height="460" viewBox="0 0 430 460" fill="none" xmlns="http://www.w3.org/2000/svg">
<line x1="374.609" y1="63.1335" x2="374.609" y2="74.2523" stroke="#ECECEE" stroke-width="1.8217" stroke-linecap="round" stroke-linejoin="round"/>
<rect x="1.37961" y="1.01828" width="427.5" height="457.808" rx="7.17817" fill="white" stroke="#E5E5E5" stroke-width="1.59515"/>
<path d="M52.3003 59.0825H58.5559V62.1016H48.4925V43.117H52.3003V59.0825ZM74.9834 54.2412C74.9834 54.7852 74.9471 55.2747 74.8746 55.7099H63.8592C63.9498 56.7979 64.3306 57.6501 65.0015 58.2666C65.6724 58.8831 66.4974 59.1913 67.4766 59.1913C68.8909 59.1913 69.8972 58.5839 70.4956 57.369H74.6026C74.1674 58.8196 73.3333 60.0163 72.1003 60.9592C70.8673 61.884 69.3533 62.3463 67.5582 62.3463C66.1076 62.3463 64.8021 62.029 63.6416 61.3944C62.4993 60.7416 61.6017 59.826 60.9489 58.6474C60.3143 57.4688 59.997 56.1088 59.997 54.5676C59.997 53.0082 60.3143 51.6392 60.9489 50.4606C61.5836 49.282 62.4721 48.3754 63.6144 47.7408C64.7567 47.1061 66.0713 46.7888 67.5582 46.7888C68.9906 46.7888 70.269 47.0971 71.3932 47.7136C72.5355 48.3301 73.4149 49.2095 74.0314 50.3518C74.666 51.476 74.9834 52.7725 74.9834 54.2412ZM71.0396 53.1533C71.0215 52.1741 70.6679 51.3944 69.9788 50.8142C69.2898 50.2158 68.4467 49.9166 67.4494 49.9166C66.5065 49.9166 65.7087 50.2068 65.0559 50.787C64.4213 51.3491 64.0314 52.1379 63.8864 53.1533H71.0396ZM76.7836 54.5132C76.7836 52.9901 77.0827 51.6392 77.6811 50.4606C78.2976 49.282 79.1226 48.3754 80.1562 47.7408C81.2078 47.1061 82.3774 46.7888 83.6648 46.7888C84.789 46.7888 85.7681 47.0155 86.6022 47.4688C87.4544 47.9221 88.1344 48.4933 88.6421 49.1823V47.0336H92.4771V62.1016H88.6421V59.8985C88.1525 60.6056 87.4726 61.1949 86.6022 61.6664C85.75 62.1197 84.7618 62.3463 83.6376 62.3463C82.3683 62.3463 81.2078 62.02 80.1562 61.3672C79.1226 60.7144 78.2976 59.7988 77.6811 58.6202C77.0827 57.4234 76.7836 56.0544 76.7836 54.5132ZM88.6421 54.5676C88.6421 53.6428 88.4608 52.8541 88.0981 52.2013C87.7355 51.5304 87.2459 51.0227 86.6294 50.6782C86.0129 50.3156 85.3511 50.1342 84.6439 50.1342C83.9368 50.1342 83.284 50.3065 82.6856 50.651C82.0873 50.9955 81.5977 51.5032 81.2169 52.1741C80.8543 52.8269 80.6729 53.6066 80.6729 54.5132C80.6729 55.4198 80.8543 56.2176 81.2169 56.9067C81.5977 57.5775 82.0873 58.0943 82.6856 58.457C83.3021 58.8196 83.9549 59.0009 84.6439 59.0009C85.3511 59.0009 86.0129 58.8287 86.6294 58.4842C87.2459 58.1215 87.7355 57.6138 88.0981 56.961C88.4608 56.2902 88.6421 55.4923 88.6421 54.5676ZM101.962 62.3463C100.729 62.3463 99.6231 62.1288 98.6439 61.6936C97.6648 61.2403 96.8851 60.6328 96.3048 59.8713C95.7427 59.1097 95.4345 58.2666 95.3801 57.3418H99.2151C99.2876 57.9221 99.5687 58.4026 100.058 58.7833C100.566 59.1641 101.192 59.3545 101.935 59.3545C102.66 59.3545 103.222 59.2095 103.621 58.9193C104.038 58.6292 104.247 58.2575 104.247 57.8042C104.247 57.3146 103.993 56.952 103.485 56.7163C102.996 56.4624 102.207 56.1904 101.119 55.9003C99.9948 55.6283 99.07 55.3473 98.3447 55.0572C97.6376 54.767 97.0211 54.3228 96.4952 53.7244C95.9875 53.1261 95.7337 52.3192 95.7337 51.3038C95.7337 50.4697 95.9694 49.7081 96.4408 49.0191C96.9304 48.3301 97.6194 47.7861 98.5079 47.3872C99.4145 46.9883 100.475 46.7888 101.69 46.7888C103.485 46.7888 104.918 47.2421 105.988 48.1487C107.057 49.0372 107.647 50.243 107.755 51.7661H104.111C104.056 51.1678 103.803 50.6963 103.349 50.3518C102.914 49.9892 102.325 49.8078 101.581 49.8078C100.892 49.8078 100.357 49.9348 99.9766 50.1886C99.614 50.4425 99.4327 50.7961 99.4327 51.2494C99.4327 51.7571 99.6865 52.1469 100.194 52.4189C100.702 52.6728 101.491 52.9357 102.56 53.2077C103.648 53.4796 104.546 53.7607 105.253 54.0508C105.96 54.3409 106.568 54.7942 107.075 55.4107C107.601 56.0091 107.873 56.8069 107.891 57.8042C107.891 58.6746 107.647 59.4542 107.157 60.1433C106.686 60.8323 105.997 61.3763 105.09 61.7752C104.201 62.156 103.159 62.3463 101.962 62.3463ZM115.45 50.1614V57.4506C115.45 57.9583 115.568 58.33 115.804 58.5658C116.058 58.7833 116.475 58.8921 117.055 58.8921H118.823V62.1016H116.43C113.22 62.1016 111.615 60.5422 111.615 57.4234V50.1614H109.82V47.0336H111.615V43.3074H115.45V47.0336H118.823V50.1614H115.45ZM141.887 48.9919C141.887 50.0073 141.642 50.9593 141.152 51.8477C140.681 52.7362 139.928 53.4524 138.895 53.9964C137.879 54.5404 136.592 54.8124 135.033 54.8124H131.85V62.1016H128.043V43.117H135.033C136.501 43.117 137.753 43.3709 138.786 43.8786C139.82 44.3863 140.59 45.0844 141.098 45.9729C141.624 46.8613 141.887 47.8677 141.887 48.9919ZM134.87 51.7389C135.921 51.7389 136.701 51.5032 137.209 51.0318C137.716 50.5422 137.97 49.8622 137.97 48.9919C137.97 47.1424 136.937 46.2176 134.87 46.2176H131.85V51.7389H134.87ZM158.597 54.2412C158.597 54.7852 158.561 55.2747 158.489 55.7099H147.473C147.564 56.7979 147.945 57.6501 148.616 58.2666C149.286 58.8831 150.112 59.1913 151.091 59.1913C152.505 59.1913 153.511 58.5839 154.11 57.369H158.217C157.781 58.8196 156.947 60.0163 155.714 60.9592C154.481 61.884 152.967 62.3463 151.172 62.3463C149.722 62.3463 148.416 62.029 147.256 61.3944C146.113 60.7416 145.216 59.826 144.563 58.6474C143.928 57.4688 143.611 56.1088 143.611 54.5676C143.611 53.0082 143.928 51.6392 144.563 50.4606C145.198 49.282 146.086 48.3754 147.228 47.7408C148.371 47.1061 149.685 46.7888 151.172 46.7888C152.605 46.7888 153.883 47.0971 155.007 47.7136C156.15 48.3301 157.029 49.2095 157.645 50.3518C158.28 51.476 158.597 52.7725 158.597 54.2412ZM154.654 53.1533C154.636 52.1741 154.282 51.3944 153.593 50.8142C152.904 50.2158 152.061 49.9166 151.063 49.9166C150.121 49.9166 149.323 50.2068 148.67 50.787C148.035 51.3491 147.646 52.1379 147.5 53.1533H154.654ZM165.185 49.3727C165.674 48.5748 166.309 47.9493 167.088 47.496C167.886 47.0427 168.793 46.816 169.808 46.816V50.8142H168.802C167.605 50.8142 166.699 51.0952 166.082 51.6573C165.484 52.2194 165.185 53.1986 165.185 54.5948V62.1016H161.377V47.0336H165.185V49.3727ZM179.281 50.1614H176.643V62.1016H172.781V50.1614H171.068V47.0336H172.781V46.272C172.781 44.4225 173.307 43.0626 174.359 42.1923C175.41 41.3219 176.997 40.9139 179.118 40.9683V44.1778C178.194 44.1596 177.55 44.3138 177.187 44.6401C176.825 44.9665 176.643 45.5558 176.643 46.408V47.0336H179.281V50.1614ZM188.44 62.3463C186.989 62.3463 185.684 62.029 184.523 61.3944C183.363 60.7416 182.447 59.826 181.776 58.6474C181.124 57.4688 180.797 56.1088 180.797 54.5676C180.797 53.0263 181.133 51.6664 181.803 50.4878C182.493 49.3092 183.426 48.4026 184.605 47.768C185.784 47.1152 187.098 46.7888 188.549 46.7888C189.999 46.7888 191.314 47.1152 192.492 47.768C193.671 48.4026 194.596 49.3092 195.267 50.4878C195.956 51.6664 196.3 53.0263 196.3 54.5676C196.3 56.1088 195.947 57.4688 195.24 58.6474C194.551 59.826 193.608 60.7416 192.411 61.3944C191.232 62.029 189.909 62.3463 188.44 62.3463ZM188.44 59.0281C189.129 59.0281 189.773 58.8649 190.371 58.5386C190.988 58.194 191.477 57.6863 191.84 57.0154C192.202 56.3446 192.384 55.5286 192.384 54.5676C192.384 53.1351 192.003 52.0381 191.241 51.2766C190.498 50.4969 189.582 50.107 188.494 50.107C187.406 50.107 186.491 50.4969 185.747 51.2766C185.022 52.0381 184.659 53.1351 184.659 54.5676C184.659 56 185.013 57.1061 185.72 57.8858C186.445 58.6474 187.352 59.0281 188.44 59.0281ZM202.901 49.3727C203.391 48.5748 204.025 47.9493 204.805 47.496C205.603 47.0427 206.51 46.816 207.525 46.816V50.8142H206.519C205.322 50.8142 204.415 51.0952 203.799 51.6573C203.2 52.2194 202.901 53.1986 202.901 54.5948V62.1016H199.093V47.0336H202.901V49.3727ZM228.802 46.816C230.652 46.816 232.139 47.3872 233.263 48.5295C234.405 49.6537 234.976 51.2312 234.976 53.2621V62.1016H231.169V53.7788C231.169 52.6002 230.869 51.7027 230.271 51.0862C229.673 50.4515 228.857 50.1342 227.823 50.1342C226.79 50.1342 225.965 50.4515 225.348 51.0862C224.75 51.7027 224.45 52.6002 224.45 53.7788V62.1016H220.643V53.7788C220.643 52.6002 220.344 51.7027 219.745 51.0862C219.147 50.4515 218.331 50.1342 217.297 50.1342C216.246 50.1342 215.412 50.4515 214.795 51.0862C214.197 51.7027 213.897 52.6002 213.897 53.7788V62.1016H210.09V47.0336H213.897V48.8559C214.387 48.2213 215.013 47.7226 215.774 47.36C216.554 46.9973 217.406 46.816 218.331 46.816C219.509 46.816 220.561 47.0699 221.486 47.5776C222.411 48.0671 223.127 48.7743 223.635 49.6991C224.124 48.8287 224.831 48.1306 225.756 47.6048C226.699 47.0789 227.714 46.816 228.802 46.816ZM240.521 45.2385C239.85 45.2385 239.288 45.03 238.834 44.6129C238.399 44.1778 238.182 43.6429 238.182 43.0082C238.182 42.3736 238.399 41.8478 238.834 41.4307C239.288 40.9955 239.85 40.778 240.521 40.778C241.192 40.778 241.745 40.9955 242.18 41.4307C242.633 41.8478 242.86 42.3736 242.86 43.0082C242.86 43.6429 242.633 44.1778 242.18 44.6129C241.745 45.03 241.192 45.2385 240.521 45.2385ZM242.397 47.0336V62.1016H238.59V47.0336H242.397ZM254.509 46.816C256.305 46.816 257.755 47.3872 258.861 48.5295C259.967 49.6537 260.52 51.2312 260.52 53.2621V62.1016H256.713V53.7788C256.713 52.5821 256.413 51.6664 255.815 51.0318C255.217 50.379 254.401 50.0526 253.367 50.0526C252.315 50.0526 251.481 50.379 250.865 51.0318C250.267 51.6664 249.967 52.5821 249.967 53.7788V62.1016H246.16V47.0336H249.967V48.9103C250.475 48.2575 251.119 47.7498 251.898 47.3872C252.696 47.0064 253.567 46.816 254.509 46.816ZM270.043 46.7888C271.168 46.7888 272.156 47.0155 273.008 47.4688C273.86 47.904 274.531 48.4751 275.021 49.1823V47.0336H278.856V62.2104C278.856 63.6065 278.575 64.8486 278.013 65.9365C277.45 67.0426 276.607 67.913 275.483 68.5476C274.359 69.2004 272.999 69.5267 271.403 69.5267C269.264 69.5267 267.505 69.0281 266.127 68.0308C264.767 67.0336 263.996 65.6736 263.815 63.9511H267.596C267.795 64.6401 268.221 65.1841 268.874 65.583C269.545 66 270.352 66.2085 271.295 66.2085C272.401 66.2085 273.298 65.8731 273.987 65.2022C274.676 64.5494 275.021 63.5521 275.021 62.2104V59.8713C274.531 60.5784 273.851 61.1677 272.981 61.6392C272.129 62.1106 271.15 62.3463 270.043 62.3463C268.774 62.3463 267.614 62.02 266.562 61.3672C265.51 60.7144 264.676 59.7988 264.06 58.6202C263.461 57.4234 263.162 56.0544 263.162 54.5132C263.162 52.9901 263.461 51.6392 264.06 50.4606C264.676 49.282 265.501 48.3754 266.535 47.7408C267.587 47.1061 268.756 46.7888 270.043 46.7888ZM275.021 54.5676C275.021 53.6428 274.839 52.8541 274.477 52.2013C274.114 51.5304 273.625 51.0227 273.008 50.6782C272.392 50.3156 271.73 50.1342 271.023 50.1342C270.315 50.1342 269.663 50.3065 269.064 50.651C268.466 50.9955 267.976 51.5032 267.596 52.1741C267.233 52.8269 267.052 53.6066 267.052 54.5132C267.052 55.4198 267.233 56.2176 267.596 56.9067C267.976 57.5775 268.466 58.0943 269.064 58.457C269.681 58.8196 270.334 59.0009 271.023 59.0009C271.73 59.0009 272.392 58.8287 273.008 58.4842C273.625 58.1215 274.114 57.6138 274.477 56.961C274.839 56.2902 275.021 55.4923 275.021 54.5676ZM298.847 62.1016L294.658 54.7036H292.863V62.1016H289.056V43.117H296.182C297.65 43.117 298.901 43.3799 299.935 43.9058C300.969 44.4135 301.739 45.1116 302.247 46.0001C302.773 46.8704 303.036 47.8496 303.036 48.9375C303.036 50.1886 302.673 51.3219 301.948 52.3373C301.222 53.3346 300.144 54.0236 298.711 54.4044L303.253 62.1016H298.847ZM292.863 51.8477H296.046C297.079 51.8477 297.85 51.6029 298.357 51.1134C298.865 50.6057 299.119 49.9076 299.119 49.0191C299.119 48.1487 298.865 47.4778 298.357 47.0064C297.85 46.5168 297.079 46.272 296.046 46.272H292.863V51.8477ZM320.487 54.2412C320.487 54.7852 320.451 55.2747 320.378 55.7099H309.363C309.453 56.7979 309.834 57.6501 310.505 58.2666C311.176 58.8831 312.001 59.1913 312.98 59.1913C314.394 59.1913 315.401 58.5839 315.999 57.369H320.106C319.671 58.8196 318.837 60.0163 317.604 60.9592C316.371 61.884 314.857 62.3463 313.062 62.3463C311.611 62.3463 310.306 62.029 309.145 61.3944C308.003 60.7416 307.105 59.826 306.452 58.6474C305.818 57.4688 305.501 56.1088 305.501 54.5676C305.501 53.0082 305.818 51.6392 306.452 50.4606C307.087 49.282 307.976 48.3754 309.118 47.7408C310.26 47.1061 311.575 46.7888 313.062 46.7888C314.494 46.7888 315.772 47.0971 316.897 47.7136C318.039 48.3301 318.918 49.2095 319.535 50.3518C320.17 51.476 320.487 52.7725 320.487 54.2412ZM316.543 53.1533C316.525 52.1741 316.171 51.3944 315.482 50.8142C314.793 50.2158 313.95 49.9166 312.953 49.9166C312.01 49.9166 311.212 50.2068 310.559 50.787C309.925 51.3491 309.535 52.1379 309.39 53.1533H316.543ZM329.168 46.7888C330.292 46.7888 331.281 47.0155 332.133 47.4688C332.985 47.904 333.656 48.4751 334.146 49.1823V47.0336H337.981V62.2104C337.981 63.6065 337.7 64.8486 337.137 65.9365C336.575 67.0426 335.732 67.913 334.608 68.5476C333.484 69.2004 332.124 69.5267 330.528 69.5267C328.389 69.5267 326.63 69.0281 325.252 68.0308C323.892 67.0336 323.121 65.6736 322.94 63.9511H326.72C326.92 64.6401 327.346 65.1841 327.999 65.583C328.67 66 329.477 66.2085 330.419 66.2085C331.525 66.2085 332.423 65.8731 333.112 65.2022C333.801 64.5494 334.146 63.5521 334.146 62.2104V59.8713C333.656 60.5784 332.976 61.1677 332.106 61.6392C331.254 62.1106 330.274 62.3463 329.168 62.3463C327.899 62.3463 326.739 62.02 325.687 61.3672C324.635 60.7144 323.801 59.7988 323.185 58.6202C322.586 57.4234 322.287 56.0544 322.287 54.5132C322.287 52.9901 322.586 51.6392 323.185 50.4606C323.801 49.282 324.626 48.3754 325.66 47.7408C326.711 47.1061 327.881 46.7888 329.168 46.7888ZM334.146 54.5676C334.146 53.6428 333.964 52.8541 333.602 52.2013C333.239 51.5304 332.749 51.0227 332.133 50.6782C331.516 50.3156 330.855 50.1342 330.147 50.1342C329.44 50.1342 328.788 50.3065 328.189 50.651C327.591 50.9955 327.101 51.5032 326.72 52.1741C326.358 52.8269 326.176 53.6066 326.176 54.5132C326.176 55.4198 326.358 56.2176 326.72 56.9067C327.101 57.5775 327.591 58.0943 328.189 58.457C328.806 58.8196 329.458 59.0009 330.147 59.0009C330.855 59.0009 331.516 58.8287 332.133 58.4842C332.749 58.1215 333.239 57.6138 333.602 56.961C333.964 56.2902 334.146 55.4923 334.146 54.5676ZM343.631 45.2385C342.96 45.2385 342.398 45.03 341.944 44.6129C341.509 44.1778 341.292 43.6429 341.292 43.0082C341.292 42.3736 341.509 41.8478 341.944 41.4307C342.398 40.9955 342.96 40.778 343.631 40.778C344.302 40.778 344.855 40.9955 345.29 41.4307C345.743 41.8478 345.97 42.3736 345.97 43.0082C345.97 43.6429 345.743 44.1778 345.29 44.6129C344.855 45.03 344.302 45.2385 343.631 45.2385ZM345.507 47.0336V62.1016H341.7V47.0336H345.507ZM355.96 62.3463C354.51 62.3463 353.204 62.029 352.044 61.3944C350.883 60.7416 349.968 59.826 349.297 58.6474C348.644 57.4688 348.318 56.1088 348.318 54.5676C348.318 53.0263 348.653 51.6664 349.324 50.4878C350.013 49.3092 350.947 48.4026 352.125 47.768C353.304 47.1152 354.618 46.7888 356.069 46.7888C357.52 46.7888 358.834 47.1152 360.013 47.768C361.191 48.4026 362.116 49.3092 362.787 50.4878C363.476 51.6664 363.821 53.0263 363.821 54.5676C363.821 56.1088 363.467 57.4688 362.76 58.6474C362.071 59.826 361.128 60.7416 359.931 61.3944C358.753 62.029 357.429 62.3463 355.96 62.3463ZM355.96 59.0281C356.649 59.0281 357.293 58.8649 357.891 58.5386C358.508 58.194 358.997 57.6863 359.36 57.0154C359.723 56.3446 359.904 55.5286 359.904 54.5676C359.904 53.1351 359.523 52.0381 358.762 51.2766C358.018 50.4969 357.103 50.107 356.015 50.107C354.927 50.107 354.011 50.4969 353.268 51.2766C352.542 52.0381 352.18 53.1351 352.18 54.5676C352.18 56 352.533 57.1061 353.24 57.8858C353.966 58.6474 354.872 59.0281 355.96 59.0281ZM374.964 46.816C376.759 46.816 378.209 47.3872 379.315 48.5295C380.422 49.6537 380.975 51.2312 380.975 53.2621V62.1016H377.167V53.7788C377.167 52.5821 376.868 51.6664 376.269 51.0318C375.671 50.379 374.855 50.0526 373.821 50.0526C372.77 50.0526 371.936 50.379 371.319 51.0318C370.721 51.6664 370.422 52.5821 370.422 53.7788V62.1016H366.614V47.0336H370.422V48.9103C370.929 48.2575 371.573 47.7498 372.353 47.3872C373.15 47.0064 374.021 46.816 374.964 46.816Z" fill="#3AA959"/>
<rect x="128.194" y="91.1426" width="172.276" height="177.062" rx="86.1381" fill="#6EFF97" fill-opacity="0.24"/>
<path d="M163.301 160.197L173.755 189.713L184.152 160.197H195.165V200.893H186.752V189.768L187.59 170.567L176.606 200.893H170.848L159.892 170.595L160.73 189.768V200.893H152.345V160.197H163.301ZM235.581 200.893H227.196L210.873 174.116V200.893H202.488V160.197H210.873L227.224 187.029V160.197H235.581V200.893ZM275.102 195.75C273.593 197.557 271.459 198.964 268.702 199.97C265.944 200.958 262.888 201.452 259.534 201.452C256.012 201.452 252.919 200.688 250.254 199.16C247.609 197.613 245.559 195.377 244.105 192.452C242.671 189.526 241.935 186.088 241.897 182.138V179.371C241.897 175.309 242.578 171.796 243.938 168.834C245.317 165.852 247.292 163.579 249.863 162.014C252.453 160.43 255.481 159.638 258.947 159.638C263.773 159.638 267.546 160.793 270.267 163.104C272.987 165.396 274.599 168.741 275.102 173.138H266.941C266.568 170.809 265.739 169.104 264.453 168.023C263.186 166.942 261.435 166.402 259.199 166.402C256.348 166.402 254.177 167.473 252.686 169.616C251.195 171.759 250.441 174.945 250.422 179.175V181.775C250.422 186.042 251.233 189.265 252.854 191.445C254.475 193.626 256.851 194.716 259.981 194.716C263.13 194.716 265.376 194.045 266.717 192.703V185.688H259.087V179.511H275.102V195.75Z" fill="#2F8547"/>
<path d="M152.294 286.544L158.183 302.19L164.057 286.544H168.642V306.957H165.109V300.227L165.459 291.227L159.431 306.957H156.893L150.878 291.241L151.229 300.227V306.957H147.696V286.544H152.294ZM181.582 306.957C181.432 306.667 181.302 306.195 181.189 305.541C180.105 306.672 178.778 307.237 177.208 307.237C175.684 307.237 174.441 306.803 173.478 305.934C172.516 305.064 172.034 303.989 172.034 302.709C172.034 301.092 172.633 299.854 173.829 298.994C175.035 298.125 176.754 297.69 178.988 297.69H181.077V296.694C181.077 295.909 180.858 295.283 180.418 294.816C179.979 294.339 179.311 294.101 178.413 294.101C177.638 294.101 177.002 294.297 176.507 294.69C176.011 295.073 175.764 295.564 175.764 296.162H172.357C172.357 295.33 172.633 294.554 173.184 293.834C173.736 293.105 174.483 292.535 175.427 292.124C176.381 291.713 177.441 291.507 178.61 291.507C180.386 291.507 181.802 291.956 182.858 292.853C183.914 293.741 184.456 294.993 184.484 296.61V303.452C184.484 304.817 184.676 305.906 185.059 306.719V306.957H181.582ZM177.839 304.504C178.512 304.504 179.143 304.34 179.731 304.013C180.33 303.686 180.778 303.246 181.077 302.695V299.835H179.241C177.979 299.835 177.03 300.055 176.395 300.494C175.759 300.933 175.441 301.555 175.441 302.359C175.441 303.013 175.656 303.536 176.086 303.929C176.525 304.312 177.11 304.504 177.839 304.504ZM191.214 291.788L191.312 293.54C192.433 292.185 193.905 291.507 195.728 291.507C198.887 291.507 200.495 293.316 200.551 296.933V306.957H197.144V297.129C197.144 296.166 196.934 295.456 196.513 294.998C196.102 294.531 195.424 294.297 194.48 294.297C193.106 294.297 192.083 294.919 191.41 296.162V306.957H188.003V291.788H191.214ZM203.439 299.26C203.439 296.905 203.99 295.026 205.093 293.624C206.206 292.213 207.678 291.507 209.51 291.507C211.239 291.507 212.599 292.11 213.589 293.316L213.744 291.788H216.814V306.494C216.814 308.485 216.192 310.055 214.949 311.205C213.715 312.355 212.047 312.929 209.944 312.929C208.832 312.929 207.743 312.696 206.678 312.229C205.621 311.771 204.818 311.168 204.266 310.42L205.878 308.373C206.925 309.616 208.215 310.238 209.748 310.238C210.879 310.238 211.771 309.929 212.426 309.312C213.08 308.705 213.407 307.808 213.407 306.621V305.597C212.426 306.691 211.117 307.237 209.481 307.237C207.706 307.237 206.252 306.532 205.121 305.12C204 303.709 203.439 301.756 203.439 299.26ZM206.832 299.555C206.832 301.078 207.14 302.279 207.757 303.158C208.383 304.027 209.248 304.461 210.351 304.461C211.725 304.461 212.743 303.873 213.407 302.695V296.022C212.762 294.872 211.753 294.297 210.379 294.297C209.257 294.297 208.383 294.741 207.757 295.629C207.14 296.517 206.832 297.825 206.832 299.555ZM229.39 306.957C229.24 306.667 229.109 306.195 228.997 305.541C227.913 306.672 226.586 307.237 225.016 307.237C223.492 307.237 222.249 306.803 221.286 305.934C220.324 305.064 219.842 303.989 219.842 302.709C219.842 301.092 220.44 299.854 221.637 298.994C222.842 298.125 224.562 297.69 226.796 297.69H228.885V296.694C228.885 295.909 228.665 295.283 228.226 294.816C227.787 294.339 227.118 294.101 226.221 294.101C225.445 294.101 224.81 294.297 224.315 294.69C223.819 295.073 223.571 295.564 223.571 296.162H220.165C220.165 295.33 220.44 294.554 220.992 293.834C221.543 293.105 222.291 292.535 223.235 292.124C224.188 291.713 225.249 291.507 226.417 291.507C228.193 291.507 229.609 291.956 230.666 292.853C231.722 293.741 232.264 294.993 232.292 296.61V303.452C232.292 304.817 232.483 305.906 232.867 306.719V306.957H229.39ZM225.646 304.504C226.319 304.504 226.95 304.34 227.539 304.013C228.137 303.686 228.586 303.246 228.885 302.695V299.835H227.048C225.787 299.835 224.838 300.055 224.202 300.494C223.567 300.933 223.249 301.555 223.249 302.359C223.249 303.013 223.464 303.536 223.894 303.929C224.333 304.312 224.917 304.504 225.646 304.504ZM239.484 306.957H236.077V285.423H239.484V306.957ZM242.568 299.232C242.568 297.746 242.863 296.409 243.452 295.222C244.04 294.026 244.868 293.11 245.933 292.475C246.999 291.83 248.223 291.507 249.606 291.507C251.653 291.507 253.312 292.166 254.583 293.484C255.864 294.802 256.556 296.55 256.658 298.727L256.672 299.527C256.672 301.022 256.383 302.359 255.803 303.536C255.233 304.714 254.41 305.625 253.336 306.27C252.27 306.915 251.036 307.237 249.634 307.237C247.494 307.237 245.779 306.527 244.489 305.106C243.209 303.676 242.568 301.774 242.568 299.4V299.232ZM245.975 299.527C245.975 301.087 246.298 302.312 246.943 303.2C247.587 304.078 248.485 304.518 249.634 304.518C250.784 304.518 251.677 304.069 252.312 303.172C252.957 302.274 253.28 300.961 253.28 299.232C253.28 297.699 252.948 296.484 252.284 295.587C251.63 294.69 250.737 294.241 249.606 294.241C248.494 294.241 247.611 294.685 246.957 295.573C246.302 296.451 245.975 297.769 245.975 299.527ZM267.496 294.9C267.047 294.825 266.584 294.788 266.108 294.788C264.547 294.788 263.495 295.386 262.953 296.582V306.957H259.546V291.788H262.799L262.883 293.484C263.706 292.166 264.846 291.507 266.304 291.507C266.79 291.507 267.192 291.573 267.51 291.703L267.496 294.9ZM276.048 307.237C273.889 307.237 272.136 306.56 270.79 305.205C269.454 303.84 268.786 302.027 268.786 299.765V299.344C268.786 297.83 269.075 296.48 269.655 295.293C270.244 294.096 271.066 293.166 272.122 292.503C273.178 291.839 274.356 291.507 275.655 291.507C277.721 291.507 279.314 292.166 280.436 293.484C281.567 294.802 282.132 296.666 282.132 299.078V300.452H272.22C272.323 301.704 272.739 302.695 273.468 303.424C274.207 304.153 275.132 304.518 276.244 304.518C277.805 304.518 279.076 303.887 280.057 302.625L281.894 304.377C281.287 305.284 280.473 305.99 279.455 306.494C278.445 306.99 277.31 307.237 276.048 307.237ZM275.641 294.241C274.707 294.241 273.949 294.568 273.37 295.222C272.8 295.877 272.435 296.788 272.276 297.956H278.768V297.704C278.693 296.564 278.389 295.704 277.856 295.124C277.324 294.535 276.585 294.241 275.641 294.241Z" fill="#4F4F4F"/>
<path d="M87.2322 390.802L80.0079 407.723H76.1513L83.4299 391.237H74.1415V387.978H87.2322V390.802ZM103.043 388.766C105.034 388.766 106.781 389.155 108.284 389.933C109.805 390.712 110.973 391.825 111.788 393.274C112.621 394.704 113.037 396.37 113.037 398.271C113.037 400.172 112.621 401.838 111.788 403.269C110.973 404.681 109.805 405.776 108.284 406.555C106.781 407.333 105.034 407.723 103.043 407.723H96.4157V388.766H103.043ZM102.907 404.491C104.898 404.491 106.437 403.948 107.524 402.861C108.61 401.775 109.153 400.245 109.153 398.271C109.153 396.298 108.61 394.759 107.524 393.654C106.437 392.532 104.898 391.97 102.907 391.97H100.218V404.491H102.907ZM114.906 400.145C114.906 398.624 115.204 397.275 115.802 396.099C116.417 394.922 117.241 394.016 118.273 393.383C119.323 392.749 120.491 392.432 121.777 392.432C122.899 392.432 123.877 392.658 124.71 393.111C125.561 393.564 126.24 394.134 126.747 394.822V392.676H130.576V407.723H126.747V405.523C126.258 406.229 125.579 406.817 124.71 407.288C123.859 407.741 122.872 407.967 121.75 407.967C120.482 407.967 119.323 407.641 118.273 406.989C117.241 406.338 116.417 405.423 115.802 404.246C115.204 403.051 114.906 401.684 114.906 400.145ZM126.747 400.2C126.747 399.276 126.566 398.489 126.204 397.837C125.842 397.167 125.353 396.66 124.737 396.316C124.122 395.954 123.461 395.773 122.755 395.773C122.048 395.773 121.397 395.945 120.799 396.289C120.202 396.633 119.713 397.14 119.333 397.81C118.97 398.461 118.789 399.24 118.789 400.145C118.789 401.051 118.97 401.847 119.333 402.535C119.713 403.205 120.202 403.721 120.799 404.083C121.415 404.445 122.067 404.627 122.755 404.627C123.461 404.627 124.122 404.454 124.737 404.11C125.353 403.748 125.842 403.241 126.204 402.59C126.566 401.92 126.747 401.123 126.747 400.2ZM148.684 392.676L139.369 414.838H135.322L138.581 407.342L132.552 392.676H136.816L140.7 403.187L144.638 392.676H148.684ZM156.492 407.967C155.261 407.967 154.156 407.75 153.178 407.315C152.201 406.863 151.422 406.256 150.843 405.496C150.281 404.735 149.974 403.893 149.919 402.97H153.749C153.821 403.549 154.102 404.029 154.591 404.409C155.098 404.789 155.722 404.98 156.465 404.98C157.189 404.98 157.75 404.835 158.149 404.545C158.565 404.255 158.773 403.884 158.773 403.431C158.773 402.943 158.52 402.581 158.013 402.345C157.524 402.092 156.736 401.82 155.65 401.53C154.527 401.259 153.604 400.978 152.88 400.688C152.174 400.399 151.558 399.955 151.033 399.358C150.526 398.76 150.272 397.954 150.272 396.94C150.272 396.108 150.508 395.347 150.979 394.659C151.467 393.971 152.155 393.428 153.043 393.03C153.948 392.631 155.007 392.432 156.22 392.432C158.013 392.432 159.443 392.885 160.511 393.79C161.58 394.677 162.168 395.881 162.277 397.402H158.637C158.583 396.805 158.33 396.334 157.877 395.99C157.442 395.628 156.854 395.447 156.112 395.447C155.424 395.447 154.889 395.573 154.509 395.827C154.147 396.08 153.966 396.433 153.966 396.886C153.966 397.393 154.22 397.782 154.727 398.054C155.233 398.307 156.021 398.57 157.089 398.842C158.176 399.113 159.072 399.394 159.778 399.684C160.484 399.973 161.091 400.426 161.598 401.041C162.123 401.639 162.394 402.436 162.413 403.431C162.413 404.301 162.168 405.079 161.679 405.767C161.209 406.455 160.52 406.998 159.615 407.397C158.728 407.777 157.687 407.967 156.492 407.967Z" fill="#3AA959"/>
<path d="M282.053 393.15C282.144 391.341 282.777 389.948 283.953 388.971C285.147 387.976 286.712 387.478 288.647 387.478C289.968 387.478 291.099 387.713 292.04 388.184C292.98 388.636 293.686 389.26 294.156 390.056C294.645 390.834 294.889 391.721 294.889 392.716C294.889 393.855 294.591 394.823 293.994 395.619C293.415 396.397 292.718 396.922 291.904 397.193V397.302C292.953 397.628 293.767 398.206 294.346 399.039C294.943 399.871 295.242 400.938 295.242 402.241C295.242 403.326 294.989 404.294 294.482 405.145C293.994 405.995 293.261 406.664 292.284 407.153C291.325 407.623 290.167 407.858 288.81 407.858C286.766 407.858 285.102 407.343 283.817 406.312C282.533 405.28 281.854 403.761 281.782 401.752H285.472C285.509 402.639 285.807 403.354 286.368 403.896C286.947 404.421 287.734 404.683 288.729 404.683C289.652 404.683 290.357 404.43 290.846 403.923C291.352 403.399 291.605 402.729 291.605 401.915C291.605 400.83 291.262 400.052 290.574 399.581C289.887 399.111 288.819 398.876 287.372 398.876H286.585V395.755H287.372C289.941 395.755 291.226 394.896 291.226 393.177C291.226 392.399 290.99 391.793 290.52 391.359C290.068 390.925 289.407 390.708 288.539 390.708C287.689 390.708 287.028 390.943 286.558 391.413C286.106 391.865 285.843 392.444 285.771 393.15H282.053ZM298.244 397.573C298.244 394.443 298.805 391.992 299.927 390.219C301.066 388.446 302.948 387.56 305.571 387.56C308.195 387.56 310.067 388.446 311.189 390.219C312.328 391.992 312.898 394.443 312.898 397.573C312.898 400.721 312.328 403.191 311.189 404.982C310.067 406.773 308.195 407.668 305.571 407.668C302.948 407.668 301.066 406.773 299.927 404.982C298.805 403.191 298.244 400.721 298.244 397.573ZM309.153 397.573C309.153 396.234 309.063 395.113 308.882 394.208C308.719 393.286 308.375 392.535 307.851 391.956C307.344 391.377 306.584 391.087 305.571 391.087C304.558 391.087 303.789 391.377 303.265 391.956C302.758 392.535 302.414 393.286 302.233 394.208C302.071 395.113 301.989 396.234 301.989 397.573C301.989 398.948 302.071 400.106 302.233 401.047C302.396 401.97 302.74 402.72 303.265 403.299C303.789 403.86 304.558 404.141 305.571 404.141C306.584 404.141 307.353 403.86 307.878 403.299C308.403 402.72 308.746 401.97 308.909 401.047C309.072 400.106 309.153 398.948 309.153 397.573ZM329.31 388.781C331.3 388.781 333.046 389.17 334.548 389.948C336.067 390.726 337.234 391.838 338.048 393.286C338.881 394.715 339.297 396.379 339.297 398.279C339.297 400.178 338.881 401.843 338.048 403.272C337.234 404.683 336.067 405.778 334.548 406.556C333.046 407.334 331.3 407.723 329.31 407.723H322.689V388.781H329.31ZM329.174 404.493C331.165 404.493 332.702 403.951 333.788 402.865C334.873 401.78 335.416 400.251 335.416 398.279C335.416 396.307 334.873 394.769 333.788 393.665C332.702 392.544 331.165 391.983 329.174 391.983H326.488V404.493H329.174ZM341.164 400.151C341.164 398.632 341.462 397.284 342.059 396.108C342.674 394.932 343.497 394.027 344.529 393.394C345.578 392.761 346.745 392.444 348.029 392.444C349.151 392.444 350.128 392.67 350.96 393.123C351.811 393.575 352.489 394.145 352.996 394.832V392.689H356.822V407.723H352.996V405.525C352.507 406.23 351.829 406.818 350.96 407.288C350.11 407.741 349.124 407.967 348.002 407.967C346.736 407.967 345.578 407.641 344.529 406.99C343.497 406.339 342.674 405.425 342.059 404.249C341.462 403.055 341.164 401.689 341.164 400.151ZM352.996 400.206C352.996 399.283 352.815 398.496 352.453 397.845C352.091 397.175 351.602 396.669 350.987 396.325C350.372 395.963 349.712 395.782 349.006 395.782C348.301 395.782 347.649 395.954 347.052 396.298C346.455 396.642 345.967 397.148 345.587 397.818C345.225 398.469 345.044 399.247 345.044 400.151C345.044 401.056 345.225 401.852 345.587 402.539C345.967 403.209 346.455 403.724 347.052 404.086C347.668 404.448 348.319 404.629 349.006 404.629C349.712 404.629 350.372 404.457 350.987 404.113C351.602 403.752 352.091 403.245 352.453 402.594C352.815 401.924 352.996 401.128 352.996 400.206ZM374.915 392.689L365.607 414.833H361.564L364.82 407.343L358.796 392.689H363.056L366.937 403.191L370.872 392.689H374.915ZM382.717 407.967C381.486 407.967 380.383 407.75 379.406 407.316C378.429 406.863 377.651 406.257 377.072 405.497C376.511 404.738 376.204 403.896 376.149 402.974H379.976C380.048 403.553 380.328 404.032 380.817 404.412C381.323 404.792 381.948 404.982 382.689 404.982C383.413 404.982 383.974 404.837 384.372 404.548C384.788 404.258 384.996 403.887 384.996 403.435C384.996 402.946 384.743 402.585 384.236 402.349C383.748 402.096 382.961 401.825 381.875 401.535C380.754 401.264 379.831 400.984 379.107 400.694C378.402 400.405 377.787 399.961 377.262 399.364C376.755 398.767 376.502 397.962 376.502 396.949C376.502 396.117 376.737 395.357 377.208 394.67C377.696 393.982 378.384 393.439 379.27 393.041C380.175 392.643 381.233 392.444 382.445 392.444C384.236 392.444 385.665 392.897 386.733 393.801C387.8 394.688 388.388 395.891 388.497 397.41H384.86C384.806 396.813 384.553 396.343 384.101 395.999C383.666 395.637 383.078 395.457 382.337 395.457C381.649 395.457 381.115 395.583 380.735 395.836C380.374 396.09 380.193 396.443 380.193 396.895C380.193 397.401 380.446 397.79 380.953 398.062C381.459 398.315 382.246 398.577 383.314 398.849C384.399 399.12 385.295 399.401 386 399.69C386.706 399.979 387.312 400.432 387.818 401.047C388.343 401.644 388.614 402.44 388.632 403.435C388.632 404.303 388.388 405.081 387.9 405.769C387.429 406.456 386.742 406.999 385.837 407.397C384.951 407.777 383.911 407.967 382.717 407.967Z" fill="#3AA959"/>
<path d="M75.921 373.297C76.59 373.297 77.1746 373.427 77.6748 373.686C78.181 373.939 78.5697 374.307 78.8409 374.789C79.1182 375.265 79.2568 375.822 79.2568 376.461C79.2568 377.1 79.1182 377.655 78.8409 378.125C78.5697 378.595 78.181 378.956 77.6748 379.209C77.1746 379.457 76.59 379.58 75.921 379.58H73.8689V373.297H75.921ZM75.921 378.739C76.6563 378.739 77.2198 378.54 77.6115 378.143C78.0032 377.745 78.1991 377.184 78.1991 376.461C78.1991 375.732 78.0032 375.163 77.6115 374.753C77.2198 374.343 76.6563 374.138 75.921 374.138H74.8995V378.739H75.921ZM79.9346 377.067C79.9346 376.567 80.0371 376.124 80.242 375.738C80.4529 375.352 80.7362 375.054 81.0918 374.843C81.4534 374.626 81.8511 374.518 82.2851 374.518C82.6768 374.518 83.0173 374.596 83.3066 374.753C83.6019 374.903 83.8369 375.093 84.0117 375.322V374.599H85.0513V379.58H84.0117V378.839C83.8369 379.074 83.5989 379.27 83.2975 379.426C82.9962 379.583 82.6527 379.661 82.267 379.661C81.8391 379.661 81.4473 379.553 81.0918 379.336C80.7362 379.113 80.4529 378.806 80.242 378.414C80.0371 378.016 79.9346 377.567 79.9346 377.067ZM84.0117 377.085C84.0117 376.742 83.9394 376.443 83.7947 376.19C83.6561 375.937 83.4723 375.744 83.2433 375.612C83.0143 375.479 82.7672 375.413 82.502 375.413C82.2368 375.413 81.9897 375.479 81.7607 375.612C81.5317 375.738 81.3449 375.928 81.2002 376.181C81.0616 376.428 80.9923 376.723 80.9923 377.067C80.9923 377.41 81.0616 377.712 81.2002 377.971C81.3449 378.23 81.5317 378.429 81.7607 378.568C81.9958 378.7 82.2429 378.766 82.502 378.766C82.7672 378.766 83.0143 378.7 83.2433 378.568C83.4723 378.435 83.6561 378.242 83.7947 377.989C83.9394 377.73 84.0117 377.429 84.0117 377.085ZM86.9292 373.939C86.7424 373.939 86.5857 373.876 86.4591 373.749C86.3326 373.623 86.2693 373.466 86.2693 373.279C86.2693 373.092 86.3326 372.936 86.4591 372.809C86.5857 372.683 86.7424 372.619 86.9292 372.619C87.11 372.619 87.2637 372.683 87.3903 372.809C87.5168 372.936 87.5801 373.092 87.5801 373.279C87.5801 373.466 87.5168 373.623 87.3903 373.749C87.2637 373.876 87.11 373.939 86.9292 373.939ZM87.4355 374.599V379.58H86.4049V374.599H87.4355ZM89.8191 372.89V379.58H88.7885V372.89H89.8191ZM95.656 374.599L92.6004 381.921H91.5337L92.5462 379.499L90.5845 374.599H91.7326L93.1338 378.396L94.5892 374.599H95.656ZM102.57 378.296H99.9391L99.4871 379.58H98.4113L100.662 373.288H101.856L104.107 379.58H103.022L102.57 378.296ZM102.28 377.456L101.259 374.536L100.228 377.456H102.28ZM104.742 377.085C104.742 376.573 104.844 376.124 105.049 375.738C105.26 375.346 105.549 375.045 105.917 374.834C106.285 374.623 106.706 374.518 107.183 374.518C107.785 374.518 108.282 374.662 108.674 374.952C109.072 375.235 109.34 375.642 109.479 376.172H108.367C108.276 375.925 108.132 375.732 107.933 375.593C107.734 375.455 107.484 375.386 107.183 375.386C106.761 375.386 106.423 375.536 106.17 375.838C105.923 376.133 105.799 376.549 105.799 377.085C105.799 377.621 105.923 378.04 106.17 378.342C106.423 378.643 106.761 378.794 107.183 378.794C107.779 378.794 108.174 378.531 108.367 378.007H109.479C109.334 378.513 109.063 378.917 108.665 379.218C108.267 379.514 107.773 379.661 107.183 379.661C106.706 379.661 106.285 379.556 105.917 379.345C105.549 379.128 105.26 378.827 105.049 378.441C104.844 378.049 104.742 377.597 104.742 377.085ZM111.708 375.44V378.197C111.708 378.384 111.75 378.519 111.835 378.604C111.925 378.682 112.076 378.721 112.287 378.721H112.919V379.58H112.106C111.642 379.58 111.286 379.472 111.039 379.255C110.792 379.038 110.668 378.685 110.668 378.197V375.44H110.081V374.599H110.668V373.361H111.708V374.599H112.919V375.44H111.708ZM114.394 373.939C114.207 373.939 114.05 373.876 113.924 373.749C113.797 373.623 113.734 373.466 113.734 373.279C113.734 373.092 113.797 372.936 113.924 372.809C114.05 372.683 114.207 372.619 114.394 372.619C114.574 372.619 114.728 372.683 114.855 372.809C114.981 372.936 115.045 373.092 115.045 373.279C115.045 373.466 114.981 373.623 114.855 373.749C114.728 373.876 114.574 373.939 114.394 373.939ZM114.9 374.599V379.58H113.869V374.599H114.9ZM118.178 378.658L119.589 374.599H120.683L118.784 379.58H117.555L115.665 374.599H116.768L118.178 378.658ZM121.986 373.939C121.799 373.939 121.642 373.876 121.516 373.749C121.389 373.623 121.326 373.466 121.326 373.279C121.326 373.092 121.389 372.936 121.516 372.809C121.642 372.683 121.799 372.619 121.986 372.619C122.167 372.619 122.32 372.683 122.447 372.809C122.573 372.936 122.637 373.092 122.637 373.279C122.637 373.466 122.573 373.623 122.447 373.749C122.32 373.876 122.167 373.939 121.986 373.939ZM122.492 374.599V379.58H121.462V374.599H122.492ZM125.047 375.44V378.197C125.047 378.384 125.09 378.519 125.174 378.604C125.264 378.682 125.415 378.721 125.626 378.721H126.259V379.58H125.445C124.981 379.58 124.626 379.472 124.378 379.255C124.131 379.038 124.008 378.685 124.008 378.197V375.44H123.42V374.599H124.008V373.361H125.047V374.599H126.259V375.44H125.047ZM131.693 374.599L128.637 381.921H127.57L128.583 379.499L126.621 374.599H127.769L129.17 378.396L130.626 374.599H131.693ZM136.889 379.643C136.467 379.643 136.087 379.571 135.75 379.426C135.412 379.276 135.147 379.065 134.954 378.794C134.761 378.522 134.665 378.206 134.665 377.844H135.768C135.792 378.116 135.897 378.339 136.084 378.513C136.277 378.688 136.545 378.776 136.889 378.776C137.244 378.776 137.521 378.691 137.72 378.522C137.919 378.348 138.019 378.125 138.019 377.853C138.019 377.642 137.955 377.471 137.829 377.338C137.708 377.206 137.555 377.103 137.368 377.031C137.187 376.958 136.934 376.88 136.608 376.796C136.199 376.687 135.864 376.579 135.605 376.47C135.352 376.356 135.135 376.181 134.954 375.946C134.773 375.711 134.683 375.398 134.683 375.006C134.683 374.644 134.773 374.328 134.954 374.057C135.135 373.785 135.388 373.577 135.713 373.433C136.039 373.288 136.416 373.216 136.843 373.216C137.452 373.216 137.949 373.37 138.335 373.677C138.727 373.978 138.944 374.394 138.986 374.924H137.847C137.829 374.695 137.72 374.5 137.521 374.337C137.323 374.174 137.06 374.093 136.735 374.093C136.44 374.093 136.199 374.168 136.012 374.319C135.825 374.469 135.732 374.686 135.732 374.97C135.732 375.163 135.789 375.322 135.903 375.449C136.024 375.569 136.175 375.666 136.355 375.738C136.536 375.81 136.783 375.889 137.097 375.973C137.512 376.088 137.85 376.202 138.109 376.317C138.374 376.431 138.597 376.609 138.778 376.85C138.965 377.085 139.058 377.401 139.058 377.799C139.058 378.119 138.971 378.42 138.796 378.703C138.627 378.986 138.377 379.215 138.046 379.39C137.72 379.559 137.335 379.643 136.889 379.643ZM141.477 375.44V378.197C141.477 378.384 141.519 378.519 141.603 378.604C141.694 378.682 141.844 378.721 142.055 378.721H142.688V379.58H141.874C141.41 379.58 141.055 379.472 140.808 379.255C140.561 379.038 140.437 378.685 140.437 378.197V375.44H139.849V374.599H140.437V373.361H141.477V374.599H142.688V375.44H141.477ZM144.668 375.322C144.819 375.069 145.018 374.873 145.265 374.735C145.518 374.59 145.817 374.518 146.16 374.518V375.584H145.898C145.494 375.584 145.187 375.687 144.976 375.892C144.771 376.097 144.668 376.452 144.668 376.958V379.58H143.638V374.599H144.668V375.322ZM151.673 376.968C151.673 377.154 151.66 377.323 151.636 377.474H147.831C147.861 377.872 148.008 378.191 148.273 378.432C148.539 378.673 148.864 378.794 149.25 378.794C149.804 378.794 150.196 378.562 150.425 378.098H151.537C151.386 378.556 151.112 378.932 150.714 379.228C150.323 379.517 149.834 379.661 149.25 379.661C148.774 379.661 148.346 379.556 147.966 379.345C147.592 379.128 147.297 378.827 147.08 378.441C146.869 378.049 146.764 377.597 146.764 377.085C146.764 376.573 146.866 376.124 147.071 375.738C147.282 375.346 147.574 375.045 147.948 374.834C148.328 374.623 148.762 374.518 149.25 374.518C149.72 374.518 150.139 374.62 150.506 374.825C150.874 375.03 151.16 375.319 151.365 375.693C151.57 376.06 151.673 376.485 151.673 376.968ZM150.597 376.642C150.591 376.262 150.455 375.958 150.19 375.729C149.925 375.5 149.596 375.386 149.205 375.386C148.849 375.386 148.545 375.5 148.292 375.729C148.038 375.952 147.888 376.256 147.84 376.642H150.597ZM152.343 377.067C152.343 376.567 152.446 376.124 152.651 375.738C152.861 375.352 153.145 375.054 153.5 374.843C153.862 374.626 154.26 374.518 154.694 374.518C155.085 374.518 155.426 374.596 155.715 374.753C156.01 374.903 156.245 375.093 156.42 375.322V374.599H157.46V379.58H156.42V378.839C156.245 379.074 156.007 379.27 155.706 379.426C155.405 379.583 155.061 379.661 154.676 379.661C154.248 379.661 153.856 379.553 153.5 379.336C153.145 379.113 152.861 378.806 152.651 378.414C152.446 378.016 152.343 377.567 152.343 377.067ZM156.42 377.085C156.42 376.742 156.348 376.443 156.203 376.19C156.065 375.937 155.881 375.744 155.652 375.612C155.423 375.479 155.176 375.413 154.911 375.413C154.645 375.413 154.398 375.479 154.169 375.612C153.94 375.738 153.753 375.928 153.609 376.181C153.47 376.428 153.401 376.723 153.401 377.067C153.401 377.41 153.47 377.712 153.609 377.971C153.753 378.23 153.94 378.429 154.169 378.568C154.404 378.7 154.651 378.766 154.911 378.766C155.176 378.766 155.423 378.7 155.652 378.568C155.881 378.435 156.065 378.242 156.203 377.989C156.348 377.73 156.42 377.429 156.42 377.085ZM160.784 377.094L163.08 379.58H161.688L159.844 377.438V379.58H158.813V372.89H159.844V376.778L161.652 374.599H163.08L160.784 377.094Z" fill="#B0B0B0"/>
<path d="M282.107 371.94V372.781H280.435V378.223H279.404V372.781H277.723V371.94H282.107ZM285.311 378.304C284.841 378.304 284.416 378.199 284.037 377.988C283.657 377.771 283.359 377.469 283.142 377.084C282.925 376.692 282.816 376.24 282.816 375.728C282.816 375.221 282.928 374.772 283.151 374.381C283.374 373.989 283.678 373.688 284.064 373.477C284.45 373.266 284.88 373.16 285.357 373.16C285.833 373.16 286.264 373.266 286.649 373.477C287.035 373.688 287.339 373.989 287.562 374.381C287.785 374.772 287.897 375.221 287.897 375.728C287.897 376.234 287.782 376.683 287.553 377.075C287.324 377.466 287.011 377.771 286.613 377.988C286.221 378.199 285.787 378.304 285.311 378.304ZM285.311 377.409C285.577 377.409 285.824 377.346 286.053 377.219C286.288 377.093 286.478 376.903 286.622 376.65C286.767 376.397 286.839 376.089 286.839 375.728C286.839 375.366 286.77 375.062 286.631 374.815C286.493 374.561 286.309 374.372 286.08 374.245C285.851 374.118 285.604 374.055 285.338 374.055C285.073 374.055 284.826 374.118 284.597 374.245C284.374 374.372 284.196 374.561 284.064 374.815C283.931 375.062 283.865 375.366 283.865 375.728C283.865 376.264 284.001 376.68 284.272 376.975C284.549 377.264 284.896 377.409 285.311 377.409ZM290.118 374.082V376.84C290.118 377.026 290.16 377.162 290.244 377.246C290.335 377.325 290.486 377.364 290.696 377.364H291.329V378.223H290.516C290.052 378.223 289.696 378.114 289.449 377.897C289.202 377.68 289.078 377.328 289.078 376.84V374.082H288.491V373.242H289.078V372.003H290.118V373.242H291.329V374.082H290.118ZM291.936 375.71C291.936 375.209 292.038 374.766 292.243 374.381C292.454 373.995 292.737 373.697 293.093 373.486C293.454 373.269 293.852 373.16 294.286 373.16C294.678 373.16 295.018 373.239 295.308 373.395C295.603 373.546 295.838 373.736 296.013 373.965V373.242H297.052V378.223H296.013V377.481C295.838 377.716 295.6 377.912 295.298 378.069C294.997 378.226 294.654 378.304 294.268 378.304C293.84 378.304 293.448 378.196 293.093 377.979C292.737 377.756 292.454 377.448 292.243 377.056C292.038 376.659 291.936 376.21 291.936 375.71ZM296.013 375.728C296.013 375.384 295.94 375.086 295.796 374.833C295.657 374.58 295.473 374.387 295.244 374.254C295.015 374.121 294.768 374.055 294.503 374.055C294.238 374.055 293.991 374.121 293.762 374.254C293.533 374.381 293.346 374.57 293.201 374.824C293.063 375.071 292.993 375.366 292.993 375.71C292.993 376.053 293.063 376.354 293.201 376.614C293.346 376.873 293.533 377.072 293.762 377.21C293.997 377.343 294.244 377.409 294.503 377.409C294.768 377.409 295.015 377.343 295.244 377.21C295.473 377.078 295.657 376.885 295.796 376.632C295.94 376.372 296.013 376.071 296.013 375.728ZM299.436 371.533V378.223H298.406V371.533H299.436ZM307.197 371.94V372.781H305.524V378.223H304.494V372.781H302.812V371.94H307.197ZM308.765 372.582C308.578 372.582 308.421 372.518 308.295 372.392C308.168 372.265 308.105 372.109 308.105 371.922C308.105 371.735 308.168 371.578 308.295 371.452C308.421 371.325 308.578 371.262 308.765 371.262C308.946 371.262 309.099 371.325 309.226 371.452C309.352 371.578 309.416 371.735 309.416 371.922C309.416 372.109 309.352 372.265 309.226 372.392C309.099 372.518 308.946 372.582 308.765 372.582ZM309.271 373.242V378.223H308.24V373.242H309.271ZM316.654 373.16C317.045 373.16 317.395 373.242 317.702 373.404C318.016 373.567 318.26 373.808 318.435 374.128C318.615 374.447 318.706 374.833 318.706 375.285V378.223H317.684V375.438C317.684 374.992 317.573 374.652 317.35 374.417C317.127 374.176 316.822 374.055 316.437 374.055C316.051 374.055 315.744 374.176 315.515 374.417C315.292 374.652 315.18 374.992 315.18 375.438V378.223H314.159V375.438C314.159 374.992 314.047 374.652 313.824 374.417C313.601 374.176 313.297 374.055 312.911 374.055C312.525 374.055 312.218 374.176 311.989 374.417C311.766 374.652 311.655 374.992 311.655 375.438V378.223H310.624V373.242H311.655V373.811C311.823 373.606 312.037 373.447 312.296 373.332C312.556 373.217 312.833 373.16 313.128 373.16C313.526 373.16 313.881 373.245 314.195 373.413C314.508 373.582 314.749 373.826 314.918 374.146C315.069 373.844 315.304 373.606 315.623 373.431C315.943 373.251 316.286 373.16 316.654 373.16ZM324.582 375.61C324.582 375.797 324.57 375.966 324.546 376.116H320.74C320.771 376.514 320.918 376.834 321.183 377.075C321.449 377.316 321.774 377.436 322.16 377.436C322.714 377.436 323.106 377.204 323.335 376.74H324.447C324.296 377.198 324.022 377.575 323.624 377.87C323.232 378.159 322.744 378.304 322.16 378.304C321.684 378.304 321.256 378.199 320.876 377.988C320.502 377.771 320.207 377.469 319.99 377.084C319.779 376.692 319.674 376.24 319.674 375.728C319.674 375.215 319.776 374.766 319.981 374.381C320.192 373.989 320.484 373.688 320.858 373.477C321.238 373.266 321.672 373.16 322.16 373.16C322.63 373.16 323.049 373.263 323.416 373.468C323.784 373.673 324.07 373.962 324.275 374.335C324.48 374.703 324.582 375.128 324.582 375.61ZM323.507 375.285C323.501 374.905 323.365 374.601 323.1 374.372C322.835 374.143 322.506 374.028 322.114 374.028C321.759 374.028 321.455 374.143 321.201 374.372C320.948 374.595 320.798 374.899 320.749 375.285H323.507ZM330.015 378.286C329.593 378.286 329.213 378.214 328.876 378.069C328.539 377.918 328.273 377.707 328.08 377.436C327.888 377.165 327.791 376.849 327.791 376.487H328.894C328.918 376.758 329.024 376.981 329.21 377.156C329.403 377.331 329.672 377.418 330.015 377.418C330.371 377.418 330.648 377.334 330.847 377.165C331.046 376.99 331.145 376.767 331.145 376.496C331.145 376.285 331.082 376.113 330.955 375.981C330.835 375.848 330.681 375.746 330.494 375.673C330.313 375.601 330.06 375.523 329.735 375.438C329.325 375.33 328.991 375.221 328.731 375.113C328.478 374.998 328.261 374.824 328.08 374.589C327.9 374.354 327.809 374.04 327.809 373.648C327.809 373.287 327.9 372.97 328.08 372.699C328.261 372.428 328.514 372.22 328.84 372.075C329.165 371.931 329.542 371.858 329.97 371.858C330.579 371.858 331.076 372.012 331.461 372.32C331.853 372.621 332.07 373.037 332.112 373.567H330.973C330.955 373.338 330.847 373.142 330.648 372.979C330.449 372.817 330.187 372.735 329.861 372.735C329.566 372.735 329.325 372.811 329.138 372.961C328.951 373.112 328.858 373.329 328.858 373.612C328.858 373.805 328.915 373.965 329.03 374.091C329.15 374.212 329.301 374.308 329.482 374.381C329.662 374.453 329.91 374.531 330.223 374.616C330.639 374.73 330.976 374.845 331.235 374.959C331.501 375.074 331.724 375.251 331.904 375.493C332.091 375.728 332.185 376.044 332.185 376.442C332.185 376.761 332.097 377.063 331.922 377.346C331.754 377.629 331.504 377.858 331.172 378.033C330.847 378.202 330.461 378.286 330.015 378.286ZM334.431 373.974C334.606 373.745 334.844 373.552 335.145 373.395C335.447 373.239 335.787 373.16 336.167 373.16C336.601 373.16 336.996 373.269 337.351 373.486C337.713 373.697 337.996 373.995 338.201 374.381C338.406 374.766 338.508 375.209 338.508 375.71C338.508 376.21 338.406 376.659 338.201 377.056C337.996 377.448 337.713 377.756 337.351 377.979C336.996 378.196 336.601 378.304 336.167 378.304C335.787 378.304 335.45 378.229 335.154 378.078C334.859 377.921 334.618 377.728 334.431 377.499V380.591H333.401V373.242H334.431V373.974ZM337.46 375.71C337.46 375.366 337.387 375.071 337.243 374.824C337.104 374.57 336.917 374.381 336.682 374.254C336.453 374.121 336.206 374.055 335.941 374.055C335.682 374.055 335.435 374.121 335.2 374.254C334.971 374.387 334.784 374.58 334.639 374.833C334.501 375.086 334.431 375.384 334.431 375.728C334.431 376.071 334.501 376.372 334.639 376.632C334.784 376.885 334.971 377.078 335.2 377.21C335.435 377.343 335.682 377.409 335.941 377.409C336.206 377.409 336.453 377.343 336.682 377.21C336.917 377.072 337.104 376.873 337.243 376.614C337.387 376.354 337.46 376.053 337.46 375.71ZM344.093 375.61C344.093 375.797 344.081 375.966 344.056 376.116H340.251C340.281 376.514 340.428 376.834 340.694 377.075C340.959 377.316 341.284 377.436 341.67 377.436C342.224 377.436 342.616 377.204 342.845 376.74H343.957C343.806 377.198 343.532 377.575 343.134 377.87C342.743 378.159 342.254 378.304 341.67 378.304C341.194 378.304 340.766 378.199 340.386 377.988C340.013 377.771 339.717 377.469 339.5 377.084C339.289 376.692 339.184 376.24 339.184 375.728C339.184 375.215 339.286 374.766 339.491 374.381C339.702 373.989 339.994 373.688 340.368 373.477C340.748 373.266 341.182 373.16 341.67 373.16C342.14 373.16 342.559 373.263 342.926 373.468C343.294 373.673 343.58 373.962 343.785 374.335C343.99 374.703 344.093 375.128 344.093 375.61ZM343.017 375.285C343.011 374.905 342.875 374.601 342.61 374.372C342.345 374.143 342.016 374.028 341.625 374.028C341.269 374.028 340.965 374.143 340.712 374.372C340.459 374.595 340.308 374.899 340.26 375.285H343.017ZM347.62 373.16C348.012 373.16 348.361 373.242 348.669 373.404C348.982 373.567 349.226 373.808 349.401 374.128C349.576 374.447 349.663 374.833 349.663 375.285V378.223H348.641V375.438C348.641 374.992 348.53 374.652 348.307 374.417C348.084 374.176 347.78 374.055 347.394 374.055C347.008 374.055 346.701 374.176 346.472 374.417C346.249 374.652 346.137 374.992 346.137 375.438V378.223H345.107V373.242H346.137V373.811C346.306 373.606 346.52 373.447 346.779 373.332C347.044 373.217 347.325 373.16 347.62 373.16ZM352.18 374.082V376.84C352.18 377.026 352.222 377.162 352.306 377.246C352.397 377.325 352.547 377.364 352.758 377.364H353.391V378.223H352.578C352.114 378.223 351.758 378.114 351.511 377.897C351.264 377.68 351.14 377.328 351.14 376.84V374.082H350.553V373.242H351.14V372.003H352.18V373.242H353.391V374.082H352.18Z" fill="#B0B0B0"/>
<circle cx="50.1896" cy="383.214" r="17.7047" fill="#3AA959" fill-opacity="0.23"/>
<path d="M58.4019 389.33H43.3762V375.702C43.3762 375.606 43.2975 375.527 43.2014 375.527H41.9784C41.8823 375.527 41.8037 375.606 41.8037 375.702V390.728C41.8037 390.824 41.8823 390.902 41.9784 390.902H58.4019C58.498 390.902 58.5766 390.824 58.5766 390.728V389.505C58.5766 389.409 58.498 389.33 58.4019 389.33ZM45.6868 385.96C45.7545 386.028 45.8637 386.028 45.9336 385.96L48.954 382.955L51.7408 385.759C51.8085 385.827 51.9198 385.827 51.9875 385.759L58.0022 379.747C58.0699 379.679 58.0699 379.568 58.0022 379.5L57.1373 378.635C57.1045 378.603 57.0602 378.584 57.014 378.584C56.9677 378.584 56.9234 378.603 56.8906 378.635L51.8674 383.656L49.0851 380.856C49.0522 380.824 49.0079 380.805 48.9617 380.805C48.9155 380.805 48.8711 380.824 48.8383 380.856L44.8241 384.846C44.7916 384.879 44.7734 384.924 44.7734 384.97C44.7734 385.016 44.7916 385.06 44.8241 385.093L45.6868 385.96Z" fill="#3AA959"/>
<circle cx="257.559" cy="383.214" r="17.7047" fill="#3AA959" fill-opacity="0.23"/>
<path d="M257.557 375.06C257.58 375.281 257.513 375.503 257.373 375.675C257.232 375.847 257.029 375.957 256.808 375.979C255.441 376.121 254.141 376.648 253.061 377.498C251.981 378.348 251.163 379.487 250.703 380.782C250.244 382.078 250.16 383.477 250.463 384.818C250.766 386.159 251.443 387.387 252.415 388.359C253.386 389.331 254.614 390.008 255.955 390.311C257.296 390.614 258.695 390.532 259.991 390.072C261.286 389.613 262.425 388.796 263.276 387.715C264.126 386.635 264.653 385.336 264.795 383.969C264.821 383.75 264.932 383.55 265.104 383.413C265.275 383.275 265.495 383.21 265.714 383.233C265.933 383.255 266.134 383.363 266.274 383.533C266.415 383.703 266.483 383.921 266.464 384.14C266.289 385.823 265.641 387.422 264.595 388.751C263.549 390.081 262.147 391.087 260.552 391.653C258.958 392.218 257.236 392.321 255.586 391.948C253.935 391.575 252.424 390.742 251.228 389.545C250.032 388.349 249.199 386.838 248.827 385.187C248.454 383.537 248.557 381.815 249.123 380.22C249.689 378.626 250.695 377.225 252.025 376.179C253.355 375.133 254.954 374.485 256.637 374.311C256.747 374.3 256.857 374.31 256.963 374.342C257.069 374.373 257.167 374.425 257.252 374.495C257.338 374.564 257.409 374.65 257.461 374.747C257.513 374.844 257.546 374.951 257.557 375.06Z" fill="#3AA959"/>
<path d="M258.698 374.984C258.75 374.768 258.885 374.582 259.075 374.465C259.265 374.349 259.492 374.313 259.709 374.365C260.132 374.466 260.544 374.597 260.942 374.756C261.047 374.795 261.143 374.854 261.225 374.931C261.307 375.007 261.372 375.099 261.418 375.202C261.464 375.304 261.488 375.414 261.491 375.526C261.493 375.638 261.473 375.75 261.431 375.854C261.39 375.958 261.328 376.052 261.249 376.132C261.171 376.212 261.077 376.275 260.973 376.318C260.87 376.361 260.759 376.382 260.647 376.382C260.535 376.381 260.424 376.358 260.321 376.314C259.997 376.185 259.662 376.079 259.318 375.996C259.211 375.971 259.11 375.924 259.021 375.86C258.932 375.795 258.856 375.713 258.799 375.619C258.741 375.526 258.703 375.421 258.685 375.313C258.668 375.204 258.672 375.093 258.698 374.985V374.984Z" fill="#3AA959"/>
<path d="M266.017 379.831C265.934 379.625 265.773 379.459 265.569 379.371C265.365 379.283 265.134 379.28 264.927 379.362C264.72 379.445 264.555 379.606 264.467 379.81C264.379 380.014 264.376 380.245 264.458 380.452C264.588 380.776 264.694 381.112 264.777 381.456C264.829 381.672 264.964 381.859 265.154 381.976C265.248 382.033 265.352 382.072 265.461 382.089C265.57 382.106 265.681 382.102 265.788 382.076C265.895 382.05 265.996 382.004 266.085 381.939C266.174 381.874 266.25 381.793 266.308 381.699C266.365 381.605 266.404 381.501 266.421 381.392C266.438 381.283 266.434 381.172 266.408 381.065C266.307 380.645 266.177 380.233 266.017 379.831Z" fill="#3AA959"/>
<path d="M262.356 376.423C262.502 376.255 262.709 376.152 262.931 376.137C263.153 376.121 263.371 376.195 263.539 376.341C263.882 376.639 264.203 376.964 264.499 377.31C264.637 377.48 264.703 377.698 264.683 377.916C264.663 378.135 264.559 378.337 264.392 378.479C264.225 378.621 264.009 378.692 263.79 378.677C263.571 378.661 263.367 378.561 263.222 378.397C262.981 378.114 262.719 377.85 262.439 377.606C262.271 377.46 262.168 377.253 262.152 377.031C262.137 376.809 262.21 376.59 262.356 376.423Z" fill="#3AA959"/>
<path d="M257.56 378.462C257.56 378.239 257.471 378.026 257.314 377.869C257.157 377.711 256.943 377.623 256.721 377.623C256.499 377.623 256.285 377.711 256.128 377.869C255.971 378.026 255.882 378.239 255.882 378.462V384.053C255.882 384.517 256.258 384.891 256.721 384.891H260.076C260.298 384.891 260.511 384.803 260.669 384.646C260.826 384.488 260.914 384.275 260.914 384.053C260.914 383.83 260.826 383.617 260.669 383.46C260.511 383.302 260.298 383.214 260.076 383.214H257.56V378.462Z" fill="#3AA959"/>
</svg>
