<svg width="37" height="37" viewBox="0 0 37 37" fill="none" xmlns="http://www.w3.org/2000/svg">
<path d="M18.5415 0.905273C8.84025 0.905273 0.966797 8.77873 0.966797 18.4799C0.966797 28.1812 8.84025 36.0546 18.5415 36.0546C28.2427 36.0546 36.1161 28.1812 36.1161 18.4799C36.1161 8.77873 28.2427 0.905273 18.5415 0.905273ZM24.8859 12.0476C26.7664 12.0476 28.2778 13.559 28.2778 15.4395C28.2778 17.32 26.7664 18.8314 24.8859 18.8314C23.0054 18.8314 21.494 17.32 21.494 15.4395C21.4764 13.559 23.0054 12.0476 24.8859 12.0476ZM14.3411 9.27082C16.6258 9.27082 18.4887 11.1337 18.4887 13.4184C18.4887 15.7031 16.6258 17.5661 14.3411 17.5661C12.0564 17.5661 10.1935 15.7031 10.1935 13.4184C10.1935 11.1162 12.0388 9.27082 14.3411 9.27082ZM14.3411 25.3165V31.907C10.1232 30.5889 6.78401 27.3376 5.30774 23.19C7.15308 21.2216 11.7576 20.2198 14.3411 20.2198C15.2726 20.2198 16.4501 20.3604 17.6803 20.6065C14.7981 22.1355 14.3411 24.1566 14.3411 25.3165ZM18.5415 32.5397C18.067 32.5397 17.61 32.5221 17.1531 32.4694V25.3165C17.1531 22.8209 22.32 21.5731 24.8859 21.5731C26.7664 21.5731 30.0177 22.2585 31.6346 23.5942C29.5784 28.8139 24.4993 32.5397 18.5415 32.5397Z" fill="#3AA959"/>
</svg>
