<svg width="477" height="272" viewBox="0 0 477 272" fill="none" xmlns="http://www.w3.org/2000/svg">
<rect x="1.05811" y="0.993164" width="474.742" height="270.209" rx="4.69113" fill="white" stroke="#E5E5E5" stroke-width="0.938226"/>
<g opacity="0.16">
<rect x="67.6721" y="122.024" width="39.511" height="121.213" fill="#E7AF07"/>
</g>
<path d="M82.856 234.768H78.8269L80.8908 232.912C81.8679 232.034 82.5705 231.2 82.5705 230.014C82.5705 228.708 81.7142 227.785 80.2211 227.785C78.739 227.785 78.0584 228.686 77.7619 229.586L78.5853 229.904C78.7939 229.18 79.2331 228.609 80.1772 228.609C81.1214 228.609 81.5935 229.191 81.5935 230.036V230.168C81.5935 230.903 81.0445 231.672 80.3309 232.33L77.8278 234.636V235.58H82.856V234.768ZM89.4205 227.917H85.3146L85.0401 232.133L85.8196 232.243C86.1379 231.891 86.4893 231.595 87.1919 231.595C88.2348 231.595 88.7948 232.177 88.7948 233.187V233.297C88.7948 234.307 88.2348 234.888 87.1919 234.888C86.2697 234.888 85.8854 234.482 85.4902 233.878L84.7986 234.405C85.2597 235.064 85.9184 235.712 87.1919 235.712C88.8057 235.712 89.7718 234.669 89.7718 233.176C89.7718 231.694 88.8057 230.804 87.4883 230.804C86.6869 230.804 86.2807 231.134 85.9184 231.65H85.8415L86.0611 228.729H89.4205V227.917ZM94.2065 235.712C95.7435 235.712 96.7536 234.68 96.7536 233.176C96.7536 231.727 95.8094 230.815 94.492 230.815C93.5588 230.815 93.0099 231.287 92.6476 231.913L92.5927 231.891C93.0099 230.113 93.9211 229.114 95.5569 227.917H94.3712C93.1416 228.718 91.6376 230.497 91.6376 232.77C91.6376 234.592 92.6147 235.712 94.2065 235.712ZM94.1956 234.91C93.1855 234.91 92.5927 234.329 92.5927 233.297V233.209C92.5927 232.177 93.1855 231.595 94.1956 231.595C95.2056 231.595 95.7984 232.177 95.7984 233.209V233.297C95.7984 234.329 95.2056 234.91 94.1956 234.91Z" fill="#1F1F1F"/>
<g opacity="0.16">
<rect x="111.769" y="127.653" width="39.511" height="115.288" fill="#E7AF07"/>
</g>
<path d="M127.106 235.468V234.655H125.13V227.805H123.692L121.661 229.704L122.199 230.286L124.131 228.485H124.208V234.655H122.067V235.468H127.106ZM133.045 235.468V233.964H134.154V233.195H133.045V227.805H131.673L128.467 233.151V233.964H132.167V235.468H133.045ZM132.112 228.518H132.167V233.195H129.334L132.112 228.518ZM139.994 235.468V233.964H141.103V233.195H139.994V227.805H138.622L135.416 233.151V233.964H139.116V235.468H139.994ZM139.061 228.518H139.116V233.195H136.283L139.061 228.518Z" fill="#1F1F1F"/>
<g opacity="0.16">
<rect x="154.927" y="107.013" width="39.511" height="136.289" fill="#E7AF07"/>
</g>
<path d="M170.265 234.889V234.076H168.289V227.226H166.85L164.819 229.125L165.357 229.707L167.29 227.906H167.366V234.076H165.226V234.889H170.265ZM174.513 235.02C176.05 235.02 177.06 233.988 177.06 232.484C177.06 231.035 176.116 230.124 174.798 230.124C173.865 230.124 173.316 230.596 172.954 231.222L172.899 231.2C173.316 229.421 174.227 228.422 175.863 227.226H174.678C173.448 228.027 171.944 229.806 171.944 232.078C171.944 233.901 172.921 235.02 174.513 235.02ZM174.502 234.219C173.492 234.219 172.899 233.637 172.899 232.605V232.517C172.899 231.485 173.492 230.903 174.502 230.903C175.512 230.903 176.105 231.485 176.105 232.517V232.605C176.105 233.637 175.512 234.219 174.502 234.219ZM181.451 235.02C183.196 235.02 184.108 234.065 184.108 232.803C184.108 231.76 183.482 231.156 182.56 230.903V230.816C183.361 230.541 183.877 229.893 183.877 229.015C183.877 227.851 182.977 227.094 181.451 227.094C179.925 227.094 179.024 227.851 179.024 229.015C179.024 229.893 179.54 230.541 180.342 230.816V230.903C179.42 231.156 178.794 231.76 178.794 232.803C178.794 234.065 179.705 235.02 181.451 235.02ZM181.451 234.219C180.386 234.219 179.771 233.714 179.771 232.847V232.616C179.771 231.749 180.386 231.244 181.451 231.244C182.516 231.244 183.13 231.749 183.13 232.616V232.847C183.13 233.714 182.516 234.219 181.451 234.219ZM181.451 230.475C180.496 230.475 179.98 230.047 179.98 229.268V229.103C179.98 228.323 180.496 227.895 181.451 227.895C182.406 227.895 182.922 228.323 182.922 229.103V229.268C182.922 230.047 182.406 230.475 181.451 230.475Z" fill="#1F1F1F"/>
<g opacity="0.16">
<rect x="199.962" y="96.6924" width="39.511" height="145.978" fill="#E7AF07"/>
</g>
<path d="M215.146 235.632H211.117L213.181 233.777C214.158 232.898 214.861 232.064 214.861 230.878C214.861 229.572 214.004 228.65 212.511 228.65C211.029 228.65 210.348 229.55 210.052 230.45L210.875 230.768C211.084 230.044 211.523 229.473 212.467 229.473C213.411 229.473 213.883 230.055 213.883 230.9V231.032C213.883 231.767 213.335 232.536 212.621 233.195L210.118 235.5V236.444H215.146V235.632ZM221.238 236.444V234.94H222.347V234.172H221.238V228.781H219.866L216.66 234.128V234.94H220.36V236.444H221.238ZM220.305 229.495H220.36V234.172H217.528L220.305 229.495ZM226.486 236.576C228.231 236.576 229.142 235.621 229.142 234.358C229.142 233.315 228.517 232.712 227.594 232.459V232.371C228.396 232.097 228.912 231.449 228.912 230.571C228.912 229.407 228.012 228.65 226.486 228.65C224.96 228.65 224.059 229.407 224.059 230.571C224.059 231.449 224.575 232.097 225.377 232.371V232.459C224.455 232.712 223.829 233.315 223.829 234.358C223.829 235.621 224.74 236.576 226.486 236.576ZM226.486 235.775C225.421 235.775 224.806 235.27 224.806 234.402V234.172C224.806 233.304 225.421 232.799 226.486 232.799C227.551 232.799 228.165 233.304 228.165 234.172V234.402C228.165 235.27 227.551 235.775 226.486 235.775ZM226.486 232.031C225.53 232.031 225.014 231.603 225.014 230.823V230.659C225.014 229.879 225.53 229.451 226.486 229.451C227.441 229.451 227.957 229.879 227.957 230.659V230.823C227.957 231.603 227.441 232.031 226.486 232.031Z" fill="#1F1F1F"/>
<g opacity="0.16">
<rect x="243.121" y="145.479" width="39.511" height="97.6684" fill="#E7AF07"/>
</g>
<path d="M261.779 232.38C261.779 230.557 260.802 229.438 259.21 229.438C257.673 229.438 256.663 230.47 256.663 231.974C256.663 233.423 257.607 234.334 258.924 234.334C259.858 234.334 260.407 233.862 260.769 233.236L260.824 233.258C260.407 235.037 259.495 236.036 257.86 237.232H259.045C260.275 236.431 261.779 234.652 261.779 232.38ZM259.221 233.555C258.211 233.555 257.618 232.973 257.618 231.941V231.853C257.618 230.821 258.211 230.239 259.221 230.239C260.231 230.239 260.824 230.821 260.824 231.853V231.941C260.824 232.973 260.231 233.555 259.221 233.555ZM266.181 237.364C267.718 237.364 268.728 236.332 268.728 234.828C268.728 233.379 267.784 232.468 266.466 232.468C265.533 232.468 264.984 232.94 264.622 233.566L264.567 233.544C264.984 231.765 265.895 230.766 267.531 229.569H266.345C265.116 230.371 263.612 232.149 263.612 234.422C263.612 236.244 264.589 237.364 266.181 237.364ZM266.17 236.563C265.16 236.563 264.567 235.981 264.567 234.949V234.861C264.567 233.829 265.16 233.247 266.17 233.247C267.18 233.247 267.773 233.829 267.773 234.861V234.949C267.773 235.981 267.18 236.563 266.17 236.563Z" fill="#1F1F1F"/>
<g opacity="0.16">
<rect x="286.279" y="122.024" width="39.511" height="120.885" fill="#E7AF07"/>
</g>
<path d="M301.616 236.777V235.965H299.64V229.114H298.202L296.171 231.014L296.709 231.595L298.641 229.795H298.718V235.965H296.577V236.777H301.616ZM307.555 236.777V235.273H308.664V234.505H307.555V229.114H306.183L302.977 234.461V235.273H306.677V236.777H307.555ZM306.622 229.828H306.677V234.505H303.844L306.622 229.828ZM314.504 236.777V235.273H315.613V234.505H314.504V229.114H313.132L309.926 234.461V235.273H313.626V236.777H314.504ZM313.571 229.828H313.626V234.505H310.793L313.571 229.828Z" fill="#1F1F1F"/>
<g opacity="0.16">
<rect x="331.314" y="110.766" width="39.511" height="131.969" fill="#E7AF07"/>
</g>
<path d="M346.651 235.58V234.768H344.675V227.917H343.237L341.206 229.816L341.744 230.398L343.676 228.598H343.753V234.768H341.612V235.58H346.651ZM350.899 235.712C352.436 235.712 353.446 234.68 353.446 233.176C353.446 231.727 352.502 230.815 351.185 230.815C350.252 230.815 349.703 231.287 349.34 231.913L349.286 231.891C349.703 230.113 350.614 229.114 352.25 227.917H351.064C349.834 228.718 348.33 230.497 348.33 232.77C348.33 234.592 349.307 235.712 350.899 235.712ZM350.888 234.91C349.878 234.91 349.286 234.329 349.286 233.297V233.209C349.286 232.177 349.878 231.595 350.888 231.595C351.898 231.595 352.491 232.177 352.491 233.209V233.297C352.491 234.329 351.898 234.91 350.888 234.91ZM357.837 235.712C359.583 235.712 360.494 234.757 360.494 233.494C360.494 232.451 359.868 231.847 358.946 231.595V231.507C359.747 231.233 360.263 230.585 360.263 229.707C360.263 228.543 359.363 227.785 357.837 227.785C356.311 227.785 355.411 228.543 355.411 229.707C355.411 230.585 355.927 231.233 356.728 231.507V231.595C355.806 231.847 355.18 232.451 355.18 233.494C355.18 234.757 356.092 235.712 357.837 235.712ZM357.837 234.91C356.772 234.91 356.157 234.405 356.157 233.538V233.308C356.157 232.44 356.772 231.935 357.837 231.935C358.902 231.935 359.517 232.44 359.517 233.308V233.538C359.517 234.405 358.902 234.91 357.837 234.91ZM357.837 231.167C356.882 231.167 356.366 230.739 356.366 229.959V229.794C356.366 229.015 356.882 228.587 357.837 228.587C358.792 228.587 359.308 229.015 359.308 229.794V229.959C359.308 230.739 358.792 231.167 357.837 231.167Z" fill="#1F1F1F"/>
<g opacity="0.16">
<rect x="374.472" y="167.059" width="39.511" height="75.8468" fill="#E7AF07"/>
</g>
<path d="M389.31 232.304V233.106H390.21C391.286 233.106 391.857 233.622 391.857 234.522V234.61C391.857 235.51 391.286 236.026 390.21 236.026C389.277 236.026 388.827 235.62 388.432 235.016L387.74 235.543C388.212 236.202 388.893 236.85 390.221 236.85C391.78 236.85 392.823 235.938 392.823 234.621C392.823 233.468 392.033 232.853 391.209 232.689V232.645C392.022 232.436 392.68 231.843 392.68 230.855C392.68 229.615 391.648 228.923 390.353 228.923C389.123 228.923 388.454 229.56 388.069 230.175L388.75 230.702C389.068 230.12 389.54 229.746 390.331 229.746C391.143 229.746 391.703 230.153 391.703 230.954V231.031C391.703 231.766 391.176 232.304 390.144 232.304H389.31ZM400.079 235.905H396.05L398.114 234.05C399.091 233.172 399.794 232.337 399.794 231.152C399.794 229.845 398.937 228.923 397.444 228.923C395.962 228.923 395.282 229.823 394.985 230.723L395.809 231.042C396.017 230.317 396.456 229.746 397.4 229.746C398.345 229.746 398.817 230.328 398.817 231.174V231.305C398.817 232.041 398.268 232.809 397.554 233.468L395.051 235.774V236.718H400.079V235.905Z" fill="#1F1F1F"/>
<g opacity="0.16">
<rect x="417.631" y="92.9385" width="39.511" height="149.36" fill="#E7AF07"/>
</g>
<path d="M432.814 234.786H428.785L430.849 232.931C431.826 232.053 432.529 231.218 432.529 230.033C432.529 228.726 431.673 227.804 430.18 227.804C428.698 227.804 428.017 228.704 427.72 229.604L428.544 229.923C428.752 229.198 429.192 228.627 430.136 228.627C431.08 228.627 431.552 229.209 431.552 230.054V230.186C431.552 230.922 431.003 231.69 430.289 232.349L427.786 234.654V235.599H432.814V234.786ZM439.379 227.936H435.273L434.999 232.151L435.778 232.261C436.096 231.91 436.448 231.613 437.15 231.613C438.193 231.613 438.753 232.195 438.753 233.205V233.315C438.753 234.325 438.193 234.907 437.15 234.907C436.228 234.907 435.844 234.501 435.449 233.897L434.757 234.424C435.218 235.083 435.877 235.73 437.15 235.73C438.764 235.73 439.73 234.687 439.73 233.194C439.73 231.712 438.764 230.823 437.447 230.823C436.645 230.823 436.239 231.152 435.877 231.668H435.8L436.02 228.748H439.379V227.936ZM444.165 235.73C445.702 235.73 446.712 234.698 446.712 233.194C446.712 231.745 445.768 230.834 444.45 230.834C443.517 230.834 442.968 231.306 442.606 231.932L442.551 231.91C442.968 230.131 443.88 229.132 445.515 227.936H444.33C443.1 228.737 441.596 230.516 441.596 232.788C441.596 234.611 442.573 235.73 444.165 235.73ZM444.154 234.929C443.144 234.929 442.551 234.347 442.551 233.315V233.227C442.551 232.195 443.144 231.613 444.154 231.613C445.164 231.613 445.757 232.195 445.757 233.227V233.315C445.757 234.347 445.164 234.929 444.154 234.929Z" fill="#1F1F1F"/>
<path d="M16.5277 33.9424H17.7586V25.1155H17.8337L18.7194 26.8719L21.2263 31.4354L23.7333 26.8719L24.6189 25.1155H24.694V33.9424H25.9249V23.4643H24.3037L21.2864 29.1086H21.2113L18.209 23.4643H16.5277V33.9424ZM31.9149 34.1225C33.3711 34.1225 34.4819 33.402 34.9773 32.3512L34.1216 31.7357C33.7163 32.5913 32.9657 33.0717 31.99 33.0717C30.5489 33.0717 29.6932 32.0659 29.6932 30.7299V30.3696H35.2625V29.7992C35.2625 27.6075 33.9865 26.0162 31.9149 26.0162C29.8133 26.0162 28.4322 27.6075 28.4322 30.0694C28.4322 32.5313 29.8133 34.1225 31.9149 34.1225ZM31.9149 27.022C33.1459 27.022 33.9715 27.9377 33.9715 29.3038V29.4689H29.6932V29.3638C29.6932 28.0128 30.6089 27.022 31.9149 27.022ZM38.8552 33.9424V28.5682C38.8552 27.5775 39.7859 27.0971 40.7467 27.0971C41.9026 27.0971 42.5031 27.8026 42.5031 29.1837V33.9424H43.704V28.9735C43.704 27.0971 42.6982 26.0162 41.107 26.0162C39.9511 26.0162 39.2906 26.5867 38.9153 27.4574H38.8552V26.1964H37.6543V33.9424H38.8552ZM49.8116 33.9424V32.8916H48.2354V27.2472H49.9317V26.1964H48.2354V24.0497H47.1545V25.4908C47.1545 26.0162 46.9894 26.1964 46.479 26.1964H45.7585V27.2472H47.0345V32.6664C47.0345 33.417 47.4848 33.9424 48.3104 33.9424H49.8116ZM55.1434 34.1225C57.215 34.1225 58.6411 32.5313 58.6411 30.0694C58.6411 27.6075 57.215 26.0162 55.1434 26.0162C53.0718 26.0162 51.6457 27.6075 51.6457 30.0694C51.6457 32.5313 53.0718 34.1225 55.1434 34.1225ZM55.1434 33.0567C53.8524 33.0567 52.9367 32.2611 52.9367 30.6248V29.514C52.9367 27.8777 53.8524 27.0821 55.1434 27.0821C56.4344 27.0821 57.3501 27.8777 57.3501 29.514V30.6248C57.3501 32.2611 56.4344 33.0567 55.1434 33.0567ZM62.23 33.9424V28.6883C62.23 27.9527 63.0106 27.3973 64.3016 27.3973H65.0071V26.1964H64.5418C63.2808 26.1964 62.5752 26.8869 62.305 27.6225H62.23V26.1964H61.029V33.9424H62.23ZM69.2807 34.1225C71.0521 34.1225 72.148 33.2068 72.148 31.7057C72.148 30.5347 71.4874 29.7842 69.7761 29.529L69.1757 29.4389C68.2149 29.2888 67.6895 28.9885 67.6895 28.238C67.6895 27.5024 68.2149 27.037 69.2057 27.037C70.1964 27.037 70.857 27.5024 71.2022 27.9828L71.9978 27.2622C71.3673 26.4816 70.5417 26.0162 69.2957 26.0162C67.7195 26.0162 66.5336 26.7668 66.5336 28.298C66.5336 29.7391 67.5994 30.3246 69.0255 30.5347L69.641 30.6248C70.6618 30.7749 70.9921 31.2403 70.9921 31.8408C70.9921 32.6364 70.3916 33.1017 69.3708 33.1017C68.395 33.1017 67.6745 32.6664 67.074 31.9158L66.2184 32.6063C66.9089 33.5221 67.8546 34.1225 69.2807 34.1225ZM81.7499 33.9424L84.482 26.1964H83.3261L81.945 30.0394L81.1044 32.6814H81.0293L80.1887 30.0394L78.8376 26.1964H77.6367L80.3538 33.9424H81.7499ZM88.7706 34.1225C90.542 34.1225 91.6378 33.2068 91.6378 31.7057C91.6378 30.5347 90.9773 29.7842 89.266 29.529L88.6655 29.4389C87.7048 29.2888 87.1794 28.9885 87.1794 28.238C87.1794 27.5024 87.7048 27.037 88.6956 27.037C89.6863 27.037 90.3468 27.5024 90.6921 27.9828L91.4877 27.2622C90.8572 26.4816 90.0316 26.0162 88.7856 26.0162C87.2094 26.0162 86.0235 26.7668 86.0235 28.298C86.0235 29.7391 87.0893 30.3246 88.5154 30.5347L89.1309 30.6248C90.1517 30.7749 90.482 31.2403 90.482 31.8408C90.482 32.6364 89.8815 33.1017 88.8607 33.1017C87.8849 33.1017 87.1644 32.6664 86.5639 31.9158L85.7083 32.6063C86.3988 33.5221 87.3445 34.1225 88.7706 34.1225ZM101.96 33.9424V32.8916H100.489V24.5151H101.96V23.4643H97.7571V24.5151H99.2282V32.8916H97.7571V33.9424H101.96ZM105.757 33.9424V28.5682C105.757 27.5775 106.687 27.0971 107.648 27.0971C108.804 27.0971 109.404 27.8026 109.404 29.1837V33.9424H110.605V28.9735C110.605 27.0971 109.6 26.0162 108.008 26.0162C106.852 26.0162 106.192 26.5867 105.817 27.4574H105.757V26.1964H104.556V33.9424H105.757ZM118.454 33.9424H119.655V22.8338H118.454V27.4574H118.394C117.989 26.4816 117.193 26.0162 116.128 26.0162C114.191 26.0162 112.975 27.5925 112.975 30.0694C112.975 32.5463 114.191 34.1225 116.128 34.1225C117.193 34.1225 117.929 33.6422 118.394 32.6814H118.454V33.9424ZM116.458 33.0417C115.107 33.0417 114.266 32.111 114.266 30.7299V29.4089C114.266 28.0278 115.107 27.0971 116.458 27.0971C117.554 27.0971 118.454 27.7276 118.454 28.5832V31.4655C118.454 32.4712 117.554 33.0417 116.458 33.0417ZM127.395 33.9424H128.596V26.1964H127.395V31.5555C127.395 32.5763 126.464 33.0417 125.518 33.0417C124.363 33.0417 123.747 32.3361 123.747 30.9551V26.1964H122.546V31.1652C122.546 33.0417 123.567 34.1225 125.158 34.1225C126.449 34.1225 127.035 33.417 127.335 32.6814H127.395V33.9424ZM133.893 34.1225C135.664 34.1225 136.76 33.2068 136.76 31.7057C136.76 30.5347 136.1 29.7842 134.388 29.529L133.788 29.4389C132.827 29.2888 132.302 28.9885 132.302 28.238C132.302 27.5024 132.827 27.037 133.818 27.037C134.809 27.037 135.469 27.5024 135.814 27.9828L136.61 27.2622C135.979 26.4816 135.154 26.0162 133.908 26.0162C132.332 26.0162 131.146 26.7668 131.146 28.298C131.146 29.7391 132.212 30.3246 133.638 30.5347L134.253 30.6248C135.274 30.7749 135.604 31.2403 135.604 31.8408C135.604 32.6364 135.004 33.1017 133.983 33.1017C133.007 33.1017 132.287 32.6664 131.686 31.9158L130.83 32.6063C131.521 33.5221 132.467 34.1225 133.893 34.1225ZM142.404 33.9424V32.8916H140.828V27.2472H142.524V26.1964H140.828V24.0497H139.747V25.4908C139.747 26.0162 139.582 26.1964 139.071 26.1964H138.351V27.2472H139.627V32.6664C139.627 33.417 140.077 33.9424 140.903 33.9424H142.404ZM146.068 33.9424V28.6883C146.068 27.9527 146.849 27.3973 148.14 27.3973H148.845V26.1964H148.38C147.119 26.1964 146.413 26.8869 146.143 27.6225H146.068V26.1964H144.867V33.9424H146.068ZM151.393 24.38C151.903 24.38 152.128 24.1098 152.128 23.7045V23.5093C152.128 23.104 151.903 22.8338 151.393 22.8338C150.882 22.8338 150.657 23.104 150.657 23.5093V23.7045C150.657 24.1098 150.882 24.38 151.393 24.38ZM150.792 33.9424H151.993V26.1964H150.792V33.9424ZM157.87 34.1225C159.326 34.1225 160.437 33.402 160.932 32.3512L160.077 31.7357C159.671 32.5913 158.921 33.0717 157.945 33.0717C156.504 33.0717 155.648 32.0659 155.648 30.7299V30.3696H161.218V29.7992C161.218 27.6075 159.942 26.0162 157.87 26.0162C155.768 26.0162 154.387 27.6075 154.387 30.0694C154.387 32.5313 155.768 34.1225 157.87 34.1225ZM157.87 27.022C159.101 27.022 159.927 27.9377 159.927 29.3038V29.4689H155.648V29.3638C155.648 28.0128 156.564 27.022 157.87 27.022ZM165.936 34.1225C167.708 34.1225 168.803 33.2068 168.803 31.7057C168.803 30.5347 168.143 29.7842 166.432 29.529L165.831 29.4389C164.87 29.2888 164.345 28.9885 164.345 28.238C164.345 27.5024 164.87 27.037 165.861 27.037C166.852 27.037 167.512 27.5024 167.858 27.9828L168.653 27.2622C168.023 26.4816 167.197 26.0162 165.951 26.0162C164.375 26.0162 163.189 26.7668 163.189 28.298C163.189 29.7391 164.255 30.3246 165.681 30.5347L166.297 30.6248C167.317 30.7749 167.648 31.2403 167.648 31.8408C167.648 32.6364 167.047 33.1017 166.026 33.1017C165.051 33.1017 164.33 32.6664 163.73 31.9158L162.874 32.6063C163.564 33.5221 164.51 34.1225 165.936 34.1225Z" fill="#1F1F1F"/>
<path d="M131.213 145.132L130.494 145.132L130.494 148.452L128.145 148.452L128.145 145.326L127.426 145.326L127.426 148.452L125.154 148.452L125.154 145.132L124.436 145.132L124.436 149.268L131.213 149.268L131.213 145.132ZM131.213 142.641L127.737 142.641C127.096 142.641 126.785 142.039 126.785 141.418C126.785 140.67 127.242 140.282 128.135 140.282L131.213 140.282L131.213 139.505L127.999 139.505C126.785 139.505 126.086 140.155 126.086 141.185C126.086 141.932 126.455 142.359 127.018 142.602L127.018 142.641L126.203 142.641L126.203 143.418L131.213 143.418L131.213 142.641ZM131.213 135.698L126.203 133.931L126.203 134.679L128.688 135.572L130.397 136.116L130.397 136.164L128.688 136.708L126.203 137.582L126.203 138.359L131.213 136.601L131.213 135.698ZM125.028 132.274C125.028 131.944 124.853 131.798 124.591 131.798L124.465 131.798C124.203 131.798 124.028 131.944 124.028 132.274C124.028 132.604 124.203 132.75 124.465 132.75L124.591 132.75C124.853 132.75 125.028 132.604 125.028 132.274ZM131.213 132.662L131.213 131.885L126.203 131.885L126.203 132.662L131.213 132.662ZM131.213 129.191L127.815 129.191C127.339 129.191 126.98 128.686 126.98 127.851L126.98 127.395L126.203 127.395L126.203 127.696C126.203 128.511 126.649 128.968 127.125 129.142L127.125 129.191L126.203 129.191L126.203 129.968L131.213 129.968L131.213 129.191ZM131.329 124.29C131.329 122.95 130.3 122.027 128.708 122.027C127.115 122.027 126.086 122.95 126.086 124.29C126.086 125.629 127.115 126.552 128.708 126.552C130.3 126.552 131.329 125.629 131.329 124.29ZM130.64 124.29C130.64 125.125 130.125 125.717 129.067 125.717L128.349 125.717C127.29 125.717 126.776 125.125 126.776 124.29C126.776 123.454 127.29 122.862 128.349 122.862L129.067 122.862C130.125 122.862 130.64 123.454 130.64 124.29ZM131.213 119.706L127.737 119.706C127.096 119.706 126.785 119.104 126.785 118.482C126.785 117.735 127.242 117.346 128.135 117.346L131.213 117.346L131.213 116.57L127.999 116.57C126.785 116.57 126.086 117.22 126.086 118.249C126.086 118.997 126.455 119.424 127.018 119.667L127.018 119.706L126.203 119.706L126.203 120.483L131.213 120.483L131.213 119.706ZM131.213 113.92L127.737 113.92C127.096 113.92 126.785 113.338 126.785 112.726C126.785 111.988 127.242 111.648 128.135 111.648L131.213 111.648L131.213 110.872L127.737 110.872C127.096 110.872 126.785 110.308 126.785 109.697C126.785 108.939 127.251 108.599 128.135 108.599L131.213 108.599L131.213 107.823L127.999 107.823C126.785 107.823 126.086 108.434 126.086 109.454C126.086 110.308 126.562 110.794 127.106 110.978L127.106 110.998C126.387 111.27 126.086 111.872 126.086 112.532C126.086 113.309 126.504 113.658 127.018 113.882L127.018 113.92L126.203 113.92L126.203 114.697L131.213 114.697L131.213 113.92ZM131.329 104.07C131.329 103.128 130.863 102.409 130.184 102.089L129.786 102.642C130.339 102.904 130.65 103.39 130.65 104.021C130.65 104.953 129.999 105.507 129.135 105.507L128.902 105.507L128.902 101.904L128.533 101.904C127.115 101.904 126.086 102.73 126.086 104.07C126.086 105.429 127.115 106.322 128.708 106.322C130.3 106.322 131.329 105.429 131.329 104.07ZM126.737 104.07C126.737 103.273 127.329 102.739 128.213 102.739L128.319 102.739L128.319 105.507L128.251 105.507C127.378 105.507 126.737 104.914 126.737 104.07ZM131.213 99.5805L127.737 99.5805C127.096 99.5805 126.785 98.9785 126.785 98.3571C126.785 97.6094 127.242 97.2211 128.135 97.2211L131.213 97.2211L131.213 96.4443L127.999 96.4443C126.785 96.4443 126.086 97.0948 126.086 98.1241C126.086 98.8717 126.455 99.2989 127.018 99.5417L127.018 99.5805L126.203 99.5805L126.203 100.357L131.213 100.357L131.213 99.5805ZM131.213 92.4939L130.533 92.4939L130.533 93.5134L126.882 93.5134L126.882 92.4162L126.203 92.4162L126.203 93.5134L124.814 93.5134L124.814 94.2125L125.746 94.2125C126.086 94.2125 126.203 94.3193 126.203 94.6494L126.203 95.1154L126.882 95.1154L126.882 94.2901L130.388 94.2901C130.873 94.2901 131.213 93.9988 131.213 93.4648L131.213 92.4939Z" fill="#1F1F1F"/>
<path d="M174.371 123.446L174.371 122.63L167.594 122.63L167.594 123.446L170.585 123.446L170.585 126.873L167.594 126.873L167.594 127.689L174.371 127.689L174.371 126.873L171.303 126.873L171.303 123.446L174.371 123.446ZM174.488 118.751C174.488 117.809 174.022 117.09 173.342 116.77L172.944 117.324C173.497 117.586 173.808 118.071 173.808 118.702C173.808 119.634 173.158 120.188 172.293 120.188L172.06 120.188L172.06 116.586L171.691 116.586C170.274 116.586 169.245 117.411 169.245 118.751C169.245 120.11 170.274 121.003 171.866 121.003C173.459 121.003 174.488 120.11 174.488 118.751ZM169.895 118.751C169.895 117.955 170.487 117.421 171.371 117.421L171.478 117.421L171.478 120.188L171.41 120.188C170.536 120.188 169.895 119.596 169.895 118.751ZM174.371 110.961L173.692 110.961L173.692 111.533L170.934 111.533C169.876 111.533 169.245 112.252 169.245 113.456C169.245 114.359 169.691 114.961 170.225 115.233L170.662 114.767C170.206 114.495 169.915 114.097 169.915 113.495C169.915 112.699 170.303 112.31 171.012 112.31L171.507 112.31L171.507 113.301C171.507 114.757 172.031 115.437 172.973 115.437C173.905 115.437 174.488 114.815 174.488 113.757C174.488 113.058 174.167 112.524 173.556 112.31L173.556 112.262C174.022 112.203 174.371 111.97 174.371 111.397L174.371 110.961ZM173.828 113.631C173.828 114.233 173.546 114.621 173.051 114.621L172.847 114.621C172.361 114.621 172.09 114.223 172.09 113.339L172.09 112.31L172.915 112.31C173.43 112.31 173.828 112.864 173.828 113.631ZM174.371 108.07L173.692 108.07L173.692 108.808L167.186 108.808L167.186 109.585L173.565 109.585C174.032 109.585 174.371 109.294 174.371 108.76L174.371 108.07ZM174.371 104.642L173.692 104.642L173.692 105.661L170.041 105.661L170.041 104.564L169.361 104.564L169.361 105.661L167.973 105.661L167.973 106.361L168.905 106.361C169.245 106.361 169.361 106.467 169.361 106.797L169.361 107.264L170.041 107.264L170.041 106.438L173.546 106.438C174.032 106.438 174.371 106.147 174.371 105.613L174.371 104.642ZM174.371 103.049L174.371 102.272L170.895 102.272C170.254 102.272 169.944 101.67 169.944 101.049C169.944 100.301 170.4 99.9125 171.293 99.9125L174.371 99.9125L174.371 99.1358L171.157 99.1358C169.944 99.1358 169.245 99.7863 169.245 100.816C169.245 101.563 169.614 101.99 170.177 102.233L170.177 102.272L167.186 102.272L167.186 103.049L174.371 103.049Z" fill="#1F1F1F"/>
<path d="M220.344 116.047L219.626 116.047L219.626 119.367L217.276 119.367L217.276 116.241L216.557 116.241L216.557 119.367L214.285 119.367L214.285 116.047L213.567 116.047L213.567 120.183L220.344 120.183L220.344 116.047ZM220.344 111.223L220.344 110.447L213.159 110.447L213.159 111.223L216.15 111.223L216.15 111.262C215.519 111.524 215.218 112.039 215.218 112.728C215.218 113.981 216.237 114.767 217.839 114.767C219.441 114.767 220.461 113.981 220.461 112.728C220.461 112.039 220.15 111.563 219.529 111.262L219.529 111.223L220.344 111.223ZM219.762 112.515C219.762 113.389 219.16 113.932 218.266 113.932L217.412 113.932C216.519 113.932 215.917 113.389 215.917 112.515C215.917 111.806 216.324 111.223 216.878 111.223L218.742 111.223C219.393 111.223 219.762 111.806 219.762 112.515ZM220.344 105.441L220.344 104.664L215.334 104.664L215.334 105.441L218.8 105.441C219.461 105.441 219.762 106.043 219.762 106.654C219.762 107.402 219.305 107.8 218.412 107.8L215.334 107.8L215.334 108.577L218.548 108.577C219.762 108.577 220.461 107.917 220.461 106.887C220.461 106.052 220.004 105.674 219.529 105.48L219.529 105.441L220.344 105.441ZM220.461 100.879C220.461 99.927 219.995 99.2764 219.276 98.956L218.898 99.5192C219.47 99.791 219.771 100.247 219.771 100.879C219.771 101.801 219.14 102.277 218.266 102.277L217.412 102.277C216.538 102.277 215.907 101.801 215.907 100.879C215.907 100.267 216.208 99.8396 216.723 99.6551L216.392 99.0046C215.703 99.2959 215.218 99.8881 215.218 100.879C215.218 102.286 216.237 103.112 217.839 103.112C219.441 103.112 220.461 102.286 220.461 100.879ZM220.344 93.5145L219.665 93.5145L219.665 94.0873L216.907 94.0873C215.849 94.0873 215.218 94.8059 215.218 96.0098C215.218 96.9128 215.664 97.5148 216.198 97.7867L216.635 97.3206C216.179 97.0488 215.888 96.6507 215.888 96.0487C215.888 95.2525 216.276 94.8641 216.985 94.8641L217.48 94.8641L217.48 95.8545C217.48 97.3109 218.004 97.9906 218.946 97.9906C219.878 97.9906 220.461 97.3692 220.461 96.3108C220.461 95.6118 220.14 95.0777 219.529 94.8641L219.529 94.8156C219.995 94.7573 220.344 94.5243 220.344 93.9514L220.344 93.5145ZM219.8 96.1846C219.8 96.7866 219.519 97.175 219.024 97.175L218.82 97.175C218.334 97.175 218.062 96.7769 218.062 95.8933L218.062 94.8641L218.888 94.8641C219.402 94.8641 219.8 95.4176 219.8 96.1846ZM220.344 90.061L219.665 90.061L219.665 91.0805L216.014 91.0805L216.014 89.9833L215.334 89.9833L215.334 91.0805L213.946 91.0805L213.946 91.7796L214.878 91.7796C215.218 91.7796 215.334 91.8864 215.334 92.2165L215.334 92.6826L216.014 92.6826L216.014 91.8572L219.519 91.8572C220.004 91.8572 220.344 91.566 220.344 91.0319L220.344 90.061ZM214.159 88.0794C214.159 87.7493 213.984 87.6036 213.722 87.6036L213.596 87.6036C213.334 87.6036 213.159 87.7493 213.159 88.0794C213.159 88.4095 213.334 88.5551 213.596 88.5551L213.722 88.5551C213.984 88.5551 214.159 88.4095 214.159 88.0794ZM220.344 88.4678L220.344 87.691L215.334 87.691L215.334 88.4678L220.344 88.4678ZM220.461 83.88C220.461 82.5401 219.432 81.6176 217.839 81.6176C216.247 81.6176 215.218 82.5401 215.218 83.88C215.218 85.2199 216.247 86.1423 217.839 86.1423C219.432 86.1423 220.461 85.2199 220.461 83.88ZM219.771 83.88C219.771 84.715 219.257 85.3073 218.198 85.3073L217.48 85.3073C216.422 85.3073 215.907 84.715 215.907 83.88C215.907 83.045 216.422 82.4527 217.48 82.4527L218.198 82.4527C219.257 82.4527 219.771 83.045 219.771 83.88ZM220.344 79.2964L216.868 79.2964C216.227 79.2964 215.917 78.6944 215.917 78.073C215.917 77.3253 216.373 76.9369 217.266 76.9369L220.344 76.9369L220.344 76.1602L217.13 76.1602C215.917 76.1602 215.218 76.8107 215.218 77.8399C215.218 78.5876 215.587 79.0148 216.15 79.2575L216.15 79.2964L215.334 79.2964L215.334 80.0731L220.344 80.0731L220.344 79.2964Z" fill="#1F1F1F"/>
<path d="M266.317 162.526L263.249 162.526L263.249 159.584L262.531 159.584L262.531 162.526L260.259 162.526L260.259 159.302L259.54 159.302L259.54 163.341L266.317 163.341L266.317 162.526ZM260.132 157.34C260.132 157.01 259.958 156.864 259.695 156.864L259.569 156.864C259.307 156.864 259.132 157.01 259.132 157.34C259.132 157.67 259.307 157.815 259.569 157.815L259.695 157.815C259.958 157.815 260.132 157.67 260.132 157.34ZM266.317 157.728L266.317 156.951L261.307 156.951L261.307 157.728L266.317 157.728ZM266.434 153.529C266.434 152.383 265.842 151.674 264.871 151.674C264.113 151.674 263.628 152.101 263.463 153.208L263.405 153.597C263.307 154.218 263.113 154.558 262.628 154.558C262.152 154.558 261.851 154.218 261.851 153.577C261.851 152.936 262.152 152.509 262.463 152.286L261.997 151.771C261.492 152.179 261.191 152.713 261.191 153.519C261.191 154.538 261.676 155.306 262.667 155.306C263.599 155.306 263.977 154.616 264.113 153.694L264.172 153.296C264.269 152.635 264.57 152.422 264.958 152.422C265.473 152.422 265.774 152.81 265.774 153.47C265.774 154.102 265.492 154.568 265.007 154.956L265.453 155.509C266.046 155.063 266.434 154.451 266.434 153.529ZM266.317 150.035L266.317 149.258L262.841 149.258C262.201 149.258 261.89 148.656 261.89 148.035C261.89 147.287 262.346 146.899 263.239 146.899L266.317 146.899L266.317 146.122L263.104 146.122C261.89 146.122 261.191 146.773 261.191 147.802C261.191 148.55 261.56 148.977 262.123 149.22L262.123 149.258L259.132 149.258L259.132 150.035L266.317 150.035ZM266.434 142.366C266.434 141.424 265.968 140.706 265.288 140.385L264.89 140.939C265.444 141.201 265.754 141.686 265.754 142.317C265.754 143.249 265.104 143.803 264.24 143.803L264.006 143.803L264.006 140.201L263.638 140.201C262.22 140.201 261.191 141.026 261.191 142.366C261.191 143.725 262.22 144.619 263.812 144.619C265.405 144.619 266.434 143.725 266.434 142.366ZM261.841 142.366C261.841 141.57 262.434 141.036 263.317 141.036L263.424 141.036L263.424 143.803L263.356 143.803C262.482 143.803 261.841 143.211 261.841 142.366ZM266.317 137.877L262.919 137.877C262.443 137.877 262.084 137.372 262.084 136.537L262.084 136.081L261.307 136.081L261.307 136.382C261.307 137.197 261.754 137.654 262.23 137.828L262.23 137.877L261.307 137.877L261.307 138.654L266.317 138.654L266.317 137.877ZM260.132 134.433C260.132 134.103 259.958 133.957 259.695 133.957L259.569 133.957C259.307 133.957 259.132 134.103 259.132 134.433C259.132 134.763 259.307 134.909 259.569 134.909L259.695 134.909C259.958 134.909 260.132 134.763 260.132 134.433ZM266.317 134.821L266.317 134.045L261.307 134.045L261.307 134.821L266.317 134.821ZM266.434 130.243C266.434 129.302 265.968 128.583 265.288 128.263L264.89 128.816C265.444 129.078 265.754 129.564 265.754 130.195C265.754 131.127 265.104 131.68 264.24 131.68L264.006 131.68L264.006 128.078L263.638 128.078C262.22 128.078 261.191 128.903 261.191 130.243C261.191 131.603 262.22 132.496 263.812 132.496C265.405 132.496 266.434 131.603 266.434 130.243ZM261.841 130.243C261.841 129.447 262.434 128.913 263.317 128.913L263.424 128.913L263.424 131.68L263.356 131.68C262.482 131.68 261.841 131.088 261.841 130.243ZM266.434 125.026C266.434 123.88 265.842 123.172 264.871 123.172C264.113 123.172 263.628 123.599 263.463 124.706L263.405 125.094C263.307 125.715 263.113 126.055 262.628 126.055C262.152 126.055 261.851 125.715 261.851 125.075C261.851 124.434 262.152 124.007 262.463 123.783L261.997 123.269C261.492 123.676 261.191 124.21 261.191 125.016C261.191 126.036 261.676 126.803 262.667 126.803C263.599 126.803 263.977 126.114 264.113 125.191L264.172 124.793C264.269 124.133 264.57 123.919 264.958 123.919C265.473 123.919 265.774 124.308 265.774 124.968C265.774 125.599 265.492 126.065 265.007 126.453L265.453 127.007C266.046 126.56 266.434 125.949 266.434 125.026Z" fill="#1F1F1F"/>
<path d="M306.661 143.638L306.661 142.842L300.952 142.842L300.952 142.793L302.088 142.22L305.04 140.599L302.088 138.977L300.952 138.405L300.952 138.356L306.661 138.356L306.661 137.56L299.884 137.56L299.884 138.608L303.535 140.56L303.535 140.609L299.884 142.551L299.884 143.638L306.661 143.638ZM306.661 131.491L305.981 131.491L305.981 132.064L303.224 132.064C302.166 132.064 301.534 132.782 301.534 133.986C301.534 134.889 301.981 135.491 302.515 135.763L302.952 135.297C302.496 135.025 302.204 134.627 302.204 134.025C302.204 133.229 302.593 132.841 303.302 132.841L303.797 132.841L303.797 133.831C303.797 135.288 304.321 135.967 305.263 135.967C306.195 135.967 306.778 135.346 306.778 134.287C306.778 133.588 306.457 133.054 305.846 132.841L305.846 132.792C306.312 132.734 306.661 132.501 306.661 131.928L306.661 131.491ZM306.117 134.161C306.117 134.763 305.836 135.152 305.341 135.152L305.137 135.152C304.651 135.152 304.379 134.754 304.379 133.87L304.379 132.841L305.205 132.841C305.719 132.841 306.117 133.394 306.117 134.161ZM306.661 129.339L303.185 129.339C302.544 129.339 302.234 128.737 302.234 128.115C302.234 127.368 302.69 126.979 303.583 126.979L306.661 126.979L306.661 126.202L303.447 126.202C302.234 126.202 301.534 126.853 301.534 127.882C301.534 128.63 301.903 129.057 302.467 129.3L302.467 129.339L301.651 129.339L301.651 130.115L306.661 130.115L306.661 129.339ZM306.661 121.242L306.661 120.465L301.651 120.465L301.651 121.242L305.117 121.242C305.778 121.242 306.079 121.844 306.079 122.456C306.079 123.204 305.622 123.602 304.729 123.602L301.651 123.602L301.651 124.378L304.865 124.378C306.079 124.378 306.778 123.718 306.778 122.689C306.778 121.854 306.321 121.475 305.846 121.281L305.846 121.242L306.661 121.242ZM306.661 118.272L306.661 117.496L302.331 117.496L302.331 116.418L301.651 116.418L301.651 117.496L300.156 117.496L300.156 116.418L299.476 116.418L299.476 117.175C299.476 117.913 299.952 118.272 300.641 118.272L301.651 118.272L301.651 119.088L302.331 119.088L302.331 118.272L306.661 118.272ZM306.661 111.051L305.981 111.051L305.981 111.624L303.224 111.624C302.166 111.624 301.534 112.343 301.534 113.547C301.534 114.45 301.981 115.052 302.515 115.323L302.952 114.857C302.496 114.586 302.204 114.187 302.204 113.585C302.204 112.789 302.593 112.401 303.302 112.401L303.797 112.401L303.797 113.391C303.797 114.848 304.321 115.527 305.263 115.527C306.195 115.527 306.778 114.906 306.778 113.848C306.778 113.149 306.457 112.614 305.846 112.401L305.846 112.352C306.312 112.294 306.661 112.061 306.661 111.488L306.661 111.051ZM306.117 113.721C306.117 114.323 305.836 114.712 305.341 114.712L305.137 114.712C304.651 114.712 304.379 114.314 304.379 113.43L304.379 112.401L305.205 112.401C305.719 112.401 306.117 112.954 306.117 113.721ZM306.778 107.811C306.778 106.86 306.312 106.209 305.593 105.889L305.214 106.452C305.787 106.724 306.088 107.18 306.088 107.811C306.088 108.734 305.457 109.21 304.583 109.21L303.729 109.21C302.855 109.21 302.224 108.734 302.224 107.811C302.224 107.2 302.525 106.772 303.039 106.588L302.709 105.937C302.02 106.229 301.534 106.821 301.534 107.811C301.534 109.219 302.554 110.045 304.156 110.045C305.758 110.045 306.778 109.219 306.778 107.811ZM306.661 102.447L305.981 102.447L305.981 103.467L302.331 103.467L302.331 102.37L301.651 102.37L301.651 103.467L300.263 103.467L300.263 104.166L301.195 104.166C301.534 104.166 301.651 104.273 301.651 104.603L301.651 105.069L302.331 105.069L302.331 104.244L305.836 104.244C306.321 104.244 306.661 103.952 306.661 103.418L306.661 102.447ZM306.661 97.7666L306.661 96.9899L301.651 96.9899L301.651 97.7666L305.117 97.7666C305.778 97.7666 306.079 98.3686 306.079 98.9803C306.079 99.728 305.622 100.126 304.729 100.126L301.651 100.126L301.651 100.903L304.865 100.903C306.079 100.903 306.778 100.243 306.778 99.2134C306.778 98.3783 306.321 97.9997 305.846 97.8055L305.846 97.7666L306.661 97.7666ZM306.661 94.292L303.263 94.292C302.787 94.292 302.428 93.7871 302.428 92.952L302.428 92.4957L301.651 92.4957L301.651 92.7967C301.651 93.6123 302.098 94.0686 302.573 94.2434L302.573 94.292L301.651 94.292L301.651 95.0687L306.661 95.0687L306.661 94.292ZM300.476 90.8481C300.476 90.518 300.301 90.3723 300.039 90.3723L299.913 90.3723C299.651 90.3723 299.476 90.518 299.476 90.8481C299.476 91.1782 299.651 91.3239 299.913 91.3239L300.039 91.3239C300.301 91.3239 300.476 91.1782 300.476 90.8481ZM306.661 91.2365L306.661 90.4597L301.651 90.4597L301.651 91.2365L306.661 91.2365ZM306.661 87.7653L303.185 87.7653C302.544 87.7653 302.234 87.1633 302.234 86.5419C302.234 85.7942 302.69 85.4059 303.583 85.4059L306.661 85.4059L306.661 84.6291L303.447 84.6291C302.234 84.6291 301.534 85.2796 301.534 86.3089C301.534 87.0565 301.903 87.4837 302.467 87.7265L302.467 87.7653L301.651 87.7653L301.651 88.5421L306.661 88.5421L306.661 87.7653ZM307.215 78.5328C306.389 78.5328 305.884 79.0669 305.884 80.3097L305.884 81.3777C305.884 81.8341 305.807 82.1448 305.506 82.1448C305.195 82.1448 305.03 81.8147 304.943 81.4845C304.972 81.3389 304.991 81.1641 304.991 80.9991C304.991 79.8533 304.282 79.1057 303.263 79.1057C302.729 79.1057 302.282 79.3193 301.971 79.6786L301.651 79.6786L301.651 78.727L300.971 78.727L300.971 79.4747C300.971 79.8922 301.253 80.0572 301.641 80.0572L301.729 80.0572C301.602 80.3291 301.534 80.6495 301.534 81.0088C301.534 82.1448 302.243 82.8924 303.263 82.8924C303.962 82.8924 304.515 82.5429 304.797 81.9506L304.836 81.9506C304.962 82.4555 305.205 82.8148 305.71 82.8148C306.049 82.8148 306.273 82.6497 306.409 82.3681L306.515 82.3681C306.651 82.8633 306.943 83.1643 307.486 83.1643C308.273 83.1643 308.72 82.5235 308.72 80.9602C308.72 79.3484 308.244 78.5328 307.215 78.5328ZM307.273 79.2611C307.817 79.2611 308.088 79.7659 308.088 80.6301L308.088 81.3486C308.088 82.1351 307.729 82.4361 307.292 82.4361C306.982 82.4361 306.758 82.2904 306.613 81.97L306.613 80.3C306.613 79.5232 306.875 79.2611 307.273 79.2611ZM304.37 80.9991C304.37 81.6593 304.059 82.0768 303.399 82.0768L303.127 82.0768C302.467 82.0768 302.156 81.6593 302.156 80.9991C302.156 80.3388 302.467 79.9213 303.127 79.9213L303.399 79.9213C304.059 79.9213 304.37 80.3388 304.37 80.9991Z" fill="#1F1F1F"/>
<path d="M349.82 129.159L343.042 131.528L343.042 132.567L349.82 134.936L349.82 134.111L347.819 133.431L347.819 130.693L349.82 130.013L349.82 129.159ZM347.101 130.897L347.101 133.237L343.8 132.091L343.8 132.042L347.101 130.897ZM350.373 123.623C349.548 123.623 349.043 124.157 349.043 125.4L349.043 126.468C349.043 126.924 348.965 127.235 348.664 127.235C348.353 127.235 348.188 126.905 348.101 126.575C348.13 126.429 348.15 126.254 348.15 126.089C348.15 124.943 347.441 124.196 346.421 124.196C345.887 124.196 345.441 124.409 345.13 124.769L344.809 124.769L344.809 123.817L344.13 123.817L344.13 124.565C344.13 124.982 344.411 125.147 344.8 125.147L344.887 125.147C344.761 125.419 344.693 125.74 344.693 126.099C344.693 127.235 345.402 127.983 346.421 127.983C347.12 127.983 347.674 127.633 347.955 127.041L347.994 127.041C348.12 127.546 348.363 127.905 348.868 127.905C349.208 127.905 349.431 127.74 349.567 127.458L349.674 127.458C349.81 127.953 350.101 128.254 350.645 128.254C351.431 128.254 351.878 127.614 351.878 126.05C351.878 124.439 351.402 123.623 350.373 123.623ZM350.431 124.351C350.975 124.351 351.247 124.856 351.247 125.72L351.247 126.439C351.247 127.225 350.888 127.526 350.451 127.526C350.14 127.526 349.917 127.381 349.771 127.06L349.771 125.39C349.771 124.613 350.033 124.351 350.431 124.351ZM347.528 126.089C347.528 126.749 347.217 127.167 346.557 127.167L346.285 127.167C345.625 127.167 345.314 126.749 345.314 126.089C345.314 125.429 345.625 125.011 346.285 125.011L346.557 125.011C347.217 125.011 347.528 125.429 347.528 126.089ZM349.82 121.673L346.421 121.673C345.945 121.673 345.586 121.168 345.586 120.333L345.586 119.877L344.809 119.877L344.809 120.178C344.809 120.993 345.256 121.45 345.732 121.625L345.732 121.673L344.809 121.673L344.809 122.45L349.82 122.45L349.82 121.673ZM343.635 118.229C343.635 117.899 343.46 117.753 343.198 117.753L343.071 117.753C342.809 117.753 342.634 117.899 342.634 118.229C342.634 118.559 342.809 118.705 343.071 118.705L343.198 118.705C343.46 118.705 343.635 118.559 343.635 118.229ZM349.82 118.618L349.82 117.841L344.809 117.841L344.809 118.618L349.82 118.618ZM349.936 114.059C349.936 113.107 349.47 112.457 348.752 112.136L348.373 112.7C348.946 112.971 349.247 113.428 349.247 114.059C349.247 114.981 348.616 115.457 347.742 115.457L346.887 115.457C346.013 115.457 345.382 114.981 345.382 114.059C345.382 113.447 345.683 113.02 346.198 112.836L345.868 112.185C345.178 112.476 344.693 113.069 344.693 114.059C344.693 115.467 345.712 116.292 347.315 116.292C348.917 116.292 349.936 115.467 349.936 114.059ZM349.82 107.685L349.82 106.909L344.809 106.909L344.809 107.685L348.276 107.685C348.936 107.685 349.237 108.287 349.237 108.899C349.237 109.647 348.781 110.045 347.887 110.045L344.809 110.045L344.809 110.821L348.023 110.821C349.237 110.821 349.936 110.161 349.936 109.132C349.936 108.297 349.48 107.918 349.004 107.724L349.004 107.685L349.82 107.685ZM349.82 103.473L349.14 103.473L349.14 104.211L342.634 104.211L342.634 104.987L349.014 104.987C349.48 104.987 349.82 104.696 349.82 104.162L349.82 103.473ZM349.82 100.044L349.14 100.044L349.14 101.064L345.489 101.064L345.489 99.9668L344.809 99.9668L344.809 101.064L343.421 101.064L343.421 101.763L344.353 101.763C344.693 101.763 344.809 101.87 344.809 102.2L344.809 102.666L345.489 102.666L345.489 101.841L348.994 101.841C349.48 101.841 349.82 101.549 349.82 101.015L349.82 100.044ZM349.82 95.3636L349.82 94.5868L344.809 94.5868L344.809 95.3636L348.276 95.3636C348.936 95.3636 349.237 95.9656 349.237 96.5773C349.237 97.3249 348.781 97.723 347.887 97.723L344.809 97.723L344.809 98.4998L348.023 98.4998C349.237 98.4998 349.936 97.8395 349.936 96.8103C349.936 95.9753 349.48 95.5966 349.004 95.4024L349.004 95.3636L349.82 95.3636ZM349.82 91.8889L346.421 91.8889C345.945 91.8889 345.586 91.384 345.586 90.549L345.586 90.0926L344.809 90.0926L344.809 90.3936C344.809 91.2092 345.256 91.6656 345.732 91.8404L345.732 91.8889L344.809 91.8889L344.809 92.6657L349.82 92.6657L349.82 91.8889ZM349.936 86.9972C349.936 86.0553 349.47 85.3368 348.79 85.0164L348.392 85.5698C348.946 85.832 349.256 86.3175 349.256 86.9486C349.256 87.8807 348.606 88.4342 347.742 88.4342L347.509 88.4342L347.509 84.8319L347.14 84.8319C345.722 84.8319 344.693 85.6572 344.693 86.9972C344.693 88.3565 345.722 89.2498 347.315 89.2498C348.907 89.2498 349.936 88.3565 349.936 86.9972ZM345.343 86.9972C345.343 86.201 345.936 85.6669 346.819 85.6669L346.926 85.6669L346.926 88.4342L346.858 88.4342C345.984 88.4342 345.343 87.8419 345.343 86.9972Z" fill="#1F1F1F"/>
<path d="M397.669 184.105L394.601 184.105L394.601 181.163L393.882 181.163L393.882 184.105L391.61 184.105L391.61 180.881L390.892 180.881L390.892 184.92L397.669 184.92L397.669 184.105ZM391.484 178.919C391.484 178.589 391.309 178.443 391.047 178.443L390.921 178.443C390.659 178.443 390.484 178.589 390.484 178.919C390.484 179.249 390.659 179.395 390.921 179.395L391.047 179.395C391.309 179.395 391.484 179.249 391.484 178.919ZM397.669 179.307L397.669 178.53L392.659 178.53L392.659 179.307L397.669 179.307ZM397.786 175.108C397.786 173.962 397.193 173.253 396.222 173.253C395.465 173.253 394.98 173.68 394.815 174.787L394.756 175.176C394.659 175.797 394.465 176.137 393.98 176.137C393.504 176.137 393.203 175.797 393.203 175.156C393.203 174.516 393.504 174.088 393.814 173.865L393.348 173.35C392.844 173.758 392.543 174.292 392.543 175.098C392.543 176.118 393.028 176.885 394.018 176.885C394.951 176.885 395.329 176.195 395.465 175.273L395.523 174.875C395.62 174.215 395.921 174.001 396.31 174.001C396.824 174.001 397.125 174.389 397.125 175.05C397.125 175.681 396.844 176.147 396.358 176.535L396.805 177.089C397.397 176.642 397.786 176.03 397.786 175.108ZM397.669 171.614L397.669 170.837L394.193 170.837C393.552 170.837 393.242 170.235 393.242 169.614C393.242 168.866 393.698 168.478 394.591 168.478L397.669 168.478L397.669 167.701L394.455 167.701C393.242 167.701 392.543 168.352 392.543 169.381C392.543 170.129 392.911 170.556 393.475 170.799L393.475 170.837L390.484 170.837L390.484 171.614L397.669 171.614ZM397.786 163.945C397.786 163.003 397.32 162.285 396.64 161.964L396.242 162.518C396.795 162.78 397.106 163.265 397.106 163.896C397.106 164.829 396.455 165.382 395.591 165.382L395.358 165.382L395.358 161.78L394.989 161.78C393.572 161.78 392.543 162.605 392.543 163.945C392.543 165.304 393.572 166.198 395.164 166.198C396.756 166.198 397.786 165.304 397.786 163.945ZM393.193 163.945C393.193 163.149 393.785 162.615 394.669 162.615L394.776 162.615L394.776 165.382L394.708 165.382C393.834 165.382 393.193 164.79 393.193 163.945ZM397.669 159.456L394.271 159.456C393.795 159.456 393.436 158.951 393.436 158.116L393.436 157.66L392.659 157.66L392.659 157.961C392.659 158.776 393.106 159.233 393.581 159.407L393.581 159.456L392.659 159.456L392.659 160.233L397.669 160.233L397.669 159.456ZM391.484 156.012C391.484 155.682 391.309 155.536 391.047 155.536L390.921 155.536C390.659 155.536 390.484 155.682 390.484 156.012C390.484 156.342 390.659 156.488 390.921 156.488L391.047 156.488C391.309 156.488 391.484 156.342 391.484 156.012ZM397.669 156.401L397.669 155.624L392.659 155.624L392.659 156.401L397.669 156.401ZM397.786 151.822C397.786 150.881 397.32 150.162 396.64 149.842L396.242 150.395C396.795 150.657 397.106 151.143 397.106 151.774C397.106 152.706 396.455 153.259 395.591 153.259L395.358 153.259L395.358 149.657L394.989 149.657C393.572 149.657 392.543 150.483 392.543 151.822C392.543 153.182 393.572 154.075 395.164 154.075C396.756 154.075 397.786 153.182 397.786 151.822ZM393.193 151.822C393.193 151.026 393.785 150.492 394.669 150.492L394.776 150.492L394.776 153.259L394.708 153.259C393.834 153.259 393.193 152.667 393.193 151.822ZM397.786 146.605C397.786 145.459 397.193 144.751 396.222 144.751C395.465 144.751 394.98 145.178 394.815 146.285L394.756 146.673C394.659 147.295 394.465 147.634 393.98 147.634C393.504 147.634 393.203 147.295 393.203 146.654C393.203 146.013 393.504 145.586 393.814 145.362L393.348 144.848C392.844 145.256 392.543 145.79 392.543 146.595C392.543 147.615 393.028 148.382 394.018 148.382C394.951 148.382 395.329 147.693 395.465 146.77L395.523 146.372C395.62 145.712 395.921 145.498 396.31 145.498C396.824 145.498 397.125 145.887 397.125 146.547C397.125 147.178 396.844 147.644 396.358 148.033L396.805 148.586C397.397 148.139 397.786 147.528 397.786 146.605Z" fill="#1F1F1F"/>
<path d="M440.828 107.496L440.828 106.68L434.05 106.68L434.05 107.496L437.041 107.496L437.041 110.923L434.05 110.923L434.05 111.739L440.828 111.739L440.828 110.923L437.759 110.923L437.759 107.496L440.828 107.496ZM440.944 102.791C440.944 101.451 439.915 100.529 438.323 100.529C436.73 100.529 435.701 101.451 435.701 102.791C435.701 104.131 436.73 105.053 438.323 105.053C439.915 105.053 440.944 104.131 440.944 102.791ZM440.255 102.791C440.255 103.626 439.74 104.218 438.682 104.218L437.963 104.218C436.905 104.218 436.39 103.626 436.39 102.791C436.39 101.956 436.905 101.364 437.963 101.364L438.682 101.364C439.74 101.364 440.255 101.956 440.255 102.791ZM440.828 98.2073L437.429 98.2073C436.954 98.2073 436.594 97.7024 436.594 96.8674L436.594 96.411L435.817 96.411L435.817 96.712C435.817 97.5276 436.264 97.984 436.74 98.1588L436.74 98.2073L435.817 98.2073L435.817 98.9841L440.828 98.9841L440.828 98.2073ZM440.828 93.036L440.148 93.036L440.148 94.0555L436.497 94.0555L436.497 92.9584L435.817 92.9584L435.817 94.0555L434.429 94.0555L434.429 94.7546L435.361 94.7546C435.701 94.7546 435.817 94.8614 435.817 95.1916L435.817 95.6576L436.497 95.6576L436.497 94.8323L440.002 94.8323C440.488 94.8323 440.828 94.541 440.828 94.007L440.828 93.036ZM434.643 91.0544C434.643 90.7243 434.468 90.5787 434.206 90.5787L434.079 90.5787C433.817 90.5787 433.643 90.7243 433.643 91.0544C433.643 91.3846 433.817 91.5302 434.079 91.5302L434.206 91.5302C434.468 91.5302 434.643 91.3846 434.643 91.0544ZM440.828 91.4428L440.828 90.6661L435.817 90.6661L435.817 91.4428L440.828 91.4428ZM440.944 86.8842C440.944 85.9326 440.478 85.2821 439.76 84.9617L439.381 85.5248C439.954 85.7967 440.255 86.253 440.255 86.8842C440.255 87.8066 439.624 88.2823 438.75 88.2824L437.895 88.2824C437.021 88.2824 436.39 87.8066 436.39 86.8842C436.39 86.2725 436.691 85.8452 437.206 85.6608L436.876 85.0102C436.186 85.3015 435.701 85.8938 435.701 86.8842C435.701 88.2921 436.72 89.1174 438.323 89.1174C439.925 89.1174 440.944 88.2921 440.944 86.8842ZM440.828 80.5105L440.828 79.7337L435.817 79.7337L435.817 80.5105L439.284 80.5105C439.944 80.5105 440.245 81.1125 440.245 81.7242C440.245 82.4718 439.789 82.8699 438.895 82.8699L435.817 82.8699L435.817 83.6467L439.031 83.6467C440.245 83.6467 440.944 82.9864 440.944 81.9572C440.944 81.1222 440.488 80.7435 440.012 80.5493L440.012 80.5105L440.828 80.5105ZM440.828 76.2979L440.148 76.2979L440.148 77.0358L433.643 77.0358L433.643 77.8126L440.022 77.8126C440.488 77.8126 440.828 77.5213 440.828 76.9873L440.828 76.2979ZM440.828 72.8697L440.148 72.8697L440.148 73.8892L436.497 73.8892L436.497 72.792L435.817 72.792L435.817 73.8892L434.429 73.8892L434.429 74.5883L435.361 74.5883C435.701 74.5883 435.817 74.6951 435.817 75.0252L435.817 75.4912L436.497 75.4912L436.497 74.6659L440.002 74.6659C440.488 74.6659 440.828 74.3746 440.828 73.8406L440.828 72.8697ZM440.828 68.1888L440.828 67.412L435.817 67.412L435.817 68.1888L439.284 68.1888C439.944 68.1888 440.245 68.7908 440.245 69.4025C440.245 70.1501 439.789 70.5482 438.895 70.5482L435.817 70.5482L435.817 71.325L439.031 71.325C440.245 71.325 440.944 70.6647 440.944 69.6355C440.944 68.8005 440.488 68.4218 440.012 68.2276L440.012 68.1888L440.828 68.1888ZM440.828 64.7141L437.429 64.7141C436.954 64.7141 436.594 64.2092 436.594 63.3742L436.594 62.9179L435.817 62.9179L435.817 63.2189C435.817 64.0345 436.264 64.4908 436.74 64.6656L436.74 64.7141L435.817 64.7141L435.817 65.4909L440.828 65.4909L440.828 64.7141ZM440.944 59.8224C440.944 58.8806 440.478 58.162 439.798 57.8416L439.4 58.3951C439.954 58.6572 440.264 59.1427 440.264 59.7738C440.264 60.706 439.614 61.2594 438.75 61.2594L438.517 61.2594L438.517 57.6571L438.148 57.6571C436.73 57.6571 435.701 58.4825 435.701 59.8224C435.701 61.1817 436.73 62.075 438.323 62.075C439.915 62.075 440.944 61.1817 440.944 59.8224ZM436.352 59.8224C436.352 59.0262 436.944 58.4922 437.827 58.4922L437.934 58.4922L437.934 61.2594L437.866 61.2594C436.992 61.2594 436.352 60.6671 436.352 59.8224Z" fill="#1F1F1F"/>
</svg>
