<svg width="475" height="271" viewBox="0 0 475 271" fill="none" xmlns="http://www.w3.org/2000/svg">
<rect x="0.725461" y="0.87634" width="473.804" height="269.271" rx="4.22202" fill="white" stroke="#E5E5E5" stroke-width="0.938226"/>
<path d="M20.4168 33.3564H21.6478V24.5296H21.7228L22.6085 26.286L25.1155 30.8495L27.6224 26.286L28.5081 24.5296H28.5832V33.3564H29.8141V22.8783H28.1929L25.1755 28.5227H25.1005L22.0981 22.8783H20.4168V33.3564ZM35.8041 33.5366C37.2602 33.5366 38.3711 32.816 38.8665 31.7652L38.0108 31.1497C37.6055 32.0054 36.8549 32.4858 35.8792 32.4858C34.438 32.4858 33.5824 31.48 33.5824 30.144V29.7837H39.1517V29.2132C39.1517 27.0215 37.8757 25.4303 35.8041 25.4303C33.7025 25.4303 32.3214 27.0215 32.3214 29.4834C32.3214 31.9454 33.7025 33.5366 35.8041 33.5366ZM35.8041 26.4361C37.035 26.4361 37.8607 27.3518 37.8607 28.7179V28.883H33.5824V28.7779C33.5824 27.4269 34.4981 26.4361 35.8041 26.4361ZM42.7444 33.3564V27.9823C42.7444 26.9915 43.6751 26.5111 44.6359 26.5111C45.7917 26.5111 46.3922 27.2167 46.3922 28.5978V33.3564H47.5931V28.3876C47.5931 26.5111 46.5874 25.4303 44.9961 25.4303C43.8402 25.4303 43.1797 26.0008 42.8044 26.8714H42.7444V25.6104H41.5435V33.3564H42.7444ZM53.7008 33.3564V32.3056H52.1245V26.6613H53.8209V25.6104H52.1245V23.4638H51.0437V24.9049C51.0437 25.4303 50.8786 25.6104 50.3682 25.6104H49.6476V26.6613H50.9236V32.0805C50.9236 32.831 51.374 33.3564 52.1996 33.3564H53.7008ZM59.0326 33.5366C61.1042 33.5366 62.5303 31.9454 62.5303 29.4834C62.5303 27.0215 61.1042 25.4303 59.0326 25.4303C56.961 25.4303 55.5349 27.0215 55.5349 29.4834C55.5349 31.9454 56.961 33.5366 59.0326 33.5366ZM59.0326 32.4708C57.7416 32.4708 56.8259 31.6751 56.8259 30.0389V28.928C56.8259 27.2918 57.7416 26.4961 59.0326 26.4961C60.3236 26.4961 61.2393 27.2918 61.2393 28.928V30.0389C61.2393 31.6751 60.3236 32.4708 59.0326 32.4708ZM66.1191 33.3564V28.1024C66.1191 27.3668 66.8997 26.8114 68.1907 26.8114H68.8963V25.6104H68.4309C67.1699 25.6104 66.4644 26.301 66.1942 27.0366H66.1191V25.6104H64.9182V33.3564H66.1191ZM77.911 33.3564L80.6431 25.6104H79.4872L78.1061 29.4534L77.2655 32.0955H77.1904L76.3498 29.4534L74.9987 25.6104H73.7978L76.5149 33.3564H77.911ZM84.9317 33.5366C86.7031 33.5366 87.799 32.6209 87.799 31.1197C87.799 29.9488 87.1384 29.1982 85.4271 28.943L84.8267 28.853C83.8659 28.7028 83.3405 28.4026 83.3405 27.652C83.3405 26.9165 83.8659 26.4511 84.8567 26.4511C85.8474 26.4511 86.508 26.9165 86.8532 27.3968L87.6488 26.6763C87.0183 25.8957 86.1927 25.4303 84.9467 25.4303C83.3705 25.4303 82.1846 26.1809 82.1846 27.7121C82.1846 29.1532 83.2504 29.7386 84.6765 29.9488L85.292 30.0389C86.3128 30.189 86.6431 30.6544 86.6431 31.2548C86.6431 32.0504 86.0426 32.5158 85.0218 32.5158C84.046 32.5158 83.3255 32.0805 82.725 31.3299L81.8694 32.0204C82.5599 32.9361 83.5056 33.5366 84.9317 33.5366ZM98.1214 33.3564V32.3056H96.6503V23.9291H98.1214V22.8783H93.9182V23.9291H95.3893V32.3056H93.9182V33.3564H98.1214ZM101.918 33.3564V27.9823C101.918 26.9915 102.848 26.5111 103.809 26.5111C104.965 26.5111 105.566 27.2167 105.566 28.5978V33.3564H106.766V28.3876C106.766 26.5111 105.761 25.4303 104.169 25.4303C103.014 25.4303 102.353 26.0008 101.978 26.8714H101.918V25.6104H100.717V33.3564H101.918ZM114.615 33.3564H115.816V22.2478H114.615V26.8714H114.555C114.15 25.8957 113.354 25.4303 112.289 25.4303C110.352 25.4303 109.136 27.0065 109.136 29.4834C109.136 31.9604 110.352 33.5366 112.289 33.5366C113.354 33.5366 114.09 33.0562 114.555 32.0955H114.615V33.3564ZM112.619 32.4557C111.268 32.4557 110.427 31.525 110.427 30.144V28.8229C110.427 27.4419 111.268 26.5111 112.619 26.5111C113.715 26.5111 114.615 27.1416 114.615 27.9973V30.8795C114.615 31.8853 113.715 32.4557 112.619 32.4557ZM123.556 33.3564H124.757V25.6104H123.556V30.9696C123.556 31.9904 122.625 32.4557 121.68 32.4557C120.524 32.4557 119.908 31.7502 119.908 30.3691V25.6104H118.707V30.5793C118.707 32.4557 119.728 33.5366 121.319 33.5366C122.61 33.5366 123.196 32.831 123.496 32.0955H123.556V33.3564ZM130.054 33.5366C131.825 33.5366 132.921 32.6209 132.921 31.1197C132.921 29.9488 132.261 29.1982 130.549 28.943L129.949 28.853C128.988 28.7028 128.463 28.4026 128.463 27.652C128.463 26.9165 128.988 26.4511 129.979 26.4511C130.97 26.4511 131.63 26.9165 131.975 27.3968L132.771 26.6763C132.141 25.8957 131.315 25.4303 130.069 25.4303C128.493 25.4303 127.307 26.1809 127.307 27.7121C127.307 29.1532 128.373 29.7386 129.799 29.9488L130.414 30.0389C131.435 30.189 131.765 30.6544 131.765 31.2548C131.765 32.0504 131.165 32.5158 130.144 32.5158C129.168 32.5158 128.448 32.0805 127.847 31.3299L126.992 32.0204C127.682 32.9361 128.628 33.5366 130.054 33.5366ZM138.565 33.3564V32.3056H136.989V26.6613H138.685V25.6104H136.989V23.4638H135.908V24.9049C135.908 25.4303 135.743 25.6104 135.233 25.6104H134.512V26.6613H135.788V32.0805C135.788 32.831 136.238 33.3564 137.064 33.3564H138.565ZM142.229 33.3564V28.1024C142.229 27.3668 143.01 26.8114 144.301 26.8114H145.006V25.6104H144.541C143.28 25.6104 142.574 26.301 142.304 27.0366H142.229V25.6104H141.028V33.3564H142.229ZM149.997 30.8795L149.577 32.1405H149.502L149.141 30.8795L147.28 25.6104H146.079L148.976 33.6567L148.391 35.308H147.175V36.3588H147.79C148.931 36.3588 149.246 36.0886 149.592 35.1578L153.059 25.6104H151.873L149.997 30.8795Z" fill="#263238"/>
<g opacity="0.4">
<g opacity="0.8">
<rect x="319.254" y="56.7002" width="10.2033" height="10.2033" rx="5.10166" fill="#56CCF2"/>
</g>
</g>
<path d="M325.559 81.3047L323.069 74.1828H321.977L319.488 81.3047H320.355L321.069 79.2028H323.947L324.661 81.3047H325.559ZM323.732 78.4478H321.273L322.477 74.9786H322.528L323.732 78.4478ZM329.599 81.3047V80.5905H328.599V74.897H329.599V74.1828H326.742V74.897H327.742V80.5905H326.742V81.3047H329.599Z" fill="#3498DB"/>
<g opacity="0.8">
<rect x="319.253" y="99.6328" width="10.2033" height="10.2033" rx="5.10166" fill="#56CCF2"/>
</g>
<path d="M322.722 124.236V123.522H321.722V117.829H322.722V117.114H319.865V117.829H320.865V123.522H319.865V124.236H322.722ZM327.291 124.359C329.127 124.359 330.311 123.063 330.311 120.675C330.311 118.288 329.127 116.992 327.291 116.992C325.454 116.992 324.27 118.288 324.27 120.675C324.27 123.063 325.454 124.359 327.291 124.359ZM327.291 123.594C326.056 123.594 325.189 122.675 325.189 121.267V120.084C325.189 118.676 326.056 117.757 327.291 117.757C328.525 117.757 329.392 118.676 329.392 120.084V121.267C329.392 122.675 328.525 123.594 327.291 123.594ZM336.655 117.869V117.114H331.268V117.869H333.533V124.236H334.39V117.869H336.655Z" fill="#3498DB"/>
<rect x="319.253" y="142.565" width="10.2033" height="10.2033" rx="5.10166" fill="#3498DB"/>
<path d="M325.559 167.17L323.069 160.048H321.977L319.488 167.17H320.355L321.069 165.068H323.947L324.661 167.17H325.559ZM323.732 164.313H321.273L322.477 160.844H322.528L323.732 164.313ZM327.936 164.109H329.599L331.14 167.17H332.109L330.476 164.027C331.405 163.813 331.905 163.109 331.905 162.068C331.905 160.772 331.16 160.048 329.915 160.048H327.079V167.17H327.936V164.109ZM327.936 163.374V160.803H329.915C330.589 160.803 330.987 161.17 330.987 161.823V162.354C330.987 163.007 330.589 163.374 329.915 163.374H327.936ZM333.723 168.711L336.386 159.619H335.652L332.989 168.711H333.723ZM340.954 167.17L343.352 160.048H342.464L341.281 163.64L340.475 166.313H340.424L339.638 163.64L338.465 160.048H337.546L339.913 167.17H340.954ZM345.706 164.109H347.369L348.91 167.17H349.879L348.247 164.027C349.175 163.813 349.675 163.109 349.675 162.068C349.675 160.772 348.93 160.048 347.685 160.048H344.849V167.17H345.706V164.109ZM345.706 163.374V160.803H347.685C348.359 160.803 348.757 161.17 348.757 161.823V162.354C348.757 163.007 348.359 163.374 347.685 163.374H345.706Z" fill="#3498DB"/>
<g opacity="0.16">
<rect x="319.253" y="185.497" width="10.2033" height="10.2033" rx="5.10166" fill="#3498DB"/>
</g>
<path d="M321.059 206.866H322.722L324.263 209.927H325.232L323.6 206.784C324.528 206.57 325.028 205.866 325.028 204.825C325.028 203.529 324.283 202.805 323.039 202.805H320.202V209.927H321.059V206.866ZM321.059 206.131V203.56H323.039C323.712 203.56 324.11 203.927 324.11 204.58V205.111C324.11 205.764 323.712 206.131 323.039 206.131H321.059ZM328.827 210.049C330.235 210.049 331.205 208.968 331.205 207.294C331.205 205.621 330.235 204.539 328.827 204.539C327.419 204.539 326.45 205.621 326.45 207.294C326.45 208.968 327.419 210.049 328.827 210.049ZM328.827 209.325C327.95 209.325 327.327 208.784 327.327 207.672V206.917C327.327 205.805 327.95 205.264 328.827 205.264C329.705 205.264 330.327 205.805 330.327 206.917V207.672C330.327 208.784 329.705 209.325 328.827 209.325ZM332.887 209.927H333.703V209.07H333.744C334.061 209.723 334.561 210.049 335.285 210.049C336.601 210.049 337.428 208.978 337.428 207.294C337.428 205.611 336.601 204.539 335.285 204.539C334.561 204.539 334.02 204.856 333.744 205.519H333.703V202.376H332.887V209.927ZM335.061 209.315C334.316 209.315 333.703 208.927 333.703 208.243V206.284C333.703 205.703 334.316 205.274 335.061 205.274C335.979 205.274 336.55 205.907 336.55 206.845V207.743C336.55 208.682 335.979 209.315 335.061 209.315ZM341.136 210.049C342.544 210.049 343.513 208.968 343.513 207.294C343.513 205.621 342.544 204.539 341.136 204.539C339.728 204.539 338.758 205.621 338.758 207.294C338.758 208.968 339.728 210.049 341.136 210.049ZM341.136 209.325C340.258 209.325 339.636 208.784 339.636 207.672V206.917C339.636 205.805 340.258 205.264 341.136 205.264C342.013 205.264 342.636 205.805 342.636 206.917V207.672C342.636 208.784 342.013 209.325 341.136 209.325ZM347.379 209.927V209.213H346.308V205.376H347.461V204.662H346.308V203.203H345.573V204.182C345.573 204.539 345.461 204.662 345.114 204.662H344.624V205.376H345.492V209.059C345.492 209.57 345.798 209.927 346.359 209.927H347.379ZM349.521 203.427C349.868 203.427 350.021 203.244 350.021 202.968V202.835C350.021 202.56 349.868 202.376 349.521 202.376C349.174 202.376 349.021 202.56 349.021 202.835V202.968C349.021 203.244 349.174 203.427 349.521 203.427ZM349.113 209.927H349.929V204.662H349.113V209.927ZM353.963 210.049C354.963 210.049 355.646 209.559 355.983 208.804L355.391 208.406C355.106 209.008 354.626 209.325 353.963 209.325C352.994 209.325 352.494 208.662 352.494 207.743V206.845C352.494 205.927 352.994 205.264 353.963 205.264C354.606 205.264 355.055 205.58 355.248 206.121L355.932 205.774C355.626 205.05 355.004 204.539 353.963 204.539C352.483 204.539 351.616 205.611 351.616 207.294C351.616 208.978 352.483 210.049 353.963 210.049ZM359.057 210.049C360.261 210.049 361.006 209.427 361.006 208.406C361.006 207.611 360.557 207.1 359.394 206.927L358.986 206.866C358.333 206.764 357.975 206.56 357.975 206.049C357.975 205.55 358.333 205.233 359.006 205.233C359.679 205.233 360.128 205.55 360.363 205.876L360.904 205.386C360.475 204.856 359.914 204.539 359.067 204.539C357.996 204.539 357.19 205.05 357.19 206.09C357.19 207.07 357.914 207.468 358.884 207.611L359.302 207.672C359.996 207.774 360.22 208.09 360.22 208.498C360.22 209.039 359.812 209.355 359.118 209.355C358.455 209.355 357.965 209.059 357.557 208.549L356.976 209.019C357.445 209.641 358.088 210.049 359.057 210.049Z" fill="#3498DB"/>
<g opacity="0.4">
<g opacity="0.8">
<rect x="388.682" y="56.7002" width="10.2033" height="10.2033" rx="5.10166" fill="#56CCF2"/>
</g>
</g>
<path d="M394.988 81.3047L392.498 74.1828H391.406L388.917 81.3047H389.784L390.498 79.2028H393.376L394.09 81.3047H394.988ZM393.161 78.4478H390.702L391.906 74.9786H391.957L393.161 78.4478ZM399.028 81.3047V80.5905H398.028V74.897H399.028V74.1828H396.171V74.897H397.171V80.5905H396.171V81.3047H399.028Z" fill="#3498DB"/>
<g opacity="0.8">
<rect x="388.682" y="99.6328" width="10.2033" height="10.2033" rx="5.10166" fill="#56CCF2"/>
</g>
<path d="M392.151 124.236V123.522H391.151V117.829H392.151V117.114H389.294V117.829H390.294V123.522H389.294V124.236H392.151ZM396.72 124.359C398.556 124.359 399.74 123.063 399.74 120.675C399.74 118.288 398.556 116.992 396.72 116.992C394.883 116.992 393.699 118.288 393.699 120.675C393.699 123.063 394.883 124.359 396.72 124.359ZM396.72 123.594C395.485 123.594 394.618 122.675 394.618 121.267V120.084C394.618 118.676 395.485 117.757 396.72 117.757C397.954 117.757 398.821 118.676 398.821 120.084V121.267C398.821 122.675 397.954 123.594 396.72 123.594ZM406.084 117.869V117.114H400.697V117.869H402.962V124.236H403.819V117.869H406.084Z" fill="#3498DB"/>
<rect x="388.682" y="142.565" width="10.2033" height="10.2033" rx="5.10166" fill="#3498DB"/>
<path d="M394.988 167.17L392.498 160.048H391.406L388.917 167.17H389.784L390.498 165.068H393.376L394.09 167.17H394.988ZM393.161 164.313H390.702L391.906 160.844H391.957L393.161 164.313ZM397.365 164.109H399.028L400.569 167.17H401.538L399.905 164.027C400.834 163.813 401.334 163.109 401.334 162.068C401.334 160.772 400.589 160.048 399.344 160.048H396.508V167.17H397.365V164.109ZM397.365 163.374V160.803H399.344C400.018 160.803 400.416 161.17 400.416 161.823V162.354C400.416 163.007 400.018 163.374 399.344 163.374H397.365ZM403.152 168.711L405.815 159.619H405.081L402.418 168.711H403.152ZM410.383 167.17L412.781 160.048H411.893L410.71 163.64L409.904 166.313H409.853L409.067 163.64L407.893 160.048H406.975L409.342 167.17H410.383ZM415.135 164.109H416.798L418.339 167.17H419.308L417.675 164.027C418.604 163.813 419.104 163.109 419.104 162.068C419.104 160.772 418.359 160.048 417.114 160.048H414.278V167.17H415.135V164.109ZM415.135 163.374V160.803H417.114C417.788 160.803 418.186 161.17 418.186 161.823V162.354C418.186 163.007 417.788 163.374 417.114 163.374H415.135Z" fill="#3498DB"/>
<g opacity="0.16">
<rect x="388.682" y="185.497" width="10.2033" height="10.2033" rx="5.10166" fill="#3498DB"/>
</g>
<path d="M390.488 206.866H392.151L393.692 209.927H394.661L393.029 206.784C393.957 206.57 394.457 205.866 394.457 204.825C394.457 203.529 393.712 202.805 392.468 202.805H389.631V209.927H390.488V206.866ZM390.488 206.131V203.56H392.468C393.141 203.56 393.539 203.927 393.539 204.58V205.111C393.539 205.764 393.141 206.131 392.468 206.131H390.488ZM398.256 210.049C399.664 210.049 400.634 208.968 400.634 207.294C400.634 205.621 399.664 204.539 398.256 204.539C396.848 204.539 395.879 205.621 395.879 207.294C395.879 208.968 396.848 210.049 398.256 210.049ZM398.256 209.325C397.379 209.325 396.756 208.784 396.756 207.672V206.917C396.756 205.805 397.379 205.264 398.256 205.264C399.134 205.264 399.756 205.805 399.756 206.917V207.672C399.756 208.784 399.134 209.325 398.256 209.325ZM402.316 209.927H403.132V209.07H403.173C403.49 209.723 403.99 210.049 404.714 210.049C406.03 210.049 406.857 208.978 406.857 207.294C406.857 205.611 406.03 204.539 404.714 204.539C403.99 204.539 403.449 204.856 403.173 205.519H403.132V202.376H402.316V209.927ZM404.489 209.315C403.745 209.315 403.132 208.927 403.132 208.243V206.284C403.132 205.703 403.745 205.274 404.489 205.274C405.408 205.274 405.979 205.907 405.979 206.845V207.743C405.979 208.682 405.408 209.315 404.489 209.315ZM410.565 210.049C411.973 210.049 412.942 208.968 412.942 207.294C412.942 205.621 411.973 204.539 410.565 204.539C409.157 204.539 408.187 205.621 408.187 207.294C408.187 208.968 409.157 210.049 410.565 210.049ZM410.565 209.325C409.687 209.325 409.065 208.784 409.065 207.672V206.917C409.065 205.805 409.687 205.264 410.565 205.264C411.442 205.264 412.065 205.805 412.065 206.917V207.672C412.065 208.784 411.442 209.325 410.565 209.325ZM416.808 209.927V209.213H415.737V205.376H416.89V204.662H415.737V203.203H415.002V204.182C415.002 204.539 414.89 204.662 414.543 204.662H414.053V205.376H414.92V209.059C414.92 209.57 415.227 209.927 415.788 209.927H416.808ZM418.95 203.427C419.297 203.427 419.45 203.244 419.45 202.968V202.835C419.45 202.56 419.297 202.376 418.95 202.376C418.603 202.376 418.45 202.56 418.45 202.835V202.968C418.45 203.244 418.603 203.427 418.95 203.427ZM418.542 209.927H419.358V204.662H418.542V209.927ZM423.392 210.049C424.392 210.049 425.075 209.559 425.412 208.804L424.82 208.406C424.535 209.008 424.055 209.325 423.392 209.325C422.423 209.325 421.923 208.662 421.923 207.743V206.845C421.923 205.927 422.423 205.264 423.392 205.264C424.035 205.264 424.484 205.58 424.677 206.121L425.361 205.774C425.055 205.05 424.433 204.539 423.392 204.539C421.912 204.539 421.045 205.611 421.045 207.294C421.045 208.978 421.912 210.049 423.392 210.049ZM428.486 210.049C429.69 210.049 430.435 209.427 430.435 208.406C430.435 207.611 429.986 207.1 428.823 206.927L428.415 206.866C427.762 206.764 427.404 206.56 427.404 206.049C427.404 205.55 427.762 205.233 428.435 205.233C429.108 205.233 429.557 205.55 429.792 205.876L430.333 205.386C429.904 204.856 429.343 204.539 428.496 204.539C427.425 204.539 426.619 205.05 426.619 206.09C426.619 207.07 427.343 207.468 428.313 207.611L428.731 207.672C429.425 207.774 429.649 208.09 429.649 208.498C429.649 209.039 429.241 209.355 428.547 209.355C427.884 209.355 427.394 209.059 426.986 208.549L426.404 209.019C426.874 209.641 427.517 210.049 428.486 210.049Z" fill="#3498DB"/>
<rect x="39.6619" y="61.3916" width="188.583" height="188.583" rx="94.2917" fill="#56CCF2"/>
<g style="mix-blend-mode:overlay">
<path d="M133.954 155.684H228.245C228.245 181.649 217.505 205.156 200.441 222.172L133.954 155.684Z" fill="#ACB9FF"/>
</g>
<g opacity="0.4">
<path d="M133.954 155.682H228.245C228.245 129.717 217.505 106.21 200.441 89.1943L133.954 155.682Z" fill="#3498DB"/>
</g>
<path d="M133.953 155.684V61.3919C159.918 61.3919 183.425 72.1324 200.441 89.1958L133.953 155.684Z" fill="#3498DB"/>
</svg>
