<svg width="475" height="271" viewBox="0 0 475 271" fill="none" xmlns="http://www.w3.org/2000/svg">
<rect x="0.527219" y="0.87634" width="473.804" height="269.271" rx="4.22202" fill="white" stroke="#E5E5E5" stroke-width="0.938226"/>
<g opacity="0.16">
<rect x="66.6721" y="121.438" width="39.511" height="121.213" fill="#0099E6"/>
</g>
<g opacity="0.16">
<rect x="110.769" y="127.067" width="39.511" height="115.288" fill="#0099E6"/>
</g>
<g opacity="0.16">
<rect x="153.927" y="106.427" width="39.511" height="136.289" fill="#0099E6"/>
</g>
<g opacity="0.16">
<rect x="198.962" y="96.1064" width="39.511" height="145.978" fill="#0099E6"/>
</g>
<g opacity="0.16">
<rect x="242.121" y="144.894" width="39.511" height="97.6684" fill="#0099E6"/>
</g>
<g opacity="0.16">
<rect x="285.279" y="121.438" width="39.511" height="120.885" fill="#0099E6"/>
</g>
<g opacity="0.16">
<rect x="330.314" y="110.18" width="39.511" height="131.969" fill="#0099E6"/>
</g>
<g opacity="0.16">
<rect x="373.472" y="166.473" width="39.511" height="75.8468" fill="#0099E6"/>
</g>
<g opacity="0.16">
<rect x="416.631" y="92.3525" width="39.511" height="149.36" fill="#0099E6"/>
</g>
<path d="M81.856 234.182H77.8269L79.8908 232.326C80.8679 231.448 81.5705 230.614 81.5705 229.428C81.5705 228.122 80.7142 227.199 79.2211 227.199C77.739 227.199 77.0584 228.1 76.7619 229L77.5853 229.318C77.7939 228.594 78.2331 228.023 79.1772 228.023C80.1214 228.023 80.5935 228.605 80.5935 229.45V229.582C80.5935 230.317 80.0445 231.086 79.3309 231.744L76.8278 234.05V234.994H81.856V234.182ZM88.4205 227.331H84.3146L84.0401 231.547L84.8196 231.657C85.1379 231.305 85.4893 231.009 86.1919 231.009C87.2348 231.009 87.7948 231.591 87.7948 232.601V232.711C87.7948 233.721 87.2348 234.302 86.1919 234.302C85.2697 234.302 84.8854 233.896 84.4902 233.292L83.7986 233.819C84.2597 234.478 84.9184 235.126 86.1919 235.126C87.8057 235.126 88.7718 234.083 88.7718 232.59C88.7718 231.108 87.8057 230.218 86.4883 230.218C85.6869 230.218 85.2807 230.548 84.9184 231.064H84.8415L85.0611 228.144H88.4205V227.331ZM93.2065 235.126C94.7435 235.126 95.7536 234.094 95.7536 232.59C95.7536 231.141 94.8094 230.229 93.492 230.229C92.5588 230.229 92.0099 230.702 91.6476 231.327L91.5927 231.305C92.0099 229.527 92.9211 228.528 94.5569 227.331H93.3712C92.1416 228.133 90.6376 229.911 90.6376 232.184C90.6376 234.006 91.6147 235.126 93.2065 235.126ZM93.1956 234.324C92.1855 234.324 91.5927 233.743 91.5927 232.711V232.623C91.5927 231.591 92.1855 231.009 93.1956 231.009C94.2056 231.009 94.7984 231.591 94.7984 232.623V232.711C94.7984 233.743 94.2056 234.324 93.1956 234.324Z" fill="#263238"/>
<path d="M126.106 234.882V234.069H124.13V227.219H122.692L120.661 229.118L121.199 229.7L123.131 227.899H123.208V234.069H121.067V234.882H126.106ZM132.045 234.882V233.378H133.154V232.609H132.045V227.219H130.673L127.467 232.565V233.378H131.167V234.882H132.045ZM131.112 227.932H131.167V232.609H128.334L131.112 227.932ZM138.994 234.882V233.378H140.103V232.609H138.994V227.219H137.622L134.416 232.565V233.378H138.116V234.882H138.994ZM138.061 227.932H138.116V232.609H135.283L138.061 227.932Z" fill="#263238"/>
<path d="M169.265 234.303V233.49H167.289V226.64H165.85L163.819 228.539L164.357 229.121L166.29 227.32H166.366V233.49H164.226V234.303H169.265ZM173.513 234.434C175.05 234.434 176.06 233.402 176.06 231.898C176.06 230.449 175.116 229.538 173.798 229.538C172.865 229.538 172.316 230.01 171.954 230.636L171.899 230.614C172.316 228.835 173.227 227.836 174.863 226.64H173.678C172.448 227.441 170.944 229.22 170.944 231.492C170.944 233.315 171.921 234.434 173.513 234.434ZM173.502 233.633C172.492 233.633 171.899 233.051 171.899 232.019V231.931C171.899 230.899 172.492 230.318 173.502 230.318C174.512 230.318 175.105 230.899 175.105 231.931V232.019C175.105 233.051 174.512 233.633 173.502 233.633ZM180.451 234.434C182.196 234.434 183.108 233.479 183.108 232.217C183.108 231.174 182.482 230.57 181.56 230.318V230.23C182.361 229.955 182.877 229.307 182.877 228.429C182.877 227.265 181.977 226.508 180.451 226.508C178.925 226.508 178.024 227.265 178.024 228.429C178.024 229.307 178.54 229.955 179.342 230.23V230.318C178.42 230.57 177.794 231.174 177.794 232.217C177.794 233.479 178.705 234.434 180.451 234.434ZM180.451 233.633C179.386 233.633 178.771 233.128 178.771 232.261V232.03C178.771 231.163 179.386 230.658 180.451 230.658C181.516 230.658 182.13 231.163 182.13 232.03V232.261C182.13 233.128 181.516 233.633 180.451 233.633ZM180.451 229.889C179.496 229.889 178.98 229.461 178.98 228.682V228.517C178.98 227.738 179.496 227.309 180.451 227.309C181.406 227.309 181.922 227.738 181.922 228.517V228.682C181.922 229.461 181.406 229.889 180.451 229.889Z" fill="#263238"/>
<path d="M214.146 235.046H210.117L212.181 233.191C213.158 232.312 213.861 231.478 213.861 230.292C213.861 228.986 213.004 228.064 211.511 228.064C210.029 228.064 209.348 228.964 209.052 229.864L209.875 230.182C210.084 229.458 210.523 228.887 211.467 228.887C212.411 228.887 212.883 229.469 212.883 230.314V230.446C212.883 231.182 212.335 231.95 211.621 232.609L209.118 234.914V235.858H214.146V235.046ZM220.238 235.858V234.354H221.347V233.586H220.238V228.195H218.866L215.66 233.542V234.354H219.36V235.858H220.238ZM219.305 228.909H219.36V233.586H216.528L219.305 228.909ZM225.486 235.99C227.231 235.99 228.142 235.035 228.142 233.772C228.142 232.73 227.517 232.126 226.594 231.873V231.785C227.396 231.511 227.912 230.863 227.912 229.985C227.912 228.821 227.012 228.064 225.486 228.064C223.96 228.064 223.059 228.821 223.059 229.985C223.059 230.863 223.575 231.511 224.377 231.785V231.873C223.455 232.126 222.829 232.73 222.829 233.772C222.829 235.035 223.74 235.99 225.486 235.99ZM225.486 235.189C224.421 235.189 223.806 234.684 223.806 233.816V233.586C223.806 232.719 224.421 232.214 225.486 232.214C226.551 232.214 227.165 232.719 227.165 233.586V233.816C227.165 234.684 226.551 235.189 225.486 235.189ZM225.486 231.445C224.53 231.445 224.014 231.017 224.014 230.237V230.073C224.014 229.293 224.53 228.865 225.486 228.865C226.441 228.865 226.957 229.293 226.957 230.073V230.237C226.957 231.017 226.441 231.445 225.486 231.445Z" fill="#263238"/>
<path d="M260.779 231.794C260.779 229.972 259.802 228.852 258.21 228.852C256.673 228.852 255.663 229.884 255.663 231.388C255.663 232.837 256.607 233.748 257.924 233.748C258.858 233.748 259.407 233.276 259.769 232.65L259.824 232.672C259.407 234.451 258.495 235.45 256.86 236.646H258.045C259.275 235.845 260.779 234.067 260.779 231.794ZM258.221 232.969C257.211 232.969 256.618 232.387 256.618 231.355V231.267C256.618 230.235 257.211 229.653 258.221 229.653C259.231 229.653 259.824 230.235 259.824 231.267V231.355C259.824 232.387 259.231 232.969 258.221 232.969ZM265.181 236.778C266.718 236.778 267.728 235.746 267.728 234.242C267.728 232.793 266.784 231.882 265.466 231.882C264.533 231.882 263.984 232.354 263.622 232.98L263.567 232.958C263.984 231.179 264.895 230.18 266.531 228.983H265.345C264.116 229.785 262.612 231.563 262.612 233.836C262.612 235.658 263.589 236.778 265.181 236.778ZM265.17 235.977C264.16 235.977 263.567 235.395 263.567 234.363V234.275C263.567 233.243 264.16 232.661 265.17 232.661C266.18 232.661 266.773 233.243 266.773 234.275V234.363C266.773 235.395 266.18 235.977 265.17 235.977Z" fill="#263238"/>
<path d="M300.616 236.19V235.378H298.64V228.527H297.202L295.171 230.427L295.709 231.009L297.641 229.208H297.718V235.378H295.577V236.19H300.616ZM306.555 236.19V234.686H307.664V233.918H306.555V228.527H305.183L301.977 233.874V234.686H305.677V236.19H306.555ZM305.622 229.241H305.677V233.918H302.844L305.622 229.241ZM313.504 236.19V234.686H314.613V233.918H313.504V228.527H312.132L308.926 233.874V234.686H312.626V236.19H313.504ZM312.571 229.241H312.626V233.918H309.793L312.571 229.241Z" fill="#263238"/>
<path d="M345.651 234.994V234.182H343.675V227.331H342.237L340.206 229.23L340.744 229.812L342.676 228.012H342.753V234.182H340.612V234.994H345.651ZM349.899 235.126C351.436 235.126 352.446 234.094 352.446 232.59C352.446 231.141 351.502 230.229 350.185 230.229C349.252 230.229 348.703 230.702 348.34 231.327L348.286 231.305C348.703 229.527 349.614 228.528 351.25 227.331H350.064C348.834 228.133 347.33 229.911 347.33 232.184C347.33 234.006 348.307 235.126 349.899 235.126ZM349.888 234.324C348.878 234.324 348.286 233.743 348.286 232.711V232.623C348.286 231.591 348.878 231.009 349.888 231.009C350.898 231.009 351.491 231.591 351.491 232.623V232.711C351.491 233.743 350.898 234.324 349.888 234.324ZM356.837 235.126C358.583 235.126 359.494 234.171 359.494 232.908C359.494 231.865 358.868 231.261 357.946 231.009V230.921C358.747 230.647 359.263 229.999 359.263 229.121C359.263 227.957 358.363 227.199 356.837 227.199C355.311 227.199 354.411 227.957 354.411 229.121C354.411 229.999 354.927 230.647 355.728 230.921V231.009C354.806 231.261 354.18 231.865 354.18 232.908C354.18 234.171 355.092 235.126 356.837 235.126ZM356.837 234.324C355.772 234.324 355.157 233.819 355.157 232.952V232.722C355.157 231.854 355.772 231.349 356.837 231.349C357.902 231.349 358.517 231.854 358.517 232.722V232.952C358.517 233.819 357.902 234.324 356.837 234.324ZM356.837 230.581C355.882 230.581 355.366 230.153 355.366 229.373V229.208C355.366 228.429 355.882 228.001 356.837 228.001C357.792 228.001 358.308 228.429 358.308 229.208V229.373C358.308 230.153 357.792 230.581 356.837 230.581Z" fill="#263238"/>
<path d="M388.31 231.718V232.52H389.21C390.286 232.52 390.857 233.036 390.857 233.936V234.024C390.857 234.924 390.286 235.44 389.21 235.44C388.277 235.44 387.827 235.034 387.432 234.43L386.74 234.957C387.212 235.616 387.893 236.264 389.221 236.264C390.78 236.264 391.823 235.352 391.823 234.035C391.823 232.882 391.033 232.267 390.209 232.103V232.059C391.022 231.85 391.68 231.257 391.68 230.269C391.68 229.029 390.648 228.337 389.353 228.337C388.123 228.337 387.454 228.974 387.069 229.589L387.75 230.116C388.068 229.534 388.54 229.16 389.331 229.16C390.143 229.16 390.703 229.567 390.703 230.368V230.445C390.703 231.181 390.176 231.718 389.144 231.718H388.31ZM399.079 235.319H395.05L397.114 233.464C398.091 232.586 398.794 231.751 398.794 230.566C398.794 229.259 397.937 228.337 396.444 228.337C394.962 228.337 394.282 229.237 393.985 230.138L394.809 230.456C395.017 229.731 395.456 229.16 396.4 229.16C397.345 229.16 397.817 229.742 397.817 230.588V230.719C397.817 231.455 397.268 232.223 396.554 232.882L394.051 235.188V236.132H399.079V235.319Z" fill="#263238"/>
<path d="M431.814 234.2H427.785L429.849 232.345C430.826 231.467 431.529 230.632 431.529 229.447C431.529 228.14 430.673 227.218 429.18 227.218C427.698 227.218 427.017 228.118 426.72 229.018L427.544 229.337C427.752 228.612 428.192 228.041 429.136 228.041C430.08 228.041 430.552 228.623 430.552 229.469V229.6C430.552 230.336 430.003 231.104 429.289 231.763L426.786 234.069V235.013H431.814V234.2ZM438.379 227.35H434.273L433.999 231.565L434.778 231.675C435.096 231.324 435.448 231.027 436.15 231.027C437.193 231.027 437.753 231.609 437.753 232.619V232.729C437.753 233.739 437.193 234.321 436.15 234.321C435.228 234.321 434.844 233.915 434.449 233.311L433.757 233.838C434.218 234.497 434.877 235.144 436.15 235.144C437.764 235.144 438.73 234.101 438.73 232.608C438.73 231.126 437.764 230.237 436.447 230.237C435.645 230.237 435.239 230.566 434.877 231.082H434.8L435.02 228.162H438.379V227.35ZM443.165 235.144C444.702 235.144 445.712 234.112 445.712 232.608C445.712 231.159 444.768 230.248 443.45 230.248C442.517 230.248 441.968 230.72 441.606 231.346L441.551 231.324C441.968 229.545 442.88 228.546 444.515 227.35H443.33C442.1 228.151 440.596 229.93 440.596 232.202C440.596 234.025 441.573 235.144 443.165 235.144ZM443.154 234.343C442.144 234.343 441.551 233.761 441.551 232.729V232.641C441.551 231.609 442.144 231.027 443.154 231.027C444.164 231.027 444.757 231.609 444.757 232.641V232.729C444.757 233.761 444.164 234.343 443.154 234.343Z" fill="#263238"/>
<path d="M15.5277 33.3564H16.7586V24.5296H16.8337L17.7194 26.286L20.2263 30.8495L22.7333 26.286L23.6189 24.5296H23.694V33.3564H24.9249V22.8783H23.3037L20.2864 28.5227H20.2113L17.209 22.8783H15.5277V33.3564ZM30.9149 33.5366C32.3711 33.5366 33.4819 32.816 33.9773 31.7652L33.1216 31.1497C32.7163 32.0054 31.9657 32.4858 30.99 32.4858C29.5489 32.4858 28.6932 31.48 28.6932 30.144V29.7837H34.2625V29.2132C34.2625 27.0215 32.9865 25.4303 30.9149 25.4303C28.8133 25.4303 27.4322 27.0215 27.4322 29.4834C27.4322 31.9454 28.8133 33.5366 30.9149 33.5366ZM30.9149 26.4361C32.1459 26.4361 32.9715 27.3518 32.9715 28.7179V28.883H28.6932V28.7779C28.6932 27.4269 29.6089 26.4361 30.9149 26.4361ZM37.8552 33.3564V27.9823C37.8552 26.9915 38.7859 26.5111 39.7467 26.5111C40.9026 26.5111 41.5031 27.2167 41.5031 28.5978V33.3564H42.704V28.3876C42.704 26.5111 41.6982 25.4303 40.107 25.4303C38.9511 25.4303 38.2906 26.0008 37.9153 26.8714H37.8552V25.6104H36.6543V33.3564H37.8552ZM48.8116 33.3564V32.3056H47.2354V26.6613H48.9317V25.6104H47.2354V23.4638H46.1545V24.9049C46.1545 25.4303 45.9894 25.6104 45.479 25.6104H44.7585V26.6613H46.0345V32.0805C46.0345 32.831 46.4848 33.3564 47.3104 33.3564H48.8116ZM54.1434 33.5366C56.215 33.5366 57.6411 31.9454 57.6411 29.4834C57.6411 27.0215 56.215 25.4303 54.1434 25.4303C52.0718 25.4303 50.6457 27.0215 50.6457 29.4834C50.6457 31.9454 52.0718 33.5366 54.1434 33.5366ZM54.1434 32.4708C52.8524 32.4708 51.9367 31.6751 51.9367 30.0389V28.928C51.9367 27.2918 52.8524 26.4961 54.1434 26.4961C55.4344 26.4961 56.3501 27.2918 56.3501 28.928V30.0389C56.3501 31.6751 55.4344 32.4708 54.1434 32.4708ZM61.23 33.3564V28.1024C61.23 27.3668 62.0106 26.8114 63.3016 26.8114H64.0071V25.6104H63.5418C62.2808 25.6104 61.5752 26.301 61.305 27.0366H61.23V25.6104H60.029V33.3564H61.23ZM73.0218 33.3564L75.7539 25.6104H74.598L73.217 29.4534L72.3763 32.0955H72.3013L71.4606 29.4534L70.1096 25.6104H68.9086L71.6257 33.3564H73.0218ZM80.0426 33.5366C81.8139 33.5366 82.9098 32.6209 82.9098 31.1197C82.9098 29.9488 82.2493 29.1982 80.538 28.943L79.9375 28.853C78.9767 28.7028 78.4513 28.4026 78.4513 27.652C78.4513 26.9165 78.9767 26.4511 79.9675 26.4511C80.9583 26.4511 81.6188 26.9165 81.9641 27.3968L82.7597 26.6763C82.1292 25.8957 81.3036 25.4303 80.0576 25.4303C78.4814 25.4303 77.2954 26.1809 77.2954 27.7121C77.2954 29.1532 78.3613 29.7386 79.7874 29.9488L80.4029 30.0389C81.4236 30.189 81.7539 30.6544 81.7539 31.2548C81.7539 32.0504 81.1534 32.5158 80.1326 32.5158C79.1569 32.5158 78.4363 32.0805 77.8359 31.3299L76.9802 32.0204C77.6707 32.9361 78.6165 33.5366 80.0426 33.5366ZM92.4667 33.5366C94.7184 33.5366 96.0695 32.3056 96.0695 30.3841C96.0695 28.8229 95.1838 27.9222 93.1422 27.4569L92.2865 27.2617C90.9655 26.9615 90.32 26.5111 90.32 25.5204C90.32 24.3945 91.1457 23.8091 92.4817 23.8091C93.6976 23.8091 94.4933 24.3044 95.0637 25.1001L96.0094 24.4095C95.2288 23.2987 94.118 22.6982 92.5417 22.6982C90.4852 22.6982 89.0741 23.704 89.0741 25.5654C89.0741 27.1717 90.1249 28.0123 92.0313 28.4476L92.887 28.6428C94.2681 28.958 94.8235 29.4534 94.8235 30.4442C94.8235 31.6451 94.0129 32.4257 92.5117 32.4257C91.2958 32.4257 90.4251 31.9003 89.6895 30.9246L88.7588 31.7052C89.5995 32.8461 90.7854 33.5366 92.4667 33.5366ZM101.452 33.5366C102.908 33.5366 104.019 32.816 104.514 31.7652L103.659 31.1497C103.253 32.0054 102.503 32.4858 101.527 32.4858C100.086 32.4858 99.2302 31.48 99.2302 30.144V29.7837H104.8V29.2132C104.8 27.0215 103.524 25.4303 101.452 25.4303C99.3503 25.4303 97.9693 27.0215 97.9693 29.4834C97.9693 31.9454 99.3503 33.5366 101.452 33.5366ZM101.452 26.4361C102.683 26.4361 103.509 27.3518 103.509 28.7179V28.883H99.2302V28.7779C99.2302 27.4269 100.146 26.4361 101.452 26.4361ZM110.074 33.5366C111.545 33.5366 112.55 32.816 113.046 31.7052L112.175 31.1197C111.755 32.0054 111.049 32.4708 110.074 32.4708C108.647 32.4708 107.912 31.495 107.912 30.144V28.8229C107.912 27.4719 108.647 26.4961 110.074 26.4961C111.019 26.4961 111.68 26.9615 111.965 27.7571L112.971 27.2467C112.52 26.1809 111.605 25.4303 110.074 25.4303C107.897 25.4303 106.621 27.0065 106.621 29.4834C106.621 31.9604 107.897 33.5366 110.074 33.5366ZM118.366 33.3564V32.3056H116.79V26.6613H118.487V25.6104H116.79V23.4638H115.709V24.9049C115.709 25.4303 115.544 25.6104 115.034 25.6104H114.313V26.6613H115.589V32.0805C115.589 32.831 116.04 33.3564 116.865 33.3564H118.366ZM123.698 33.5366C125.77 33.5366 127.196 31.9454 127.196 29.4834C127.196 27.0215 125.77 25.4303 123.698 25.4303C121.627 25.4303 120.201 27.0215 120.201 29.4834C120.201 31.9454 121.627 33.5366 123.698 33.5366ZM123.698 32.4708C122.407 32.4708 121.492 31.6751 121.492 30.0389V28.928C121.492 27.2918 122.407 26.4961 123.698 26.4961C124.989 26.4961 125.905 27.2918 125.905 28.928V30.0389C125.905 31.6751 124.989 32.4708 123.698 32.4708ZM130.785 33.3564V28.1024C130.785 27.3668 131.565 26.8114 132.856 26.8114H133.562V25.6104H133.097C131.836 25.6104 131.13 26.301 130.86 27.0366H130.785V25.6104H129.584V33.3564H130.785ZM137.836 33.5366C139.607 33.5366 140.703 32.6209 140.703 31.1197C140.703 29.9488 140.042 29.1982 138.331 28.943L137.73 28.853C136.77 28.7028 136.244 28.4026 136.244 27.652C136.244 26.9165 136.77 26.4511 137.76 26.4511C138.751 26.4511 139.412 26.9165 139.757 27.3968L140.553 26.6763C139.922 25.8957 139.097 25.4303 137.851 25.4303C136.274 25.4303 135.088 26.1809 135.088 27.7121C135.088 29.1532 136.154 29.7386 137.58 29.9488L138.196 30.0389C139.217 30.189 139.547 30.6544 139.547 31.2548C139.547 32.0504 138.946 32.5158 137.926 32.5158C136.95 32.5158 136.229 32.0805 135.629 31.3299L134.773 32.0204C135.464 32.9361 136.409 33.5366 137.836 33.5366Z" fill="#263238"/>
<path d="M130.213 144.546L129.494 144.546L129.494 147.866L127.145 147.866L127.145 144.74L126.426 144.74L126.426 147.866L124.154 147.866L124.154 144.546L123.436 144.546L123.436 148.682L130.213 148.682L130.213 144.546ZM130.213 142.055L126.737 142.055C126.096 142.055 125.785 141.453 125.785 140.832C125.785 140.084 126.242 139.696 127.135 139.696L130.213 139.696L130.213 138.919L126.999 138.919C125.785 138.919 125.086 139.569 125.086 140.599C125.086 141.346 125.455 141.774 126.018 142.016L126.018 142.055L125.203 142.055L125.203 142.832L130.213 142.832L130.213 142.055ZM130.213 135.112L125.203 133.345L125.203 134.093L127.688 134.986L129.397 135.53L129.397 135.578L127.688 136.122L125.203 136.996L125.203 137.773L130.213 136.015L130.213 135.112ZM124.028 131.688C124.028 131.358 123.853 131.212 123.591 131.212L123.465 131.212C123.203 131.212 123.028 131.358 123.028 131.688C123.028 132.018 123.203 132.164 123.465 132.164L123.591 132.164C123.853 132.164 124.028 132.018 124.028 131.688ZM130.213 132.076L130.213 131.299L125.203 131.299L125.203 132.076L130.213 132.076ZM130.213 128.605L126.815 128.605C126.339 128.605 125.98 128.1 125.98 127.265L125.98 126.809L125.203 126.809L125.203 127.11C125.203 127.925 125.649 128.382 126.125 128.556L126.125 128.605L125.203 128.605L125.203 129.382L130.213 129.382L130.213 128.605ZM130.329 123.704C130.329 122.364 129.3 121.441 127.708 121.441C126.115 121.441 125.086 122.364 125.086 123.704C125.086 125.044 126.115 125.966 127.708 125.966C129.3 125.966 130.329 125.044 130.329 123.704ZM129.64 123.704C129.64 124.539 129.125 125.131 128.067 125.131L127.349 125.131C126.29 125.131 125.776 124.539 125.776 123.704C125.776 122.869 126.29 122.276 127.349 122.276L128.067 122.276C129.125 122.276 129.64 122.869 129.64 123.704ZM130.213 119.12L126.737 119.12C126.096 119.12 125.785 118.518 125.785 117.897C125.785 117.149 126.242 116.761 127.135 116.761L130.213 116.761L130.213 115.984L126.999 115.984C125.785 115.984 125.086 116.634 125.086 117.664C125.086 118.411 125.455 118.838 126.018 119.081L126.018 119.12L125.203 119.12L125.203 119.897L130.213 119.897L130.213 119.12ZM130.213 113.334L126.737 113.334C126.096 113.334 125.785 112.752 125.785 112.14C125.785 111.402 126.242 111.062 127.135 111.062L130.213 111.062L130.213 110.286L126.737 110.286C126.096 110.286 125.785 109.722 125.785 109.111C125.785 108.353 126.251 108.014 127.135 108.014L130.213 108.014L130.213 107.237L126.999 107.237C125.785 107.237 125.086 107.848 125.086 108.868C125.086 109.722 125.562 110.208 126.106 110.392L126.106 110.412C125.387 110.684 125.086 111.286 125.086 111.946C125.086 112.723 125.504 113.072 126.018 113.296L126.018 113.334L125.203 113.334L125.203 114.111L130.213 114.111L130.213 113.334ZM130.329 103.484C130.329 102.542 129.863 101.823 129.184 101.503L128.786 102.056C129.339 102.318 129.65 102.804 129.65 103.435C129.65 104.367 128.999 104.921 128.135 104.921L127.902 104.921L127.902 101.318L127.533 101.318C126.115 101.318 125.086 102.144 125.086 103.484C125.086 104.843 126.115 105.736 127.708 105.736C129.3 105.736 130.329 104.843 130.329 103.484ZM125.737 103.484C125.737 102.687 126.329 102.153 127.213 102.153L127.319 102.153L127.319 104.921L127.251 104.921C126.378 104.921 125.737 104.328 125.737 103.484ZM130.213 98.9946L126.737 98.9946C126.096 98.9946 125.785 98.3926 125.785 97.7711C125.785 97.0235 126.242 96.6351 127.135 96.6351L130.213 96.6351L130.213 95.8584L126.999 95.8584C125.785 95.8584 125.086 96.5089 125.086 97.5381C125.086 98.2858 125.455 98.713 126.018 98.9557L126.018 98.9946L125.203 98.9946L125.203 99.7713L130.213 99.7713L130.213 98.9946ZM130.213 91.9079L129.533 91.9079L129.533 92.9274L125.882 92.9274L125.882 91.8302L125.203 91.8302L125.203 92.9274L123.814 92.9274L123.814 93.6265L124.746 93.6265C125.086 93.6265 125.203 93.7333 125.203 94.0634L125.203 94.5295L125.882 94.5295L125.882 93.7042L129.388 93.7042C129.873 93.7042 130.213 93.4129 130.213 92.8789L130.213 91.9079Z" fill="#263238"/>
<path d="M173.371 122.86L173.371 122.044L166.594 122.044L166.594 122.86L169.585 122.86L169.585 126.287L166.594 126.287L166.594 127.103L173.371 127.103L173.371 126.287L170.303 126.287L170.303 122.86L173.371 122.86ZM173.488 118.165C173.488 117.223 173.022 116.505 172.342 116.184L171.944 116.738C172.497 117 172.808 117.485 172.808 118.116C172.808 119.048 172.158 119.602 171.293 119.602L171.06 119.602L171.06 116L170.691 116C169.274 116 168.245 116.825 168.245 118.165C168.245 119.524 169.274 120.418 170.866 120.418C172.459 120.418 173.488 119.524 173.488 118.165ZM168.895 118.165C168.895 117.369 169.487 116.835 170.371 116.835L170.478 116.835L170.478 119.602L170.41 119.602C169.536 119.602 168.895 119.01 168.895 118.165ZM173.371 110.375L172.692 110.375L172.692 110.947L169.934 110.947C168.876 110.947 168.245 111.666 168.245 112.87C168.245 113.773 168.691 114.375 169.225 114.647L169.662 114.181C169.206 113.909 168.915 113.511 168.915 112.909C168.915 112.113 169.303 111.724 170.012 111.724L170.507 111.724L170.507 112.715C170.507 114.171 171.031 114.851 171.973 114.851C172.905 114.851 173.488 114.229 173.488 113.171C173.488 112.472 173.167 111.938 172.556 111.724L172.556 111.676C173.022 111.617 173.371 111.384 173.371 110.812L173.371 110.375ZM172.828 113.045C172.828 113.647 172.546 114.035 172.051 114.035L171.847 114.035C171.361 114.035 171.09 113.637 171.09 112.753L171.09 111.724L171.915 111.724C172.43 111.724 172.828 112.278 172.828 113.045ZM173.371 107.484L172.692 107.484L172.692 108.222L166.186 108.222L166.186 108.999L172.565 108.999C173.032 108.999 173.371 108.708 173.371 108.174L173.371 107.484ZM173.371 104.056L172.692 104.056L172.692 105.076L169.041 105.076L169.041 103.978L168.361 103.978L168.361 105.076L166.973 105.076L166.973 105.775L167.905 105.775C168.245 105.775 168.361 105.881 168.361 106.212L168.361 106.678L169.041 106.678L169.041 105.852L172.546 105.852C173.032 105.852 173.371 105.561 173.371 105.027L173.371 104.056ZM173.371 102.463L173.371 101.686L169.895 101.686C169.254 101.686 168.944 101.084 168.944 100.463C168.944 99.715 169.4 99.3266 170.293 99.3266L173.371 99.3266L173.371 98.5498L170.157 98.5498C168.944 98.5498 168.245 99.2004 168.245 100.23C168.245 100.977 168.614 101.404 169.177 101.647L169.177 101.686L166.186 101.686L166.186 102.463L173.371 102.463Z" fill="#263238"/>
<path d="M219.344 115.461L218.626 115.461L218.626 118.781L216.276 118.781L216.276 115.655L215.557 115.655L215.557 118.781L213.285 118.781L213.285 115.461L212.567 115.461L212.567 119.597L219.344 119.597L219.344 115.461ZM219.344 110.638L219.344 109.861L212.159 109.861L212.159 110.638L215.15 110.638L215.15 110.676C214.519 110.939 214.218 111.453 214.218 112.143C214.218 113.395 215.237 114.182 216.839 114.182C218.441 114.182 219.461 113.395 219.461 112.143C219.461 111.453 219.15 110.977 218.529 110.676L218.529 110.638L219.344 110.638ZM218.762 111.929C218.762 112.803 218.16 113.347 217.266 113.347L216.412 113.347C215.519 113.347 214.917 112.803 214.917 111.929C214.917 111.22 215.324 110.638 215.878 110.638L217.742 110.638C218.393 110.638 218.762 111.22 218.762 111.929ZM219.344 104.855L219.344 104.078L214.334 104.078L214.334 104.855L217.8 104.855C218.461 104.855 218.762 105.457 218.762 106.068C218.762 106.816 218.305 107.214 217.412 107.214L214.334 107.214L214.334 107.991L217.548 107.991C218.762 107.991 219.461 107.331 219.461 106.301C219.461 105.466 219.004 105.088 218.529 104.894L218.529 104.855L219.344 104.855ZM219.461 100.293C219.461 99.341 218.995 98.6905 218.276 98.3701L217.898 98.9332C218.47 99.2051 218.771 99.6615 218.771 100.293C218.771 101.215 218.14 101.691 217.266 101.691L216.412 101.691C215.538 101.691 214.907 101.215 214.907 100.293C214.907 99.6809 215.208 99.2537 215.723 99.0692L215.392 98.4186C214.703 98.7099 214.218 99.3022 214.218 100.293C214.218 101.7 215.237 102.526 216.839 102.526C218.441 102.526 219.461 101.7 219.461 100.293ZM219.344 92.9285L218.665 92.9285L218.665 93.5014L215.907 93.5014C214.849 93.5014 214.218 94.2199 214.218 95.4239C214.218 96.3269 214.664 96.9289 215.198 97.2008L215.635 96.7347C215.179 96.4628 214.888 96.0647 214.888 95.4627C214.888 94.6666 215.276 94.2782 215.985 94.2782L216.48 94.2782L216.48 95.2686C216.48 96.725 217.004 97.4047 217.946 97.4047C218.878 97.4047 219.461 96.7832 219.461 95.7249C219.461 95.0258 219.14 94.4918 218.529 94.2782L218.529 94.2296C218.995 94.1714 219.344 93.9383 219.344 93.3655L219.344 92.9285ZM218.8 95.5987C218.8 96.2007 218.519 96.5891 218.024 96.5891L217.82 96.5891C217.334 96.5891 217.062 96.191 217.062 95.3074L217.062 94.2782L217.888 94.2782C218.402 94.2782 218.8 94.8316 218.8 95.5987ZM219.344 89.475L218.665 89.475L218.665 90.4945L215.014 90.4945L215.014 89.3974L214.334 89.3974L214.334 90.4945L212.946 90.4945L212.946 91.1936L213.878 91.1936C214.218 91.1936 214.334 91.3004 214.334 91.6306L214.334 92.0966L215.014 92.0966L215.014 91.2713L218.519 91.2713C219.004 91.2713 219.344 90.98 219.344 90.446L219.344 89.475ZM213.159 87.4934C213.159 87.1633 212.984 87.0177 212.722 87.0177L212.596 87.0177C212.334 87.0177 212.159 87.1633 212.159 87.4934C212.159 87.8236 212.334 87.9692 212.596 87.9692L212.722 87.9692C212.984 87.9692 213.159 87.8236 213.159 87.4934ZM219.344 87.8818L219.344 87.1051L214.334 87.1051L214.334 87.8818L219.344 87.8818ZM219.461 83.294C219.461 81.9541 218.432 81.0317 216.839 81.0317C215.247 81.0317 214.218 81.9541 214.218 83.294C214.218 84.634 215.247 85.5564 216.839 85.5564C218.432 85.5564 219.461 84.634 219.461 83.294ZM218.771 83.294C218.771 84.1291 218.257 84.7214 217.198 84.7214L216.48 84.7214C215.422 84.7214 214.907 84.1291 214.907 83.294C214.907 82.459 215.422 81.8667 216.48 81.8667L217.198 81.8667C218.257 81.8667 218.771 82.459 218.771 83.294ZM219.344 78.7104L215.868 78.7104C215.227 78.7104 214.917 78.1084 214.917 77.487C214.917 76.7394 215.373 76.351 216.266 76.351L219.344 76.351L219.344 75.5742L216.13 75.5742C214.917 75.5742 214.218 76.2248 214.218 77.254C214.218 78.0016 214.587 78.4289 215.15 78.6716L215.15 78.7104L214.334 78.7104L214.334 79.4872L219.344 79.4872L219.344 78.7104Z" fill="#263238"/>
<path d="M265.317 161.94L262.249 161.94L262.249 158.998L261.531 158.998L261.531 161.94L259.259 161.94L259.259 158.716L258.54 158.716L258.54 162.755L265.317 162.755L265.317 161.94ZM259.132 156.754C259.132 156.424 258.958 156.278 258.695 156.278L258.569 156.278C258.307 156.278 258.132 156.424 258.132 156.754C258.132 157.084 258.307 157.23 258.569 157.23L258.695 157.23C258.958 157.23 259.132 157.084 259.132 156.754ZM265.317 157.142L265.317 156.365L260.307 156.365L260.307 157.142L265.317 157.142ZM265.434 152.943C265.434 151.797 264.842 151.088 263.871 151.088C263.113 151.088 262.628 151.515 262.463 152.622L262.405 153.011C262.307 153.632 262.113 153.972 261.628 153.972C261.152 153.972 260.851 153.632 260.851 152.991C260.851 152.35 261.152 151.923 261.463 151.7L260.997 151.185C260.492 151.593 260.191 152.127 260.191 152.933C260.191 153.953 260.676 154.72 261.667 154.72C262.599 154.72 262.977 154.03 263.113 153.108L263.172 152.71C263.269 152.049 263.57 151.836 263.958 151.836C264.473 151.836 264.774 152.224 264.774 152.884C264.774 153.516 264.492 153.982 264.007 154.37L264.453 154.924C265.046 154.477 265.434 153.865 265.434 152.943ZM265.317 149.449L265.317 148.672L261.841 148.672C261.201 148.672 260.89 148.07 260.89 147.449C260.89 146.701 261.346 146.313 262.239 146.313L265.317 146.313L265.317 145.536L262.104 145.536C260.89 145.536 260.191 146.187 260.191 147.216C260.191 147.964 260.56 148.391 261.123 148.634L261.123 148.672L258.132 148.672L258.132 149.449L265.317 149.449ZM265.434 141.78C265.434 140.838 264.968 140.12 264.288 139.799L263.89 140.353C264.444 140.615 264.754 141.1 264.754 141.731C264.754 142.664 264.104 143.217 263.24 143.217L263.006 143.217L263.006 139.615L262.638 139.615C261.22 139.615 260.191 140.44 260.191 141.78C260.191 143.139 261.22 144.033 262.812 144.033C264.405 144.033 265.434 143.139 265.434 141.78ZM260.841 141.78C260.841 140.984 261.434 140.45 262.317 140.45L262.424 140.45L262.424 143.217L262.356 143.217C261.482 143.217 260.841 142.625 260.841 141.78ZM265.317 137.291L261.919 137.291C261.443 137.291 261.084 136.786 261.084 135.951L261.084 135.495L260.307 135.495L260.307 135.796C260.307 136.611 260.754 137.068 261.23 137.242L261.23 137.291L260.307 137.291L260.307 138.068L265.317 138.068L265.317 137.291ZM259.132 133.847C259.132 133.517 258.958 133.371 258.695 133.371L258.569 133.371C258.307 133.371 258.132 133.517 258.132 133.847C258.132 134.177 258.307 134.323 258.569 134.323L258.695 134.323C258.958 134.323 259.132 134.177 259.132 133.847ZM265.317 134.235L265.317 133.459L260.307 133.459L260.307 134.235L265.317 134.235ZM265.434 129.657C265.434 128.716 264.968 127.997 264.288 127.677L263.89 128.23C264.444 128.492 264.754 128.978 264.754 129.609C264.754 130.541 264.104 131.094 263.24 131.094L263.006 131.094L263.006 127.492L262.638 127.492C261.22 127.492 260.191 128.317 260.191 129.657C260.191 131.017 261.22 131.91 262.812 131.91C264.405 131.91 265.434 131.017 265.434 129.657ZM260.841 129.657C260.841 128.861 261.434 128.327 262.317 128.327L262.424 128.327L262.424 131.094L262.356 131.094C261.482 131.094 260.841 130.502 260.841 129.657ZM265.434 124.44C265.434 123.294 264.842 122.586 263.871 122.586C263.113 122.586 262.628 123.013 262.463 124.12L262.405 124.508C262.307 125.13 262.113 125.469 261.628 125.469C261.152 125.469 260.851 125.13 260.851 124.489C260.851 123.848 261.152 123.421 261.463 123.197L260.997 122.683C260.492 123.091 260.191 123.625 260.191 124.43C260.191 125.45 260.676 126.217 261.667 126.217C262.599 126.217 262.977 125.528 263.113 124.605L263.172 124.207C263.269 123.547 263.57 123.333 263.958 123.333C264.473 123.333 264.774 123.722 264.774 124.382C264.774 125.013 264.492 125.479 264.007 125.867L264.453 126.421C265.046 125.974 265.434 125.363 265.434 124.44Z" fill="#263238"/>
<path d="M305.661 143.052L305.661 142.256L299.952 142.256L299.952 142.207L301.088 141.634L304.04 140.013L301.088 138.391L299.952 137.819L299.952 137.77L305.661 137.77L305.661 136.974L298.884 136.974L298.884 138.023L302.535 139.974L302.535 140.023L298.884 141.965L298.884 143.052L305.661 143.052ZM305.661 130.905L304.981 130.905L304.981 131.478L302.224 131.478C301.166 131.478 300.534 132.197 300.534 133.401C300.534 134.304 300.981 134.906 301.515 135.177L301.952 134.711C301.496 134.439 301.204 134.041 301.204 133.439C301.204 132.643 301.593 132.255 302.302 132.255L302.797 132.255L302.797 133.245C302.797 134.702 303.321 135.381 304.263 135.381C305.195 135.381 305.778 134.76 305.778 133.702C305.778 133.002 305.457 132.468 304.846 132.255L304.846 132.206C305.312 132.148 305.661 131.915 305.661 131.342L305.661 130.905ZM305.117 133.575C305.117 134.177 304.836 134.566 304.341 134.566L304.137 134.566C303.651 134.566 303.379 134.168 303.379 133.284L303.379 132.255L304.205 132.255C304.719 132.255 305.117 132.808 305.117 133.575ZM305.661 128.753L302.185 128.753C301.544 128.753 301.234 128.151 301.234 127.529C301.234 126.782 301.69 126.393 302.583 126.393L305.661 126.393L305.661 125.617L302.447 125.617C301.234 125.617 300.534 126.267 300.534 127.296C300.534 128.044 300.903 128.471 301.467 128.714L301.467 128.753L300.651 128.753L300.651 129.53L305.661 129.53L305.661 128.753ZM305.661 120.656L305.661 119.88L300.651 119.88L300.651 120.656L304.117 120.656C304.778 120.656 305.079 121.258 305.079 121.87C305.079 122.618 304.622 123.016 303.729 123.016L300.651 123.016L300.651 123.792L303.865 123.792C305.079 123.792 305.778 123.132 305.778 122.103C305.778 121.268 305.321 120.889 304.846 120.695L304.846 120.656L305.661 120.656ZM305.661 117.687L305.661 116.91L301.331 116.91L301.331 115.832L300.651 115.832L300.651 116.91L299.156 116.91L299.156 115.832L298.476 115.832L298.476 116.589C298.476 117.327 298.952 117.687 299.641 117.687L300.651 117.687L300.651 118.502L301.331 118.502L301.331 117.687L305.661 117.687ZM305.661 110.465L304.981 110.465L304.981 111.038L302.224 111.038C301.166 111.038 300.534 111.757 300.534 112.961C300.534 113.864 300.981 114.466 301.515 114.738L301.952 114.271C301.496 114 301.204 113.602 301.204 113C301.204 112.203 301.593 111.815 302.302 111.815L302.797 111.815L302.797 112.805C302.797 114.262 303.321 114.941 304.263 114.941C305.195 114.941 305.778 114.32 305.778 113.262C305.778 112.563 305.457 112.029 304.846 111.815L304.846 111.766C305.312 111.708 305.661 111.475 305.661 110.902L305.661 110.465ZM305.117 113.135C305.117 113.737 304.836 114.126 304.341 114.126L304.137 114.126C303.651 114.126 303.379 113.728 303.379 112.844L303.379 111.815L304.205 111.815C304.719 111.815 305.117 112.368 305.117 113.135ZM305.778 107.225C305.778 106.274 305.312 105.623 304.593 105.303L304.214 105.866C304.787 106.138 305.088 106.594 305.088 107.225C305.088 108.148 304.457 108.624 303.583 108.624L302.729 108.624C301.855 108.624 301.224 108.148 301.224 107.225C301.224 106.614 301.525 106.186 302.039 106.002L301.709 105.351C301.02 105.643 300.534 106.235 300.534 107.225C300.534 108.633 301.554 109.459 303.156 109.459C304.758 109.459 305.778 108.633 305.778 107.225ZM305.661 101.862L304.981 101.862L304.981 102.881L301.331 102.881L301.331 101.784L300.651 101.784L300.651 102.881L299.263 102.881L299.263 103.58L300.195 103.58C300.534 103.58 300.651 103.687 300.651 104.017L300.651 104.483L301.331 104.483L301.331 103.658L304.836 103.658C305.321 103.658 305.661 103.367 305.661 102.833L305.661 101.862ZM305.661 97.1807L305.661 96.4039L300.651 96.4039L300.651 97.1807L304.117 97.1807C304.778 97.1807 305.079 97.7827 305.079 98.3944C305.079 99.142 304.622 99.5401 303.729 99.5401L300.651 99.5401L300.651 100.317L303.865 100.317C305.079 100.317 305.778 99.6566 305.778 98.6274C305.778 97.7924 305.321 97.4137 304.846 97.2195L304.846 97.1807L305.661 97.1807ZM305.661 93.706L302.263 93.706C301.787 93.706 301.428 93.2011 301.428 92.3661L301.428 91.9097L300.651 91.9097L300.651 92.2107C300.651 93.0264 301.098 93.4827 301.573 93.6575L301.573 93.706L300.651 93.706L300.651 94.4828L305.661 94.4828L305.661 93.706ZM299.476 90.2621C299.476 89.932 299.301 89.7864 299.039 89.7864L298.913 89.7864C298.651 89.7864 298.476 89.932 298.476 90.2621C298.476 90.5923 298.651 90.7379 298.913 90.7379L299.039 90.7379C299.301 90.7379 299.476 90.5923 299.476 90.2621ZM305.661 90.6505L305.661 89.8738L300.651 89.8738L300.651 90.6505L305.661 90.6505ZM305.661 87.1794L302.185 87.1794C301.544 87.1794 301.234 86.5774 301.234 85.9559C301.234 85.2083 301.69 84.8199 302.583 84.8199L305.661 84.8199L305.661 84.0432L302.447 84.0432C301.234 84.0432 300.534 84.6937 300.534 85.7229C300.534 86.4706 300.903 86.8978 301.467 87.1405L301.467 87.1794L300.651 87.1794L300.651 87.9561L305.661 87.9561L305.661 87.1794ZM306.215 77.9469C305.389 77.9469 304.884 78.4809 304.884 79.7237L304.884 80.7918C304.884 81.2482 304.807 81.5589 304.506 81.5589C304.195 81.5589 304.03 81.2287 303.943 80.8986C303.972 80.753 303.991 80.5782 303.991 80.4131C303.991 79.2674 303.282 78.5198 302.263 78.5198C301.729 78.5198 301.282 78.7334 300.971 79.0926L300.651 79.0926L300.651 78.1411L299.971 78.1411L299.971 78.8887C299.971 79.3062 300.253 79.4713 300.641 79.4713L300.729 79.4713C300.602 79.7432 300.534 80.0636 300.534 80.4228C300.534 81.5589 301.243 82.3065 302.263 82.3065C302.962 82.3065 303.515 81.957 303.797 81.3647L303.836 81.3647C303.962 81.8696 304.205 82.2288 304.71 82.2288C305.049 82.2288 305.273 82.0638 305.409 81.7822L305.515 81.7822C305.651 82.2774 305.943 82.5784 306.486 82.5784C307.273 82.5784 307.72 81.9375 307.72 80.3743C307.72 78.7625 307.244 77.9469 306.215 77.9469ZM306.273 78.6751C306.817 78.6751 307.088 79.18 307.088 80.0442L307.088 80.7627C307.088 81.5492 306.729 81.8502 306.292 81.8502C305.982 81.8502 305.758 81.7045 305.613 81.3841L305.613 79.714C305.613 78.9373 305.875 78.6751 306.273 78.6751ZM303.37 80.4131C303.37 81.0734 303.059 81.4909 302.399 81.4909L302.127 81.4909C301.467 81.4909 301.156 81.0734 301.156 80.4131C301.156 79.7529 301.467 79.3354 302.127 79.3354L302.399 79.3354C303.059 79.3354 303.37 79.7529 303.37 80.4131Z" fill="#263238"/>
<path d="M348.82 128.573L342.042 130.942L342.042 131.981L348.82 134.35L348.82 133.525L346.819 132.845L346.819 130.107L348.82 129.427L348.82 128.573ZM346.101 130.311L346.101 132.651L342.8 131.505L342.8 131.456L346.101 130.311ZM349.373 123.037C348.548 123.037 348.043 123.571 348.043 124.814L348.043 125.882C348.043 126.338 347.965 126.649 347.664 126.649C347.353 126.649 347.188 126.319 347.101 125.989C347.13 125.843 347.15 125.668 347.15 125.503C347.15 124.358 346.441 123.61 345.421 123.61C344.887 123.61 344.441 123.824 344.13 124.183L343.809 124.183L343.809 123.231L343.13 123.231L343.13 123.979C343.13 124.396 343.411 124.561 343.8 124.561L343.887 124.561C343.761 124.833 343.693 125.154 343.693 125.513C343.693 126.649 344.402 127.397 345.421 127.397C346.12 127.397 346.674 127.047 346.955 126.455L346.994 126.455C347.12 126.96 347.363 127.319 347.868 127.319C348.208 127.319 348.431 127.154 348.567 126.872L348.674 126.872C348.81 127.368 349.101 127.669 349.645 127.669C350.431 127.669 350.878 127.028 350.878 125.464C350.878 123.853 350.402 123.037 349.373 123.037ZM349.431 123.765C349.975 123.765 350.247 124.27 350.247 125.134L350.247 125.853C350.247 126.639 349.888 126.94 349.451 126.94C349.14 126.94 348.917 126.795 348.771 126.474L348.771 124.804C348.771 124.027 349.033 123.765 349.431 123.765ZM346.528 125.503C346.528 126.164 346.217 126.581 345.557 126.581L345.285 126.581C344.625 126.581 344.314 126.164 344.314 125.503C344.314 124.843 344.625 124.426 345.285 124.426L345.557 124.426C346.217 124.426 346.528 124.843 346.528 125.503ZM348.82 121.087L345.421 121.087C344.945 121.087 344.586 120.582 344.586 119.747L344.586 119.291L343.809 119.291L343.809 119.592C343.809 120.407 344.256 120.864 344.732 121.039L344.732 121.087L343.809 121.087L343.809 121.864L348.82 121.864L348.82 121.087ZM342.635 117.643C342.635 117.313 342.46 117.168 342.198 117.168L342.071 117.168C341.809 117.168 341.634 117.313 341.634 117.643C341.634 117.973 341.809 118.119 342.071 118.119L342.198 118.119C342.46 118.119 342.635 117.973 342.635 117.643ZM348.82 118.032L348.82 117.255L343.809 117.255L343.809 118.032L348.82 118.032ZM348.936 113.473C348.936 112.521 348.47 111.871 347.752 111.551L347.373 112.114C347.946 112.386 348.247 112.842 348.247 113.473C348.247 114.395 347.616 114.871 346.742 114.871L345.887 114.871C345.013 114.871 344.382 114.395 344.382 113.473C344.382 112.861 344.683 112.434 345.198 112.25L344.868 111.599C344.178 111.89 343.693 112.483 343.693 113.473C343.693 114.881 344.712 115.706 346.315 115.706C347.917 115.706 348.936 114.881 348.936 113.473ZM348.82 107.099L348.82 106.323L343.809 106.323L343.809 107.099L347.276 107.099C347.936 107.099 348.237 107.701 348.237 108.313C348.237 109.061 347.781 109.459 346.887 109.459L343.809 109.459L343.809 110.236L347.023 110.236C348.237 110.236 348.936 109.575 348.936 108.546C348.936 107.711 348.48 107.332 348.004 107.138L348.004 107.099L348.82 107.099ZM348.82 102.887L348.14 102.887L348.14 103.625L341.634 103.625L341.634 104.401L348.014 104.401C348.48 104.401 348.82 104.11 348.82 103.576L348.82 102.887ZM348.82 99.4585L348.14 99.4585L348.14 100.478L344.489 100.478L344.489 99.3808L343.809 99.3808L343.809 100.478L342.421 100.478L342.421 101.177L343.353 101.177C343.693 101.177 343.809 101.284 343.809 101.614L343.809 102.08L344.489 102.08L344.489 101.255L347.994 101.255C348.48 101.255 348.82 100.963 348.82 100.429L348.82 99.4585ZM348.82 94.7776L348.82 94.0009L343.809 94.0009L343.809 94.7776L347.276 94.7776C347.936 94.7776 348.237 95.3796 348.237 95.9913C348.237 96.739 347.781 97.1371 346.887 97.1371L343.809 97.1371L343.809 97.9138L347.023 97.9138C348.237 97.9138 348.936 97.2536 348.936 96.2244C348.936 95.3893 348.48 95.0107 348.004 94.8165L348.004 94.7776L348.82 94.7776ZM348.82 91.303L345.421 91.303C344.945 91.303 344.586 90.7981 344.586 89.963L344.586 89.5067L343.809 89.5067L343.809 89.8077C343.809 90.6233 344.256 91.0796 344.732 91.2544L344.732 91.303L343.809 91.303L343.809 92.0797L348.82 92.0797L348.82 91.303ZM348.936 86.4112C348.936 85.4694 348.47 84.7509 347.79 84.4305L347.392 84.9839C347.946 85.2461 348.256 85.7315 348.256 86.3627C348.256 87.2948 347.606 87.8482 346.742 87.8482L346.509 87.8482L346.509 84.246L346.14 84.246C344.722 84.246 343.693 85.0713 343.693 86.4112C343.693 87.7706 344.722 88.6638 346.315 88.6638C347.907 88.6638 348.936 87.7706 348.936 86.4112ZM344.343 86.4112C344.343 85.615 344.936 85.081 345.819 85.081L345.926 85.081L345.926 87.8482L345.858 87.8482C344.984 87.8482 344.343 87.256 344.343 86.4112Z" fill="#263238"/>
<path d="M396.669 183.519L393.601 183.519L393.601 180.577L392.882 180.577L392.882 183.519L390.61 183.519L390.61 180.295L389.892 180.295L389.892 184.334L396.669 184.334L396.669 183.519ZM390.484 178.333C390.484 178.003 390.309 177.857 390.047 177.857L389.921 177.857C389.659 177.857 389.484 178.003 389.484 178.333C389.484 178.663 389.659 178.809 389.921 178.809L390.047 178.809C390.309 178.809 390.484 178.663 390.484 178.333ZM396.669 178.721L396.669 177.944L391.659 177.944L391.659 178.721L396.669 178.721ZM396.786 174.522C396.786 173.376 396.193 172.667 395.222 172.667C394.465 172.667 393.98 173.095 393.815 174.201L393.756 174.59C393.659 175.211 393.465 175.551 392.98 175.551C392.504 175.551 392.203 175.211 392.203 174.57C392.203 173.93 392.504 173.502 392.814 173.279L392.348 172.764C391.844 173.172 391.543 173.706 391.543 174.512C391.543 175.532 392.028 176.299 393.018 176.299C393.951 176.299 394.329 175.609 394.465 174.687L394.523 174.289C394.62 173.629 394.921 173.415 395.31 173.415C395.824 173.415 396.125 173.803 396.125 174.464C396.125 175.095 395.844 175.561 395.358 175.949L395.805 176.503C396.397 176.056 396.786 175.444 396.786 174.522ZM396.669 171.028L396.669 170.252L393.193 170.252C392.552 170.252 392.242 169.65 392.242 169.028C392.242 168.28 392.698 167.892 393.591 167.892L396.669 167.892L396.669 167.115L393.455 167.115C392.242 167.115 391.543 167.766 391.543 168.795C391.543 169.543 391.911 169.97 392.475 170.213L392.475 170.252L389.484 170.252L389.484 171.028L396.669 171.028ZM396.786 163.359C396.786 162.417 396.32 161.699 395.64 161.378L395.242 161.932C395.795 162.194 396.106 162.679 396.106 163.311C396.106 164.243 395.455 164.796 394.591 164.796L394.358 164.796L394.358 161.194L393.989 161.194C392.572 161.194 391.543 162.019 391.543 163.359C391.543 164.718 392.572 165.612 394.164 165.612C395.756 165.612 396.786 164.718 396.786 163.359ZM392.193 163.359C392.193 162.563 392.785 162.029 393.669 162.029L393.776 162.029L393.776 164.796L393.708 164.796C392.834 164.796 392.193 164.204 392.193 163.359ZM396.669 158.87L393.271 158.87C392.795 158.87 392.436 158.365 392.436 157.53L392.436 157.074L391.659 157.074L391.659 157.375C391.659 158.19 392.106 158.647 392.581 158.822L392.581 158.87L391.659 158.87L391.659 159.647L396.669 159.647L396.669 158.87ZM390.484 155.426C390.484 155.096 390.309 154.95 390.047 154.95L389.921 154.95C389.659 154.95 389.484 155.096 389.484 155.426C389.484 155.756 389.659 155.902 389.921 155.902L390.047 155.902C390.309 155.902 390.484 155.756 390.484 155.426ZM396.669 155.815L396.669 155.038L391.659 155.038L391.659 155.815L396.669 155.815ZM396.786 151.236C396.786 150.295 396.32 149.576 395.64 149.256L395.242 149.809C395.795 150.071 396.106 150.557 396.106 151.188C396.106 152.12 395.455 152.674 394.591 152.674L394.358 152.674L394.358 149.071L393.989 149.071C392.572 149.071 391.543 149.897 391.543 151.236C391.543 152.596 392.572 153.489 394.164 153.489C395.756 153.489 396.786 152.596 396.786 151.236ZM392.193 151.236C392.193 150.44 392.785 149.906 393.669 149.906L393.776 149.906L393.776 152.674L393.708 152.674C392.834 152.674 392.193 152.081 392.193 151.236ZM396.786 146.019C396.786 144.874 396.193 144.165 395.222 144.165C394.465 144.165 393.98 144.592 393.815 145.699L393.756 146.087C393.659 146.709 393.465 147.048 392.98 147.048C392.504 147.048 392.203 146.709 392.203 146.068C392.203 145.427 392.504 145 392.814 144.776L392.348 144.262C391.844 144.67 391.543 145.204 391.543 146.01C391.543 147.029 392.028 147.796 393.018 147.796C393.951 147.796 394.329 147.107 394.465 146.184L394.523 145.786C394.62 145.126 394.921 144.912 395.31 144.912C395.824 144.912 396.125 145.301 396.125 145.961C396.125 146.592 395.844 147.058 395.358 147.447L395.805 148C396.397 147.553 396.786 146.942 396.786 146.019Z" fill="#263238"/>
<path d="M439.828 106.91L439.828 106.094L433.05 106.094L433.05 106.91L436.041 106.91L436.041 110.337L433.05 110.337L433.05 111.153L439.828 111.153L439.828 110.337L436.759 110.337L436.759 106.91L439.828 106.91ZM439.944 102.205C439.944 100.865 438.915 99.9426 437.323 99.9426C435.73 99.9426 434.701 100.865 434.701 102.205C434.701 103.545 435.73 104.467 437.323 104.467C438.915 104.467 439.944 103.545 439.944 102.205ZM439.255 102.205C439.255 103.04 438.74 103.632 437.682 103.632L436.963 103.632C435.905 103.632 435.39 103.04 435.39 102.205C435.39 101.37 435.905 100.778 436.963 100.778L437.682 100.778C438.74 100.778 439.255 101.37 439.255 102.205ZM439.828 97.6214L436.429 97.6214C435.954 97.6214 435.594 97.1165 435.594 96.2814L435.594 95.8251L434.817 95.8251L434.817 96.1261C434.817 96.9417 435.264 97.398 435.74 97.5728L435.74 97.6214L434.817 97.6214L434.817 98.3981L439.828 98.3981L439.828 97.6214ZM439.828 92.4501L439.148 92.4501L439.148 93.4696L435.497 93.4696L435.497 92.3724L434.817 92.3724L434.817 93.4696L433.429 93.4696L433.429 94.1687L434.361 94.1687C434.701 94.1687 434.817 94.2755 434.817 94.6056L434.817 95.0717L435.497 95.0717L435.497 94.2464L439.002 94.2464C439.488 94.2464 439.828 93.9551 439.828 93.4211L439.828 92.4501ZM433.643 90.4685C433.643 90.1384 433.468 89.9927 433.206 89.9927L433.079 89.9927C432.817 89.9927 432.643 90.1384 432.643 90.4685C432.643 90.7986 432.817 90.9443 433.079 90.9443L433.206 90.9443C433.468 90.9443 433.643 90.7986 433.643 90.4685ZM439.828 90.8569L439.828 90.0801L434.817 90.0801L434.817 90.8569L439.828 90.8569ZM439.944 86.2982C439.944 85.3467 439.478 84.6961 438.76 84.3757L438.381 84.9389C438.954 85.2108 439.255 85.6671 439.255 86.2982C439.255 87.2206 438.624 87.6964 437.75 87.6964L436.895 87.6964C436.021 87.6964 435.39 87.2206 435.39 86.2982C435.39 85.6865 435.691 85.2593 436.206 85.0748L435.876 84.4243C435.186 84.7156 434.701 85.3079 434.701 86.2982C434.701 87.7061 435.72 88.5314 437.323 88.5314C438.925 88.5314 439.944 87.7061 439.944 86.2982ZM439.828 79.9246L439.828 79.1478L434.817 79.1478L434.817 79.9246L438.284 79.9246C438.944 79.9246 439.245 80.5266 439.245 81.1383C439.245 81.8859 438.789 82.284 437.895 82.284L434.817 82.284L434.817 83.0608L438.031 83.0608C439.245 83.0608 439.944 82.4005 439.944 81.3713C439.944 80.5363 439.488 80.1576 439.012 79.9634L439.012 79.9246L439.828 79.9246ZM439.828 75.712L439.148 75.712L439.148 76.4499L432.643 76.4499L432.643 77.2267L439.022 77.2267C439.488 77.2267 439.828 76.9354 439.828 76.4013L439.828 75.712ZM439.828 72.2837L439.148 72.2837L439.148 73.3032L435.497 73.3032L435.497 72.206L434.817 72.206L434.817 73.3032L433.429 73.3032L433.429 74.0023L434.361 74.0023C434.701 74.0023 434.817 74.1091 434.817 74.4393L434.817 74.9053L435.497 74.9053L435.497 74.08L439.002 74.08C439.488 74.08 439.828 73.7887 439.828 73.2547L439.828 72.2837ZM439.828 67.6029L439.828 66.8261L434.817 66.8261L434.817 67.6029L438.284 67.6029C438.944 67.6029 439.245 68.2049 439.245 68.8166C439.245 69.5642 438.789 69.9623 437.895 69.9623L434.817 69.9623L434.817 70.7391L438.031 70.7391C439.245 70.7391 439.944 70.0788 439.944 69.0496C439.944 68.2146 439.488 67.8359 439.012 67.6417L439.012 67.6029L439.828 67.6029ZM439.828 64.1282L436.429 64.1282C435.954 64.1282 435.594 63.6233 435.594 62.7883L435.594 62.3319L434.817 62.3319L434.817 62.6329C434.817 63.4485 435.264 63.9049 435.74 64.0796L435.74 64.1282L434.817 64.1282L434.817 64.905L439.828 64.905L439.828 64.1282ZM439.944 59.2364C439.944 58.2946 439.478 57.5761 438.798 57.2557L438.4 57.8091C438.954 58.0713 439.264 58.5568 439.264 59.1879C439.264 60.12 438.614 60.6735 437.75 60.6735L437.517 60.6735L437.517 57.0712L437.148 57.0712C435.73 57.0712 434.701 57.8965 434.701 59.2364C434.701 60.5958 435.73 61.4891 437.323 61.4891C438.915 61.4891 439.944 60.5958 439.944 59.2364ZM435.352 59.2364C435.352 58.4403 435.944 57.9062 436.827 57.9062L436.934 57.9062L436.934 60.6735L436.866 60.6735C435.992 60.6735 435.352 60.0812 435.352 59.2364Z" fill="#263238"/>
</svg>
