<svg width="654" height="370" viewBox="0 0 654 370" fill="none" xmlns="http://www.w3.org/2000/svg">
<path d="M7.96085 15.7284H3.30559L2.50572 18H0.602019L4.58539 6.86577H6.69705L10.6804 18H8.76072L7.96085 15.7284ZM7.44893 14.2406L5.64122 9.07342L3.81751 14.2406H7.44893ZM11.8045 13.5847C11.8045 12.6782 11.9858 11.8836 12.3484 11.2011C12.7217 10.5079 13.2336 9.97461 13.8842 9.60133C14.5347 9.22806 15.2813 9.04142 16.1238 9.04142C17.1903 9.04142 18.0702 9.29738 18.7634 9.8093C19.4673 10.3106 19.9419 11.0304 20.1872 11.969H18.2195C18.0595 11.5317 17.8035 11.1904 17.4516 10.9451C17.0996 10.6998 16.6571 10.5772 16.1238 10.5772C15.3773 10.5772 14.78 10.8438 14.3321 11.3771C13.8948 11.8996 13.6762 12.6355 13.6762 13.5847C13.6762 14.5339 13.8948 15.2751 14.3321 15.8083C14.78 16.3416 15.3773 16.6082 16.1238 16.6082C17.1796 16.6082 17.8782 16.1443 18.2195 15.2164H20.1872C19.9312 16.1123 19.4513 16.8269 18.7474 17.3601C18.0435 17.8827 17.169 18.144 16.1238 18.144C15.2813 18.144 14.5347 17.9573 13.8842 17.5841C13.2336 17.2001 12.7217 16.6669 12.3484 15.9843C11.9858 15.2911 11.8045 14.4912 11.8045 13.5847ZM24.1323 10.6732V15.5524C24.1323 15.883 24.2069 16.123 24.3562 16.2723C24.5162 16.4109 24.7828 16.4802 25.1561 16.4802H26.2759V18H24.8362C24.015 18 23.3857 17.808 22.9485 17.4241C22.5112 17.0402 22.2926 16.4163 22.2926 15.5524V10.6732H21.2527V9.1854H22.2926V6.99375H24.1323V9.1854H26.2759V10.6732H24.1323ZM28.8846 8.01759C28.554 8.01759 28.2767 7.9056 28.0528 7.68164C27.8288 7.45768 27.7168 7.18039 27.7168 6.84977C27.7168 6.51916 27.8288 6.24187 28.0528 6.0179C28.2767 5.79394 28.554 5.68196 28.8846 5.68196C29.2046 5.68196 29.4766 5.79394 29.7005 6.0179C29.9245 6.24187 30.0365 6.51916 30.0365 6.84977C30.0365 7.18039 29.9245 7.45768 29.7005 7.68164C29.4766 7.9056 29.2046 8.01759 28.8846 8.01759ZM29.7805 9.1854V18H27.9568V9.1854H29.7805ZM35.5823 16.3683L38.0779 9.1854H40.0136L36.6542 18H34.4785L31.135 9.1854H33.0867L35.5823 16.3683ZM42.32 8.01759C41.9894 8.01759 41.7121 7.9056 41.4881 7.68164C41.2642 7.45768 41.1522 7.18039 41.1522 6.84977C41.1522 6.51916 41.2642 6.24187 41.4881 6.0179C41.7121 5.79394 41.9894 5.68196 42.32 5.68196C42.64 5.68196 42.9119 5.79394 43.1359 6.0179C43.3598 6.24187 43.4718 6.51916 43.4718 6.84977C43.4718 7.18039 43.3598 7.45768 43.1359 7.68164C42.9119 7.9056 42.64 8.01759 42.32 8.01759ZM43.2159 9.1854V18H41.3922V9.1854H43.2159ZM47.7379 10.6732V15.5524C47.7379 15.883 47.8126 16.123 47.9619 16.2723C48.1218 16.4109 48.3885 16.4802 48.7617 16.4802H49.8816V18H48.4418C47.6206 18 46.9914 17.808 46.5541 17.4241C46.1168 17.0402 45.8982 16.4163 45.8982 15.5524V10.6732H44.8584V9.1854H45.8982V6.99375H47.7379V9.1854H49.8816V10.6732H47.7379ZM59.4972 9.1854L54.09 22.1433H52.2023L53.994 17.856L50.5226 9.1854H52.5543L55.0339 15.9043L57.6095 9.1854H59.4972Z" fill="#4F4F4F"/>
<line x1="51.546" y1="97.6123" x2="51.546" y2="267.755" stroke="#ECECEE" stroke-width="0.601807"/>
<path d="M31 247.194V246.594H32.3577V251.815H31.6933V247.194H31ZM35.8047 251.815L34.252 250.068V251.815H33.5948V246.471H34.252V249.613L35.7758 247.858H36.6929L34.8298 249.829L36.7002 251.815H35.8047Z" fill="#92959E"/>
<path d="M30.2276 180.476H27.6928V182.123C27.8035 181.969 27.9672 181.843 28.1839 181.747C28.4005 181.646 28.634 181.596 28.8844 181.596C29.284 181.596 29.609 181.68 29.8593 181.848C30.1097 182.012 30.2878 182.226 30.3937 182.491C30.5045 182.751 30.5598 183.028 30.5598 183.322C30.5598 183.668 30.4948 183.979 30.3648 184.253C30.2348 184.528 30.035 184.744 29.7654 184.903C29.5006 185.062 29.1708 185.141 28.7761 185.141C28.2705 185.141 27.8613 185.011 27.5484 184.751C27.2354 184.491 27.0453 184.145 26.9779 183.712H27.6206C27.6832 183.986 27.8156 184.2 28.0178 184.354C28.22 184.508 28.4752 184.585 28.7833 184.585C29.1636 184.585 29.4501 184.472 29.6427 184.246C29.8352 184.015 29.9315 183.712 29.9315 183.336C29.9315 182.96 29.8352 182.672 29.6427 182.469C29.4501 182.262 29.166 182.159 28.7905 182.159C28.5353 182.159 28.3115 182.221 28.1189 182.347C27.9311 182.467 27.7939 182.633 27.7073 182.845H27.0862V179.898H30.2276V180.476ZM33.7513 185.127L32.1986 183.379V185.127H31.5415V179.783H32.1986V182.924L33.7224 181.169H34.6396L32.7764 183.141L34.6468 185.127H33.7513Z" fill="#92959E"/>
<path d="M27.7434 117.892C27.7915 118.166 27.9022 118.378 28.0756 118.527C28.2537 118.677 28.492 118.751 28.7905 118.751C29.1901 118.751 29.4838 118.595 29.6716 118.282C29.8641 117.969 29.9556 117.442 29.946 116.7C29.8449 116.917 29.6764 117.088 29.4405 117.213C29.2045 117.333 28.9422 117.394 28.6533 117.394C28.3307 117.394 28.0419 117.329 27.7867 117.199C27.5363 117.064 27.3389 116.869 27.1945 116.614C27.0501 116.359 26.9779 116.05 26.9779 115.689C26.9779 115.174 27.1271 114.76 27.4256 114.447C27.7241 114.129 28.1478 113.971 28.6966 113.971C29.3706 113.971 29.8425 114.19 30.1121 114.628C30.3865 115.066 30.5237 115.718 30.5237 116.585C30.5237 117.191 30.4683 117.692 30.3576 118.087C30.2517 118.482 30.0687 118.783 29.8088 118.99C29.5536 119.197 29.2021 119.3 28.7544 119.3C28.2633 119.3 27.8806 119.168 27.6062 118.903C27.3317 118.638 27.1753 118.301 27.1367 117.892H27.7434ZM28.7616 116.838C29.0842 116.838 29.349 116.739 29.556 116.542C29.763 116.339 29.8665 116.067 29.8665 115.725C29.8665 115.364 29.7654 115.073 29.5632 114.852C29.361 114.63 29.077 114.519 28.7111 114.519C28.3741 114.519 28.1044 114.625 27.9022 114.837C27.7048 115.049 27.6062 115.328 27.6062 115.675C27.6062 116.026 27.7048 116.308 27.9022 116.52C28.0996 116.732 28.3861 116.838 28.7616 116.838ZM33.7654 119.293L32.2127 117.545V119.293H31.5556V113.949H32.2127V117.09L33.7365 115.335H34.6537L32.7905 117.307L34.6609 119.293H33.7654Z" fill="#92959E"/>
<path d="M26.884 214.564C26.9177 214.121 27.0886 213.774 27.3967 213.524C27.7048 213.274 28.1044 213.148 28.5955 213.148C28.9229 213.148 29.2045 213.209 29.4405 213.329C29.6812 213.444 29.8617 213.603 29.9821 213.805C30.1073 214.008 30.1698 214.236 30.1698 214.492C30.1698 214.79 30.0832 215.048 29.9099 215.264C29.7414 215.481 29.5199 215.621 29.2455 215.683V215.719C29.5584 215.796 29.8064 215.948 29.9893 216.174C30.1723 216.4 30.2637 216.697 30.2637 217.062C30.2637 217.337 30.2011 217.585 30.076 217.806C29.9508 218.023 29.763 218.194 29.5127 218.319C29.2623 218.444 28.9614 218.507 28.61 218.507C28.0996 218.507 27.6808 218.374 27.3534 218.11C27.026 217.84 26.8431 217.46 26.8045 216.969H27.4401C27.4738 217.257 27.5917 217.493 27.7939 217.676C27.9961 217.859 28.2657 217.951 28.6027 217.951C28.9398 217.951 29.1949 217.864 29.3682 217.691C29.5464 217.513 29.6354 217.284 29.6354 217.005C29.6354 216.644 29.5151 216.384 29.2744 216.225C29.0336 216.066 28.6701 215.986 28.1839 215.986H28.0178V215.438H28.1911C28.634 215.433 28.9686 215.361 29.1949 215.221C29.4212 215.077 29.5343 214.855 29.5343 214.557C29.5343 214.301 29.4501 214.097 29.2816 213.943C29.1179 213.789 28.882 213.712 28.5739 213.712C28.2754 213.712 28.0346 213.789 27.8517 213.943C27.6687 214.097 27.5604 214.304 27.5267 214.564H26.884ZM33.4692 218.471L31.9165 216.723V218.471H31.2594V213.127H31.9165V216.268L33.4403 214.513H34.3575L32.4943 216.485L34.3647 218.471H33.4692Z" fill="#92959E"/>
<path d="M30.1121 147.929L28.1044 152.638H27.4401L29.4766 147.994H26.689V147.431H30.1121V147.929ZM33.1589 152.638L31.6062 150.89V152.638H30.9491V147.294H31.6062V150.435L33.13 148.68H34.0472L32.184 150.652L34.0544 152.638H33.1589Z" fill="#92959E"/>
<line x1="630.493" y1="335.603" x2="630.493" y2="343.003" stroke="#ECECEE" stroke-width="1.21233" stroke-linecap="round" stroke-linejoin="round"/>
<path d="M613.114 354.092C613.114 353.258 613.25 352.608 613.522 352.143C613.793 351.672 614.268 351.437 614.947 351.437C615.621 351.437 616.094 351.672 616.366 352.143C616.637 352.608 616.773 353.258 616.773 354.092C616.773 354.941 616.637 355.6 616.366 356.071C616.094 356.541 615.621 356.776 614.947 356.776C614.268 356.776 613.793 356.541 613.522 356.071C613.25 355.6 613.114 354.941 613.114 354.092ZM616.118 354.092C616.118 353.67 616.089 353.314 616.031 353.023C615.978 352.727 615.864 352.49 615.689 352.31C615.52 352.131 615.272 352.041 614.947 352.041C614.618 352.041 614.365 352.131 614.191 352.31C614.021 352.49 613.907 352.727 613.849 353.023C613.796 353.314 613.769 353.67 613.769 354.092C613.769 354.529 613.796 354.895 613.849 355.191C613.907 355.486 614.021 355.724 614.191 355.903C614.365 356.083 614.618 356.173 614.947 356.173C615.272 356.173 615.52 356.083 615.689 355.903C615.864 355.724 615.978 355.486 616.031 355.191C616.089 354.895 616.118 354.529 616.118 354.092ZM617.667 352.841C617.701 352.395 617.873 352.046 618.184 351.794C618.494 351.542 618.897 351.415 619.391 351.415C619.721 351.415 620.005 351.476 620.242 351.597C620.485 351.714 620.667 351.874 620.788 352.077C620.914 352.281 620.977 352.511 620.977 352.768C620.977 353.069 620.89 353.328 620.715 353.547C620.545 353.765 620.322 353.906 620.046 353.969V354.005C620.361 354.083 620.611 354.235 620.795 354.463C620.979 354.691 621.072 354.989 621.072 355.358C621.072 355.634 621.009 355.884 620.882 356.107C620.756 356.325 620.567 356.498 620.315 356.624C620.063 356.75 619.76 356.813 619.406 356.813C618.892 356.813 618.47 356.679 618.14 356.413C617.81 356.141 617.626 355.758 617.587 355.263H618.227C618.261 355.554 618.38 355.792 618.584 355.976C618.788 356.161 619.059 356.253 619.399 356.253C619.738 356.253 619.995 356.165 620.17 355.991C620.349 355.811 620.439 355.581 620.439 355.3C620.439 354.936 620.317 354.674 620.075 354.514C619.833 354.354 619.466 354.274 618.977 354.274H618.809V353.721H618.984C619.43 353.716 619.767 353.644 619.995 353.503C620.223 353.358 620.337 353.135 620.337 352.834C620.337 352.577 620.252 352.371 620.082 352.216C619.917 352.06 619.68 351.983 619.369 351.983C619.069 351.983 618.826 352.06 618.642 352.216C618.458 352.371 618.349 352.579 618.315 352.841H617.667ZM622.285 356.82C622.159 356.82 622.053 356.776 621.965 356.689C621.878 356.602 621.834 356.495 621.834 356.369C621.834 356.243 621.878 356.136 621.965 356.049C622.053 355.962 622.159 355.918 622.285 355.918C622.407 355.918 622.508 355.962 622.591 356.049C622.678 356.136 622.722 356.243 622.722 356.369C622.722 356.495 622.678 356.602 622.591 356.689C622.508 356.776 622.407 356.82 622.285 356.82ZM622.285 353.707C622.159 353.707 622.053 353.663 621.965 353.576C621.878 353.489 621.834 353.382 621.834 353.256C621.834 353.13 621.878 353.023 621.965 352.936C622.053 352.848 622.159 352.805 622.285 352.805C622.407 352.805 622.508 352.848 622.591 352.936C622.678 353.023 622.722 353.13 622.722 353.256C622.722 353.382 622.678 353.489 622.591 353.576C622.508 353.663 622.407 353.707 622.285 353.707ZM623.499 352.841C623.533 352.395 623.705 352.046 624.016 351.794C624.326 351.542 624.729 351.415 625.223 351.415C625.553 351.415 625.837 351.476 626.074 351.597C626.317 351.714 626.499 351.874 626.62 352.077C626.746 352.281 626.809 352.511 626.809 352.768C626.809 353.069 626.722 353.328 626.547 353.547C626.377 353.765 626.154 353.906 625.878 353.969V354.005C626.193 354.083 626.443 354.235 626.627 354.463C626.811 354.691 626.904 354.989 626.904 355.358C626.904 355.634 626.841 355.884 626.714 356.107C626.588 356.325 626.399 356.498 626.147 356.624C625.895 356.75 625.592 356.813 625.238 356.813C624.724 356.813 624.302 356.679 623.972 356.413C623.642 356.141 623.458 355.758 623.419 355.263H624.059C624.093 355.554 624.212 355.792 624.416 355.976C624.62 356.161 624.891 356.253 625.231 356.253C625.57 356.253 625.827 356.165 626.002 355.991C626.181 355.811 626.271 355.581 626.271 355.3C626.271 354.936 626.149 354.674 625.907 354.514C625.665 354.354 625.298 354.274 624.809 354.274H624.641V353.721H624.816C625.262 353.716 625.599 353.644 625.827 353.503C626.055 353.358 626.169 353.135 626.169 352.834C626.169 352.577 626.084 352.371 625.914 352.216C625.749 352.06 625.512 351.983 625.201 351.983C624.901 351.983 624.658 352.06 624.474 352.216C624.29 352.371 624.181 352.579 624.147 352.841H623.499ZM627.797 354.092C627.797 353.258 627.933 352.608 628.205 352.143C628.476 351.672 628.951 351.437 629.63 351.437C630.304 351.437 630.777 351.672 631.049 352.143C631.32 352.608 631.456 353.258 631.456 354.092C631.456 354.941 631.32 355.6 631.049 356.071C630.777 356.541 630.304 356.776 629.63 356.776C628.951 356.776 628.476 356.541 628.205 356.071C627.933 355.6 627.797 354.941 627.797 354.092ZM630.801 354.092C630.801 353.67 630.772 353.314 630.714 353.023C630.661 352.727 630.547 352.49 630.372 352.31C630.203 352.131 629.955 352.041 629.63 352.041C629.301 352.041 629.048 352.131 628.874 352.31C628.704 352.49 628.59 352.727 628.532 353.023C628.479 353.314 628.452 353.67 628.452 354.092C628.452 354.529 628.479 354.895 628.532 355.191C628.59 355.486 628.704 355.724 628.874 355.903C629.048 356.083 629.301 356.173 629.63 356.173C629.955 356.173 630.203 356.083 630.372 355.903C630.547 355.724 630.661 355.486 630.714 355.191C630.772 354.895 630.801 354.529 630.801 354.092ZM637.803 353.19C637.803 353.612 637.657 353.964 637.366 354.245C637.08 354.521 636.641 354.66 636.05 354.66H635.075V356.776H634.413V351.706H636.05C636.622 351.706 637.056 351.845 637.352 352.121C637.653 352.397 637.803 352.754 637.803 353.19ZM636.05 354.114C636.418 354.114 636.69 354.034 636.865 353.874C637.039 353.714 637.126 353.486 637.126 353.19C637.126 352.565 636.768 352.252 636.05 352.252H635.075V354.114H636.05ZM643.768 351.743V356.776H643.106V353.023L641.433 356.776H640.968L639.288 353.016V356.776H638.626V351.743H639.338L641.201 355.903L643.063 351.743H643.768Z" fill="#92959E"/>
<rect x="2.43059" y="43.4306" width="651.139" height="326.139" rx="3.87531" fill="white" stroke="#E5E5E5" stroke-width="0.861181"/>
<line x1="37.3031" y1="86" x2="37.3031" y2="333" stroke="#ECECEE" stroke-width="0.606167"/>
<line x1="639.36" y1="339.606" x2="37.3945" y2="339.606" stroke="#ECECEE" stroke-width="0.606167"/>
<path d="M97.3681 274.509C75.6601 282.22 38 264.36 38 264.36V355H619.657V133.317C595.241 125.057 562.282 62.268 547.514 86.5472C502.424 160.673 448.715 79.7959 398.718 103.314C347.707 127.308 335.641 170.033 280.733 172.586C255.308 173.768 259.172 252.152 233.764 253.771C207.822 255.424 183.93 188.679 159.366 198.618C133.108 209.243 123.952 265.065 97.3681 274.509Z" fill="url(#paint0_linear)"/>
<path d="M38 273.711C38 273.711 75.6823 293.357 97.4031 284.874C124.003 274.486 133.164 213.077 159.438 201.389C184.016 190.455 207.922 263.88 233.88 262.062C259.302 260.281 255.436 174.052 280.876 172.752C335.817 169.943 347.889 122.943 398.93 96.5468C448.957 70.6754 502.698 159.646 547.814 78.1023C562.591 51.3933 595.57 120.466 620 129.553" stroke="#3AA959" stroke-width="1.51542" stroke-linecap="round" stroke-linejoin="round"/>
<line x1="630.493" y1="335.603" x2="630.493" y2="343.003" stroke="#ECECEE" stroke-width="1.21233" stroke-linecap="round" stroke-linejoin="round"/>
<line x1="517.678" y1="335.603" x2="517.678" y2="343.003" stroke="#ECECEE" stroke-width="1.21233" stroke-linecap="round" stroke-linejoin="round"/>
<line x1="404.003" y1="335.603" x2="404.003" y2="343.003" stroke="#ECECEE" stroke-width="1.21233" stroke-linecap="round" stroke-linejoin="round"/>
<line x1="291.188" y1="335.603" x2="291.188" y2="343.003" stroke="#ECECEE" stroke-width="1.21233" stroke-linecap="round" stroke-linejoin="round"/>
<line x1="176.606" y1="326.606" x2="176.606" y2="338.394" stroke="#ECECEE" stroke-width="1.21233" stroke-linecap="round" stroke-linejoin="round"/>
<line x1="64.6975" y1="335.603" x2="64.6975" y2="343.003" stroke="#ECECEE" stroke-width="1.21233" stroke-linecap="round" stroke-linejoin="round"/>
<line x1="35.6062" y1="303.394" x2="41.3938" y2="303.394" stroke="#ECECEE" stroke-width="1.21233" stroke-linecap="round" stroke-linejoin="round"/>
<line x1="35.6062" y1="256.394" x2="41.3938" y2="256.394" stroke="#ECECEE" stroke-width="1.21233" stroke-linecap="round" stroke-linejoin="round"/>
<line x1="35.6062" y1="208.394" x2="41.3938" y2="208.394" stroke="#ECECEE" stroke-width="1.21233" stroke-linecap="round" stroke-linejoin="round"/>
<line x1="35.6062" y1="159.394" x2="41.3938" y2="159.394" stroke="#ECECEE" stroke-width="1.21233" stroke-linecap="round" stroke-linejoin="round"/>
<line x1="35.6062" y1="111.394" x2="41.3938" y2="111.394" stroke="#ECECEE" stroke-width="1.21233" stroke-linecap="round" stroke-linejoin="round"/>
<path d="M52.732 351.706V355.452C52.732 355.87 52.6035 356.204 52.3465 356.456C52.0895 356.704 51.75 356.827 51.3281 356.827C50.9014 356.827 50.5595 356.701 50.3025 356.449C50.0455 356.192 49.917 355.843 49.917 355.402H50.5789C50.5838 355.649 50.6468 355.85 50.768 356.005C50.8941 356.161 51.0808 356.238 51.3281 356.238C51.5755 356.238 51.7597 356.165 51.881 356.02C52.0022 355.87 52.0628 355.68 52.0628 355.452V351.706H52.732ZM53.7887 354.769C53.7887 354.361 53.8712 354.005 54.0361 353.699C54.2009 353.389 54.4264 353.149 54.7125 352.979C55.0035 352.81 55.326 352.725 55.68 352.725C56.0291 352.725 56.3322 352.8 56.5892 352.95C56.8462 353.101 57.0378 353.29 57.1639 353.518V352.79H57.8331V356.776H57.1639V356.034C57.0329 356.267 56.8365 356.461 56.5747 356.616C56.3177 356.767 56.017 356.842 55.6727 356.842C55.3187 356.842 54.9987 356.755 54.7125 356.58C54.4264 356.405 54.2009 356.161 54.0361 355.845C53.8712 355.53 53.7887 355.171 53.7887 354.769ZM57.1639 354.776C57.1639 354.475 57.1033 354.213 56.982 353.99C56.8608 353.767 56.6959 353.598 56.4874 353.481C56.2837 353.36 56.0582 353.299 55.8109 353.299C55.5636 353.299 55.3381 353.358 55.1344 353.474C54.9308 353.59 54.7683 353.76 54.6471 353.983C54.5258 354.206 54.4652 354.468 54.4652 354.769C54.4652 355.074 54.5258 355.341 54.6471 355.569C54.7683 355.792 54.9308 355.964 55.1344 356.085C55.3381 356.202 55.5636 356.26 55.8109 356.26C56.0582 356.26 56.2837 356.202 56.4874 356.085C56.6959 355.964 56.8608 355.792 56.982 355.569C57.1033 355.341 57.1639 355.077 57.1639 354.776ZM60.8938 352.717C61.3788 352.717 61.7716 352.865 62.0722 353.161C62.3729 353.452 62.5232 353.874 62.5232 354.427V356.776H61.8686V354.521C61.8686 354.124 61.7692 353.821 61.5703 353.612C61.3715 353.399 61.0999 353.292 60.7556 353.292C60.4065 353.292 60.1277 353.401 59.9191 353.619C59.7155 353.838 59.6136 354.155 59.6136 354.572V356.776H58.9517V352.79H59.6136V353.358C59.7446 353.154 59.9216 352.996 60.1446 352.885C60.3725 352.773 60.6223 352.717 60.8938 352.717ZM67.1397 352.79V356.776H66.4777V356.187C66.3516 356.391 66.1746 356.551 65.9467 356.667C65.7236 356.779 65.4763 356.835 65.2048 356.835C64.8944 356.835 64.6156 356.772 64.3683 356.645C64.1209 356.515 63.9245 356.321 63.7791 356.064C63.6384 355.807 63.5681 355.494 63.5681 355.125V352.79H64.2228V355.038C64.2228 355.431 64.3222 355.734 64.521 355.947C64.7198 356.156 64.9914 356.26 65.3357 356.26C65.6897 356.26 65.9685 356.151 66.1722 355.933C66.3759 355.714 66.4777 355.397 66.4777 354.98V352.79H67.1397ZM68.01 354.769C68.01 354.361 68.0924 354.005 68.2573 353.699C68.4222 353.389 68.6477 353.149 68.9338 352.979C69.2247 352.81 69.5472 352.725 69.9012 352.725C70.2504 352.725 70.5534 352.8 70.8105 352.95C71.0675 353.101 71.259 353.29 71.3851 353.518V352.79H72.0543V356.776H71.3851V356.034C71.2542 356.267 71.0578 356.461 70.7959 356.616C70.5389 356.767 70.2382 356.842 69.8939 356.842C69.5399 356.842 69.2199 356.755 68.9338 356.58C68.6477 356.405 68.4222 356.161 68.2573 355.845C68.0924 355.53 68.01 355.171 68.01 354.769ZM71.3851 354.776C71.3851 354.475 71.3245 354.213 71.2033 353.99C71.082 353.767 70.9171 353.598 70.7086 353.481C70.505 353.36 70.2795 353.299 70.0321 353.299C69.7848 353.299 69.5593 353.358 69.3557 353.474C69.152 353.59 68.9895 353.76 68.8683 353.983C68.7471 354.206 68.6865 354.468 68.6865 354.769C68.6865 355.074 68.7471 355.341 68.8683 355.569C68.9895 355.792 69.152 355.964 69.3557 356.085C69.5593 356.202 69.7848 356.26 70.0321 356.26C70.2795 356.26 70.505 356.202 70.7086 356.085C70.9171 355.964 71.082 355.792 71.2033 355.569C71.3245 355.341 71.3851 355.077 71.3851 354.776ZM73.8349 353.438C73.9512 353.21 74.1161 353.033 74.3295 352.907C74.5477 352.781 74.812 352.717 75.1224 352.717V353.401H74.9478C74.2058 353.401 73.8349 353.804 73.8349 354.609V356.776H73.1729V352.79H73.8349V353.438ZM79.3198 352.79L76.9194 358.653H76.2356L77.0212 356.733L75.4137 352.79H76.1483L77.3995 356.02L78.636 352.79H79.3198Z" fill="#92959E"/>
<path d="M22.2764 301.345V300.741H23.6439V306H22.9747V301.345H22.2764ZM27.1159 306L25.552 304.24V306H24.8901V300.617H25.552V303.781L27.0868 302.014H28.0106L26.1339 304L28.0179 306H27.1159Z" fill="#92959E"/>
<path d="M22.8043 204.316H20.2511V205.974C20.3627 205.819 20.5275 205.693 20.7458 205.596C20.964 205.494 21.1992 205.443 21.4513 205.443C21.8538 205.443 22.1812 205.528 22.4333 205.698C22.6855 205.862 22.8649 206.078 22.9716 206.345C23.0831 206.607 23.1389 206.886 23.1389 207.182C23.1389 207.531 23.0734 207.843 22.9425 208.12C22.8116 208.396 22.6103 208.614 22.3388 208.775C22.0721 208.935 21.7399 209.015 21.3422 209.015C20.833 209.015 20.4209 208.884 20.1056 208.622C19.7904 208.36 19.5989 208.011 19.531 207.574H20.1784C20.2414 207.851 20.3748 208.067 20.5785 208.222C20.7821 208.377 21.0391 208.454 21.3495 208.454C21.7326 208.454 22.0211 208.34 22.2151 208.113C22.4091 207.88 22.5061 207.574 22.5061 207.196C22.5061 206.818 22.4091 206.527 22.2151 206.323C22.0211 206.115 21.735 206.01 21.3568 206.01C21.0998 206.01 20.8743 206.073 20.6803 206.2C20.4912 206.321 20.353 206.488 20.2657 206.701H19.6401V203.734H22.8043V204.316ZM26.3535 209L24.7896 207.24V209H24.1277V203.617H24.7896V206.781L26.3244 205.014H27.2482L25.3715 207L27.2555 209H26.3535Z" fill="#92959E"/>
<path d="M20.302 112.589C20.3505 112.865 20.4621 113.079 20.6366 113.229C20.8161 113.379 21.0561 113.454 21.3568 113.454C21.7593 113.454 22.0551 113.297 22.2442 112.982C22.4382 112.666 22.5303 112.135 22.5206 111.389C22.4188 111.607 22.2491 111.779 22.0114 111.905C21.7738 112.026 21.5095 112.087 21.2186 112.087C20.8937 112.087 20.6027 112.021 20.3457 111.891C20.0935 111.755 19.8947 111.558 19.7492 111.301C19.6037 111.044 19.531 110.734 19.531 110.37C19.531 109.851 19.6813 109.434 19.982 109.119C20.2826 108.799 20.7094 108.639 21.2622 108.639C21.9411 108.639 22.4164 108.86 22.6879 109.301C22.9643 109.742 23.1025 110.399 23.1025 111.272C23.1025 111.883 23.0468 112.388 22.9352 112.785C22.8285 113.183 22.6443 113.486 22.3824 113.694C22.1254 113.903 21.7714 114.007 21.3204 114.007C20.8258 114.007 20.4403 113.874 20.1638 113.607C19.8874 113.34 19.7298 113.001 19.691 112.589H20.302ZM21.3277 111.527C21.6526 111.527 21.9193 111.427 22.1278 111.229C22.3363 111.025 22.4406 110.751 22.4406 110.407C22.4406 110.043 22.3388 109.75 22.1351 109.526C21.9314 109.303 21.6453 109.192 21.2768 109.192C20.9373 109.192 20.6657 109.299 20.4621 109.512C20.2633 109.725 20.1638 110.007 20.1638 110.356C20.1638 110.71 20.2633 110.993 20.4621 111.207C20.6609 111.42 20.9494 111.527 21.3277 111.527ZM26.3677 114L24.8038 112.24V114H24.1419V108.617H24.8038V111.781L26.3386 110.014H27.2624L25.3857 112L27.2697 114H26.3677Z" fill="#92959E"/>
<path d="M19.4364 253.065C19.4704 252.619 19.6425 252.269 19.9529 252.017C20.2633 251.765 20.6657 251.639 21.1604 251.639C21.4901 251.639 21.7738 251.7 22.0114 251.821C22.2539 251.937 22.4358 252.097 22.557 252.301C22.6831 252.505 22.7461 252.735 22.7461 252.992C22.7461 253.293 22.6588 253.552 22.4842 253.77C22.3145 253.989 22.0914 254.129 21.815 254.192V254.229C22.1302 254.306 22.38 254.459 22.5643 254.687C22.7485 254.915 22.8407 255.213 22.8407 255.582C22.8407 255.858 22.7776 256.108 22.6515 256.331C22.5255 256.549 22.3363 256.721 22.0842 256.847C21.832 256.973 21.5289 257.036 21.1749 257.036C20.6609 257.036 20.239 256.903 19.9092 256.636C19.5795 256.365 19.3952 255.982 19.3564 255.487H19.9965C20.0305 255.778 20.1493 256.016 20.353 256.2C20.5566 256.384 20.8282 256.476 21.1677 256.476C21.5071 256.476 21.7641 256.389 21.9387 256.214C22.1181 256.035 22.2078 255.805 22.2078 255.523C22.2078 255.16 22.0866 254.898 21.8441 254.738C21.6017 254.578 21.2355 254.498 20.7458 254.498H20.5785V253.945H20.753C21.1992 253.94 21.5362 253.867 21.7641 253.727C21.992 253.581 22.106 253.358 22.106 253.057C22.106 252.8 22.0211 252.594 21.8514 252.439C21.6865 252.284 21.4489 252.206 21.1386 252.206C20.8379 252.206 20.5954 252.284 20.4112 252.439C20.2269 252.594 20.1178 252.803 20.0838 253.065H19.4364ZM26.0694 257L24.5054 255.24V257H23.8435V251.617H24.5054V254.781L26.0403 253.014H26.9641L25.0874 255L26.9713 257H26.0694Z" fill="#92959E"/>
<path d="M22.6879 157.257L20.6657 162H19.9965L22.0478 157.323H19.24V156.755H22.6879V157.257ZM25.7568 162L24.1929 160.24V162H23.531V156.617H24.1929V159.781L25.7277 158.014H26.6515L24.7748 160L26.6588 162H25.7568Z" fill="#92959E"/>
<path d="M284.802 351.743V356.776H284.14V353.023L282.467 356.776H282.001L280.321 353.016V356.776H279.659V351.743H280.372L282.234 355.903L284.096 351.743H284.802ZM285.677 354.769C285.677 354.361 285.759 354.005 285.924 353.699C286.089 353.389 286.315 353.149 286.601 352.979C286.892 352.81 287.214 352.725 287.568 352.725C287.917 352.725 288.22 352.8 288.477 352.95C288.734 353.101 288.926 353.29 289.052 353.518V352.79H289.721V356.776H289.052V356.034C288.921 356.267 288.725 356.461 288.463 356.616C288.206 356.767 287.905 356.842 287.561 356.842C287.207 356.842 286.887 356.755 286.601 356.58C286.315 356.405 286.089 356.161 285.924 355.845C285.759 355.53 285.677 355.171 285.677 354.769ZM289.052 354.776C289.052 354.475 288.991 354.213 288.87 353.99C288.749 353.767 288.584 353.598 288.376 353.481C288.172 353.36 287.946 353.299 287.699 353.299C287.452 353.299 287.226 353.358 287.023 353.474C286.819 353.59 286.657 353.76 286.535 353.983C286.414 354.206 286.353 354.468 286.353 354.769C286.353 355.074 286.414 355.341 286.535 355.569C286.657 355.792 286.819 355.964 287.023 356.085C287.226 356.202 287.452 356.26 287.699 356.26C287.946 356.26 288.172 356.202 288.376 356.085C288.584 355.964 288.749 355.792 288.87 355.569C288.991 355.341 289.052 355.077 289.052 354.776ZM291.502 353.438C291.618 353.21 291.783 353.033 291.996 352.907C292.215 352.781 292.479 352.717 292.789 352.717V353.401H292.615C291.873 353.401 291.502 353.804 291.502 354.609V356.776H290.84V352.79H291.502V353.438ZM293.306 354.776C293.306 354.364 293.389 354.005 293.553 353.699C293.718 353.389 293.946 353.149 294.237 352.979C294.533 352.81 294.87 352.725 295.248 352.725C295.738 352.725 296.141 352.844 296.456 353.081C296.776 353.319 296.987 353.649 297.089 354.07H296.376C296.308 353.828 296.175 353.636 295.976 353.496C295.782 353.355 295.539 353.285 295.248 353.285C294.87 353.285 294.565 353.416 294.332 353.678C294.099 353.935 293.983 354.301 293.983 354.776C293.983 355.256 294.099 355.627 294.332 355.889C294.565 356.151 294.87 356.282 295.248 356.282C295.539 356.282 295.782 356.214 295.976 356.078C296.17 355.942 296.303 355.748 296.376 355.496H297.089C296.982 355.903 296.769 356.231 296.449 356.478C296.128 356.721 295.728 356.842 295.248 356.842C294.87 356.842 294.533 356.757 294.237 356.587C293.946 356.418 293.718 356.177 293.553 355.867C293.389 355.557 293.306 355.193 293.306 354.776ZM299.95 352.717C300.251 352.717 300.523 352.783 300.765 352.914C301.008 353.04 301.197 353.232 301.332 353.489C301.473 353.746 301.543 354.058 301.543 354.427V356.776H300.889V354.521C300.889 354.124 300.789 353.821 300.59 353.612C300.392 353.399 300.12 353.292 299.776 353.292C299.427 353.292 299.148 353.401 298.939 353.619C298.736 353.838 298.634 354.155 298.634 354.572V356.776H297.972V351.394H298.634V353.358C298.765 353.154 298.944 352.996 299.172 352.885C299.405 352.773 299.664 352.717 299.95 352.717Z" fill="#92959E"/>
<path d="M163.808 351.706V352.245H161.604V353.954H163.394V354.492H161.604V356.776H160.942V351.706H163.808ZM168.245 354.631C168.245 354.757 168.238 354.89 168.223 355.031H165.037C165.061 355.423 165.195 355.731 165.437 355.954C165.684 356.173 165.983 356.282 166.332 356.282C166.618 356.282 166.856 356.216 167.045 356.085C167.239 355.95 167.374 355.77 167.452 355.547H168.165C168.058 355.93 167.845 356.243 167.525 356.485C167.205 356.723 166.807 356.842 166.332 356.842C165.954 356.842 165.614 356.757 165.313 356.587C165.018 356.418 164.785 356.177 164.615 355.867C164.445 355.552 164.361 355.188 164.361 354.776C164.361 354.364 164.443 354.003 164.608 353.692C164.773 353.382 165.003 353.144 165.299 352.979C165.6 352.81 165.944 352.725 166.332 352.725C166.71 352.725 167.045 352.807 167.336 352.972C167.627 353.137 167.85 353.365 168.005 353.656C168.165 353.942 168.245 354.267 168.245 354.631ZM167.561 354.492C167.561 354.24 167.505 354.024 167.394 353.845C167.282 353.661 167.13 353.522 166.936 353.43C166.746 353.333 166.535 353.285 166.303 353.285C165.968 353.285 165.682 353.392 165.444 353.605C165.212 353.818 165.078 354.114 165.044 354.492H167.561ZM169.781 353.532C169.916 353.295 170.115 353.101 170.377 352.95C170.639 352.8 170.937 352.725 171.272 352.725C171.631 352.725 171.953 352.81 172.239 352.979C172.525 353.149 172.751 353.389 172.916 353.699C173.08 354.005 173.163 354.361 173.163 354.769C173.163 355.171 173.08 355.53 172.916 355.845C172.751 356.161 172.523 356.405 172.232 356.58C171.946 356.755 171.626 356.842 171.272 356.842C170.927 356.842 170.624 356.767 170.362 356.616C170.105 356.466 169.911 356.274 169.781 356.042V356.776H169.119V351.394H169.781V353.532ZM172.486 354.769C172.486 354.468 172.426 354.206 172.305 353.983C172.183 353.76 172.018 353.59 171.81 353.474C171.606 353.358 171.381 353.299 171.133 353.299C170.891 353.299 170.666 353.36 170.457 353.481C170.253 353.598 170.088 353.77 169.962 353.998C169.841 354.221 169.781 354.48 169.781 354.776C169.781 355.077 169.841 355.341 169.962 355.569C170.088 355.792 170.253 355.964 170.457 356.085C170.666 356.202 170.891 356.26 171.133 356.26C171.381 356.26 171.606 356.202 171.81 356.085C172.018 355.964 172.183 355.792 172.305 355.569C172.426 355.341 172.486 355.074 172.486 354.769ZM174.696 353.438C174.813 353.21 174.977 353.033 175.191 352.907C175.409 352.781 175.673 352.717 175.984 352.717V353.401H175.809C175.067 353.401 174.696 353.804 174.696 354.609V356.776H174.034V352.79H174.696V353.438ZM180.283 352.79V356.776H179.621V356.187C179.495 356.391 179.318 356.551 179.09 356.667C178.867 356.779 178.62 356.835 178.348 356.835C178.038 356.835 177.759 356.772 177.512 356.645C177.264 356.515 177.068 356.321 176.922 356.064C176.782 355.807 176.711 355.494 176.711 355.125V352.79H177.366V355.038C177.366 355.431 177.465 355.734 177.664 355.947C177.863 356.156 178.135 356.26 178.479 356.26C178.833 356.26 179.112 356.151 179.315 355.933C179.519 355.714 179.621 355.397 179.621 354.98V352.79H180.283ZM181.153 354.769C181.153 354.361 181.236 354.005 181.401 353.699C181.565 353.389 181.791 353.149 182.077 352.979C182.368 352.81 182.69 352.725 183.044 352.725C183.394 352.725 183.697 352.8 183.954 352.95C184.211 353.101 184.402 353.29 184.528 353.518V352.79H185.198V356.776H184.528V356.034C184.397 356.267 184.201 356.461 183.939 356.616C183.682 356.767 183.382 356.842 183.037 356.842C182.683 356.842 182.363 356.755 182.077 356.58C181.791 356.405 181.565 356.161 181.401 355.845C181.236 355.53 181.153 355.171 181.153 354.769ZM184.528 354.776C184.528 354.475 184.468 354.213 184.347 353.99C184.225 353.767 184.06 353.598 183.852 353.481C183.648 353.36 183.423 353.299 183.175 353.299C182.928 353.299 182.703 353.358 182.499 353.474C182.295 353.59 182.133 353.76 182.012 353.983C181.89 354.206 181.83 354.468 181.83 354.769C181.83 355.074 181.89 355.341 182.012 355.569C182.133 355.792 182.295 355.964 182.499 356.085C182.703 356.202 182.928 356.26 183.175 356.26C183.423 356.26 183.648 356.202 183.852 356.085C184.06 355.964 184.225 355.792 184.347 355.569C184.468 355.341 184.528 355.077 184.528 354.776ZM186.978 353.438C187.095 353.21 187.259 353.033 187.473 352.907C187.691 352.781 187.955 352.717 188.266 352.717V353.401H188.091C187.349 353.401 186.978 353.804 186.978 354.609V356.776H186.316V352.79H186.978V353.438ZM192.463 352.79L190.063 358.653H189.379L190.164 356.733L188.557 352.79H189.292L190.543 356.02L191.779 352.79H192.463Z" fill="#92959E"/>
<path d="M398.898 355.649H396.687L396.279 356.776H395.581L397.414 351.735H398.178L400.004 356.776H399.305L398.898 355.649ZM398.709 355.111L397.792 352.55L396.876 355.111H398.709ZM401.465 353.525C401.596 353.297 401.789 353.108 402.047 352.958C402.308 352.802 402.611 352.725 402.956 352.725C403.31 352.725 403.63 352.81 403.916 352.979C404.207 353.149 404.435 353.389 404.6 353.699C404.765 354.005 404.847 354.361 404.847 354.769C404.847 355.171 404.765 355.53 404.6 355.845C404.435 356.161 404.207 356.405 403.916 356.58C403.63 356.755 403.31 356.842 402.956 356.842C402.616 356.842 402.316 356.767 402.054 356.616C401.797 356.461 401.6 356.27 401.465 356.042V358.668H400.803V352.79H401.465V353.525ZM404.171 354.769C404.171 354.468 404.11 354.206 403.989 353.983C403.867 353.76 403.703 353.59 403.494 353.474C403.29 353.358 403.065 353.299 402.818 353.299C402.575 353.299 402.35 353.36 402.141 353.481C401.937 353.598 401.773 353.77 401.646 353.998C401.525 354.221 401.465 354.48 401.465 354.776C401.465 355.077 401.525 355.341 401.646 355.569C401.773 355.792 401.937 355.964 402.141 356.085C402.35 356.202 402.575 356.26 402.818 356.26C403.065 356.26 403.29 356.202 403.494 356.085C403.703 355.964 403.867 355.792 403.989 355.569C404.11 355.341 404.171 355.074 404.171 354.769ZM406.38 353.438C406.497 353.21 406.661 353.033 406.875 352.907C407.093 352.781 407.357 352.717 407.668 352.717V353.401H407.493C406.751 353.401 406.38 353.804 406.38 354.609V356.776H405.718V352.79H406.38V353.438ZM408.774 352.143C408.648 352.143 408.541 352.099 408.454 352.012C408.366 351.925 408.323 351.818 408.323 351.692C408.323 351.566 408.366 351.459 408.454 351.372C408.541 351.284 408.648 351.241 408.774 351.241C408.895 351.241 408.997 351.284 409.079 351.372C409.166 351.459 409.21 351.566 409.21 351.692C409.21 351.818 409.166 351.925 409.079 352.012C408.997 352.099 408.895 352.143 408.774 352.143ZM409.094 352.79V356.776H408.432V352.79H409.094ZM410.884 351.394V356.776H410.222V351.394H410.884Z" fill="#92959E"/>
<path d="M515.135 351.743V356.776H514.473V353.023L512.8 356.776H512.335L510.654 353.016V356.776H509.993V351.743H510.705L512.568 355.903L514.43 351.743H515.135ZM516.011 354.769C516.011 354.361 516.093 354.005 516.258 353.699C516.423 353.389 516.648 353.149 516.934 352.979C517.225 352.81 517.548 352.725 517.902 352.725C518.251 352.725 518.554 352.8 518.811 352.95C519.068 353.101 519.26 353.29 519.386 353.518V352.79H520.055V356.776H519.386V356.034C519.255 356.267 519.058 356.461 518.796 356.616C518.539 356.767 518.239 356.842 517.895 356.842C517.541 356.842 517.22 356.755 516.934 356.58C516.648 356.405 516.423 356.161 516.258 355.845C516.093 355.53 516.011 355.171 516.011 354.769ZM519.386 354.776C519.386 354.475 519.325 354.213 519.204 353.99C519.083 353.767 518.918 353.598 518.709 353.481C518.506 353.36 518.28 353.299 518.033 353.299C517.785 353.299 517.56 353.358 517.356 353.474C517.153 353.59 516.99 353.76 516.869 353.983C516.748 354.206 516.687 354.468 516.687 354.769C516.687 355.074 516.748 355.341 516.869 355.569C516.99 355.792 517.153 355.964 517.356 356.085C517.56 356.202 517.785 356.26 518.033 356.26C518.28 356.26 518.506 356.202 518.709 356.085C518.918 355.964 519.083 355.792 519.204 355.569C519.325 355.341 519.386 355.077 519.386 354.776ZM524.607 352.79L522.206 358.653H521.523L522.308 356.733L520.701 352.79H521.435L522.686 356.02L523.923 352.79H524.607Z" fill="#92959E"/>
<path d="M618.366 351.743V356.776H617.704V353.023L616.031 356.776H615.566L613.885 353.016V356.776H613.223V351.743H613.936L615.798 355.903L617.661 351.743H618.366ZM619.241 354.769C619.241 354.361 619.324 354.005 619.489 353.699C619.654 353.389 619.879 353.149 620.165 352.979C620.456 352.81 620.779 352.725 621.133 352.725C621.482 352.725 621.785 352.8 622.042 352.95C622.299 353.101 622.49 353.29 622.617 353.518V352.79H623.286V356.776H622.617V356.034C622.486 356.267 622.289 356.461 622.027 356.616C621.77 356.767 621.47 356.842 621.125 356.842C620.771 356.842 620.451 356.755 620.165 356.58C619.879 356.405 619.654 356.161 619.489 355.845C619.324 355.53 619.241 355.171 619.241 354.769ZM622.617 354.776C622.617 354.475 622.556 354.213 622.435 353.99C622.313 353.767 622.149 353.598 621.94 353.481C621.736 353.36 621.511 353.299 621.264 353.299C621.016 353.299 620.791 353.358 620.587 353.474C620.383 353.59 620.221 353.76 620.1 353.983C619.979 354.206 619.918 354.468 619.918 354.769C619.918 355.074 619.979 355.341 620.1 355.569C620.221 355.792 620.383 355.964 620.587 356.085C620.791 356.202 621.016 356.26 621.264 356.26C621.511 356.26 621.736 356.202 621.94 356.085C622.149 355.964 622.313 355.792 622.435 355.569C622.556 355.341 622.617 355.077 622.617 354.776ZM627.838 352.79L625.437 358.653H624.754L625.539 356.733L623.932 352.79H624.666L625.917 356.02L627.154 352.79H627.838Z" fill="#92959E"/>
<path d="M480 339L480 109" stroke="#ECECEE" stroke-width="0.606167"/>
<circle cx="480.306" cy="109.306" r="4.3059" fill="white" stroke="#3AA959" stroke-width="1.8185"/>
<circle cx="475.736" cy="340.165" r="4.3059" fill="white" stroke="#3AA959" stroke-width="1.8185"/>
<g filter="url(#filter0_d)">
<rect x="417" y="132" width="90.424" height="49.9485" rx="7.274" fill="white"/>
</g>
<path d="M425.016 144.673C425.641 144.673 426.18 144.791 426.635 145.027C427.096 145.257 427.446 145.589 427.688 146.022C427.934 146.455 428.057 146.964 428.057 147.551C428.057 148.137 427.934 148.647 427.688 149.08C427.446 149.507 427.096 149.836 426.635 150.066C426.18 150.291 425.641 150.403 425.016 150.403H423.232V144.673H425.016ZM425.016 149.787C425.756 149.787 426.32 149.592 426.709 149.203C427.098 148.808 427.293 148.258 427.293 147.551C427.293 146.838 427.096 146.282 426.701 145.882C426.312 145.482 425.75 145.282 425.016 145.282H423.98V149.787H425.016ZM428.765 148.134C428.765 147.674 428.858 147.271 429.044 146.926C429.231 146.575 429.485 146.304 429.809 146.112C430.138 145.92 430.502 145.824 430.902 145.824C431.297 145.824 431.639 145.909 431.93 146.079C432.22 146.249 432.437 146.463 432.579 146.72V145.898H433.335V150.403H432.579V149.565C432.431 149.828 432.209 150.047 431.913 150.222C431.623 150.392 431.283 150.477 430.894 150.477C430.494 150.477 430.132 150.379 429.809 150.181C429.485 149.984 429.231 149.707 429.044 149.351C428.858 148.995 428.765 148.589 428.765 148.134ZM432.579 148.143C432.579 147.803 432.511 147.507 432.374 147.255C432.237 147.003 432.05 146.811 431.815 146.679C431.584 146.542 431.33 146.474 431.05 146.474C430.771 146.474 430.516 146.54 430.286 146.671C430.055 146.803 429.872 146.994 429.735 147.247C429.598 147.499 429.529 147.795 429.529 148.134C429.529 148.48 429.598 148.781 429.735 149.039C429.872 149.291 430.055 149.485 430.286 149.622C430.516 149.754 430.771 149.82 431.05 149.82C431.33 149.82 431.584 149.754 431.815 149.622C432.05 149.485 432.237 149.291 432.374 149.039C432.511 148.781 432.579 148.482 432.579 148.143ZM434.986 145.167C434.844 145.167 434.723 145.117 434.624 145.019C434.526 144.92 434.476 144.799 434.476 144.657C434.476 144.515 434.526 144.394 434.624 144.295C434.723 144.197 434.844 144.147 434.986 144.147C435.123 144.147 435.238 144.197 435.331 144.295C435.43 144.394 435.479 144.515 435.479 144.657C435.479 144.799 435.43 144.92 435.331 145.019C435.238 145.117 435.123 145.167 434.986 145.167ZM435.348 145.898V150.403H434.6V145.898H435.348ZM437.371 144.32V150.403H436.623V144.32H437.371ZM442.526 145.898L439.813 152.524H439.04L439.928 150.354L438.112 145.898H438.942L440.356 149.548L441.753 145.898H442.526ZM451.282 144.715V150.403H450.534V146.161L448.643 150.403H448.117L446.218 146.153V150.403H445.47V144.715H446.275L448.38 149.417L450.484 144.715H451.282ZM456.661 147.978C456.661 148.121 456.653 148.271 456.636 148.43H453.036C453.063 148.874 453.214 149.222 453.488 149.474C453.767 149.721 454.104 149.844 454.499 149.844C454.822 149.844 455.091 149.77 455.304 149.622C455.524 149.469 455.677 149.266 455.765 149.014H456.57C456.45 149.447 456.209 149.8 455.847 150.074C455.485 150.343 455.036 150.477 454.499 150.477C454.071 150.477 453.688 150.381 453.348 150.19C453.014 149.998 452.751 149.726 452.559 149.376C452.367 149.019 452.271 148.608 452.271 148.143C452.271 147.677 452.364 147.268 452.551 146.918C452.737 146.567 452.997 146.298 453.331 146.112C453.671 145.92 454.06 145.824 454.499 145.824C454.926 145.824 455.304 145.918 455.633 146.104C455.962 146.29 456.214 146.548 456.39 146.877C456.57 147.2 456.661 147.567 456.661 147.978ZM455.888 147.822C455.888 147.537 455.825 147.293 455.699 147.09C455.573 146.882 455.4 146.726 455.181 146.622C454.967 146.512 454.729 146.457 454.466 146.457C454.088 146.457 453.764 146.578 453.496 146.819C453.233 147.06 453.082 147.395 453.044 147.822H455.888ZM459.843 145.816C460.391 145.816 460.835 145.983 461.175 146.318C461.515 146.646 461.685 147.123 461.685 147.748V150.403H460.945V147.855C460.945 147.405 460.833 147.063 460.608 146.827C460.383 146.586 460.076 146.466 459.687 146.466C459.293 146.466 458.977 146.589 458.742 146.836C458.512 147.082 458.396 147.441 458.396 147.912V150.403H457.648V145.898H458.396V146.54C458.544 146.309 458.744 146.131 458.997 146.005C459.254 145.879 459.536 145.816 459.843 145.816ZM463.819 146.515V149.17C463.819 149.389 463.866 149.546 463.959 149.639C464.052 149.726 464.214 149.77 464.444 149.77H464.995V150.403H464.321C463.904 150.403 463.592 150.307 463.384 150.116C463.175 149.924 463.071 149.609 463.071 149.17V146.515H462.488V145.898H463.071V144.764H463.819V145.898H464.995V146.515H463.819ZM467.866 150.477C467.444 150.477 467.06 150.381 466.715 150.19C466.375 149.998 466.107 149.726 465.909 149.376C465.718 149.019 465.622 148.608 465.622 148.143C465.622 147.682 465.72 147.277 465.918 146.926C466.12 146.57 466.394 146.298 466.74 146.112C467.085 145.92 467.471 145.824 467.899 145.824C468.326 145.824 468.713 145.92 469.058 146.112C469.403 146.298 469.675 146.567 469.872 146.918C470.075 147.268 470.176 147.677 470.176 148.143C470.176 148.608 470.072 149.019 469.864 149.376C469.661 149.726 469.384 149.998 469.033 150.19C468.683 150.381 468.293 150.477 467.866 150.477ZM467.866 149.82C468.135 149.82 468.387 149.757 468.622 149.631C468.858 149.505 469.047 149.315 469.19 149.063C469.338 148.811 469.412 148.504 469.412 148.143C469.412 147.781 469.34 147.474 469.198 147.222C469.055 146.97 468.869 146.783 468.639 146.663C468.409 146.537 468.159 146.474 467.891 146.474C467.617 146.474 467.365 146.537 467.134 146.663C466.91 146.783 466.729 146.97 466.592 147.222C466.455 147.474 466.386 147.781 466.386 148.143C466.386 148.51 466.452 148.819 466.584 149.072C466.721 149.324 466.901 149.513 467.126 149.639C467.351 149.759 467.597 149.82 467.866 149.82ZM471.908 146.63C472.039 146.372 472.226 146.172 472.467 146.03C472.713 145.887 473.012 145.816 473.363 145.816V146.589H473.166C472.327 146.589 471.908 147.044 471.908 147.954V150.403H471.16V145.898H471.908V146.63ZM477.166 149.795H479.172V150.403H476.418V144.673H477.166V149.795ZM481.931 150.477C481.509 150.477 481.126 150.381 480.78 150.19C480.441 149.998 480.172 149.726 479.975 149.376C479.783 149.019 479.687 148.608 479.687 148.143C479.687 147.682 479.786 147.277 479.983 146.926C480.186 146.57 480.46 146.298 480.805 146.112C481.15 145.92 481.537 145.824 481.964 145.824C482.392 145.824 482.778 145.92 483.123 146.112C483.469 146.298 483.74 146.567 483.937 146.918C484.14 147.268 484.241 147.677 484.241 148.143C484.241 148.608 484.137 149.019 483.929 149.376C483.726 149.726 483.449 149.998 483.099 150.19C482.748 150.381 482.359 150.477 481.931 150.477ZM481.931 149.82C482.2 149.82 482.452 149.757 482.688 149.631C482.923 149.505 483.112 149.315 483.255 149.063C483.403 148.811 483.477 148.504 483.477 148.143C483.477 147.781 483.406 147.474 483.263 147.222C483.121 146.97 482.934 146.783 482.704 146.663C482.474 146.537 482.224 146.474 481.956 146.474C481.682 146.474 481.43 146.537 481.2 146.663C480.975 146.783 480.794 146.97 480.657 147.222C480.52 147.474 480.452 147.781 480.452 148.143C480.452 148.51 480.517 148.819 480.649 149.072C480.786 149.324 480.967 149.513 481.191 149.639C481.416 149.759 481.663 149.82 481.931 149.82ZM487.083 145.824C487.472 145.824 487.812 145.909 488.102 146.079C488.398 146.249 488.617 146.463 488.76 146.72V145.898H489.516V150.502C489.516 150.913 489.428 151.277 489.253 151.595C489.078 151.919 488.826 152.171 488.497 152.352C488.173 152.533 487.795 152.623 487.362 152.623C486.77 152.623 486.277 152.483 485.883 152.204C485.488 151.924 485.255 151.543 485.184 151.061H485.924C486.006 151.335 486.176 151.554 486.433 151.719C486.691 151.889 487.001 151.973 487.362 151.973C487.773 151.973 488.108 151.845 488.365 151.587C488.628 151.33 488.76 150.968 488.76 150.502V149.557C488.612 149.82 488.393 150.039 488.102 150.214C487.812 150.39 487.472 150.477 487.083 150.477C486.683 150.477 486.318 150.379 485.989 150.181C485.666 149.984 485.411 149.707 485.225 149.351C485.039 148.995 484.945 148.589 484.945 148.134C484.945 147.674 485.039 147.271 485.225 146.926C485.411 146.575 485.666 146.304 485.989 146.112C486.318 145.92 486.683 145.824 487.083 145.824ZM488.76 148.143C488.76 147.803 488.691 147.507 488.554 147.255C488.417 147.003 488.231 146.811 487.995 146.679C487.765 146.542 487.51 146.474 487.231 146.474C486.951 146.474 486.696 146.54 486.466 146.671C486.236 146.803 486.052 146.994 485.915 147.247C485.778 147.499 485.71 147.795 485.71 148.134C485.71 148.48 485.778 148.781 485.915 149.039C486.052 149.291 486.236 149.485 486.466 149.622C486.696 149.754 486.951 149.82 487.231 149.82C487.51 149.82 487.765 149.754 487.995 149.622C488.231 149.485 488.417 149.291 488.554 149.039C488.691 148.781 488.76 148.482 488.76 148.143ZM491.167 145.167C491.024 145.167 490.904 145.117 490.805 145.019C490.706 144.92 490.657 144.799 490.657 144.657C490.657 144.515 490.706 144.394 490.805 144.295C490.904 144.197 491.024 144.147 491.167 144.147C491.304 144.147 491.419 144.197 491.512 144.295C491.611 144.394 491.66 144.515 491.66 144.657C491.66 144.799 491.611 144.92 491.512 145.019C491.419 145.117 491.304 145.167 491.167 145.167ZM491.528 145.898V150.403H490.78V145.898H491.528ZM494.998 145.816C495.546 145.816 495.99 145.983 496.33 146.318C496.67 146.646 496.84 147.123 496.84 147.748V150.403H496.1V147.855C496.1 147.405 495.988 147.063 495.763 146.827C495.538 146.586 495.231 146.466 494.842 146.466C494.448 146.466 494.132 146.589 493.897 146.836C493.667 147.082 493.552 147.441 493.552 147.912V150.403H492.803V145.898H493.552V146.54C493.699 146.309 493.9 146.131 494.152 146.005C494.409 145.879 494.691 145.816 494.998 145.816ZM499.657 150.477C499.311 150.477 499.002 150.42 498.728 150.305C498.454 150.184 498.237 150.02 498.078 149.811C497.919 149.598 497.832 149.354 497.815 149.08H498.588C498.61 149.304 498.714 149.488 498.9 149.631C499.092 149.773 499.342 149.844 499.648 149.844C499.933 149.844 500.158 149.781 500.323 149.655C500.487 149.529 500.569 149.37 500.569 149.178C500.569 148.981 500.481 148.836 500.306 148.743C500.131 148.644 499.859 148.548 499.492 148.455C499.158 148.367 498.884 148.28 498.67 148.192C498.462 148.099 498.281 147.964 498.128 147.789C497.98 147.608 497.906 147.373 497.906 147.082C497.906 146.852 497.974 146.641 498.111 146.449C498.248 146.257 498.443 146.107 498.695 145.997C498.947 145.882 499.235 145.824 499.558 145.824C500.057 145.824 500.46 145.95 500.766 146.203C501.073 146.455 501.238 146.8 501.26 147.238H500.512C500.495 147.003 500.399 146.814 500.224 146.671C500.054 146.529 499.824 146.457 499.533 146.457C499.265 146.457 499.051 146.515 498.892 146.63C498.733 146.745 498.654 146.896 498.654 147.082C498.654 147.23 498.7 147.353 498.793 147.452C498.892 147.545 499.013 147.622 499.155 147.682C499.303 147.737 499.506 147.8 499.764 147.871C500.087 147.959 500.35 148.047 500.553 148.134C500.755 148.217 500.928 148.343 501.071 148.513C501.219 148.682 501.295 148.904 501.301 149.178C501.301 149.425 501.232 149.647 501.095 149.844C500.958 150.042 500.764 150.198 500.512 150.313C500.265 150.423 499.98 150.477 499.657 150.477Z" fill="#92959E"/>
<path d="M455.107 169.09C456.133 168.265 456.937 167.59 457.519 167.065C458.101 166.532 458.59 165.978 458.986 165.404C459.39 164.822 459.592 164.252 459.592 163.695C459.592 163.169 459.463 162.757 459.205 162.458C458.954 162.151 458.546 161.997 457.98 161.997C457.43 161.997 457.002 162.171 456.695 162.519C456.396 162.858 456.234 163.315 456.21 163.889H455.143C455.176 162.983 455.45 162.284 455.968 161.791C456.485 161.298 457.152 161.052 457.968 161.052C458.8 161.052 459.459 161.282 459.944 161.743C460.437 162.204 460.684 162.838 460.684 163.646C460.684 164.317 460.482 164.972 460.077 165.61C459.681 166.241 459.229 166.798 458.72 167.283C458.21 167.76 457.56 168.318 456.768 168.956H460.938V169.878H455.107V169.09ZM467.802 162.167H463.547V164.931C463.733 164.673 464.008 164.463 464.371 164.301C464.735 164.131 465.127 164.046 465.547 164.046C466.218 164.046 466.764 164.188 467.184 164.471C467.604 164.745 467.903 165.105 468.081 165.55C468.267 165.986 468.36 166.451 468.36 166.944C468.36 167.526 468.251 168.047 468.033 168.508C467.814 168.968 467.479 169.332 467.026 169.599C466.582 169.865 466.028 169.999 465.366 169.999C464.517 169.999 463.83 169.781 463.305 169.344C462.779 168.908 462.46 168.326 462.347 167.598H463.426C463.531 168.059 463.753 168.419 464.093 168.677C464.432 168.936 464.86 169.065 465.378 169.065C466.016 169.065 466.497 168.875 466.82 168.496C467.144 168.108 467.305 167.598 467.305 166.968C467.305 166.338 467.144 165.853 466.82 165.513C466.497 165.166 466.02 164.992 465.39 164.992C464.961 164.992 464.586 165.097 464.262 165.307C463.947 165.509 463.717 165.788 463.571 166.144H462.529V161.197H467.802V162.167Z" fill="#15192C"/>
<defs>
<filter id="filter0_d" x="400.027" y="125.938" width="124.369" height="83.8938" filterUnits="userSpaceOnUse" color-interpolation-filters="sRGB">
<feFlood flood-opacity="0" result="BackgroundImageFix"/>
<feColorMatrix in="SourceAlpha" type="matrix" values="0 0 0 0 0 0 0 0 0 0 0 0 0 0 0 0 0 0 127 0" result="hardAlpha"/>
<feMorphology radius="2.42467" operator="erode" in="SourceAlpha" result="effect1_dropShadow"/>
<feOffset dy="10.911"/>
<feGaussianBlur stdDeviation="9.69866"/>
<feColorMatrix type="matrix" values="0 0 0 0 0.815686 0 0 0 0 0.823529 0 0 0 0 0.854902 0 0 0 0.15 0"/>
<feBlend mode="normal" in2="BackgroundImageFix" result="effect1_dropShadow"/>
<feBlend mode="normal" in="SourceGraphic" in2="effect1_dropShadow" result="shape"/>
</filter>
<linearGradient id="paint0_linear" x1="357.385" y1="43.9372" x2="357.385" y2="349.705" gradientUnits="userSpaceOnUse">
<stop stop-color="#EAFFF0"/>
<stop offset="1" stop-color="#F3FFF6"/>
</linearGradient>
</defs>
</svg>
