<svg width="655" height="372" viewBox="0 0 655 372" fill="none" xmlns="http://www.w3.org/2000/svg">
<rect x="1.46334" y="0.854454" width="651.925" height="370.5" rx="5.80923" fill="white" stroke="#E5E5E5" stroke-width="1.29094"/>
<g opacity="0.16">
<rect x="92.4741" y="166.74" width="54.3646" height="166.782" fill="#F2C94C"/>
</g>
<g opacity="0.16">
<rect x="153.148" y="174.486" width="54.3646" height="158.629" fill="#F2C94C"/>
</g>
<g opacity="0.16">
<rect x="212.532" y="146.086" width="54.3646" height="187.525" fill="#F2C94C"/>
</g>
<g opacity="0.16">
<rect x="274.497" y="131.885" width="54.3646" height="200.857" fill="#F2C94C"/>
</g>
<g opacity="0.16">
<rect x="333.88" y="199.014" width="54.3646" height="134.386" fill="#F2C94C"/>
</g>
<g opacity="0.16">
<rect x="393.264" y="166.74" width="54.3646" height="166.33" fill="#F2C94C"/>
</g>
<g opacity="0.16">
<rect x="455.229" y="151.25" width="54.3646" height="181.581" fill="#F2C94C"/>
</g>
<g opacity="0.16">
<rect x="514.612" y="228.705" width="54.3646" height="104.36" fill="#F2C94C"/>
</g>
<g opacity="0.16">
<rect x="573.996" y="126.721" width="54.3646" height="205.51" fill="#F2C94C"/>
</g>
<path d="M114.107 323.121H107.07V322.14L110.788 318.01C111.338 317.385 111.717 316.879 111.924 316.49C112.135 316.097 112.241 315.691 112.241 315.273C112.241 314.713 112.071 314.253 111.732 313.894C111.392 313.535 110.94 313.355 110.375 313.355C109.696 313.355 109.167 313.55 108.789 313.938C108.415 314.322 108.228 314.858 108.228 315.546H106.864C106.864 314.558 107.181 313.759 107.815 313.149C108.454 312.539 109.308 312.234 110.375 312.234C111.373 312.234 112.162 312.497 112.742 313.024C113.323 313.545 113.613 314.241 113.613 315.111C113.613 316.168 112.939 317.427 111.592 318.887L108.715 322.007H114.107V323.121ZM116.683 317.737L117.229 312.382H122.731V313.643H118.387L118.062 316.571C118.588 316.262 119.186 316.107 119.855 316.107C120.833 316.107 121.61 316.431 122.185 317.08C122.761 317.724 123.048 318.597 123.048 319.699C123.048 320.805 122.748 321.678 122.148 322.317C121.553 322.951 120.72 323.269 119.648 323.269C118.699 323.269 117.925 323.006 117.325 322.479C116.725 321.953 116.383 321.225 116.299 320.296H117.59C117.674 320.911 117.893 321.375 118.247 321.69C118.601 322 119.068 322.155 119.648 322.155C120.282 322.155 120.779 321.938 121.138 321.506C121.502 321.073 121.684 320.476 121.684 319.713C121.684 318.996 121.487 318.42 121.094 317.987C120.705 317.55 120.186 317.331 119.537 317.331C118.942 317.331 118.475 317.461 118.136 317.722L117.775 318.017L116.683 317.737ZM130.397 312.374V313.532H130.146C129.084 313.552 128.238 313.867 127.609 314.477C126.979 315.086 126.615 315.944 126.517 317.051C127.082 316.402 127.854 316.077 128.833 316.077C129.767 316.077 130.512 316.407 131.068 317.066C131.628 317.724 131.909 318.575 131.909 319.618C131.909 320.724 131.606 321.609 131.001 322.273C130.402 322.937 129.595 323.269 128.582 323.269C127.555 323.269 126.721 322.875 126.082 322.088C125.443 321.297 125.123 320.279 125.123 319.035V318.511C125.123 316.534 125.543 315.025 126.384 313.982C127.23 312.935 128.486 312.399 130.153 312.374H130.397ZM128.604 317.213C128.137 317.213 127.707 317.353 127.314 317.633C126.92 317.914 126.647 318.265 126.495 318.688V319.19C126.495 320.075 126.694 320.788 127.092 321.329C127.491 321.87 127.987 322.14 128.582 322.14C129.197 322.14 129.679 321.914 130.028 321.462C130.382 321.009 130.559 320.417 130.559 319.684C130.559 318.946 130.379 318.351 130.021 317.899C129.666 317.442 129.194 317.213 128.604 317.213Z" fill="#263238"/>
<path d="M113.563 194.362L113.563 193.103L120.289 193.103C121.198 193.103 121.909 193.377 122.422 193.925C122.935 194.468 123.192 195.194 123.192 196.103C123.192 197.047 122.95 197.782 122.467 198.308C121.985 198.835 121.308 199.098 120.439 199.098L120.439 197.845C120.982 197.845 121.406 197.697 121.711 197.402C122.015 197.101 122.167 196.669 122.167 196.103C122.167 195.586 122.004 195.168 121.678 194.851C121.352 194.529 120.895 194.366 120.308 194.362L113.563 194.362ZM122.363 186.434C122.915 186.903 123.192 187.593 123.192 188.502C123.192 189.254 122.974 189.828 122.539 190.224C122.1 190.615 121.452 190.813 120.595 190.817L116.003 190.817L116.003 189.611L120.563 189.611C121.632 189.611 122.167 189.176 122.167 188.306C122.167 187.384 121.824 186.771 121.137 186.466L116.003 186.466L116.003 185.26L123.061 185.26L123.061 186.408L122.363 186.434ZM123.061 181.741L123.061 182.948L113.041 182.948L113.041 181.741L123.061 181.741ZM121.293 177.127L116.003 175.483L116.003 174.192L124.15 177.029C125.325 177.469 125.912 178.167 125.912 179.123L125.892 179.352L125.807 179.802L124.829 179.802L124.855 179.476C124.855 179.067 124.772 178.749 124.607 178.523C124.442 178.293 124.14 178.104 123.7 177.956L122.983 177.688L116.003 180.206L116.003 178.889L121.293 177.127ZM123.061 162.961L123.061 169.184L122.193 169.184L118.54 165.896C117.988 165.409 117.54 165.075 117.197 164.892C116.849 164.705 116.49 164.611 116.12 164.611C115.624 164.611 115.218 164.761 114.9 165.061C114.583 165.362 114.424 165.762 114.424 166.262C114.424 166.862 114.596 167.329 114.939 167.664C115.279 167.995 115.753 168.16 116.362 168.16L116.362 169.367C115.487 169.367 114.781 169.086 114.241 168.525C113.702 167.96 113.433 167.205 113.433 166.262C113.433 165.379 113.665 164.681 114.131 164.168C114.592 163.655 115.207 163.398 115.977 163.398C116.912 163.398 118.025 163.994 119.317 165.185L122.076 167.73L122.076 162.961L123.061 162.961ZM119.01 155.359C120.423 155.359 121.474 155.601 122.161 156.083C122.848 156.566 123.191 157.321 123.192 158.347C123.192 159.36 122.857 160.11 122.187 160.597C121.513 161.085 120.508 161.337 119.173 161.354L117.562 161.354C116.166 161.354 115.129 161.113 114.45 160.63C113.772 160.147 113.433 159.391 113.433 158.36C113.433 157.338 113.761 156.586 114.418 156.103C115.07 155.62 116.079 155.372 117.444 155.359L119.01 155.359ZM117.36 156.566C116.338 156.566 115.594 156.71 115.129 156.997C114.659 157.284 114.424 157.738 114.424 158.36C114.424 158.977 114.657 159.428 115.122 159.71C115.587 159.993 116.303 160.139 117.268 160.147L119.199 160.147C120.226 160.147 120.984 159.999 121.476 159.704C121.963 159.404 122.206 158.951 122.206 158.347C122.206 157.751 121.976 157.31 121.515 157.023C121.054 156.731 120.328 156.579 119.336 156.566L117.36 156.566ZM123.061 147.223L123.061 153.446L122.193 153.446L118.54 150.158C117.988 149.671 117.54 149.336 117.197 149.153C116.849 148.966 116.49 148.873 116.12 148.873C115.624 148.873 115.218 149.023 114.9 149.323C114.583 149.623 114.424 150.023 114.424 150.523C114.424 151.123 114.596 151.591 114.939 151.926C115.279 152.256 115.753 152.422 116.362 152.422L116.362 153.628C115.487 153.628 114.781 153.348 114.241 152.787C113.702 152.222 113.433 151.467 113.433 150.523C113.433 149.64 113.665 148.942 114.131 148.429C114.592 147.916 115.207 147.66 115.977 147.66C116.912 147.66 118.025 148.255 119.317 149.447L122.076 151.991L122.076 147.223L123.061 147.223ZM123.061 141.61L123.061 142.824L115.018 142.824L115.911 145.257L114.816 145.257L113.517 141.8L113.517 141.61L123.061 141.61Z" fill="#263238"/>
<path d="M174.104 192.987L174.104 191.728L180.83 191.728C181.739 191.728 182.45 192.002 182.963 192.55C183.476 193.093 183.733 193.819 183.733 194.728C183.733 195.672 183.491 196.407 183.008 196.933C182.526 197.46 181.849 197.723 180.98 197.723L180.98 196.47C181.523 196.47 181.947 196.322 182.252 196.027C182.556 195.726 182.708 195.294 182.708 194.728C182.708 194.211 182.545 193.793 182.219 193.476C181.893 193.154 181.436 192.991 180.849 192.987L174.104 192.987ZM182.904 185.059C183.456 185.528 183.733 186.218 183.733 187.127C183.733 187.879 183.515 188.453 183.08 188.849C182.641 189.24 181.993 189.438 181.136 189.442L176.544 189.442L176.544 188.236L181.104 188.236C182.173 188.236 182.708 187.801 182.708 186.931C182.708 186.009 182.365 185.396 181.678 185.091L176.544 185.091L176.544 183.885L183.602 183.885L183.602 185.033L182.904 185.059ZM183.602 180.366L183.602 181.573L173.582 181.573L173.582 180.366L183.602 180.366ZM181.834 175.752L176.544 174.108L176.544 172.817L184.691 175.654C185.866 176.094 186.453 176.792 186.453 177.748L186.433 177.977L186.348 178.427L185.37 178.427L185.396 178.101C185.396 177.692 185.313 177.374 185.148 177.148C184.983 176.918 184.681 176.729 184.241 176.581L183.524 176.313L176.544 178.831L176.544 177.514L181.834 175.752ZM183.602 161.586L183.602 167.809L182.734 167.809L179.081 164.521C178.529 164.034 178.081 163.7 177.738 163.517C177.39 163.33 177.031 163.236 176.661 163.236C176.165 163.236 175.759 163.386 175.441 163.686C175.124 163.987 174.965 164.387 174.965 164.887C174.965 165.487 175.137 165.954 175.48 166.289C175.82 166.62 176.294 166.785 176.903 166.785L176.903 167.992C176.028 167.992 175.322 167.711 174.783 167.15C174.243 166.585 173.974 165.83 173.974 164.887C173.974 164.004 174.206 163.306 174.672 162.793C175.133 162.28 175.748 162.023 176.518 162.023C177.453 162.023 178.566 162.619 179.858 163.81L182.617 166.355L182.617 161.586L183.602 161.586ZM179.551 153.984C180.964 153.984 182.015 154.226 182.702 154.708C183.389 155.191 183.733 155.946 183.733 156.972C183.733 157.985 183.398 158.735 182.728 159.222C182.054 159.71 181.049 159.962 179.714 159.979L178.103 159.979C176.707 159.979 175.67 159.738 174.991 159.255C174.313 158.772 173.974 158.016 173.974 156.985C173.974 155.963 174.302 155.211 174.959 154.728C175.611 154.245 176.62 153.997 177.985 153.984L179.551 153.984ZM177.901 155.191C176.879 155.191 176.135 155.335 175.67 155.622C175.2 155.909 174.965 156.363 174.965 156.985C174.965 157.602 175.198 158.053 175.663 158.335C176.128 158.618 176.844 158.764 177.809 158.772L179.74 158.772C180.767 158.772 181.525 158.624 182.017 158.329C182.504 158.029 182.747 157.576 182.747 156.972C182.747 156.376 182.517 155.935 182.056 155.648C181.595 155.356 180.869 155.204 179.877 155.191L177.901 155.191ZM183.602 145.848L183.602 152.071L182.734 152.071L179.081 148.783C178.529 148.296 178.081 147.961 177.738 147.778C177.39 147.591 177.031 147.498 176.661 147.498C176.165 147.498 175.759 147.648 175.441 147.948C175.124 148.248 174.965 148.648 174.965 149.148C174.965 149.748 175.137 150.216 175.48 150.551C175.82 150.881 176.294 151.047 176.903 151.047L176.903 152.253C176.028 152.253 175.322 151.973 174.783 151.412C174.243 150.847 173.974 150.092 173.974 149.148C173.974 148.265 174.206 147.567 174.672 147.054C175.133 146.541 175.748 146.285 176.518 146.285C177.453 146.285 178.566 146.88 179.858 148.072L182.617 150.616L182.617 145.848L183.602 145.848ZM183.602 140.235L183.602 141.449L175.559 141.449L176.452 143.882L175.357 143.882L174.058 140.425L174.058 140.235L183.602 140.235Z" fill="#263238"/>
<path d="M234.646 172.348L234.646 171.089L241.371 171.089C242.28 171.089 242.991 171.363 243.504 171.911C244.017 172.455 244.274 173.181 244.274 174.09C244.274 175.033 244.033 175.768 243.55 176.295C243.067 176.821 242.391 177.084 241.521 177.084L241.521 175.831C242.065 175.831 242.489 175.684 242.793 175.388C243.098 175.088 243.25 174.655 243.25 174.09C243.25 173.572 243.087 173.155 242.761 172.837C242.434 172.515 241.978 172.352 241.391 172.348L234.646 172.348ZM243.446 164.42C243.998 164.89 244.274 165.579 244.274 166.488C244.274 167.24 244.057 167.814 243.622 168.21C243.182 168.602 242.534 168.799 241.678 168.804L237.085 168.804L237.085 167.597L241.645 167.597C242.715 167.597 243.25 167.162 243.25 166.292C243.25 165.37 242.906 164.757 242.219 164.453L237.085 164.453L237.085 163.246L244.144 163.246L244.144 164.394L243.446 164.42ZM244.144 159.728L244.144 160.935L234.124 160.935L234.124 159.728L244.144 159.728ZM242.376 155.114L237.085 153.47L237.085 152.178L245.233 155.016C246.407 155.455 246.994 156.153 246.994 157.11L246.975 157.338L246.89 157.788L245.911 157.788L245.937 157.462C245.937 157.053 245.855 156.736 245.69 156.51C245.524 156.279 245.222 156.09 244.783 155.942L244.065 155.675L237.085 158.193L237.085 156.875L242.376 155.114ZM244.144 140.947L244.144 147.171L243.276 147.171L239.623 143.883C239.071 143.396 238.623 143.061 238.279 142.878C237.931 142.691 237.572 142.598 237.203 142.598C236.707 142.598 236.3 142.748 235.983 143.048C235.665 143.348 235.507 143.748 235.507 144.248C235.507 144.848 235.678 145.316 236.022 145.651C236.361 145.981 236.835 146.146 237.444 146.146L237.444 147.353C236.57 147.353 235.863 147.073 235.324 146.512C234.785 145.946 234.515 145.192 234.515 144.248C234.515 143.365 234.748 142.667 235.213 142.154C235.674 141.641 236.289 141.384 237.059 141.384C237.994 141.384 239.108 141.98 240.399 143.172L243.159 145.716L243.159 140.947L244.144 140.947ZM240.093 133.346C241.506 133.346 242.556 133.587 243.243 134.07C243.93 134.552 244.274 135.307 244.274 136.333C244.274 137.346 243.939 138.097 243.269 138.584C242.595 139.071 241.591 139.323 240.256 139.34L238.644 139.34C237.248 139.34 236.211 139.099 235.533 138.616C234.854 138.134 234.515 137.377 234.515 136.346C234.515 135.324 234.843 134.572 235.5 134.089C236.152 133.606 237.161 133.359 238.527 133.346L240.093 133.346ZM238.442 134.552C237.42 134.552 236.677 134.696 236.211 134.983C235.741 135.27 235.507 135.724 235.507 136.346C235.507 136.964 235.739 137.414 236.205 137.697C236.67 137.979 237.385 138.125 238.351 138.134L240.282 138.134C241.308 138.134 242.067 137.986 242.558 137.69C243.045 137.39 243.289 136.938 243.289 136.333C243.289 135.737 243.059 135.296 242.598 135.009C242.137 134.718 241.41 134.565 240.419 134.552L238.442 134.552ZM244.144 125.209L244.144 131.432L243.276 131.432L239.623 128.144C239.071 127.657 238.623 127.322 238.279 127.14C237.931 126.953 237.572 126.859 237.203 126.859C236.707 126.859 236.3 127.009 235.983 127.309C235.665 127.609 235.507 128.01 235.507 128.51C235.507 129.11 235.678 129.577 236.022 129.912C236.361 130.243 236.835 130.408 237.444 130.408L237.444 131.615C236.57 131.615 235.863 131.334 235.324 130.773C234.785 130.208 234.515 129.453 234.515 128.51C234.515 127.627 234.748 126.929 235.213 126.416C235.674 125.902 236.289 125.646 237.059 125.646C237.994 125.646 239.108 126.242 240.399 127.433L243.159 129.977L243.159 125.209L244.144 125.209ZM244.144 119.597L244.144 120.81L236.1 120.81L236.994 123.243L235.898 123.243L234.6 119.786L234.6 119.597L244.144 119.597Z" fill="#263238"/>
<path d="M296.563 172.348L296.563 171.089L303.288 171.089C304.197 171.089 304.908 171.363 305.421 171.911C305.934 172.455 306.191 173.181 306.191 174.09C306.191 175.033 305.95 175.768 305.467 176.295C304.984 176.821 304.308 177.084 303.438 177.084L303.438 175.831C303.982 175.831 304.406 175.684 304.71 175.388C305.015 175.088 305.167 174.655 305.167 174.09C305.167 173.572 305.004 173.155 304.678 172.837C304.351 172.515 303.895 172.352 303.308 172.348L296.563 172.348ZM305.363 164.42C305.915 164.89 306.191 165.579 306.191 166.488C306.191 167.24 305.974 167.814 305.539 168.21C305.099 168.602 304.451 168.799 303.595 168.804L299.002 168.804L299.002 167.597L303.562 167.597C304.632 167.597 305.167 167.162 305.167 166.292C305.167 165.37 304.823 164.757 304.136 164.453L299.002 164.453L299.002 163.246L306.061 163.246L306.061 164.394L305.363 164.42ZM306.061 159.728L306.061 160.935L296.041 160.935L296.041 159.728L306.061 159.728ZM304.293 155.114L299.002 153.47L299.002 152.178L307.15 155.016C308.324 155.455 308.911 156.153 308.911 157.11L308.892 157.338L308.807 157.788L307.828 157.788L307.854 157.462C307.854 157.053 307.772 156.736 307.607 156.51C307.441 156.279 307.139 156.09 306.7 155.942L305.982 155.675L299.002 158.193L299.002 156.875L304.293 155.114ZM306.061 140.947L306.061 147.171L305.193 147.171L301.54 143.883C300.988 143.396 300.54 143.061 300.196 142.878C299.848 142.691 299.489 142.598 299.12 142.598C298.624 142.598 298.217 142.748 297.9 143.048C297.582 143.348 297.424 143.748 297.424 144.248C297.424 144.848 297.595 145.316 297.939 145.651C298.278 145.981 298.752 146.146 299.361 146.146L299.361 147.353C298.487 147.353 297.78 147.073 297.241 146.512C296.702 145.946 296.432 145.192 296.432 144.248C296.432 143.365 296.665 142.667 297.13 142.154C297.591 141.641 298.206 141.384 298.976 141.384C299.911 141.384 301.025 141.98 302.316 143.172L305.076 145.716L305.076 140.947L306.061 140.947ZM302.01 133.346C303.423 133.346 304.473 133.587 305.16 134.07C305.847 134.552 306.191 135.307 306.191 136.333C306.191 137.346 305.856 138.097 305.186 138.584C304.512 139.071 303.508 139.323 302.173 139.34L300.561 139.34C299.165 139.34 298.128 139.099 297.45 138.616C296.771 138.134 296.432 137.377 296.432 136.346C296.432 135.324 296.76 134.572 297.417 134.089C298.069 133.606 299.078 133.359 300.444 133.346L302.01 133.346ZM300.359 134.552C299.337 134.552 298.594 134.696 298.128 134.983C297.658 135.27 297.424 135.724 297.424 136.346C297.424 136.964 297.656 137.414 298.122 137.697C298.587 137.979 299.302 138.125 300.268 138.134L302.199 138.134C303.225 138.134 303.984 137.986 304.475 137.69C304.962 137.39 305.206 136.938 305.206 136.333C305.206 135.737 304.975 135.296 304.515 135.009C304.054 134.718 303.327 134.565 302.336 134.552L300.359 134.552ZM306.061 125.209L306.061 131.432L305.193 131.432L301.54 128.144C300.988 127.657 300.54 127.322 300.196 127.14C299.848 126.953 299.489 126.859 299.12 126.859C298.624 126.859 298.217 127.009 297.9 127.309C297.582 127.609 297.424 128.01 297.424 128.51C297.424 129.11 297.595 129.577 297.939 129.912C298.278 130.243 298.752 130.408 299.361 130.408L299.361 131.615C298.487 131.615 297.78 131.334 297.241 130.773C296.702 130.208 296.432 129.453 296.432 128.51C296.432 127.627 296.665 126.929 297.13 126.416C297.591 125.902 298.206 125.646 298.976 125.646C299.911 125.646 301.025 126.242 302.316 127.433L305.076 129.977L305.076 125.209L306.061 125.209ZM306.061 119.597L306.061 120.81L298.017 120.81L298.911 123.243L297.815 123.243L296.517 119.786L296.517 119.597L306.061 119.597Z" fill="#263238"/>
<path d="M355.728 224.633L355.728 223.374L362.453 223.374C363.362 223.374 364.073 223.648 364.586 224.196C365.099 224.74 365.356 225.466 365.356 226.375C365.356 227.319 365.115 228.054 364.632 228.58C364.149 229.106 363.473 229.369 362.603 229.369L362.603 228.117C363.147 228.117 363.571 227.969 363.875 227.673C364.18 227.373 364.332 226.94 364.332 226.375C364.332 225.857 364.169 225.44 363.843 225.122C363.516 224.801 363.06 224.638 362.473 224.633L355.728 224.633ZM364.528 216.705C365.08 217.175 365.356 217.864 365.356 218.773C365.356 219.525 365.139 220.1 364.704 220.495C364.264 220.887 363.616 221.085 362.76 221.089L358.167 221.089L358.167 219.882L362.727 219.882C363.797 219.882 364.332 219.447 364.332 218.577C364.332 217.655 363.988 217.042 363.301 216.738L358.167 216.738L358.167 215.531L365.226 215.531L365.226 216.679L364.528 216.705ZM365.226 212.013L365.226 213.22L355.206 213.22L355.206 212.013L365.226 212.013ZM363.458 207.399L358.167 205.755L358.167 204.463L366.315 207.301C367.489 207.74 368.076 208.438 368.076 209.395L368.057 209.623L367.972 210.073L366.993 210.073L367.02 209.747C367.02 209.338 366.937 209.021 366.772 208.795C366.606 208.564 366.304 208.375 365.865 208.227L365.147 207.96L358.167 210.478L358.167 209.16L363.458 207.399ZM365.226 193.232L365.226 199.456L364.358 199.456L360.705 196.168C360.153 195.681 359.705 195.346 359.361 195.163C359.013 194.976 358.654 194.883 358.285 194.883C357.789 194.883 357.382 195.033 357.065 195.333C356.747 195.633 356.589 196.033 356.589 196.533C356.589 197.133 356.76 197.601 357.104 197.936C357.443 198.266 357.917 198.432 358.526 198.432L358.526 199.638C357.652 199.638 356.945 199.358 356.406 198.797C355.867 198.231 355.597 197.477 355.597 196.533C355.597 195.65 355.83 194.952 356.295 194.439C356.756 193.926 357.371 193.67 358.141 193.67C359.076 193.67 360.19 194.265 361.481 195.457L364.241 198.001L364.241 193.232L365.226 193.232ZM361.175 185.631C362.588 185.631 363.638 185.872 364.325 186.355C365.012 186.837 365.356 187.592 365.356 188.618C365.356 189.632 365.021 190.382 364.351 190.869C363.677 191.356 362.673 191.608 361.338 191.626L359.726 191.626C358.33 191.626 357.293 191.384 356.615 190.902C355.936 190.419 355.597 189.662 355.597 188.631C355.597 187.609 355.925 186.857 356.582 186.374C357.235 185.892 358.243 185.644 359.609 185.631L361.175 185.631ZM359.524 186.837C358.502 186.837 357.759 186.981 357.293 187.268C356.824 187.555 356.589 188.01 356.589 188.631C356.589 189.249 356.821 189.699 357.287 189.982C357.752 190.264 358.467 190.41 359.433 190.419L361.364 190.419C362.39 190.419 363.149 190.271 363.64 189.975C364.127 189.675 364.371 189.223 364.371 188.618C364.371 188.023 364.141 187.581 363.68 187.294C363.219 187.003 362.492 186.851 361.501 186.837L359.524 186.837ZM365.226 177.494L365.226 183.717L364.358 183.717L360.705 180.429C360.153 179.942 359.705 179.608 359.361 179.425C359.013 179.238 358.654 179.144 358.285 179.144C357.789 179.144 357.382 179.294 357.065 179.595C356.747 179.895 356.589 180.295 356.589 180.795C356.589 181.395 356.76 181.862 357.104 182.197C357.443 182.528 357.917 182.693 358.526 182.693L358.526 183.9C357.652 183.9 356.945 183.619 356.406 183.058C355.867 182.493 355.597 181.739 355.597 180.795C355.597 179.912 355.83 179.214 356.295 178.701C356.756 178.188 357.371 177.931 358.141 177.931C359.076 177.931 360.19 178.527 361.481 179.718L364.241 182.263L364.241 177.494L365.226 177.494ZM365.226 171.882L365.226 173.095L357.182 173.095L358.076 175.528L356.98 175.528L355.682 172.071L355.682 171.882L365.226 171.882Z" fill="#263238"/>
<path d="M414.893 206.746L414.893 205.487L421.619 205.487C422.528 205.487 423.239 205.761 423.752 206.309C424.265 206.853 424.522 207.579 424.522 208.488C424.522 209.432 424.28 210.167 423.797 210.693C423.315 211.219 422.639 211.482 421.769 211.482L421.769 210.23C422.312 210.23 422.736 210.082 423.041 209.786C423.345 209.486 423.497 209.054 423.497 208.488C423.497 207.971 423.334 207.553 423.008 207.236C422.682 206.914 422.225 206.751 421.638 206.746L414.893 206.746ZM423.693 198.819C424.245 199.288 424.522 199.977 424.522 200.886C424.522 201.639 424.304 202.213 423.869 202.609C423.43 203 422.782 203.198 421.925 203.202L417.333 203.202L417.333 201.995L421.893 201.995C422.963 201.995 423.497 201.56 423.497 200.691C423.497 199.769 423.154 199.156 422.467 198.851L417.333 198.851L417.333 197.644L424.391 197.644L424.391 198.792L423.693 198.819ZM424.391 194.126L424.391 195.333L414.371 195.333L414.371 194.126L424.391 194.126ZM422.623 189.512L417.333 187.868L417.333 186.577L425.481 189.414C426.655 189.853 427.242 190.551 427.242 191.508L427.222 191.737L427.137 192.187L426.159 192.187L426.185 191.86C426.185 191.452 426.102 191.134 425.937 190.908C425.772 190.678 425.47 190.488 425.03 190.341L424.313 190.073L417.333 192.591L417.333 191.273L422.623 189.512ZM424.391 175.346L424.391 181.569L423.524 181.569L419.87 178.281C419.318 177.794 418.87 177.459 418.527 177.277C418.179 177.09 417.82 176.996 417.45 176.996C416.955 176.996 416.548 177.146 416.23 177.446C415.913 177.746 415.754 178.146 415.754 178.647C415.754 179.247 415.926 179.714 416.27 180.049C416.609 180.38 417.083 180.545 417.692 180.545L417.692 181.752C416.818 181.752 416.111 181.471 415.572 180.91C415.032 180.345 414.763 179.59 414.763 178.647C414.763 177.764 414.995 177.066 415.461 176.553C415.922 176.039 416.537 175.783 417.307 175.783C418.242 175.783 419.355 176.379 420.647 177.57L423.406 180.114L423.406 175.346L424.391 175.346ZM420.34 167.744C421.754 167.744 422.804 167.985 423.491 168.468C424.178 168.951 424.522 169.705 424.522 170.732C424.522 171.745 424.187 172.495 423.517 172.982C422.843 173.469 421.838 173.722 420.503 173.739L418.892 173.739C417.496 173.739 416.459 173.498 415.78 173.015C415.102 172.532 414.763 171.775 414.763 170.745C414.763 169.723 415.091 168.97 415.748 168.488C416.4 168.005 417.409 167.757 418.775 167.744L420.34 167.744ZM418.69 168.951C417.668 168.951 416.924 169.094 416.459 169.381C415.989 169.668 415.754 170.123 415.754 170.745C415.754 171.362 415.987 171.812 416.452 172.095C416.918 172.378 417.633 172.523 418.598 172.532L420.529 172.532C421.556 172.532 422.315 172.384 422.806 172.088C423.293 171.788 423.537 171.336 423.537 170.732C423.537 170.136 423.306 169.694 422.845 169.407C422.384 169.116 421.658 168.964 420.666 168.951L418.69 168.951ZM424.391 159.607L424.391 165.831L423.524 165.831L419.87 162.543C419.318 162.056 418.87 161.721 418.527 161.538C418.179 161.351 417.82 161.258 417.45 161.258C416.955 161.258 416.548 161.408 416.23 161.708C415.913 162.008 415.754 162.408 415.754 162.908C415.754 163.508 415.926 163.976 416.27 164.311C416.609 164.641 417.083 164.806 417.692 164.806L417.692 166.013C416.818 166.013 416.111 165.733 415.572 165.172C415.032 164.606 414.763 163.852 414.763 162.908C414.763 162.025 414.995 161.327 415.461 160.814C415.922 160.301 416.537 160.044 417.307 160.044C418.242 160.044 419.355 160.64 420.647 161.832L423.406 164.376L423.406 159.607L424.391 159.607ZM424.391 153.995L424.391 155.208L416.348 155.208L417.242 157.642L416.146 157.642L414.847 154.184L414.847 153.995L424.391 153.995Z" fill="#263238"/>
<path d="M478.186 194.364L478.186 193.105L484.912 193.105C485.821 193.105 486.532 193.379 487.045 193.927C487.558 194.47 487.815 195.196 487.815 196.105C487.815 197.049 487.573 197.784 487.09 198.31C486.608 198.836 485.931 199.1 485.062 199.1L485.062 197.847C485.605 197.847 486.029 197.699 486.334 197.404C486.638 197.103 486.79 196.671 486.79 196.105C486.79 195.588 486.627 195.17 486.301 194.853C485.975 194.531 485.518 194.368 484.931 194.364L478.186 194.364ZM486.986 186.436C487.538 186.905 487.815 187.595 487.815 188.504C487.815 189.256 487.597 189.83 487.162 190.226C486.723 190.617 486.075 190.815 485.218 190.819L480.626 190.819L480.626 189.613L485.186 189.613C486.255 189.613 486.79 189.178 486.79 188.308C486.79 187.386 486.447 186.773 485.76 186.468L480.626 186.468L480.626 185.261L487.684 185.261L487.684 186.41L486.986 186.436ZM487.684 181.743L487.684 182.95L477.664 182.95L477.664 181.743L487.684 181.743ZM485.916 177.129L480.626 175.485L480.626 174.194L488.773 177.031C489.948 177.471 490.535 178.169 490.535 179.125L490.515 179.354L490.43 179.804L489.452 179.804L489.478 179.478C489.478 179.069 489.395 178.751 489.23 178.525C489.065 178.295 488.763 178.106 488.323 177.958L487.606 177.69L480.626 180.208L480.626 178.891L485.916 177.129ZM487.684 162.963L487.684 169.186L486.816 169.186L483.163 165.898C482.611 165.411 482.163 165.076 481.82 164.894C481.472 164.707 481.113 164.613 480.743 164.613C480.247 164.613 479.841 164.763 479.523 165.063C479.206 165.364 479.047 165.764 479.047 166.264C479.047 166.864 479.219 167.331 479.563 167.666C479.902 167.997 480.376 168.162 480.985 168.162L480.985 169.369C480.11 169.369 479.404 169.088 478.865 168.527C478.325 167.962 478.056 167.207 478.056 166.264C478.056 165.381 478.288 164.683 478.754 164.17C479.215 163.657 479.83 163.4 480.6 163.4C481.535 163.4 482.648 163.996 483.94 165.187L486.699 167.731L486.699 162.963L487.684 162.963ZM483.633 155.361C485.046 155.361 486.097 155.603 486.784 156.085C487.471 156.568 487.815 157.322 487.815 158.349C487.815 159.362 487.48 160.112 486.81 160.599C486.136 161.086 485.131 161.339 483.796 161.356L482.185 161.356C480.789 161.356 479.752 161.115 479.073 160.632C478.395 160.149 478.056 159.393 478.056 158.362C478.056 157.34 478.384 156.588 479.041 156.105C479.693 155.622 480.702 155.374 482.067 155.361L483.633 155.361ZM481.983 156.568C480.961 156.568 480.217 156.711 479.752 156.999C479.282 157.286 479.047 157.74 479.047 158.362C479.047 158.979 479.28 159.43 479.745 159.712C480.211 159.995 480.926 160.141 481.891 160.149L483.822 160.149C484.849 160.149 485.607 160.001 486.099 159.706C486.586 159.406 486.83 158.953 486.83 158.349C486.83 157.753 486.599 157.312 486.138 157.025C485.677 156.733 484.951 156.581 483.959 156.568L481.983 156.568ZM487.684 147.224L487.684 153.448L486.816 153.448L483.163 150.16C482.611 149.673 482.163 149.338 481.82 149.155C481.472 148.968 481.113 148.875 480.743 148.875C480.247 148.875 479.841 149.025 479.523 149.325C479.206 149.625 479.047 150.025 479.047 150.525C479.047 151.125 479.219 151.593 479.563 151.928C479.902 152.258 480.376 152.424 480.985 152.424L480.985 153.63C480.11 153.63 479.404 153.35 478.865 152.789C478.325 152.224 478.056 151.469 478.056 150.525C478.056 149.642 478.288 148.944 478.754 148.431C479.215 147.918 479.83 147.662 480.6 147.662C481.535 147.662 482.648 148.257 483.94 149.449L486.699 151.993L486.699 147.224L487.684 147.224ZM487.684 141.612L487.684 142.826L479.641 142.826L480.535 145.259L479.439 145.259L478.14 141.801L478.14 141.612L487.684 141.612Z" fill="#263238"/>
<path d="M535.976 250.776L535.976 249.517L542.701 249.517C543.61 249.517 544.321 249.791 544.834 250.339C545.348 250.882 545.604 251.609 545.604 252.517C545.604 253.461 545.363 254.196 544.88 254.722C544.397 255.249 543.721 255.512 542.851 255.512L542.851 254.259C543.395 254.259 543.819 254.111 544.123 253.816C544.428 253.516 544.58 253.083 544.58 252.517C544.58 252 544.417 251.582 544.091 251.265C543.765 250.943 543.308 250.78 542.721 250.776L535.976 250.776ZM544.776 242.848C545.328 243.317 545.604 244.007 545.604 244.916C545.604 245.668 545.387 246.242 544.952 246.638C544.513 247.029 543.865 247.227 543.008 247.231L538.415 247.231L538.415 246.025L542.975 246.025C544.045 246.025 544.58 245.59 544.58 244.72C544.58 243.798 544.236 243.185 543.549 242.88L538.415 242.88L538.415 241.674L545.474 241.674L545.474 242.822L544.776 242.848ZM545.474 238.155L545.474 239.362L535.454 239.362L535.454 238.155L545.474 238.155ZM543.706 233.541L538.415 231.897L538.415 230.606L546.563 233.444C547.737 233.883 548.324 234.581 548.324 235.537L548.305 235.766L548.22 236.216L547.241 236.216L547.268 235.89C547.268 235.481 547.185 235.163 547.02 234.937C546.854 234.707 546.552 234.518 546.113 234.37L545.395 234.102L538.415 236.62L538.415 235.303L543.706 233.541ZM545.474 219.375L545.474 225.598L544.606 225.598L540.953 222.311C540.401 221.823 539.953 221.489 539.609 221.306C539.261 221.119 538.902 221.025 538.533 221.025C538.037 221.025 537.63 221.175 537.313 221.476C536.995 221.776 536.837 222.176 536.837 222.676C536.837 223.276 537.009 223.743 537.352 224.078C537.691 224.409 538.165 224.574 538.774 224.574L538.774 225.781C537.9 225.781 537.193 225.5 536.654 224.939C536.115 224.374 535.845 223.62 535.845 222.676C535.845 221.793 536.078 221.095 536.543 220.582C537.004 220.069 537.62 219.812 538.389 219.812C539.324 219.812 540.438 220.408 541.729 221.599L544.489 224.144L544.489 219.375L545.474 219.375ZM541.423 211.773C542.836 211.773 543.886 212.015 544.573 212.497C545.261 212.98 545.604 213.735 545.604 214.761C545.604 215.774 545.269 216.524 544.6 217.011C543.925 217.499 542.921 217.751 541.586 217.768L539.974 217.768C538.578 217.768 537.541 217.527 536.863 217.044C536.184 216.561 535.845 215.805 535.845 214.774C535.845 213.752 536.174 213 536.83 212.517C537.483 212.034 538.491 211.786 539.857 211.773L541.423 211.773ZM539.772 212.98C538.75 212.98 538.007 213.124 537.541 213.411C537.072 213.698 536.837 214.152 536.837 214.774C536.837 215.392 537.069 215.842 537.535 216.124C538 216.407 538.715 216.553 539.681 216.561L541.612 216.561C542.638 216.561 543.397 216.414 543.888 216.118C544.376 215.818 544.619 215.365 544.619 214.761C544.619 214.165 544.389 213.724 543.928 213.437C543.467 213.145 542.74 212.993 541.749 212.98L539.772 212.98ZM545.474 203.637L545.474 209.86L544.606 209.86L540.953 206.572C540.401 206.085 539.953 205.75 539.609 205.567C539.261 205.38 538.902 205.287 538.533 205.287C538.037 205.287 537.63 205.437 537.313 205.737C536.995 206.037 536.837 206.437 536.837 206.937C536.837 207.538 537.009 208.005 537.352 208.34C537.691 208.67 538.165 208.836 538.774 208.836L538.774 210.042C537.9 210.042 537.193 209.762 536.654 209.201C536.115 208.636 535.845 207.881 535.845 206.937C535.845 206.055 536.078 205.357 536.543 204.843C537.004 204.33 537.62 204.074 538.389 204.074C539.324 204.074 540.438 204.669 541.729 205.861L544.489 208.405L544.489 203.637L545.474 203.637ZM545.474 198.024L545.474 199.238L537.43 199.238L538.324 201.671L537.228 201.671L535.93 198.214L535.93 198.024L545.474 198.024Z" fill="#263238"/>
<path d="M595.141 157.213L595.141 155.954L601.866 155.954C602.775 155.954 603.486 156.228 603.999 156.776C604.513 157.32 604.769 158.046 604.769 158.955C604.769 159.899 604.528 160.634 604.045 161.16C603.562 161.686 602.886 161.949 602.016 161.949L602.016 160.697C602.56 160.697 602.984 160.549 603.288 160.253C603.593 159.953 603.745 159.52 603.745 158.955C603.745 158.437 603.582 158.02 603.256 157.702C602.93 157.381 602.473 157.218 601.886 157.213L595.141 157.213ZM603.941 149.285C604.493 149.755 604.769 150.444 604.769 151.353C604.769 152.106 604.552 152.68 604.117 153.075C603.678 153.467 603.03 153.665 602.173 153.669L597.58 153.669L597.58 152.462L602.14 152.462C603.21 152.462 603.745 152.027 603.745 151.158C603.745 150.236 603.401 149.622 602.714 149.318L597.58 149.318L597.58 148.111L604.639 148.111L604.639 149.259L603.941 149.285ZM604.639 144.593L604.639 145.8L594.619 145.8L594.619 144.593L604.639 144.593ZM602.871 139.979L597.58 138.335L597.58 137.043L605.728 139.881C606.902 140.32 607.489 141.018 607.489 141.975L607.47 142.203L607.385 142.653L606.406 142.653L606.433 142.327C606.433 141.918 606.35 141.601 606.185 141.375C606.019 141.144 605.717 140.955 605.278 140.807L604.56 140.54L597.58 143.058L597.58 141.74L602.871 139.979ZM604.639 125.813L604.639 132.036L603.771 132.036L600.118 128.748C599.566 128.261 599.118 127.926 598.774 127.743C598.426 127.556 598.067 127.463 597.698 127.463C597.202 127.463 596.795 127.613 596.478 127.913C596.161 128.213 596.002 128.613 596.002 129.113C596.002 129.713 596.174 130.181 596.517 130.516C596.856 130.846 597.33 131.012 597.939 131.012L597.939 132.218C597.065 132.218 596.358 131.938 595.819 131.377C595.28 130.812 595.01 130.057 595.01 129.113C595.01 128.231 595.243 127.533 595.708 127.019C596.169 126.506 596.785 126.25 597.554 126.25C598.489 126.25 599.603 126.845 600.894 128.037L603.654 130.581L603.654 125.813L604.639 125.813ZM600.588 118.211C602.001 118.211 603.051 118.452 603.738 118.935C604.426 119.418 604.769 120.172 604.769 121.198C604.769 122.212 604.434 122.962 603.765 123.449C603.09 123.936 602.086 124.188 600.751 124.206L599.14 124.206C597.744 124.206 596.706 123.964 596.028 123.482C595.349 122.999 595.01 122.242 595.01 121.211C595.01 120.19 595.339 119.437 595.995 118.954C596.648 118.472 597.657 118.224 599.022 118.211L600.588 118.211ZM598.937 119.418C597.915 119.418 597.172 119.561 596.706 119.848C596.237 120.135 596.002 120.59 596.002 121.211C596.002 121.829 596.234 122.279 596.7 122.562C597.165 122.844 597.88 122.99 598.846 122.999L600.777 122.999C601.803 122.999 602.562 122.851 603.054 122.555C603.541 122.255 603.784 121.803 603.784 121.198C603.784 120.603 603.554 120.161 603.093 119.874C602.632 119.583 601.905 119.431 600.914 119.418L598.937 119.418ZM604.639 110.074L604.639 116.297L603.771 116.297L600.118 113.01C599.566 112.522 599.118 112.188 598.774 112.005C598.426 111.818 598.067 111.724 597.698 111.724C597.202 111.724 596.795 111.875 596.478 112.175C596.161 112.475 596.002 112.875 596.002 113.375C596.002 113.975 596.174 114.443 596.517 114.777C596.856 115.108 597.33 115.273 597.939 115.273L597.939 116.48C597.065 116.48 596.358 116.199 595.819 115.638C595.28 115.073 595.01 114.319 595.01 113.375C595.01 112.492 595.243 111.794 595.708 111.281C596.169 110.768 596.785 110.511 597.554 110.511C598.489 110.511 599.603 111.107 600.894 112.299L603.654 114.843L603.654 110.074L604.639 110.074ZM604.639 104.462L604.639 105.675L596.595 105.675L597.489 108.108L596.393 108.108L595.095 104.651L595.095 104.462L604.639 104.462Z" fill="#263238"/>
<path d="M172.229 323.357H170.857V314.263L168.106 315.273V314.034L172.015 312.567H172.229V323.357ZM182.491 319.751H183.981V320.864H182.491V323.357H181.119V320.864H176.229V320.06L181.038 312.618H182.491V319.751ZM177.778 319.751H181.119V314.484L180.957 314.779L177.778 319.751ZM191.477 319.751H192.967V320.864H191.477V323.357H190.105V320.864H185.215V320.06L190.024 312.618H191.477V319.751ZM186.763 319.751H190.105V314.484L189.942 314.779L186.763 319.751Z" fill="#263238"/>
<path d="M231.613 322.666H230.241V313.572L227.49 314.582V313.343L231.399 311.875H231.613V322.666ZM241.469 311.919V313.077H241.218C240.156 313.097 239.31 313.412 238.681 314.021C238.052 314.631 237.688 315.489 237.589 316.596C238.155 315.947 238.927 315.622 239.905 315.622C240.84 315.622 241.585 315.952 242.14 316.61C242.701 317.269 242.981 318.12 242.981 319.162C242.981 320.269 242.679 321.154 242.074 321.818C241.474 322.482 240.667 322.814 239.655 322.814C238.627 322.814 237.793 322.42 237.154 321.633C236.515 320.842 236.195 319.824 236.195 318.58V318.056C236.195 316.079 236.616 314.57 237.457 313.527C238.302 312.48 239.559 311.944 241.226 311.919H241.469ZM239.677 316.758C239.21 316.758 238.779 316.898 238.386 317.178C237.993 317.459 237.72 317.81 237.567 318.233V318.735C237.567 319.62 237.766 320.333 238.165 320.874C238.563 321.415 239.06 321.685 239.655 321.685C240.269 321.685 240.751 321.459 241.1 321.006C241.454 320.554 241.631 319.962 241.631 319.229C241.631 318.491 241.452 317.896 241.093 317.444C240.739 316.987 240.267 316.758 239.677 316.758ZM251.613 314.73C251.613 315.266 251.47 315.743 251.185 316.16C250.905 316.578 250.524 316.905 250.042 317.141C250.602 317.382 251.045 317.734 251.369 318.196C251.699 318.658 251.864 319.182 251.864 319.767C251.864 320.697 251.549 321.437 250.919 321.987C250.295 322.538 249.471 322.814 248.449 322.814C247.416 322.814 246.587 322.538 245.963 321.987C245.343 321.432 245.034 320.692 245.034 319.767C245.034 319.187 245.191 318.663 245.506 318.196C245.825 317.729 246.265 317.375 246.826 317.134C246.349 316.898 245.973 316.571 245.697 316.153C245.422 315.735 245.284 315.261 245.284 314.73C245.284 313.825 245.574 313.107 246.155 312.576C246.735 312.045 247.5 311.779 248.449 311.779C249.393 311.779 250.155 312.045 250.735 312.576C251.32 313.107 251.613 313.825 251.613 314.73ZM250.499 319.738C250.499 319.138 250.307 318.649 249.924 318.27C249.545 317.891 249.048 317.702 248.434 317.702C247.819 317.702 247.325 317.889 246.951 318.263C246.582 318.636 246.398 319.128 246.398 319.738C246.398 320.348 246.578 320.827 246.936 321.176C247.3 321.525 247.804 321.7 248.449 321.7C249.088 321.7 249.589 321.525 249.953 321.176C250.317 320.822 250.499 320.343 250.499 319.738ZM248.449 312.9C247.913 312.9 247.477 313.068 247.143 313.402C246.814 313.731 246.649 314.181 246.649 314.752C246.649 315.298 246.811 315.74 247.136 316.079C247.465 316.414 247.903 316.581 248.449 316.581C248.994 316.581 249.43 316.414 249.754 316.079C250.084 315.74 250.248 315.298 250.248 314.752C250.248 314.206 250.079 313.761 249.739 313.417C249.4 313.072 248.97 312.9 248.449 312.9Z" fill="#263238"/>
<path d="M296.13 325.047H289.093V324.066L292.811 319.935C293.361 319.311 293.74 318.804 293.947 318.416C294.158 318.023 294.264 317.617 294.264 317.199C294.264 316.638 294.094 316.179 293.755 315.82C293.415 315.461 292.963 315.281 292.398 315.281C291.719 315.281 291.19 315.475 290.812 315.864C290.438 316.247 290.251 316.783 290.251 317.472H288.887C288.887 316.483 289.204 315.684 289.838 315.075C290.477 314.465 291.331 314.16 292.398 314.16C293.396 314.16 294.185 314.423 294.765 314.949C295.345 315.471 295.636 316.166 295.636 317.037C295.636 318.094 294.962 319.353 293.615 320.813L290.738 323.933H296.13V325.047ZM303.84 321.44H305.329V322.554H303.84V325.047H302.468V322.554H297.577V321.75L302.386 314.308H303.84V321.44ZM299.126 321.44H302.468V316.174L302.305 316.469L299.126 321.44ZM313.578 317.11C313.578 317.646 313.435 318.123 313.15 318.541C312.87 318.959 312.488 319.286 312.007 319.522C312.567 319.763 313.01 320.115 313.334 320.577C313.664 321.039 313.828 321.563 313.828 322.148C313.828 323.078 313.514 323.818 312.884 324.368C312.26 324.919 311.436 325.194 310.413 325.194C309.381 325.194 308.552 324.919 307.928 324.368C307.308 323.813 306.998 323.073 306.998 322.148C306.998 321.568 307.156 321.044 307.47 320.577C307.79 320.11 308.23 319.756 308.791 319.515C308.314 319.279 307.938 318.952 307.662 318.534C307.387 318.116 307.249 317.641 307.249 317.11C307.249 316.206 307.539 315.488 308.119 314.957C308.7 314.426 309.464 314.16 310.413 314.16C311.357 314.16 312.12 314.426 312.7 314.957C313.285 315.488 313.578 316.206 313.578 317.11ZM312.464 322.119C312.464 321.519 312.272 321.029 311.889 320.651C311.51 320.272 311.013 320.083 310.399 320.083C309.784 320.083 309.29 320.27 308.916 320.643C308.547 321.017 308.363 321.509 308.363 322.119C308.363 322.728 308.542 323.208 308.901 323.557C309.265 323.906 309.769 324.081 310.413 324.081C311.053 324.081 311.554 323.906 311.918 323.557C312.282 323.203 312.464 322.723 312.464 322.119ZM310.413 315.281C309.877 315.281 309.442 315.448 309.108 315.783C308.778 316.112 308.614 316.562 308.614 317.133C308.614 317.678 308.776 318.121 309.1 318.46C309.43 318.795 309.868 318.962 310.413 318.962C310.959 318.962 311.394 318.795 311.719 318.46C312.048 318.121 312.213 317.678 312.213 317.133C312.213 316.587 312.043 316.142 311.704 315.798C311.365 315.453 310.935 315.281 310.413 315.281Z" fill="#263238"/>
<path d="M358.199 320.457C357.914 320.796 357.572 321.069 357.174 321.276C356.78 321.482 356.348 321.586 355.875 321.586C355.256 321.586 354.715 321.433 354.253 321.128C353.795 320.824 353.441 320.396 353.191 319.845C352.94 319.289 352.814 318.677 352.814 318.008C352.814 317.29 352.95 316.644 353.22 316.069C353.496 315.493 353.884 315.053 354.386 314.748C354.887 314.443 355.472 314.291 356.141 314.291C357.203 314.291 358.039 314.689 358.649 315.486C359.263 316.278 359.571 317.359 359.571 318.731V319.13C359.571 321.219 359.158 322.746 358.332 323.71C357.506 324.669 356.259 325.161 354.592 325.185H354.327V324.034H354.614C355.74 324.015 356.606 323.722 357.21 323.157C357.815 322.586 358.145 321.686 358.199 320.457ZM356.097 320.457C356.554 320.457 356.974 320.317 357.358 320.037C357.746 319.756 358.029 319.41 358.206 318.997V318.451C358.206 317.556 358.012 316.828 357.624 316.268C357.235 315.707 356.743 315.427 356.148 315.427C355.548 315.427 355.067 315.658 354.703 316.12C354.339 316.577 354.157 317.182 354.157 317.935C354.157 318.667 354.331 319.272 354.681 319.749C355.035 320.221 355.507 320.457 356.097 320.457ZM367.31 314.431V315.589H367.059C365.997 315.609 365.151 315.923 364.522 316.533C363.893 317.143 363.529 318.001 363.43 319.107C363.996 318.458 364.768 318.134 365.746 318.134C366.681 318.134 367.426 318.463 367.981 319.122C368.542 319.781 368.822 320.632 368.822 321.674C368.822 322.781 368.52 323.666 367.915 324.33C367.315 324.993 366.509 325.325 365.496 325.325C364.468 325.325 363.634 324.932 362.995 324.145C362.356 323.353 362.036 322.336 362.036 321.092V320.568C362.036 318.591 362.457 317.081 363.298 316.039C364.143 314.992 365.4 314.456 367.067 314.431H367.31ZM365.518 319.27C365.051 319.27 364.62 319.41 364.227 319.69C363.834 319.97 363.561 320.322 363.408 320.745V321.246C363.408 322.131 363.607 322.844 364.006 323.385C364.404 323.926 364.901 324.197 365.496 324.197C366.11 324.197 366.592 323.971 366.941 323.518C367.295 323.066 367.472 322.473 367.472 321.741C367.472 321.003 367.293 320.408 366.934 319.956C366.58 319.498 366.108 319.27 365.518 319.27Z" fill="#263238"/>
<path d="M412.344 324.902H410.972V315.808L408.221 316.818V315.579L412.13 314.111H412.344V324.902ZM422.606 321.296H424.096V322.409H422.606V324.902H421.234V322.409H416.344V321.605L421.153 314.163H422.606V321.296ZM417.893 321.296H421.234V316.029L421.072 316.324L417.893 321.296ZM431.592 321.296H433.082V322.409H431.592V324.902H430.22V322.409H425.33V321.605L430.139 314.163H431.592V321.296ZM426.879 321.296H430.22V316.029L430.058 316.324L426.879 321.296Z" fill="#263238"/>
<path d="M474.309 323.121H472.937V314.027L470.186 315.037V313.798L474.095 312.33H474.309V323.121ZM484.165 312.374V313.532H483.915C482.852 313.552 482.007 313.867 481.377 314.477C480.748 315.086 480.384 315.944 480.286 317.051C480.851 316.402 481.623 316.077 482.602 316.077C483.536 316.077 484.281 316.407 484.836 317.066C485.397 317.724 485.677 318.575 485.677 319.618C485.677 320.724 485.375 321.609 484.77 322.273C484.17 322.937 483.364 323.269 482.351 323.269C481.323 323.269 480.49 322.875 479.85 322.088C479.211 321.297 478.892 320.279 478.892 319.035V318.511C478.892 316.534 479.312 315.025 480.153 313.982C480.999 312.935 482.255 312.399 483.922 312.374H484.165ZM482.373 317.213C481.906 317.213 481.476 317.353 481.082 317.633C480.689 317.914 480.416 318.265 480.263 318.688V319.19C480.263 320.075 480.463 320.788 480.861 321.329C481.259 321.87 481.756 322.14 482.351 322.14C482.965 322.14 483.447 321.914 483.796 321.462C484.151 321.009 484.328 320.417 484.328 319.684C484.328 318.946 484.148 318.351 483.789 317.899C483.435 317.442 482.963 317.213 482.373 317.213ZM494.309 315.185C494.309 315.721 494.166 316.198 493.881 316.616C493.601 317.034 493.22 317.361 492.738 317.597C493.299 317.838 493.741 318.189 494.066 318.651C494.395 319.114 494.56 319.637 494.56 320.222C494.56 321.152 494.245 321.892 493.616 322.443C492.991 322.993 492.168 323.269 491.145 323.269C490.112 323.269 489.284 322.993 488.659 322.443C488.04 321.887 487.73 321.147 487.73 320.222C487.73 319.642 487.887 319.118 488.202 318.651C488.521 318.184 488.962 317.83 489.522 317.589C489.045 317.353 488.669 317.026 488.394 316.608C488.118 316.19 487.981 315.716 487.981 315.185C487.981 314.28 488.271 313.562 488.851 313.031C489.431 312.5 490.196 312.234 491.145 312.234C492.089 312.234 492.851 312.5 493.431 313.031C494.017 313.562 494.309 314.28 494.309 315.185ZM493.195 320.193C493.195 319.593 493.004 319.104 492.62 318.725C492.241 318.346 491.745 318.157 491.13 318.157C490.515 318.157 490.021 318.344 489.648 318.718C489.279 319.091 489.094 319.583 489.094 320.193C489.094 320.803 489.274 321.282 489.633 321.631C489.997 321.98 490.501 322.155 491.145 322.155C491.784 322.155 492.286 321.98 492.65 321.631C493.013 321.277 493.195 320.798 493.195 320.193ZM491.145 313.355C490.609 313.355 490.174 313.523 489.839 313.857C489.51 314.186 489.345 314.636 489.345 315.207C489.345 315.753 489.507 316.195 489.832 316.534C490.161 316.869 490.599 317.036 491.145 317.036C491.691 317.036 492.126 316.869 492.45 316.534C492.78 316.195 492.945 315.753 492.945 315.207C492.945 314.661 492.775 314.216 492.436 313.872C492.096 313.528 491.666 313.355 491.145 313.355Z" fill="#263238"/>
<path d="M535.685 318.707H536.71C537.354 318.697 537.861 318.527 538.23 318.198C538.598 317.868 538.783 317.423 538.783 316.863C538.783 315.604 538.156 314.975 536.902 314.975C536.312 314.975 535.84 315.144 535.486 315.484C535.137 315.818 534.962 316.263 534.962 316.819H533.598C533.598 315.968 533.907 315.262 534.527 314.702C535.151 314.136 535.943 313.853 536.902 313.853C537.915 313.853 538.709 314.121 539.284 314.657C539.86 315.193 540.147 315.938 540.147 316.892C540.147 317.359 539.995 317.812 539.69 318.249C539.39 318.687 538.979 319.014 538.458 319.23C539.048 319.417 539.503 319.727 539.823 320.16C540.147 320.593 540.31 321.121 540.31 321.746C540.31 322.709 539.995 323.474 539.365 324.04C538.736 324.605 537.917 324.888 536.909 324.888C535.901 324.888 535.08 324.615 534.446 324.069C533.816 323.523 533.502 322.803 533.502 321.908H534.874C534.874 322.473 535.058 322.926 535.427 323.265C535.796 323.604 536.29 323.774 536.909 323.774C537.568 323.774 538.072 323.602 538.421 323.258C538.77 322.913 538.945 322.419 538.945 321.775C538.945 321.151 538.753 320.671 538.37 320.337C537.986 320.002 537.433 319.83 536.71 319.821H535.685V318.707ZM549.723 324.74H542.687V323.759L546.404 319.629C546.955 319.004 547.333 318.498 547.54 318.109C547.751 317.716 547.857 317.31 547.857 316.892C547.857 316.332 547.687 315.872 547.348 315.513C547.009 315.154 546.556 314.975 545.991 314.975C545.312 314.975 544.784 315.169 544.405 315.557C544.031 315.941 543.845 316.477 543.845 317.165H542.48C542.48 316.177 542.797 315.378 543.432 314.768C544.071 314.158 544.924 313.853 545.991 313.853C546.989 313.853 547.778 314.117 548.359 314.643C548.939 315.164 549.229 315.86 549.229 316.73C549.229 317.787 548.555 319.046 547.208 320.506L544.331 323.626H549.723V324.74Z" fill="#263238"/>
<path d="M595.628 323.756H588.592V322.775L592.309 318.644C592.86 318.02 593.239 317.513 593.445 317.125C593.656 316.732 593.762 316.326 593.762 315.908C593.762 315.347 593.593 314.888 593.253 314.529C592.914 314.17 592.462 313.99 591.896 313.99C591.218 313.99 590.689 314.184 590.31 314.573C589.937 314.956 589.75 315.492 589.75 316.181H588.385C588.385 315.192 588.702 314.393 589.337 313.784C589.976 313.174 590.829 312.869 591.896 312.869C592.894 312.869 593.684 313.132 594.264 313.658C594.844 314.18 595.134 314.875 595.134 315.746C595.134 316.803 594.46 318.062 593.113 319.522L590.237 322.642H595.628V323.756ZM598.204 318.371L598.75 313.017H604.253V314.278H599.908L599.584 317.206C600.11 316.896 600.707 316.741 601.376 316.741C602.355 316.741 603.132 317.066 603.707 317.715C604.282 318.359 604.57 319.232 604.57 320.333C604.57 321.44 604.27 322.313 603.67 322.952C603.075 323.586 602.242 323.903 601.17 323.903C600.221 323.903 599.446 323.64 598.846 323.114C598.246 322.588 597.904 321.86 597.821 320.931H599.112C599.195 321.546 599.414 322.01 599.768 322.325C600.122 322.635 600.589 322.79 601.17 322.79C601.804 322.79 602.301 322.573 602.659 322.141C603.023 321.708 603.205 321.11 603.205 320.348C603.205 319.63 603.009 319.055 602.615 318.622C602.227 318.185 601.708 317.966 601.059 317.966C600.464 317.966 599.997 318.096 599.657 318.357L599.296 318.652L598.204 318.371ZM611.918 313.009V314.167H611.667C610.605 314.187 609.759 314.502 609.13 315.111C608.501 315.721 608.137 316.579 608.038 317.686C608.604 317.036 609.376 316.712 610.354 316.712C611.289 316.712 612.034 317.041 612.589 317.7C613.15 318.359 613.43 319.21 613.43 320.252C613.43 321.359 613.128 322.244 612.523 322.908C611.923 323.571 611.117 323.903 610.104 323.903C609.076 323.903 608.243 323.51 607.603 322.723C606.964 321.932 606.644 320.914 606.644 319.67V319.146C606.644 317.169 607.065 315.66 607.906 314.617C608.751 313.57 610.008 313.034 611.675 313.009H611.918ZM610.126 317.848C609.659 317.848 609.228 317.988 608.835 318.268C608.442 318.548 608.169 318.9 608.016 319.323V319.825C608.016 320.71 608.215 321.423 608.614 321.964C609.012 322.504 609.509 322.775 610.104 322.775C610.718 322.775 611.2 322.549 611.549 322.096C611.903 321.644 612.08 321.051 612.08 320.319C612.08 319.581 611.901 318.986 611.542 318.534C611.188 318.076 610.716 317.848 610.126 317.848Z" fill="#263238"/>
<path d="M24.3883 30.4699L29.1889 42.4514L33.9896 30.4699H36.5009V45.1543H34.5645V39.4358L34.746 33.2635L29.9252 45.1543H28.4426L23.6318 33.2938L23.8235 39.4358V45.1543H21.8871V30.4699H24.3883ZM39.7012 39.5972C39.7012 38.5281 39.9097 37.5667 40.3265 36.7128C40.7501 35.8589 41.3351 35.1999 42.0814 34.736C42.8344 34.2721 43.6917 34.0401 44.6532 34.0401C46.1391 34.0401 47.3393 34.5545 48.2537 35.5832C49.1748 36.6119 49.6354 37.9802 49.6354 39.688V39.8191C49.6354 40.8814 49.4303 41.8362 49.0202 42.6834C48.6168 43.5238 48.0352 44.1794 47.2754 44.65C46.5224 45.1207 45.655 45.356 44.6734 45.356C43.1942 45.356 41.994 44.8416 41.0728 43.8129C40.1584 42.7842 39.7012 41.4227 39.7012 39.7283V39.5972ZM41.5771 39.8191C41.5771 41.0293 41.8562 42.0009 42.4142 42.7338C42.979 43.4667 43.732 43.8331 44.6734 43.8331C45.6214 43.8331 46.3744 43.4633 46.9325 42.7237C47.4906 41.9774 47.7696 40.9352 47.7696 39.5972C47.7696 38.4004 47.4838 37.4322 46.9123 36.6926C46.3475 35.9463 45.5945 35.5731 44.6532 35.5731C43.732 35.5731 42.9891 35.9395 42.4243 36.6724C41.8595 37.4053 41.5771 38.4542 41.5771 39.8191ZM54.3082 34.2418L54.3687 35.6134C55.2025 34.5646 56.2917 34.0401 57.6364 34.0401C59.9426 34.0401 61.1058 35.3411 61.126 37.9432V45.1543H59.2602V37.9331C59.2534 37.1464 59.0719 36.5648 58.7156 36.1883C58.3659 35.8118 57.818 35.6235 57.0716 35.6235C56.4665 35.6235 55.9353 35.7849 55.4781 36.1076C55.0209 36.4304 54.6646 36.854 54.4091 37.3784V45.1543H52.5433V34.2418H54.3082ZM67.0393 31.5994V34.2418H69.0766V35.684H67.0393V42.4514C67.0393 42.8884 67.1301 43.2179 67.3116 43.4398C67.4931 43.6549 67.8024 43.7625 68.2395 43.7625C68.4546 43.7625 68.7505 43.7222 69.127 43.6415V45.1543C68.6362 45.2888 68.1588 45.356 67.6949 45.356C66.8611 45.356 66.2325 45.1039 65.8089 44.5996C65.3853 44.0953 65.1735 43.3793 65.1735 42.4514V35.684H63.1866V34.2418H65.1735V31.5994H67.0393ZM73.6989 35.563C74.5259 34.5477 75.6017 34.0401 76.9263 34.0401C79.2325 34.0401 80.3957 35.3411 80.4159 37.9432V45.1543H78.55V37.9331C78.5433 37.1464 78.3618 36.5648 78.0054 36.1883C77.6558 35.8118 77.1078 35.6235 76.3615 35.6235C75.7564 35.6235 75.2252 35.7849 74.768 36.1076C74.3108 36.4304 73.9544 36.854 73.6989 37.3784V45.1543H71.8331V29.663H73.6989V35.563ZM93.0695 42.6228L95.7724 34.2418H97.6785L93.7654 45.1543H92.3433L88.3898 34.2418H90.296L93.0695 42.6228ZM106.396 42.2598C106.396 41.7555 106.204 41.3655 105.821 41.0899C105.444 40.8075 104.782 40.5654 103.834 40.3637C102.893 40.162 102.143 39.9199 101.585 39.6375C101.034 39.3552 100.623 39.019 100.354 38.629C100.092 38.239 99.9611 37.7751 99.9611 37.2372C99.9611 36.343 100.338 35.5866 101.091 34.968C101.85 34.3494 102.819 34.0401 103.995 34.0401C105.232 34.0401 106.234 34.3595 107.001 34.9982C107.774 35.637 108.161 36.4539 108.161 37.449H106.285C106.285 36.938 106.066 36.4976 105.629 36.1278C105.199 35.758 104.654 35.5731 103.995 35.5731C103.316 35.5731 102.785 35.721 102.402 36.0169C102.019 36.3127 101.827 36.6993 101.827 37.1767C101.827 37.6272 102.005 37.9667 102.361 38.1953C102.718 38.4239 103.36 38.6424 104.288 38.8509C105.222 39.0593 105.979 39.3081 106.557 39.5972C107.135 39.8863 107.562 40.236 107.838 40.6461C108.12 41.0495 108.261 41.5437 108.261 42.1287C108.261 43.1036 107.871 43.8869 107.092 44.4786C106.312 45.0635 105.3 45.356 104.056 45.356C103.182 45.356 102.408 45.2014 101.736 44.8921C101.064 44.5828 100.536 44.1525 100.153 43.6011C99.7762 43.0431 99.5879 42.4413 99.5879 41.7958H101.454C101.487 42.4211 101.736 42.9187 102.2 43.2885C102.671 43.6516 103.289 43.8331 104.056 43.8331C104.762 43.8331 105.327 43.6919 105.75 43.4095C106.18 43.1204 106.396 42.7371 106.396 42.2598ZM125.343 38.6693H119.18V45.1543H117.244V30.4699H126.341V32.0634H119.18V37.0859H125.343V38.6693ZM135.451 44.0752C134.725 44.9291 133.66 45.356 132.254 45.356C131.091 45.356 130.204 45.0198 129.592 44.3475C128.987 43.6684 128.681 42.6665 128.674 41.342V34.2418H130.54V41.2916C130.54 42.9456 131.212 43.7726 132.557 43.7726C133.982 43.7726 134.93 43.2414 135.401 42.1791V34.2418H137.267V45.1543H135.492L135.451 44.0752ZM142.444 34.2418L142.504 35.6134C143.338 34.5646 144.427 34.0401 145.772 34.0401C148.078 34.0401 149.242 35.3411 149.262 37.9432V45.1543H147.396V37.9331C147.389 37.1464 147.208 36.5648 146.851 36.1883C146.502 35.8118 145.954 35.6235 145.207 35.6235C144.602 35.6235 144.071 35.7849 143.614 36.1076C143.157 36.4304 142.8 36.854 142.545 37.3784V45.1543H140.679V34.2418H142.444ZM152.19 39.6073C152.19 37.9331 152.586 36.5884 153.38 35.5731C154.173 34.5511 155.212 34.0401 156.496 34.0401C157.774 34.0401 158.786 34.4771 159.532 35.3512V29.663H161.398V45.1543H159.683L159.592 43.9844C158.846 44.8988 157.807 45.356 156.476 45.356C155.212 45.356 154.18 44.8383 153.38 43.8028C152.586 42.7674 152.19 41.416 152.19 39.7485V39.6073ZM154.055 39.8191C154.055 41.0562 154.311 42.0244 154.822 42.7237C155.333 43.423 156.039 43.7726 156.94 43.7726C158.123 43.7726 158.987 43.2414 159.532 42.1791V37.1666C158.974 36.1379 158.117 35.6235 156.96 35.6235C156.046 35.6235 155.333 35.9765 154.822 36.6825C154.311 37.3885 154.055 38.434 154.055 39.8191ZM166.898 45.1543H165.032V34.2418H166.898V45.1543ZM164.88 31.3473C164.88 31.0447 164.971 30.7892 165.153 30.5808C165.341 30.3724 165.617 30.2681 165.98 30.2681C166.343 30.2681 166.618 30.3724 166.807 30.5808C166.995 30.7892 167.089 31.0447 167.089 31.3473C167.089 31.6499 166.995 31.902 166.807 32.1037C166.618 32.3054 166.343 32.4063 165.98 32.4063C165.617 32.4063 165.341 32.3054 165.153 32.1037C164.971 31.902 164.88 31.6499 164.88 31.3473ZM172.226 34.2418L172.286 35.6134C173.12 34.5646 174.209 34.0401 175.554 34.0401C177.86 34.0401 179.023 35.3411 179.044 37.9432V45.1543H177.178V37.9331C177.171 37.1464 176.99 36.5648 176.633 36.1883C176.284 35.8118 175.736 35.6235 174.989 35.6235C174.384 35.6235 173.853 35.7849 173.396 36.1076C172.939 36.4304 172.582 36.854 172.327 37.3784V45.1543H170.461V34.2418H172.226ZM181.982 39.6073C181.982 37.9062 182.375 36.5548 183.162 35.5529C183.948 34.5444 184.991 34.0401 186.288 34.0401C187.62 34.0401 188.658 34.5108 189.405 35.4521L189.495 34.2418H191.2V44.8921C191.2 46.304 190.78 47.4168 189.939 48.2304C189.105 49.0439 187.983 49.4507 186.571 49.4507C185.784 49.4507 185.014 49.2826 184.261 48.9464C183.508 48.6103 182.933 48.1497 182.536 47.5647L183.505 46.4452C184.305 47.4336 185.283 47.9278 186.44 47.9278C187.347 47.9278 188.053 47.6723 188.557 47.1613C189.068 46.6503 189.324 45.9309 189.324 45.003V44.0651C188.578 44.9257 187.559 45.356 186.268 45.356C184.991 45.356 183.955 44.8416 183.162 43.8129C182.375 42.7842 181.982 41.3823 181.982 39.6073ZM183.858 39.8191C183.858 41.0495 184.11 42.0177 184.614 42.7237C185.118 43.423 185.824 43.7726 186.732 43.7726C187.909 43.7726 188.773 43.2381 189.324 42.169V37.1868C188.752 36.1446 187.895 35.6235 186.752 35.6235C185.844 35.6235 185.135 35.9765 184.624 36.6825C184.113 37.3885 183.858 38.434 183.858 39.8191Z" fill="#263238"/>
</svg>
