<svg width="380" height="380" viewBox="0 0 380 380" fill="none" xmlns="http://www.w3.org/2000/svg">
<path d="M219.154 241.322C220.499 242.257 224.124 242.895 224.132 242.895C224.139 242.895 223.828 240.38 223.782 240.22C223.326 238.411 221.365 235.174 219.268 235.045C218.92 235.032 218.572 235.093 218.249 235.223C217.926 235.354 217.634 235.551 217.393 235.802C217.151 236.053 216.965 236.352 216.847 236.68C216.728 237.008 216.681 237.357 216.707 237.705C216.767 239.179 218.006 240.517 219.154 241.322Z" fill="#263238"/>
<path d="M218.31 252.023C219.83 252.555 223.205 252.267 223.478 252.236C223.642 254.186 223.934 256.123 224.352 258.035C224.596 259.152 224.869 260.262 225.158 261.379C224.953 260.893 224.763 260.452 224.725 260.399C223.805 258.765 221.062 256.165 219.002 256.599C218.663 256.679 218.344 256.83 218.067 257.041C217.79 257.253 217.561 257.521 217.395 257.827C217.228 258.133 217.128 258.471 217.101 258.819C217.075 259.166 217.121 259.515 217.239 259.844C217.68 261.25 219.23 262.215 220.545 262.686C221.86 263.157 224.793 262.967 225.568 262.907C225.682 263.34 225.789 263.765 225.91 264.191C226.473 266.235 227.043 268.272 227.537 270.271C227.719 270.978 227.863 271.685 228.015 272.391C227.825 271.958 227.666 271.593 227.635 271.54C226.716 269.914 223.972 267.307 221.913 267.74C221.574 267.821 221.256 267.973 220.98 268.185C220.704 268.397 220.475 268.664 220.309 268.97C220.143 269.276 220.042 269.614 220.015 269.961C219.988 270.308 220.033 270.657 220.15 270.985C220.59 272.399 222.141 273.357 223.463 273.828C224.786 274.299 227.423 274.132 228.342 274.063C228.472 274.823 228.601 275.515 228.7 276.229C228.753 276.716 228.836 277.179 228.867 277.673C228.897 278.167 228.935 278.639 228.973 279.117C229.011 280.037 229.049 280.987 229.064 281.884C229.064 282.515 229.064 283.107 229.064 283.708C228.897 283.001 228.54 281.618 228.502 281.504C227.833 279.756 225.515 276.769 223.418 276.875C223.07 276.903 222.732 277.004 222.426 277.171C222.121 277.339 221.853 277.569 221.643 277.846C221.432 278.124 221.282 278.443 221.203 278.782C221.123 279.122 221.117 279.474 221.183 279.817C221.404 281.276 222.794 282.469 224.025 283.13C225.378 283.89 228.661 284.095 229.064 284.118C229.064 285.114 229.064 286.079 229.064 286.991C229.026 288.845 228.95 290.51 228.859 291.946L230.204 292.212C230.265 290.692 230.311 288.967 230.311 287.006C230.311 285.995 230.311 284.916 230.311 283.814C231.337 283.617 232.352 283.364 233.351 283.054C234.179 284.399 236.611 286.277 236.923 286.512C236.375 287.341 235.836 288.146 235.319 288.891C234.324 290.32 233.404 291.581 232.575 292.691L234.02 292.98C234.734 291.977 235.54 290.844 236.345 289.598C236.9 288.754 237.485 287.85 238.07 286.907C238.443 287.067 241.483 288.344 243.018 288.306C244.416 288.306 246.195 287.835 247.054 286.634C247.266 286.358 247.418 286.04 247.5 285.701C247.581 285.363 247.591 285.011 247.528 284.668C247.465 284.326 247.33 284 247.133 283.713C246.937 283.426 246.681 283.183 246.385 283.001C244.561 281.952 241.148 283.579 239.758 284.84C239.682 284.909 238.884 285.813 238.39 286.398L239.104 285.243C239.583 284.483 240.039 283.655 240.533 282.796L241.209 281.519C241.445 281.093 241.642 280.622 241.863 280.166C242.349 279.11 242.79 278.008 243.215 276.891C243.899 277.309 246.369 278.768 247.775 278.943C249.181 279.117 250.975 278.943 252.009 277.901C252.262 277.661 252.461 277.37 252.593 277.047C252.726 276.725 252.789 276.378 252.778 276.029C252.768 275.68 252.683 275.338 252.531 275.024C252.379 274.71 252.162 274.432 251.895 274.208C250.261 272.901 246.636 273.987 245.055 275.021C244.956 275.082 243.915 275.956 243.36 276.442C243.603 275.766 243.854 275.097 244.082 274.413C244.743 272.422 245.351 270.385 245.967 268.333C246.149 267.71 246.347 267.094 246.537 266.479C246.78 266.631 249.683 268.417 251.241 268.614C252.632 268.797 254.448 268.614 255.482 267.573C255.733 267.333 255.932 267.042 256.064 266.72C256.195 266.398 256.258 266.052 256.247 265.704C256.236 265.357 256.153 265.015 256.001 264.702C255.85 264.389 255.634 264.111 255.368 263.887C253.726 262.572 250.101 263.659 248.528 264.693C248.414 264.776 246.924 266.023 246.56 266.365C246.985 265.004 247.418 263.651 247.897 262.337C248.548 260.558 249.309 258.822 250.177 257.138C250.291 257.214 253.308 259.091 254.904 259.297C256.295 259.479 258.112 259.297 259.145 258.255C259.397 258.014 259.595 257.723 259.727 257.401C259.859 257.078 259.922 256.731 259.911 256.383C259.9 256.035 259.816 255.693 259.665 255.379C259.513 255.065 259.297 254.787 259.031 254.562C257.389 253.255 253.764 254.341 252.191 255.375C252.069 255.459 250.466 256.804 250.192 257.07C250.246 256.979 250.291 256.872 250.344 256.773C251.259 255.11 252.322 253.533 253.521 252.061C254.167 251.241 254.836 250.488 255.505 249.781C256.029 250.192 258.453 252.061 259.867 252.373C261.281 252.685 263.051 252.738 264.199 251.803C264.476 251.592 264.705 251.324 264.871 251.018C265.037 250.713 265.138 250.375 265.165 250.028C265.192 249.681 265.146 249.332 265.029 249.004C264.913 248.676 264.728 248.376 264.488 248.125C263.006 246.643 259.282 247.319 257.648 248.178C257.557 248.223 256.69 248.801 256.067 249.234C256.371 248.915 256.683 248.581 256.979 248.284C258.096 247.159 259.191 246.194 260.164 245.351C260.726 244.879 261.243 244.461 261.729 244.074C262.451 244.203 265.377 244.697 266.768 244.355C268.159 244.013 269.762 243.215 270.347 241.855C270.496 241.539 270.576 241.196 270.583 240.848C270.59 240.499 270.523 240.153 270.388 239.832C270.252 239.511 270.051 239.222 269.796 238.984C269.542 238.746 269.24 238.564 268.911 238.45C266.912 237.827 263.918 240.137 262.831 241.672C262.74 241.801 261.516 244.036 261.554 244.043H261.592C261.121 244.408 260.612 244.803 260.072 245.244C259.077 246.065 257.959 247 256.812 248.109C255.561 249.285 254.381 250.533 253.278 251.849C252.032 253.311 250.92 254.883 249.957 256.545C249.958 256.566 249.958 256.586 249.957 256.606C250.086 256.006 250.398 254.326 250.405 254.182C250.534 252.312 249.683 248.626 247.73 247.851C247.403 247.731 247.054 247.681 246.706 247.705C246.359 247.728 246.02 247.825 245.712 247.989C245.405 248.152 245.135 248.379 244.921 248.654C244.707 248.928 244.553 249.245 244.47 249.584C244.059 251.005 244.819 252.662 245.663 253.779C246.613 255.041 249.615 256.682 249.85 256.819C248.909 258.534 248.087 260.312 247.388 262.139C246.97 263.203 246.582 264.282 246.21 265.377C246.309 264.852 246.392 264.381 246.392 264.313C246.522 262.451 245.67 258.765 243.717 257.982C243.39 257.862 243.041 257.812 242.694 257.835C242.346 257.859 242.007 257.956 241.7 258.119C241.392 258.283 241.122 258.51 240.908 258.784C240.694 259.059 240.54 259.376 240.457 259.715C240.046 261.136 240.806 262.793 241.65 263.91C242.493 265.027 245.039 266.494 245.708 266.866C245.571 267.284 245.427 267.702 245.29 268.128C244.637 270.142 243.983 272.156 243.291 274.109C243.041 274.801 242.775 275.469 242.531 276.138C242.615 275.675 242.684 275.279 242.684 275.219C242.813 273.357 241.961 269.671 240.016 268.888C239.688 268.769 239.339 268.72 238.992 268.744C238.644 268.768 238.305 268.865 237.997 269.028C237.689 269.192 237.419 269.418 237.204 269.692C236.988 269.966 236.833 270.283 236.748 270.621C236.345 272.042 237.105 273.699 237.941 274.816C238.777 275.933 241.08 277.255 241.885 277.704C241.589 278.388 241.3 279.064 240.989 279.71C240.761 280.143 240.578 280.584 240.328 281.01L239.621 282.271C239.142 283.031 238.656 283.875 238.169 284.635L237.181 286.155C237.432 285.471 237.895 284.118 237.941 284.004C238.236 282.384 238.113 280.715 237.584 279.155C237.628 278.976 237.653 278.793 237.66 278.608C237.685 278.261 237.636 277.912 237.517 277.585C237.399 277.258 237.213 276.959 236.971 276.708C236.73 276.457 236.438 276.26 236.116 276.129C235.793 275.998 235.447 275.937 235.099 275.948C233.001 276.085 231.048 279.323 230.584 281.139C230.584 281.245 230.394 282.439 230.303 283.191C230.303 282.743 230.303 282.302 230.265 281.838C230.227 280.919 230.166 279.999 230.105 279.011L229.969 277.567C229.931 277.088 229.832 276.579 229.764 276.085C229.589 274.93 229.345 273.767 229.087 272.604C229.893 272.604 232.75 272.422 234.012 271.844C235.274 271.267 236.695 270.089 236.976 268.637C237.058 268.295 237.066 267.94 237 267.595C236.934 267.25 236.796 266.923 236.594 266.635C236.392 266.348 236.131 266.106 235.829 265.927C235.526 265.748 235.19 265.636 234.84 265.597C232.75 265.407 230.326 268.31 229.596 270.035C229.551 270.142 229.171 271.441 228.973 272.156C228.806 271.457 228.646 270.757 228.456 270.058C227.909 268.037 227.293 266.007 226.685 263.978L226.138 262.116C226.427 262.116 229.832 262.002 231.245 261.303C232.499 260.687 233.928 259.555 234.21 258.096C234.29 257.754 234.298 257.399 234.231 257.055C234.165 256.71 234.026 256.383 233.824 256.096C233.623 255.809 233.362 255.568 233.061 255.388C232.759 255.209 232.423 255.096 232.074 255.056C229.984 254.873 227.559 257.777 226.83 259.502C226.777 259.631 226.222 261.501 226.108 261.979C225.713 260.611 225.348 259.243 225.006 257.883C224.561 256.044 224.236 254.178 224.033 252.297C224.17 252.297 227.719 252.198 229.171 251.484C230.425 250.868 231.846 249.728 232.127 248.277C232.208 247.935 232.215 247.581 232.149 247.237C232.083 246.893 231.946 246.567 231.745 246.28C231.544 245.992 231.284 245.751 230.983 245.571C230.683 245.392 230.347 245.277 229.999 245.237C227.909 245.054 225.485 247.957 224.755 249.683C224.694 249.819 224.102 251.826 223.995 252.198C223.995 252.084 223.957 251.978 223.95 251.864C223.795 249.974 223.813 248.073 224.003 246.187C224.086 245.138 224.231 244.15 224.39 243.185C225.059 243.23 228.091 243.428 229.467 242.934C230.843 242.44 232.325 241.482 232.758 240.069C232.872 239.74 232.916 239.39 232.887 239.043C232.857 238.696 232.755 238.359 232.586 238.055C232.418 237.75 232.187 237.484 231.909 237.274C231.631 237.065 231.311 236.916 230.972 236.839C228.92 236.421 226.192 239.043 225.272 240.677C225.226 240.768 224.816 241.725 224.512 242.425C224.588 241.991 224.664 241.543 224.748 241.133C225.059 239.613 225.447 238.169 225.789 236.93C225.994 236.223 226.192 235.592 226.389 235.007C227.066 234.711 229.779 233.487 230.751 232.453C231.724 231.42 232.621 229.854 232.355 228.395C232.304 228.054 232.182 227.728 231.998 227.437C231.813 227.146 231.571 226.896 231.285 226.704C230.999 226.512 230.676 226.381 230.337 226.32C229.998 226.259 229.65 226.27 229.315 226.351C227.301 226.928 226.085 230.515 226.024 232.385C226.024 232.545 226.23 235.083 226.268 235.068H226.305C226.115 235.63 225.91 236.238 225.698 236.907C225.325 238.146 224.938 239.544 224.558 241.095C224.168 242.766 223.874 244.459 223.676 246.164C223.448 248.073 223.389 249.998 223.501 251.917C223.501 251.917 223.501 251.963 223.501 251.985C223.281 251.415 222.604 249.827 222.536 249.705C221.609 248.079 218.865 245.472 216.813 245.905C216.474 245.987 216.157 246.138 215.88 246.35C215.604 246.562 215.375 246.83 215.209 247.135C215.043 247.441 214.943 247.779 214.915 248.126C214.888 248.473 214.934 248.822 215.05 249.151C215.445 250.595 216.996 251.56 218.31 252.023Z" fill="#263238"/>
<path d="M255.512 249.402C255.512 249.402 256.645 247.122 256.698 246.978C257.313 245.207 257.458 241.43 255.793 240.138C255.51 239.935 255.187 239.795 254.846 239.725C254.504 239.656 254.152 239.659 253.812 239.736C253.472 239.812 253.152 239.958 252.873 240.166C252.593 240.375 252.361 240.639 252.191 240.943C251.431 242.205 251.712 243.983 252.229 245.306C252.837 246.864 255.512 249.394 255.512 249.402Z" fill="#263238"/>
<path d="M141.17 98.4359C142.607 98.6411 145.73 97.6759 145.73 97.6759C145.73 97.6759 144.491 95.8063 144.4 95.6999C143.313 94.4534 140.486 92.6598 138.784 93.4198C138.505 93.549 138.256 93.7353 138.053 93.9667C137.851 94.1981 137.699 94.4695 137.608 94.7632C137.517 95.0569 137.489 95.3665 137.525 95.6719C137.562 95.9772 137.661 96.2716 137.819 96.5359C138.442 97.6911 139.954 98.2535 141.17 98.4359Z" fill="#263238"/>
<path d="M144.757 107.207C146.133 107.032 148.709 105.451 148.915 105.329C149.813 106.802 150.811 108.211 151.901 109.547C152.532 110.307 153.186 111.105 153.855 111.865C153.497 111.561 153.178 111.295 153.095 111.265C151.727 110.345 148.535 109.38 147.075 110.505C146.84 110.703 146.65 110.949 146.516 111.226C146.382 111.502 146.307 111.804 146.297 112.111C146.287 112.419 146.342 112.725 146.457 113.01C146.573 113.295 146.747 113.552 146.969 113.765C147.881 114.7 149.485 114.845 150.708 114.693C151.932 114.541 154.174 113.233 154.751 112.884C155.01 113.173 155.268 113.469 155.511 113.758C156.765 115.141 158.019 116.524 159.213 117.915C159.631 118.409 160.026 118.903 160.421 119.435C160.102 119.161 159.836 118.941 159.79 118.911C158.415 117.991 155.23 117.026 153.771 118.151C153.535 118.348 153.343 118.594 153.209 118.87C153.074 119.147 152.999 119.449 152.989 119.757C152.979 120.065 153.034 120.371 153.15 120.656C153.267 120.941 153.442 121.198 153.665 121.411C154.569 122.346 156.173 122.49 157.404 122.338C158.635 122.186 160.649 121.008 161.341 120.59C161.728 121.115 162.101 121.631 162.481 122.156C162.716 122.521 162.967 122.855 163.187 123.227L163.841 124.322C164.236 125.036 164.647 125.766 165.011 126.473C165.27 126.959 165.505 127.43 165.771 127.901C165.353 127.407 164.533 126.465 164.449 126.381C163.233 125.264 160.223 123.828 158.612 124.747C158.35 124.907 158.124 125.12 157.95 125.373C157.775 125.625 157.656 125.912 157.599 126.213C157.542 126.515 157.55 126.825 157.621 127.124C157.692 127.423 157.825 127.703 158.012 127.947C158.772 129.011 160.33 129.399 161.569 129.467C162.921 129.467 165.604 128.388 165.939 128.251C166.326 129.011 166.699 129.771 167.048 130.531C167.755 132.005 168.348 133.351 168.849 134.521L170.012 134.194C169.465 132.993 168.811 131.595 168.036 130.052C167.641 129.292 167.2 128.411 166.737 127.552C167.477 126.984 168.185 126.375 168.857 125.728C170.188 126.358 171.6 126.801 173.052 127.043C172.946 127.917 172.839 128.76 172.725 129.558C172.505 131.078 172.277 132.439 172.064 133.632L173.318 133.282C173.485 132.211 173.653 131.002 173.812 129.703C173.919 128.813 174.017 127.871 174.109 126.898C174.458 126.898 177.361 126.678 178.562 126.032C179.649 125.447 180.842 124.405 181.078 123.113C181.137 122.812 181.131 122.501 181.061 122.202C180.992 121.903 180.86 121.621 180.674 121.377C180.488 121.132 180.253 120.929 179.983 120.782C179.713 120.635 179.416 120.546 179.109 120.522C177.263 120.415 175.211 123.053 174.618 124.588C174.58 124.679 174.314 125.713 174.154 126.366C174.154 125.963 174.23 125.606 174.261 125.173C174.321 124.36 174.367 123.554 174.42 122.68V121.403C174.42 120.978 174.42 120.522 174.42 120.081C174.42 119.047 174.299 118.006 174.192 116.957C174.899 117.018 177.422 117.185 178.593 116.775C179.763 116.365 181.123 115.513 181.519 114.267C181.622 113.98 181.665 113.674 181.643 113.369C181.622 113.064 181.537 112.767 181.394 112.497C181.25 112.228 181.052 111.991 180.812 111.802C180.572 111.613 180.295 111.477 179.999 111.402C178.182 111.022 175.758 113.317 174.937 114.746C174.891 114.837 174.413 115.931 174.177 116.539C174.101 115.916 174.033 115.285 173.941 114.655C173.675 112.823 173.349 110.976 173.029 109.137C172.931 108.575 172.839 108.012 172.748 107.45C172.999 107.45 175.993 107.731 177.308 107.275C178.471 106.865 179.839 106.013 180.242 104.767C180.346 104.48 180.388 104.174 180.367 103.869C180.345 103.564 180.26 103.267 180.117 102.997C179.974 102.728 179.775 102.491 179.535 102.302C179.295 102.113 179.018 101.977 178.722 101.902C176.913 101.522 174.489 103.817 173.668 105.246C173.607 105.36 172.908 106.933 172.771 107.343C172.566 106.105 172.376 104.866 172.239 103.642C172.04 101.983 171.948 100.312 171.965 98.6413C172.087 98.6413 175.211 98.9453 176.525 98.4665C177.688 98.0561 179.056 97.2125 179.459 95.9661C179.562 95.6763 179.603 95.3678 179.58 95.061C179.556 94.7541 179.467 94.4558 179.32 94.1854C179.173 93.915 178.971 93.6787 178.726 93.4918C178.482 93.305 178.2 93.1718 177.901 93.1009C176.092 92.7209 173.66 95.0085 172.847 96.4449C172.779 96.5589 172.087 98.2613 171.943 98.5729C171.943 98.4817 171.943 98.3754 171.943 98.2842C172.013 96.6096 172.226 94.9442 172.581 93.3061C172.771 92.4017 172.999 91.5505 173.242 90.7221C173.82 90.8361 176.457 91.3225 177.711 91.0261C178.965 90.7297 180.363 90.0609 180.895 88.8677C181.033 88.5904 181.11 88.2873 181.121 87.9781C181.133 87.669 181.08 87.3608 180.964 87.0738C180.849 86.7868 180.674 86.5274 180.451 86.3127C180.228 86.098 179.963 85.9327 179.672 85.8277C177.909 85.2501 175.249 87.2641 174.276 88.6017C174.223 88.6701 173.767 89.4681 173.44 90.0609C173.554 89.6885 173.668 89.3009 173.782 88.9437C174.223 87.6137 174.701 86.4281 175.142 85.3717C175.393 84.7789 175.629 84.2469 175.864 83.7453C176.487 83.5629 178.988 82.7953 179.945 81.9669C180.903 81.1385 181.861 79.8845 181.777 78.5773C181.769 78.2703 181.697 77.9685 181.564 77.6913C181.432 77.4141 181.243 77.1679 181.009 76.9686C180.775 76.7694 180.502 76.6215 180.208 76.5347C179.913 76.4478 179.604 76.4239 179.299 76.4645C177.468 76.7685 176.031 79.7781 175.788 81.4121C175.788 81.5565 175.682 83.7985 175.72 83.7909H175.758C175.522 84.2697 175.279 84.7789 174.998 85.3109C174.542 86.3521 174.033 87.5377 173.561 88.8677C173.042 90.2896 172.608 91.7412 172.262 93.2149C171.861 94.8613 171.607 96.5398 171.502 98.2309V98.2917C171.365 97.7673 170.939 96.3157 170.894 96.2017C170.255 94.6817 168.127 92.1129 166.281 92.2725C165.974 92.3065 165.679 92.4048 165.414 92.5611C165.148 92.7174 164.919 92.9281 164.741 93.1794C164.563 93.4307 164.44 93.7169 164.381 94.019C164.321 94.3212 164.326 94.6325 164.396 94.9325C164.639 96.2169 165.916 97.2125 166.995 97.7673C168.249 98.3829 171.266 98.5273 171.502 98.5273C171.442 100.254 171.495 101.983 171.661 103.703C171.76 104.706 171.882 105.709 172.019 106.743C171.889 106.295 171.768 105.892 171.745 105.839C171.107 104.319 168.971 101.75 167.132 101.909C166.826 101.944 166.531 102.042 166.266 102.198C166.001 102.353 165.772 102.563 165.594 102.813C165.415 103.064 165.291 103.349 165.23 103.65C165.169 103.951 165.172 104.262 165.239 104.562C165.483 105.846 166.759 106.842 167.846 107.404C168.933 107.967 171.54 108.096 172.216 108.126C172.277 108.506 172.33 108.886 172.383 109.281C172.665 111.128 172.953 112.975 173.181 114.791C173.257 115.43 173.311 116.068 173.371 116.699C173.257 116.296 173.151 115.939 173.128 115.939C172.49 114.419 170.362 111.843 168.515 112.002C168.209 112.037 167.915 112.136 167.65 112.293C167.385 112.45 167.156 112.66 166.979 112.911C166.801 113.162 166.678 113.448 166.618 113.75C166.558 114.051 166.562 114.362 166.63 114.662C166.873 115.947 168.15 116.942 169.229 117.497C170.309 118.052 172.672 118.181 173.485 118.211C173.523 118.865 173.561 119.519 173.569 120.149C173.569 120.583 173.569 121.001 173.569 121.434C173.569 121.867 173.531 122.285 173.508 122.711C173.447 123.516 173.387 124.352 173.303 125.143C173.25 125.697 173.189 126.214 173.128 126.746C173.052 126.108 172.885 124.861 172.862 124.755C172.457 123.359 171.701 122.09 170.666 121.069C170.625 120.913 170.572 120.76 170.506 120.613C170.388 120.329 170.212 120.072 169.988 119.861C169.765 119.649 169.499 119.487 169.208 119.385C168.918 119.284 168.609 119.244 168.302 119.27C167.996 119.295 167.698 119.385 167.428 119.534C165.832 120.469 165.574 123.79 165.908 125.409C165.908 125.5 166.273 126.511 166.501 127.141C166.311 126.792 166.129 126.45 165.923 126.085C165.536 125.378 165.125 124.679 164.685 123.919L164.001 122.84C163.78 122.475 163.507 122.118 163.241 121.745C162.64 120.909 161.994 120.089 161.325 119.275C161.949 118.933 164.145 117.679 164.89 116.691C165.635 115.703 166.311 114.244 165.954 112.99C165.879 112.693 165.742 112.415 165.553 112.174C165.364 111.933 165.126 111.735 164.855 111.592C164.584 111.448 164.287 111.363 163.981 111.343C163.675 111.322 163.369 111.365 163.081 111.47C161.356 112.154 160.596 115.399 160.702 117.049C160.702 117.155 160.923 118.325 161.052 118.971C160.641 118.485 160.239 117.999 159.813 117.52C158.582 116.144 157.29 114.791 156.013 113.431L154.85 112.177C155.071 112.055 157.715 110.657 158.551 109.517C159.311 108.529 159.973 107.07 159.615 105.816C159.541 105.518 159.404 105.239 159.214 104.997C159.024 104.756 158.786 104.557 158.514 104.413C158.242 104.27 157.944 104.186 157.637 104.165C157.331 104.145 157.023 104.189 156.735 104.296C155.017 104.972 154.257 108.225 154.364 109.874C154.364 109.996 154.675 111.691 154.774 112.116C153.923 111.197 153.079 110.269 152.281 109.319C151.204 108.044 150.209 106.701 149.302 105.299C149.409 105.246 152.175 103.779 153.026 102.631C153.786 101.643 154.447 100.184 154.09 98.9301C154.015 98.6331 153.879 98.3552 153.689 98.1142C153.5 97.8733 153.262 97.6748 152.992 97.5315C152.721 97.3882 152.423 97.3034 152.117 97.2825C151.812 97.2616 151.505 97.3051 151.217 97.4101C149.5 98.0865 148.732 101.339 148.846 102.989C148.846 103.118 149.181 104.934 149.264 105.269L149.097 105.025C148.228 103.594 147.488 102.088 146.885 100.526C146.543 99.6673 146.262 98.8313 146.011 98.0029C146.551 97.7825 149.051 96.7337 149.91 95.7989C150.769 94.8641 151.59 93.5189 151.369 92.2345C151.329 91.9297 151.225 91.6368 151.064 91.3749C150.903 91.113 150.689 90.8879 150.435 90.7144C150.181 90.5409 149.893 90.4228 149.591 90.3678C149.288 90.3129 148.978 90.3222 148.679 90.3953C146.893 90.8817 145.783 94.0281 145.707 95.7153C145.707 95.8065 145.768 96.7261 145.821 97.3949C145.707 97.0225 145.593 96.6349 145.495 96.2777C145.122 94.9249 144.871 93.6709 144.651 92.5537C144.529 91.9153 144.438 91.3377 144.355 90.7981C144.773 90.2965 146.437 88.2749 146.787 87.0589C147.136 85.8429 147.227 84.2621 146.445 83.2589C146.269 83.0064 146.041 82.7939 145.778 82.6351C145.514 82.4764 145.22 82.3751 144.914 82.3378C144.609 82.3005 144.299 82.3281 144.004 82.4187C143.71 82.5093 143.439 82.661 143.207 82.8637C141.847 84.1177 142.31 87.4237 143.002 88.9437C143.063 89.0729 144.241 90.9881 144.256 90.9653C144.324 91.4897 144.4 92.0445 144.507 92.6525C144.697 93.7773 144.925 95.0465 145.267 96.4069C145.617 97.8803 146.054 99.3318 146.574 100.754C147.149 102.35 147.867 103.892 148.717 105.36C148.718 105.377 148.718 105.395 148.717 105.413C148.314 105.048 147.197 104.068 147.06 104.007C145.685 103.087 142.5 102.122 141.041 103.247C140.805 103.445 140.613 103.69 140.479 103.967C140.344 104.244 140.269 104.546 140.259 104.853C140.249 105.161 140.304 105.467 140.42 105.752C140.537 106.037 140.712 106.295 140.935 106.507C141.93 107.214 143.526 107.359 144.757 107.207Z" fill="#263238"/>
<path d="M173.037 90.3962C173.037 90.3962 173.037 88.1162 173.037 88.0098C172.824 86.3758 171.449 83.3358 169.625 83.0014C169.321 82.9553 169.01 82.9735 168.714 83.0549C168.417 83.1363 168.141 83.2791 167.903 83.474C167.666 83.6688 167.471 83.9114 167.333 84.1861C167.195 84.4608 167.116 84.7615 167.101 85.0686C166.995 86.3682 167.945 87.6678 168.865 88.4886C169.929 89.4538 173.037 90.3962 173.037 90.3962Z" fill="#263238"/>
<path d="M44.4906 314.352C45.8434 313.911 48.1766 311.738 48.1766 311.738C48.1766 311.738 46.2766 310.636 46.1474 310.583C44.6274 309.952 41.3974 309.617 40.2118 310.993C40.0226 311.228 39.8848 311.5 39.8071 311.791C39.7295 312.083 39.7138 312.387 39.761 312.685C39.8083 312.983 39.9175 313.268 40.0815 313.521C40.2455 313.774 40.4608 313.99 40.7134 314.155C41.8002 314.884 43.3202 314.725 44.4906 314.352Z" fill="#263238"/>
<path d="M51.4522 320.524C52.5922 319.764 54.173 317.263 54.2946 317.058C55.725 317.966 57.2155 318.776 58.7558 319.482C59.6526 319.9 60.5646 320.288 61.4842 320.676L60.5798 320.455C58.9762 320.242 55.7462 320.782 54.9634 322.424C54.8428 322.7 54.7816 322.999 54.7838 323.301C54.786 323.603 54.8515 323.902 54.9761 324.177C55.1008 324.452 55.2817 324.697 55.5073 324.898C55.7329 325.099 55.9981 325.25 56.2858 325.342C57.4942 325.768 58.9686 325.198 59.9794 324.536C60.9902 323.875 62.3962 321.747 62.7534 321.185L63.8174 321.61C65.5198 322.294 67.2298 322.963 68.879 323.67C69.4642 323.921 70.0266 324.187 70.5966 324.43L69.8366 324.24C68.233 324.027 65.003 324.567 64.2202 326.208C64.0996 326.485 64.0384 326.784 64.0406 327.086C64.0428 327.388 64.1083 327.686 64.2329 327.961C64.3576 328.236 64.5385 328.482 64.7641 328.683C64.9897 328.884 65.2549 329.035 65.5426 329.127C66.751 329.552 68.2254 328.982 69.2362 328.321C70.247 327.66 71.5162 325.737 71.9418 325.068C72.5118 325.357 73.0894 325.646 73.629 325.95C73.9938 326.17 74.389 326.353 74.7158 326.588L75.7646 327.272C76.4258 327.728 77.1022 328.192 77.7254 328.656C78.1662 328.967 78.5766 329.279 78.9946 329.59C78.417 329.34 77.277 328.83 77.1782 328.83C75.6202 328.382 72.3446 328.42 71.3262 329.925C71.1613 330.181 71.0527 330.47 71.0076 330.772C70.9625 331.074 70.9819 331.382 71.0645 331.675C71.147 331.969 71.291 332.242 71.4867 332.476C71.6825 332.71 71.9257 332.9 72.2002 333.033C73.325 333.641 74.8678 333.299 76.0002 332.798C77.2162 332.235 79.0858 330.092 79.3214 329.826C80.0054 330.343 80.6742 330.852 81.2898 331.346C82.5514 332.342 83.6534 333.261 84.6034 334.074L85.485 333.314C84.4894 332.494 83.2962 331.551 81.951 330.525C81.2518 329.993 80.4994 329.446 79.7166 328.884C80.1311 328.067 80.4916 327.224 80.7958 326.36C82.2385 326.341 83.6712 326.118 85.0518 325.699C85.3406 326.512 85.6142 327.303 85.8574 328.055C86.3286 329.484 86.7238 330.784 87.0506 331.924L88.0006 331.08C87.6814 330.062 87.309 328.929 86.8758 327.713C86.587 326.885 86.2678 326.011 85.9258 325.114C86.2222 324.939 88.6922 323.503 89.4674 322.416C90.2426 321.329 90.7974 319.984 90.4174 318.76C90.3381 318.469 90.1983 318.198 90.0072 317.965C89.816 317.732 89.5778 317.542 89.3081 317.407C89.0384 317.272 88.7433 317.196 88.442 317.183C88.1407 317.17 87.8401 317.22 87.5598 317.332C85.8878 318.038 85.219 321.246 85.371 322.864C85.371 322.956 85.5914 323.982 85.7358 324.628L85.3102 323.533C85.0138 322.773 84.7022 322.059 84.3678 321.253C84.193 320.873 84.0106 320.493 83.8358 320.113C83.661 319.733 83.4406 319.353 83.243 318.958C82.7642 318.069 82.2322 317.187 81.723 316.321C82.369 316.062 84.6642 315.112 85.523 314.238C86.3818 313.364 87.2026 312.034 87.043 310.765C87.0079 310.465 86.91 310.176 86.7558 309.917C86.6015 309.657 86.3944 309.433 86.1477 309.259C85.9011 309.084 85.6206 308.964 85.3244 308.905C85.0282 308.847 84.723 308.851 84.4286 308.918C82.673 309.367 81.533 312.437 81.4342 314.056C81.4342 314.162 81.4874 315.333 81.533 315.971C81.1986 315.447 80.8642 314.922 80.507 314.406C79.4734 312.886 78.3866 311.434 77.3074 309.952C76.973 309.496 76.6538 309.04 76.327 308.584C76.555 308.5 79.3062 307.429 80.2562 306.456C81.2062 305.483 81.9434 304.252 81.7762 302.983C81.7411 302.683 81.6432 302.394 81.489 302.134C81.3347 301.875 81.1276 301.65 80.8809 301.476C80.6343 301.302 80.3538 301.182 80.0576 301.123C79.7614 301.064 79.4562 301.069 79.1618 301.136C77.4062 301.584 76.2586 304.655 76.1218 306.274C76.1218 306.395 76.2054 308.075 76.251 308.508C75.491 307.505 74.8222 306.494 74.1686 305.468C73.2717 304.097 72.4669 302.667 71.7594 301.189C71.8658 301.144 74.7462 300.042 75.719 299.046C76.5626 298.18 77.4062 296.842 77.239 295.573C77.2099 295.256 77.1106 294.949 76.9482 294.675C76.7859 294.402 76.5646 294.167 76.3004 293.99C76.0362 293.812 75.7358 293.696 75.4209 293.649C75.1061 293.602 74.7847 293.626 74.4802 293.718C72.717 294.167 71.577 297.237 71.4782 298.856C71.4782 298.985 71.5694 300.794 71.6074 301.136C71.6074 301.052 71.5162 300.969 71.4782 300.878C70.8069 299.379 70.2727 297.822 69.8822 296.226C69.6542 295.345 69.4794 294.494 69.335 293.665C69.8898 293.513 72.4282 292.799 73.4086 291.993C74.389 291.188 75.3238 289.987 75.2706 288.702C75.2683 288.401 75.2026 288.103 75.0777 287.829C74.9529 287.554 74.7717 287.309 74.5459 287.109C74.3202 286.909 74.0549 286.759 73.7673 286.668C73.4797 286.577 73.1763 286.548 72.8766 286.582C71.083 286.833 69.6086 289.766 69.335 291.362C69.335 291.446 69.259 292.35 69.2286 293.004C69.1754 292.632 69.0994 292.244 69.0538 291.879C68.8562 290.519 68.765 289.257 68.6966 288.148C68.6966 287.509 68.6358 286.939 68.6206 286.4C69.0918 285.966 70.9614 284.203 71.4478 283.063C71.9342 281.923 72.2078 280.396 71.5846 279.263C71.4428 278.997 71.2465 278.764 71.0086 278.58C70.7707 278.395 70.4966 278.262 70.204 278.191C69.9114 278.119 69.607 278.11 69.3106 278.163C69.0142 278.217 68.7325 278.333 68.4838 278.503C67.0094 279.56 67.0474 282.835 67.5414 284.378C67.587 284.507 68.4914 286.521 68.5142 286.498C68.5142 287.015 68.5142 287.57 68.5142 288.178C68.5598 289.295 68.6282 290.557 68.7954 291.925C68.9628 293.403 69.2166 294.869 69.5554 296.318C69.9238 297.942 70.4323 299.531 71.0754 301.068C71.0769 301.085 71.0769 301.103 71.0754 301.121C70.7258 300.718 69.7226 299.601 69.6314 299.54C68.4078 298.484 65.4134 297.146 63.863 298.088C63.61 298.252 63.3942 298.467 63.2295 298.719C63.0648 298.971 62.9549 299.255 62.9069 299.552C62.8589 299.849 62.8739 300.153 62.9509 300.445C63.0279 300.736 63.1651 301.008 63.3538 301.242C64.1138 302.268 65.6338 302.61 66.8802 302.61C68.2482 302.61 70.9462 301.394 71.159 301.296C71.8524 302.84 72.6497 304.335 73.5454 305.772C74.0622 306.616 74.6094 307.444 75.1642 308.272C74.8526 307.938 74.579 307.634 74.5334 307.596C73.3098 306.532 70.3154 305.202 68.765 306.137C68.5099 306.299 68.2922 306.514 68.126 306.767C67.9598 307.02 67.8491 307.305 67.801 307.603C67.7529 307.902 67.7685 308.207 67.8469 308.499C67.9253 308.792 68.0647 309.064 68.2558 309.298C69.0158 310.324 70.5358 310.659 71.7746 310.666C73.0134 310.674 75.3314 309.671 75.9394 309.397L76.593 310.347C77.6418 311.867 78.6906 313.349 79.6786 314.854C80.0282 315.378 80.355 315.918 80.6742 316.45C80.4006 316.146 80.165 315.895 80.127 315.865C78.9034 314.801 75.909 313.463 74.3586 314.406C74.1037 314.567 73.8861 314.781 73.72 315.033C73.5539 315.286 73.4431 315.57 73.395 315.868C73.3469 316.166 73.3625 316.471 73.4408 316.763C73.5192 317.054 73.6584 317.326 73.8494 317.56C74.6094 318.586 76.1294 318.928 77.3758 318.928C78.6222 318.928 80.697 318.031 81.4266 317.712C81.7382 318.266 82.0574 318.821 82.3386 319.376C82.5286 319.756 82.7338 320.136 82.8934 320.508C83.053 320.881 83.2354 321.268 83.4026 321.656C83.6914 322.416 84.003 323.176 84.269 323.89C84.4666 324.4 84.6338 324.886 84.8086 325.372C84.4742 324.848 83.7826 323.852 83.7142 323.738C82.7513 322.688 81.5343 321.903 80.1802 321.458C80.0797 321.334 79.965 321.222 79.8382 321.124C79.6158 320.938 79.3578 320.799 79.08 320.716C78.8022 320.633 78.5105 320.608 78.2225 320.641C77.9345 320.675 77.6563 320.766 77.4049 320.911C77.1535 321.055 76.9342 321.249 76.7602 321.481C75.757 323.001 76.973 326.041 77.9838 327.303C78.0446 327.371 78.7894 328.116 79.2606 328.572L78.303 327.888C77.6494 327.432 76.9806 326.999 76.2662 326.52L75.2022 325.866C74.845 325.638 74.4422 325.448 74.0622 325.228C73.173 324.749 72.2534 324.308 71.311 323.89C71.7062 323.313 73.097 321.261 73.325 320.09C73.553 318.92 73.515 317.324 72.6562 316.374C72.4615 316.143 72.2204 315.956 71.9486 315.824C71.6768 315.693 71.3803 315.62 71.0785 315.611C70.7766 315.601 70.4762 315.656 70.1968 315.77C69.9174 315.885 69.6652 316.057 69.4566 316.275C68.2406 317.62 68.9778 320.835 69.791 322.211C69.8366 322.302 70.551 323.244 70.931 323.731C70.361 323.48 69.791 323.229 69.2134 322.971C67.5262 322.294 65.801 321.656 64.0834 321.018L62.5102 320.425C62.6546 320.22 64.357 317.81 64.6154 316.473C64.8434 315.28 64.8054 313.706 63.9466 312.749C63.7513 312.519 63.5099 312.333 63.2382 312.202C62.9664 312.071 62.6702 311.999 62.3687 311.989C62.0673 311.98 61.7672 312.034 61.4879 312.148C61.2086 312.262 60.9562 312.433 60.747 312.65C59.531 313.995 60.2682 317.21 61.0814 318.593C61.1422 318.7 62.1454 320.052 62.419 320.387C61.2638 319.946 60.139 319.498 59.0066 319.011C57.5078 318.354 56.0509 317.605 54.6442 316.769C54.705 316.67 56.4986 314.17 56.757 312.794C56.985 311.609 56.947 310.028 56.0882 309.078C55.8941 308.847 55.6534 308.659 55.3819 308.527C55.1103 308.394 54.814 308.321 54.5122 308.311C54.2103 308.301 53.9098 308.355 53.63 308.468C53.3503 308.582 53.0977 308.754 52.8886 308.972C51.6726 310.324 52.4174 313.532 53.223 314.915C53.2914 315.029 54.3706 316.48 54.5834 316.731L54.3326 316.594C52.9455 315.713 51.6406 314.708 50.4338 313.592C49.7574 312.984 49.1418 312.369 48.5642 311.753C48.9442 311.32 50.6618 309.329 51.0342 308.12C51.4066 306.912 51.5282 305.384 50.7758 304.32C50.6083 304.07 50.3899 303.857 50.1347 303.697C49.8796 303.537 49.5935 303.432 49.2952 303.39C48.9969 303.347 48.6929 303.368 48.4033 303.452C48.1136 303.535 47.8448 303.678 47.6142 303.872C46.2538 305.073 46.6414 308.326 47.2874 309.815C47.2874 309.891 47.7738 310.674 48.1158 311.244C47.8574 310.955 47.5838 310.674 47.3558 310.4C46.4438 309.374 45.6762 308.371 44.9998 307.482C44.6198 306.98 44.2854 306.509 43.9814 306.068C44.1334 305.453 44.7414 302.945 44.4906 301.721C44.2398 300.498 43.6698 299.076 42.5222 298.499C42.2572 298.349 41.9632 298.257 41.6599 298.23C41.3567 298.202 41.051 298.24 40.7634 298.34C40.4757 298.44 40.2127 298.6 39.9918 298.809C39.7709 299.019 39.5972 299.273 39.4822 299.555C38.8286 301.25 40.6754 303.956 41.937 304.974C42.0434 305.065 43.913 306.243 43.9206 306.213V306.175C44.2094 306.6 44.521 307.064 44.8706 307.558C45.5318 308.462 46.2842 309.473 47.1506 310.53C48.0996 311.672 49.1147 312.758 50.1906 313.782C51.3884 314.943 52.6882 315.993 54.0742 316.921H54.1274C53.6182 316.777 52.1666 316.42 52.0526 316.404C50.449 316.192 47.219 316.731 46.4362 318.373C46.3156 318.65 46.2544 318.949 46.2566 319.251C46.2588 319.553 46.3243 319.851 46.4489 320.126C46.5736 320.401 46.7545 320.647 46.9801 320.847C47.2057 321.048 47.4709 321.199 47.7586 321.291C48.967 321.755 50.4414 321.185 51.4522 320.524Z" fill="#263238"/>
<path d="M69.0463 293.446C69.0842 293.446 68.0735 291.478 67.9975 291.356C67.0931 290.011 64.5623 287.936 62.8142 288.43C62.5261 288.52 62.2603 288.67 62.034 288.869C61.8078 289.069 61.6263 289.315 61.5015 289.589C61.3767 289.864 61.3113 290.162 61.3096 290.464C61.3079 290.766 61.37 291.065 61.4919 291.341C61.9631 292.534 63.3615 293.271 64.5319 293.621C65.8999 293.97 69.0463 293.446 69.0463 293.446Z" fill="#263238"/>
<path d="M174.792 103.938L167.99 109.919" stroke="#263238" stroke-linecap="round" stroke-linejoin="round"/>
<path d="M235.326 50.7227L195.753 85.5079" stroke="#263238" stroke-linecap="round" stroke-linejoin="round"/>
<path d="M229.406 49.2383L190.927 63.2983" stroke="#263238" stroke-linecap="round" stroke-linejoin="round"/>
<path d="M194.165 43.4844L169.465 45.5364" stroke="#263238" stroke-linecap="round" stroke-linejoin="round"/>
<path d="M222.741 41.1016L196.923 43.2524" stroke="#263238" stroke-linecap="round" stroke-linejoin="round"/>
<path d="M211.797 25.7629L186.063 17.1445" stroke="#263238" stroke-linecap="round" stroke-linejoin="round"/>
<path d="M220.521 28.5209L215.376 26.8945" stroke="#263238" stroke-linecap="round" stroke-linejoin="round"/>
<path d="M323.973 103.938L330.775 109.919" stroke="#263238" stroke-linecap="round" stroke-linejoin="round"/>
<path d="M263.439 50.7227L319.785 100.259" stroke="#263238" stroke-linecap="round" stroke-linejoin="round"/>
<path d="M269.359 49.2383L307.838 63.2983" stroke="#263238" stroke-linecap="round" stroke-linejoin="round"/>
<path d="M304.593 43.4844L329.293 45.5364" stroke="#263238" stroke-linecap="round" stroke-linejoin="round"/>
<path d="M276.017 41.1016L301.841 43.2524" stroke="#263238" stroke-linecap="round" stroke-linejoin="round"/>
<path d="M286.968 25.7632L306.629 19.5312" stroke="#263238" stroke-linecap="round" stroke-linejoin="round"/>
<path d="M278.236 28.5209L283.389 26.8945" stroke="#263238" stroke-linecap="round" stroke-linejoin="round"/>
<path d="M250.124 44.3164H246.05V61.6596H250.124V44.3164Z" fill="#3AA959" stroke="#263238" stroke-linecap="round" stroke-linejoin="round"/>
<path d="M254.106 65.3744H242.068L243.489 58.6484H252.685L254.106 65.3744Z" fill="#3AA959" stroke="#263238" stroke-linecap="round" stroke-linejoin="round"/>
<path d="M261.356 68.2018H234.817L237.644 62.0078H258.529L261.356 68.2018Z" fill="#3AA959" stroke="#263238" stroke-linecap="round" stroke-linejoin="round"/>
<path d="M234.635 25.9549C232.737 25.9186 230.87 26.4484 229.274 27.4767C227.678 28.505 226.424 29.9852 225.673 31.7288C224.921 33.4723 224.706 35.4001 225.054 37.2666C225.402 39.133 226.298 40.8536 227.627 42.209C228.957 43.5644 230.66 44.4933 232.519 44.8772C234.378 45.2611 236.31 45.0828 238.068 44.3648C239.825 43.6468 241.33 42.4218 242.388 40.8458C243.447 39.2699 244.013 37.4143 244.013 35.5157C244.025 34.2721 243.792 33.0383 243.327 31.8848C242.863 30.7313 242.175 29.6806 241.304 28.7928C240.433 27.905 239.396 27.1974 238.252 26.7105C237.107 26.2235 235.878 25.9668 234.635 25.9549ZM234.635 42.6749C233.219 42.7005 231.828 42.3041 230.639 41.5362C229.45 40.7683 228.516 39.6637 227.957 38.3631C227.397 37.0625 227.238 35.6249 227.499 34.2334C227.76 32.8419 228.429 31.5597 229.422 30.55C230.414 29.5404 231.685 28.8491 233.071 28.5642C234.458 28.2794 235.898 28.4139 237.208 28.9506C238.518 29.4873 239.639 30.402 240.427 31.5779C241.215 32.7539 241.636 34.1379 241.634 35.5537C241.641 37.4197 240.908 39.2122 239.596 40.5395C238.284 41.8667 236.501 42.6208 234.635 42.6369V42.6749Z" fill="#3AA959" stroke="#263238" stroke-linecap="round" stroke-linejoin="round"/>
<path d="M262.96 25.9549C261.062 25.9186 259.196 26.4484 257.6 27.4767C256.003 28.505 254.75 29.9852 253.998 31.7288C253.246 33.4723 253.031 35.4001 253.379 37.2666C253.727 39.133 254.623 40.8536 255.952 42.209C257.282 43.5644 258.985 44.4933 260.844 44.8772C262.704 45.2611 264.635 45.0828 266.393 44.3648C268.151 43.6468 269.655 42.4218 270.714 40.8458C271.772 39.2699 272.338 37.4143 272.338 35.5157C272.35 34.2721 272.117 33.0383 271.653 31.8848C271.188 30.7313 270.5 29.6806 269.629 28.7928C268.759 27.905 267.721 27.1974 266.577 26.7105C265.433 26.2235 264.204 25.9668 262.96 25.9549ZM262.96 42.6749C261.544 42.702 260.152 42.307 258.962 41.54C257.772 40.773 256.837 39.669 256.276 38.3685C255.716 37.0681 255.556 35.6302 255.816 34.2383C256.076 32.8463 256.744 31.5633 257.736 30.5529C258.729 29.5425 259.999 28.8504 261.386 28.565C262.773 28.2795 264.214 28.4135 265.524 28.95C266.834 29.4865 267.956 30.4011 268.744 31.5772C269.533 32.7533 269.953 34.1376 269.952 35.5537C269.958 37.4184 269.226 39.2097 267.916 40.5368C266.606 41.8639 264.825 42.6188 262.96 42.6369V42.6749Z" fill="#3AA959" stroke="#263238" stroke-linecap="round" stroke-linejoin="round"/>
<path d="M248.087 49.0889C246.53 49.0899 244.989 48.7842 243.55 48.1892C242.112 47.5942 240.805 46.7216 239.704 45.6213C238.603 44.521 237.73 43.2145 237.134 41.7765C236.538 40.3385 236.231 38.7971 236.231 37.2405V25.0273H259.92V37.2405C259.92 40.3803 258.674 43.3917 256.455 45.6133C254.236 47.8348 251.227 49.0849 248.087 49.0889Z" fill="#3AA959" stroke="#263238" stroke-linecap="round" stroke-linejoin="round"/>
<path d="M247.76 28.9258L249.288 33.6226H254.228L250.23 36.5258L251.758 41.2226L247.76 38.3194L243.762 41.2226L245.29 36.5258L241.292 33.6226H246.232L247.76 28.9258Z" fill="#263238"/>
<path d="M287.25 68.2617H209.426V139.215H287.25V68.2617Z" fill="#263238" stroke="#263238" stroke-linejoin="round"/>
<path d="M261.151 68.2617H209.426V139.215H261.151V68.2617Z" fill="white" stroke="#263238" stroke-linejoin="round"/>
<path d="M227.339 103.512H149.515V174.465H227.339V103.512Z" fill="#263238" stroke="#263238" stroke-linejoin="round"/>
<path d="M201.24 103.512H149.515V174.465H201.24V103.512Z" fill="white" stroke="#263238" stroke-linejoin="round"/>
<path d="M184.68 123.614V117.945H181.131C180.86 116.955 180.456 116.006 179.93 115.125L182.126 112.921L178.113 108.908L175.925 111.097C174.943 110.502 173.877 110.059 172.763 109.782V107.16H167.086V109.782C165.86 110.097 164.695 110.61 163.635 111.302L162.07 109.737L158.08 113.727L159.775 115.421C159.141 116.558 158.707 117.794 158.49 119.077H156.332V124.754H158.916C159.309 125.927 159.886 127.03 160.626 128.022L158.878 129.77L162.868 133.76L165.034 131.594C166.046 132.065 167.121 132.388 168.226 132.552V135.508H173.895V131.974C174.838 131.632 175.732 131.17 176.555 130.599L178.919 132.962L182.932 128.949L180.295 126.312C180.735 125.45 181.064 124.536 181.275 123.591L184.68 123.614ZM169.928 128.174C168.524 128.176 167.151 127.761 165.982 126.982C164.814 126.203 163.903 125.094 163.365 123.797C162.826 122.501 162.685 121.073 162.958 119.696C163.231 118.318 163.906 117.053 164.899 116.059C165.891 115.066 167.156 114.389 168.533 114.114C169.91 113.84 171.338 113.98 172.635 114.517C173.933 115.054 175.042 115.964 175.822 117.131C176.602 118.299 177.019 119.672 177.019 121.076C177.015 122.954 176.266 124.755 174.937 126.083C173.608 127.41 171.807 128.157 169.928 128.159V128.174Z" fill="#3AA959"/>
<path d="M189.871 146.111V141.938H187.264C187.059 141.211 186.76 140.513 186.375 139.863L187.993 138.244L185.045 135.28L183.433 136.892C182.711 136.454 181.927 136.129 181.108 135.927V133.996H176.935V135.927C176.034 136.151 175.177 136.524 174.397 137.028L173.28 135.888L170.331 138.837L171.577 140.084C171.113 140.921 170.792 141.831 170.627 142.774H169.047V146.947H170.947C171.234 147.809 171.657 148.62 172.201 149.348L170.916 150.632L173.865 153.581L175.461 151.993C176.204 152.335 176.993 152.57 177.802 152.692V154.866H181.974V152.274C182.664 152.014 183.318 151.666 183.92 151.241L185.66 152.981L188.609 150.032L186.671 148.094C186.993 147.461 187.233 146.789 187.385 146.095L189.871 146.111ZM179.025 149.447C177.994 149.447 176.986 149.141 176.129 148.568C175.272 147.995 174.603 147.181 174.209 146.228C173.814 145.276 173.711 144.228 173.912 143.216C174.113 142.205 174.61 141.276 175.339 140.547C176.068 139.818 176.997 139.321 178.008 139.12C179.02 138.919 180.068 139.022 181.021 139.417C181.973 139.811 182.788 140.479 183.36 141.337C183.933 142.194 184.239 143.202 184.239 144.233C184.239 144.918 184.104 145.596 183.842 146.228C183.58 146.861 183.196 147.436 182.712 147.92C182.228 148.404 181.653 148.788 181.021 149.05C180.388 149.312 179.71 149.447 179.025 149.447Z" fill="#3AA959"/>
<path d="M270.37 149.293H192.546V220.247H270.37V149.293Z" fill="#263238" stroke="#263238" stroke-linejoin="round"/>
<path d="M244.271 149.293H192.546V220.247H244.271V149.293Z" fill="white" stroke="#263238" stroke-linejoin="round"/>
<path d="M231.595 161.652L227.103 158.338C226.254 157.711 225.235 157.357 224.18 157.323C223.125 157.289 222.085 157.577 221.198 158.148L212.291 163.468C211.82 163.757 211.476 164.211 211.324 164.741C211.172 165.271 211.224 165.838 211.47 166.332C211.717 166.825 212.139 167.208 212.654 167.405C213.168 167.603 213.738 167.6 214.251 167.398L222.573 164.54L232.56 174.876L238.769 172.71V160.071L231.595 161.652Z" fill="#3AA959"/>
<path d="M221.471 165.938L213.18 168.796C211.66 169.45 210.011 166.926 210.011 165.285C210.011 163.164 212.032 162.579 213.621 161.173L215.141 159.836C214.322 159.09 213.298 158.608 212.202 158.451C211.106 158.293 209.988 158.469 208.992 158.954C206.605 160.123 203.859 160.33 201.324 159.532L199.12 158.84V172.885L201.932 173.234L202.198 173.006C203.117 172.218 204.306 171.816 205.514 171.886C206.723 171.955 207.858 172.49 208.681 173.379L218.652 184.102C218.878 184.344 219.187 184.491 219.517 184.513C219.847 184.536 220.173 184.432 220.43 184.224C220.566 184.113 220.677 183.975 220.758 183.82C220.839 183.665 220.887 183.495 220.901 183.32C220.914 183.145 220.892 182.97 220.836 182.804C220.78 182.638 220.691 182.485 220.575 182.354L218.082 179.558L221.54 181.838C221.873 182.039 222.268 182.114 222.652 182.049C223.037 181.984 223.385 181.783 223.633 181.483C223.882 181.183 224.014 180.803 224.007 180.414C223.999 180.024 223.852 179.65 223.592 179.36L221.585 177.278L224.625 179.2C224.991 179.421 225.424 179.505 225.846 179.435C226.268 179.365 226.651 179.146 226.926 178.819C227.201 178.492 227.35 178.077 227.347 177.649C227.343 177.222 227.186 176.81 226.905 176.487L225.104 174.473L228.403 176.472C228.651 176.623 228.94 176.692 229.23 176.672C229.52 176.652 229.797 176.542 230.021 176.358C230.176 176.232 230.302 176.075 230.391 175.897C230.48 175.718 230.53 175.523 230.538 175.324C230.546 175.125 230.511 174.927 230.437 174.742C230.362 174.557 230.249 174.39 230.105 174.253L221.471 165.938Z" fill="#3AA959"/>
<path d="M205.96 178.317L207.237 176.706C207.494 176.358 207.606 175.925 207.549 175.497C207.492 175.069 207.272 174.679 206.933 174.411C206.595 174.143 206.165 174.016 205.736 174.059C205.306 174.101 204.909 174.309 204.63 174.638L203.353 176.25C203.096 176.597 202.984 177.03 203.041 177.458C203.097 177.886 203.318 178.276 203.657 178.544C203.995 178.812 204.424 178.939 204.854 178.896C205.284 178.854 205.68 178.646 205.96 178.317Z" fill="#3AA959"/>
<path d="M208.422 180.665L209.699 179.054C209.94 178.706 210.04 178.279 209.977 177.86C209.915 177.441 209.695 177.062 209.363 176.8C209.031 176.537 208.611 176.411 208.189 176.447C207.767 176.484 207.375 176.679 207.092 176.994L205.815 178.598C205.574 178.946 205.475 179.373 205.537 179.791C205.6 180.21 205.819 180.589 206.152 180.852C206.484 181.114 206.904 181.24 207.325 181.204C207.747 181.168 208.139 180.972 208.422 180.657V180.665Z" fill="#3AA959"/>
<path d="M210.862 183.016L212.131 181.413C212.388 181.065 212.5 180.632 212.443 180.204C212.387 179.776 212.166 179.386 211.827 179.118C211.489 178.85 211.06 178.723 210.63 178.766C210.2 178.808 209.804 179.016 209.524 179.345L208.24 180.957C207.967 181.302 207.841 181.741 207.891 182.178C207.941 182.615 208.162 183.015 208.506 183.29C208.678 183.428 208.875 183.531 209.088 183.592C209.3 183.653 209.522 183.672 209.741 183.646C209.96 183.621 210.172 183.552 210.365 183.444C210.557 183.336 210.726 183.19 210.862 183.016Z" fill="#3AA959"/>
<path d="M214.32 181.426C214.149 181.29 213.953 181.189 213.743 181.13C213.533 181.07 213.313 181.052 213.096 181.078C212.879 181.103 212.67 181.171 212.479 181.278C212.289 181.385 212.121 181.528 211.987 181.699L210.71 183.303C210.565 183.473 210.457 183.671 210.39 183.884C210.324 184.097 210.301 184.321 210.322 184.543C210.344 184.766 210.411 184.981 210.518 185.177C210.625 185.373 210.77 185.545 210.945 185.684C211.12 185.823 211.321 185.925 211.536 185.984C211.751 186.044 211.976 186.059 212.197 186.03C212.418 186.001 212.632 185.927 212.824 185.814C213.016 185.701 213.184 185.55 213.317 185.37L214.593 183.759C214.729 183.588 214.83 183.392 214.89 183.182C214.949 182.972 214.967 182.752 214.942 182.536C214.916 182.319 214.848 182.109 214.741 181.919C214.635 181.728 214.491 181.561 214.32 181.426Z" fill="#3AA959"/>
<path d="M202.616 194.613H124.792V265.567H202.616V194.613Z" fill="#263238" stroke="#263238" stroke-linejoin="round"/>
<path d="M176.517 194.613H124.792V265.567H176.517V194.613Z" fill="white" stroke="#263238" stroke-linejoin="round"/>
<path d="M138.335 230.156H132.612V239.649H138.335V230.156Z" fill="#3AA959"/>
<path d="M145.281 226.098H139.559V239.656H145.281V226.098Z" fill="#3AA959"/>
<path d="M152.235 223.324H146.513V239.649H152.235V223.324Z" fill="#3AA959"/>
<path d="M159.182 219.629H153.459V239.655H159.182V219.629Z" fill="#3AA959"/>
<path d="M155.8 213.672L151.187 215.116L152.41 216.241L149.135 219.813L141.443 221.272L133.357 227.481C133.197 227.603 133.092 227.784 133.065 227.983C133.038 228.183 133.091 228.385 133.213 228.545C133.336 228.704 133.517 228.808 133.716 228.833C133.916 228.859 134.117 228.804 134.277 228.682L142.12 222.678L149.948 221.158L153.565 217.221L154.789 218.346L155.8 213.672Z" fill="#3AA959"/>
<path d="M249.774 248.473H171.95V319.426H249.774V248.473Z" fill="#263238" stroke="#263238" stroke-linejoin="round"/>
<path d="M223.675 248.473H171.95V319.426H223.675V248.473Z" fill="white" stroke="#263238" stroke-linejoin="round"/>
<path d="M206.157 273.513L201.4 270.374V269.477C202.407 268.138 202.968 266.517 203.003 264.841C203.003 260.73 201.324 260.281 199.241 260.281C197.159 260.281 195.479 261.178 195.479 264.841C195.519 266.552 196.105 268.206 197.151 269.561V270.085L191.938 273.513C191.501 273.8 191.142 274.192 190.894 274.652C190.646 275.112 190.516 275.627 190.517 276.15V277.275L198.801 280.908L207.601 277.275V276.15C207.599 275.625 207.466 275.109 207.214 274.648C206.962 274.188 206.599 273.797 206.157 273.513Z" fill="#3AA959"/>
<path d="M211.379 268.886C211.384 266.525 210.711 264.212 209.439 262.223C208.168 260.234 206.351 258.652 204.206 257.666C202.062 256.68 199.678 256.33 197.341 256.66C195.003 256.989 192.809 257.983 191.02 259.523C189.231 261.064 187.923 263.086 187.25 265.349C186.577 267.612 186.569 270.021 187.226 272.288C187.884 274.556 189.178 276.586 190.957 278.139C192.735 279.692 194.922 280.701 197.258 281.046V290.766C196.907 291.01 196.62 291.335 196.421 291.713C196.223 292.092 196.119 292.513 196.118 292.94V309.432C196.118 310.137 196.398 310.814 196.897 311.313C197.396 311.812 198.072 312.092 198.778 312.092C199.483 312.092 200.16 311.812 200.659 311.313C201.158 310.814 201.438 310.137 201.438 309.432V292.94C201.439 292.512 201.336 292.091 201.137 291.712C200.938 291.333 200.65 291.009 200.298 290.766V281.145C203.334 280.834 206.148 279.409 208.194 277.145C210.241 274.881 211.376 271.938 211.379 268.886ZM189.019 268.886C189.018 266.9 189.606 264.958 190.708 263.306C191.81 261.654 193.377 260.366 195.212 259.605C197.046 258.844 199.065 258.644 201.013 259.031C202.961 259.417 204.751 260.373 206.155 261.777C207.56 263.18 208.517 264.969 208.905 266.917C209.293 268.865 209.095 270.884 208.335 272.718C207.576 274.553 206.289 276.122 204.638 277.225C202.986 278.329 201.045 278.918 199.059 278.918C196.399 278.914 193.849 277.856 191.967 275.976C190.085 274.095 189.026 271.546 189.019 268.886Z" fill="#3AA959"/>
<path d="M156.613 299.668H78.7891V370.622H156.613V299.668Z" fill="#263238" stroke="#263238" stroke-linejoin="round"/>
<path d="M130.515 299.668H78.7891V370.622H130.515V299.668Z" fill="white" stroke="#263238" stroke-linejoin="round"/>
<path d="M122.748 343.236C122.747 342.711 122.616 342.195 122.367 341.733C122.117 341.272 121.757 340.879 121.319 340.591L116.538 337.437V336.54C117.548 335.202 118.112 333.58 118.15 331.904C118.15 327.8 116.462 327.344 114.35 327.344C112.237 327.344 110.588 328.241 110.588 331.904C110.622 333.617 111.208 335.272 112.26 336.624V337.156L107.046 340.576C106.608 340.864 106.247 341.257 105.998 341.718C105.749 342.18 105.618 342.696 105.617 343.221V346.094C105.172 346.008 104.718 345.97 104.264 345.98C103.874 345.974 103.484 346.012 103.102 346.094V343.221C103.101 342.696 102.97 342.18 102.721 341.718C102.471 341.257 102.111 340.864 101.673 340.576L96.9304 337.437V336.54C97.9403 335.202 98.5039 333.58 98.5416 331.904C98.5416 328.75 97.546 327.747 96.1324 327.451L98.572 324.669H102.714L103.824 340.561H104.318L105.914 324.662H111.538L113.673 327.124L113.529 324.662H116.28V303.898H93.0164V324.684H96.406L96.0944 327.458C95.6603 327.383 95.2202 327.348 94.7796 327.352C92.6972 327.352 91.0176 328.249 91.0176 331.912C91.0504 333.644 91.6482 335.317 92.72 336.677V337.209L87.5064 340.629C87.068 340.917 86.7079 341.31 86.4585 341.771C86.2091 342.233 86.0783 342.749 86.0776 343.274V348.077H100.951C100.674 348.881 100.545 349.728 100.571 350.578C100.607 352.29 101.194 353.944 102.243 355.297V355.822L97.0292 359.249C96.5904 359.535 96.2299 359.926 95.9804 360.387C95.7309 360.847 95.6003 361.363 95.6004 361.886V366.712H112.693V361.886C112.693 361.363 112.562 360.847 112.313 360.387C112.063 359.926 111.703 359.535 111.264 359.249L106.484 356.11V355.214C107.493 353.875 108.057 352.254 108.095 350.578C108.118 349.733 108.013 348.89 107.783 348.077H122.778L122.748 343.236ZM93.518 324.183V304.423H115.794V324.183H113.004L113.088 325.703L111.766 324.183H105.458L104.12 337.612L103.185 324.183H98.344L96.7632 326.037L96.9608 324.221L93.518 324.183Z" fill="#3AA959"/>
<path d="M102.022 320.439H107.13V319.664H102.03L102.022 320.439Z" fill="#3AA959"/>
<path d="M102.372 321.796H106.78C107.004 321.563 107.129 321.253 107.13 320.93H102.022C102.023 321.253 102.148 321.563 102.372 321.796Z" fill="#3AA959"/>
<path d="M103.922 323.453H105.214C105.381 323.454 105.546 323.422 105.7 323.359C105.853 323.296 105.993 323.203 106.111 323.086C106.229 322.969 106.323 322.83 106.387 322.676C106.451 322.522 106.484 322.358 106.484 322.191H102.684C102.682 322.523 102.811 322.841 103.043 323.078C103.275 323.314 103.591 323.449 103.922 323.453Z" fill="#3AA959"/>
<path d="M101.278 315.785C102.03 316.693 102.442 317.836 102.44 319.015V319.251H106.727V319.015C106.726 317.835 107.14 316.691 107.897 315.785C108.55 315.011 108.908 314.031 108.908 313.019C108.908 312.428 108.787 311.843 108.552 311.301C108.317 310.758 107.972 310.27 107.54 309.867C107.108 309.464 106.598 309.153 106.041 308.955C105.484 308.758 104.892 308.677 104.302 308.717C103.508 308.769 102.743 309.039 102.092 309.498C101.441 309.958 100.931 310.588 100.616 311.319C100.301 312.051 100.195 312.855 100.309 313.644C100.423 314.432 100.753 315.173 101.262 315.785H101.278Z" fill="#3AA959"/>
<path d="M109.577 313.051C109.577 313.16 109.62 313.264 109.697 313.341C109.774 313.418 109.878 313.461 109.987 313.461H112.153C112.262 313.461 112.366 313.418 112.443 313.341C112.52 313.264 112.563 313.16 112.563 313.051C112.563 312.942 112.52 312.838 112.443 312.761C112.366 312.684 112.262 312.641 112.153 312.641H109.987C109.878 312.641 109.774 312.684 109.697 312.761C109.62 312.838 109.577 312.942 109.577 313.051Z" fill="#3AA959"/>
<path d="M99.4383 313.051C99.4383 312.942 99.3951 312.838 99.3181 312.761C99.2411 312.684 99.1368 312.641 99.0279 312.641H96.8391C96.7303 312.641 96.6259 312.684 96.5489 312.761C96.472 312.838 96.4287 312.942 96.4287 313.051C96.4287 313.16 96.472 313.264 96.5489 313.341C96.6259 313.418 96.7303 313.461 96.8391 313.461H99.0279C99.1368 313.461 99.2411 313.418 99.3181 313.341C99.3951 313.264 99.4383 313.16 99.4383 313.051Z" fill="#3AA959"/>
<path d="M104.507 307.975C104.616 307.975 104.721 307.932 104.798 307.855C104.875 307.778 104.918 307.673 104.918 307.564V305.391C104.919 305.337 104.909 305.284 104.889 305.234C104.87 305.185 104.84 305.139 104.803 305.101C104.765 305.063 104.72 305.033 104.671 305.012C104.622 304.991 104.569 304.98 104.515 304.98C104.408 304.982 104.305 305.027 104.23 305.103C104.154 305.18 104.112 305.283 104.112 305.391V307.557C104.112 307.664 104.153 307.767 104.227 307.845C104.3 307.922 104.401 307.969 104.507 307.975Z" fill="#3AA959"/>
<path d="M108.422 309.538C108.53 309.536 108.634 309.493 108.71 309.416L110.23 307.896C110.269 307.859 110.3 307.814 110.321 307.764C110.342 307.715 110.352 307.661 110.352 307.608C110.352 307.554 110.342 307.5 110.321 307.451C110.3 307.401 110.269 307.356 110.23 307.319C110.152 307.242 110.047 307.199 109.938 307.199C109.828 307.199 109.723 307.242 109.645 307.319L108.125 308.839C108.049 308.916 108.006 309.019 108.006 309.128C108.006 309.236 108.049 309.34 108.125 309.416C108.206 309.492 108.311 309.535 108.422 309.538Z" fill="#3AA959"/>
<path d="M100.32 316.66L98.8 318.18C98.7238 318.256 98.6812 318.36 98.6812 318.468C98.6812 318.577 98.7238 318.68 98.8 318.757C98.8375 318.796 98.8824 318.826 98.932 318.847C98.9816 318.868 99.0349 318.879 99.0888 318.879C99.1426 318.879 99.1959 318.868 99.2455 318.847C99.2951 318.826 99.34 318.796 99.3776 318.757L100.898 317.237C100.962 317.158 100.995 317.058 100.99 316.957C100.985 316.855 100.943 316.759 100.871 316.687C100.798 316.615 100.702 316.572 100.6 316.567C100.499 316.562 100.399 316.595 100.32 316.66Z" fill="#3AA959"/>
<path d="M100.244 309.371C100.283 309.41 100.329 309.441 100.38 309.462C100.431 309.482 100.485 309.493 100.54 309.492C100.621 309.492 100.7 309.467 100.767 309.422C100.834 309.377 100.886 309.313 100.917 309.238C100.948 309.164 100.956 309.082 100.94 309.003C100.925 308.923 100.886 308.85 100.829 308.793L99.3775 307.341C99.3412 307.297 99.296 307.261 99.2448 307.235C99.1936 307.209 99.1377 307.195 99.0804 307.192C99.0232 307.189 98.966 307.198 98.9126 307.219C98.8591 307.24 98.8106 307.271 98.7701 307.312C98.7296 307.352 98.698 307.401 98.6774 307.454C98.6568 307.508 98.6476 307.565 98.6504 307.622C98.6532 307.679 98.668 307.735 98.6937 307.786C98.7195 307.837 98.7557 307.883 98.7999 307.919L100.244 309.371Z" fill="#3AA959"/>
<path d="M108.748 316.729C108.67 316.652 108.565 316.609 108.456 316.609C108.346 316.609 108.241 316.652 108.163 316.729C108.087 316.806 108.044 316.91 108.044 317.018C108.044 317.126 108.087 317.23 108.163 317.306L109.607 318.75C109.645 318.789 109.69 318.82 109.739 318.841C109.789 318.862 109.842 318.872 109.896 318.872C109.95 318.872 110.003 318.862 110.053 318.841C110.102 318.82 110.147 318.789 110.185 318.75C110.261 318.674 110.304 318.57 110.304 318.462C110.304 318.353 110.261 318.25 110.185 318.173L108.748 316.729Z" fill="#3AA959"/>
<path d="M135.462 139.793C135.462 139.793 137.948 142.643 137.575 143.638C137.321 144.611 137.196 145.612 137.203 146.617C137.203 146.617 140.425 148.358 140.425 149.224C140.307 150.047 140.05 150.843 139.665 151.58C139.665 151.58 140.425 156.543 139.916 157.782C139.407 159.021 134.079 159.895 134.079 159.895L132.096 165.975L120.696 162.501L122.558 156.421C122.558 156.421 119.708 149.224 119.206 146.868C118.704 144.512 122.307 139.914 126.806 138.797C129.724 138.198 132.757 138.547 135.462 139.793Z" fill="white" stroke="#263238" stroke-linejoin="round"/>
<path d="M131.617 151.087C131.617 151.087 133.6 151.208 133.357 150.213C133.114 149.217 132.361 148.693 132.734 148.229C133.106 147.766 135.462 146.246 134.717 145.25C133.973 144.254 131.738 143.517 132.734 142.4C133.729 141.283 139.437 138.798 139.437 138.798C139.437 138.798 133.6 136.069 132.734 136.069C131.867 136.069 136.207 134.709 134.717 133.592C133.228 132.474 123.675 132.474 119.829 137.559C115.983 142.643 116.477 145.622 117.967 149.84C119.457 154.058 122.307 159.029 123.796 159.401C125.286 159.774 130.249 160.017 130.499 158.284C130.75 156.551 131.617 151.087 131.617 151.087Z" fill="#263238" stroke="#263238" stroke-linejoin="round"/>
<path d="M133.228 152.204C133.228 152.204 129.717 147.865 129.504 149.522C129.291 151.178 130.538 157.122 132.81 155.716" fill="white"/>
<path d="M133.228 152.204C133.228 152.204 129.717 147.865 129.504 149.522C129.291 151.178 130.538 157.122 132.81 155.716" stroke="#263238" stroke-linejoin="round"/>
<path d="M113.749 164.86C113.749 164.86 116.477 165.726 123.051 167.094C129.625 168.462 135.211 169.822 135.211 169.822C135.211 169.822 133.479 164.609 131.617 163.621C129.755 162.633 119.829 160.642 118.59 160.763C117.351 160.885 113.749 164.86 113.749 164.86Z" fill="white" stroke="#263238" stroke-linejoin="round"/>
<path d="M155.8 199.476C155.8 199.476 167.094 189.307 167.709 188.684C168.325 188.061 166.949 183.227 166.949 182.483C166.949 181.738 169.556 180.491 169.556 180.491C169.556 180.491 169.928 178.508 171.167 178.508C172.406 178.508 174.519 180.119 174.519 180.119L174.77 181.487C174.77 181.487 176.502 185.333 176.502 185.956C176.33 187.275 175.72 188.498 174.77 189.429C173.531 190.668 170.673 193.275 170.673 193.275C170.673 193.275 160.748 206.673 158.513 208.535C156.279 210.397 153.3 212.381 152.182 210.154C151.065 207.927 155.8 199.476 155.8 199.476Z" fill="white" stroke="#263238" stroke-linejoin="round"/>
<path d="M169.586 180.492L169.959 181.488L168.963 182.233" stroke="#263238" stroke-linejoin="round"/>
<path d="M84.4662 184.961C84.4662 184.961 80.119 189.43 80.3698 191.292C80.6206 193.154 90.6678 213.871 90.6678 213.871C90.6678 213.871 91.4278 216.98 91.9066 217.223C92.3854 217.466 93.5178 219.336 93.5178 219.336C93.5178 219.336 93.5178 220.947 95.3798 219.207C97.2418 217.466 99.8486 215.49 99.727 213.887C99.5814 212.817 99.1028 211.819 98.359 211.037C98.359 211.037 97.7434 209.517 97.1202 209.425C96.497 209.334 93.647 209.296 93.647 209.296L90.4398 192.409L84.4662 184.961Z" fill="white" stroke="#263238" stroke-linejoin="round"/>
<path d="M94.6353 212.258L96.2541 213.125C96.2541 213.125 94.2629 216.104 95.0077 216.727C95.7525 217.35 97.9869 212.882 98.2377 212.258C98.4885 211.635 97.8653 211.02 97.8653 211.02" fill="white"/>
<path d="M94.6353 212.258L96.2541 213.125C96.2541 213.125 94.2629 216.104 95.0077 216.727C95.7525 217.35 97.9869 212.882 98.2377 212.258C98.4885 211.635 97.8653 211.02 97.8653 211.02" stroke="#263238" stroke-linejoin="round"/>
<path d="M95.6309 213.375L92.4009 216.233" stroke="#263238" stroke-linejoin="round"/>
<path d="M100.928 275.961L92.8794 282.938C93.1873 283.752 93.7532 284.443 94.4906 284.906C95.5622 285.446 100.213 289.922 101.642 290.811C104.218 292.448 107.181 293.373 110.23 293.494C114.03 293.494 114.707 292.065 114.707 291.526C114.707 290.986 107.373 286.16 107.373 286.16L105.761 279.723L100.928 275.961Z" fill="white" stroke="#263238" stroke-linejoin="round"/>
<path d="M94.4982 281.539L92.8794 282.937C93.1873 283.752 93.7532 284.443 94.4906 284.906C95.5622 285.445 100.213 289.922 101.642 290.811C104.218 292.447 107.181 293.373 110.23 293.494C112.434 293.494 113.582 293.007 114.167 292.491C112.545 292.103 110.896 291.833 109.235 291.685C106.772 291.685 104.059 289.473 104.059 289.473L94.4982 281.539Z" fill="white" stroke="#263238" stroke-linejoin="round"/>
<path d="M98.3592 206.301C98.3592 206.301 96.6112 215.421 98.1844 218.301C99.4472 220.486 100.848 222.588 102.38 224.594L124.678 253.185L100.548 276.532L106.119 282.225C106.119 282.225 136.519 257.145 138.32 256.073C140.121 255.002 138.32 246.102 137.796 245.319C137.271 244.536 126.791 221.607 126.791 221.607L127.771 211.393L98.3592 206.301Z" fill="#263238" stroke="#263238" stroke-linejoin="round"/>
<path d="M114.532 288.364C114.532 288.364 119.951 294.398 120.817 295.014C121.684 295.63 127.832 299.202 127.832 299.202C127.832 299.202 127.71 300.06 127.216 300.19C126.722 300.319 114.532 300.433 113.673 300.311C112.814 300.19 105.64 296.397 104.804 295.994C103.575 295.321 102.382 294.583 101.232 293.783L106.651 285.035L114.532 288.364Z" fill="white" stroke="#263238" stroke-linejoin="round"/>
<path d="M105.358 222.68L110.526 226.381L117.921 250.58L105.358 286.057L116.287 289.097L116.994 285.129L119.168 280.965C119.168 280.965 132.513 251.689 132.696 249.288C132.878 246.886 126.79 221.578 126.79 221.578L125.681 210.862L106.46 209.008" fill="#263238"/>
<path d="M105.358 222.68L110.526 226.381L117.921 250.58L105.358 286.057L116.287 289.097L116.994 285.129L119.168 280.965C119.168 280.965 132.513 251.689 132.696 249.288C132.878 246.886 126.79 221.578 126.79 221.578L125.681 210.862L106.46 209.008" stroke="#263238" stroke-linejoin="round"/>
<path d="M127.216 300.201C127.71 300.071 127.832 299.213 127.832 299.213L126.745 298.574C122.056 298.217 114.19 297.609 113.673 297.609C113.156 297.609 105.488 293.125 102.684 291.445L101.232 293.794C102.382 294.594 103.575 295.332 104.804 296.005C105.663 296.378 112.807 300.201 113.673 300.322C114.54 300.444 126.722 300.315 127.216 300.201Z" fill="white" stroke="#263238" stroke-linejoin="round"/>
<path d="M115.36 164.484C115.36 164.484 103.078 165.723 102.949 166.225C102.82 166.726 86.5713 184.336 86.5713 184.336L90.9185 192.65L101.338 188.189L98.3589 206.3C98.3589 206.3 96.3753 207.06 99.9701 208.906C103.565 210.753 111.887 213.124 117.594 213.124C123.302 213.124 126.524 213.124 127.771 211.392C128.581 210.319 129.016 209.011 129.01 207.668C129.131 206.672 134.968 191.533 134.968 191.533C134.968 191.533 147.994 208.253 148.488 208.663C148.982 209.074 151.346 209.423 153.33 207.044C155.313 204.666 154.941 199.232 154.941 199.232C154.941 199.232 147.622 185.954 147.25 184.092C146.877 182.23 145.73 176.492 145.015 175.033C144.301 173.574 143.282 173.422 141.291 172.426C139.3 171.431 133.851 169.576 133.851 169.576L115.36 164.484Z" fill="white" stroke="#263238" stroke-linejoin="round"/>
<path d="M104.196 169.949L101.338 188.189L102.577 170.937" stroke="#263238" stroke-linejoin="round"/>
<path d="M100.966 187.688L97.7437 179.746" stroke="#263238" stroke-linejoin="round"/>
<path d="M92.9552 183.136L91.04 181.98" stroke="#263238" stroke-linejoin="round"/>
<path d="M101.338 188.191L94.5742 184.117" stroke="#263238" stroke-linejoin="round"/>
<path d="M140.775 182.505L143.898 177.641" stroke="#263238" stroke-linejoin="round"/>
<path d="M134.968 191.533L139.787 184.039" stroke="#263238" stroke-linejoin="round"/>
<path d="M144.362 185.562L145.76 184.711" stroke="#263238" stroke-linejoin="round"/>
<path d="M135.713 190.796L142.667 186.586" stroke="#263238" stroke-linejoin="round"/>
<path d="M135.09 190.668L147.25 188.562" stroke="#263238" stroke-linejoin="round"/>
<path d="M99.9702 206.803L112.138 203.824" stroke="#263238" stroke-linejoin="round"/>
<path d="M120.429 199.681C121.213 199.376 121.975 199.018 122.709 198.609" stroke="#263238" stroke-linejoin="round"/>
<path d="M105.062 203.822C109.628 202.955 114.136 201.808 118.56 200.387" stroke="#263238" stroke-linejoin="round"/>
<path d="M154.819 198.36C154.57 200.375 153.652 202.248 152.213 203.68C150.797 205.206 148.935 206.246 146.893 206.652C146.893 206.652 148.01 210.877 149.378 210.877C150.746 210.877 153.102 211.637 155.207 208.765C157.312 205.892 157.814 201.073 157.191 199.827C156.567 198.581 156.187 197.988 154.819 198.36Z" fill="white" stroke="#263238" stroke-linejoin="round"/>
<path d="M88.4333 181.488C88.4333 181.488 94.3917 192.653 93.8901 192.888C93.3885 193.124 91.2909 195.001 90.5461 195.123C89.8013 195.244 86.4497 191.893 85.2261 189.043C84.0025 186.193 83.6149 185.068 83.9873 184.574C84.3597 184.08 87.6885 181.488 88.4333 181.488Z" fill="white" stroke="#263238" stroke-linejoin="round"/>
<path d="M359.807 122.428C360.476 118.628 361.441 109.242 355.718 104.629C348.46 98.7769 343.307 109.311 336.984 101.118C330.661 92.9249 328.791 75.1257 310.08 75.3537C291.369 75.5817 289.94 86.1305 289.94 89.6417C289.94 93.1529 284.324 95.7217 283.153 95.7217C281.983 95.7217 275.424 92.6817 273.083 99.4685C270.742 106.255 272.323 110.185 268.607 110.329C264.89 110.473 260.247 105.397 255.2 107.935C250.154 110.473 250.131 115.862 248.026 117.731C245.921 119.601 242.402 116.333 237.72 118.203C234.886 119.335 234.027 121.159 233.791 122.421L359.807 122.428Z" fill="white" stroke="black" stroke-miterlimit="10"/>
<path d="M154.789 48.9904C155.192 46.7104 155.769 41.018 152.311 38.2288C147.926 34.6872 144.81 41.056 140.98 36.1008C137.149 31.1456 136.04 20.384 124.693 20.5208C113.346 20.6576 112.533 27.034 112.533 29.162C112.533 31.29 109.128 32.848 108.421 32.848C107.715 32.848 103.747 31.0012 102.341 35.128C100.935 39.2548 101.885 41.6108 99.6358 41.6944C97.3862 41.778 94.5894 38.7152 91.5266 40.2504C88.4638 41.7856 88.4866 45.0384 87.187 46.1708C85.8874 47.3032 83.7898 45.3196 80.955 46.4596C80.3682 46.6347 79.8386 46.9629 79.4206 47.4103C79.0025 47.8577 78.7111 48.4083 78.5762 49.0056L154.789 48.9904Z" fill="white" stroke="black" stroke-miterlimit="10"/>
<path d="M94.62 79.3907C94.8632 78.0151 95.2128 74.6103 93.1 72.9383C90.4704 70.8103 88.6008 74.6331 86.3056 71.6615C84.0104 68.6899 83.372 62.2375 76.5776 62.3211C69.7832 62.4047 69.274 66.2275 69.274 67.5043C69.274 68.7811 67.2372 69.7083 66.8116 69.7083C66.386 69.7083 64.0148 68.6063 63.1636 71.0687C62.3124 73.5311 62.89 74.9523 61.5372 75.0055C60.1844 75.0587 58.4972 73.2195 56.6732 74.1391C54.8492 75.0587 54.8416 77.0119 54.074 77.6959C53.3064 78.3799 52.0372 77.1791 50.3424 77.8631C49.9905 77.9663 49.6725 78.1616 49.4213 78.4288C49.1701 78.696 48.9948 79.0255 48.9136 79.3831L94.62 79.3907Z" fill="white" stroke="black" stroke-miterlimit="10"/>
<path d="M334.02 211.629C334.263 210.253 334.613 206.849 332.538 205.177C329.908 203.049 328.039 206.871 325.744 203.9C323.448 200.928 322.772 194.476 315.978 194.559C309.183 194.643 308.674 198.466 308.674 199.743C308.674 201.019 306.637 201.947 306.212 201.947C305.786 201.947 303.415 200.845 302.564 203.307C301.713 205.769 302.29 207.191 300.937 207.244C299.585 207.297 297.897 205.458 296.073 206.377C294.249 207.297 294.242 209.25 293.474 209.934C292.707 210.618 291.437 209.417 289.743 210.101C289.391 210.205 289.073 210.4 288.821 210.667C288.57 210.934 288.395 211.264 288.314 211.621L334.02 211.629Z" fill="white" stroke="black" stroke-miterlimit="10"/>
<path d="M312.633 84.0645C312.846 82.8637 313.15 79.8921 311.341 78.4329C309.061 76.5785 307.412 79.9529 305.406 77.3157C303.399 74.6785 302.814 69.0849 296.879 69.1609C290.943 69.2369 290.502 72.5733 290.502 73.7209C290.502 74.8685 288.724 75.6513 288.351 75.6513C287.979 75.6513 285.904 74.6861 285.167 76.8369C284.43 78.9877 284.924 80.2341 283.746 80.2797C282.568 80.3253 281.109 78.7141 279.505 79.5197C277.901 80.3253 277.901 82.0277 277.225 82.6205C276.549 83.2133 275.447 82.1797 273.957 82.7725C273.65 82.863 273.374 83.0342 273.156 83.2682C272.938 83.5021 272.787 83.7902 272.718 84.1025L312.633 84.0645Z" fill="white" stroke="black" stroke-miterlimit="10"/>
</svg>
