<svg width="412" height="412" viewBox="0 0 412 412" fill="none" xmlns="http://www.w3.org/2000/svg">
<path d="M275.694 98.4261C275.694 98.4261 232.739 74.3983 183.455 92.6581C134.172 110.918 102.761 158.413 76.3352 196.243C49.9095 234.073 53.9306 277.819 84.9295 302.737C115.928 327.655 144.027 303.478 192.321 310.285C240.616 317.091 252.375 326.155 296.879 305.794C341.383 285.433 359.503 222.57 336.151 169.834C312.798 117.098 275.694 98.4261 275.694 98.4261Z" fill="#3AA959"/>
<path opacity="0.8" d="M275.694 98.4261C275.694 98.4261 232.739 74.3983 183.455 92.6581C134.172 110.918 102.761 158.413 76.3352 196.243C49.9095 234.073 53.9306 277.819 84.9295 302.737C115.928 327.655 144.027 303.478 192.321 310.285C240.616 317.091 252.375 326.155 296.879 305.794C341.383 285.433 359.503 222.57 336.151 169.834C312.798 117.098 275.694 98.4261 275.694 98.4261Z" fill="white"/>
<path d="M349.104 353.124C349.104 356.354 284.906 358.975 205.728 358.975C126.55 358.975 62.3521 356.354 62.3521 353.124C62.3521 349.894 126.542 347.266 205.728 347.266C284.914 347.266 349.104 349.886 349.104 353.124Z" fill="#3AA959"/>
<path opacity="0.5" d="M349.104 353.124C349.104 356.354 284.906 358.975 205.728 358.975C126.55 358.975 62.3521 356.354 62.3521 353.124C62.3521 349.894 126.542 347.266 205.728 347.266C284.914 347.266 349.104 349.886 349.104 353.124Z" fill="white"/>
<path d="M329.526 294.085C327.531 296.396 326.184 299.193 325.62 302.193L317.792 306.585V285.829L317.94 286.043L330.424 276.905C331.998 277.152 338.054 277.844 343.608 274.87C349.969 271.417 354.649 259.56 354.649 259.56C354.649 259.56 339.381 257.837 334.206 264.24C331.368 267.564 329.857 271.819 329.962 276.188L317.792 285.104V269.777C320.07 268.716 322.084 267.161 323.687 265.226C325.29 263.291 326.443 261.023 327.062 258.587C329.278 249.96 317.454 232.961 317.454 232.961C317.454 232.961 305.135 250.454 307.566 259.329C309.651 266.844 315.262 269.217 316.935 269.777V303.026L308.176 295.717C308.374 293.97 308.53 288.49 303.652 282.994C297.736 276.345 281.973 276.839 281.973 276.839C281.973 276.839 288.622 290.138 294.333 294.58C299.277 298.452 306.116 296.87 307.756 296.409L317.001 304.113V314.216H303.232L308.835 349.236H325.645L331.248 314.216H317.792V307.533L326.394 302.713C328.487 303.289 334.338 304.492 339.875 301.724C346.772 298.288 352.433 290.872 352.433 290.872C352.433 290.872 335.928 286.694 329.526 294.085Z" fill="#3AA959"/>
<path opacity="0.5" d="M329.526 294.085C327.531 296.396 326.184 299.193 325.62 302.193L317.792 306.585V285.829L317.94 286.043L330.424 276.905C331.998 277.152 338.054 277.844 343.608 274.87C349.969 271.417 354.649 259.56 354.649 259.56C354.649 259.56 339.381 257.837 334.206 264.24C331.368 267.564 329.857 271.819 329.962 276.188L317.792 285.104V269.777C320.07 268.716 322.084 267.161 323.687 265.226C325.29 263.291 326.443 261.023 327.062 258.587C329.278 249.96 317.454 232.961 317.454 232.961C317.454 232.961 305.135 250.454 307.566 259.329C309.651 266.844 315.262 269.217 316.935 269.777V303.026L308.176 295.717C308.374 293.97 308.53 288.49 303.652 282.994C297.736 276.345 281.973 276.839 281.973 276.839C281.973 276.839 288.622 290.138 294.333 294.58C299.277 298.452 306.116 296.87 307.756 296.409L317.001 304.113V314.216H303.232L308.835 349.236H325.645L331.248 314.216H317.792V307.533L326.394 302.713C328.487 303.289 334.338 304.492 339.875 301.724C346.772 298.288 352.433 290.872 352.433 290.872C352.433 290.872 335.928 286.694 329.526 294.085Z" fill="white"/>
<path d="M295.387 95.5898H106.831C101.525 95.5898 97.2236 99.8914 97.2236 105.198V224.027C97.2236 229.333 101.525 233.635 106.831 233.635H295.387C300.694 233.635 304.995 229.333 304.995 224.027V105.198C304.995 99.8914 300.694 95.5898 295.387 95.5898Z" fill="#3AA959" stroke="#263238" stroke-miterlimit="10" stroke-linecap="round"/>
<path opacity="0.7" d="M295.387 95.5898H106.831C101.525 95.5898 97.2236 99.8914 97.2236 105.198V224.027C97.2236 229.333 101.525 233.635 106.831 233.635H295.387C300.694 233.635 304.995 229.333 304.995 224.027V105.198C304.995 99.8914 300.694 95.5898 295.387 95.5898Z" fill="#3AA959" stroke="#263238" stroke-miterlimit="10" stroke-linecap="round"/>
<path d="M184.856 172.766H160.548V186.403H184.856V172.766Z" fill="white"/>
<path d="M184.856 188.867H160.548V202.504H184.856V188.867Z" fill="white"/>
<path d="M211.636 172.766H187.328V186.403H211.636V172.766Z" fill="white"/>
<path d="M238.424 156.656H214.116V170.293H238.424V156.656Z" fill="white"/>
<path d="M238.424 140.551H214.116V154.188H238.424V140.551Z" fill="white"/>
<path d="M238.424 110.777H214.116V121.967H238.424V110.777Z" fill="#263238"/>
<path d="M211.636 110.777H187.328V121.967H211.636V110.777Z" fill="#263238"/>
<path d="M211.636 188.867H187.328V202.504H211.636V188.867Z" fill="white"/>
<path d="M211.636 124.441H187.328V138.079H211.636V124.441Z" fill="white"/>
<path d="M211.636 140.551H187.328V154.188H211.636V140.551Z" fill="white"/>
<path d="M211.636 156.656H187.328V170.293H211.636V156.656Z" fill="white"/>
<path d="M238.424 188.867H214.116V202.504H238.424V188.867Z" fill="white"/>
<path d="M131.288 124.441H105.373V138.079H131.288V124.441Z" fill="white"/>
<path d="M131.288 156.656H105.373V170.293H131.288V156.656Z" fill="white"/>
<path d="M131.288 172.766H105.373V186.403H131.288V172.766Z" fill="white"/>
<path d="M131.288 140.551H105.373V154.188H131.288V140.551Z" fill="white"/>
<path d="M293.599 110.777H267.685V121.967H293.599V110.777Z" fill="#263238"/>
<path d="M131.288 188.867H105.373V202.504H131.288V188.867Z" fill="white"/>
<path d="M265.204 124.441H240.896V138.079H265.204V124.441Z" fill="white"/>
<path d="M238.424 172.766H214.116V186.403H238.424V172.766Z" fill="white"/>
<path d="M265.204 172.766H240.896V186.403H265.204V172.766Z" fill="white"/>
<path d="M265.204 140.551H240.896V154.188H265.204V140.551Z" fill="white"/>
<path d="M265.204 156.656H240.896V170.293H265.204V156.656Z" fill="white"/>
<path d="M265.204 188.867H240.896V202.504H265.204V188.867Z" fill="white"/>
<path d="M238.424 124.441H214.116V138.079H238.424V124.441Z" fill="white"/>
<path d="M293.599 188.867H267.685V202.504H293.599V188.867Z" fill="white"/>
<path d="M265.204 110.777H240.896V121.967H265.204V110.777Z" fill="#263238"/>
<path d="M293.599 172.766H267.685V186.403H293.599V172.766Z" fill="white"/>
<path d="M265.204 204.977H240.896V219.388H265.204V204.977Z" fill="white"/>
<path d="M293.599 156.656H267.685V170.293H293.599V156.656Z" fill="white"/>
<path d="M211.636 204.977H187.328V219.388H211.636V204.977Z" fill="white"/>
<path d="M238.424 204.977H214.116V219.388H238.424V204.977Z" fill="white"/>
<path d="M293.599 140.551H267.685V154.188H293.599V140.551Z" fill="white"/>
<path d="M293.599 204.977H267.685V219.388H293.599V204.977Z" fill="white"/>
<path d="M131.288 204.977H105.373V219.388H131.288V204.977Z" fill="white"/>
<path d="M293.599 124.441H267.685V138.079H293.599V124.441Z" fill="white"/>
<path d="M131.288 110.777H105.373V121.967H131.288V110.777Z" fill="#263238"/>
<path d="M158.068 110.777H133.76V121.967H158.068V110.777Z" fill="#263238"/>
<path d="M158.068 172.766H133.76V186.403H158.068V172.766Z" fill="white"/>
<path d="M184.856 110.777H160.548V121.967H184.856V110.777Z" fill="#263238"/>
<path d="M184.856 140.551H160.548V154.188H184.856V140.551Z" fill="white"/>
<path d="M158.068 188.867H133.76V202.504H158.068V188.867Z" fill="white"/>
<path d="M184.856 124.441H160.548V138.079H184.856V124.441Z" fill="white"/>
<path d="M158.068 124.441H133.76V138.079H158.068V124.441Z" fill="white"/>
<path d="M184.856 156.656H160.548V170.293H184.856V156.656Z" fill="white"/>
<path d="M158.068 156.656H133.76V170.293H158.068V156.656Z" fill="white"/>
<path d="M158.068 204.977H133.76V219.388H158.068V204.977Z" fill="white"/>
<path d="M158.068 140.551H133.76V154.188H158.068V140.551Z" fill="white"/>
<path d="M184.856 204.977H160.548V219.388H184.856V204.977Z" fill="white"/>
<path d="M116.81 103.254C118.744 103.254 120.312 101.686 120.312 99.752C120.312 97.8179 118.744 96.25 116.81 96.25C114.876 96.25 113.308 97.8179 113.308 99.752C113.308 101.686 114.876 103.254 116.81 103.254Z" fill="white" stroke="#263238" stroke-miterlimit="10" stroke-linecap="round"/>
<path d="M132.169 99.7528C132.171 99.0579 131.966 98.3781 131.581 97.7996C131.196 97.221 130.648 96.7699 130.006 96.5032C129.365 96.2364 128.658 96.1662 127.976 96.3014C127.295 96.4366 126.668 96.7711 126.177 97.2625C125.686 97.7539 125.351 98.3801 125.216 99.0618C125.081 99.7435 125.151 100.45 125.418 101.092C125.684 101.733 126.136 102.282 126.714 102.667C127.293 103.052 127.972 103.256 128.667 103.255C129.596 103.255 130.487 102.886 131.144 102.229C131.8 101.572 132.169 100.682 132.169 99.7528Z" fill="white" stroke="#263238" stroke-miterlimit="10" stroke-linecap="round"/>
<path d="M116.876 102.035C116.389 102.035 115.921 101.841 115.577 101.497C115.232 101.152 115.039 100.685 115.039 100.197V87.7715C115.038 87.5295 115.084 87.2897 115.176 87.0658C115.268 86.8419 115.403 86.6384 115.574 86.4669C115.745 86.2954 115.948 86.1593 116.171 86.0664C116.394 85.9736 116.634 85.9258 116.876 85.9258C117.366 85.9258 117.835 86.1202 118.181 86.4664C118.527 86.8125 118.722 87.282 118.722 87.7715V100.197C118.722 100.439 118.674 100.679 118.581 100.903C118.488 101.126 118.352 101.329 118.181 101.5C118.009 101.67 117.806 101.806 117.582 101.897C117.358 101.989 117.118 102.036 116.876 102.035Z" fill="white" stroke="#263238" stroke-miterlimit="10" stroke-linecap="round"/>
<path d="M128.84 102.035C128.353 102.035 127.886 101.841 127.541 101.497C127.197 101.152 127.003 100.685 127.003 100.197V87.7715C127.002 87.5295 127.049 87.2897 127.14 87.0658C127.232 86.8419 127.367 86.6384 127.538 86.4669C127.709 86.2954 127.912 86.1593 128.135 86.0664C128.359 85.9736 128.598 85.9258 128.84 85.9258C129.33 85.9258 129.799 86.1202 130.146 86.4664C130.492 86.8125 130.686 87.282 130.686 87.7715V100.197C130.686 100.439 130.638 100.679 130.546 100.903C130.453 101.126 130.317 101.329 130.145 101.5C129.974 101.67 129.77 101.806 129.546 101.897C129.322 101.989 129.082 102.036 128.84 102.035Z" fill="white" stroke="#263238" stroke-miterlimit="10" stroke-linecap="round"/>
<path d="M278.446 99.7528C278.448 99.0579 278.243 98.3781 277.858 97.7996C277.473 97.221 276.925 96.7699 276.283 96.5032C275.641 96.2364 274.935 96.1662 274.253 96.3014C273.571 96.4366 272.945 96.7711 272.454 97.2625C271.962 97.7539 271.628 98.3801 271.493 99.0618C271.357 99.7435 271.428 100.45 271.694 101.092C271.961 101.733 272.412 102.282 272.991 102.667C273.569 103.052 274.249 103.256 274.944 103.255C275.873 103.255 276.764 102.886 277.42 102.229C278.077 101.572 278.446 100.682 278.446 99.7528Z" fill="white" stroke="#263238" stroke-miterlimit="10" stroke-linecap="round"/>
<path d="M286.793 103.254C288.727 103.254 290.295 101.686 290.295 99.752C290.295 97.8179 288.727 96.25 286.793 96.25C284.859 96.25 283.291 97.8179 283.291 99.752C283.291 101.686 284.859 103.254 286.793 103.254Z" fill="white" stroke="#263238" stroke-miterlimit="10" stroke-linecap="round"/>
<path d="M275.002 102.035C274.514 102.035 274.047 101.841 273.702 101.497C273.358 101.152 273.164 100.685 273.164 100.197V87.7715C273.163 87.5295 273.21 87.2897 273.302 87.0658C273.393 86.8419 273.529 86.6384 273.699 86.4669C273.87 86.2954 274.073 86.1593 274.297 86.0664C274.52 85.9736 274.76 85.9258 275.002 85.9258C275.491 85.9258 275.961 86.1202 276.307 86.4664C276.653 86.8125 276.847 87.282 276.847 87.7715V100.197C276.847 100.439 276.8 100.679 276.707 100.903C276.614 101.126 276.478 101.329 276.306 101.5C276.135 101.67 275.931 101.806 275.707 101.897C275.483 101.989 275.244 102.036 275.002 102.035Z" fill="white" stroke="#263238" stroke-miterlimit="10" stroke-linecap="round"/>
<path d="M286.975 102.035C286.73 102.039 286.488 101.995 286.261 101.905C286.034 101.814 285.828 101.68 285.654 101.509C285.48 101.338 285.341 101.133 285.247 100.908C285.153 100.683 285.104 100.442 285.104 100.197V87.7715C285.104 87.282 285.298 86.8125 285.645 86.4664C285.991 86.1202 286.46 85.9258 286.95 85.9258C287.192 85.9258 287.431 85.9736 287.655 86.0664C287.878 86.1593 288.081 86.2954 288.252 86.4669C288.423 86.6384 288.558 86.8419 288.65 87.0658C288.742 87.2897 288.788 87.5295 288.787 87.7715V100.197C288.787 100.681 288.597 101.144 288.258 101.488C287.919 101.832 287.458 102.028 286.975 102.035Z" fill="white" stroke="#263238" stroke-miterlimit="10" stroke-linecap="round"/>
<path d="M195.881 103.254C197.815 103.254 199.383 101.686 199.383 99.752C199.383 97.8179 197.815 96.25 195.881 96.25C193.947 96.25 192.379 97.8179 192.379 99.752C192.379 101.686 193.947 103.254 195.881 103.254Z" fill="white" stroke="#263238" stroke-miterlimit="10" stroke-linecap="round"/>
<path d="M207.73 103.254C209.664 103.254 211.232 101.686 211.232 99.752C211.232 97.8179 209.664 96.25 207.73 96.25C205.796 96.25 204.228 97.8179 204.228 99.752C204.228 101.686 205.796 103.254 207.73 103.254Z" fill="white" stroke="#263238" stroke-miterlimit="10" stroke-linecap="round"/>
<path d="M195.939 102.035C195.452 102.035 194.984 101.841 194.64 101.497C194.295 101.152 194.101 100.685 194.101 100.197V87.7715C194.1 87.5295 194.147 87.2897 194.239 87.0658C194.331 86.8419 194.466 86.6384 194.637 86.4669C194.807 86.2954 195.01 86.1593 195.234 86.0664C195.457 85.9736 195.697 85.9258 195.939 85.9258C196.428 85.9258 196.898 86.1202 197.244 86.4664C197.59 86.8125 197.785 87.282 197.785 87.7715V100.197C197.785 100.439 197.737 100.679 197.644 100.903C197.551 101.126 197.415 101.329 197.244 101.5C197.072 101.67 196.868 101.806 196.645 101.897C196.421 101.989 196.181 102.036 195.939 102.035Z" fill="white" stroke="#263238" stroke-miterlimit="10" stroke-linecap="round"/>
<path d="M207.903 102.035C207.416 102.035 206.949 101.841 206.604 101.497C206.26 101.152 206.066 100.685 206.066 100.197V87.7715C206.065 87.5295 206.112 87.2897 206.203 87.0658C206.295 86.8419 206.43 86.6384 206.601 86.4669C206.772 86.2954 206.975 86.1593 207.198 86.0664C207.422 85.9736 207.661 85.9258 207.903 85.9258C208.146 85.9258 208.386 85.9735 208.61 86.0663C208.834 86.159 209.037 86.295 209.209 86.4664C209.38 86.6378 209.516 86.8413 209.609 87.0652C209.701 87.2891 209.749 87.5292 209.749 87.7715V100.197C209.749 100.439 209.701 100.679 209.609 100.903C209.516 101.126 209.38 101.329 209.208 101.5C209.037 101.67 208.833 101.806 208.609 101.897C208.385 101.989 208.145 102.036 207.903 102.035Z" fill="white" stroke="#263238" stroke-miterlimit="10" stroke-linecap="round"/>
<path d="M122.199 141.734L109.938 152.545" stroke="#263238" stroke-width="2" stroke-linecap="round" stroke-linejoin="round"/>
<path d="M113.712 141.734L122.199 151.82" stroke="#263238" stroke-width="2" stroke-linecap="round" stroke-linejoin="round"/>
<path d="M257.904 126.359L245.643 137.162" stroke="#263238" stroke-width="2" stroke-linecap="round" stroke-linejoin="round"/>
<path d="M249.417 126.359L257.904 136.445" stroke="#263238" stroke-width="2" stroke-linecap="round" stroke-linejoin="round"/>
<path d="M177.555 126.359L165.286 137.162" stroke="#263238" stroke-width="2" stroke-linecap="round" stroke-linejoin="round"/>
<path d="M169.06 126.359L177.555 136.445" stroke="#263238" stroke-width="2" stroke-linecap="round" stroke-linejoin="round"/>
<path d="M285.953 126.055L273.683 136.866" stroke="#263238" stroke-width="2" stroke-linecap="round" stroke-linejoin="round"/>
<path d="M277.457 126.055L285.952 136.14" stroke="#263238" stroke-width="2" stroke-linecap="round" stroke-linejoin="round"/>
<path d="M240.435 253.941C240.435 253.941 237.889 268.23 237.502 276.453C237.114 284.677 239.067 290.543 239.85 298.767C240.633 306.991 245.717 338.5 245.717 341.046C245.859 343.425 245.169 345.779 243.764 347.704C242.198 349.855 237.106 351.824 237.502 352.591C237.897 353.357 240.237 354.552 244.349 353.184C248.461 351.816 248.659 350.44 250.224 350.44C251.79 350.44 255.119 349.46 254.526 347.144C253.932 344.829 251.032 339.909 251.23 331.29C251.617 311.325 250.636 276.906 250.636 276.906L256.899 257.724L240.435 253.941Z" fill="white" stroke="#263238" stroke-linecap="round" stroke-linejoin="round"/>
<path d="M243.978 347.38L243.764 347.702C242.198 349.852 237.106 351.822 237.502 352.588C237.897 353.354 240.237 354.549 244.349 353.181C248.461 351.813 248.659 350.437 250.224 350.437C251.79 350.437 255.119 349.457 254.525 347.141C254.344 346.4 253.924 345.403 253.446 344.117C251.566 345.55 249.571 346.823 247.48 347.924C246.549 348.27 245.165 347.883 243.978 347.38Z" fill="#263238" stroke="#263238" stroke-linecap="round" stroke-linejoin="round"/>
<path d="M257.797 169.563C257.797 169.563 256.874 166.415 256.239 163.613C255.605 160.812 260.359 159.601 265.575 159.081C270.791 158.562 278.166 162.452 280.341 168.632C282.517 174.812 280.688 197.686 280.91 202.679C281.132 207.673 281.627 221.508 276.559 222.373C271.492 223.238 266.16 223.576 261.727 214.891C257.294 206.206 262.156 183.365 262.683 178.775C263.21 174.185 258.06 170.23 258.06 170.23L257.797 169.563Z" fill="#263238" stroke="#263238" stroke-linecap="round" stroke-linejoin="round"/>
<path d="M268.937 163.07C268.937 163.07 268.591 168.311 272.085 171.104C275.579 173.898 280.111 180.531 280.111 185.772" stroke="white" stroke-width="0.5" stroke-linecap="round" stroke-linejoin="round"/>
<path d="M275.579 177.391C275.579 177.391 278.051 186.455 275.925 194.151" stroke="white" stroke-width="0.5" stroke-linecap="round" stroke-linejoin="round"/>
<path d="M248.692 256.395C248.692 256.395 244.572 275.017 248.37 291.11C249.409 295.51 265.419 334.979 266.68 341.291C267.94 347.603 267.94 353.289 270.47 355.497C273 357.705 274.59 356.758 273.304 349.498C272.442 345.444 271.057 341.52 269.184 337.822C269.184 337.822 264.446 307.524 263.812 300.899C263.178 294.274 259.395 286.38 259.395 286.38L265.394 260.498L248.692 256.395Z" fill="white" stroke="#263238" stroke-linecap="round" stroke-linejoin="round"/>
<path d="M272.489 346.078C272.184 347.726 271.525 349.152 270.149 348.88C269.504 348.757 268.91 348.446 268.441 347.988C267.972 347.529 267.649 346.942 267.512 346.301C268.13 350.47 268.632 353.906 270.47 355.505C272.991 357.713 274.59 356.765 273.304 349.506C273.098 348.349 272.826 347.204 272.489 346.078Z" fill="#263238" stroke="#263238" stroke-linecap="round" stroke-linejoin="round"/>
<path d="M267.314 344.434H267.24C267.24 344.582 267.281 344.73 267.306 344.87C267.301 344.725 267.304 344.579 267.314 344.434Z" fill="#263238" stroke="#263238" stroke-linecap="round" stroke-linejoin="round"/>
<path d="M254.402 192.559C252.427 193.032 250.703 194.233 249.573 195.921C247.925 198.648 232.574 210.192 231.107 211.445C229.641 212.697 229.847 219.001 233.579 219.001C237.312 219.001 249.952 209.352 249.952 209.352C249.952 209.352 253.726 204.729 254.987 200.535C256.248 196.341 257.129 192.979 254.402 192.559Z" fill="white" stroke="#263238" stroke-linecap="round" stroke-linejoin="round"/>
<path d="M258.596 181.865C257.129 181.865 255.679 185.31 255.679 185.31L254.295 185.516C255.539 184.041 257.129 181.865 257.129 181.865C258.382 179.764 257.953 176.616 257.129 176.831C256.305 177.045 250.834 179.138 249.993 180.184C249.153 181.231 246.632 189.627 245.799 190.468C244.967 191.308 231.107 208.934 229.641 212.716C228.174 216.498 232.154 221.112 235.516 218.805C238.878 216.498 241.811 209.354 243.08 204.352C244.349 199.351 249.59 189.866 249.59 189.866C249.59 189.866 250.809 188.878 252.062 187.773C253.43 187.429 254.778 187.008 256.099 186.513C256.923 186.092 259.247 183.151 259.247 183.151C259.247 183.151 260.063 181.865 258.596 181.865Z" fill="white" stroke="#263238" stroke-linecap="round" stroke-linejoin="round"/>
<path d="M255.069 175.075L250.818 181.815C250.591 182.176 250.503 182.606 250.571 183.027C250.639 183.447 250.859 183.828 251.188 184.098L253.125 185.688C253.313 185.842 253.531 185.955 253.766 186.019C254 186.084 254.245 186.098 254.486 186.063C254.726 186.027 254.956 185.942 255.162 185.812C255.367 185.682 255.544 185.511 255.679 185.309L260.186 178.627C260.437 178.253 260.534 177.798 260.459 177.355C260.384 176.912 260.142 176.515 259.783 176.245L257.591 174.597C257.397 174.454 257.176 174.352 256.941 174.298C256.706 174.244 256.462 174.24 256.226 174.284C255.989 174.329 255.764 174.423 255.565 174.559C255.366 174.695 255.197 174.871 255.069 175.075Z" fill="#263238" stroke="#263238" stroke-linecap="round" stroke-linejoin="round"/>
<path d="M269.629 178.141C269.629 178.141 268.402 186.01 268.055 189.017C267.709 192.025 267.8 192.676 270.33 192.964C272.859 193.253 277.037 194.538 278.677 198.411C280.317 202.284 270.791 214.009 267.965 216.539C265.138 219.069 263.878 222.48 264.504 225.15C265.13 227.82 272.522 236.455 272.2 245.214C271.879 253.973 261.29 279.509 261.29 279.509C261.29 279.509 247.175 273.791 236.982 275.702C236.982 275.702 241.795 241.869 244.654 232.953C247.513 224.037 250.422 219.209 250.191 217.297C249.96 215.385 246.401 209.807 247.266 205.094C248.131 200.38 251.172 196.252 252.589 193.69C254.006 191.127 257.047 191.16 258.151 191.283C259.255 191.407 260.821 191.753 261.604 190.558C262.386 189.363 263.087 183.2 263.087 183.2L269.629 178.141Z" fill="#3AA959" stroke="#263238" stroke-linecap="round" stroke-linejoin="round"/>
<path d="M253.232 212.305L259.511 216.845" stroke="#263238" stroke-linecap="round" stroke-linejoin="round"/>
<path d="M259.041 231.93C259.041 231.93 252.746 243.944 251.32 252.53" stroke="#263238" stroke-linecap="round" stroke-linejoin="round"/>
<path d="M251.608 244.234C251.608 244.234 249.886 251.65 249.029 258.242" stroke="#263238" stroke-linecap="round" stroke-linejoin="round"/>
<path d="M276.436 196.113C276.436 196.113 274.334 197.168 272.027 200.736C269.72 204.304 267.619 210.385 268.039 211.852C268.459 213.318 272.447 210.805 272.447 210.805C272.447 210.805 276.658 229.683 280.416 228.225C287.972 225.283 277.902 197.588 277.902 197.588C277.902 197.588 277.902 196.55 276.436 196.113Z" fill="white" stroke="#263238" stroke-linecap="round" stroke-linejoin="round"/>
<path d="M260.211 198.689C255.943 197.635 257.08 193.564 258.143 191.273H258.184C259.297 191.405 260.854 191.743 261.637 190.548C262.42 189.354 263.12 183.19 263.12 183.19L269.63 178.172C269.63 178.172 268.402 186.041 268.056 189.049C267.71 192.056 267.8 192.707 270.33 192.996C270.33 192.963 266.292 200.23 260.211 198.689Z" fill="white" stroke="#263238" stroke-linecap="round" stroke-linejoin="round"/>
<path d="M263.87 162.73C263.469 164.967 263.706 167.272 264.554 169.38C265.963 172.429 271.97 175.972 271.97 175.972C271.97 175.972 274.334 173.5 274.681 176.129C275.027 178.757 273.914 181.328 272.159 181.287C270.404 181.246 270.149 179.293 270.149 179.293C268.592 181.556 266.306 183.217 263.672 183.998C259.008 185.539 256.635 185.267 256.083 181.682C255.531 178.098 256.173 173.995 257.805 169.537C259.437 165.079 263.219 162.813 263.87 162.73Z" fill="white" stroke="#263238" stroke-linecap="round" stroke-linejoin="round"/>
<path d="M281.256 193.402L281.47 190.049C282.507 189.129 283.487 188.147 284.404 187.107C285.665 185.64 286.505 183.539 287.551 184.38C288.598 185.22 286.085 187.742 286.085 187.742L285.871 189.39L290.073 188.137C290.073 188.137 294.061 184.149 294.267 185.195C294.473 186.242 292.166 189.81 290.493 191.705C288.82 193.6 283.778 194.177 283.778 194.177C283.778 194.177 283.563 210.962 283.563 216.005C283.563 221.048 282.937 226.717 281.47 227.755C280.004 228.793 275.381 227.961 276.436 219.779C277.49 211.596 281.256 193.402 281.256 193.402Z" fill="white" stroke="#263238" stroke-linecap="round" stroke-linejoin="round"/>
<path d="M272.447 210.82L271.187 206.832" stroke="#263238" stroke-linecap="round" stroke-linejoin="round"/>
<path d="M157.714 161.117C157.714 161.117 161.496 165.913 161.883 166.968C162.156 167.736 162.382 168.52 162.559 169.316L165.031 171.145C165.109 171.201 165.174 171.273 165.223 171.355C165.272 171.437 165.304 171.528 165.316 171.623C165.329 171.718 165.322 171.815 165.295 171.907C165.269 171.999 165.224 172.085 165.163 172.159L163.292 174.458C163.292 174.458 165.031 180.226 164.94 181.05C164.85 181.874 158.81 183.926 158.81 183.926L158.249 188.342L146.796 188.194L146.755 180.012L142.181 169.3C142.181 169.3 146.277 161.57 157.714 161.117Z" fill="white" stroke="#263238" stroke-linecap="round" stroke-linejoin="round"/>
<path d="M155.736 177.259L157.277 177.094C157.434 177.779 157.73 178.426 158.147 178.993C158.564 179.559 159.092 180.035 159.7 180.39" fill="white"/>
<path d="M155.736 177.259L157.277 177.094C157.434 177.779 157.73 178.426 158.147 178.993C158.564 179.559 159.092 180.035 159.7 180.39" stroke="#263238" stroke-linecap="round" stroke-linejoin="round"/>
<path d="M144.612 161.388C144.612 161.388 140.286 161.594 140.311 167.585C140.336 173.575 146.4 179.121 146.73 180.002C147.059 180.884 150.306 180.472 152.588 179.623C153.865 179.207 154.965 178.374 155.711 177.258C155.711 177.258 153.528 174.078 153.973 173.138C154.418 172.199 156.758 173.097 156.758 173.097C157.276 172.803 157.743 172.428 158.142 171.985C158.538 171.433 160.655 169.051 159.189 167.799C157.722 166.546 155.44 165.788 156.453 164.206C157.467 162.624 161.092 161.083 160.029 157.68C158.966 154.277 156.593 154.384 154.616 155.497C152.638 156.609 152.094 153.025 148.246 155.06C144.398 157.095 143.318 160.07 144.612 161.388Z" fill="#263238" stroke="#263238" stroke-linecap="round" stroke-linejoin="round"/>
<path d="M149.672 173.121C149.59 173.756 149.59 174.398 149.672 175.033" stroke="white" stroke-width="0.5" stroke-linecap="round" stroke-linejoin="round"/>
<path d="M156.346 163.496C156.346 163.496 155.522 165.02 152.226 167.979C151.071 169.015 150.25 170.372 149.869 171.876" stroke="white" stroke-width="0.5" stroke-linecap="round" stroke-linejoin="round"/>
<path d="M157.12 166.523C157.12 166.523 153.767 171.072 152.003 172.423" stroke="white" stroke-width="0.5" stroke-linecap="round" stroke-linejoin="round"/>
<path d="M190.913 161.62C194.32 163.258 197.919 164.465 201.625 165.212C201.625 165.212 196.343 161.636 191.234 160.746C190.764 160.68 190.509 161.414 190.913 161.62Z" fill="#263238" stroke="#263238" stroke-linecap="round" stroke-linejoin="round"/>
<path d="M189.932 188.696L196.228 172.579C196.228 172.579 193.756 168.517 193.756 167.289C193.756 166.061 197.694 161.644 197.694 161.644C197.694 161.644 198.016 159.247 199.73 160.392C200.224 160.732 200.623 161.195 200.886 161.735C201.148 162.275 201.267 162.874 201.229 163.474C202.02 164.588 202.739 165.752 203.38 166.959C203.776 167.915 200.035 173.23 200.035 173.23C200.035 173.23 199.408 187.872 197.76 192.907C196.112 197.942 195.7 198.988 194.604 200.463C193.508 201.938 188.301 199.342 188.301 199.342L189.932 188.696Z" fill="white" stroke="#263238" stroke-linecap="round" stroke-linejoin="round"/>
<path d="M161.15 344.2L171.392 347.925C171.632 348.007 171.852 348.138 172.039 348.31C172.225 348.482 172.373 348.691 172.474 348.924C172.575 349.157 172.626 349.408 172.624 349.661C172.622 349.915 172.568 350.165 172.463 350.397C172.322 350.678 172.077 350.894 171.779 350.998C170.478 351.468 156.947 356.107 153 354.434C152.598 354.231 152.258 353.922 152.019 353.54C151.779 353.158 151.648 352.718 151.641 352.267C151.772 349.227 152.105 346.199 152.638 343.203C152.638 343.203 157.664 345.584 161.15 344.2Z" fill="#263238" stroke="#263238" stroke-linecap="round" stroke-linejoin="round"/>
<path d="M172.48 350.404C172.588 350.189 172.648 349.953 172.655 349.713C172.662 349.472 172.616 349.233 172.521 349.012C169.687 350.388 163.663 352.967 158.175 353.066C155.996 353.2 153.808 353.014 151.682 352.514C151.734 352.918 151.883 353.305 152.115 353.64C152.347 353.976 152.657 354.25 153.017 354.442C156.989 356.09 170.494 351.475 171.796 351.006C172.094 350.902 172.339 350.686 172.48 350.404Z" fill="white" stroke="#263238" stroke-linecap="round" stroke-linejoin="round"/>
<path d="M132.755 341.085C132.755 341.085 131.832 349.581 132.326 350.421C132.821 351.261 134.296 351.83 136.834 351.665C137.612 351.648 138.364 351.387 138.986 350.918C139.607 350.449 140.065 349.797 140.294 349.053C140.525 348.443 139.932 342.89 139.915 341.917C139.899 340.945 132.755 341.085 132.755 341.085Z" fill="#263238" stroke="#263238" stroke-linecap="round" stroke-linejoin="round"/>
<path d="M140.319 347.465C139.536 348.973 138.539 349.937 135.952 349.986C134.621 350.04 133.305 349.69 132.178 348.981C132.14 349.467 132.19 349.955 132.326 350.423C132.829 351.247 134.296 351.832 136.833 351.667C137.611 351.65 138.364 351.389 138.985 350.92C139.607 350.451 140.064 349.799 140.294 349.055C140.366 348.528 140.374 347.994 140.319 347.465Z" fill="white" stroke="#263238" stroke-linecap="round" stroke-linejoin="round"/>
<path d="M166.629 243.336C164.224 244.525 161.689 245.43 159.073 246.03L136.356 240.781C136.356 240.781 134.848 253.52 134.889 255.712C134.93 257.904 135.713 297.349 135.713 297.349L132.615 341.68C132.936 342.341 133.443 342.894 134.074 343.272C134.705 343.65 135.432 343.835 136.166 343.806C137.674 343.799 139.163 343.47 140.533 342.842L150.273 296.698L152.44 345.685C152.44 345.685 153.783 346.978 156.849 346.912C157.746 346.883 158.619 346.616 159.381 346.14C160.142 345.664 160.763 344.995 161.183 344.201C161.183 344.201 162.691 325.25 164.94 311.686C167.19 298.123 167.462 260.788 167.462 260.788L166.629 243.336Z" fill="white" stroke="#263238" stroke-linecap="round" stroke-linejoin="round"/>
<path d="M145.024 250.016C148.004 250.662 151.04 251.012 154.088 251.062" stroke="#263238" stroke-linecap="round" stroke-linejoin="round"/>
<path d="M136.603 247.57C136.603 247.57 137.657 248.971 140.451 248.971" stroke="#263238" stroke-linecap="round" stroke-linejoin="round"/>
<path d="M159.65 332.418C159.65 332.418 161.743 307.277 163.144 289.125C163.989 278.433 164.105 267.696 163.49 256.989C163.49 256.989 166.984 253.149 164.536 246.516" stroke="#263238" stroke-linecap="round" stroke-linejoin="round"/>
<path d="M159.65 335.211L158.604 343.245" stroke="#263238" stroke-linecap="round" stroke-linejoin="round"/>
<path d="M150.248 296.704L147.76 263.794L141.951 258.207" stroke="#263238" stroke-linecap="round" stroke-linejoin="round"/>
<path d="M138.078 225.272C138.198 224.897 138.193 224.494 138.064 224.122C137.935 223.751 137.688 223.431 137.361 223.212C134.84 221.506 128.726 217.996 126.773 222.619C126.202 224.423 125.805 226.277 125.586 228.156C125.042 231.856 125.24 256.905 125.265 259.468C125.265 259.607 125.248 259.745 125.215 259.88C125.001 260.861 124.103 265.145 124.729 267.7C125.43 270.608 126.773 272.85 129.055 273.468C131.338 274.086 132.582 271.449 132.228 269.834C131.873 268.219 132.722 266.966 132.368 265.351C132.079 264.049 130.843 260.646 130.374 259.386C130.26 259.075 130.232 258.739 130.291 258.413C130.934 255.117 134.535 236.635 134.807 235.745C135.079 234.855 137.188 228.148 138.078 225.272Z" fill="white" stroke="#263238" stroke-linecap="round" stroke-linejoin="round"/>
<path d="M128.371 268.254C128.371 268.254 131.28 270.289 131.618 272.168" stroke="#263238" stroke-linecap="round" stroke-linejoin="round"/>
<path d="M129.294 266.562C129.294 266.562 131.601 268.07 132.219 269.257" stroke="#263238" stroke-linecap="round" stroke-linejoin="round"/>
<path d="M129.714 264.86L130.538 265.997C130.538 265.997 130.95 270.529 132.236 269.853C133.521 269.177 132.763 263.681 132.763 263.681C132.763 263.681 132.112 262.338 130.102 259.133" fill="white"/>
<path d="M129.714 264.86L130.538 265.997C130.538 265.997 130.95 270.529 132.236 269.853C133.521 269.177 132.763 263.681 132.763 263.681C132.763 263.681 132.112 262.338 130.102 259.133" stroke="#263238" stroke-linecap="round" stroke-linejoin="round"/>
<path d="M129.566 260.121C130.01 261.745 129.97 263.464 129.451 265.065C128.709 266.459 127.883 267.808 126.979 269.103C128.187 270.258 129.318 271.491 130.365 272.794" stroke="#263238" stroke-linecap="round" stroke-linejoin="round"/>
<path d="M131.016 195.543L123.542 223.007C123.542 223.007 129.797 228.075 137.55 227.951L142.552 201.88C142.552 201.88 136.965 189.33 131.016 195.543Z" fill="#263238" stroke="#263238" stroke-linecap="round" stroke-linejoin="round"/>
<path d="M143.376 186.537C143.376 186.537 132.4 191.992 131.37 194.464C130.546 196.524 133.068 211.108 133.117 213.671C133.167 216.234 135.359 238.251 135.952 242.511C136.545 246.771 150.784 248.584 156.206 246.944C161.628 245.304 166.662 244.678 166.629 243.31C166.596 241.943 165.871 230.357 166.168 228.141C166.465 225.924 168.764 209.296 168.764 209.296L189.454 205.011C189.454 205.011 190.41 204.434 190.435 200.693C190.438 197.162 190.256 193.633 189.891 190.121C187.211 190.764 184.44 190.937 181.7 190.632C176.707 190.187 170.791 188.844 169.736 189.141C168.681 189.437 161.496 187.938 159.131 187.641C155.843 187.196 147.496 184.411 143.376 186.537Z" fill="#263238" stroke="#263238" stroke-linecap="round" stroke-linejoin="round"/>
<path d="M134.164 226.622L131.288 202.504" stroke="white" stroke-width="0.5" stroke-linecap="round" stroke-linejoin="round"/>
<path d="M132.071 213.003L130.67 209.863" stroke="white" stroke-width="0.5" stroke-linecap="round" stroke-linejoin="round"/>
<path d="M168.764 209.254L160.697 210.556" stroke="white" stroke-width="0.5" stroke-linecap="round" stroke-linejoin="round"/>
<path d="M166.984 209.863L161.051 215.45" stroke="white" stroke-width="0.5" stroke-linecap="round" stroke-linejoin="round"/>
<path d="M185.136 191.355C185.136 191.355 179.55 199.736 165.937 202.891" stroke="white" stroke-width="0.5" stroke-linecap="round" stroke-linejoin="round"/>
</svg>
