<svg width="477" height="283" viewBox="0 0 477 283" fill="none" xmlns="http://www.w3.org/2000/svg">
<rect x="1" y="1" width="475" height="281" rx="4.69113" fill="white" stroke="#E5E5E5" stroke-width="0.938226"/>
<path d="M436.555 94V93.1886H438.693V87.0267H438.617L436.687 88.8249L436.15 88.2438L438.178 86.347H439.614V93.1886H441.588V94H436.555ZM445.83 94.1316C445.436 94.1316 445.077 94.0658 444.756 93.9342C444.442 93.7953 444.171 93.6016 443.945 93.3531C443.725 93.0973 443.557 92.7866 443.44 92.4211C443.323 92.0557 443.265 91.6463 443.265 91.1932C443.265 90.623 443.349 90.0894 443.517 89.5924C443.685 89.088 443.901 88.6312 444.164 88.2218C444.434 87.8052 444.73 87.4397 445.052 87.1254C445.374 86.8038 445.688 86.5443 445.995 86.347H447.179C446.77 86.6467 446.404 86.939 446.083 87.2241C445.761 87.5092 445.48 87.8089 445.238 88.1232C444.997 88.4302 444.792 88.7627 444.624 89.1209C444.456 89.4718 444.321 89.8701 444.219 90.316L444.273 90.3379C444.456 90.0236 444.69 89.7641 444.975 89.5595C445.268 89.3475 445.648 89.2415 446.115 89.2415C446.444 89.2415 446.748 89.2963 447.025 89.406C447.303 89.5156 447.541 89.6728 447.738 89.8774C447.936 90.0821 448.089 90.3306 448.199 90.623C448.316 90.9154 448.374 91.2407 448.374 91.5988C448.374 91.9716 448.312 92.3152 448.188 92.6295C448.071 92.9365 447.899 93.2033 447.672 93.4299C447.453 93.6491 447.186 93.8209 446.872 93.9452C446.558 94.0694 446.21 94.1316 445.83 94.1316ZM445.819 93.3312C446.324 93.3312 446.715 93.1923 446.993 92.9145C447.278 92.6368 447.42 92.2384 447.42 91.7194V91.6317C447.42 91.1128 447.278 90.7144 446.993 90.4366C446.715 90.1589 446.324 90.02 445.819 90.02C445.315 90.02 444.92 90.1589 444.635 90.4366C444.358 90.7144 444.219 91.1128 444.219 91.6317V91.7194C444.219 92.2384 444.358 92.6368 444.635 92.9145C444.92 93.1923 445.315 93.3312 445.819 93.3312ZM452.759 94.1316C452.321 94.1316 451.937 94.0767 451.608 93.9671C451.279 93.8502 451.001 93.693 450.775 93.4956C450.555 93.2983 450.387 93.0644 450.27 92.7939C450.161 92.5235 450.106 92.2311 450.106 91.9168C450.106 91.3905 450.248 90.9739 450.533 90.6669C450.818 90.3599 451.191 90.1442 451.652 90.02V89.9323C451.25 89.7934 450.928 89.5704 450.687 89.2634C450.453 88.9491 450.336 88.5727 450.336 88.1341C450.336 87.5494 450.548 87.0852 450.972 86.7417C451.396 86.3908 451.992 86.2154 452.759 86.2154C453.527 86.2154 454.122 86.3908 454.546 86.7417C454.97 87.0852 455.182 87.5494 455.182 88.1341C455.182 88.5727 455.062 88.9491 454.82 89.2634C454.587 89.5704 454.269 89.7934 453.867 89.9323V90.02C454.327 90.1442 454.7 90.3599 454.985 90.6669C455.27 90.9739 455.412 91.3905 455.412 91.9168C455.412 92.2311 455.354 92.5235 455.237 92.7939C455.127 93.0644 454.959 93.2983 454.733 93.4956C454.513 93.693 454.239 93.8502 453.91 93.9671C453.581 94.0767 453.198 94.1316 452.759 94.1316ZM452.759 93.3312C453.293 93.3312 453.706 93.2142 453.998 92.9803C454.29 92.7391 454.437 92.3992 454.437 91.9607V91.7304C454.437 91.2918 454.29 90.9556 453.998 90.7217C453.706 90.4805 453.293 90.3599 452.759 90.3599C452.226 90.3599 451.813 90.4805 451.52 90.7217C451.228 90.9556 451.082 91.2918 451.082 91.7304V91.9607C451.082 92.3992 451.228 92.7391 451.52 92.9803C451.813 93.2142 452.226 93.3312 452.759 93.3312ZM452.759 89.5924C453.242 89.5924 453.607 89.49 453.856 89.2854C454.104 89.0807 454.228 88.781 454.228 88.3863V88.2218C454.228 87.8271 454.104 87.5274 453.856 87.3228C453.607 87.1181 453.242 87.0158 452.759 87.0158C452.277 87.0158 451.911 87.1181 451.663 87.3228C451.414 87.5274 451.29 87.8271 451.29 88.2218V88.3863C451.29 88.781 451.414 89.0807 451.663 89.2854C451.911 89.49 452.277 89.5924 452.759 89.5924Z" fill="#263238"/>
<path d="M415.055 132V131.189H417.193V125.027H417.117L415.187 126.825L414.65 126.244L416.678 124.347H418.114V131.189H420.088V132H415.055ZM426.49 125.158H423.135L422.916 128.075H422.993C423.175 127.819 423.38 127.614 423.607 127.461C423.841 127.307 424.159 127.231 424.561 127.231C424.89 127.231 425.193 127.285 425.471 127.395C425.748 127.505 425.99 127.662 426.194 127.866C426.399 128.064 426.556 128.309 426.666 128.601C426.783 128.893 426.841 129.226 426.841 129.599C426.841 129.972 426.783 130.315 426.666 130.629C426.549 130.936 426.377 131.203 426.15 131.43C425.931 131.649 425.661 131.821 425.339 131.945C425.025 132.069 424.667 132.132 424.265 132.132C423.943 132.132 423.658 132.095 423.409 132.022C423.168 131.949 422.953 131.85 422.762 131.726C422.572 131.602 422.404 131.463 422.258 131.309C422.119 131.156 421.991 130.995 421.874 130.827L422.565 130.301C422.66 130.454 422.759 130.593 422.861 130.717C422.971 130.841 423.088 130.947 423.212 131.035C423.344 131.123 423.493 131.192 423.662 131.243C423.83 131.287 424.031 131.309 424.265 131.309C424.791 131.309 425.189 131.17 425.46 130.893C425.73 130.615 425.865 130.224 425.865 129.719V129.61C425.865 129.105 425.73 128.714 425.46 128.437C425.189 128.159 424.791 128.02 424.265 128.02C423.914 128.02 423.636 128.086 423.431 128.217C423.234 128.342 423.055 128.491 422.894 128.667L422.116 128.557L422.39 124.347H426.49V125.158ZM431.259 132.132C430.345 132.132 429.677 131.784 429.253 131.09C428.836 130.396 428.628 129.423 428.628 128.173C428.628 126.924 428.836 125.951 429.253 125.257C429.677 124.563 430.345 124.215 431.259 124.215C432.173 124.215 432.838 124.563 433.255 125.257C433.679 125.951 433.891 126.924 433.891 128.173C433.891 129.423 433.679 130.396 433.255 131.09C432.838 131.784 432.173 132.132 431.259 132.132ZM431.259 131.331C431.559 131.331 431.815 131.269 432.027 131.145C432.239 131.021 432.41 130.845 432.542 130.619C432.674 130.392 432.769 130.125 432.827 129.818C432.893 129.511 432.926 129.171 432.926 128.798V127.549C432.926 127.176 432.893 126.836 432.827 126.529C432.769 126.222 432.674 125.955 432.542 125.728C432.41 125.502 432.239 125.326 432.027 125.202C431.815 125.078 431.559 125.016 431.259 125.016C430.959 125.016 430.704 125.078 430.492 125.202C430.28 125.326 430.108 125.502 429.976 125.728C429.845 125.955 429.746 126.222 429.68 126.529C429.622 126.836 429.593 127.176 429.593 127.549V128.798C429.593 129.171 429.622 129.511 429.68 129.818C429.746 130.125 429.845 130.392 429.976 130.619C430.108 130.845 430.28 131.021 430.492 131.145C430.704 131.269 430.959 131.331 431.259 131.331Z" fill="#263238"/>
<path d="M374.055 167V166.189H376.193V160.027H376.117L374.187 161.825L373.65 161.244L375.678 159.347H377.114V166.189H379.088V167H374.055ZM385.49 160.158H382.135L381.916 163.075H381.993C382.175 162.819 382.38 162.614 382.607 162.461C382.841 162.307 383.159 162.231 383.561 162.231C383.89 162.231 384.193 162.285 384.471 162.395C384.748 162.505 384.99 162.662 385.194 162.866C385.399 163.064 385.556 163.309 385.666 163.601C385.783 163.893 385.841 164.226 385.841 164.599C385.841 164.972 385.783 165.315 385.666 165.629C385.549 165.936 385.377 166.203 385.15 166.43C384.931 166.649 384.661 166.821 384.339 166.945C384.025 167.069 383.667 167.132 383.265 167.132C382.943 167.132 382.658 167.095 382.409 167.022C382.168 166.949 381.953 166.85 381.762 166.726C381.572 166.602 381.404 166.463 381.258 166.309C381.119 166.156 380.991 165.995 380.874 165.827L381.565 165.301C381.66 165.454 381.759 165.593 381.861 165.717C381.971 165.841 382.088 165.947 382.212 166.035C382.344 166.123 382.493 166.192 382.662 166.243C382.83 166.287 383.031 166.309 383.265 166.309C383.791 166.309 384.189 166.17 384.46 165.893C384.73 165.615 384.865 165.224 384.865 164.719V164.61C384.865 164.105 384.73 163.714 384.46 163.437C384.189 163.159 383.791 163.02 383.265 163.02C382.914 163.02 382.636 163.086 382.431 163.217C382.234 163.342 382.055 163.491 381.894 163.667L381.116 163.557L381.39 159.347H385.49V160.158ZM392.43 160.158H389.075L388.856 163.075H388.932C389.115 162.819 389.32 162.614 389.546 162.461C389.78 162.307 390.098 162.231 390.5 162.231C390.829 162.231 391.133 162.285 391.41 162.395C391.688 162.505 391.929 162.662 392.134 162.866C392.339 163.064 392.496 163.309 392.605 163.601C392.722 163.893 392.781 164.226 392.781 164.599C392.781 164.972 392.722 165.315 392.605 165.629C392.489 165.936 392.317 166.203 392.09 166.43C391.871 166.649 391.6 166.821 391.279 166.945C390.965 167.069 390.606 167.132 390.204 167.132C389.883 167.132 389.598 167.095 389.349 167.022C389.108 166.949 388.892 166.85 388.702 166.726C388.512 166.602 388.344 166.463 388.198 166.309C388.059 166.156 387.931 165.995 387.814 165.827L388.505 165.301C388.6 165.454 388.699 165.593 388.801 165.717C388.911 165.841 389.027 165.947 389.152 166.035C389.283 166.123 389.433 166.192 389.601 166.243C389.769 166.287 389.97 166.309 390.204 166.309C390.731 166.309 391.129 166.17 391.399 165.893C391.67 165.615 391.805 165.224 391.805 164.719V164.61C391.805 164.105 391.67 163.714 391.399 163.437C391.129 163.159 390.731 163.02 390.204 163.02C389.853 163.02 389.576 163.086 389.371 163.217C389.174 163.342 388.995 163.491 388.834 163.667L388.055 163.557L388.329 159.347H392.43V160.158Z" fill="#263238"/>
<path d="M251.672 205V203.498H247.977V202.687L251.178 197.347H252.549V202.73H253.656V203.498H252.549V205H251.672ZM248.843 202.73H251.672V198.06H251.617L248.843 202.73ZM257.789 205.132C256.876 205.132 256.207 204.784 255.783 204.09C255.366 203.396 255.158 202.423 255.158 201.173C255.158 199.924 255.366 198.951 255.783 198.257C256.207 197.563 256.876 197.215 257.789 197.215C258.703 197.215 259.368 197.563 259.785 198.257C260.209 198.951 260.421 199.924 260.421 201.173C260.421 202.423 260.209 203.396 259.785 204.09C259.368 204.784 258.703 205.132 257.789 205.132ZM257.789 204.331C258.089 204.331 258.345 204.269 258.557 204.145C258.769 204.021 258.941 203.845 259.072 203.619C259.204 203.392 259.299 203.125 259.357 202.818C259.423 202.511 259.456 202.171 259.456 201.798V200.549C259.456 200.176 259.423 199.836 259.357 199.529C259.299 199.222 259.204 198.955 259.072 198.728C258.941 198.502 258.769 198.326 258.557 198.202C258.345 198.078 258.089 198.016 257.789 198.016C257.49 198.016 257.234 198.078 257.022 198.202C256.81 198.326 256.638 198.502 256.506 198.728C256.375 198.955 256.276 199.222 256.21 199.529C256.152 199.836 256.123 200.176 256.123 200.549V201.798C256.123 202.171 256.152 202.511 256.21 202.818C256.276 203.125 256.375 203.392 256.506 203.619C256.638 203.845 256.81 204.021 257.022 204.145C257.234 204.269 257.49 204.331 257.789 204.331Z" fill="#263238"/>
<path d="M210.02 241.158H206.665L206.446 244.075H206.523C206.706 243.819 206.91 243.614 207.137 243.461C207.371 243.307 207.689 243.231 208.091 243.231C208.42 243.231 208.723 243.285 209.001 243.395C209.279 243.505 209.52 243.662 209.724 243.866C209.929 244.064 210.086 244.309 210.196 244.601C210.313 244.893 210.371 245.226 210.371 245.599C210.371 245.972 210.313 246.315 210.196 246.629C210.079 246.936 209.907 247.203 209.681 247.43C209.461 247.649 209.191 247.821 208.869 247.945C208.555 248.069 208.197 248.132 207.795 248.132C207.473 248.132 207.188 248.095 206.94 248.022C206.698 247.949 206.483 247.85 206.293 247.726C206.103 247.602 205.934 247.463 205.788 247.309C205.649 247.156 205.521 246.995 205.405 246.827L206.095 246.301C206.19 246.454 206.289 246.593 206.391 246.717C206.501 246.841 206.618 246.947 206.742 247.035C206.874 247.123 207.024 247.192 207.192 247.243C207.36 247.287 207.561 247.309 207.795 247.309C208.321 247.309 208.719 247.17 208.99 246.893C209.26 246.615 209.395 246.224 209.395 245.719V245.61C209.395 245.105 209.26 244.714 208.99 244.437C208.719 244.159 208.321 244.02 207.795 244.02C207.444 244.02 207.166 244.086 206.961 244.217C206.764 244.342 206.585 244.491 206.424 244.667L205.646 244.557L205.92 240.347H210.02V241.158ZM214.789 248.132C213.876 248.132 213.207 247.784 212.783 247.09C212.366 246.396 212.158 245.423 212.158 244.173C212.158 242.924 212.366 241.951 212.783 241.257C213.207 240.563 213.876 240.215 214.789 240.215C215.703 240.215 216.368 240.563 216.785 241.257C217.209 241.951 217.421 242.924 217.421 244.173C217.421 245.423 217.209 246.396 216.785 247.09C216.368 247.784 215.703 248.132 214.789 248.132ZM214.789 247.331C215.089 247.331 215.345 247.269 215.557 247.145C215.769 247.021 215.941 246.845 216.072 246.619C216.204 246.392 216.299 246.125 216.357 245.818C216.423 245.511 216.456 245.171 216.456 244.798V243.549C216.456 243.176 216.423 242.836 216.357 242.529C216.299 242.222 216.204 241.955 216.072 241.728C215.941 241.502 215.769 241.326 215.557 241.202C215.345 241.078 215.089 241.016 214.789 241.016C214.49 241.016 214.234 241.078 214.022 241.202C213.81 241.326 213.638 241.502 213.506 241.728C213.375 241.955 213.276 242.222 213.21 242.529C213.152 242.836 213.123 243.176 213.123 243.549V244.798C213.123 245.171 213.152 245.511 213.21 245.818C213.276 246.125 213.375 246.392 213.506 246.619C213.638 246.845 213.81 247.021 214.022 247.145C214.234 247.269 214.49 247.331 214.789 247.331Z" fill="#263238"/>
<rect x="22.9419" y="64.4355" width="398.226" height="39.4881" fill="#3498DB"/>
<path d="M344.018 81.5721H343.962L343.298 82.8877L341.421 86.3058L339.543 82.8877L338.879 81.5721H338.823V88.1836H337.901V80.3353H339.161L341.409 84.563H341.466L343.726 80.3353H344.94V88.1836H344.018V81.5721ZM351.527 88.1836C351.19 88.1836 350.946 88.0936 350.797 87.9137C350.654 87.7338 350.564 87.509 350.527 87.2391H350.47C350.343 87.5989 350.133 87.8688 349.841 88.0487C349.548 88.2286 349.2 88.3185 348.795 88.3185C348.18 88.3185 347.701 88.1611 347.356 87.8463C347.019 87.5314 346.85 87.1042 346.85 86.5645C346.85 86.0172 347.049 85.5975 347.446 85.3051C347.851 85.0128 348.477 84.8666 349.324 84.8666H350.47V84.2932C350.47 83.8809 350.358 83.566 350.133 83.3487C349.908 83.1313 349.563 83.0226 349.099 83.0226C348.746 83.0226 348.45 83.1013 348.21 83.2587C347.978 83.4161 347.783 83.626 347.626 83.8884L347.086 83.3824C347.243 83.0676 347.495 82.8014 347.839 82.5841C348.184 82.3592 348.619 82.2467 349.144 82.2467C349.848 82.2467 350.396 82.4192 350.785 82.764C351.175 83.1088 351.37 83.5885 351.37 84.2032V87.3965H352.033V88.1836H351.527ZM348.941 87.5539C349.166 87.5539 349.372 87.5277 349.56 87.4752C349.747 87.4227 349.908 87.3478 350.043 87.2503C350.178 87.1529 350.283 87.0404 350.358 86.913C350.433 86.7856 350.47 86.6469 350.47 86.497V85.5412H349.279C348.761 85.5412 348.383 85.6162 348.143 85.7661C347.911 85.916 347.794 86.1334 347.794 86.4183V86.6544C347.794 86.9393 347.896 87.1604 348.098 87.3178C348.308 87.4752 348.589 87.5539 348.941 87.5539ZM355.435 88.3185C354.895 88.3185 354.442 88.2173 354.074 88.0149C353.715 87.805 353.403 87.5277 353.141 87.1829L353.782 86.6656C354.007 86.9505 354.258 87.1716 354.535 87.329C354.813 87.479 355.135 87.5539 355.502 87.5539C355.885 87.5539 356.181 87.4715 356.391 87.3066C356.608 87.1416 356.717 86.9093 356.717 86.6094C356.717 86.3845 356.642 86.1934 356.492 86.036C356.349 85.8711 356.087 85.7586 355.705 85.6987L355.244 85.6312C354.974 85.5937 354.726 85.5375 354.502 85.4625C354.277 85.3801 354.078 85.2751 353.906 85.1477C353.741 85.0128 353.61 84.8479 353.512 84.653C353.422 84.4581 353.377 84.2257 353.377 83.9558C353.377 83.671 353.43 83.4236 353.535 83.2137C353.64 82.9963 353.782 82.8164 353.962 82.674C354.149 82.5316 354.37 82.4266 354.625 82.3592C354.88 82.2842 355.154 82.2467 355.446 82.2467C355.918 82.2467 356.312 82.3292 356.627 82.4941C356.949 82.659 357.23 82.8877 357.47 83.18L356.874 83.7197C356.747 83.5398 356.559 83.3786 356.312 83.2362C356.065 83.0863 355.753 83.0113 355.379 83.0113C355.004 83.0113 354.719 83.0938 354.524 83.2587C354.337 83.4161 354.243 83.6335 354.243 83.9109C354.243 84.1957 354.337 84.4018 354.524 84.5293C354.719 84.6567 354.996 84.7504 355.356 84.8104L355.806 84.8778C356.451 84.9753 356.908 85.1627 357.178 85.44C357.448 85.7099 357.582 86.066 357.582 86.5082C357.582 87.0704 357.391 87.5127 357.009 87.835C356.627 88.1574 356.102 88.3185 355.435 88.3185ZM360.751 88.1836C360.436 88.1836 360.196 88.0974 360.031 87.925C359.874 87.7451 359.795 87.5127 359.795 87.2279V83.1688H358.84V82.3817H359.379C359.574 82.3817 359.705 82.3442 359.773 82.2692C359.848 82.1868 359.885 82.0481 359.885 81.8532V80.7738H360.695V82.3817H361.965V83.1688H360.695V87.3965H361.875V88.1836H360.751ZM365.923 88.3185C365.526 88.3185 365.166 88.2473 364.844 88.1049C364.529 87.9625 364.256 87.7601 364.023 87.4977C363.798 87.2279 363.622 86.9093 363.495 86.542C363.375 86.1672 363.315 85.7474 363.315 85.2826C363.315 84.8254 363.375 84.4093 363.495 84.0345C363.622 83.6597 363.798 83.3412 364.023 83.0788C364.256 82.8089 364.529 82.6028 364.844 82.4604C365.166 82.318 365.526 82.2467 365.923 82.2467C366.313 82.2467 366.662 82.318 366.969 82.4604C367.276 82.6028 367.539 82.8014 367.756 83.0563C367.974 83.3037 368.139 83.5998 368.251 83.9446C368.371 84.2894 368.431 84.668 368.431 85.0802V85.5075H364.259V85.7774C364.259 86.0247 364.297 86.2571 364.372 86.4745C364.454 86.6844 364.567 86.868 364.709 87.0255C364.859 87.1829 365.039 87.3066 365.249 87.3965C365.466 87.4865 365.71 87.5314 365.98 87.5314C366.347 87.5314 366.666 87.4452 366.935 87.2728C367.213 87.1004 367.426 86.853 367.576 86.5307L368.217 86.9917C368.03 87.389 367.738 87.7113 367.34 87.9587C366.943 88.1986 366.471 88.3185 365.923 88.3185ZM365.923 83.0001C365.676 83.0001 365.451 83.0451 365.249 83.135C365.046 83.2175 364.87 83.3374 364.72 83.4948C364.578 83.6522 364.465 83.8396 364.383 84.057C364.301 84.2669 364.259 84.4993 364.259 84.7542V84.8329H367.464V84.7092C367.464 84.192 367.321 83.7797 367.037 83.4723C366.759 83.1575 366.388 83.0001 365.923 83.0001ZM370.288 88.1836V82.3817H371.188V83.4499H371.244C371.349 83.1725 371.536 82.9251 371.806 82.7077C372.076 82.4904 372.447 82.3817 372.919 82.3817H373.268V83.2812H372.739C372.252 83.2812 371.87 83.3749 371.592 83.5623C371.322 83.7422 371.188 83.9708 371.188 84.2482V88.1836H370.288ZM376.895 88.3185C376.491 88.3185 376.127 88.2473 375.805 88.1049C375.482 87.9625 375.209 87.7601 374.984 87.4977C374.767 87.2353 374.598 86.9168 374.478 86.542C374.365 86.1672 374.309 85.7474 374.309 85.2826C374.309 84.8179 374.365 84.3981 374.478 84.0233C374.598 83.6485 374.767 83.3299 374.984 83.0676C375.209 82.8052 375.482 82.6028 375.805 82.4604C376.127 82.318 376.491 82.2467 376.895 82.2467C377.473 82.2467 377.934 82.3742 378.278 82.629C378.631 82.8764 378.893 83.2025 379.065 83.6073L378.312 83.9896C378.207 83.6897 378.035 83.4574 377.795 83.2924C377.555 83.1275 377.255 83.0451 376.895 83.0451C376.626 83.0451 376.389 83.09 376.187 83.18C375.985 83.2625 375.816 83.3824 375.681 83.5398C375.546 83.6897 375.445 83.8734 375.377 84.0908C375.31 84.3007 375.276 84.533 375.276 84.7879V85.7774C375.276 86.2871 375.411 86.7069 375.681 87.0367C375.958 87.359 376.363 87.5202 376.895 87.5202C377.623 87.5202 378.147 87.1829 378.47 86.5082L379.122 86.9467C378.934 87.3665 378.653 87.7001 378.278 87.9475C377.911 88.1948 377.45 88.3185 376.895 88.3185ZM381.722 88.1836C381.407 88.1836 381.167 88.0974 381.002 87.925C380.845 87.7451 380.766 87.5202 380.766 87.2503V79.863H381.666V87.3965H382.52V88.1836H381.722ZM388.421 88.1836C388.084 88.1836 387.84 88.0936 387.69 87.9137C387.548 87.7338 387.458 87.509 387.42 87.2391H387.364C387.237 87.5989 387.027 87.8688 386.735 88.0487C386.442 88.2286 386.094 88.3185 385.689 88.3185C385.074 88.3185 384.594 88.1611 384.25 87.8463C383.912 87.5314 383.744 87.1042 383.744 86.5645C383.744 86.0172 383.942 85.5975 384.34 85.3051C384.744 85.0128 385.37 84.8666 386.217 84.8666H387.364V84.2932C387.364 83.8809 387.252 83.566 387.027 83.3487C386.802 83.1313 386.457 83.0226 385.992 83.0226C385.64 83.0226 385.344 83.1013 385.104 83.2587C384.872 83.4161 384.677 83.626 384.52 83.8884L383.98 83.3824C384.137 83.0676 384.388 82.8014 384.733 82.5841C385.078 82.3592 385.513 82.2467 386.037 82.2467C386.742 82.2467 387.289 82.4192 387.679 82.764C388.069 83.1088 388.264 83.5885 388.264 84.2032V87.3965H388.927V88.1836H388.421ZM385.835 87.5539C386.06 87.5539 386.266 87.5277 386.453 87.4752C386.641 87.4227 386.802 87.3478 386.937 87.2503C387.072 87.1529 387.177 87.0404 387.252 86.913C387.327 86.7856 387.364 86.6469 387.364 86.497V85.5412H386.172C385.655 85.5412 385.277 85.6162 385.037 85.7661C384.804 85.916 384.688 86.1334 384.688 86.4183V86.6544C384.688 86.9393 384.789 87.1604 384.992 87.3178C385.202 87.4752 385.483 87.5539 385.835 87.5539ZM392.329 88.3185C391.789 88.3185 391.335 88.2173 390.968 88.0149C390.608 87.805 390.297 87.5277 390.035 87.1829L390.676 86.6656C390.901 86.9505 391.152 87.1716 391.429 87.329C391.706 87.479 392.029 87.5539 392.396 87.5539C392.778 87.5539 393.074 87.4715 393.284 87.3066C393.502 87.1416 393.61 86.9093 393.61 86.6094C393.61 86.3845 393.535 86.1934 393.386 86.036C393.243 85.8711 392.981 85.7586 392.598 85.6987L392.137 85.6312C391.868 85.5937 391.62 85.5375 391.395 85.4625C391.17 85.3801 390.972 85.2751 390.799 85.1477C390.635 85.0128 390.503 84.8479 390.406 84.653C390.316 84.4581 390.271 84.2257 390.271 83.9558C390.271 83.671 390.323 83.4236 390.428 83.2137C390.533 82.9963 390.676 82.8164 390.856 82.674C391.043 82.5316 391.264 82.4266 391.519 82.3592C391.774 82.2842 392.048 82.2467 392.34 82.2467C392.812 82.2467 393.206 82.3292 393.521 82.4941C393.843 82.659 394.124 82.8877 394.364 83.18L393.768 83.7197C393.64 83.5398 393.453 83.3786 393.206 83.2362C392.958 83.0863 392.647 83.0113 392.272 83.0113C391.898 83.0113 391.613 83.0938 391.418 83.2587C391.23 83.4161 391.137 83.6335 391.137 83.9109C391.137 84.1957 391.23 84.4018 391.418 84.5293C391.613 84.6567 391.89 84.7504 392.25 84.8104L392.7 84.8778C393.344 84.9753 393.802 85.1627 394.071 85.44C394.341 85.7099 394.476 86.066 394.476 86.5082C394.476 87.0704 394.285 87.5127 393.903 87.835C393.521 88.1574 392.996 88.3185 392.329 88.3185ZM398.117 88.3185C397.577 88.3185 397.124 88.2173 396.756 88.0149C396.396 87.805 396.085 87.5277 395.823 87.1829L396.464 86.6656C396.689 86.9505 396.94 87.1716 397.217 87.329C397.495 87.479 397.817 87.5539 398.184 87.5539C398.567 87.5539 398.863 87.4715 399.073 87.3066C399.29 87.1416 399.399 86.9093 399.399 86.6094C399.399 86.3845 399.324 86.1934 399.174 86.036C399.031 85.8711 398.769 85.7586 398.387 85.6987L397.926 85.6312C397.656 85.5937 397.408 85.5375 397.184 85.4625C396.959 85.3801 396.76 85.2751 396.588 85.1477C396.423 85.0128 396.292 84.8479 396.194 84.653C396.104 84.4581 396.059 84.2257 396.059 83.9558C396.059 83.671 396.112 83.4236 396.217 83.2137C396.322 82.9963 396.464 82.8164 396.644 82.674C396.831 82.5316 397.052 82.4266 397.307 82.3592C397.562 82.2842 397.836 82.2467 398.128 82.2467C398.6 82.2467 398.994 82.3292 399.309 82.4941C399.631 82.659 399.912 82.8877 400.152 83.18L399.556 83.7197C399.429 83.5398 399.241 83.3786 398.994 83.2362C398.746 83.0863 398.435 83.0113 398.061 83.0113C397.686 83.0113 397.401 83.0938 397.206 83.2587C397.019 83.4161 396.925 83.6335 396.925 83.9109C396.925 84.1957 397.019 84.4018 397.206 84.5293C397.401 84.6567 397.678 84.7504 398.038 84.8104L398.488 84.8778C399.133 84.9753 399.59 85.1627 399.86 85.44C400.129 85.7099 400.264 86.066 400.264 86.5082C400.264 87.0704 400.073 87.5127 399.691 87.835C399.309 88.1574 398.784 88.3185 398.117 88.3185ZM404.409 88.3185C404.012 88.3185 403.652 88.2473 403.33 88.1049C403.015 87.9625 402.742 87.7601 402.509 87.4977C402.284 87.2279 402.108 86.9093 401.981 86.542C401.861 86.1672 401.801 85.7474 401.801 85.2826C401.801 84.8254 401.861 84.4093 401.981 84.0345C402.108 83.6597 402.284 83.3412 402.509 83.0788C402.742 82.8089 403.015 82.6028 403.33 82.4604C403.652 82.318 404.012 82.2467 404.409 82.2467C404.799 82.2467 405.148 82.318 405.455 82.4604C405.762 82.6028 406.025 82.8014 406.242 83.0563C406.46 83.3037 406.625 83.5998 406.737 83.9446C406.857 84.2894 406.917 84.668 406.917 85.0802V85.5075H402.745V85.7774C402.745 86.0247 402.783 86.2571 402.858 86.4745C402.94 86.6844 403.053 86.868 403.195 87.0255C403.345 87.1829 403.525 87.3066 403.735 87.3965C403.952 87.4865 404.196 87.5314 404.466 87.5314C404.833 87.5314 405.152 87.4452 405.421 87.2728C405.699 87.1004 405.912 86.853 406.062 86.5307L406.703 86.9917C406.516 87.389 406.223 87.7113 405.826 87.9587C405.429 88.1986 404.957 88.3185 404.409 88.3185ZM404.409 83.0001C404.162 83.0001 403.937 83.0451 403.735 83.135C403.532 83.2175 403.356 83.3374 403.206 83.4948C403.064 83.6522 402.951 83.8396 402.869 84.057C402.787 84.2669 402.745 84.4993 402.745 84.7542V84.8329H405.95V84.7092C405.95 84.192 405.807 83.7797 405.523 83.4723C405.245 83.1575 404.874 83.0001 404.409 83.0001ZM410.517 88.3185C409.977 88.3185 409.524 88.2173 409.156 88.0149C408.796 87.805 408.485 87.5277 408.223 87.1829L408.864 86.6656C409.089 86.9505 409.34 87.1716 409.617 87.329C409.895 87.479 410.217 87.5539 410.584 87.5539C410.967 87.5539 411.263 87.4715 411.472 87.3066C411.69 87.1416 411.799 86.9093 411.799 86.6094C411.799 86.3845 411.724 86.1934 411.574 86.036C411.431 85.8711 411.169 85.7586 410.787 85.6987L410.326 85.6312C410.056 85.5937 409.808 85.5375 409.583 85.4625C409.359 85.3801 409.16 85.2751 408.988 85.1477C408.823 85.0128 408.691 84.8479 408.594 84.653C408.504 84.4581 408.459 84.2257 408.459 83.9558C408.459 83.671 408.512 83.4236 408.617 83.2137C408.721 82.9963 408.864 82.8164 409.044 82.674C409.231 82.5316 409.452 82.4266 409.707 82.3592C409.962 82.2842 410.236 82.2467 410.528 82.2467C411 82.2467 411.394 82.3292 411.709 82.4941C412.031 82.659 412.312 82.8877 412.552 83.18L411.956 83.7197C411.829 83.5398 411.641 83.3786 411.394 83.2362C411.146 83.0863 410.835 83.0113 410.461 83.0113C410.086 83.0113 409.801 83.0938 409.606 83.2587C409.419 83.4161 409.325 83.6335 409.325 83.9109C409.325 84.1957 409.419 84.4018 409.606 84.5293C409.801 84.6567 410.078 84.7504 410.438 84.8104L410.888 84.8778C411.532 84.9753 411.99 85.1627 412.26 85.44C412.529 85.7099 412.664 86.066 412.664 86.5082C412.664 87.0704 412.473 87.5127 412.091 87.835C411.709 88.1574 411.184 88.3185 410.517 88.3185Z" fill="white"/>
<g opacity="0.8">
<rect x="22.9419" y="103.149" width="380.423" height="39.4881" fill="#3498DB"/>
<path d="M332.244 127.032C331.248 127.032 330.472 126.695 329.917 126.02C329.362 125.338 329.085 124.338 329.085 123.018C329.085 121.699 329.362 120.687 329.917 119.982C330.472 119.27 331.248 118.914 332.244 118.914C332.904 118.914 333.455 119.064 333.897 119.364C334.347 119.664 334.696 120.087 334.943 120.635L334.178 121.096C334.021 120.691 333.781 120.368 333.459 120.129C333.137 119.881 332.732 119.757 332.244 119.757C331.907 119.757 331.604 119.821 331.334 119.949C331.071 120.076 330.846 120.26 330.659 120.5C330.479 120.732 330.341 121.013 330.243 121.343C330.146 121.665 330.097 122.029 330.097 122.434V123.603C330.097 124.413 330.284 125.046 330.659 125.503C331.034 125.96 331.562 126.189 332.244 126.189C332.747 126.189 333.167 126.062 333.504 125.807C333.841 125.544 334.089 125.2 334.246 124.772L334.999 125.245C334.752 125.799 334.396 126.238 333.931 126.56C333.466 126.875 332.904 127.032 332.244 127.032ZM338.939 127.032C338.55 127.032 338.194 126.961 337.871 126.819C337.549 126.676 337.272 126.474 337.039 126.212C336.814 125.942 336.638 125.623 336.511 125.256C336.383 124.881 336.32 124.461 336.32 123.996C336.32 123.539 336.383 123.123 336.511 122.748C336.638 122.374 336.814 122.055 337.039 121.793C337.272 121.523 337.549 121.317 337.871 121.174C338.194 121.032 338.55 120.961 338.939 120.961C339.329 120.961 339.682 121.032 339.996 121.174C340.319 121.317 340.596 121.523 340.828 121.793C341.061 122.055 341.241 122.374 341.368 122.748C341.496 123.123 341.559 123.539 341.559 123.996C341.559 124.461 341.496 124.881 341.368 125.256C341.241 125.623 341.061 125.942 340.828 126.212C340.596 126.474 340.319 126.676 339.996 126.819C339.682 126.961 339.329 127.032 338.939 127.032ZM338.939 126.234C339.427 126.234 339.824 126.084 340.131 125.784C340.439 125.484 340.592 125.027 340.592 124.413V123.58C340.592 122.966 340.439 122.509 340.131 122.209C339.824 121.909 339.427 121.759 338.939 121.759C338.452 121.759 338.055 121.909 337.748 122.209C337.44 122.509 337.287 122.966 337.287 123.58V124.413C337.287 125.027 337.44 125.484 337.748 125.784C338.055 126.084 338.452 126.234 338.939 126.234ZM343.414 126.897V121.096H344.313V122.04H344.358C344.5 121.71 344.699 121.448 344.954 121.253C345.216 121.058 345.565 120.961 346 120.961C346.599 120.961 347.072 121.156 347.416 121.545C347.769 121.928 347.945 122.471 347.945 123.176V126.897H347.045V123.333C347.045 122.291 346.607 121.77 345.73 121.77C345.55 121.77 345.374 121.793 345.201 121.838C345.036 121.883 344.887 121.95 344.752 122.04C344.617 122.13 344.508 122.246 344.426 122.389C344.351 122.524 344.313 122.685 344.313 122.872V126.897H343.414ZM350.494 121.883H349.549V121.096H350.494V119.926C350.494 119.521 350.599 119.195 350.809 118.948C351.019 118.701 351.337 118.577 351.764 118.577H352.641V119.364H351.393V121.096H352.641V121.883H351.393V126.897H350.494V121.883ZM356.337 127.032C355.939 127.032 355.58 126.961 355.257 126.819C354.943 126.676 354.669 126.474 354.437 126.212C354.212 125.942 354.035 125.623 353.908 125.256C353.788 124.881 353.728 124.461 353.728 123.996C353.728 123.539 353.788 123.123 353.908 122.748C354.035 122.374 354.212 122.055 354.437 121.793C354.669 121.523 354.943 121.317 355.257 121.174C355.58 121.032 355.939 120.961 356.337 120.961C356.727 120.961 357.075 121.032 357.382 121.174C357.69 121.317 357.952 121.515 358.17 121.77C358.387 122.018 358.552 122.314 358.664 122.658C358.784 123.003 358.844 123.382 358.844 123.794V124.221H354.673V124.491C354.673 124.739 354.71 124.971 354.785 125.188C354.868 125.398 354.98 125.582 355.122 125.739C355.272 125.897 355.452 126.02 355.662 126.11C355.88 126.2 356.123 126.245 356.393 126.245C356.76 126.245 357.079 126.159 357.349 125.987C357.626 125.814 357.84 125.567 357.99 125.245L358.631 125.706C358.443 126.103 358.151 126.425 357.754 126.673C357.356 126.912 356.884 127.032 356.337 127.032ZM356.337 121.714C356.089 121.714 355.865 121.759 355.662 121.849C355.46 121.931 355.284 122.051 355.134 122.209C354.991 122.366 354.879 122.554 354.796 122.771C354.714 122.981 354.673 123.213 354.673 123.468V123.547H357.877V123.423C357.877 122.906 357.735 122.494 357.45 122.186C357.173 121.871 356.802 121.714 356.337 121.714ZM360.701 126.897V121.096H361.601V122.164H361.657C361.762 121.886 361.949 121.639 362.219 121.422C362.489 121.204 362.86 121.096 363.332 121.096H363.681V121.995H363.152C362.665 121.995 362.283 122.089 362.006 122.276C361.736 122.456 361.601 122.685 361.601 122.962V126.897H360.701ZM367.331 127.032C366.934 127.032 366.574 126.961 366.252 126.819C365.937 126.676 365.663 126.474 365.431 126.212C365.206 125.942 365.03 125.623 364.902 125.256C364.783 124.881 364.723 124.461 364.723 123.996C364.723 123.539 364.783 123.123 364.902 122.748C365.03 122.374 365.206 122.055 365.431 121.793C365.663 121.523 365.937 121.317 366.252 121.174C366.574 121.032 366.934 120.961 367.331 120.961C367.721 120.961 368.07 121.032 368.377 121.174C368.684 121.317 368.947 121.515 369.164 121.77C369.381 122.018 369.546 122.314 369.659 122.658C369.779 123.003 369.839 123.382 369.839 123.794V124.221H365.667V124.491C365.667 124.739 365.705 124.971 365.78 125.188C365.862 125.398 365.974 125.582 366.117 125.739C366.267 125.897 366.447 126.02 366.657 126.11C366.874 126.2 367.118 126.245 367.387 126.245C367.755 126.245 368.073 126.159 368.343 125.987C368.62 125.814 368.834 125.567 368.984 125.245L369.625 125.706C369.438 126.103 369.145 126.425 368.748 126.673C368.351 126.912 367.878 127.032 367.331 127.032ZM367.331 121.714C367.084 121.714 366.859 121.759 366.657 121.849C366.454 121.931 366.278 122.051 366.128 122.209C365.986 122.366 365.873 122.554 365.791 122.771C365.708 122.981 365.667 123.213 365.667 123.468V123.547H368.872V123.423C368.872 122.906 368.729 122.494 368.444 122.186C368.167 121.871 367.796 121.714 367.331 121.714ZM371.696 126.897V121.096H372.595V122.04H372.64C372.783 121.71 372.981 121.448 373.236 121.253C373.498 121.058 373.847 120.961 374.282 120.961C374.881 120.961 375.354 121.156 375.699 121.545C376.051 121.928 376.227 122.471 376.227 123.176V126.897H375.327V123.333C375.327 122.291 374.889 121.77 374.012 121.77C373.832 121.77 373.656 121.793 373.483 121.838C373.319 121.883 373.169 121.95 373.034 122.04C372.899 122.13 372.79 122.246 372.708 122.389C372.633 122.524 372.595 122.685 372.595 122.872V126.897H371.696ZM380.62 127.032C380.215 127.032 379.852 126.961 379.529 126.819C379.207 126.676 378.933 126.474 378.708 126.212C378.491 125.949 378.322 125.631 378.203 125.256C378.09 124.881 378.034 124.461 378.034 123.996C378.034 123.532 378.09 123.112 378.203 122.737C378.322 122.362 378.491 122.044 378.708 121.781C378.933 121.519 379.207 121.317 379.529 121.174C379.852 121.032 380.215 120.961 380.62 120.961C381.197 120.961 381.658 121.088 382.003 121.343C382.355 121.59 382.618 121.916 382.79 122.321L382.037 122.703C381.932 122.404 381.759 122.171 381.519 122.006C381.28 121.841 380.98 121.759 380.62 121.759C380.35 121.759 380.114 121.804 379.912 121.894C379.709 121.976 379.541 122.096 379.406 122.254C379.271 122.404 379.169 122.587 379.102 122.805C379.035 123.015 379.001 123.247 379.001 123.502V124.491C379.001 125.001 379.136 125.421 379.406 125.751C379.683 126.073 380.088 126.234 380.62 126.234C381.347 126.234 381.872 125.897 382.194 125.222L382.846 125.661C382.659 126.08 382.378 126.414 382.003 126.661C381.636 126.909 381.175 127.032 380.62 127.032ZM386.606 127.032C386.209 127.032 385.849 126.961 385.527 126.819C385.212 126.676 384.938 126.474 384.706 126.212C384.481 125.942 384.305 125.623 384.178 125.256C384.058 124.881 383.998 124.461 383.998 123.996C383.998 123.539 384.058 123.123 384.178 122.748C384.305 122.374 384.481 122.055 384.706 121.793C384.938 121.523 385.212 121.317 385.527 121.174C385.849 121.032 386.209 120.961 386.606 120.961C386.996 120.961 387.345 121.032 387.652 121.174C387.959 121.317 388.222 121.515 388.439 121.77C388.656 122.018 388.821 122.314 388.934 122.658C389.054 123.003 389.114 123.382 389.114 123.794V124.221H384.942V124.491C384.942 124.739 384.98 124.971 385.055 125.188C385.137 125.398 385.25 125.582 385.392 125.739C385.542 125.897 385.722 126.02 385.932 126.11C386.149 126.2 386.393 126.245 386.663 126.245C387.03 126.245 387.348 126.159 387.618 125.987C387.896 125.814 388.109 125.567 388.259 125.245L388.9 125.706C388.713 126.103 388.42 126.425 388.023 126.673C387.626 126.912 387.154 127.032 386.606 127.032ZM386.606 121.714C386.359 121.714 386.134 121.759 385.932 121.849C385.729 121.931 385.553 122.051 385.403 122.209C385.261 122.366 385.148 122.554 385.066 122.771C384.983 122.981 384.942 123.213 384.942 123.468V123.547H388.147V123.423C388.147 122.906 388.004 122.494 387.719 122.186C387.442 121.871 387.071 121.714 386.606 121.714ZM392.714 127.032C392.174 127.032 391.72 126.931 391.353 126.729C390.993 126.519 390.682 126.242 390.42 125.897L391.061 125.38C391.286 125.664 391.537 125.885 391.814 126.043C392.092 126.193 392.414 126.268 392.781 126.268C393.163 126.268 393.46 126.185 393.669 126.02C393.887 125.856 393.995 125.623 393.995 125.323C393.995 125.098 393.921 124.907 393.771 124.75C393.628 124.585 393.366 124.472 392.984 124.413L392.523 124.345C392.253 124.308 392.005 124.251 391.78 124.176C391.556 124.094 391.357 123.989 391.184 123.862C391.02 123.727 390.888 123.562 390.791 123.367C390.701 123.172 390.656 122.94 390.656 122.67C390.656 122.385 390.708 122.137 390.813 121.928C390.918 121.71 391.061 121.53 391.241 121.388C391.428 121.245 391.649 121.141 391.904 121.073C392.159 120.998 392.433 120.961 392.725 120.961C393.197 120.961 393.591 121.043 393.906 121.208C394.228 121.373 394.509 121.602 394.749 121.894L394.153 122.434C394.025 122.254 393.838 122.093 393.591 121.95C393.343 121.8 393.032 121.725 392.657 121.725C392.283 121.725 391.998 121.808 391.803 121.973C391.616 122.13 391.522 122.347 391.522 122.625C391.522 122.91 391.616 123.116 391.803 123.243C391.998 123.371 392.275 123.464 392.635 123.524L393.085 123.592C393.729 123.689 394.187 123.877 394.457 124.154C394.726 124.424 394.861 124.78 394.861 125.222C394.861 125.784 394.67 126.227 394.288 126.549C393.906 126.871 393.381 127.032 392.714 127.032Z" fill="white"/>
</g>
<g opacity="0.64">
<rect x="22.9419" y="141.861" width="339.195" height="39.4881" fill="#3498DB"/>
<path d="M306.42 165.609L304.509 157.761H305.509L306.353 161.539L307.005 164.474H307.027L307.758 161.539L308.748 157.761H309.827L310.783 161.539L311.514 164.462H311.547L312.222 161.539L313.11 157.761H314.077L312.065 165.609H311.019L309.996 161.696L309.276 158.818H309.254L308.511 161.696L307.466 165.609H306.42ZM317.645 165.744C317.248 165.744 316.888 165.673 316.566 165.531C316.251 165.388 315.977 165.186 315.745 164.923C315.52 164.654 315.344 164.335 315.216 163.968C315.096 163.593 315.036 163.173 315.036 162.708C315.036 162.251 315.096 161.835 315.216 161.46C315.344 161.086 315.52 160.767 315.745 160.505C315.977 160.235 316.251 160.029 316.566 159.886C316.888 159.744 317.248 159.673 317.645 159.673C318.035 159.673 318.383 159.744 318.691 159.886C318.998 160.029 319.261 160.227 319.478 160.482C319.695 160.729 319.86 161.026 319.973 161.37C320.093 161.715 320.153 162.094 320.153 162.506V162.933H315.981V163.203C315.981 163.451 316.018 163.683 316.093 163.9C316.176 164.11 316.288 164.294 316.431 164.451C316.581 164.609 316.761 164.732 316.97 164.822C317.188 164.912 317.431 164.957 317.701 164.957C318.069 164.957 318.387 164.871 318.657 164.699C318.934 164.526 319.148 164.279 319.298 163.957L319.939 164.418C319.751 164.815 319.459 165.137 319.062 165.384C318.665 165.624 318.192 165.744 317.645 165.744ZM317.645 160.426C317.398 160.426 317.173 160.471 316.97 160.561C316.768 160.643 316.592 160.763 316.442 160.921C316.3 161.078 316.187 161.265 316.105 161.483C316.022 161.693 315.981 161.925 315.981 162.18V162.259H319.186V162.135C319.186 161.618 319.043 161.205 318.758 160.898C318.481 160.583 318.11 160.426 317.645 160.426ZM322.01 157.289H322.909V160.752H322.954C323.104 160.385 323.321 160.115 323.606 159.942C323.899 159.762 324.247 159.673 324.652 159.673C325.012 159.673 325.338 159.744 325.63 159.886C325.923 160.029 326.17 160.231 326.372 160.493C326.582 160.756 326.74 161.074 326.845 161.449C326.957 161.824 327.013 162.244 327.013 162.708C327.013 163.173 326.957 163.593 326.845 163.968C326.74 164.343 326.582 164.661 326.372 164.923C326.17 165.186 325.923 165.388 325.63 165.531C325.338 165.673 325.012 165.744 324.652 165.744C323.865 165.744 323.299 165.384 322.954 164.665H322.909V165.609H322.01V157.289ZM324.405 164.935C324.914 164.935 325.315 164.777 325.608 164.462C325.9 164.14 326.046 163.72 326.046 163.203V162.214C326.046 161.696 325.9 161.28 325.608 160.966C325.315 160.643 324.914 160.482 324.405 160.482C324.202 160.482 324.007 160.512 323.82 160.572C323.64 160.625 323.483 160.699 323.348 160.797C323.213 160.894 323.104 161.014 323.022 161.157C322.947 161.292 322.909 161.438 322.909 161.595V163.754C322.909 163.942 322.947 164.11 323.022 164.26C323.104 164.403 323.213 164.526 323.348 164.631C323.483 164.729 323.64 164.804 323.82 164.856C324.007 164.908 324.202 164.935 324.405 164.935ZM329.357 158.447C329.162 158.447 329.019 158.402 328.929 158.312C328.847 158.215 328.806 158.091 328.806 157.941V157.795C328.806 157.645 328.847 157.525 328.929 157.435C329.019 157.338 329.162 157.289 329.357 157.289C329.552 157.289 329.69 157.338 329.773 157.435C329.863 157.525 329.908 157.645 329.908 157.795V157.941C329.908 158.091 329.863 158.215 329.773 158.312C329.69 158.402 329.552 158.447 329.357 158.447ZM328.907 159.807H329.806V165.609H328.907V159.807ZM332.093 165.609V159.807H332.992V160.752H333.037C333.18 160.422 333.378 160.16 333.633 159.965C333.895 159.77 334.244 159.673 334.679 159.673C335.278 159.673 335.751 159.867 336.096 160.257C336.448 160.64 336.624 161.183 336.624 161.888V165.609H335.724V162.045C335.724 161.003 335.286 160.482 334.409 160.482C334.229 160.482 334.053 160.505 333.88 160.55C333.716 160.595 333.566 160.662 333.431 160.752C333.296 160.842 333.187 160.958 333.105 161.101C333.03 161.235 332.992 161.397 332.992 161.584V165.609H332.093ZM343.075 165.609C342.737 165.609 342.494 165.519 342.344 165.34C342.201 165.16 342.111 164.935 342.074 164.665H342.018C341.89 165.025 341.68 165.295 341.388 165.474C341.096 165.654 340.747 165.744 340.342 165.744C339.728 165.744 339.248 165.587 338.903 165.272C338.566 164.957 338.397 164.53 338.397 163.99C338.397 163.443 338.596 163.023 338.993 162.731C339.398 162.439 340.024 162.292 340.871 162.292H342.018V161.719C342.018 161.307 341.905 160.992 341.68 160.774C341.455 160.557 341.111 160.448 340.646 160.448C340.294 160.448 339.998 160.527 339.758 160.684C339.525 160.842 339.33 161.052 339.173 161.314L338.633 160.808C338.791 160.493 339.042 160.227 339.387 160.01C339.731 159.785 340.166 159.673 340.691 159.673C341.396 159.673 341.943 159.845 342.333 160.19C342.722 160.535 342.917 161.014 342.917 161.629V164.822H343.581V165.609H343.075ZM340.489 164.98C340.713 164.98 340.92 164.953 341.107 164.901C341.294 164.849 341.455 164.774 341.59 164.676C341.725 164.579 341.83 164.466 341.905 164.339C341.98 164.211 342.018 164.073 342.018 163.923V162.967H340.826C340.309 162.967 339.93 163.042 339.69 163.192C339.458 163.342 339.342 163.559 339.342 163.844V164.08C339.342 164.365 339.443 164.586 339.645 164.744C339.855 164.901 340.136 164.98 340.489 164.98ZM345.239 165.609V159.807H346.139V160.876H346.195C346.3 160.598 346.487 160.351 346.757 160.134C347.027 159.916 347.398 159.807 347.87 159.807H348.219V160.707H347.69C347.203 160.707 346.821 160.801 346.544 160.988C346.274 161.168 346.139 161.397 346.139 161.674V165.609H345.239ZM351.486 165.744C350.946 165.744 350.492 165.643 350.125 165.441C349.765 165.231 349.454 164.953 349.192 164.609L349.833 164.091C350.058 164.376 350.309 164.597 350.586 164.755C350.863 164.905 351.186 164.98 351.553 164.98C351.935 164.98 352.231 164.897 352.441 164.732C352.659 164.567 352.767 164.335 352.767 164.035C352.767 163.81 352.692 163.619 352.542 163.462C352.4 163.297 352.138 163.184 351.755 163.124L351.294 163.057C351.025 163.019 350.777 162.963 350.552 162.888C350.327 162.806 350.129 162.701 349.956 162.573C349.791 162.439 349.66 162.274 349.563 162.079C349.473 161.884 349.428 161.651 349.428 161.382C349.428 161.097 349.48 160.849 349.585 160.64C349.69 160.422 349.833 160.242 350.013 160.1C350.2 159.957 350.421 159.852 350.676 159.785C350.931 159.71 351.204 159.673 351.497 159.673C351.969 159.673 352.363 159.755 352.677 159.92C353 160.085 353.281 160.313 353.521 160.606L352.925 161.145C352.797 160.966 352.61 160.804 352.363 160.662C352.115 160.512 351.804 160.437 351.429 160.437C351.055 160.437 350.77 160.52 350.575 160.684C350.387 160.842 350.294 161.059 350.294 161.337C350.294 161.621 350.387 161.828 350.575 161.955C350.77 162.082 351.047 162.176 351.407 162.236L351.857 162.304C352.501 162.401 352.959 162.588 353.228 162.866C353.498 163.136 353.633 163.492 353.633 163.934C353.633 164.496 353.442 164.938 353.06 165.261C352.677 165.583 352.153 165.744 351.486 165.744Z" fill="white"/>
</g>
<g opacity="0.56">
<rect x="22.9419" y="180.574" width="215.511" height="39.4881" fill="#3498DB"/>
<path d="M183.871 204.457C183.234 204.457 182.69 204.337 182.24 204.097C181.791 203.85 181.408 203.513 181.094 203.085L181.791 202.501C182.068 202.868 182.375 203.149 182.713 203.344C183.05 203.531 183.447 203.625 183.905 203.625C184.467 203.625 184.894 203.49 185.186 203.22C185.486 202.95 185.636 202.591 185.636 202.141C185.636 201.766 185.524 201.478 185.299 201.275C185.074 201.073 184.703 200.912 184.186 200.792L183.545 200.645C182.825 200.481 182.274 200.233 181.892 199.903C181.517 199.566 181.33 199.094 181.33 198.487C181.33 198.142 181.393 197.834 181.521 197.565C181.648 197.295 181.824 197.07 182.049 196.89C182.282 196.71 182.555 196.575 182.87 196.485C183.192 196.388 183.545 196.339 183.927 196.339C184.519 196.339 185.025 196.448 185.445 196.665C185.872 196.882 186.232 197.201 186.524 197.621L185.816 198.138C185.599 197.838 185.336 197.602 185.029 197.43C184.722 197.257 184.339 197.171 183.882 197.171C183.38 197.171 182.983 197.28 182.69 197.497C182.405 197.707 182.263 198.026 182.263 198.453C182.263 198.828 182.383 199.113 182.623 199.307C182.87 199.495 183.241 199.645 183.736 199.757L184.377 199.903C185.149 200.076 185.707 200.338 186.052 200.69C186.397 201.043 186.569 201.511 186.569 202.096C186.569 202.456 186.506 202.782 186.378 203.074C186.258 203.367 186.082 203.614 185.85 203.816C185.617 204.019 185.333 204.176 184.995 204.289C184.665 204.401 184.291 204.457 183.871 204.457ZM190.667 204.457C190.269 204.457 189.909 204.386 189.587 204.244C189.272 204.101 188.999 203.899 188.766 203.636C188.541 203.367 188.365 203.048 188.238 202.681C188.118 202.306 188.058 201.886 188.058 201.421C188.058 200.964 188.118 200.548 188.238 200.173C188.365 199.798 188.541 199.48 188.766 199.217C188.999 198.948 189.272 198.741 189.587 198.599C189.909 198.457 190.269 198.385 190.667 198.385C191.056 198.385 191.405 198.457 191.712 198.599C192.02 198.741 192.282 198.94 192.499 199.195C192.717 199.442 192.882 199.738 192.994 200.083C193.114 200.428 193.174 200.807 193.174 201.219V201.646H189.002V201.916C189.002 202.163 189.04 202.396 189.115 202.613C189.197 202.823 189.31 203.007 189.452 203.164C189.602 203.322 189.782 203.445 189.992 203.535C190.209 203.625 190.453 203.67 190.723 203.67C191.09 203.67 191.409 203.584 191.679 203.411C191.956 203.239 192.17 202.992 192.319 202.669L192.96 203.13C192.773 203.528 192.481 203.85 192.083 204.097C191.686 204.337 191.214 204.457 190.667 204.457ZM190.667 199.139C190.419 199.139 190.194 199.184 189.992 199.274C189.79 199.356 189.613 199.476 189.463 199.634C189.321 199.791 189.209 199.978 189.126 200.196C189.044 200.406 189.002 200.638 189.002 200.893V200.972H192.207V200.848C192.207 200.331 192.065 199.918 191.78 199.611C191.502 199.296 191.131 199.139 190.667 199.139ZM195.031 204.322V198.52H195.931V199.465H195.976C196.043 199.315 196.118 199.176 196.2 199.049C196.29 198.914 196.395 198.798 196.515 198.7C196.643 198.603 196.789 198.528 196.954 198.475C197.119 198.415 197.314 198.385 197.538 198.385C197.921 198.385 198.273 198.479 198.595 198.667C198.918 198.846 199.158 199.146 199.315 199.566H199.338C199.442 199.251 199.637 198.978 199.922 198.745C200.215 198.505 200.608 198.385 201.103 198.385C201.695 198.385 202.156 198.58 202.486 198.97C202.823 199.352 202.992 199.896 202.992 200.6V204.322H202.092V200.758C202.092 200.241 201.991 199.851 201.789 199.589C201.586 199.326 201.264 199.195 200.822 199.195C200.642 199.195 200.469 199.217 200.305 199.262C200.147 199.307 200.005 199.375 199.877 199.465C199.75 199.555 199.649 199.671 199.574 199.813C199.499 199.948 199.461 200.109 199.461 200.297V204.322H198.562V200.758C198.562 200.241 198.46 199.851 198.258 199.589C198.056 199.326 197.741 199.195 197.314 199.195C197.134 199.195 196.961 199.217 196.796 199.262C196.631 199.307 196.485 199.375 196.358 199.465C196.23 199.555 196.125 199.671 196.043 199.813C195.968 199.948 195.931 200.109 195.931 200.297V204.322H195.031ZM205.672 197.16C205.477 197.16 205.335 197.115 205.245 197.025C205.162 196.927 205.121 196.804 205.121 196.654V196.508C205.121 196.358 205.162 196.238 205.245 196.148C205.335 196.05 205.477 196.002 205.672 196.002C205.867 196.002 206.006 196.05 206.088 196.148C206.178 196.238 206.223 196.358 206.223 196.508V196.654C206.223 196.804 206.178 196.927 206.088 197.025C206.006 197.115 205.867 197.16 205.672 197.16ZM205.222 198.52H206.122V204.322H205.222V198.52ZM208.408 204.322V198.52H209.308V199.465H209.353C209.495 199.135 209.694 198.873 209.949 198.678C210.211 198.483 210.56 198.385 210.994 198.385C211.594 198.385 212.066 198.58 212.411 198.97C212.763 199.352 212.94 199.896 212.94 200.6V204.322H212.04V200.758C212.04 199.716 211.602 199.195 210.725 199.195C210.545 199.195 210.368 199.217 210.196 199.262C210.031 199.307 209.881 199.375 209.746 199.465C209.611 199.555 209.503 199.671 209.42 199.813C209.345 199.948 209.308 200.109 209.308 200.297V204.322H208.408ZM219.39 204.322C219.053 204.322 218.809 204.232 218.659 204.052C218.517 203.873 218.427 203.648 218.389 203.378H218.333C218.206 203.738 217.996 204.007 217.704 204.187C217.411 204.367 217.063 204.457 216.658 204.457C216.043 204.457 215.563 204.3 215.219 203.985C214.881 203.67 214.713 203.243 214.713 202.703C214.713 202.156 214.911 201.736 215.309 201.444C215.713 201.151 216.339 201.005 217.186 201.005H218.333V200.432C218.333 200.02 218.221 199.705 217.996 199.487C217.771 199.27 217.426 199.161 216.962 199.161C216.609 199.161 216.313 199.24 216.073 199.397C215.841 199.555 215.646 199.765 215.489 200.027L214.949 199.521C215.106 199.206 215.357 198.94 215.702 198.723C216.047 198.498 216.482 198.385 217.006 198.385C217.711 198.385 218.258 198.558 218.648 198.903C219.038 199.247 219.233 199.727 219.233 200.342V203.535H219.896V204.322H219.39ZM216.804 203.693C217.029 203.693 217.235 203.666 217.423 203.614C217.61 203.561 217.771 203.486 217.906 203.389C218.041 203.292 218.146 203.179 218.221 203.052C218.296 202.924 218.333 202.786 218.333 202.636V201.68H217.141C216.624 201.68 216.246 201.755 216.006 201.905C215.773 202.055 215.657 202.272 215.657 202.557V202.793C215.657 203.078 215.758 203.299 215.961 203.456C216.171 203.614 216.452 203.693 216.804 203.693ZM221.555 204.322V198.52H222.454V199.589H222.511C222.616 199.311 222.803 199.064 223.073 198.846C223.343 198.629 223.714 198.52 224.186 198.52H224.535V199.42H224.006C223.519 199.42 223.136 199.514 222.859 199.701C222.589 199.881 222.454 200.109 222.454 200.387V204.322H221.555ZM227.801 204.457C227.261 204.457 226.808 204.356 226.441 204.154C226.081 203.944 225.77 203.666 225.507 203.322L226.148 202.804C226.373 203.089 226.624 203.31 226.902 203.468C227.179 203.618 227.501 203.693 227.869 203.693C228.251 203.693 228.547 203.61 228.757 203.445C228.974 203.28 229.083 203.048 229.083 202.748C229.083 202.523 229.008 202.332 228.858 202.175C228.716 202.01 228.453 201.897 228.071 201.837L227.61 201.77C227.34 201.732 227.093 201.676 226.868 201.601C226.643 201.519 226.444 201.414 226.272 201.286C226.107 201.151 225.976 200.987 225.878 200.792C225.788 200.597 225.743 200.364 225.743 200.095C225.743 199.81 225.796 199.562 225.901 199.352C226.006 199.135 226.148 198.955 226.328 198.813C226.516 198.67 226.737 198.565 226.992 198.498C227.246 198.423 227.52 198.385 227.812 198.385C228.285 198.385 228.678 198.468 228.993 198.633C229.315 198.798 229.596 199.026 229.836 199.319L229.24 199.858C229.113 199.678 228.926 199.517 228.678 199.375C228.431 199.225 228.12 199.15 227.745 199.15C227.37 199.15 227.085 199.232 226.89 199.397C226.703 199.555 226.609 199.772 226.609 200.05C226.609 200.334 226.703 200.541 226.89 200.668C227.085 200.795 227.363 200.889 227.722 200.949L228.172 201.017C228.817 201.114 229.274 201.301 229.544 201.579C229.814 201.849 229.949 202.205 229.949 202.647C229.949 203.209 229.758 203.651 229.375 203.974C228.993 204.296 228.468 204.457 227.801 204.457Z" fill="white"/>
</g>
<g opacity="0.48">
<rect x="22.9419" y="219.286" width="166.787" height="39.4881" fill="#3498DB"/>
<path d="M124.743 243.034L122.831 235.186H123.832L124.675 238.964L125.327 241.899H125.35L126.081 238.964L127.07 235.186H128.149L129.105 238.964L129.836 241.887H129.87L130.544 238.964L131.433 235.186H132.4L130.387 243.034H129.341L128.318 239.121L127.599 236.243H127.576L126.834 239.121L125.788 243.034H124.743ZM135.979 243.169C135.589 243.169 135.233 243.098 134.911 242.955C134.588 242.813 134.311 242.611 134.079 242.348C133.854 242.078 133.678 241.76 133.55 241.393C133.423 241.018 133.359 240.598 133.359 240.133C133.359 239.676 133.423 239.26 133.55 238.885C133.678 238.51 133.854 238.192 134.079 237.929C134.311 237.66 134.588 237.453 134.911 237.311C135.233 237.169 135.589 237.097 135.979 237.097C136.369 237.097 136.721 237.169 137.036 237.311C137.358 237.453 137.635 237.66 137.868 237.929C138.1 238.192 138.28 238.51 138.408 238.885C138.535 239.26 138.599 239.676 138.599 240.133C138.599 240.598 138.535 241.018 138.408 241.393C138.28 241.76 138.1 242.078 137.868 242.348C137.635 242.611 137.358 242.813 137.036 242.955C136.721 243.098 136.369 243.169 135.979 243.169ZM135.979 242.371C136.466 242.371 136.863 242.221 137.171 241.921C137.478 241.621 137.632 241.164 137.632 240.549V239.717C137.632 239.103 137.478 238.645 137.171 238.345C136.863 238.046 136.466 237.896 135.979 237.896C135.492 237.896 135.094 238.046 134.787 238.345C134.48 238.645 134.326 239.103 134.326 239.717V240.549C134.326 241.164 134.48 241.621 134.787 241.921C135.094 242.221 135.492 242.371 135.979 242.371ZM140.453 243.034V237.232H141.352V238.3H141.409C141.514 238.023 141.701 237.776 141.971 237.558C142.241 237.341 142.612 237.232 143.084 237.232H143.433V238.132H142.904C142.417 238.132 142.034 238.225 141.757 238.413C141.487 238.593 141.352 238.821 141.352 239.099V243.034H140.453ZM144.956 234.714H145.856V239.987H145.901L146.789 238.998L148.431 237.232H149.521L147.374 239.526L149.735 243.034H148.644L146.722 240.077L145.856 240.965V243.034H144.956V234.714ZM152.894 243.169C152.354 243.169 151.9 243.068 151.533 242.866C151.173 242.656 150.862 242.378 150.6 242.033L151.241 241.516C151.466 241.801 151.717 242.022 151.994 242.18C152.271 242.33 152.594 242.405 152.961 242.405C153.343 242.405 153.639 242.322 153.849 242.157C154.067 241.992 154.175 241.76 154.175 241.46C154.175 241.235 154.1 241.044 153.951 240.887C153.808 240.722 153.546 240.609 153.163 240.549L152.702 240.482C152.433 240.444 152.185 240.388 151.96 240.313C151.735 240.231 151.537 240.126 151.364 239.998C151.199 239.863 151.068 239.698 150.971 239.504C150.881 239.309 150.836 239.076 150.836 238.806C150.836 238.522 150.888 238.274 150.993 238.064C151.098 237.847 151.241 237.667 151.421 237.525C151.608 237.382 151.829 237.277 152.084 237.21C152.339 237.135 152.612 237.097 152.905 237.097C153.377 237.097 153.771 237.18 154.085 237.345C154.408 237.51 154.689 237.738 154.929 238.031L154.333 238.57C154.205 238.39 154.018 238.229 153.771 238.087C153.523 237.937 153.212 237.862 152.837 237.862C152.463 237.862 152.178 237.944 151.983 238.109C151.795 238.267 151.702 238.484 151.702 238.761C151.702 239.046 151.795 239.252 151.983 239.38C152.178 239.507 152.455 239.601 152.815 239.661L153.265 239.728C153.909 239.826 154.367 240.013 154.636 240.291C154.906 240.56 155.041 240.917 155.041 241.359C155.041 241.921 154.85 242.363 154.468 242.686C154.085 243.008 153.561 243.169 152.894 243.169ZM157.005 234.714H157.904V238.177H157.949C158.092 237.847 158.29 237.585 158.545 237.39C158.808 237.195 159.156 237.097 159.591 237.097C160.191 237.097 160.663 237.292 161.008 237.682C161.36 238.064 161.536 238.608 161.536 239.312V243.034H160.637V239.47C160.637 238.428 160.198 237.907 159.321 237.907C159.141 237.907 158.965 237.929 158.793 237.974C158.628 238.019 158.478 238.087 158.343 238.177C158.208 238.267 158.099 238.383 158.017 238.525C157.942 238.66 157.904 238.821 157.904 239.009V243.034H157.005V234.714ZM165.963 243.169C165.573 243.169 165.217 243.098 164.895 242.955C164.572 242.813 164.295 242.611 164.063 242.348C163.838 242.078 163.662 241.76 163.534 241.393C163.407 241.018 163.343 240.598 163.343 240.133C163.343 239.676 163.407 239.26 163.534 238.885C163.662 238.51 163.838 238.192 164.063 237.929C164.295 237.66 164.572 237.453 164.895 237.311C165.217 237.169 165.573 237.097 165.963 237.097C166.353 237.097 166.705 237.169 167.02 237.311C167.342 237.453 167.62 237.66 167.852 237.929C168.084 238.192 168.264 238.51 168.392 238.885C168.519 239.26 168.583 239.676 168.583 240.133C168.583 240.598 168.519 241.018 168.392 241.393C168.264 241.76 168.084 242.078 167.852 242.348C167.62 242.611 167.342 242.813 167.02 242.955C166.705 243.098 166.353 243.169 165.963 243.169ZM165.963 242.371C166.45 242.371 166.847 242.221 167.155 241.921C167.462 241.621 167.616 241.164 167.616 240.549V239.717C167.616 239.103 167.462 238.645 167.155 238.345C166.847 238.046 166.45 237.896 165.963 237.896C165.476 237.896 165.078 238.046 164.771 238.345C164.464 238.645 164.31 239.103 164.31 239.717V240.549C164.31 241.164 164.464 241.621 164.771 241.921C165.078 242.221 165.476 242.371 165.963 242.371ZM170.437 237.232H171.336V238.177H171.381C171.531 237.809 171.749 237.54 172.034 237.367C172.326 237.187 172.674 237.097 173.079 237.097C173.439 237.097 173.765 237.169 174.058 237.311C174.35 237.453 174.597 237.656 174.8 237.918C175.01 238.181 175.167 238.499 175.272 238.874C175.384 239.249 175.441 239.668 175.441 240.133C175.441 240.598 175.384 241.018 175.272 241.393C175.167 241.767 175.01 242.086 174.8 242.348C174.597 242.611 174.35 242.813 174.058 242.955C173.765 243.098 173.439 243.169 173.079 243.169C172.292 243.169 171.726 242.809 171.381 242.09H171.336V245.283H170.437V237.232ZM172.832 242.36C173.342 242.36 173.743 242.202 174.035 241.887C174.327 241.565 174.474 241.145 174.474 240.628V239.638C174.474 239.121 174.327 238.705 174.035 238.39C173.743 238.068 173.342 237.907 172.832 237.907C172.63 237.907 172.435 237.937 172.247 237.997C172.067 238.049 171.91 238.124 171.775 238.222C171.64 238.319 171.531 238.439 171.449 238.582C171.374 238.716 171.336 238.863 171.336 239.02V241.179C171.336 241.366 171.374 241.535 171.449 241.685C171.531 241.827 171.64 241.951 171.775 242.056C171.91 242.153 172.067 242.228 172.247 242.281C172.435 242.333 172.63 242.36 172.832 242.36ZM179.077 243.169C178.537 243.169 178.084 243.068 177.716 242.866C177.357 242.656 177.046 242.378 176.783 242.033L177.424 241.516C177.649 241.801 177.9 242.022 178.177 242.18C178.455 242.33 178.777 242.405 179.144 242.405C179.527 242.405 179.823 242.322 180.033 242.157C180.25 241.992 180.359 241.76 180.359 241.46C180.359 241.235 180.284 241.044 180.134 240.887C179.992 240.722 179.729 240.609 179.347 240.549L178.886 240.482C178.616 240.444 178.369 240.388 178.144 240.313C177.919 240.231 177.72 240.126 177.548 239.998C177.383 239.863 177.252 239.698 177.154 239.504C177.064 239.309 177.019 239.076 177.019 238.806C177.019 238.522 177.072 238.274 177.177 238.064C177.282 237.847 177.424 237.667 177.604 237.525C177.791 237.382 178.013 237.277 178.267 237.21C178.522 237.135 178.796 237.097 179.088 237.097C179.56 237.097 179.954 237.18 180.269 237.345C180.591 237.51 180.872 237.738 181.112 238.031L180.516 238.57C180.389 238.39 180.201 238.229 179.954 238.087C179.707 237.937 179.396 237.862 179.021 237.862C178.646 237.862 178.361 237.944 178.166 238.109C177.979 238.267 177.885 238.484 177.885 238.761C177.885 239.046 177.979 239.252 178.166 239.38C178.361 239.507 178.638 239.601 178.998 239.661L179.448 239.728C180.093 239.826 180.55 240.013 180.82 240.291C181.09 240.56 181.225 240.917 181.225 241.359C181.225 241.921 181.033 242.363 180.651 242.686C180.269 243.008 179.744 243.169 179.077 243.169Z" fill="white"/>
</g>
<path d="M18.933 28.605L17.6721 26.2782H17.627V35H16.3961V24.5219H17.8522L21.6802 30.9168L22.9411 33.2436H22.9862V24.5219H24.2171V35H22.761L18.933 28.605ZM32.0762 33.739H32.0161C31.9361 33.9192 31.836 34.0993 31.7159 34.2794C31.6058 34.4496 31.4657 34.6047 31.2956 34.7448C31.1255 34.8749 30.9203 34.98 30.6801 35.06C30.4399 35.1401 30.1597 35.1801 29.8395 35.1801C29.0388 35.1801 28.4033 34.9249 27.933 34.4145C27.4626 33.8941 27.2274 33.1636 27.2274 32.2229V27.254H28.4284V32.0127C28.4284 33.4038 29.0188 34.0993 30.1997 34.0993C30.4399 34.0993 30.6701 34.0693 30.8903 34.0092C31.1204 33.9492 31.3206 33.8591 31.4907 33.739C31.6709 33.6189 31.811 33.4688 31.9111 33.2887C32.0211 33.0985 32.0762 32.8734 32.0762 32.6132V27.254H33.2771V35H32.0762V33.739ZM36.2473 35V27.254H37.4482V28.515H37.5083C37.5984 28.3148 37.6984 28.1297 37.8085 27.9595C37.9286 27.7794 38.0687 27.6243 38.2288 27.4942C38.399 27.3641 38.5941 27.264 38.8143 27.194C39.0345 27.1139 39.2947 27.0739 39.5949 27.0739C40.1053 27.0739 40.5757 27.199 41.006 27.4492C41.4363 27.6893 41.7566 28.0897 41.9667 28.6501H41.9968C42.1369 28.2298 42.3971 27.8645 42.7774 27.5542C43.1677 27.234 43.6931 27.0739 44.3536 27.0739C45.1442 27.0739 45.7597 27.3341 46.2 27.8545C46.6504 28.3649 46.8755 29.0904 46.8755 30.0312V35H45.6746V30.2413C45.6746 29.5508 45.5395 29.0304 45.2693 28.6801C44.9991 28.3298 44.5687 28.1547 43.9783 28.1547C43.7381 28.1547 43.5079 28.1847 43.2878 28.2448C43.0776 28.3048 42.8874 28.3949 42.7173 28.515C42.5472 28.6351 42.4121 28.7902 42.312 28.9803C42.2119 29.1605 42.1619 29.3756 42.1619 29.6258V35H40.961V30.2413C40.961 29.5508 40.8259 29.0304 40.5556 28.6801C40.2854 28.3298 39.8651 28.1547 39.2947 28.1547C39.0545 28.1547 38.8243 28.1847 38.6041 28.2448C38.384 28.3048 38.1888 28.3949 38.0187 28.515C37.8485 28.6351 37.7084 28.7902 37.5984 28.9803C37.4983 29.1605 37.4482 29.3756 37.4482 29.6258V35H36.2473ZM49.766 23.8914H50.9669V28.515H51.027C51.2271 28.0246 51.5173 27.6643 51.8976 27.4341C52.2879 27.194 52.7533 27.0739 53.2937 27.0739C53.7741 27.0739 54.2094 27.1689 54.5997 27.3591C54.99 27.5492 55.3203 27.8194 55.5905 28.1697C55.8707 28.52 56.0809 28.9453 56.221 29.4457C56.3711 29.9461 56.4461 30.5065 56.4461 31.127C56.4461 31.7475 56.3711 32.3079 56.221 32.8083C56.0809 33.3087 55.8707 33.734 55.5905 34.0843C55.3203 34.4346 54.99 34.7048 54.5997 34.8949C54.2094 35.0851 53.7741 35.1801 53.2937 35.1801C52.2429 35.1801 51.4873 34.6998 51.027 33.739H50.9669V35H49.766V23.8914ZM52.9634 34.0993C53.644 34.0993 54.1794 33.8891 54.5697 33.4688C54.96 33.0385 55.1551 32.478 55.1551 31.7875V30.4665C55.1551 29.776 54.96 29.2205 54.5697 28.8002C54.1794 28.3699 53.644 28.1547 52.9634 28.1547C52.6932 28.1547 52.433 28.1947 52.1828 28.2748C51.9427 28.3448 51.7325 28.4449 51.5524 28.575C51.3722 28.7051 51.2271 28.8653 51.117 29.0554C51.0169 29.2355 50.9669 29.4307 50.9669 29.6409V32.5231C50.9669 32.7733 51.0169 32.9985 51.117 33.1986C51.2271 33.3888 51.3722 33.5539 51.5524 33.694C51.7325 33.8241 51.9427 33.9242 52.1828 33.9942C52.433 34.0643 52.6932 34.0993 52.9634 34.0993ZM61.799 35.1801C61.2685 35.1801 60.7882 35.0851 60.3578 34.8949C59.9375 34.7048 59.5722 34.4346 59.262 34.0843C58.9618 33.724 58.7266 33.2987 58.5564 32.8083C58.3963 32.3079 58.3163 31.7475 58.3163 31.127C58.3163 30.5165 58.3963 29.9611 58.5564 29.4607C58.7266 28.9603 58.9618 28.535 59.262 28.1847C59.5722 27.8244 59.9375 27.5492 60.3578 27.3591C60.7882 27.1689 61.2685 27.0739 61.799 27.0739C62.3194 27.0739 62.7847 27.1689 63.195 27.3591C63.6054 27.5492 63.9556 27.8144 64.2459 28.1547C64.5361 28.485 64.7562 28.8803 64.9064 29.3406C65.0665 29.801 65.1466 30.3064 65.1466 30.8568V31.4272H59.5772V31.7875C59.5772 32.1178 59.6273 32.428 59.7274 32.7182C59.8374 32.9985 59.9876 33.2436 60.1777 33.4538C60.3779 33.664 60.618 33.8291 60.8983 33.9492C61.1885 34.0693 61.5137 34.1293 61.874 34.1293C62.3644 34.1293 62.7897 34.0142 63.15 33.7841C63.5203 33.5539 63.8055 33.2236 64.0057 32.7933L64.8613 33.4088C64.6111 33.9392 64.2208 34.3695 63.6904 34.6998C63.16 35.02 62.5295 35.1801 61.799 35.1801ZM61.799 28.0796C61.4687 28.0796 61.1685 28.1397 60.8983 28.2598C60.6281 28.3699 60.3929 28.53 60.1927 28.7402C60.0026 28.9503 59.8525 29.2005 59.7424 29.4907C59.6323 29.771 59.5772 30.0812 59.5772 30.4215V30.5265H63.8556V30.3614C63.8556 29.6709 63.6654 29.1204 63.2851 28.7101C62.9148 28.2898 62.4194 28.0796 61.799 28.0796ZM67.5383 35V27.254H68.7393V28.6801H68.8143C68.9544 28.3098 69.2046 27.9796 69.5649 27.6893C69.9252 27.3991 70.4206 27.254 71.051 27.254H71.5164V28.4549H70.8109C70.1604 28.4549 69.65 28.58 69.2797 28.8302C68.9194 29.0704 68.7393 29.3756 68.7393 29.7459V35H67.5383ZM80.351 35.1801C79.8306 35.1801 79.3552 35.0851 78.9249 34.8949C78.4945 34.7048 78.1243 34.4346 77.814 34.0843C77.5138 33.724 77.2786 33.2987 77.1085 32.8083C76.9383 32.3079 76.8533 31.7475 76.8533 31.127C76.8533 30.5165 76.9383 29.9611 77.1085 29.4607C77.2786 28.9603 77.5138 28.535 77.814 28.1847C78.1243 27.8244 78.4945 27.5492 78.9249 27.3591C79.3552 27.1689 79.8306 27.0739 80.351 27.0739C80.8714 27.0739 81.3417 27.1689 81.7621 27.3591C82.1924 27.5492 82.5627 27.8244 82.8729 28.1847C83.1832 28.535 83.4234 28.9603 83.5935 29.4607C83.7636 29.9611 83.8487 30.5165 83.8487 31.127C83.8487 31.7475 83.7636 32.3079 83.5935 32.8083C83.4234 33.2987 83.1832 33.724 82.8729 34.0843C82.5627 34.4346 82.1924 34.7048 81.7621 34.8949C81.3417 35.0851 80.8714 35.1801 80.351 35.1801ZM80.351 34.1143C81.0015 34.1143 81.5319 33.9142 81.9422 33.5138C82.3525 33.1135 82.5577 32.5031 82.5577 31.6824V30.5716C82.5577 29.7509 82.3525 29.1405 81.9422 28.7402C81.5319 28.3398 81.0015 28.1397 80.351 28.1397C79.7005 28.1397 79.1701 28.3398 78.7597 28.7402C78.3494 29.1405 78.1443 29.7509 78.1443 30.5716V31.6824C78.1443 32.5031 78.3494 33.1135 78.7597 33.5138C79.1701 33.9142 79.7005 34.1143 80.351 34.1143ZM86.569 28.3048H85.308V27.254H86.569V25.6928C86.569 25.1524 86.7091 24.717 86.9893 24.3868C87.2695 24.0565 87.6948 23.8914 88.2653 23.8914H89.4362V24.9422H87.7699V27.254H89.4362V28.3048H87.7699V35H86.569V28.3048ZM98.3012 35.1801C97.7708 35.1801 97.2905 35.0851 96.8601 34.8949C96.4398 34.7048 96.0745 34.4346 95.7643 34.0843C95.464 33.724 95.2289 33.2987 95.0587 32.8083C94.8986 32.3079 94.8185 31.7475 94.8185 31.127C94.8185 30.5165 94.8986 29.9611 95.0587 29.4607C95.2289 28.9603 95.464 28.535 95.7643 28.1847C96.0745 27.8244 96.4398 27.5492 96.8601 27.3591C97.2905 27.1689 97.7708 27.0739 98.3012 27.0739C98.8216 27.0739 99.287 27.1689 99.6973 27.3591C100.108 27.5492 100.458 27.8144 100.748 28.1547C101.038 28.485 101.259 28.8803 101.409 29.3406C101.569 29.801 101.649 30.3064 101.649 30.8568V31.4272H96.0795V31.7875C96.0795 32.1178 96.1296 32.428 96.2296 32.7182C96.3397 32.9985 96.4898 33.2436 96.68 33.4538C96.8801 33.664 97.1203 33.8291 97.4005 33.9492C97.6908 34.0693 98.016 34.1293 98.3763 34.1293C98.8667 34.1293 99.292 34.0142 99.6523 33.7841C100.023 33.5539 100.308 33.2236 100.508 32.7933L101.364 33.4088C101.113 33.9392 100.723 34.3695 100.193 34.6998C99.6623 35.02 99.0318 35.1801 98.3012 35.1801ZM98.3012 28.0796C97.971 28.0796 97.6708 28.1397 97.4005 28.2598C97.1303 28.3699 96.8952 28.53 96.695 28.7402C96.5049 28.9503 96.3547 29.2005 96.2446 29.4907C96.1346 29.771 96.0795 30.0812 96.0795 30.4215V30.5265H100.358V30.3614C100.358 29.6709 100.168 29.1204 99.7874 28.7101C99.4171 28.2898 98.9217 28.0796 98.3012 28.0796ZM105.635 35L102.918 27.254H104.118L105.47 31.097L106.31 33.739H106.385L107.226 31.097L108.607 27.254H109.763L107.031 35H105.635ZM114.52 35.1801C113.989 35.1801 113.509 35.0851 113.079 34.8949C112.658 34.7048 112.293 34.4346 111.983 34.0843C111.682 33.724 111.447 33.2987 111.277 32.8083C111.117 32.3079 111.037 31.7475 111.037 31.127C111.037 30.5165 111.117 29.9611 111.277 29.4607C111.447 28.9603 111.682 28.535 111.983 28.1847C112.293 27.8244 112.658 27.5492 113.079 27.3591C113.509 27.1689 113.989 27.0739 114.52 27.0739C115.04 27.0739 115.505 27.1689 115.916 27.3591C116.326 27.5492 116.676 27.8144 116.967 28.1547C117.257 28.485 117.477 28.8803 117.627 29.3406C117.787 29.801 117.867 30.3064 117.867 30.8568V31.4272H112.298V31.7875C112.298 32.1178 112.348 32.428 112.448 32.7182C112.558 32.9985 112.708 33.2436 112.898 33.4538C113.099 33.664 113.339 33.8291 113.619 33.9492C113.909 34.0693 114.234 34.1293 114.595 34.1293C115.085 34.1293 115.51 34.0142 115.871 33.7841C116.241 33.5539 116.526 33.2236 116.726 32.7933L117.582 33.4088C117.332 33.9392 116.942 34.3695 116.411 34.6998C115.881 35.02 115.25 35.1801 114.52 35.1801ZM114.52 28.0796C114.189 28.0796 113.889 28.1397 113.619 28.2598C113.349 28.3699 113.114 28.53 112.913 28.7402C112.723 28.9503 112.573 29.2005 112.463 29.4907C112.353 29.771 112.298 30.0812 112.298 30.4215V30.5265H116.576V30.3614C116.576 29.6709 116.386 29.1204 116.006 28.7101C115.636 28.2898 115.14 28.0796 114.52 28.0796ZM120.259 35V27.254H121.46V28.515H121.52C121.71 28.0746 121.975 27.7244 122.316 27.4642C122.666 27.204 123.131 27.0739 123.712 27.0739C124.512 27.0739 125.143 27.3341 125.603 27.8545C126.074 28.3649 126.309 29.0904 126.309 30.0312V35H125.108V30.2413C125.108 28.8502 124.522 28.1547 123.351 28.1547C123.111 28.1547 122.876 28.1847 122.646 28.2448C122.426 28.3048 122.226 28.3949 122.045 28.515C121.865 28.6351 121.72 28.7902 121.61 28.9803C121.51 29.1605 121.46 29.3756 121.46 29.6258V35H120.259ZM130.915 35C130.495 35 130.175 34.8849 129.954 34.6547C129.744 34.4145 129.639 34.1043 129.639 33.724V28.3048H128.363V27.254H129.084C129.344 27.254 129.519 27.204 129.609 27.1039C129.709 26.9938 129.759 26.8087 129.759 26.5485V25.1073H130.84V27.254H132.536V28.3048H130.84V33.9492H132.416V35H130.915ZM137.206 35.1801C136.486 35.1801 135.88 35.045 135.39 34.7748C134.91 34.4946 134.494 34.1243 134.144 33.664L135 32.9734C135.3 33.3537 135.635 33.649 136.005 33.8591C136.376 34.0593 136.806 34.1593 137.296 34.1593C137.807 34.1593 138.202 34.0493 138.482 33.8291C138.773 33.6089 138.918 33.2987 138.918 32.8984C138.918 32.5981 138.818 32.3429 138.617 32.1328C138.427 31.9126 138.077 31.7625 137.567 31.6824L136.951 31.5924C136.591 31.5423 136.261 31.4673 135.96 31.3672C135.66 31.2571 135.395 31.117 135.165 30.9469C134.945 30.7667 134.769 30.5466 134.639 30.2864C134.519 30.0261 134.459 29.7159 134.459 29.3556C134.459 28.9753 134.529 28.6451 134.669 28.3649C134.809 28.0746 135 27.8345 135.24 27.6443C135.49 27.4542 135.785 27.3141 136.125 27.224C136.466 27.1239 136.831 27.0739 137.221 27.0739C137.852 27.0739 138.377 27.1839 138.798 27.4041C139.228 27.6243 139.603 27.9295 139.923 28.3198L139.128 29.0404C138.958 28.8002 138.707 28.585 138.377 28.3949C138.047 28.1947 137.632 28.0947 137.131 28.0947C136.631 28.0947 136.251 28.2047 135.99 28.4249C135.74 28.6351 135.615 28.9253 135.615 29.2956C135.615 29.6759 135.74 29.9511 135.99 30.1212C136.251 30.2914 136.621 30.4165 137.101 30.4965L137.702 30.5866C138.562 30.7167 139.173 30.9669 139.533 31.3372C139.893 31.6974 140.074 32.1728 140.074 32.7633C140.074 33.5138 139.818 34.1043 139.308 34.5346C138.798 34.965 138.097 35.1801 137.206 35.1801ZM149.45 35.1801C148.91 35.1801 148.424 35.0851 147.994 34.8949C147.564 34.7048 147.199 34.4346 146.898 34.0843C146.608 33.734 146.383 33.3087 146.223 32.8083C146.073 32.3079 145.998 31.7475 145.998 31.127C145.998 30.5065 146.073 29.9461 146.223 29.4457C146.383 28.9453 146.608 28.52 146.898 28.1697C147.199 27.8194 147.564 27.5492 147.994 27.3591C148.424 27.1689 148.91 27.0739 149.45 27.0739C150.221 27.0739 150.836 27.244 151.297 27.5843C151.767 27.9145 152.117 28.3499 152.348 28.8903L151.342 29.4007C151.202 29.0004 150.971 28.6901 150.651 28.4699C150.331 28.2498 149.931 28.1397 149.45 28.1397C149.09 28.1397 148.775 28.1997 148.505 28.3198C148.234 28.4299 148.009 28.59 147.829 28.8002C147.649 29.0004 147.514 29.2455 147.424 29.5358C147.334 29.816 147.289 30.1262 147.289 30.4665V31.7875C147.289 32.468 147.469 33.0285 147.829 33.4688C148.199 33.8991 148.74 34.1143 149.45 34.1143C150.421 34.1143 151.122 33.664 151.552 32.7633L152.423 33.3487C152.172 33.9092 151.797 34.3545 151.297 34.6848C150.806 35.015 150.191 35.1801 149.45 35.1801ZM157.37 35.1801C156.85 35.1801 156.374 35.0851 155.944 34.8949C155.514 34.7048 155.143 34.4346 154.833 34.0843C154.533 33.724 154.298 33.2987 154.127 32.8083C153.957 32.3079 153.872 31.7475 153.872 31.127C153.872 30.5165 153.957 29.9611 154.127 29.4607C154.298 28.9603 154.533 28.535 154.833 28.1847C155.143 27.8244 155.514 27.5492 155.944 27.3591C156.374 27.1689 156.85 27.0739 157.37 27.0739C157.89 27.0739 158.361 27.1689 158.781 27.3591C159.211 27.5492 159.582 27.8244 159.892 28.1847C160.202 28.535 160.442 28.9603 160.612 29.4607C160.783 29.9611 160.868 30.5165 160.868 31.127C160.868 31.7475 160.783 32.3079 160.612 32.8083C160.442 33.2987 160.202 33.724 159.892 34.0843C159.582 34.4346 159.211 34.7048 158.781 34.8949C158.361 35.0851 157.89 35.1801 157.37 35.1801ZM157.37 34.1143C158.02 34.1143 158.551 33.9142 158.961 33.5138C159.372 33.1135 159.577 32.5031 159.577 31.6824V30.5716C159.577 29.7509 159.372 29.1405 158.961 28.7402C158.551 28.3398 158.02 28.1397 157.37 28.1397C156.719 28.1397 156.189 28.3398 155.779 28.7402C155.368 29.1405 155.163 29.7509 155.163 30.5716V31.6824C155.163 32.5031 155.368 33.1135 155.779 33.5138C156.189 33.9142 156.719 34.1143 157.37 34.1143ZM163.256 35V27.254H164.457V28.515H164.517C164.707 28.0746 164.972 27.7244 165.312 27.4642C165.662 27.204 166.128 27.0739 166.708 27.0739C167.509 27.0739 168.139 27.3341 168.6 27.8545C169.07 28.3649 169.305 29.0904 169.305 30.0312V35H168.104V30.2413C168.104 28.8502 167.519 28.1547 166.348 28.1547C166.108 28.1547 165.873 28.1847 165.642 28.2448C165.422 28.3048 165.222 28.3949 165.042 28.515C164.862 28.6351 164.717 28.7902 164.607 28.9803C164.507 29.1605 164.457 29.3756 164.457 29.6258V35H163.256ZM177.154 33.739H177.094C176.624 34.6998 175.868 35.1801 174.827 35.1801C174.347 35.1801 173.912 35.0851 173.521 34.8949C173.131 34.7048 172.796 34.4346 172.516 34.0843C172.245 33.734 172.035 33.3087 171.885 32.8083C171.745 32.3079 171.675 31.7475 171.675 31.127C171.675 30.5065 171.745 29.9461 171.885 29.4457C172.035 28.9453 172.245 28.52 172.516 28.1697C172.796 27.8194 173.131 27.5492 173.521 27.3591C173.912 27.1689 174.347 27.0739 174.827 27.0739C175.368 27.0739 175.828 27.194 176.208 27.4341C176.599 27.6643 176.894 28.0246 177.094 28.515H177.154V23.8914H178.355V35H177.154V33.739ZM175.158 34.0993C175.428 34.0993 175.683 34.0643 175.923 33.9942C176.173 33.9242 176.389 33.8241 176.569 33.694C176.749 33.5539 176.889 33.3888 176.989 33.1986C177.099 32.9985 177.154 32.7733 177.154 32.5231V29.6409C177.154 29.4307 177.099 29.2355 176.989 29.0554C176.889 28.8653 176.749 28.7051 176.569 28.575C176.389 28.4449 176.173 28.3448 175.923 28.2748C175.683 28.1947 175.428 28.1547 175.158 28.1547C174.477 28.1547 173.942 28.3699 173.551 28.8002C173.161 29.2205 172.966 29.776 172.966 30.4665V31.7875C172.966 32.478 173.161 33.0385 173.551 33.4688C173.942 33.8891 174.477 34.0993 175.158 34.0993ZM186.095 33.739H186.035C185.955 33.9192 185.855 34.0993 185.735 34.2794C185.624 34.4496 185.484 34.6047 185.314 34.7448C185.144 34.8749 184.939 34.98 184.699 35.06C184.459 35.1401 184.178 35.1801 183.858 35.1801C183.057 35.1801 182.422 34.9249 181.952 34.4145C181.481 33.8941 181.246 33.1636 181.246 32.2229V27.254H182.447V32.0127C182.447 33.4038 183.037 34.0993 184.218 34.0993C184.459 34.0993 184.689 34.0693 184.909 34.0092C185.139 33.9492 185.339 33.8591 185.509 33.739C185.69 33.6189 185.83 33.4688 185.93 33.2887C186.04 33.0985 186.095 32.8734 186.095 32.6132V27.254H187.296V35H186.095V33.739ZM193.148 35.1801C192.608 35.1801 192.122 35.0851 191.692 34.8949C191.262 34.7048 190.896 34.4346 190.596 34.0843C190.306 33.734 190.081 33.3087 189.921 32.8083C189.771 32.3079 189.696 31.7475 189.696 31.127C189.696 30.5065 189.771 29.9461 189.921 29.4457C190.081 28.9453 190.306 28.52 190.596 28.1697C190.896 27.8194 191.262 27.5492 191.692 27.3591C192.122 27.1689 192.608 27.0739 193.148 27.0739C193.919 27.0739 194.534 27.244 194.995 27.5843C195.465 27.9145 195.815 28.3499 196.045 28.8903L195.04 29.4007C194.9 29.0004 194.669 28.6901 194.349 28.4699C194.029 28.2498 193.629 28.1397 193.148 28.1397C192.788 28.1397 192.473 28.1997 192.202 28.3198C191.932 28.4299 191.707 28.59 191.527 28.8002C191.347 29.0004 191.212 29.2455 191.122 29.5358C191.032 29.816 190.987 30.1262 190.987 30.4665V31.7875C190.987 32.468 191.167 33.0285 191.527 33.4688C191.897 33.8991 192.438 34.1143 193.148 34.1143C194.119 34.1143 194.819 33.664 195.25 32.7633L196.12 33.3487C195.87 33.9092 195.495 34.3545 194.995 34.6848C194.504 35.015 193.889 35.1801 193.148 35.1801ZM199.94 35C199.52 35 199.199 34.8849 198.979 34.6547C198.769 34.4145 198.664 34.1043 198.664 33.724V28.3048H197.388V27.254H198.108C198.369 27.254 198.544 27.204 198.634 27.1039C198.734 26.9938 198.784 26.8087 198.784 26.5485V25.1073H199.865V27.254H201.561V28.3048H199.865V33.9492H201.441V35H199.94ZM206.758 35.1801C206.227 35.1801 205.747 35.0851 205.317 34.8949C204.896 34.7048 204.531 34.4346 204.221 34.0843C203.921 33.724 203.685 33.2987 203.515 32.8083C203.355 32.3079 203.275 31.7475 203.275 31.127C203.275 30.5165 203.355 29.9611 203.515 29.4607C203.685 28.9603 203.921 28.535 204.221 28.1847C204.531 27.8244 204.896 27.5492 205.317 27.3591C205.747 27.1689 206.227 27.0739 206.758 27.0739C207.278 27.0739 207.744 27.1689 208.154 27.3591C208.564 27.5492 208.915 27.8144 209.205 28.1547C209.495 28.485 209.715 28.8803 209.865 29.3406C210.025 29.801 210.105 30.3064 210.105 30.8568V31.4272H204.536V31.7875C204.536 32.1178 204.586 32.428 204.686 32.7182C204.796 32.9985 204.946 33.2436 205.137 33.4538C205.337 33.664 205.577 33.8291 205.857 33.9492C206.147 34.0693 206.473 34.1293 206.833 34.1293C207.323 34.1293 207.749 34.0142 208.109 33.7841C208.479 33.5539 208.764 33.2236 208.965 32.7933L209.82 33.4088C209.57 33.9392 209.18 34.3695 208.649 34.6998C208.119 35.02 207.488 35.1801 206.758 35.1801ZM206.758 28.0796C206.428 28.0796 206.127 28.1397 205.857 28.2598C205.587 28.3699 205.352 28.53 205.152 28.7402C204.961 28.9503 204.811 29.2005 204.701 29.4907C204.591 29.771 204.536 30.0812 204.536 30.4215V30.5265H208.814V30.3614C208.814 29.6709 208.624 29.1204 208.244 28.7101C207.874 28.2898 207.378 28.0796 206.758 28.0796ZM217.451 33.739H217.391C216.921 34.6998 216.165 35.1801 215.124 35.1801C214.644 35.1801 214.209 35.0851 213.818 34.8949C213.428 34.7048 213.093 34.4346 212.812 34.0843C212.542 33.734 212.332 33.3087 212.182 32.8083C212.042 32.3079 211.972 31.7475 211.972 31.127C211.972 30.5065 212.042 29.9461 212.182 29.4457C212.332 28.9453 212.542 28.52 212.812 28.1697C213.093 27.8194 213.428 27.5492 213.818 27.3591C214.209 27.1689 214.644 27.0739 215.124 27.0739C215.665 27.0739 216.125 27.194 216.505 27.4341C216.896 27.6643 217.191 28.0246 217.391 28.515H217.451V23.8914H218.652V35H217.451V33.739ZM215.454 34.0993C215.725 34.0993 215.98 34.0643 216.22 33.9942C216.47 33.9242 216.685 33.8241 216.866 33.694C217.046 33.5539 217.186 33.3888 217.286 33.1986C217.396 32.9985 217.451 32.7733 217.451 32.5231V29.6409C217.451 29.4307 217.396 29.2355 217.286 29.0554C217.186 28.8653 217.046 28.7051 216.866 28.575C216.685 28.4449 216.47 28.3448 216.22 28.2748C215.98 28.1947 215.725 28.1547 215.454 28.1547C214.774 28.1547 214.239 28.3699 213.848 28.8002C213.458 29.2205 213.263 29.776 213.263 30.4665V31.7875C213.263 32.478 213.458 33.0385 213.848 33.4688C214.239 33.8891 214.774 34.0993 215.454 34.0993Z" fill="#1F1F1F"/>
</svg>
