<svg width="553" height="48" viewBox="0 0 553 48" fill="none" xmlns="http://www.w3.org/2000/svg">
<path d="M4.28816 18.2064C5.47874 17.177 6.41509 16.3337 7.09719 15.6764C7.7917 15.0067 8.36839 14.3122 8.82726 13.5929C9.28613 12.8736 9.51557 12.1543 9.51557 11.4349C9.51557 10.6908 9.33574 10.1079 8.97608 9.68627C8.62883 9.26461 8.07694 9.05378 7.32043 9.05378C6.58871 9.05378 6.01822 9.28941 5.60896 9.76069C5.2121 10.2196 5.00127 10.8397 4.97646 11.621H2.93014C2.96735 10.2072 3.38902 9.12819 4.19514 8.38407C5.01367 7.62755 6.04923 7.2493 7.30182 7.2493C8.65363 7.2493 9.7078 7.62135 10.4643 8.36547C11.2332 9.10958 11.6177 10.1017 11.6177 11.3419C11.6177 12.2349 11.3883 13.0968 10.9294 13.9277C10.4829 14.7463 9.94343 15.4842 9.31093 16.1415C8.69084 16.7864 7.89712 17.5367 6.92977 18.3924L6.09264 19.1365H11.9897V20.9038H2.94875V19.3598L4.28816 18.2064ZM23.4103 21.2573C22.443 21.2573 21.5686 21.0402 20.7873 20.6062C20.006 20.1597 19.3921 19.5396 18.9456 18.7459C18.4992 17.9398 18.2759 17.0096 18.2759 15.9554C18.2759 14.9137 18.5054 13.9897 18.9642 13.1836C19.4231 12.3775 20.0494 11.7574 20.8431 11.3233C21.6368 10.8893 22.5236 10.6722 23.5033 10.6722C24.4831 10.6722 25.3698 10.8893 26.1636 11.3233C26.9573 11.7574 27.5836 12.3775 28.0424 13.1836C28.5013 13.9897 28.7307 14.9137 28.7307 15.9554C28.7307 16.9972 28.4951 17.9212 28.0238 18.7273C27.5526 19.5334 26.9077 20.1597 26.0891 20.6062C25.283 21.0402 24.3901 21.2573 23.4103 21.2573ZM23.4103 19.4156C23.956 19.4156 24.4645 19.2854 24.9358 19.0249C25.4194 18.7645 25.8101 18.3738 26.1077 17.8529C26.4054 17.3321 26.5542 16.6996 26.5542 15.9554C26.5542 15.2113 26.4116 14.585 26.1263 14.0766C25.8411 13.5557 25.4628 13.165 24.9916 12.9046C24.5203 12.6441 24.0118 12.5139 23.4661 12.5139C22.9204 12.5139 22.412 12.6441 21.9407 12.9046C21.4818 13.165 21.116 13.5557 20.8431 14.0766C20.5703 14.585 20.4339 15.2113 20.4339 15.9554C20.4339 17.0592 20.7129 17.915 21.271 18.5226C21.8415 19.1179 22.5546 19.4156 23.4103 19.4156ZM35.1245 12.5697H33.227V21.0898H31.0876V12.5697H29.8785V10.8397H31.0876V10.1141C31.0876 8.93596 31.3977 8.08022 32.0178 7.54694C32.6503 7.00126 33.6362 6.72842 34.9756 6.72842V8.49569C34.3307 8.49569 33.8781 8.61971 33.6176 8.86775C33.3572 9.10338 33.227 9.51885 33.227 10.1141V10.8397H35.1245V12.5697ZM50.3007 9.35142H44.0687V13.0534C44.3291 12.7061 44.7136 12.4147 45.2221 12.1791C45.7429 11.9434 46.2948 11.8256 46.8777 11.8256C47.9195 11.8256 48.7628 12.0488 49.4077 12.4953C50.065 12.9418 50.5301 13.5061 50.8029 14.1882C51.0882 14.8703 51.2308 15.5896 51.2308 16.3461C51.2308 17.2638 51.051 18.0824 50.6913 18.8017C50.3441 19.5086 49.817 20.0667 49.1101 20.4759C48.4156 20.8852 47.5598 21.0898 46.5429 21.0898C45.1911 21.0898 44.1059 20.755 43.2874 20.0853C42.4688 19.4156 41.979 18.5288 41.8177 17.4251H43.8827C44.0191 18.008 44.3229 18.473 44.7942 18.8203C45.2655 19.1551 45.8546 19.3226 46.5615 19.3226C47.442 19.3226 48.0993 19.0559 48.5334 18.5226C48.9798 17.9894 49.2031 17.2825 49.2031 16.4019C49.2031 15.509 48.9798 14.8269 48.5334 14.3556C48.0869 13.8719 47.4296 13.6301 46.5615 13.6301C45.9538 13.6301 45.4391 13.7851 45.0174 14.0952C44.6082 14.3928 44.3105 14.8021 44.1245 15.3229H42.1154V7.49113H50.3007V9.35142ZM62.2704 21.2573C61.4643 21.2573 60.7388 21.1146 60.0939 20.8294C59.4614 20.5318 58.9591 20.1349 58.5871 19.6388C58.215 19.1303 58.0166 18.5661 57.9918 17.946H60.1869C60.2241 18.38 60.4288 18.7459 60.8008 19.0435C61.1853 19.3288 61.6628 19.4714 62.2332 19.4714C62.8285 19.4714 63.2874 19.3598 63.6099 19.1365C63.9447 18.9009 64.1121 18.6033 64.1121 18.2436C64.1121 17.8591 63.9261 17.5739 63.554 17.3879C63.1944 17.2018 62.6177 16.9972 61.824 16.774C61.0551 16.5631 60.4288 16.3585 59.9451 16.1601C59.4614 15.9616 59.0397 15.6578 58.6801 15.2485C58.3328 14.8393 58.1592 14.2998 58.1592 13.6301C58.1592 13.0844 58.3204 12.5883 58.6429 12.1419C58.9653 11.683 59.4242 11.3233 60.0195 11.0629C60.6272 10.8024 61.3217 10.6722 62.103 10.6722C63.2688 10.6722 64.2051 10.9699 64.9121 11.5652C65.6314 12.1481 66.0158 12.948 66.0654 13.9649H63.9447C63.9075 13.5061 63.7215 13.1402 63.3866 12.8674C63.0518 12.5945 62.5991 12.4581 62.0286 12.4581C61.4705 12.4581 61.0427 12.5635 60.745 12.7744C60.4474 12.9852 60.2985 13.2642 60.2985 13.6115C60.2985 13.8843 60.3978 14.1138 60.5962 14.2998C60.7946 14.4858 61.0365 14.6346 61.3217 14.7463C61.6069 14.8455 62.0286 14.9757 62.5867 15.1369C63.3308 15.3354 63.9385 15.54 64.4098 15.7508C64.8935 15.9492 65.3089 16.2469 65.6562 16.6438C66.0034 17.0406 66.1833 17.5677 66.1957 18.225C66.1957 18.8079 66.0344 19.3288 65.712 19.7876C65.3895 20.2465 64.9307 20.6062 64.3354 20.8666C63.7525 21.127 63.0642 21.2573 62.2704 21.2573ZM70.9613 12.5697V18.2436C70.9613 18.6281 71.0481 18.9071 71.2218 19.0807C71.4078 19.242 71.7179 19.3226 72.1519 19.3226H73.4541V21.0898H71.7799C70.8249 21.0898 70.0932 20.8666 69.5847 20.4201C69.0762 19.9737 68.822 19.2482 68.822 18.2436V12.5697H67.6128V10.8397H68.822V8.29106H70.9613V10.8397H73.4541V12.5697H70.9613ZM84.8032 15.7136C84.8032 16.0981 84.7784 16.4453 84.7288 16.7554H76.897C76.959 17.5739 77.2628 18.2312 77.8085 18.7273C78.3542 19.2234 79.0239 19.4714 79.8176 19.4714C80.9586 19.4714 81.7647 18.9939 82.236 18.039H84.5241C84.2141 18.9815 83.6498 19.7566 82.8313 20.3643C82.0252 20.9596 81.0206 21.2573 79.8176 21.2573C78.8379 21.2573 77.9573 21.0402 77.176 20.6062C76.4071 20.1597 75.7994 19.5396 75.3529 18.7459C74.9189 17.9398 74.7018 17.0096 74.7018 15.9554C74.7018 14.9013 74.9127 13.9773 75.3343 13.1836C75.7684 12.3775 76.3699 11.7574 77.1388 11.3233C77.9201 10.8893 78.8131 10.6722 79.8176 10.6722C80.785 10.6722 81.6469 10.8831 82.4034 11.3047C83.1599 11.7264 83.749 12.3217 84.1707 13.0906C84.5924 13.8471 84.8032 14.7215 84.8032 15.7136ZM82.5895 15.0439C82.577 14.2626 82.298 13.6363 81.7523 13.165C81.2066 12.6937 80.5307 12.4581 79.7246 12.4581C78.9929 12.4581 78.3666 12.6937 77.8457 13.165C77.3248 13.6239 77.0148 14.2502 76.9156 15.0439H82.5895ZM89.0109 12.3465C89.3706 11.8752 89.8605 11.4784 90.4806 11.1559C91.1007 10.8335 91.8014 10.6722 92.5827 10.6722C93.4756 10.6722 94.288 10.8955 95.0197 11.3419C95.7638 11.776 96.3467 12.3899 96.7683 13.1836C97.19 13.9773 97.4008 14.8889 97.4008 15.9182C97.4008 16.9476 97.19 17.8715 96.7683 18.6901C96.3467 19.4962 95.7638 20.1287 95.0197 20.5876C94.288 21.034 93.4756 21.2573 92.5827 21.2573C91.8014 21.2573 91.1069 21.1022 90.4992 20.7922C89.8915 20.4697 89.3954 20.0729 89.0109 19.6016V25.9638H86.8902V10.8397H89.0109V12.3465ZM95.2429 15.9182C95.2429 15.2113 95.0941 14.6036 94.7964 14.0952C94.5112 13.5743 94.1267 13.1836 93.6431 12.9232C93.1718 12.6503 92.6633 12.5139 92.1176 12.5139C91.5843 12.5139 91.0759 12.6503 90.5922 12.9232C90.1209 13.196 89.7364 13.5929 89.4388 14.1138C89.1536 14.6346 89.0109 15.2485 89.0109 15.9554C89.0109 16.6624 89.1536 17.2825 89.4388 17.8157C89.7364 18.3366 90.1209 18.7335 90.5922 19.0063C91.0759 19.2792 91.5843 19.4156 92.1176 19.4156C92.6633 19.4156 93.1718 19.2792 93.6431 19.0063C94.1267 18.7211 94.5112 18.3118 94.7964 17.7785C95.0941 17.2452 95.2429 16.6252 95.2429 15.9182ZM103.219 21.2573C102.412 21.2573 101.687 21.1146 101.042 20.8294C100.41 20.5318 99.9073 20.1349 99.5352 19.6388C99.1632 19.1303 98.9647 18.5661 98.9399 17.946H101.135C101.172 18.38 101.377 18.7459 101.749 19.0435C102.133 19.3288 102.611 19.4714 103.181 19.4714C103.777 19.4714 104.236 19.3598 104.558 19.1365C104.893 18.9009 105.06 18.6033 105.06 18.2436C105.06 17.8591 104.874 17.5739 104.502 17.3879C104.143 17.2018 103.566 16.9972 102.772 16.774C102.003 16.5631 101.377 16.3585 100.893 16.1601C100.41 15.9616 99.9879 15.6578 99.6282 15.2485C99.281 14.8393 99.1074 14.2998 99.1074 13.6301C99.1074 13.0844 99.2686 12.5883 99.591 12.1419C99.9135 11.683 100.372 11.3233 100.968 11.0629C101.575 10.8024 102.27 10.6722 103.051 10.6722C104.217 10.6722 105.153 10.9699 105.86 11.5652C106.58 12.1481 106.964 12.948 107.014 13.9649H104.893C104.856 13.5061 104.67 13.1402 104.335 12.8674C104 12.5945 103.547 12.4581 102.977 12.4581C102.419 12.4581 101.991 12.5635 101.693 12.7744C101.396 12.9852 101.247 13.2642 101.247 13.6115C101.247 13.8843 101.346 14.1138 101.544 14.2998C101.743 14.4858 101.985 14.6346 102.27 14.7463C102.555 14.8455 102.977 14.9757 103.535 15.1369C104.279 15.3354 104.887 15.54 105.358 15.7508C105.842 15.9492 106.257 16.2469 106.604 16.6438C106.952 17.0406 107.131 17.5677 107.144 18.225C107.144 18.8079 106.983 19.3288 106.66 19.7876C106.338 20.2465 105.879 20.6062 105.284 20.8666C104.701 21.127 104.012 21.2573 103.219 21.2573ZM113.561 15.9554C113.561 14.9013 113.772 13.9773 114.193 13.1836C114.627 12.3775 115.223 11.7574 115.979 11.3233C116.736 10.8893 117.604 10.6722 118.584 10.6722C119.824 10.6722 120.847 10.9699 121.653 11.5652C122.472 12.1481 123.023 12.9852 123.309 14.0766H121.021C120.835 13.5681 120.537 13.1712 120.128 12.886C119.718 12.6007 119.204 12.4581 118.584 12.4581C117.715 12.4581 117.021 12.7682 116.5 13.3882C115.992 13.9959 115.737 14.8517 115.737 15.9554C115.737 17.0592 115.992 17.9212 116.5 18.5412C117.021 19.1613 117.715 19.4714 118.584 19.4714C119.811 19.4714 120.624 18.9319 121.021 17.8529H123.309C123.011 18.8947 122.453 19.7256 121.634 20.3457C120.816 20.9534 119.799 21.2573 118.584 21.2573C117.604 21.2573 116.736 21.0402 115.979 20.6062C115.223 20.1597 114.627 19.5396 114.193 18.7459C113.772 17.9398 113.561 17.0096 113.561 15.9554ZM129.868 21.2573C128.901 21.2573 128.027 21.0402 127.245 20.6062C126.464 20.1597 125.85 19.5396 125.404 18.7459C124.957 17.9398 124.734 17.0096 124.734 15.9554C124.734 14.9137 124.963 13.9897 125.422 13.1836C125.881 12.3775 126.507 11.7574 127.301 11.3233C128.095 10.8893 128.982 10.6722 129.961 10.6722C130.941 10.6722 131.828 10.8893 132.621 11.3233C133.415 11.7574 134.041 12.3775 134.5 13.1836C134.959 13.9897 135.189 14.9137 135.189 15.9554C135.189 16.9972 134.953 17.9212 134.482 18.7273C134.01 19.5334 133.366 20.1597 132.547 20.6062C131.741 21.0402 130.848 21.2573 129.868 21.2573ZM129.868 19.4156C130.414 19.4156 130.922 19.2854 131.394 19.0249C131.877 18.7645 132.268 18.3738 132.566 17.8529C132.863 17.3321 133.012 16.6996 133.012 15.9554C133.012 15.2113 132.87 14.585 132.584 14.0766C132.299 13.5557 131.921 13.165 131.449 12.9046C130.978 12.6441 130.47 12.5139 129.924 12.5139C129.378 12.5139 128.87 12.6441 128.399 12.9046C127.94 13.165 127.574 13.5557 127.301 14.0766C127.028 14.585 126.892 15.2113 126.892 15.9554C126.892 17.0592 127.171 17.915 127.729 18.5226C128.299 19.1179 129.013 19.4156 129.868 19.4156ZM149.693 10.6722C150.499 10.6722 151.219 10.8397 151.851 11.1745C152.496 11.5094 152.998 12.0054 153.358 12.6627C153.73 13.32 153.916 14.1138 153.916 15.0439V21.0898H151.814V15.3602C151.814 14.4424 151.585 13.7417 151.126 13.258C150.667 12.762 150.041 12.5139 149.247 12.5139C148.453 12.5139 147.821 12.762 147.349 13.258C146.89 13.7417 146.661 14.4424 146.661 15.3602V21.0898H144.559V15.3602C144.559 14.4424 144.329 13.7417 143.871 13.258C143.412 12.762 142.785 12.5139 141.992 12.5139C141.198 12.5139 140.565 12.762 140.094 13.258C139.635 13.7417 139.406 14.4424 139.406 15.3602V21.0898H137.285V10.8397H139.406V12.0116C139.753 11.59 140.193 11.2613 140.727 11.0257C141.26 10.79 141.83 10.6722 142.438 10.6722C143.257 10.6722 143.988 10.8459 144.633 11.1931C145.278 11.5404 145.774 12.0426 146.121 12.6999C146.432 12.0798 146.915 11.59 147.573 11.2303C148.23 10.8583 148.937 10.6722 149.693 10.6722ZM158.735 12.3465C159.095 11.8752 159.585 11.4784 160.205 11.1559C160.825 10.8335 161.526 10.6722 162.307 10.6722C163.2 10.6722 164.012 10.8955 164.744 11.3419C165.488 11.776 166.071 12.3899 166.493 13.1836C166.914 13.9773 167.125 14.8889 167.125 15.9182C167.125 16.9476 166.914 17.8715 166.493 18.6901C166.071 19.4962 165.488 20.1287 164.744 20.5876C164.012 21.034 163.2 21.2573 162.307 21.2573C161.526 21.2573 160.831 21.1022 160.224 20.7922C159.616 20.4697 159.12 20.0729 158.735 19.6016V25.9638H156.615V10.8397H158.735V12.3465ZM164.967 15.9182C164.967 15.2113 164.819 14.6036 164.521 14.0952C164.236 13.5743 163.851 13.1836 163.368 12.9232C162.896 12.6503 162.388 12.5139 161.842 12.5139C161.309 12.5139 160.8 12.6503 160.317 12.9232C159.845 13.196 159.461 13.5929 159.163 14.1138C158.878 14.6346 158.735 15.2485 158.735 15.9554C158.735 16.6624 158.878 17.2825 159.163 17.8157C159.461 18.3366 159.845 18.7335 160.317 19.0063C160.8 19.2792 161.309 19.4156 161.842 19.4156C162.388 19.4156 162.896 19.2792 163.368 19.0063C163.851 18.7211 164.236 18.3118 164.521 17.7785C164.819 17.2452 164.967 16.6252 164.967 15.9182ZM171.343 7.32371V21.0898H169.223V7.32371H171.343ZM183.522 15.7136C183.522 16.0981 183.497 16.4453 183.448 16.7554H175.616C175.678 17.5739 175.982 18.2312 176.527 18.7273C177.073 19.2234 177.743 19.4714 178.536 19.4714C179.677 19.4714 180.484 18.9939 180.955 18.039H183.243C182.933 18.9815 182.369 19.7566 181.55 20.3643C180.744 20.9596 179.739 21.2573 178.536 21.2573C177.557 21.2573 176.676 21.0402 175.895 20.6062C175.126 20.1597 174.518 19.5396 174.072 18.7459C173.638 17.9398 173.421 17.0096 173.421 15.9554C173.421 14.9013 173.631 13.9773 174.053 13.1836C174.487 12.3775 175.089 11.7574 175.858 11.3233C176.639 10.8893 177.532 10.6722 178.536 10.6722C179.504 10.6722 180.366 10.8831 181.122 11.3047C181.879 11.7264 182.468 12.3217 182.89 13.0906C183.311 13.8471 183.522 14.7215 183.522 15.7136ZM181.308 15.0439C181.296 14.2626 181.017 13.6363 180.471 13.165C179.925 12.6937 179.25 12.4581 178.443 12.4581C177.712 12.4581 177.085 12.6937 176.565 13.165C176.044 13.6239 175.734 14.2502 175.634 15.0439H181.308ZM188.083 12.5697V18.2436C188.083 18.6281 188.17 18.9071 188.344 19.0807C188.53 19.242 188.84 19.3226 189.274 19.3226H190.576V21.0898H188.902C187.947 21.0898 187.215 20.8666 186.707 20.4201C186.198 19.9737 185.944 19.2482 185.944 18.2436V12.5697H184.735V10.8397H185.944V8.29106H188.083V10.8397H190.576V12.5697H188.083ZM201.925 15.7136C201.925 16.0981 201.9 16.4453 201.851 16.7554H194.019C194.081 17.5739 194.385 18.2312 194.93 18.7273C195.476 19.2234 196.146 19.4714 196.939 19.4714C198.08 19.4714 198.887 18.9939 199.358 18.039H201.646C201.336 18.9815 200.772 19.7566 199.953 20.3643C199.147 20.9596 198.142 21.2573 196.939 21.2573C195.96 21.2573 195.079 21.0402 194.298 20.6062C193.529 20.1597 192.921 19.5396 192.475 18.7459C192.041 17.9398 191.824 17.0096 191.824 15.9554C191.824 14.9013 192.035 13.9773 192.456 13.1836C192.89 12.3775 193.492 11.7574 194.261 11.3233C195.042 10.8893 195.935 10.6722 196.939 10.6722C197.907 10.6722 198.769 10.8831 199.525 11.3047C200.282 11.7264 200.871 12.3217 201.293 13.0906C201.714 13.8471 201.925 14.7215 201.925 15.7136ZM199.711 15.0439C199.699 14.2626 199.42 13.6363 198.874 13.165C198.329 12.6937 197.653 12.4581 196.846 12.4581C196.115 12.4581 195.488 12.6937 194.968 13.165C194.447 13.6239 194.137 14.2502 194.037 15.0439H199.711ZM203.305 15.9182C203.305 14.8889 203.516 13.9773 203.938 13.1836C204.372 12.3899 204.955 11.776 205.686 11.3419C206.43 10.8955 207.255 10.6722 208.161 10.6722C208.83 10.6722 209.488 10.8211 210.132 11.1187C210.79 11.4039 211.311 11.7884 211.695 12.2721V7.32371H213.834V21.0898H211.695V19.5458C211.348 20.0419 210.864 20.4511 210.244 20.7736C209.636 21.096 208.936 21.2573 208.142 21.2573C207.249 21.2573 206.43 21.034 205.686 20.5876C204.955 20.1287 204.372 19.4962 203.938 18.6901C203.516 17.8715 203.305 16.9476 203.305 15.9182ZM211.695 15.9554C211.695 15.2485 211.546 14.6346 211.249 14.1138C210.963 13.5929 210.585 13.196 210.114 12.9232C209.643 12.6503 209.134 12.5139 208.588 12.5139C208.043 12.5139 207.534 12.6503 207.063 12.9232C206.592 13.1836 206.207 13.5743 205.91 14.0952C205.624 14.6036 205.482 15.2113 205.482 15.9182C205.482 16.6252 205.624 17.2452 205.91 17.7785C206.207 18.3118 206.592 18.7211 207.063 19.0063C207.547 19.2792 208.055 19.4156 208.588 19.4156C209.134 19.4156 209.643 19.2792 210.114 19.0063C210.585 18.7335 210.963 18.3366 211.249 17.8157C211.546 17.2825 211.695 16.6624 211.695 15.9554Z" fill="#747474"/>
<rect y="38.7148" width="89" height="9" rx="2.86261" fill="#3AA959"/>
<rect x="112.731" y="38.7148" width="90" height="9" rx="2.86261" fill="#3AA959"/>
<rect x="226.463" y="38.7148" width="93" height="9" rx="2.86261" fill="#3AA959" fill-opacity="0.25"/>
<rect x="343.194" y="38.7148" width="93" height="9" rx="2.86261" fill="#3AA959" fill-opacity="0.25"/>
<rect x="459.925" y="38.7148" width="93" height="9" rx="2.86261" fill="#3AA959" fill-opacity="0.25"/>
</svg>
