<svg width="475" height="271" viewBox="0 0 475 271" fill="none" xmlns="http://www.w3.org/2000/svg">
<rect x="1.10339" y="0.692134" width="473.187" height="268.92" rx="4.21651" fill="white" stroke="#E5E5E5" stroke-width="0.937003"/>
<path d="M28.5666 247.328V251.404C28.5666 251.858 28.4268 252.222 28.1472 252.496C27.8675 252.766 27.4982 252.9 27.0391 252.9C26.5748 252.9 26.2029 252.763 25.9232 252.489C25.6436 252.209 25.5037 251.829 25.5037 251.349H26.224C26.2292 251.618 26.2978 251.837 26.4297 252.006C26.5669 252.175 26.7701 252.259 27.0391 252.259C27.3082 252.259 27.5087 252.18 27.6406 252.022C27.7726 251.858 27.8385 251.652 27.8385 251.404V247.328H28.5666ZM29.7164 250.66C29.7164 250.217 29.8061 249.829 29.9855 249.497C30.1649 249.159 30.4102 248.898 30.7215 248.713C31.0381 248.529 31.389 248.436 31.7741 248.436C32.154 248.436 32.4838 248.518 32.7634 248.682C33.0431 248.845 33.2515 249.051 33.3887 249.299V248.508H34.1168V252.845H33.3887V252.037C33.2462 252.291 33.0325 252.502 32.7476 252.671C32.468 252.834 32.1408 252.916 31.7662 252.916C31.3811 252.916 31.0328 252.821 30.7215 252.631C30.4102 252.441 30.1649 252.175 29.9855 251.832C29.8061 251.489 29.7164 251.098 29.7164 250.66ZM33.3887 250.668C33.3887 250.341 33.3227 250.056 33.1908 249.813C33.0589 249.571 32.8795 249.386 32.6526 249.259C32.431 249.128 32.1857 249.062 31.9166 249.062C31.6475 249.062 31.4022 249.125 31.1806 249.252C30.959 249.378 30.7822 249.563 30.6503 249.806C30.5184 250.048 30.4524 250.333 30.4524 250.66C30.4524 250.993 30.5184 251.283 30.6503 251.531C30.7822 251.774 30.959 251.961 31.1806 252.093C31.4022 252.219 31.6475 252.283 31.9166 252.283C32.1857 252.283 32.431 252.219 32.6526 252.093C32.8795 251.961 33.0589 251.774 33.1908 251.531C33.3227 251.283 33.3887 250.995 33.3887 250.668ZM37.4471 248.428C37.9747 248.428 38.4021 248.589 38.7292 248.911C39.0563 249.228 39.2199 249.687 39.2199 250.288V252.845H38.5076V250.391C38.5076 249.959 38.3994 249.629 38.1831 249.402C37.9668 249.17 37.6713 249.054 37.2967 249.054C36.9168 249.054 36.6134 249.172 36.3865 249.41C36.1649 249.647 36.0541 249.993 36.0541 250.447V252.845H35.3339V248.508H36.0541V249.125C36.1966 248.903 36.3892 248.732 36.6319 248.611C36.8799 248.489 37.1516 248.428 37.4471 248.428ZM44.2428 248.508V252.845H43.5226V252.204C43.3854 252.425 43.1928 252.599 42.9448 252.726C42.7021 252.847 42.433 252.908 42.1375 252.908C41.7999 252.908 41.4965 252.839 41.2274 252.702C40.9583 252.56 40.7446 252.349 40.5863 252.069C40.4333 251.789 40.3568 251.449 40.3568 251.048V248.508H41.0691V250.953C41.0691 251.381 41.1773 251.71 41.3936 251.942C41.6099 252.169 41.9054 252.283 42.28 252.283C42.6652 252.283 42.9686 252.164 43.1902 251.927C43.4118 251.689 43.5226 251.344 43.5226 250.89V248.508H44.2428ZM45.1897 250.66C45.1897 250.217 45.2794 249.829 45.4588 249.497C45.6382 249.159 45.8836 248.898 46.1949 248.713C46.5114 248.529 46.8623 248.436 47.2475 248.436C47.6274 248.436 47.9571 248.518 48.2368 248.682C48.5164 248.845 48.7248 249.051 48.862 249.299V248.508H49.5902V252.845H48.862V252.037C48.7196 252.291 48.5059 252.502 48.221 252.671C47.9413 252.834 47.6142 252.916 47.2396 252.916C46.8544 252.916 46.5062 252.821 46.1949 252.631C45.8836 252.441 45.6382 252.175 45.4588 251.832C45.2794 251.489 45.1897 251.098 45.1897 250.66ZM48.862 250.668C48.862 250.341 48.7961 250.056 48.6642 249.813C48.5323 249.571 48.3529 249.386 48.126 249.259C47.9044 249.128 47.659 249.062 47.3899 249.062C47.1208 249.062 46.8755 249.125 46.6539 249.252C46.4323 249.378 46.2555 249.563 46.1236 249.806C45.9917 250.048 45.9258 250.333 45.9258 250.66C45.9258 250.993 45.9917 251.283 46.1236 251.531C46.2555 251.774 46.4323 251.961 46.6539 252.093C46.8755 252.219 47.1208 252.283 47.3899 252.283C47.659 252.283 47.9044 252.219 48.126 252.093C48.3529 251.961 48.5323 251.774 48.6642 251.531C48.7961 251.283 48.862 250.995 48.862 250.668ZM51.5275 249.212C51.6541 248.964 51.8335 248.771 52.0656 248.634C52.3031 248.497 52.5906 248.428 52.9283 248.428V249.172H52.7384C51.9311 249.172 51.5275 249.61 51.5275 250.486V252.845H50.8072V248.508H51.5275V249.212ZM57.4953 248.508L54.8835 254.887H54.1396L54.9944 252.797L53.2453 248.508H54.0446L55.4059 252.022L56.7514 248.508H57.4953Z" fill="#92959E"/>
<path d="M109.132 247.328V247.914H106.734V249.774H108.681V250.36H106.734V252.845H106.013V247.328H109.132ZM113.959 250.51C113.959 250.647 113.951 250.792 113.935 250.945H110.468C110.495 251.373 110.64 251.708 110.904 251.95C111.173 252.188 111.497 252.307 111.877 252.307C112.189 252.307 112.447 252.235 112.653 252.093C112.864 251.945 113.012 251.75 113.096 251.507H113.872C113.756 251.924 113.523 252.264 113.175 252.528C112.827 252.787 112.394 252.916 111.877 252.916C111.466 252.916 111.096 252.824 110.769 252.639C110.447 252.454 110.194 252.193 110.009 251.855C109.825 251.512 109.732 251.117 109.732 250.668C109.732 250.22 109.822 249.827 110.002 249.489C110.181 249.151 110.432 248.893 110.753 248.713C111.081 248.529 111.455 248.436 111.877 248.436C112.289 248.436 112.653 248.526 112.969 248.705C113.286 248.885 113.529 249.133 113.698 249.449C113.872 249.761 113.959 250.114 113.959 250.51ZM113.215 250.36C113.215 250.085 113.154 249.85 113.033 249.655C112.911 249.455 112.745 249.304 112.534 249.204C112.328 249.099 112.099 249.046 111.846 249.046C111.482 249.046 111.17 249.162 110.912 249.394C110.658 249.626 110.513 249.948 110.476 250.36H113.215ZM115.63 249.315C115.777 249.056 115.994 248.845 116.279 248.682C116.564 248.518 116.888 248.436 117.252 248.436C117.643 248.436 117.993 248.529 118.305 248.713C118.616 248.898 118.861 249.159 119.041 249.497C119.22 249.829 119.31 250.217 119.31 250.66C119.31 251.098 119.22 251.489 119.041 251.832C118.861 252.175 118.613 252.441 118.297 252.631C117.985 252.821 117.637 252.916 117.252 252.916C116.877 252.916 116.548 252.834 116.263 252.671C115.983 252.507 115.772 252.299 115.63 252.045V252.845H114.909V246.988H115.63V249.315ZM118.574 250.66C118.574 250.333 118.508 250.048 118.376 249.806C118.244 249.563 118.065 249.378 117.838 249.252C117.616 249.125 117.371 249.062 117.102 249.062C116.838 249.062 116.593 249.128 116.366 249.259C116.144 249.386 115.965 249.573 115.827 249.821C115.696 250.064 115.63 250.346 115.63 250.668C115.63 250.995 115.696 251.283 115.827 251.531C115.965 251.774 116.144 251.961 116.366 252.093C116.593 252.219 116.838 252.283 117.102 252.283C117.371 252.283 117.616 252.219 117.838 252.093C118.065 251.961 118.244 251.774 118.376 251.531C118.508 251.283 118.574 250.993 118.574 250.66ZM120.978 249.212C121.105 248.964 121.284 248.771 121.516 248.634C121.754 248.497 122.041 248.428 122.379 248.428V249.172H122.189C121.382 249.172 120.978 249.61 120.978 250.486V252.845H120.258V248.508H120.978V249.212ZM127.057 248.508V252.845H126.336V252.204C126.199 252.425 126.007 252.599 125.759 252.726C125.516 252.847 125.247 252.908 124.951 252.908C124.614 252.908 124.31 252.839 124.041 252.702C123.772 252.56 123.558 252.349 123.4 252.069C123.247 251.789 123.171 251.449 123.171 251.048V248.508H123.883V250.953C123.883 251.381 123.991 251.71 124.207 251.942C124.424 252.169 124.719 252.283 125.094 252.283C125.479 252.283 125.782 252.164 126.004 251.927C126.226 251.689 126.336 251.344 126.336 250.89V248.508H127.057ZM128.004 250.66C128.004 250.217 128.093 249.829 128.273 249.497C128.452 249.159 128.697 248.898 129.009 248.713C129.325 248.529 129.676 248.436 130.061 248.436C130.441 248.436 130.771 248.518 131.051 248.682C131.33 248.845 131.539 249.051 131.676 249.299V248.508H132.404V252.845H131.676V252.037C131.533 252.291 131.32 252.502 131.035 252.671C130.755 252.834 130.428 252.916 130.053 252.916C129.668 252.916 129.32 252.821 129.009 252.631C128.697 252.441 128.452 252.175 128.273 251.832C128.093 251.489 128.004 251.098 128.004 250.66ZM131.676 250.668C131.676 250.341 131.61 250.056 131.478 249.813C131.346 249.571 131.167 249.386 130.94 249.259C130.718 249.128 130.473 249.062 130.204 249.062C129.935 249.062 129.689 249.125 129.468 249.252C129.246 249.378 129.069 249.563 128.938 249.806C128.806 250.048 128.74 250.333 128.74 250.66C128.74 250.993 128.806 251.283 128.938 251.531C129.069 251.774 129.246 251.961 129.468 252.093C129.689 252.219 129.935 252.283 130.204 252.283C130.473 252.283 130.718 252.219 130.94 252.093C131.167 251.961 131.346 251.774 131.478 251.531C131.61 251.283 131.676 250.995 131.676 250.668ZM134.341 249.212C134.468 248.964 134.647 248.771 134.88 248.634C135.117 248.497 135.405 248.428 135.742 248.428V249.172H135.552C134.745 249.172 134.341 249.61 134.341 250.486V252.845H133.621V248.508H134.341V249.212ZM140.309 248.508L137.697 254.887H136.953L137.808 252.797L136.059 248.508H136.859L138.22 252.022L139.565 248.508H140.309Z" fill="#92959E"/>
<path d="M196.739 247.368V252.845H196.019V248.761L194.198 252.845H193.692L191.863 248.753V252.845H191.143V247.368H191.919L193.945 251.895L195.971 247.368H196.739ZM197.691 250.66C197.691 250.217 197.781 249.829 197.96 249.497C198.14 249.159 198.385 248.898 198.696 248.713C199.013 248.529 199.364 248.436 199.749 248.436C200.129 248.436 200.458 248.518 200.738 248.682C201.018 248.845 201.226 249.051 201.363 249.299V248.508H202.091V252.845H201.363V252.037C201.221 252.291 201.007 252.502 200.722 252.671C200.443 252.834 200.116 252.916 199.741 252.916C199.356 252.916 199.007 252.821 198.696 252.631C198.385 252.441 198.14 252.175 197.96 251.832C197.781 251.489 197.691 251.098 197.691 250.66ZM201.363 250.668C201.363 250.341 201.297 250.056 201.165 249.813C201.034 249.571 200.854 249.386 200.627 249.259C200.406 249.128 200.16 249.062 199.891 249.062C199.622 249.062 199.377 249.125 199.155 249.252C198.934 249.378 198.757 249.563 198.625 249.806C198.493 250.048 198.427 250.333 198.427 250.66C198.427 250.993 198.493 251.283 198.625 251.531C198.757 251.774 198.934 251.961 199.155 252.093C199.377 252.219 199.622 252.283 199.891 252.283C200.16 252.283 200.406 252.219 200.627 252.093C200.854 251.961 201.034 251.774 201.165 251.531C201.297 251.283 201.363 250.995 201.363 250.668ZM204.029 249.212C204.155 248.964 204.335 248.771 204.567 248.634C204.804 248.497 205.092 248.428 205.43 248.428V249.172H205.24C204.432 249.172 204.029 249.61 204.029 250.486V252.845H203.309V248.508H204.029V249.212ZM205.992 250.668C205.992 250.22 206.082 249.829 206.261 249.497C206.44 249.159 206.688 248.898 207.005 248.713C207.327 248.529 207.694 248.436 208.105 248.436C208.638 248.436 209.076 248.566 209.419 248.824C209.767 249.083 209.997 249.442 210.107 249.901H209.332C209.258 249.637 209.113 249.428 208.897 249.275C208.685 249.122 208.422 249.046 208.105 249.046C207.694 249.046 207.361 249.188 207.108 249.473C206.855 249.753 206.728 250.151 206.728 250.668C206.728 251.191 206.855 251.594 207.108 251.879C207.361 252.164 207.694 252.307 208.105 252.307C208.422 252.307 208.685 252.233 208.897 252.085C209.108 251.937 209.253 251.726 209.332 251.452H210.107C209.991 251.895 209.759 252.251 209.411 252.52C209.063 252.784 208.627 252.916 208.105 252.916C207.694 252.916 207.327 252.824 207.005 252.639C206.688 252.454 206.44 252.193 206.261 251.855C206.082 251.518 205.992 251.122 205.992 250.668ZM213.221 248.428C213.548 248.428 213.844 248.5 214.108 248.642C214.371 248.779 214.577 248.988 214.725 249.267C214.878 249.547 214.954 249.887 214.954 250.288V252.845H214.242V250.391C214.242 249.959 214.134 249.629 213.918 249.402C213.701 249.17 213.406 249.054 213.031 249.054C212.651 249.054 212.348 249.172 212.121 249.41C211.899 249.647 211.789 249.993 211.789 250.447V252.845H211.068V246.988H211.789V249.125C211.931 248.903 212.126 248.732 212.374 248.611C212.628 248.489 212.91 248.428 213.221 248.428Z" fill="#92959E"/>
<path d="M279.652 251.618H277.246L276.803 252.845H276.043L278.038 247.36H278.869L280.855 252.845H280.096L279.652 251.618ZM279.447 251.032L278.449 248.246L277.452 251.032H279.447ZM282.445 249.307C282.587 249.059 282.798 248.853 283.078 248.69C283.363 248.521 283.693 248.436 284.067 248.436C284.453 248.436 284.801 248.529 285.112 248.713C285.429 248.898 285.677 249.159 285.856 249.497C286.035 249.829 286.125 250.217 286.125 250.66C286.125 251.098 286.035 251.489 285.856 251.832C285.677 252.175 285.429 252.441 285.112 252.631C284.801 252.821 284.453 252.916 284.067 252.916C283.698 252.916 283.371 252.834 283.086 252.671C282.806 252.502 282.593 252.293 282.445 252.045V254.902H281.725V248.508H282.445V249.307ZM285.389 250.66C285.389 250.333 285.323 250.048 285.191 249.806C285.059 249.563 284.88 249.378 284.653 249.252C284.431 249.125 284.186 249.062 283.917 249.062C283.653 249.062 283.408 249.128 283.181 249.259C282.959 249.386 282.78 249.573 282.643 249.821C282.511 250.064 282.445 250.346 282.445 250.668C282.445 250.995 282.511 251.283 282.643 251.531C282.78 251.774 282.959 251.961 283.181 252.093C283.408 252.219 283.653 252.283 283.917 252.283C284.186 252.283 284.431 252.219 284.653 252.093C284.88 251.961 285.059 251.774 285.191 251.531C285.323 251.283 285.389 250.993 285.389 250.66ZM287.793 249.212C287.92 248.964 288.099 248.771 288.332 248.634C288.569 248.497 288.856 248.428 289.194 248.428V249.172H289.004C288.197 249.172 287.793 249.61 287.793 250.486V252.845H287.073V248.508H287.793V249.212ZM290.398 247.803C290.26 247.803 290.144 247.756 290.049 247.661C289.954 247.566 289.907 247.45 289.907 247.313C289.907 247.175 289.954 247.059 290.049 246.964C290.144 246.869 290.26 246.822 290.398 246.822C290.529 246.822 290.64 246.869 290.73 246.964C290.825 247.059 290.872 247.175 290.872 247.313C290.872 247.45 290.825 247.566 290.73 247.661C290.64 247.756 290.529 247.803 290.398 247.803ZM290.746 248.508V252.845H290.026V248.508H290.746ZM292.693 246.988V252.845H291.973V246.988H292.693Z" fill="#92959E"/>
<path d="M364.896 247.368V252.845H364.175V248.761L362.355 252.845H361.848L360.02 248.753V252.845H359.3V247.368H360.076L362.102 251.895L364.128 247.368H364.896ZM365.848 250.66C365.848 250.217 365.938 249.829 366.117 249.497C366.296 249.159 366.542 248.898 366.853 248.713C367.17 248.529 367.52 248.436 367.906 248.436C368.286 248.436 368.615 248.518 368.895 248.682C369.175 248.845 369.383 249.051 369.52 249.299V248.508H370.248V252.845H369.52V252.037C369.378 252.291 369.164 252.502 368.879 252.671C368.599 252.834 368.272 252.916 367.898 252.916C367.513 252.916 367.164 252.821 366.853 252.631C366.542 252.441 366.296 252.175 366.117 251.832C365.938 251.489 365.848 251.098 365.848 250.66ZM369.52 250.668C369.52 250.341 369.454 250.056 369.322 249.813C369.19 249.571 369.011 249.386 368.784 249.259C368.563 249.128 368.317 249.062 368.048 249.062C367.779 249.062 367.534 249.125 367.312 249.252C367.09 249.378 366.914 249.563 366.782 249.806C366.65 250.048 366.584 250.333 366.584 250.66C366.584 250.993 366.65 251.283 366.782 251.531C366.914 251.774 367.09 251.961 367.312 252.093C367.534 252.219 367.779 252.283 368.048 252.283C368.317 252.283 368.563 252.219 368.784 252.093C369.011 251.961 369.19 251.774 369.322 251.531C369.454 251.283 369.52 250.995 369.52 250.668ZM375.201 248.508L372.589 254.887H371.845L372.7 252.797L370.951 248.508H371.75L373.112 252.022L374.457 248.508H375.201Z" fill="#92959E"/>
<path d="M431.296 247.328V251.404C431.296 251.858 431.156 252.222 430.876 252.496C430.597 252.766 430.227 252.9 429.768 252.9C429.304 252.9 428.932 252.763 428.652 252.489C428.373 252.209 428.233 251.829 428.233 251.349H428.953C428.958 251.618 429.027 251.837 429.159 252.006C429.296 252.175 429.499 252.259 429.768 252.259C430.037 252.259 430.238 252.18 430.37 252.022C430.502 251.858 430.568 251.652 430.568 251.404V247.328H431.296ZM436.561 248.508V252.845H435.841V252.204C435.704 252.425 435.511 252.599 435.263 252.726C435.02 252.847 434.751 252.908 434.456 252.908C434.118 252.908 433.815 252.839 433.546 252.702C433.276 252.56 433.063 252.349 432.904 252.069C432.751 251.789 432.675 251.449 432.675 251.048V248.508H433.387V250.953C433.387 251.381 433.495 251.71 433.712 251.942C433.928 252.169 434.224 252.283 434.598 252.283C434.983 252.283 435.287 252.164 435.508 251.927C435.73 251.689 435.841 251.344 435.841 250.89V248.508H436.561ZM439.89 248.428C440.418 248.428 440.845 248.589 441.172 248.911C441.499 249.228 441.663 249.687 441.663 250.288V252.845H440.951V250.391C440.951 249.959 440.843 249.629 440.626 249.402C440.41 249.17 440.114 249.054 439.74 249.054C439.36 249.054 439.057 249.172 438.83 249.41C438.608 249.647 438.497 249.993 438.497 250.447V252.845H437.777V248.508H438.497V249.125C438.64 248.903 438.832 248.732 439.075 248.611C439.323 248.489 439.595 248.428 439.89 248.428ZM446.797 250.51C446.797 250.647 446.789 250.792 446.773 250.945H443.306C443.333 251.373 443.478 251.708 443.742 251.95C444.011 252.188 444.335 252.307 444.715 252.307C445.026 252.307 445.285 252.235 445.491 252.093C445.702 251.945 445.85 251.75 445.934 251.507H446.71C446.594 251.924 446.361 252.264 446.013 252.528C445.665 252.787 445.232 252.916 444.715 252.916C444.304 252.916 443.934 252.824 443.607 252.639C443.285 252.454 443.032 252.193 442.847 251.855C442.663 251.512 442.57 251.117 442.57 250.668C442.57 250.22 442.66 249.827 442.839 249.489C443.019 249.151 443.269 248.893 443.591 248.713C443.918 248.529 444.293 248.436 444.715 248.436C445.127 248.436 445.491 248.526 445.807 248.705C446.124 248.885 446.367 249.133 446.536 249.449C446.71 249.761 446.797 250.114 446.797 250.51ZM446.053 250.36C446.053 250.085 445.992 249.85 445.871 249.655C445.749 249.455 445.583 249.304 445.372 249.204C445.166 249.099 444.937 249.046 444.684 249.046C444.319 249.046 444.008 249.162 443.75 249.394C443.496 249.626 443.351 249.948 443.314 250.36H446.053Z" fill="#92959E"/>
<path d="M22.0286 33.1523V28.6847H24.9371C26.8111 28.6847 27.8605 27.5303 27.8605 25.6863C27.8605 23.8423 26.8111 22.6879 24.9371 22.6879H20.7693V33.1523H22.0286ZM22.0286 23.7973H24.9371C25.9265 23.7973 26.5112 24.337 26.5112 25.2965V26.0761C26.5112 27.0356 25.9265 27.5753 24.9371 27.5753H22.0286V23.7973ZM31.2064 33.1523V27.9051C31.2064 27.1705 31.986 26.6158 33.2753 26.6158H33.9799V25.4164H33.5152C32.2559 25.4164 31.5512 26.1061 31.2814 26.8407H31.2064V25.4164H30.0071V33.1523H31.2064ZM38.7745 33.3322C40.8434 33.3322 42.2676 31.7431 42.2676 29.2844C42.2676 26.8257 40.8434 25.2365 38.7745 25.2365C36.7056 25.2365 35.2813 26.8257 35.2813 29.2844C35.2813 31.7431 36.7056 33.3322 38.7745 33.3322ZM38.7745 32.2678C37.4852 32.2678 36.5706 31.4732 36.5706 29.8391V28.7297C36.5706 27.0956 37.4852 26.301 38.7745 26.301C40.0638 26.301 40.9783 27.0956 40.9783 28.7297V29.8391C40.9783 31.4732 40.0638 32.2678 38.7745 32.2678ZM51.174 34.0069C51.174 32.7326 50.3494 31.953 48.4304 31.953H46.7813C46.0767 31.953 45.5969 31.833 45.5969 31.3683C45.5969 30.8885 46.1066 30.6337 46.6164 30.4988C46.8413 30.5437 47.1111 30.5737 47.366 30.5737C49.135 30.5737 50.2894 29.4793 50.2894 27.9051C50.2894 27.0806 49.9596 26.3909 49.4049 25.9112V25.4164H50.8741V24.367H49.7197C49.0751 24.367 48.8202 24.8018 48.8202 25.4015V25.5364C48.4004 25.3415 47.9057 25.2365 47.351 25.2365C45.5969 25.2365 44.4425 26.331 44.4425 27.9051C44.4425 28.9846 44.9822 29.8391 45.8968 30.2739V30.3338C45.1172 30.5287 44.5625 30.9035 44.5625 31.6831C44.5625 32.2078 44.8173 32.5527 45.2521 32.7626V32.9275C44.4875 33.1374 44.0227 33.5871 44.0227 34.4267C44.0227 35.641 45.0122 36.3307 47.4259 36.3307C49.9146 36.3307 51.174 35.596 51.174 34.0069ZM50.0496 34.0968C50.0496 34.9364 49.27 35.3562 47.9357 35.3562H46.8263C45.6119 35.3562 45.1472 34.8015 45.1472 34.1268C45.1472 33.6471 45.372 33.3023 45.8668 33.0774H48.4454C49.6448 33.0774 50.0496 33.4822 50.0496 34.0968ZM47.366 29.6142C46.3465 29.6142 45.7019 29.1345 45.7019 28.115V27.6952C45.7019 26.6758 46.3465 26.196 47.366 26.196C48.3854 26.196 49.0301 26.6758 49.0301 27.6952V28.115C49.0301 29.1345 48.3854 29.6142 47.366 29.6142ZM54.1847 33.1523V27.9051C54.1847 27.1705 54.9643 26.6158 56.2536 26.6158H56.9582V25.4164H56.4934C55.2341 25.4164 54.5295 26.1061 54.2596 26.8407H54.1847V25.4164H52.9853V33.1523H54.1847ZM61.7377 33.3322C63.192 33.3322 64.3014 32.6126 64.7961 31.5632L63.9416 30.9485C63.5368 31.8031 62.7872 32.2828 61.8127 32.2828C60.3735 32.2828 59.5189 31.2783 59.5189 29.944V29.5842H65.081V29.0145C65.081 26.8257 63.8066 25.2365 61.7377 25.2365C59.6388 25.2365 58.2596 26.8257 58.2596 29.2844C58.2596 31.7431 59.6388 33.3322 61.7377 33.3322ZM61.7377 26.241C62.9671 26.241 63.7916 27.1555 63.7916 28.5198V28.6847H59.5189V28.5798C59.5189 27.2305 60.4334 26.241 61.7377 26.241ZM69.7934 33.3322C71.5624 33.3322 72.6569 32.4177 72.6569 30.9185C72.6569 29.7491 71.9972 28.9995 70.2881 28.7447L69.6884 28.6547C68.7289 28.5048 68.2042 28.205 68.2042 27.4554C68.2042 26.7208 68.7289 26.256 69.7184 26.256C70.7079 26.256 71.3675 26.7208 71.7124 27.2005L72.5069 26.4809C71.8773 25.7013 71.0527 25.2365 69.8084 25.2365C68.2342 25.2365 67.0498 25.9861 67.0498 27.5153C67.0498 28.9546 68.1143 29.5393 69.5385 29.7491L70.1532 29.8391C71.1726 29.989 71.5025 30.4538 71.5025 31.0535C71.5025 31.848 70.9028 32.3128 69.8833 32.3128C68.9088 32.3128 68.1892 31.878 67.5895 31.1284L66.735 31.8181C67.4246 32.7326 68.3691 33.3322 69.7934 33.3322ZM77.4235 33.3322C79.1926 33.3322 80.287 32.4177 80.287 30.9185C80.287 29.7491 79.6273 28.9995 77.9182 28.7447L77.3186 28.6547C76.3591 28.5048 75.8344 28.205 75.8344 27.4554C75.8344 26.7208 76.3591 26.256 77.3486 26.256C78.338 26.256 78.9977 26.7208 79.3425 27.2005L80.1371 26.4809C79.5074 25.7013 78.6828 25.2365 77.4385 25.2365C75.8643 25.2365 74.68 25.9861 74.68 27.5153C74.68 28.9546 75.7444 29.5393 77.1686 29.7491L77.7833 29.8391C78.8028 29.989 79.1326 30.4538 79.1326 31.0535C79.1326 31.848 78.5329 32.3128 77.5135 32.3128C76.539 32.3128 75.8194 31.878 75.2197 31.1284L74.3651 31.8181C75.0548 32.7326 75.9993 33.3322 77.4235 33.3322ZM88.1523 28.6547H90.596L92.8598 33.1523H94.2841L91.8853 28.5348C93.2496 28.22 93.9842 27.1855 93.9842 25.6563C93.9842 23.7523 92.8898 22.6879 91.0608 22.6879H86.893V33.1523H88.1523V28.6547ZM88.1523 27.5753V23.7973H91.0608C92.0502 23.7973 92.6349 24.337 92.6349 25.2965V26.0761C92.6349 27.0356 92.0502 27.5753 91.0608 27.5753H88.1523ZM102.925 33.1523V32.1029H102.041V27.8452C102.041 26.211 100.931 25.2365 99.0723 25.2365C97.678 25.2365 96.7485 25.9262 96.3287 26.7507L97.0483 27.4254C97.4681 26.7208 98.0828 26.271 99.0123 26.271C100.242 26.271 100.841 26.8707 100.841 27.9651V28.7297H99.3121C97.0633 28.7297 96.0139 29.5393 96.0139 30.9935C96.0139 32.4327 96.9734 33.3322 98.6075 33.3322C99.6869 33.3322 100.512 32.8375 100.841 31.893H100.916C101.006 32.6126 101.366 33.1523 102.251 33.1523H102.925ZM98.8024 32.3128C97.8729 32.3128 97.2732 31.878 97.2732 31.1134V30.7986C97.2732 30.049 97.8879 29.6292 99.2522 29.6292H100.841V30.9035C100.841 31.6981 99.9868 32.3128 98.8024 32.3128ZM108.258 33.1523V32.1029H106.683V26.4659H108.378V25.4164H106.683V23.2726H105.604V24.7118C105.604 25.2365 105.439 25.4164 104.929 25.4164H104.21V26.4659H105.484V31.878C105.484 32.6276 105.934 33.1523 106.758 33.1523H108.258ZM113.567 33.3322C115.022 33.3322 116.131 32.6126 116.626 31.5632L115.771 30.9485C115.367 31.8031 114.617 32.2828 113.642 32.2828C112.203 32.2828 111.349 31.2783 111.349 29.944V29.5842H116.911V29.0145C116.911 26.8257 115.636 25.2365 113.567 25.2365C111.469 25.2365 110.089 26.8257 110.089 29.2844C110.089 31.7431 111.469 33.3322 113.567 33.3322ZM113.567 26.241C114.797 26.241 115.621 27.1555 115.621 28.5198V28.6847H111.349V28.5798C111.349 27.2305 112.263 26.241 113.567 26.241Z" fill="#263238"/>
<g opacity="0.24">
<rect x="23.1229" y="112.664" width="10.307" height="116.188" fill="#855CF8"/>
</g>
<g opacity="0.64">
<rect x="23.1229" y="108.916" width="10.307" height="1.87401" fill="#855CF8"/>
</g>
<g opacity="0.24">
<rect x="35.1589" y="114.538" width="10.307" height="114.314" fill="#855CF8"/>
</g>
<g opacity="0.64">
<rect x="35.1589" y="110.79" width="10.307" height="1.87401" fill="#855CF8"/>
</g>
<g opacity="0.24">
<rect x="47.1948" y="110.79" width="10.307" height="118.062" fill="#855CF8"/>
</g>
<g opacity="0.64">
<rect x="47.1948" y="107.042" width="10.307" height="1.87401" fill="#855CF8"/>
</g>
<g opacity="0.24">
<rect x="59.2308" y="105.168" width="10.307" height="123.684" fill="#855CF8"/>
</g>
<g opacity="0.64">
<rect x="59.2308" y="101.42" width="10.307" height="1.87401" fill="#855CF8"/>
</g>
<g opacity="0.24">
<rect x="71.2668" y="104.23" width="10.307" height="124.621" fill="#855CF8"/>
</g>
<g opacity="0.64">
<rect x="71.2668" y="100.482" width="10.307" height="1.87401" fill="#855CF8"/>
</g>
<g opacity="0.24">
<rect x="83.3029" y="112.664" width="10.307" height="116.188" fill="#855CF8"/>
</g>
<g opacity="0.64">
<rect x="83.3029" y="108.916" width="10.307" height="1.87401" fill="#855CF8"/>
</g>
<g opacity="0.24">
<rect x="95.3389" y="99.5459" width="10.307" height="129.306" fill="#855CF8"/>
</g>
<g opacity="0.64">
<rect x="95.3389" y="95.7979" width="10.307" height="1.87401" fill="#855CF8"/>
</g>
<g opacity="0.24">
<rect x="107.375" y="86.4277" width="10.307" height="142.424" fill="#855CF8"/>
</g>
<g opacity="0.64">
<rect x="107.375" y="82.6797" width="10.307" height="1.87401" fill="#855CF8"/>
</g>
<g opacity="0.24">
<rect x="119.411" y="93.9238" width="10.307" height="134.928" fill="#855CF8"/>
</g>
<g opacity="0.64">
<rect x="119.411" y="90.1758" width="10.307" height="1.87401" fill="#855CF8"/>
</g>
<g opacity="0.24">
<rect x="131.447" y="80.8057" width="10.307" height="148.046" fill="#855CF8"/>
</g>
<g opacity="0.64">
<rect x="131.447" y="77.0576" width="10.307" height="1.87401" fill="#855CF8"/>
</g>
<g opacity="0.24">
<rect x="143.483" y="101.42" width="10.307" height="127.432" fill="#855CF8"/>
</g>
<g opacity="0.64">
<rect x="143.483" y="97.6719" width="10.307" height="1.87401" fill="#855CF8"/>
</g>
<g opacity="0.24">
<rect x="155.519" y="99.5459" width="10.307" height="129.306" fill="#855CF8"/>
</g>
<g opacity="0.64">
<rect x="155.519" y="95.7979" width="10.307" height="1.87401" fill="#855CF8"/>
</g>
<g opacity="0.24">
<rect x="167.555" y="95.7979" width="10.307" height="133.054" fill="#855CF8"/>
</g>
<g opacity="0.64">
<rect x="167.555" y="92.0498" width="10.307" height="1.87401" fill="#855CF8"/>
</g>
<g opacity="0.24">
<rect x="179.591" y="86.4277" width="10.307" height="142.424" fill="#855CF8"/>
</g>
<g opacity="0.64">
<rect x="179.591" y="82.6797" width="10.307" height="1.87401" fill="#855CF8"/>
</g>
<g opacity="0.24">
<rect x="191.627" y="97.6719" width="10.307" height="131.18" fill="#855CF8"/>
</g>
<g opacity="0.64">
<rect x="191.627" y="93.9238" width="10.307" height="1.87401" fill="#855CF8"/>
</g>
<g opacity="0.24">
<rect x="203.663" y="84.5537" width="10.307" height="144.298" fill="#855CF8"/>
</g>
<g opacity="0.64">
<rect x="203.663" y="80.8057" width="10.307" height="1.87401" fill="#855CF8"/>
</g>
<g opacity="0.24">
<rect x="215.699" y="90.1758" width="10.307" height="138.676" fill="#855CF8"/>
</g>
<g opacity="0.64">
<rect x="215.699" y="86.4277" width="10.307" height="1.87401" fill="#855CF8"/>
</g>
<g opacity="0.24">
<rect x="227.735" y="82.6797" width="10.307" height="146.172" fill="#855CF8"/>
</g>
<g opacity="0.64">
<rect x="227.735" y="78.9316" width="10.307" height="1.87401" fill="#855CF8"/>
</g>
<g opacity="0.24">
<rect x="239.771" y="78.9316" width="10.307" height="149.92" fill="#855CF8"/>
</g>
<g opacity="0.64">
<rect x="239.771" y="75.1836" width="10.307" height="1.87401" fill="#855CF8"/>
</g>
<g opacity="0.24">
<rect x="251.807" y="70.499" width="10.307" height="158.354" fill="#855CF8"/>
</g>
<g opacity="0.64">
<rect x="251.807" y="66.751" width="10.307" height="1.87401" fill="#855CF8"/>
</g>
<g opacity="0.24">
<rect x="263.843" y="73.3096" width="10.307" height="155.543" fill="#855CF8"/>
</g>
<g opacity="0.64">
<rect x="263.843" y="69.5615" width="10.307" height="1.87401" fill="#855CF8"/>
</g>
<g opacity="0.24">
<rect x="275.879" y="75.1836" width="10.307" height="153.669" fill="#855CF8"/>
</g>
<g opacity="0.64">
<rect x="275.879" y="71.4355" width="10.307" height="1.87401" fill="#855CF8"/>
</g>
<g opacity="0.24">
<rect x="287.915" y="71.4355" width="10.307" height="157.417" fill="#855CF8"/>
</g>
<g opacity="0.64">
<rect x="287.915" y="67.6875" width="10.307" height="1.87401" fill="#855CF8"/>
</g>
<g opacity="0.24">
<rect x="299.951" y="80.8057" width="10.307" height="148.046" fill="#855CF8"/>
</g>
<g opacity="0.64">
<rect x="299.951" y="77.0576" width="10.307" height="1.87401" fill="#855CF8"/>
</g>
<g opacity="0.24">
<rect x="311.987" y="60.1914" width="10.307" height="168.661" fill="#855CF8"/>
</g>
<g opacity="0.64">
<rect x="311.987" y="56.4434" width="10.307" height="1.87401" fill="#855CF8"/>
</g>
<g opacity="0.24">
<rect x="324.023" y="75.1836" width="10.307" height="153.669" fill="#855CF8"/>
</g>
<g opacity="0.64">
<rect x="324.023" y="71.4355" width="10.307" height="1.87401" fill="#855CF8"/>
</g>
<g opacity="0.24">
<rect x="336.059" y="66.751" width="10.307" height="162.102" fill="#855CF8"/>
</g>
<g opacity="0.64">
<rect x="336.059" y="63.0029" width="10.307" height="1.87401" fill="#855CF8"/>
</g>
<g opacity="0.24">
<rect x="348.095" y="58.3174" width="10.307" height="170.535" fill="#855CF8"/>
</g>
<g opacity="0.64">
<rect x="348.095" y="54.5693" width="10.307" height="1.87401" fill="#855CF8"/>
</g>
<g opacity="0.24">
<rect x="360.131" y="63.9395" width="10.307" height="164.913" fill="#855CF8"/>
</g>
<g opacity="0.64">
<rect x="360.131" y="60.1914" width="10.307" height="1.87401" fill="#855CF8"/>
</g>
<g opacity="0.24">
<rect x="372.167" y="68.625" width="10.307" height="160.228" fill="#855CF8"/>
</g>
<g opacity="0.64">
<rect x="372.167" y="64.877" width="10.307" height="1.87401" fill="#855CF8"/>
</g>
<g opacity="0.24">
<rect x="384.203" y="51.7588" width="10.307" height="177.094" fill="#855CF8"/>
</g>
<g opacity="0.64">
<rect x="384.203" y="48.0107" width="10.307" height="1.87401" fill="#855CF8"/>
</g>
<g opacity="0.24">
<rect x="396.239" y="56.4434" width="10.307" height="172.409" fill="#855CF8"/>
</g>
<g opacity="0.64">
<rect x="396.239" y="52.6953" width="10.307" height="1.87401" fill="#855CF8"/>
</g>
<g opacity="0.24">
<rect x="408.275" y="63.9395" width="10.307" height="164.913" fill="#855CF8"/>
</g>
<g opacity="0.64">
<rect x="408.275" y="60.1914" width="10.307" height="1.87401" fill="#855CF8"/>
</g>
<g opacity="0.24">
<rect x="420.311" y="60.1914" width="10.307" height="168.661" fill="#855CF8"/>
</g>
<g opacity="0.64">
<rect x="420.311" y="56.4434" width="10.307" height="1.87401" fill="#855CF8"/>
</g>
<g opacity="0.24">
<rect x="432.347" y="51.7588" width="10.307" height="177.094" fill="#855CF8"/>
</g>
<g opacity="0.64">
<rect x="432.347" y="48.0107" width="10.307" height="1.87401" fill="#855CF8"/>
</g>
<g opacity="0.24">
<rect x="444.383" y="42.3887" width="10.307" height="186.464" fill="#855CF8"/>
</g>
<g opacity="0.64">
<rect x="444.383" y="38.6406" width="10.307" height="1.87401" fill="#855CF8"/>
</g>
</svg>
