<svg width="25" height="25" viewBox="0 0 36 36" fill="none" xmlns="http://www.w3.org/2000/svg">
<rect width="35.8718" height="35.8718" transform="translate(0.00439453 0.0527344)" fill="white" fill-opacity="0.01"/>
<path fill-rule="evenodd" clip-rule="evenodd" d="M32.8868 17.9895C32.8868 26.2443 26.195 32.9361 17.9402 32.9361C9.68546 32.9361 2.99365 26.2443 2.99365 17.9895C2.99365 9.73477 9.68546 3.04297 17.9402 3.04297C26.195 3.04297 32.8868 9.73477 32.8868 17.9895ZM22.1677 10.7553C22.9481 11.5318 23.4975 12.5098 23.7544 13.5803C24.1017 15.0122 23.9065 16.522 23.2066 17.8186C22.5067 19.1152 21.3516 20.1068 19.964 20.6022C19.6576 20.7113 19.4409 20.9833 19.4409 21.3077V22.4765C19.4409 22.8737 19.2831 23.2546 19.0022 23.5355C18.7213 23.8163 18.3404 23.9741 17.9432 23.9741C17.546 23.9741 17.1651 23.8163 16.8842 23.5355C16.6033 23.2546 16.4456 22.8737 16.4456 22.4765V19.4662C16.4507 19.0732 16.6104 18.698 16.8901 18.4219C17.1698 18.1458 17.547 17.9911 17.94 17.991H17.9298C19.5813 17.991 20.9236 16.6488 20.9236 15.0017C20.9057 14.2191 20.5821 13.4746 20.0222 12.9275C19.4622 12.3805 18.7104 12.0744 17.9275 12.0748C17.1447 12.0752 16.3932 12.382 15.8338 12.9296C15.2744 13.4772 14.9516 14.2221 14.9345 15.0047C14.9315 15.8282 14.2619 16.4964 13.4368 16.4964C13.0679 16.4941 12.7131 16.3544 12.4417 16.1045C12.1703 15.8547 12.0018 15.5126 11.9691 15.1452L11.9616 14.9255C11.987 11.1829 15.4307 8.29518 19.3347 9.18301C20.4065 9.43453 21.3873 9.97889 22.1677 10.7553ZM19.4349 26.9575C19.4349 27.7829 18.7657 28.4521 17.9402 28.4521C17.1147 28.4521 16.4456 27.7829 16.4456 26.9575C16.4456 26.132 17.1147 25.4628 17.9402 25.4628C18.7657 25.4628 19.4349 26.132 19.4349 26.9575Z" fill="#676767"/>
</svg>
