<svg width="661" height="377" viewBox="0 0 661 377" fill="none" xmlns="http://www.w3.org/2000/svg">
<rect x="0.802463" y="1.551" width="659.087" height="374.57" rx="5.87305" fill="white" stroke="#E5E5E5" stroke-width="1.30512"/>
<path d="M33.4199 40.0784H29.9328V46.084H27.9649V31.2382H32.8795C34.5517 31.2382 35.8364 31.6189 36.7337 32.3802C37.6378 33.1415 38.0898 34.2495 38.0898 35.7042C38.0898 36.6286 37.8383 37.4342 37.3353 38.1207C36.8391 38.8072 36.1457 39.3205 35.2553 39.6603L38.7424 45.9616V46.084H36.6419L33.4199 40.0784ZM29.9328 38.4776H32.9407C33.9127 38.4776 34.6843 38.2261 35.2553 37.723C35.833 37.22 36.1219 36.5471 36.1219 35.7042C36.1219 34.7865 35.8466 34.083 35.296 33.5936C34.7522 33.1041 33.9637 32.856 32.9305 32.8492H29.9328V38.4776ZM45.6995 46.2879C44.204 46.2879 42.9873 45.7985 42.0492 44.8196C41.1112 43.834 40.6421 42.5187 40.6421 40.8737V40.527C40.6421 39.4326 40.8495 38.4572 41.2641 37.6007C41.6856 36.7374 42.2702 36.0645 43.0179 35.5818C43.7724 35.0924 44.5881 34.8477 45.465 34.8477C46.8993 34.8477 48.014 35.3201 48.8094 36.265C49.6047 37.2098 50.0023 38.5625 50.0023 40.3231V41.1082H42.5285C42.5556 42.1958 42.8717 43.0761 43.4767 43.749C44.0885 44.4152 44.8634 44.7483 45.8015 44.7483C46.4676 44.7483 47.0318 44.6123 47.494 44.3404C47.9563 44.0685 48.3607 43.7083 48.7074 43.2596L49.8596 44.1569C48.9351 45.5776 47.5484 46.2879 45.6995 46.2879ZM45.465 36.3975C44.7037 36.3975 44.0647 36.6762 43.5481 37.2336C43.0315 37.7842 42.712 38.5591 42.5896 39.5584H48.116V39.4156C48.0616 38.4572 47.8033 37.7162 47.3411 37.1928C46.8789 36.6626 46.2535 36.3975 45.465 36.3975ZM52.3201 40.476C52.3201 38.7563 52.7178 37.39 53.5131 36.3771C54.3084 35.3575 55.362 34.8477 56.6739 34.8477C58.0198 34.8477 59.0701 35.3235 59.8246 36.2752L59.9164 35.0516H61.6395V45.8189C61.6395 47.2464 61.2147 48.3713 60.365 49.1938C59.5221 50.0163 58.3869 50.4276 56.9594 50.4276C56.1641 50.4276 55.3858 50.2577 54.6245 49.9178C53.8632 49.5779 53.282 49.1123 52.8809 48.5209L53.8598 47.3891C54.6687 48.3883 55.6577 48.888 56.8269 48.888C57.7445 48.888 58.4583 48.6297 58.9681 48.113C59.4847 47.5964 59.743 46.8691 59.743 45.931V44.9828C58.9885 45.8529 57.9587 46.2879 56.6535 46.2879C55.362 46.2879 54.3152 45.7679 53.5131 44.7279C52.7178 43.6879 52.3201 42.2706 52.3201 40.476ZM54.2166 40.6902C54.2166 41.9341 54.4715 42.9129 54.9814 43.6267C55.4912 44.3336 56.2049 44.6871 57.1226 44.6871C58.3121 44.6871 59.1856 44.1467 59.743 43.0659V38.0289C59.1652 36.9753 58.2985 36.4485 57.143 36.4485C56.2253 36.4485 55.5082 36.8054 54.9916 37.5191C54.4749 38.2329 54.2166 39.2899 54.2166 40.6902ZM67.1182 46.084H65.2319V35.0516H67.1182V46.084ZM65.0789 32.1253C65.0789 31.8194 65.1707 31.5611 65.3542 31.3504C65.5446 31.1397 65.8233 31.0343 66.1903 31.0343C66.5574 31.0343 66.8361 31.1397 67.0264 31.3504C67.2167 31.5611 67.3119 31.8194 67.3119 32.1253C67.3119 32.4312 67.2167 32.6861 67.0264 32.89C66.8361 33.0939 66.5574 33.1959 66.1903 33.1959C65.8233 33.1959 65.5446 33.0939 65.3542 32.89C65.1707 32.6861 65.0789 32.4312 65.0789 32.1253ZM70.2211 40.4658C70.2211 39.385 70.4318 38.413 70.8533 37.5497C71.2815 36.6864 71.8729 36.0203 72.6274 35.5512C73.3887 35.0822 74.2554 34.8477 75.2275 34.8477C76.7297 34.8477 77.9431 35.3677 78.8675 36.4077C79.7988 37.4477 80.2644 38.831 80.2644 40.5576V40.6902C80.2644 41.7642 80.0571 42.7294 79.6425 43.5859C79.2346 44.4356 78.6466 45.0983 77.8785 45.5742C77.1172 46.05 76.2403 46.2879 75.2479 46.2879C73.7524 46.2879 72.5391 45.7679 71.6078 44.7279C70.6833 43.6879 70.2211 42.3114 70.2211 40.5984V40.4658ZM72.1176 40.6902C72.1176 41.9137 72.3997 42.896 72.9639 43.6369C73.5349 44.3778 74.2962 44.7483 75.2479 44.7483C76.2063 44.7483 76.9676 44.3744 77.5318 43.6267C78.096 42.8722 78.3781 41.8185 78.3781 40.4658C78.3781 39.2559 78.0892 38.277 77.5114 37.5293C76.9404 36.7748 76.1791 36.3975 75.2275 36.3975C74.2962 36.3975 73.5451 36.768 72.9741 37.5089C72.4031 38.2499 72.1176 39.3103 72.1176 40.6902ZM84.9886 35.0516L85.0497 36.4383C85.8926 35.3779 86.9938 34.8477 88.3533 34.8477C90.6849 34.8477 91.8608 36.163 91.8812 38.7937V46.084H89.9949V38.7835C89.9881 37.9881 89.8046 37.4002 89.4443 37.0195C89.0909 36.6388 88.5369 36.4485 87.7823 36.4485C87.1706 36.4485 86.6336 36.6117 86.1713 36.9379C85.7091 37.2642 85.3488 37.6925 85.0905 38.2227V46.084H83.2042V35.0516H84.9886ZM101.724 43.1577C101.724 42.6478 101.53 42.2536 101.143 41.9749C100.762 41.6894 100.092 41.4447 99.134 41.2408C98.1824 41.0368 97.4245 40.7921 96.8603 40.5066C96.3029 40.2211 95.8882 39.8813 95.6163 39.487C95.3512 39.0927 95.2187 38.6237 95.2187 38.0799C95.2187 37.1758 95.5993 36.4111 96.3607 35.7858C97.1288 35.1604 98.1076 34.8477 99.2972 34.8477C100.548 34.8477 101.561 35.1706 102.336 35.8163C103.117 36.4621 103.508 37.288 103.508 38.294H101.612C101.612 37.7774 101.391 37.3322 100.949 36.9583C100.514 36.5845 99.9633 36.3975 99.2972 36.3975C98.6106 36.3975 98.0736 36.5471 97.6862 36.8462C97.2987 37.1453 97.105 37.5361 97.105 38.0187C97.105 38.4742 97.2851 38.8174 97.6454 39.0486C98.0057 39.2797 98.6548 39.5006 99.5929 39.7113C100.538 39.922 101.302 40.1735 101.887 40.4658C102.472 40.7581 102.903 41.1116 103.182 41.5263C103.467 41.9341 103.61 42.4337 103.61 43.0251C103.61 44.0107 103.216 44.8027 102.427 45.4008C101.639 45.9922 100.616 46.2879 99.3584 46.2879C98.4747 46.2879 97.693 46.1316 97.0132 45.8189C96.3335 45.5062 95.7999 45.0712 95.4124 44.5138C95.0317 43.9496 94.8414 43.3412 94.8414 42.6886H96.7277C96.7617 43.3208 97.0132 43.8238 97.4823 44.1977C97.9581 44.5647 98.5834 44.7483 99.3584 44.7483C100.072 44.7483 100.643 44.6055 101.071 44.32C101.506 44.0277 101.724 43.6403 101.724 43.1577ZM116.036 43.5247L118.768 35.0516H120.695L116.739 46.084H115.302L111.305 35.0516H113.232L116.036 43.5247ZM129.508 43.1577C129.508 42.6478 129.315 42.2536 128.927 41.9749C128.546 41.6894 127.877 41.4447 126.918 41.2408C125.967 41.0368 125.209 40.7921 124.645 40.5066C124.087 40.2211 123.673 39.8813 123.401 39.487C123.136 39.0927 123.003 38.6237 123.003 38.0799C123.003 37.1758 123.384 36.4111 124.145 35.7858C124.913 35.1604 125.892 34.8477 127.082 34.8477C128.332 34.8477 129.345 35.1706 130.12 35.8163C130.902 36.4621 131.293 37.288 131.293 38.294H129.396C129.396 37.7774 129.175 37.3322 128.733 36.9583C128.298 36.5845 127.748 36.3975 127.082 36.3975C126.395 36.3975 125.858 36.5471 125.471 36.8462C125.083 37.1453 124.889 37.5361 124.889 38.0187C124.889 38.4742 125.07 38.8174 125.43 39.0486C125.79 39.2797 126.439 39.5006 127.377 39.7113C128.322 39.922 129.087 40.1735 129.671 40.4658C130.256 40.7581 130.688 41.1116 130.966 41.5263C131.252 41.9341 131.395 42.4337 131.395 43.0251C131.395 44.0107 131 44.8027 130.212 45.4008C129.423 45.9922 128.4 46.2879 127.143 46.2879C126.259 46.2879 125.477 46.1316 124.798 45.8189C124.118 45.5062 123.584 45.0712 123.197 44.5138C122.816 43.9496 122.626 43.3412 122.626 42.6886H124.512C124.546 43.3208 124.798 43.8238 125.267 44.1977C125.742 44.5647 126.368 44.7483 127.143 44.7483C127.857 44.7483 128.428 44.6055 128.856 44.32C129.291 44.0277 129.508 43.6403 129.508 43.1577ZM142.576 46.084H140.619V31.2382H142.576V46.084ZM148.228 35.0516L148.289 36.4383C149.132 35.3779 150.234 34.8477 151.593 34.8477C153.925 34.8477 155.101 36.163 155.121 38.7937V46.084H153.235V38.7835C153.228 37.9881 153.044 37.4002 152.684 37.0195C152.331 36.6388 151.777 36.4485 151.022 36.4485C150.41 36.4485 149.873 36.6117 149.411 36.9379C148.949 37.2642 148.589 37.6925 148.33 38.2227V46.084H146.444V35.0516H148.228ZM158.081 40.476C158.081 38.7835 158.482 37.424 159.284 36.3975C160.086 35.3643 161.137 34.8477 162.435 34.8477C163.726 34.8477 164.749 35.2895 165.504 36.1732V30.4225H167.39V46.084H165.657L165.565 44.9012C164.811 45.8257 163.76 46.2879 162.415 46.2879C161.137 46.2879 160.093 45.7645 159.284 44.7177C158.482 43.6709 158.081 42.3046 158.081 40.6188V40.476ZM159.967 40.6902C159.967 41.9409 160.226 42.9197 160.742 43.6267C161.259 44.3336 161.973 44.6871 162.884 44.6871C164.08 44.6871 164.953 44.1501 165.504 43.0761V38.0085C164.94 36.9685 164.073 36.4485 162.904 36.4485C161.979 36.4485 161.259 36.8054 160.742 37.5191C160.226 38.2329 159.967 39.2899 159.967 40.6902ZM177.712 44.993C176.978 45.8563 175.901 46.2879 174.48 46.2879C173.304 46.2879 172.407 45.948 171.788 45.2683C171.176 44.5817 170.867 43.5689 170.86 42.2298V35.0516H172.747V42.1788C172.747 43.851 173.426 44.6871 174.786 44.6871C176.227 44.6871 177.185 44.1501 177.661 43.0761V35.0516H179.548V46.084H177.753L177.712 44.993ZM189.421 43.1577C189.421 42.6478 189.227 42.2536 188.84 41.9749C188.459 41.6894 187.789 41.4447 186.831 41.2408C185.879 41.0368 185.121 40.7921 184.557 40.5066C184 40.2211 183.585 39.8813 183.313 39.487C183.048 39.0927 182.916 38.6237 182.916 38.0799C182.916 37.1758 183.296 36.4111 184.058 35.7858C184.826 35.1604 185.804 34.8477 186.994 34.8477C188.245 34.8477 189.258 35.1706 190.033 35.8163C190.814 36.4621 191.205 37.288 191.205 38.294H189.309C189.309 37.7774 189.088 37.3322 188.646 36.9583C188.211 36.5845 187.66 36.3975 186.994 36.3975C186.307 36.3975 185.77 36.5471 185.383 36.8462C184.996 37.1453 184.802 37.5361 184.802 38.0187C184.802 38.4742 184.982 38.8174 185.342 39.0486C185.703 39.2797 186.352 39.5006 187.29 39.7113C188.235 39.922 188.999 40.1735 189.584 40.4658C190.168 40.7581 190.6 41.1116 190.879 41.5263C191.164 41.9341 191.307 42.4337 191.307 43.0251C191.307 44.0107 190.913 44.8027 190.124 45.4008C189.336 45.9922 188.313 46.2879 187.055 46.2879C186.172 46.2879 185.39 46.1316 184.71 45.8189C184.03 45.5062 183.497 45.0712 183.109 44.5138C182.729 43.9496 182.538 43.3412 182.538 42.6886H184.425C184.459 43.3208 184.71 43.8238 185.179 44.1977C185.655 44.5647 186.28 44.7483 187.055 44.7483C187.769 44.7483 188.34 44.6055 188.768 44.32C189.203 44.0277 189.421 43.6403 189.421 43.1577ZM196.898 32.3802V35.0516H198.958V36.5097H196.898V43.3514C196.898 43.7932 196.99 44.1263 197.173 44.3506C197.357 44.5681 197.669 44.6769 198.111 44.6769C198.329 44.6769 198.628 44.6361 199.009 44.5545V46.084C198.512 46.2199 198.03 46.2879 197.561 46.2879C196.718 46.2879 196.082 46.033 195.654 45.5232C195.226 45.0134 195.012 44.2894 195.012 43.3514V36.5097H193.003V35.0516H195.012V32.3802H196.898ZM207.077 36.7442C206.792 36.6966 206.482 36.6728 206.149 36.6728C204.912 36.6728 204.073 37.1996 203.631 38.2533V46.084H201.744V35.0516H203.58L203.61 36.3262C204.229 35.3405 205.106 34.8477 206.241 34.8477C206.608 34.8477 206.887 34.8953 207.077 34.9904V36.7442ZM213.188 43.3208L215.757 35.0516H217.776L213.341 47.7868C212.654 49.6221 211.563 50.5398 210.068 50.5398L209.711 50.5092L209.007 50.3766V48.8472L209.517 48.888C210.156 48.888 210.652 48.7588 211.006 48.5005C211.366 48.2422 211.662 47.7698 211.893 47.0832L212.311 45.9616L208.375 35.0516H210.435L213.188 43.3208Z" fill="#263238"/>
<g opacity="0.4">
<g opacity="0.8">
<rect x="443.893" y="79.2051" width="14.1934" height="14.1934" rx="7.09668" fill="#56CCF2"/>
</g>
</g>
<path d="M450.634 109.495H446.407L445.457 112.129H444.085L447.938 102.038H449.103L452.963 112.129H451.598L450.634 109.495ZM446.809 108.4H450.239L448.521 103.681L446.809 108.4ZM456.222 112.129H454.891V102.038H456.222V112.129Z" fill="#3498DB"/>
<g opacity="0.8">
<rect x="443.892" y="138.926" width="14.1934" height="14.1934" rx="7.09668" fill="#56CCF2"/>
</g>
<path d="M446.49 171.85H445.159V161.759H446.49V171.85ZM457.165 167.13C457.165 168.119 456.998 168.983 456.666 169.722C456.333 170.457 455.862 171.018 455.252 171.406C454.642 171.794 453.93 171.988 453.117 171.988C452.323 171.988 451.618 171.794 451.003 171.406C450.389 171.013 449.911 170.457 449.569 169.736C449.232 169.01 449.058 168.172 449.049 167.22V166.492C449.049 165.522 449.218 164.665 449.555 163.921C449.892 163.177 450.368 162.609 450.983 162.216C451.602 161.819 452.309 161.62 453.103 161.62C453.912 161.62 454.623 161.817 455.238 162.209C455.857 162.598 456.333 163.164 456.666 163.907C456.998 164.647 457.165 165.508 457.165 166.492V167.13ZM455.841 166.479C455.841 165.282 455.601 164.365 455.12 163.727C454.64 163.085 453.967 162.764 453.103 162.764C452.263 162.764 451.6 163.085 451.114 163.727C450.634 164.365 450.387 165.252 450.373 166.388V167.13C450.373 168.29 450.615 169.202 451.101 169.868C451.59 170.528 452.263 170.859 453.117 170.859C453.977 170.859 454.642 170.547 455.113 169.923C455.584 169.295 455.827 168.396 455.841 167.227V166.479ZM466.412 162.854H463.168V171.85H461.844V162.854H458.608V161.759H466.412V162.854Z" fill="#3498DB"/>
<rect x="443.892" y="198.646" width="14.1934" height="14.1934" rx="7.09668" fill="#3498DB"/>
<path d="M450.634 228.937H446.407L445.457 231.57H444.085L447.938 221.48H449.103L452.963 231.57H451.598L450.634 228.937ZM446.809 227.842H450.239L448.521 223.122L446.809 227.842ZM458.495 227.488H456.125V231.57H454.787V221.48H458.128C459.264 221.48 460.138 221.738 460.748 222.256C461.362 222.773 461.669 223.526 461.669 224.515C461.669 225.144 461.498 225.691 461.156 226.158C460.819 226.624 460.348 226.973 459.743 227.204L462.113 231.487V231.57H460.685L458.495 227.488ZM456.125 226.4H458.169C458.83 226.4 459.355 226.229 459.743 225.887C460.135 225.546 460.332 225.088 460.332 224.515C460.332 223.891 460.145 223.413 459.77 223.081C459.401 222.748 458.865 222.579 458.163 222.575H456.125V226.4ZM464.069 232.437H462.967L467.181 221.48H468.276L464.069 232.437ZM473.676 229.803L476.559 221.48H478.015L474.272 231.57H473.094L469.359 221.48H470.807L473.676 229.803ZM483.547 227.488H481.177V231.57H479.839V221.48H483.18C484.316 221.48 485.19 221.738 485.799 222.256C486.414 222.773 486.721 223.526 486.721 224.515C486.721 225.144 486.55 225.691 486.208 226.158C485.871 226.624 485.4 226.973 484.794 227.204L487.165 231.487V231.57H485.737L483.547 227.488ZM481.177 226.4H483.221C483.882 226.4 484.406 226.229 484.794 225.887C485.187 225.546 485.384 225.088 485.384 224.515C485.384 223.891 485.196 223.413 484.822 223.081C484.453 222.748 483.917 222.579 483.214 222.575H481.177V226.4Z" fill="#3498DB"/>
<g opacity="0.16">
<rect x="443.892" y="258.367" width="14.1934" height="14.1934" rx="7.09668" fill="#3498DB"/>
</g>
<path d="M448.763 286.967H446.393V291.049H445.055V280.958H448.396C449.532 280.958 450.406 281.217 451.016 281.734C451.63 282.252 451.937 283.005 451.937 283.994C451.937 284.622 451.766 285.17 451.424 285.636C451.087 286.103 450.616 286.452 450.011 286.683L452.381 290.966V291.049H450.953L448.763 286.967ZM446.393 285.879H448.437C449.098 285.879 449.623 285.708 450.011 285.366C450.403 285.024 450.6 284.567 450.6 283.994C450.6 283.37 450.413 282.892 450.038 282.559C449.669 282.226 449.133 282.058 448.43 282.053H446.393V285.879ZM453.741 287.23C453.741 286.496 453.884 285.835 454.171 285.248C454.462 284.661 454.864 284.209 455.377 283.89C455.894 283.571 456.483 283.412 457.144 283.412C458.165 283.412 458.99 283.765 459.618 284.472C460.251 285.179 460.567 286.119 460.567 287.293V287.383C460.567 288.113 460.426 288.769 460.145 289.351C459.867 289.928 459.468 290.379 458.946 290.702C458.428 291.026 457.832 291.187 457.158 291.187C456.141 291.187 455.316 290.834 454.684 290.127C454.055 289.42 453.741 288.485 453.741 287.32V287.23ZM455.03 287.383C455.03 288.214 455.222 288.882 455.605 289.386C455.993 289.889 456.511 290.141 457.158 290.141C457.809 290.141 458.327 289.887 458.71 289.379C459.094 288.866 459.285 288.15 459.285 287.23C459.285 286.408 459.089 285.742 458.696 285.234C458.308 284.721 457.791 284.465 457.144 284.465C456.511 284.465 456 284.717 455.612 285.22C455.224 285.724 455.03 286.445 455.03 287.383ZM468.997 287.383C468.997 288.528 468.733 289.45 468.206 290.148C467.68 290.841 466.973 291.187 466.086 291.187C465.139 291.187 464.406 290.852 463.889 290.183L463.826 291.049H462.648V280.404H463.93V284.375C464.448 283.733 465.162 283.412 466.072 283.412C466.982 283.412 467.696 283.756 468.213 284.444C468.735 285.133 468.997 286.075 468.997 287.272V287.383ZM467.714 287.237C467.714 286.364 467.546 285.689 467.209 285.213C466.871 284.738 466.386 284.5 465.753 284.5C464.908 284.5 464.3 284.892 463.93 285.678V288.921C464.323 289.707 464.935 290.099 465.767 290.099C466.381 290.099 466.86 289.861 467.202 289.386C467.543 288.91 467.714 288.194 467.714 287.237ZM470.752 287.23C470.752 286.496 470.895 285.835 471.181 285.248C471.473 284.661 471.874 284.209 472.387 283.89C472.905 283.571 473.494 283.412 474.155 283.412C475.176 283.412 476 283.765 476.629 284.472C477.262 285.179 477.578 286.119 477.578 287.293V287.383C477.578 288.113 477.437 288.769 477.155 289.351C476.878 289.928 476.479 290.379 475.956 290.702C475.439 291.026 474.843 291.187 474.168 291.187C473.152 291.187 472.327 290.834 471.694 290.127C471.066 289.42 470.752 288.485 470.752 287.32V287.23ZM472.041 287.383C472.041 288.214 472.233 288.882 472.616 289.386C473.004 289.889 473.522 290.141 474.168 290.141C474.82 290.141 475.337 289.887 475.721 289.379C476.104 288.866 476.296 288.15 476.296 287.23C476.296 286.408 476.1 285.742 475.707 285.234C475.319 284.721 474.801 284.465 474.155 284.465C473.522 284.465 473.011 284.717 472.623 285.22C472.235 285.724 472.041 286.445 472.041 287.383ZM481.399 281.734V283.55H482.799V284.541H481.399V289.191C481.399 289.492 481.461 289.718 481.586 289.871C481.71 290.019 481.923 290.092 482.223 290.092C482.371 290.092 482.574 290.065 482.833 290.009V291.049C482.496 291.141 482.168 291.187 481.849 291.187C481.276 291.187 480.844 291.014 480.553 290.668C480.262 290.321 480.117 289.829 480.117 289.191V284.541H478.751V283.55H480.117V281.734H481.399ZM486.169 291.049H484.886V283.55H486.169V291.049ZM484.782 281.561C484.782 281.353 484.845 281.178 484.97 281.034C485.099 280.891 485.288 280.82 485.538 280.82C485.787 280.82 485.977 280.891 486.106 281.034C486.236 281.178 486.3 281.353 486.3 281.561C486.3 281.769 486.236 281.942 486.106 282.081C485.977 282.22 485.787 282.289 485.538 282.289C485.288 282.289 485.099 282.22 484.97 282.081C484.845 281.942 484.782 281.769 484.782 281.561ZM491.708 290.141C492.165 290.141 492.565 290.002 492.907 289.725C493.249 289.448 493.438 289.101 493.475 288.686H494.688C494.665 289.115 494.517 289.524 494.244 289.912C493.972 290.3 493.607 290.61 493.149 290.841C492.696 291.072 492.216 291.187 491.708 291.187C490.687 291.187 489.874 290.848 489.268 290.169C488.668 289.485 488.367 288.552 488.367 287.369V287.154C488.367 286.424 488.501 285.775 488.769 285.207C489.037 284.638 489.421 284.197 489.92 283.883C490.423 283.569 491.017 283.412 491.701 283.412C492.542 283.412 493.239 283.663 493.794 284.167C494.353 284.671 494.651 285.324 494.688 286.128H493.475C493.438 285.643 493.253 285.246 492.921 284.936C492.593 284.622 492.186 284.465 491.701 284.465C491.049 284.465 490.543 284.701 490.183 285.172C489.827 285.639 489.649 286.315 489.649 287.202V287.445C489.649 288.309 489.827 288.974 490.183 289.441C490.539 289.908 491.047 290.141 491.708 290.141ZM500.969 289.06C500.969 288.713 500.837 288.445 500.574 288.256C500.315 288.062 499.86 287.896 499.208 287.757C498.561 287.618 498.046 287.452 497.663 287.258C497.284 287.064 497.002 286.833 496.817 286.565C496.637 286.297 496.547 285.978 496.547 285.609C496.547 284.994 496.806 284.474 497.323 284.049C497.845 283.624 498.511 283.412 499.319 283.412C500.169 283.412 500.858 283.631 501.384 284.07C501.916 284.509 502.181 285.07 502.181 285.754H500.892C500.892 285.403 500.742 285.1 500.442 284.846C500.146 284.592 499.772 284.465 499.319 284.465C498.852 284.465 498.487 284.567 498.224 284.77C497.961 284.973 497.829 285.239 497.829 285.567C497.829 285.876 497.952 286.11 498.196 286.267C498.441 286.424 498.883 286.574 499.52 286.717C500.162 286.861 500.682 287.032 501.079 287.23C501.477 287.429 501.77 287.669 501.96 287.951C502.154 288.228 502.251 288.568 502.251 288.97C502.251 289.64 501.983 290.178 501.447 290.584C500.911 290.986 500.215 291.187 499.361 291.187C498.76 291.187 498.229 291.081 497.767 290.869C497.305 290.656 496.942 290.36 496.679 289.982C496.42 289.598 496.291 289.185 496.291 288.741H497.573C497.596 289.171 497.767 289.513 498.086 289.767C498.409 290.016 498.834 290.141 499.361 290.141C499.846 290.141 500.234 290.044 500.525 289.85C500.821 289.651 500.969 289.388 500.969 289.06Z" fill="#3498DB"/>
<g opacity="0.4">
<g opacity="0.8">
<rect x="540.47" y="79.2051" width="14.1934" height="14.1934" rx="7.09668" fill="#56CCF2"/>
</g>
</g>
<path d="M547.213 109.495H542.986L542.036 112.129H540.664L544.518 102.038H545.682L549.542 112.129H548.177L547.213 109.495ZM543.388 108.4H546.818L545.1 103.681L543.388 108.4ZM552.801 112.129H551.471V102.038H552.801V112.129Z" fill="#3498DB"/>
<g opacity="0.8">
<rect x="540.47" y="138.926" width="14.1934" height="14.1934" rx="7.09668" fill="#56CCF2"/>
</g>
<path d="M543.069 171.85H541.738V161.759H543.069V171.85ZM553.744 167.13C553.744 168.119 553.577 168.983 553.245 169.722C552.912 170.457 552.441 171.018 551.831 171.406C551.221 171.794 550.51 171.988 549.696 171.988C548.902 171.988 548.197 171.794 547.583 171.406C546.968 171.013 546.49 170.457 546.148 169.736C545.811 169.01 545.637 168.172 545.628 167.22V166.492C545.628 165.522 545.797 164.665 546.134 163.921C546.471 163.177 546.947 162.609 547.562 162.216C548.181 161.819 548.888 161.62 549.682 161.62C550.491 161.62 551.203 161.817 551.817 162.209C552.436 162.598 552.912 163.164 553.245 163.907C553.577 164.647 553.744 165.508 553.744 166.492V167.13ZM552.42 166.479C552.42 165.282 552.18 164.365 551.699 163.727C551.219 163.085 550.546 162.764 549.682 162.764C548.842 162.764 548.179 163.085 547.693 163.727C547.213 164.365 546.966 165.252 546.952 166.388V167.13C546.952 168.29 547.195 169.202 547.68 169.868C548.169 170.528 548.842 170.859 549.696 170.859C550.556 170.859 551.221 170.547 551.692 169.923C552.164 169.295 552.406 168.396 552.42 167.227V166.479ZM562.991 162.854H559.747V171.85H558.424V162.854H555.187V161.759H562.991V162.854Z" fill="#3498DB"/>
<rect x="540.47" y="198.646" width="14.1934" height="14.1934" rx="7.09668" fill="#3498DB"/>
<path d="M547.213 228.937H542.986L542.036 231.57H540.664L544.518 221.48H545.682L549.542 231.57H548.177L547.213 228.937ZM543.388 227.842H546.818L545.1 223.122L543.388 227.842ZM555.074 227.488H552.704V231.57H551.367V221.48H554.707C555.844 221.48 556.717 221.738 557.327 222.256C557.941 222.773 558.248 223.526 558.248 224.515C558.248 225.144 558.077 225.691 557.736 226.158C557.398 226.624 556.927 226.973 556.322 227.204L558.692 231.487V231.57H557.264L555.074 227.488ZM552.704 226.4H554.749C555.409 226.4 555.934 226.229 556.322 225.887C556.714 225.546 556.911 225.088 556.911 224.515C556.911 223.891 556.724 223.413 556.349 223.081C555.98 222.748 555.444 222.579 554.742 222.575H552.704V226.4ZM560.648 232.437H559.546L563.76 221.48H564.855L560.648 232.437ZM570.255 229.803L573.138 221.48H574.594L570.851 231.57H569.673L565.938 221.48H567.386L570.255 229.803ZM580.126 227.488H577.756V231.57H576.418V221.48H579.759C580.895 221.48 581.769 221.738 582.378 222.256C582.993 222.773 583.3 223.526 583.3 224.515C583.3 225.144 583.129 225.691 582.787 226.158C582.45 226.624 581.979 226.973 581.374 227.204L583.744 231.487V231.57H582.316L580.126 227.488ZM577.756 226.4H579.8C580.461 226.4 580.985 226.229 581.374 225.887C581.766 225.546 581.963 225.088 581.963 224.515C581.963 223.891 581.776 223.413 581.401 223.081C581.032 222.748 580.496 222.579 579.793 222.575H577.756V226.4Z" fill="#3498DB"/>
<g opacity="0.16">
<rect x="540.47" y="258.367" width="14.1934" height="14.1934" rx="7.09668" fill="#3498DB"/>
</g>
<path d="M545.342 286.967H542.972V291.049H541.635V280.958H544.975C546.112 280.958 546.985 281.217 547.595 281.734C548.209 282.252 548.516 283.005 548.516 283.994C548.516 284.622 548.345 285.17 548.004 285.636C547.666 286.103 547.195 286.452 546.59 286.683L548.96 290.966V291.049H547.532L545.342 286.967ZM542.972 285.879H545.017C545.677 285.879 546.202 285.708 546.59 285.366C546.982 285.024 547.179 284.567 547.179 283.994C547.179 283.37 546.992 282.892 546.617 282.559C546.248 282.226 545.712 282.058 545.01 282.053H542.972V285.879ZM550.32 287.23C550.32 286.496 550.463 285.835 550.75 285.248C551.041 284.661 551.443 284.209 551.956 283.89C552.473 283.571 553.062 283.412 553.723 283.412C554.744 283.412 555.569 283.765 556.197 284.472C556.83 285.179 557.146 286.119 557.146 287.293V287.383C557.146 288.113 557.006 288.769 556.724 289.351C556.447 289.928 556.047 290.379 555.525 290.702C555.007 291.026 554.411 291.187 553.737 291.187C552.72 291.187 551.896 290.834 551.263 290.127C550.634 289.42 550.32 288.485 550.32 287.32V287.23ZM551.609 287.383C551.609 288.214 551.801 288.882 552.184 289.386C552.572 289.889 553.09 290.141 553.737 290.141C554.388 290.141 554.906 289.887 555.289 289.379C555.673 288.866 555.864 288.15 555.864 287.23C555.864 286.408 555.668 285.742 555.275 285.234C554.887 284.721 554.37 284.465 553.723 284.465C553.09 284.465 552.579 284.717 552.191 285.22C551.803 285.724 551.609 286.445 551.609 287.383ZM565.576 287.383C565.576 288.528 565.312 289.45 564.786 290.148C564.259 290.841 563.552 291.187 562.665 291.187C561.718 291.187 560.985 290.852 560.468 290.183L560.406 291.049H559.227V280.404H560.51V284.375C561.027 283.733 561.741 283.412 562.651 283.412C563.561 283.412 564.275 283.756 564.793 284.444C565.315 285.133 565.576 286.075 565.576 287.272V287.383ZM564.294 287.237C564.294 286.364 564.125 285.689 563.788 285.213C563.45 284.738 562.965 284.5 562.332 284.5C561.487 284.5 560.879 284.892 560.51 285.678V288.921C560.902 289.707 561.514 290.099 562.346 290.099C562.961 290.099 563.439 289.861 563.781 289.386C564.123 288.91 564.294 288.194 564.294 287.237ZM567.331 287.23C567.331 286.496 567.474 285.835 567.761 285.248C568.052 284.661 568.454 284.209 568.966 283.89C569.484 283.571 570.073 283.412 570.734 283.412C571.755 283.412 572.579 283.765 573.208 284.472C573.841 285.179 574.157 286.119 574.157 287.293V287.383C574.157 288.113 574.016 288.769 573.735 289.351C573.457 289.928 573.058 290.379 572.536 290.702C572.018 291.026 571.422 291.187 570.748 291.187C569.731 291.187 568.906 290.834 568.273 290.127C567.645 289.42 567.331 288.485 567.331 287.32V287.23ZM568.62 287.383C568.62 288.214 568.812 288.882 569.195 289.386C569.583 289.889 570.101 290.141 570.748 290.141C571.399 290.141 571.916 289.887 572.3 289.379C572.683 288.866 572.875 288.15 572.875 287.23C572.875 286.408 572.679 285.742 572.286 285.234C571.898 284.721 571.38 284.465 570.734 284.465C570.101 284.465 569.59 284.717 569.202 285.22C568.814 285.724 568.62 286.445 568.62 287.383ZM577.978 281.734V283.55H579.378V284.541H577.978V289.191C577.978 289.492 578.04 289.718 578.165 289.871C578.29 290.019 578.502 290.092 578.802 290.092C578.95 290.092 579.154 290.065 579.412 290.009V291.049C579.075 291.141 578.747 291.187 578.428 291.187C577.855 291.187 577.423 291.014 577.132 290.668C576.841 290.321 576.696 289.829 576.696 289.191V284.541H575.33V283.55H576.696V281.734H577.978ZM582.748 291.049H581.466V283.55H582.748V291.049ZM581.362 281.561C581.362 281.353 581.424 281.178 581.549 281.034C581.678 280.891 581.867 280.82 582.117 280.82C582.366 280.82 582.556 280.891 582.685 281.034C582.815 281.178 582.879 281.353 582.879 281.561C582.879 281.769 582.815 281.942 582.685 282.081C582.556 282.22 582.366 282.289 582.117 282.289C581.867 282.289 581.678 282.22 581.549 282.081C581.424 281.942 581.362 281.769 581.362 281.561ZM588.287 290.141C588.744 290.141 589.144 290.002 589.486 289.725C589.828 289.448 590.017 289.101 590.054 288.686H591.267C591.244 289.115 591.096 289.524 590.823 289.912C590.551 290.3 590.186 290.61 589.728 290.841C589.276 291.072 588.795 291.187 588.287 291.187C587.266 291.187 586.453 290.848 585.847 290.169C585.247 289.485 584.946 288.552 584.946 287.369V287.154C584.946 286.424 585.08 285.775 585.348 285.207C585.616 284.638 586 284.197 586.499 283.883C587.002 283.569 587.596 283.412 588.28 283.412C589.121 283.412 589.818 283.663 590.373 284.167C590.932 284.671 591.23 285.324 591.267 286.128H590.054C590.017 285.643 589.832 285.246 589.5 284.936C589.172 284.622 588.765 284.465 588.28 284.465C587.628 284.465 587.123 284.701 586.762 285.172C586.406 285.639 586.229 286.315 586.229 287.202V287.445C586.229 288.309 586.406 288.974 586.762 289.441C587.118 289.908 587.626 290.141 588.287 290.141ZM597.548 289.06C597.548 288.713 597.416 288.445 597.153 288.256C596.894 288.062 596.439 287.896 595.787 287.757C595.141 287.618 594.625 287.452 594.242 287.258C593.863 287.064 593.581 286.833 593.396 286.565C593.216 286.297 593.126 285.978 593.126 285.609C593.126 284.994 593.385 284.474 593.902 284.049C594.424 283.624 595.09 283.412 595.898 283.412C596.748 283.412 597.437 283.631 597.963 284.07C598.495 284.509 598.76 285.07 598.76 285.754H597.471C597.471 285.403 597.321 285.1 597.021 284.846C596.725 284.592 596.351 284.465 595.898 284.465C595.432 284.465 595.067 284.567 594.803 284.77C594.54 284.973 594.408 285.239 594.408 285.567C594.408 285.876 594.531 286.11 594.776 286.267C595.02 286.424 595.462 286.574 596.099 286.717C596.741 286.861 597.261 287.032 597.659 287.23C598.056 287.429 598.349 287.669 598.539 287.951C598.733 288.228 598.83 288.568 598.83 288.97C598.83 289.64 598.562 290.178 598.026 290.584C597.49 290.986 596.795 291.187 595.94 291.187C595.339 291.187 594.808 291.081 594.346 290.869C593.884 290.656 593.521 290.36 593.258 289.982C592.999 289.598 592.87 289.185 592.87 288.741H594.152C594.175 289.171 594.346 289.513 594.665 289.767C594.988 290.016 595.413 290.141 595.94 290.141C596.425 290.141 596.813 290.044 597.104 289.85C597.4 289.651 597.548 289.388 597.548 289.06Z" fill="#3498DB"/>
<rect x="54.9648" y="85.7305" width="262.33" height="262.33" rx="131.165" fill="#56CCF2"/>
<g style="mix-blend-mode:overlay">
<path d="M186.13 216.897H317.295C317.295 253.016 302.354 285.715 278.618 309.385L186.13 216.897Z" fill="#ACB9FF"/>
</g>
<g opacity="0.4">
<path d="M186.13 216.892H317.295C317.295 180.773 302.354 148.074 278.618 124.404L186.13 216.892Z" fill="#3498DB"/>
</g>
<path d="M186.129 216.895V85.7298C222.248 85.7298 254.947 100.67 278.617 124.407L186.129 216.895Z" fill="#3498DB"/>
</svg>
