<svg width="58" height="58" viewBox="0 0 58 58" fill="none" xmlns="http://www.w3.org/2000/svg">
<circle cx="29" cy="29" r="29" fill="#3AA959" fill-opacity="0.17"/>
<path d="M28.5747 11C18.8735 11 11 18.8735 11 28.5747C11 38.2759 18.8735 46.1493 28.5747 46.1493C38.2759 46.1493 46.1493 38.2759 46.1493 28.5747C46.1493 18.8735 38.2759 11 28.5747 11ZM34.9191 22.1423C36.7996 22.1423 38.311 23.6538 38.311 25.5343C38.311 27.4147 36.7996 28.9262 34.9191 28.9262C33.0386 28.9262 31.5272 27.4147 31.5272 25.5343C31.5096 23.6538 33.0386 22.1423 34.9191 22.1423ZM24.3743 19.3655C26.659 19.3655 28.5219 21.2285 28.5219 23.5132C28.5219 25.7979 26.659 27.6608 24.3743 27.6608C22.0896 27.6608 20.2267 25.7979 20.2267 23.5132C20.2267 21.2109 22.072 19.3655 24.3743 19.3655ZM24.3743 35.4112V42.0017C20.1564 40.6836 16.8172 37.4323 15.3409 33.2847C17.1863 31.3163 21.7908 30.3146 24.3743 30.3146C25.3058 30.3146 26.4833 30.4552 27.7135 30.7012C24.8313 32.2302 24.3743 34.2513 24.3743 35.4112ZM28.5747 42.6344C28.1002 42.6344 27.6432 42.6168 27.1863 42.5641V35.4112C27.1863 32.9156 32.3532 31.6678 34.9191 31.6678C36.7996 31.6678 40.0509 32.3532 41.6678 33.6889C39.6116 38.9086 34.5325 42.6344 28.5747 42.6344Z" fill="#3AA959"/>
</svg>
