<svg width="38" height="39" viewBox="0 0 38 39" fill="none" xmlns="http://www.w3.org/2000/svg">
<g clip-path="url(#clip0_2249:13517)">
<path d="M3.42794 31.9544C3.72244 32.3978 4.21802 32.6654 4.75002 32.6654H28.5C29.1334 32.6654 29.7065 32.2885 29.9551 31.7059L34.7051 20.6225C34.8092 20.3818 34.8517 20.1189 34.8288 19.8576C34.8059 19.5963 34.7183 19.3448 34.5739 19.1258C34.4296 18.9068 34.2329 18.7272 34.0018 18.6032C33.7707 18.4791 33.5123 18.4146 33.25 18.4154H31.6667V13.6654C31.6667 11.9189 30.2464 10.4987 28.5 10.4987H17.9629L13.9159 7.33203H6.33335C4.58694 7.33203 3.16669 8.75228 3.16669 10.4987V31.082H3.17777C3.17424 31.391 3.2612 31.6943 3.42794 31.9544ZM28.5 13.6654V18.4154H9.50002C8.86669 18.4154 8.29352 18.7922 8.04494 19.3749L6.33335 23.3696V13.6654H28.5Z" fill="#3AA959"/>
</g>
<defs>
<clipPath id="clip0_2249:13517">
<rect width="38" height="38" fill="white" transform="translate(0 0.296875)"/>
</clipPath>
</defs>
</svg>
