<svg width="654" height="372" viewBox="0 0 654 372" fill="none" xmlns="http://www.w3.org/2000/svg">
<rect x="0.712853" y="0.64547" width="651.925" height="370.5" rx="5.80923" fill="white" stroke="#E5E5E5" stroke-width="1.29094"/>
<path d="M32.9753 39.005H29.5261V44.9453H27.5796V30.2609H32.4408C34.0948 30.2609 35.3656 30.6374 36.2531 31.3904C37.1474 32.1435 37.5945 33.2394 37.5945 34.6783C37.5945 35.5927 37.3457 36.3895 36.8482 37.0686C36.3573 37.7477 35.6715 38.2553 34.7907 38.5915L38.24 44.8243V44.9453H36.1623L32.9753 39.005ZM29.5261 37.4216H32.5013C33.4628 37.4216 34.2259 37.1728 34.7907 36.6752C35.3622 36.1777 35.648 35.512 35.648 34.6783C35.648 33.7706 35.3757 33.0747 34.8311 32.5906C34.2932 32.1065 33.5132 31.8611 32.4912 31.8544H29.5261V37.4216ZM45.1215 45.147C43.6423 45.147 42.4387 44.6629 41.5109 43.6947C40.583 42.7198 40.1191 41.4188 40.1191 39.7916V39.4487C40.1191 38.3662 40.3241 37.4014 40.7343 36.5542C41.1512 35.7003 41.7294 35.0347 42.469 34.5573C43.2153 34.0732 44.0222 33.8311 44.8895 33.8311C46.3082 33.8311 47.4109 34.2984 48.1975 35.233C48.9842 36.1676 49.3775 37.5056 49.3775 39.247V40.0236H41.9849C42.0118 41.0994 42.3244 41.9701 42.9228 42.6357C43.528 43.2947 44.2945 43.6241 45.2223 43.6241C45.8812 43.6241 46.4393 43.4896 46.8965 43.2207C47.3537 42.9518 47.7538 42.5954 48.0967 42.1516L49.2363 43.0392C48.3219 44.4444 46.9503 45.147 45.1215 45.147ZM44.8895 35.3641C44.1365 35.3641 43.5044 35.6398 42.9934 36.1911C42.4824 36.7357 42.1664 37.5022 42.0454 38.4906H47.5117V38.3494C47.4579 37.4014 47.2024 36.6685 46.7452 36.1508C46.288 35.6263 45.6694 35.3641 44.8895 35.3641ZM55.5732 42.4139L58.2761 34.0328H60.1823L56.2691 44.9453H54.8471L50.8936 34.0328H52.7997L55.5732 42.4139ZM66.9327 45.147C65.4535 45.147 64.25 44.6629 63.3221 43.6947C62.3942 42.7198 61.9303 41.4188 61.9303 39.7916V39.4487C61.9303 38.3662 62.1354 37.4014 62.5455 36.5542C62.9624 35.7003 63.5406 35.0347 64.2802 34.5573C65.0265 34.0732 65.8334 33.8311 66.7007 33.8311C68.1194 33.8311 69.2221 34.2984 70.0088 35.233C70.7954 36.1676 71.1888 37.5056 71.1888 39.247V40.0236H63.7961C63.823 41.0994 64.1357 41.9701 64.7341 42.6357C65.3392 43.2947 66.1057 43.6241 67.0336 43.6241C67.6925 43.6241 68.2505 43.4896 68.7077 43.2207C69.165 42.9518 69.565 42.5954 69.9079 42.1516L71.0476 43.0392C70.1332 44.4444 68.7615 45.147 66.9327 45.147ZM66.7007 35.3641C65.9477 35.3641 65.3157 35.6398 64.8047 36.1911C64.2937 36.7357 63.9777 37.5022 63.8566 38.4906H69.323V38.3494C69.2692 37.4014 69.0137 36.6685 68.5565 36.1508C68.0993 35.6263 67.4807 35.3641 66.7007 35.3641ZM75.6901 34.0328L75.7506 35.4045C76.5844 34.3556 77.6736 33.8311 79.0183 33.8311C81.3245 33.8311 82.4877 35.1322 82.5079 37.7342V44.9453H80.6421V37.7241C80.6354 36.9375 80.4538 36.3559 80.0975 35.9793C79.7478 35.6028 79.1999 35.4145 78.4535 35.4145C77.8484 35.4145 77.3172 35.5759 76.86 35.8986C76.4028 36.2214 76.0465 36.645 75.791 37.1694V44.9453H73.9252V34.0328H75.6901ZM92.6268 43.8662C91.9007 44.7201 90.835 45.147 89.4297 45.147C88.2666 45.147 87.379 44.8108 86.7672 44.1385C86.1621 43.4594 85.8561 42.4576 85.8494 41.133V34.0328H87.7152V41.0826C87.7152 42.7366 88.3876 43.5636 89.7323 43.5636C91.1577 43.5636 92.1058 43.0324 92.5764 41.9701V34.0328H94.4422V44.9453H92.6672L92.6268 43.8662ZM102.383 45.147C100.904 45.147 99.7 44.6629 98.7721 43.6947C97.8443 42.7198 97.3803 41.4188 97.3803 39.7916V39.4487C97.3803 38.3662 97.5854 37.4014 97.9955 36.5542C98.4124 35.7003 98.9906 35.0347 99.7302 34.5573C100.477 34.0732 101.283 33.8311 102.151 33.8311C103.569 33.8311 104.672 34.2984 105.459 35.233C106.245 36.1676 106.639 37.5056 106.639 39.247V40.0236H99.2461C99.273 41.0994 99.5857 41.9701 100.184 42.6357C100.789 43.2947 101.556 43.6241 102.484 43.6241C103.142 43.6241 103.701 43.4896 104.158 43.2207C104.615 42.9518 105.015 42.5954 105.358 42.1516L106.498 43.0392C105.583 44.4444 104.212 45.147 102.383 45.147ZM102.151 35.3641C101.398 35.3641 100.766 35.6398 100.255 36.1911C99.7437 36.7357 99.4277 37.5022 99.3066 38.4906H104.773V38.3494C104.719 37.4014 104.464 36.6685 104.006 36.1508C103.549 35.6263 102.931 35.3641 102.151 35.3641ZM121.42 42.0508C121.42 41.5465 121.229 41.1565 120.846 40.8809C120.469 40.5985 119.807 40.3564 118.859 40.1547C117.917 39.953 117.168 39.711 116.61 39.4286C116.058 39.1462 115.648 38.81 115.379 38.42C115.117 38.03 114.986 37.5661 114.986 37.0282C114.986 36.134 115.362 35.3776 116.115 34.759C116.875 34.1404 117.843 33.8311 119.02 33.8311C120.257 33.8311 121.259 34.1505 122.026 34.7892C122.799 35.428 123.185 36.2449 123.185 37.24H121.31C121.31 36.729 121.091 36.2886 120.654 35.9188C120.224 35.549 119.679 35.3641 119.02 35.3641C118.341 35.3641 117.81 35.512 117.427 35.8079C117.043 36.1037 116.852 36.4903 116.852 36.9677C116.852 37.4182 117.03 37.7577 117.386 37.9863C117.743 38.2149 118.385 38.4335 119.313 38.6419C120.247 38.8503 121.004 39.0991 121.582 39.3882C122.16 39.6773 122.587 40.027 122.863 40.4371C123.145 40.8405 123.286 41.3347 123.286 41.9197C123.286 42.8946 122.896 43.6779 122.116 44.2696C121.336 44.8545 120.324 45.147 119.081 45.147C118.207 45.147 117.433 44.9924 116.761 44.6831C116.089 44.3738 115.561 43.9435 115.178 43.3922C114.801 42.8341 114.613 42.2323 114.613 41.5869H116.479C116.512 42.2122 116.761 42.7097 117.225 43.0795C117.696 43.4426 118.314 43.6241 119.081 43.6241C119.787 43.6241 120.351 43.4829 120.775 43.2005C121.205 42.9114 121.42 42.5282 121.42 42.0508ZM128.151 35.354C128.978 34.3388 130.053 33.8311 131.378 33.8311C133.684 33.8311 134.847 35.1322 134.868 37.7342V44.9453H133.002V37.7241C132.995 36.9375 132.814 36.3559 132.457 35.9793C132.108 35.6028 131.56 35.4145 130.813 35.4145C130.208 35.4145 129.677 35.5759 129.22 35.8986C128.763 36.2214 128.406 36.645 128.151 37.1694V44.9453H126.285V29.454H128.151V35.354ZM144.966 44.9453C144.859 44.7302 144.771 44.3469 144.704 43.7956C143.837 44.6965 142.801 45.147 141.598 45.147C140.522 45.147 139.638 44.8445 138.945 44.2393C138.26 43.6275 137.917 42.8543 137.917 41.9197C137.917 40.7834 138.347 39.9026 139.208 39.2773C140.075 38.6453 141.292 38.3292 142.859 38.3292H144.674V37.472C144.674 36.8198 144.479 36.3021 144.089 35.9188C143.699 35.5288 143.124 35.3339 142.364 35.3339C141.699 35.3339 141.141 35.502 140.69 35.8381C140.24 36.1743 140.014 36.5811 140.014 37.0585H138.139C138.139 36.5139 138.33 35.9894 138.713 35.4851C139.103 34.9741 139.628 34.5707 140.287 34.2749C140.952 33.979 141.682 33.8311 142.475 33.8311C143.733 33.8311 144.718 34.1471 145.43 34.7792C146.143 35.4045 146.513 36.2684 146.54 37.3711V42.3937C146.54 43.3955 146.667 44.1923 146.923 44.7839V44.9453H144.966ZM141.87 43.5233C142.455 43.5233 143.01 43.372 143.534 43.0694C144.059 42.7669 144.439 42.3735 144.674 41.8894V39.6504H143.212C140.925 39.6504 139.782 40.3194 139.782 41.6575C139.782 42.2424 139.977 42.6996 140.367 43.0291C140.757 43.3585 141.258 43.5233 141.87 43.5233ZM155.307 35.707C155.025 35.66 154.719 35.6364 154.389 35.6364C153.166 35.6364 152.335 36.1575 151.898 37.1997V44.9453H150.033V34.0328H151.848L151.878 35.2935C152.49 34.3186 153.357 33.8311 154.48 33.8311C154.843 33.8311 155.119 33.8782 155.307 33.9723V35.707ZM161.927 45.147C160.447 45.147 159.244 44.6629 158.316 43.6947C157.388 42.7198 156.924 41.4188 156.924 39.7916V39.4487C156.924 38.3662 157.129 37.4014 157.539 36.5542C157.956 35.7003 158.534 35.0347 159.274 34.5573C160.02 34.0732 160.827 33.8311 161.695 33.8311C163.113 33.8311 164.216 34.2984 165.003 35.233C165.789 36.1676 166.183 37.5056 166.183 39.247V40.0236H158.79C158.817 41.0994 159.129 41.9701 159.728 42.6357C160.333 43.2947 161.099 43.6241 162.027 43.6241C162.686 43.6241 163.244 43.4896 163.702 43.2207C164.159 42.9518 164.559 42.5954 164.902 42.1516L166.041 43.0392C165.127 44.4444 163.755 45.147 161.927 45.147ZM161.695 35.3641C160.941 35.3641 160.309 35.6398 159.798 36.1911C159.287 36.7357 158.971 37.5022 158.85 38.4906H164.317V38.3494C164.263 37.4014 164.007 36.6685 163.55 36.1508C163.093 35.6263 162.474 35.3641 161.695 35.3641ZM183.829 39.6101C183.829 41.2708 183.449 42.6088 182.689 43.6241C181.929 44.6394 180.9 45.147 179.603 45.147C178.278 45.147 177.236 44.7268 176.476 43.8863V49.1409H174.61V34.0328H176.315L176.406 35.2431C177.165 34.3018 178.221 33.8311 179.572 33.8311C180.884 33.8311 181.919 34.3253 182.679 35.3137C183.445 36.3021 183.829 37.6771 183.829 39.4386V39.6101ZM181.963 39.3983C181.963 38.1679 181.7 37.1963 181.176 36.4836C180.652 35.7709 179.932 35.4145 179.018 35.4145C177.888 35.4145 177.041 35.9155 176.476 36.9173V42.1315C177.034 43.1266 177.888 43.6241 179.038 43.6241C179.932 43.6241 180.642 43.2711 181.166 42.5651C181.697 41.8524 181.963 40.7968 181.963 39.3983ZM191.305 45.147C189.826 45.147 188.622 44.6629 187.694 43.6947C186.767 42.7198 186.303 41.4188 186.303 39.7916V39.4487C186.303 38.3662 186.508 37.4014 186.918 36.5542C187.335 35.7003 187.913 35.0347 188.653 34.5573C189.399 34.0732 190.206 33.8311 191.073 33.8311C192.492 33.8311 193.594 34.2984 194.381 35.233C195.168 36.1676 195.561 37.5056 195.561 39.247V40.0236H188.168C188.195 41.0994 188.508 41.9701 189.106 42.6357C189.712 43.2947 190.478 43.6241 191.406 43.6241C192.065 43.6241 192.623 43.4896 193.08 43.2207C193.537 42.9518 193.937 42.5954 194.28 42.1516L195.42 43.0392C194.506 44.4444 193.134 45.147 191.305 45.147ZM191.073 35.3641C190.32 35.3641 189.688 35.6398 189.177 36.1911C188.666 36.7357 188.35 37.5022 188.229 38.4906H193.695V38.3494C193.642 37.4014 193.386 36.6685 192.929 36.1508C192.472 35.6263 191.853 35.3641 191.073 35.3641ZM203.572 35.707C203.29 35.66 202.984 35.6364 202.654 35.6364C201.431 35.6364 200.6 36.1575 200.163 37.1997V44.9453H198.298V34.0328H200.113L200.143 35.2935C200.755 34.3186 201.622 33.8311 202.745 33.8311C203.108 33.8311 203.384 33.8782 203.572 33.9723V35.707ZM213.926 44.9453H211.99V30.2609H213.926V44.9453ZM219.517 34.0328L219.577 35.4045C220.411 34.3556 221.5 33.8311 222.845 33.8311C225.151 33.8311 226.315 35.1322 226.335 37.7342V44.9453H224.469V37.7241C224.462 36.9375 224.281 36.3559 223.924 35.9793C223.575 35.6028 223.027 35.4145 222.28 35.4145C221.675 35.4145 221.144 35.5759 220.687 35.8986C220.23 36.2214 219.873 36.645 219.618 37.1694V44.9453H217.752V34.0328H219.517ZM229.263 39.3983C229.263 37.7241 229.659 36.3794 230.453 35.3641C231.246 34.3421 232.285 33.8311 233.569 33.8311C234.847 33.8311 235.859 34.2682 236.605 35.1422V29.454H238.471V44.9453H236.756L236.665 43.7754C235.919 44.6898 234.88 45.147 233.549 45.147C232.285 45.147 231.253 44.6293 230.453 43.5939C229.659 42.5584 229.263 41.207 229.263 39.5395V39.3983ZM231.129 39.6101C231.129 40.8473 231.384 41.8155 231.895 42.5147C232.406 43.214 233.112 43.5636 234.013 43.5636C235.196 43.5636 236.06 43.0324 236.605 41.9701V36.9576C236.047 35.9289 235.19 35.4145 234.033 35.4145C233.119 35.4145 232.406 35.7675 231.895 36.4735C231.384 37.1795 231.129 38.225 231.129 39.6101ZM248.68 43.8662C247.954 44.7201 246.889 45.147 245.483 45.147C244.32 45.147 243.433 44.8108 242.821 44.1385C242.216 43.4594 241.91 42.4576 241.903 41.133V34.0328H243.769V41.0826C243.769 42.7366 244.441 43.5636 245.786 43.5636C247.211 43.5636 248.159 43.0324 248.63 41.9701V34.0328H250.496V44.9453H248.721L248.68 43.8662ZM260.262 42.0508C260.262 41.5465 260.07 41.1565 259.687 40.8809C259.31 40.5985 258.648 40.3564 257.7 40.1547C256.759 39.953 256.009 39.711 255.451 39.4286C254.9 39.1462 254.49 38.81 254.221 38.42C253.958 38.03 253.827 37.5661 253.827 37.0282C253.827 36.134 254.204 35.3776 254.957 34.759C255.717 34.1404 256.685 33.8311 257.861 33.8311C259.099 33.8311 260.1 34.1505 260.867 34.7892C261.64 35.428 262.027 36.2449 262.027 37.24H260.151C260.151 36.729 259.932 36.2886 259.495 35.9188C259.065 35.549 258.52 35.3641 257.861 35.3641C257.182 35.3641 256.651 35.512 256.268 35.8079C255.885 36.1037 255.693 36.4903 255.693 36.9677C255.693 37.4182 255.871 37.7577 256.228 37.9863C256.584 38.2149 257.226 38.4335 258.154 38.6419C259.089 38.8503 259.845 39.0991 260.423 39.3882C261.001 39.6773 261.428 40.027 261.704 40.4371C261.986 40.8405 262.128 41.3347 262.128 41.9197C262.128 42.8946 261.738 43.6779 260.958 44.2696C260.178 44.8545 259.166 45.147 257.922 45.147C257.048 45.147 256.275 44.9924 255.602 44.6831C254.93 44.3738 254.402 43.9435 254.019 43.3922C253.642 42.8341 253.454 42.2323 253.454 41.5869H255.32C255.354 42.2122 255.602 42.7097 256.066 43.0795C256.537 43.4426 257.156 43.6241 257.922 43.6241C258.628 43.6241 259.193 43.4829 259.616 43.2005C260.047 42.9114 260.262 42.5282 260.262 42.0508ZM267.658 31.3904V34.0328H269.695V35.4751H267.658V42.2424C267.658 42.6794 267.748 43.0089 267.93 43.2308C268.112 43.4459 268.421 43.5535 268.858 43.5535C269.073 43.5535 269.369 43.5132 269.745 43.4325V44.9453C269.255 45.0798 268.777 45.147 268.313 45.147C267.48 45.147 266.851 44.8949 266.427 44.3906C266.004 43.8863 265.792 43.1703 265.792 42.2424V35.4751H263.805V34.0328H265.792V31.3904H267.658ZM277.726 35.707C277.444 35.66 277.138 35.6364 276.808 35.6364C275.585 35.6364 274.754 36.1575 274.317 37.1997V44.9453H272.452V34.0328H274.267L274.297 35.2935C274.909 34.3186 275.776 33.8311 276.899 33.8311C277.262 33.8311 277.538 33.8782 277.726 33.9723V35.707ZM283.771 42.2122L286.312 34.0328H288.309L283.922 46.6296C283.243 48.445 282.164 49.3527 280.684 49.3527L280.331 49.3224L279.636 49.1913V47.6785L280.14 47.7188C280.772 47.7188 281.263 47.5911 281.612 47.3356C281.969 47.0801 282.261 46.6128 282.49 45.9337L282.903 44.8243L279.01 34.0328H281.048L283.771 42.2122Z" fill="#263238"/>
<g opacity="0.4">
<g opacity="0.8">
<rect x="438.989" y="77.4551" width="14.0391" height="14.0391" rx="7.01956" fill="#54CA75"/>
</g>
</g>
<path d="M445.656 107.569H441.475L440.536 110.174H439.178L442.99 100.193H444.141L447.96 110.174H446.609L445.656 107.569ZM441.872 106.486H445.266L443.565 101.818L441.872 106.486ZM451.183 110.174H449.867V100.193H451.183V110.174Z" fill="#3AA959"/>
<g opacity="0.8">
<rect x="438.987" y="136.527" width="14.0391" height="14.0391" rx="7.01956" fill="#54CA75"/>
</g>
<path d="M441.557 169.244H440.241V159.263H441.557V169.244ZM452.116 164.576C452.116 165.554 451.951 166.408 451.622 167.14C451.293 167.866 450.827 168.422 450.224 168.805C449.62 169.189 448.917 169.381 448.112 169.381C447.326 169.381 446.629 169.189 446.021 168.805C445.414 168.417 444.941 167.866 444.602 167.153C444.269 166.436 444.097 165.606 444.088 164.665V163.945C444.088 162.985 444.255 162.138 444.589 161.402C444.922 160.666 445.393 160.104 446.001 159.716C446.613 159.323 447.312 159.126 448.099 159.126C448.898 159.126 449.602 159.32 450.21 159.709C450.822 160.093 451.293 160.652 451.622 161.388C451.951 162.119 452.116 162.972 452.116 163.945V164.576ZM450.806 163.931C450.806 162.748 450.569 161.841 450.093 161.21C449.618 160.575 448.953 160.257 448.099 160.257C447.267 160.257 446.611 160.575 446.131 161.21C445.656 161.841 445.411 162.718 445.398 163.842V164.576C445.398 165.723 445.638 166.626 446.117 167.284C446.602 167.937 447.267 168.264 448.112 168.264C448.962 168.264 449.62 167.955 450.086 167.338C450.553 166.717 450.793 165.828 450.806 164.672V163.931ZM461.262 160.346H458.054V169.244H456.745V160.346H453.543V159.263H461.262V160.346Z" fill="#3AA959"/>
<rect x="438.987" y="195.598" width="14.0391" height="14.0391" rx="7.01956" fill="#3AA959"/>
<path d="M445.656 225.711H441.475L440.536 228.316H439.178L442.99 218.335H444.141L447.96 228.316H446.609L445.656 225.711ZM441.872 224.628H445.266L443.565 219.96L441.872 224.628ZM453.432 224.279H451.087V228.316H449.764V218.335H453.068C454.193 218.335 455.056 218.591 455.66 219.103C456.267 219.615 456.571 220.36 456.571 221.338C456.571 221.959 456.402 222.501 456.064 222.963C455.73 223.424 455.264 223.769 454.666 223.998L457.01 228.234V228.316H455.598L453.432 224.279ZM451.087 223.203H453.11C453.763 223.203 454.282 223.033 454.666 222.695C455.054 222.357 455.248 221.905 455.248 221.338C455.248 220.721 455.063 220.248 454.693 219.919C454.327 219.59 453.797 219.423 453.103 219.419H451.087V223.203ZM458.945 229.173H457.855L462.023 218.335H463.106L458.945 229.173ZM468.448 226.568L471.3 218.335H472.739L469.037 228.316H467.872L464.177 218.335H465.61L468.448 226.568ZM478.211 224.279H475.867V228.316H474.544V218.335H477.848C478.972 218.335 479.836 218.591 480.439 219.103C481.047 219.615 481.351 220.36 481.351 221.338C481.351 221.959 481.182 222.501 480.844 222.963C480.51 223.424 480.044 223.769 479.445 223.998L481.79 228.234V228.316H480.378L478.211 224.279ZM475.867 223.203H477.889C478.543 223.203 479.061 223.033 479.445 222.695C479.834 222.357 480.028 221.905 480.028 221.338C480.028 220.721 479.843 220.248 479.473 219.919C479.107 219.59 478.577 219.423 477.882 219.419H475.867V223.203Z" fill="#3AA959"/>
<g opacity="0.16">
<rect x="438.987" y="254.672" width="14.0391" height="14.0391" rx="7.01956" fill="#3AA959"/>
</g>
<path d="M443.805 283.111H441.461V287.148H440.138V277.167H443.442C444.566 277.167 445.43 277.423 446.033 277.935C446.641 278.447 446.945 279.192 446.945 280.17C446.945 280.792 446.776 281.333 446.438 281.795C446.104 282.256 445.638 282.601 445.039 282.83L447.384 287.066V287.148H445.972L443.805 283.111ZM441.461 282.035H443.483C444.137 282.035 444.655 281.865 445.039 281.527C445.428 281.189 445.622 280.737 445.622 280.17C445.622 279.553 445.437 279.08 445.067 278.751C444.701 278.422 444.171 278.255 443.476 278.251H441.461V282.035ZM448.729 283.371C448.729 282.645 448.871 281.991 449.154 281.411C449.442 280.83 449.84 280.383 450.347 280.067C450.859 279.752 451.441 279.594 452.095 279.594C453.105 279.594 453.921 279.944 454.542 280.643C455.168 281.342 455.481 282.272 455.481 283.433V283.522C455.481 284.244 455.342 284.893 455.063 285.469C454.789 286.04 454.394 286.486 453.877 286.806C453.365 287.126 452.776 287.286 452.109 287.286C451.103 287.286 450.288 286.936 449.661 286.237C449.04 285.538 448.729 284.612 448.729 283.46V283.371ZM450.004 283.522C450.004 284.345 450.194 285.005 450.573 285.503C450.957 286.001 451.469 286.25 452.109 286.25C452.753 286.25 453.265 285.999 453.644 285.496C454.024 284.989 454.213 284.281 454.213 283.371C454.213 282.558 454.019 281.9 453.631 281.397C453.247 280.89 452.735 280.636 452.095 280.636C451.469 280.636 450.964 280.885 450.58 281.383C450.196 281.881 450.004 282.594 450.004 283.522ZM463.819 283.522C463.819 284.655 463.558 285.567 463.037 286.257C462.516 286.943 461.817 287.286 460.94 287.286C460.003 287.286 459.279 286.954 458.767 286.292L458.705 287.148H457.54V276.619H458.808V280.547C459.32 279.912 460.026 279.594 460.926 279.594C461.826 279.594 462.532 279.935 463.044 280.616C463.561 281.297 463.819 282.229 463.819 283.412V283.522ZM462.551 283.378C462.551 282.514 462.384 281.847 462.05 281.376C461.717 280.906 461.237 280.67 460.611 280.67C459.774 280.67 459.174 281.059 458.808 281.836V285.044C459.196 285.821 459.802 286.209 460.624 286.209C461.232 286.209 461.705 285.974 462.043 285.503C462.382 285.033 462.551 284.324 462.551 283.378ZM465.555 283.371C465.555 282.645 465.697 281.991 465.98 281.411C466.268 280.83 466.666 280.383 467.173 280.067C467.685 279.752 468.267 279.594 468.921 279.594C469.931 279.594 470.747 279.944 471.368 280.643C471.994 281.342 472.307 282.272 472.307 283.433V283.522C472.307 284.244 472.168 284.893 471.889 285.469C471.615 286.04 471.22 286.486 470.703 286.806C470.191 287.126 469.602 287.286 468.935 287.286C467.929 287.286 467.113 286.936 466.487 286.237C465.866 285.538 465.555 284.612 465.555 283.46V283.371ZM466.83 283.522C466.83 284.345 467.02 285.005 467.399 285.503C467.783 286.001 468.295 286.25 468.935 286.25C469.579 286.25 470.091 285.999 470.47 285.496C470.849 284.989 471.039 284.281 471.039 283.371C471.039 282.558 470.845 281.9 470.456 281.397C470.073 280.89 469.561 280.636 468.921 280.636C468.295 280.636 467.79 280.885 467.406 281.383C467.022 281.881 466.83 282.594 466.83 283.522ZM476.086 277.935V279.731H477.471V280.712H476.086V285.311C476.086 285.608 476.148 285.832 476.271 285.983C476.395 286.129 476.605 286.202 476.902 286.202C477.048 286.202 477.249 286.175 477.505 286.12V287.148C477.172 287.24 476.847 287.286 476.532 287.286C475.965 287.286 475.538 287.114 475.25 286.771C474.962 286.429 474.818 285.942 474.818 285.311V280.712H473.468V279.731H474.818V277.935H476.086ZM480.804 287.148H479.536V279.731H480.804V287.148ZM479.433 277.764C479.433 277.558 479.495 277.385 479.618 277.243C479.746 277.101 479.934 277.03 480.181 277.03C480.427 277.03 480.615 277.101 480.743 277.243C480.871 277.385 480.935 277.558 480.935 277.764C480.935 277.97 480.871 278.141 480.743 278.278C480.615 278.415 480.427 278.484 480.181 278.484C479.934 278.484 479.746 278.415 479.618 278.278C479.495 278.141 479.433 277.97 479.433 277.764ZM486.283 286.25C486.736 286.25 487.131 286.113 487.469 285.839C487.807 285.565 487.995 285.222 488.031 284.811H489.231C489.208 285.236 489.062 285.64 488.792 286.024C488.523 286.408 488.162 286.714 487.709 286.943C487.261 287.171 486.786 287.286 486.283 287.286C485.273 287.286 484.469 286.95 483.87 286.278C483.276 285.601 482.979 284.678 482.979 283.508V283.296C482.979 282.574 483.112 281.932 483.377 281.37C483.642 280.808 484.021 280.371 484.515 280.06C485.013 279.75 485.6 279.594 486.277 279.594C487.108 279.594 487.798 279.843 488.347 280.341C488.9 280.84 489.194 281.486 489.231 282.281H488.031C487.995 281.802 487.812 281.408 487.483 281.102C487.159 280.792 486.756 280.636 486.277 280.636C485.632 280.636 485.132 280.869 484.775 281.335C484.423 281.797 484.247 282.466 484.247 283.344V283.584C484.247 284.438 484.423 285.096 484.775 285.558C485.127 286.02 485.63 286.25 486.283 286.25ZM495.444 285.181C495.444 284.838 495.313 284.573 495.053 284.386C494.797 284.194 494.347 284.029 493.702 283.892C493.063 283.755 492.553 283.591 492.174 283.399C491.799 283.207 491.52 282.978 491.337 282.713C491.159 282.448 491.07 282.133 491.07 281.767C491.07 281.159 491.326 280.645 491.838 280.225C492.354 279.804 493.012 279.594 493.812 279.594C494.653 279.594 495.334 279.811 495.855 280.245C496.38 280.68 496.643 281.235 496.643 281.911H495.368C495.368 281.564 495.22 281.265 494.923 281.013C494.63 280.762 494.26 280.636 493.812 280.636C493.35 280.636 492.989 280.737 492.729 280.938C492.468 281.139 492.338 281.402 492.338 281.726C492.338 282.032 492.459 282.263 492.702 282.418C492.944 282.574 493.38 282.722 494.011 282.864C494.646 283.006 495.16 283.175 495.553 283.371C495.946 283.568 496.236 283.805 496.424 284.084C496.616 284.358 496.712 284.694 496.712 285.092C496.712 285.755 496.447 286.287 495.917 286.689C495.386 287.087 494.699 287.286 493.853 287.286C493.259 287.286 492.733 287.18 492.276 286.97C491.819 286.76 491.461 286.468 491.2 286.093C490.944 285.713 490.816 285.304 490.816 284.866H492.085C492.107 285.291 492.276 285.629 492.592 285.88C492.912 286.127 493.332 286.25 493.853 286.25C494.333 286.25 494.717 286.154 495.005 285.963C495.297 285.766 495.444 285.506 495.444 285.181Z" fill="#3AA959"/>
<g opacity="0.4">
<g opacity="0.8">
<rect x="534.518" y="77.4551" width="14.0391" height="14.0391" rx="7.01956" fill="#54CA75"/>
</g>
</g>
<path d="M541.187 107.569H537.005L536.066 110.174H534.709L538.52 100.193H539.672L543.49 110.174H542.139L541.187 107.569ZM537.403 106.486H540.796L539.096 101.818L537.403 106.486ZM546.714 110.174H545.397V100.193H546.714V110.174Z" fill="#3AA959"/>
<g opacity="0.8">
<rect x="534.517" y="136.527" width="14.0391" height="14.0391" rx="7.01956" fill="#54CA75"/>
</g>
<path d="M537.087 169.244H535.771V159.263H537.087V169.244ZM547.646 164.576C547.646 165.554 547.481 166.408 547.152 167.14C546.823 167.866 546.357 168.422 545.754 168.805C545.151 169.189 544.447 169.381 543.642 169.381C542.856 169.381 542.16 169.189 541.552 168.805C540.944 168.417 540.471 167.866 540.133 167.153C539.799 166.436 539.628 165.606 539.619 164.665V163.945C539.619 162.985 539.785 162.138 540.119 161.402C540.453 160.666 540.923 160.104 541.531 159.716C542.144 159.323 542.843 159.126 543.629 159.126C544.429 159.126 545.132 159.32 545.74 159.709C546.353 160.093 546.823 160.652 547.152 161.388C547.481 162.119 547.646 162.972 547.646 163.945V164.576ZM546.337 163.931C546.337 162.748 546.099 161.841 545.624 161.21C545.148 160.575 544.483 160.257 543.629 160.257C542.797 160.257 542.141 160.575 541.661 161.21C541.186 161.841 540.942 162.718 540.928 163.842V164.576C540.928 165.723 541.168 166.626 541.648 167.284C542.132 167.937 542.797 168.264 543.642 168.264C544.493 168.264 545.151 167.955 545.617 167.338C546.083 166.717 546.323 165.828 546.337 164.672V163.931ZM556.792 160.346H553.584V169.244H552.275V160.346H549.074V159.263H556.792V160.346Z" fill="#3AA959"/>
<rect x="534.517" y="195.598" width="14.0391" height="14.0391" rx="7.01956" fill="#3AA959"/>
<path d="M541.187 225.711H537.005L536.066 228.316H534.709L538.52 218.335H539.672L543.49 228.316H542.139L541.187 225.711ZM537.403 224.628H540.796L539.096 219.96L537.403 224.628ZM548.962 224.279H546.618V228.316H545.295V218.335H548.599C549.723 218.335 550.587 218.591 551.19 219.103C551.798 219.615 552.102 220.36 552.102 221.338C552.102 221.959 551.933 222.501 551.594 222.963C551.261 223.424 550.795 223.769 550.196 223.998L552.54 228.234V228.316H551.128L548.962 224.279ZM546.618 223.203H548.64C549.293 223.203 549.812 223.033 550.196 222.695C550.584 222.357 550.779 221.905 550.779 221.338C550.779 220.721 550.593 220.248 550.223 219.919C549.858 219.59 549.328 219.423 548.633 219.419H546.618V223.203ZM554.475 229.173H553.385L557.553 218.335H558.636L554.475 229.173ZM563.978 226.568L566.83 218.335H568.269L564.568 228.316H563.402L559.708 218.335H561.14L563.978 226.568ZM573.742 224.279H571.397V228.316H570.074V218.335H573.378C574.503 218.335 575.366 218.591 575.969 219.103C576.577 219.615 576.881 220.36 576.881 221.338C576.881 221.959 576.712 222.501 576.374 222.963C576.04 223.424 575.574 223.769 574.976 223.998L577.32 228.234V228.316H575.908L573.742 224.279ZM571.397 223.203H573.419C574.073 223.203 574.592 223.033 574.976 222.695C575.364 222.357 575.558 221.905 575.558 221.338C575.558 220.721 575.373 220.248 575.003 219.919C574.637 219.59 574.107 219.423 573.413 219.419H571.397V223.203Z" fill="#3AA959"/>
<g opacity="0.16">
<rect x="534.517" y="254.672" width="14.0391" height="14.0391" rx="7.01956" fill="#3AA959"/>
</g>
<path d="M539.336 283.111H536.991V287.148H535.668V277.167H538.972C540.097 277.167 540.96 277.423 541.564 277.935C542.171 278.447 542.475 279.192 542.475 280.17C542.475 280.792 542.306 281.333 541.968 281.795C541.634 282.256 541.168 282.601 540.57 282.83L542.914 287.066V287.148H541.502L539.336 283.111ZM536.991 282.035H539.014C539.667 282.035 540.186 281.865 540.57 281.527C540.958 281.189 541.152 280.737 541.152 280.17C541.152 279.553 540.967 279.08 540.597 278.751C540.231 278.422 539.701 278.255 539.007 278.251H536.991V282.035ZM544.259 283.371C544.259 282.645 544.401 281.991 544.684 281.411C544.972 280.83 545.37 280.383 545.877 280.067C546.389 279.752 546.972 279.594 547.625 279.594C548.635 279.594 549.451 279.944 550.073 280.643C550.699 281.342 551.012 282.272 551.012 283.433V283.522C551.012 284.244 550.872 284.893 550.593 285.469C550.319 286.04 549.924 286.486 549.408 286.806C548.896 287.126 548.306 287.286 547.639 287.286C546.634 287.286 545.818 286.936 545.192 286.237C544.57 285.538 544.259 284.612 544.259 283.46V283.371ZM545.534 283.522C545.534 284.345 545.724 285.005 546.103 285.503C546.487 286.001 546.999 286.25 547.639 286.25C548.283 286.25 548.795 285.999 549.175 285.496C549.554 284.989 549.743 284.281 549.743 283.371C549.743 282.558 549.549 281.9 549.161 281.397C548.777 280.89 548.265 280.636 547.625 280.636C546.999 280.636 546.494 280.885 546.11 281.383C545.726 281.881 545.534 282.594 545.534 283.522ZM559.349 283.522C559.349 284.655 559.089 285.567 558.568 286.257C558.047 286.943 557.348 287.286 556.47 287.286C555.533 287.286 554.809 286.954 554.297 286.292L554.235 287.148H553.07V276.619H554.338V280.547C554.85 279.912 555.556 279.594 556.456 279.594C557.357 279.594 558.063 279.935 558.575 280.616C559.091 281.297 559.349 282.229 559.349 283.412V283.522ZM558.081 283.378C558.081 282.514 557.914 281.847 557.581 281.376C557.247 280.906 556.767 280.67 556.141 280.67C555.305 280.67 554.704 281.059 554.338 281.836V285.044C554.727 285.821 555.332 286.209 556.155 286.209C556.763 286.209 557.236 285.974 557.574 285.503C557.912 285.033 558.081 284.324 558.081 283.378ZM561.085 283.371C561.085 282.645 561.227 281.991 561.51 281.411C561.798 280.83 562.196 280.383 562.703 280.067C563.215 279.752 563.798 279.594 564.451 279.594C565.461 279.594 566.277 279.944 566.898 280.643C567.525 281.342 567.838 282.272 567.838 283.433V283.522C567.838 284.244 567.698 284.893 567.419 285.469C567.145 286.04 566.75 286.486 566.233 286.806C565.722 287.126 565.132 287.286 564.465 287.286C563.459 287.286 562.644 286.936 562.018 286.237C561.396 285.538 561.085 284.612 561.085 283.46V283.371ZM562.36 283.522C562.36 284.345 562.55 285.005 562.929 285.503C563.313 286.001 563.825 286.25 564.465 286.25C565.109 286.25 565.621 285.999 566 285.496C566.38 284.989 566.569 284.281 566.569 283.371C566.569 282.558 566.375 281.9 565.987 281.397C565.603 280.89 565.091 280.636 564.451 280.636C563.825 280.636 563.32 280.885 562.936 281.383C562.552 281.881 562.36 282.594 562.36 283.522ZM571.617 277.935V279.731H573.001V280.712H571.617V285.311C571.617 285.608 571.678 285.832 571.802 285.983C571.925 286.129 572.135 286.202 572.432 286.202C572.579 286.202 572.78 286.175 573.036 286.12V287.148C572.702 287.24 572.377 287.286 572.062 287.286C571.495 287.286 571.068 287.114 570.78 286.771C570.492 286.429 570.348 285.942 570.348 285.311V280.712H568.998V279.731H570.348V277.935H571.617ZM576.335 287.148H575.066V279.731H576.335V287.148ZM574.964 277.764C574.964 277.558 575.025 277.385 575.149 277.243C575.277 277.101 575.464 277.03 575.711 277.03C575.958 277.03 576.145 277.101 576.273 277.243C576.401 277.385 576.465 277.558 576.465 277.764C576.465 277.97 576.401 278.141 576.273 278.278C576.145 278.415 575.958 278.484 575.711 278.484C575.464 278.484 575.277 278.415 575.149 278.278C575.025 278.141 574.964 277.97 574.964 277.764ZM581.814 286.25C582.266 286.25 582.661 286.113 583 285.839C583.338 285.565 583.525 285.222 583.562 284.811H584.761C584.738 285.236 584.592 285.64 584.323 286.024C584.053 286.408 583.692 286.714 583.239 286.943C582.792 287.171 582.316 287.286 581.814 287.286C580.804 287.286 579.999 286.95 579.401 286.278C578.807 285.601 578.51 284.678 578.51 283.508V283.296C578.51 282.574 578.642 281.932 578.907 281.37C579.172 280.808 579.551 280.371 580.045 280.06C580.543 279.75 581.13 279.594 581.807 279.594C582.639 279.594 583.329 279.843 583.877 280.341C584.43 280.84 584.725 281.486 584.761 282.281H583.562C583.525 281.802 583.342 281.408 583.013 281.102C582.689 280.792 582.287 280.636 581.807 280.636C581.162 280.636 580.662 280.869 580.306 281.335C579.954 281.797 579.778 282.466 579.778 283.344V283.584C579.778 284.438 579.954 285.096 580.306 285.558C580.657 286.02 581.16 286.25 581.814 286.25ZM590.974 285.181C590.974 284.838 590.844 284.573 590.583 284.386C590.327 284.194 589.877 284.029 589.233 283.892C588.593 283.755 588.083 283.591 587.704 283.399C587.329 283.207 587.05 282.978 586.868 282.713C586.689 282.448 586.6 282.133 586.6 281.767C586.6 281.159 586.856 280.645 587.368 280.225C587.884 279.804 588.543 279.594 589.342 279.594C590.183 279.594 590.864 279.811 591.385 280.245C591.911 280.68 592.173 281.235 592.173 281.911H590.898C590.898 281.564 590.75 281.265 590.453 281.013C590.16 280.762 589.79 280.636 589.342 280.636C588.881 280.636 588.52 280.737 588.259 280.938C587.999 281.139 587.868 281.402 587.868 281.726C587.868 282.032 587.99 282.263 588.232 282.418C588.474 282.574 588.91 282.722 589.541 282.864C590.176 283.006 590.69 283.175 591.083 283.371C591.476 283.568 591.767 283.805 591.954 284.084C592.146 284.358 592.242 284.694 592.242 285.092C592.242 285.755 591.977 286.287 591.447 286.689C590.917 287.087 590.229 287.286 589.383 287.286C588.789 287.286 588.264 287.18 587.807 286.97C587.35 286.76 586.991 286.468 586.731 286.093C586.475 285.713 586.347 285.304 586.347 284.866H587.615C587.638 285.291 587.807 285.629 588.122 285.88C588.442 286.127 588.862 286.25 589.383 286.25C589.863 286.25 590.247 286.154 590.535 285.963C590.828 285.766 590.974 285.506 590.974 285.181Z" fill="#3AA959"/>
<rect x="54.2871" y="83.9102" width="259.479" height="259.479" rx="129.739" fill="#54CA75"/>
<g style="mix-blend-mode:overlay">
<path d="M184.026 213.65H313.765C313.765 249.376 298.987 281.72 275.509 305.133L184.026 213.65Z" fill="#1A3F24" fill-opacity="0.71"/>
</g>
<g opacity="0.4">
<path d="M184.026 213.647H313.765C313.765 177.921 298.987 145.577 275.509 122.164L184.026 213.647Z" fill="#3AA959"/>
</g>
<path d="M184.026 213.65V83.9109C219.753 83.9109 252.097 98.6892 275.509 122.167L184.026 213.65Z" fill="#3AA959"/>
</svg>
