<svg width="58" height="58" viewBox="0 0 58 58" fill="none" xmlns="http://www.w3.org/2000/svg">
<circle cx="29" cy="29" r="29" fill="#3AA959" fill-opacity="0.17"/>
<path d="M40.9909 19.6645C39.5114 19.198 37.8852 18.998 36.3257 18.998C33.7266 18.998 30.9275 19.5312 28.9948 20.9974C27.0621 19.5312 24.263 18.998 21.6638 18.998C19.0647 18.998 16.2656 19.5312 14.3329 20.9974V40.5244C14.3329 40.8576 14.6661 41.1908 14.9993 41.1908C15.1326 41.1908 15.1993 41.1242 15.3326 41.1242C17.132 40.2578 19.7311 39.658 21.6638 39.658C24.263 39.658 27.0621 40.1911 28.9948 41.6573C30.7942 40.5244 34.0598 39.658 36.3257 39.658C38.525 39.658 40.7909 40.0579 42.657 41.0575C42.7903 41.1242 42.8569 41.1242 42.9902 41.1242C43.3234 41.1242 43.6567 40.791 43.6567 40.4577V20.9974C42.8569 20.3976 41.9905 19.9977 40.9909 19.6645ZM40.9909 37.6586C39.5247 37.1921 37.9252 36.9922 36.3257 36.9922C34.0598 36.9922 30.7942 37.8586 28.9948 38.9915V23.6632C30.7942 22.5302 34.0598 21.6638 36.3257 21.6638C37.9252 21.6638 39.5247 21.8638 40.9909 22.3303V37.6586Z" fill="#3AA959"/>
</svg>
