<svg width="25" height="25" viewBox="0 0 37 36" fill="none" xmlns="http://www.w3.org/2000/svg">
<rect width="35.8718" height="35.8718" transform="translate(0.791016 0.0527344)" fill="white" fill-opacity="0.01"/>
<path fill-rule="evenodd" clip-rule="evenodd" d="M18.2802 25.0129C17.2896 25.0269 16.3061 24.8439 15.3869 24.4745C14.4676 24.1051 13.631 23.5567 12.9255 22.8612C12.22 22.1656 11.6599 21.3368 11.2775 20.4228C10.8951 19.5089 10.6982 18.5281 10.6982 17.5374C10.6982 16.5467 10.8951 15.5659 11.2775 14.652C11.6599 13.738 12.22 12.9092 12.9255 12.2136C13.631 11.5181 14.4676 10.9697 15.3869 10.6003C16.3061 10.2309 17.2896 10.0479 18.2802 10.0619C20.2631 10.0619 22.1647 10.8496 23.5667 12.2516C24.9688 13.6537 25.7565 15.5553 25.7565 17.5381C25.7565 19.521 24.9688 21.4226 23.5667 22.8247C22.1647 24.2267 20.2631 25.0144 18.2802 25.0144V25.0129ZM30.7875 20.3556C30.2007 20.1537 29.6915 19.7738 29.3309 19.2687C28.9702 18.7637 28.7762 18.1587 28.7757 17.5381C28.7757 16.2288 29.6172 15.1273 30.786 14.7207C30.9585 14.6639 31.103 14.5437 31.1904 14.3845C31.2778 14.2253 31.3015 14.0388 31.2568 13.8628C30.9622 12.823 30.5426 11.8227 30.0073 10.8839C29.919 10.7352 29.7797 10.6236 29.6152 10.57C29.4508 10.5164 29.2725 10.5244 29.1135 10.5925C28.5007 10.8403 27.8241 10.8822 27.1854 10.7121C26.684 10.5781 26.2264 10.3151 25.8582 9.94924C25.49 9.58342 25.2241 9.12755 25.0869 8.62701C24.9125 7.9857 24.9524 7.30498 25.2005 6.68844C25.2677 6.52941 25.2751 6.35142 25.2212 6.18738C25.1674 6.02334 25.0559 5.88436 24.9075 5.79613C23.9763 5.26836 22.9853 4.85389 21.9556 4.56154C21.7797 4.5164 21.5933 4.53977 21.434 4.6269C21.2747 4.71404 21.1545 4.85843 21.0976 5.03086C20.8958 5.61768 20.5158 6.12689 20.0108 6.48751C19.5058 6.84814 18.9008 7.04221 18.2802 7.04267C17.66 7.04223 17.0554 6.84832 16.5507 6.48797C16.0459 6.12762 15.6661 5.61878 15.4643 5.03236C15.4068 4.85995 15.2863 4.71563 15.127 4.62832C14.9676 4.54101 14.7811 4.51715 14.6049 4.56154C13.5466 4.86047 12.5437 5.28645 11.6096 5.82004C11.464 5.90533 11.354 6.04017 11.2997 6.19989C11.2453 6.35962 11.2503 6.53356 11.3136 6.68993C11.5367 7.23371 11.5947 7.83114 11.4804 8.40768C11.3661 8.98422 11.0846 9.51433 10.6709 9.93185C10.2572 10.3494 9.72967 10.6358 9.15421 10.7554C8.57875 10.875 7.9808 10.8225 7.43499 10.6044C7.27632 10.538 7.09902 10.5311 6.93565 10.5849C6.77228 10.6387 6.63381 10.7497 6.54567 10.8974C6.01175 11.8369 5.59369 12.8376 5.30062 13.8777C5.25624 14.052 5.27893 14.2366 5.36419 14.3949C5.44945 14.5533 5.59106 14.6738 5.76098 14.7327C6.33945 14.9396 6.83987 15.3202 7.19382 15.8224C7.54778 16.3245 7.73797 16.9238 7.73841 17.5381C7.73841 18.834 6.91336 19.9281 5.75948 20.3436C5.59 20.4022 5.44866 20.5222 5.36342 20.68C5.27817 20.8377 5.25523 21.0217 5.29913 21.1956C5.56227 22.1236 5.92457 23.0206 6.37977 23.871C6.46912 24.029 6.61535 24.1469 6.78865 24.2008C6.96195 24.2547 7.14927 24.2404 7.31243 24.161C8.20175 23.7529 9.31976 23.7664 10.4572 24.5167C10.6321 24.6318 10.7935 24.7932 10.9086 24.9651C11.6963 26.1608 11.6738 27.3267 11.2045 28.2354C11.1185 28.3943 11.0966 28.5801 11.1433 28.7547C11.19 28.9293 11.3017 29.0793 11.4556 29.174C12.445 29.7544 13.5049 30.205 14.6093 30.5148C14.7842 30.5601 14.9698 30.5369 15.1282 30.45C15.2866 30.363 15.4057 30.2188 15.4613 30.0469C15.6615 29.4579 16.0409 28.9463 16.5464 28.5836C17.0519 28.221 17.6581 28.0256 18.2802 28.0247C19.5925 28.0247 20.6986 28.8721 21.1006 30.0469C21.1565 30.2186 21.2757 30.3626 21.434 30.4495C21.5923 30.5364 21.7777 30.5597 21.9526 30.5148C23.0425 30.2082 24.0891 29.7647 25.0675 29.195C25.2223 29.0999 25.3345 28.949 25.381 28.7734C25.4275 28.5978 25.4046 28.411 25.3171 28.2518C24.8418 27.3431 24.8134 26.1698 25.6025 24.9711C25.7176 24.7977 25.8791 24.6348 26.0539 24.5197C27.2078 23.7559 28.3363 23.7529 29.2301 24.1759C29.3932 24.2577 29.5814 24.2738 29.756 24.2209C29.9306 24.1681 30.0783 24.0504 30.1687 23.8919C30.6275 23.0407 30.9923 22.1421 31.2568 21.212C31.3019 21.0364 31.2785 20.8501 31.1913 20.6911C31.1042 20.532 30.9598 20.4121 30.7875 20.3556Z" fill="#676767"/>
</svg>
