<svg width="484" height="270" viewBox="0 0 484 270" fill="none" xmlns="http://www.w3.org/2000/svg">
<rect x="0.469113" y="0.469113" width="479.062" height="269.062" rx="4.22202" fill="white" stroke="#E5E5E5" stroke-width="0.938226"/>
<path d="M30.2036 251.476V255.558C30.2036 256.012 30.0636 256.377 29.7836 256.651C29.5036 256.921 29.1338 257.055 28.6742 257.055C28.2092 257.055 27.8368 256.918 27.5568 256.643C27.2768 256.363 27.1368 255.983 27.1368 255.502H27.8579C27.8632 255.772 27.9319 255.991 28.0639 256.16C28.2013 256.329 28.4047 256.414 28.6742 256.414C28.9436 256.414 29.1444 256.334 29.2764 256.176C29.4085 256.012 29.4746 255.806 29.4746 255.558V251.476H30.2036ZM31.3549 254.813C31.3549 254.369 31.4447 253.981 31.6243 253.648C31.804 253.31 32.0496 253.048 32.3613 252.863C32.6783 252.678 33.0297 252.586 33.4153 252.586C33.7957 252.586 34.1259 252.668 34.4059 252.832C34.6859 252.995 34.8946 253.201 35.032 253.45V252.657H35.7611V257H35.032V256.192C34.8893 256.445 34.6754 256.657 34.3901 256.826C34.1101 256.989 33.7825 257.071 33.4074 257.071C33.0217 257.071 32.673 256.976 32.3613 256.786C32.0496 256.596 31.804 256.329 31.6243 255.986C31.4447 255.642 31.3549 255.251 31.3549 254.813ZM35.032 254.821C35.032 254.493 34.9659 254.208 34.8339 253.965C34.7018 253.722 34.5222 253.537 34.295 253.41C34.0731 253.278 33.8274 253.212 33.558 253.212C33.2885 253.212 33.0429 253.275 32.821 253.402C32.5991 253.529 32.4221 253.714 32.29 253.957C32.1579 254.2 32.0919 254.485 32.0919 254.813C32.0919 255.146 32.1579 255.436 32.29 255.684C32.4221 255.928 32.5991 256.115 32.821 256.247C33.0429 256.374 33.2885 256.437 33.558 256.437C33.8274 256.437 34.0731 256.374 34.295 256.247C34.5222 256.115 34.7018 255.928 34.8339 255.684C34.9659 255.436 35.032 255.148 35.032 254.821ZM39.0957 252.578C39.624 252.578 40.0519 252.739 40.3795 253.061C40.707 253.378 40.8708 253.838 40.8708 254.44V257H40.1576V254.543C40.1576 254.11 40.0493 253.78 39.8327 253.553C39.616 253.32 39.3202 253.204 38.9451 253.204C38.5647 253.204 38.2609 253.323 38.0337 253.561C37.8118 253.798 37.7009 254.144 37.7009 254.599V257H36.9797V252.657H37.7009V253.275C37.8435 253.053 38.0364 252.882 38.2794 252.76C38.5277 252.639 38.7998 252.578 39.0957 252.578ZM45.9002 252.657V257H45.1791V256.358C45.0417 256.58 44.8489 256.754 44.6006 256.881C44.3576 257.003 44.0881 257.063 43.7923 257.063C43.4541 257.063 43.1504 256.995 42.8809 256.857C42.6115 256.715 42.3975 256.503 42.239 256.223C42.0858 255.943 42.0092 255.603 42.0092 255.201V252.657H42.7224V255.106C42.7224 255.534 42.8307 255.864 43.0473 256.097C43.2639 256.324 43.5598 256.437 43.9349 256.437C44.3206 256.437 44.6244 256.318 44.8463 256.081C45.0681 255.843 45.1791 255.497 45.1791 255.043V252.657H45.9002ZM46.8484 254.813C46.8484 254.369 46.9382 253.981 47.1179 253.648C47.2975 253.31 47.5432 253.048 47.8549 252.863C48.1719 252.678 48.5232 252.586 48.9089 252.586C49.2893 252.586 49.6195 252.668 49.8995 252.832C50.1795 252.995 50.3882 253.201 50.5255 253.45V252.657H51.2546V257H50.5255V256.192C50.3829 256.445 50.1689 256.657 49.8836 256.826C49.6036 256.989 49.2761 257.071 48.9009 257.071C48.5153 257.071 48.1666 256.976 47.8549 256.786C47.5432 256.596 47.2975 256.329 47.1179 255.986C46.9382 255.642 46.8484 255.251 46.8484 254.813ZM50.5255 254.821C50.5255 254.493 50.4595 254.208 50.3274 253.965C50.1953 253.722 50.0157 253.537 49.7885 253.41C49.5666 253.278 49.321 253.212 49.0515 253.212C48.7821 253.212 48.5364 253.275 48.3145 253.402C48.0926 253.529 47.9156 253.714 47.7836 253.957C47.6515 254.2 47.5854 254.485 47.5854 254.813C47.5854 255.146 47.6515 255.436 47.7836 255.684C47.9156 255.928 48.0926 256.115 48.3145 256.247C48.5364 256.374 48.7821 256.437 49.0515 256.437C49.321 256.437 49.5666 256.374 49.7885 256.247C50.0157 256.115 50.1953 255.928 50.3274 255.684C50.4595 255.436 50.5255 255.148 50.5255 254.821ZM53.1944 253.363C53.3212 253.114 53.5009 252.921 53.7333 252.784C53.9711 252.647 54.259 252.578 54.5971 252.578V253.323H54.4069C53.5986 253.323 53.1944 253.761 53.1944 254.638V257H52.4733V252.657H53.1944V253.363ZM59.1701 252.657L56.5549 259.045H55.81L56.6659 256.952L54.9145 252.657H55.7149L57.0779 256.176L58.4252 252.657H59.1701Z" fill="#92959E"/>
<path d="M111.468 251.476V252.063H109.067V253.925H111.017V254.512H109.067V257H108.346V251.476H111.468ZM116.302 254.662C116.302 254.8 116.294 254.945 116.278 255.098H112.807C112.833 255.526 112.979 255.861 113.243 256.105C113.512 256.342 113.837 256.461 114.217 256.461C114.529 256.461 114.788 256.39 114.994 256.247C115.205 256.099 115.353 255.904 115.438 255.661H116.215C116.098 256.078 115.866 256.419 115.517 256.683C115.168 256.942 114.735 257.071 114.217 257.071C113.805 257.071 113.436 256.979 113.108 256.794C112.786 256.609 112.532 256.348 112.347 256.009C112.162 255.666 112.07 255.27 112.07 254.821C112.07 254.372 112.16 253.978 112.339 253.64C112.519 253.302 112.77 253.043 113.092 252.863C113.42 252.678 113.795 252.586 114.217 252.586C114.63 252.586 114.994 252.676 115.311 252.855C115.628 253.035 115.871 253.283 116.04 253.6C116.215 253.912 116.302 254.266 116.302 254.662ZM115.557 254.512C115.557 254.237 115.496 254.002 115.375 253.806C115.253 253.606 115.087 253.455 114.875 253.355C114.669 253.249 114.439 253.196 114.186 253.196C113.821 253.196 113.51 253.312 113.251 253.545C112.997 253.777 112.852 254.1 112.815 254.512H115.557ZM117.975 253.466C118.123 253.207 118.339 252.995 118.625 252.832C118.91 252.668 119.235 252.586 119.599 252.586C119.99 252.586 120.342 252.678 120.653 252.863C120.965 253.048 121.211 253.31 121.39 253.648C121.57 253.981 121.66 254.369 121.66 254.813C121.66 255.251 121.57 255.642 121.39 255.986C121.211 256.329 120.962 256.596 120.645 256.786C120.334 256.976 119.985 257.071 119.599 257.071C119.224 257.071 118.894 256.989 118.609 256.826C118.329 256.662 118.117 256.453 117.975 256.2V257H117.254V251.136H117.975V253.466ZM120.923 254.813C120.923 254.485 120.857 254.2 120.725 253.957C120.593 253.714 120.413 253.529 120.186 253.402C119.964 253.275 119.718 253.212 119.449 253.212C119.185 253.212 118.939 253.278 118.712 253.41C118.49 253.537 118.31 253.724 118.173 253.973C118.041 254.216 117.975 254.498 117.975 254.821C117.975 255.148 118.041 255.436 118.173 255.684C118.31 255.928 118.49 256.115 118.712 256.247C118.939 256.374 119.185 256.437 119.449 256.437C119.718 256.437 119.964 256.374 120.186 256.247C120.413 256.115 120.593 255.928 120.725 255.684C120.857 255.436 120.923 255.146 120.923 254.813ZM123.33 253.363C123.457 253.114 123.637 252.921 123.869 252.784C124.107 252.647 124.395 252.578 124.733 252.578V253.323H124.543C123.734 253.323 123.33 253.761 123.33 254.638V257H122.609V252.657H123.33V253.363ZM129.417 252.657V257H128.696V256.358C128.558 256.58 128.365 256.754 128.117 256.881C127.874 257.003 127.605 257.063 127.309 257.063C126.971 257.063 126.667 256.995 126.397 256.857C126.128 256.715 125.914 256.503 125.756 256.223C125.602 255.943 125.526 255.603 125.526 255.201V252.657H126.239V255.106C126.239 255.534 126.347 255.864 126.564 256.097C126.78 256.324 127.076 256.437 127.451 256.437C127.837 256.437 128.141 256.318 128.363 256.081C128.585 255.843 128.696 255.497 128.696 255.043V252.657H129.417ZM130.365 254.813C130.365 254.369 130.455 253.981 130.634 253.648C130.814 253.31 131.06 253.048 131.371 252.863C131.688 252.678 132.04 252.586 132.425 252.586C132.806 252.586 133.136 252.668 133.416 252.832C133.696 252.995 133.905 253.201 134.042 253.45V252.657H134.771V257H134.042V256.192C133.899 256.445 133.685 256.657 133.4 256.826C133.12 256.989 132.793 257.071 132.417 257.071C132.032 257.071 131.683 256.976 131.371 256.786C131.06 256.596 130.814 256.329 130.634 255.986C130.455 255.642 130.365 255.251 130.365 254.813ZM134.042 254.821C134.042 254.493 133.976 254.208 133.844 253.965C133.712 253.722 133.532 253.537 133.305 253.41C133.083 253.278 132.837 253.212 132.568 253.212C132.299 253.212 132.053 253.275 131.831 253.402C131.609 253.529 131.432 253.714 131.3 253.957C131.168 254.2 131.102 254.485 131.102 254.813C131.102 255.146 131.168 255.436 131.3 255.684C131.432 255.928 131.609 256.115 131.831 256.247C132.053 256.374 132.299 256.437 132.568 256.437C132.837 256.437 133.083 256.374 133.305 256.247C133.532 256.115 133.712 255.928 133.844 255.684C133.976 255.436 134.042 255.148 134.042 254.821ZM136.711 253.363C136.838 253.114 137.017 252.921 137.25 252.784C137.488 252.647 137.776 252.578 138.114 252.578V253.323H137.923C137.115 253.323 136.711 253.761 136.711 254.638V257H135.99V252.657H136.711V253.363ZM142.687 252.657L140.071 259.045H139.326L140.182 256.952L138.431 252.657H139.231L140.594 256.176L141.942 252.657H142.687Z" fill="#92959E"/>
<path d="M199.784 251.516V257H199.063V252.911L197.24 257H196.733L194.903 252.903V257H194.181V251.516H194.958L196.987 256.049L199.016 251.516H199.784ZM200.738 254.813C200.738 254.369 200.828 253.981 201.007 253.648C201.187 253.31 201.433 253.048 201.744 252.863C202.061 252.678 202.413 252.586 202.798 252.586C203.179 252.586 203.509 252.668 203.789 252.832C204.069 252.995 204.278 253.201 204.415 253.45V252.657H205.144V257H204.415V256.192C204.272 256.445 204.058 256.657 203.773 256.826C203.493 256.989 203.165 257.071 202.79 257.071C202.405 257.071 202.056 256.976 201.744 256.786C201.433 256.596 201.187 256.329 201.007 255.986C200.828 255.642 200.738 255.251 200.738 254.813ZM204.415 254.821C204.415 254.493 204.349 254.208 204.217 253.965C204.085 253.722 203.905 253.537 203.678 253.41C203.456 253.278 203.21 253.212 202.941 253.212C202.671 253.212 202.426 253.275 202.204 253.402C201.982 253.529 201.805 253.714 201.673 253.957C201.541 254.2 201.475 254.485 201.475 254.813C201.475 255.146 201.541 255.436 201.673 255.684C201.805 255.928 201.982 256.115 202.204 256.247C202.426 256.374 202.671 256.437 202.941 256.437C203.21 256.437 203.456 256.374 203.678 256.247C203.905 256.115 204.085 255.928 204.217 255.684C204.349 255.436 204.415 255.148 204.415 254.821ZM207.084 253.363C207.211 253.114 207.39 252.921 207.623 252.784C207.86 252.647 208.148 252.578 208.487 252.578V253.323H208.296C207.488 253.323 207.084 253.761 207.084 254.638V257H206.363V252.657H207.084V253.363ZM209.05 254.821C209.05 254.372 209.139 253.981 209.319 253.648C209.499 253.31 209.747 253.048 210.064 252.863C210.386 252.678 210.753 252.586 211.165 252.586C211.699 252.586 212.138 252.715 212.481 252.974C212.83 253.233 213.06 253.592 213.17 254.052H212.394C212.32 253.788 212.175 253.579 211.958 253.426C211.747 253.273 211.482 253.196 211.165 253.196C210.753 253.196 210.421 253.339 210.167 253.624C209.913 253.904 209.787 254.303 209.787 254.821C209.787 255.344 209.913 255.748 210.167 256.033C210.421 256.318 210.753 256.461 211.165 256.461C211.482 256.461 211.747 256.387 211.958 256.239C212.169 256.091 212.315 255.88 212.394 255.605H213.17C213.054 256.049 212.822 256.406 212.473 256.675C212.124 256.939 211.689 257.071 211.165 257.071C210.753 257.071 210.386 256.979 210.064 256.794C209.747 256.609 209.499 256.348 209.319 256.009C209.139 255.671 209.05 255.275 209.05 254.821ZM216.288 252.578C216.616 252.578 216.912 252.649 217.176 252.792C217.44 252.929 217.646 253.138 217.794 253.418C217.947 253.698 218.024 254.039 218.024 254.44V257H217.311V254.543C217.311 254.11 217.202 253.78 216.986 253.553C216.769 253.32 216.473 253.204 216.098 253.204C215.718 253.204 215.414 253.323 215.187 253.561C214.965 253.798 214.854 254.144 214.854 254.599V257H214.133V251.136H214.854V253.275C214.996 253.053 215.192 252.882 215.44 252.76C215.694 252.639 215.977 252.578 216.288 252.578Z" fill="#92959E"/>
<path d="M283.401 255.772H280.991L280.548 257H279.787L281.784 251.508H282.616L284.605 257H283.844L283.401 255.772ZM283.194 255.185L282.196 252.396L281.197 255.185H283.194ZM286.197 253.458C286.339 253.209 286.551 253.003 286.831 252.839C287.116 252.67 287.446 252.586 287.821 252.586C288.207 252.586 288.556 252.678 288.867 252.863C289.184 253.048 289.433 253.31 289.612 253.648C289.792 253.981 289.882 254.369 289.882 254.813C289.882 255.251 289.792 255.642 289.612 255.986C289.433 256.329 289.184 256.596 288.867 256.786C288.556 256.976 288.207 257.071 287.821 257.071C287.451 257.071 287.124 256.989 286.839 256.826C286.559 256.657 286.345 256.448 286.197 256.2V259.06H285.475V252.657H286.197V253.458ZM289.145 254.813C289.145 254.485 289.079 254.2 288.946 253.957C288.814 253.714 288.635 253.529 288.408 253.402C288.186 253.275 287.94 253.212 287.671 253.212C287.406 253.212 287.161 253.278 286.934 253.41C286.712 253.537 286.532 253.724 286.395 253.973C286.263 254.216 286.197 254.498 286.197 254.821C286.197 255.148 286.263 255.436 286.395 255.684C286.532 255.928 286.712 256.115 286.934 256.247C287.161 256.374 287.406 256.437 287.671 256.437C287.94 256.437 288.186 256.374 288.408 256.247C288.635 256.115 288.814 255.928 288.946 255.684C289.079 255.436 289.145 255.146 289.145 254.813ZM291.552 253.363C291.679 253.114 291.858 252.921 292.091 252.784C292.329 252.647 292.617 252.578 292.955 252.578V253.323H292.765C291.956 253.323 291.552 253.761 291.552 254.638V257H290.831V252.657H291.552V253.363ZM294.16 251.952C294.022 251.952 293.906 251.904 293.811 251.809C293.716 251.714 293.668 251.598 293.668 251.461C293.668 251.323 293.716 251.207 293.811 251.112C293.906 251.017 294.022 250.969 294.16 250.969C294.292 250.969 294.403 251.017 294.492 251.112C294.588 251.207 294.635 251.323 294.635 251.461C294.635 251.598 294.588 251.714 294.492 251.809C294.403 251.904 294.292 251.952 294.16 251.952ZM294.508 252.657V257H293.787V252.657H294.508ZM296.459 251.136V257H295.737V251.136H296.459Z" fill="#92959E"/>
<path d="M369.35 251.516V257H368.629V252.911L366.806 257H366.299L364.468 252.903V257H363.747V251.516H364.524L366.552 256.049L368.581 251.516H369.35ZM370.303 254.813C370.303 254.369 370.393 253.981 370.573 253.648C370.752 253.31 370.998 253.048 371.31 252.863C371.627 252.678 371.978 252.586 372.364 252.586C372.744 252.586 373.074 252.668 373.354 252.832C373.634 252.995 373.843 253.201 373.98 253.45V252.657H374.709V257H373.98V256.192C373.838 256.445 373.624 256.657 373.339 256.826C373.059 256.989 372.731 257.071 372.356 257.071C371.97 257.071 371.621 256.976 371.31 256.786C370.998 256.596 370.752 256.329 370.573 255.986C370.393 255.642 370.303 255.251 370.303 254.813ZM373.98 254.821C373.98 254.493 373.914 254.208 373.782 253.965C373.65 253.722 373.471 253.537 373.243 253.41C373.022 253.278 372.776 253.212 372.506 253.212C372.237 253.212 371.991 253.275 371.769 253.402C371.548 253.529 371.371 253.714 371.238 253.957C371.106 254.2 371.04 254.485 371.04 254.813C371.04 255.146 371.106 255.436 371.238 255.684C371.371 255.928 371.548 256.115 371.769 256.247C371.991 256.374 372.237 256.437 372.506 256.437C372.776 256.437 373.022 256.374 373.243 256.247C373.471 256.115 373.65 255.928 373.782 255.684C373.914 255.436 373.98 255.148 373.98 254.821ZM379.669 252.657L377.053 259.045H376.309L377.164 256.952L375.413 252.657H376.213L377.577 256.176L378.924 252.657H379.669Z" fill="#92959E"/>
<path d="M436.431 251.476V255.558C436.431 256.012 436.291 256.377 436.011 256.651C435.731 256.921 435.361 257.055 434.901 257.055C434.436 257.055 434.064 256.918 433.784 256.643C433.504 256.363 433.364 255.983 433.364 255.502H434.085C434.09 255.772 434.159 255.991 434.291 256.16C434.429 256.329 434.632 256.414 434.901 256.414C435.171 256.414 435.372 256.334 435.504 256.176C435.636 256.012 435.702 255.806 435.702 255.558V251.476H436.431ZM441.703 252.657V257H440.982V256.358C440.844 256.58 440.652 256.754 440.403 256.881C440.16 257.003 439.891 257.063 439.595 257.063C439.257 257.063 438.953 256.995 438.684 256.857C438.414 256.715 438.2 256.503 438.042 256.223C437.889 255.943 437.812 255.603 437.812 255.201V252.657H438.525V255.106C438.525 255.534 438.633 255.864 438.85 256.097C439.067 256.324 439.363 256.437 439.738 256.437C440.123 256.437 440.427 256.318 440.649 256.081C440.871 255.843 440.982 255.497 440.982 255.043V252.657H441.703ZM445.037 252.578C445.565 252.578 445.993 252.739 446.32 253.061C446.648 253.378 446.812 253.838 446.812 254.44V257H446.098V254.543C446.098 254.11 445.99 253.78 445.774 253.553C445.557 253.32 445.261 253.204 444.886 253.204C444.506 253.204 444.202 253.323 443.975 253.561C443.753 253.798 443.642 254.144 443.642 254.599V257H442.921V252.657H443.642V253.275C443.784 253.053 443.977 252.882 444.22 252.76C444.469 252.639 444.741 252.578 445.037 252.578ZM451.952 254.662C451.952 254.8 451.944 254.945 451.928 255.098H448.457C448.484 255.526 448.629 255.861 448.893 256.105C449.163 256.342 449.487 256.461 449.868 256.461C450.18 256.461 450.438 256.39 450.644 256.247C450.856 256.099 451.004 255.904 451.088 255.661H451.865C451.749 256.078 451.516 256.419 451.168 256.683C450.819 256.942 450.386 257.071 449.868 257.071C449.456 257.071 449.086 256.979 448.758 256.794C448.436 256.609 448.183 256.348 447.998 256.009C447.813 255.666 447.72 255.27 447.72 254.821C447.72 254.372 447.81 253.978 447.99 253.64C448.169 253.302 448.42 253.043 448.743 252.863C449.07 252.678 449.445 252.586 449.868 252.586C450.28 252.586 450.644 252.676 450.961 252.855C451.278 253.035 451.521 253.283 451.691 253.6C451.865 253.912 451.952 254.266 451.952 254.662ZM451.207 254.512C451.207 254.237 451.146 254.002 451.025 253.806C450.903 253.606 450.737 253.455 450.526 253.355C450.32 253.249 450.09 253.196 449.836 253.196C449.472 253.196 449.16 253.312 448.901 253.545C448.647 253.777 448.502 254.1 448.465 254.512H451.207Z" fill="#92959E"/>
<path d="M37.1762 33.1294C36.3256 33.1294 35.6 32.9692 34.9996 32.649C34.3991 32.3187 33.8887 31.8684 33.4684 31.2979L34.3991 30.5173C34.7694 31.0077 35.1797 31.383 35.6301 31.6432C36.0804 31.8934 36.6108 32.0185 37.2213 32.0185C37.9719 32.0185 38.5423 31.8384 38.9326 31.4781C39.3329 31.1178 39.5331 30.6374 39.5331 30.037C39.5331 29.5366 39.383 29.1513 39.0827 28.8811C38.7825 28.6109 38.2871 28.3957 37.5966 28.2356L36.7409 28.0404C35.7802 27.8202 35.0446 27.49 34.5342 27.0497C34.0338 26.5993 33.7836 25.9688 33.7836 25.1582C33.7836 24.6978 33.8687 24.2875 34.0388 23.9272C34.209 23.567 34.4441 23.2667 34.7444 23.0265C35.0546 22.7864 35.4199 22.6062 35.8402 22.4861C36.2705 22.356 36.7409 22.291 37.2513 22.291C38.0419 22.291 38.7174 22.4361 39.2779 22.7263C39.8483 23.0165 40.3287 23.4419 40.719 24.0023L39.7733 24.6928C39.483 24.2925 39.1328 23.9773 38.7224 23.7471C38.3121 23.5169 37.8017 23.4018 37.1913 23.4018C36.5207 23.4018 35.9903 23.5469 35.6 23.8372C35.2197 24.1174 35.0296 24.5427 35.0296 25.1132C35.0296 25.6135 35.1897 25.9938 35.51 26.254C35.8402 26.5042 36.3356 26.7044 36.9961 26.8545L37.8518 27.0497C38.8826 27.2798 39.6281 27.6301 40.0885 28.1005C40.5489 28.5708 40.779 29.1963 40.779 29.9769C40.779 30.4573 40.694 30.8926 40.5238 31.2829C40.3637 31.6732 40.1285 32.0035 39.8183 32.2737C39.5081 32.5439 39.1278 32.7541 38.6774 32.9042C38.2371 33.0543 37.7367 33.1294 37.1762 33.1294ZM44.9606 32.9492C44.5403 32.9492 44.22 32.8341 43.9999 32.604C43.7897 32.3638 43.6846 32.0535 43.6846 31.6732V26.254H42.4086V25.2032H43.1292C43.3894 25.2032 43.5645 25.1532 43.6546 25.0531C43.7547 24.943 43.8047 24.7579 43.8047 24.4977V23.0566H44.8855V25.2032H46.5819V26.254H44.8855V31.8984H46.4618V32.9492H44.9606ZM54.5543 32.9492C54.104 32.9492 53.7787 32.8291 53.5786 32.5889C53.3884 32.3488 53.2683 32.0485 53.2183 31.6882H53.1432C52.9731 32.1686 52.6929 32.5289 52.3026 32.7691C51.9123 33.0093 51.4469 33.1294 50.9065 33.1294C50.0859 33.1294 49.4454 32.9192 48.985 32.4989C48.5347 32.0785 48.3095 31.5081 48.3095 30.7875C48.3095 30.057 48.5747 29.4965 49.1051 29.1062C49.6455 28.7159 50.4812 28.5208 51.612 28.5208H53.1432V27.7552C53.1432 27.2048 52.9931 26.7844 52.6929 26.4942C52.3926 26.204 51.9323 26.0589 51.3118 26.0589C50.8414 26.0589 50.4461 26.164 50.1259 26.3741C49.8156 26.5843 49.5554 26.8645 49.3453 27.2148L48.6247 26.5393C48.8349 26.1189 49.1701 25.7637 49.6305 25.4734C50.0909 25.1732 50.6713 25.0231 51.3718 25.0231C52.3126 25.0231 53.0431 25.2533 53.5635 25.7136C54.0839 26.174 54.3441 26.8145 54.3441 27.6351V31.8984H55.2298V32.9492H54.5543ZM51.1016 32.1086C51.4019 32.1086 51.6771 32.0735 51.9273 32.0035C52.1775 31.9334 52.3926 31.8334 52.5728 31.7033C52.7529 31.5732 52.893 31.423 52.9931 31.2529C53.0932 31.0828 53.1432 30.8976 53.1432 30.6975V29.4215H51.552C50.8615 29.4215 50.3561 29.5216 50.0358 29.7217C49.7256 29.9219 49.5705 30.2121 49.5705 30.5924V30.9076C49.5705 31.2879 49.7056 31.5832 49.9758 31.7933C50.256 32.0035 50.6313 32.1086 51.1016 32.1086ZM57.3567 32.9492V25.2032H58.5576V26.6293H58.6327C58.7728 26.259 59.023 25.9288 59.3832 25.6386C59.7435 25.3483 60.2389 25.2032 60.8694 25.2032H61.3348V26.4042H60.6292C59.9787 26.4042 59.4683 26.5292 59.098 26.7794C58.7377 27.0196 58.5576 27.3249 58.5576 27.6952V32.9492H57.3567ZM65.0515 32.9492C64.6312 32.9492 64.311 32.8341 64.0908 32.604C63.8806 32.3638 63.7756 32.0535 63.7756 31.6732V26.254H62.4996V25.2032H63.2201C63.4803 25.2032 63.6555 25.1532 63.7455 25.0531C63.8456 24.943 63.8956 24.7579 63.8956 24.4977V23.0566H64.9765V25.2032H66.6728V26.254H64.9765V31.8984H66.5527V32.9492H65.0515ZM73.7896 31.6882H73.7295C73.6495 31.8684 73.5494 32.0485 73.4293 32.2287C73.3192 32.3988 73.1791 32.5539 73.009 32.694C72.8389 32.8241 72.6337 32.9292 72.3935 33.0093C72.1533 33.0893 71.8731 33.1294 71.5529 33.1294C70.7522 33.1294 70.1168 32.8742 69.6464 32.3638C69.176 31.8434 68.9408 31.1128 68.9408 30.1721V25.2032H70.1418V29.9619C70.1418 31.353 70.7322 32.0485 71.9131 32.0485C72.1533 32.0485 72.3835 32.0185 72.6037 31.9585C72.8339 31.8984 73.034 31.8083 73.2041 31.6882C73.3843 31.5681 73.5244 31.418 73.6245 31.2379C73.7346 31.0477 73.7896 30.8226 73.7896 30.5624V25.2032H74.9905V32.9492H73.7896V31.6882ZM77.9607 25.2032H79.1616V26.4642H79.2217C79.4218 25.9738 79.7121 25.6135 80.0924 25.3834C80.4827 25.1432 80.948 25.0231 81.4884 25.0231C81.9688 25.0231 82.4042 25.1182 82.7945 25.3083C83.1848 25.4985 83.515 25.7687 83.7852 26.1189C84.0654 26.4692 84.2756 26.8945 84.4157 27.3949C84.5658 27.8953 84.6409 28.4557 84.6409 29.0762C84.6409 29.6967 84.5658 30.2571 84.4157 30.7575C84.2756 31.2579 84.0654 31.6832 83.7852 32.0335C83.515 32.3838 83.1848 32.654 82.7945 32.8441C82.4042 33.0343 81.9688 33.1294 81.4884 33.1294C80.4376 33.1294 79.682 32.649 79.2217 31.6882H79.1616V35.9515H77.9607V25.2032ZM81.1582 32.0485C81.8387 32.0485 82.3741 31.8384 82.7644 31.418C83.1547 30.9877 83.3499 30.4273 83.3499 29.7367V28.4157C83.3499 27.7252 83.1547 27.1697 82.7644 26.7494C82.3741 26.3191 81.8387 26.1039 81.1582 26.1039C80.888 26.1039 80.6278 26.144 80.3776 26.224C80.1374 26.2941 79.9272 26.3941 79.7471 26.5242C79.567 26.6543 79.4218 26.8145 79.3118 27.0046C79.2117 27.1848 79.1616 27.3799 79.1616 27.5901V30.4723C79.1616 30.7225 79.2117 30.9477 79.3118 31.1478C79.4218 31.338 79.567 31.5031 79.7471 31.6432C79.9272 31.7733 80.1374 31.8734 80.3776 31.9434C80.6278 32.0135 80.888 32.0485 81.1582 32.0485ZM91.162 32.9492V22.4711H97.4069V23.582H92.423V27.0947H96.9715V28.2055H92.423V32.9492H91.162ZM104.233 31.6882H104.173C104.093 31.8684 103.993 32.0485 103.872 32.2287C103.762 32.3988 103.622 32.5539 103.452 32.694C103.282 32.8241 103.077 32.9292 102.837 33.0093C102.596 33.0893 102.316 33.1294 101.996 33.1294C101.195 33.1294 100.56 32.8742 100.089 32.3638C99.6191 31.8434 99.3839 31.1128 99.3839 30.1721V25.2032H100.585V29.9619C100.585 31.353 101.175 32.0485 102.356 32.0485C102.596 32.0485 102.827 32.0185 103.047 31.9585C103.277 31.8984 103.477 31.8083 103.647 31.6882C103.827 31.5681 103.967 31.418 104.068 31.2379C104.178 31.0477 104.233 30.8226 104.233 30.5624V25.2032H105.434V32.9492H104.233V31.6882ZM108.404 32.9492V25.2032H109.605V26.4642H109.665C109.855 26.0239 110.12 25.6736 110.46 25.4134C110.811 25.1532 111.276 25.0231 111.856 25.0231C112.657 25.0231 113.288 25.2833 113.748 25.8037C114.218 26.3141 114.453 27.0396 114.453 27.9804V32.9492H113.253V28.1905C113.253 26.7995 112.667 26.1039 111.496 26.1039C111.256 26.1039 111.021 26.1339 110.791 26.194C110.57 26.254 110.37 26.3441 110.19 26.4642C110.01 26.5843 109.865 26.7394 109.755 26.9296C109.655 27.1097 109.605 27.3249 109.605 27.5751V32.9492H108.404ZM122.302 31.6882H122.242C121.772 32.649 121.016 33.1294 119.976 33.1294C119.495 33.1294 119.06 33.0343 118.67 32.8441C118.279 32.654 117.944 32.3838 117.664 32.0335C117.394 31.6832 117.183 31.2579 117.033 30.7575C116.893 30.2571 116.823 29.6967 116.823 29.0762C116.823 28.4557 116.893 27.8953 117.033 27.3949C117.183 26.8945 117.394 26.4692 117.664 26.1189C117.944 25.7687 118.279 25.4985 118.67 25.3083C119.06 25.1182 119.495 25.0231 119.976 25.0231C120.516 25.0231 120.976 25.1432 121.357 25.3834C121.747 25.6135 122.042 25.9738 122.242 26.4642H122.302V21.8406H123.503V32.9492H122.302V31.6882ZM120.306 32.0485C120.576 32.0485 120.831 32.0135 121.072 31.9434C121.322 31.8734 121.537 31.7733 121.717 31.6432C121.897 31.5031 122.037 31.338 122.137 31.1478C122.247 30.9477 122.302 30.7225 122.302 30.4723V27.5901C122.302 27.3799 122.247 27.1848 122.137 27.0046C122.037 26.8145 121.897 26.6543 121.717 26.5242C121.537 26.3941 121.322 26.2941 121.072 26.224C120.831 26.144 120.576 26.1039 120.306 26.1039C119.625 26.1039 119.09 26.3191 118.7 26.7494C118.309 27.1697 118.114 27.7252 118.114 28.4157V29.7367C118.114 30.4273 118.309 30.9877 118.7 31.418C119.09 31.8384 119.625 32.0485 120.306 32.0485ZM127.07 23.3868C126.81 23.3868 126.619 23.3268 126.499 23.2067C126.389 23.0766 126.334 22.9114 126.334 22.7113V22.5161C126.334 22.316 126.389 22.1559 126.499 22.0358C126.619 21.9057 126.81 21.8406 127.07 21.8406C127.33 21.8406 127.515 21.9057 127.625 22.0358C127.745 22.1559 127.805 22.316 127.805 22.5161V22.7113C127.805 22.9114 127.745 23.0766 127.625 23.2067C127.515 23.3268 127.33 23.3868 127.07 23.3868ZM126.469 25.2032H127.67V32.9492H126.469V25.2032ZM130.635 32.9492V25.2032H131.836V26.4642H131.896C132.086 26.0239 132.351 25.6736 132.692 25.4134C133.042 25.1532 133.507 25.0231 134.088 25.0231C134.888 25.0231 135.519 25.2833 135.979 25.8037C136.45 26.3141 136.685 27.0396 136.685 27.9804V32.9492H135.484V28.1905C135.484 26.7995 134.898 26.1039 133.727 26.1039C133.487 26.1039 133.252 26.1339 133.022 26.194C132.802 26.254 132.602 26.3441 132.421 26.4642C132.241 26.5843 132.096 26.7394 131.986 26.9296C131.886 27.1097 131.836 27.3249 131.836 27.5751V32.9492H130.635ZM146.11 33.8049C146.11 34.6055 145.795 35.191 145.164 35.5612C144.544 35.9415 143.608 36.1317 142.357 36.1317C141.146 36.1317 140.275 35.9666 139.745 35.6363C139.215 35.306 138.949 34.8357 138.949 34.2252C138.949 33.8049 139.059 33.4746 139.28 33.2344C139.5 33.0043 139.8 32.8341 140.18 32.724V32.5589C139.72 32.3387 139.49 31.9785 139.49 31.4781C139.49 31.0878 139.615 30.7925 139.865 30.5924C140.115 30.3822 140.436 30.2271 140.826 30.127V30.067C140.365 29.8468 140.005 29.5316 139.745 29.1213C139.495 28.7109 139.37 28.2356 139.37 27.6952C139.37 27.3048 139.44 26.9446 139.58 26.6143C139.72 26.2841 139.915 26.0038 140.165 25.7737C140.426 25.5335 140.731 25.3483 141.081 25.2182C141.441 25.0881 141.842 25.0231 142.282 25.0231C142.832 25.0231 143.323 25.1232 143.753 25.3233V25.1882C143.753 24.888 143.823 24.6428 143.963 24.4526C144.103 24.2525 144.334 24.1524 144.654 24.1524H145.81V25.2032H144.339V25.6986C144.619 25.9388 144.834 26.229 144.984 26.5693C145.144 26.8995 145.224 27.2748 145.224 27.6952C145.224 28.0855 145.154 28.4457 145.014 28.776C144.874 29.1062 144.674 29.3915 144.414 29.6317C144.163 29.8618 143.858 30.042 143.498 30.1721C143.138 30.3022 142.737 30.3672 142.297 30.3672C142.047 30.3672 141.797 30.3422 141.546 30.2922C141.286 30.3622 141.051 30.4673 140.841 30.6074C140.631 30.7375 140.526 30.9226 140.526 31.1628C140.526 31.393 140.636 31.5481 140.856 31.6282C141.076 31.7083 141.361 31.7483 141.712 31.7483H143.363C144.324 31.7483 145.019 31.9334 145.449 32.3037C145.89 32.664 146.11 33.1644 146.11 33.8049ZM144.984 33.895C144.984 33.5847 144.864 33.3345 144.624 33.1444C144.394 32.9642 143.978 32.8742 143.378 32.8742H140.796C140.315 33.0943 140.075 33.4446 140.075 33.925C140.075 34.2652 140.2 34.5555 140.451 34.7956C140.711 35.0358 141.146 35.1559 141.757 35.1559H142.867C143.538 35.1559 144.058 35.0508 144.429 34.8407C144.799 34.6305 144.984 34.3153 144.984 33.895ZM142.297 29.4065C142.807 29.4065 143.213 29.2864 143.513 29.0462C143.813 28.796 143.963 28.4157 143.963 27.9053V27.485C143.963 26.9746 143.813 26.5993 143.513 26.3591C143.213 26.1089 142.807 25.9838 142.297 25.9838C141.787 25.9838 141.381 26.1089 141.081 26.3591C140.781 26.5993 140.631 26.9746 140.631 27.485V27.9053C140.631 28.4157 140.781 28.796 141.081 29.0462C141.381 29.2864 141.787 29.4065 142.297 29.4065ZM152.485 23.3868C152.224 23.3868 152.034 23.3268 151.914 23.2067C151.804 23.0766 151.749 22.9114 151.749 22.7113V22.5161C151.749 22.316 151.804 22.1559 151.914 22.0358C152.034 21.9057 152.224 21.8406 152.485 21.8406C152.745 21.8406 152.93 21.9057 153.04 22.0358C153.16 22.1559 153.22 22.316 153.22 22.5161V22.7113C153.22 22.9114 153.16 23.0766 153.04 23.2067C152.93 23.3268 152.745 23.3868 152.485 23.3868ZM151.884 25.2032H153.085V32.9492H151.884V25.2032ZM156.05 32.9492V25.2032H157.251V26.4642H157.311C157.501 26.0239 157.766 25.6736 158.106 25.4134C158.457 25.1532 158.922 25.0231 159.503 25.0231C160.303 25.0231 160.934 25.2833 161.394 25.8037C161.864 26.3141 162.1 27.0396 162.1 27.9804V32.9492H160.899V28.1905C160.899 26.7995 160.313 26.1039 159.142 26.1039C158.902 26.1039 158.667 26.1339 158.437 26.194C158.217 26.254 158.016 26.3441 157.836 26.4642C157.656 26.5843 157.511 26.7394 157.401 26.9296C157.301 27.1097 157.251 27.3249 157.251 27.5751V32.9492H156.05ZM175.305 35.4111H173.759C173.339 35.4111 173.023 35.291 172.813 35.0508C172.603 34.8207 172.498 34.5304 172.498 34.1802V33.1143C171.897 33.0543 171.352 32.8942 170.862 32.634C170.371 32.3738 169.956 32.0185 169.616 31.5681C169.275 31.1078 169.01 30.5574 168.82 29.9169C168.64 29.2664 168.55 28.5308 168.55 27.7102C168.55 26.8295 168.655 26.0539 168.865 25.3834C169.075 24.7128 169.37 24.1474 169.751 23.687C170.141 23.2267 170.606 22.8814 171.147 22.6512C171.697 22.4111 172.313 22.291 172.993 22.291C173.664 22.291 174.274 22.4111 174.825 22.6512C175.375 22.8814 175.841 23.2267 176.221 23.687C176.611 24.1474 176.911 24.7128 177.121 25.3834C177.332 26.0539 177.437 26.8295 177.437 27.7102C177.437 29.3214 177.101 30.5824 176.431 31.4931C175.76 32.3938 174.85 32.9242 173.699 33.0843V34.3603H175.305V35.4111ZM172.993 32.0035C173.444 32.0035 173.859 31.9234 174.239 31.7633C174.62 31.6032 174.945 31.373 175.215 31.0728C175.495 30.7725 175.71 30.4123 175.861 29.9919C176.011 29.5716 176.086 29.1012 176.086 28.5808V26.8395C176.086 26.3191 176.011 25.8487 175.861 25.4284C175.71 25.0081 175.495 24.6478 175.215 24.3476C174.945 24.0473 174.62 23.8171 174.239 23.657C173.859 23.4969 173.444 23.4168 172.993 23.4168C172.543 23.4168 172.128 23.4969 171.747 23.657C171.367 23.8171 171.037 24.0473 170.757 24.3476C170.486 24.6478 170.276 25.0081 170.126 25.4284C169.976 25.8487 169.901 26.3191 169.901 26.8395V28.5808C169.901 29.1012 169.976 29.5716 170.126 29.9919C170.276 30.4123 170.486 30.7725 170.757 31.0728C171.037 31.373 171.367 31.6032 171.747 31.7633C172.128 31.9234 172.543 32.0035 172.993 32.0035ZM180.041 32.9492V31.8384H182.969V23.4018H182.864L180.222 25.8637L179.486 25.0681L182.263 22.4711H184.23V31.8384H186.932V32.9492H180.041ZM199.435 31.7183C199.325 31.8484 199.185 31.9985 199.015 32.1686C198.845 32.3287 198.635 32.4789 198.385 32.619C198.144 32.7591 197.854 32.8792 197.514 32.9792C197.184 33.0793 196.808 33.1294 196.388 33.1294C195.868 33.1294 195.407 33.0543 195.007 32.9042C194.607 32.7541 194.271 32.5489 194.001 32.2887C193.731 32.0185 193.526 31.7083 193.386 31.358C193.246 31.0077 193.176 30.6324 193.176 30.2321C193.176 29.8418 193.236 29.4965 193.356 29.1963C193.476 28.8961 193.636 28.6309 193.836 28.4007C194.046 28.1605 194.276 27.9503 194.527 27.7702C194.787 27.5901 195.052 27.4249 195.322 27.2748C194.962 26.8945 194.672 26.5092 194.452 26.1189C194.241 25.7186 194.136 25.2833 194.136 24.8129C194.136 24.4626 194.201 24.1324 194.331 23.8222C194.462 23.5119 194.642 23.2467 194.872 23.0265C195.112 22.7964 195.397 22.6162 195.728 22.4861C196.068 22.356 196.443 22.291 196.853 22.291C197.224 22.291 197.564 22.346 197.874 22.4561C198.184 22.5662 198.45 22.7213 198.67 22.9215C198.89 23.1116 199.06 23.3468 199.18 23.627C199.31 23.9072 199.375 24.2125 199.375 24.5427C199.375 24.893 199.31 25.2082 199.18 25.4884C199.06 25.7587 198.89 26.0088 198.67 26.239C198.45 26.4692 198.194 26.6844 197.904 26.8845C197.614 27.0747 197.304 27.2598 196.974 27.44L199.33 29.9769C199.48 29.5966 199.596 29.1913 199.676 28.761C199.756 28.3306 199.806 27.8903 199.826 27.44H201.867V28.4607H200.801C200.731 28.9011 200.636 29.3164 200.516 29.7067C200.396 30.087 200.251 30.4423 200.081 30.7725L202.123 32.9492H200.561L199.435 31.7183ZM196.793 23.2967C196.363 23.2967 196.008 23.4319 195.728 23.7021C195.457 23.9723 195.322 24.3075 195.322 24.7078V24.888C195.322 25.1882 195.412 25.4934 195.592 25.8037C195.783 26.1039 196.028 26.4242 196.328 26.7644C196.568 26.6343 196.798 26.4992 197.019 26.3591C197.249 26.209 197.449 26.0489 197.619 25.8787C197.799 25.7086 197.944 25.5335 198.054 25.3533C198.164 25.1632 198.219 24.963 198.219 24.7529V24.5727C198.219 24.1624 198.074 23.8472 197.784 23.627C197.504 23.4068 197.174 23.2967 196.793 23.2967ZM196.493 32.0785C197.004 32.0785 197.444 31.9835 197.814 31.7933C198.184 31.5932 198.5 31.328 198.76 30.9977L195.953 27.9654C195.753 28.0754 195.557 28.1905 195.367 28.3106C195.187 28.4307 195.027 28.5758 194.887 28.746C194.747 28.9061 194.632 29.0962 194.542 29.3164C194.462 29.5266 194.422 29.7768 194.422 30.067V30.2922C194.422 30.8426 194.607 31.2779 194.977 31.5982C195.357 31.9184 195.863 32.0785 196.493 32.0785ZM214.517 35.4111H212.971C212.551 35.4111 212.235 35.291 212.025 35.0508C211.815 34.8207 211.71 34.5304 211.71 34.1802V33.1143C211.109 33.0543 210.564 32.8942 210.074 32.634C209.583 32.3738 209.168 32.0185 208.828 31.5681C208.487 31.1078 208.222 30.5574 208.032 29.9169C207.852 29.2664 207.762 28.5308 207.762 27.7102C207.762 26.8295 207.867 26.0539 208.077 25.3834C208.287 24.7128 208.582 24.1474 208.963 23.687C209.353 23.2267 209.818 22.8814 210.359 22.6512C210.909 22.4111 211.525 22.291 212.205 22.291C212.876 22.291 213.486 22.4111 214.037 22.6512C214.587 22.8814 215.052 23.2267 215.433 23.687C215.823 24.1474 216.123 24.7128 216.333 25.3834C216.544 26.0539 216.649 26.8295 216.649 27.7102C216.649 29.3214 216.313 30.5824 215.643 31.4931C214.972 32.3938 214.062 32.9242 212.911 33.0843V34.3603H214.517V35.4111ZM212.205 32.0035C212.656 32.0035 213.071 31.9234 213.451 31.7633C213.832 31.6032 214.157 31.373 214.427 31.0728C214.707 30.7725 214.922 30.4123 215.073 29.9919C215.223 29.5716 215.298 29.1012 215.298 28.5808V26.8395C215.298 26.3191 215.223 25.8487 215.073 25.4284C214.922 25.0081 214.707 24.6478 214.427 24.3476C214.157 24.0473 213.832 23.8171 213.451 23.657C213.071 23.4969 212.656 23.4168 212.205 23.4168C211.755 23.4168 211.34 23.4969 210.959 23.657C210.579 23.8171 210.249 24.0473 209.969 24.3476C209.698 24.6478 209.488 25.0081 209.338 25.4284C209.188 25.8487 209.113 26.3191 209.113 26.8395V28.5808C209.113 29.1012 209.188 29.5716 209.338 29.9919C209.488 30.4123 209.698 30.7725 209.969 31.0728C210.249 31.373 210.579 31.6032 210.959 31.7633C211.34 31.9234 211.755 32.0035 212.205 32.0035ZM225.934 32.9492H219.058V31.6582L222.481 28.5058C222.971 28.0554 223.382 27.5801 223.712 27.0797C224.042 26.5693 224.207 26.0589 224.207 25.5485V25.3684C224.207 24.7879 224.047 24.3175 223.727 23.9573C223.407 23.597 222.921 23.4168 222.271 23.4168C221.95 23.4168 221.67 23.4619 221.43 23.5519C221.19 23.642 220.98 23.7671 220.8 23.9272C220.629 24.0874 220.484 24.2775 220.364 24.4977C220.254 24.7078 220.164 24.938 220.094 25.1882L218.968 24.7529C219.068 24.4426 219.203 24.1424 219.373 23.8522C219.554 23.5519 219.774 23.2867 220.034 23.0566C220.304 22.8264 220.624 22.6412 220.995 22.5011C221.375 22.361 221.82 22.291 222.331 22.291C222.841 22.291 223.296 22.366 223.697 22.5161C224.097 22.6663 224.432 22.8764 224.703 23.1466C224.973 23.4168 225.178 23.7371 225.318 24.1074C225.468 24.4777 225.543 24.888 225.543 25.3383C225.543 25.7486 225.483 26.1289 225.363 26.4792C225.253 26.8295 225.098 27.1647 224.898 27.485C224.698 27.7952 224.452 28.1005 224.162 28.4007C223.882 28.7009 223.577 29.0012 223.246 29.3014L220.424 31.8384H225.934V32.9492Z" fill="#263238"/>
<g opacity="0.24">
<rect x="25" y="136.12" width="11.0734" height="99.3633" fill="#855CF8"/>
</g>
<g opacity="0.64">
<rect x="25" y="132.367" width="11.0734" height="1.87645" fill="#855CF8"/>
</g>
<g opacity="0.24">
<rect x="37.0093" y="137.996" width="11.0734" height="97.4868" fill="#855CF8"/>
</g>
<g opacity="0.64">
<rect x="37.0093" y="134.243" width="11.0734" height="1.87645" fill="#855CF8"/>
</g>
<g opacity="0.24">
<rect x="49.0186" y="134.243" width="11.0734" height="101.24" fill="#855CF8"/>
</g>
<g opacity="0.64">
<rect x="49.0186" y="130.49" width="11.0734" height="1.87645" fill="#855CF8"/>
</g>
<g opacity="0.24">
<rect x="61.0278" y="128.614" width="11.0734" height="106.869" fill="#855CF8"/>
</g>
<g opacity="0.64">
<rect x="61.0278" y="124.861" width="11.0734" height="1.87645" fill="#855CF8"/>
</g>
<g opacity="0.24">
<rect x="73.0371" y="127.676" width="11.0734" height="107.807" fill="#855CF8"/>
</g>
<g opacity="0.64">
<rect x="73.0371" y="123.923" width="11.0734" height="1.87645" fill="#855CF8"/>
</g>
<g opacity="0.24">
<rect x="85.0464" y="136.12" width="11.0734" height="99.3633" fill="#855CF8"/>
</g>
<g opacity="0.64">
<rect x="85.0464" y="132.367" width="11.0734" height="1.87645" fill="#855CF8"/>
</g>
<g opacity="0.24">
<rect x="97.0557" y="122.984" width="11.0734" height="112.498" fill="#855CF8"/>
</g>
<g opacity="0.64">
<rect x="97.0557" y="119.231" width="11.0734" height="1.87645" fill="#855CF8"/>
</g>
<g opacity="0.24">
<rect x="109.065" y="109.85" width="11.0734" height="125.634" fill="#855CF8"/>
</g>
<g opacity="0.64">
<rect x="109.065" y="106.097" width="11.0734" height="1.87645" fill="#855CF8"/>
</g>
<g opacity="0.24">
<rect x="121.074" y="117.355" width="11.0734" height="118.128" fill="#855CF8"/>
</g>
<g opacity="0.64">
<rect x="121.074" y="113.603" width="11.0734" height="1.87645" fill="#855CF8"/>
</g>
<g opacity="0.24">
<rect x="133.083" y="104.22" width="11.0734" height="131.263" fill="#855CF8"/>
</g>
<g opacity="0.64">
<rect x="133.083" y="100.467" width="11.0734" height="1.87645" fill="#855CF8"/>
</g>
<g opacity="0.24">
<rect x="145.093" y="124.861" width="11.0734" height="110.622" fill="#855CF8"/>
</g>
<g opacity="0.64">
<rect x="145.093" y="121.108" width="11.0734" height="1.87645" fill="#855CF8"/>
</g>
<g opacity="0.24">
<rect x="157.103" y="122.984" width="11.0734" height="112.498" fill="#855CF8"/>
</g>
<g opacity="0.64">
<rect x="157.103" y="119.231" width="11.0734" height="1.87645" fill="#855CF8"/>
</g>
<g opacity="0.24">
<rect x="169.112" y="119.231" width="11.0734" height="116.251" fill="#855CF8"/>
</g>
<g opacity="0.64">
<rect x="169.112" y="115.479" width="11.0734" height="1.87645" fill="#855CF8"/>
</g>
<g opacity="0.24">
<rect x="181.121" y="109.85" width="11.0734" height="125.634" fill="#855CF8"/>
</g>
<g opacity="0.64">
<rect x="181.121" y="106.097" width="11.0734" height="1.87645" fill="#855CF8"/>
</g>
<g opacity="0.24">
<rect x="193.13" y="121.108" width="11.0734" height="114.375" fill="#855CF8"/>
</g>
<g opacity="0.64">
<rect x="193.13" y="117.355" width="11.0734" height="1.87645" fill="#855CF8"/>
</g>
<g opacity="0.24">
<rect x="205.14" y="107.973" width="11.0734" height="127.51" fill="#855CF8"/>
</g>
<g opacity="0.64">
<rect x="205.14" y="104.22" width="11.0734" height="1.87645" fill="#855CF8"/>
</g>
<g opacity="0.24">
<rect x="217.149" y="113.603" width="11.0734" height="121.881" fill="#855CF8"/>
</g>
<g opacity="0.64">
<rect x="217.149" y="109.85" width="11.0734" height="1.87645" fill="#855CF8"/>
</g>
<g opacity="0.24">
<rect x="229.158" y="106.097" width="11.0734" height="129.387" fill="#855CF8"/>
</g>
<g opacity="0.64">
<rect x="229.158" y="102.344" width="11.0734" height="1.87645" fill="#855CF8"/>
</g>
<g opacity="0.24">
<rect x="241.167" y="102.344" width="11.0734" height="133.139" fill="#855CF8"/>
</g>
<g opacity="0.64">
<rect x="241.167" y="98.5908" width="11.0734" height="1.87645" fill="#855CF8"/>
</g>
<g opacity="0.24">
<rect x="253.177" y="93.8994" width="11.0734" height="141.583" fill="#855CF8"/>
</g>
<g opacity="0.64">
<rect x="253.177" y="90.1465" width="11.0734" height="1.87645" fill="#855CF8"/>
</g>
<g opacity="0.24">
<rect x="265.186" y="96.7139" width="11.0734" height="138.769" fill="#855CF8"/>
</g>
<g opacity="0.64">
<rect x="265.186" y="92.9609" width="11.0734" height="1.87645" fill="#855CF8"/>
</g>
<g opacity="0.24">
<rect x="277.195" y="98.5908" width="11.0734" height="136.892" fill="#855CF8"/>
</g>
<g opacity="0.64">
<rect x="277.195" y="94.8379" width="11.0734" height="1.87645" fill="#855CF8"/>
</g>
<g opacity="0.24">
<rect x="289.205" y="94.8379" width="11.0734" height="140.645" fill="#855CF8"/>
</g>
<g opacity="0.64">
<rect x="289.205" y="91.085" width="11.0734" height="1.87645" fill="#855CF8"/>
</g>
<g opacity="0.24">
<rect x="301.214" y="104.22" width="11.0734" height="131.263" fill="#855CF8"/>
</g>
<g opacity="0.64">
<rect x="301.214" y="100.467" width="11.0734" height="1.87645" fill="#855CF8"/>
</g>
<g opacity="0.24">
<rect x="313.223" y="83.5791" width="11.0734" height="151.904" fill="#855CF8"/>
</g>
<g opacity="0.64">
<rect x="313.223" y="79.8262" width="11.0734" height="1.87645" fill="#855CF8"/>
</g>
<g opacity="0.24">
<rect x="325.232" y="98.5908" width="11.0734" height="136.892" fill="#855CF8"/>
</g>
<g opacity="0.64">
<rect x="325.232" y="94.8379" width="11.0734" height="1.87645" fill="#855CF8"/>
</g>
<g opacity="0.24">
<rect x="337.242" y="90.1465" width="11.0734" height="145.336" fill="#855CF8"/>
</g>
<g opacity="0.64">
<rect x="337.242" y="86.3936" width="11.0734" height="1.87645" fill="#855CF8"/>
</g>
<g opacity="0.24">
<rect x="349.251" y="81.7021" width="11.0734" height="153.78" fill="#855CF8"/>
</g>
<g opacity="0.64">
<rect x="349.251" y="77.9492" width="11.0734" height="1.87645" fill="#855CF8"/>
</g>
<g opacity="0.24">
<rect x="361.26" y="87.332" width="11.0734" height="148.151" fill="#855CF8"/>
</g>
<g opacity="0.64">
<rect x="361.26" y="83.5791" width="11.0734" height="1.87645" fill="#855CF8"/>
</g>
<g opacity="0.24">
<rect x="373.27" y="92.0234" width="11.0734" height="143.46" fill="#855CF8"/>
</g>
<g opacity="0.64">
<rect x="373.27" y="88.2705" width="11.0734" height="1.87645" fill="#855CF8"/>
</g>
<g opacity="0.24">
<rect x="385.279" y="75.1348" width="11.0734" height="160.348" fill="#855CF8"/>
</g>
<g opacity="0.64">
<rect x="385.279" y="71.3818" width="11.0734" height="1.87645" fill="#855CF8"/>
</g>
<g opacity="0.24">
<rect x="397.288" y="79.8262" width="11.0734" height="155.657" fill="#855CF8"/>
</g>
<g opacity="0.64">
<rect x="397.288" y="76.0732" width="11.0734" height="1.87645" fill="#855CF8"/>
</g>
<g opacity="0.24">
<rect x="409.297" y="87.332" width="11.0734" height="148.151" fill="#855CF8"/>
</g>
<g opacity="0.64">
<rect x="409.297" y="83.5791" width="11.0734" height="1.87645" fill="#855CF8"/>
</g>
<g opacity="0.24">
<rect x="421.307" y="83.5791" width="11.0734" height="151.904" fill="#855CF8"/>
</g>
<g opacity="0.64">
<rect x="421.307" y="79.8262" width="11.0734" height="1.87645" fill="#855CF8"/>
</g>
<g opacity="0.24">
<rect x="433.316" y="75.1348" width="11.0734" height="160.348" fill="#855CF8"/>
</g>
<g opacity="0.64">
<rect x="433.316" y="71.3818" width="11.0734" height="1.87645" fill="#855CF8"/>
</g>
<g opacity="0.24">
<rect x="445.325" y="65.7529" width="11.0734" height="169.73" fill="#855CF8"/>
</g>
<g opacity="0.64">
<rect x="445.325" y="62" width="11.0734" height="1.87645" fill="#855CF8"/>
</g>
</svg>
