<svg width="901" height="460" viewBox="0 0 901 460" fill="none" xmlns="http://www.w3.org/2000/svg">
<g opacity="0.16">
<rect x="38" y="184.646" width="54.3646" height="238.782" fill="#3AA959"/>
</g>
<g opacity="0.16">
<rect x="463" y="184.646" width="54.3646" height="238.782" fill="#3AA959"/>
</g>
<g opacity="0.16">
<rect x="99" y="195.646" width="54.3646" height="227.629" fill="#3AA959"/>
</g>
<g opacity="0.16">
<rect x="523" y="195.646" width="54.3646" height="227.629" fill="#3AA959"/>
</g>
<g opacity="0.16">
<rect x="158" y="154.646" width="54.3646" height="269.525" fill="#3AA959"/>
</g>
<g opacity="0.16">
<rect x="583" y="154.646" width="54.3646" height="269.525" fill="#3AA959"/>
</g>
<g opacity="0.16">
<rect x="220" y="134.646" width="54.3646" height="288.857" fill="#3AA959"/>
</g>
<g opacity="0.16">
<rect x="645" y="134.646" width="54.3646" height="288.857" fill="#3AA959"/>
</g>
<g opacity="0.16">
<rect x="279" y="230.646" width="55.3646" height="193.386" fill="#3AA959"/>
</g>
<g opacity="0.16">
<rect x="704" y="230.646" width="54.3646" height="193.386" fill="#3AA959"/>
</g>
<g opacity="0.16">
<rect x="339" y="184.646" width="54.3646" height="238.33" fill="#3AA959"/>
</g>
<g opacity="0.16">
<rect x="763" y="184.646" width="55.3646" height="238.33" fill="#3AA959"/>
</g>
<g opacity="0.16">
<rect x="401" y="161.646" width="54.3646" height="261.581" fill="#3AA959"/>
</g>
<g opacity="0.16">
<rect x="825" y="161.646" width="54.3646" height="261.581" fill="#3AA959"/>
</g>
<path d="M59.6327 410.646H52.5961V409.665L56.3135 405.535C56.8643 404.911 57.2429 404.404 57.4494 404.016C57.6609 403.622 57.7666 403.217 57.7666 402.799C57.7666 402.238 57.597 401.778 57.2577 401.419C56.9184 401.06 56.466 400.881 55.9005 400.881C55.2219 400.881 54.6933 401.075 54.3147 401.464C53.941 401.847 53.7541 402.383 53.7541 403.071H52.3896C52.3896 402.083 52.7067 401.284 53.3411 400.674C53.9803 400.065 54.8335 399.76 55.9005 399.76C56.8987 399.76 57.6879 400.023 58.2682 400.549C58.8484 401.07 59.1385 401.766 59.1385 402.636C59.1385 403.693 58.4648 404.952 57.1175 406.413L54.2409 409.533H59.6327V410.646ZM62.2088 405.262L62.7547 399.907H68.2571V401.168H63.9127L63.5881 404.097C64.1143 403.787 64.7117 403.632 65.3805 403.632C66.359 403.632 67.1359 403.957 67.7112 404.606C68.2866 405.25 68.5742 406.123 68.5742 407.224C68.5742 408.33 68.2743 409.203 67.6744 409.843C67.0794 410.477 66.2459 410.794 65.1739 410.794C64.2249 410.794 63.4504 410.531 62.8505 410.005C62.2506 409.479 61.9089 408.751 61.8253 407.822H63.1161C63.1997 408.436 63.4185 408.901 63.7725 409.216C64.1266 409.525 64.5937 409.68 65.1739 409.68C65.8083 409.68 66.3049 409.464 66.6639 409.031C67.0277 408.598 67.2097 408.001 67.2097 407.239C67.2097 406.521 67.013 405.946 66.6196 405.513C66.2311 405.075 65.7124 404.856 65.0633 404.856C64.4683 404.856 64.0012 404.987 63.6619 405.247L63.3005 405.542L62.2088 405.262ZM75.9226 399.9V401.058H75.6718C74.6096 401.078 73.7639 401.392 73.1345 402.002C72.5051 402.612 72.1412 403.47 72.0428 404.576C72.6083 403.927 73.3803 403.603 74.3589 403.603C75.2931 403.603 76.0381 403.932 76.5938 404.591C77.1543 405.25 77.4346 406.1 77.4346 407.143C77.4346 408.249 77.1322 409.134 76.5274 409.798C75.9275 410.462 75.121 410.794 74.1081 410.794C73.0804 410.794 72.2469 410.401 71.6077 409.614C70.9684 408.822 70.6488 407.804 70.6488 406.56V406.037C70.6488 404.06 71.0692 402.55 71.9101 401.508C72.7558 400.46 74.0122 399.924 75.6792 399.9H75.9226ZM74.1302 404.738C73.6631 404.738 73.2328 404.879 72.8394 405.159C72.4461 405.439 72.1732 405.791 72.0207 406.214V406.715C72.0207 407.6 72.2199 408.313 72.6182 408.854C73.0165 409.395 73.5131 409.665 74.1081 409.665C74.7227 409.665 75.2046 409.439 75.5538 408.987C75.9078 408.535 76.0848 407.942 76.0848 407.209C76.0848 406.472 75.9053 405.877 75.5464 405.424C75.1923 404.967 74.7203 404.738 74.1302 404.738Z" fill="#263238"/>
<path d="M59.0258 228.651L66.7755 225.546L59.0258 222.441L59.0258 220.816L68.5237 220.816L68.5237 222.069L64.825 222.069L60.8327 221.951L68.5237 225.07L68.5237 226.028L60.8523 229.14L64.825 229.016L68.5237 229.016L68.5237 230.269L59.0258 230.269L59.0258 228.651ZM68.5237 214.069C68.3846 214.139 68.1367 214.195 67.7801 214.239C68.3628 214.8 68.6542 215.469 68.6542 216.248C68.6542 216.944 68.4585 217.516 68.0671 217.964C67.6714 218.407 67.1712 218.629 66.5667 218.629C65.8318 218.629 65.2621 218.351 64.8576 217.794C64.4488 217.233 64.2444 216.446 64.2444 215.433L64.2444 214.258L63.69 214.258C63.2681 214.258 62.9332 214.384 62.6854 214.637C62.4331 214.889 62.307 215.261 62.307 215.752C62.307 216.183 62.4157 216.544 62.6332 216.835C62.8506 217.126 63.1137 217.272 63.4225 217.272L63.4225 218.485C63.0702 218.485 62.731 218.361 62.4049 218.114C62.0743 217.861 61.8134 217.522 61.6221 217.096C61.4307 216.665 61.335 216.194 61.335 215.68C61.335 214.867 61.5394 214.23 61.9482 213.769C62.3527 213.308 62.9115 213.069 63.6247 213.051L66.8733 213.051C67.5213 213.051 68.0367 212.969 68.4194 212.804L68.5237 212.804L68.5237 214.069ZM67.604 216.072C67.604 215.693 67.5061 215.335 67.3104 214.995C67.1147 214.656 66.8603 214.411 66.5472 214.258L65.099 214.258L65.099 215.204C65.099 216.683 65.5317 217.422 66.3971 217.422C66.7755 217.422 67.0712 217.296 67.2843 217.044C67.4974 216.792 67.604 216.468 67.604 216.072ZM61.4655 209.651L62.3527 209.612C61.6742 209.072 61.335 208.368 61.335 207.498C61.335 206.006 62.1765 205.254 63.8596 205.241L68.5237 205.241L68.5237 206.448L63.853 206.448C63.3442 206.452 62.968 206.57 62.7245 206.8C62.481 207.026 62.3592 207.381 62.3592 207.863C62.3592 208.255 62.4636 208.598 62.6723 208.894C62.8811 209.19 63.155 209.42 63.4943 209.586L68.5237 209.586L68.5237 210.792L61.4655 210.792L61.4655 209.651ZM64.9359 203.341C63.8356 203.341 62.9615 203.086 62.3135 202.577C61.6612 202.069 61.335 201.394 61.335 200.555C61.335 199.694 61.6395 199.022 62.2483 198.539L61.4655 198.481L61.4655 197.378L68.3541 197.378C69.2674 197.378 69.9871 197.65 70.5134 198.194C71.0396 198.733 71.3027 199.459 71.3027 200.372C71.3027 200.881 71.194 201.379 70.9765 201.866C70.7591 202.353 70.4612 202.725 70.0828 202.982L69.3587 202.356C69.998 201.838 70.3177 201.205 70.3177 200.457C70.3177 199.87 70.1524 199.414 69.8219 199.087C69.4914 198.757 69.026 198.592 68.4259 198.592L67.8192 198.592C68.3759 199.074 68.6542 199.733 68.6542 200.568C68.6542 201.394 68.3215 202.064 67.6561 202.577C66.9908 203.086 66.084 203.341 64.9359 203.341ZM65.0729 202.127C65.8687 202.127 66.495 201.964 66.9516 201.638C67.4039 201.312 67.63 200.855 67.63 200.268C67.63 199.507 67.2843 198.948 66.5928 198.592L63.3703 198.592C62.6962 198.961 62.3592 199.516 62.3592 200.255C62.3592 200.842 62.5875 201.301 63.0441 201.631C63.5008 201.962 64.177 202.127 65.0729 202.127ZM68.5237 190.827C68.3846 190.896 68.1367 190.953 67.7801 190.996C68.3628 191.557 68.6542 192.227 68.6542 193.006C68.6542 193.701 68.4585 194.273 68.0671 194.721C67.6714 195.165 67.1712 195.387 66.5667 195.387C65.8318 195.387 65.2621 195.108 64.8576 194.552C64.4488 193.991 64.2444 193.203 64.2444 192.19L64.2444 191.016L63.69 191.016C63.2681 191.016 62.9332 191.142 62.6854 191.394C62.4331 191.647 62.307 192.018 62.307 192.51C62.307 192.94 62.4157 193.301 62.6332 193.593C62.8506 193.884 63.1137 194.03 63.4225 194.03L63.4225 195.243C63.0702 195.243 62.731 195.119 62.4049 194.871C62.0743 194.619 61.8134 194.28 61.6221 193.854C61.4307 193.423 61.335 192.951 61.335 192.438C61.335 191.625 61.5394 190.988 61.9482 190.527C62.3527 190.066 62.9115 189.827 63.6247 189.809L66.8733 189.809C67.5213 189.809 68.0367 189.726 68.4194 189.561L68.5237 189.561L68.5237 190.827ZM67.604 192.829C67.604 192.451 67.5061 192.092 67.3104 191.753C67.1147 191.414 66.8603 191.168 66.5472 191.016L65.099 191.016L65.099 191.962C65.099 193.44 65.5317 194.18 66.3971 194.18C66.7755 194.18 67.0712 194.054 67.2843 193.801C67.4974 193.549 67.604 193.225 67.604 192.829ZM68.5237 186.239L68.5237 187.446L58.5039 187.446L58.5039 186.239L68.5237 186.239ZM64.9294 184.254C64.2379 184.254 63.616 184.119 63.0637 183.849C62.5114 183.575 62.0852 183.197 61.7851 182.714C61.4851 182.227 61.335 181.673 61.335 181.051C61.335 180.09 61.6677 179.313 62.3331 178.722C62.9985 178.126 63.8835 177.828 64.9881 177.828L65.0729 177.828C65.76 177.828 66.3776 177.961 66.9255 178.226C67.4691 178.487 67.8932 178.863 68.1976 179.355C68.502 179.842 68.6542 180.403 68.6542 181.038C68.6542 181.994 68.3215 182.771 67.6561 183.366C66.9908 183.958 66.1101 184.254 65.0142 184.254L64.9294 184.254ZM65.0729 183.04C65.8557 183.04 66.4841 182.86 66.9581 182.499C67.4322 182.133 67.6692 181.646 67.6692 181.038C67.6692 180.424 67.43 179.937 66.9516 179.576C66.4689 179.215 65.7948 179.035 64.9294 179.035C64.1553 179.035 63.529 179.22 63.0507 179.589C62.5679 179.955 62.3266 180.442 62.3266 181.051C62.3266 181.646 62.5636 182.127 63.0376 182.492C63.5116 182.858 64.1901 183.04 65.0729 183.04ZM62.5484 172.536C62.5179 172.718 62.5027 172.916 62.5027 173.129C62.5027 173.921 62.8397 174.458 63.5138 174.74L68.5237 174.74L68.5237 175.947L61.4655 175.947L61.4655 174.773L62.2809 174.754C61.6503 174.358 61.335 173.797 61.335 173.07C61.335 172.836 61.3655 172.657 61.4264 172.536L62.5484 172.536ZM68.6542 168.254C68.6542 169.211 68.3411 169.989 67.7148 170.59C67.0843 171.19 66.2427 171.49 65.1903 171.49L64.9685 171.49C64.2684 171.49 63.6443 171.357 63.0963 171.092C62.544 170.822 62.1135 170.448 61.8047 169.97C61.4916 169.487 61.335 168.965 61.335 168.404C61.335 167.487 61.6373 166.773 62.2418 166.265C62.8463 165.756 63.7117 165.501 64.8381 165.501L65.3404 165.501L65.3404 170.283C66.0362 170.266 66.5994 170.063 67.0299 169.676C67.4561 169.285 67.6692 168.789 67.6692 168.189C67.6692 167.763 67.5822 167.402 67.4083 167.106C67.2343 166.81 67.0038 166.552 66.7168 166.33L67.2908 165.593C68.1997 166.184 68.6542 167.071 68.6542 168.254ZM62.3266 168.404C62.3266 168.891 62.5049 169.3 62.8615 169.631C63.2137 169.961 63.7095 170.166 64.3488 170.244L64.3488 166.708L64.2575 166.708C63.6443 166.743 63.1703 166.908 62.8354 167.204C62.4962 167.5 62.3266 167.9 62.3266 168.404Z" fill="#263238"/>
<path d="M484.633 410.646H477.596V409.665L481.314 405.535C481.864 404.911 482.243 404.404 482.449 404.016C482.661 403.622 482.767 403.217 482.767 402.799C482.767 402.238 482.597 401.778 482.258 401.419C481.918 401.06 481.466 400.881 480.901 400.881C480.222 400.881 479.693 401.075 479.315 401.464C478.941 401.847 478.754 402.383 478.754 403.071H477.39C477.39 402.083 477.707 401.284 478.341 400.674C478.98 400.065 479.833 399.76 480.901 399.76C481.899 399.76 482.688 400.023 483.268 400.549C483.848 401.07 484.139 401.766 484.139 402.636C484.139 403.693 483.465 404.952 482.118 406.413L479.241 409.533H484.633V410.646ZM487.209 405.262L487.755 399.907H493.257V401.168H488.913L488.588 404.097C489.114 403.787 489.712 403.632 490.38 403.632C491.359 403.632 492.136 403.957 492.711 404.606C493.287 405.25 493.574 406.123 493.574 407.224C493.574 408.33 493.274 409.203 492.674 409.843C492.079 410.477 491.246 410.794 490.174 410.794C489.225 410.794 488.45 410.531 487.851 410.005C487.251 409.479 486.909 408.751 486.825 407.822H488.116C488.2 408.436 488.418 408.901 488.773 409.216C489.127 409.525 489.594 409.68 490.174 409.68C490.808 409.68 491.305 409.464 491.664 409.031C492.028 408.598 492.21 408.001 492.21 407.239C492.21 406.521 492.013 405.946 491.62 405.513C491.231 405.075 490.712 404.856 490.063 404.856C489.468 404.856 489.001 404.987 488.662 405.247L488.3 405.542L487.209 405.262ZM500.923 399.9V401.058H500.672C499.61 401.078 498.764 401.392 498.134 402.002C497.505 402.612 497.141 403.47 497.043 404.576C497.608 403.927 498.38 403.603 499.359 403.603C500.293 403.603 501.038 403.932 501.594 404.591C502.154 405.25 502.435 406.1 502.435 407.143C502.435 408.249 502.132 409.134 501.527 409.798C500.927 410.462 500.121 410.794 499.108 410.794C498.08 410.794 497.247 410.401 496.608 409.614C495.968 408.822 495.649 407.804 495.649 406.56V406.037C495.649 404.06 496.069 402.55 496.91 401.508C497.756 400.46 499.012 399.924 500.679 399.9H500.923ZM499.13 404.738C498.663 404.738 498.233 404.879 497.839 405.159C497.446 405.439 497.173 405.791 497.021 406.214V406.715C497.021 407.6 497.22 408.313 497.618 408.854C498.016 409.395 498.513 409.665 499.108 409.665C499.723 409.665 500.205 409.439 500.554 408.987C500.908 408.535 501.085 407.942 501.085 407.209C501.085 406.472 500.905 405.877 500.546 405.424C500.192 404.967 499.72 404.738 499.13 404.738Z" fill="#263238"/>
<path d="M484.026 228.651L491.775 225.546L484.026 222.441L484.026 220.816L493.524 220.816L493.524 222.069L489.825 222.069L485.833 221.951L493.524 225.07L493.524 226.028L485.852 229.14L489.825 229.016L493.524 229.016L493.524 230.269L484.026 230.269L484.026 228.651ZM493.524 214.069C493.385 214.139 493.137 214.195 492.78 214.239C493.363 214.8 493.654 215.469 493.654 216.248C493.654 216.944 493.459 217.516 493.067 217.964C492.671 218.407 492.171 218.629 491.567 218.629C490.832 218.629 490.262 218.351 489.858 217.794C489.449 217.233 489.244 216.446 489.244 215.433L489.244 214.258L488.69 214.258C488.268 214.258 487.933 214.384 487.685 214.637C487.433 214.889 487.307 215.261 487.307 215.752C487.307 216.183 487.416 216.544 487.633 216.835C487.851 217.126 488.114 217.272 488.422 217.272L488.422 218.485C488.07 218.485 487.731 218.361 487.405 218.114C487.074 217.861 486.813 217.522 486.622 217.096C486.431 216.665 486.335 216.194 486.335 215.68C486.335 214.867 486.539 214.23 486.948 213.769C487.353 213.308 487.911 213.069 488.625 213.051L491.873 213.051C492.521 213.051 493.037 212.969 493.419 212.804L493.524 212.804L493.524 214.069ZM492.604 216.072C492.604 215.693 492.506 215.335 492.31 214.995C492.115 214.656 491.86 214.411 491.547 214.258L490.099 214.258L490.099 215.204C490.099 216.683 490.532 217.422 491.397 217.422C491.775 217.422 492.071 217.296 492.284 217.044C492.497 216.792 492.604 216.468 492.604 216.072ZM486.465 209.651L487.353 209.612C486.674 209.072 486.335 208.368 486.335 207.498C486.335 206.006 487.177 205.254 488.86 205.241L493.524 205.241L493.524 206.448L488.853 206.448C488.344 206.452 487.968 206.57 487.724 206.8C487.481 207.026 487.359 207.381 487.359 207.863C487.359 208.255 487.464 208.598 487.672 208.894C487.881 209.19 488.155 209.42 488.494 209.586L493.524 209.586L493.524 210.792L486.465 210.792L486.465 209.651ZM489.936 203.341C488.836 203.341 487.962 203.086 487.314 202.577C486.661 202.069 486.335 201.394 486.335 200.555C486.335 199.694 486.639 199.022 487.248 198.539L486.465 198.481L486.465 197.378L493.354 197.378C494.267 197.378 494.987 197.65 495.513 198.194C496.04 198.733 496.303 199.459 496.303 200.372C496.303 200.881 496.194 201.379 495.977 201.866C495.759 202.353 495.461 202.725 495.083 202.982L494.359 202.356C494.998 201.838 495.318 201.205 495.318 200.457C495.318 199.87 495.152 199.414 494.822 199.087C494.491 198.757 494.026 198.592 493.426 198.592L492.819 198.592C493.376 199.074 493.654 199.733 493.654 200.568C493.654 201.394 493.322 202.064 492.656 202.577C491.991 203.086 491.084 203.341 489.936 203.341ZM490.073 202.127C490.869 202.127 491.495 201.964 491.952 201.638C492.404 201.312 492.63 200.855 492.63 200.268C492.63 199.507 492.284 198.948 491.593 198.592L488.37 198.592C487.696 198.961 487.359 199.516 487.359 200.255C487.359 200.842 487.588 201.301 488.044 201.631C488.501 201.962 489.177 202.127 490.073 202.127ZM493.524 190.827C493.385 190.896 493.137 190.953 492.78 190.996C493.363 191.557 493.654 192.227 493.654 193.006C493.654 193.701 493.459 194.273 493.067 194.721C492.671 195.165 492.171 195.387 491.567 195.387C490.832 195.387 490.262 195.108 489.858 194.552C489.449 193.991 489.244 193.203 489.244 192.19L489.244 191.016L488.69 191.016C488.268 191.016 487.933 191.142 487.685 191.394C487.433 191.647 487.307 192.018 487.307 192.51C487.307 192.94 487.416 193.301 487.633 193.593C487.851 193.884 488.114 194.03 488.422 194.03L488.422 195.243C488.07 195.243 487.731 195.119 487.405 194.871C487.074 194.619 486.813 194.28 486.622 193.854C486.431 193.423 486.335 192.951 486.335 192.438C486.335 191.625 486.539 190.988 486.948 190.527C487.353 190.066 487.911 189.827 488.625 189.809L491.873 189.809C492.521 189.809 493.037 189.726 493.419 189.561L493.524 189.561L493.524 190.827ZM492.604 192.829C492.604 192.451 492.506 192.092 492.31 191.753C492.115 191.414 491.86 191.168 491.547 191.016L490.099 191.016L490.099 191.962C490.099 193.44 490.532 194.18 491.397 194.18C491.775 194.18 492.071 194.054 492.284 193.801C492.497 193.549 492.604 193.225 492.604 192.829ZM493.524 186.239L493.524 187.446L483.504 187.446L483.504 186.239L493.524 186.239ZM489.929 184.254C489.238 184.254 488.616 184.119 488.064 183.849C487.511 183.575 487.085 183.197 486.785 182.714C486.485 182.227 486.335 181.673 486.335 181.051C486.335 180.09 486.668 179.313 487.333 178.722C487.998 178.126 488.883 177.828 489.988 177.828L490.073 177.828C490.76 177.828 491.378 177.961 491.926 178.226C492.469 178.487 492.893 178.863 493.198 179.355C493.502 179.842 493.654 180.403 493.654 181.038C493.654 181.994 493.322 182.771 492.656 183.366C491.991 183.958 491.11 184.254 490.014 184.254L489.929 184.254ZM490.073 183.04C490.856 183.04 491.484 182.86 491.958 182.499C492.432 182.133 492.669 181.646 492.669 181.038C492.669 180.424 492.43 179.937 491.952 179.576C491.469 179.215 490.795 179.035 489.929 179.035C489.155 179.035 488.529 179.22 488.051 179.589C487.568 179.955 487.327 180.442 487.327 181.051C487.327 181.646 487.564 182.127 488.038 182.492C488.512 182.858 489.19 183.04 490.073 183.04ZM487.548 172.536C487.518 172.718 487.503 172.916 487.503 173.129C487.503 173.921 487.84 174.458 488.514 174.74L493.524 174.74L493.524 175.947L486.465 175.947L486.465 174.773L487.281 174.754C486.65 174.358 486.335 173.797 486.335 173.07C486.335 172.836 486.365 172.657 486.426 172.536L487.548 172.536ZM493.654 168.254C493.654 169.211 493.341 169.989 492.715 170.59C492.084 171.19 491.243 171.49 490.19 171.49L489.969 171.49C489.268 171.49 488.644 171.357 488.096 171.092C487.544 170.822 487.113 170.448 486.805 169.97C486.492 169.487 486.335 168.965 486.335 168.404C486.335 167.487 486.637 166.773 487.242 166.265C487.846 165.756 488.712 165.501 489.838 165.501L490.34 165.501L490.34 170.283C491.036 170.266 491.599 170.063 492.03 169.676C492.456 169.285 492.669 168.789 492.669 168.189C492.669 167.763 492.582 167.402 492.408 167.106C492.234 166.81 492.004 166.552 491.717 166.33L492.291 165.593C493.2 166.184 493.654 167.071 493.654 168.254ZM487.327 168.404C487.327 168.891 487.505 169.3 487.861 169.631C488.214 169.961 488.71 170.166 489.349 170.244L489.349 166.708L489.257 166.708C488.644 166.743 488.17 166.908 487.835 167.204C487.496 167.5 487.327 167.9 487.327 168.404Z" fill="#263238"/>
<path d="M129 228.544L119.502 228.544L119.502 225.439C119.502 224.408 119.715 223.634 120.141 223.117C120.568 222.595 121.198 222.334 122.033 222.334C122.477 222.334 122.87 222.46 123.214 222.712C123.553 222.964 123.816 223.308 124.003 223.743C124.147 223.23 124.421 222.825 124.825 222.53C125.225 222.229 125.704 222.079 126.26 222.079C127.113 222.079 127.782 222.356 128.269 222.908C128.756 223.46 129 224.241 129 225.25L129 228.544ZM124.558 227.292L127.976 227.292L127.976 225.224C127.976 224.641 127.826 224.182 127.526 223.847C127.221 223.508 126.804 223.338 126.273 223.338C125.129 223.338 124.558 223.96 124.558 225.204L124.558 227.292ZM123.553 227.292L123.553 225.4C123.553 224.852 123.416 224.415 123.142 224.089C122.868 223.758 122.496 223.593 122.027 223.593C121.505 223.593 121.126 223.745 120.891 224.049C120.652 224.354 120.533 224.817 120.533 225.439L120.533 227.292L123.553 227.292ZM129 215.684C128.861 215.754 128.613 215.811 128.256 215.854C128.839 216.415 129.13 217.085 129.13 217.863C129.13 218.559 128.935 219.131 128.543 219.579C128.148 220.022 127.647 220.244 127.043 220.244C126.308 220.244 125.738 219.966 125.334 219.409C124.925 218.848 124.721 218.061 124.721 217.048L124.721 215.874L124.166 215.874C123.744 215.874 123.41 216 123.162 216.252C122.909 216.504 122.783 216.876 122.783 217.367C122.783 217.798 122.892 218.159 123.109 218.45C123.327 218.742 123.59 218.887 123.899 218.887L123.899 220.101C123.546 220.101 123.207 219.977 122.881 219.729C122.551 219.477 122.29 219.137 122.098 218.711C121.907 218.281 121.811 217.809 121.811 217.296C121.811 216.482 122.016 215.845 122.424 215.384C122.829 214.923 123.388 214.684 124.101 214.667L127.35 214.667C127.998 214.667 128.513 214.584 128.896 214.419L129 214.419L129 215.684ZM128.08 217.687C128.08 217.309 127.982 216.95 127.787 216.611C127.591 216.272 127.337 216.026 127.023 215.874L125.575 215.874L125.575 216.82C125.575 218.298 126.008 219.037 126.873 219.037C127.252 219.037 127.547 218.911 127.761 218.659C127.974 218.407 128.08 218.083 128.08 217.687ZM121.942 211.266L122.829 211.227C122.15 210.688 121.811 209.983 121.811 209.113C121.811 207.622 122.653 206.869 124.336 206.856L129 206.856L129 208.063L124.329 208.063C123.82 208.067 123.444 208.185 123.201 208.415C122.957 208.642 122.835 208.996 122.835 209.479C122.835 209.87 122.94 210.214 123.149 210.509C123.357 210.805 123.631 211.036 123.971 211.201L129 211.201L129 212.408L121.942 212.408L121.942 211.266ZM125.412 204.956C124.312 204.956 123.438 204.702 122.79 204.193C122.137 203.684 121.811 203.01 121.811 202.17C121.811 201.309 122.116 200.637 122.725 200.155L121.942 200.096L121.942 198.994L128.83 198.994C129.744 198.994 130.463 199.265 130.99 199.809C131.516 200.348 131.779 201.075 131.779 201.988C131.779 202.497 131.67 202.995 131.453 203.482C131.235 203.969 130.937 204.341 130.559 204.597L129.835 203.971C130.474 203.453 130.794 202.821 130.794 202.073C130.794 201.486 130.629 201.029 130.298 200.703C129.968 200.372 129.502 200.207 128.902 200.207L128.295 200.207C128.852 200.69 129.13 201.349 129.13 202.184C129.13 203.01 128.798 203.68 128.132 204.193C127.467 204.702 126.56 204.956 125.412 204.956ZM125.549 203.743C126.345 203.743 126.971 203.58 127.428 203.253C127.88 202.927 128.106 202.471 128.106 201.883C128.106 201.122 127.761 200.564 127.069 200.207L123.847 200.207C123.172 200.577 122.835 201.131 122.835 201.87C122.835 202.457 123.064 202.916 123.52 203.247C123.977 203.577 124.653 203.743 125.549 203.743ZM129 192.442C128.861 192.512 128.613 192.568 128.256 192.612C128.839 193.173 129.13 193.842 129.13 194.621C129.13 195.317 128.935 195.889 128.543 196.337C128.148 196.78 127.647 197.002 127.043 197.002C126.308 197.002 125.738 196.724 125.334 196.167C124.925 195.606 124.721 194.819 124.721 193.805L124.721 192.631L124.166 192.631C123.744 192.631 123.41 192.757 123.162 193.01C122.909 193.262 122.783 193.634 122.783 194.125C122.783 194.556 122.892 194.917 123.109 195.208C123.327 195.499 123.59 195.645 123.899 195.645L123.899 196.858C123.546 196.858 123.207 196.734 122.881 196.487C122.551 196.234 122.29 195.895 122.098 195.469C121.907 195.038 121.811 194.567 121.811 194.053C121.811 193.24 122.016 192.603 122.424 192.142C122.829 191.681 123.388 191.442 124.101 191.424L127.35 191.424C127.998 191.424 128.513 191.342 128.896 191.177L129 191.177L129 192.442ZM128.08 194.445C128.08 194.066 127.982 193.708 127.787 193.368C127.591 193.029 127.337 192.783 127.023 192.631L125.575 192.631L125.575 193.577C125.575 195.056 126.008 195.795 126.873 195.795C127.252 195.795 127.547 195.669 127.761 195.417C127.974 195.164 128.08 194.84 128.08 194.445ZM129 187.854L129 189.061L118.98 189.061L118.98 187.854L129 187.854ZM125.406 185.869C124.714 185.869 124.092 185.734 123.54 185.464C122.988 185.19 122.561 184.812 122.261 184.329C121.961 183.842 121.811 183.288 121.811 182.666C121.811 181.705 122.144 180.929 122.809 180.337C123.475 179.741 124.36 179.443 125.464 179.443L125.549 179.443C126.236 179.443 126.854 179.576 127.402 179.841C127.945 180.102 128.369 180.478 128.674 180.97C128.978 181.457 129.13 182.018 129.13 182.653C129.13 183.61 128.798 184.386 128.132 184.982C127.467 185.573 126.586 185.869 125.49 185.869L125.406 185.869ZM125.549 184.656C126.332 184.656 126.96 184.475 127.434 184.114C127.908 183.749 128.145 183.262 128.145 182.653C128.145 182.04 127.906 181.553 127.428 181.192C126.945 180.831 126.271 180.65 125.406 180.65C124.632 180.65 124.005 180.835 123.527 181.205C123.044 181.57 122.803 182.057 122.803 182.666C122.803 183.262 123.04 183.742 123.514 184.108C123.988 184.473 124.666 184.656 125.549 184.656ZM123.025 174.151C122.994 174.334 122.979 174.531 122.979 174.745C122.979 175.536 123.316 176.073 123.99 176.356L129 176.356L129 177.563L121.942 177.563L121.942 176.388L122.757 176.369C122.127 175.973 121.811 175.412 121.811 174.686C121.811 174.451 121.842 174.273 121.903 174.151L123.025 174.151ZM129.13 169.87C129.13 170.826 128.817 171.605 128.191 172.205C127.561 172.805 126.719 173.105 125.667 173.105L125.445 173.105C124.745 173.105 124.121 172.972 123.573 172.707C123.02 172.438 122.59 172.064 122.281 171.585C121.968 171.102 121.811 170.581 121.811 170.02C121.811 169.102 122.114 168.389 122.718 167.88C123.323 167.371 124.188 167.117 125.314 167.117L125.817 167.117L125.817 171.898C126.512 171.881 127.076 171.679 127.506 171.292C127.932 170.9 128.145 170.404 128.145 169.804C128.145 169.378 128.058 169.017 127.885 168.721C127.711 168.426 127.48 168.167 127.193 167.945L127.767 167.208C128.676 167.799 129.13 168.687 129.13 169.87ZM122.803 170.02C122.803 170.507 122.981 170.915 123.338 171.246C123.69 171.576 124.186 171.781 124.825 171.859L124.825 168.323L124.734 168.323C124.121 168.358 123.647 168.524 123.312 168.819C122.972 169.115 122.803 169.515 122.803 170.02Z" fill="#263238"/>
<path d="M554 228.544L544.502 228.544L544.502 225.439C544.502 224.408 544.715 223.634 545.141 223.117C545.568 222.595 546.198 222.334 547.033 222.334C547.477 222.334 547.87 222.46 548.214 222.712C548.553 222.964 548.816 223.308 549.003 223.743C549.147 223.23 549.421 222.825 549.825 222.53C550.225 222.229 550.704 222.079 551.26 222.079C552.113 222.079 552.782 222.356 553.269 222.908C553.756 223.46 554 224.241 554 225.25L554 228.544ZM549.558 227.292L552.976 227.292L552.976 225.224C552.976 224.641 552.826 224.182 552.526 223.847C552.221 223.508 551.804 223.338 551.273 223.338C550.129 223.338 549.558 223.96 549.558 225.204L549.558 227.292ZM548.553 227.292L548.553 225.4C548.553 224.852 548.416 224.415 548.142 224.089C547.868 223.758 547.496 223.593 547.027 223.593C546.505 223.593 546.126 223.745 545.891 224.049C545.652 224.354 545.533 224.817 545.533 225.439L545.533 227.292L548.553 227.292ZM554 215.684C553.861 215.754 553.613 215.811 553.256 215.854C553.839 216.415 554.13 217.085 554.13 217.863C554.13 218.559 553.935 219.131 553.543 219.579C553.148 220.022 552.647 220.244 552.043 220.244C551.308 220.244 550.738 219.966 550.334 219.409C549.925 218.848 549.721 218.061 549.721 217.048L549.721 215.874L549.166 215.874C548.744 215.874 548.41 216 548.162 216.252C547.909 216.504 547.783 216.876 547.783 217.367C547.783 217.798 547.892 218.159 548.109 218.45C548.327 218.742 548.59 218.887 548.899 218.887L548.899 220.101C548.546 220.101 548.207 219.977 547.881 219.729C547.551 219.477 547.29 219.137 547.098 218.711C546.907 218.281 546.811 217.809 546.811 217.296C546.811 216.482 547.016 215.845 547.424 215.384C547.829 214.923 548.388 214.684 549.101 214.667L552.35 214.667C552.998 214.667 553.513 214.584 553.896 214.419L554 214.419L554 215.684ZM553.08 217.687C553.08 217.309 552.982 216.95 552.787 216.611C552.591 216.272 552.337 216.026 552.023 215.874L550.575 215.874L550.575 216.82C550.575 218.298 551.008 219.037 551.873 219.037C552.252 219.037 552.547 218.911 552.761 218.659C552.974 218.407 553.08 218.083 553.08 217.687ZM546.942 211.266L547.829 211.227C547.15 210.688 546.811 209.983 546.811 209.113C546.811 207.622 547.653 206.869 549.336 206.856L554 206.856L554 208.063L549.329 208.063C548.82 208.067 548.444 208.185 548.201 208.415C547.957 208.642 547.835 208.996 547.835 209.479C547.835 209.87 547.94 210.214 548.149 210.509C548.357 210.805 548.631 211.036 548.971 211.201L554 211.201L554 212.408L546.942 212.408L546.942 211.266ZM550.412 204.956C549.312 204.956 548.438 204.702 547.79 204.193C547.137 203.684 546.811 203.01 546.811 202.17C546.811 201.309 547.116 200.637 547.725 200.155L546.942 200.096L546.942 198.994L553.83 198.994C554.744 198.994 555.463 199.265 555.99 199.809C556.516 200.348 556.779 201.075 556.779 201.988C556.779 202.497 556.67 202.995 556.453 203.482C556.235 203.969 555.937 204.341 555.559 204.597L554.835 203.971C555.474 203.453 555.794 202.821 555.794 202.073C555.794 201.486 555.629 201.029 555.298 200.703C554.968 200.372 554.502 200.207 553.902 200.207L553.295 200.207C553.852 200.69 554.13 201.349 554.13 202.184C554.13 203.01 553.798 203.68 553.132 204.193C552.467 204.702 551.56 204.956 550.412 204.956ZM550.549 203.743C551.345 203.743 551.971 203.58 552.428 203.253C552.88 202.927 553.106 202.471 553.106 201.883C553.106 201.122 552.761 200.564 552.069 200.207L548.847 200.207C548.172 200.577 547.835 201.131 547.835 201.87C547.835 202.457 548.064 202.916 548.52 203.247C548.977 203.577 549.653 203.743 550.549 203.743ZM554 192.442C553.861 192.512 553.613 192.568 553.256 192.612C553.839 193.173 554.13 193.842 554.13 194.621C554.13 195.317 553.935 195.889 553.543 196.337C553.148 196.78 552.647 197.002 552.043 197.002C551.308 197.002 550.738 196.724 550.334 196.167C549.925 195.606 549.721 194.819 549.721 193.805L549.721 192.631L549.166 192.631C548.744 192.631 548.41 192.757 548.162 193.01C547.909 193.262 547.783 193.634 547.783 194.125C547.783 194.556 547.892 194.917 548.109 195.208C548.327 195.499 548.59 195.645 548.899 195.645L548.899 196.858C548.546 196.858 548.207 196.734 547.881 196.487C547.551 196.234 547.29 195.895 547.098 195.469C546.907 195.038 546.811 194.567 546.811 194.053C546.811 193.24 547.016 192.603 547.424 192.142C547.829 191.681 548.388 191.442 549.101 191.424L552.35 191.424C552.998 191.424 553.513 191.342 553.896 191.177L554 191.177L554 192.442ZM553.08 194.445C553.08 194.066 552.982 193.708 552.787 193.368C552.591 193.029 552.337 192.783 552.023 192.631L550.575 192.631L550.575 193.577C550.575 195.056 551.008 195.795 551.873 195.795C552.252 195.795 552.547 195.669 552.761 195.417C552.974 195.164 553.08 194.84 553.08 194.445ZM554 187.854L554 189.061L543.98 189.061L543.98 187.854L554 187.854ZM550.406 185.869C549.714 185.869 549.092 185.734 548.54 185.464C547.988 185.19 547.561 184.812 547.261 184.329C546.961 183.842 546.811 183.288 546.811 182.666C546.811 181.705 547.144 180.929 547.809 180.337C548.475 179.741 549.36 179.443 550.464 179.443L550.549 179.443C551.236 179.443 551.854 179.576 552.402 179.841C552.945 180.102 553.369 180.478 553.674 180.97C553.978 181.457 554.13 182.018 554.13 182.653C554.13 183.61 553.798 184.386 553.132 184.982C552.467 185.573 551.586 185.869 550.49 185.869L550.406 185.869ZM550.549 184.656C551.332 184.656 551.96 184.475 552.434 184.114C552.908 183.749 553.145 183.262 553.145 182.653C553.145 182.04 552.906 181.553 552.428 181.192C551.945 180.831 551.271 180.65 550.406 180.65C549.632 180.65 549.005 180.835 548.527 181.205C548.044 181.57 547.803 182.057 547.803 182.666C547.803 183.262 548.04 183.742 548.514 184.108C548.988 184.473 549.666 184.656 550.549 184.656ZM548.025 174.151C547.994 174.334 547.979 174.531 547.979 174.745C547.979 175.536 548.316 176.073 548.99 176.356L554 176.356L554 177.563L546.942 177.563L546.942 176.388L547.757 176.369C547.127 175.973 546.811 175.412 546.811 174.686C546.811 174.451 546.842 174.273 546.903 174.151L548.025 174.151ZM554.13 169.87C554.13 170.826 553.817 171.605 553.191 172.205C552.561 172.805 551.719 173.105 550.667 173.105L550.445 173.105C549.745 173.105 549.121 172.972 548.573 172.707C548.02 172.438 547.59 172.064 547.281 171.585C546.968 171.102 546.811 170.581 546.811 170.02C546.811 169.102 547.114 168.389 547.718 167.88C548.323 167.371 549.188 167.117 550.314 167.117L550.817 167.117L550.817 171.898C551.512 171.881 552.076 171.679 552.506 171.292C552.932 170.9 553.145 170.404 553.145 169.804C553.145 169.378 553.058 169.017 552.885 168.721C552.711 168.426 552.48 168.167 552.193 167.945L552.767 167.208C553.676 167.799 554.13 168.687 554.13 169.87ZM547.803 170.02C547.803 170.507 547.981 170.915 548.338 171.246C548.69 171.576 549.186 171.781 549.825 171.859L549.825 168.323L549.734 168.323C549.121 168.358 548.647 168.524 548.312 168.819C547.972 169.115 547.803 169.515 547.803 170.02Z" fill="#263238"/>
<path d="M189.302 194.376C189.854 194.845 190.13 195.535 190.13 196.444C190.13 197.196 189.913 197.77 189.478 198.166C189.039 198.557 188.391 198.755 187.534 198.759L182.942 198.759L182.942 197.552L187.502 197.552C188.571 197.552 189.106 197.118 189.106 196.248C189.106 195.326 188.763 194.713 188.076 194.408L182.942 194.408L182.942 193.201L190 193.201L190 194.35L189.302 194.376ZM186.412 191.288C185.329 191.288 184.46 191.031 183.803 190.518C183.142 190.005 182.811 189.333 182.811 188.503C182.811 187.676 183.094 187.022 183.659 186.539L179.98 186.539L179.98 185.332L190 185.332L190 186.441L189.243 186.5C189.835 186.983 190.13 187.655 190.13 188.516C190.13 189.333 189.796 190.001 189.126 190.518C188.456 191.031 187.582 191.288 186.503 191.288L186.412 191.288ZM186.549 190.081C187.349 190.081 187.976 189.916 188.428 189.585C188.88 189.255 189.106 188.798 189.106 188.216C189.106 187.45 188.763 186.891 188.076 186.539L184.834 186.539C184.168 186.9 183.835 187.454 183.835 188.202C183.835 188.794 184.064 189.255 184.52 189.585C184.977 189.916 185.653 190.081 186.549 190.081ZM189.302 178.729C189.854 179.198 190.13 179.887 190.13 180.796C190.13 181.549 189.913 182.123 189.478 182.519C189.039 182.91 188.391 183.108 187.534 183.112L182.942 183.112L182.942 181.905L187.502 181.905C188.571 181.905 189.106 181.47 189.106 180.601C189.106 179.679 188.763 179.066 188.076 178.761L182.942 178.761L182.942 177.554L190 177.554L190 178.702L189.302 178.729ZM186.549 169.385C187.623 169.385 188.489 169.631 189.145 170.122C189.802 170.614 190.13 171.279 190.13 172.118C190.13 172.975 189.859 173.649 189.315 174.141L192.714 174.141L192.714 175.347L182.942 175.347L182.942 174.245L183.725 174.186C183.116 173.695 182.811 173.012 182.811 172.138C182.811 171.29 183.131 170.62 183.77 170.129C184.41 169.633 185.299 169.385 186.438 169.385L186.549 169.385ZM186.412 170.592C185.616 170.592 184.988 170.761 184.527 171.101C184.066 171.44 183.835 171.905 183.835 172.497C183.835 173.227 184.159 173.775 184.807 174.141L188.18 174.141C188.824 173.78 189.145 173.227 189.145 172.484C189.145 171.905 188.917 171.446 188.46 171.107C188 170.764 187.317 170.592 186.412 170.592ZM190 166.167L190 167.374L182.942 167.374L182.942 166.167L190 166.167ZM181.07 167.472C180.874 167.472 180.709 167.413 180.574 167.295C180.439 167.174 180.372 166.995 180.372 166.761C180.372 166.526 180.439 166.347 180.574 166.226C180.709 166.104 180.874 166.043 181.07 166.043C181.265 166.043 181.428 166.104 181.559 166.226C181.689 166.347 181.755 166.526 181.755 166.761C181.755 166.995 181.689 167.174 181.559 167.295C181.428 167.413 181.265 167.472 181.07 167.472Z" fill="#263238"/>
<path d="M613.302 194.376C613.854 194.845 614.13 195.535 614.13 196.444C614.13 197.196 613.913 197.77 613.478 198.166C613.039 198.557 612.391 198.755 611.534 198.759L606.942 198.759L606.942 197.552L611.502 197.552C612.571 197.552 613.106 197.118 613.106 196.248C613.106 195.326 612.763 194.713 612.076 194.408L606.942 194.408L606.942 193.201L614 193.201L614 194.35L613.302 194.376ZM610.412 191.288C609.329 191.288 608.46 191.031 607.803 190.518C607.142 190.005 606.811 189.333 606.811 188.503C606.811 187.676 607.094 187.022 607.659 186.539L603.98 186.539L603.98 185.332L614 185.332L614 186.441L613.243 186.5C613.835 186.983 614.13 187.655 614.13 188.516C614.13 189.333 613.796 190.001 613.126 190.518C612.456 191.031 611.582 191.288 610.503 191.288L610.412 191.288ZM610.549 190.081C611.349 190.081 611.976 189.916 612.428 189.585C612.88 189.255 613.106 188.798 613.106 188.216C613.106 187.45 612.763 186.891 612.076 186.539L608.834 186.539C608.168 186.9 607.835 187.454 607.835 188.202C607.835 188.794 608.064 189.255 608.52 189.585C608.977 189.916 609.653 190.081 610.549 190.081ZM613.302 178.729C613.854 179.198 614.13 179.887 614.13 180.796C614.13 181.549 613.913 182.123 613.478 182.519C613.039 182.91 612.391 183.108 611.534 183.112L606.942 183.112L606.942 181.905L611.502 181.905C612.571 181.905 613.106 181.47 613.106 180.601C613.106 179.679 612.763 179.066 612.076 178.761L606.942 178.761L606.942 177.554L614 177.554L614 178.702L613.302 178.729ZM610.549 169.385C611.623 169.385 612.489 169.631 613.145 170.122C613.802 170.614 614.13 171.279 614.13 172.118C614.13 172.975 613.859 173.649 613.315 174.141L616.714 174.141L616.714 175.347L606.942 175.347L606.942 174.245L607.725 174.186C607.116 173.695 606.811 173.012 606.811 172.138C606.811 171.29 607.131 170.62 607.77 170.129C608.41 169.633 609.299 169.385 610.438 169.385L610.549 169.385ZM610.412 170.592C609.616 170.592 608.988 170.761 608.527 171.101C608.066 171.44 607.835 171.905 607.835 172.497C607.835 173.227 608.159 173.775 608.807 174.141L612.18 174.141C612.824 173.78 613.145 173.227 613.145 172.484C613.145 171.905 612.917 171.446 612.46 171.107C612 170.764 611.317 170.592 610.412 170.592ZM614 166.167L614 167.374L606.942 167.374L606.942 166.167L614 166.167ZM605.07 167.472C604.874 167.472 604.709 167.413 604.574 167.295C604.439 167.174 604.372 166.995 604.372 166.761C604.372 166.526 604.439 166.347 604.574 166.226C604.709 166.104 604.874 166.043 605.07 166.043C605.265 166.043 605.428 166.104 605.559 166.226C605.689 166.347 605.755 166.526 605.755 166.761C605.755 166.995 605.689 167.174 605.559 167.295C605.428 167.413 605.265 167.472 605.07 167.472Z" fill="#263238"/>
<path d="M248.282 197.292L252 197.292L252 198.544L242.502 198.544L242.502 195.041C242.502 194.002 242.767 193.188 243.298 192.601C243.828 192.01 244.531 191.714 245.405 191.714C246.327 191.714 247.038 192.003 247.538 192.582C248.034 193.156 248.282 193.98 248.282 195.054L248.282 197.292ZM247.258 197.292L247.258 195.041C247.258 194.371 247.101 193.858 246.788 193.502C246.47 193.145 246.014 192.967 245.418 192.967C244.853 192.967 244.4 193.145 244.061 193.502C243.722 193.858 243.546 194.347 243.533 194.969L243.533 197.292L247.258 197.292ZM251.302 185.58C251.854 186.05 252.13 186.739 252.13 187.648C252.13 188.4 251.913 188.974 251.478 189.37C251.039 189.762 250.391 189.959 249.534 189.964L244.942 189.964L244.942 188.757L249.502 188.757C250.571 188.757 251.106 188.322 251.106 187.452C251.106 186.53 250.763 185.917 250.076 185.613L244.942 185.613L244.942 184.406L252 184.406L252 185.554L251.302 185.58ZM243.233 180.562L244.942 180.562L244.942 179.244L245.875 179.244L245.875 180.562L250.252 180.562C250.534 180.562 250.748 180.503 250.891 180.385C251.03 180.268 251.1 180.068 251.1 179.785C251.1 179.646 251.074 179.455 251.021 179.211L252 179.211C252.087 179.529 252.13 179.837 252.13 180.138C252.13 180.677 251.967 181.083 251.641 181.357C251.315 181.631 250.852 181.768 250.252 181.768L245.875 181.768L245.875 183.053L244.942 183.053L244.942 181.768L243.233 181.768L243.233 180.562ZM243.233 175.824L244.942 175.824L244.942 174.506L245.875 174.506L245.875 175.824L250.252 175.824C250.534 175.824 250.748 175.765 250.891 175.647C251.03 175.53 251.1 175.33 251.1 175.047C251.1 174.908 251.074 174.717 251.021 174.473L252 174.473C252.087 174.791 252.13 175.099 252.13 175.4C252.13 175.939 251.967 176.345 251.641 176.619C251.315 176.893 250.852 177.03 250.252 177.03L245.875 177.03L245.875 178.315L244.942 178.315L244.942 177.03L243.233 177.03L243.233 175.824ZM251.302 168.365C251.854 168.835 252.13 169.524 252.13 170.433C252.13 171.186 251.913 171.76 251.478 172.155C251.039 172.547 250.391 172.745 249.534 172.749L244.942 172.749L244.942 171.542L249.502 171.542C250.571 171.542 251.106 171.107 251.106 170.237C251.106 169.316 250.763 168.702 250.076 168.398L244.942 168.398L244.942 167.191L252 167.191L252 168.339L251.302 168.365ZM246.025 161.572C245.994 161.755 245.979 161.953 245.979 162.166C245.979 162.958 246.316 163.495 246.99 163.777L252 163.777L252 164.984L244.942 164.984L244.942 163.81L245.757 163.79C245.127 163.395 244.811 162.834 244.811 162.107C244.811 161.872 244.842 161.694 244.903 161.572L246.025 161.572Z" fill="#263238"/>
<path d="M672.282 197.292L676 197.292L676 198.544L666.502 198.544L666.502 195.041C666.502 194.002 666.767 193.188 667.298 192.601C667.828 192.01 668.531 191.714 669.405 191.714C670.327 191.714 671.038 192.003 671.538 192.582C672.034 193.156 672.282 193.98 672.282 195.054L672.282 197.292ZM671.258 197.292L671.258 195.041C671.258 194.371 671.101 193.858 670.788 193.502C670.47 193.145 670.014 192.967 669.418 192.967C668.853 192.967 668.4 193.145 668.061 193.502C667.722 193.858 667.546 194.347 667.533 194.969L667.533 197.292L671.258 197.292ZM675.302 185.58C675.854 186.05 676.13 186.739 676.13 187.648C676.13 188.4 675.913 188.974 675.478 189.37C675.039 189.762 674.391 189.959 673.534 189.964L668.942 189.964L668.942 188.757L673.502 188.757C674.571 188.757 675.106 188.322 675.106 187.452C675.106 186.53 674.763 185.917 674.076 185.613L668.942 185.613L668.942 184.406L676 184.406L676 185.554L675.302 185.58ZM667.233 180.562L668.942 180.562L668.942 179.244L669.875 179.244L669.875 180.562L674.252 180.562C674.534 180.562 674.748 180.503 674.891 180.385C675.03 180.268 675.1 180.068 675.1 179.785C675.1 179.646 675.074 179.455 675.021 179.211L676 179.211C676.087 179.529 676.13 179.837 676.13 180.138C676.13 180.677 675.967 181.083 675.641 181.357C675.315 181.631 674.852 181.768 674.252 181.768L669.875 181.768L669.875 183.053L668.942 183.053L668.942 181.768L667.233 181.768L667.233 180.562ZM667.233 175.824L668.942 175.824L668.942 174.506L669.875 174.506L669.875 175.824L674.252 175.824C674.534 175.824 674.748 175.765 674.891 175.647C675.03 175.53 675.1 175.33 675.1 175.047C675.1 174.908 675.074 174.717 675.021 174.473L676 174.473C676.087 174.791 676.13 175.099 676.13 175.4C676.13 175.939 675.967 176.345 675.641 176.619C675.315 176.893 674.852 177.03 674.252 177.03L669.875 177.03L669.875 178.315L668.942 178.315L668.942 177.03L667.233 177.03L667.233 175.824ZM675.302 168.365C675.854 168.835 676.13 169.524 676.13 170.433C676.13 171.186 675.913 171.76 675.478 172.155C675.039 172.547 674.391 172.745 673.534 172.749L668.942 172.749L668.942 171.542L673.502 171.542C674.571 171.542 675.106 171.107 675.106 170.237C675.106 169.316 674.763 168.702 674.076 168.398L668.942 168.398L668.942 167.191L676 167.191L676 168.339L675.302 168.365ZM670.025 161.572C669.994 161.755 669.979 161.953 669.979 162.166C669.979 162.958 670.316 163.495 670.99 163.777L676 163.777L676 164.984L668.942 164.984L668.942 163.81L669.757 163.79C669.127 163.395 668.811 162.834 668.811 162.107C668.811 161.872 668.842 161.694 668.903 161.572L670.025 161.572Z" fill="#263238"/>
<path d="M301.502 271.926L309.252 268.821L301.502 265.716L301.502 264.092L311 264.092L311 265.344L307.301 265.344L303.309 265.227L311 268.345L311 269.304L303.329 272.416L307.301 272.292L311 272.292L311 273.544L301.502 273.544L301.502 271.926ZM309.232 259.393L303.942 257.749L303.942 256.457L312.089 259.295C313.264 259.734 313.851 260.432 313.851 261.389L313.831 261.617L313.746 262.067L312.768 262.067L312.794 261.741C312.794 261.332 312.711 261.015 312.546 260.789C312.381 260.558 312.079 260.369 311.639 260.221L310.922 259.954L303.942 262.472L303.942 261.154L309.232 259.393ZM309.128 250.897C308.802 250.897 308.549 251.021 308.371 251.269C308.188 251.513 308.032 251.941 307.901 252.554C307.771 253.163 307.614 253.648 307.432 254.009C307.249 254.366 307.032 254.631 306.779 254.805C306.527 254.974 306.227 255.059 305.879 255.059C305.301 255.059 304.812 254.816 304.411 254.329C304.011 253.837 303.811 253.211 303.811 252.45C303.811 251.65 304.018 251.002 304.431 250.506C304.844 250.006 305.373 249.756 306.016 249.756L306.016 250.969C305.686 250.969 305.401 251.11 305.162 251.393C304.922 251.671 304.803 252.024 304.803 252.45C304.803 252.889 304.899 253.233 305.09 253.481C305.281 253.729 305.531 253.852 305.84 253.852C306.131 253.852 306.351 253.737 306.499 253.507C306.647 253.276 306.788 252.861 306.923 252.261C307.058 251.656 307.219 251.167 307.406 250.793C307.593 250.419 307.819 250.143 308.084 249.965C308.345 249.782 308.665 249.691 309.043 249.691C309.674 249.691 310.18 249.943 310.563 250.447C310.941 250.952 311.13 251.606 311.13 252.411C311.13 252.976 311.03 253.476 310.83 253.911C310.63 254.346 310.352 254.687 309.995 254.935C309.634 255.179 309.245 255.301 308.828 255.301L308.828 254.094C309.232 254.072 309.554 253.911 309.793 253.611C310.028 253.307 310.145 252.907 310.145 252.411C310.145 251.954 310.054 251.589 309.871 251.315C309.684 251.037 309.437 250.897 309.128 250.897ZM307.406 248.071C306.714 248.071 306.092 247.936 305.54 247.666C304.988 247.392 304.561 247.014 304.261 246.531C303.961 246.044 303.811 245.49 303.811 244.868C303.811 243.907 304.144 243.13 304.809 242.539C305.475 241.943 306.36 241.645 307.464 241.645L307.549 241.645C308.236 241.645 308.854 241.778 309.402 242.043C309.945 242.304 310.369 242.68 310.674 243.172C310.978 243.659 311.13 244.22 311.13 244.855C311.13 245.811 310.798 246.588 310.132 247.184C309.467 247.775 308.586 248.071 307.49 248.071L307.406 248.071ZM307.549 246.857C308.332 246.857 308.96 246.677 309.434 246.316C309.908 245.951 310.145 245.464 310.145 244.855C310.145 244.241 309.906 243.754 309.428 243.393C308.945 243.032 308.271 242.852 307.406 242.852C306.632 242.852 306.005 243.037 305.527 243.407C305.044 243.772 304.803 244.259 304.803 244.868C304.803 245.464 305.04 245.944 305.514 246.309C305.988 246.675 306.666 246.857 307.549 246.857ZM305.025 236.353C304.994 236.535 304.979 236.733 304.979 236.946C304.979 237.738 305.316 238.275 305.99 238.558L311 238.558L311 239.764L303.942 239.764L303.942 238.59L304.757 238.571C304.127 238.175 303.811 237.614 303.811 236.888C303.811 236.653 303.842 236.474 303.903 236.353L305.025 236.353ZM311.13 232.071C311.13 233.028 310.817 233.807 310.191 234.407C309.561 235.007 308.719 235.307 307.667 235.307L307.445 235.307C306.745 235.307 306.121 235.174 305.573 234.909C305.02 234.639 304.59 234.265 304.281 233.787C303.968 233.304 303.811 232.782 303.811 232.221C303.811 231.304 304.114 230.59 304.718 230.082C305.323 229.573 306.188 229.318 307.314 229.318L307.817 229.318L307.817 234.1C308.512 234.083 309.076 233.88 309.506 233.493C309.932 233.102 310.145 232.606 310.145 232.006C310.145 231.58 310.058 231.219 309.885 230.923C309.711 230.627 309.48 230.369 309.193 230.147L309.767 229.41C310.676 230.001 311.13 230.888 311.13 232.071ZM304.803 232.221C304.803 232.708 304.981 233.117 305.338 233.448C305.69 233.778 306.186 233.983 306.825 234.061L306.825 230.525L306.734 230.525C306.121 230.56 305.647 230.725 305.312 231.021C304.972 231.317 304.803 231.717 304.803 232.221Z" fill="#263238"/>
<path d="M725.502 271.926L733.252 268.821L725.502 265.716L725.502 264.092L735 264.092L735 265.344L731.301 265.344L727.309 265.227L735 268.345L735 269.304L727.329 272.416L731.301 272.292L735 272.292L735 273.544L725.502 273.544L725.502 271.926ZM733.232 259.393L727.942 257.749L727.942 256.457L736.089 259.295C737.264 259.734 737.851 260.432 737.851 261.389L737.831 261.617L737.746 262.067L736.768 262.067L736.794 261.741C736.794 261.332 736.711 261.015 736.546 260.789C736.381 260.558 736.079 260.369 735.639 260.221L734.922 259.954L727.942 262.472L727.942 261.154L733.232 259.393ZM733.128 250.897C732.802 250.897 732.549 251.021 732.371 251.269C732.188 251.513 732.032 251.941 731.901 252.554C731.771 253.163 731.614 253.648 731.432 254.009C731.249 254.366 731.032 254.631 730.779 254.805C730.527 254.974 730.227 255.059 729.879 255.059C729.301 255.059 728.812 254.816 728.411 254.329C728.011 253.837 727.811 253.211 727.811 252.45C727.811 251.65 728.018 251.002 728.431 250.506C728.844 250.006 729.373 249.756 730.016 249.756L730.016 250.969C729.686 250.969 729.401 251.11 729.162 251.393C728.922 251.671 728.803 252.024 728.803 252.45C728.803 252.889 728.899 253.233 729.09 253.481C729.281 253.729 729.531 253.852 729.84 253.852C730.131 253.852 730.351 253.737 730.499 253.507C730.647 253.276 730.788 252.861 730.923 252.261C731.058 251.656 731.219 251.167 731.406 250.793C731.593 250.419 731.819 250.143 732.084 249.965C732.345 249.782 732.665 249.691 733.043 249.691C733.674 249.691 734.18 249.943 734.563 250.447C734.941 250.952 735.13 251.606 735.13 252.411C735.13 252.976 735.03 253.476 734.83 253.911C734.63 254.346 734.352 254.687 733.995 254.935C733.634 255.179 733.245 255.301 732.828 255.301L732.828 254.094C733.232 254.072 733.554 253.911 733.793 253.611C734.028 253.307 734.145 252.907 734.145 252.411C734.145 251.954 734.054 251.589 733.871 251.315C733.684 251.037 733.437 250.897 733.128 250.897ZM731.406 248.071C730.714 248.071 730.092 247.936 729.54 247.666C728.988 247.392 728.561 247.014 728.261 246.531C727.961 246.044 727.811 245.49 727.811 244.868C727.811 243.907 728.144 243.13 728.809 242.539C729.475 241.943 730.36 241.645 731.464 241.645L731.549 241.645C732.236 241.645 732.854 241.778 733.402 242.043C733.945 242.304 734.369 242.68 734.674 243.172C734.978 243.659 735.13 244.22 735.13 244.855C735.13 245.811 734.798 246.588 734.132 247.184C733.467 247.775 732.586 248.071 731.49 248.071L731.406 248.071ZM731.549 246.857C732.332 246.857 732.96 246.677 733.434 246.316C733.908 245.951 734.145 245.464 734.145 244.855C734.145 244.241 733.906 243.754 733.428 243.393C732.945 243.032 732.271 242.852 731.406 242.852C730.632 242.852 730.005 243.037 729.527 243.407C729.044 243.772 728.803 244.259 728.803 244.868C728.803 245.464 729.04 245.944 729.514 246.309C729.988 246.675 730.666 246.857 731.549 246.857ZM729.025 236.353C728.994 236.535 728.979 236.733 728.979 236.946C728.979 237.738 729.316 238.275 729.99 238.558L735 238.558L735 239.764L727.942 239.764L727.942 238.59L728.757 238.571C728.127 238.175 727.811 237.614 727.811 236.888C727.811 236.653 727.842 236.474 727.903 236.353L729.025 236.353ZM735.13 232.071C735.13 233.028 734.817 233.807 734.191 234.407C733.561 235.007 732.719 235.307 731.667 235.307L731.445 235.307C730.745 235.307 730.121 235.174 729.573 234.909C729.02 234.639 728.59 234.265 728.281 233.787C727.968 233.304 727.811 232.782 727.811 232.221C727.811 231.304 728.114 230.59 728.718 230.082C729.323 229.573 730.188 229.318 731.314 229.318L731.817 229.318L731.817 234.1C732.512 234.083 733.076 233.88 733.506 233.493C733.932 233.102 734.145 232.606 734.145 232.006C734.145 231.58 734.058 231.219 733.885 230.923C733.711 230.627 733.48 230.369 733.193 230.147L733.767 229.41C734.676 230.001 735.13 230.888 735.13 232.071ZM728.803 232.221C728.803 232.708 728.981 233.117 729.338 233.448C729.69 233.778 730.186 233.983 730.825 234.061L730.825 230.525L730.734 230.525C730.121 230.56 729.647 230.725 729.312 231.021C728.972 231.317 728.803 231.717 728.803 232.221Z" fill="#263238"/>
<path d="M370 247.544L360.502 247.544L360.502 244.863C360.502 244.037 360.685 243.306 361.05 242.671C361.415 242.036 361.935 241.547 362.609 241.203C363.283 240.855 364.057 240.679 364.931 240.675L365.538 240.675C366.434 240.675 367.219 240.849 367.893 241.197C368.567 241.54 369.085 242.034 369.446 242.678C369.806 243.317 369.991 244.063 370 244.915L370 247.544ZM361.533 246.292L368.976 246.292L368.976 244.974C368.976 244.008 368.676 243.258 368.076 242.723C367.475 242.184 366.621 241.914 365.512 241.914L364.957 241.914C363.879 241.914 363.042 242.169 362.446 242.678C361.846 243.182 361.541 243.9 361.533 244.83L361.533 246.292ZM363.796 237.392C363.14 236.857 362.811 236.161 362.811 235.304C362.811 233.813 363.653 233.06 365.336 233.047L370 233.047L370 234.254L365.329 234.254C364.82 234.258 364.444 234.376 364.201 234.606C363.957 234.832 363.835 235.187 363.835 235.669C363.835 236.061 363.94 236.404 364.149 236.7C364.357 236.996 364.631 237.226 364.971 237.392L370 237.392L370 238.598L359.98 238.598L359.98 237.392L363.796 237.392ZM370 226.515C369.861 226.585 369.613 226.641 369.256 226.685C369.839 227.246 370.13 227.916 370.13 228.694C370.13 229.39 369.935 229.962 369.543 230.41C369.148 230.853 368.647 231.075 368.043 231.075C367.308 231.075 366.738 230.797 366.334 230.24C365.925 229.679 365.721 228.892 365.721 227.879L365.721 226.704L365.166 226.704C364.744 226.704 364.41 226.83 364.162 227.083C363.909 227.335 363.783 227.707 363.783 228.198C363.783 228.629 363.892 228.99 364.109 229.281C364.327 229.572 364.59 229.718 364.899 229.718L364.899 230.931C364.546 230.931 364.207 230.808 363.881 230.56C363.551 230.307 363.29 229.968 363.098 229.542C362.907 229.111 362.811 228.64 362.811 228.126C362.811 227.313 363.016 226.676 363.424 226.215C363.829 225.754 364.388 225.515 365.101 225.498L368.35 225.498C368.998 225.498 369.513 225.415 369.896 225.25L370 225.25L370 226.515ZM369.08 228.518C369.08 228.139 368.982 227.781 368.787 227.441C368.591 227.102 368.337 226.857 368.023 226.704L366.575 226.704L366.575 227.65C366.575 229.129 367.008 229.868 367.873 229.868C368.252 229.868 368.547 229.742 368.761 229.49C368.974 229.238 369.08 228.914 369.08 228.518ZM364.025 219.827C363.994 220.009 363.979 220.207 363.979 220.42C363.979 221.212 364.316 221.749 364.99 222.032L370 222.032L370 223.238L362.942 223.238L362.942 222.064L363.757 222.045C363.127 221.649 362.811 221.088 362.811 220.362C362.811 220.127 362.842 219.948 362.903 219.827L364.025 219.827ZM368.337 211.977L362.942 210.62L362.942 209.413L370 211.468L370 212.447L364.651 214.162L370 215.832L370 216.811L362.942 218.859L362.942 217.659L368.226 216.269L362.942 214.625L362.942 213.653L368.337 211.977ZM370 203.455C369.861 203.525 369.613 203.582 369.256 203.625C369.839 204.186 370.13 204.856 370.13 205.634C370.13 206.33 369.935 206.902 369.543 207.35C369.148 207.793 368.647 208.015 368.043 208.015C367.308 208.015 366.738 207.737 366.334 207.18C365.925 206.619 365.721 205.832 365.721 204.819L365.721 203.645L365.166 203.645C364.744 203.645 364.41 203.771 364.162 204.023C363.909 204.275 363.783 204.647 363.783 205.138C363.783 205.569 363.892 205.93 364.109 206.221C364.327 206.513 364.59 206.658 364.899 206.658L364.899 207.872C364.546 207.872 364.207 207.748 363.881 207.5C363.551 207.248 363.29 206.908 363.098 206.482C362.907 206.052 362.811 205.58 362.811 205.067C362.811 204.253 363.016 203.616 363.424 203.155C363.829 202.694 364.388 202.455 365.101 202.438L368.35 202.438C368.998 202.438 369.513 202.355 369.896 202.19L370 202.19L370 203.455ZM369.08 205.458C369.08 205.08 368.982 204.721 368.787 204.382C368.591 204.043 368.337 203.797 368.023 203.645L366.575 203.645L366.575 204.59C366.575 206.069 367.008 206.808 367.873 206.808C368.252 206.808 368.547 206.682 368.761 206.43C368.974 206.178 369.08 205.854 369.08 205.458ZM366.412 200.472C365.329 200.472 364.46 200.216 363.803 199.702C363.142 199.189 362.811 198.517 362.811 197.687C362.811 196.86 363.094 196.206 363.659 195.723L359.98 195.723L359.98 194.516L370 194.516L370 195.625L369.243 195.684C369.835 196.167 370.13 196.839 370.13 197.7C370.13 198.517 369.796 199.185 369.126 199.702C368.456 200.216 367.582 200.472 366.503 200.472L366.412 200.472ZM366.549 199.265C367.349 199.265 367.976 199.1 368.428 198.77C368.88 198.439 369.106 197.982 369.106 197.4C369.106 196.634 368.763 196.075 368.076 195.723L364.834 195.723C364.168 196.084 363.835 196.639 363.835 197.387C363.835 197.978 364.064 198.439 364.52 198.77C364.977 199.1 365.653 199.265 366.549 199.265Z" fill="#263238"/>
<path d="M794 247.544L784.502 247.544L784.502 244.863C784.502 244.037 784.685 243.306 785.05 242.671C785.415 242.036 785.935 241.547 786.609 241.203C787.283 240.855 788.057 240.679 788.931 240.675L789.538 240.675C790.434 240.675 791.219 240.849 791.893 241.197C792.567 241.54 793.085 242.034 793.446 242.678C793.806 243.317 793.991 244.063 794 244.915L794 247.544ZM785.533 246.292L792.976 246.292L792.976 244.974C792.976 244.008 792.676 243.258 792.076 242.723C791.475 242.184 790.621 241.914 789.512 241.914L788.957 241.914C787.879 241.914 787.042 242.169 786.446 242.678C785.846 243.182 785.541 243.9 785.533 244.83L785.533 246.292ZM787.796 237.392C787.14 236.857 786.811 236.161 786.811 235.304C786.811 233.813 787.653 233.06 789.336 233.047L794 233.047L794 234.254L789.329 234.254C788.82 234.258 788.444 234.376 788.201 234.606C787.957 234.832 787.835 235.187 787.835 235.669C787.835 236.061 787.94 236.404 788.149 236.7C788.357 236.996 788.631 237.226 788.971 237.392L794 237.392L794 238.598L783.98 238.598L783.98 237.392L787.796 237.392ZM794 226.515C793.861 226.585 793.613 226.641 793.256 226.685C793.839 227.246 794.13 227.916 794.13 228.694C794.13 229.39 793.935 229.962 793.543 230.41C793.148 230.853 792.647 231.075 792.043 231.075C791.308 231.075 790.738 230.797 790.334 230.24C789.925 229.679 789.721 228.892 789.721 227.879L789.721 226.704L789.166 226.704C788.744 226.704 788.41 226.83 788.162 227.083C787.909 227.335 787.783 227.707 787.783 228.198C787.783 228.629 787.892 228.99 788.109 229.281C788.327 229.572 788.59 229.718 788.899 229.718L788.899 230.931C788.546 230.931 788.207 230.808 787.881 230.56C787.551 230.307 787.29 229.968 787.098 229.542C786.907 229.111 786.811 228.64 786.811 228.126C786.811 227.313 787.016 226.676 787.424 226.215C787.829 225.754 788.388 225.515 789.101 225.498L792.35 225.498C792.998 225.498 793.513 225.415 793.896 225.25L794 225.25L794 226.515ZM793.08 228.518C793.08 228.139 792.982 227.781 792.787 227.441C792.591 227.102 792.337 226.857 792.023 226.704L790.575 226.704L790.575 227.65C790.575 229.129 791.008 229.868 791.873 229.868C792.252 229.868 792.547 229.742 792.761 229.49C792.974 229.238 793.08 228.914 793.08 228.518ZM788.025 219.827C787.994 220.009 787.979 220.207 787.979 220.42C787.979 221.212 788.316 221.749 788.99 222.032L794 222.032L794 223.238L786.942 223.238L786.942 222.064L787.757 222.045C787.127 221.649 786.811 221.088 786.811 220.362C786.811 220.127 786.842 219.948 786.903 219.827L788.025 219.827ZM792.337 211.977L786.942 210.62L786.942 209.413L794 211.468L794 212.447L788.651 214.162L794 215.832L794 216.811L786.942 218.859L786.942 217.659L792.226 216.269L786.942 214.625L786.942 213.653L792.337 211.977ZM794 203.455C793.861 203.525 793.613 203.582 793.256 203.625C793.839 204.186 794.13 204.856 794.13 205.634C794.13 206.33 793.935 206.902 793.543 207.35C793.148 207.793 792.647 208.015 792.043 208.015C791.308 208.015 790.738 207.737 790.334 207.18C789.925 206.619 789.721 205.832 789.721 204.819L789.721 203.645L789.166 203.645C788.744 203.645 788.41 203.771 788.162 204.023C787.909 204.275 787.783 204.647 787.783 205.138C787.783 205.569 787.892 205.93 788.109 206.221C788.327 206.513 788.59 206.658 788.899 206.658L788.899 207.872C788.546 207.872 788.207 207.748 787.881 207.5C787.551 207.248 787.29 206.908 787.098 206.482C786.907 206.052 786.811 205.58 786.811 205.067C786.811 204.253 787.016 203.616 787.424 203.155C787.829 202.694 788.388 202.455 789.101 202.438L792.35 202.438C792.998 202.438 793.513 202.355 793.896 202.19L794 202.19L794 203.455ZM793.08 205.458C793.08 205.08 792.982 204.721 792.787 204.382C792.591 204.043 792.337 203.797 792.023 203.645L790.575 203.645L790.575 204.59C790.575 206.069 791.008 206.808 791.873 206.808C792.252 206.808 792.547 206.682 792.761 206.43C792.974 206.178 793.08 205.854 793.08 205.458ZM790.412 200.472C789.329 200.472 788.46 200.216 787.803 199.702C787.142 199.189 786.811 198.517 786.811 197.687C786.811 196.86 787.094 196.206 787.659 195.723L783.98 195.723L783.98 194.516L794 194.516L794 195.625L793.243 195.684C793.835 196.167 794.13 196.839 794.13 197.7C794.13 198.517 793.796 199.185 793.126 199.702C792.456 200.216 791.582 200.472 790.503 200.472L790.412 200.472ZM790.549 199.265C791.349 199.265 791.976 199.1 792.428 198.77C792.88 198.439 793.106 197.982 793.106 197.4C793.106 196.634 792.763 196.075 792.076 195.723L788.834 195.723C788.168 196.084 787.835 196.639 787.835 197.387C787.835 197.978 788.064 198.439 788.52 198.77C788.977 199.1 789.653 199.265 790.549 199.265Z" fill="#263238"/>
<path d="M433 223.244L433 224.503L428.61 224.503L428.61 229.292L433 229.292L433 230.544L423.502 230.544L423.502 229.292L427.586 229.292L427.586 224.503L423.502 224.503L423.502 223.244L433 223.244ZM432.302 216.484C432.854 216.954 433.13 217.643 433.13 218.552C433.13 219.304 432.913 219.878 432.478 220.274C432.039 220.666 431.391 220.863 430.534 220.868L425.942 220.868L425.942 219.661L430.502 219.661C431.571 219.661 432.106 219.226 432.106 218.356C432.106 217.434 431.763 216.821 431.076 216.517L425.942 216.517L425.942 215.31L433 215.31L433 216.458L432.302 216.484ZM429.549 207.128C430.628 207.128 431.495 207.376 432.152 207.871C432.804 208.367 433.13 209.032 433.13 209.867C433.13 210.759 432.815 211.448 432.185 211.935L433 211.994L433 213.103L422.98 213.103L422.98 211.896L426.718 211.896C426.114 211.409 425.811 210.737 425.811 209.88C425.811 209.024 426.135 208.352 426.783 207.865C427.431 207.373 428.318 207.128 429.445 207.128L429.549 207.128ZM429.412 208.334C428.59 208.334 427.955 208.493 427.507 208.811C427.059 209.128 426.835 209.585 426.835 210.181C426.835 210.976 427.205 211.548 427.944 211.896L430.997 211.896C431.737 211.527 432.106 210.95 432.106 210.167C432.106 209.589 431.882 209.139 431.434 208.817C430.986 208.495 430.312 208.334 429.412 208.334ZM433 203.923L433 205.129L422.98 205.129L422.98 203.923L433 203.923ZM433 200.307L433 201.513L425.942 201.513L425.942 200.307L433 200.307ZM424.07 201.611C423.874 201.611 423.709 201.553 423.574 201.435C423.439 201.313 423.372 201.135 423.372 200.9C423.372 200.665 423.439 200.487 423.574 200.365C423.709 200.244 423.874 200.183 424.07 200.183C424.265 200.183 424.428 200.244 424.559 200.365C424.689 200.487 424.755 200.665 424.755 200.9C424.755 201.135 424.689 201.313 424.559 201.435C424.428 201.553 424.265 201.611 424.07 201.611Z" fill="#263238"/>
<path d="M858 223.244L858 224.503L853.61 224.503L853.61 229.292L858 229.292L858 230.544L848.502 230.544L848.502 229.292L852.586 229.292L852.586 224.503L848.502 224.503L848.502 223.244L858 223.244ZM857.302 216.484C857.854 216.954 858.13 217.643 858.13 218.552C858.13 219.304 857.913 219.878 857.478 220.274C857.039 220.666 856.391 220.863 855.534 220.868L850.942 220.868L850.942 219.661L855.502 219.661C856.571 219.661 857.106 219.226 857.106 218.356C857.106 217.434 856.763 216.821 856.076 216.517L850.942 216.517L850.942 215.31L858 215.31L858 216.458L857.302 216.484ZM854.549 207.128C855.628 207.128 856.495 207.376 857.152 207.871C857.804 208.367 858.13 209.032 858.13 209.867C858.13 210.759 857.815 211.448 857.185 211.935L858 211.994L858 213.103L847.98 213.103L847.98 211.896L851.718 211.896C851.114 211.409 850.811 210.737 850.811 209.88C850.811 209.024 851.135 208.352 851.783 207.865C852.431 207.373 853.318 207.128 854.445 207.128L854.549 207.128ZM854.412 208.334C853.59 208.334 852.955 208.493 852.507 208.811C852.059 209.128 851.835 209.585 851.835 210.181C851.835 210.976 852.205 211.548 852.944 211.896L855.997 211.896C856.737 211.527 857.106 210.95 857.106 210.167C857.106 209.589 856.882 209.139 856.434 208.817C855.986 208.495 855.312 208.334 854.412 208.334ZM858 203.923L858 205.129L847.98 205.129L847.98 203.923L858 203.923ZM858 200.307L858 201.513L850.942 201.513L850.942 200.307L858 200.307ZM849.07 201.611C848.874 201.611 848.709 201.553 848.574 201.435C848.439 201.313 848.372 201.135 848.372 200.9C848.372 200.665 848.439 200.487 848.574 200.365C848.709 200.244 848.874 200.183 849.07 200.183C849.265 200.183 849.428 200.244 849.559 200.365C849.689 200.487 849.755 200.665 849.755 200.9C849.755 201.135 849.689 201.313 849.559 201.435C849.428 201.553 849.265 201.611 849.07 201.611Z" fill="#263238"/>
<path d="M118.081 410.646H116.709V401.552L113.958 402.563V401.323L117.867 399.856H118.081V410.646ZM128.342 407.04H129.832V408.153H128.342V410.646H126.971V408.153H122.08V407.349L126.889 399.907H128.342V407.04ZM123.629 407.04H126.971V401.773L126.808 402.068L123.629 407.04ZM137.328 407.04H138.818V408.153H137.328V410.646H135.956V408.153H131.066V407.349L135.875 399.907H137.328V407.04ZM132.615 407.04H135.956V401.773L135.794 402.068L132.615 407.04Z" fill="#263238"/>
<path d="M542.081 410.646H540.709V401.552L537.958 402.563V401.323L541.867 399.856H542.081V410.646ZM552.342 407.04H553.832V408.153H552.342V410.646H550.971V408.153H546.08V407.349L550.889 399.907H552.342V407.04ZM547.629 407.04H550.971V401.773L550.808 402.068L547.629 407.04ZM561.328 407.04H562.818V408.153H561.328V410.646H559.956V408.153H555.066V407.349L559.875 399.907H561.328V407.04ZM556.615 407.04H559.956V401.773L559.794 402.068L556.615 407.04Z" fill="#263238"/>
<path d="M177.081 409.646H175.709V400.552L172.958 401.563V400.323L176.867 398.856H177.081V409.646ZM186.937 398.9V400.058H186.686C185.624 400.078 184.778 400.392 184.149 401.002C183.519 401.612 183.155 402.47 183.057 403.576C183.623 402.927 184.395 402.603 185.373 402.603C186.307 402.603 187.052 402.932 187.608 403.591C188.169 404.25 188.449 405.1 188.449 406.143C188.449 407.249 188.146 408.134 187.542 408.798C186.942 409.462 186.135 409.794 185.122 409.794C184.095 409.794 183.261 409.401 182.622 408.614C181.983 407.822 181.663 406.804 181.663 405.56V405.037C181.663 403.06 182.083 401.55 182.924 400.508C183.77 399.46 185.026 398.924 186.693 398.9H186.937ZM185.144 403.738C184.677 403.738 184.247 403.879 183.854 404.159C183.46 404.439 183.187 404.791 183.035 405.214V405.715C183.035 406.6 183.234 407.313 183.632 407.854C184.031 408.395 184.527 408.665 185.122 408.665C185.737 408.665 186.219 408.439 186.568 407.987C186.922 407.535 187.099 406.942 187.099 406.209C187.099 405.472 186.92 404.877 186.561 404.424C186.207 403.967 185.735 403.738 185.144 403.738ZM197.081 401.71C197.081 402.246 196.938 402.723 196.653 403.141C196.372 403.559 195.991 403.886 195.51 404.122C196.07 404.363 196.513 404.714 196.837 405.177C197.167 405.639 197.331 406.163 197.331 406.748C197.331 407.677 197.017 408.417 196.387 408.968C195.763 409.519 194.939 409.794 193.916 409.794C192.884 409.794 192.055 409.519 191.431 408.968C190.811 408.412 190.501 407.672 190.501 406.748C190.501 406.168 190.659 405.644 190.973 405.177C191.293 404.71 191.733 404.356 192.294 404.115C191.817 403.879 191.44 403.552 191.165 403.134C190.89 402.716 190.752 402.241 190.752 401.71C190.752 400.805 191.042 400.087 191.622 399.556C192.203 399.025 192.967 398.76 193.916 398.76C194.86 398.76 195.623 399.025 196.203 399.556C196.788 400.087 197.081 400.805 197.081 401.71ZM195.967 406.718C195.967 406.118 195.775 405.629 195.391 405.25C195.013 404.872 194.516 404.683 193.902 404.683C193.287 404.683 192.793 404.869 192.419 405.243C192.05 405.617 191.866 406.109 191.866 406.718C191.866 407.328 192.045 407.807 192.404 408.157C192.768 408.506 193.272 408.68 193.916 408.68C194.556 408.68 195.057 408.506 195.421 408.157C195.785 407.803 195.967 407.323 195.967 406.718ZM193.916 399.881C193.38 399.881 192.945 400.048 192.611 400.382C192.281 400.712 192.117 401.162 192.117 401.732C192.117 402.278 192.279 402.721 192.603 403.06C192.933 403.394 193.371 403.561 193.916 403.561C194.462 403.561 194.897 403.394 195.222 403.06C195.551 402.721 195.716 402.278 195.716 401.732C195.716 401.186 195.546 400.741 195.207 400.397C194.868 400.053 194.438 399.881 193.916 399.881Z" fill="#263238"/>
<path d="M602.081 409.646H600.709V400.552L597.958 401.563V400.323L601.867 398.856H602.081V409.646ZM611.937 398.9V400.058H611.686C610.624 400.078 609.778 400.392 609.149 401.002C608.519 401.612 608.155 402.47 608.057 403.576C608.623 402.927 609.395 402.603 610.373 402.603C611.307 402.603 612.052 402.932 612.608 403.591C613.169 404.25 613.449 405.1 613.449 406.143C613.449 407.249 613.146 408.134 612.542 408.798C611.942 409.462 611.135 409.794 610.122 409.794C609.095 409.794 608.261 409.401 607.622 408.614C606.983 407.822 606.663 406.804 606.663 405.56V405.037C606.663 403.06 607.083 401.55 607.924 400.508C608.77 399.46 610.026 398.924 611.693 398.9H611.937ZM610.144 403.738C609.677 403.738 609.247 403.879 608.854 404.159C608.46 404.439 608.187 404.791 608.035 405.214V405.715C608.035 406.6 608.234 407.313 608.632 407.854C609.031 408.395 609.527 408.665 610.122 408.665C610.737 408.665 611.219 408.439 611.568 407.987C611.922 407.535 612.099 406.942 612.099 406.209C612.099 405.472 611.92 404.877 611.561 404.424C611.207 403.967 610.735 403.738 610.144 403.738ZM622.081 401.71C622.081 402.246 621.938 402.723 621.653 403.141C621.372 403.559 620.991 403.886 620.51 404.122C621.07 404.363 621.513 404.714 621.837 405.177C622.167 405.639 622.331 406.163 622.331 406.748C622.331 407.677 622.017 408.417 621.387 408.968C620.763 409.519 619.939 409.794 618.916 409.794C617.884 409.794 617.055 409.519 616.431 408.968C615.811 408.412 615.501 407.672 615.501 406.748C615.501 406.168 615.659 405.644 615.973 405.177C616.293 404.71 616.733 404.356 617.294 404.115C616.817 403.879 616.44 403.552 616.165 403.134C615.89 402.716 615.752 402.241 615.752 401.71C615.752 400.805 616.042 400.087 616.622 399.556C617.203 399.025 617.967 398.76 618.916 398.76C619.86 398.76 620.623 399.025 621.203 399.556C621.788 400.087 622.081 400.805 622.081 401.71ZM620.967 406.718C620.967 406.118 620.775 405.629 620.391 405.25C620.013 404.872 619.516 404.683 618.902 404.683C618.287 404.683 617.793 404.869 617.419 405.243C617.05 405.617 616.866 406.109 616.866 406.718C616.866 407.328 617.045 407.807 617.404 408.157C617.768 408.506 618.272 408.68 618.916 408.68C619.556 408.68 620.057 408.506 620.421 408.157C620.785 407.803 620.967 407.323 620.967 406.718ZM618.916 399.881C618.38 399.881 617.945 400.048 617.611 400.382C617.281 400.712 617.117 401.162 617.117 401.732C617.117 402.278 617.279 402.721 617.603 403.06C617.933 403.394 618.371 403.561 618.916 403.561C619.462 403.561 619.897 403.394 620.222 403.06C620.551 402.721 620.716 402.278 620.716 401.732C620.716 401.186 620.546 400.741 620.207 400.397C619.868 400.053 619.438 399.881 618.916 399.881Z" fill="#263238"/>
<path d="M241.633 412.646H234.596V411.665L238.314 407.535C238.864 406.911 239.243 406.404 239.449 406.016C239.661 405.622 239.767 405.217 239.767 404.799C239.767 404.238 239.597 403.778 239.258 403.419C238.918 403.06 238.466 402.881 237.901 402.881C237.222 402.881 236.693 403.075 236.315 403.464C235.941 403.847 235.754 404.383 235.754 405.071H234.39C234.39 404.083 234.707 403.284 235.341 402.674C235.98 402.065 236.833 401.76 237.901 401.76C238.899 401.76 239.688 402.023 240.268 402.549C240.848 403.07 241.139 403.766 241.139 404.636C241.139 405.693 240.465 406.952 239.118 408.413L236.241 411.533H241.633V412.646ZM249.342 409.04H250.832V410.153H249.342V412.646H247.971V410.153H243.08V409.349L247.889 401.907H249.342V409.04ZM244.629 409.04H247.971V403.773L247.808 404.068L244.629 409.04ZM259.081 404.71C259.081 405.246 258.938 405.723 258.653 406.141C258.372 406.559 257.991 406.886 257.51 407.122C258.07 407.363 258.513 407.714 258.837 408.177C259.167 408.639 259.331 409.163 259.331 409.748C259.331 410.677 259.017 411.417 258.387 411.968C257.763 412.519 256.939 412.794 255.916 412.794C254.884 412.794 254.055 412.519 253.431 411.968C252.811 411.412 252.501 410.672 252.501 409.748C252.501 409.168 252.659 408.644 252.973 408.177C253.293 407.71 253.733 407.356 254.294 407.115C253.817 406.879 253.44 406.552 253.165 406.134C252.89 405.716 252.752 405.241 252.752 404.71C252.752 403.805 253.042 403.087 253.622 402.556C254.203 402.025 254.967 401.76 255.916 401.76C256.86 401.76 257.623 402.025 258.203 402.556C258.788 403.087 259.081 403.805 259.081 404.71ZM257.967 409.718C257.967 409.118 257.775 408.629 257.391 408.25C257.013 407.872 256.516 407.683 255.902 407.683C255.287 407.683 254.793 407.869 254.419 408.243C254.05 408.617 253.866 409.109 253.866 409.718C253.866 410.328 254.045 410.807 254.404 411.157C254.768 411.506 255.272 411.68 255.916 411.68C256.556 411.68 257.057 411.506 257.421 411.157C257.785 410.803 257.967 410.323 257.967 409.718ZM255.916 402.881C255.38 402.881 254.945 403.048 254.611 403.382C254.281 403.712 254.117 404.162 254.117 404.732C254.117 405.278 254.279 405.721 254.603 406.06C254.933 406.394 255.371 406.561 255.916 406.561C256.462 406.561 256.897 406.394 257.222 406.06C257.551 405.721 257.716 405.278 257.716 404.732C257.716 404.186 257.546 403.741 257.207 403.397C256.868 403.053 256.438 402.881 255.916 402.881Z" fill="#263238"/>
<path d="M666.633 412.646H659.596V411.665L663.314 407.535C663.864 406.911 664.243 406.404 664.449 406.016C664.661 405.622 664.767 405.217 664.767 404.799C664.767 404.238 664.597 403.778 664.258 403.419C663.918 403.06 663.466 402.881 662.901 402.881C662.222 402.881 661.693 403.075 661.315 403.464C660.941 403.847 660.754 404.383 660.754 405.071H659.39C659.39 404.083 659.707 403.284 660.341 402.674C660.98 402.065 661.833 401.76 662.901 401.76C663.899 401.76 664.688 402.023 665.268 402.549C665.848 403.07 666.139 403.766 666.139 404.636C666.139 405.693 665.465 406.952 664.118 408.413L661.241 411.533H666.633V412.646ZM674.342 409.04H675.832V410.153H674.342V412.646H672.971V410.153H668.08V409.349L672.889 401.907H674.342V409.04ZM669.629 409.04H672.971V403.773L672.808 404.068L669.629 409.04ZM684.081 404.71C684.081 405.246 683.938 405.723 683.653 406.141C683.372 406.559 682.991 406.886 682.51 407.122C683.07 407.363 683.513 407.714 683.837 408.177C684.167 408.639 684.331 409.163 684.331 409.748C684.331 410.677 684.017 411.417 683.387 411.968C682.763 412.519 681.939 412.794 680.916 412.794C679.884 412.794 679.055 412.519 678.431 411.968C677.811 411.412 677.501 410.672 677.501 409.748C677.501 409.168 677.659 408.644 677.973 408.177C678.293 407.71 678.733 407.356 679.294 407.115C678.817 406.879 678.44 406.552 678.165 406.134C677.89 405.716 677.752 405.241 677.752 404.71C677.752 403.805 678.042 403.087 678.622 402.556C679.203 402.025 679.967 401.76 680.916 401.76C681.86 401.76 682.623 402.025 683.203 402.556C683.788 403.087 684.081 403.805 684.081 404.71ZM682.967 409.718C682.967 409.118 682.775 408.629 682.391 408.25C682.013 407.872 681.516 407.683 680.902 407.683C680.287 407.683 679.793 407.869 679.419 408.243C679.05 408.617 678.866 409.109 678.866 409.718C678.866 410.328 679.045 410.807 679.404 411.157C679.768 411.506 680.272 411.68 680.916 411.68C681.556 411.68 682.057 411.506 682.421 411.157C682.785 410.803 682.967 410.323 682.967 409.718ZM680.916 402.881C680.38 402.881 679.945 403.048 679.611 403.382C679.281 403.712 679.117 404.162 679.117 404.732C679.117 405.278 679.279 405.721 679.603 406.06C679.933 406.394 680.371 406.561 680.916 406.561C681.462 406.561 681.897 406.394 682.222 406.06C682.551 405.721 682.716 405.278 682.716 404.732C682.716 404.186 682.546 403.741 682.207 403.397C681.868 403.053 681.438 402.881 680.916 402.881Z" fill="#263238"/>
<path d="M303.818 407.926C303.533 408.265 303.192 408.538 302.793 408.745C302.4 408.951 301.967 409.054 301.495 409.054C300.876 409.054 300.335 408.902 299.872 408.597C299.415 408.292 299.061 407.864 298.81 407.314C298.559 406.758 298.434 406.146 298.434 405.477C298.434 404.759 298.569 404.113 298.84 403.537C299.115 402.962 299.504 402.522 300.005 402.217C300.507 401.912 301.092 401.76 301.761 401.76C302.823 401.76 303.659 402.158 304.268 402.955C304.883 403.746 305.19 404.828 305.19 406.2V406.598C305.19 408.688 304.777 410.215 303.951 411.179C303.125 412.138 301.879 412.629 300.212 412.654H299.946V411.503H300.234C301.36 411.484 302.225 411.191 302.83 410.625C303.435 410.055 303.764 409.155 303.818 407.926ZM301.716 407.926C302.174 407.926 302.594 407.786 302.978 407.506C303.366 407.225 303.649 406.879 303.826 406.466V405.92C303.826 405.025 303.632 404.297 303.243 403.736C302.855 403.176 302.363 402.896 301.768 402.896C301.168 402.896 300.686 403.127 300.322 403.589C299.958 404.046 299.777 404.651 299.777 405.403C299.777 406.136 299.951 406.741 300.3 407.218C300.654 407.69 301.126 407.926 301.716 407.926ZM312.93 401.9V403.058H312.679C311.617 403.078 310.771 403.392 310.142 404.002C309.512 404.612 309.148 405.47 309.05 406.576C309.615 405.927 310.387 405.603 311.366 405.603C312.3 405.603 313.045 405.932 313.601 406.591C314.161 407.25 314.442 408.1 314.442 409.143C314.442 410.249 314.139 411.134 313.534 411.798C312.935 412.462 312.128 412.794 311.115 412.794C310.087 412.794 309.254 412.401 308.615 411.614C307.976 410.822 307.656 409.804 307.656 408.56V408.037C307.656 406.06 308.076 404.55 308.917 403.508C309.763 402.46 311.019 401.924 312.686 401.9H312.93ZM311.137 406.738C310.67 406.738 310.24 406.879 309.847 407.159C309.453 407.439 309.18 407.791 309.028 408.214V408.715C309.028 409.6 309.227 410.313 309.625 410.854C310.024 411.395 310.52 411.665 311.115 411.665C311.73 411.665 312.212 411.439 312.561 410.987C312.915 410.535 313.092 409.942 313.092 409.209C313.092 408.472 312.912 407.877 312.553 407.424C312.199 406.967 311.727 406.738 311.137 406.738Z" fill="#263238"/>
<path d="M728.318 407.926C728.033 408.265 727.692 408.538 727.293 408.745C726.9 408.951 726.467 409.054 725.995 409.054C725.376 409.054 724.835 408.902 724.372 408.597C723.915 408.292 723.561 407.864 723.31 407.314C723.059 406.758 722.934 406.146 722.934 405.477C722.934 404.759 723.069 404.113 723.34 403.537C723.615 402.962 724.004 402.522 724.505 402.217C725.007 401.912 725.592 401.76 726.261 401.76C727.323 401.76 728.159 402.158 728.768 402.955C729.383 403.746 729.69 404.828 729.69 406.2V406.598C729.69 408.688 729.277 410.215 728.451 411.179C727.625 412.138 726.379 412.629 724.712 412.654H724.446V411.503H724.734C725.86 411.484 726.725 411.191 727.33 410.625C727.935 410.055 728.264 409.155 728.318 407.926ZM726.216 407.926C726.674 407.926 727.094 407.786 727.478 407.506C727.866 407.225 728.149 406.879 728.326 406.466V405.92C728.326 405.025 728.132 404.297 727.743 403.736C727.355 403.176 726.863 402.896 726.268 402.896C725.668 402.896 725.186 403.127 724.822 403.589C724.458 404.046 724.277 404.651 724.277 405.403C724.277 406.136 724.451 406.741 724.8 407.218C725.154 407.69 725.626 407.926 726.216 407.926ZM737.43 401.9V403.058H737.179C736.117 403.078 735.271 403.392 734.642 404.002C734.012 404.612 733.648 405.47 733.55 406.576C734.115 405.927 734.887 405.603 735.866 405.603C736.8 405.603 737.545 405.932 738.101 406.591C738.661 407.25 738.942 408.1 738.942 409.143C738.942 410.249 738.639 411.134 738.034 411.798C737.435 412.462 736.628 412.794 735.615 412.794C734.587 412.794 733.754 412.401 733.115 411.614C732.476 410.822 732.156 409.804 732.156 408.56V408.037C732.156 406.06 732.576 404.55 733.417 403.508C734.263 402.46 735.519 401.924 737.186 401.9H737.43ZM735.637 406.738C735.17 406.738 734.74 406.879 734.347 407.159C733.953 407.439 733.68 407.791 733.528 408.214V408.715C733.528 409.6 733.727 410.313 734.125 410.854C734.524 411.395 735.02 411.665 735.615 411.665C736.23 411.665 736.712 411.439 737.061 410.987C737.415 410.535 737.592 409.942 737.592 409.209C737.592 408.472 737.412 407.877 737.053 407.424C736.699 406.967 736.227 406.738 735.637 406.738Z" fill="#263238"/>
<path d="M358.081 412.646H356.709V403.552L353.958 404.563V403.323L357.867 401.856H358.081V412.646ZM368.342 409.04H369.832V410.153H368.342V412.646H366.971V410.153H362.08V409.349L366.889 401.907H368.342V409.04ZM363.629 409.04H366.971V403.773L366.808 404.068L363.629 409.04ZM377.328 409.04H378.818V410.153H377.328V412.646H375.956V410.153H371.066V409.349L375.875 401.907H377.328V409.04ZM372.615 409.04H375.956V403.773L375.794 404.068L372.615 409.04Z" fill="#263238"/>
<path d="M782.581 412.646H781.209V403.552L778.458 404.563V403.323L782.367 401.856H782.581V412.646ZM792.842 409.04H794.332V410.153H792.842V412.646H791.471V410.153H786.58V409.349L791.389 401.907H792.842V409.04ZM788.129 409.04H791.471V403.773L791.308 404.068L788.129 409.04ZM801.828 409.04H803.318V410.153H801.828V412.646H800.456V410.153H795.566V409.349L800.375 401.907H801.828V409.04ZM797.115 409.04H800.456V403.773L800.294 404.068L797.115 409.04Z" fill="#263238"/>
<path d="M420.081 409.646H418.709V400.552L415.958 401.563V400.323L419.867 398.856H420.081V409.646ZM429.937 398.9V400.058H429.686C428.624 400.078 427.778 400.392 427.149 401.002C426.519 401.612 426.155 402.47 426.057 403.576C426.623 402.927 427.395 402.603 428.373 402.603C429.307 402.603 430.052 402.932 430.608 403.591C431.169 404.25 431.449 405.1 431.449 406.143C431.449 407.249 431.146 408.134 430.542 408.798C429.942 409.462 429.135 409.794 428.122 409.794C427.095 409.794 426.261 409.401 425.622 408.614C424.983 407.822 424.663 406.804 424.663 405.56V405.037C424.663 403.06 425.083 401.55 425.924 400.508C426.77 399.46 428.026 398.924 429.693 398.9H429.937ZM428.144 403.738C427.677 403.738 427.247 403.879 426.854 404.159C426.46 404.439 426.187 404.791 426.035 405.214V405.715C426.035 406.6 426.234 407.313 426.632 407.854C427.031 408.395 427.527 408.665 428.122 408.665C428.737 408.665 429.219 408.439 429.568 407.987C429.922 407.535 430.099 406.942 430.099 406.209C430.099 405.472 429.92 404.877 429.561 404.424C429.207 403.967 428.735 403.738 428.144 403.738ZM440.081 401.71C440.081 402.246 439.938 402.723 439.653 403.141C439.372 403.559 438.991 403.886 438.51 404.122C439.07 404.363 439.513 404.714 439.837 405.177C440.167 405.639 440.331 406.163 440.331 406.748C440.331 407.677 440.017 408.417 439.387 408.968C438.763 409.519 437.939 409.794 436.916 409.794C435.884 409.794 435.055 409.519 434.431 408.968C433.811 408.412 433.501 407.672 433.501 406.748C433.501 406.168 433.659 405.644 433.973 405.177C434.293 404.71 434.733 404.356 435.294 404.115C434.817 403.879 434.44 403.552 434.165 403.134C433.89 402.716 433.752 402.241 433.752 401.71C433.752 400.805 434.042 400.087 434.622 399.556C435.203 399.025 435.967 398.76 436.916 398.76C437.86 398.76 438.623 399.025 439.203 399.556C439.788 400.087 440.081 400.805 440.081 401.71ZM438.967 406.718C438.967 406.118 438.775 405.629 438.391 405.25C438.013 404.872 437.516 404.683 436.902 404.683C436.287 404.683 435.793 404.869 435.419 405.243C435.05 405.617 434.866 406.109 434.866 406.718C434.866 407.328 435.045 407.807 435.404 408.157C435.768 408.506 436.272 408.68 436.916 408.68C437.556 408.68 438.057 408.506 438.421 408.157C438.785 407.803 438.967 407.323 438.967 406.718ZM436.916 399.881C436.38 399.881 435.945 400.048 435.611 400.382C435.281 400.712 435.117 401.162 435.117 401.732C435.117 402.278 435.279 402.721 435.603 403.06C435.933 403.394 436.371 403.561 436.916 403.561C437.462 403.561 437.897 403.394 438.222 403.06C438.551 402.721 438.716 402.278 438.716 401.732C438.716 401.186 438.546 400.741 438.207 400.397C437.868 400.053 437.438 399.881 436.916 399.881Z" fill="#263238"/>
<path d="M844.081 409.646H842.709V400.552L839.958 401.563V400.323L843.867 398.856H844.081V409.646ZM853.937 398.9V400.058H853.686C852.624 400.078 851.778 400.392 851.149 401.002C850.519 401.612 850.155 402.47 850.057 403.576C850.623 402.927 851.395 402.603 852.373 402.603C853.307 402.603 854.052 402.932 854.608 403.591C855.169 404.25 855.449 405.1 855.449 406.143C855.449 407.249 855.146 408.134 854.542 408.798C853.942 409.462 853.135 409.794 852.122 409.794C851.095 409.794 850.261 409.401 849.622 408.614C848.983 407.822 848.663 406.804 848.663 405.56V405.037C848.663 403.06 849.083 401.55 849.924 400.508C850.77 399.46 852.026 398.924 853.693 398.9H853.937ZM852.144 403.738C851.677 403.738 851.247 403.879 850.854 404.159C850.46 404.439 850.187 404.791 850.035 405.214V405.715C850.035 406.6 850.234 407.313 850.632 407.854C851.031 408.395 851.527 408.665 852.122 408.665C852.737 408.665 853.219 408.439 853.568 407.987C853.922 407.535 854.099 406.942 854.099 406.209C854.099 405.472 853.92 404.877 853.561 404.424C853.207 403.967 852.735 403.738 852.144 403.738ZM864.081 401.71C864.081 402.246 863.938 402.723 863.653 403.141C863.372 403.559 862.991 403.886 862.51 404.122C863.07 404.363 863.513 404.714 863.837 405.177C864.167 405.639 864.331 406.163 864.331 406.748C864.331 407.677 864.017 408.417 863.387 408.968C862.763 409.519 861.939 409.794 860.916 409.794C859.884 409.794 859.055 409.519 858.431 408.968C857.811 408.412 857.501 407.672 857.501 406.748C857.501 406.168 857.659 405.644 857.973 405.177C858.293 404.71 858.733 404.356 859.294 404.115C858.817 403.879 858.44 403.552 858.165 403.134C857.89 402.716 857.752 402.241 857.752 401.71C857.752 400.805 858.042 400.087 858.622 399.556C859.203 399.025 859.967 398.76 860.916 398.76C861.86 398.76 862.623 399.025 863.203 399.556C863.788 400.087 864.081 400.805 864.081 401.71ZM862.967 406.718C862.967 406.118 862.775 405.629 862.391 405.25C862.013 404.872 861.516 404.683 860.902 404.683C860.287 404.683 859.793 404.869 859.419 405.243C859.05 405.617 858.866 406.109 858.866 406.718C858.866 407.328 859.045 407.807 859.404 408.157C859.768 408.506 860.272 408.68 860.916 408.68C861.556 408.68 862.057 408.506 862.421 408.157C862.785 407.803 862.967 407.323 862.967 406.718ZM860.916 399.881C860.38 399.881 859.945 400.048 859.611 400.382C859.281 400.712 859.117 401.162 859.117 401.732C859.117 402.278 859.279 402.721 859.603 403.06C859.933 403.394 860.371 403.561 860.916 403.561C861.462 403.561 861.897 403.394 862.222 403.06C862.551 402.721 862.716 402.278 862.716 401.732C862.716 401.186 862.546 400.741 862.207 400.397C861.868 400.053 861.438 399.881 860.916 399.881Z" fill="#263238"/>
<path d="M49.0804 39.4108C47.4061 38.9296 46.1859 38.3398 45.4199 37.6416C44.6607 36.9367 44.2811 36.069 44.2811 35.0387C44.2811 33.8728 44.7455 32.9102 45.6741 32.151C46.6096 31.385 47.8229 31.002 49.3142 31.002C50.331 31.002 51.2359 31.1986 52.029 31.5918C52.8289 31.9849 53.4458 32.5272 53.8796 33.2186C54.3202 33.91 54.5405 34.6659 54.5405 35.4861H52.5781C52.5781 34.5913 52.2934 33.8897 51.724 33.3813C51.1546 32.8661 50.3513 32.6086 49.3142 32.6086C48.3517 32.6086 47.5992 32.8221 47.057 33.2491C46.5215 33.6694 46.2537 34.2558 46.2537 35.0082C46.2537 35.6115 46.5079 36.1232 47.0163 36.5435C47.5315 36.957 48.4025 37.3366 49.6294 37.6823C50.8631 38.028 51.8257 38.411 52.5171 38.8313C53.2153 39.2448 53.7305 39.7294 54.0626 40.2853C54.4015 40.8411 54.571 41.4952 54.571 42.2477C54.571 43.4475 54.1033 44.41 53.1678 45.1353C52.2324 45.8539 50.9817 46.2131 49.4159 46.2131C48.3991 46.2131 47.4501 46.0199 46.5689 45.6336C45.6877 45.2404 45.0065 44.7049 44.5252 44.027C44.0507 43.3492 43.8134 42.5798 43.8134 41.7189H45.7758C45.7758 42.6137 46.1046 43.3221 46.7621 43.844C47.4264 44.3592 48.311 44.6168 49.4159 44.6168C50.4462 44.6168 51.2359 44.4066 51.785 43.9864C52.3341 43.5661 52.6086 42.9933 52.6086 42.268C52.6086 41.5427 52.3544 40.9835 51.846 40.5903C51.3376 40.1904 50.4157 39.7972 49.0804 39.4108ZM59.9124 32.3442V35.0082H61.9663V36.4622H59.9124V43.2848C59.9124 43.7254 60.0039 44.0575 60.1869 44.2812C60.3699 44.4981 60.6817 44.6066 61.1223 44.6066C61.3392 44.6066 61.6375 44.5659 62.0171 44.4846V46.0098C61.5223 46.1453 61.041 46.2131 60.5733 46.2131C59.7327 46.2131 59.0989 45.9589 58.6719 45.4505C58.2448 44.9421 58.0313 44.2202 58.0313 43.2848V36.4622H56.0282V35.0082H58.0313V32.3442H59.9124ZM71.5374 46.0098C71.429 45.7929 71.3409 45.4065 71.2731 44.8506C70.3986 45.759 69.3547 46.2131 68.1414 46.2131C67.0568 46.2131 66.1654 45.9081 65.4672 45.298C64.7758 44.6812 64.4301 43.9016 64.4301 42.9594C64.4301 41.8138 64.864 40.9258 65.7316 40.2954C66.606 39.6583 67.833 39.3397 69.4124 39.3397H71.2426V38.4754C71.2426 37.8179 71.046 37.2959 70.6528 36.9096C70.2597 36.5164 69.6801 36.3198 68.9141 36.3198C68.2431 36.3198 67.6804 36.4893 67.2263 36.8282C66.7721 37.1671 66.545 37.5772 66.545 38.0585H64.6538C64.6538 37.5095 64.847 36.9807 65.2334 36.4723C65.6265 35.9572 66.1553 35.5505 66.8196 35.2522C67.4906 34.9539 68.2261 34.8048 69.026 34.8048C70.2936 34.8048 71.2866 35.1234 72.0052 35.7606C72.7237 36.391 73.0965 37.262 73.1236 38.3737V43.4373C73.1236 44.4473 73.2524 45.2506 73.51 45.8471V46.0098H71.5374ZM68.4159 44.5761C69.0057 44.5761 69.5649 44.4236 70.0936 44.1185C70.6223 43.8135 71.0053 43.417 71.2426 42.9289V40.6717H69.7682C67.4635 40.6717 66.3112 41.3461 66.3112 42.6951C66.3112 43.2848 66.5078 43.7457 66.9009 44.0779C67.2941 44.41 67.7991 44.5761 68.4159 44.5761ZM81.9627 36.696C81.678 36.6486 81.3696 36.6249 81.0375 36.6249C79.8038 36.6249 78.9666 37.1502 78.526 38.2009V46.0098H76.6449V35.0082H78.4752L78.5057 36.2792C79.1225 35.2963 79.9969 34.8048 81.129 34.8048C81.495 34.8048 81.7729 34.8523 81.9627 34.9472V36.696ZM87.3346 32.3442V35.0082H89.3885V36.4622H87.3346V43.2848C87.3346 43.7254 87.4261 44.0575 87.6091 44.2812C87.7921 44.4981 88.104 44.6066 88.5446 44.6066C88.7615 44.6066 89.0597 44.5659 89.4393 44.4846V46.0098C88.9445 46.1453 88.4632 46.2131 87.9955 46.2131C87.155 46.2131 86.5212 45.9589 86.0941 45.4505C85.6671 44.9421 85.4535 44.2202 85.4535 43.2848V36.4622H83.4505V35.0082H85.4535V32.3442H87.3346ZM98.9597 44.9218C98.2276 45.7827 97.1532 46.2131 95.7365 46.2131C94.5638 46.2131 93.669 45.8742 93.0522 45.1963C92.4421 44.5117 92.1337 43.5017 92.1269 42.1663V35.0082H94.0079V42.1155C94.0079 43.783 94.6858 44.6168 96.0415 44.6168C97.4786 44.6168 98.4343 44.0813 98.9088 43.0103V35.0082H100.79V46.0098H99.0003L98.9597 44.9218ZM113.523 40.631C113.523 42.3053 113.14 43.6542 112.374 44.6778C111.608 45.7013 110.571 46.2131 109.263 46.2131C107.928 46.2131 106.877 45.7895 106.111 44.9421V50.2396H104.23V35.0082H105.948L106.04 36.2283C106.806 35.2793 107.87 34.8048 109.232 34.8048C110.554 34.8048 111.598 35.303 112.364 36.2995C113.137 37.2959 113.523 38.6821 113.523 40.4581V40.631ZM111.642 40.4175C111.642 39.177 111.378 38.1975 110.849 37.479C110.32 36.7604 109.595 36.4012 108.673 36.4012C107.534 36.4012 106.68 36.9062 106.111 37.9162V43.1729C106.674 44.1762 107.534 44.6778 108.694 44.6778C109.595 44.6778 110.31 44.3219 110.839 43.6102C111.374 42.8916 111.642 41.8274 111.642 40.4175ZM122.901 43.0916C122.901 42.5832 122.708 42.1901 122.322 41.9121C121.942 41.6274 121.274 41.3834 120.319 41.18C119.37 40.9767 118.614 40.7327 118.051 40.448C117.495 40.1633 117.082 39.8243 116.811 39.4312C116.546 39.038 116.414 38.5703 116.414 38.028C116.414 37.1265 116.794 36.3639 117.553 35.7403C118.319 35.1166 119.295 34.8048 120.481 34.8048C121.729 34.8048 122.739 35.1268 123.511 35.7708C124.291 36.4147 124.681 37.2383 124.681 38.2415H122.789C122.789 37.7264 122.569 37.2824 122.129 36.9096C121.695 36.5367 121.146 36.3503 120.481 36.3503C119.797 36.3503 119.261 36.4995 118.875 36.7977C118.488 37.096 118.295 37.4857 118.295 37.967C118.295 38.4212 118.475 38.7635 118.834 38.994C119.193 39.2244 119.841 39.4447 120.776 39.6549C121.718 39.865 122.481 40.1158 123.064 40.4073C123.647 40.6988 124.077 41.0513 124.355 41.4647C124.64 41.8715 124.782 42.3697 124.782 42.9594C124.782 43.9423 124.389 44.732 123.603 45.3285C122.817 45.9183 121.796 46.2131 120.542 46.2131C119.661 46.2131 118.882 46.0572 118.204 45.7454C117.526 45.4336 116.994 44.9998 116.607 44.4439C116.228 43.8813 116.038 43.2746 116.038 42.6239H117.919C117.953 43.2543 118.204 43.7559 118.671 44.1287C119.146 44.4948 119.77 44.6778 120.542 44.6778C121.254 44.6778 121.823 44.5354 122.251 44.2507C122.684 43.9593 122.901 43.5729 122.901 43.0916ZM142.837 40.631C142.837 42.3053 142.454 43.6542 141.688 44.6778C140.922 45.7013 139.885 46.2131 138.576 46.2131C137.241 46.2131 136.19 45.7895 135.424 44.9421V50.2396H133.543V35.0082H135.262L135.353 36.2283C136.119 35.2793 137.183 34.8048 138.546 34.8048C139.868 34.8048 140.912 35.303 141.678 36.2995C142.45 37.2959 142.837 38.6821 142.837 40.4581V40.631ZM140.956 40.4175C140.956 39.177 140.691 38.1975 140.163 37.479C139.634 36.7604 138.909 36.4012 137.987 36.4012C136.848 36.4012 135.994 36.9062 135.424 37.9162V43.1729C135.987 44.1762 136.848 44.6778 138.007 44.6778C138.909 44.6778 139.624 44.3219 140.152 43.6102C140.688 42.8916 140.956 41.8274 140.956 40.4175ZM150.374 46.2131C148.883 46.2131 147.67 45.7251 146.734 44.749C145.799 43.7661 145.331 42.4544 145.331 40.814V40.4683C145.331 39.377 145.538 38.4042 145.951 37.5501C146.372 36.6893 146.955 36.0182 147.7 35.5369C148.453 35.0488 149.266 34.8048 150.14 34.8048C151.571 34.8048 152.682 35.2759 153.476 36.2181C154.269 37.1604 154.665 38.5093 154.665 40.2649V41.0479H147.212C147.239 42.1324 147.554 43.0103 148.158 43.6813C148.768 44.3456 149.541 44.6778 150.476 44.6778C151.14 44.6778 151.703 44.5422 152.164 44.2711C152.625 43.9999 153.028 43.6407 153.374 43.1933L154.523 44.088C153.601 45.5048 152.218 46.2131 150.374 46.2131ZM150.14 36.3503C149.381 36.3503 148.744 36.6282 148.229 37.1841C147.714 37.7332 147.395 38.5059 147.273 39.5024H152.784V39.36C152.73 38.4042 152.472 37.6654 152.011 37.1434C151.55 36.6147 150.927 36.3503 150.14 36.3503ZM162.742 36.696C162.457 36.6486 162.149 36.6249 161.816 36.6249C160.583 36.6249 159.746 37.1502 159.305 38.2009V46.0098H157.424V35.0082H159.254L159.285 36.2792C159.901 35.2963 160.776 34.8048 161.908 34.8048C162.274 34.8048 162.552 34.8523 162.742 34.9472V36.696ZM176.515 40.0209H173.038V46.0098H171.076V31.2054H175.977C177.644 31.2054 178.925 31.585 179.82 32.3442C180.722 33.1034 181.172 34.2083 181.172 35.6589C181.172 36.5808 180.921 37.3841 180.42 38.0687C179.925 38.7533 179.234 39.2651 178.346 39.604L181.823 45.8878V46.0098H179.728L176.515 40.0209ZM173.038 38.4246H176.038C177.007 38.4246 177.776 38.1738 178.346 37.6721C178.922 37.1705 179.21 36.4995 179.21 35.6589C179.21 34.7438 178.935 34.0422 178.386 33.5542C177.844 33.0661 177.058 32.8187 176.027 32.8119H173.038V38.4246ZM188.761 46.2131C187.269 46.2131 186.056 45.7251 185.121 44.749C184.185 43.7661 183.718 42.4544 183.718 40.814V40.4683C183.718 39.377 183.924 38.4042 184.338 37.5501C184.758 36.6893 185.341 36.0182 186.087 35.5369C186.839 35.0488 187.652 34.8048 188.527 34.8048C189.957 34.8048 191.069 35.2759 191.862 36.2181C192.655 37.1604 193.052 38.5093 193.052 40.2649V41.0479H185.599C185.626 42.1324 185.941 43.0103 186.544 43.6813C187.154 44.3456 187.927 44.6778 188.862 44.6778C189.527 44.6778 190.089 44.5422 190.55 44.2711C191.011 43.9999 191.415 43.6407 191.76 43.1933L192.909 44.088C191.987 45.5048 190.605 46.2131 188.761 46.2131ZM188.527 36.3503C187.768 36.3503 187.131 36.6282 186.615 37.1841C186.1 37.7332 185.782 38.5059 185.66 39.5024H191.171V39.36C191.116 38.4042 190.859 37.6654 190.398 37.1434C189.937 36.6147 189.313 36.3503 188.527 36.3503ZM195.363 40.4175C195.363 38.7025 195.759 37.34 196.553 36.33C197.346 35.3132 198.396 34.8048 199.705 34.8048C201.047 34.8048 202.094 35.2793 202.846 36.2283L202.938 35.0082H204.656V45.7454C204.656 47.1689 204.233 48.2907 203.385 49.111C202.545 49.9312 201.413 50.3413 199.989 50.3413C199.196 50.3413 198.42 50.1718 197.661 49.8329C196.902 49.4939 196.322 49.0296 195.922 48.4399L196.898 47.3112C197.705 48.3077 198.691 48.8059 199.857 48.8059C200.772 48.8059 201.484 48.5483 201.992 48.0332C202.508 47.518 202.765 46.7927 202.765 45.8572V44.9116C202.013 45.7793 200.986 46.2131 199.684 46.2131C198.396 46.2131 197.352 45.6946 196.553 44.6574C195.759 43.6203 195.363 42.207 195.363 40.4175ZM197.254 40.631C197.254 41.8715 197.508 42.8476 198.017 43.5593C198.525 44.2643 199.237 44.6168 200.152 44.6168C201.338 44.6168 202.209 44.0779 202.765 43.0001V37.9772C202.189 36.9265 201.325 36.4012 200.172 36.4012C199.257 36.4012 198.542 36.757 198.027 37.4688C197.512 38.1805 197.254 39.2346 197.254 40.631ZM210.12 46.0098H208.239V35.0082H210.12V46.0098ZM208.086 32.09C208.086 31.785 208.178 31.5274 208.361 31.3172C208.55 31.1071 208.828 31.002 209.194 31.002C209.56 31.002 209.838 31.1071 210.028 31.3172C210.218 31.5274 210.313 31.785 210.313 32.09C210.313 32.395 210.218 32.6492 210.028 32.8526C209.838 33.0559 209.56 33.1576 209.194 33.1576C208.828 33.1576 208.55 33.0559 208.361 32.8526C208.178 32.6492 208.086 32.395 208.086 32.09ZM213.214 40.4073C213.214 39.3295 213.424 38.3602 213.844 37.4993C214.271 36.6384 214.861 35.9741 215.614 35.5064C216.373 35.0387 217.237 34.8048 218.206 34.8048C219.704 34.8048 220.914 35.3234 221.836 36.3605C222.765 37.3976 223.229 38.777 223.229 40.4988V40.631C223.229 41.702 223.023 42.6645 222.609 43.5186C222.202 44.366 221.616 45.0269 220.85 45.5014C220.091 45.9759 219.216 46.2131 218.227 46.2131C216.735 46.2131 215.525 45.6946 214.597 44.6574C213.675 43.6203 213.214 42.2477 213.214 40.5395V40.4073ZM215.105 40.631C215.105 41.8511 215.386 42.8306 215.949 43.5695C216.519 44.3083 217.278 44.6778 218.227 44.6778C219.182 44.6778 219.942 44.305 220.504 43.5593C221.067 42.8069 221.348 41.7562 221.348 40.4073C221.348 39.2007 221.06 38.2246 220.484 37.479C219.915 36.7265 219.155 36.3503 218.206 36.3503C217.278 36.3503 216.529 36.7198 215.959 37.4586C215.39 38.1975 215.105 39.2549 215.105 40.631ZM227.94 35.0082L228.001 36.391C228.842 35.3335 229.94 34.8048 231.296 34.8048C233.621 34.8048 234.793 36.1165 234.814 38.7398V46.0098H232.933V38.7296C232.926 37.9365 232.743 37.3502 232.384 36.9706C232.031 36.591 231.479 36.4012 230.726 36.4012C230.116 36.4012 229.581 36.5639 229.12 36.8892C228.659 37.2146 228.3 37.6416 228.042 38.1704V46.0098H226.161V35.0082H227.94Z" fill="#263238"/>
<rect x="0.667343" y="1.5316" width="899.324" height="456.82" rx="5.85667" stroke="#E5E5E5" stroke-width="1.30148"/>
</svg>
