<svg width="475" height="270" viewBox="0 0 475 270" fill="none" xmlns="http://www.w3.org/2000/svg">
<rect x="0.554744" y="0.500728" width="473.187" height="268.92" rx="4.21651" fill="white" stroke="#E5E5E5" stroke-width="0.937003"/>
<g opacity="0.16">
<rect x="23.5114" y="165.882" width="39.4595" height="75.7479" fill="#0099E6"/>
</g>
<g opacity="0.16">
<rect x="66.6135" y="120.906" width="39.4595" height="121.055" fill="#0099E6"/>
</g>
<g opacity="0.16">
<rect x="110.653" y="126.528" width="39.4595" height="115.138" fill="#0099E6"/>
</g>
<g opacity="0.16">
<rect x="153.755" y="105.914" width="39.4595" height="136.112" fill="#0099E6"/>
</g>
<g opacity="0.16">
<rect x="198.731" y="95.6064" width="39.4595" height="145.788" fill="#0099E6"/>
</g>
<g opacity="0.16">
<rect x="241.833" y="144.331" width="39.4595" height="97.5411" fill="#0099E6"/>
</g>
<g opacity="0.16">
<rect x="284.935" y="120.906" width="39.4595" height="120.728" fill="#0099E6"/>
</g>
<g opacity="0.16">
<rect x="329.911" y="109.662" width="39.4595" height="131.797" fill="#0099E6"/>
</g>
<g opacity="0.16">
<rect x="373.013" y="165.882" width="39.4595" height="75.7479" fill="#0099E6"/>
</g>
<g opacity="0.16">
<rect x="416.116" y="91.8584" width="39.4595" height="149.166" fill="#0099E6"/>
</g>
<path d="M38.3297 230.286V231.086H39.2288C40.3033 231.086 40.8734 231.601 40.8734 232.501V232.588C40.8734 233.487 40.3033 234.003 39.2288 234.003C38.2968 234.003 37.8473 233.597 37.4526 232.994L36.7618 233.52C37.2333 234.178 37.9131 234.825 39.2398 234.825C40.7967 234.825 41.8383 233.915 41.8383 232.599C41.8383 231.448 41.0489 230.834 40.2265 230.669V230.626C41.0379 230.417 41.6958 229.825 41.6958 228.838C41.6958 227.599 40.6651 226.909 39.3713 226.909C38.1433 226.909 37.4745 227.545 37.0908 228.159L37.7706 228.685C38.0885 228.104 38.56 227.731 39.3494 227.731C40.1608 227.731 40.7199 228.137 40.7199 228.937V229.014C40.7199 229.748 40.1937 230.286 39.163 230.286H38.3297ZM49.085 233.882H45.0611L47.1224 232.029C48.0982 231.152 48.8 230.319 48.8 229.134C48.8 227.83 47.9447 226.909 46.4536 226.909C44.9734 226.909 44.2937 227.808 43.9976 228.707L44.8199 229.025C45.0283 228.301 45.4668 227.731 46.4097 227.731C47.3527 227.731 47.8241 228.312 47.8241 229.156V229.288C47.8241 230.023 47.2759 230.79 46.5632 231.448L44.0634 233.75V234.693H49.085V233.882Z" fill="#263238"/>
<path d="M81.7775 232.661H77.7537L79.8149 230.808C80.7908 229.931 81.4925 229.098 81.4925 227.914C81.4925 226.609 80.6373 225.688 79.1461 225.688C77.6659 225.688 76.9862 226.587 76.6901 227.486L77.5124 227.804C77.7208 227.081 78.1593 226.51 79.1023 226.51C80.0452 226.51 80.5166 227.091 80.5166 227.936V228.067C80.5166 228.802 79.9684 229.569 79.2558 230.227L76.7559 232.53V233.473H81.7775V232.661ZM88.3335 225.82H84.2329L83.9588 230.03L84.7372 230.14C85.0552 229.789 85.4061 229.493 86.1078 229.493C87.1494 229.493 87.7086 230.074 87.7086 231.082V231.192C87.7086 232.201 87.1494 232.782 86.1078 232.782C85.1868 232.782 84.803 232.376 84.4083 231.773L83.7176 232.299C84.1781 232.957 84.8359 233.604 86.1078 233.604C87.7195 233.604 88.6844 232.563 88.6844 231.071C88.6844 229.591 87.7195 228.703 86.4038 228.703C85.6034 228.703 85.1977 229.032 84.8359 229.547H84.7592L84.9785 226.631H88.3335V225.82ZM93.1133 233.604C94.6483 233.604 95.657 232.574 95.657 231.071C95.657 229.624 94.7141 228.714 93.3984 228.714C92.4664 228.714 91.9182 229.186 91.5564 229.811L91.5016 229.789C91.9182 228.012 92.8282 227.015 94.4619 225.82H93.2778C92.0498 226.62 90.5477 228.396 90.5477 230.666C90.5477 232.486 91.5235 233.604 93.1133 233.604ZM93.1023 232.804C92.0936 232.804 91.5016 232.223 91.5016 231.192V231.104C91.5016 230.074 92.0936 229.493 93.1023 229.493C94.111 229.493 94.7031 230.074 94.7031 231.104V231.192C94.7031 232.223 94.111 232.804 93.1023 232.804Z" fill="#263238"/>
<path d="M125.97 234.339V233.528H123.997V226.686H122.56L120.532 228.583L121.069 229.164L122.999 227.366H123.076V233.528H120.938V234.339H125.97ZM131.901 234.339V232.837H133.009V232.069H131.901V226.686H130.531L127.329 232.025V232.837H131.024V234.339H131.901ZM130.969 227.399H131.024V232.069H128.195L130.969 227.399ZM138.841 234.339V232.837H139.948V232.069H138.841V226.686H137.47L134.269 232.025V232.837H137.964V234.339H138.841ZM137.909 227.399H137.964V232.069H135.135L137.909 227.399Z" fill="#263238"/>
<path d="M169.072 233.788V232.977H167.099V226.135H165.662L163.634 228.032L164.171 228.613L166.101 226.815H166.178V232.977H164.04V233.788H169.072ZM173.315 233.92C174.85 233.92 175.859 232.889 175.859 231.387C175.859 229.94 174.916 229.03 173.6 229.03C172.668 229.03 172.12 229.501 171.758 230.126L171.703 230.104C172.12 228.328 173.03 227.33 174.663 226.135H173.479C172.251 226.935 170.749 228.712 170.749 230.981C170.749 232.801 171.725 233.92 173.315 233.92ZM173.304 233.119C172.295 233.119 171.703 232.538 171.703 231.508V231.42C171.703 230.389 172.295 229.808 173.304 229.808C174.313 229.808 174.905 230.389 174.905 231.42V231.508C174.905 232.538 174.313 233.119 173.304 233.119ZM180.244 233.92C181.987 233.92 182.897 232.966 182.897 231.705C182.897 230.663 182.272 230.06 181.351 229.808V229.72C182.151 229.446 182.667 228.799 182.667 227.922C182.667 226.76 181.768 226.003 180.244 226.003C178.72 226.003 177.821 226.76 177.821 227.922C177.821 228.799 178.336 229.446 179.136 229.72V229.808C178.215 230.06 177.59 230.663 177.59 231.705C177.59 232.966 178.5 233.92 180.244 233.92ZM180.244 233.119C179.18 233.119 178.566 232.615 178.566 231.749V231.518C178.566 230.652 179.18 230.148 180.244 230.148C181.307 230.148 181.921 230.652 181.921 231.518V231.749C181.921 232.615 181.307 233.119 180.244 233.119ZM180.244 229.38C179.29 229.38 178.774 228.953 178.774 228.174V228.01C178.774 227.231 179.29 226.804 180.244 226.804C181.198 226.804 181.713 227.231 181.713 228.01V228.174C181.713 228.953 181.198 229.38 180.244 229.38Z" fill="#263238"/>
<path d="M213.895 234.543H209.871L211.932 232.69C212.908 231.813 213.61 230.98 213.61 229.796C213.61 228.491 212.755 227.57 211.264 227.57C209.783 227.57 209.104 228.469 208.808 229.368L209.63 229.686C209.838 228.962 210.277 228.392 211.22 228.392C212.163 228.392 212.634 228.973 212.634 229.818V229.949C212.634 230.684 212.086 231.451 211.373 232.109L208.873 234.412V235.354H213.895V234.543ZM219.98 235.354V233.852H221.087V233.085H219.98V227.701H218.609L215.407 233.041V233.852H219.102V235.354H219.98ZM219.048 228.414H219.102V233.085H216.274L219.048 228.414ZM225.22 235.486C226.963 235.486 227.873 234.532 227.873 233.271C227.873 232.23 227.248 231.627 226.327 231.374V231.287C227.128 231.013 227.643 230.366 227.643 229.489C227.643 228.326 226.744 227.57 225.22 227.57C223.696 227.57 222.797 228.326 222.797 229.489C222.797 230.366 223.312 231.013 224.112 231.287V231.374C223.191 231.627 222.566 232.23 222.566 233.271C222.566 234.532 223.477 235.486 225.22 235.486ZM225.22 234.686C224.156 234.686 223.542 234.181 223.542 233.315V233.085C223.542 232.219 224.156 231.714 225.22 231.714C226.283 231.714 226.897 232.219 226.897 233.085V233.315C226.897 234.181 226.283 234.686 225.22 234.686ZM225.22 230.947C224.266 230.947 223.751 230.519 223.751 229.741V229.576C223.751 228.798 224.266 228.37 225.22 228.37C226.174 228.37 226.689 228.798 226.689 229.576V229.741C226.689 230.519 226.174 230.947 225.22 230.947Z" fill="#263238"/>
<path d="M260.467 231.233C260.467 229.413 259.491 228.294 257.901 228.294C256.366 228.294 255.358 229.325 255.358 230.827C255.358 232.275 256.301 233.185 257.616 233.185C258.548 233.185 259.096 232.713 259.458 232.088L259.513 232.11C259.096 233.886 258.186 234.884 256.553 236.079H257.737C258.965 235.279 260.467 233.503 260.467 231.233ZM257.912 232.406C256.904 232.406 256.311 231.825 256.311 230.794V230.707C256.311 229.676 256.904 229.095 257.912 229.095C258.921 229.095 259.513 229.676 259.513 230.707V230.794C259.513 231.825 258.921 232.406 257.912 232.406ZM264.863 236.211C266.398 236.211 267.407 235.18 267.407 233.678C267.407 232.231 266.464 231.321 265.148 231.321C264.216 231.321 263.668 231.792 263.306 232.417L263.251 232.395C263.668 230.619 264.578 229.621 266.212 228.426H265.027C263.799 229.226 262.297 231.003 262.297 233.272C262.297 235.092 263.273 236.211 264.863 236.211ZM264.852 235.41C263.843 235.41 263.251 234.829 263.251 233.799V233.711C263.251 232.68 263.843 232.099 264.852 232.099C265.861 232.099 266.453 232.68 266.453 233.711V233.799C266.453 234.829 265.861 235.41 264.852 235.41Z" fill="#263238"/>
<path d="M300.253 235.654V234.843H298.279V228.001H296.843L294.814 229.898L295.352 230.479L297.281 228.681H297.358V234.843H295.22V235.654H300.253ZM306.184 235.654V234.152H307.291V233.385H306.184V228.001H304.813L301.612 233.341V234.152H305.307V235.654H306.184ZM305.252 228.714H305.307V233.385H302.478L305.252 228.714ZM313.124 235.654V234.152H314.231V233.385H313.124V228.001H311.753L308.551 233.341V234.152H312.246V235.654H313.124ZM312.192 228.714H312.246V233.385H309.418L312.192 228.714Z" fill="#263238"/>
<path d="M345.229 234.473V233.661H343.255V226.82H341.819L339.791 228.716L340.328 229.298L342.258 227.499H342.334V233.661H340.196V234.473H345.229ZM349.471 234.604C351.006 234.604 352.015 233.574 352.015 232.071C352.015 230.624 351.072 229.714 349.757 229.714C348.825 229.714 348.276 230.186 347.915 230.811L347.86 230.789C348.276 229.012 349.186 228.015 350.82 226.82H349.636C348.408 227.62 346.906 229.396 346.906 231.666C346.906 233.486 347.882 234.604 349.471 234.604ZM349.461 233.804C348.452 233.804 347.86 233.223 347.86 232.192V232.104C347.86 231.074 348.452 230.493 349.461 230.493C350.469 230.493 351.061 231.074 351.061 232.104V232.192C351.061 233.223 350.469 233.804 349.461 233.804ZM356.4 234.604C358.144 234.604 359.054 233.65 359.054 232.389C359.054 231.348 358.429 230.745 357.508 230.493V230.405C358.308 230.131 358.823 229.484 358.823 228.607C358.823 227.445 357.924 226.688 356.4 226.688C354.876 226.688 353.977 227.445 353.977 228.607C353.977 229.484 354.492 230.131 355.293 230.405V230.493C354.372 230.745 353.747 231.348 353.747 232.389C353.747 233.65 354.657 234.604 356.4 234.604ZM356.4 233.804C355.337 233.804 354.723 233.299 354.723 232.433V232.203C354.723 231.337 355.337 230.833 356.4 230.833C357.464 230.833 358.078 231.337 358.078 232.203V232.433C358.078 233.299 357.464 233.804 356.4 233.804ZM356.4 230.065C355.446 230.065 354.931 229.637 354.931 228.859V228.695C354.931 227.916 355.446 227.488 356.4 227.488C357.354 227.488 357.869 227.916 357.869 228.695V228.859C357.869 229.637 357.354 230.065 356.4 230.065Z" fill="#263238"/>
<path d="M387.832 231.129V231.93H388.731C389.805 231.93 390.376 232.445 390.376 233.344V233.432C390.376 234.331 389.805 234.846 388.731 234.846C387.799 234.846 387.349 234.441 386.955 233.838L386.264 234.364C386.735 235.022 387.415 235.669 388.742 235.669C390.299 235.669 391.34 234.759 391.34 233.443C391.34 232.292 390.551 231.678 389.729 231.513V231.469C390.54 231.261 391.198 230.669 391.198 229.682C391.198 228.443 390.167 227.753 388.873 227.753C387.645 227.753 386.977 228.388 386.593 229.002L387.273 229.529C387.591 228.948 388.062 228.575 388.851 228.575C389.663 228.575 390.222 228.98 390.222 229.781V229.858C390.222 230.592 389.696 231.129 388.665 231.129H387.832ZM398.587 234.726H394.563L396.625 232.873C397.6 231.996 398.302 231.162 398.302 229.978C398.302 228.673 397.447 227.753 395.956 227.753C394.476 227.753 393.796 228.652 393.5 229.551L394.322 229.869C394.53 229.145 394.969 228.575 395.912 228.575C396.855 228.575 397.326 229.156 397.326 230V230.132C397.326 230.866 396.778 231.634 396.065 232.292L393.565 234.594V235.537H398.587V234.726Z" fill="#263238"/>
<path d="M431.28 233.702H427.256L429.317 231.849C430.293 230.972 430.995 230.139 430.995 228.955C430.995 227.65 430.139 226.729 428.648 226.729C427.168 226.729 426.488 227.628 426.192 228.527L427.015 228.845C427.223 228.122 427.661 227.551 428.604 227.551C429.547 227.551 430.019 228.132 430.019 228.977V229.108C430.019 229.843 429.471 230.61 428.758 231.268L426.258 233.571V234.514H431.28V233.702ZM437.836 226.861H433.735L433.461 231.071L434.239 231.181C434.557 230.83 434.908 230.534 435.61 230.534C436.652 230.534 437.211 231.115 437.211 232.123V232.233C437.211 233.242 436.652 233.823 435.61 233.823C434.689 233.823 434.305 233.417 433.91 232.814L433.22 233.34C433.68 233.998 434.338 234.645 435.61 234.645C437.222 234.645 438.187 233.604 438.187 232.113C438.187 230.632 437.222 229.744 435.906 229.744C435.106 229.744 434.7 230.073 434.338 230.588H434.261L434.481 227.672H437.836V226.861ZM442.615 234.645C444.15 234.645 445.159 233.615 445.159 232.113C445.159 230.665 444.216 229.755 442.901 229.755C441.969 229.755 441.42 230.227 441.059 230.852L441.004 230.83C441.42 229.053 442.33 228.056 443.964 226.861H442.78C441.552 227.661 440.05 229.437 440.05 231.707C440.05 233.527 441.026 234.645 442.615 234.645ZM442.604 233.845C441.596 233.845 441.004 233.264 441.004 232.233V232.145C441.004 231.115 441.596 230.534 442.604 230.534C443.613 230.534 444.205 231.115 444.205 232.145V232.233C444.205 233.264 443.613 233.845 442.604 233.845Z" fill="#263238"/>
<path d="M18.474 33.1418C20.7228 33.1418 22.0721 31.9125 22.0721 29.9935C22.0721 28.4343 21.1876 27.5348 19.1486 27.07L18.2941 26.8751C16.9748 26.5753 16.3301 26.1255 16.3301 25.1361C16.3301 24.0117 17.1547 23.427 18.489 23.427C19.7033 23.427 20.4979 23.9217 21.0676 24.7163L22.0121 24.0267C21.2325 22.9172 20.1231 22.3176 18.549 22.3176C16.495 22.3176 15.0858 23.322 15.0858 25.181C15.0858 26.7852 16.1352 27.6247 18.0392 28.0595L18.8938 28.2544C20.273 28.5692 20.8278 29.064 20.8278 30.0535C20.8278 31.2528 20.0182 32.0324 18.519 32.0324C17.3046 32.0324 16.4351 31.5077 15.7005 30.5332L14.771 31.3128C15.6105 32.4522 16.7949 33.1418 18.474 33.1418ZM27.7474 32.9619V31.9125H26.1732V26.2755H27.8673V25.226H26.1732V23.0822H25.0938V24.5214C25.0938 25.0461 24.9289 25.226 24.4192 25.226H23.6995V26.2755H24.9739V31.6876C24.9739 32.4372 25.4236 32.9619 26.2482 32.9619H27.7474ZM36.504 32.9619V31.9125H35.6195V27.6547C35.6195 26.0206 34.5101 25.0461 32.6511 25.0461C31.2568 25.0461 30.3273 25.7357 29.9075 26.5603L30.6272 27.235C31.0469 26.5303 31.6616 26.0806 32.5911 26.0806C33.8205 26.0806 34.4202 26.6802 34.4202 27.7747V28.5393H32.891C30.6422 28.5393 29.5927 29.3488 29.5927 30.8031C29.5927 32.2423 30.5522 33.1418 32.1863 33.1418C33.2658 33.1418 34.0903 32.6471 34.4202 31.7026H34.4951C34.5851 32.4222 34.9449 32.9619 35.8294 32.9619H36.504ZM32.3812 32.1224C31.4517 32.1224 30.852 31.6876 30.852 30.923V30.6082C30.852 29.8586 31.4667 29.4388 32.831 29.4388H34.4202V30.7131C34.4202 31.5077 33.5656 32.1224 32.3812 32.1224ZM39.8275 32.9619V27.7147C39.8275 26.9801 40.6071 26.4254 41.8964 26.4254H42.601V25.226H42.1363C40.8769 25.226 40.1723 25.9157 39.9024 26.6503H39.8275V25.226H38.6281V32.9619H39.8275ZM47.8122 32.9619V31.9125H46.238V26.2755H47.9321V25.226H46.238V23.0822H45.1586V24.5214C45.1586 25.0461 44.9936 25.226 44.4839 25.226H43.7643V26.2755H45.0386V31.6876C45.0386 32.4372 45.4884 32.9619 46.3129 32.9619H47.8122ZM55.0396 32.9619H56.239V25.226H55.0396V30.5782C55.0396 31.5976 54.1101 32.0624 53.1656 32.0624C52.0112 32.0624 51.3965 31.3578 51.3965 29.9785V25.226H50.1972V30.1884C50.1972 32.0624 51.2166 33.1418 52.8058 33.1418C54.0951 33.1418 54.6798 32.4372 54.9796 31.7026H55.0396V32.9619ZM59.2053 35.9603H60.4047V31.7026H60.4646C60.9294 32.6621 61.664 33.1418 62.7284 33.1418C64.6624 33.1418 65.8768 31.5677 65.8768 29.094C65.8768 26.6203 64.6624 25.0461 62.7284 25.0461C61.664 25.0461 60.8694 25.5109 60.4646 26.4853H60.4047V25.226H59.2053V35.9603ZM62.3986 32.0624C61.3042 32.0624 60.4047 31.4927 60.4047 30.4882V27.6098C60.4047 26.7552 61.3042 26.1255 62.3986 26.1255C63.7479 26.1255 64.5874 27.055 64.5874 28.4343V29.7536C64.5874 31.1329 63.7479 32.0624 62.3986 32.0624ZM70.6379 33.1418C72.407 33.1418 73.5014 32.2273 73.5014 30.7281C73.5014 29.5587 72.8417 28.8091 71.1326 28.5543L70.533 28.4643C69.5735 28.3144 69.0487 28.0145 69.0487 27.2649C69.0487 26.5303 69.5735 26.0656 70.5629 26.0656C71.5524 26.0656 72.2121 26.5303 72.5569 27.0101L73.3515 26.2905C72.7218 25.5109 71.8972 25.0461 70.6529 25.0461C69.0787 25.0461 67.8944 25.7957 67.8944 27.3249C67.8944 28.7641 68.9588 29.3488 70.383 29.5587L70.9977 29.6487C72.0172 29.7986 72.347 30.2633 72.347 30.863C72.347 31.6576 71.7473 32.1224 70.7279 32.1224C69.7534 32.1224 69.0337 31.6876 68.4341 30.938L67.5795 31.6276C68.2692 32.5421 69.2137 33.1418 70.6379 33.1418ZM83.0908 32.9619L85.8193 25.226H84.6649L83.2857 29.064L82.4461 31.7026H82.3712L81.5316 29.064L80.1823 25.226H78.983L81.6965 32.9619H83.0908ZM90.1024 33.1418C91.8714 33.1418 92.9659 32.2273 92.9659 30.7281C92.9659 29.5587 92.3062 28.8091 90.5971 28.5543L89.9974 28.4643C89.0379 28.3144 88.5132 28.0145 88.5132 27.2649C88.5132 26.5303 89.0379 26.0656 90.0274 26.0656C91.0169 26.0656 91.6765 26.5303 92.0214 27.0101L92.8159 26.2905C92.1863 25.5109 91.3617 25.0461 90.1174 25.0461C88.5432 25.0461 87.3588 25.7957 87.3588 27.3249C87.3588 28.7641 88.4233 29.3488 89.8475 29.5587L90.4622 29.6487C91.4816 29.7986 91.8115 30.2633 91.8115 30.863C91.8115 31.6576 91.2118 32.1224 90.1923 32.1224C89.2178 32.1224 88.4982 31.6876 87.8985 30.938L87.044 31.6276C87.7336 32.5421 88.6781 33.1418 90.1024 33.1418ZM102.51 33.1418C104.759 33.1418 106.108 31.9125 106.108 29.9935C106.108 28.4343 105.224 27.5348 103.185 27.07L102.33 26.8751C101.011 26.5753 100.366 26.1255 100.366 25.1361C100.366 24.0117 101.191 23.427 102.525 23.427C103.74 23.427 104.534 23.9217 105.104 24.7163L106.048 24.0267C105.269 22.9172 104.159 22.3176 102.585 22.3176C100.531 22.3176 99.1221 23.322 99.1221 25.181C99.1221 26.7852 100.172 27.6247 102.076 28.0595L102.93 28.2544C104.309 28.5692 104.864 29.064 104.864 30.0535C104.864 31.2528 104.054 32.0324 102.555 32.0324C101.341 32.0324 100.471 31.5077 99.7368 30.5332L98.8073 31.3128C99.6468 32.4522 100.831 33.1418 102.51 33.1418ZM111.484 33.1418C112.938 33.1418 114.047 32.4222 114.542 31.3728L113.688 30.7581C113.283 31.6126 112.533 32.0924 111.559 32.0924C110.12 32.0924 109.265 31.0879 109.265 29.7536V29.3938H114.827V28.8241C114.827 26.6353 113.553 25.0461 111.484 25.0461C109.385 25.0461 108.006 26.6353 108.006 29.094C108.006 31.5527 109.385 33.1418 111.484 33.1418ZM111.484 26.0506C112.713 26.0506 113.538 26.9651 113.538 28.3294V28.4943H109.265V28.3893C109.265 27.0401 110.18 26.0506 111.484 26.0506ZM120.094 33.1418C121.563 33.1418 122.568 32.4222 123.063 31.3128L122.193 30.7281C121.773 31.6126 121.069 32.0774 120.094 32.0774C118.67 32.0774 117.935 31.1029 117.935 29.7536V28.4343C117.935 27.085 118.67 26.1105 120.094 26.1105C121.039 26.1105 121.698 26.5753 121.983 27.3699L122.988 26.8601C122.538 25.7957 121.623 25.0461 120.094 25.0461C117.92 25.0461 116.646 26.6203 116.646 29.094C116.646 31.5677 117.92 33.1418 120.094 33.1418ZM128.376 32.9619V31.9125H126.802V26.2755H128.496V25.226H126.802V23.0822H125.723V24.5214C125.723 25.0461 125.558 25.226 125.048 25.226H124.328V26.2755H125.603V31.6876C125.603 32.4372 126.052 32.9619 126.877 32.9619H128.376ZM133.701 33.1418C135.77 33.1418 137.194 31.5527 137.194 29.094C137.194 26.6353 135.77 25.0461 133.701 25.0461C131.632 25.0461 130.208 26.6353 130.208 29.094C130.208 31.5527 131.632 33.1418 133.701 33.1418ZM133.701 32.0774C132.412 32.0774 131.497 31.2828 131.497 29.6487V28.5393C131.497 26.9051 132.412 26.1105 133.701 26.1105C134.99 26.1105 135.905 26.9051 135.905 28.5393V29.6487C135.905 31.2828 134.99 32.0774 133.701 32.0774ZM140.778 32.9619V27.7147C140.778 26.9801 141.558 26.4254 142.847 26.4254H143.552V25.226H143.087C141.828 25.226 141.123 25.9157 140.853 26.6503H140.778V25.226H139.579V32.9619H140.778ZM147.82 33.1418C149.589 33.1418 150.683 32.2273 150.683 30.7281C150.683 29.5587 150.024 28.8091 148.315 28.5543L147.715 28.4643C146.756 28.3144 146.231 28.0145 146.231 27.2649C146.231 26.5303 146.756 26.0656 147.745 26.0656C148.735 26.0656 149.394 26.5303 149.739 27.0101L150.534 26.2905C149.904 25.5109 149.079 25.0461 147.835 25.0461C146.261 25.0461 145.076 25.7957 145.076 27.3249C145.076 28.7641 146.141 29.3488 147.565 29.5587L148.18 29.6487C149.199 29.7986 149.529 30.2633 149.529 30.863C149.529 31.6576 148.929 32.1224 147.91 32.1224C146.935 32.1224 146.216 31.6876 145.616 30.938L144.762 31.6276C145.451 32.5421 146.396 33.1418 147.82 33.1418Z" fill="#263238"/>
<path d="M43.8813 178.546L43.8813 177.732L37.1129 177.732L37.1129 178.546L40.0995 178.546L40.0995 181.969L37.1129 181.969L37.1129 182.784L43.8813 182.784L43.8813 181.969L40.8171 181.969L40.8171 178.546L43.8813 178.546ZM43.9977 173.848C43.9977 172.51 42.9698 171.588 41.3795 171.588C39.7892 171.588 38.7614 172.51 38.7614 173.848C38.7614 175.186 39.7892 176.107 41.3795 176.107C42.9698 176.107 43.9977 175.186 43.9977 173.848ZM43.3092 173.848C43.3092 174.682 42.7953 175.273 41.7383 175.273L41.0208 175.273C39.9638 175.273 39.4498 174.682 39.4498 173.848C39.4498 173.014 39.9638 172.422 41.0208 172.422L41.7383 172.422C42.7953 172.422 43.3092 173.014 43.3092 173.848ZM43.8813 169.27L40.4874 169.27C40.0123 169.27 39.6535 168.766 39.6535 167.932L39.6535 167.476L38.8777 167.476L38.8777 167.777C38.8777 168.591 39.3238 169.047 39.7989 169.222L39.7989 169.27L38.8777 169.27L38.8777 170.046L43.8813 170.046L43.8813 169.27ZM43.8813 164.106L43.2026 164.106L43.2026 165.124L39.5565 165.124L39.5565 164.028L38.8777 164.028L38.8777 165.124L37.4911 165.124L37.4911 165.822L38.422 165.822C38.7614 165.822 38.8777 165.929 38.8777 166.258L38.8777 166.724L39.5565 166.724L39.5565 165.899L43.0571 165.899C43.542 165.899 43.8813 165.609 43.8813 165.075L43.8813 164.106ZM37.7044 162.127C37.7044 161.797 37.5299 161.651 37.268 161.651L37.142 161.651C36.8802 161.651 36.7056 161.797 36.7056 162.127C36.7056 162.456 36.8802 162.602 37.142 162.602L37.268 162.602C37.5299 162.602 37.7044 162.456 37.7044 162.127ZM43.8813 162.514L43.8813 161.739L38.8777 161.739L38.8777 162.514L43.8813 162.514ZM43.9977 157.962C43.9977 157.011 43.5323 156.362 42.8147 156.042L42.4365 156.604C43.0086 156.876 43.3092 157.331 43.3092 157.962C43.3092 158.883 42.6789 159.358 41.8062 159.358L40.9529 159.358C40.0801 159.358 39.4498 158.883 39.4498 157.962C39.4498 157.351 39.7505 156.924 40.2644 156.74L39.9347 156.09C39.2462 156.381 38.7614 156.973 38.7614 157.962C38.7614 159.368 39.7795 160.192 41.3795 160.192C42.9795 160.192 43.9977 159.368 43.9977 157.962ZM43.8813 151.596L43.8813 150.821L38.8777 150.821L38.8777 151.596L42.3395 151.596C42.9989 151.596 43.2995 152.198 43.2995 152.808C43.2995 153.555 42.8438 153.953 41.9517 153.953L38.8777 153.953L38.8777 154.728L42.0874 154.728C43.2995 154.728 43.9977 154.069 43.9977 153.041C43.9977 152.207 43.542 151.829 43.0668 151.635L43.0668 151.596L43.8813 151.596ZM43.8813 147.389L43.2026 147.389L43.2026 148.126L36.7056 148.126L36.7056 148.902L43.0765 148.902C43.542 148.902 43.8813 148.611 43.8813 148.078L43.8813 147.389ZM43.8813 143.965L43.2026 143.965L43.2026 144.984L39.5565 144.984L39.5565 143.888L38.8777 143.888L38.8777 144.984L37.4911 144.984L37.4911 145.682L38.422 145.682C38.7614 145.682 38.8777 145.788 38.8777 146.118L38.8777 146.584L39.5565 146.584L39.5565 145.759L43.0571 145.759C43.542 145.759 43.8813 145.468 43.8813 144.935L43.8813 143.965ZM43.8813 139.291L43.8813 138.515L38.8777 138.515L38.8777 139.291L42.3395 139.291C42.9989 139.291 43.2995 139.892 43.2995 140.503C43.2995 141.249 42.8438 141.647 41.9517 141.647L38.8777 141.647L38.8777 142.423L42.0874 142.423C43.2995 142.423 43.9977 141.763 43.9977 140.736C43.9977 139.902 43.542 139.523 43.0668 139.329L43.0668 139.291L43.8813 139.291ZM43.8813 135.821L40.4874 135.821C40.0123 135.821 39.6535 135.316 39.6535 134.482L39.6535 134.027L38.8777 134.027L38.8777 134.327C38.8777 135.142 39.3238 135.598 39.7989 135.772L39.7989 135.821L38.8777 135.821L38.8777 136.596L43.8813 136.596L43.8813 135.821ZM43.9977 130.935C43.9977 129.995 43.5323 129.277 42.8535 128.957L42.4559 129.51C43.0086 129.772 43.3189 130.256 43.3189 130.887C43.3189 131.818 42.6692 132.37 41.8062 132.37L41.5735 132.37L41.5735 128.773L41.205 128.773C39.7892 128.773 38.7614 129.597 38.7614 130.935C38.7614 132.293 39.7892 133.185 41.3795 133.185C42.9698 133.185 43.9977 132.293 43.9977 130.935ZM39.4111 130.935C39.4111 130.14 40.0026 129.607 40.885 129.607L40.9917 129.607L40.9917 132.37L40.9238 132.37C40.0511 132.37 39.4111 131.779 39.4111 130.935Z" fill="#263238"/>
<path d="M130.086 143.984L129.368 143.984L129.368 147.3L127.021 147.3L127.021 144.178L126.304 144.178L126.304 147.3L124.035 147.3L124.035 143.984L123.317 143.984L123.317 148.115L130.086 148.115L130.086 143.984ZM130.086 141.497L126.614 141.497C125.974 141.497 125.664 140.895 125.664 140.275C125.664 139.528 126.12 139.14 127.012 139.14L130.086 139.14L130.086 138.364L126.876 138.364C125.664 138.364 124.966 139.014 124.966 140.042C124.966 140.789 125.334 141.215 125.897 141.458L125.897 141.497L125.082 141.497L125.082 142.272L130.086 142.272L130.086 141.497ZM130.086 134.563L125.082 132.798L125.082 133.545L127.564 134.437L129.271 134.98L129.271 135.028L127.564 135.571L125.082 136.444L125.082 137.22L130.086 135.465L130.086 134.563ZM123.909 131.143C123.909 130.813 123.734 130.668 123.472 130.668L123.346 130.668C123.084 130.668 122.91 130.813 122.91 131.143C122.91 131.472 123.084 131.618 123.346 131.618L123.472 131.618C123.734 131.618 123.909 131.472 123.909 131.143ZM130.086 131.531L130.086 130.755L125.082 130.755L125.082 131.531L130.086 131.531ZM130.086 128.064L126.692 128.064C126.217 128.064 125.858 127.56 125.858 126.726L125.858 126.27L125.082 126.27L125.082 126.571C125.082 127.385 125.528 127.841 126.003 128.016L126.003 128.064L125.082 128.064L125.082 128.84L130.086 128.84L130.086 128.064ZM130.202 123.169C130.202 121.831 129.174 120.91 127.584 120.91C125.994 120.91 124.966 121.831 124.966 123.169C124.966 124.507 125.994 125.428 127.584 125.428C129.174 125.428 130.202 124.507 130.202 123.169ZM129.514 123.169C129.514 124.003 129 124.594 127.943 124.594L127.225 124.594C126.168 124.594 125.654 124.003 125.654 123.169C125.654 122.335 126.168 121.744 127.225 121.744L127.943 121.744C129 121.744 129.514 122.335 129.514 123.169ZM130.086 118.591L126.614 118.591C125.974 118.591 125.664 117.99 125.664 117.37C125.664 116.623 126.12 116.235 127.012 116.235L130.086 116.235L130.086 115.459L126.876 115.459C125.664 115.459 124.966 116.109 124.966 117.137C124.966 117.883 125.334 118.31 125.897 118.553L125.897 118.591L125.082 118.591L125.082 119.367L130.086 119.367L130.086 118.591ZM130.086 112.813L126.614 112.813C125.974 112.813 125.664 112.231 125.664 111.621C125.664 110.884 126.12 110.544 127.012 110.544L130.086 110.544L130.086 109.768L126.614 109.768C125.974 109.768 125.664 109.206 125.664 108.595C125.664 107.839 126.129 107.499 127.012 107.499L130.086 107.499L130.086 106.724L126.876 106.724C125.664 106.724 124.966 107.335 124.966 108.353C124.966 109.206 125.441 109.691 125.984 109.875L125.984 109.895C125.266 110.166 124.966 110.767 124.966 111.427C124.966 112.202 125.383 112.551 125.897 112.775L125.897 112.813L125.082 112.813L125.082 113.589L130.086 113.589L130.086 112.813ZM130.202 102.975C130.202 102.035 129.737 101.317 129.058 100.997L128.66 101.55C129.213 101.812 129.523 102.297 129.523 102.927C129.523 103.858 128.874 104.41 128.01 104.41L127.778 104.41L127.778 100.813L127.409 100.813C125.994 100.813 124.966 101.637 124.966 102.975C124.966 104.333 125.994 105.225 127.584 105.225C129.174 105.225 130.202 104.333 130.202 102.975ZM125.615 102.975C125.615 102.18 126.207 101.647 127.089 101.647L127.196 101.647L127.196 104.41L127.128 104.41C126.255 104.41 125.615 103.819 125.615 102.975ZM130.086 98.4922L126.614 98.4922C125.974 98.4922 125.664 97.8909 125.664 97.2703C125.664 96.5237 126.12 96.1358 127.012 96.1358L130.086 96.1358L130.086 95.36L126.876 95.36C125.664 95.36 124.966 96.0097 124.966 97.0376C124.966 97.7843 125.334 98.2109 125.897 98.4534L125.897 98.4922L125.082 98.4922L125.082 99.2679L130.086 99.2679L130.086 98.4922ZM130.086 91.4148L129.407 91.4148L129.407 92.4329L125.761 92.4329L125.761 91.3372L125.082 91.3372L125.082 92.4329L123.695 92.4329L123.695 93.1311L124.626 93.1311C124.966 93.1311 125.082 93.2378 125.082 93.5675L125.082 94.0329L125.761 94.0329L125.761 93.2087L129.261 93.2087C129.746 93.2087 130.086 92.9178 130.086 92.3844L130.086 91.4148Z" fill="#263238"/>
<path d="M86.9835 137.401L80.215 139.767L80.215 140.804L86.9835 143.171L86.9835 142.346L84.9859 141.667L84.9859 138.933L86.9835 138.254L86.9835 137.401ZM84.2683 139.137L84.2683 141.474L80.9714 140.329L80.9714 140.281L84.2683 139.137ZM87.5362 131.872C86.7119 131.872 86.2077 132.406 86.2077 133.647L86.2077 134.714C86.2077 135.169 86.1301 135.48 85.8295 135.48C85.5192 135.48 85.3544 135.15 85.2671 134.82C85.2962 134.675 85.3156 134.5 85.3156 134.335C85.3156 133.191 84.6077 132.445 83.5895 132.445C83.0562 132.445 82.6101 132.658 82.2998 133.017L81.9798 133.017L81.9798 132.066L81.3011 132.066L81.3011 132.813C81.3011 133.23 81.5823 133.395 81.9701 133.395L82.0574 133.395C81.9314 133.666 81.8635 133.986 81.8635 134.345C81.8635 135.48 82.5714 136.226 83.5895 136.226C84.2877 136.226 84.8404 135.877 85.1216 135.286L85.1604 135.286C85.2865 135.79 85.5289 136.149 86.0332 136.149C86.3726 136.149 86.5956 135.984 86.7313 135.703L86.838 135.703C86.9738 136.197 87.2647 136.498 87.8077 136.498C88.5932 136.498 89.0392 135.858 89.0392 134.297C89.0392 132.687 88.5641 131.872 87.5362 131.872ZM87.5944 132.6C88.1374 132.6 88.4089 133.104 88.4089 133.967L88.4089 134.684C88.4089 135.47 88.0501 135.771 87.6138 135.771C87.3035 135.771 87.0804 135.625 86.935 135.305L86.935 133.637C86.935 132.861 87.1968 132.6 87.5944 132.6ZM84.695 134.335C84.695 134.995 84.3847 135.412 83.7253 135.412L83.4538 135.412C82.7944 135.412 82.4841 134.995 82.4841 134.335C82.4841 133.676 82.7944 133.259 83.4538 133.259L83.7253 133.259C84.3847 133.259 84.695 133.676 84.695 134.335ZM86.9835 129.925L83.5895 129.925C83.1144 129.925 82.7556 129.421 82.7556 128.587L82.7556 128.131L81.9798 128.131L81.9798 128.432C81.9798 129.246 82.4259 129.702 82.901 129.877L82.901 129.925L81.9798 129.925L81.9798 130.701L86.9835 130.701L86.9835 129.925ZM80.8065 126.486C80.8065 126.156 80.632 126.011 80.3701 126.011L80.2441 126.011C79.9823 126.011 79.8077 126.156 79.8077 126.486C79.8077 126.815 79.9823 126.961 80.2441 126.961L80.3701 126.961C80.632 126.961 80.8065 126.815 80.8065 126.486ZM86.9835 126.874L86.9835 126.098L81.9798 126.098L81.9798 126.874L86.9835 126.874ZM87.0998 122.321C87.0998 121.371 86.6344 120.721 85.9168 120.401L85.5386 120.963C86.1107 121.235 86.4113 121.691 86.4113 122.321C86.4113 123.242 85.781 123.717 84.9083 123.717L84.055 123.717C83.1823 123.717 82.552 123.242 82.552 122.321C82.552 121.71 82.8526 121.283 83.3665 121.099L83.0368 120.449C82.3483 120.74 81.8635 121.332 81.8635 122.321C81.8635 123.727 82.8817 124.551 84.4816 124.551C86.0816 124.551 87.0998 123.727 87.0998 122.321ZM86.9835 115.955L86.9835 115.18L81.9798 115.18L81.9798 115.955L85.4416 115.955C86.101 115.955 86.4016 116.557 86.4016 117.168C86.4016 117.914 85.9459 118.312 85.0538 118.312L81.9798 118.312L81.9798 119.088L85.1895 119.088C86.4016 119.088 87.0998 118.428 87.0998 117.4C87.0998 116.566 86.6441 116.188 86.1689 115.994L86.1689 115.955L86.9835 115.955ZM86.9835 111.748L86.3047 111.748L86.3047 112.485L79.8077 112.485L79.8077 113.261L86.1786 113.261C86.6441 113.261 86.9835 112.97 86.9835 112.437L86.9835 111.748ZM86.9835 108.325L86.3047 108.325L86.3047 109.343L82.6586 109.343L82.6586 108.247L81.9798 108.247L81.9798 109.343L80.5932 109.343L80.5932 110.041L81.5241 110.041C81.8635 110.041 81.9798 110.148 81.9798 110.477L81.9798 110.943L82.6586 110.943L82.6586 110.119L86.1592 110.119C86.6441 110.119 86.9835 109.828 86.9835 109.294L86.9835 108.325ZM86.9835 103.65L86.9835 102.874L81.9798 102.874L81.9798 103.65L85.4416 103.65C86.101 103.65 86.4016 104.251 86.4016 104.862C86.4016 105.609 85.9459 106.006 85.0538 106.006L81.9798 106.006L81.9798 106.782L85.1895 106.782C86.4016 106.782 87.0998 106.123 87.0998 105.095C87.0998 104.261 86.6441 103.883 86.1689 103.689L86.1689 103.65L86.9835 103.65ZM86.9835 100.18L83.5895 100.18C83.1144 100.18 82.7556 99.6754 82.7556 98.8415L82.7556 98.3858L81.9798 98.3858L81.9798 98.6864C81.9798 99.5009 82.4259 99.9567 82.901 100.131L82.901 100.18L81.9798 100.18L81.9798 100.955L86.9835 100.955L86.9835 100.18ZM87.0998 95.2943C87.0998 94.3537 86.6344 93.6361 85.9556 93.3162L85.558 93.8689C86.1107 94.1307 86.421 94.6155 86.421 95.2458C86.421 96.1767 85.7713 96.7295 84.9083 96.7295L84.6756 96.7295L84.6756 93.1319L84.3071 93.1319C82.8913 93.1319 81.8635 93.9561 81.8635 95.2943C81.8635 96.6519 82.8914 97.544 84.4816 97.544C86.0719 97.544 87.0998 96.6519 87.0998 95.2943ZM82.5132 95.2943C82.5132 94.4992 83.1047 93.9658 83.9871 93.9658L84.0938 93.9658L84.0938 96.7295L84.0259 96.7295C83.1532 96.7295 82.5132 96.138 82.5132 95.2943Z" fill="#263238"/>
<path d="M173.188 122.325L173.188 121.511L166.419 121.511L166.419 122.325L169.406 122.325L169.406 125.748L166.419 125.748L166.419 126.563L173.188 126.563L173.188 125.748L170.124 125.748L170.124 122.325L173.188 122.325ZM173.304 117.637C173.304 116.696 172.839 115.979 172.16 115.659L171.762 116.211C172.315 116.473 172.625 116.958 172.625 117.588C172.625 118.519 171.976 119.072 171.113 119.072L170.88 119.072L170.88 115.474L170.511 115.474C169.096 115.474 168.068 116.299 168.068 117.637C168.068 118.994 169.096 119.886 170.686 119.886C172.276 119.886 173.304 118.994 173.304 117.637ZM168.717 117.637C168.717 116.842 169.309 116.308 170.191 116.308L170.298 116.308L170.298 119.072L170.23 119.072C169.357 119.072 168.717 118.48 168.717 117.637ZM173.188 109.857L172.509 109.857L172.509 110.429L169.755 110.429C168.698 110.429 168.068 111.146 168.068 112.349C168.068 113.25 168.514 113.852 169.047 114.123L169.484 113.658C169.028 113.386 168.737 112.989 168.737 112.387C168.737 111.592 169.125 111.204 169.833 111.204L170.327 111.204L170.327 112.194C170.327 113.648 170.851 114.327 171.791 114.327C172.722 114.327 173.304 113.706 173.304 112.649C173.304 111.951 172.984 111.418 172.373 111.204L172.373 111.156C172.839 111.098 173.188 110.865 173.188 110.293L173.188 109.857ZM172.645 112.523C172.645 113.124 172.364 113.512 171.869 113.512L171.665 113.512C171.18 113.512 170.909 113.115 170.909 112.232L170.909 111.204L171.733 111.204C172.247 111.204 172.645 111.757 172.645 112.523ZM173.188 106.97L172.509 106.97L172.509 107.707L166.012 107.707L166.012 108.483L172.383 108.483C172.848 108.483 173.188 108.192 173.188 107.658L173.188 106.97ZM173.188 103.546L172.509 103.546L172.509 104.564L168.863 104.564L168.863 103.469L168.184 103.469L168.184 104.564L166.797 104.564L166.797 105.263L167.728 105.263C168.068 105.263 168.184 105.369 168.184 105.699L168.184 106.164L168.863 106.164L168.863 105.34L172.364 105.34C172.848 105.34 173.188 105.049 173.188 104.516L173.188 103.546ZM173.188 101.955L173.188 101.179L169.716 101.179C169.076 101.179 168.766 100.578 168.766 99.9575C168.766 99.2108 169.222 98.823 170.114 98.823L173.188 98.823L173.188 98.0472L169.978 98.0472C168.766 98.0472 168.068 98.6969 168.068 99.7248C168.068 100.471 168.436 100.898 168.999 101.141L168.999 101.179L166.012 101.179L166.012 101.955L173.188 101.955Z" fill="#263238"/>
<path d="M219.101 114.936L218.383 114.936L218.383 118.252L216.037 118.252L216.037 115.13L215.319 115.13L215.319 118.252L213.05 118.252L213.05 114.936L212.332 114.936L212.332 119.067L219.101 119.067L219.101 114.936ZM219.101 110.119L219.101 109.343L211.925 109.343L211.925 110.119L214.912 110.119L214.912 110.158C214.281 110.42 213.981 110.934 213.981 111.622C213.981 112.873 214.999 113.659 216.599 113.659C218.199 113.659 219.217 112.873 219.217 111.622C219.217 110.934 218.907 110.459 218.286 110.158L218.286 110.119L219.101 110.119ZM218.519 111.409C218.519 112.282 217.918 112.825 217.026 112.825L216.172 112.825C215.28 112.825 214.679 112.282 214.679 111.409C214.679 110.701 215.086 110.119 215.639 110.119L217.501 110.119C218.151 110.119 218.519 110.701 218.519 111.409ZM219.101 104.344L219.101 103.568L214.097 103.568L214.097 104.344L217.559 104.344C218.218 104.344 218.519 104.945 218.519 105.556C218.519 106.303 218.063 106.7 217.171 106.7L214.097 106.7L214.097 107.476L217.307 107.476C218.519 107.476 219.217 106.817 219.217 105.789C219.217 104.955 218.761 104.577 218.286 104.383L218.286 104.344L219.101 104.344ZM219.217 99.7877C219.217 98.8374 218.752 98.1877 218.034 97.8677L217.656 98.4301C218.228 98.7016 218.529 99.1574 218.529 99.7877C218.529 100.709 217.898 101.184 217.026 101.184L216.172 101.184C215.3 101.184 214.669 100.709 214.669 99.7877C214.669 99.1768 214.97 98.7501 215.484 98.5659L215.154 97.9162C214.466 98.2071 213.981 98.7986 213.981 99.7877C213.981 101.194 214.999 102.018 216.599 102.018C218.199 102.018 219.217 101.194 219.217 99.7877ZM219.101 92.4332L218.422 92.4332L218.422 93.0054L215.668 93.0054C214.611 93.0054 213.981 93.7229 213.981 94.9254C213.981 95.8272 214.427 96.4284 214.96 96.6999L215.397 96.2344C214.941 95.9629 214.65 95.5653 214.65 94.9641C214.65 94.169 215.038 93.7811 215.746 93.7811L216.24 93.7811L216.24 94.7702C216.24 96.2247 216.764 96.9035 217.704 96.9035C218.635 96.9035 219.217 96.2829 219.217 95.226C219.217 94.5278 218.897 93.9944 218.286 93.7811L218.286 93.7326C218.752 93.6744 219.101 93.4417 219.101 92.8696L219.101 92.4332ZM218.558 95.0999C218.558 95.7011 218.277 96.089 217.782 96.089L217.578 96.089C217.094 96.089 216.822 95.6914 216.822 94.809L216.822 93.7811L217.646 93.7811C218.16 93.7811 218.558 94.3338 218.558 95.0999ZM219.101 88.9842L218.422 88.9842L218.422 90.0024L214.776 90.0024L214.776 88.9067L214.097 88.9067L214.097 90.0024L212.711 90.0024L212.711 90.7006L213.641 90.7006C213.981 90.7006 214.097 90.8073 214.097 91.137L214.097 91.6024L214.776 91.6024L214.776 90.7782L218.277 90.7782C218.761 90.7782 219.101 90.4873 219.101 89.9539L219.101 88.9842ZM212.924 87.0052C212.924 86.6755 212.749 86.5301 212.488 86.5301L212.361 86.5301C212.1 86.5301 211.925 86.6755 211.925 87.0052C211.925 87.3349 212.1 87.4804 212.361 87.4804L212.488 87.4804C212.749 87.4804 212.924 87.3349 212.924 87.0052ZM219.101 87.3931L219.101 86.6173L214.097 86.6173L214.097 87.3931L219.101 87.3931ZM219.217 82.8113C219.217 81.4731 218.189 80.5519 216.599 80.5519C215.009 80.5519 213.981 81.4731 213.981 82.8113C213.981 84.1495 215.009 85.0707 216.599 85.0707C218.189 85.0707 219.217 84.1495 219.217 82.8113ZM218.529 82.8113C218.529 83.6452 218.015 84.2368 216.958 84.2368L216.24 84.2368C215.183 84.2368 214.669 83.6452 214.669 82.8113C214.669 81.9774 215.183 81.3859 216.24 81.3859L216.958 81.3859C218.015 81.3859 218.529 81.9774 218.529 82.8113ZM219.101 78.2337L215.629 78.2337C214.989 78.2337 214.679 77.6325 214.679 77.0119C214.679 76.2652 215.135 75.8773 216.027 75.8773L219.101 75.8773L219.101 75.1016L215.891 75.1016C214.679 75.1016 213.981 75.7512 213.981 76.7791C213.981 77.5258 214.349 77.9525 214.912 78.1949L214.912 78.2337L214.097 78.2337L214.097 79.0094L219.101 79.0094L219.101 78.2337Z" fill="#263238"/>
<path d="M265.014 161.355L261.95 161.355L261.95 158.417L261.232 158.417L261.232 161.355L258.963 161.355L258.963 158.136L258.246 158.136L258.246 162.169L265.014 162.169L265.014 161.355ZM258.837 156.176C258.837 155.846 258.663 155.701 258.401 155.701L258.275 155.701C258.013 155.701 257.838 155.846 257.838 156.176C257.838 156.506 258.013 156.651 258.275 156.651L258.401 156.651C258.663 156.651 258.837 156.506 258.837 156.176ZM265.014 156.564L265.014 155.788L260.01 155.788L260.01 156.564L265.014 156.564ZM265.13 152.37C265.13 151.226 264.539 150.518 263.569 150.518C262.813 150.518 262.328 150.944 262.163 152.05L262.105 152.438C262.008 153.058 261.814 153.398 261.329 153.398C260.854 153.398 260.553 153.058 260.553 152.418C260.553 151.778 260.854 151.352 261.164 151.129L260.699 150.615C260.195 151.022 259.894 151.555 259.894 152.36C259.894 153.378 260.379 154.144 261.368 154.144C262.299 154.144 262.677 153.456 262.813 152.535L262.871 152.137C262.968 151.478 263.269 151.264 263.656 151.264C264.17 151.264 264.471 151.652 264.471 152.312C264.471 152.942 264.19 153.407 263.705 153.795L264.151 154.348C264.743 153.902 265.13 153.291 265.13 152.37ZM265.014 148.881L265.014 148.105L261.543 148.105C260.903 148.105 260.592 147.504 260.592 146.883C260.592 146.137 261.048 145.749 261.94 145.749L265.014 145.749L265.014 144.973L261.804 144.973C260.592 144.973 259.894 145.623 259.894 146.651C259.894 147.397 260.263 147.824 260.825 148.066L260.825 148.105L257.838 148.105L257.838 148.881L265.014 148.881ZM265.13 141.222C265.13 140.281 264.665 139.563 263.986 139.243L263.589 139.796C264.141 140.058 264.452 140.543 264.452 141.173C264.452 142.104 263.802 142.657 262.939 142.657L262.706 142.657L262.706 139.059L262.338 139.059C260.922 139.059 259.894 139.883 259.894 141.222C259.894 142.579 260.922 143.471 262.512 143.471C264.103 143.471 265.13 142.579 265.13 141.222ZM260.544 141.222C260.544 140.426 261.135 139.893 262.018 139.893L262.124 139.893L262.124 142.657L262.056 142.657C261.184 142.657 260.544 142.065 260.544 141.222ZM265.014 136.738L261.62 136.738C261.145 136.738 260.786 136.234 260.786 135.4L260.786 134.944L260.01 134.944L260.01 135.245C260.01 136.06 260.456 136.515 260.932 136.69L260.932 136.738L260.01 136.738L260.01 137.514L265.014 137.514L265.014 136.738ZM258.837 133.299C258.837 132.969 258.663 132.824 258.401 132.824L258.275 132.824C258.013 132.824 257.838 132.969 257.838 133.299C257.838 133.629 258.013 133.774 258.275 133.774L258.401 133.774C258.663 133.774 258.837 133.629 258.837 133.299ZM265.014 133.687L265.014 132.911L260.01 132.911L260.01 133.687L265.014 133.687ZM265.13 129.115C265.13 128.174 264.665 127.457 263.986 127.137L263.589 127.689C264.141 127.951 264.452 128.436 264.452 129.066C264.452 129.997 263.802 130.55 262.939 130.55L262.706 130.55L262.706 126.952L262.338 126.952C260.922 126.952 259.894 127.777 259.894 129.115C259.894 130.472 260.922 131.365 262.512 131.365C264.103 131.365 265.13 130.472 265.13 129.115ZM260.544 129.115C260.544 128.32 261.135 127.786 262.018 127.786L262.124 127.786L262.124 130.55L262.056 130.55C261.184 130.55 260.544 129.958 260.544 129.115ZM265.13 123.904C265.13 122.76 264.539 122.052 263.569 122.052C262.813 122.052 262.328 122.479 262.163 123.584L262.105 123.972C262.008 124.593 261.814 124.932 261.329 124.932C260.854 124.932 260.553 124.593 260.553 123.953C260.553 123.313 260.854 122.886 261.164 122.663L260.699 122.149C260.195 122.557 259.894 123.09 259.894 123.895C259.894 124.913 260.379 125.679 261.368 125.679C262.299 125.679 262.677 124.99 262.813 124.069L262.871 123.672C262.968 123.012 263.269 122.799 263.656 122.799C264.17 122.799 264.471 123.187 264.471 123.846C264.471 124.476 264.19 124.942 263.705 125.33L264.151 125.883C264.743 125.436 265.13 124.826 265.13 123.904Z" fill="#263238"/>
<path d="M305.305 142.492L305.305 141.697L299.603 141.697L299.603 141.648L300.738 141.076L303.686 139.457L300.738 137.837L299.603 137.265L299.603 137.217L305.305 137.217L305.305 136.421L298.537 136.421L298.537 137.469L302.183 139.418L302.183 139.466L298.537 141.406L298.537 142.492L305.305 142.492ZM305.305 130.361L304.626 130.361L304.626 130.933L301.872 130.933C300.815 130.933 300.185 131.65 300.185 132.853C300.185 133.755 300.631 134.356 301.165 134.627L301.601 134.162C301.145 133.89 300.854 133.493 300.854 132.892C300.854 132.096 301.242 131.709 301.95 131.709L302.445 131.709L302.445 132.698C302.445 134.152 302.968 134.831 303.909 134.831C304.84 134.831 305.422 134.21 305.422 133.153C305.422 132.455 305.102 131.922 304.491 131.709L304.491 131.66C304.956 131.602 305.305 131.369 305.305 130.797L305.305 130.361ZM304.762 133.027C304.762 133.629 304.481 134.016 303.986 134.016L303.783 134.016C303.298 134.016 303.026 133.619 303.026 132.736L303.026 131.709L303.851 131.709C304.365 131.709 304.762 132.261 304.762 133.027ZM305.305 128.211L301.834 128.211C301.194 128.211 300.883 127.61 300.883 126.989C300.883 126.243 301.339 125.855 302.231 125.855L305.305 125.855L305.305 125.079L302.095 125.079C300.883 125.079 300.185 125.729 300.185 126.756C300.185 127.503 300.554 127.93 301.116 128.172L301.116 128.211L300.302 128.211L300.302 128.987L305.305 128.987L305.305 128.211ZM305.305 120.125L305.305 119.349L300.302 119.349L300.302 120.125L303.763 120.125C304.423 120.125 304.723 120.726 304.723 121.337C304.723 122.084 304.268 122.482 303.375 122.482L300.302 122.482L300.302 123.257L303.511 123.257C304.723 123.257 305.422 122.598 305.422 121.57C305.422 120.736 304.966 120.358 304.491 120.164L304.491 120.125L305.305 120.125ZM305.305 117.159L305.305 116.383L300.98 116.383L300.98 115.307L300.302 115.307L300.302 116.383L298.808 116.383L298.808 115.307L298.129 115.307L298.129 116.063C298.129 116.8 298.605 117.159 299.293 117.159L300.302 117.159L300.302 117.974L300.98 117.974L300.98 117.159L305.305 117.159ZM305.305 109.947L304.626 109.947L304.626 110.52L301.872 110.52C300.815 110.52 300.185 111.237 300.185 112.44C300.185 113.341 300.631 113.943 301.165 114.214L301.601 113.749C301.145 113.477 300.854 113.08 300.854 112.478C300.854 111.683 301.242 111.295 301.95 111.295L302.445 111.295L302.445 112.284C302.445 113.739 302.968 114.418 303.909 114.418C304.84 114.418 305.422 113.797 305.422 112.74C305.422 112.042 305.102 111.509 304.491 111.295L304.491 111.247C304.956 111.189 305.305 110.956 305.305 110.384L305.305 109.947ZM304.762 112.614C304.762 113.215 304.481 113.603 303.986 113.603L303.783 113.603C303.298 113.603 303.026 113.206 303.026 112.323L303.026 111.295L303.851 111.295C304.365 111.295 304.762 111.848 304.762 112.614ZM305.422 106.712C305.422 105.761 304.956 105.112 304.239 104.792L303.86 105.354C304.432 105.626 304.733 106.081 304.733 106.712C304.733 107.633 304.103 108.108 303.23 108.108L302.377 108.108C301.504 108.108 300.874 107.633 300.874 106.712C300.874 106.101 301.174 105.674 301.688 105.49L301.359 104.84C300.67 105.131 300.185 105.723 300.185 106.712C300.185 108.118 301.203 108.942 302.803 108.942C304.403 108.942 305.422 108.118 305.422 106.712ZM305.305 101.355L304.626 101.355L304.626 102.373L300.98 102.373L300.98 101.277L300.302 101.277L300.302 102.373L298.915 102.373L298.915 103.071L299.846 103.071C300.185 103.071 300.302 103.178 300.302 103.508L300.302 103.973L300.98 103.973L300.98 103.149L304.481 103.149C304.966 103.149 305.305 102.858 305.305 102.325L305.305 101.355ZM305.305 96.6802L305.305 95.9044L300.302 95.9044L300.302 96.6802L303.763 96.6802C304.423 96.6802 304.723 97.2814 304.723 97.8923C304.723 98.6389 304.268 99.0365 303.375 99.0365L300.302 99.0365L300.302 99.8123L303.511 99.8123C304.723 99.8123 305.422 99.1529 305.422 98.125C305.422 97.2911 304.966 96.9129 304.491 96.7189L304.491 96.6802L305.305 96.6802ZM305.305 93.21L301.911 93.21C301.436 93.21 301.077 92.7058 301.077 91.8718L301.077 91.4161L300.302 91.4161L300.302 91.7167C300.302 92.5312 300.748 92.987 301.223 93.1615L301.223 93.21L300.302 93.21L300.302 93.9858L305.305 93.9858L305.305 93.21ZM299.128 89.7706C299.128 89.4409 298.954 89.2955 298.692 89.2955L298.566 89.2955C298.304 89.2955 298.129 89.4409 298.129 89.7706C298.129 90.1003 298.304 90.2458 298.566 90.2458L298.692 90.2458C298.954 90.2458 299.128 90.1003 299.128 89.7706ZM305.305 90.1585L305.305 89.3828L300.302 89.3828L300.302 90.1585L305.305 90.1585ZM305.305 86.6919L301.834 86.6919C301.194 86.6919 300.883 86.0906 300.883 85.47C300.883 84.7234 301.339 84.3355 302.231 84.3355L305.305 84.3355L305.305 83.5597L302.095 83.5597C300.883 83.5597 300.185 84.2094 300.185 85.2373C300.185 85.984 300.554 86.4106 301.116 86.6531L301.116 86.6919L300.302 86.6919L300.302 87.4676L305.305 87.4676L305.305 86.6919ZM305.858 77.4714C305.034 77.4714 304.529 78.0048 304.529 79.246L304.529 80.3126C304.529 80.7684 304.452 81.0787 304.151 81.0787C303.841 81.0787 303.676 80.749 303.589 80.4193C303.618 80.2738 303.637 80.0993 303.637 79.9345C303.637 78.7902 302.929 78.0436 301.911 78.0436C301.378 78.0436 300.932 78.2569 300.622 78.6157L300.302 78.6157L300.302 77.6654L299.623 77.6654L299.623 78.412C299.623 78.829 299.904 78.9939 300.292 78.9939L300.379 78.9939C300.253 79.2654 300.185 79.5854 300.185 79.9442C300.185 81.0787 300.893 81.8254 301.911 81.8254C302.609 81.8254 303.162 81.4763 303.443 80.8848L303.482 80.8848C303.608 81.389 303.851 81.7478 304.355 81.7478C304.694 81.7478 304.917 81.5829 305.053 81.3017L305.16 81.3017C305.295 81.7963 305.586 82.0969 306.129 82.0969C306.915 82.0969 307.361 81.4569 307.361 79.8957C307.361 78.286 306.886 77.4714 305.858 77.4714ZM305.916 78.1987C306.459 78.1987 306.731 78.7029 306.731 79.566L306.731 80.2835C306.731 81.069 306.372 81.3696 305.935 81.3696C305.625 81.3696 305.402 81.2241 305.257 80.9041L305.257 79.2363C305.257 78.4605 305.519 78.1987 305.916 78.1987ZM303.017 79.9345C303.017 80.5938 302.706 81.0108 302.047 81.0108L301.775 81.0108C301.116 81.0108 300.806 80.5938 300.806 79.9345C300.806 79.2751 301.116 78.8581 301.775 78.8581L302.047 78.8581C302.706 78.8581 303.017 79.2751 303.017 79.9345Z" fill="#263238"/>
<path d="M348.407 128.032L341.639 130.398L341.639 131.435L348.407 133.801L348.407 132.977L346.41 132.298L346.41 129.564L348.407 128.885L348.407 128.032ZM345.692 129.767L345.692 132.104L342.395 130.96L342.395 130.912L345.692 129.767ZM348.96 122.503C348.136 122.503 347.632 123.037 347.632 124.278L347.632 125.344C347.632 125.8 347.554 126.111 347.253 126.111C346.943 126.111 346.778 125.781 346.691 125.451C346.72 125.306 346.739 125.131 346.739 124.966C346.739 123.822 346.032 123.075 345.013 123.075C344.48 123.075 344.034 123.289 343.724 123.647L343.404 123.647L343.404 122.697L342.725 122.697L342.725 123.444C342.725 123.861 343.006 124.026 343.394 124.026L343.481 124.026C343.355 124.297 343.287 124.617 343.287 124.976C343.287 126.111 343.995 126.857 345.013 126.857C345.712 126.857 346.264 126.508 346.546 125.917L346.584 125.917C346.71 126.421 346.953 126.78 347.457 126.78C347.796 126.78 348.019 126.615 348.155 126.334L348.262 126.334C348.398 126.828 348.689 127.129 349.232 127.129C350.017 127.129 350.463 126.489 350.463 124.927C350.463 123.318 349.988 122.503 348.96 122.503ZM349.018 123.231C349.561 123.231 349.833 123.735 349.833 124.598L349.833 125.315C349.833 126.101 349.474 126.401 349.038 126.401C348.727 126.401 348.504 126.256 348.359 125.936L348.359 124.268C348.359 123.492 348.621 123.231 349.018 123.231ZM346.119 124.966C346.119 125.626 345.809 126.043 345.149 126.043L344.878 126.043C344.218 126.043 343.908 125.626 343.908 124.966C343.908 124.307 344.218 123.89 344.878 123.89L345.149 123.89C345.809 123.89 346.119 124.307 346.119 124.966ZM348.407 120.556L345.013 120.556C344.538 120.556 344.179 120.052 344.179 119.218L344.179 118.762L343.404 118.762L343.404 119.063C343.404 119.877 343.85 120.333 344.325 120.507L344.325 120.556L343.404 120.556L343.404 121.332L348.407 121.332L348.407 120.556ZM342.23 117.117C342.23 116.787 342.056 116.641 341.794 116.641L341.668 116.641C341.406 116.641 341.232 116.787 341.232 117.117C341.232 117.446 341.406 117.592 341.668 117.592L341.794 117.592C342.056 117.592 342.23 117.446 342.23 117.117ZM348.407 117.504L348.407 116.729L343.404 116.729L343.404 117.504L348.407 117.504ZM348.524 112.952C348.524 112.001 348.058 111.352 347.341 111.032L346.963 111.594C347.535 111.866 347.835 112.321 347.835 112.952C347.835 113.873 347.205 114.348 346.332 114.348L345.479 114.348C344.606 114.348 343.976 113.873 343.976 112.952C343.976 112.341 344.276 111.914 344.79 111.73L344.461 111.08C343.772 111.371 343.287 111.963 343.287 112.952C343.287 114.358 344.306 115.182 345.906 115.182C347.506 115.182 348.524 114.358 348.524 112.952ZM348.407 106.586L348.407 105.811L343.404 105.811L343.404 106.586L346.866 106.586C347.525 106.586 347.826 107.188 347.826 107.798C347.826 108.545 347.37 108.943 346.478 108.943L343.404 108.943L343.404 109.718L346.613 109.718C347.826 109.718 348.524 109.059 348.524 108.031C348.524 107.197 348.068 106.819 347.593 106.625L347.593 106.586L348.407 106.586ZM348.407 102.379L347.729 102.379L347.729 103.116L341.232 103.116L341.232 103.892L347.603 103.892C348.068 103.892 348.407 103.601 348.407 103.068L348.407 102.379ZM348.407 98.9554L347.729 98.9554L347.729 99.9736L344.083 99.9736L344.083 98.8779L343.404 98.8779L343.404 99.9736L342.017 99.9736L342.017 100.672L342.948 100.672C343.287 100.672 343.404 100.778 343.404 101.108L343.404 101.574L344.083 101.574L344.083 100.749L347.583 100.749C348.068 100.749 348.407 100.458 348.407 99.9251L348.407 98.9554ZM348.407 94.2807L348.407 93.5049L343.404 93.5049L343.404 94.2807L346.866 94.2807C347.525 94.2807 347.826 94.8819 347.826 95.4928C347.826 96.2395 347.37 96.637 346.478 96.637L343.404 96.637L343.404 97.4128L346.613 97.4128C347.826 97.4128 348.524 96.7534 348.524 95.7255C348.524 94.8916 348.068 94.5134 347.593 94.3195L347.593 94.2807L348.407 94.2807ZM348.407 90.8105L345.013 90.8105C344.538 90.8105 344.179 90.3063 344.179 89.4724L344.179 89.0166L343.404 89.0166L343.404 89.3172C343.404 90.1318 343.85 90.5875 344.325 90.7621L344.325 90.8105L343.404 90.8105L343.404 91.5863L348.407 91.5863L348.407 90.8105ZM348.524 85.9252C348.524 84.9846 348.058 84.267 347.379 83.947L346.982 84.4997C347.535 84.7616 347.845 85.2464 347.845 85.8767C347.845 86.8076 347.195 87.3603 346.332 87.3603L346.099 87.3603L346.099 83.7628L345.731 83.7628C344.315 83.7628 343.287 84.587 343.287 85.9252C343.287 87.2828 344.315 88.1749 345.906 88.1749C347.496 88.1749 348.524 87.2828 348.524 85.9252ZM343.937 85.9252C343.937 85.13 344.529 84.5967 345.411 84.5967L345.518 84.5967L345.518 87.3603L345.45 87.3603C344.577 87.3603 343.937 86.7688 343.937 85.9252Z" fill="#263238"/>
<path d="M396.195 182.906L393.13 182.906L393.13 179.968L392.413 179.968L392.413 182.906L390.144 182.906L390.144 179.686L389.426 179.686L389.426 183.72L396.195 183.72L396.195 182.906ZM390.018 177.727C390.018 177.397 389.843 177.251 389.581 177.251L389.455 177.251C389.193 177.251 389.019 177.397 389.019 177.727C389.019 178.056 389.193 178.202 389.455 178.202L389.581 178.202C389.843 178.202 390.018 178.056 390.018 177.727ZM396.195 178.115L396.195 177.339L391.191 177.339L391.191 178.115L396.195 178.115ZM396.311 173.921C396.311 172.776 395.719 172.068 394.75 172.068C393.993 172.068 393.509 172.495 393.344 173.601L393.285 173.988C393.189 174.609 392.995 174.948 392.51 174.948C392.035 174.948 391.734 174.609 391.734 173.969C391.734 173.329 392.035 172.902 392.345 172.679L391.879 172.165C391.375 172.573 391.075 173.106 391.075 173.911C391.075 174.929 391.559 175.695 392.549 175.695C393.479 175.695 393.858 175.007 393.993 174.085L394.052 173.688C394.149 173.028 394.449 172.815 394.837 172.815C395.351 172.815 395.652 173.203 395.652 173.862C395.652 174.493 395.37 174.958 394.885 175.346L395.332 175.899C395.923 175.453 396.311 174.842 396.311 173.921ZM396.195 170.432L396.195 169.656L392.723 169.656C392.083 169.656 391.773 169.055 391.773 168.434C391.773 167.687 392.229 167.299 393.121 167.299L396.195 167.299L396.195 166.524L392.985 166.524C391.773 166.524 391.075 167.173 391.075 168.201C391.075 168.948 391.443 169.375 392.006 169.617L392.006 169.656L389.019 169.656L389.019 170.432L396.195 170.432ZM396.311 162.772C396.311 161.832 395.845 161.114 395.167 160.794L394.769 161.347C395.322 161.609 395.632 162.094 395.632 162.724C395.632 163.655 394.982 164.208 394.119 164.208L393.887 164.208L393.887 160.61L393.518 160.61C392.102 160.61 391.075 161.434 391.075 162.772C391.075 164.13 392.102 165.022 393.693 165.022C395.283 165.022 396.311 164.13 396.311 162.772ZM391.724 162.772C391.724 161.977 392.316 161.444 393.198 161.444L393.305 161.444L393.305 164.208L393.237 164.208C392.364 164.208 391.724 163.616 391.724 162.772ZM396.195 158.289L392.801 158.289C392.326 158.289 391.967 157.785 391.967 156.951L391.967 156.495L391.191 156.495L391.191 156.796C391.191 157.61 391.637 158.066 392.112 158.241L392.112 158.289L391.191 158.289L391.191 159.065L396.195 159.065L396.195 158.289ZM390.018 154.85C390.018 154.52 389.843 154.375 389.581 154.375L389.455 154.375C389.193 154.375 389.019 154.52 389.019 154.85C389.019 155.18 389.193 155.325 389.455 155.325L389.581 155.325C389.843 155.325 390.018 155.18 390.018 154.85ZM396.195 155.238L396.195 154.462L391.191 154.462L391.191 155.238L396.195 155.238ZM396.311 150.666C396.311 149.725 395.845 149.007 395.167 148.687L394.769 149.24C395.322 149.502 395.632 149.987 395.632 150.617C395.632 151.548 394.982 152.101 394.119 152.101L393.887 152.101L393.887 148.503L393.518 148.503C392.102 148.503 391.075 149.327 391.075 150.666C391.075 152.023 392.102 152.915 393.693 152.915C395.283 152.915 396.311 152.023 396.311 150.666ZM391.724 150.666C391.724 149.87 392.316 149.337 393.198 149.337L393.305 149.337L393.305 152.101L393.237 152.101C392.364 152.101 391.724 151.509 391.724 150.666ZM396.311 145.455C396.311 144.311 395.719 143.603 394.75 143.603C393.993 143.603 393.509 144.03 393.344 145.135L393.285 145.523C393.189 146.144 392.995 146.483 392.51 146.483C392.035 146.483 391.734 146.144 391.734 145.504C391.734 144.864 392.035 144.437 392.345 144.214L391.879 143.7C391.375 144.107 391.075 144.641 391.075 145.445C391.075 146.464 391.559 147.23 392.549 147.23C393.479 147.23 393.858 146.541 393.993 145.62L394.052 145.222C394.149 144.563 394.449 144.35 394.837 144.35C395.351 144.35 395.652 144.738 395.652 145.397C395.652 146.027 395.37 146.493 394.885 146.881L395.332 147.433C395.923 146.987 396.311 146.376 396.311 145.455Z" fill="#263238"/>
<path d="M439.297 106.397L439.297 105.582L432.528 105.582L432.528 106.397L435.515 106.397L435.515 109.82L432.528 109.82L432.528 110.634L439.297 110.634L439.297 109.82L436.232 109.82L436.232 106.397L439.297 106.397ZM439.413 101.698C439.413 100.36 438.385 99.4389 436.795 99.4389C435.205 99.4389 434.177 100.36 434.177 101.698C434.177 103.036 435.205 103.958 436.795 103.958C438.385 103.958 439.413 103.036 439.413 101.698ZM438.725 101.698C438.725 102.532 438.211 103.124 437.154 103.124L436.436 103.124C435.379 103.124 434.865 102.532 434.865 101.698C434.865 100.864 435.379 100.273 436.436 100.273L437.154 100.273C438.211 100.273 438.725 100.864 438.725 101.698ZM439.297 97.1207L435.903 97.1207C435.428 97.1207 435.069 96.6164 435.069 95.7825L435.069 95.3267L434.293 95.3267L434.293 95.6273C434.293 96.4419 434.739 96.8976 435.214 97.0722L435.214 97.1207L434.293 97.1207L434.293 97.8964L439.297 97.8964L439.297 97.1207ZM439.297 91.9561L438.618 91.9561L438.618 92.9743L434.972 92.9743L434.972 91.8785L434.293 91.8785L434.293 92.9743L432.906 92.9743L432.906 93.6725L433.837 93.6725C434.177 93.6725 434.293 93.7791 434.293 94.1088L434.293 94.5743L434.972 94.5743L434.972 93.7501L438.472 93.7501C438.957 93.7501 439.297 93.4591 439.297 92.9258L439.297 91.9561ZM433.12 89.9771C433.12 89.6474 432.945 89.502 432.683 89.502L432.557 89.502C432.295 89.502 432.121 89.6474 432.121 89.9771C432.121 90.3068 432.295 90.4523 432.557 90.4523L432.683 90.4523C432.945 90.4523 433.12 90.3068 433.12 89.9771ZM439.297 90.365L439.297 89.5892L434.293 89.5892L434.293 90.365L439.297 90.365ZM439.413 85.8123C439.413 84.862 438.948 84.2123 438.23 83.8923L437.852 84.4547C438.424 84.7262 438.725 85.182 438.725 85.8123C438.725 86.7335 438.094 87.2086 437.221 87.2086L436.368 87.2086C435.495 87.2086 434.865 86.7335 434.865 85.8123C434.865 85.2014 435.166 84.7747 435.68 84.5905L435.35 83.9408C434.661 84.2317 434.177 84.8232 434.177 85.8123C434.177 87.2183 435.195 88.0426 436.795 88.0426C438.395 88.0426 439.413 87.2183 439.413 85.8123ZM439.297 79.4469L439.297 78.6712L434.293 78.6712L434.293 79.4469L437.755 79.4469C438.414 79.4469 438.715 80.0481 438.715 80.659C438.715 81.4057 438.259 81.8033 437.367 81.8033L434.293 81.8033L434.293 82.579L437.503 82.579C438.715 82.579 439.413 81.9196 439.413 80.8918C439.413 80.0578 438.957 79.6797 438.482 79.4857L438.482 79.4469L439.297 79.4469ZM439.297 75.2398L438.618 75.2398L438.618 75.9768L432.121 75.9768L432.121 76.7525L438.492 76.7525C438.957 76.7525 439.297 76.4616 439.297 75.9283L439.297 75.2398ZM439.297 71.816L438.618 71.816L438.618 72.8342L434.972 72.8342L434.972 71.7385L434.293 71.7385L434.293 72.8342L432.906 72.8342L432.906 73.5324L433.837 73.5324C434.177 73.5324 434.293 73.6391 434.293 73.9688L434.293 74.4342L434.972 74.4342L434.972 73.61L438.472 73.61C438.957 73.61 439.297 73.3191 439.297 72.7857L439.297 71.816ZM439.297 67.1413L439.297 66.3655L434.293 66.3655L434.293 67.1413L437.755 67.1413C438.414 67.1413 438.715 67.7425 438.715 68.3534C438.715 69.1001 438.259 69.4976 437.367 69.4976L434.293 69.4976L434.293 70.2734L437.503 70.2734C438.715 70.2734 439.413 69.614 439.413 68.5861C439.413 67.7522 438.957 67.374 438.482 67.1801L438.482 67.1413L439.297 67.1413ZM439.297 63.6711L435.903 63.6711C435.428 63.6711 435.069 63.1669 435.069 62.333L435.069 61.8772L434.293 61.8772L434.293 62.1778C434.293 62.9924 434.739 63.4481 435.214 63.6227L435.214 63.6711L434.293 63.6711L434.293 64.4469L439.297 64.4469L439.297 63.6711ZM439.413 58.7858C439.413 57.8452 438.948 57.1276 438.269 56.8076L437.871 57.3603C438.424 57.6221 438.734 58.107 438.734 58.7373C438.734 59.6682 438.085 60.2209 437.221 60.2209L436.989 60.2209L436.989 56.6234L436.62 56.6234C435.205 56.6234 434.177 57.4476 434.177 58.7858C434.177 60.1434 435.205 61.0355 436.795 61.0355C438.385 61.0355 439.413 60.1434 439.413 58.7858ZM434.826 58.7858C434.826 57.9906 435.418 57.4573 436.3 57.4573L436.407 57.4573L436.407 60.2209L436.339 60.2209C435.466 60.2209 434.826 59.6294 434.826 58.7858Z" fill="#263238"/>
</svg>
