<svg width="475" height="270" viewBox="0 0 475 270" fill="none" xmlns="http://www.w3.org/2000/svg">
    <line x1="37.4833" y1="145.673" x2="43.6158" y2="145.673" stroke="#ECECEE" stroke-width="1.30958"
        stroke-linecap="round" stroke-linejoin="round" />
    <line x1="37.4833" y1="110.322" x2="43.6158" y2="110.322" stroke="#ECECEE" stroke-width="1.30958"
        stroke-linecap="round" stroke-linejoin="round" />
    <line x1="37.4833" y1="74.0434" x2="43.6158" y2="74.0434" stroke="#ECECEE" stroke-width="1.30958"
        stroke-linecap="round" stroke-linejoin="round" />
    <line x1="37.4833" y1="37.7622" x2="43.6158" y2="37.7622" stroke="#ECECEE" stroke-width="1.30958"
        stroke-linecap="round" stroke-linejoin="round" />
    <path
        d="M23.1732 145.648V144.996H24.6504V150.677H23.9275V145.648H23.1732ZM28.4009 150.677L26.7116 148.775V150.677H25.9965V144.862H26.7116V148.28L28.3695 146.371H29.3674L27.3402 148.516L29.3752 150.677H28.4009Z"
        fill="#92959E" />
    <path
        d="M24.1933 73.055H21.4354V74.8465C21.5558 74.6789 21.7339 74.5427 21.9697 74.4379C22.2054 74.3279 22.4594 74.2729 22.7318 74.2729C23.1666 74.2729 23.5202 74.3646 23.7926 74.5479C24.065 74.726 24.2588 74.9591 24.3741 75.2472C24.4945 75.5301 24.5548 75.8313 24.5548 76.1509C24.5548 76.528 24.4841 76.8659 24.3426 77.1645C24.2012 77.4631 23.9838 77.6988 23.6905 77.8717C23.4023 78.0445 23.0435 78.1309 22.614 78.1309C22.064 78.1309 21.6187 77.9895 21.2782 77.7066C20.9377 77.4238 20.7308 77.0466 20.6575 76.5752H21.3568C21.4249 76.8737 21.5689 77.1069 21.7889 77.2745C22.009 77.4421 22.2866 77.5259 22.6218 77.5259C23.0357 77.5259 23.3473 77.4028 23.5569 77.1566C23.7664 76.9052 23.8712 76.5752 23.8712 76.1666C23.8712 75.758 23.7664 75.4437 23.5569 75.2237C23.3473 74.9984 23.0383 74.8858 22.6297 74.8858C22.3521 74.8858 22.1085 74.9539 21.8989 75.0901C21.6947 75.2211 21.5454 75.4018 21.4511 75.6323H20.7753V72.4264H24.1933V73.055ZM28.0272 78.1152L26.3379 76.2137V78.1152H25.6229V72.3007H26.3379V75.7187L27.9958 73.8093H28.9937L26.9665 75.9544L29.0016 78.1152H28.0272Z"
        fill="#92959E" />
    <path
        d="M20.5553 110.145C20.592 109.663 20.7779 109.286 21.1132 109.013C21.4484 108.741 21.8832 108.605 22.4175 108.605C22.7737 108.605 23.0802 108.67 23.3369 108.801C23.5988 108.927 23.7952 109.1 23.9262 109.32C24.0624 109.54 24.1305 109.788 24.1305 110.066C24.1305 110.391 24.0362 110.671 23.8476 110.907C23.6643 111.142 23.4233 111.294 23.1247 111.363V111.402C23.4652 111.486 23.735 111.651 23.934 111.897C24.1331 112.143 24.2326 112.465 24.2326 112.863C24.2326 113.162 24.1645 113.432 24.0283 113.673C23.8921 113.908 23.6878 114.094 23.4154 114.231C23.1431 114.367 22.8157 114.435 22.4333 114.435C21.878 114.435 21.4223 114.291 21.0661 114.003C20.7098 113.709 20.5108 113.295 20.4689 112.761H21.1603C21.197 113.075 21.3253 113.332 21.5454 113.531C21.7654 113.73 22.0587 113.83 22.4254 113.83C22.7921 113.83 23.0697 113.735 23.2583 113.547C23.4521 113.353 23.549 113.104 23.549 112.8C23.549 112.408 23.4181 112.125 23.1561 111.952C22.8942 111.779 22.4987 111.693 21.9697 111.693H21.7889V111.095H21.9775C22.4594 111.09 22.8235 111.012 23.0697 110.86C23.3159 110.702 23.439 110.462 23.439 110.137C23.439 109.859 23.3473 109.636 23.164 109.469C22.9859 109.301 22.7292 109.217 22.394 109.217C22.0692 109.217 21.8073 109.301 21.6082 109.469C21.4092 109.636 21.2913 109.862 21.2546 110.145H20.5553ZM27.7203 114.396L26.031 112.494V114.396H25.3159V108.581H26.031V111.999L27.6889 110.09H28.6868L26.6596 112.235L28.6946 114.396H27.7203Z"
        fill="#92959E" />
    <path
        d="M24.0676 37.6425L21.8832 42.7656H21.1603L23.3762 37.7132H20.3432V37.1004H24.0676V37.6425ZM27.3827 42.7656L25.6933 40.8641V42.7656H24.9783V36.9511H25.6933V40.3691L27.3513 38.4597H28.3492L26.3219 40.6048L28.357 42.7656H27.3827Z"
        fill="#92959E" />
    <rect x="0.468502" y="0.468502" width="473.187" height="268.92" rx="4.21651" fill="white" stroke="#E5E5E5"
        stroke-width="0.937003" />
    <path
        d="M427.632 78.751V77.9396H425.659V71.0979H424.223L422.194 72.9948L422.731 73.5759L424.661 71.7777H424.738V77.9396H422.6V78.751H427.632ZM431.875 78.8825C433.41 78.8825 434.419 77.8519 434.419 76.3498C434.419 74.9025 433.476 73.9925 432.16 73.9925C431.228 73.9925 430.68 74.464 430.318 75.0889L430.263 75.067C430.68 73.2908 431.59 72.293 433.224 71.0979H432.039C430.811 71.8983 429.309 73.6745 429.309 75.9441C429.309 77.7642 430.285 78.8825 431.875 78.8825ZM431.864 78.0822C430.855 78.0822 430.263 77.5011 430.263 76.4704V76.3827C430.263 75.3521 430.855 74.771 431.864 74.771C432.873 74.771 433.465 75.3521 433.465 76.3827V76.4704C433.465 77.5011 432.873 78.0822 431.864 78.0822ZM438.804 78.8825C440.547 78.8825 441.457 77.9287 441.457 76.6678C441.457 75.6262 440.832 75.0231 439.911 74.771V74.6832C440.712 74.4091 441.227 73.7622 441.227 72.8851C441.227 71.7229 440.328 70.9664 438.804 70.9664C437.28 70.9664 436.381 71.7229 436.381 72.8851C436.381 73.7622 436.896 74.4091 437.696 74.6832V74.771C436.775 75.0231 436.15 75.6262 436.15 76.6678C436.15 77.9287 437.06 78.8825 438.804 78.8825ZM438.804 78.0822C437.74 78.0822 437.126 77.5778 437.126 76.7116V76.4814C437.126 75.6152 437.74 75.1108 438.804 75.1108C439.867 75.1108 440.481 75.6152 440.481 76.4814V76.7116C440.481 77.5778 439.867 78.0822 438.804 78.0822ZM438.804 74.3434C437.85 74.3434 437.335 73.9157 437.335 73.1373V72.9728C437.335 72.1944 437.85 71.7668 438.804 71.7668C439.758 71.7668 440.273 72.1944 440.273 72.9728V73.1373C440.273 73.9157 439.758 74.3434 438.804 74.3434Z"
        fill="#263238" />
    <path
        d="M370.475 101.238V100.427H368.502V93.5852H367.065L365.037 95.4821L365.574 96.0632L367.504 94.265H367.581V100.427H365.443V101.238H370.475ZM376.878 93.5852H372.777L372.503 97.7955L373.282 97.9052C373.6 97.5543 373.95 97.2583 374.652 97.2583C375.694 97.2583 376.253 97.8394 376.253 98.8481V98.9577C376.253 99.9664 375.694 100.548 374.652 100.548C373.731 100.548 373.347 100.142 372.953 99.5388L372.262 100.065C372.722 100.723 373.38 101.37 374.652 101.37C376.264 101.37 377.229 100.328 377.229 98.8371C377.229 97.3569 376.264 96.4688 374.948 96.4688C374.148 96.4688 373.742 96.7978 373.38 97.3131H373.303L373.523 94.3966H376.878V93.5852ZM381.647 101.37C383.478 101.37 384.278 99.9116 384.278 97.4118C384.278 94.9119 383.478 93.4537 381.647 93.4537C379.816 93.4537 379.015 94.9119 379.015 97.4118C379.015 99.9116 379.816 101.37 381.647 101.37ZM381.647 100.569C380.452 100.569 379.98 99.5169 379.98 98.0367V96.7868C379.98 95.3066 380.452 94.2541 381.647 94.2541C382.842 94.2541 383.313 95.3066 383.313 96.7868V98.0367C383.313 99.5169 382.842 100.569 381.647 100.569Z"
        fill="#263238" />
    <path
        d="M410.766 123.727V122.915H408.793V116.074H407.356L405.328 117.97L405.865 118.551L407.795 116.753H407.872V122.915H405.734V123.727H410.766ZM417.169 116.074H413.068L412.794 120.284L413.573 120.393C413.891 120.043 414.241 119.747 414.943 119.747C415.985 119.747 416.544 120.328 416.544 121.336V121.446C416.544 122.455 415.985 123.036 414.943 123.036C414.022 123.036 413.638 122.63 413.244 122.027L412.553 122.553C413.013 123.211 413.671 123.858 414.943 123.858C416.555 123.858 417.52 122.817 417.52 121.325C417.52 119.845 416.555 118.957 415.239 118.957C414.439 118.957 414.033 119.286 413.671 119.801H413.595L413.814 116.885H417.169V116.074ZM424.109 116.074H420.008L419.734 120.284L420.512 120.393C420.83 120.043 421.181 119.747 421.883 119.747C422.924 119.747 423.484 120.328 423.484 121.336V121.446C423.484 122.455 422.924 123.036 421.883 123.036C420.962 123.036 420.578 122.63 420.183 122.027L419.493 122.553C419.953 123.211 420.611 123.858 421.883 123.858C423.495 123.858 424.459 122.817 424.459 121.325C424.459 119.845 423.495 118.957 422.179 118.957C421.378 118.957 420.973 119.286 420.611 119.801H420.534L420.754 116.885H424.109V116.074Z"
        fill="#263238" />
    <path
        d="M143.371 146.215V144.713H144.478V143.945H143.371V138.562H142L138.799 143.901V144.713H142.494V146.215H143.371ZM142.439 139.274H142.494V143.945H139.665L142.439 139.274ZM148.611 146.346C150.442 146.346 151.242 144.888 151.242 142.388C151.242 139.888 150.442 138.43 148.611 138.43C146.78 138.43 145.98 139.888 145.98 142.388C145.98 144.888 146.78 146.346 148.611 146.346ZM148.611 145.546C147.416 145.546 146.944 144.493 146.944 143.013V141.763C146.944 140.283 147.416 139.231 148.611 139.231C149.806 139.231 150.278 140.283 150.278 141.763V143.013C150.278 144.493 149.806 145.546 148.611 145.546Z"
        fill="#263238" />
    <path
        d="M199.125 161.05H195.025L194.751 165.26L195.529 165.37C195.847 165.019 196.198 164.723 196.9 164.723C197.941 164.723 198.5 165.304 198.5 166.313V166.423C198.5 167.431 197.941 168.012 196.9 168.012C195.979 168.012 195.595 167.607 195.2 167.004L194.509 167.53C194.97 168.188 195.628 168.835 196.9 168.835C198.511 168.835 199.476 167.793 199.476 166.302C199.476 164.822 198.511 163.934 197.196 163.934C196.395 163.934 195.99 164.263 195.628 164.778H195.551L195.77 161.861H199.125V161.05ZM203.894 168.835C205.725 168.835 206.526 167.376 206.526 164.877C206.526 162.377 205.725 160.919 203.894 160.919C202.063 160.919 201.263 162.377 201.263 164.877C201.263 167.376 202.063 168.835 203.894 168.835ZM203.894 168.034C202.699 168.034 202.228 166.982 202.228 165.502V164.252C202.228 162.771 202.699 161.719 203.894 161.719C205.089 161.719 205.561 162.771 205.561 164.252V165.502C205.561 166.982 205.089 168.034 203.894 168.034Z"
        fill="#263238" />
    <path
        d="M158.363 191.19V189.688H159.47V188.921H158.363V183.537H156.992L153.791 188.877V189.688H157.486V191.19H158.363ZM157.431 184.25H157.486V188.921H154.657L157.431 184.25ZM165.774 183.537H161.673L161.399 187.748L162.178 187.857C162.496 187.506 162.847 187.21 163.548 187.21C164.59 187.21 165.149 187.792 165.149 188.8V188.91C165.149 189.919 164.59 190.5 163.548 190.5C162.627 190.5 162.243 190.094 161.849 189.491L161.158 190.017C161.619 190.675 162.276 191.322 163.548 191.322C165.16 191.322 166.125 190.28 166.125 188.789C166.125 187.309 165.16 186.421 163.844 186.421C163.044 186.421 162.638 186.75 162.276 187.265H162.2L162.419 184.349H165.774V183.537Z"
        fill="#263238" />
    <path
        d="M246.232 213.679L249.104 206.837V206.026H244.083V208.24H244.905V206.815H248.173L245.245 213.679H246.232ZM253.555 213.81C255.386 213.81 256.187 212.352 256.187 209.852C256.187 207.352 255.386 205.894 253.555 205.894C251.724 205.894 250.924 207.352 250.924 209.852C250.924 212.352 251.724 213.81 253.555 213.81ZM253.555 213.01C252.36 213.01 251.889 211.957 251.889 210.477V209.227C251.889 207.747 252.36 206.694 253.555 206.694C254.75 206.694 255.222 207.747 255.222 209.227V210.477C255.222 211.957 254.75 213.01 253.555 213.01Z"
        fill="#263238" />
    <path
        d="M124.481 231.759V232.56H125.38C126.455 232.56 127.025 233.075 127.025 233.974V234.062C127.025 234.961 126.455 235.476 125.38 235.476C124.448 235.476 123.999 235.071 123.604 234.468L122.913 234.994C123.385 235.652 124.065 236.299 125.391 236.299C126.948 236.299 127.99 235.389 127.99 234.073C127.99 232.922 127.2 232.308 126.378 232.143V232.099C127.189 231.891 127.847 231.299 127.847 230.312C127.847 229.073 126.817 228.382 125.523 228.382C124.295 228.382 123.626 229.018 123.242 229.632L123.922 230.159C124.24 229.577 124.712 229.205 125.501 229.205C126.312 229.205 126.871 229.61 126.871 230.411V230.488C126.871 231.222 126.345 231.759 125.315 231.759H124.481ZM134.853 228.514H130.752L130.478 232.724L131.257 232.834C131.575 232.483 131.925 232.187 132.627 232.187C133.669 232.187 134.228 232.768 134.228 233.777V233.886C134.228 234.895 133.669 235.476 132.627 235.476C131.706 235.476 131.322 235.071 130.928 234.468L130.237 234.994C130.697 235.652 131.355 236.299 132.627 236.299C134.239 236.299 135.204 235.257 135.204 233.766C135.204 232.286 134.239 231.398 132.923 231.398C132.123 231.398 131.717 231.726 131.355 232.242H131.278L131.498 229.325H134.853V228.514Z"
        fill="#263238" />
    <path
        d="M18.474 33.3322C20.7228 33.3322 22.0721 32.1029 22.0721 30.1839C22.0721 28.6247 21.1876 27.7252 19.1486 27.2605L18.2941 27.0656C16.9748 26.7657 16.3301 26.316 16.3301 25.3265C16.3301 24.2021 17.1547 23.6174 18.489 23.6174C19.7033 23.6174 20.4979 24.1121 21.0676 24.9067L22.0121 24.2171C21.2325 23.1077 20.1231 22.508 18.549 22.508C16.495 22.508 15.0858 23.5125 15.0858 25.3715C15.0858 26.9756 16.1352 27.8152 18.0392 28.2499L18.8938 28.4448C20.273 28.7597 20.8278 29.2544 20.8278 30.2439C20.8278 31.4433 20.0182 32.2228 18.519 32.2228C17.3046 32.2228 16.4351 31.6981 15.7005 30.7236L14.771 31.5032C15.6105 32.6426 16.7949 33.3322 18.474 33.3322ZM27.7474 33.1523V32.1029H26.1732V26.4659H27.8673V25.4164H26.1732V23.2726H25.0938V24.7118C25.0938 25.2365 24.9289 25.4164 24.4192 25.4164H23.6995V26.4659H24.9739V31.878C24.9739 32.6276 25.4236 33.1523 26.2482 33.1523H27.7474ZM36.504 33.1523V32.1029H35.6195V27.8452C35.6195 26.211 34.5101 25.2365 32.6511 25.2365C31.2568 25.2365 30.3273 25.9262 29.9075 26.7507L30.6272 27.4254C31.0469 26.7208 31.6616 26.271 32.5911 26.271C33.8205 26.271 34.4202 26.8707 34.4202 27.9651V28.7297H32.891C30.6422 28.7297 29.5927 29.5393 29.5927 30.9935C29.5927 32.4327 30.5522 33.3322 32.1863 33.3322C33.2658 33.3322 34.0903 32.8375 34.4202 31.893H34.4951C34.5851 32.6126 34.9449 33.1523 35.8294 33.1523H36.504ZM32.3812 32.3128C31.4517 32.3128 30.852 31.878 30.852 31.1134V30.7986C30.852 30.049 31.4667 29.6292 32.831 29.6292H34.4202V30.9035C34.4202 31.6981 33.5656 32.3128 32.3812 32.3128ZM39.8275 33.1523V27.9051C39.8275 27.1705 40.6071 26.6158 41.8964 26.6158H42.601V25.4164H42.1363C40.8769 25.4164 40.1723 26.1061 39.9024 26.8407H39.8275V25.4164H38.6281V33.1523H39.8275ZM47.8122 33.1523V32.1029H46.238V26.4659H47.9321V25.4164H46.238V23.2726H45.1586V24.7118C45.1586 25.2365 44.9936 25.4164 44.4839 25.4164H43.7643V26.4659H45.0386V31.878C45.0386 32.6276 45.4884 33.1523 46.3129 33.1523H47.8122ZM55.0396 33.1523H56.239V25.4164H55.0396V30.7686C55.0396 31.7881 54.1101 32.2528 53.1656 32.2528C52.0112 32.2528 51.3965 31.5482 51.3965 30.1689V25.4164H50.1972V30.3788C50.1972 32.2528 51.2166 33.3322 52.8058 33.3322C54.0951 33.3322 54.6798 32.6276 54.9796 31.893H55.0396V33.1523ZM59.2053 36.1508H60.4047V31.893H60.4646C60.9294 32.8525 61.664 33.3322 62.7284 33.3322C64.6624 33.3322 65.8768 31.7581 65.8768 29.2844C65.8768 26.8107 64.6624 25.2365 62.7284 25.2365C61.664 25.2365 60.8694 25.7013 60.4646 26.6758H60.4047V25.4164H59.2053V36.1508ZM62.3986 32.2528C61.3042 32.2528 60.4047 31.6831 60.4047 30.6787V27.8002C60.4047 26.9456 61.3042 26.316 62.3986 26.316C63.7479 26.316 64.5874 27.2455 64.5874 28.6247V29.944C64.5874 31.3233 63.7479 32.2528 62.3986 32.2528ZM70.6379 33.3322C72.407 33.3322 73.5014 32.4177 73.5014 30.9185C73.5014 29.7491 72.8417 28.9995 71.1326 28.7447L70.533 28.6547C69.5735 28.5048 69.0487 28.205 69.0487 27.4554C69.0487 26.7208 69.5735 26.256 70.5629 26.256C71.5524 26.256 72.2121 26.7208 72.5569 27.2005L73.3515 26.4809C72.7218 25.7013 71.8972 25.2365 70.6529 25.2365C69.0787 25.2365 67.8944 25.9861 67.8944 27.5153C67.8944 28.9546 68.9588 29.5393 70.383 29.7491L70.9977 29.8391C72.0172 29.989 72.347 30.4538 72.347 31.0535C72.347 31.848 71.7473 32.3128 70.7279 32.3128C69.7534 32.3128 69.0337 31.878 68.4341 31.1284L67.5795 31.8181C68.2692 32.7326 69.2137 33.3322 70.6379 33.3322ZM83.0908 33.1523L85.8193 25.4164H84.6649L83.2857 29.2544L82.4461 31.893H82.3712L81.5316 29.2544L80.1823 25.4164H78.983L81.6965 33.1523H83.0908ZM90.1024 33.3322C91.8714 33.3322 92.9659 32.4177 92.9659 30.9185C92.9659 29.7491 92.3062 28.9995 90.5971 28.7447L89.9974 28.6547C89.0379 28.5048 88.5132 28.205 88.5132 27.4554C88.5132 26.7208 89.0379 26.256 90.0274 26.256C91.0169 26.256 91.6765 26.7208 92.0214 27.2005L92.8159 26.4809C92.1863 25.7013 91.3617 25.2365 90.1174 25.2365C88.5432 25.2365 87.3588 25.9861 87.3588 27.5153C87.3588 28.9546 88.4233 29.5393 89.8475 29.7491L90.4622 29.8391C91.4816 29.989 91.8115 30.4538 91.8115 31.0535C91.8115 31.848 91.2118 32.3128 90.1923 32.3128C89.2178 32.3128 88.4982 31.878 87.8985 31.1284L87.044 31.8181C87.7336 32.7326 88.6781 33.3322 90.1024 33.3322ZM102.51 33.3322C104.759 33.3322 106.108 32.1029 106.108 30.1839C106.108 28.6247 105.224 27.7252 103.185 27.2605L102.33 27.0656C101.011 26.7657 100.366 26.316 100.366 25.3265C100.366 24.2021 101.191 23.6174 102.525 23.6174C103.74 23.6174 104.534 24.1121 105.104 24.9067L106.048 24.2171C105.269 23.1077 104.159 22.508 102.585 22.508C100.531 22.508 99.1221 23.5125 99.1221 25.3715C99.1221 26.9756 100.172 27.8152 102.076 28.2499L102.93 28.4448C104.309 28.7597 104.864 29.2544 104.864 30.2439C104.864 31.4433 104.054 32.2228 102.555 32.2228C101.341 32.2228 100.471 31.6981 99.7368 30.7236L98.8073 31.5032C99.6468 32.6426 100.831 33.3322 102.51 33.3322ZM111.784 33.1523V32.1029H110.21V26.4659H111.904V25.4164H110.21V23.2726H109.13V24.7118C109.13 25.2365 108.965 25.4164 108.455 25.4164H107.736V26.4659H109.01V31.878C109.01 32.6276 109.46 33.1523 110.284 33.1523H111.784ZM120.54 33.1523V32.1029H119.656V27.8452C119.656 26.211 118.546 25.2365 116.687 25.2365C115.293 25.2365 114.364 25.9262 113.944 26.7507L114.663 27.4254C115.083 26.7208 115.698 26.271 116.627 26.271C117.857 26.271 118.456 26.8707 118.456 27.9651V28.7297H116.927C114.678 28.7297 113.629 29.5393 113.629 30.9935C113.629 32.4327 114.588 33.3322 116.223 33.3322C117.302 33.3322 118.127 32.8375 118.456 31.893H118.531C118.621 32.6126 118.981 33.1523 119.866 33.1523H120.54ZM116.418 32.3128C115.488 32.3128 114.888 31.878 114.888 31.1134V30.7986C114.888 30.049 115.503 29.6292 116.867 29.6292H118.456V30.9035C118.456 31.6981 117.602 32.3128 116.418 32.3128ZM129.186 34.0069C129.186 32.7326 128.361 31.953 126.442 31.953H124.793C124.089 31.953 123.609 31.833 123.609 31.3683C123.609 30.8885 124.119 30.6337 124.628 30.4988C124.853 30.5437 125.123 30.5737 125.378 30.5737C127.147 30.5737 128.301 29.4793 128.301 27.9051C128.301 27.0806 127.972 26.3909 127.417 25.9112V25.4164H128.886V24.367H127.732C127.087 24.367 126.832 24.8018 126.832 25.4015V25.5364C126.412 25.3415 125.918 25.2365 125.363 25.2365C123.609 25.2365 122.455 26.331 122.455 27.9051C122.455 28.9846 122.994 29.8391 123.909 30.2739V30.3338C123.129 30.5287 122.574 30.9035 122.574 31.6831C122.574 32.2078 122.829 32.5527 123.264 32.7626V32.9275C122.499 33.1374 122.035 33.5871 122.035 34.4267C122.035 35.641 123.024 36.3307 125.438 36.3307C127.927 36.3307 129.186 35.596 129.186 34.0069ZM128.062 34.0968C128.062 34.9364 127.282 35.3562 125.948 35.3562H124.838C123.624 35.3562 123.159 34.8015 123.159 34.1268C123.159 33.6471 123.384 33.3023 123.879 33.0774H126.457C127.657 33.0774 128.062 33.4822 128.062 34.0968ZM125.378 29.6142C124.359 29.6142 123.714 29.1345 123.714 28.115V27.6952C123.714 26.6758 124.359 26.196 125.378 26.196C126.397 26.196 127.042 26.6758 127.042 27.6952V28.115C127.042 29.1345 126.397 29.6142 125.378 29.6142ZM133.818 33.3322C135.272 33.3322 136.382 32.6126 136.876 31.5632L136.022 30.9485C135.617 31.8031 134.867 32.2828 133.893 32.2828C132.454 32.2828 131.599 31.2783 131.599 29.944V29.5842H137.161V29.0145C137.161 26.8257 135.887 25.2365 133.818 25.2365C131.719 25.2365 130.34 26.8257 130.34 29.2844C130.34 31.7431 131.719 33.3322 133.818 33.3322ZM133.818 26.241C135.047 26.241 135.872 27.1555 135.872 28.5198V28.6847H131.599V28.5798C131.599 27.2305 132.514 26.241 133.818 26.241Z"
        fill="#263238" />
    <rect x="14.1413" y="63.0029" width="398.226" height="22.4881" fill="#855CF8" />
    <path
        d="M384.048 78.751V77.9639H382.947V71.6897H384.048V70.9026H380.9V71.6897H382.002V77.9639H380.9V78.751H384.048ZM389.714 78.751H390.613V70.4304H389.714V73.8936H389.669C389.365 73.1627 388.769 72.8141 387.971 72.8141C386.52 72.8141 385.61 73.9947 385.61 75.85C385.61 77.7053 386.52 78.8859 387.971 78.8859C388.769 78.8859 389.32 78.5261 389.669 77.8065H389.714V78.751ZM388.218 78.0763C387.206 78.0763 386.577 77.3792 386.577 76.3448V75.3553C386.577 74.3208 387.206 73.6237 388.218 73.6237C389.039 73.6237 389.714 74.0959 389.714 74.7369V76.8957C389.714 77.6491 389.039 78.0763 388.218 78.0763ZM395.082 78.8859C396.172 78.8859 397.004 78.3462 397.375 77.5591L396.735 77.0981C396.431 77.739 395.869 78.0988 395.138 78.0988C394.058 78.0988 393.418 77.3455 393.418 76.3448V76.0749H397.589V75.6476C397.589 74.006 396.633 72.8141 395.082 72.8141C393.508 72.8141 392.473 74.006 392.473 75.85C392.473 77.694 393.508 78.8859 395.082 78.8859ZM395.082 73.5675C396.004 73.5675 396.622 74.2534 396.622 75.2766V75.4003H393.418V75.3215C393.418 74.3096 394.103 73.5675 395.082 73.5675ZM404.169 78.751V77.9639H403.505V74.7706C403.505 73.545 402.673 72.8141 401.279 72.8141C400.233 72.8141 399.536 73.3314 399.221 73.9498L399.761 74.4558C400.076 73.9273 400.537 73.59 401.234 73.59C402.156 73.59 402.606 74.0397 402.606 74.8605V75.434H401.459C399.772 75.434 398.985 76.0412 398.985 77.1318C398.985 78.2113 399.705 78.8859 400.93 78.8859C401.74 78.8859 402.358 78.5149 402.606 77.8065H402.662C402.729 78.3462 402.999 78.751 403.663 78.751H404.169ZM401.077 78.1213C400.379 78.1213 399.93 77.7952 399.93 77.2218V76.9857C399.93 76.4235 400.391 76.1086 401.414 76.1086H402.606V77.0644C402.606 77.6603 401.965 78.1213 401.077 78.1213Z"
        fill="white" />
    <g opacity="0.8">
        <rect x="14.1413" y="107.979" width="380.423" height="22.4881" fill="#855CF8" />
        <path
            d="M303.555 123.727H307.119C308.277 123.727 309.143 122.748 309.143 121.455C309.143 120.151 308.165 119.667 307.603 119.634V119.566C308.12 119.488 308.873 119.072 308.873 117.902C308.873 116.677 308.075 115.878 306.782 115.878H303.555V123.727ZM304.499 120.083H306.827C307.636 120.083 308.131 120.511 308.131 121.298V121.68C308.131 122.467 307.636 122.895 306.827 122.895H304.499V120.083ZM304.499 116.71H306.669C307.411 116.71 307.861 117.104 307.861 117.801V118.183C307.861 118.88 307.411 119.274 306.669 119.274H304.499V116.71ZM314.761 123.727H315.661V117.925H314.761V121.939C314.761 122.703 314.064 123.052 313.356 123.052C312.49 123.052 312.029 122.523 312.029 121.489V117.925H311.129V121.646C311.129 123.052 311.894 123.861 313.086 123.861C314.053 123.861 314.491 123.333 314.716 122.782H314.761V123.727ZM319.694 123.861C321.021 123.861 321.841 123.176 321.841 122.051C321.841 121.174 321.347 120.612 320.065 120.421L319.615 120.353C318.896 120.241 318.502 120.016 318.502 119.454C318.502 118.903 318.896 118.554 319.638 118.554C320.38 118.554 320.874 118.903 321.133 119.263L321.729 118.723C321.257 118.138 320.638 117.79 319.705 117.79C318.524 117.79 317.636 118.352 317.636 119.499C317.636 120.578 318.435 121.017 319.503 121.174L319.964 121.242C320.728 121.354 320.976 121.703 320.976 122.152C320.976 122.748 320.526 123.097 319.761 123.097C319.03 123.097 318.491 122.771 318.041 122.209L317.4 122.726C317.917 123.412 318.626 123.861 319.694 123.861ZM324.255 116.564C324.637 116.564 324.806 116.362 324.806 116.058V115.912C324.806 115.608 324.637 115.406 324.255 115.406C323.873 115.406 323.704 115.608 323.704 115.912V116.058C323.704 116.362 323.873 116.564 324.255 116.564ZM323.805 123.727H324.705V117.925H323.805V123.727ZM327.89 123.727V119.701C327.89 118.959 328.588 118.599 329.307 118.599C330.173 118.599 330.623 119.128 330.623 120.162V123.727H331.522V120.005C331.522 118.599 330.769 117.79 329.577 117.79C328.711 117.79 328.217 118.217 327.935 118.869H327.89V117.925H326.991V123.727H327.89ZM335.938 123.861C337.028 123.861 337.86 123.322 338.232 122.535L337.591 122.074C337.287 122.715 336.725 123.074 335.994 123.074C334.915 123.074 334.274 122.321 334.274 121.32V121.05H338.445V120.623C338.445 118.982 337.489 117.79 335.938 117.79C334.364 117.79 333.329 118.982 333.329 120.826C333.329 122.67 334.364 123.861 335.938 123.861ZM335.938 118.543C336.86 118.543 337.478 119.229 337.478 120.252V120.376H334.274V120.297C334.274 119.285 334.96 118.543 335.938 118.543ZM342.045 123.861C343.372 123.861 344.193 123.176 344.193 122.051C344.193 121.174 343.698 120.612 342.416 120.421L341.966 120.353C341.247 120.241 340.853 120.016 340.853 119.454C340.853 118.903 341.247 118.554 341.989 118.554C342.731 118.554 343.226 118.903 343.484 119.263L344.08 118.723C343.608 118.138 342.99 117.79 342.056 117.79C340.876 117.79 339.987 118.352 339.987 119.499C339.987 120.578 340.786 121.017 341.854 121.174L342.315 121.242C343.08 121.354 343.327 121.703 343.327 122.152C343.327 122.748 342.877 123.097 342.113 123.097C341.382 123.097 340.842 122.771 340.392 122.209L339.751 122.726C340.269 123.412 340.977 123.861 342.045 123.861ZM347.833 123.861C349.16 123.861 349.981 123.176 349.981 122.051C349.981 121.174 349.486 120.612 348.204 120.421L347.755 120.353C347.035 120.241 346.641 120.016 346.641 119.454C346.641 118.903 347.035 118.554 347.777 118.554C348.519 118.554 349.014 118.903 349.272 119.263L349.868 118.723C349.396 118.138 348.778 117.79 347.844 117.79C346.664 117.79 345.776 118.352 345.776 119.499C345.776 120.578 346.574 121.017 347.642 121.174L348.103 121.242C348.868 121.354 349.115 121.703 349.115 122.152C349.115 122.748 348.665 123.097 347.901 123.097C347.17 123.097 346.63 122.771 346.18 122.209L345.539 122.726C346.057 123.412 346.765 123.861 347.833 123.861ZM355.067 123.727H355.989V117.115H356.045L356.708 118.431L358.586 121.849L360.464 118.431L361.127 117.115H361.183V123.727H362.105V115.878H360.891L358.631 120.106H358.575L356.326 115.878H355.067V123.727ZM366.669 123.861C368.22 123.861 369.289 122.67 369.289 120.826C369.289 118.982 368.22 117.79 366.669 117.79C365.117 117.79 364.049 118.982 364.049 120.826C364.049 122.67 365.117 123.861 366.669 123.861ZM366.669 123.063C365.702 123.063 365.016 122.467 365.016 121.242V120.41C365.016 119.184 365.702 118.588 366.669 118.588C367.636 118.588 368.322 119.184 368.322 120.41V121.242C368.322 122.467 367.636 123.063 366.669 123.063ZM374.853 123.727H375.753V115.406H374.853V118.869H374.808C374.505 118.138 373.909 117.79 373.111 117.79C371.66 117.79 370.749 118.97 370.749 120.826C370.749 122.681 371.66 123.861 373.111 123.861C373.909 123.861 374.46 123.502 374.808 122.782H374.853V123.727ZM373.358 123.052C372.346 123.052 371.716 122.355 371.716 121.32V120.331C371.716 119.296 372.346 118.599 373.358 118.599C374.179 118.599 374.853 119.072 374.853 119.712V121.871C374.853 122.625 374.179 123.052 373.358 123.052ZM380.221 123.861C381.312 123.861 382.144 123.322 382.515 122.535L381.874 122.074C381.571 122.715 381.008 123.074 380.278 123.074C379.198 123.074 378.557 122.321 378.557 121.32V121.05H382.729V120.623C382.729 118.982 381.773 117.79 380.221 117.79C378.647 117.79 377.613 118.982 377.613 120.826C377.613 122.67 378.647 123.861 380.221 123.861ZM380.221 118.543C381.143 118.543 381.762 119.229 381.762 120.252V120.376H378.557V120.297C378.557 119.285 379.243 118.543 380.221 118.543ZM386.34 123.727V122.939H385.485V115.406H384.586V122.793C384.586 123.333 384.923 123.727 385.542 123.727H386.34Z"
            fill="white" />
    </g>
    <g opacity="0.64">
        <rect x="14.1413" y="85.4902" width="339.195" height="22.4881" fill="#855CF8" />
        <path
            d="M280.94 101.238H281.817V97.2017H279.163V98.0337H280.895V98.8096C280.895 99.9677 279.984 100.53 278.893 100.53C277.398 100.53 276.476 99.4955 276.476 97.9438V96.6732C276.476 95.1215 277.421 94.0983 278.804 94.0983C279.793 94.0983 280.524 94.6155 280.884 95.4476L281.66 94.9754C281.154 93.9521 280.209 93.255 278.804 93.255C276.791 93.255 275.464 94.7055 275.464 97.3141C275.464 99.9452 276.802 101.373 278.725 101.373C279.917 101.373 280.715 100.822 280.906 100.091H280.94V101.238ZM286.153 101.373C287.705 101.373 288.773 100.181 288.773 98.3373C288.773 96.4933 287.705 95.3014 286.153 95.3014C284.601 95.3014 283.533 96.4933 283.533 98.3373C283.533 100.181 284.601 101.373 286.153 101.373ZM286.153 100.575C285.186 100.575 284.5 99.9789 284.5 98.7533V97.9213C284.5 96.6957 285.186 96.0998 286.153 96.0998C287.12 96.0998 287.806 96.6957 287.806 97.9213V98.7533C287.806 99.9789 287.12 100.575 286.153 100.575ZM298.888 94.222V93.3899H292.951V94.222H295.447V101.238H296.392V94.222H298.888ZM301.926 101.373C303.477 101.373 304.545 100.181 304.545 98.3373C304.545 96.4933 303.477 95.3014 301.926 95.3014C300.374 95.3014 299.306 96.4933 299.306 98.3373C299.306 100.181 300.374 101.373 301.926 101.373ZM301.926 100.575C300.959 100.575 300.273 99.9789 300.273 98.7533V97.9213C300.273 96.6957 300.959 96.0998 301.926 96.0998C302.893 96.0998 303.578 96.6957 303.578 97.9213V98.7533C303.578 99.9789 302.893 100.575 301.926 100.575ZM309.522 101.238H310.444V94.6268H310.5L311.163 95.9423L313.041 99.3605L314.919 95.9423L315.582 94.6268H315.638V101.238H316.56V93.3899H315.346L313.086 97.6177H313.03L310.781 93.3899H309.522V101.238ZM323.654 101.238V100.451H322.99V97.2579C322.99 96.0323 322.158 95.3014 320.764 95.3014C319.718 95.3014 319.021 95.8187 318.706 96.4371L319.246 96.9431C319.561 96.4146 320.022 96.0773 320.719 96.0773C321.641 96.0773 322.091 96.527 322.091 97.3478V97.9213H320.944C319.257 97.9213 318.47 98.5285 318.47 99.6191C318.47 100.699 319.19 101.373 320.415 101.373C321.225 101.373 321.843 101.002 322.091 100.294H322.147C322.215 100.833 322.484 101.238 323.148 101.238H323.654ZM320.562 100.609C319.865 100.609 319.415 100.283 319.415 99.7091V99.473C319.415 98.9108 319.876 98.5959 320.899 98.5959H322.091V99.5517C322.091 100.148 321.45 100.609 320.562 100.609ZM326.212 101.238V97.3029C326.212 96.7519 326.797 96.3359 327.764 96.3359H328.292V95.4364H327.944C326.999 95.4364 326.471 95.9536 326.268 96.5045H326.212V95.4364H325.312V101.238H326.212ZM329.816 101.238H330.715V99.1694L331.581 98.2811L333.504 101.238H334.595L332.233 97.7301L334.381 95.4364H333.29L331.649 97.2017L330.76 98.1911H330.715V92.9177H329.816V101.238ZM338.115 101.373C339.205 101.373 340.038 100.833 340.409 100.046L339.768 99.5854C339.464 100.226 338.902 100.586 338.171 100.586C337.092 100.586 336.451 99.8328 336.451 98.8321V98.5622H340.622V98.1349C340.622 96.4933 339.666 95.3014 338.115 95.3014C336.541 95.3014 335.506 96.4933 335.506 98.3373C335.506 100.181 336.541 101.373 338.115 101.373ZM338.115 96.0548C339.037 96.0548 339.655 96.7407 339.655 97.7639V97.8876H336.451V97.8088C336.451 96.7969 337.137 96.0548 338.115 96.0548ZM344.886 101.238V100.451H343.705V96.2234H344.976V95.4364H343.705V93.8285H342.895V94.9079C342.895 95.3014 342.772 95.4364 342.389 95.4364H341.85V96.2234H342.805V100.283C342.805 100.845 343.143 101.238 343.761 101.238H344.886Z"
            fill="white" />
    </g>
    <g opacity="0.56">
        <rect x="14.1413" y="197.931" width="215.511" height="22.4881" fill="#855CF8" />
        <path
            d="M132.832 213.679H133.754V207.067H133.81L134.474 208.383L136.352 211.801L138.229 208.383L138.893 207.067H138.949V213.679H139.871V205.83H138.657L136.396 210.058H136.34L134.091 205.83H132.832V213.679ZM146.964 213.679V212.892H146.301V209.698C146.301 208.473 145.469 207.742 144.075 207.742C143.029 207.742 142.332 208.259 142.017 208.878L142.557 209.383C142.871 208.855 143.332 208.518 144.03 208.518C144.952 208.518 145.401 208.967 145.401 209.788V210.362H144.254C142.568 210.362 141.781 210.969 141.781 212.06C141.781 213.139 142.5 213.814 143.726 213.814C144.536 213.814 145.154 213.443 145.401 212.734H145.458C145.525 213.274 145.795 213.679 146.458 213.679H146.964ZM143.872 213.049C143.175 213.049 142.725 212.723 142.725 212.15V211.913C142.725 211.351 143.186 211.036 144.209 211.036H145.401V211.992C145.401 212.588 144.76 213.049 143.872 213.049ZM149.522 213.679V209.743C149.522 209.192 150.107 208.776 151.074 208.776H151.603V207.877H151.254C150.31 207.877 149.781 208.394 149.579 208.945H149.522V207.877H148.623V213.679H149.522ZM153.126 213.679H154.026V211.61L154.892 210.722L156.814 213.679H157.905L155.544 210.171L157.691 207.877H156.601L154.959 209.642L154.071 210.632H154.026V205.358H153.126V213.679ZM161.425 213.814C162.516 213.814 163.348 213.274 163.719 212.487L163.078 212.026C162.775 212.667 162.212 213.027 161.482 213.027C160.402 213.027 159.761 212.273 159.761 211.272V211.003H163.933V210.575C163.933 208.934 162.977 207.742 161.425 207.742C159.851 207.742 158.817 208.934 158.817 210.778C158.817 212.622 159.851 213.814 161.425 213.814ZM161.425 208.495C162.347 208.495 162.966 209.181 162.966 210.204V210.328H159.761V210.249C159.761 209.237 160.447 208.495 161.425 208.495ZM168.196 213.679V212.892H167.015V208.664H168.286V207.877H167.015V206.269H166.206V207.348C166.206 207.742 166.082 207.877 165.7 207.877H165.16V208.664H166.116V212.723C166.116 213.285 166.453 213.679 167.072 213.679H168.196ZM174.173 210.305H176.006L177.704 213.679H178.772L176.973 210.216C177.996 209.979 178.547 209.204 178.547 208.057C178.547 206.629 177.726 205.83 176.355 205.83H173.229V213.679H174.173V210.305ZM174.173 209.496V206.662H176.355C177.097 206.662 177.535 207.067 177.535 207.787V208.372C177.535 209.091 177.097 209.496 176.355 209.496H174.173ZM182.722 213.814C183.813 213.814 184.645 213.274 185.016 212.487L184.375 212.026C184.072 212.667 183.509 213.027 182.779 213.027C181.699 213.027 181.058 212.273 181.058 211.272V211.003H185.23V210.575C185.23 208.934 184.274 207.742 182.722 207.742C181.148 207.742 180.114 208.934 180.114 210.778C180.114 212.622 181.148 213.814 182.722 213.814ZM182.722 208.495C183.644 208.495 184.263 209.181 184.263 210.204V210.328H181.058V210.249C181.058 209.237 181.744 208.495 182.722 208.495ZM188.83 213.814C190.157 213.814 190.977 213.128 190.977 212.003C190.977 211.126 190.483 210.564 189.201 210.373L188.751 210.305C188.031 210.193 187.638 209.968 187.638 209.406C187.638 208.855 188.031 208.506 188.773 208.506C189.516 208.506 190.01 208.855 190.269 209.215L190.865 208.675C190.393 208.09 189.774 207.742 188.841 207.742C187.66 207.742 186.772 208.304 186.772 209.451C186.772 210.53 187.57 210.969 188.639 211.126L189.1 211.194C189.864 211.306 190.112 211.655 190.112 212.105C190.112 212.7 189.662 213.049 188.897 213.049C188.166 213.049 187.627 212.723 187.177 212.161L186.536 212.678C187.053 213.364 187.762 213.814 188.83 213.814ZM195.122 213.814C196.213 213.814 197.045 213.274 197.416 212.487L196.775 212.026C196.472 212.667 195.909 213.027 195.179 213.027C194.099 213.027 193.458 212.273 193.458 211.272V211.003H197.63V210.575C197.63 208.934 196.674 207.742 195.122 207.742C193.548 207.742 192.514 208.934 192.514 210.778C192.514 212.622 193.548 213.814 195.122 213.814ZM195.122 208.495C196.044 208.495 196.663 209.181 196.663 210.204V210.328H193.458V210.249C193.458 209.237 194.144 208.495 195.122 208.495ZM204.209 213.679V212.892H203.546V209.698C203.546 208.473 202.714 207.742 201.32 207.742C200.274 207.742 199.577 208.259 199.262 208.878L199.802 209.383C200.116 208.855 200.577 208.518 201.275 208.518C202.197 208.518 202.646 208.967 202.646 209.788V210.362H201.499C199.813 210.362 199.026 210.969 199.026 212.06C199.026 213.139 199.745 213.814 200.971 213.814C201.781 213.814 202.399 213.443 202.646 212.734H202.703C202.77 213.274 203.04 213.679 203.703 213.679H204.209ZM201.117 213.049C200.42 213.049 199.97 212.723 199.97 212.15V211.913C199.97 211.351 200.431 211.036 201.455 211.036H202.646V211.992C202.646 212.588 202.005 213.049 201.117 213.049ZM206.767 213.679V209.743C206.767 209.192 207.352 208.776 208.319 208.776H208.848V207.877H208.499C207.555 207.877 207.026 208.394 206.824 208.945H206.767V207.877H205.868V213.679H206.767ZM212.475 213.814C213.577 213.814 214.331 213.274 214.702 212.442L214.05 212.003C213.735 212.667 213.206 213.015 212.475 213.015C211.407 213.015 210.856 212.284 210.856 211.272V210.283C210.856 209.271 211.407 208.54 212.475 208.54C213.184 208.54 213.678 208.889 213.892 209.485L214.645 209.102C214.308 208.304 213.622 207.742 212.475 207.742C210.845 207.742 209.889 208.922 209.889 210.778C209.889 212.633 210.845 213.814 212.475 213.814ZM216.346 213.679H217.246V209.653C217.246 208.911 217.943 208.551 218.663 208.551C219.528 208.551 219.978 209.08 219.978 210.114V213.679H220.878V209.957C220.878 208.551 220.124 207.742 218.932 207.742C218.067 207.742 217.572 208.169 217.291 208.821H217.246V205.358H216.346V213.679Z"
            fill="white" />
    </g>
    <g opacity="0.48">
        <rect x="14.1413" y="152.955" width="166.787" height="22.4881" fill="#855CF8" />
        <path
            d="M150.558 168.703H151.48V162.092H151.536L152.199 163.407L154.077 166.825L155.955 163.407L156.618 162.092H156.674V168.703H157.596V160.855H156.382L154.122 165.083H154.066L151.817 160.855H150.558V168.703ZM162.992 168.703L165.634 160.855H164.656L163.352 164.813L162.463 167.759H162.407L161.541 164.813L160.248 160.855H159.236L161.845 168.703H162.992ZM168.228 168.703V165.352H170.41C171.815 165.352 172.602 164.487 172.602 163.104C172.602 161.721 171.815 160.855 170.41 160.855H167.284V168.703H168.228ZM168.228 161.687H170.41C171.152 161.687 171.59 162.092 171.59 162.811V163.396C171.59 164.116 171.152 164.52 170.41 164.52H168.228V161.687Z"
            fill="white" />
    </g>
    <g opacity="0.4">
        <rect x="14.1413" y="175.443" width="126.495" height="22.4881" fill="#855CF8" />
        <path
            d="M92.0661 191.191V187.638H95.473V186.806H92.0661V184.175H95.7991V183.343H91.1216V191.191H92.0661ZM100.977 191.191H101.877V185.389H100.977V189.404C100.977 190.168 100.28 190.517 99.5719 190.517C98.7061 190.517 98.2451 189.988 98.2451 188.954V185.389H97.3456V189.111C97.3456 190.517 98.1102 191.326 99.302 191.326C100.269 191.326 100.708 190.798 100.932 190.247H100.977V191.191ZM105.067 191.191V187.166C105.067 186.424 105.764 186.064 106.484 186.064C107.349 186.064 107.799 186.593 107.799 187.627V191.191H108.699V187.47C108.699 186.064 107.945 185.255 106.753 185.255C105.888 185.255 105.393 185.682 105.112 186.334H105.067V185.389H104.167V191.191H105.067ZM114.643 191.191H115.543V182.871H114.643V186.334H114.598C114.295 185.603 113.699 185.255 112.9 185.255C111.45 185.255 110.539 186.435 110.539 188.29C110.539 190.146 111.45 191.326 112.9 191.326C113.699 191.326 114.25 190.967 114.598 190.247H114.643V191.191ZM113.148 190.517C112.136 190.517 111.506 189.82 111.506 188.785V187.796C111.506 186.761 112.136 186.064 113.148 186.064C113.969 186.064 114.643 186.536 114.643 187.177V189.336C114.643 190.089 113.969 190.517 113.148 190.517ZM118.28 184.029C118.662 184.029 118.831 183.827 118.831 183.523V183.377C118.831 183.073 118.662 182.871 118.28 182.871C117.897 182.871 117.729 183.073 117.729 183.377V183.523C117.729 183.827 117.897 184.029 118.28 184.029ZM117.83 191.191H118.729V185.389H117.83V191.191ZM121.915 191.191V187.166C121.915 186.424 122.612 186.064 123.332 186.064C124.198 186.064 124.648 186.593 124.648 187.627V191.191H125.547V187.47C125.547 186.064 124.794 185.255 123.602 185.255C122.736 185.255 122.241 185.682 121.96 186.334H121.915V185.389H121.016V191.191H121.915ZM132.672 191.832C132.672 190.877 132.054 190.292 130.615 190.292H129.378C128.849 190.292 128.49 190.202 128.49 189.853C128.49 189.494 128.872 189.302 129.254 189.201C129.423 189.235 129.625 189.257 129.816 189.257C131.143 189.257 132.009 188.437 132.009 187.256C132.009 186.638 131.762 186.12 131.346 185.761V185.389H132.447V184.602H131.582C131.098 184.602 130.907 184.928 130.907 185.378V185.479C130.592 185.333 130.221 185.255 129.805 185.255C128.49 185.255 127.624 186.075 127.624 187.256C127.624 188.066 128.029 188.706 128.714 189.033V189.078C128.13 189.224 127.714 189.505 127.714 190.089C127.714 190.483 127.905 190.742 128.231 190.899V191.023C127.657 191.18 127.309 191.517 127.309 192.147C127.309 193.058 128.051 193.575 129.861 193.575C131.728 193.575 132.672 193.024 132.672 191.832ZM131.829 191.9C131.829 192.529 131.244 192.844 130.244 192.844H129.412C128.501 192.844 128.152 192.428 128.152 191.922C128.152 191.562 128.321 191.304 128.692 191.135H130.626C131.525 191.135 131.829 191.439 131.829 191.9ZM129.816 188.538C129.052 188.538 128.568 188.178 128.568 187.413V187.099C128.568 186.334 129.052 185.974 129.816 185.974C130.581 185.974 131.064 186.334 131.064 187.099V187.413C131.064 188.178 130.581 188.538 129.816 188.538Z"
            fill="white" />
    </g>
    <g opacity="0.16">
        <rect x="14.1413" y="130.467" width="111.503" height="22.4881" fill="#263238" />
    </g>
    <path
        d="M57.5339 146.215V142.864H59.7152C61.1207 142.864 61.9078 141.998 61.9078 140.615C61.9078 139.232 61.1207 138.367 59.7152 138.367H56.5894V146.215H57.5339ZM57.5339 139.199H59.7152C60.4573 139.199 60.8958 139.603 60.8958 140.323V140.908C60.8958 141.627 60.4573 142.032 59.7152 142.032H57.5339V139.199ZM64.4828 146.215V142.279C64.4828 141.728 65.0675 141.312 66.0345 141.312H66.563V140.413H66.2144C65.2699 140.413 64.7414 140.93 64.539 141.481H64.4828V140.413H63.5833V146.215H64.4828ZM70.2245 146.35C71.7761 146.35 72.8443 145.158 72.8443 143.314C72.8443 141.47 71.7761 140.278 70.2245 140.278C68.6728 140.278 67.6046 141.47 67.6046 143.314C67.6046 145.158 68.6728 146.35 70.2245 146.35ZM70.2245 145.551C69.2575 145.551 68.5716 144.956 68.5716 143.73V142.898C68.5716 141.672 69.2575 141.076 70.2245 141.076C71.1914 141.076 71.8773 141.672 71.8773 142.898V143.73C71.8773 144.956 71.1914 145.551 70.2245 145.551ZM77.1047 146.215V145.428H75.9241V141.2H77.1947V140.413H75.9241V138.805H75.1145V139.884C75.1145 140.278 74.9908 140.413 74.6085 140.413H74.0688V141.2H75.0246V145.259C75.0246 145.821 75.3619 146.215 75.9803 146.215H77.1047ZM81.164 146.35C82.7156 146.35 83.7838 145.158 83.7838 143.314C83.7838 141.47 82.7156 140.278 81.164 140.278C79.6123 140.278 78.5441 141.47 78.5441 143.314C78.5441 145.158 79.6123 146.35 81.164 146.35ZM81.164 145.551C80.197 145.551 79.5111 144.956 79.5111 143.73V142.898C79.5111 141.672 80.197 141.076 81.164 141.076C82.131 141.076 82.8168 141.672 82.8168 142.898V143.73C82.8168 144.956 82.131 145.551 81.164 145.551ZM88.0442 146.215V145.428H86.8636V141.2H88.1342V140.413H86.8636V138.805H86.054V139.884C86.054 140.278 85.9304 140.413 85.5481 140.413H85.0083V141.2H85.9641V145.259C85.9641 145.821 86.3014 146.215 86.9198 146.215H88.0442ZM92.1249 144.36L91.8101 145.304H91.7539L91.484 144.36L90.0897 140.413H89.1902L91.3603 146.44L90.9218 147.677H90.011V148.464H90.472C91.3266 148.464 91.5627 148.261 91.8213 147.564L94.4187 140.413H93.5304L92.1249 144.36ZM95.9407 148.464H96.8402V145.27H96.8852C97.2337 145.99 97.7847 146.35 98.583 146.35C100.033 146.35 100.944 145.169 100.944 143.314C100.944 141.459 100.033 140.278 98.583 140.278C97.7847 140.278 97.1887 140.627 96.8852 141.357H96.8402V140.413H95.9407V148.464ZM98.3356 145.54C97.5148 145.54 96.8402 145.113 96.8402 144.36V142.201C96.8402 141.56 97.5148 141.088 98.3356 141.088C99.3476 141.088 99.9773 141.785 99.9773 142.819V143.809C99.9773 144.843 99.3476 145.54 98.3356 145.54ZM103.288 139.052C103.67 139.052 103.839 138.85 103.839 138.546V138.4C103.839 138.097 103.67 137.894 103.288 137.894C102.905 137.894 102.737 138.097 102.737 138.4V138.546C102.737 138.85 102.905 139.052 103.288 139.052ZM102.838 146.215H103.737V140.413H102.838V146.215ZM106.923 146.215V142.189C106.923 141.447 107.62 141.088 108.34 141.088C109.206 141.088 109.655 141.616 109.655 142.65V146.215H110.555V142.493C110.555 141.088 109.802 140.278 108.61 140.278C107.744 140.278 107.249 140.705 106.968 141.357H106.923V140.413H106.024V146.215H106.923ZM117.68 146.856C117.68 145.9 117.062 145.315 115.623 145.315H114.386C113.857 145.315 113.498 145.225 113.498 144.877C113.498 144.517 113.88 144.326 114.262 144.225C114.431 144.258 114.633 144.281 114.824 144.281C116.151 144.281 117.017 143.46 117.017 142.279C117.017 141.661 116.77 141.144 116.353 140.784V140.413H117.455V139.626H116.59C116.106 139.626 115.915 139.952 115.915 140.402V140.503C115.6 140.357 115.229 140.278 114.813 140.278C113.498 140.278 112.632 141.099 112.632 142.279C112.632 143.089 113.037 143.73 113.722 144.056V144.101C113.138 144.247 112.722 144.528 112.722 145.113C112.722 145.506 112.913 145.765 113.239 145.922V146.046C112.665 146.204 112.317 146.541 112.317 147.171C112.317 148.081 113.059 148.599 114.869 148.599C116.736 148.599 117.68 148.048 117.68 146.856ZM116.837 146.923C116.837 147.553 116.252 147.868 115.252 147.868H114.42C113.509 147.868 113.16 147.452 113.16 146.946C113.16 146.586 113.329 146.327 113.7 146.159H115.634C116.533 146.159 116.837 146.462 116.837 146.923ZM114.824 143.561C114.06 143.561 113.576 143.201 113.576 142.437V142.122C113.576 141.357 114.06 140.998 114.824 140.998C115.589 140.998 116.072 141.357 116.072 142.122V142.437C116.072 143.201 115.589 143.561 114.824 143.561Z"
        fill="#263238" />
    <g opacity="0.64">
        <g opacity="0.16">
            <rect x="14.1413" y="220.419" width="95.5743" height="22.4881" fill="#263238" />
        </g>
        <path
            d="M75.7327 236.302C77.7567 236.302 79.061 234.874 79.061 232.243C79.061 229.612 77.7567 228.184 75.7327 228.184C73.7088 228.184 72.4045 229.612 72.4045 232.243C72.4045 234.874 73.7088 236.302 75.7327 236.302ZM75.7327 235.459C74.3722 235.459 73.4165 234.447 73.4165 232.895V231.591C73.4165 230.039 74.3722 229.027 75.7327 229.027C77.0933 229.027 78.049 230.039 78.049 231.591V232.895C78.049 234.447 77.0933 235.459 75.7327 235.459ZM83.45 236.167V235.38H82.2694V231.152H83.5399V230.365H82.2694V228.757H81.4598V229.837C81.4598 230.23 81.3361 230.365 80.9538 230.365H80.4141V231.152H81.3698V235.211C81.3698 235.773 81.7072 236.167 82.3256 236.167H83.45ZM85.3606 236.167H86.2601V232.142C86.2601 231.4 86.9572 231.04 87.6768 231.04C88.5426 231.04 88.9924 231.568 88.9924 232.603V236.167H89.8919V232.445C89.8919 231.04 89.1386 230.23 87.9467 230.23C87.0809 230.23 86.5862 230.657 86.3051 231.31H86.2601V227.846H85.3606V236.167ZM94.3074 236.302C95.398 236.302 96.2301 235.762 96.6011 234.975L95.9602 234.514C95.6566 235.155 95.0944 235.515 94.3636 235.515C93.2842 235.515 92.6432 234.761 92.6432 233.761V233.491H96.8148V233.064C96.8148 231.422 95.859 230.23 94.3074 230.23C92.7332 230.23 91.6987 231.422 91.6987 233.266C91.6987 235.11 92.7332 236.302 94.3074 236.302ZM94.3074 230.983C95.2294 230.983 95.8478 231.669 95.8478 232.693V232.816H92.6432V232.738C92.6432 231.726 93.3291 230.983 94.3074 230.983ZM99.5714 236.167V232.232C99.5714 231.681 100.156 231.265 101.123 231.265H101.652V230.365H101.303C100.358 230.365 99.83 230.882 99.6276 231.433H99.5714V230.365H98.6719V236.167H99.5714Z"
            fill="#263238" />
    </g>
</svg>