<svg width="203" height="203" viewBox="0 0 203 203" fill="none" xmlns="http://www.w3.org/2000/svg">
<path fill-rule="evenodd" clip-rule="evenodd" d="M101.5 8.45703C50.1158 8.45703 8.4585 50.1143 8.4585 101.499C8.4585 152.883 50.1158 194.54 101.5 194.54C152.885 194.54 194.542 152.883 194.542 101.499C194.542 50.1143 152.885 8.45703 101.5 8.45703ZM141.829 85.7662C142.572 84.9173 143.137 83.9285 143.492 82.858C143.847 81.7874 143.984 80.6566 143.896 79.5323C143.807 78.4079 143.494 77.3126 142.976 76.3109C142.458 75.3091 141.745 74.4211 140.878 73.699C140.012 72.977 139.01 72.4355 137.931 72.1065C136.852 71.7775 135.719 71.6675 134.597 71.7831C133.475 71.8987 132.387 72.2375 131.398 72.7795C130.409 73.3216 129.539 74.056 128.837 74.9395L92.4667 118.576L73.6469 99.7478C72.0516 98.2071 69.915 97.3545 67.6973 97.3738C65.4795 97.3931 63.3581 98.2826 61.7898 99.8509C60.2216 101.419 59.332 103.541 59.3127 105.758C59.2935 107.976 60.146 110.113 61.6868 111.708L87.0618 137.083C87.8929 137.913 88.8879 138.562 89.9834 138.987C91.0789 139.411 92.251 139.603 93.4247 139.55C94.5985 139.496 95.7483 139.199 96.8008 138.677C97.8533 138.155 98.7855 137.419 99.5378 136.516L141.829 85.7662Z" fill="#3AA959"/>
</svg>
