<svg width="430" height="460" viewBox="0 0 430 460" fill="none" xmlns="http://www.w3.org/2000/svg">
<line x1="374.609" y1="63.2409" x2="374.609" y2="74.3597" stroke="#ECECEE" stroke-width="1.8217" stroke-linecap="round" stroke-linejoin="round"/>
<rect x="1.37961" y="1.1257" width="427.5" height="457.808" rx="7.17817" fill="white" stroke="#E5E5E5" stroke-width="1.59515"/>
<path d="M72.2088 43.2244V46.2979H67.1499V62.209H63.3421V46.2979H58.2832V43.2244H72.2088ZM81.6779 62.4538C80.2273 62.4538 78.9218 62.1365 77.7613 61.5018C76.6009 60.8491 75.6852 59.9334 75.0143 58.7548C74.3615 57.5762 74.0351 56.2163 74.0351 54.675C74.0351 53.1338 74.3706 51.7738 75.0415 50.5952C75.7305 49.4166 76.6643 48.51 77.8429 47.8754C79.0215 47.2226 80.3361 46.8962 81.7867 46.8962C83.2373 46.8962 84.5519 47.2226 85.7305 47.8754C86.9091 48.51 87.8338 49.4166 88.5047 50.5952C89.1938 51.7738 89.5383 53.1338 89.5383 54.675C89.5383 56.2163 89.1847 57.5762 88.4775 58.7548C87.7885 59.9334 86.8456 60.8491 85.6489 61.5018C84.4703 62.1365 83.1466 62.4538 81.6779 62.4538ZM81.6779 59.1356C82.3669 59.1356 83.0106 58.9724 83.609 58.646C84.2255 58.3015 84.7151 57.7938 85.0777 57.1229C85.4404 56.452 85.6217 55.636 85.6217 54.675C85.6217 53.2426 85.2409 52.1455 84.4794 51.384C83.7359 50.6043 82.8202 50.2145 81.7323 50.2145C80.6444 50.2145 79.7287 50.6043 78.9853 51.384C78.26 52.1455 77.8973 53.2426 77.8973 54.675C77.8973 56.1075 78.2509 57.2135 78.9581 57.9932C79.6834 58.7548 80.59 59.1356 81.6779 59.1356ZM96.1392 49.3169C96.6288 48.6279 97.2997 48.0567 98.1519 47.6034C99.0223 47.132 100.01 46.8962 101.117 46.8962C102.404 46.8962 103.564 47.2136 104.598 47.8482C105.65 48.4828 106.475 49.3894 107.073 50.568C107.69 51.7285 107.998 53.0794 107.998 54.6206C107.998 56.1619 107.69 57.5308 107.073 58.7276C106.475 59.9062 105.65 60.8219 104.598 61.4746C103.564 62.1274 102.404 62.4538 101.117 62.4538C100.01 62.4538 99.0313 62.2271 98.1791 61.7738C97.345 61.3205 96.6651 60.7493 96.1392 60.0603V69.3894H92.3314V47.141H96.1392V49.3169ZM104.108 54.6206C104.108 53.714 103.918 52.9343 103.537 52.2815C103.175 51.6106 102.685 51.1029 102.068 50.7584C101.47 50.4139 100.817 50.2417 100.11 50.2417C99.4212 50.2417 98.7684 50.423 98.1519 50.7856C97.5535 51.1301 97.064 51.6378 96.6832 52.3087C96.3205 52.9796 96.1392 53.7684 96.1392 54.675C96.1392 55.5816 96.3205 56.3704 96.6832 57.0413C97.064 57.7122 97.5535 58.2289 98.1519 58.5916C98.7684 58.9361 99.4212 59.1084 100.11 59.1084C100.817 59.1084 101.47 58.927 102.068 58.5644C102.685 58.2017 103.175 57.685 103.537 57.0141C103.918 56.3432 104.108 55.5454 104.108 54.6206ZM131.09 49.0993C131.09 50.1147 130.845 51.0667 130.355 51.9552C129.884 52.8436 129.131 53.5599 128.098 54.1038C127.082 54.6478 125.795 54.9198 124.236 54.9198H121.053V62.209H117.246V43.2244H124.236C125.704 43.2244 126.956 43.4783 127.989 43.986C129.023 44.4937 129.793 45.1918 130.301 46.0803C130.827 46.9688 131.09 47.9751 131.09 49.0993ZM124.072 51.8464C125.124 51.8464 125.904 51.6106 126.412 51.1392C126.919 50.6496 127.173 49.9697 127.173 49.0993C127.173 47.2498 126.14 46.3251 124.072 46.3251H121.053V51.8464H124.072ZM147.8 54.3486C147.8 54.8926 147.764 55.3822 147.692 55.8173H136.676C136.767 56.9053 137.148 57.7575 137.819 58.374C138.489 58.9905 139.314 59.2987 140.294 59.2987C141.708 59.2987 142.714 58.6913 143.313 57.4764H147.42C146.984 58.927 146.15 60.1238 144.917 61.0666C143.684 61.9914 142.17 62.4538 140.375 62.4538C138.925 62.4538 137.619 62.1365 136.459 61.5018C135.316 60.8491 134.419 59.9334 133.766 58.7548C133.131 57.5762 132.814 56.2163 132.814 54.675C132.814 53.1156 133.131 51.7466 133.766 50.568C134.401 49.3894 135.289 48.4828 136.431 47.8482C137.574 47.2136 138.888 46.8962 140.375 46.8962C141.808 46.8962 143.086 47.2045 144.21 47.821C145.353 48.4375 146.232 49.3169 146.848 50.4592C147.483 51.5834 147.8 52.8799 147.8 54.3486ZM143.857 53.2607C143.838 52.2815 143.485 51.5018 142.796 50.9216C142.107 50.3232 141.264 50.0241 140.266 50.0241C139.324 50.0241 138.526 50.3142 137.873 50.8944C137.238 51.4565 136.848 52.2453 136.703 53.2607H143.857ZM154.388 49.4801C154.877 48.6823 155.512 48.0567 156.291 47.6034C157.089 47.1501 157.996 46.9234 159.011 46.9234V50.9216H158.005C156.808 50.9216 155.902 51.2027 155.285 51.7648C154.687 52.3269 154.388 53.306 154.388 54.7022V62.209H150.58V47.141H154.388V49.4801ZM168.484 50.2689H165.846V62.209H161.984V50.2689H160.27V47.141H161.984V46.3795C161.984 44.53 162.51 43.17 163.561 42.2997C164.613 41.4293 166.2 41.0214 168.321 41.0758V44.2852C167.396 44.2671 166.753 44.4212 166.39 44.7476C166.027 45.0739 165.846 45.6632 165.846 46.5155V47.141H168.484V50.2689ZM177.643 62.4538C176.192 62.4538 174.887 62.1365 173.726 61.5018C172.566 60.8491 171.65 59.9334 170.979 58.7548C170.326 57.5762 170 56.2163 170 54.675C170 53.1338 170.336 51.7738 171.006 50.5952C171.695 49.4166 172.629 48.51 173.808 47.8754C174.986 47.2226 176.301 46.8962 177.752 46.8962C179.202 46.8962 180.517 47.2226 181.695 47.8754C182.874 48.51 183.799 49.4166 184.47 50.5952C185.159 51.7738 185.503 53.1338 185.503 54.675C185.503 56.2163 185.15 57.5762 184.442 58.7548C183.753 59.9334 182.811 60.8491 181.614 61.5018C180.435 62.1365 179.112 62.4538 177.643 62.4538ZM177.643 59.1356C178.332 59.1356 178.976 58.9724 179.574 58.646C180.19 58.3015 180.68 57.7938 181.043 57.1229C181.405 56.452 181.587 55.636 181.587 54.675C181.587 53.2426 181.206 52.1455 180.444 51.384C179.701 50.6043 178.785 50.2145 177.697 50.2145C176.609 50.2145 175.694 50.6043 174.95 51.384C174.225 52.1455 173.862 53.2426 173.862 54.675C173.862 56.1075 174.216 57.2135 174.923 57.9932C175.648 58.7548 176.555 59.1356 177.643 59.1356ZM192.104 49.4801C192.594 48.6823 193.228 48.0567 194.008 47.6034C194.806 47.1501 195.713 46.9234 196.728 46.9234V50.9216H195.722C194.525 50.9216 193.618 51.2027 193.002 51.7648C192.403 52.3269 192.104 53.306 192.104 54.7022V62.209H188.296V47.141H192.104V49.4801ZM218.005 46.9234C219.855 46.9234 221.342 47.4946 222.466 48.6369C223.608 49.7611 224.179 51.3387 224.179 53.3695V62.209H220.371V53.8862C220.371 52.7076 220.072 51.8101 219.474 51.1936C218.876 50.559 218.06 50.2417 217.026 50.2417C215.993 50.2417 215.167 50.559 214.551 51.1936C213.953 51.8101 213.653 52.7076 213.653 53.8862V62.209H209.846V53.8862C209.846 52.7076 209.546 51.8101 208.948 51.1936C208.35 50.559 207.534 50.2417 206.5 50.2417C205.449 50.2417 204.614 50.559 203.998 51.1936C203.4 51.8101 203.1 52.7076 203.1 53.8862V62.209H199.293V47.141H203.1V48.9633C203.59 48.3287 204.216 47.8301 204.977 47.4674C205.757 47.1048 206.609 46.9234 207.534 46.9234C208.712 46.9234 209.764 47.1773 210.689 47.685C211.614 48.1746 212.33 48.8817 212.837 49.8065C213.327 48.9361 214.034 48.238 214.959 47.7122C215.902 47.1864 216.917 46.9234 218.005 46.9234ZM229.724 45.3459C229.053 45.3459 228.491 45.1374 228.037 44.7204C227.602 44.2852 227.385 43.7503 227.385 43.1156C227.385 42.481 227.602 41.9552 228.037 41.5381C228.491 41.103 229.053 40.8854 229.724 40.8854C230.395 40.8854 230.948 41.103 231.383 41.5381C231.836 41.9552 232.063 42.481 232.063 43.1156C232.063 43.7503 231.836 44.2852 231.383 44.7204C230.948 45.1374 230.395 45.3459 229.724 45.3459ZM231.6 47.141V62.209H227.793V47.141H231.6ZM243.712 46.9234C245.508 46.9234 246.958 47.4946 248.064 48.6369C249.17 49.7611 249.723 51.3387 249.723 53.3695V62.209H245.916V53.8862C245.916 52.6895 245.616 51.7738 245.018 51.1392C244.42 50.4864 243.604 50.1601 242.57 50.1601C241.518 50.1601 240.684 50.4864 240.068 51.1392C239.469 51.7738 239.17 52.6895 239.17 53.8862V62.209H235.363V47.141H239.17V49.0177C239.678 48.365 240.322 47.8573 241.101 47.4946C241.899 47.1138 242.77 46.9234 243.712 46.9234ZM259.246 46.8962C260.371 46.8962 261.359 47.1229 262.211 47.5762C263.063 48.0114 263.734 48.5825 264.224 49.2897V47.141H268.059V62.3178C268.059 63.714 267.778 64.956 267.216 66.044C266.653 67.15 265.81 68.0204 264.686 68.655C263.562 69.3078 262.202 69.6342 260.606 69.6342C258.467 69.6342 256.708 69.1355 255.33 68.1383C253.97 67.141 253.199 65.7811 253.018 64.0585H256.799C256.998 64.7475 257.424 65.2915 258.077 65.6904C258.748 66.1074 259.555 66.316 260.498 66.316C261.604 66.316 262.501 65.9805 263.19 65.3096C263.879 64.6568 264.224 63.6596 264.224 62.3178V59.9787C263.734 60.6859 263.054 61.2752 262.184 61.7466C261.332 62.2181 260.352 62.4538 259.246 62.4538C257.977 62.4538 256.817 62.1274 255.765 61.4746C254.713 60.8219 253.879 59.9062 253.263 58.7276C252.664 57.5308 252.365 56.1619 252.365 54.6206C252.365 53.0975 252.664 51.7466 253.263 50.568C253.879 49.3894 254.704 48.4828 255.738 47.8482C256.789 47.2136 257.959 46.8962 259.246 46.8962ZM264.224 54.675C264.224 53.7503 264.042 52.9615 263.68 52.3087C263.317 51.6378 262.828 51.1301 262.211 50.7856C261.595 50.423 260.933 50.2417 260.226 50.2417C259.518 50.2417 258.866 50.4139 258.267 50.7584C257.669 51.1029 257.179 51.6106 256.799 52.2815C256.436 52.9343 256.255 53.714 256.255 54.6206C256.255 55.5272 256.436 56.325 256.799 57.0141C257.179 57.685 257.669 58.2017 258.267 58.5644C258.884 58.927 259.537 59.1084 260.226 59.1084C260.933 59.1084 261.595 58.9361 262.211 58.5916C262.828 58.2289 263.317 57.7212 263.68 57.0685C264.042 56.3976 264.224 55.5998 264.224 54.675ZM288.05 62.209L283.861 54.811H282.066V62.209H278.259V43.2244H285.385C286.853 43.2244 288.104 43.4874 289.138 44.0132C290.171 44.5209 290.942 45.219 291.45 46.1075C291.976 46.9778 292.239 47.957 292.239 49.0449C292.239 50.296 291.876 51.4293 291.151 52.4447C290.425 53.442 289.346 54.131 287.914 54.5118L292.456 62.209H288.05ZM282.066 51.9552H285.249C286.282 51.9552 287.053 51.7104 287.56 51.2208C288.068 50.7131 288.322 50.015 288.322 49.1265C288.322 48.2562 288.068 47.5853 287.56 47.1138C287.053 46.6243 286.282 46.3795 285.249 46.3795H282.066V51.9552ZM309.69 54.3486C309.69 54.8926 309.654 55.3822 309.581 55.8173H298.566C298.656 56.9053 299.037 57.7575 299.708 58.374C300.379 58.9905 301.204 59.2987 302.183 59.2987C303.597 59.2987 304.604 58.6913 305.202 57.4764H309.309C308.874 58.927 308.04 60.1238 306.807 61.0666C305.574 61.9914 304.06 62.4538 302.265 62.4538C300.814 62.4538 299.509 62.1365 298.348 61.5018C297.206 60.8491 296.308 59.9334 295.655 58.7548C295.021 57.5762 294.703 56.2163 294.703 54.675C294.703 53.1156 295.021 51.7466 295.655 50.568C296.29 49.3894 297.179 48.4828 298.321 47.8482C299.463 47.2136 300.778 46.8962 302.265 46.8962C303.697 46.8962 304.975 47.2045 306.1 47.821C307.242 48.4375 308.121 49.3169 308.738 50.4592C309.373 51.5834 309.69 52.8799 309.69 54.3486ZM305.746 53.2607C305.728 52.2815 305.374 51.5018 304.685 50.9216C303.996 50.3232 303.153 50.0241 302.156 50.0241C301.213 50.0241 300.415 50.3142 299.762 50.8944C299.128 51.4565 298.738 52.2453 298.593 53.2607H305.746ZM318.371 46.8962C319.495 46.8962 320.484 47.1229 321.336 47.5762C322.188 48.0114 322.859 48.5825 323.349 49.2897V47.141H327.184V62.3178C327.184 63.714 326.902 64.956 326.34 66.044C325.778 67.15 324.935 68.0204 323.811 68.655C322.687 69.3078 321.327 69.6342 319.731 69.6342C317.592 69.6342 315.833 69.1355 314.455 68.1383C313.095 67.141 312.324 65.7811 312.143 64.0585H315.923C316.123 64.7475 316.549 65.2915 317.202 65.6904C317.873 66.1074 318.679 66.316 319.622 66.316C320.728 66.316 321.626 65.9805 322.315 65.3096C323.004 64.6568 323.349 63.6596 323.349 62.3178V59.9787C322.859 60.6859 322.179 61.2752 321.309 61.7466C320.456 62.2181 319.477 62.4538 318.371 62.4538C317.102 62.4538 315.942 62.1274 314.89 61.4746C313.838 60.8219 313.004 59.9062 312.388 58.7276C311.789 57.5308 311.49 56.1619 311.49 54.6206C311.49 53.0975 311.789 51.7466 312.388 50.568C313.004 49.3894 313.829 48.4828 314.863 47.8482C315.914 47.2136 317.084 46.8962 318.371 46.8962ZM323.349 54.675C323.349 53.7503 323.167 52.9615 322.805 52.3087C322.442 51.6378 321.952 51.1301 321.336 50.7856C320.719 50.423 320.058 50.2417 319.35 50.2417C318.643 50.2417 317.99 50.4139 317.392 50.7584C316.794 51.1029 316.304 51.6106 315.923 52.2815C315.561 52.9343 315.379 53.714 315.379 54.6206C315.379 55.5272 315.561 56.325 315.923 57.0141C316.304 57.685 316.794 58.2017 317.392 58.5644C318.009 58.927 318.661 59.1084 319.35 59.1084C320.058 59.1084 320.719 58.9361 321.336 58.5916C321.952 58.2289 322.442 57.7212 322.805 57.0685C323.167 56.3976 323.349 55.5998 323.349 54.675ZM332.834 45.3459C332.163 45.3459 331.601 45.1374 331.147 44.7204C330.712 44.2852 330.495 43.7503 330.495 43.1156C330.495 42.481 330.712 41.9552 331.147 41.5381C331.601 41.103 332.163 40.8854 332.834 40.8854C333.505 40.8854 334.058 41.103 334.493 41.5381C334.946 41.9552 335.173 42.481 335.173 43.1156C335.173 43.7503 334.946 44.2852 334.493 44.7204C334.058 45.1374 333.505 45.3459 332.834 45.3459ZM334.71 47.141V62.209H330.903V47.141H334.71ZM345.163 62.4538C343.713 62.4538 342.407 62.1365 341.247 61.5018C340.086 60.8491 339.17 59.9334 338.5 58.7548C337.847 57.5762 337.52 56.2163 337.52 54.675C337.52 53.1338 337.856 51.7738 338.527 50.5952C339.216 49.4166 340.15 48.51 341.328 47.8754C342.507 47.2226 343.821 46.8962 345.272 46.8962C346.723 46.8962 348.037 47.2226 349.216 47.8754C350.394 48.51 351.319 49.4166 351.99 50.5952C352.679 51.7738 353.024 53.1338 353.024 54.675C353.024 56.2163 352.67 57.5762 351.963 58.7548C351.274 59.9334 350.331 60.8491 349.134 61.5018C347.956 62.1365 346.632 62.4538 345.163 62.4538ZM345.163 59.1356C345.852 59.1356 346.496 58.9724 347.094 58.646C347.711 58.3015 348.2 57.7938 348.563 57.1229C348.926 56.452 349.107 55.636 349.107 54.675C349.107 53.2426 348.726 52.1455 347.965 51.384C347.221 50.6043 346.306 50.2145 345.218 50.2145C344.13 50.2145 343.214 50.6043 342.471 51.384C341.745 52.1455 341.383 53.2426 341.383 54.675C341.383 56.1075 341.736 57.2135 342.443 57.9932C343.169 58.7548 344.075 59.1356 345.163 59.1356ZM364.167 46.9234C365.962 46.9234 367.412 47.4946 368.518 48.6369C369.625 49.7611 370.178 51.3387 370.178 53.3695V62.209H366.37V53.8862C366.37 52.6895 366.071 51.7738 365.472 51.1392C364.874 50.4864 364.058 50.1601 363.024 50.1601C361.973 50.1601 361.139 50.4864 360.522 51.1392C359.924 51.7738 359.625 52.6895 359.625 53.8862V62.209H355.817V47.141H359.625V49.0177C360.132 48.365 360.776 47.8573 361.556 47.4946C362.353 47.1138 363.224 46.9234 364.167 46.9234Z" fill="#3AA959"/>
<rect x="128.194" y="91.25" width="172.276" height="177.062" rx="86.1381" fill="#6EFF97" fill-opacity="0.24"/>
<path d="M163.301 160.305L173.755 189.82L184.152 160.305H195.165V201H186.752V189.876L187.59 170.674L176.606 201H170.848L159.892 170.702L160.73 189.876V201H152.345V160.305H163.301ZM235.581 201H227.196L210.873 174.224V201H202.488V160.305H210.873L227.224 187.137V160.305H235.581V201ZM275.102 195.857C273.593 197.665 271.459 199.071 268.702 200.078C265.944 201.065 262.888 201.559 259.534 201.559C256.012 201.559 252.919 200.795 250.254 199.267C247.609 197.721 245.559 195.484 244.105 192.559C242.671 189.634 241.935 186.196 241.897 182.245V179.478C241.897 175.416 242.578 171.904 243.938 168.941C245.317 165.96 247.292 163.687 249.863 162.121C252.453 160.537 255.481 159.746 258.947 159.746C263.773 159.746 267.546 160.901 270.267 163.211C272.987 165.503 274.599 168.848 275.102 173.245H266.941C266.568 170.916 265.739 169.211 264.453 168.131C263.186 167.05 261.435 166.509 259.199 166.509C256.348 166.509 254.177 167.581 252.686 169.724C251.195 171.867 250.441 175.053 250.422 179.283V181.882C250.422 186.149 251.233 189.373 252.854 191.553C254.475 193.733 256.851 194.823 259.981 194.823C263.13 194.823 265.376 194.152 266.717 192.811V185.795H259.087V179.618H275.102V195.857Z" fill="#2F8547"/>
<path d="M152.294 286.652L158.183 302.298L164.057 286.652H168.642V307.064H165.109V300.335L165.459 291.334L159.431 307.064H156.893L150.878 291.348L151.229 300.335V307.064H147.696V286.652H152.294ZM181.582 307.064C181.432 306.775 181.302 306.303 181.189 305.648C180.105 306.779 178.778 307.345 177.208 307.345C175.684 307.345 174.441 306.91 173.478 306.041C172.516 305.172 172.034 304.097 172.034 302.816C172.034 301.199 172.633 299.961 173.829 299.101C175.035 298.232 176.754 297.797 178.988 297.797H181.077V296.802C181.077 296.017 180.858 295.391 180.418 294.923C179.979 294.447 179.311 294.208 178.413 294.208C177.638 294.208 177.002 294.405 176.507 294.797C176.011 295.18 175.764 295.671 175.764 296.269H172.357C172.357 295.437 172.633 294.662 173.184 293.942C173.736 293.213 174.483 292.643 175.427 292.231C176.381 291.82 177.441 291.615 178.61 291.615C180.386 291.615 181.802 292.063 182.858 292.96C183.914 293.848 184.456 295.101 184.484 296.718V303.559C184.484 304.924 184.676 306.013 185.059 306.826V307.064H181.582ZM177.839 304.611C178.512 304.611 179.143 304.447 179.731 304.12C180.33 303.793 180.778 303.354 181.077 302.802V299.942H179.241C177.979 299.942 177.03 300.162 176.395 300.601C175.759 301.041 175.441 301.662 175.441 302.466C175.441 303.12 175.656 303.644 176.086 304.036C176.525 304.419 177.11 304.611 177.839 304.611ZM191.214 291.895L191.312 293.647C192.433 292.292 193.905 291.615 195.728 291.615C198.887 291.615 200.495 293.423 200.551 297.04V307.064H197.144V297.237C197.144 296.274 196.934 295.563 196.513 295.106C196.102 294.638 195.424 294.405 194.48 294.405C193.106 294.405 192.083 295.026 191.41 296.269V307.064H188.003V291.895H191.214ZM203.439 299.368C203.439 297.012 203.99 295.134 205.093 293.732C206.206 292.32 207.678 291.615 209.51 291.615C211.239 291.615 212.599 292.217 213.589 293.423L213.744 291.895H216.814V306.602C216.814 308.593 216.192 310.163 214.949 311.312C213.715 312.462 212.047 313.037 209.944 313.037C208.832 313.037 207.743 312.803 206.678 312.336C205.621 311.878 204.818 311.275 204.266 310.527L205.878 308.48C206.925 309.724 208.215 310.345 209.748 310.345C210.879 310.345 211.771 310.037 212.426 309.42C213.08 308.812 213.407 307.915 213.407 306.728V305.705C212.426 306.798 211.117 307.345 209.481 307.345C207.706 307.345 206.252 306.639 205.121 305.228C204 303.817 203.439 301.863 203.439 299.368ZM206.832 299.662C206.832 301.185 207.14 302.386 207.757 303.265C208.383 304.134 209.248 304.569 210.351 304.569C211.725 304.569 212.743 303.98 213.407 302.802V296.129C212.762 294.979 211.753 294.405 210.379 294.405C209.257 294.405 208.383 294.848 207.757 295.736C207.14 296.624 206.832 297.933 206.832 299.662ZM229.39 307.064C229.24 306.775 229.109 306.303 228.997 305.648C227.913 306.779 226.586 307.345 225.016 307.345C223.492 307.345 222.249 306.91 221.286 306.041C220.324 305.172 219.842 304.097 219.842 302.816C219.842 301.199 220.44 299.961 221.637 299.101C222.842 298.232 224.562 297.797 226.796 297.797H228.885V296.802C228.885 296.017 228.665 295.391 228.226 294.923C227.787 294.447 227.118 294.208 226.221 294.208C225.445 294.208 224.81 294.405 224.315 294.797C223.819 295.18 223.571 295.671 223.571 296.269H220.165C220.165 295.437 220.44 294.662 220.992 293.942C221.543 293.213 222.291 292.643 223.235 292.231C224.188 291.82 225.249 291.615 226.417 291.615C228.193 291.615 229.609 292.063 230.666 292.96C231.722 293.848 232.264 295.101 232.292 296.718V303.559C232.292 304.924 232.483 306.013 232.867 306.826V307.064H229.39ZM225.646 304.611C226.319 304.611 226.95 304.447 227.539 304.12C228.137 303.793 228.586 303.354 228.885 302.802V299.942H227.048C225.787 299.942 224.838 300.162 224.202 300.601C223.567 301.041 223.249 301.662 223.249 302.466C223.249 303.12 223.464 303.644 223.894 304.036C224.333 304.419 224.917 304.611 225.646 304.611ZM239.484 307.064H236.077V285.53H239.484V307.064ZM242.568 299.34C242.568 297.853 242.863 296.517 243.452 295.33C244.04 294.133 244.868 293.218 245.933 292.582C246.999 291.937 248.223 291.615 249.606 291.615C251.653 291.615 253.312 292.273 254.583 293.591C255.864 294.909 256.556 296.657 256.658 298.835L256.672 299.634C256.672 301.129 256.383 302.466 255.803 303.644C255.233 304.821 254.41 305.733 253.336 306.377C252.27 307.022 251.036 307.345 249.634 307.345C247.494 307.345 245.779 306.635 244.489 305.214C243.209 303.784 242.568 301.882 242.568 299.508V299.34ZM245.975 299.634C245.975 301.195 246.298 302.419 246.943 303.307C247.587 304.186 248.485 304.625 249.634 304.625C250.784 304.625 251.677 304.176 252.312 303.279C252.957 302.382 253.28 301.069 253.28 299.34C253.28 297.807 252.948 296.592 252.284 295.694C251.63 294.797 250.737 294.348 249.606 294.348C248.494 294.348 247.611 294.792 246.957 295.68C246.302 296.559 245.975 297.877 245.975 299.634ZM267.496 295.007C267.047 294.933 266.584 294.895 266.108 294.895C264.547 294.895 263.495 295.493 262.953 296.69V307.064H259.546V291.895H262.799L262.883 293.591C263.706 292.273 264.846 291.615 266.304 291.615C266.79 291.615 267.192 291.68 267.51 291.811L267.496 295.007ZM276.048 307.345C273.889 307.345 272.136 306.667 270.79 305.312C269.454 303.947 268.786 302.134 268.786 299.872V299.452C268.786 297.938 269.075 296.587 269.655 295.4C270.244 294.204 271.066 293.274 272.122 292.61C273.178 291.946 274.356 291.615 275.655 291.615C277.721 291.615 279.314 292.273 280.436 293.591C281.567 294.909 282.132 296.774 282.132 299.185V300.559H272.22C272.323 301.812 272.739 302.802 273.468 303.531C274.207 304.26 275.132 304.625 276.244 304.625C277.805 304.625 279.076 303.994 280.057 302.732L281.894 304.485C281.287 305.391 280.473 306.097 279.455 306.602C278.445 307.097 277.31 307.345 276.048 307.345ZM275.641 294.348C274.707 294.348 273.949 294.676 273.37 295.33C272.8 295.984 272.435 296.895 272.276 298.064H278.768V297.811C278.693 296.671 278.389 295.811 277.856 295.232C277.324 294.643 276.585 294.348 275.641 294.348Z" fill="#4F4F4F"/>
<path d="M87.2322 390.91L80.0079 407.83H76.1513L83.4299 391.344H74.1415V388.085H87.2322V390.91ZM103.043 388.873C105.034 388.873 106.781 389.262 108.284 390.041C109.805 390.819 110.973 391.933 111.788 393.381C112.621 394.812 113.037 396.478 113.037 398.379C113.037 400.28 112.621 401.946 111.788 403.376C110.973 404.788 109.805 405.884 108.284 406.662C106.781 407.441 105.034 407.83 103.043 407.83H96.4157V388.873H103.043ZM102.907 404.598C104.898 404.598 106.437 404.055 107.524 402.969C108.61 401.882 109.153 400.352 109.153 398.379C109.153 396.405 108.61 394.866 107.524 393.762C106.437 392.639 104.898 392.078 102.907 392.078H100.218V404.598H102.907ZM114.906 400.253C114.906 398.732 115.204 397.383 115.802 396.206C116.417 395.029 117.241 394.124 118.273 393.49C119.323 392.856 120.491 392.539 121.777 392.539C122.899 392.539 123.877 392.766 124.71 393.218C125.561 393.671 126.24 394.241 126.747 394.929V392.784H130.576V407.83H126.747V405.63C126.258 406.336 125.579 406.925 124.71 407.396C123.859 407.848 122.872 408.075 121.75 408.075C120.482 408.075 119.323 407.749 118.273 407.097C117.241 406.445 116.417 405.531 115.802 404.354C115.204 403.159 114.906 401.792 114.906 400.253ZM126.747 400.307C126.747 399.384 126.566 398.596 126.204 397.944C125.842 397.274 125.353 396.767 124.737 396.423C124.122 396.061 123.461 395.88 122.755 395.88C122.048 395.88 121.397 396.052 120.799 396.396C120.202 396.74 119.713 397.247 119.333 397.917C118.97 398.569 118.789 399.347 118.789 400.253C118.789 401.158 118.97 401.955 119.333 402.643C119.713 403.313 120.202 403.829 120.799 404.191C121.415 404.553 122.067 404.734 122.755 404.734C123.461 404.734 124.122 404.562 124.737 404.218C125.353 403.856 125.842 403.349 126.204 402.697C126.566 402.027 126.747 401.23 126.747 400.307ZM148.684 392.784L139.369 414.946H135.322L138.581 407.45L132.552 392.784H136.816L140.7 403.294L144.638 392.784H148.684ZM156.492 408.075C155.261 408.075 154.156 407.857 153.178 407.423C152.201 406.97 151.422 406.363 150.843 405.603C150.281 404.843 149.974 404.001 149.919 403.077H153.749C153.821 403.657 154.102 404.136 154.591 404.517C155.098 404.897 155.722 405.087 156.465 405.087C157.189 405.087 157.75 404.942 158.149 404.652C158.565 404.363 158.773 403.992 158.773 403.539C158.773 403.05 158.52 402.688 158.013 402.453C157.524 402.199 156.736 401.927 155.65 401.638C154.527 401.366 153.604 401.086 152.88 400.796C152.174 400.506 151.558 400.063 151.033 399.465C150.526 398.868 150.272 398.062 150.272 397.048C150.272 396.215 150.508 395.455 150.979 394.766C151.467 394.078 152.155 393.535 153.043 393.137C153.948 392.739 155.007 392.539 156.22 392.539C158.013 392.539 159.443 392.992 160.511 393.897C161.58 394.785 162.168 395.989 162.277 397.51H158.637C158.583 396.912 158.33 396.441 157.877 396.097C157.442 395.735 156.854 395.554 156.112 395.554C155.424 395.554 154.889 395.681 154.509 395.934C154.147 396.188 153.966 396.541 153.966 396.994C153.966 397.501 154.22 397.89 154.727 398.161C155.233 398.415 156.021 398.677 157.089 398.949C158.176 399.221 159.072 399.501 159.778 399.791C160.484 400.081 161.091 400.533 161.598 401.149C162.123 401.746 162.394 402.543 162.413 403.539C162.413 404.408 162.168 405.187 161.679 405.875C161.209 406.563 160.52 407.106 159.615 407.504C158.728 407.884 157.687 408.075 156.492 408.075Z" fill="#3AA959"/>
<path d="M282.053 393.257C282.144 391.448 282.777 390.055 283.953 389.078C285.147 388.083 286.712 387.586 288.647 387.586C289.968 387.586 291.099 387.821 292.04 388.291C292.98 388.743 293.686 389.368 294.156 390.164C294.645 390.942 294.889 391.828 294.889 392.823C294.889 393.963 294.591 394.931 293.994 395.727C293.415 396.505 292.718 397.029 291.904 397.301V397.409C292.953 397.735 293.767 398.314 294.346 399.146C294.943 399.978 295.242 401.046 295.242 402.348C295.242 403.434 294.989 404.402 294.482 405.252C293.994 406.102 293.261 406.772 292.284 407.26C291.325 407.731 290.167 407.966 288.81 407.966C286.766 407.966 285.102 407.45 283.817 406.419C282.533 405.388 281.854 403.868 281.782 401.86H285.472C285.509 402.746 285.807 403.461 286.368 404.004C286.947 404.528 287.734 404.791 288.729 404.791C289.652 404.791 290.357 404.537 290.846 404.031C291.352 403.506 291.605 402.837 291.605 402.023C291.605 400.937 291.262 400.159 290.574 399.689C289.887 399.218 288.819 398.983 287.372 398.983H286.585V395.862H287.372C289.941 395.862 291.226 395.003 291.226 393.284C291.226 392.506 290.99 391.9 290.52 391.466C290.068 391.032 289.407 390.815 288.539 390.815C287.689 390.815 287.028 391.05 286.558 391.521C286.106 391.973 285.843 392.552 285.771 393.257H282.053ZM298.244 397.681C298.244 394.551 298.805 392.099 299.927 390.326C301.066 388.553 302.948 387.667 305.571 387.667C308.195 387.667 310.067 388.553 311.189 390.326C312.328 392.099 312.898 394.551 312.898 397.681C312.898 400.829 312.328 403.298 311.189 405.089C310.067 406.88 308.195 407.776 305.571 407.776C302.948 407.776 301.066 406.88 299.927 405.089C298.805 403.298 298.244 400.829 298.244 397.681ZM309.153 397.681C309.153 396.342 309.063 395.22 308.882 394.316C308.719 393.393 308.375 392.642 307.851 392.063C307.344 391.484 306.584 391.195 305.571 391.195C304.558 391.195 303.789 391.484 303.265 392.063C302.758 392.642 302.414 393.393 302.233 394.316C302.071 395.22 301.989 396.342 301.989 397.681C301.989 399.056 302.071 400.214 302.233 401.154C302.396 402.077 302.74 402.828 303.265 403.407C303.789 403.968 304.558 404.248 305.571 404.248C306.584 404.248 307.353 403.968 307.878 403.407C308.403 402.828 308.746 402.077 308.909 401.154C309.072 400.214 309.153 399.056 309.153 397.681ZM329.31 388.888C331.3 388.888 333.046 389.277 334.548 390.055C336.067 390.833 337.234 391.946 338.048 393.393C338.881 394.822 339.297 396.487 339.297 398.386C339.297 400.286 338.881 401.95 338.048 403.38C337.234 404.791 336.067 405.885 334.548 406.663C333.046 407.441 331.3 407.83 329.31 407.83H322.689V388.888H329.31ZM329.174 404.601C331.165 404.601 332.702 404.058 333.788 402.972C334.873 401.887 335.416 400.358 335.416 398.386C335.416 396.414 334.873 394.876 333.788 393.773C332.702 392.651 331.165 392.09 329.174 392.09H326.488V404.601H329.174ZM341.164 400.259C341.164 398.739 341.462 397.391 342.059 396.215C342.674 395.039 343.497 394.135 344.529 393.502C345.578 392.868 346.745 392.552 348.029 392.552C349.151 392.552 350.128 392.778 350.96 393.23C351.811 393.682 352.489 394.252 352.996 394.94V392.796H356.822V407.83H352.996V405.632C352.507 406.338 351.829 406.925 350.96 407.396C350.11 407.848 349.124 408.074 348.002 408.074C346.736 408.074 345.578 407.749 344.529 407.097C343.497 406.446 342.674 405.532 342.059 404.356C341.462 403.162 341.164 401.797 341.164 400.259ZM352.996 400.313C352.996 399.39 352.815 398.603 352.453 397.952C352.091 397.283 351.602 396.776 350.987 396.432C350.372 396.071 349.712 395.89 349.006 395.89C348.301 395.89 347.649 396.061 347.052 396.405C346.455 396.749 345.967 397.256 345.587 397.925C345.225 398.576 345.044 399.354 345.044 400.259C345.044 401.163 345.225 401.959 345.587 402.647C345.967 403.316 346.455 403.832 347.052 404.194C347.668 404.555 348.319 404.736 349.006 404.736C349.712 404.736 350.372 404.565 350.987 404.221C351.602 403.859 352.091 403.352 352.453 402.701C352.815 402.032 352.996 401.236 352.996 400.313ZM374.915 392.796L365.607 414.94H361.564L364.82 407.45L358.796 392.796H363.056L366.937 403.298L370.872 392.796H374.915ZM382.717 408.074C381.486 408.074 380.383 407.857 379.406 407.423C378.429 406.971 377.651 406.365 377.072 405.605C376.511 404.845 376.204 404.004 376.149 403.081H379.976C380.048 403.66 380.328 404.139 380.817 404.519C381.323 404.899 381.948 405.089 382.689 405.089C383.413 405.089 383.974 404.944 384.372 404.655C384.788 404.366 384.996 403.995 384.996 403.542C384.996 403.054 384.743 402.692 384.236 402.457C383.748 402.204 382.961 401.932 381.875 401.643C380.754 401.371 379.831 401.091 379.107 400.801C378.402 400.512 377.787 400.069 377.262 399.472C376.755 398.875 376.502 398.07 376.502 397.057C376.502 396.224 376.737 395.464 377.208 394.777C377.696 394.09 378.384 393.547 379.27 393.149C380.175 392.751 381.233 392.552 382.445 392.552C384.236 392.552 385.665 393.004 386.733 393.909C387.8 394.795 388.388 395.998 388.497 397.518H384.86C384.806 396.921 384.553 396.45 384.101 396.107C383.666 395.745 383.078 395.564 382.337 395.564C381.649 395.564 381.115 395.691 380.735 395.944C380.374 396.197 380.193 396.55 380.193 397.002C380.193 397.509 380.446 397.898 380.953 398.169C381.459 398.422 382.246 398.685 383.314 398.956C384.399 399.228 385.295 399.508 386 399.797C386.706 400.087 387.312 400.539 387.818 401.154C388.343 401.751 388.614 402.547 388.632 403.542C388.632 404.411 388.388 405.189 387.9 405.876C387.429 406.564 386.742 407.106 385.837 407.504C384.951 407.884 383.911 408.074 382.717 408.074Z" fill="#3AA959"/>
<path d="M75.921 373.405C76.59 373.405 77.1746 373.534 77.6748 373.793C78.181 374.047 78.5697 374.414 78.8409 374.896C79.1182 375.372 79.2568 375.93 79.2568 376.569C79.2568 377.208 79.1182 377.762 78.8409 378.232C78.5697 378.702 78.181 379.064 77.6748 379.317C77.1746 379.564 76.59 379.688 75.921 379.688H73.8689V373.405H75.921ZM75.921 378.847C76.6563 378.847 77.2198 378.648 77.6115 378.25C78.0032 377.852 78.1991 377.292 78.1991 376.569C78.1991 375.839 78.0032 375.27 77.6115 374.86C77.2198 374.45 76.6563 374.245 75.921 374.245H74.8995V378.847H75.921ZM79.9346 377.174C79.9346 376.674 80.0371 376.231 80.242 375.845C80.4529 375.46 80.7362 375.161 81.0918 374.951C81.4534 374.734 81.8511 374.625 82.2851 374.625C82.6768 374.625 83.0173 374.703 83.3066 374.86C83.6019 375.011 83.8369 375.201 84.0117 375.43V374.706H85.0513V379.688H84.0117V378.946C83.8369 379.181 83.5989 379.377 83.2975 379.534C82.9962 379.691 82.6527 379.769 82.267 379.769C81.8391 379.769 81.4473 379.66 81.0918 379.443C80.7362 379.22 80.4529 378.913 80.242 378.521C80.0371 378.124 79.9346 377.675 79.9346 377.174ZM84.0117 377.192C84.0117 376.849 83.9394 376.551 83.7947 376.297C83.6561 376.044 83.4723 375.852 83.2433 375.719C83.0143 375.586 82.7672 375.52 82.502 375.52C82.2368 375.52 81.9897 375.586 81.7607 375.719C81.5317 375.845 81.3449 376.035 81.2002 376.288C81.0616 376.536 80.9923 376.831 80.9923 377.174C80.9923 377.518 81.0616 377.819 81.2002 378.078C81.3449 378.338 81.5317 378.536 81.7607 378.675C81.9958 378.808 82.2429 378.874 82.502 378.874C82.7672 378.874 83.0143 378.808 83.2433 378.675C83.4723 378.542 83.6561 378.35 83.7947 378.096C83.9394 377.837 84.0117 377.536 84.0117 377.192ZM86.9292 374.047C86.7424 374.047 86.5857 373.983 86.4591 373.857C86.3326 373.73 86.2693 373.573 86.2693 373.387C86.2693 373.2 86.3326 373.043 86.4591 372.917C86.5857 372.79 86.7424 372.727 86.9292 372.727C87.11 372.727 87.2637 372.79 87.3903 372.917C87.5168 373.043 87.5801 373.2 87.5801 373.387C87.5801 373.573 87.5168 373.73 87.3903 373.857C87.2637 373.983 87.11 374.047 86.9292 374.047ZM87.4355 374.706V379.688H86.4049V374.706H87.4355ZM89.8191 372.998V379.688H88.7885V372.998H89.8191ZM95.656 374.706L92.6004 382.029H91.5337L92.5462 379.606L90.5845 374.706H91.7326L93.1338 378.503L94.5892 374.706H95.656ZM102.57 378.404H99.9391L99.4871 379.688H98.4113L100.662 373.396H101.856L104.107 379.688H103.022L102.57 378.404ZM102.28 377.563L101.259 374.643L100.228 377.563H102.28ZM104.742 377.192C104.742 376.68 104.844 376.231 105.049 375.845C105.26 375.454 105.549 375.152 105.917 374.941C106.285 374.731 106.706 374.625 107.183 374.625C107.785 374.625 108.282 374.77 108.674 375.059C109.072 375.342 109.34 375.749 109.479 376.279H108.367C108.276 376.032 108.132 375.839 107.933 375.701C107.734 375.562 107.484 375.493 107.183 375.493C106.761 375.493 106.423 375.644 106.17 375.945C105.923 376.24 105.799 376.656 105.799 377.192C105.799 377.729 105.923 378.148 106.17 378.449C106.423 378.75 106.761 378.901 107.183 378.901C107.779 378.901 108.174 378.639 108.367 378.115H109.479C109.334 378.621 109.063 379.025 108.665 379.326C108.267 379.621 107.773 379.769 107.183 379.769C106.706 379.769 106.285 379.663 105.917 379.452C105.549 379.235 105.26 378.934 105.049 378.548C104.844 378.157 104.742 377.705 104.742 377.192ZM111.708 375.547V378.304C111.708 378.491 111.75 378.627 111.835 378.711C111.925 378.79 112.076 378.829 112.287 378.829H112.919V379.688H112.106C111.642 379.688 111.286 379.579 111.039 379.362C110.792 379.145 110.668 378.793 110.668 378.304V375.547H110.081V374.706H110.668V373.468H111.708V374.706H112.919V375.547H111.708ZM114.394 374.047C114.207 374.047 114.05 373.983 113.924 373.857C113.797 373.73 113.734 373.573 113.734 373.387C113.734 373.2 113.797 373.043 113.924 372.917C114.05 372.79 114.207 372.727 114.394 372.727C114.574 372.727 114.728 372.79 114.855 372.917C114.981 373.043 115.045 373.2 115.045 373.387C115.045 373.573 114.981 373.73 114.855 373.857C114.728 373.983 114.574 374.047 114.394 374.047ZM114.9 374.706V379.688H113.869V374.706H114.9ZM118.178 378.765L119.589 374.706H120.683L118.784 379.688H117.555L115.665 374.706H116.768L118.178 378.765ZM121.986 374.047C121.799 374.047 121.642 373.983 121.516 373.857C121.389 373.73 121.326 373.573 121.326 373.387C121.326 373.2 121.389 373.043 121.516 372.917C121.642 372.79 121.799 372.727 121.986 372.727C122.167 372.727 122.32 372.79 122.447 372.917C122.573 373.043 122.637 373.2 122.637 373.387C122.637 373.573 122.573 373.73 122.447 373.857C122.32 373.983 122.167 374.047 121.986 374.047ZM122.492 374.706V379.688H121.462V374.706H122.492ZM125.047 375.547V378.304C125.047 378.491 125.09 378.627 125.174 378.711C125.264 378.79 125.415 378.829 125.626 378.829H126.259V379.688H125.445C124.981 379.688 124.626 379.579 124.378 379.362C124.131 379.145 124.008 378.793 124.008 378.304V375.547H123.42V374.706H124.008V373.468H125.047V374.706H126.259V375.547H125.047ZM131.693 374.706L128.637 382.029H127.57L128.583 379.606L126.621 374.706H127.769L129.17 378.503L130.626 374.706H131.693ZM136.889 379.751C136.467 379.751 136.087 379.678 135.75 379.534C135.412 379.383 135.147 379.172 134.954 378.901C134.761 378.63 134.665 378.313 134.665 377.952H135.768C135.792 378.223 135.897 378.446 136.084 378.621C136.277 378.796 136.545 378.883 136.889 378.883C137.244 378.883 137.521 378.799 137.72 378.63C137.919 378.455 138.019 378.232 138.019 377.961C138.019 377.75 137.955 377.578 137.829 377.446C137.708 377.313 137.555 377.211 137.368 377.138C137.187 377.066 136.934 376.988 136.608 376.903C136.199 376.795 135.864 376.686 135.605 376.578C135.352 376.463 135.135 376.288 134.954 376.053C134.773 375.818 134.683 375.505 134.683 375.113C134.683 374.752 134.773 374.435 134.954 374.164C135.135 373.893 135.388 373.685 135.713 373.54C136.039 373.396 136.416 373.323 136.843 373.323C137.452 373.323 137.949 373.477 138.335 373.784C138.727 374.086 138.944 374.502 138.986 375.032H137.847C137.829 374.803 137.72 374.607 137.521 374.444C137.323 374.282 137.06 374.2 136.735 374.2C136.44 374.2 136.199 374.276 136.012 374.426C135.825 374.577 135.732 374.794 135.732 375.077C135.732 375.27 135.789 375.43 135.903 375.556C136.024 375.677 136.175 375.773 136.355 375.845C136.536 375.918 136.783 375.996 137.097 376.081C137.512 376.195 137.85 376.31 138.109 376.424C138.374 376.539 138.597 376.716 138.778 376.957C138.965 377.192 139.058 377.509 139.058 377.907C139.058 378.226 138.971 378.527 138.796 378.811C138.627 379.094 138.377 379.323 138.046 379.498C137.72 379.666 137.335 379.751 136.889 379.751ZM141.477 375.547V378.304C141.477 378.491 141.519 378.627 141.603 378.711C141.694 378.79 141.844 378.829 142.055 378.829H142.688V379.688H141.874C141.41 379.688 141.055 379.579 140.808 379.362C140.561 379.145 140.437 378.793 140.437 378.304V375.547H139.849V374.706H140.437V373.468H141.477V374.706H142.688V375.547H141.477ZM144.668 375.43C144.819 375.177 145.018 374.981 145.265 374.842C145.518 374.697 145.817 374.625 146.16 374.625V375.692H145.898C145.494 375.692 145.187 375.794 144.976 375.999C144.771 376.204 144.668 376.56 144.668 377.066V379.688H143.638V374.706H144.668V375.43ZM151.673 377.075C151.673 377.262 151.66 377.431 151.636 377.581H147.831C147.861 377.979 148.008 378.298 148.273 378.539C148.539 378.78 148.864 378.901 149.25 378.901C149.804 378.901 150.196 378.669 150.425 378.205H151.537C151.386 378.663 151.112 379.04 150.714 379.335C150.323 379.624 149.834 379.769 149.25 379.769C148.774 379.769 148.346 379.663 147.966 379.452C147.592 379.235 147.297 378.934 147.08 378.548C146.869 378.157 146.764 377.705 146.764 377.192C146.764 376.68 146.866 376.231 147.071 375.845C147.282 375.454 147.574 375.152 147.948 374.941C148.328 374.731 148.762 374.625 149.25 374.625C149.72 374.625 150.139 374.728 150.506 374.932C150.874 375.137 151.16 375.427 151.365 375.8C151.57 376.168 151.673 376.593 151.673 377.075ZM150.597 376.749C150.591 376.37 150.455 376.065 150.19 375.836C149.925 375.607 149.596 375.493 149.205 375.493C148.849 375.493 148.545 375.607 148.292 375.836C148.038 376.059 147.888 376.364 147.84 376.749H150.597ZM152.343 377.174C152.343 376.674 152.446 376.231 152.651 375.845C152.861 375.46 153.145 375.161 153.5 374.951C153.862 374.734 154.26 374.625 154.694 374.625C155.085 374.625 155.426 374.703 155.715 374.86C156.01 375.011 156.245 375.201 156.42 375.43V374.706H157.46V379.688H156.42V378.946C156.245 379.181 156.007 379.377 155.706 379.534C155.405 379.691 155.061 379.769 154.676 379.769C154.248 379.769 153.856 379.66 153.5 379.443C153.145 379.22 152.861 378.913 152.651 378.521C152.446 378.124 152.343 377.675 152.343 377.174ZM156.42 377.192C156.42 376.849 156.348 376.551 156.203 376.297C156.065 376.044 155.881 375.852 155.652 375.719C155.423 375.586 155.176 375.52 154.911 375.52C154.645 375.52 154.398 375.586 154.169 375.719C153.94 375.845 153.753 376.035 153.609 376.288C153.47 376.536 153.401 376.831 153.401 377.174C153.401 377.518 153.47 377.819 153.609 378.078C153.753 378.338 153.94 378.536 154.169 378.675C154.404 378.808 154.651 378.874 154.911 378.874C155.176 378.874 155.423 378.808 155.652 378.675C155.881 378.542 156.065 378.35 156.203 378.096C156.348 377.837 156.42 377.536 156.42 377.192ZM160.784 377.201L163.08 379.688H161.688L159.844 377.545V379.688H158.813V372.998H159.844V376.885L161.652 374.706H163.08L160.784 377.201Z" fill="#B0B0B0"/>
<path d="M282.107 372.047V372.888H280.435V378.33H279.404V372.888H277.723V372.047H282.107ZM285.311 378.411C284.841 378.411 284.416 378.306 284.037 378.095C283.657 377.878 283.359 377.577 283.142 377.191C282.925 376.799 282.816 376.347 282.816 375.835C282.816 375.329 282.928 374.88 283.151 374.488C283.374 374.096 283.678 373.795 284.064 373.584C284.45 373.373 284.88 373.268 285.357 373.268C285.833 373.268 286.264 373.373 286.649 373.584C287.035 373.795 287.339 374.096 287.562 374.488C287.785 374.88 287.897 375.329 287.897 375.835C287.897 376.341 287.782 376.79 287.553 377.182C287.324 377.574 287.011 377.878 286.613 378.095C286.221 378.306 285.787 378.411 285.311 378.411ZM285.311 377.516C285.577 377.516 285.824 377.453 286.053 377.327C286.288 377.2 286.478 377.01 286.622 376.757C286.767 376.504 286.839 376.197 286.839 375.835C286.839 375.473 286.77 375.169 286.631 374.922C286.493 374.669 286.309 374.479 286.08 374.352C285.851 374.226 285.604 374.163 285.338 374.163C285.073 374.163 284.826 374.226 284.597 374.352C284.374 374.479 284.196 374.669 284.064 374.922C283.931 375.169 283.865 375.473 283.865 375.835C283.865 376.371 284.001 376.787 284.272 377.083C284.549 377.372 284.896 377.516 285.311 377.516ZM290.118 374.19V376.947C290.118 377.134 290.16 377.269 290.244 377.354C290.335 377.432 290.486 377.471 290.696 377.471H291.329V378.33H290.516C290.052 378.33 289.696 378.222 289.449 378.005C289.202 377.788 289.078 377.435 289.078 376.947V374.19H288.491V373.349H289.078V372.111H290.118V373.349H291.329V374.19H290.118ZM291.936 375.817C291.936 375.317 292.038 374.874 292.243 374.488C292.454 374.102 292.737 373.804 293.093 373.593C293.454 373.376 293.852 373.268 294.286 373.268C294.678 373.268 295.018 373.346 295.308 373.503C295.603 373.653 295.838 373.843 296.013 374.072V373.349H297.052V378.33H296.013V377.589C295.838 377.824 295.6 378.02 295.298 378.176C294.997 378.333 294.654 378.411 294.268 378.411C293.84 378.411 293.448 378.303 293.093 378.086C292.737 377.863 292.454 377.556 292.243 377.164C292.038 376.766 291.936 376.317 291.936 375.817ZM296.013 375.835C296.013 375.492 295.94 375.193 295.796 374.94C295.657 374.687 295.473 374.494 295.244 374.362C295.015 374.229 294.768 374.163 294.503 374.163C294.238 374.163 293.991 374.229 293.762 374.362C293.533 374.488 293.346 374.678 293.201 374.931C293.063 375.178 292.993 375.473 292.993 375.817C292.993 376.16 293.063 376.462 293.201 376.721C293.346 376.98 293.533 377.179 293.762 377.318C293.997 377.45 294.244 377.516 294.503 377.516C294.768 377.516 295.015 377.45 295.244 377.318C295.473 377.185 295.657 376.992 295.796 376.739C295.94 376.48 296.013 376.179 296.013 375.835ZM299.436 371.64V378.33H298.406V371.64H299.436ZM307.197 372.047V372.888H305.524V378.33H304.494V372.888H302.812V372.047H307.197ZM308.765 372.689C308.578 372.689 308.421 372.626 308.295 372.499C308.168 372.373 308.105 372.216 308.105 372.029C308.105 371.842 308.168 371.686 308.295 371.559C308.421 371.433 308.578 371.369 308.765 371.369C308.946 371.369 309.099 371.433 309.226 371.559C309.352 371.686 309.416 371.842 309.416 372.029C309.416 372.216 309.352 372.373 309.226 372.499C309.099 372.626 308.946 372.689 308.765 372.689ZM309.271 373.349V378.33H308.24V373.349H309.271ZM316.654 373.268C317.045 373.268 317.395 373.349 317.702 373.512C318.016 373.674 318.26 373.916 318.435 374.235C318.615 374.554 318.706 374.94 318.706 375.392V378.33H317.684V375.546C317.684 375.1 317.573 374.759 317.35 374.524C317.127 374.283 316.822 374.163 316.437 374.163C316.051 374.163 315.744 374.283 315.515 374.524C315.292 374.759 315.18 375.1 315.18 375.546V378.33H314.159V375.546C314.159 375.1 314.047 374.759 313.824 374.524C313.601 374.283 313.297 374.163 312.911 374.163C312.525 374.163 312.218 374.283 311.989 374.524C311.766 374.759 311.655 375.1 311.655 375.546V378.33H310.624V373.349H311.655V373.919C311.823 373.714 312.037 373.554 312.296 373.439C312.556 373.325 312.833 373.268 313.128 373.268C313.526 373.268 313.881 373.352 314.195 373.521C314.508 373.69 314.749 373.934 314.918 374.253C315.069 373.952 315.304 373.714 315.623 373.539C315.943 373.358 316.286 373.268 316.654 373.268ZM324.582 375.718C324.582 375.904 324.57 376.073 324.546 376.224H320.74C320.771 376.622 320.918 376.941 321.183 377.182C321.449 377.423 321.774 377.544 322.16 377.544C322.714 377.544 323.106 377.312 323.335 376.848H324.447C324.296 377.306 324.022 377.682 323.624 377.978C323.232 378.267 322.744 378.411 322.16 378.411C321.684 378.411 321.256 378.306 320.876 378.095C320.502 377.878 320.207 377.577 319.99 377.191C319.779 376.799 319.674 376.347 319.674 375.835C319.674 375.323 319.776 374.874 319.981 374.488C320.192 374.096 320.484 373.795 320.858 373.584C321.238 373.373 321.672 373.268 322.16 373.268C322.63 373.268 323.049 373.37 323.416 373.575C323.784 373.78 324.07 374.069 324.275 374.443C324.48 374.81 324.582 375.235 324.582 375.718ZM323.507 375.392C323.501 375.012 323.365 374.708 323.1 374.479C322.835 374.25 322.506 374.136 322.114 374.136C321.759 374.136 321.455 374.25 321.201 374.479C320.948 374.702 320.798 375.006 320.749 375.392H323.507ZM330.015 378.393C329.593 378.393 329.213 378.321 328.876 378.176C328.539 378.026 328.273 377.815 328.08 377.544C327.888 377.272 327.791 376.956 327.791 376.594H328.894C328.918 376.866 329.024 377.089 329.21 377.263C329.403 377.438 329.672 377.526 330.015 377.526C330.371 377.526 330.648 377.441 330.847 377.272C331.046 377.098 331.145 376.875 331.145 376.603C331.145 376.392 331.082 376.221 330.955 376.088C330.835 375.956 330.681 375.853 330.494 375.781C330.313 375.708 330.06 375.63 329.735 375.546C329.325 375.437 328.991 375.329 328.731 375.22C328.478 375.106 328.261 374.931 328.08 374.696C327.9 374.461 327.809 374.148 327.809 373.756C327.809 373.394 327.9 373.078 328.08 372.807C328.261 372.535 328.514 372.327 328.84 372.183C329.165 372.038 329.542 371.966 329.97 371.966C330.579 371.966 331.076 372.12 331.461 372.427C331.853 372.728 332.07 373.144 332.112 373.674H330.973C330.955 373.445 330.847 373.25 330.648 373.087C330.449 372.924 330.187 372.843 329.861 372.843C329.566 372.843 329.325 372.918 329.138 373.069C328.951 373.219 328.858 373.436 328.858 373.72C328.858 373.913 328.915 374.072 329.03 374.199C329.15 374.319 329.301 374.416 329.482 374.488C329.662 374.56 329.91 374.639 330.223 374.723C330.639 374.838 330.976 374.952 331.235 375.067C331.501 375.181 331.724 375.359 331.904 375.6C332.091 375.835 332.185 376.151 332.185 376.549C332.185 376.869 332.097 377.17 331.922 377.453C331.754 377.736 331.504 377.965 331.172 378.14C330.847 378.309 330.461 378.393 330.015 378.393ZM334.431 374.081C334.606 373.852 334.844 373.659 335.145 373.503C335.447 373.346 335.787 373.268 336.167 373.268C336.601 373.268 336.996 373.376 337.351 373.593C337.713 373.804 337.996 374.102 338.201 374.488C338.406 374.874 338.508 375.317 338.508 375.817C338.508 376.317 338.406 376.766 338.201 377.164C337.996 377.556 337.713 377.863 337.351 378.086C336.996 378.303 336.601 378.411 336.167 378.411C335.787 378.411 335.45 378.336 335.154 378.185C334.859 378.029 334.618 377.836 334.431 377.607V380.699H333.401V373.349H334.431V374.081ZM337.46 375.817C337.46 375.473 337.387 375.178 337.243 374.931C337.104 374.678 336.917 374.488 336.682 374.362C336.453 374.229 336.206 374.163 335.941 374.163C335.682 374.163 335.435 374.229 335.2 374.362C334.971 374.494 334.784 374.687 334.639 374.94C334.501 375.193 334.431 375.492 334.431 375.835C334.431 376.179 334.501 376.48 334.639 376.739C334.784 376.992 334.971 377.185 335.2 377.318C335.435 377.45 335.682 377.516 335.941 377.516C336.206 377.516 336.453 377.45 336.682 377.318C336.917 377.179 337.104 376.98 337.243 376.721C337.387 376.462 337.46 376.16 337.46 375.817ZM344.093 375.718C344.093 375.904 344.081 376.073 344.056 376.224H340.251C340.281 376.622 340.428 376.941 340.694 377.182C340.959 377.423 341.284 377.544 341.67 377.544C342.224 377.544 342.616 377.312 342.845 376.848H343.957C343.806 377.306 343.532 377.682 343.134 377.978C342.743 378.267 342.254 378.411 341.67 378.411C341.194 378.411 340.766 378.306 340.386 378.095C340.013 377.878 339.717 377.577 339.5 377.191C339.289 376.799 339.184 376.347 339.184 375.835C339.184 375.323 339.286 374.874 339.491 374.488C339.702 374.096 339.994 373.795 340.368 373.584C340.748 373.373 341.182 373.268 341.67 373.268C342.14 373.268 342.559 373.37 342.926 373.575C343.294 373.78 343.58 374.069 343.785 374.443C343.99 374.81 344.093 375.235 344.093 375.718ZM343.017 375.392C343.011 375.012 342.875 374.708 342.61 374.479C342.345 374.25 342.016 374.136 341.625 374.136C341.269 374.136 340.965 374.25 340.712 374.479C340.459 374.702 340.308 375.006 340.26 375.392H343.017ZM347.62 373.268C348.012 373.268 348.361 373.349 348.669 373.512C348.982 373.674 349.226 373.916 349.401 374.235C349.576 374.554 349.663 374.94 349.663 375.392V378.33H348.641V375.546C348.641 375.1 348.53 374.759 348.307 374.524C348.084 374.283 347.78 374.163 347.394 374.163C347.008 374.163 346.701 374.283 346.472 374.524C346.249 374.759 346.137 375.1 346.137 375.546V378.33H345.107V373.349H346.137V373.919C346.306 373.714 346.52 373.554 346.779 373.439C347.044 373.325 347.325 373.268 347.62 373.268ZM352.18 374.19V376.947C352.18 377.134 352.222 377.269 352.306 377.354C352.397 377.432 352.547 377.471 352.758 377.471H353.391V378.33H352.578C352.114 378.33 351.758 378.222 351.511 378.005C351.264 377.788 351.14 377.435 351.14 376.947V374.19H350.553V373.349H351.14V372.111H352.18V373.349H353.391V374.19H352.18Z" fill="#B0B0B0"/>
<circle cx="50.1896" cy="383.322" r="17.7047" fill="#3AA959" fill-opacity="0.23"/>
<path d="M58.4019 389.437H43.3762V375.809C43.3762 375.713 43.2975 375.635 43.2014 375.635H41.9784C41.8823 375.635 41.8037 375.713 41.8037 375.809V390.835C41.8037 390.931 41.8823 391.01 41.9784 391.01H58.4019C58.498 391.01 58.5766 390.931 58.5766 390.835V389.612C58.5766 389.516 58.498 389.437 58.4019 389.437ZM45.6868 386.068C45.7545 386.135 45.8637 386.135 45.9336 386.068L48.954 383.062L51.7408 385.867C51.8085 385.934 51.9198 385.934 51.9875 385.867L58.0022 379.854C58.0699 379.786 58.0699 379.675 58.0022 379.607L57.1373 378.743C57.1045 378.71 57.0602 378.692 57.014 378.692C56.9677 378.692 56.9234 378.71 56.8906 378.743L51.8674 383.763L49.0851 380.964C49.0522 380.931 49.0079 380.913 48.9617 380.913C48.9155 380.913 48.8711 380.931 48.8383 380.964L44.8241 384.954C44.7916 384.987 44.7734 385.031 44.7734 385.077C44.7734 385.123 44.7916 385.168 44.8241 385.201L45.6868 386.068Z" fill="#3AA959"/>
<circle cx="257.559" cy="383.322" r="17.7047" fill="#3AA959" fill-opacity="0.23"/>
<path d="M257.557 375.168C257.58 375.389 257.513 375.61 257.373 375.782C257.232 375.955 257.029 376.064 256.808 376.087C255.441 376.229 254.141 376.755 253.061 377.605C251.981 378.455 251.163 379.594 250.703 380.89C250.244 382.185 250.16 383.585 250.463 384.925C250.766 386.266 251.443 387.494 252.415 388.466C253.386 389.439 254.614 390.115 255.955 390.419C257.296 390.722 258.695 390.639 259.991 390.18C261.286 389.72 262.425 388.903 263.276 387.823C264.126 386.743 264.653 385.444 264.795 384.076C264.821 383.858 264.932 383.658 265.104 383.52C265.275 383.382 265.495 383.318 265.714 383.34C265.933 383.363 266.134 383.471 266.274 383.64C266.415 383.81 266.483 384.028 266.464 384.247C266.289 385.93 265.641 387.529 264.595 388.859C263.549 390.188 262.147 391.194 260.552 391.76C258.958 392.326 257.236 392.428 255.586 392.055C253.935 391.682 252.424 390.849 251.228 389.653C250.032 388.456 249.199 386.945 248.827 385.295C248.454 383.644 248.557 381.922 249.123 380.328C249.689 378.734 250.695 377.332 252.025 376.286C253.355 375.24 254.954 374.593 256.637 374.418C256.747 374.407 256.857 374.418 256.963 374.449C257.069 374.481 257.167 374.533 257.252 374.602C257.338 374.672 257.409 374.758 257.461 374.855C257.513 374.952 257.546 375.058 257.557 375.168Z" fill="#3AA959"/>
<path d="M258.698 375.092C258.75 374.876 258.885 374.689 259.075 374.573C259.265 374.457 259.492 374.421 259.709 374.472C260.132 374.573 260.544 374.705 260.942 374.864C261.047 374.902 261.143 374.962 261.225 375.038C261.307 375.115 261.372 375.207 261.418 375.309C261.464 375.411 261.488 375.522 261.491 375.634C261.493 375.746 261.473 375.857 261.431 375.961C261.39 376.065 261.328 376.16 261.249 376.239C261.171 376.319 261.077 376.382 260.973 376.425C260.87 376.468 260.759 376.49 260.647 376.489C260.535 376.489 260.424 376.465 260.321 376.421C259.997 376.293 259.662 376.187 259.318 376.104C259.211 376.078 259.11 376.032 259.021 375.967C258.932 375.902 258.856 375.821 258.799 375.727C258.741 375.633 258.703 375.529 258.685 375.42C258.668 375.311 258.672 375.2 258.698 375.093V375.092Z" fill="#3AA959"/>
<path d="M266.017 379.939C265.934 379.732 265.773 379.566 265.569 379.479C265.365 379.391 265.134 379.387 264.927 379.47C264.72 379.552 264.555 379.713 264.467 379.917C264.379 380.122 264.376 380.353 264.458 380.559C264.588 380.884 264.694 381.219 264.777 381.563C264.829 381.78 264.964 381.967 265.154 382.083C265.248 382.141 265.352 382.179 265.461 382.196C265.57 382.214 265.681 382.209 265.788 382.184C265.895 382.158 265.996 382.111 266.085 382.047C266.174 381.982 266.25 381.9 266.308 381.806C266.365 381.712 266.404 381.608 266.421 381.499C266.438 381.39 266.434 381.279 266.408 381.172C266.307 380.752 266.177 380.34 266.017 379.939Z" fill="#3AA959"/>
<path d="M262.356 376.53C262.502 376.362 262.709 376.259 262.931 376.244C263.153 376.229 263.371 376.302 263.539 376.448C263.882 376.747 264.203 377.071 264.499 377.418C264.637 377.588 264.703 377.805 264.683 378.024C264.663 378.242 264.559 378.444 264.392 378.586C264.225 378.728 264.009 378.799 263.79 378.784C263.571 378.769 263.367 378.669 263.222 378.505C262.981 378.222 262.719 377.957 262.439 377.713C262.271 377.567 262.168 377.36 262.152 377.139C262.137 376.917 262.21 376.698 262.356 376.53Z" fill="#3AA959"/>
<path d="M257.56 378.569C257.56 378.347 257.471 378.133 257.314 377.976C257.157 377.819 256.943 377.73 256.721 377.73C256.499 377.73 256.285 377.819 256.128 377.976C255.971 378.133 255.882 378.347 255.882 378.569V384.16C255.882 384.624 256.258 384.999 256.721 384.999H260.076C260.298 384.999 260.511 384.91 260.669 384.753C260.826 384.596 260.914 384.382 260.914 384.16C260.914 383.938 260.826 383.724 260.669 383.567C260.511 383.41 260.298 383.321 260.076 383.321H257.56V378.569Z" fill="#3AA959"/>
</svg>
