<svg width="907" height="459" viewBox="0 0 907 459" fill="none" xmlns="http://www.w3.org/2000/svg">
<rect x="1" y="0.646484" width="905" height="457" rx="6.4547" fill="white" stroke="#E5E5E5" stroke-width="1.29094"/>
<path d="M841.186 132.16H839.816V123.078L837.068 124.087V122.849L840.973 121.383H841.186V132.16ZM851.029 121.428V122.584H850.779C849.718 122.604 848.874 122.918 848.245 123.527C847.616 124.136 847.253 124.993 847.155 126.098C847.72 125.449 848.491 125.125 849.468 125.125C850.401 125.125 851.145 125.454 851.7 126.112C852.26 126.771 852.54 127.62 852.54 128.661C852.54 129.766 852.238 130.65 851.634 131.313C851.034 131.976 850.229 132.307 849.217 132.307C848.191 132.307 847.359 131.915 846.72 131.129C846.082 130.338 845.763 129.322 845.763 128.079V127.556C845.763 125.582 846.182 124.074 847.022 123.033C847.867 121.987 849.122 121.452 850.786 121.428H851.029ZM849.239 126.26C848.773 126.26 848.343 126.4 847.95 126.68C847.558 126.96 847.285 127.311 847.133 127.733V128.234C847.133 129.118 847.332 129.83 847.729 130.37C848.127 130.91 848.623 131.18 849.217 131.18C849.831 131.18 850.312 130.955 850.661 130.503C851.015 130.051 851.192 129.459 851.192 128.727C851.192 127.991 851.012 127.397 850.654 126.945C850.3 126.488 849.829 126.26 849.239 126.26ZM861.16 124.234C861.16 124.769 861.018 125.246 860.733 125.663C860.453 126.081 860.072 126.407 859.591 126.643C860.151 126.883 860.593 127.235 860.917 127.696C861.246 128.158 861.41 128.681 861.41 129.265C861.41 130.193 861.096 130.932 860.468 131.482C859.844 132.032 859.021 132.307 858 132.307C856.969 132.307 856.141 132.032 855.517 131.482C854.899 130.928 854.589 130.188 854.589 129.265C854.589 128.686 854.746 128.163 855.061 127.696C855.38 127.23 855.82 126.876 856.379 126.635C855.903 126.4 855.527 126.073 855.252 125.656C854.977 125.238 854.84 124.764 854.84 124.234C854.84 123.33 855.13 122.613 855.709 122.083C856.288 121.553 857.052 121.288 858 121.288C858.943 121.288 859.704 121.553 860.283 122.083C860.868 122.613 861.16 123.33 861.16 124.234ZM860.048 129.236C860.048 128.637 859.856 128.148 859.473 127.77C859.095 127.392 858.599 127.203 857.985 127.203C857.371 127.203 856.878 127.389 856.505 127.763C856.136 128.136 855.952 128.627 855.952 129.236C855.952 129.845 856.131 130.324 856.49 130.672C856.853 131.021 857.357 131.195 858 131.195C858.638 131.195 859.139 131.021 859.503 130.672C859.866 130.319 860.048 129.84 860.048 129.236ZM858 122.407C857.465 122.407 857.03 122.574 856.696 122.908C856.367 123.237 856.203 123.687 856.203 124.256C856.203 124.801 856.365 125.243 856.689 125.582C857.018 125.916 857.455 126.083 858 126.083C858.545 126.083 858.98 125.916 859.304 125.582C859.633 125.243 859.797 124.801 859.797 124.256C859.797 123.711 859.628 123.267 859.289 122.923C858.95 122.579 858.52 122.407 858 122.407Z" fill="#263238"/>
<path d="M800.453 170.191H799.083V161.109L796.335 162.118V160.88L800.239 159.415H800.453V170.191ZM805.574 164.814L806.12 159.466H811.615V160.726H807.276L806.952 163.65C807.477 163.341 808.074 163.186 808.742 163.186C809.719 163.186 810.495 163.51 811.07 164.158C811.644 164.802 811.932 165.673 811.932 166.773C811.932 167.878 811.632 168.75 811.033 169.388C810.439 170.022 809.606 170.339 808.536 170.339C807.588 170.339 806.814 170.076 806.215 169.551C805.616 169.025 805.275 168.298 805.191 167.37H806.48C806.564 167.984 806.782 168.448 807.136 168.762C807.49 169.072 807.956 169.226 808.536 169.226C809.169 169.226 809.665 169.01 810.024 168.578C810.387 168.146 810.569 167.549 810.569 166.788C810.569 166.071 810.372 165.497 809.979 165.064C809.591 164.627 809.073 164.409 808.425 164.409C807.831 164.409 807.364 164.539 807.026 164.799L806.665 165.094L805.574 164.814ZM820.648 165.617C820.648 167.213 820.375 168.399 819.83 169.175C819.285 169.951 818.433 170.339 817.274 170.339C816.13 170.339 815.283 169.961 814.733 169.204C814.183 168.443 813.898 167.309 813.878 165.801V163.982C813.878 162.405 814.151 161.234 814.696 160.468C815.241 159.702 816.095 159.319 817.259 159.319C818.413 159.319 819.263 159.69 819.808 160.431C820.353 161.168 820.633 162.307 820.648 163.849V165.617ZM819.285 163.753C819.285 162.599 819.123 161.759 818.799 161.234C818.475 160.704 817.962 160.438 817.259 160.438C816.562 160.438 816.054 160.701 815.734 161.227C815.415 161.752 815.251 162.56 815.241 163.65V165.831C815.241 166.99 815.408 167.846 815.742 168.401C816.081 168.951 816.591 169.226 817.274 169.226C817.947 169.226 818.445 168.966 818.769 168.446C819.098 167.925 819.27 167.105 819.285 165.985V163.753Z" fill="#263238"/>
<path d="M724.201 208.225H722.831V199.142L720.083 200.151V198.914L723.988 197.448H724.201V208.225ZM729.323 202.847L729.868 197.499H735.363V198.759H731.024L730.7 201.683C731.226 201.374 731.822 201.219 732.49 201.219C733.467 201.219 734.243 201.543 734.818 202.192C735.393 202.835 735.68 203.707 735.68 204.807C735.68 205.912 735.38 206.783 734.781 207.422C734.187 208.055 733.355 208.372 732.284 208.372C731.336 208.372 730.563 208.109 729.964 207.584C729.364 207.058 729.023 206.331 728.94 205.403H730.229C730.312 206.017 730.531 206.481 730.884 206.796C731.238 207.105 731.704 207.26 732.284 207.26C732.917 207.26 733.413 207.044 733.772 206.611C734.135 206.179 734.317 205.583 734.317 204.821C734.317 204.104 734.121 203.53 733.728 203.098C733.34 202.661 732.822 202.442 732.173 202.442C731.579 202.442 731.113 202.572 730.774 202.833L730.413 203.127L729.323 202.847ZM738.297 202.847L738.842 197.499H744.337V198.759H739.998L739.674 201.683C740.2 201.374 740.796 201.219 741.464 201.219C742.442 201.219 743.217 201.543 743.792 202.192C744.367 202.835 744.654 203.707 744.654 204.807C744.654 205.912 744.354 206.783 743.755 207.422C743.161 208.055 742.329 208.372 741.258 208.372C740.31 208.372 739.537 208.109 738.938 207.584C738.339 207.058 737.997 206.331 737.914 205.403H739.203C739.286 206.017 739.505 206.481 739.858 206.796C740.212 207.105 740.679 207.26 741.258 207.26C741.892 207.26 742.388 207.044 742.746 206.611C743.109 206.179 743.291 205.583 743.291 204.821C743.291 204.104 743.095 203.53 742.702 203.098C742.314 202.661 741.796 202.442 741.148 202.442C740.553 202.442 740.087 202.572 739.748 202.833L739.387 203.127L738.297 202.847Z" fill="#263238"/>
<path d="M478.331 242.658H479.819V243.77H478.331V246.26H476.961V243.77H472.077V242.967L476.88 235.534H478.331V242.658ZM473.624 242.658H476.961V237.398L476.798 237.693L473.624 242.658ZM488.277 241.685C488.277 243.281 488.005 244.467 487.459 245.243C486.914 246.019 486.062 246.407 484.903 246.407C483.759 246.407 482.912 246.029 482.362 245.273C481.812 244.512 481.527 243.377 481.507 241.869V240.05C481.507 238.474 481.78 237.302 482.325 236.536C482.87 235.77 483.725 235.387 484.889 235.387C486.043 235.387 486.892 235.758 487.437 236.499C487.982 237.236 488.262 238.375 488.277 239.917V241.685ZM486.914 239.822C486.914 238.668 486.752 237.828 486.428 237.302C486.104 236.772 485.591 236.507 484.889 236.507C484.191 236.507 483.683 236.77 483.364 237.295C483.045 237.82 482.88 238.628 482.87 239.719V241.899C482.87 243.058 483.037 243.915 483.371 244.47C483.71 245.02 484.221 245.295 484.903 245.295C485.576 245.295 486.075 245.035 486.399 244.514C486.728 243.993 486.9 243.173 486.914 242.054V239.822Z" fill="#263238"/>
<path d="M395.045 278.916L395.591 273.568H401.086V274.827H396.747L396.423 277.752C396.948 277.442 397.545 277.288 398.213 277.288C399.19 277.288 399.966 277.612 400.541 278.26C401.115 278.903 401.403 279.775 401.403 280.875C401.403 281.98 401.103 282.852 400.504 283.49C399.91 284.124 399.077 284.44 398.007 284.44C397.059 284.44 396.285 284.178 395.686 283.652C395.087 283.127 394.746 282.4 394.662 281.472H395.952C396.035 282.086 396.254 282.55 396.607 282.864C396.961 283.173 397.427 283.328 398.007 283.328C398.64 283.328 399.136 283.112 399.495 282.68C399.858 282.248 400.04 281.651 400.04 280.89C400.04 280.173 399.843 279.598 399.451 279.166C399.063 278.729 398.544 278.51 397.896 278.51C397.302 278.51 396.835 278.641 396.497 278.901L396.136 279.196L395.045 278.916ZM410.119 279.719C410.119 281.315 409.846 282.501 409.301 283.276C408.756 284.052 407.904 284.44 406.745 284.44C405.601 284.44 404.754 284.062 404.204 283.306C403.654 282.545 403.369 281.41 403.349 279.903V278.083C403.349 276.507 403.622 275.336 404.167 274.57C404.712 273.803 405.566 273.42 406.73 273.42C407.884 273.42 408.734 273.791 409.279 274.533C409.824 275.269 410.104 276.409 410.119 277.951V279.719ZM408.756 277.855C408.756 276.701 408.594 275.861 408.27 275.336C407.946 274.805 407.433 274.54 406.73 274.54C406.033 274.54 405.525 274.803 405.206 275.328C404.886 275.854 404.722 276.662 404.712 277.752V279.932C404.712 281.091 404.879 281.948 405.213 282.503C405.552 283.053 406.062 283.328 406.745 283.328C407.418 283.328 407.916 283.068 408.24 282.547C408.569 282.027 408.741 281.207 408.756 280.087V277.855Z" fill="#263238"/>
<path d="M312.483 318.724H313.971V319.836H312.483V322.326H311.113V319.836H306.229V319.033L311.032 311.601H312.483V318.724ZM307.776 318.724H311.113V313.465L310.951 313.759L307.776 318.724ZM316.33 316.949L316.875 311.601H322.371V312.861H318.032L317.708 315.785C318.233 315.476 318.83 315.321 319.498 315.321C320.475 315.321 321.251 315.645 321.825 316.293C322.4 316.937 322.687 317.808 322.687 318.908C322.687 320.013 322.388 320.885 321.789 321.523C321.194 322.157 320.362 322.473 319.291 322.473C318.344 322.473 317.57 322.211 316.971 321.685C316.372 321.16 316.031 320.433 315.947 319.505H317.236C317.32 320.119 317.538 320.583 317.892 320.897C318.245 321.207 318.712 321.361 319.291 321.361C319.925 321.361 320.421 321.145 320.779 320.713C321.143 320.281 321.325 319.684 321.325 318.923C321.325 318.206 321.128 317.631 320.735 317.199C320.347 316.762 319.829 316.544 319.181 316.544C318.587 316.544 318.12 316.674 317.781 316.934L317.42 317.229L316.33 316.949Z" fill="#263238"/>
<path d="M281.247 350.402L276.805 360.361H275.376L279.803 350.756H273.998V349.636H281.247V350.402ZM290.022 355.787C290.022 357.383 289.749 358.569 289.204 359.345C288.659 360.121 287.807 360.509 286.648 360.509C285.504 360.509 284.657 360.131 284.107 359.374C283.557 358.613 283.272 357.479 283.252 355.971V354.152C283.252 352.575 283.525 351.404 284.07 350.638C284.615 349.872 285.47 349.489 286.634 349.489C287.788 349.489 288.637 349.86 289.182 350.601C289.727 351.338 290.007 352.477 290.022 354.019V355.787ZM288.659 353.923C288.659 352.769 288.497 351.929 288.173 351.404C287.849 350.874 287.336 350.608 286.634 350.608C285.936 350.608 285.428 350.871 285.109 351.397C284.79 351.922 284.625 352.73 284.615 353.82V356.001C284.615 357.159 284.782 358.016 285.116 358.571C285.455 359.121 285.966 359.396 286.648 359.396C287.321 359.396 287.82 359.136 288.144 358.616C288.473 358.095 288.645 357.275 288.659 356.155V353.923Z" fill="#263238"/>
<path d="M247.71 392.367H248.734C249.377 392.357 249.883 392.188 250.251 391.859C250.619 391.53 250.804 391.085 250.804 390.525C250.804 389.268 250.177 388.64 248.925 388.64C248.336 388.64 247.864 388.809 247.511 389.148C247.162 389.482 246.988 389.926 246.988 390.481H245.625C245.625 389.632 245.934 388.927 246.553 388.367C247.177 387.802 247.968 387.52 248.925 387.52C249.937 387.52 250.73 387.788 251.304 388.323C251.879 388.858 252.166 389.602 252.166 390.555C252.166 391.021 252.014 391.473 251.71 391.91C251.41 392.347 251 392.674 250.479 392.89C251.069 393.077 251.523 393.386 251.842 393.818C252.166 394.25 252.328 394.778 252.328 395.402C252.328 396.364 252.014 397.128 251.386 397.693C250.757 398.258 249.939 398.54 248.933 398.54C247.926 398.54 247.106 398.267 246.472 397.722C245.844 397.177 245.529 396.458 245.529 395.564H246.899C246.899 396.129 247.084 396.58 247.452 396.919C247.82 397.258 248.314 397.428 248.933 397.428C249.591 397.428 250.094 397.256 250.443 396.912C250.791 396.568 250.966 396.075 250.966 395.431C250.966 394.808 250.774 394.329 250.391 393.995C250.008 393.661 249.456 393.489 248.734 393.479H247.71V392.367ZM255.328 393.015L255.874 387.667H261.369V388.927H257.03L256.706 391.851C257.231 391.542 257.828 391.387 258.496 391.387C259.473 391.387 260.249 391.711 260.824 392.36C261.398 393.003 261.686 393.875 261.686 394.975C261.686 396.08 261.386 396.951 260.787 397.59C260.193 398.223 259.36 398.54 258.29 398.54C257.342 398.54 256.568 398.277 255.969 397.752C255.37 397.226 255.029 396.499 254.945 395.571H256.234C256.318 396.185 256.536 396.649 256.89 396.964C257.244 397.273 257.71 397.428 258.29 397.428C258.923 397.428 259.419 397.212 259.778 396.779C260.141 396.347 260.323 395.751 260.323 394.989C260.323 394.272 260.126 393.698 259.733 393.266C259.345 392.829 258.827 392.61 258.179 392.61C257.585 392.61 257.118 392.74 256.78 393L256.419 393.295L255.328 393.015Z" fill="#263238"/>
<rect x="42.8283" y="103.814" width="758.934" height="37.9422" fill="#3AA959"/>
<path d="M751.304 123.856L749.96 125.254V128.971H748.509V117.972H749.96V123.411L754.847 117.972H756.6L752.271 122.829L756.94 128.971H755.202L751.304 123.856ZM758.725 128.971V117.972H761.83C762.786 117.972 763.632 118.183 764.368 118.606C765.103 119.029 765.67 119.631 766.067 120.412C766.47 121.192 766.674 122.089 766.679 123.101V123.804C766.679 124.841 766.478 125.75 766.075 126.531C765.677 127.311 765.106 127.911 764.36 128.329C763.62 128.747 762.756 128.961 761.769 128.971H758.725ZM760.175 119.165V127.785H761.701C762.819 127.785 763.688 127.437 764.307 126.742C764.932 126.047 765.244 125.058 765.244 123.773V123.131C765.244 121.882 764.949 120.913 764.36 120.223C763.776 119.528 762.945 119.175 761.867 119.165H760.175ZM775.611 123.887H770.844V127.785H776.381V128.971H769.393V117.972H776.306V119.165H770.844V122.701H775.611V123.887ZM780.576 117.972L784.172 126.946L787.767 117.972H789.648V128.971H788.198V124.687L788.334 120.064L784.723 128.971H783.612L780.009 120.087L780.153 124.687V128.971H778.702V117.972H780.576Z" fill="white"/>
<g opacity="0.8">
<rect x="42.8282" y="141.848" width="725.438" height="37.9422" fill="#3AA959"/>
<path d="M646.681 167.004H645.223L639.686 158.528V167.004H638.228V156.005H639.686L645.238 164.519V156.005H646.681V167.004ZM655.982 164.133H651.374L650.339 167.004H648.843L653.043 156.005H654.313L658.52 167.004H657.032L655.982 164.133ZM651.812 162.94H655.551L653.678 157.795L651.812 162.94ZM662.073 167.004H660.622V156.005H662.073V167.004ZM673.701 167.004H672.243L666.706 158.528V167.004H665.248V156.005H666.706L672.258 164.519V156.005H673.701V167.004ZM683.019 156.005L686.615 164.979L690.211 156.005H692.092V167.004H690.641V162.721L690.777 158.097L687.166 167.004H686.056L682.453 158.12L682.596 162.721V167.004H681.146V156.005H683.019ZM699.996 167.004C699.915 166.843 699.85 166.556 699.799 166.143C699.15 166.818 698.374 167.155 697.472 167.155C696.667 167.155 696.004 166.928 695.486 166.475C694.972 166.017 694.715 165.438 694.715 164.738C694.715 163.887 695.037 163.227 695.682 162.758C696.332 162.285 697.243 162.048 698.417 162.048H699.777V161.406C699.777 160.918 699.63 160.53 699.338 160.243C699.046 159.951 698.616 159.805 698.047 159.805C697.548 159.805 697.13 159.931 696.793 160.182C696.455 160.434 696.286 160.739 696.286 161.096H694.881C694.881 160.689 695.025 160.296 695.312 159.918C695.604 159.535 695.997 159.233 696.49 159.012C696.989 158.79 697.535 158.679 698.13 158.679C699.071 158.679 699.809 158.916 700.343 159.389C700.877 159.858 701.154 160.505 701.174 161.331V165.093C701.174 165.843 701.27 166.44 701.461 166.883V167.004H699.996ZM697.676 165.939C698.115 165.939 698.53 165.825 698.923 165.599C699.316 165.372 699.6 165.078 699.777 164.715V163.038H698.681C696.969 163.038 696.113 163.539 696.113 164.541C696.113 164.979 696.259 165.322 696.551 165.569C696.843 165.815 697.218 165.939 697.676 165.939ZM705.202 158.83L705.248 159.858C705.872 159.072 706.688 158.679 707.695 158.679C709.423 158.679 710.294 159.654 710.309 161.603V167.004H708.912V161.595C708.907 161.006 708.771 160.57 708.504 160.288C708.242 160.006 707.831 159.865 707.272 159.865C706.819 159.865 706.421 159.986 706.079 160.228C705.736 160.469 705.469 160.787 705.278 161.18V167.004H703.88V158.83H705.202ZM712.6 162.849C712.6 161.575 712.895 160.563 713.484 159.812C714.073 159.057 714.854 158.679 715.826 158.679C716.823 158.679 717.601 159.032 718.16 159.737L718.228 158.83H719.505V166.807C719.505 167.865 719.19 168.699 718.56 169.308C717.936 169.917 717.095 170.222 716.037 170.222C715.448 170.222 714.871 170.096 714.307 169.844C713.743 169.592 713.313 169.248 713.016 168.809L713.741 167.971C714.34 168.711 715.073 169.081 715.939 169.081C716.619 169.081 717.148 168.89 717.525 168.507C717.908 168.124 718.1 167.586 718.1 166.891V166.188C717.541 166.833 716.778 167.155 715.811 167.155C714.854 167.155 714.078 166.77 713.484 165.999C712.895 165.229 712.6 164.179 712.6 162.849ZM714.005 163.008C714.005 163.929 714.194 164.655 714.572 165.183C714.949 165.707 715.478 165.969 716.158 165.969C717.039 165.969 717.687 165.569 718.1 164.768V161.036C717.671 160.255 717.029 159.865 716.173 159.865C715.493 159.865 714.962 160.13 714.579 160.658C714.197 161.187 714.005 161.97 714.005 163.008ZM727.182 167.004C727.101 166.843 727.036 166.556 726.985 166.143C726.336 166.818 725.56 167.155 724.659 167.155C723.853 167.155 723.191 166.928 722.672 166.475C722.158 166.017 721.901 165.438 721.901 164.738C721.901 163.887 722.224 163.227 722.868 162.758C723.518 162.285 724.429 162.048 725.603 162.048H726.963V161.406C726.963 160.918 726.817 160.53 726.525 160.243C726.232 159.951 725.802 159.805 725.233 159.805C724.734 159.805 724.316 159.931 723.979 160.182C723.641 160.434 723.473 160.739 723.473 161.096H722.068C722.068 160.689 722.211 160.296 722.498 159.918C722.79 159.535 723.183 159.233 723.677 159.012C724.175 158.79 724.722 158.679 725.316 158.679C726.258 158.679 726.995 158.916 727.529 159.389C728.063 159.858 728.34 160.505 728.36 161.331V165.093C728.36 165.843 728.456 166.44 728.647 166.883V167.004H727.182ZM724.863 165.939C725.301 165.939 725.716 165.825 726.109 165.599C726.502 165.372 726.786 165.078 726.963 164.715V163.038H725.867C724.155 163.038 723.299 163.539 723.299 164.541C723.299 164.979 723.445 165.322 723.737 165.569C724.029 165.815 724.404 165.939 724.863 165.939ZM732.585 167.004H731.188V155.401H732.585V167.004ZM734.974 162.842C734.974 162.041 735.13 161.321 735.443 160.681C735.76 160.041 736.198 159.548 736.757 159.2C737.321 158.853 737.963 158.679 738.683 158.679C739.796 158.679 740.695 159.064 741.38 159.835C742.07 160.605 742.415 161.63 742.415 162.91V163.008C742.415 163.803 742.262 164.519 741.954 165.153C741.652 165.783 741.217 166.274 740.647 166.626C740.083 166.979 739.434 167.155 738.698 167.155C737.59 167.155 736.692 166.77 736.002 165.999C735.317 165.229 734.974 164.209 734.974 162.94V162.842ZM736.379 163.008C736.379 163.914 736.588 164.642 737.006 165.191C737.429 165.74 737.993 166.014 738.698 166.014C739.409 166.014 739.973 165.737 740.391 165.183C740.809 164.624 741.018 163.844 741.018 162.842C741.018 161.945 740.804 161.22 740.375 160.666C739.952 160.107 739.388 159.827 738.683 159.827C737.993 159.827 737.437 160.102 737.014 160.651C736.591 161.2 736.379 161.985 736.379 163.008ZM748.634 160.084C748.423 160.049 748.194 160.031 747.947 160.031C747.03 160.031 746.408 160.422 746.081 161.202V167.004H744.683V158.83H746.043L746.066 159.774C746.524 159.044 747.174 158.679 748.015 158.679C748.287 158.679 748.493 158.714 748.634 158.785V160.084ZM753.683 167.155C752.575 167.155 751.673 166.792 750.978 166.067C750.283 165.337 749.936 164.362 749.936 163.144V162.887C749.936 162.076 750.089 161.353 750.396 160.719C750.709 160.079 751.142 159.581 751.696 159.223C752.255 158.86 752.859 158.679 753.509 158.679C754.571 158.679 755.397 159.029 755.987 159.729C756.576 160.429 756.87 161.431 756.87 162.736V163.317H751.333C751.353 164.123 751.587 164.775 752.036 165.274C752.489 165.768 753.063 166.014 753.758 166.014C754.252 166.014 754.67 165.914 755.012 165.712C755.355 165.511 755.654 165.244 755.911 164.911L756.765 165.576C756.08 166.629 755.052 167.155 753.683 167.155ZM753.509 159.827C752.945 159.827 752.471 160.034 752.089 160.447C751.706 160.855 751.469 161.429 751.378 162.169H755.473V162.063C755.433 161.353 755.241 160.804 754.899 160.417C754.556 160.024 754.093 159.827 753.509 159.827Z" fill="white"/>
</g>
<g opacity="0.64">
<rect x="42.8282" y="179.883" width="646.711" height="37.9422" fill="#3AA959"/>
<path d="M554.843 199.925L553.498 201.322V205.039H552.048V194.04H553.498V199.479L558.386 194.04H560.138L555.81 198.897L560.478 205.039H558.741L554.843 199.925ZM564.469 200.937H560.782V199.796H564.469V200.937ZM574.171 195.234H570.635V205.039H569.192V195.234H565.664V194.04H574.171V195.234ZM578.735 205.19C577.627 205.19 576.726 204.828 576.031 204.102C575.336 203.372 574.988 202.398 574.988 201.179V200.922C574.988 200.111 575.142 199.388 575.449 198.754C575.762 198.114 576.195 197.616 576.749 197.258C577.308 196.896 577.912 196.714 578.562 196.714C579.624 196.714 580.45 197.064 581.039 197.764C581.629 198.464 581.923 199.467 581.923 200.771V201.353H576.386C576.406 202.158 576.64 202.811 577.089 203.309C577.542 203.803 578.116 204.049 578.811 204.049C579.304 204.049 579.722 203.949 580.065 203.747C580.407 203.546 580.707 203.279 580.964 202.947L581.817 203.611C581.133 204.664 580.105 205.19 578.735 205.19ZM578.562 197.863C577.998 197.863 577.524 198.069 577.141 198.482C576.759 198.89 576.522 199.464 576.431 200.204H580.526V200.099C580.485 199.388 580.294 198.84 579.952 198.452C579.609 198.059 579.146 197.863 578.562 197.863ZM587.342 204.049C587.84 204.049 588.276 203.898 588.649 203.596C589.021 203.294 589.228 202.916 589.268 202.463H590.59C590.565 202.931 590.404 203.377 590.107 203.8C589.809 204.223 589.412 204.561 588.913 204.812C588.419 205.064 587.896 205.19 587.342 205.19C586.229 205.19 585.342 204.82 584.683 204.08C584.028 203.334 583.701 202.317 583.701 201.028V200.794C583.701 199.998 583.847 199.29 584.139 198.671C584.431 198.051 584.849 197.57 585.393 197.228C585.942 196.886 586.589 196.714 587.334 196.714C588.251 196.714 589.011 196.989 589.615 197.538C590.225 198.087 590.55 198.799 590.59 199.676H589.268C589.228 199.147 589.026 198.714 588.664 198.376C588.306 198.034 587.863 197.863 587.334 197.863C586.624 197.863 586.073 198.119 585.68 198.633C585.292 199.142 585.098 199.88 585.098 200.846V201.111C585.098 202.053 585.292 202.778 585.68 203.286C586.068 203.795 586.621 204.049 587.342 204.049ZM594.074 197.855C594.694 197.095 595.5 196.714 596.492 196.714C598.219 196.714 599.09 197.689 599.106 199.638V205.039H597.708V199.63C597.703 199.041 597.567 198.605 597.3 198.323C597.038 198.041 596.628 197.9 596.069 197.9C595.616 197.9 595.218 198.021 594.875 198.263C594.533 198.505 594.266 198.822 594.074 199.215V205.039H592.677V193.436H594.074V197.855ZM606.286 205.039V194.04H609.882C611.076 194.04 611.972 194.287 612.571 194.78C613.176 195.274 613.478 196.004 613.478 196.971C613.478 197.485 613.332 197.941 613.04 198.338C612.748 198.731 612.35 199.036 611.846 199.253C612.44 199.419 612.909 199.736 613.251 200.204C613.599 200.668 613.772 201.222 613.772 201.866C613.772 202.853 613.453 203.629 612.813 204.193C612.173 204.757 611.269 205.039 610.101 205.039H606.286ZM607.737 199.895V203.853H610.131C610.806 203.853 611.337 203.679 611.725 203.332C612.118 202.979 612.314 202.496 612.314 201.881C612.314 200.557 611.594 199.895 610.154 199.895H607.737ZM607.737 198.731H609.927C610.562 198.731 611.068 198.573 611.446 198.255C611.828 197.938 612.02 197.507 612.02 196.964C612.02 196.359 611.844 195.921 611.491 195.649C611.138 195.372 610.602 195.234 609.882 195.234H607.737V198.731ZM621.268 205.039C621.188 204.878 621.122 204.591 621.072 204.178C620.422 204.853 619.647 205.19 618.745 205.19C617.939 205.19 617.277 204.964 616.758 204.51C616.245 204.052 615.988 203.473 615.988 202.773C615.988 201.922 616.31 201.262 616.955 200.794C617.604 200.32 618.516 200.083 619.689 200.083H621.049V199.441C621.049 198.953 620.903 198.565 620.611 198.278C620.319 197.986 619.888 197.84 619.319 197.84C618.821 197.84 618.403 197.966 618.065 198.218C617.728 198.469 617.559 198.774 617.559 199.132H616.154C616.154 198.724 616.298 198.331 616.585 197.953C616.877 197.57 617.27 197.268 617.763 197.047C618.262 196.825 618.808 196.714 619.402 196.714C620.344 196.714 621.082 196.951 621.616 197.424C622.15 197.893 622.427 198.54 622.447 199.366V203.128C622.447 203.878 622.542 204.475 622.734 204.918V205.039H621.268ZM618.949 203.974C619.387 203.974 619.803 203.861 620.196 203.634C620.588 203.407 620.873 203.113 621.049 202.75V201.073H619.954C618.241 201.073 617.385 201.574 617.385 202.576C617.385 203.015 617.531 203.357 617.823 203.604C618.116 203.851 618.491 203.974 618.949 203.974ZM626.475 196.865L626.52 197.893C627.145 197.107 627.961 196.714 628.968 196.714C630.695 196.714 631.567 197.689 631.582 199.638V205.039H630.184V199.63C630.179 199.041 630.043 198.605 629.776 198.323C629.514 198.041 629.104 197.9 628.545 197.9C628.092 197.9 627.694 198.021 627.351 198.263C627.009 198.505 626.742 198.822 626.551 199.215V205.039H625.153V196.865H626.475ZM633.873 200.884C633.873 199.61 634.167 198.598 634.757 197.847C635.346 197.092 636.126 196.714 637.098 196.714C638.096 196.714 638.874 197.067 639.433 197.772L639.501 196.865H640.777V204.843C640.777 205.9 640.463 206.734 639.833 207.343C639.209 207.952 638.368 208.257 637.31 208.257C636.721 208.257 636.144 208.131 635.58 207.879C635.016 207.628 634.585 207.283 634.288 206.845L635.013 206.006C635.613 206.746 636.346 207.116 637.212 207.116C637.892 207.116 638.42 206.925 638.798 206.542C639.181 206.16 639.372 205.621 639.372 204.926V204.223C638.813 204.868 638.05 205.19 637.083 205.19C636.126 205.19 635.351 204.805 634.757 204.034C634.167 203.264 633.873 202.214 633.873 200.884ZM635.278 201.043C635.278 201.964 635.467 202.69 635.844 203.218C636.222 203.742 636.751 204.004 637.431 204.004C638.312 204.004 638.959 203.604 639.372 202.803V199.071C638.944 198.291 638.302 197.9 637.446 197.9C636.766 197.9 636.235 198.165 635.852 198.694C635.469 199.222 635.278 200.005 635.278 201.043ZM648.454 205.039C648.374 204.878 648.308 204.591 648.258 204.178C647.608 204.853 646.833 205.19 645.931 205.19C645.126 205.19 644.463 204.964 643.945 204.51C643.431 204.052 643.174 203.473 643.174 202.773C643.174 201.922 643.496 201.262 644.141 200.794C644.791 200.32 645.702 200.083 646.876 200.083H648.235V199.441C648.235 198.953 648.089 198.565 647.797 198.278C647.505 197.986 647.075 197.84 646.505 197.84C646.007 197.84 645.589 197.966 645.251 198.218C644.914 198.469 644.745 198.774 644.745 199.132H643.34C643.34 198.724 643.484 198.331 643.771 197.953C644.063 197.57 644.456 197.268 644.949 197.047C645.448 196.825 645.994 196.714 646.589 196.714C647.53 196.714 648.268 196.951 648.802 197.424C649.336 197.893 649.613 198.54 649.633 199.366V203.128C649.633 203.878 649.729 204.475 649.92 204.918V205.039H648.454ZM646.135 203.974C646.573 203.974 646.989 203.861 647.382 203.634C647.775 203.407 648.059 203.113 648.235 202.75V201.073H647.14C645.428 201.073 644.572 201.574 644.572 202.576C644.572 203.015 644.718 203.357 645.01 203.604C645.302 203.851 645.677 203.974 646.135 203.974ZM653.858 205.039H652.46V193.436H653.858V205.039ZM656.247 200.877C656.247 200.076 656.403 199.356 656.715 198.716C657.033 198.077 657.471 197.583 658.03 197.236C658.594 196.888 659.236 196.714 659.956 196.714C661.069 196.714 661.968 197.1 662.653 197.87C663.343 198.641 663.688 199.665 663.688 200.945V201.043C663.688 201.839 663.534 202.554 663.227 203.188C662.925 203.818 662.489 204.309 661.92 204.661C661.356 205.014 660.706 205.19 659.971 205.19C658.863 205.19 657.964 204.805 657.274 204.034C656.589 203.264 656.247 202.244 656.247 200.975V200.877ZM657.652 201.043C657.652 201.949 657.861 202.677 658.279 203.226C658.702 203.775 659.266 204.049 659.971 204.049C660.681 204.049 661.245 203.772 661.663 203.218C662.081 202.659 662.29 201.879 662.29 200.877C662.29 199.98 662.076 199.255 661.648 198.701C661.225 198.142 660.661 197.863 659.956 197.863C659.266 197.863 658.71 198.137 658.287 198.686C657.864 199.235 657.652 200.021 657.652 201.043ZM669.907 198.119C669.695 198.084 669.466 198.067 669.22 198.067C668.303 198.067 667.681 198.457 667.354 199.237V205.039H665.956V196.865H667.316L667.339 197.81C667.797 197.079 668.447 196.714 669.288 196.714C669.559 196.714 669.766 196.75 669.907 196.82V198.119ZM674.955 205.19C673.847 205.19 672.946 204.828 672.251 204.102C671.556 203.372 671.208 202.398 671.208 201.179V200.922C671.208 200.111 671.362 199.388 671.669 198.754C671.981 198.114 672.414 197.616 672.968 197.258C673.527 196.896 674.132 196.714 674.781 196.714C675.844 196.714 676.67 197.064 677.259 197.764C677.848 198.464 678.143 199.467 678.143 200.771V201.353H672.606C672.626 202.158 672.86 202.811 673.308 203.309C673.762 203.803 674.336 204.049 675.031 204.049C675.524 204.049 675.942 203.949 676.285 203.747C676.627 203.546 676.927 203.279 677.184 202.947L678.037 203.611C677.352 204.664 676.325 205.19 674.955 205.19ZM674.781 197.863C674.217 197.863 673.744 198.069 673.361 198.482C672.979 198.89 672.742 199.464 672.651 200.204H676.746V200.099C676.705 199.388 676.514 198.84 676.171 198.452C675.829 198.059 675.366 197.863 674.781 197.863Z" fill="white"/>
</g>
<g opacity="0.56">
<rect x="42.8282" y="217.914" width="411.529" height="37.9422" fill="#3AA959"/>
</g>
<g opacity="0.48">
<rect x="42.8282" y="255.947" width="317.488" height="37.9422" fill="#3AA959"/>
</g>
<g opacity="0.4">
<rect x="42.8282" y="293.982" width="241.05" height="37.9422" fill="#3AA959"/>
</g>
<g opacity="0.16">
<rect x="42.8282" y="332.016" width="212.422" height="37.9422" fill="#263238"/>
</g>
<g opacity="0.64">
<g opacity="0.16">
<rect x="42.8282" y="370.051" width="182.504" height="37.9422" fill="#263238"/>
</g>
</g>
<path d="M39.6791 40.5302H34.9591V53.6211H33.0327V40.5302H28.3228V38.9367H39.6791V40.5302ZM40.6303 48.064C40.6303 46.9949 40.8388 46.0335 41.2556 45.1796C41.6792 44.3257 42.2642 43.6667 43.0105 43.2028C43.7635 42.7389 44.6208 42.5069 45.5823 42.5069C47.0682 42.5069 48.2684 43.0213 49.1828 44.05C50.1039 45.0787 50.5645 46.447 50.5645 48.1548V48.2859C50.5645 49.3482 50.3594 50.303 49.9493 51.1502C49.5459 51.9906 48.9643 52.6462 48.2045 53.1168C47.4515 53.5875 46.5841 53.8228 45.6025 53.8228C44.1233 53.8228 42.9231 53.3084 42.002 52.2797C41.0875 51.251 40.6303 49.8895 40.6303 48.1951V48.064ZM42.5062 48.2859C42.5062 49.4961 42.7853 50.4677 43.3433 51.2006C43.9081 51.9335 44.6612 52.2999 45.6025 52.2999C46.5505 52.2999 47.3035 51.9301 47.8616 51.1905C48.4197 50.4442 48.6987 49.402 48.6987 48.064C48.6987 46.8672 48.4129 45.899 47.8414 45.1594C47.2767 44.4131 46.5236 44.0399 45.5823 44.0399C44.6612 44.0399 43.9182 44.4063 43.3534 45.1392C42.7886 45.8721 42.5062 46.921 42.5062 48.2859ZM62.6905 48.2859C62.6905 49.9466 62.3106 51.2846 61.5508 52.2999C60.791 53.3152 59.7623 53.8228 58.4647 53.8228C57.1401 53.8228 56.0979 53.4026 55.3382 52.5621V57.8166H53.4724V42.7086H55.1768L55.2676 43.9189C56.0273 42.9776 57.083 42.5069 58.4344 42.5069C59.7455 42.5069 60.781 43.0011 61.5407 43.9895C62.3072 44.9778 62.6905 46.3528 62.6905 48.1144V48.2859ZM60.8247 48.0741C60.8247 46.8437 60.5624 45.8721 60.038 45.1594C59.5136 44.4467 58.7941 44.0903 57.8797 44.0903C56.7501 44.0903 55.903 44.5912 55.3382 45.5931V50.8072C55.8962 51.8023 56.7501 52.2999 57.8999 52.2999C58.7941 52.2999 59.5035 51.9469 60.0279 51.2409C60.5591 50.5282 60.8247 49.4726 60.8247 48.0741ZM77.2704 53.6211H75.3945V41.1857L71.6327 42.5674V40.8731L76.9779 38.8661H77.2704V53.6211ZM92.5128 47.358C92.5128 49.5432 92.1396 51.167 91.3933 52.2293C90.647 53.2916 89.4804 53.8228 87.8937 53.8228C86.327 53.8228 85.1672 53.3051 84.4142 52.2696C83.6611 51.2275 83.2711 49.6743 83.2443 47.6102V45.119C83.2443 42.9608 83.6174 41.3572 84.3637 40.3083C85.1101 39.2594 86.28 38.7349 87.8735 38.7349C89.4535 38.7349 90.6167 39.2426 91.3631 40.2578C92.1094 41.2664 92.4926 42.8263 92.5128 44.9375V47.358ZM90.647 44.8064C90.647 43.2263 90.4251 42.0766 89.9813 41.3572C89.5376 40.631 88.835 40.2679 87.8735 40.2679C86.9187 40.2679 86.2228 40.6277 85.7858 41.3471C85.3488 42.0665 85.1235 43.1725 85.1101 44.6652V47.6505C85.1101 49.2373 85.3387 50.4106 85.7959 51.1703C86.2598 51.9234 86.9591 52.2999 87.8937 52.2999C88.8148 52.2999 89.4972 51.9435 89.941 51.2308C90.3915 50.5181 90.6268 49.3953 90.647 47.8623V44.8064ZM109.745 47.1361H103.583V53.6211H101.647V38.9367H110.744V40.5302H103.583V45.5527H109.745V47.1361ZM119.854 52.5419C119.128 53.3959 118.062 53.8228 116.657 53.8228C115.494 53.8228 114.606 53.4866 113.994 52.8143C113.389 52.1352 113.083 51.1333 113.077 49.8088V42.7086H114.942V49.7584C114.942 51.4124 115.615 52.2394 116.96 52.2394C118.385 52.2394 119.333 51.7082 119.804 50.6459V42.7086H121.669V53.6211H119.894L119.854 52.5419ZM126.847 42.7086L126.907 44.0802C127.741 43.0314 128.83 42.5069 130.175 42.5069C132.481 42.5069 133.644 43.8079 133.664 46.41V53.6211H131.799V46.3999C131.792 45.6132 131.61 45.0316 131.254 44.6551C130.904 44.2786 130.356 44.0903 129.61 44.0903C129.005 44.0903 128.474 44.2517 128.016 44.5744C127.559 44.8972 127.203 45.3208 126.947 45.8452V53.6211H125.082V42.7086H126.847ZM136.592 48.0741C136.592 46.3999 136.989 45.0552 137.782 44.0399C138.576 43.0179 139.615 42.5069 140.899 42.5069C142.176 42.5069 143.188 42.9439 143.935 43.818V38.1298H145.8V53.6211H144.086L143.995 52.4512C143.249 53.3656 142.21 53.8228 140.879 53.8228C139.615 53.8228 138.583 53.3051 137.782 52.2696C136.989 51.2342 136.592 49.8827 136.592 48.2153V48.0741ZM138.458 48.2859C138.458 49.523 138.714 50.4912 139.225 51.1905C139.736 51.8898 140.442 52.2394 141.343 52.2394C142.526 52.2394 143.39 51.7082 143.935 50.6459V45.6334C143.377 44.6047 142.519 44.0903 141.363 44.0903C140.448 44.0903 139.736 44.4433 139.225 45.1493C138.714 45.8553 138.458 46.9008 138.458 48.2859ZM153.801 53.8228C152.322 53.8228 151.119 53.3387 150.191 52.3705C149.263 51.3956 148.799 50.0945 148.799 48.4674V48.1245C148.799 47.042 149.004 46.0772 149.414 45.23C149.831 44.3761 150.409 43.7104 151.149 43.2331C151.895 42.749 152.702 42.5069 153.569 42.5069C154.988 42.5069 156.091 42.9742 156.877 43.9088C157.664 44.8434 158.057 46.1814 158.057 47.9228V48.6994H150.665C150.692 49.7752 151.004 50.6459 151.603 51.3115C152.208 51.9704 152.974 52.2999 153.902 52.2999C154.561 52.2999 155.119 52.1654 155.576 51.8965C156.034 51.6275 156.434 51.2712 156.777 50.8274L157.916 51.7149C157.002 53.1202 155.63 53.8228 153.801 53.8228ZM153.569 44.0399C152.816 44.0399 152.184 44.3156 151.673 44.8669C151.162 45.4115 150.846 46.178 150.725 47.1664H156.192V47.0252C156.138 46.0772 155.882 45.3443 155.425 44.8266C154.968 44.3021 154.349 44.0399 153.569 44.0399ZM160.34 48.0741C160.34 46.3999 160.737 45.0552 161.53 44.0399C162.323 43.0179 163.362 42.5069 164.646 42.5069C165.924 42.5069 166.936 42.9439 167.682 43.818V38.1298H169.548V53.6211H167.833L167.743 52.4512C166.996 53.3656 165.958 53.8228 164.626 53.8228C163.362 53.8228 162.33 53.3051 161.53 52.2696C160.737 51.2342 160.34 49.8827 160.34 48.2153V48.0741ZM162.206 48.2859C162.206 49.523 162.461 50.4912 162.972 51.1905C163.483 51.8898 164.189 52.2394 165.09 52.2394C166.274 52.2394 167.138 51.7082 167.682 50.6459V45.6334C167.124 44.6047 166.267 44.0903 165.11 44.0903C164.196 44.0903 163.483 44.4433 162.972 45.1493C162.461 45.8553 162.206 46.9008 162.206 48.2859ZM181.082 53.6211H179.146V38.9367H181.082V53.6211ZM186.673 42.7086L186.733 44.0802C187.567 43.0314 188.656 42.5069 190.001 42.5069C192.307 42.5069 193.47 43.8079 193.491 46.41V53.6211H191.625V46.3999C191.618 45.6132 191.436 45.0316 191.08 44.6551C190.73 44.2786 190.182 44.0903 189.436 44.0903C188.831 44.0903 188.3 44.2517 187.843 44.5744C187.385 44.8972 187.029 45.3208 186.774 45.8452V53.6211H184.908V42.7086H186.673ZM201.249 52.2999C201.915 52.2999 202.497 52.0982 202.994 51.6948C203.492 51.2914 203.767 50.7871 203.821 50.1819H205.586C205.553 50.8072 205.337 51.4023 204.941 51.9671C204.544 52.5319 204.013 52.9823 203.347 53.3185C202.688 53.6547 201.989 53.8228 201.249 53.8228C199.764 53.8228 198.58 53.3286 197.699 52.3402C196.825 51.3451 196.388 49.987 196.388 48.2657V47.9531C196.388 46.8907 196.583 45.9461 196.973 45.119C197.363 44.292 197.921 43.6499 198.647 43.1927C199.38 42.7355 200.244 42.5069 201.239 42.5069C202.463 42.5069 203.478 42.8733 204.285 43.6062C205.099 44.3391 205.532 45.2905 205.586 46.4604H203.821C203.767 45.7544 203.499 45.1762 203.014 44.7257C202.537 44.2685 201.945 44.0399 201.239 44.0399C200.291 44.0399 199.555 44.3828 199.031 45.0686C198.513 45.7477 198.254 46.7327 198.254 48.0237V48.3767C198.254 49.634 198.513 50.6022 199.031 51.2813C199.548 51.9604 200.288 52.2999 201.249 52.2999ZM214.989 52.5419C214.263 53.3959 213.197 53.8228 211.792 53.8228C210.629 53.8228 209.741 53.4866 209.129 52.8143C208.524 52.1352 208.218 51.1333 208.212 49.8088V42.7086H210.077V49.7584C210.077 51.4124 210.75 52.2394 212.095 52.2394C213.52 52.2394 214.468 51.7082 214.939 50.6459V42.7086H216.804V53.6211H215.029L214.989 52.5419ZM229.455 48.2859C229.455 49.9533 229.072 51.2947 228.305 52.31C227.539 53.3185 226.51 53.8228 225.219 53.8228C223.841 53.8228 222.775 53.3353 222.022 52.3604L221.931 53.6211H220.217V38.1298H222.082V43.9088C222.835 42.9742 223.874 42.5069 225.199 42.5069C226.523 42.5069 227.562 43.0078 228.315 44.0096C229.075 45.0115 229.455 46.3831 229.455 48.1245V48.2859ZM227.589 48.0741C227.589 46.8033 227.344 45.8217 226.853 45.1291C226.362 44.4366 225.656 44.0903 224.735 44.0903C223.504 44.0903 222.62 44.6618 222.082 45.8049V50.5249C222.654 51.6679 223.545 52.2394 224.755 52.2394C225.649 52.2394 226.345 51.8931 226.843 51.2006C227.34 50.508 227.589 49.4659 227.589 48.0741ZM239.12 53.6211C239.012 53.4059 238.925 53.0227 238.858 52.4714C237.99 53.3723 236.955 53.8228 235.751 53.8228C234.676 53.8228 233.792 53.5202 233.099 52.9151C232.413 52.3033 232.07 51.53 232.07 50.5955C232.07 49.4592 232.501 48.5784 233.361 47.9531C234.229 47.321 235.446 47.005 237.012 47.005H238.828V46.1478C238.828 45.4956 238.633 44.9778 238.243 44.5946C237.853 44.2046 237.278 44.0096 236.518 44.0096C235.852 44.0096 235.294 44.1777 234.844 44.5139C234.393 44.8501 234.168 45.2569 234.168 45.7343H232.292C232.292 45.1896 232.484 44.6652 232.867 44.1609C233.257 43.6499 233.781 43.2465 234.44 42.9507C235.106 42.6548 235.835 42.5069 236.629 42.5069C237.886 42.5069 238.871 42.8229 239.584 43.4549C240.297 44.0802 240.666 44.9442 240.693 46.0469V51.0695C240.693 52.0713 240.821 52.868 241.077 53.4597V53.6211H239.12ZM236.024 52.199C236.609 52.199 237.163 52.0478 237.688 51.7452C238.212 51.4426 238.592 51.0493 238.828 50.5652V48.3262H237.365C235.079 48.3262 233.936 48.9952 233.936 50.3332C233.936 50.9182 234.131 51.3754 234.521 51.7049C234.911 52.0343 235.412 52.199 236.024 52.199ZM246.718 40.0662V42.7086H248.755V44.1508H246.718V50.9182C246.718 51.3552 246.808 51.6847 246.99 51.9066C247.171 52.1217 247.481 52.2293 247.918 52.2293C248.133 52.2293 248.429 52.189 248.805 52.1083V53.6211C248.314 53.7556 247.837 53.8228 247.373 53.8228C246.539 53.8228 245.911 53.5707 245.487 53.0664C245.064 52.5621 244.852 51.8461 244.852 50.9182V44.1508H242.865V42.7086H244.852V40.0662H246.718ZM250.815 48.064C250.815 46.9949 251.024 46.0335 251.441 45.1796C251.864 44.3257 252.449 43.6667 253.196 43.2028C253.949 42.7389 254.806 42.5069 255.767 42.5069C257.253 42.5069 258.454 43.0213 259.368 44.05C260.289 45.0787 260.75 46.447 260.75 48.1548V48.2859C260.75 49.3482 260.545 50.303 260.134 51.1502C259.731 51.9906 259.149 52.6462 258.39 53.1168C257.637 53.5875 256.769 53.8228 255.788 53.8228C254.308 53.8228 253.108 53.3084 252.187 52.2797C251.273 51.251 250.815 49.8895 250.815 48.1951V48.064ZM252.691 48.2859C252.691 49.4961 252.97 50.4677 253.528 51.2006C254.093 51.9335 254.846 52.2999 255.788 52.2999C256.736 52.2999 257.489 51.9301 258.047 51.1905C258.605 50.4442 258.884 49.402 258.884 48.064C258.884 46.8672 258.598 45.899 258.027 45.1594C257.462 44.4131 256.709 44.0399 255.767 44.0399C254.846 44.0399 254.103 44.4063 253.539 45.1392C252.974 45.8721 252.691 46.921 252.691 48.2859ZM268.932 44.3828C268.65 44.3357 268.344 44.3122 268.014 44.3122C266.791 44.3122 265.96 44.8333 265.523 45.8755V53.6211H263.658V42.7086H265.473L265.503 43.9693C266.115 42.9944 266.982 42.5069 268.105 42.5069C268.468 42.5069 268.744 42.554 268.932 42.6481V44.3828ZM277.579 50.7266C277.579 50.2223 277.387 49.8323 277.004 49.5567C276.627 49.2743 275.965 49.0322 275.017 48.8305C274.076 48.6288 273.326 48.3867 272.768 48.1043C272.217 47.822 271.806 47.4858 271.538 47.0958C271.275 46.7058 271.144 46.2419 271.144 45.704C271.144 44.8098 271.521 44.0533 272.274 43.4348C273.034 42.8162 274.002 42.5069 275.178 42.5069C276.416 42.5069 277.417 42.8263 278.184 43.465C278.957 44.1038 279.344 44.9207 279.344 45.9158H277.468C277.468 45.4048 277.249 44.9644 276.812 44.5946C276.382 44.2248 275.837 44.0399 275.178 44.0399C274.499 44.0399 273.968 44.1878 273.585 44.4837C273.202 44.7795 273.01 45.1661 273.01 45.6435C273.01 46.094 273.188 46.4335 273.545 46.6621C273.901 46.8907 274.543 47.1092 275.471 47.3177C276.405 47.5261 277.162 47.7749 277.74 48.064C278.318 48.3531 278.745 48.7027 279.021 49.1129C279.303 49.5163 279.445 50.0105 279.445 50.5955C279.445 51.5704 279.055 52.3537 278.275 52.9454C277.495 53.5303 276.483 53.8228 275.239 53.8228C274.365 53.8228 273.592 53.6682 272.919 53.3589C272.247 53.0496 271.719 52.6193 271.336 52.0679C270.959 51.5099 270.771 50.9081 270.771 50.2626H272.637C272.67 50.8879 272.919 51.3855 273.383 51.7553C273.854 52.1184 274.472 52.2999 275.239 52.2999C275.945 52.2999 276.51 52.1587 276.933 51.8763C277.364 51.5872 277.579 51.2039 277.579 50.7266Z" fill="#1F1F1F"/>
<path d="M400.261 237.243L398.917 238.641V242.357H397.466V231.358H398.917V236.798L403.804 231.358H405.557L401.228 236.216L405.897 242.357H404.159L400.261 237.243ZM407.682 242.357V231.358H410.786C411.743 231.358 412.589 231.57 413.325 231.993C414.06 232.416 414.627 233.018 415.024 233.798C415.427 234.579 415.631 235.476 415.636 236.488V237.19C415.636 238.228 415.435 239.137 415.032 239.917C414.634 240.698 414.062 241.297 413.317 241.715C412.577 242.133 411.713 242.347 410.726 242.357H407.682ZM409.132 232.552V241.171H410.658C411.776 241.171 412.645 240.824 413.264 240.129C413.889 239.434 414.201 238.444 414.201 237.16V236.518C414.201 235.269 413.906 234.3 413.317 233.61C412.733 232.915 411.902 232.562 410.824 232.552H409.132ZM424.567 237.273H419.801V241.171H425.338V242.357H418.35V231.358H425.262V232.552H419.801V236.087H424.567V237.273ZM429.533 231.358L433.128 240.333L436.724 231.358H438.605V242.357H437.155V238.074L437.291 233.451L433.68 242.357H432.569L428.966 233.474L429.11 238.074V242.357H427.659V231.358H429.533Z" fill="white"/>
<path d="M240.948 280.463H239.49L233.952 271.987V280.463H232.494V269.464H233.952L239.505 277.978V269.464H240.948V280.463ZM250.249 277.592H245.641L244.606 280.463H243.11L247.31 269.464H248.579L252.787 280.463H251.299L250.249 277.592ZM246.079 276.399H249.818L247.945 271.254L246.079 276.399ZM256.34 280.463H254.889V269.464H256.34V280.463ZM267.968 280.463H266.51L260.972 271.987V280.463H259.514V269.464H260.972L266.525 277.978V269.464H267.968V280.463ZM277.286 269.464L280.882 278.438L284.478 269.464H286.359V280.463H284.908V276.18L285.044 271.556L281.433 280.463H280.323L276.719 271.579L276.863 276.18V280.463H275.413V269.464H277.286ZM294.262 280.463C294.182 280.302 294.116 280.015 294.066 279.602C293.416 280.277 292.641 280.614 291.739 280.614C290.934 280.614 290.271 280.387 289.753 279.934C289.239 279.476 288.982 278.897 288.982 278.197C288.982 277.346 289.304 276.686 289.949 276.217C290.599 275.744 291.51 275.507 292.684 275.507H294.043V274.865C294.043 274.377 293.897 273.989 293.605 273.702C293.313 273.41 292.883 273.264 292.313 273.264C291.815 273.264 291.397 273.39 291.059 273.641C290.722 273.893 290.553 274.198 290.553 274.555H289.148C289.148 274.148 289.292 273.755 289.579 273.377C289.871 272.994 290.264 272.692 290.757 272.471C291.256 272.249 291.802 272.138 292.397 272.138C293.338 272.138 294.076 272.375 294.61 272.848C295.144 273.317 295.421 273.964 295.441 274.79V278.552C295.441 279.302 295.537 279.899 295.728 280.342V280.463H294.262ZM291.943 279.398C292.381 279.398 292.797 279.284 293.19 279.058C293.583 278.831 293.867 278.537 294.043 278.174V276.497H292.948C291.236 276.497 290.38 276.998 290.38 278C290.38 278.438 290.526 278.781 290.818 279.028C291.11 279.274 291.485 279.398 291.943 279.398ZM299.469 272.289L299.515 273.317C300.139 272.531 300.955 272.138 301.962 272.138C303.69 272.138 304.561 273.113 304.576 275.062V280.463H303.178V275.054C303.173 274.465 303.037 274.029 302.771 273.747C302.509 273.465 302.098 273.324 301.539 273.324C301.086 273.324 300.688 273.445 300.346 273.687C300.003 273.928 299.736 274.246 299.545 274.639V280.463H298.147V272.289H299.469ZM306.867 276.308C306.867 275.034 307.162 274.022 307.751 273.271C308.34 272.516 309.121 272.138 310.093 272.138C311.09 272.138 311.868 272.491 312.427 273.196L312.495 272.289H313.772V280.266C313.772 281.324 313.457 282.158 312.827 282.767C312.203 283.376 311.362 283.681 310.304 283.681C309.715 283.681 309.138 283.555 308.574 283.303C308.01 283.051 307.58 282.706 307.282 282.268L308.008 281.43C308.607 282.17 309.34 282.54 310.206 282.54C310.886 282.54 311.415 282.349 311.792 281.966C312.175 281.583 312.366 281.045 312.366 280.35V279.647C311.807 280.292 311.044 280.614 310.077 280.614C309.121 280.614 308.345 280.229 307.751 279.458C307.162 278.688 306.867 277.638 306.867 276.308ZM308.272 276.467C308.272 277.388 308.461 278.114 308.839 278.642C309.216 279.166 309.745 279.428 310.425 279.428C311.306 279.428 311.953 279.028 312.366 278.227V274.495C311.938 273.714 311.296 273.324 310.44 273.324C309.76 273.324 309.229 273.589 308.846 274.117C308.463 274.646 308.272 275.429 308.272 276.467ZM321.449 280.463C321.368 280.302 321.303 280.015 321.252 279.602C320.603 280.277 319.827 280.614 318.925 280.614C318.12 280.614 317.457 280.387 316.939 279.934C316.425 279.476 316.168 278.897 316.168 278.197C316.168 277.346 316.491 276.686 317.135 276.217C317.785 275.744 318.696 275.507 319.87 275.507H321.23V274.865C321.23 274.377 321.083 273.989 320.791 273.702C320.499 273.41 320.069 273.264 319.5 273.264C319.001 273.264 318.583 273.39 318.246 273.641C317.908 273.893 317.739 274.198 317.739 274.555H316.334C316.334 274.148 316.478 273.755 316.765 273.377C317.057 272.994 317.45 272.692 317.943 272.471C318.442 272.249 318.988 272.138 319.583 272.138C320.524 272.138 321.262 272.375 321.796 272.848C322.33 273.317 322.607 273.964 322.627 274.79V278.552C322.627 279.302 322.723 279.899 322.914 280.342V280.463H321.449ZM319.129 279.398C319.568 279.398 319.983 279.284 320.376 279.058C320.769 278.831 321.053 278.537 321.23 278.174V276.497H320.134C318.422 276.497 317.566 276.998 317.566 278C317.566 278.438 317.712 278.781 318.004 279.028C318.296 279.274 318.671 279.398 319.129 279.398ZM326.852 280.463H325.454V268.86H326.852V280.463ZM329.241 276.301C329.241 275.5 329.397 274.78 329.709 274.14C330.027 273.5 330.465 273.007 331.024 272.659C331.588 272.312 332.23 272.138 332.95 272.138C334.063 272.138 334.962 272.523 335.647 273.294C336.337 274.064 336.682 275.089 336.682 276.368V276.467C336.682 277.262 336.528 277.978 336.221 278.612C335.919 279.242 335.483 279.733 334.914 280.085C334.35 280.438 333.701 280.614 332.965 280.614C331.857 280.614 330.958 280.229 330.268 279.458C329.584 278.688 329.241 277.668 329.241 276.399V276.301ZM330.646 276.467C330.646 277.373 330.855 278.101 331.273 278.65C331.696 279.199 332.26 279.473 332.965 279.473C333.675 279.473 334.239 279.196 334.657 278.642C335.075 278.083 335.284 277.303 335.284 276.301C335.284 275.404 335.07 274.679 334.642 274.125C334.219 273.566 333.655 273.286 332.95 273.286C332.26 273.286 331.704 273.561 331.281 274.11C330.858 274.659 330.646 275.444 330.646 276.467ZM342.901 273.543C342.69 273.508 342.46 273.49 342.214 273.49C341.297 273.49 340.675 273.881 340.348 274.661V280.463H338.95V272.289H340.31L340.333 273.233C340.791 272.503 341.441 272.138 342.282 272.138C342.554 272.138 342.76 272.173 342.901 272.244V273.543ZM347.949 280.614C346.841 280.614 345.94 280.251 345.245 279.526C344.55 278.796 344.202 277.821 344.202 276.603V276.346C344.202 275.535 344.356 274.812 344.663 274.178C344.976 273.538 345.409 273.04 345.963 272.682C346.522 272.319 347.126 272.138 347.776 272.138C348.838 272.138 349.664 272.488 350.253 273.188C350.843 273.888 351.137 274.89 351.137 276.195V276.776H345.6C345.62 277.582 345.854 278.234 346.303 278.733C346.756 279.227 347.33 279.473 348.025 279.473C348.518 279.473 348.936 279.373 349.279 279.171C349.621 278.97 349.921 278.703 350.178 278.37L351.032 279.035C350.347 280.088 349.319 280.614 347.949 280.614ZM347.776 273.286C347.212 273.286 346.738 273.493 346.355 273.906C345.973 274.314 345.736 274.888 345.645 275.628H349.74V275.522C349.699 274.812 349.508 274.263 349.166 273.876C348.823 273.483 348.36 273.286 347.776 273.286Z" fill="white"/>
<path d="M153.11 313.454L151.765 314.852V318.568H150.315V307.569H151.765V313.008L156.653 307.569H158.405L154.077 312.427L158.745 318.568H157.008L153.11 313.454ZM162.736 314.466H159.049V313.326H162.736V314.466ZM172.437 308.763H168.902V318.568H167.459V308.763H163.931V307.569H172.437V308.763ZM177.002 318.719C175.894 318.719 174.993 318.357 174.298 317.632C173.603 316.901 173.255 315.927 173.255 314.708V314.451C173.255 313.64 173.409 312.918 173.716 312.283C174.028 311.644 174.461 311.145 175.015 310.787C175.574 310.425 176.179 310.244 176.828 310.244C177.891 310.244 178.717 310.594 179.306 311.294C179.896 311.994 180.19 312.996 180.19 314.3V314.882H174.653C174.673 315.688 174.907 316.34 175.355 316.838C175.809 317.332 176.383 317.579 177.078 317.579C177.571 317.579 177.989 317.478 178.332 317.277C178.674 317.075 178.974 316.808 179.231 316.476L180.084 317.141C179.399 318.193 178.372 318.719 177.002 318.719ZM176.828 311.392C176.264 311.392 175.791 311.598 175.408 312.011C175.026 312.419 174.789 312.993 174.698 313.734H178.793V313.628C178.752 312.918 178.561 312.369 178.218 311.981C177.876 311.588 177.413 311.392 176.828 311.392ZM185.609 317.579C186.107 317.579 186.543 317.428 186.915 317.125C187.288 316.823 187.495 316.446 187.535 315.992H188.857C188.832 316.461 188.671 316.906 188.373 317.329C188.076 317.753 187.678 318.09 187.18 318.342C186.686 318.594 186.163 318.719 185.609 318.719C184.496 318.719 183.609 318.349 182.949 317.609C182.295 316.864 181.967 315.846 181.967 314.557V314.323C181.967 313.527 182.113 312.82 182.406 312.2C182.698 311.581 183.116 311.1 183.66 310.757C184.208 310.415 184.856 310.244 185.601 310.244C186.518 310.244 187.278 310.518 187.882 311.067C188.492 311.616 188.817 312.329 188.857 313.205H187.535C187.495 312.676 187.293 312.243 186.931 311.906C186.573 311.563 186.13 311.392 185.601 311.392C184.891 311.392 184.339 311.649 183.947 312.162C183.559 312.671 183.365 313.409 183.365 314.376V314.64C183.365 315.582 183.559 316.307 183.947 316.816C184.334 317.324 184.888 317.579 185.609 317.579ZM192.341 311.384C192.961 310.624 193.767 310.244 194.759 310.244C196.486 310.244 197.357 311.218 197.372 313.167V318.568H195.975V313.16C195.97 312.57 195.834 312.135 195.567 311.853C195.305 311.571 194.895 311.43 194.336 311.43C193.882 311.43 193.485 311.55 193.142 311.792C192.8 312.034 192.533 312.351 192.341 312.744V318.568H190.944V306.965H192.341V311.384ZM204.553 318.568V307.569H208.149C209.342 307.569 210.239 307.816 210.838 308.31C211.443 308.803 211.745 309.533 211.745 310.5C211.745 311.014 211.599 311.47 211.307 311.868C211.014 312.261 210.617 312.565 210.113 312.782C210.707 312.948 211.176 313.265 211.518 313.734C211.866 314.197 212.039 314.751 212.039 315.396C212.039 316.383 211.72 317.158 211.08 317.722C210.44 318.286 209.536 318.568 208.368 318.568H204.553ZM206.003 313.424V317.382H208.398C209.073 317.382 209.604 317.209 209.992 316.861C210.385 316.509 210.581 316.025 210.581 315.411C210.581 314.086 209.861 313.424 208.421 313.424H206.003ZM206.003 312.261H208.194C208.829 312.261 209.335 312.102 209.713 311.785C210.095 311.467 210.287 311.037 210.287 310.493C210.287 309.889 210.11 309.45 209.758 309.178C209.405 308.901 208.869 308.763 208.149 308.763H206.003V312.261ZM219.535 318.568C219.455 318.407 219.389 318.12 219.339 317.707C218.689 318.382 217.913 318.719 217.012 318.719C216.206 318.719 215.544 318.493 215.025 318.04C214.512 317.581 214.255 317.002 214.255 316.302C214.255 315.451 214.577 314.791 215.222 314.323C215.871 313.849 216.783 313.613 217.956 313.613H219.316V312.971C219.316 312.482 219.17 312.094 218.878 311.807C218.586 311.515 218.155 311.369 217.586 311.369C217.088 311.369 216.67 311.495 216.332 311.747C215.995 311.999 215.826 312.303 215.826 312.661H214.421C214.421 312.253 214.564 311.86 214.852 311.482C215.144 311.1 215.536 310.798 216.03 310.576C216.529 310.354 217.075 310.244 217.669 310.244C218.611 310.244 219.349 310.48 219.883 310.954C220.416 311.422 220.693 312.069 220.714 312.895V316.657C220.714 317.408 220.809 318.004 221.001 318.447V318.568H219.535ZM217.216 317.503C217.654 317.503 218.07 317.39 218.462 317.163C218.855 316.937 219.14 316.642 219.316 316.279V314.602H218.221C216.508 314.602 215.652 315.103 215.652 316.106C215.652 316.544 215.798 316.886 216.09 317.133C216.382 317.38 216.758 317.503 217.216 317.503ZM224.742 310.395L224.787 311.422C225.412 310.636 226.228 310.244 227.235 310.244C228.962 310.244 229.834 311.218 229.849 313.167V318.568H228.451V313.16C228.446 312.57 228.31 312.135 228.043 311.853C227.781 311.571 227.371 311.43 226.812 311.43C226.359 311.43 225.961 311.55 225.618 311.792C225.276 312.034 225.009 312.351 224.818 312.744V318.568H223.42V310.395H224.742ZM232.14 314.414C232.14 313.139 232.434 312.127 233.023 311.377C233.613 310.621 234.393 310.244 235.365 310.244C236.362 310.244 237.141 310.596 237.7 311.301L237.768 310.395H239.044V318.372C239.044 319.43 238.729 320.263 238.1 320.872C237.475 321.482 236.634 321.786 235.577 321.786C234.988 321.786 234.411 321.661 233.847 321.409C233.283 321.157 232.852 320.812 232.555 320.374L233.28 319.535C233.88 320.276 234.612 320.646 235.479 320.646C236.158 320.646 236.687 320.454 237.065 320.072C237.448 319.689 237.639 319.15 237.639 318.455V317.753C237.08 318.397 236.317 318.719 235.35 318.719C234.393 318.719 233.618 318.334 233.023 317.564C232.434 316.793 232.14 315.743 232.14 314.414ZM233.545 314.572C233.545 315.494 233.734 316.219 234.111 316.748C234.489 317.272 235.018 317.533 235.698 317.533C236.579 317.533 237.226 317.133 237.639 316.332V312.601C237.211 311.82 236.569 311.43 235.713 311.43C235.033 311.43 234.502 311.694 234.119 312.223C233.736 312.752 233.545 313.535 233.545 314.572ZM246.721 318.568C246.641 318.407 246.575 318.12 246.525 317.707C245.875 318.382 245.1 318.719 244.198 318.719C243.392 318.719 242.73 318.493 242.211 318.04C241.698 317.581 241.441 317.002 241.441 316.302C241.441 315.451 241.763 314.791 242.408 314.323C243.058 313.849 243.969 313.613 245.142 313.613H246.502V312.971C246.502 312.482 246.356 312.094 246.064 311.807C245.772 311.515 245.341 311.369 244.772 311.369C244.274 311.369 243.856 311.495 243.518 311.747C243.181 311.999 243.012 312.303 243.012 312.661H241.607C241.607 312.253 241.751 311.86 242.038 311.482C242.33 311.1 242.723 310.798 243.216 310.576C243.715 310.354 244.261 310.244 244.855 310.244C245.797 310.244 246.535 310.48 247.069 310.954C247.603 311.422 247.88 312.069 247.9 312.895V316.657C247.9 317.408 247.995 318.004 248.187 318.447V318.568H246.721ZM244.402 317.503C244.84 317.503 245.256 317.39 245.649 317.163C246.041 316.937 246.326 316.642 246.502 316.279V314.602H245.407C243.695 314.602 242.838 315.103 242.838 316.106C242.838 316.544 242.984 316.886 243.277 317.133C243.569 317.38 243.944 317.503 244.402 317.503ZM252.125 318.568H250.727V306.965H252.125V318.568ZM254.514 314.406C254.514 313.605 254.67 312.885 254.982 312.245C255.299 311.606 255.738 311.112 256.297 310.765C256.861 310.417 257.503 310.244 258.223 310.244C259.336 310.244 260.235 310.629 260.92 311.399C261.61 312.17 261.955 313.195 261.955 314.474V314.572C261.955 315.368 261.801 316.083 261.494 316.718C261.192 317.347 260.756 317.838 260.187 318.191C259.623 318.543 258.973 318.719 258.238 318.719C257.13 318.719 256.231 318.334 255.541 317.564C254.856 316.793 254.514 315.773 254.514 314.504V314.406ZM255.919 314.572C255.919 315.479 256.128 316.206 256.546 316.755C256.969 317.304 257.533 317.579 258.238 317.579C258.948 317.579 259.512 317.302 259.93 316.748C260.348 316.189 260.557 315.408 260.557 314.406C260.557 313.51 260.343 312.784 259.915 312.23C259.492 311.671 258.928 311.392 258.223 311.392C257.533 311.392 256.976 311.666 256.553 312.215C256.13 312.764 255.919 313.55 255.919 314.572ZM268.174 311.649C267.962 311.613 267.733 311.596 267.486 311.596C266.57 311.596 265.948 311.986 265.621 312.767V318.568H264.223V310.395H265.583L265.605 311.339C266.064 310.609 266.713 310.244 267.554 310.244C267.826 310.244 268.033 310.279 268.174 310.349V311.649ZM273.222 318.719C272.114 318.719 271.213 318.357 270.518 317.632C269.823 316.901 269.475 315.927 269.475 314.708V314.451C269.475 313.64 269.629 312.918 269.936 312.283C270.248 311.644 270.681 311.145 271.235 310.787C271.794 310.425 272.399 310.244 273.048 310.244C274.111 310.244 274.937 310.594 275.526 311.294C276.115 311.994 276.41 312.996 276.41 314.3V314.882H270.873C270.893 315.688 271.127 316.34 271.575 316.838C272.029 317.332 272.603 317.579 273.298 317.579C273.791 317.579 274.209 317.478 274.552 317.277C274.894 317.075 275.194 316.808 275.451 316.476L276.304 317.141C275.619 318.193 274.592 318.719 273.222 318.719ZM273.048 311.392C272.484 311.392 272.011 311.598 271.628 312.011C271.245 312.419 271.009 312.993 270.918 313.734H275.012V313.628C274.972 312.918 274.781 312.369 274.438 311.981C274.096 311.588 273.633 311.392 273.048 311.392Z" fill="white"/>
</svg>
