<svg width="65" height="65" viewBox="0 0 65 65" fill="none" xmlns="http://www.w3.org/2000/svg">
<rect x="0.788208" y="0.779297" width="63.4941" height="63.4941" rx="31.7471" fill="#F2994A" fill-opacity="0.2"/>
<g clip-path="url(#clip0_2166:15511)">
<path d="M48.8124 47.8125H46.6249V42.3438C46.6232 40.8939 46.0465 39.5039 45.0213 38.4787C43.996 37.4535 42.6061 36.8767 41.1562 36.875V34.6875C43.186 34.6898 45.1321 35.4972 46.5674 36.9325C48.0027 38.3678 48.8101 40.3139 48.8124 42.3438V47.8125Z" fill="#F39C12"/>
<path d="M40.0624 47.8125H37.8749V42.3438C37.8732 40.8939 37.2965 39.5039 36.2713 38.4787C35.246 37.4535 33.8561 36.8767 32.4062 36.875H25.8437C24.3938 36.8767 23.0038 37.4535 21.9786 38.4787C20.9534 39.5039 20.3767 40.8939 20.3749 42.3438V47.8125H18.1874V42.3438C18.1898 40.3139 18.9971 38.3678 20.4325 36.9325C21.8678 35.4972 23.8138 34.6898 25.8437 34.6875H32.4062C34.436 34.6898 36.3821 35.4972 37.8174 36.9325C39.2527 38.3678 40.0601 40.3139 40.0624 42.3438V47.8125Z" fill="#F39C12"/>
<path d="M37.8749 17.1875V19.375C39.3253 19.375 40.7163 19.9512 41.7419 20.9768C42.7675 22.0023 43.3437 23.3933 43.3437 24.8438C43.3437 26.2942 42.7675 27.6852 41.7419 28.7107C40.7163 29.7363 39.3253 30.3125 37.8749 30.3125V32.5C39.9055 32.5 41.8529 31.6934 43.2887 30.2575C44.7246 28.8217 45.5312 26.8743 45.5312 24.8438C45.5312 22.8132 44.7246 20.8658 43.2887 19.43C41.8529 17.9941 39.9055 17.1875 37.8749 17.1875Z" fill="#F39C12"/>
<path d="M29.1249 19.375C30.2066 19.375 31.2639 19.6957 32.1632 20.2967C33.0625 20.8976 33.7635 21.7517 34.1774 22.7509C34.5913 23.7502 34.6996 24.8498 34.4886 25.9107C34.2776 26.9715 33.7568 27.9459 32.9919 28.7107C32.2271 29.4756 31.2527 29.9964 30.1918 30.2074C29.131 30.4184 28.0314 30.3101 27.0321 29.8962C26.0329 29.4823 25.1788 28.7814 24.5778 27.882C23.9769 26.9827 23.6562 25.9254 23.6562 24.8438C23.6562 23.3933 24.2324 22.0023 25.258 20.9768C26.2835 19.9512 27.6745 19.375 29.1249 19.375ZM29.1249 17.1875C27.6107 17.1875 26.1304 17.6365 24.8714 18.4778C23.6123 19.3191 22.631 20.5148 22.0515 21.9138C21.472 23.3128 21.3204 24.8522 21.6158 26.3374C21.9112 27.8226 22.6404 29.1868 23.7112 30.2575C24.7819 31.3283 26.1461 32.0575 27.6313 32.3529C29.1164 32.6483 30.6559 32.4967 32.0549 31.9172C33.4539 31.3377 34.6496 30.3564 35.4909 29.0973C36.3322 27.8383 36.7812 26.358 36.7812 24.8438C36.7812 22.8132 35.9746 20.8658 34.5387 19.43C33.1029 17.9941 31.1555 17.1875 29.1249 17.1875Z" fill="#F39C12"/>
</g>
<defs>
<clipPath id="clip0_2166:15511">
<rect width="33.2962" height="33.2962" fill="white" transform="translate(15.8871 15.8789)"/>
</clipPath>
</defs>
</svg>
