<svg width="53" height="53" viewBox="0 0 53 53" fill="none" xmlns="http://www.w3.org/2000/svg">
<rect x="0.39624" y="0.263672" width="52.0671" height="52.0671" rx="26.0336" fill="#F2994A" fill-opacity="0.2"/>
<path d="M35.631 18.0971H31.4304V16.4969C31.4304 16.3869 31.3403 16.2969 31.2303 16.2969H29.8301C29.7201 16.2969 29.6301 16.3869 29.6301 16.4969V18.0971H23.2292V16.4969C23.2292 16.3869 23.1392 16.2969 23.0292 16.2969H21.629C21.5189 16.2969 21.4289 16.3869 21.4289 16.4969V18.0971H17.2283C16.7858 18.0971 16.4282 18.4547 16.4282 18.8972V35.4996C16.4282 35.9422 16.7858 36.2997 17.2283 36.2997H35.631C36.0735 36.2997 36.4311 35.9422 36.4311 35.4996V18.8972C36.4311 18.4547 36.0735 18.0971 35.631 18.0971ZM34.6308 34.4995H18.2285V24.9981H34.6308V34.4995ZM18.2285 23.2979V19.8974H21.4289V21.0976C21.4289 21.2076 21.5189 21.2976 21.629 21.2976H23.0292C23.1392 21.2976 23.2292 21.2076 23.2292 21.0976V19.8974H29.6301V21.0976C29.6301 21.2076 29.7201 21.2976 29.8301 21.2976H31.2303C31.3403 21.2976 31.4304 21.2076 31.4304 21.0976V19.8974H34.6308V23.2979H18.2285Z" fill="#F39C12"/>
</svg>
