<svg width="147" height="34" viewBox="0 0 147 34" fill="none" xmlns="http://www.w3.org/2000/svg">
<path d="M3.04885 24.5222C3.04885 32.2746 9.4412 33.2267 12.66 33.2267C13.7028 33.2267 14.4281 33.0907 14.4281 33.0907V28.0584C14.4281 28.0584 14.0201 28.1491 13.3854 28.1491C11.7987 28.1491 8.8065 27.605 8.8065 23.7968V14.4577H14.0655V9.87874H8.8065V3.57707H3.18486V9.87874H0.0566926V14.4577H3.04885V24.5222ZM19.7377 33H25.45V23.8422C25.45 22.4821 25.6314 21.2127 25.9487 20.0793C26.9915 16.6338 29.8023 15.2284 32.2504 15.2284C33.0665 15.2284 33.6558 15.319 33.6558 15.319V9.65206C33.6558 9.65206 33.1118 9.56139 32.6131 9.56139C29.0769 9.56139 26.3114 12.1909 25.2687 15.5004H25.178C25.178 15.5004 25.2687 14.911 25.2687 14.0496V12.6896C25.2687 10.7401 24.226 9.87874 22.1859 9.87874H16.9269V14.775H18.7404C19.3751 14.775 19.7377 15.0924 19.7377 15.7724V33ZM34.7818 26.3356C34.7818 30.9599 38.5447 33.544 42.6702 33.544C47.8838 33.544 49.6519 29.4638 49.6519 29.4638H49.7426C49.7426 29.4638 49.6973 29.8718 49.6973 30.4612C49.6973 31.8213 50.5133 33 52.6441 33H57.8124V28.1491H55.9989C55.3642 28.1491 55.0016 27.7864 55.0016 27.1517V18.5379C55.0016 13.3696 52.7348 9.33472 45.0277 9.33472C42.6249 9.33472 36.5499 9.78807 36.5499 14.095V16.5431H41.8995V15.319C41.8995 14.0496 43.9396 13.7776 44.9823 13.7776C47.9292 13.7776 49.2439 15.0017 49.2439 18.3112V18.4925H48.5185C44.7557 18.4925 34.7818 19.0819 34.7818 26.3356ZM40.5848 26.0636C40.5848 22.8448 45.345 22.4368 48.3372 22.4368H49.3346V22.9808C49.3346 25.7916 47.1585 29.0558 44.0756 29.0558C41.7182 29.0558 40.5848 27.605 40.5848 26.0636ZM62.2358 33H67.9934V22.8901H69.2628C69.9882 22.8901 70.9403 22.9355 71.3936 23.7515L75.2472 31.0052C76.1539 32.6826 76.9246 33 78.874 33H83.1356V28.1491H81.5942C80.5061 28.1491 80.0528 27.9677 79.6901 27.2877L77.0606 22.3008C76.2446 20.8047 75.4285 20.4873 75.4285 20.4873V20.3966C75.4285 20.3966 76.1539 20.034 77.1513 18.5832L82.9996 9.87874H76.6072L71.8923 17.1778C71.3936 17.9032 70.4416 18.0392 69.7162 18.0392H67.9934V3.44106C67.9934 1.31028 67.0414 0.811586 64.9106 0.811586H59.425V5.70785H61.2384C61.8731 5.70785 62.2358 6.0252 62.2358 6.70524V33Z" fill="#3AA959"/>
<path d="M87.5665 24.5222C87.5665 32.2746 93.9588 33.2267 97.1777 33.2267C98.2204 33.2267 98.9457 33.0907 98.9457 33.0907V28.0584C98.9457 28.0584 98.5377 28.1491 97.903 28.1491C96.3163 28.1491 93.3241 27.605 93.3241 23.7968V14.4577H98.5831V9.87874H93.3241V3.57707H87.7025V9.87874H84.5743V14.4577H87.5665V24.5222ZM101.589 21.4394C101.589 28.5571 107.211 33.544 114.238 33.544C121.31 33.544 126.932 28.5571 126.932 21.4394C126.932 14.367 121.31 9.33472 114.238 9.33472C107.211 9.33472 101.589 14.367 101.589 21.4394ZM107.392 21.4394C107.392 17.1778 110.52 14.231 114.238 14.231C118.001 14.231 121.129 17.1778 121.129 21.4394C121.129 25.7463 118.001 28.6478 114.238 28.6478C110.52 28.6478 107.392 25.7463 107.392 21.4394ZM132.147 33H137.86V23.8422C137.86 22.4821 138.041 21.2127 138.358 20.0793C139.401 16.6338 142.212 15.2284 144.66 15.2284C145.476 15.2284 146.066 15.319 146.066 15.319V9.65206C146.066 9.65206 145.522 9.56139 145.023 9.56139C141.487 9.56139 138.721 12.1909 137.678 15.5004H137.588C137.588 15.5004 137.678 14.911 137.678 14.0496V12.6896C137.678 10.7401 136.636 9.87874 134.596 9.87874H129.337V14.775H131.15C131.785 14.775 132.147 15.0924 132.147 15.7724V33Z" fill="black"/>
</svg>
