<svg width="33" height="34" viewBox="0 0 33 34" fill="none" xmlns="http://www.w3.org/2000/svg">
<path d="M23.3815 20.2272C23.5109 19.1594 23.608 18.0916 23.608 16.9915C23.608 15.8913 23.5109 14.8235 23.3815 13.7557H28.8499C29.1087 14.7912 29.2705 15.8751 29.2705 16.9915C29.2705 18.1078 29.1087 19.1917 28.8499 20.2272H23.3815ZM20.5179 29.2225C21.4886 27.4266 22.2328 25.4852 22.7505 23.4629H27.5232C25.9558 26.1619 23.4691 28.2065 20.5179 29.2225V29.2225ZM20.1134 20.2272H12.5418C12.3801 19.1594 12.283 18.0916 12.283 16.9915C12.283 15.8913 12.3801 14.8073 12.5418 13.7557H20.1134C20.259 14.8073 20.3723 15.8913 20.3723 16.9915C20.3723 18.0916 20.259 19.1594 20.1134 20.2272ZM16.3276 29.8696C14.9848 27.9282 13.9009 25.7764 13.2375 23.4629H19.4178C18.7544 25.7764 17.6705 27.9282 16.3276 29.8696ZM9.8562 10.52H5.13205C6.68335 7.81369 9.16828 5.76592 12.1212 4.76044C11.1505 6.55627 10.4225 8.4977 9.8562 10.52ZM5.13205 23.4629H9.8562C10.4225 25.4852 11.1505 27.4266 12.1212 29.2225C9.17448 28.2059 6.69304 26.161 5.13205 23.4629V23.4629ZM3.80541 20.2272C3.54655 19.1917 3.38477 18.1078 3.38477 16.9915C3.38477 15.8751 3.54655 14.7912 3.80541 13.7557H9.27377C9.14435 14.8235 9.04727 15.8913 9.04727 16.9915C9.04727 18.0916 9.14435 19.1594 9.27377 20.2272H3.80541ZM16.3276 4.09712C17.6705 6.03855 18.7544 8.20648 19.4178 10.52H13.2375C13.9009 8.20648 14.9848 6.03855 16.3276 4.09712V4.09712ZM27.5232 10.52H22.7505C22.2442 8.51623 21.4944 6.58198 20.5179 4.76044C23.4948 5.77969 25.9701 7.83438 27.5232 10.52ZM16.3276 0.812866C7.38088 0.812866 0.149048 8.09323 0.149048 16.9915C0.149048 21.2823 1.85357 25.3974 4.88765 28.4315C6.38997 29.9338 8.17348 31.1255 10.1364 31.9385C12.0992 32.7516 14.203 33.1701 16.3276 33.1701C20.6185 33.1701 24.7336 31.4655 27.7676 28.4315C30.8017 25.3974 32.5062 21.2823 32.5062 16.9915C32.5062 14.8669 32.0878 12.7631 31.2747 10.8002C30.4617 8.8373 29.27 7.05379 27.7676 5.55147C26.2653 4.04915 24.4818 2.85744 22.5189 2.04439C20.556 1.23134 18.4522 0.812866 16.3276 0.812866V0.812866Z" fill="#3AA959"/>
</svg>
