<svg width="652" height="327" viewBox="0 0 652 327" fill="none" xmlns="http://www.w3.org/2000/svg">
<line x1="49.546" y1="54.6123" x2="49.546" y2="224.755" stroke="#ECECEE" stroke-width="0.601807"/>
<path d="M29 204.194V203.594H30.3577V208.815H29.6933V204.194H29ZM33.8047 208.815L32.252 207.068V208.815H31.5948V203.471H32.252V206.613L33.7758 204.858H34.6929L32.8298 206.829L34.7002 208.815H33.8047Z" fill="#92959E"/>
<path d="M28.2276 137.476H25.6928V139.123C25.8035 138.969 25.9672 138.843 26.1839 138.747C26.4005 138.646 26.634 138.596 26.8844 138.596C27.284 138.596 27.609 138.68 27.8593 138.848C28.1097 139.012 28.2878 139.226 28.3937 139.491C28.5045 139.751 28.5598 140.028 28.5598 140.322C28.5598 140.668 28.4948 140.979 28.3648 141.253C28.2348 141.528 28.035 141.744 27.7654 141.903C27.5006 142.062 27.1708 142.141 26.7761 142.141C26.2705 142.141 25.8613 142.011 25.5484 141.751C25.2354 141.491 25.0453 141.145 24.9779 140.712H25.6206C25.6832 140.986 25.8156 141.2 26.0178 141.354C26.22 141.508 26.4752 141.585 26.7833 141.585C27.1636 141.585 27.4501 141.472 27.6427 141.246C27.8352 141.015 27.9315 140.712 27.9315 140.336C27.9315 139.96 27.8352 139.672 27.6427 139.469C27.4501 139.262 27.166 139.159 26.7905 139.159C26.5353 139.159 26.3115 139.221 26.1189 139.347C25.9311 139.467 25.7939 139.633 25.7073 139.845H25.0862V136.898H28.2276V137.476ZM31.7513 142.127L30.1986 140.379V142.127H29.5415V136.783H30.1986V139.924L31.7224 138.169H32.6396L30.7764 140.141L32.6468 142.127H31.7513Z" fill="#92959E"/>
<path d="M25.7434 74.892C25.7915 75.1664 25.9022 75.3782 26.0756 75.5275C26.2537 75.6767 26.492 75.7513 26.7905 75.7513C27.1901 75.7513 27.4838 75.5949 27.6716 75.2819C27.8641 74.969 27.9556 74.4418 27.946 73.7004C27.8449 73.917 27.6764 74.0879 27.4405 74.2131C27.2045 74.3335 26.9422 74.3937 26.6533 74.3937C26.3307 74.3937 26.0419 74.3287 25.7867 74.1987C25.5363 74.0639 25.3389 73.8689 25.1945 73.6137C25.0501 73.3586 24.9779 73.0504 24.9779 72.6894C24.9779 72.1742 25.1271 71.7602 25.4256 71.4472C25.7241 71.1295 26.1478 70.9706 26.6966 70.9706C27.3706 70.9706 27.8425 71.1897 28.1121 71.6278C28.3865 72.0659 28.5237 72.7182 28.5237 73.5848C28.5237 74.1915 28.4683 74.6922 28.3576 75.0869C28.2517 75.4817 28.0687 75.7826 27.8088 75.9897C27.5536 76.1967 27.2021 76.3002 26.7544 76.3002C26.2633 76.3002 25.8806 76.1678 25.6062 75.903C25.3317 75.6382 25.1753 75.3012 25.1367 74.892H25.7434ZM26.7616 73.8376C27.0842 73.8376 27.349 73.7389 27.556 73.5415C27.763 73.3393 27.8665 73.0673 27.8665 72.7255C27.8665 72.3644 27.7654 72.0731 27.5632 71.8516C27.361 71.6302 27.077 71.5194 26.7111 71.5194C26.3741 71.5194 26.1044 71.6254 25.9022 71.8372C25.7048 72.049 25.6062 72.3283 25.6062 72.6749C25.6062 73.0264 25.7048 73.308 25.9022 73.5198C26.0996 73.7317 26.3861 73.8376 26.7616 73.8376ZM31.7654 76.293L30.2127 74.5453V76.293H29.5556V70.9489H30.2127V74.0904L31.7365 72.3355H32.6537L30.7905 74.307L32.6609 76.293H31.7654Z" fill="#92959E"/>
<path d="M24.884 171.564C24.9177 171.121 25.0886 170.774 25.3967 170.524C25.7048 170.274 26.1044 170.148 26.5955 170.148C26.9229 170.148 27.2045 170.209 27.4405 170.329C27.6812 170.444 27.8617 170.603 27.9821 170.805C28.1073 171.008 28.1698 171.236 28.1698 171.492C28.1698 171.79 28.0832 172.048 27.9099 172.264C27.7414 172.481 27.5199 172.621 27.2455 172.683V172.719C27.5584 172.796 27.8064 172.948 27.9893 173.174C28.1723 173.4 28.2637 173.697 28.2637 174.062C28.2637 174.337 28.2011 174.585 28.076 174.806C27.9508 175.023 27.763 175.194 27.5127 175.319C27.2623 175.444 26.9614 175.507 26.61 175.507C26.0996 175.507 25.6808 175.374 25.3534 175.11C25.026 174.84 24.8431 174.46 24.8045 173.969H25.4401C25.4738 174.257 25.5917 174.493 25.7939 174.676C25.9961 174.859 26.2657 174.951 26.6027 174.951C26.9398 174.951 27.1949 174.864 27.3682 174.691C27.5464 174.513 27.6354 174.284 27.6354 174.005C27.6354 173.644 27.5151 173.384 27.2744 173.225C27.0336 173.066 26.6701 172.986 26.1839 172.986H26.0178V172.438H26.1911C26.634 172.433 26.9686 172.361 27.1949 172.221C27.4212 172.077 27.5343 171.855 27.5343 171.557C27.5343 171.301 27.4501 171.097 27.2816 170.943C27.1179 170.789 26.882 170.712 26.5739 170.712C26.2754 170.712 26.0346 170.789 25.8517 170.943C25.6687 171.097 25.5604 171.304 25.5267 171.564H24.884ZM31.4692 175.471L29.9165 173.723V175.471H29.2594V170.127H29.9165V173.268L31.4403 171.513H32.3575L30.4943 173.485L32.3647 175.471H31.4692Z" fill="#92959E"/>
<path d="M28.1121 104.929L26.1044 109.638H25.4401L27.4766 104.994H24.689V104.431H28.1121V104.929ZM31.1589 109.638L29.6062 107.89V109.638H28.9491V104.294H29.6062V107.435L31.13 105.68H32.0472L30.184 107.652L32.0544 109.638H31.1589Z" fill="#92959E"/>
<line x1="628.493" y1="292.603" x2="628.493" y2="300.003" stroke="#ECECEE" stroke-width="1.21233" stroke-linecap="round" stroke-linejoin="round"/>
<path d="M611.114 311.092C611.114 310.258 611.25 309.608 611.521 309.143C611.793 308.672 612.268 308.437 612.947 308.437C613.621 308.437 614.094 308.672 614.366 309.143C614.637 309.608 614.773 310.258 614.773 311.092C614.773 311.941 614.637 312.6 614.366 313.071C614.094 313.541 613.621 313.776 612.947 313.776C612.268 313.776 611.793 313.541 611.521 313.071C611.25 312.6 611.114 311.941 611.114 311.092ZM614.118 311.092C614.118 310.67 614.089 310.314 614.031 310.023C613.978 309.727 613.864 309.49 613.689 309.31C613.519 309.131 613.272 309.041 612.947 309.041C612.617 309.041 612.365 309.131 612.191 309.31C612.021 309.49 611.907 309.727 611.849 310.023C611.795 310.314 611.769 310.67 611.769 311.092C611.769 311.529 611.795 311.895 611.849 312.191C611.907 312.486 612.021 312.724 612.191 312.903C612.365 313.083 612.617 313.173 612.947 313.173C613.272 313.173 613.519 313.083 613.689 312.903C613.864 312.724 613.978 312.486 614.031 312.191C614.089 311.895 614.118 311.529 614.118 311.092ZM615.667 309.841C615.701 309.395 615.873 309.046 616.184 308.794C616.494 308.542 616.896 308.415 617.391 308.415C617.721 308.415 618.004 308.476 618.242 308.597C618.485 308.714 618.666 308.874 618.788 309.077C618.914 309.281 618.977 309.511 618.977 309.768C618.977 310.069 618.889 310.328 618.715 310.547C618.545 310.765 618.322 310.906 618.046 310.969V311.005C618.361 311.083 618.611 311.235 618.795 311.463C618.979 311.691 619.071 311.989 619.071 312.358C619.071 312.634 619.008 312.884 618.882 313.107C618.756 313.325 618.567 313.498 618.315 313.624C618.063 313.75 617.76 313.813 617.406 313.813C616.892 313.813 616.47 313.679 616.14 313.413C615.81 313.141 615.626 312.758 615.587 312.263H616.227C616.261 312.554 616.38 312.792 616.584 312.976C616.787 313.161 617.059 313.253 617.398 313.253C617.738 313.253 617.995 313.165 618.169 312.991C618.349 312.811 618.438 312.581 618.438 312.3C618.438 311.936 618.317 311.674 618.075 311.514C617.832 311.354 617.466 311.274 616.976 311.274H616.809V310.721H616.984C617.43 310.716 617.767 310.644 617.995 310.503C618.223 310.358 618.337 310.135 618.337 309.834C618.337 309.577 618.252 309.371 618.082 309.216C617.917 309.06 617.68 308.983 617.369 308.983C617.069 308.983 616.826 309.06 616.642 309.216C616.458 309.371 616.348 309.579 616.314 309.841H615.667ZM620.285 313.82C620.159 313.82 620.052 313.776 619.965 313.689C619.878 313.602 619.834 313.495 619.834 313.369C619.834 313.243 619.878 313.136 619.965 313.049C620.052 312.962 620.159 312.918 620.285 312.918C620.406 312.918 620.508 312.962 620.591 313.049C620.678 313.136 620.722 313.243 620.722 313.369C620.722 313.495 620.678 313.602 620.591 313.689C620.508 313.776 620.406 313.82 620.285 313.82ZM620.285 310.707C620.159 310.707 620.052 310.663 619.965 310.576C619.878 310.489 619.834 310.382 619.834 310.256C619.834 310.13 619.878 310.023 619.965 309.936C620.052 309.848 620.159 309.805 620.285 309.805C620.406 309.805 620.508 309.848 620.591 309.936C620.678 310.023 620.722 310.13 620.722 310.256C620.722 310.382 620.678 310.489 620.591 310.576C620.508 310.663 620.406 310.707 620.285 310.707ZM621.499 309.841C621.533 309.395 621.705 309.046 622.016 308.794C622.326 308.542 622.728 308.415 623.223 308.415C623.553 308.415 623.836 308.476 624.074 308.597C624.317 308.714 624.498 308.874 624.62 309.077C624.746 309.281 624.809 309.511 624.809 309.768C624.809 310.069 624.721 310.328 624.547 310.547C624.377 310.765 624.154 310.906 623.878 310.969V311.005C624.193 311.083 624.443 311.235 624.627 311.463C624.811 311.691 624.903 311.989 624.903 312.358C624.903 312.634 624.84 312.884 624.714 313.107C624.588 313.325 624.399 313.498 624.147 313.624C623.895 313.75 623.592 313.813 623.238 313.813C622.724 313.813 622.302 313.679 621.972 313.413C621.642 313.141 621.458 312.758 621.419 312.263H622.059C622.093 312.554 622.212 312.792 622.416 312.976C622.619 313.161 622.891 313.253 623.23 313.253C623.57 313.253 623.827 313.165 624.001 312.991C624.181 312.811 624.27 312.581 624.27 312.3C624.27 311.936 624.149 311.674 623.907 311.514C623.664 311.354 623.298 311.274 622.808 311.274H622.641V310.721H622.816C623.262 310.716 623.599 310.644 623.827 310.503C624.055 310.358 624.169 310.135 624.169 309.834C624.169 309.577 624.084 309.371 623.914 309.216C623.749 309.06 623.512 308.983 623.201 308.983C622.901 308.983 622.658 309.06 622.474 309.216C622.29 309.371 622.18 309.579 622.146 309.841H621.499ZM625.797 311.092C625.797 310.258 625.933 309.608 626.204 309.143C626.476 308.672 626.951 308.437 627.63 308.437C628.304 308.437 628.777 308.672 629.049 309.143C629.32 309.608 629.456 310.258 629.456 311.092C629.456 311.941 629.32 312.6 629.049 313.071C628.777 313.541 628.304 313.776 627.63 313.776C626.951 313.776 626.476 313.541 626.204 313.071C625.933 312.6 625.797 311.941 625.797 311.092ZM628.801 311.092C628.801 310.67 628.772 310.314 628.714 310.023C628.661 309.727 628.547 309.49 628.372 309.31C628.202 309.131 627.955 309.041 627.63 309.041C627.3 309.041 627.048 309.131 626.874 309.31C626.704 309.49 626.59 309.727 626.532 310.023C626.478 310.314 626.452 310.67 626.452 311.092C626.452 311.529 626.478 311.895 626.532 312.191C626.59 312.486 626.704 312.724 626.874 312.903C627.048 313.083 627.3 313.173 627.63 313.173C627.955 313.173 628.202 313.083 628.372 312.903C628.547 312.724 628.661 312.486 628.714 312.191C628.772 311.895 628.801 311.529 628.801 311.092ZM635.803 310.19C635.803 310.612 635.657 310.964 635.366 311.245C635.08 311.521 634.641 311.66 634.05 311.66H633.075V313.776H632.413V308.706H634.05C634.622 308.706 635.056 308.845 635.352 309.121C635.652 309.397 635.803 309.754 635.803 310.19ZM634.05 311.114C634.418 311.114 634.69 311.034 634.864 310.874C635.039 310.714 635.126 310.486 635.126 310.19C635.126 309.565 634.767 309.252 634.05 309.252H633.075V311.114H634.05ZM641.768 308.743V313.776H641.106V310.023L639.433 313.776H638.968L637.287 310.016V313.776H636.625V308.743H637.338L639.2 312.903L641.062 308.743H641.768Z" fill="#92959E"/>
<rect x="0.43059" y="0.43059" width="651.139" height="326.139" rx="3.87531" fill="white" stroke="#E5E5E5" stroke-width="0.861181"/>
<line x1="35.3031" y1="43" x2="35.3031" y2="290" stroke="#ECECEE" stroke-width="0.606167"/>
<line x1="637.36" y1="296.606" x2="35.3945" y2="296.606" stroke="#ECECEE" stroke-width="0.606167"/>
<path d="M95.3681 231.509C73.6601 239.22 36 221.36 36 221.36V312H617.657V90.3169C593.241 82.057 560.282 19.268 545.514 43.5472C500.424 117.673 446.715 36.7959 396.718 60.3137C345.707 84.3084 333.641 127.033 278.733 129.586C253.308 130.768 257.172 209.152 231.764 210.771C205.822 212.424 181.93 145.679 157.366 155.618C131.108 166.243 121.952 222.065 95.3681 231.509Z" fill="url(#paint0_linear)"/>
<path d="M36 230.711C36 230.711 73.6823 250.357 95.4031 241.874C122.003 231.486 131.164 170.077 157.438 158.389C182.016 147.455 205.922 220.88 231.88 219.062C257.302 217.281 253.436 131.052 278.876 129.752C333.817 126.943 345.889 79.9428 396.93 53.5468C446.957 27.6754 500.698 116.646 545.814 35.1023C560.591 8.39334 593.57 77.4661 618 86.5526" stroke="#3498DB" stroke-width="1.51542" stroke-linecap="round" stroke-linejoin="round"/>
<line x1="628.493" y1="292.603" x2="628.493" y2="300.003" stroke="#ECECEE" stroke-width="1.21233" stroke-linecap="round" stroke-linejoin="round"/>
<line x1="515.678" y1="292.603" x2="515.678" y2="300.003" stroke="#ECECEE" stroke-width="1.21233" stroke-linecap="round" stroke-linejoin="round"/>
<line x1="402.003" y1="292.603" x2="402.003" y2="300.003" stroke="#ECECEE" stroke-width="1.21233" stroke-linecap="round" stroke-linejoin="round"/>
<line x1="289.188" y1="292.603" x2="289.188" y2="300.003" stroke="#ECECEE" stroke-width="1.21233" stroke-linecap="round" stroke-linejoin="round"/>
<line x1="174.606" y1="283.606" x2="174.606" y2="295.394" stroke="#ECECEE" stroke-width="1.21233" stroke-linecap="round" stroke-linejoin="round"/>
<line x1="62.6975" y1="292.603" x2="62.6975" y2="300.003" stroke="#ECECEE" stroke-width="1.21233" stroke-linecap="round" stroke-linejoin="round"/>
<line x1="33.6062" y1="260.394" x2="39.3938" y2="260.394" stroke="#ECECEE" stroke-width="1.21233" stroke-linecap="round" stroke-linejoin="round"/>
<line x1="33.6062" y1="213.394" x2="39.3938" y2="213.394" stroke="#ECECEE" stroke-width="1.21233" stroke-linecap="round" stroke-linejoin="round"/>
<line x1="33.6062" y1="165.394" x2="39.3938" y2="165.394" stroke="#ECECEE" stroke-width="1.21233" stroke-linecap="round" stroke-linejoin="round"/>
<line x1="33.6062" y1="116.394" x2="39.3938" y2="116.394" stroke="#ECECEE" stroke-width="1.21233" stroke-linecap="round" stroke-linejoin="round"/>
<line x1="33.6062" y1="68.3938" x2="39.3938" y2="68.3938" stroke="#ECECEE" stroke-width="1.21233" stroke-linecap="round" stroke-linejoin="round"/>
<path d="M50.732 308.706V312.452C50.732 312.87 50.6035 313.204 50.3465 313.456C50.0895 313.704 49.75 313.827 49.3281 313.827C48.9014 313.827 48.5595 313.701 48.3025 313.449C48.0455 313.192 47.917 312.843 47.917 312.402H48.5789C48.5838 312.649 48.6468 312.85 48.768 313.005C48.8941 313.161 49.0808 313.238 49.3281 313.238C49.5755 313.238 49.7597 313.165 49.881 313.02C50.0022 312.87 50.0628 312.68 50.0628 312.452V308.706H50.732ZM51.7887 311.769C51.7887 311.361 51.8712 311.005 52.0361 310.699C52.2009 310.389 52.4264 310.149 52.7125 309.979C53.0035 309.81 53.326 309.725 53.68 309.725C54.0291 309.725 54.3322 309.8 54.5892 309.95C54.8462 310.101 55.0378 310.29 55.1639 310.518V309.79H55.8331V313.776H55.1639V313.034C55.0329 313.267 54.8365 313.461 54.5747 313.616C54.3177 313.767 54.017 313.842 53.6727 313.842C53.3187 313.842 52.9987 313.755 52.7125 313.58C52.4264 313.405 52.2009 313.161 52.0361 312.845C51.8712 312.53 51.7887 312.171 51.7887 311.769ZM55.1639 311.776C55.1639 311.475 55.1033 311.213 54.982 310.99C54.8608 310.767 54.6959 310.598 54.4874 310.481C54.2837 310.36 54.0582 310.299 53.8109 310.299C53.5636 310.299 53.3381 310.358 53.1344 310.474C52.9308 310.59 52.7683 310.76 52.6471 310.983C52.5258 311.206 52.4652 311.468 52.4652 311.769C52.4652 312.074 52.5258 312.341 52.6471 312.569C52.7683 312.792 52.9308 312.964 53.1344 313.085C53.3381 313.202 53.5636 313.26 53.8109 313.26C54.0582 313.26 54.2837 313.202 54.4874 313.085C54.6959 312.964 54.8608 312.792 54.982 312.569C55.1033 312.341 55.1639 312.077 55.1639 311.776ZM58.8938 309.717C59.3788 309.717 59.7716 309.865 60.0722 310.161C60.3729 310.452 60.5232 310.874 60.5232 311.427V313.776H59.8686V311.521C59.8686 311.124 59.7692 310.821 59.5703 310.612C59.3715 310.399 59.0999 310.292 58.7556 310.292C58.4065 310.292 58.1277 310.401 57.9191 310.619C57.7155 310.838 57.6136 311.155 57.6136 311.572V313.776H56.9517V309.79H57.6136V310.358C57.7446 310.154 57.9216 309.996 58.1446 309.885C58.3725 309.773 58.6223 309.717 58.8938 309.717ZM65.1397 309.79V313.776H64.4777V313.187C64.3516 313.391 64.1746 313.551 63.9467 313.667C63.7236 313.779 63.4763 313.835 63.2048 313.835C62.8944 313.835 62.6156 313.772 62.3683 313.645C62.1209 313.515 61.9245 313.321 61.7791 313.064C61.6384 312.807 61.5681 312.494 61.5681 312.125V309.79H62.2228V312.038C62.2228 312.431 62.3222 312.734 62.521 312.947C62.7198 313.156 62.9914 313.26 63.3357 313.26C63.6897 313.26 63.9685 313.151 64.1722 312.933C64.3759 312.714 64.4777 312.397 64.4777 311.98V309.79H65.1397ZM66.01 311.769C66.01 311.361 66.0924 311.005 66.2573 310.699C66.4222 310.389 66.6477 310.149 66.9338 309.979C67.2247 309.81 67.5472 309.725 67.9012 309.725C68.2504 309.725 68.5534 309.8 68.8105 309.95C69.0675 310.101 69.259 310.29 69.3851 310.518V309.79H70.0543V313.776H69.3851V313.034C69.2542 313.267 69.0578 313.461 68.7959 313.616C68.5389 313.767 68.2382 313.842 67.8939 313.842C67.5399 313.842 67.2199 313.755 66.9338 313.58C66.6477 313.405 66.4222 313.161 66.2573 312.845C66.0924 312.53 66.01 312.171 66.01 311.769ZM69.3851 311.776C69.3851 311.475 69.3245 311.213 69.2033 310.99C69.082 310.767 68.9171 310.598 68.7086 310.481C68.505 310.36 68.2795 310.299 68.0321 310.299C67.7848 310.299 67.5593 310.358 67.3557 310.474C67.152 310.59 66.9895 310.76 66.8683 310.983C66.7471 311.206 66.6865 311.468 66.6865 311.769C66.6865 312.074 66.7471 312.341 66.8683 312.569C66.9895 312.792 67.152 312.964 67.3557 313.085C67.5593 313.202 67.7848 313.26 68.0321 313.26C68.2795 313.26 68.505 313.202 68.7086 313.085C68.9171 312.964 69.082 312.792 69.2033 312.569C69.3245 312.341 69.3851 312.077 69.3851 311.776ZM71.8349 310.438C71.9512 310.21 72.1161 310.033 72.3295 309.907C72.5477 309.781 72.812 309.717 73.1224 309.717V310.401H72.9478C72.2058 310.401 71.8349 310.804 71.8349 311.609V313.776H71.1729V309.79H71.8349V310.438ZM77.3198 309.79L74.9194 315.653H74.2356L75.0212 313.733L73.4137 309.79H74.1483L75.3995 313.02L76.636 309.79H77.3198Z" fill="#92959E"/>
<path d="M20.2764 258.345V257.741H21.6439V263H20.9747V258.345H20.2764ZM25.1159 263L23.552 261.24V263H22.8901V257.617H23.552V260.781L25.0868 259.014H26.0106L24.1339 261L26.0179 263H25.1159Z" fill="#92959E"/>
<path d="M20.8043 161.316H18.2511V162.974C18.3627 162.819 18.5275 162.693 18.7458 162.596C18.964 162.494 19.1992 162.443 19.4513 162.443C19.8538 162.443 20.1812 162.528 20.4333 162.698C20.6855 162.862 20.8649 163.078 20.9716 163.345C21.0831 163.607 21.1389 163.886 21.1389 164.182C21.1389 164.531 21.0734 164.843 20.9425 165.12C20.8116 165.396 20.6103 165.614 20.3388 165.775C20.0721 165.935 19.7399 166.015 19.3422 166.015C18.833 166.015 18.4209 165.884 18.1056 165.622C17.7904 165.36 17.5989 165.011 17.531 164.574H18.1784C18.2414 164.851 18.3748 165.067 18.5785 165.222C18.7821 165.377 19.0391 165.454 19.3495 165.454C19.7326 165.454 20.0211 165.34 20.2151 165.113C20.4091 164.88 20.5061 164.574 20.5061 164.196C20.5061 163.818 20.4091 163.527 20.2151 163.323C20.0211 163.115 19.735 163.01 19.3568 163.01C19.0998 163.01 18.8743 163.073 18.6803 163.2C18.4912 163.321 18.353 163.488 18.2657 163.701H17.6401V160.734H20.8043V161.316ZM24.3535 166L22.7896 164.24V166H22.1277V160.617H22.7896V163.781L24.3244 162.014H25.2482L23.3715 164L25.2555 166H24.3535Z" fill="#92959E"/>
<path d="M18.302 69.5888C18.3505 69.8653 18.4621 70.0786 18.6366 70.229C18.8161 70.3793 19.0561 70.4545 19.3568 70.4545C19.7593 70.4545 20.0551 70.2968 20.2442 69.9816C20.4382 69.6664 20.5303 69.1354 20.5206 68.3886C20.4188 68.6069 20.2491 68.779 20.0114 68.9051C19.7738 69.0263 19.5095 69.0869 19.2186 69.0869C18.8937 69.0869 18.6027 69.0215 18.3457 68.8905C18.0935 68.7548 17.8947 68.5584 17.7492 68.3013C17.6037 68.0443 17.531 67.734 17.531 67.3703C17.531 66.8514 17.6813 66.4344 17.982 66.1191C18.2826 65.7991 18.7094 65.6391 19.2622 65.6391C19.9411 65.6391 20.4164 65.8597 20.6879 66.301C20.9643 66.7423 21.1025 67.3994 21.1025 68.2723C21.1025 68.8833 21.0468 69.3876 20.9352 69.7852C20.8285 70.1829 20.6443 70.486 20.3824 70.6945C20.1254 70.903 19.7714 71.0073 19.3204 71.0073C18.8258 71.0073 18.4403 70.8739 18.1638 70.6072C17.8874 70.3405 17.7298 70.001 17.691 69.5888H18.302ZM19.3277 68.5268C19.6526 68.5268 19.9193 68.4274 20.1278 68.2286C20.3363 68.0249 20.4406 67.7509 20.4406 67.4066C20.4406 67.0429 20.3388 66.7496 20.1351 66.5265C19.9314 66.3034 19.6453 66.1919 19.2768 66.1919C18.9373 66.1919 18.6657 66.2986 18.4621 66.5119C18.2633 66.7253 18.1638 67.0066 18.1638 67.3557C18.1638 67.7097 18.2633 67.9934 18.4621 68.2068C18.6609 68.4202 18.9494 68.5268 19.3277 68.5268ZM24.3677 71L22.8038 69.2397V71H22.1419V65.6172H22.8038V68.7814L24.3386 67.0138H25.2624L23.3857 68.9997L25.2697 71H24.3677Z" fill="#92959E"/>
<path d="M17.4364 210.065C17.4704 209.619 17.6425 209.269 17.9529 209.017C18.2633 208.765 18.6657 208.639 19.1604 208.639C19.4901 208.639 19.7738 208.7 20.0114 208.821C20.2539 208.937 20.4358 209.097 20.557 209.301C20.6831 209.505 20.7461 209.735 20.7461 209.992C20.7461 210.293 20.6588 210.552 20.4842 210.77C20.3145 210.989 20.0914 211.129 19.815 211.192V211.229C20.1302 211.306 20.38 211.459 20.5643 211.687C20.7485 211.915 20.8407 212.213 20.8407 212.582C20.8407 212.858 20.7776 213.108 20.6515 213.331C20.5255 213.549 20.3363 213.721 20.0842 213.847C19.832 213.973 19.5289 214.036 19.1749 214.036C18.6609 214.036 18.239 213.903 17.9092 213.636C17.5795 213.365 17.3952 212.982 17.3564 212.487H17.9965C18.0305 212.778 18.1493 213.016 18.353 213.2C18.5566 213.384 18.8282 213.476 19.1677 213.476C19.5071 213.476 19.7641 213.389 19.9387 213.214C20.1181 213.035 20.2078 212.805 20.2078 212.523C20.2078 212.16 20.0866 211.898 19.8441 211.738C19.6017 211.578 19.2355 211.498 18.7458 211.498H18.5785V210.945H18.753C19.1992 210.94 19.5362 210.867 19.7641 210.727C19.992 210.581 20.106 210.358 20.106 210.057C20.106 209.8 20.0211 209.594 19.8514 209.439C19.6865 209.284 19.4489 209.206 19.1386 209.206C18.8379 209.206 18.5954 209.284 18.4112 209.439C18.2269 209.594 18.1178 209.803 18.0838 210.065H17.4364ZM24.0694 214L22.5054 212.24V214H21.8435V208.617H22.5054V211.781L24.0403 210.014H24.9641L23.0874 212L24.9713 214H24.0694Z" fill="#92959E"/>
<path d="M20.6879 114.257L18.6657 119H17.9965L20.0478 114.323H17.24V113.755H20.6879V114.257ZM23.7568 119L22.1929 117.24V119H21.531V113.617H22.1929V116.781L23.7277 115.014H24.6515L22.7748 117L24.6588 119H23.7568Z" fill="#92959E"/>
<path d="M282.802 308.743V313.776H282.14V310.023L280.467 313.776H280.001L278.321 310.016V313.776H277.659V308.743H278.372L280.234 312.903L282.096 308.743H282.802ZM283.677 311.769C283.677 311.361 283.759 311.005 283.924 310.699C284.089 310.389 284.315 310.149 284.601 309.979C284.892 309.81 285.214 309.725 285.568 309.725C285.917 309.725 286.22 309.8 286.477 309.95C286.734 310.101 286.926 310.29 287.052 310.518V309.79H287.721V313.776H287.052V313.034C286.921 313.267 286.725 313.461 286.463 313.616C286.206 313.767 285.905 313.842 285.561 313.842C285.207 313.842 284.887 313.755 284.601 313.58C284.315 313.405 284.089 313.161 283.924 312.845C283.759 312.53 283.677 312.171 283.677 311.769ZM287.052 311.776C287.052 311.475 286.991 311.213 286.87 310.99C286.749 310.767 286.584 310.598 286.376 310.481C286.172 310.36 285.946 310.299 285.699 310.299C285.452 310.299 285.226 310.358 285.023 310.474C284.819 310.59 284.657 310.76 284.535 310.983C284.414 311.206 284.353 311.468 284.353 311.769C284.353 312.074 284.414 312.341 284.535 312.569C284.657 312.792 284.819 312.964 285.023 313.085C285.226 313.202 285.452 313.26 285.699 313.26C285.946 313.26 286.172 313.202 286.376 313.085C286.584 312.964 286.749 312.792 286.87 312.569C286.991 312.341 287.052 312.077 287.052 311.776ZM289.502 310.438C289.618 310.21 289.783 310.033 289.996 309.907C290.215 309.781 290.479 309.717 290.789 309.717V310.401H290.615C289.873 310.401 289.502 310.804 289.502 311.609V313.776H288.84V309.79H289.502V310.438ZM291.306 311.776C291.306 311.364 291.389 311.005 291.553 310.699C291.718 310.389 291.946 310.149 292.237 309.979C292.533 309.81 292.87 309.725 293.248 309.725C293.738 309.725 294.141 309.844 294.456 310.081C294.776 310.319 294.987 310.649 295.089 311.07H294.376C294.308 310.828 294.175 310.636 293.976 310.496C293.782 310.355 293.539 310.285 293.248 310.285C292.87 310.285 292.565 310.416 292.332 310.678C292.099 310.935 291.983 311.301 291.983 311.776C291.983 312.256 292.099 312.627 292.332 312.889C292.565 313.151 292.87 313.282 293.248 313.282C293.539 313.282 293.782 313.214 293.976 313.078C294.17 312.942 294.303 312.748 294.376 312.496H295.089C294.982 312.903 294.769 313.231 294.449 313.478C294.128 313.721 293.728 313.842 293.248 313.842C292.87 313.842 292.533 313.757 292.237 313.587C291.946 313.418 291.718 313.177 291.553 312.867C291.389 312.557 291.306 312.193 291.306 311.776ZM297.95 309.717C298.251 309.717 298.523 309.783 298.765 309.914C299.008 310.04 299.197 310.232 299.332 310.489C299.473 310.746 299.543 311.058 299.543 311.427V313.776H298.889V311.521C298.889 311.124 298.789 310.821 298.59 310.612C298.392 310.399 298.12 310.292 297.776 310.292C297.427 310.292 297.148 310.401 296.939 310.619C296.736 310.838 296.634 311.155 296.634 311.572V313.776H295.972V308.394H296.634V310.358C296.765 310.154 296.944 309.996 297.172 309.885C297.405 309.773 297.664 309.717 297.95 309.717Z" fill="#92959E"/>
<path d="M161.808 308.706V309.245H159.604V310.954H161.394V311.492H159.604V313.776H158.942V308.706H161.808ZM166.245 311.631C166.245 311.757 166.238 311.89 166.223 312.031H163.037C163.061 312.423 163.195 312.731 163.437 312.954C163.684 313.173 163.983 313.282 164.332 313.282C164.618 313.282 164.856 313.216 165.045 313.085C165.239 312.95 165.374 312.77 165.452 312.547H166.165C166.058 312.93 165.845 313.243 165.525 313.485C165.205 313.723 164.807 313.842 164.332 313.842C163.954 313.842 163.614 313.757 163.313 313.587C163.018 313.418 162.785 313.177 162.615 312.867C162.445 312.552 162.361 312.188 162.361 311.776C162.361 311.364 162.443 311.003 162.608 310.692C162.773 310.382 163.003 310.144 163.299 309.979C163.6 309.81 163.944 309.725 164.332 309.725C164.71 309.725 165.045 309.807 165.336 309.972C165.627 310.137 165.85 310.365 166.005 310.656C166.165 310.942 166.245 311.267 166.245 311.631ZM165.561 311.492C165.561 311.24 165.505 311.024 165.394 310.845C165.282 310.661 165.13 310.522 164.936 310.43C164.746 310.333 164.535 310.285 164.303 310.285C163.968 310.285 163.682 310.392 163.444 310.605C163.212 310.818 163.078 311.114 163.044 311.492H165.561ZM167.781 310.532C167.916 310.295 168.115 310.101 168.377 309.95C168.639 309.8 168.937 309.725 169.272 309.725C169.631 309.725 169.953 309.81 170.239 309.979C170.525 310.149 170.751 310.389 170.916 310.699C171.08 311.005 171.163 311.361 171.163 311.769C171.163 312.171 171.08 312.53 170.916 312.845C170.751 313.161 170.523 313.405 170.232 313.58C169.946 313.755 169.626 313.842 169.272 313.842C168.927 313.842 168.624 313.767 168.362 313.616C168.105 313.466 167.911 313.274 167.781 313.042V313.776H167.119V308.394H167.781V310.532ZM170.486 311.769C170.486 311.468 170.426 311.206 170.305 310.983C170.183 310.76 170.018 310.59 169.81 310.474C169.606 310.358 169.381 310.299 169.133 310.299C168.891 310.299 168.666 310.36 168.457 310.481C168.253 310.598 168.088 310.77 167.962 310.998C167.841 311.221 167.781 311.48 167.781 311.776C167.781 312.077 167.841 312.341 167.962 312.569C168.088 312.792 168.253 312.964 168.457 313.085C168.666 313.202 168.891 313.26 169.133 313.26C169.381 313.26 169.606 313.202 169.81 313.085C170.018 312.964 170.183 312.792 170.305 312.569C170.426 312.341 170.486 312.074 170.486 311.769ZM172.696 310.438C172.813 310.21 172.977 310.033 173.191 309.907C173.409 309.781 173.673 309.717 173.984 309.717V310.401H173.809C173.067 310.401 172.696 310.804 172.696 311.609V313.776H172.034V309.79H172.696V310.438ZM178.283 309.79V313.776H177.621V313.187C177.495 313.391 177.318 313.551 177.09 313.667C176.867 313.779 176.62 313.835 176.348 313.835C176.038 313.835 175.759 313.772 175.512 313.645C175.264 313.515 175.068 313.321 174.922 313.064C174.782 312.807 174.711 312.494 174.711 312.125V309.79H175.366V312.038C175.366 312.431 175.465 312.734 175.664 312.947C175.863 313.156 176.135 313.26 176.479 313.26C176.833 313.26 177.112 313.151 177.315 312.933C177.519 312.714 177.621 312.397 177.621 311.98V309.79H178.283ZM179.153 311.769C179.153 311.361 179.236 311.005 179.401 310.699C179.565 310.389 179.791 310.149 180.077 309.979C180.368 309.81 180.69 309.725 181.044 309.725C181.394 309.725 181.697 309.8 181.954 309.95C182.211 310.101 182.402 310.29 182.528 310.518V309.79H183.198V313.776H182.528V313.034C182.397 313.267 182.201 313.461 181.939 313.616C181.682 313.767 181.382 313.842 181.037 313.842C180.683 313.842 180.363 313.755 180.077 313.58C179.791 313.405 179.565 313.161 179.401 312.845C179.236 312.53 179.153 312.171 179.153 311.769ZM182.528 311.776C182.528 311.475 182.468 311.213 182.347 310.99C182.225 310.767 182.06 310.598 181.852 310.481C181.648 310.36 181.423 310.299 181.175 310.299C180.928 310.299 180.703 310.358 180.499 310.474C180.295 310.59 180.133 310.76 180.012 310.983C179.89 311.206 179.83 311.468 179.83 311.769C179.83 312.074 179.89 312.341 180.012 312.569C180.133 312.792 180.295 312.964 180.499 313.085C180.703 313.202 180.928 313.26 181.175 313.26C181.423 313.26 181.648 313.202 181.852 313.085C182.06 312.964 182.225 312.792 182.347 312.569C182.468 312.341 182.528 312.077 182.528 311.776ZM184.978 310.438C185.095 310.21 185.259 310.033 185.473 309.907C185.691 309.781 185.955 309.717 186.266 309.717V310.401H186.091C185.349 310.401 184.978 310.804 184.978 311.609V313.776H184.316V309.79H184.978V310.438ZM190.463 309.79L188.063 315.653H187.379L188.164 313.733L186.557 309.79H187.292L188.543 313.02L189.779 309.79H190.463Z" fill="#92959E"/>
<path d="M396.898 312.649H394.687L394.279 313.776H393.581L395.414 308.735H396.178L398.004 313.776H397.305L396.898 312.649ZM396.709 312.111L395.792 309.55L394.876 312.111H396.709ZM399.465 310.525C399.596 310.297 399.789 310.108 400.047 309.958C400.308 309.802 400.611 309.725 400.956 309.725C401.31 309.725 401.63 309.81 401.916 309.979C402.207 310.149 402.435 310.389 402.6 310.699C402.765 311.005 402.847 311.361 402.847 311.769C402.847 312.171 402.765 312.53 402.6 312.845C402.435 313.161 402.207 313.405 401.916 313.58C401.63 313.755 401.31 313.842 400.956 313.842C400.616 313.842 400.316 313.767 400.054 313.616C399.797 313.461 399.6 313.27 399.465 313.042V315.668H398.803V309.79H399.465V310.525ZM402.171 311.769C402.171 311.468 402.11 311.206 401.989 310.983C401.867 310.76 401.703 310.59 401.494 310.474C401.29 310.358 401.065 310.299 400.818 310.299C400.575 310.299 400.35 310.36 400.141 310.481C399.937 310.598 399.773 310.77 399.646 310.998C399.525 311.221 399.465 311.48 399.465 311.776C399.465 312.077 399.525 312.341 399.646 312.569C399.773 312.792 399.937 312.964 400.141 313.085C400.35 313.202 400.575 313.26 400.818 313.26C401.065 313.26 401.29 313.202 401.494 313.085C401.703 312.964 401.867 312.792 401.989 312.569C402.11 312.341 402.171 312.074 402.171 311.769ZM404.38 310.438C404.497 310.21 404.661 310.033 404.875 309.907C405.093 309.781 405.357 309.717 405.668 309.717V310.401H405.493C404.751 310.401 404.38 310.804 404.38 311.609V313.776H403.718V309.79H404.38V310.438ZM406.774 309.143C406.648 309.143 406.541 309.099 406.454 309.012C406.366 308.925 406.323 308.818 406.323 308.692C406.323 308.566 406.366 308.459 406.454 308.372C406.541 308.284 406.648 308.241 406.774 308.241C406.895 308.241 406.997 308.284 407.079 308.372C407.166 308.459 407.21 308.566 407.21 308.692C407.21 308.818 407.166 308.925 407.079 309.012C406.997 309.099 406.895 309.143 406.774 309.143ZM407.094 309.79V313.776H406.432V309.79H407.094ZM408.884 308.394V313.776H408.222V308.394H408.884Z" fill="#92959E"/>
<path d="M513.135 308.743V313.776H512.473V310.023L510.8 313.776H510.335L508.654 310.016V313.776H507.993V308.743H508.705L510.568 312.903L512.43 308.743H513.135ZM514.011 311.769C514.011 311.361 514.093 311.005 514.258 310.699C514.423 310.389 514.648 310.149 514.934 309.979C515.225 309.81 515.548 309.725 515.902 309.725C516.251 309.725 516.554 309.8 516.811 309.95C517.068 310.101 517.26 310.29 517.386 310.518V309.79H518.055V313.776H517.386V313.034C517.255 313.267 517.058 313.461 516.796 313.616C516.539 313.767 516.239 313.842 515.895 313.842C515.541 313.842 515.22 313.755 514.934 313.58C514.648 313.405 514.423 313.161 514.258 312.845C514.093 312.53 514.011 312.171 514.011 311.769ZM517.386 311.776C517.386 311.475 517.325 311.213 517.204 310.99C517.083 310.767 516.918 310.598 516.709 310.481C516.506 310.36 516.28 310.299 516.033 310.299C515.785 310.299 515.56 310.358 515.356 310.474C515.153 310.59 514.99 310.76 514.869 310.983C514.748 311.206 514.687 311.468 514.687 311.769C514.687 312.074 514.748 312.341 514.869 312.569C514.99 312.792 515.153 312.964 515.356 313.085C515.56 313.202 515.785 313.26 516.033 313.26C516.28 313.26 516.506 313.202 516.709 313.085C516.918 312.964 517.083 312.792 517.204 312.569C517.325 312.341 517.386 312.077 517.386 311.776ZM522.607 309.79L520.206 315.653H519.523L520.308 313.733L518.701 309.79H519.435L520.686 313.02L521.923 309.79H522.607Z" fill="#92959E"/>
<path d="M616.366 308.743V313.776H615.704V310.023L614.031 313.776H613.565L611.885 310.016V313.776H611.223V308.743H611.936L613.798 312.903L615.66 308.743H616.366ZM617.241 311.769C617.241 311.361 617.324 311.005 617.488 310.699C617.653 310.389 617.879 310.149 618.165 309.979C618.456 309.81 618.778 309.725 619.132 309.725C619.482 309.725 619.785 309.8 620.042 309.95C620.299 310.101 620.49 310.29 620.616 310.518V309.79H621.286V313.776H620.616V313.034C620.485 313.267 620.289 313.461 620.027 313.616C619.77 313.767 619.469 313.842 619.125 313.842C618.771 313.842 618.451 313.755 618.165 313.58C617.879 313.405 617.653 313.161 617.488 312.845C617.324 312.53 617.241 312.171 617.241 311.769ZM620.616 311.776C620.616 311.475 620.556 311.213 620.434 310.99C620.313 310.767 620.148 310.598 619.94 310.481C619.736 310.36 619.511 310.299 619.263 310.299C619.016 310.299 618.791 310.358 618.587 310.474C618.383 310.59 618.221 310.76 618.099 310.983C617.978 311.206 617.918 311.468 617.918 311.769C617.918 312.074 617.978 312.341 618.099 312.569C618.221 312.792 618.383 312.964 618.587 313.085C618.791 313.202 619.016 313.26 619.263 313.26C619.511 313.26 619.736 313.202 619.94 313.085C620.148 312.964 620.313 312.792 620.434 312.569C620.556 312.341 620.616 312.077 620.616 311.776ZM625.837 309.79L623.437 315.653H622.753L623.539 313.733L621.931 309.79H622.666L623.917 313.02L625.154 309.79H625.837Z" fill="#92959E"/>
<path d="M478 296L478 66" stroke="#ECECEE" stroke-width="0.606167"/>
<circle cx="478.306" cy="66.3059" r="4.3059" fill="white" stroke="#3498DB" stroke-width="1.8185"/>
<circle cx="473.736" cy="297.165" r="4.3059" fill="white" stroke="#3498DB" stroke-width="1.8185"/>
<g filter="url(#filter0_d)">
<rect x="415" y="89" width="90.424" height="49.9485" rx="7.274" fill="white"/>
</g>
<path d="M423.016 101.673C423.64 101.673 424.18 101.791 424.635 102.027C425.095 102.257 425.446 102.589 425.687 103.022C425.934 103.455 426.057 103.964 426.057 104.551C426.057 105.137 425.934 105.647 425.687 106.08C425.446 106.507 425.095 106.836 424.635 107.066C424.18 107.291 423.64 107.403 423.016 107.403H421.232V101.673H423.016ZM423.016 106.787C423.755 106.787 424.32 106.592 424.709 106.203C425.098 105.808 425.293 105.258 425.293 104.551C425.293 103.838 425.095 103.282 424.701 102.882C424.312 102.482 423.75 102.282 423.016 102.282H421.98V106.787H423.016ZM426.764 105.134C426.764 104.674 426.858 104.271 427.044 103.926C427.23 103.575 427.485 103.304 427.809 103.112C428.137 102.92 428.502 102.824 428.902 102.824C429.296 102.824 429.639 102.909 429.929 103.079C430.22 103.249 430.436 103.463 430.579 103.72V102.898H431.335V107.403H430.579V106.565C430.431 106.828 430.209 107.047 429.913 107.222C429.623 107.392 429.283 107.477 428.894 107.477C428.494 107.477 428.132 107.379 427.809 107.181C427.485 106.984 427.23 106.707 427.044 106.351C426.858 105.995 426.764 105.589 426.764 105.134ZM430.579 105.143C430.579 104.803 430.51 104.507 430.373 104.255C430.236 104.003 430.05 103.811 429.814 103.679C429.584 103.542 429.329 103.474 429.05 103.474C428.77 103.474 428.516 103.54 428.285 103.671C428.055 103.803 427.872 103.994 427.735 104.247C427.598 104.499 427.529 104.795 427.529 105.134C427.529 105.48 427.598 105.781 427.735 106.039C427.872 106.291 428.055 106.485 428.285 106.622C428.516 106.754 428.77 106.82 429.05 106.82C429.329 106.82 429.584 106.754 429.814 106.622C430.05 106.485 430.236 106.291 430.373 106.039C430.51 105.781 430.579 105.482 430.579 105.143ZM432.986 102.167C432.843 102.167 432.723 102.117 432.624 102.019C432.525 101.92 432.476 101.799 432.476 101.657C432.476 101.515 432.525 101.394 432.624 101.295C432.723 101.197 432.843 101.147 432.986 101.147C433.123 101.147 433.238 101.197 433.331 101.295C433.43 101.394 433.479 101.515 433.479 101.657C433.479 101.799 433.43 101.92 433.331 102.019C433.238 102.117 433.123 102.167 432.986 102.167ZM433.348 102.898V107.403H432.599V102.898H433.348ZM435.371 101.32V107.403H434.623V101.32H435.371ZM440.526 102.898L437.813 109.524H437.04L437.928 107.354L436.111 102.898H436.942L438.356 106.548L439.753 102.898H440.526ZM449.282 101.715V107.403H448.533V103.161L446.643 107.403H446.117L444.218 103.153V107.403H443.469V101.715H444.275L446.38 106.417L448.484 101.715H449.282ZM454.661 104.978C454.661 105.121 454.652 105.271 454.636 105.43H451.035C451.063 105.874 451.213 106.222 451.487 106.474C451.767 106.721 452.104 106.844 452.499 106.844C452.822 106.844 453.09 106.77 453.304 106.622C453.523 106.469 453.677 106.266 453.765 106.014H454.57C454.45 106.447 454.209 106.8 453.847 107.074C453.485 107.343 453.036 107.477 452.499 107.477C452.071 107.477 451.687 107.381 451.348 107.19C451.013 106.998 450.75 106.726 450.558 106.376C450.367 106.019 450.271 105.608 450.271 105.143C450.271 104.677 450.364 104.268 450.55 103.918C450.737 103.567 450.997 103.298 451.331 103.112C451.671 102.92 452.06 102.824 452.499 102.824C452.926 102.824 453.304 102.918 453.633 103.104C453.962 103.29 454.214 103.548 454.389 103.877C454.57 104.2 454.661 104.567 454.661 104.978ZM453.888 104.822C453.888 104.537 453.825 104.293 453.699 104.09C453.573 103.882 453.4 103.726 453.181 103.622C452.967 103.512 452.729 103.457 452.466 103.457C452.088 103.457 451.764 103.578 451.496 103.819C451.233 104.06 451.082 104.395 451.044 104.822H453.888ZM457.843 102.816C458.391 102.816 458.835 102.983 459.175 103.318C459.515 103.646 459.685 104.123 459.685 104.748V107.403H458.945V104.855C458.945 104.405 458.832 104.063 458.608 103.827C458.383 103.586 458.076 103.466 457.687 103.466C457.292 103.466 456.977 103.589 456.741 103.836C456.511 104.082 456.396 104.441 456.396 104.912V107.403H455.648V102.898H456.396V103.54C456.544 103.309 456.744 103.131 456.996 103.005C457.254 102.879 457.536 102.816 457.843 102.816ZM461.819 103.515V106.17C461.819 106.389 461.866 106.546 461.959 106.639C462.052 106.726 462.214 106.77 462.444 106.77H462.995V107.403H462.32C461.904 107.403 461.592 107.307 461.383 107.116C461.175 106.924 461.071 106.609 461.071 106.17V103.515H460.487V102.898H461.071V101.764H461.819V102.898H462.995V103.515H461.819ZM465.866 107.477C465.444 107.477 465.06 107.381 464.715 107.19C464.375 106.998 464.107 106.726 463.909 106.376C463.717 106.019 463.622 105.608 463.622 105.143C463.622 104.682 463.72 104.277 463.917 103.926C464.12 103.57 464.394 103.298 464.74 103.112C465.085 102.92 465.471 102.824 465.899 102.824C466.326 102.824 466.713 102.92 467.058 103.112C467.403 103.298 467.674 103.567 467.872 103.918C468.074 104.268 468.176 104.677 468.176 105.143C468.176 105.608 468.072 106.019 467.863 106.376C467.661 106.726 467.384 106.998 467.033 107.19C466.682 107.381 466.293 107.477 465.866 107.477ZM465.866 106.82C466.134 106.82 466.386 106.757 466.622 106.631C466.858 106.505 467.047 106.315 467.189 106.063C467.337 105.811 467.411 105.504 467.411 105.143C467.411 104.781 467.34 104.474 467.198 104.222C467.055 103.97 466.869 103.783 466.639 103.663C466.408 103.537 466.159 103.474 465.89 103.474C465.616 103.474 465.364 103.537 465.134 103.663C464.909 103.783 464.729 103.97 464.592 104.222C464.455 104.474 464.386 104.781 464.386 105.143C464.386 105.51 464.452 105.819 464.583 106.072C464.72 106.324 464.901 106.513 465.126 106.639C465.351 106.759 465.597 106.82 465.866 106.82ZM469.908 103.63C470.039 103.372 470.225 103.172 470.467 103.03C470.713 102.887 471.012 102.816 471.363 102.816V103.589H471.165C470.327 103.589 469.908 104.044 469.908 104.954V107.403H469.159V102.898H469.908V103.63ZM475.166 106.795H477.172V107.403H474.418V101.673H475.166V106.795ZM479.931 107.477C479.509 107.477 479.125 107.381 478.78 107.19C478.44 106.998 478.172 106.726 477.974 106.376C477.783 106.019 477.687 105.608 477.687 105.143C477.687 104.682 477.785 104.277 477.983 103.926C478.185 103.57 478.459 103.298 478.805 103.112C479.15 102.92 479.536 102.824 479.964 102.824C480.391 102.824 480.778 102.92 481.123 103.112C481.468 103.298 481.74 103.567 481.937 103.918C482.14 104.268 482.241 104.677 482.241 105.143C482.241 105.608 482.137 106.019 481.929 106.376C481.726 106.726 481.449 106.998 481.098 107.19C480.748 107.381 480.358 107.477 479.931 107.477ZM479.931 106.82C480.2 106.82 480.452 106.757 480.687 106.631C480.923 106.505 481.112 106.315 481.255 106.063C481.403 105.811 481.477 105.504 481.477 105.143C481.477 104.781 481.405 104.474 481.263 104.222C481.12 103.97 480.934 103.783 480.704 103.663C480.474 103.537 480.224 103.474 479.956 103.474C479.682 103.474 479.43 103.537 479.199 103.663C478.975 103.783 478.794 103.97 478.657 104.222C478.52 104.474 478.451 104.781 478.451 105.143C478.451 105.51 478.517 105.819 478.649 106.072C478.786 106.324 478.966 106.513 479.191 106.639C479.416 106.759 479.662 106.82 479.931 106.82ZM485.083 102.824C485.472 102.824 485.811 102.909 486.102 103.079C486.398 103.249 486.617 103.463 486.76 103.72V102.898H487.516V107.502C487.516 107.913 487.428 108.277 487.253 108.595C487.077 108.919 486.825 109.171 486.497 109.352C486.173 109.533 485.795 109.623 485.362 109.623C484.77 109.623 484.277 109.483 483.882 109.204C483.488 108.924 483.255 108.543 483.184 108.061H483.923C484.006 108.335 484.176 108.554 484.433 108.719C484.691 108.889 485 108.973 485.362 108.973C485.773 108.973 486.107 108.845 486.365 108.587C486.628 108.33 486.76 107.968 486.76 107.502V106.557C486.612 106.82 486.392 107.039 486.102 107.214C485.811 107.39 485.472 107.477 485.083 107.477C484.682 107.477 484.318 107.379 483.989 107.181C483.666 106.984 483.411 106.707 483.225 106.351C483.038 105.995 482.945 105.589 482.945 105.134C482.945 104.674 483.038 104.271 483.225 103.926C483.411 103.575 483.666 103.304 483.989 103.112C484.318 102.92 484.682 102.824 485.083 102.824ZM486.76 105.143C486.76 104.803 486.691 104.507 486.554 104.255C486.417 104.003 486.231 103.811 485.995 103.679C485.765 103.542 485.51 103.474 485.231 103.474C484.951 103.474 484.696 103.54 484.466 103.671C484.236 103.803 484.052 103.994 483.915 104.247C483.778 104.499 483.71 104.795 483.71 105.134C483.71 105.48 483.778 105.781 483.915 106.039C484.052 106.291 484.236 106.485 484.466 106.622C484.696 106.754 484.951 106.82 485.231 106.82C485.51 106.82 485.765 106.754 485.995 106.622C486.231 106.485 486.417 106.291 486.554 106.039C486.691 105.781 486.76 105.482 486.76 105.143ZM489.166 102.167C489.024 102.167 488.903 102.117 488.805 102.019C488.706 101.92 488.657 101.799 488.657 101.657C488.657 101.515 488.706 101.394 488.805 101.295C488.903 101.197 489.024 101.147 489.166 101.147C489.303 101.147 489.419 101.197 489.512 101.295C489.61 101.394 489.66 101.515 489.66 101.657C489.66 101.799 489.61 101.92 489.512 102.019C489.419 102.117 489.303 102.167 489.166 102.167ZM489.528 102.898V107.403H488.78V102.898H489.528ZM492.998 102.816C493.546 102.816 493.99 102.983 494.33 103.318C494.67 103.646 494.84 104.123 494.84 104.748V107.403H494.1V104.855C494.1 104.405 493.987 104.063 493.763 103.827C493.538 103.586 493.231 103.466 492.842 103.466C492.447 103.466 492.132 103.589 491.897 103.836C491.666 104.082 491.551 104.441 491.551 104.912V107.403H490.803V102.898H491.551V103.54C491.699 103.309 491.899 103.131 492.151 103.005C492.409 102.879 492.691 102.816 492.998 102.816ZM497.656 107.477C497.311 107.477 497.001 107.42 496.727 107.305C496.453 107.184 496.237 107.02 496.078 106.811C495.919 106.598 495.831 106.354 495.815 106.08H496.588C496.61 106.304 496.714 106.488 496.9 106.631C497.092 106.773 497.341 106.844 497.648 106.844C497.933 106.844 498.158 106.781 498.322 106.655C498.487 106.529 498.569 106.37 498.569 106.178C498.569 105.981 498.481 105.836 498.306 105.743C498.13 105.644 497.859 105.548 497.492 105.455C497.158 105.367 496.884 105.28 496.67 105.192C496.462 105.099 496.281 104.964 496.127 104.789C495.979 104.608 495.905 104.373 495.905 104.082C495.905 103.852 495.974 103.641 496.111 103.449C496.248 103.257 496.442 103.107 496.695 102.997C496.947 102.882 497.234 102.824 497.558 102.824C498.056 102.824 498.459 102.95 498.766 103.203C499.073 103.455 499.238 103.8 499.259 104.238H498.511C498.495 104.003 498.399 103.814 498.224 103.671C498.054 103.529 497.824 103.457 497.533 103.457C497.265 103.457 497.051 103.515 496.892 103.63C496.733 103.745 496.653 103.896 496.653 104.082C496.653 104.23 496.7 104.353 496.793 104.452C496.892 104.545 497.012 104.622 497.155 104.682C497.303 104.737 497.506 104.8 497.763 104.871C498.087 104.959 498.35 105.047 498.552 105.134C498.755 105.217 498.928 105.343 499.07 105.513C499.218 105.682 499.295 105.904 499.301 106.178C499.301 106.425 499.232 106.647 499.095 106.844C498.958 107.042 498.763 107.198 498.511 107.313C498.265 107.423 497.98 107.477 497.656 107.477Z" fill="#92959E"/>
<path d="M453.107 126.09C454.133 125.265 454.937 124.59 455.519 124.065C456.101 123.532 456.59 122.978 456.986 122.404C457.39 121.822 457.592 121.252 457.592 120.695C457.592 120.169 457.463 119.757 457.204 119.458C456.954 119.151 456.546 118.997 455.98 118.997C455.43 118.997 455.002 119.171 454.695 119.519C454.396 119.858 454.234 120.315 454.21 120.889H453.143C453.175 119.983 453.45 119.284 453.967 118.791C454.485 118.298 455.151 118.052 455.968 118.052C456.8 118.052 457.459 118.282 457.944 118.743C458.437 119.204 458.683 119.838 458.683 120.646C458.683 121.317 458.481 121.972 458.077 122.61C457.681 123.241 457.229 123.798 456.719 124.283C456.21 124.76 455.56 125.318 454.767 125.956H458.938V126.878H453.107V126.09ZM465.802 119.167H461.547V121.931C461.733 121.673 462.007 121.463 462.371 121.301C462.735 121.131 463.127 121.046 463.547 121.046C464.218 121.046 464.764 121.188 465.184 121.471C465.604 121.745 465.903 122.105 466.081 122.55C466.267 122.986 466.36 123.451 466.36 123.944C466.36 124.526 466.251 125.047 466.032 125.508C465.814 125.968 465.479 126.332 465.026 126.599C464.582 126.865 464.028 126.999 463.365 126.999C462.517 126.999 461.83 126.781 461.304 126.344C460.779 125.908 460.46 125.326 460.347 124.598H461.426C461.531 125.059 461.753 125.419 462.092 125.677C462.432 125.936 462.86 126.065 463.377 126.065C464.016 126.065 464.497 125.875 464.82 125.496C465.143 125.108 465.305 124.598 465.305 123.968C465.305 123.338 465.143 122.853 464.82 122.513C464.497 122.166 464.02 121.992 463.39 121.992C462.961 121.992 462.585 122.097 462.262 122.307C461.947 122.509 461.717 122.788 461.571 123.144H460.528V118.197H465.802V119.167Z" fill="#15192C"/>
<defs>
<filter id="filter0_d" x="398.027" y="82.9383" width="124.369" height="83.8938" filterUnits="userSpaceOnUse" color-interpolation-filters="sRGB">
<feFlood flood-opacity="0" result="BackgroundImageFix"/>
<feColorMatrix in="SourceAlpha" type="matrix" values="0 0 0 0 0 0 0 0 0 0 0 0 0 0 0 0 0 0 127 0" result="hardAlpha"/>
<feMorphology radius="2.42467" operator="erode" in="SourceAlpha" result="effect1_dropShadow"/>
<feOffset dy="10.911"/>
<feGaussianBlur stdDeviation="9.69866"/>
<feColorMatrix type="matrix" values="0 0 0 0 0.815686 0 0 0 0 0.823529 0 0 0 0 0.854902 0 0 0 0.15 0"/>
<feBlend mode="normal" in2="BackgroundImageFix" result="effect1_dropShadow"/>
<feBlend mode="normal" in="SourceGraphic" in2="effect1_dropShadow" result="shape"/>
</filter>
<linearGradient id="paint0_linear" x1="355.385" y1="0.937215" x2="355.385" y2="306.705" gradientUnits="userSpaceOnUse">
<stop stop-color="#D4EEFF"/>
<stop offset="1" stop-color="white"/>
</linearGradient>
</defs>
</svg>
