<svg width="57" height="57" viewBox="0 0 57 57" fill="none" xmlns="http://www.w3.org/2000/svg">
<rect width="57" height="57" rx="28.5" fill="#3AA959" fill-opacity="0.2"/>
<g clip-path="url(#clip0_2223:15555)">
<g clip-path="url(#clip1_2223:15555)">
<path d="M39.755 15.875C40.085 15.875 40.38 16 40.64 16.25C40.88 16.49 41 16.78 41 17.12V40.88C41 41.22 40.88 41.51 40.64 41.75C40.38 42 40.085 42.125 39.755 42.125H19.745C19.415 42.125 19.12 42 18.86 41.75C18.62 41.51 18.5 41.22 18.5 40.88V36.5H12.245C11.915 36.5 11.62 36.38 11.36 36.14C11.12 35.88 11 35.585 11 35.255V22.745C11 22.415 11.12 22.12 11.36 21.86C11.62 21.62 11.915 21.5 12.245 21.5H18.5V17.12C18.5 16.78 18.62 16.49 18.86 16.25C19.12 16 19.415 15.875 19.745 15.875H39.755ZM18.545 28.01L20.345 33.92H22.4L24.365 24.08H22.295L21.125 29.9L19.46 24.275H17.75L15.965 29.93L14.795 24.08H12.635L14.6 33.92H16.655L18.545 28.01ZM39.125 40.25V36.5H20.375V40.25H39.125ZM39.125 34.625V29.945H26V34.625H39.125ZM39.125 28.07V23.375H26V28.07H39.125ZM39.125 21.5V17.75H20.375V21.5H39.125Z" fill="#3AA959"/>
</g>
</g>
<defs>
<clipPath id="clip0_2223:15555">
<rect width="37.1657" height="37.1657" fill="white" transform="translate(9.91714 9.91797)"/>
</clipPath>
<clipPath id="clip1_2223:15555">
<rect width="36" height="36" fill="white" transform="translate(8 10)"/>
</clipPath>
</defs>
</svg>
