<svg width="57" height="57" viewBox="0 0 57 57" fill="none" xmlns="http://www.w3.org/2000/svg">
<rect width="57" height="57" rx="28.5" fill="#3AA959" fill-opacity="0.2"/>
<g clip-path="url(#clip0_2223:15528)">
<path d="M39.755 14.875C40.085 14.875 40.38 15 40.64 15.25C40.88 15.49 41 15.78 41 16.12V39.88C41 40.22 40.88 40.51 40.64 40.75C40.38 41 40.085 41.125 39.755 41.125H19.745C19.415 41.125 19.12 41 18.86 40.75C18.62 40.51 18.5 40.22 18.5 39.88V35.5H12.245C11.915 35.5 11.62 35.38 11.36 35.14C11.12 34.88 11 34.585 11 34.255V21.745C11 21.415 11.12 21.12 11.36 20.86C11.62 20.62 11.915 20.5 12.245 20.5H18.5V16.12C18.5 15.78 18.62 15.49 18.86 15.25C19.12 15 19.415 14.875 19.745 14.875H39.755ZM18.5 29.59L20.27 32.92H22.955L20 28.09L22.895 23.335H20.33L18.695 26.35L18.635 26.44L18.59 26.545C18.33 26.015 18.05 25.48 17.75 24.94C17.5 24.41 17.235 23.875 16.955 23.335H14.24L17.075 28.12L14 32.92H16.67L18.5 29.59ZM28.82 39.25V35.5H20.375V39.25H28.82ZM28.82 33.625V28.945H26V33.625H28.82ZM28.82 27.07V22.375H26V27.07H28.82ZM28.82 20.5V16.75H20.375V20.5H28.82ZM39.125 39.25V35.5H30.695V39.25H39.125ZM39.125 33.625V28.945H30.695V33.625H39.125ZM39.125 27.07V22.375H30.695V27.07H39.125ZM39.125 20.5V16.75H30.695V20.5H39.125Z" fill="#3AA959"/>
</g>
<defs>
<clipPath id="clip0_2223:15528">
<rect width="37.1657" height="37.1657" fill="white" transform="translate(9.91714 9.91797)"/>
</clipPath>
</defs>
</svg>
