<svg id="Layer_1" data-name="Layer 1" xmlns="http://www.w3.org/2000/svg" viewBox="0 0 360 360"><defs><style>.cls-1{fill:#3dab5c;}</style></defs><path class="cls-1" d="M314.28,314.12c2,5.64,1.13,14.72-3.95,18.65a12.78,12.78,0,0,1-5.41,2.21c-9.84,2-17.85-1.65-25.91-6.8-9.82-6.28-19.7-12.45-29.48-18.79q-29.35-19-58.16-38.85c-9.42-6.48-15.77-5.88-25,.48-29.58,20.5-60,39.82-89.95,59.73-8.77,5.83-17.73,10.72-27.35,2.77-9.81-8.1-5.81-18-1.86-27.38C85.11,216.56,122.8,126.91,161.37,37.63c3-7,11.53-16.74,20.11-14.87,9.78,2.14,15.16,13.32,19,21.61,8.1,17.29,14.8,35.25,22.29,52.82q16.63,39,33.15,78.06,27.93,66,55.75,132C312.62,309.43,313.41,311.63,314.28,314.12Zm-150-83.2c10.59-7.32,19.56-7.22,30,0,21.56,14.85,43.77,28.75,65.64,43.15-26.38-62.39-52.7-124.67-80.87-191.3C152.55,146.78,127.79,206.39,103,266l0,.08-2,6C122.08,258.36,143.6,245.23,164.3,230.92Z"/></svg>