<svg width="58" height="58" viewBox="0 0 58 58" fill="none" xmlns="http://www.w3.org/2000/svg">
<circle cx="29" cy="29" r="29" fill="#3AA959" fill-opacity="0.17"/>
<g clip-path="url(#clip0)">
<path d="M36.0329 28.8907H29.1882V35.7353H36.0329V28.8907ZM34.6639 13.8325V16.5704H23.7125V13.8325H20.9747V16.5704H19.6058C18.0863 16.5704 16.8816 17.8024 16.8816 19.3082L16.8679 38.4731C16.8679 39.979 18.0863 41.211 19.6058 41.211H38.7707C40.2765 41.211 41.5085 39.979 41.5085 38.4731V19.3082C41.5085 17.8024 40.2765 16.5704 38.7707 16.5704H37.4018V13.8325H34.6639ZM38.7707 38.4731H19.6058V23.415H38.7707V38.4731Z" fill="#3AA959"/>
</g>
<defs>
<clipPath id="clip0">
<rect width="31.6344" height="31.6344" fill="white" transform="translate(13 13)"/>
</clipPath>
</defs>
</svg>
