<svg width="29" height="28" viewBox="0 0 29 28" fill="none" xmlns="http://www.w3.org/2000/svg">
<path d="M25.2599 13.3001H23.2827V8.02774C23.2827 7.32858 23.005 6.65805 22.5106 6.16367C22.0162 5.66928 21.3457 5.39154 20.6465 5.39154H15.3741V3.41439C15.3741 2.54044 15.0269 1.70228 14.4089 1.0843C13.791 0.466318 12.9528 0.119141 12.0789 0.119141C11.2049 0.119141 10.3667 0.466318 9.74876 1.0843C9.13078 1.70228 8.7836 2.54044 8.7836 3.41439V5.39154H3.5112C2.81204 5.39154 2.14151 5.66928 1.64713 6.16367C1.15274 6.65805 0.875 7.32858 0.875 8.02774V13.0365H2.85215C4.8293 13.0365 6.41102 14.6182 6.41102 16.5954C6.41102 18.5725 4.8293 20.1543 2.85215 20.1543H0.875V25.163C0.875 25.8622 1.15274 26.5327 1.64713 27.0271C2.14151 27.5215 2.81204 27.7992 3.5112 27.7992H8.51998V25.8221C8.51998 23.8449 10.1017 22.2632 12.0789 22.2632C14.056 22.2632 15.6377 23.8449 15.6377 25.8221V27.7992H20.6465C21.3457 27.7992 22.0162 27.5215 22.5106 27.0271C23.005 26.5327 23.2827 25.8622 23.2827 25.163V19.8906H25.2599C26.1338 19.8906 26.972 19.5435 27.59 18.9255C28.2079 18.3075 28.5551 17.4693 28.5551 16.5954C28.5551 15.7214 28.2079 14.8833 27.59 14.2653C26.972 13.6473 26.1338 13.3001 25.2599 13.3001Z" fill="#3AA959"/>
</svg>
