<svg width="57" height="57" viewBox="0 0 57 57" fill="none" xmlns="http://www.w3.org/2000/svg">
    <rect x="0.324707" y="0.365234" width="56.3937" height="56.3937" rx="28.1969" fill="#fff" fill-opacity="0.2" />
    <path
        d="M40.8437 28.5626L36.7368 33.4914M29.7539 28.5626H40.8437H29.7539ZM40.8437 28.5626L36.7368 23.6338L40.8437 28.5626Z"
        stroke="#fff" stroke-width="2.81646" stroke-linecap="round" stroke-linejoin="round" />
    <path
        d="M30.9856 22.4028V20.1528C30.9856 19.8119 30.9149 19.4747 30.7779 19.1626C30.6409 18.8505 30.4407 18.5702 30.1899 18.3394C29.939 18.1086 29.6431 17.9323 29.3206 17.8217C28.9982 17.7112 28.6564 17.6687 28.3167 17.697L18.4591 18.5176C17.843 18.5689 17.2688 18.8499 16.8502 19.3048C16.4316 19.7596 16.1992 20.3552 16.1992 20.9734V36.1541C16.1992 36.7723 16.4316 37.3679 16.8502 37.8227C17.2688 38.2776 17.843 38.5586 18.4591 38.6099L28.3167 39.4317C28.6565 39.46 28.9984 39.4175 29.3209 39.3069C29.6434 39.1962 29.9395 39.0199 30.1903 38.7889C30.4412 38.558 30.6414 38.2775 30.7783 37.9653C30.9152 37.653 30.9858 37.3157 30.9856 36.9747V34.7247"
        stroke="#fff" stroke-width="2.81646" stroke-linecap="round" stroke-linejoin="round" />
</svg>