<svg width="57" height="57" viewBox="0 0 57 57" fill="none" xmlns="http://www.w3.org/2000/svg">
    <rect x="0.0869141" y="0.365234" width="56.3937" height="56.3937" rx="28.1969" fill="#fff" fill-opacity="0.2" />
    <path
        d="M28.2831 11.9707L11.6924 17.0755L15.655 18.2918L19.3496 19.4276V22.8287C19.1901 23.0227 19.0701 23.2115 18.9757 23.4119C18.746 23.8956 18.6018 24.4329 18.4716 25.071C18.2291 26.2834 18.0989 27.848 18.0836 29.5632C17.682 29.917 17.3598 30.3518 17.138 30.839C16.9163 31.3262 16.8002 31.8548 16.7972 32.39C16.7972 34.0197 17.9535 35.1977 19.3943 35.7452C19.9724 37.4106 20.9347 39.2394 22.3206 40.79C23.8368 42.4797 25.8608 43.8759 28.2831 43.8759C30.7053 43.8759 32.7294 42.4797 34.2455 40.79C35.6315 39.2394 36.5937 37.4106 37.1719 35.7452C38.6127 35.1964 39.7689 34.0197 39.7689 32.39C39.7667 31.8514 39.6505 31.3193 39.4279 30.8288C39.2053 30.3382 38.8814 29.9004 38.4774 29.5441C38.4634 27.834 38.3332 26.277 38.0945 25.0722C37.9644 24.4341 37.8202 23.8956 37.5904 23.4119C37.4904 23.2028 37.3648 23.0069 37.2165 22.8287V19.4289L44.8738 17.0755L28.2831 11.9707ZM28.2831 14.6431L36.1994 17.0755L28.2831 19.508L20.3668 17.0755L28.2831 14.6431ZM21.902 20.215L28.2831 22.1804L28.6621 22.0655L34.6641 20.215V23.1771C34.6488 23.1975 34.6641 23.2026 34.6041 23.2422C34.405 23.4119 33.9915 23.6557 33.4224 23.8854C32.2814 24.3384 30.5126 24.7328 28.2831 24.7328C26.0548 24.7328 24.2847 24.3384 23.1438 23.8854C22.5746 23.6557 22.1611 23.4119 21.962 23.2422C21.902 23.2026 21.9174 23.1975 21.902 23.1784V20.215ZM20.9653 25.6338C21.3341 25.8584 21.7323 26.0677 22.2007 26.2515C23.7015 26.8513 25.7613 27.2839 28.2831 27.2839C30.8061 27.2839 32.8647 26.85 34.3655 26.2515C34.7944 26.0818 35.2078 25.8752 35.6008 25.6338C35.8012 26.6662 35.9403 28.1709 35.9403 29.8363V30.9185L36.5784 31.2925C36.9677 31.512 37.2165 31.9051 37.2165 32.3887C37.2191 32.7096 37.0985 33.0192 36.8796 33.2538C36.6607 33.4884 36.3601 33.63 36.0399 33.6496L35.1822 33.7198L34.9283 34.543C34.5046 35.9238 33.5576 37.7284 32.3363 39.0888C31.1201 40.4505 29.6984 41.3235 28.2831 41.3235C26.8665 41.3235 25.4461 40.4505 24.2298 39.0901C23.0085 37.7297 22.0616 35.9251 21.6379 34.543L21.3826 33.7211L20.5263 33.6509C20.206 33.6313 19.9055 33.4896 19.6866 33.255C19.4677 33.0205 19.3471 32.7109 19.3496 32.39C19.3496 31.9114 19.6049 31.5171 19.9979 31.2925L20.6514 30.9147L20.6258 29.8376V29.8223C20.6258 28.167 20.7662 26.6675 20.9653 25.635V25.6338ZM18.2929 29.8376H19.3547L18.2827 29.8631L18.2929 29.8376ZM24.4545 31.1138C23.7525 31.1138 23.1782 31.6881 23.1782 32.39C23.1782 33.0919 23.7525 33.6662 24.4545 33.6662C25.1564 33.6662 25.7307 33.0919 25.7307 32.39C25.7307 31.6881 25.1564 31.1138 24.4545 31.1138ZM32.1117 31.1138C31.4098 31.1138 30.8355 31.6881 30.8355 32.39C30.8355 33.0919 31.4098 33.6662 32.1117 33.6662C32.8136 33.6662 33.3879 33.0919 33.3879 32.39C33.3879 31.6881 32.8136 31.1138 32.1117 31.1138Z"
        fill="#fff" />
</svg>