<svg width="64" height="65" viewBox="0 0 64 65" fill="none" xmlns="http://www.w3.org/2000/svg">
<rect x="0.277832" y="0.779297" width="63.4941" height="63.4941" rx="31.7471" fill="#F2994A" fill-opacity="0.2"/>
<path d="M42.2356 21.1127V18.5098H21.4119V21.1127H28.57C30.0065 21.1169 31.3911 21.6501 32.4594 22.6104C33.5277 23.5707 34.2049 24.8908 34.3616 26.3187H21.4119V28.9216H34.3616C34.2049 30.3495 33.5277 31.6696 32.4594 32.6299C31.3911 33.5902 30.0065 34.1233 28.57 34.1276H21.4119V37.1795L33.9283 48.4439L35.6696 46.5099L24.8036 36.7305H28.57C30.6994 36.7274 32.7494 35.9219 34.3112 34.4746C35.8731 33.0273 36.8321 31.0446 36.9971 28.9216H42.2356V26.3187H36.9971C36.8478 24.3644 36.0217 22.5234 34.661 21.1127H42.2356Z" fill="#F39C12"/>
</svg>
