<svg width="64" height="65" viewBox="0 0 64 65" fill="none" xmlns="http://www.w3.org/2000/svg">
<rect x="0.256958" y="0.779297" width="63.4941" height="63.4941" rx="31.7471" fill="#F2994A" fill-opacity="0.2"/>
<path d="M31.0001 35.5C33.7576 35.5 36.0001 33.2575 36.0001 30.5C36.0001 27.7425 33.7576 25.5 31.0001 25.5C28.2426 25.5 26.0001 27.7425 26.0001 30.5C26.0001 33.2575 28.2426 35.5 31.0001 35.5ZM31.0001 28C32.3788 28 33.5001 29.1212 33.5001 30.5C33.5001 31.8787 32.3788 33 31.0001 33C29.6213 33 28.5001 31.8787 28.5001 30.5C28.5001 29.1212 29.6213 28 31.0001 28Z" fill="#F39C12"/>
<path d="M30.2751 45.2675C30.4867 45.4186 30.7401 45.4998 31.0001 45.4998C31.2601 45.4998 31.5136 45.4186 31.7251 45.2675C32.1051 44.9987 41.0364 38.55 41.0001 30.5C41.0001 24.9863 36.5139 20.5 31.0001 20.5C25.4864 20.5 21.0001 24.9862 21.0001 30.4937C20.9639 38.55 29.8951 44.9987 30.2751 45.2675ZM31.0001 23C35.1364 23 38.5001 26.3638 38.5001 30.5063C38.5264 36.0538 33.0151 41.035 31.0001 42.6688C28.9864 41.0338 23.4739 36.0513 23.5001 30.5C23.5001 26.3637 26.8639 23 31.0001 23Z" fill="#F39C12"/>
</svg>
