<svg width="58" height="57" viewBox="0 0 58 57" fill="none" xmlns="http://www.w3.org/2000/svg">
    <rect x="0.672363" y="0.365234" width="56.3937" height="56.3937" rx="28.1969" fill="#fff" fill-opacity="0.2" />
    <path
        d="M16.1068 13.2471V19.6281H14.8306V22.1805H18.6592V15.7995H39.0785V41.3236H18.6592V37.495H16.1068V43.876H41.6309V13.2471H16.1068ZM28.8688 20.9043C26.0612 20.9043 23.764 23.2015 23.764 26.0091C23.764 27.4296 24.3728 28.7109 25.3197 29.6387C24.4514 30.2253 23.7396 31.0151 23.246 31.9394C22.7525 32.8638 22.4922 33.8947 22.4878 34.9426H25.0402C25.0402 33.9272 25.4436 32.9533 26.1616 32.2353C26.8796 31.5173 27.8534 31.114 28.8688 31.114C29.8843 31.114 30.8581 31.5173 31.5761 32.2353C32.2941 32.9533 32.6975 33.9272 32.6975 34.9426H35.2499C35.2455 33.8947 34.9852 32.8638 34.4917 31.9394C33.9981 31.0151 33.2863 30.2253 32.418 29.6387C33.3649 28.7109 33.9737 27.4308 33.9737 26.0091C33.9737 23.2015 31.6765 20.9043 28.8688 20.9043ZM16.1068 23.4567V26.0091H14.8306V28.5616H18.6592V23.4567H16.1068ZM28.8688 23.4567C30.2944 23.4567 31.4213 24.5836 31.4213 26.0091C31.4213 27.4347 30.2944 28.5616 28.8688 28.5616C27.4433 28.5616 26.3164 27.4347 26.3164 26.0091C26.3164 24.5836 27.4433 23.4567 28.8688 23.4567ZM16.1068 29.8378V32.3902H14.8306V34.9426H18.6592V29.8378H16.1068Z"
        fill="#fff" />
</svg>