<svg width="64" height="65" viewBox="0 0 64 65" fill="none" xmlns="http://www.w3.org/2000/svg">
<rect x="0.277832" y="0.779297" width="63.4941" height="63.4941" rx="31.7471" fill="#F2994A" fill-opacity="0.2"/>
<path d="M32.0248 13.8477L13.3452 19.5952L17.8068 20.9646L21.9666 22.2434V26.0727C21.787 26.2911 21.6519 26.5038 21.5456 26.7294C21.2869 27.274 21.1246 27.8789 20.978 28.5973C20.705 29.9624 20.5584 31.724 20.5412 33.6552C20.089 34.0536 19.7262 34.5431 19.4766 35.0916C19.2269 35.6402 19.0962 36.2353 19.0928 36.8379C19.0928 38.6728 20.3946 39.9991 22.0169 40.6155C22.6678 42.4906 23.7512 44.5497 25.3117 46.2955C27.0187 48.198 29.2976 49.7699 32.0248 49.7699C34.7521 49.7699 37.031 48.198 38.738 46.2955C40.2985 44.5497 41.3819 42.4906 42.0328 40.6155C43.655 39.9976 44.9569 38.6728 44.9569 36.8379C44.9544 36.2314 44.8235 35.6324 44.5729 35.0801C44.3222 34.5278 43.9575 34.0349 43.5027 33.6336C43.4869 31.7082 43.3404 29.9552 43.0717 28.5988C42.9251 27.8803 42.7627 27.274 42.5041 26.7294C42.3914 26.4939 42.25 26.2734 42.0831 26.0727V22.2448L50.7044 19.5952L32.0248 13.8477ZM32.0248 16.8565L40.9379 19.5952L32.0248 22.3339L23.1118 19.5952L32.0248 16.8565ZM24.8404 23.13L32.0248 25.3428L32.4516 25.2135L39.2093 23.13V26.465C39.192 26.488 39.2093 26.4937 39.1418 26.5383C38.9176 26.7294 38.452 27.0038 37.8112 27.2625C36.5266 27.7726 34.5351 28.2166 32.0248 28.2166C29.516 28.2166 27.5231 27.7726 26.2385 27.2625C25.5976 27.0038 25.1321 26.7294 24.9079 26.5383C24.8404 26.4937 24.8576 26.488 24.8404 26.4664V23.13ZM23.7857 29.231C24.201 29.4839 24.6493 29.7196 25.1766 29.9265C26.8664 30.6018 29.1855 31.0889 32.0248 31.0889C34.8656 31.0889 37.1833 30.6004 38.8731 29.9265C39.356 29.7355 39.8214 29.5028 40.264 29.231C40.4896 30.3935 40.6462 32.0876 40.6462 33.9627V35.1812L41.3646 35.6022C41.8029 35.8493 42.0831 36.2919 42.0831 36.8365C42.086 37.1977 41.9502 37.5463 41.7037 37.8104C41.4572 38.0745 41.1188 38.2341 40.7583 38.2561L39.7927 38.3352L39.5067 39.262C39.0297 40.8167 37.9635 42.8484 36.5884 44.3802C35.219 45.9133 33.6183 46.8962 32.0248 46.8962C30.4299 46.8962 28.8306 45.9133 27.4613 44.3816C26.0862 42.8499 25.02 40.8181 24.5429 39.262L24.2556 38.3366L23.2914 38.2576C22.9308 38.2355 22.5924 38.076 22.346 37.8119C22.0995 37.5478 21.9637 37.1992 21.9666 36.8379C21.9666 36.2991 22.254 35.8551 22.6965 35.6022L23.4322 35.1769L23.4035 33.9641V33.9469C23.4035 32.0832 23.5615 30.3949 23.7857 29.2324V29.231ZM20.7768 33.9641H21.9723L20.7654 33.9929L20.7768 33.9641ZM27.7142 35.401C26.9239 35.401 26.2773 36.0476 26.2773 36.8379C26.2773 37.6282 26.9239 38.2748 27.7142 38.2748C28.5044 38.2748 29.151 37.6282 29.151 36.8379C29.151 36.0476 28.5044 35.401 27.7142 35.401ZM36.3355 35.401C35.5452 35.401 34.8986 36.0476 34.8986 36.8379C34.8986 37.6282 35.5452 38.2748 36.3355 38.2748C37.1258 38.2748 37.7724 37.6282 37.7724 36.8379C37.7724 36.0476 37.1258 35.401 36.3355 35.401Z" fill="#F39C12"/>
</svg>
