<svg width="65" height="65" viewBox="0 0 65 65" fill="none" xmlns="http://www.w3.org/2000/svg">
<rect x="0.767395" y="0.779297" width="63.4941" height="63.4941" rx="31.7471" fill="#F2994A" fill-opacity="0.2"/>
<g clip-path="url(#clip0_2166:15487)">
<path fill-rule="evenodd" clip-rule="evenodd" d="M44.6032 17.1451C44.7435 17.2319 44.8594 17.3531 44.9397 17.4972C45.0201 17.6413 45.0623 17.8035 45.0624 17.9685V47.031C45.0624 47.288 44.9603 47.5344 44.7787 47.716C44.597 47.8977 44.3506 47.9998 44.0936 47.9998H38.2811C38.0242 47.9998 37.7778 47.8977 37.5961 47.716C37.4145 47.5344 37.3124 47.288 37.3124 47.031V44.1248H35.3749V47.031C35.3749 47.288 35.2728 47.5344 35.0912 47.716C34.9095 47.8977 34.6631 47.9998 34.4061 47.9998H16.9686C16.7117 47.9998 16.4653 47.8977 16.2836 47.716C16.102 47.5344 15.9999 47.288 15.9999 47.031V36.3748C16 36.1715 16.0641 35.9735 16.183 35.8087C16.302 35.6439 16.4697 35.5206 16.6625 35.4564L27.6249 31.8023V25.7185C27.6249 25.5388 27.6749 25.3626 27.7694 25.2096C27.8638 25.0566 27.9989 24.933 28.1596 24.8525L43.6596 17.1025C43.8075 17.0285 43.9718 16.9935 44.137 17.001C44.3021 17.0084 44.4626 17.0581 44.6032 17.1451ZM27.6249 33.8444L17.9374 37.0723V46.0623H27.6249V33.8444ZM29.5624 46.0623H33.4374V43.156C33.4374 42.8991 33.5395 42.6527 33.7211 42.471C33.9028 42.2893 34.1492 42.1873 34.4061 42.1873H38.2811C38.5381 42.1873 38.7845 42.2893 38.9662 42.471C39.1478 42.6527 39.2499 42.8991 39.2499 43.156V46.0623H43.1249V19.536L29.5624 26.3172V46.0623Z" fill="#F39C12"/>
<path d="M19.8749 38.3125H21.8124V40.25H19.8749V38.3125ZM23.7499 38.3125H25.6874V40.25H23.7499V38.3125ZM19.8749 42.1875H21.8124V44.125H19.8749V42.1875ZM23.7499 42.1875H25.6874V44.125H23.7499V42.1875ZM31.4999 34.4375H33.4374V36.375H31.4999V34.4375ZM35.3749 34.4375H37.3124V36.375H35.3749V34.4375ZM31.4999 38.3125H33.4374V40.25H31.4999V38.3125ZM35.3749 38.3125H37.3124V40.25H35.3749V38.3125ZM39.2499 34.4375H41.1874V36.375H39.2499V34.4375ZM39.2499 38.3125H41.1874V40.25H39.2499V38.3125ZM31.4999 30.5625H33.4374V32.5H31.4999V30.5625ZM35.3749 30.5625H37.3124V32.5H35.3749V30.5625ZM39.2499 30.5625H41.1874V32.5H39.2499V30.5625ZM31.4999 26.6875H33.4374V28.625H31.4999V26.6875ZM35.3749 26.6875H37.3124V28.625H35.3749V26.6875ZM39.2499 26.6875H41.1874V28.625H39.2499V26.6875ZM39.2499 22.8125H41.1874V24.75H39.2499V22.8125Z" fill="#F39C12"/>
</g>
<defs>
<clipPath id="clip0_2166:15487">
<rect width="33.2962" height="30.1252" fill="white" transform="translate(15.8663 17.4629)"/>
</clipPath>
</defs>
</svg>
