<svg width="57" height="57" viewBox="0 0 57 57" fill="none" xmlns="http://www.w3.org/2000/svg">
<rect width="57" height="57" rx="28.5" fill="#3AA959" fill-opacity="0.2"/>
<g clip-path="url(#clip0_2242:14009)">
<g clip-path="url(#clip1_2242:14009)">
<path d="M40.5198 21.7676H15.4451C15.0024 21.7676 14.5778 21.9434 14.2647 22.2565C13.9517 22.5695 13.7758 22.9941 13.7758 23.4369V39.6324C13.7758 40.0752 13.9517 40.4997 14.2647 40.8128C14.5778 41.1258 15.0024 41.3017 15.4451 41.3017H40.5198C40.9625 41.3017 41.3871 41.1258 41.7002 40.8128C42.0132 40.4997 42.1891 40.0752 42.1891 39.6324V23.4369C42.1891 22.9941 42.0132 22.5695 41.7002 22.2565C41.3871 21.9434 40.9625 21.7676 40.5198 21.7676ZM40.4133 39.5259H15.5516V23.5434H40.4133V39.5259Z" fill="#3AA959"/>
<path d="M38.7618 15.552C38.7618 15.3165 38.6682 15.0906 38.5017 14.9241C38.3352 14.7576 38.1094 14.6641 37.8739 14.6641H18.3397C18.1042 14.6641 17.8784 14.7576 17.7119 14.9241C17.5454 15.0906 17.4518 15.3165 17.4518 15.552V16.4399H38.7618V15.552Z" fill="#3AA959"/>
<path d="M40.5198 19.1047C40.5198 18.8692 40.4263 18.6434 40.2598 18.4769C40.0933 18.3103 39.8674 18.2168 39.6319 18.2168H16.5461C16.3106 18.2168 16.0848 18.3103 15.9183 18.4769C15.7518 18.6434 15.6582 18.8692 15.6582 19.1047V19.9926H40.5198V19.1047Z" fill="#3AA959"/>
<path d="M23.3831 36.6757C23.6291 36.8352 23.9156 36.9215 24.2088 36.9243C24.4202 36.9238 24.629 36.8784 24.8215 36.7911L33.4964 32.9198C33.7646 32.8033 33.9929 32.6109 34.1532 32.3664C34.3136 32.1219 34.399 31.8359 34.399 31.5435C34.399 31.2511 34.3136 30.9651 34.1532 30.7206C33.9929 30.4761 33.7646 30.2838 33.4964 30.1673L24.8215 26.2959C24.5919 26.194 24.3406 26.1509 24.0902 26.1707C23.8398 26.1904 23.5982 26.2724 23.3875 26.409C23.1768 26.5457 23.0034 26.7328 22.8833 26.9534C22.7631 27.174 22.6999 27.421 22.6994 27.6722V35.4148C22.6998 35.6652 22.7625 35.9115 22.8819 36.1316C23.0012 36.3517 23.1735 36.5387 23.3831 36.6757ZM23.9425 27.6722C23.9422 27.6276 23.9535 27.5837 23.9753 27.5448C23.9971 27.5059 24.0286 27.4733 24.0668 27.4502C24.1132 27.4374 24.1623 27.4374 24.2088 27.4502C24.2439 27.4422 24.2803 27.4422 24.3154 27.4502L32.9903 31.3127C33.0393 31.3327 33.0808 31.3673 33.1094 31.4118C33.138 31.4562 33.1522 31.5084 33.1501 31.5613C33.1517 31.6129 33.1371 31.6637 33.1085 31.7067C33.0798 31.7496 33.0385 31.7826 32.9903 31.801L24.3154 35.6723C24.2776 35.6941 24.2347 35.7056 24.1911 35.7056C24.1474 35.7056 24.1046 35.6941 24.0668 35.6723C24.0297 35.6481 23.9991 35.6152 23.9774 35.5766C23.9558 35.5379 23.9438 35.4946 23.9425 35.4503V27.6722Z" fill="#3AA959"/>
</g>
</g>
<defs>
<clipPath id="clip0_2242:14009">
<rect width="31.9649" height="31.9649" fill="white" transform="translate(12 12)"/>
</clipPath>
<clipPath id="clip1_2242:14009">
<rect width="31.9649" height="31.9649" fill="white" transform="translate(12 12.8887)"/>
</clipPath>
</defs>
</svg>
